<?xml version="1.0" encoding="UTF-8" standalone="no"?>
<svg
   width="1088"
   height="432"
   overflow="hidden"
   version="1.1"
   id="svg18423"
   sodipodi:docname="scheme3.svg"
   inkscape:version="1.2.1 (9c6d41e410, 2022-07-14)"
   xmlns:inkscape="http://www.inkscape.org/namespaces/inkscape"
   xmlns:sodipodi="http://sodipodi.sourceforge.net/DTD/sodipodi-0.dtd"
   xmlns="http://www.w3.org/2000/svg"
   xmlns:svg="http://www.w3.org/2000/svg">
  <sodipodi:namedview
     id="namedview18425"
     pagecolor="#ffffff"
     bordercolor="#000000"
     borderopacity="0.25"
     inkscape:showpageshadow="2"
     inkscape:pageopacity="0.0"
     inkscape:pagecheckerboard="0"
     inkscape:deskcolor="#d1d1d1"
     showgrid="false"
     inkscape:zoom="1.171875"
     inkscape:cx="544"
     inkscape:cy="215.89333"
     inkscape:window-width="1920"
     inkscape:window-height="1129"
     inkscape:window-x="-8"
     inkscape:window-y="-8"
     inkscape:window-maximized="1"
     inkscape:current-layer="svg18423" />
  <defs
     id="defs18343">
    <clipPath
       id="clip0">
      <rect
         x="0"
         y="0"
         width="1088"
         height="432"
         id="rect18340" />
    </clipPath>
  </defs>
  <g
     clip-path="url(#clip0)"
     id="g18421">
    <path
       id="rect18345"
       style="fill:#ffffff"
       d="M 0,0 H 1088 V 432 H 0 Z" />
    <path
       id="rect18347"
       style="fill:#ffffff;stroke:#000000;stroke-width:3;stroke-miterlimit:8"
       d="m 213.5,15.5001 h 144 v 80 h -144 z" />
    <g
       aria-label="DatasetforgenerationofRangerbounds"
       transform="translate(246.953 42)"
       id="text18361"
       style="font-size:16px;font-family:'IntelOne Display Regular', 'IntelOne Display Regular_MSFontService', sans-serif">
      <path
         d="m 1.04,0 v -11.2 h 4.208 q 2.624,0 4.224,1.552 1.616,1.552 1.616,4.032 0,2.464 -1.632,4.048 Q 7.824,0 5.216,0 Z m 8.656,-5.584 q 0,-1.92 -1.248,-3.136 Q 7.216,-9.952 5.232,-9.952 H 2.416 v 8.704 h 2.816 q 1.984,0 3.216,-1.216 1.248,-1.216 1.248,-3.12 z"
         id="path18429" />
      <path
         d="m 19.184014,0 h -1.264 v -1.264 q -0.464,0.672 -1.264,1.056 -0.784,0.368 -1.696,0.368 -1.28,0 -2.08,-0.64 -0.8,-0.656 -0.8,-1.712 0,-1.168 0.896,-1.76 0.896,-0.608 2.656,-0.608 h 2.272 q -0.016,-1.088 -0.576,-1.68 -0.544,-0.592 -1.568,-0.592 -0.608,0 -1.2,0.256 -0.592,0.256 -1.168,0.784 l -0.688,-0.864 q 0.672,-0.64 1.472,-0.96 0.8,-0.336 1.712,-0.336 1.552,0 2.416,0.928 0.88,0.912 0.88,2.528 z m -1.28,-3.552 h -2.256 q -1.168,0 -1.728,0.32 -0.56,0.32 -0.56,1.008 0,0.576 0.48,0.96 0.496,0.384 1.264,0.384 1.152,0 1.936,-0.736 0.8,-0.752 0.864,-1.936 z"
         id="path18431" />
      <path
         d="m 21.136018,-2.064 v -4.512 h -1.056 v -1.152 h 1.056 v -2.368 h 1.296 v 2.368 h 1.792 v 1.152 h -1.792 v 4.4 q 0,0.512 0.224,0.768 0.24,0.24 0.72,0.24 h 0.848 V 0 h -1.04 q -1.072,0 -1.568,-0.496 -0.48,-0.496 -0.48,-1.568 z"
         id="path18433" />
      <path
         d="m 32.256005,0 h -1.264 v -1.264 q -0.464,0.672 -1.264,1.056 -0.784,0.368 -1.696,0.368 -1.28,0 -2.08,-0.64 -0.8,-0.656 -0.8,-1.712 0,-1.168 0.896,-1.76 0.896,-0.608 2.656,-0.608 h 2.272 q -0.016,-1.088 -0.576,-1.68 -0.544,-0.592 -1.568,-0.592 -0.608,0 -1.2,0.256 -0.592,0.256 -1.168,0.784 l -0.688,-0.864 q 0.672,-0.64 1.472,-0.96 0.8,-0.336 1.712,-0.336 1.552,0 2.416,0.928 0.88,0.912 0.88,2.528 z m -1.28,-3.552 h -2.256 q -1.168,0 -1.728,0.32 -0.56,0.32 -0.56,1.008 0,0.576 0.48,0.96 0.496,0.384 1.264,0.384 1.152,0 1.936,-0.736 0.8,-0.752 0.864,-1.936 z"
         id="path18435" />
      <path
         d="m 40.079996,-2.256 q 0,1.088 -0.928,1.776 -0.928,0.688 -2.416,0.688 -0.976,0 -1.84,-0.304 -0.848,-0.32 -1.536,-0.944 l 0.672,-0.992 q 0.736,0.608 1.376,0.88 0.64,0.272 1.36,0.272 0.928,0 1.488,-0.352 0.576,-0.368 0.576,-0.944 0,-0.592 -0.48,-0.848 -0.48,-0.272 -1.584,-0.288 -1.616,-0.064 -2.368,-0.592 -0.736,-0.528 -0.736,-1.648 0,-1.024 0.848,-1.696 0.864,-0.688 2.208,-0.688 0.912,0 1.712,0.288 0.8,0.288 1.456,0.848 l -0.624,0.976 q -0.656,-0.528 -1.264,-0.768 -0.608,-0.24 -1.296,-0.24 -0.784,0 -1.296,0.352 -0.496,0.352 -0.496,0.864 0,0.56 0.448,0.816 0.448,0.256 1.424,0.304 1.744,0.048 2.512,0.576 0.784,0.528 0.784,1.664 z"
         id="path18437" />
      <path
         d="m 45.120006,-0.864 q 0.768,0 1.408,-0.32 0.656,-0.336 1.2,-1.008 l 0.784,0.72 q -0.656,0.864 -1.536,1.296 -0.88,0.416 -1.968,0.416 -1.744,0 -2.864,-1.136 -1.104,-1.152 -1.104,-2.944 0,-1.744 1.136,-2.912 1.136,-1.168 2.8,-1.168 1.696,0 2.752,1.104 1.056,1.104 1.056,2.88 0,0.128 -0.016,0.304 -0.016,0.16 -0.032,0.24 h -6.352 q 0.128,1.136 0.88,1.84 0.768,0.688 1.856,0.688 z m -0.128,-5.952 q -1.008,0 -1.728,0.656 -0.72,0.656 -0.88,1.76 h 5.088 q -0.144,-1.12 -0.816,-1.76 -0.672,-0.656 -1.664,-0.656 z"
         id="path18439" />
      <path
         d="m 50.44803,-2.064 v -4.512 h -1.056 v -1.152 h 1.056 v -2.368 h 1.296 v 2.368 h 1.792 v 1.152 h -1.792 v 4.4 q 0,0.512 0.224,0.768 0.24,0.24 0.72,0.24 h 0.848 V 0 h -1.04 q -1.072,0 -1.568,-0.496 -0.48,-0.496 -0.48,-1.568 z"
         id="path18441" />
      <path
         d="m 58.193302,-6.576 h -1.056 v -1.152 h 1.056 v -1.456 q 0,-0.976 0.512,-1.488 0.528,-0.528 1.504,-0.528 h 1.056 v 1.088 h -0.864 q -0.448,0 -0.672,0.24 -0.224,0.24 -0.224,0.72 v 1.424 h 1.76 v 1.152 h -1.76 V 0 h -1.312 z"
         id="path18443" />
      <path
         d="m 69.8253,-3.856 q 0,1.744 -1.168,2.928 -1.168,1.168 -2.88,1.168 -1.712,0 -2.864,-1.168 -1.136,-1.168 -1.136,-2.912 0,-1.744 1.168,-2.912 1.168,-1.184 2.88,-1.184 1.712,0 2.848,1.168 1.152,1.168 1.152,2.912 z m -6.72,0.016 q 0,1.248 0.768,2.096 0.784,0.848 1.936,0.848 1.136,0 1.904,-0.848 0.784,-0.848 0.784,-2.112 0,-1.232 -0.784,-2.08 -0.784,-0.864 -1.92,-0.864 -1.136,0 -1.92,0.848 -0.768,0.848 -0.768,2.112 z"
         id="path18445" />
      <path
         d="m 71.169308,-7.728 h 1.28 v 0.976 q 0.352,-0.512 0.912,-0.768 0.56,-0.256 1.328,-0.256 h 0.704 v 1.232 h -0.72 q -1.104,0 -1.664,0.576 -0.544,0.576 -0.544,1.744 V 0 h -1.296 z"
         id="path18447" />
      <path
         d="m -0.74533008,18.088 v -0.544 q -0.52800002,0.64 -1.28000002,0.992 -0.736,0.352 -1.584,0.352 -1.632,0 -2.72,-1.088 -1.088,-1.088 -1.088,-2.8 0,-1.696 1.104,-2.8 1.12,-1.12 2.752,-1.12 0.832,0 1.568,0.352 0.736,0.352 1.26400002,0.992 v -1.152 h 1.296 v 6.768 q 0,1.92 -1.024,2.88 -1.02400002,0.96 -3.08800002,0.96 h -1.952 v -1.12 h 2.016 q 1.36,0 2.048,-0.672 0.68800002,-0.672 0.68800002,-2 z M -3.4173301,17.736 q 1.152,0 1.936,-0.784 0.80000002,-0.8 0.80000002,-1.952 0,-1.184 -0.80000002,-1.968 -0.784,-0.8 -1.936,-0.8 -1.2,0 -1.936,0.752 -0.736,0.752 -0.736,2 0,1.232 0.736,2 0.752,0.752 1.936,0.752 z"
         id="path18449" />
      <path
         d="m 5.9746816,18.136 q 0.768,0 1.408,-0.32 0.656,-0.336 1.2,-1.008 l 0.784,0.72 q -0.656,0.864 -1.536,1.296 -0.88,0.416 -1.968,0.416 -1.744,0 -2.864,-1.136 -1.104,-1.152 -1.104,-2.944 0,-1.744 1.136,-2.912 1.136,-1.168 2.8,-1.168 1.696,0 2.752,1.104 1.056,1.104 1.056,2.88 0,0.128 -0.016,0.304 -0.016,0.16 -0.032,0.24 h -6.352 q 0.128,1.136 0.88,1.84 0.768,0.688 1.856,0.688 z m -0.128,-5.952 q -1.008,0 -1.728,0.656 -0.72,0.656 -0.88,1.76 h 5.088 q -0.144,-1.12 -0.816,-1.76 -0.672,-0.656 -1.664,-0.656 z"
         id="path18451" />
      <path
         d="m 10.950692,11.272 h 1.28 v 1.2 q 0.464,-0.672 1.168,-1.024 0.72,-0.368 1.6,-0.368 1.536,0 2.4,0.992 0.864,0.992 0.864,2.72 V 19 h -1.296 v -4.128 q 0,-1.216 -0.608,-1.92 -0.592,-0.704 -1.664,-0.704 -1.104,0 -1.776,0.752 -0.672,0.752 -0.672,1.952 V 19 h -1.296 z"
         id="path18453" />
      <path
         d="m 23.590679,18.136 q 0.768,0 1.408,-0.32 0.656,-0.336 1.2,-1.008 l 0.784,0.72 q -0.656,0.864 -1.536,1.296 -0.88,0.416 -1.968,0.416 -1.744,0 -2.864,-1.136 -1.104,-1.152 -1.104,-2.944 0,-1.744 1.136,-2.912 1.136,-1.168 2.8,-1.168 1.696,0 2.752,1.104 1.056,1.104 1.056,2.88 0,0.128 -0.016,0.304 -0.016,0.16 -0.032,0.24 h -6.352 q 0.128,1.136 0.88,1.84 0.768,0.688 1.856,0.688 z m -0.128,-5.952 q -1.008,0 -1.728,0.656 -0.72,0.656 -0.88,1.76 h 5.088 q -0.144,-1.12 -0.816,-1.76 -0.672,-0.656 -1.664,-0.656 z"
         id="path18455" />
      <path
         d="m 28.566689,11.272 h 1.28 v 0.976 q 0.352,-0.512 0.912,-0.768 0.56,-0.256 1.328,-0.256 h 0.704 v 1.232 h -0.72 q -1.104,0 -1.664,0.576 -0.544,0.576 -0.544,1.744 V 19 h -1.296 z"
         id="path18457" />
      <path
         d="m 40.16668,19 h -1.264 v -1.264 q -0.464,0.672 -1.264,1.056 -0.784,0.368 -1.696,0.368 -1.28,0 -2.08,-0.64 -0.8,-0.656 -0.8,-1.712 0,-1.168 0.896,-1.76 0.896,-0.608 2.656,-0.608 h 2.272 q -0.016,-1.088 -0.576,-1.68 -0.544,-0.592 -1.568,-0.592 -0.608,0 -1.2,0.256 -0.592,0.256 -1.168,0.784 l -0.688,-0.864 q 0.672,-0.64 1.472,-0.96 0.8,-0.336 1.712,-0.336 1.552,0 2.416,0.928 0.88,0.912 0.88,2.528 z m -1.28,-3.552 h -2.256 q -1.168,0 -1.728,0.32 -0.56,0.32 -0.56,1.008 0,0.576 0.48,0.96 0.496,0.384 1.264,0.384 1.152,0 1.936,-0.736 0.8,-0.752 0.864,-1.936 z"
         id="path18459" />
      <path
         d="m 42.118684,16.936 v -4.512 h -1.056 v -1.152 h 1.056 V 8.904 h 1.296 v 2.368 h 1.792 v 1.152 h -1.792 v 4.4 q 0,0.512 0.224,0.768 0.24,0.24 0.72,0.24 h 0.848 V 19 h -1.04 q -1.072,0 -1.568,-0.496 -0.48,-0.496 -0.48,-1.568 z"
         id="path18461" />
      <path
         d="m 46.598685,8.68 h 1.44 v 1.424 h -1.44 z m 0.064,10.32 v -7.728 h 1.312 V 19 Z"
         id="path18463" />
      <path
         d="m 57.510675,15.144 q 0,1.744 -1.168,2.928 -1.168,1.168 -2.88,1.168 -1.712,0 -2.864,-1.168 -1.136,-1.168 -1.136,-2.912 0,-1.744 1.168,-2.912 1.168,-1.184 2.88,-1.184 1.712,0 2.848,1.168 1.152,1.168 1.152,2.912 z m -6.72,0.016 q 0,1.248 0.768,2.096 0.784,0.848 1.936,0.848 1.136,0 1.904,-0.848 0.784,-0.848 0.784,-2.112 0,-1.232 -0.784,-2.08 -0.784,-0.864 -1.92,-0.864 -1.136,0 -1.92,0.848 -0.768,0.848 -0.768,2.112 z"
         id="path18465" />
      <path
         d="m 58.854683,11.272 h 1.28 v 1.2 q 0.464,-0.672 1.168,-1.024 0.72,-0.368 1.6,-0.368 1.536,0 2.4,0.992 0.864,0.992 0.864,2.72 V 19 h -1.296 v -4.128 q 0,-1.216 -0.608,-1.92 -0.592,-0.704 -1.664,-0.704 -1.104,0 -1.776,0.752 -0.672,0.752 -0.672,1.952 V 19 h -1.296 z"
         id="path18467" />
      <path
         d="m 78.6307,15.144 q 0,1.744 -1.168,2.928 -1.168,1.168 -2.88,1.168 -1.712,0 -2.864,-1.168 -1.136,-1.168 -1.136,-2.912 0,-1.744 1.168,-2.912 1.168,-1.184 2.88,-1.184 1.712,0 2.848,1.168 1.152,1.168 1.152,2.912 z m -6.72,0.016 q 0,1.248 0.768,2.096 0.784,0.848 1.936,0.848 1.136,0 1.904,-0.848 0.784,-0.848 0.784,-2.112 0,-1.232 -0.784,-2.08 -0.784,-0.864 -1.92,-0.864 -1.136,0 -1.92,0.848 -0.768,0.848 -0.768,2.112 z"
         id="path18469" />
      <path
         d="m 80.326705,12.424 h -1.056 v -1.152 h 1.056 V 9.816 q 0,-0.976 0.512,-1.488 0.528,-0.528 1.504,-0.528 h 1.056 v 1.088 h -0.864 q -0.448,0 -0.672,0.24 -0.224,0.24 -0.224,0.72 v 1.424 h 1.76 v 1.152 h -1.76 V 19 h -1.312 z"
         id="path18471" />
      <path
         d="M -8.46,33.28 -5.276,38 h -1.632 l -3.024,-4.56 h -3.152 V 38 H -14.46 V 26.8 h 4.928 q 1.888,0 2.944,0.88 1.056,0.864 1.056,2.384 0,1.248 -0.768,2.096 -0.768,0.848 -2.16,1.12 z m 1.536,-3.184 q 0,-0.976 -0.704,-1.52 -0.688,-0.56 -1.936,-0.56 h -3.52 v 4.224 h 3.408 q 1.264,0 2,-0.576 0.752,-0.592 0.752,-1.568 z"
         id="path18473" />
      <path
         d="m 2.6759883,38 h -1.264 v -1.264 q -0.46400002,0.672 -1.26400002,1.056 -0.784,0.368 -1.69599998,0.368 -1.28,0 -2.08,-0.64 -0.8,-0.656 -0.8,-1.712 0,-1.168 0.896,-1.76 0.896,-0.608 2.65599998,-0.608 H 1.3959883 q -0.016,-1.088 -0.57600002,-1.68 -0.544,-0.592 -1.568,-0.592 -0.60799998,0 -1.19999998,0.256 -0.592,0.256 -1.168,0.784 l -0.688,-0.864 q 0.672,-0.64 1.472,-0.96 0.8,-0.336 1.71199998,-0.336 1.552,0 2.41600002,0.928 0.88,0.912 0.88,2.528 z m -1.28,-3.552 h -2.25600002 q -1.16799998,0 -1.72799998,0.32 -0.56,0.32 -0.56,1.008 0,0.576 0.48,0.96 0.496,0.384 1.264,0.384 1.15199998,0 1.93599998,-0.736 0.80000002,-0.752 0.86400002,-1.936 z"
         id="path18475" />
      <path
         d="m 4.2759785,30.272 h 1.28 v 1.2 q 0.464,-0.672 1.168,-1.024 0.72,-0.368 1.6,-0.368 1.536,0 2.4000005,0.992 0.864,0.992 0.864,2.72 V 38 h -1.296 v -4.128 q 0,-1.216 -0.6080005,-1.92 -0.592,-0.704 -1.664,-0.704 -1.104,0 -1.776,0.752 -0.672,0.752 -0.672,1.952 V 38 h -1.296 z"
         id="path18477" />
      <path
         d="m 19.507966,37.088 v -0.544 q -0.528,0.64 -1.28,0.992 -0.736,0.352 -1.584,0.352 -1.632,0 -2.72,-1.088 -1.088,-1.088 -1.088,-2.8 0,-1.696 1.104,-2.8 1.12,-1.12 2.752,-1.12 0.832,0 1.568,0.352 0.736,0.352 1.264,0.992 v -1.152 h 1.296 v 6.768 q 0,1.92 -1.024,2.88 -1.024,0.96 -3.088,0.96 h -1.952 v -1.12 h 2.016 q 1.36,0 2.048,-0.672 0.688,-0.672 0.688,-2 z m -2.672,-0.352 q 1.152,0 1.936,-0.784 0.8,-0.8 0.8,-1.952 0,-1.184 -0.8,-1.968 -0.784,-0.8 -1.936,-0.8 -1.2,0 -1.936,0.752 -0.736,0.752 -0.736,2 0,1.232 0.736,2 0.752,0.752 1.936,0.752 z"
         id="path18479" />
      <path
         d="m 26.227978,37.136 q 0.768,0 1.408,-0.32 0.656,-0.336 1.2,-1.008 l 0.784,0.72 q -0.656,0.864 -1.536,1.296 -0.88,0.416 -1.968,0.416 -1.744,0 -2.864,-1.136 -1.104,-1.152 -1.104,-2.944 0,-1.744 1.136,-2.912 1.136,-1.168 2.8,-1.168 1.696,0 2.752,1.104 1.056,1.104 1.056,2.88 0,0.128 -0.016,0.304 -0.016,0.16 -0.032,0.24 h -6.352 q 0.128,1.136 0.88,1.84 0.768,0.688 1.856,0.688 z m -0.128,-5.952 q -1.008,0 -1.728,0.656 -0.72,0.656 -0.88,1.76 h 5.088 q -0.144,-1.12 -0.816,-1.76 -0.672,-0.656 -1.664,-0.656 z"
         id="path18481" />
      <path
         d="m 31.203988,30.272 h 1.28 v 0.976 q 0.352,-0.512 0.912,-0.768 0.56,-0.256 1.328,-0.256 h 0.704 v 1.232 h -0.72 q -1.104,0 -1.664,0.576 -0.544,0.576 -0.544,1.744 V 38 h -1.296 z"
         id="path18483" />
      <path
         d="m 40.628,38 h -1.28 V 26.8 h 1.296 v 4.672 q 0.512,-0.656 1.248,-1.008 0.752,-0.368 1.584,-0.368 1.632,0 2.72,1.136 1.104,1.12 1.104,2.88 0,1.776 -1.12,2.928 -1.12,1.136 -2.768,1.136 -0.816,0 -1.552,-0.352 -0.72,-0.352 -1.232,-0.976 z m 2.72,-6.752 q -1.152,0 -1.952,0.848 -0.8,0.832 -0.8,2.08 0,1.216 0.784,2.048 0.784,0.816 1.92,0.816 1.184,0 1.92,-0.784 0.752,-0.8 0.752,-2.112 0,-1.296 -0.736,-2.096 -0.72,-0.8 -1.888,-0.8 z"
         id="path18485" />
      <path
         d="m 56.33999,34.144 q 0,1.744 -1.168,2.928 -1.168,1.168 -2.88,1.168 -1.712,0 -2.864,-1.168 -1.136,-1.168 -1.136,-2.912 0,-1.744 1.168,-2.912 1.168,-1.184 2.88,-1.184 1.712,0 2.848,1.168 1.152,1.168 1.152,2.912 z m -6.72,0.016 q 0,1.248 0.768,2.096 0.784,0.848 1.936,0.848 1.136,0 1.904,-0.848 0.784,-0.848 0.784,-2.112 0,-1.232 -0.784,-2.08 -0.784,-0.864 -1.92,-0.864 -1.136,0 -1.92,0.848 -0.768,0.848 -0.768,2.112 z"
         id="path18487" />
      <path
         d="m 64.915999,38 h -1.296 v -1.184 q -0.464,0.672 -1.168,1.024 -0.704,0.336 -1.6,0.336 -1.52,0 -2.4,-0.992 -0.864,-0.992 -0.864,-2.704 v -4.208 h 1.312 V 34.4 q 0,1.216 0.592,1.92 0.608,0.704 1.68,0.704 1.088,0 1.76,-0.752 0.672,-0.752 0.672,-1.952 v -4.048 h 1.312 z"
         id="path18489" />
      <path
         d="m 66.595986,30.272 h 1.28 v 1.2 q 0.464,-0.672 1.168,-1.024 0.72,-0.368 1.6,-0.368 1.536,0 2.4,0.992 0.864,0.992 0.864,2.72 V 38 h -1.296 v -4.128 q 0,-1.216 -0.608,-1.92 -0.592,-0.704 -1.664,-0.704 -1.104,0 -1.776,0.752 -0.672,0.752 -0.672,1.952 V 38 h -1.296 z"
         id="path18491" />
      <path
         d="m 81.811973,26.8 h 1.312 V 38 h -1.296 v -1.248 q -0.528,0.672 -1.28,1.04 -0.736,0.368 -1.584,0.368 -1.616,0 -2.72,-1.12 -1.088,-1.136 -1.088,-2.88 0,-1.76 1.12,-2.912 1.136,-1.168 2.784,-1.168 0.8,0 1.504,0.336 0.72,0.32 1.248,0.928 z m -2.704,10.224 q 1.168,0 1.952,-0.832 0.8,-0.848 0.8,-2.08 0,-1.248 -0.768,-2.064 -0.768,-0.816 -1.92,-0.816 -1.184,0 -1.936,0.8 -0.752,0.8 -0.752,2.096 0,1.296 0.736,2.096 0.736,0.8 1.888,0.8 z"
         id="path18493" />
      <path
         d="m 90.905298,35.744 q 0,1.088 -0.928,1.776 -0.928,0.688 -2.416,0.688 -0.976,0 -1.84,-0.304 -0.848,-0.32 -1.536,-0.944 l 0.672,-0.992 q 0.736,0.608 1.376,0.88 0.64,0.272 1.36,0.272 0.928,0 1.488,-0.352 0.576,-0.368 0.576,-0.944 0,-0.592 -0.48,-0.848 -0.48,-0.272 -1.584,-0.288 -1.616,-0.064 -2.368,-0.592 -0.736,-0.528 -0.736,-1.648 0,-1.024 0.848,-1.696 0.864,-0.688 2.208,-0.688 0.912,0 1.712,0.288 0.8,0.288 1.456,0.848 l -0.624,0.976 q -0.656,-0.528 -1.264,-0.768 -0.608,-0.24 -1.296,-0.24 -0.784,0 -1.296,0.352 -0.496,0.352 -0.496,0.864 0,0.56 0.448,0.816 0.448,0.256 1.424,0.304 1.744,0.048 2.512,0.576 0.784,0.528 0.784,1.664 z"
         id="path18495" />
    </g>
    <path
       id="rect18363"
       style="fill:#8f5da2;stroke:#8f5da2;stroke-width:1.33333;stroke-miterlimit:8"
       d="m 213.5,170.5 h 144 v 80 h -144 z" />
    <g
       aria-label="POTwithRangerInsertion"
       transform="translate(246.953 195)"
       id="text18373"
       style="font-size:19px;font-family:'IntelOne Display Regular', 'IntelOne Display Regular_MSFontService', sans-serif;fill:#ffffff">
      <path
         d="m 1.235,0 v -13.3 h 5.776 q 2.185,0 3.439,1.102 1.273,1.083 1.273,2.945 0,1.881 -1.368,3.021 -1.368,1.121 -3.648,1.121 H 2.869 V 0 Z m 8.816,-9.215 q 0,-1.216 -0.817,-1.9 -0.817,-0.703 -2.28,-0.703 H 2.869 v 5.244 h 3.952 q 1.482,0 2.356,-0.703 0.874,-0.722 0.874,-1.938 z"
         id="path18499" />
      <path
         d="m 12.805983,-6.631 q 0,-2.945 1.957,-4.959 1.957,-2.014 4.826,-2.014 2.888,0 4.807,1.995 1.938,1.976 1.938,4.94 0,2.964 -1.957,4.978 -1.938,1.995 -4.807,1.995 -2.888,0 -4.826,-1.976 -1.938,-1.995 -1.938,-4.959 z m 1.672,-0.038 q 0,2.337 1.463,3.933 1.482,1.577 3.648,1.577 2.166,0 3.61,-1.558 1.463,-1.577 1.463,-3.914 0,-2.337 -1.463,-3.914 -1.463,-1.596 -3.629,-1.596 -2.185,0 -3.648,1.577 -1.444,1.558 -1.444,3.895 z"
         id="path18501" />
      <path
         d="m 31.976978,-11.818 h -5.168 V -13.3 h 11.951 v 1.482 h -5.149 V 0 h -1.634 z"
         id="path18503" />
      <path
         d="M 55.762,-9.177 53.444,0 H 51.943 L 49.378,-7.049 46.832,0 H 45.35 l -2.318,-9.177 h 1.558 l 1.634,7.011 2.489,-7.011 h 1.368 l 2.47,7.011 1.653,-7.011 z"
         id="path18505" />
      <path
         d="m 57.395997,-12.255 h 1.71 v 1.691 h -1.71 z M 57.471997,0 v -9.177 h 1.558 V 0 Z"
         id="path18507" />
      <path
         d="m 61.727985,-2.451 v -5.358 h -1.254 v -1.368 h 1.254 v -2.812 h 1.539 v 2.812 h 2.128 v 1.368 h -2.128 v 5.225 q 0,0.608 0.266,0.912 0.285,0.285 0.855,0.285 h 1.007 V 0 h -1.235 q -1.273,0 -1.862,-0.589 -0.57,-0.589 -0.57,-1.862 z"
         id="path18509" />
      <path
         d="m 66.952986,-13.3 h 1.539 v 5.51 q 0.551,-0.779 1.368,-1.197 0.836,-0.418 1.862,-0.418 1.843,0 2.869,1.178 1.045,1.178 1.045,3.23 V 0 h -1.539 v -4.902 q 0,-1.463 -0.722,-2.28 -0.722,-0.836 -2.014,-0.836 -1.292,0 -2.09,0.893 -0.779,0.893 -0.779,2.318 V 0 h -1.539 z"
         id="path18511" />
      <path
         d="m 16.44667,17.395 3.781,5.605 h -1.938 l -3.591,-5.415 h -3.743 V 23 H 9.3216699 V 9.7 H 15.17367 q 2.242,0 3.496,1.045 1.254,1.026 1.254,2.831 0,1.482 -0.912,2.489 -0.912,1.007 -2.565,1.33 z m 1.824,-3.781 q 0,-1.159 -0.836,-1.805 -0.817,-0.665 -2.299,-0.665 h -4.18 v 5.016 h 4.047 q 1.501,0 2.375,-0.684 0.893,-0.703 0.893,-1.862 z"
         id="path18513" />
      <path
         d="m 29.670656,23 h -1.501 v -1.501 q -0.551,0.798 -1.501,1.254 -0.931,0.437 -2.014,0.437 -1.52,0 -2.47,-0.76 -0.95,-0.779 -0.95,-2.033 0,-1.387 1.064,-2.09 1.064,-0.722 3.154,-0.722 h 2.698 q -0.019,-1.292 -0.684,-1.995 -0.646,-0.703 -1.862,-0.703 -0.722,0 -1.425,0.304 -0.703,0.304 -1.387,0.931 l -0.817,-1.026 q 0.798,-0.76 1.748,-1.14 0.95,-0.399 2.033,-0.399 1.843,0 2.869,1.102 1.045,1.083 1.045,3.002 z m -1.52,-4.218 h -2.679 q -1.387,0 -2.052,0.38 -0.665,0.38 -0.665,1.197 0,0.684 0.57,1.14 0.589,0.456 1.501,0.456 1.368,0 2.299,-0.874 0.95,-0.893 1.026,-2.299 z"
         id="path18515" />
      <path
         d="m 31.570644,13.823 h 1.52 v 1.425 q 0.551,-0.798 1.387,-1.216 0.855,-0.437 1.9,-0.437 1.824,0 2.85,1.178 1.026,1.178 1.026,3.23 V 23 h -1.539 v -4.902 q 0,-1.444 -0.722,-2.28 -0.703,-0.836 -1.976,-0.836 -1.311,0 -2.109,0.893 -0.798,0.893 -0.798,2.318 V 23 h -1.539 z"
         id="path18517" />
      <path
         d="m 49.658629,21.917 v -0.646 q -0.627,0.76 -1.52,1.178 -0.874,0.418 -1.881,0.418 -1.938,0 -3.23,-1.292 -1.292,-1.292 -1.292,-3.325 0,-2.014 1.311,-3.325 1.33,-1.33 3.268,-1.33 0.988,0 1.862,0.418 0.874,0.418 1.501,1.178 v -1.368 h 1.539 v 8.037 q 0,2.28 -1.216,3.42 -1.216,1.14 -3.667,1.14 h -2.318 v -1.33 h 2.394 q 1.615,0 2.432,-0.798 0.817,-0.798 0.817,-2.375 z m -3.173,-0.418 q 1.368,0 2.299,-0.931 0.95,-0.95 0.95,-2.318 0,-1.406 -0.95,-2.337 -0.931,-0.95 -2.299,-0.95 -1.425,0 -2.299,0.893 -0.874,0.893 -0.874,2.375 0,1.463 0.874,2.375 0.893,0.893 2.299,0.893 z"
         id="path18519" />
      <path
         d="m 57.638643,21.974 q 0.912,0 1.672,-0.38 0.779,-0.399 1.425,-1.197 l 0.931,0.855 q -0.779,1.026 -1.824,1.539 -1.045,0.494 -2.337,0.494 -2.071,0 -3.401,-1.349 -1.311,-1.368 -1.311,-3.496 0,-2.071 1.349,-3.458 1.349,-1.387 3.325,-1.387 2.014,0 3.268,1.311 1.254,1.311 1.254,3.42 0,0.152 -0.019,0.361 -0.019,0.19 -0.038,0.285 h -7.543 q 0.152,1.349 1.045,2.185 0.912,0.817 2.204,0.817 z m -0.152,-7.068 q -1.197,0 -2.052,0.779 -0.855,0.779 -1.045,2.09 h 6.042 q -0.171,-1.33 -0.969,-2.09 -0.798,-0.779 -1.976,-0.779 z"
         id="path18521" />
      <path
         d="m 63.547657,13.823 h 1.52 v 1.159 q 0.418,-0.608 1.083,-0.912 0.665,-0.304 1.577,-0.304 h 0.836 v 1.463 h -0.855 q -1.311,0 -1.976,0.684 -0.646,0.684 -0.646,2.071 V 23 h -1.539 z"
         id="path18523" />
      <path
         d="M 4.2013399,45 V 31.7 h 1.634 V 45 Z"
         id="path18525" />
      <path
         d="m 8.2103312,35.823 h 1.52 v 1.425 q 0.5509998,-0.798 1.3869998,-1.216 0.855,-0.437 1.9,-0.437 1.824,0 2.85,1.178 1.026,1.178 1.026,3.23 V 45 h -1.539 v -4.902 q 0,-1.444 -0.722,-2.28 -0.703,-0.836 -1.976,-0.836 -1.311,0 -2.109,0.893 -0.7979998,0.893 -0.7979998,2.318 V 45 h -1.539 z"
         id="path18527" />
      <path
         d="m 26.184316,42.321 q 0,1.292 -1.102,2.109 -1.102,0.817 -2.869,0.817 -1.159,0 -2.185,-0.361 -1.007,-0.38 -1.824,-1.121 l 0.798,-1.178 q 0.874,0.722 1.634,1.045 0.76,0.323 1.615,0.323 1.102,0 1.767,-0.418 0.684,-0.437 0.684,-1.121 0,-0.703 -0.57,-1.007 -0.57,-0.323 -1.881,-0.342 -1.919,-0.076 -2.812,-0.703 -0.874,-0.627 -0.874,-1.957 0,-1.216 1.007,-2.014 1.026,-0.817 2.622,-0.817 1.083,0 2.033,0.342 0.95,0.342 1.729,1.007 l -0.741,1.159 q -0.779,-0.627 -1.501,-0.912 -0.722,-0.285 -1.539,-0.285 -0.931,0 -1.539,0.418 -0.589,0.418 -0.589,1.026 0,0.665 0.532,0.969 0.532,0.304 1.691,0.361 2.071,0.057 2.983,0.684 0.931,0.627 0.931,1.976 z"
         id="path18529" />
      <path
         d="m 32.169329,43.974 q 0.912,0 1.672,-0.38 0.779,-0.399 1.425,-1.197 l 0.931,0.855 q -0.779,1.026 -1.824,1.539 -1.045,0.494 -2.337,0.494 -2.071,0 -3.401,-1.349 -1.311,-1.368 -1.311,-3.496 0,-2.071 1.349,-3.458 1.349,-1.387 3.325,-1.387 2.014,0 3.268,1.311 1.254,1.311 1.254,3.42 0,0.152 -0.019,0.361 -0.019,0.19 -0.038,0.285 h -7.543 q 0.152,1.349 1.045,2.185 0.912,0.817 2.204,0.817 z m -0.152,-7.068 q -1.197,0 -2.052,0.779 -0.855,0.779 -1.045,2.09 h 6.042 q -0.171,-1.33 -0.969,-2.09 -0.798,-0.779 -1.976,-0.779 z"
         id="path18531" />
      <path
         d="m 38.078339,35.823 h 1.52 v 1.159 q 0.418,-0.608 1.083,-0.912 0.665,-0.304 1.577,-0.304 h 0.836 v 1.463 h -0.855 q -1.311,0 -1.976,0.684 -0.646,0.684 -0.646,2.071 V 45 h -1.539 z"
         id="path18533" />
      <path
         d="m 44.861339,42.549 v -5.358 h -1.254 v -1.368 h 1.254 v -2.812 h 1.539 v 2.812 h 2.128 v 1.368 h -2.128 v 5.225 q 0,0.608 0.266,0.912 0.285,0.285 0.855,0.285 h 1.007 V 45 h -1.235 q -1.273,0 -1.862,-0.589 -0.57,-0.589 -0.57,-1.862 z"
         id="path18535" />
      <path
         d="m 50.181342,32.745 h 1.71 v 1.691 h -1.71 z m 0.076,12.255 v -9.177 h 1.558 V 45 Z"
         id="path18537" />
      <path
         d="m 63.139328,40.421 q 0,2.071 -1.387,3.477 -1.387,1.387 -3.42,1.387 -2.033,0 -3.401,-1.387 -1.349,-1.387 -1.349,-3.458 0,-2.071 1.387,-3.458 1.387,-1.406 3.42,-1.406 2.033,0 3.382,1.387 1.368,1.387 1.368,3.458 z m -7.98,0.019 q 0,1.482 0.912,2.489 0.931,1.007 2.299,1.007 1.349,0 2.261,-1.007 0.931,-1.007 0.931,-2.508 0,-1.463 -0.931,-2.47 -0.931,-1.026 -2.28,-1.026 -1.349,0 -2.28,1.007 -0.912,1.007 -0.912,2.508 z"
         id="path18539" />
      <path
         d="m 63.673698,35.823 h 1.52 v 1.425 q 0.551,-0.798 1.387,-1.216 0.855,-0.437 1.9,-0.437 1.824,0 2.85,1.178 1.026,1.178 1.026,3.23 V 45 h -1.539 v -4.902 q 0,-1.444 -0.722,-2.28 -0.703,-0.836 -1.976,-0.836 -1.311,0 -2.109,0.893 -0.798,0.893 -0.798,2.318 V 45 h -1.539 z"
         id="path18541" />
    </g>
    <path
       id="rect18375"
       style="fill:#b1d272;stroke:#000000;stroke-width:1.33333;stroke-miterlimit:8"
       d="M 34.500099,179.5 H 164.5001 v 63 H 34.500099 Z" />
    <g
       aria-label="OpenVINO IR model"
       transform="translate(52.8803 206)"
       id="text18379"
       style="font-size:19px;font-family:'IntelOne Display Regular', 'IntelOne Display Regular_MSFontService', sans-serif">
      <path
         d="m 0.703,-6.631 q 0,-2.945 1.957,-4.959 1.957,-2.014 4.826,-2.014 2.888,0 4.807,1.995 1.938,1.976 1.938,4.94 0,2.964 -1.957,4.978 -1.938,1.995 -4.807,1.995 -2.888,0 -4.826,-1.976 -1.938,-1.995 -1.938,-4.959 z m 1.672,-0.038 q 0,2.337 1.463,3.933 1.482,1.577 3.648,1.577 2.166,0 3.61,-1.558 1.463,-1.577 1.463,-3.914 0,-2.337 -1.463,-3.914 -1.463,-1.596 -3.629,-1.596 -2.185,0 -3.648,1.577 -1.444,1.558 -1.444,3.895 z"
         id="path18545" />
      <path
         d="m 17.479987,3.42 h -1.539 V -9.177 h 1.52 v 1.482 q 0.608,-0.798 1.501,-1.235 0.893,-0.456 1.9,-0.456 1.938,0 3.23,1.349 1.292,1.33 1.292,3.42 0,2.109 -1.349,3.477 -1.33,1.349 -3.287,1.349 -0.931,0 -1.805,-0.38 -0.855,-0.399 -1.463,-1.121 z m 3.211,-11.438 q -1.387,0 -2.337,1.007 -0.931,0.988 -0.931,2.47 0,1.463 0.912,2.432 0.931,0.969 2.299,0.969 1.406,0 2.28,-0.931 0.893,-0.95 0.893,-2.508 0,-1.539 -0.874,-2.489 -0.855,-0.95 -2.242,-0.95 z"
         id="path18547" />
      <path
         d="m 31.406975,-1.026 q 0.912,0 1.672,-0.38 0.779,-0.399 1.425,-1.197 l 0.931,0.855 q -0.779,1.026 -1.824,1.539 -1.045,0.494 -2.337,0.494 -2.071,0 -3.401,-1.349 -1.311,-1.368 -1.311,-3.496 0,-2.071 1.349,-3.458 1.349,-1.387 3.325,-1.387 2.014,0 3.268,1.311 1.254,1.311 1.254,3.42 0,0.152 -0.019,0.361 -0.019,0.19 -0.038,0.285 h -7.543 q 0.152,1.349 1.045,2.185 0.912,0.817 2.204,0.817 z m -0.152,-7.068 q -1.197,0 -2.052,0.779 -0.855,0.779 -1.045,2.09 h 6.042 q -0.171,-1.33 -0.969,-2.09 -0.798,-0.779 -1.976,-0.779 z"
         id="path18549" />
      <path
         d="m 37.315987,-9.177 h 1.52 v 1.425 q 0.551,-0.798 1.387,-1.216 0.855,-0.437 1.9,-0.437 1.824,0 2.85,1.178 1.026,1.178 1.026,3.23 V 0 h -1.539 v -4.902 q 0,-1.444 -0.722,-2.28 -0.703,-0.836 -1.976,-0.836 -1.311,0 -2.109,0.893 -0.798,0.893 -0.798,2.318 V 0 h -1.539 z"
         id="path18551" />
      <path
         d="m 52.078986,0 -5.89,-13.3 h 1.786 l 4.959,11.21 4.902,-11.21 h 1.748 l -5.89,13.3 z"
         id="path18553" />
      <path
         d="m 61.217991,0 v -13.3 h 1.634 V 0 Z"
         id="path18555" />
      <path
         d="M 67.050986,-10.925 V 0 h -1.596 v -13.3 h 1.748 l 8.303,10.868 V -13.3 h 1.596 V 0 h -1.71 z"
         id="path18557" />
      <path
         d="m 79.039983,-6.631 q 0,-2.945 1.957,-4.959 1.957,-2.014 4.826,-2.014 2.888,0 4.807,1.995 1.938,1.976 1.938,4.94 0,2.964 -1.957,4.978 -1.938,1.995 -4.807,1.995 -2.888,0 -4.826,-1.976 -1.938,-1.995 -1.938,-4.959 z m 1.672,-0.038 q 0,2.337 1.463,3.933 1.482,1.577 3.648,1.577 2.166,0 3.61,-1.558 1.463,-1.577 1.463,-3.914 0,-2.337 -1.463,-3.914 -1.463,-1.596 -3.629,-1.596 -2.185,0 -3.648,1.577 -1.444,1.558 -1.444,3.895 z"
         id="path18559" />
      <path
         d="M 12.1147,23 V 9.7 h 1.634 V 23 Z"
         id="path18561" />
      <path
         d="m 23.476692,17.395 3.781,5.605 h -1.938 l -3.591,-5.415 h -3.743 V 23 h -1.634 V 9.7 h 5.852 q 2.242,0 3.496,1.045 1.254,1.026 1.254,2.831 0,1.482 -0.912,2.489 -0.912,1.007 -2.565,1.33 z m 1.824,-3.781 q 0,-1.159 -0.836,-1.805 -0.817,-0.665 -2.299,-0.665 h -4.18 v 5.016 h 4.047 q 1.501,0 2.375,-0.684 0.893,-0.703 0.893,-1.862 z"
         id="path18563" />
      <path
         d="m 32.330668,13.823 h 1.52 v 1.102 q 0.513,-0.665 1.159,-0.988 0.665,-0.342 1.482,-0.342 0.95,0 1.691,0.399 0.741,0.399 1.178,1.159 0.513,-0.76 1.292,-1.159 0.798,-0.399 1.786,-0.399 1.615,0 2.565,1.045 0.969,1.045 0.969,2.717 V 23 h -1.558 v -5.548 q 0,-1.159 -0.589,-1.805 -0.57,-0.665 -1.615,-0.665 -1.026,0 -1.672,0.722 -0.627,0.703 -0.627,1.843 V 23 h -1.539 v -5.548 q 0,-1.159 -0.589,-1.805 -0.57,-0.665 -1.615,-0.665 -1.026,0 -1.672,0.722 -0.627,0.703 -0.627,1.843 V 23 h -1.539 z"
         id="path18565" />
      <path
         d="m 57.011681,18.421 q 0,2.071 -1.387,3.477 -1.387,1.387 -3.42,1.387 -2.033,0 -3.401,-1.387 -1.349,-1.387 -1.349,-3.458 0,-2.071 1.387,-3.458 1.387,-1.406 3.42,-1.406 2.033,0 3.382,1.387 1.368,1.387 1.368,3.458 z m -7.98,0.019 q 0,1.482 0.912,2.489 0.931,1.007 2.299,1.007 1.349,0 2.261,-1.007 0.931,-1.007 0.931,-2.508 0,-1.463 -0.931,-2.47 -0.931,-1.026 -2.28,-1.026 -1.349,0 -2.28,1.007 -0.912,1.007 -0.912,2.508 z"
         id="path18567" />
      <path
         d="m 66.093693,9.7 h 1.558 V 23 h -1.539 v -1.482 q -0.627,0.798 -1.52,1.235 -0.874,0.437 -1.881,0.437 -1.919,0 -3.23,-1.33 -1.292,-1.349 -1.292,-3.42 0,-2.09 1.33,-3.458 1.349,-1.387 3.306,-1.387 0.95,0 1.786,0.399 0.855,0.38 1.482,1.102 z m -3.211,12.141 q 1.387,0 2.318,-0.988 0.95,-1.007 0.95,-2.47 0,-1.482 -0.912,-2.451 -0.912,-0.969 -2.28,-0.969 -1.406,0 -2.299,0.95 -0.893,0.95 -0.893,2.489 0,1.539 0.874,2.489 0.874,0.95 2.242,0.95 z"
         id="path18569" />
      <path
         d="m 74.073683,21.974 q 0.912,0 1.672,-0.38 0.779,-0.399 1.425,-1.197 l 0.931,0.855 q -0.779,1.026 -1.824,1.539 -1.045,0.494 -2.337,0.494 -2.071,0 -3.401,-1.349 -1.311,-1.368 -1.311,-3.496 0,-2.071 1.349,-3.458 1.349,-1.387 3.325,-1.387 2.014,0 3.268,1.311 1.254,1.311 1.254,3.42 0,0.152 -0.019,0.361 -0.019,0.19 -0.038,0.285 h -7.543 q 0.152,1.349 1.045,2.185 0.912,0.817 2.204,0.817 z m -0.152,-7.068 q -1.197,0 -2.052,0.779 -0.855,0.779 -1.045,2.09 h 6.042 q -0.171,-1.33 -0.969,-2.09 -0.798,-0.779 -1.976,-0.779 z"
         id="path18571" />
      <path
         d="m 80.153689,9.7 h 1.558 V 23 h -1.558 z"
         id="path18573" />
    </g>
    <path
       id="rect18381"
       style="fill:#b1d272;stroke:#000000;stroke-width:1.33333;stroke-miterlimit:8"
       d="m 406.5,179.5 h 130 v 63 h -130 z" />
    <g
       aria-label="IR model with Ranger"
       transform="translate(435.105 206)"
       id="text18385"
       style="font-size:19px;font-family:'IntelOne Display Regular', 'IntelOne Display Regular_MSFontService', sans-serif">
      <path
         d="M 1.368,0 V -13.3 H 3.002 V 0 Z"
         id="path18577" />
      <path
         d="m 12.729991,-5.605 3.781,5.605 h -1.938 l -3.591,-5.415 H 7.2389913 V 0 h -1.634 v -13.3 h 5.8519997 q 2.242,0 3.496,1.045 1.254,1.026 1.254,2.831 0,1.482 -0.912,2.489 -0.912,1.007 -2.565,1.33 z m 1.824,-3.781 q 0,-1.159 -0.836,-1.805 -0.817,-0.665 -2.299,-0.665 H 7.2389913 v 5.016 h 4.0469997 q 1.501,0 2.375,-0.684 0.893,-0.703 0.893,-1.862 z"
         id="path18579" />
      <path
         d="m 21.583967,-9.177 h 1.52 v 1.102 q 0.513,-0.665 1.159,-0.988 0.665,-0.342 1.482,-0.342 0.95,0 1.691,0.399 0.741,0.399 1.178,1.159 0.513,-0.76 1.292,-1.159 0.798,-0.399 1.786,-0.399 1.615,0 2.565,1.045 0.969,1.045 0.969,2.717 V 0 h -1.558 v -5.548 q 0,-1.159 -0.589,-1.805 -0.57,-0.665 -1.615,-0.665 -1.026,0 -1.672,0.722 -0.627,0.703 -0.627,1.843 V 0 h -1.539 v -5.548 q 0,-1.159 -0.589,-1.805 -0.57,-0.665 -1.615,-0.665 -1.026,0 -1.672,0.722 -0.627,0.703 -0.627,1.843 V 0 h -1.539 z"
         id="path18581" />
      <path
         d="m 46.26498,-4.579 q 0,2.071 -1.387,3.477 -1.387,1.387 -3.42,1.387 -2.033,0 -3.401,-1.387 -1.349,-1.387 -1.349,-3.458 0,-2.071 1.387,-3.458 1.387,-1.406 3.42,-1.406 2.033,0 3.382,1.387 1.368,1.387 1.368,3.458 z m -7.98,0.019 q 0,1.482 0.912,2.489 0.931,1.007 2.299,1.007 1.349,0 2.261,-1.007 0.931,-1.007 0.931,-2.508 0,-1.463 -0.931,-2.47 -0.931,-1.026 -2.28,-1.026 -1.349,0 -2.28,1.007 -0.912,1.007 -0.912,2.508 z"
         id="path18583" />
      <path
         d="m 55.346992,-13.3 h 1.558 V 0 h -1.539 v -1.482 q -0.627,0.798 -1.52,1.235 -0.874,0.437 -1.881,0.437 -1.919,0 -3.23,-1.33 -1.292,-1.349 -1.292,-3.42 0,-2.09 1.33,-3.458 1.349,-1.387 3.306,-1.387 0.95,0 1.786,0.399 0.855,0.38 1.482,1.102 z m -3.211,12.141 q 1.387,0 2.318,-0.988 0.95,-1.007 0.95,-2.47 0,-1.482 -0.912,-2.451 -0.912,-0.969 -2.28,-0.969 -1.406,0 -2.299,0.95 -0.893,0.95 -0.893,2.489 0,1.539 0.874,2.489 0.874,0.95 2.242,0.95 z"
         id="path18585" />
      <path
         d="m 63.326982,-1.026 q 0.912,0 1.672,-0.38 0.779,-0.399 1.425,-1.197 l 0.931,0.855 q -0.779,1.026 -1.824,1.539 -1.045,0.494 -2.337,0.494 -2.071,0 -3.401,-1.349 -1.311,-1.368 -1.311,-3.496 0,-2.071 1.349,-3.458 1.349,-1.387 3.325,-1.387 2.014,0 3.268,1.311 1.254,1.311 1.254,3.42 0,0.152 -0.019,0.361 -0.019,0.19 -0.038,0.285 h -7.543 q 0.152,1.349 1.045,2.185 0.912,0.817 2.204,0.817 z m -0.152,-7.068 q -1.197,0 -2.052,0.779 -0.855,0.779 -1.045,2.09 h 6.042 q -0.171,-1.33 -0.969,-2.09 -0.798,-0.779 -1.976,-0.779 z"
         id="path18587" />
      <path
         d="m 69.406989,-13.3 h 1.558 V 0 h -1.558 z"
         id="path18589" />
      <path
         d="M 0.51539985,13.823 -1.8026002,23 h -1.501 l -2.565,-7.049 -2.546,7.049 h -1.482 L -12.2146,13.823 h 1.558 l 1.6339998,7.011 2.489,-7.011 h 1.368 l 2.47,7.011 1.653,-7.011 z"
         id="path18591" />
      <path
         d="m 2.1493967,10.745 h 1.71 v 1.691 h -1.71 z m 0.076,12.255 v -9.177 h 1.558 V 23 Z"
         id="path18593" />
      <path
         d="m 6.4813848,20.549 v -5.358 h -1.254 v -1.368 h 1.254 v -2.812 h 1.539 v 2.812 h 2.1280002 v 1.368 H 8.0203848 v 5.225 q 0,0.608 0.266,0.912 0.285,0.285 0.855,0.285 H 10.148385 V 23 H 8.9133848 q -1.273,0 -1.862,-0.589 -0.57,-0.589 -0.57,-1.862 z"
         id="path18595" />
      <path
         d="m 11.706386,9.7 h 1.539 v 5.51 q 0.551,-0.779 1.368,-1.197 0.836,-0.418 1.862,-0.418 1.843,0 2.869,1.178 1.045,1.178 1.045,3.23 V 23 h -1.539 v -4.902 q 0,-1.463 -0.722,-2.28 -0.722,-0.836 -2.014,-0.836 -1.292,0 -2.09,0.893 -0.779,0.893 -0.779,2.318 V 23 h -1.539 z"
         id="path18597" />
      <path
         d="m 33.15736,17.395 3.781,5.605 h -1.938 l -3.591,-5.415 h -3.743 V 23 h -1.634 V 9.7 h 5.852 q 2.242,0 3.496,1.045 1.254,1.026 1.254,2.831 0,1.482 -0.912,2.489 -0.912,1.007 -2.565,1.33 z m 1.824,-3.781 q 0,-1.159 -0.836,-1.805 -0.817,-0.665 -2.299,-0.665 h -4.18 v 5.016 h 4.047 q 1.501,0 2.375,-0.684 0.893,-0.703 0.893,-1.862 z"
         id="path18599" />
      <path
         d="m 46.381347,23 h -1.501 v -1.501 q -0.551,0.798 -1.501,1.254 -0.931,0.437 -2.014,0.437 -1.52,0 -2.47,-0.76 -0.95,-0.779 -0.95,-2.033 0,-1.387 1.064,-2.09 1.064,-0.722 3.154,-0.722 h 2.698 q -0.019,-1.292 -0.684,-1.995 -0.646,-0.703 -1.862,-0.703 -0.722,0 -1.425,0.304 -0.703,0.304 -1.387,0.931 l -0.817,-1.026 q 0.798,-0.76 1.748,-1.14 0.95,-0.399 2.033,-0.399 1.843,0 2.869,1.102 1.045,1.083 1.045,3.002 z m -1.52,-4.218 h -2.679 q -1.387,0 -2.052,0.38 -0.665,0.38 -0.665,1.197 0,0.684 0.57,1.14 0.589,0.456 1.501,0.456 1.368,0 2.299,-0.874 0.95,-0.893 1.026,-2.299 z"
         id="path18601" />
      <path
         d="m 48.281335,13.823 h 1.52 v 1.425 q 0.551,-0.798 1.387,-1.216 0.855,-0.437 1.9,-0.437 1.824,0 2.85,1.178 1.026,1.178 1.026,3.23 V 23 h -1.539 v -4.902 q 0,-1.444 -0.722,-2.28 -0.703,-0.836 -1.976,-0.836 -1.311,0 -2.109,0.893 -0.798,0.893 -0.798,2.318 V 23 h -1.539 z"
         id="path18603" />
      <path
         d="m 66.36932,21.917 v -0.646 q -0.627,0.76 -1.52,1.178 -0.874,0.418 -1.881,0.418 -1.938,0 -3.23,-1.292 -1.292,-1.292 -1.292,-3.325 0,-2.014 1.311,-3.325 1.33,-1.33 3.268,-1.33 0.988,0 1.862,0.418 0.874,0.418 1.501,1.178 v -1.368 h 1.539 v 8.037 q 0,2.28 -1.216,3.42 -1.216,1.14 -3.667,1.14 h -2.318 v -1.33 h 2.394 q 1.615,0 2.432,-0.798 0.817,-0.798 0.817,-2.375 z m -3.173,-0.418 q 1.368,0 2.299,-0.931 0.95,-0.95 0.95,-2.318 0,-1.406 -0.95,-2.337 -0.931,-0.95 -2.299,-0.95 -1.425,0 -2.299,0.893 -0.874,0.893 -0.874,2.375 0,1.463 0.874,2.375 0.893,0.893 2.299,0.893 z"
         id="path18605" />
      <path
         d="m 74.349334,21.974 q 0.912,0 1.672,-0.38 0.779,-0.399 1.425,-1.197 l 0.931,0.855 q -0.779,1.026 -1.824,1.539 -1.045,0.494 -2.337,0.494 -2.071,0 -3.401,-1.349 -1.311,-1.368 -1.311,-3.496 0,-2.071 1.349,-3.458 1.349,-1.387 3.325,-1.387 2.014,0 3.268,1.311 1.254,1.311 1.254,3.42 0,0.152 -0.019,0.361 -0.019,0.19 -0.038,0.285 h -7.543 q 0.152,1.349 1.045,2.185 0.912,0.817 2.204,0.817 z m -0.152,-7.068 q -1.197,0 -2.052,0.779 -0.855,0.779 -1.045,2.09 h 6.042 q -0.171,-1.33 -0.969,-2.09 -0.798,-0.779 -1.976,-0.779 z"
         id="path18607" />
      <path
         d="m 80.258348,13.823 h 1.52 v 1.159 q 0.418,-0.608 1.083,-0.912 0.665,-0.304 1.577,-0.304 h 0.836 v 1.463 h -0.855 q -1.311,0 -1.976,0.684 -0.646,0.684 -0.646,2.071 V 23 h -1.539 z"
         id="path18609" />
    </g>
    <path
       id="rect18387"
       style="fill:#8f5da2;stroke:#8f5da2;stroke-width:1.33333;stroke-miterlimit:8"
       d="m 713.5,301.5 h 144 v 80 h -144 z" />
    <g
       aria-label="InferenceEngine"
       transform="translate(746.627 337)"
       id="text18391"
       style="font-size:19px;font-family:'IntelOne Display Regular', 'IntelOne Display Regular_MSFontService', sans-serif;fill:#ffffff">
      <path
         d="M 1.368,0 V -13.3 H 3.002 V 0 Z"
         id="path18613" />
      <path
         d="m 5.3769913,-9.177 h 1.52 v 1.425 q 0.551,-0.798 1.387,-1.216 0.855,-0.437 1.8999997,-0.437 1.824,0 2.85,1.178 1.026,1.178 1.026,3.23 V 0 h -1.539 v -4.902 q 0,-1.444 -0.722,-2.28 -0.703,-0.836 -1.9759997,-0.836 -1.311,0 -2.109,0.893 -0.798,0.893 -0.798,2.318 V 0 h -1.539 z"
         id="path18615" />
      <path
         d="m 16.567976,-7.809 h -1.254 v -1.368 h 1.254 v -1.729 q 0,-1.159 0.608,-1.767 0.627,-0.627 1.786,-0.627 h 1.254 v 1.292 h -1.026 q -0.532,0 -0.798,0.285 -0.266,0.285 -0.266,0.855 v 1.691 h 2.09 v 1.368 h -2.09 V 0 h -1.558 z"
         id="path18617" />
      <path
         d="m 25.668974,-1.026 q 0.912,0 1.672,-0.38 0.779,-0.399 1.425,-1.197 l 0.931,0.855 q -0.779,1.026 -1.824,1.539 -1.045,0.494 -2.337,0.494 -2.071,0 -3.401,-1.349 -1.311,-1.368 -1.311,-3.496 0,-2.071 1.349,-3.458 1.349,-1.387 3.325,-1.387 2.014,0 3.268,1.311 1.254,1.311 1.254,3.42 0,0.152 -0.019,0.361 -0.019,0.19 -0.038,0.285 h -7.543 q 0.152,1.349 1.045,2.185 0.912,0.817 2.204,0.817 z m -0.152,-7.068 q -1.197,0 -2.052,0.779 -0.855,0.779 -1.045,2.09 h 6.042 q -0.171,-1.33 -0.969,-2.09 -0.798,-0.779 -1.976,-0.779 z"
         id="path18619" />
      <path
         d="m 31.577986,-9.177 h 1.52 v 1.159 q 0.418,-0.608 1.083,-0.912 0.665,-0.304 1.577,-0.304 h 0.836 v 1.463 h -0.855 q -1.311,0 -1.976,0.684 -0.646,0.684 -0.646,2.071 V 0 h -1.539 z"
         id="path18621" />
      <path
         d="m 42.027975,-1.026 q 0.912,0 1.672,-0.38 0.779,-0.399 1.425,-1.197 l 0.931,0.855 q -0.779,1.026 -1.824,1.539 -1.045,0.494 -2.337,0.494 -2.071,0 -3.401,-1.349 -1.311,-1.368 -1.311,-3.496 0,-2.071 1.349,-3.458 1.349,-1.387 3.325,-1.387 2.014,0 3.268,1.311 1.254,1.311 1.254,3.42 0,0.152 -0.019,0.361 -0.019,0.19 -0.038,0.285 h -7.543 q 0.152,1.349 1.045,2.185 0.912,0.817 2.204,0.817 z m -0.152,-7.068 q -1.197,0 -2.052,0.779 -0.855,0.779 -1.045,2.09 h 6.042 q -0.171,-1.33 -0.969,-2.09 -0.798,-0.779 -1.976,-0.779 z"
         id="path18623" />
      <path
         d="m 47.936985,-9.177 h 1.52 v 1.425 q 0.551,-0.798 1.387,-1.216 0.855,-0.437 1.9,-0.437 1.824,0 2.85,1.178 1.026,1.178 1.026,3.23 V 0 h -1.539 v -4.902 q 0,-1.444 -0.722,-2.28 -0.703,-0.836 -1.976,-0.836 -1.311,0 -2.109,0.893 -0.798,0.893 -0.798,2.318 V 0 h -1.539 z"
         id="path18625" />
      <path
         d="m 62.85197,0.285 q -2.109,0 -3.439,-1.33 -1.311,-1.349 -1.311,-3.515 0,-2.052 1.387,-3.458 1.387,-1.406 3.401,-1.406 1.463,0 2.489,0.684 1.045,0.665 1.577,1.938 l -1.311,0.627 q -0.437,-0.95 -1.14,-1.425 -0.684,-0.475 -1.634,-0.475 -1.349,0 -2.28,1.026 -0.912,1.007 -0.912,2.489 0,1.501 0.912,2.508 0.931,0.988 2.318,0.988 0.893,0 1.653,-0.475 0.779,-0.494 1.254,-1.368 l 1.197,0.646 q -0.551,1.178 -1.653,1.862 -1.102,0.684 -2.508,0.684 z"
         id="path18627" />
      <path
         d="m 72.978968,-1.026 q 0.912,0 1.672,-0.38 0.779,-0.399 1.425,-1.197 l 0.931,0.855 q -0.779,1.026 -1.824,1.539 -1.045,0.494 -2.337,0.494 -2.071,0 -3.401,-1.349 -1.311,-1.368 -1.311,-3.496 0,-2.071 1.349,-3.458 1.349,-1.387 3.325,-1.387 2.014,0 3.268,1.311 1.254,1.311 1.254,3.42 0,0.152 -0.019,0.361 -0.019,0.19 -0.038,0.285 h -7.543 q 0.152,1.349 1.045,2.185 0.912,0.817 2.204,0.817 z m -0.152,-7.068 q -1.197,0 -2.052,0.779 -0.855,0.779 -1.045,2.09 h 6.042 q -0.171,-1.33 -0.969,-2.09 -0.798,-0.779 -1.976,-0.779 z"
         id="path18629" />
      <path
         d="M 11.06831,23 V 9.7 h 9.652 v 1.444 h -8.018 v 4.427 h 7.486 v 1.444 h -7.486 v 4.541 h 8.018 V 23 Z"
         id="path18631" />
      <path
         d="m 22.658305,13.823 h 1.52 v 1.425 q 0.551,-0.798 1.387,-1.216 0.855,-0.437 1.9,-0.437 1.824,0 2.85,1.178 1.026,1.178 1.026,3.23 V 23 h -1.539 v -4.902 q 0,-1.444 -0.722,-2.28 -0.703,-0.836 -1.976,-0.836 -1.311,0 -2.109,0.893 -0.798,0.893 -0.798,2.318 V 23 h -1.539 z"
         id="path18633" />
      <path
         d="m 40.74629,21.917 v -0.646 q -0.627,0.76 -1.52,1.178 -0.874,0.418 -1.881,0.418 -1.938,0 -3.23,-1.292 -1.292,-1.292 -1.292,-3.325 0,-2.014 1.311,-3.325 1.33,-1.33 3.268,-1.33 0.988,0 1.862,0.418 0.874,0.418 1.501,1.178 v -1.368 h 1.539 v 8.037 q 0,2.28 -1.216,3.42 -1.216,1.14 -3.667,1.14 h -2.318 v -1.33 h 2.394 q 1.615,0 2.432,-0.798 0.817,-0.798 0.817,-2.375 z m -3.173,-0.418 q 1.368,0 2.299,-0.931 0.95,-0.95 0.95,-2.318 0,-1.406 -0.95,-2.337 -0.931,-0.95 -2.299,-0.95 -1.425,0 -2.299,0.893 -0.874,0.893 -0.874,2.375 0,1.463 0.874,2.375 0.893,0.893 2.299,0.893 z"
         id="path18635" />
      <path
         d="m 44.394302,10.745 h 1.71 v 1.691 h -1.71 z m 0.076,12.255 v -9.177 h 1.558 V 23 Z"
         id="path18637" />
      <path
         d="m 48.213292,13.823 h 1.52 v 1.425 q 0.551,-0.798 1.387,-1.216 0.855,-0.437 1.9,-0.437 1.824,0 2.85,1.178 1.026,1.178 1.026,3.23 V 23 h -1.539 v -4.902 q 0,-1.444 -0.722,-2.28 -0.703,-0.836 -1.976,-0.836 -1.311,0 -2.109,0.893 -0.798,0.893 -0.798,2.318 V 23 h -1.539 z"
         id="path18639" />
      <path
         d="m 63.223277,21.974 q 0.912,0 1.672,-0.38 0.779,-0.399 1.425,-1.197 l 0.931,0.855 q -0.779,1.026 -1.824,1.539 -1.045,0.494 -2.337,0.494 -2.071,0 -3.401,-1.349 -1.311,-1.368 -1.311,-3.496 0,-2.071 1.349,-3.458 1.349,-1.387 3.325,-1.387 2.014,0 3.268,1.311 1.254,1.311 1.254,3.42 0,0.152 -0.019,0.361 -0.019,0.19 -0.038,0.285 h -7.543 q 0.152,1.349 1.045,2.185 0.912,0.817 2.204,0.817 z m -0.152,-7.068 q -1.197,0 -2.052,0.779 -0.855,0.779 -1.045,2.09 h 6.042 q -0.171,-1.33 -0.969,-2.09 -0.798,-0.779 -1.976,-0.779 z"
         id="path18641" />
    </g>
    <path
       d="M286 95 286 101 284 101 284 95ZM286 103 286 109 284 109 284 103ZM286 111 286 117 284 117 284 111ZM286 119 286 125 284 125 284 119ZM286 127 286 133 284 133 284 127ZM286 135 286 141 284 141 284 135ZM286 143 286 149 284 149 284 143ZM286 151 286 157 284 157 284 151ZM286 159 286 164.159 284 164.159 284 159ZM289 162.826 285 170.826 281 162.826Z"
       id="path18393" />
    <path
       d="M164 209 206.029 209 206.029 211 164 211ZM204.696 206 212.696 210 204.696 214Z"
       id="path18395" />
    <path
       d="M357 209 399.029 209 399.029 211 357 211ZM397.696 206 405.696 210 397.696 214Z"
       id="path18397" />
    <path
       d="M0 0 0.000104987 99.4783"
       stroke="#000000"
       stroke-width="2"
       stroke-miterlimit="8"
       fill="none"
       fill-rule="evenodd"
       transform="matrix(-1 0 0 1 99.0001 242)"
       id="path18399" />
    <path
       d="M99 340 706.25 340 706.25 342 99 342ZM704.913 337 712.913 341 704.913 345Z"
       id="path18401" />
    <path
       d="M1-1.05537e-06 1.0001 92.8117-0.999902 92.8117-1 1.05537e-06ZM4.0001 91.4783 0.000104987 99.4783-3.9999 91.4783Z"
       transform="matrix(-1 0 0 1 471 242)"
       id="path18403" />
    <path
       d="M560.665 329.541 566.52 321.5 566.053 332.198 572.179 327.374 569.317 333.596 578.5 333.806 570.381 338.911 572.642 342.407 569.317 344.296 573.71 350.448 566.256 348.074 566.787 353.667 561.928 351.009 560.929 356.393 557.867 353.667 555.806 358.004 553.742 355.065 549.15 361.5 548.953 355.278 542.761 354.509 546.358 349.963 540.5 345.346 547.423 342.967 542.562 336.815 549.951 335.976 548.42 328.213 555.542 333.319 557.604 324.995Z"
       stroke="#000000"
       stroke-width="1.33333"
       stroke-miterlimit="8"
       fill="#C81326"
       fill-rule="evenodd"
       id="path18405" />
    <path
       d="M857 340 927.233 340 927.233 342 857 342ZM925.899 337 933.899 341 925.899 345Z"
       id="path18407" />
    <g
       aria-label="PotentialcorruptionAccuracy &amp;Performance &amp;DependabilityImpact"
       transform="translate(525.943 390)"
       id="text18419"
       style="font-size:16px;font-family:'IntelOne Display Regular', 'IntelOne Display Regular_MSFontService', sans-serif;fill:#8f5da2">
      <path
         d="m 1.04,0 v -11.2 h 4.864 q 1.84,0 2.896,0.928 1.072,0.912 1.072,2.48 0,1.584 -1.152,2.544 -1.152,0.944 -3.072,0.944 H 2.416 V 0 Z m 7.424,-7.76 q 0,-1.024 -0.688,-1.6 -0.688,-0.592 -1.92,-0.592 h -3.44 v 4.416 h 3.328 q 1.248,0 1.984,-0.592 0.736,-0.608 0.736,-1.632 z"
         id="path18644" />
      <path
         d="m 18.447992,-3.856 q 0,1.744 -1.168,2.928 -1.168,1.168 -2.88,1.168 -1.712,0 -2.864,-1.168 -1.136,-1.168 -1.136,-2.912 0,-1.744 1.168,-2.912 1.168,-1.184 2.88,-1.184 1.712,0 2.848,1.168 1.152,1.168 1.152,2.912 z m -6.72,0.016 q 0,1.248 0.768,2.096 0.784,0.848 1.936,0.848 1.136,0 1.904,-0.848 0.784,-0.848 0.784,-2.112 0,-1.232 -0.784,-2.08 -0.784,-0.864 -1.92,-0.864 -1.136,0 -1.92,0.848 -0.768,0.848 -0.768,2.112 z"
         id="path18646" />
      <path
         d="m 20.144014,-2.064 v -4.512 h -1.056 v -1.152 h 1.056 v -2.368 h 1.296 v 2.368 h 1.792 v 1.152 h -1.792 v 4.4 q 0,0.512 0.224,0.768 0.24,0.24 0.72,0.24 h 0.848 V 0 h -1.04 q -1.072,0 -1.568,-0.496 -0.48,-0.496 -0.48,-1.568 z"
         id="path18648" />
      <path
         d="m 28.144024,-0.864 q 0.768,0 1.408,-0.32 0.656,-0.336 1.2,-1.008 l 0.784,0.72 q -0.656,0.864 -1.536,1.296 -0.88,0.416 -1.968,0.416 -1.744,0 -2.864,-1.136 -1.104,-1.152 -1.104,-2.944 0,-1.744 1.136,-2.912 1.136,-1.168 2.8,-1.168 1.696,0 2.752,1.104 1.056,1.104 1.056,2.88 0,0.128 -0.016,0.304 -0.016,0.16 -0.032,0.24 h -6.352 q 0.128,1.136 0.88,1.84 0.768,0.688 1.856,0.688 z m -0.128,-5.952 q -1.008,0 -1.728,0.656 -0.72,0.656 -0.88,1.76 h 5.088 q -0.144,-1.12 -0.816,-1.76 -0.672,-0.656 -1.664,-0.656 z"
         id="path18650" />
      <path
         d="m 33.120034,-7.728 h 1.28 v 1.2 q 0.464,-0.672 1.168,-1.024 0.72,-0.368 1.6,-0.368 1.536,0 2.4,0.992 0.864,0.992 0.864,2.72 V 0 h -1.296 v -4.128 q 0,-1.216 -0.608,-1.92 -0.592,-0.704 -1.664,-0.704 -1.104,0 -1.776,0.752 -0.672,0.752 -0.672,1.952 V 0 h -1.296 z"
         id="path18652" />
      <path
         d="m 42.464021,-2.064 v -4.512 h -1.056 v -1.152 h 1.056 v -2.368 h 1.296 v 2.368 h 1.792 v 1.152 h -1.792 v 4.4 q 0,0.512 0.224,0.768 0.24,0.24 0.72,0.24 h 0.848 V 0 h -1.04 q -1.072,0 -1.568,-0.496 -0.48,-0.496 -0.48,-1.568 z"
         id="path18654" />
      <path
         d="m 46.944022,-10.32 h 1.44 v 1.424 h -1.44 z m 0.064,10.32 v -7.728 h 1.312 V 0 Z"
         id="path18656" />
      <path
         d="m 56.800012,0 h -1.264 v -1.264 q -0.464,0.672 -1.264,1.056 -0.784,0.368 -1.696,0.368 -1.28,0 -2.08,-0.64 -0.8,-0.656 -0.8,-1.712 0,-1.168 0.896,-1.76 0.896,-0.608 2.656,-0.608 h 2.272 q -0.016,-1.088 -0.576,-1.68 -0.544,-0.592 -1.568,-0.592 -0.608,0 -1.2,0.256 -0.592,0.256 -1.168,0.784 l -0.688,-0.864 q 0.672,-0.64 1.472,-0.96 0.8,-0.336 1.712,-0.336 1.552,0 2.416,0.928 0.88,0.912 0.88,2.528 z m -1.28,-3.552 h -2.256 q -1.168,0 -1.728,0.32 -0.56,0.32 -0.56,1.008 0,0.576 0.48,0.96 0.496,0.384 1.264,0.384 1.152,0 1.936,-0.736 0.8,-0.752 0.864,-1.936 z"
         id="path18658" />
      <path
         d="m 58.544002,-11.2 h 1.312 V 0 h -1.312 z"
         id="path18660" />
      <path
         d="M 4.496,19.24 Q 2.72,19.24 1.6,18.12 0.496,16.984 0.496,15.16 q 0,-1.728 1.168,-2.912 1.168,-1.184 2.864,-1.184 1.232,0 2.096,0.576 0.88,0.56 1.328,1.632 L 6.848,13.8 Q 6.48,13 5.888,12.6 5.312,12.2 4.512,12.2 q -1.136,0 -1.92,0.864 -0.768,0.848 -0.768,2.096 0,1.264 0.768,2.112 0.784,0.832 1.952,0.832 0.752,0 1.392,-0.4 0.656,-0.416 1.056,-1.152 L 8,17.096 Q 7.536,18.088 6.608,18.664 5.68,19.24 4.496,19.24 Z"
         id="path18662" />
      <path
         d="m 16.991998,15.144 q 0,1.744 -1.168,2.928 -1.168,1.168 -2.88,1.168 -1.712,0 -2.864,-1.168 -1.136,-1.168 -1.136,-2.912 0,-1.744 1.168,-2.912 1.168,-1.184 2.88,-1.184 1.712,0 2.848,1.168 1.152,1.168 1.152,2.912 z m -6.72,0.016 q 0,1.248 0.768,2.096 0.784,0.848 1.936,0.848 1.136,0 1.904,-0.848 0.784,-0.848 0.784,-2.112 0,-1.232 -0.784,-2.08 -0.784,-0.864 -1.92,-0.864 -1.136,0 -1.92,0.848 -0.768,0.848 -0.768,2.112 z"
         id="path18664" />
      <path
         d="m 18.336007,11.272 h 1.28 v 0.976 q 0.352,-0.512 0.912,-0.768 0.56,-0.256 1.328,-0.256 h 0.704 v 1.232 h -0.72 q -1.104,0 -1.664,0.576 -0.544,0.576 -0.544,1.744 V 19 h -1.296 z"
         id="path18666" />
      <path
         d="m 23.616005,11.272 h 1.28 v 0.976 q 0.352,-0.512 0.912,-0.768 0.56,-0.256 1.328,-0.256 h 0.704 v 1.232 h -0.72 q -1.104,0 -1.664,0.576 -0.544,0.576 -0.544,1.744 V 19 h -1.296 z"
         id="path18668" />
      <path
         d="m 36.128004,19 h -1.296 v -1.184 q -0.464,0.672 -1.168,1.024 -0.704,0.336 -1.6,0.336 -1.52,0 -2.4,-0.992 -0.864,-0.992 -0.864,-2.704 v -4.208 h 1.312 V 15.4 q 0,1.216 0.592,1.92 0.608,0.704 1.68,0.704 1.088,0 1.76,-0.752 0.672,-0.752 0.672,-1.952 v -4.048 h 1.312 z"
         id="path18670" />
      <path
         d="m 39.103991,21.88 h -1.296 V 11.272 h 1.28 v 1.248 q 0.512,-0.672 1.264,-1.04 0.752,-0.384 1.6,-0.384 1.632,0 2.72,1.136 1.088,1.12 1.088,2.88 0,1.776 -1.136,2.928 -1.12,1.136 -2.768,1.136 -0.784,0 -1.52,-0.32 -0.72,-0.336 -1.232,-0.944 z m 2.704,-9.632 q -1.168,0 -1.968,0.848 -0.784,0.832 -0.784,2.08 0,1.232 0.768,2.048 0.784,0.816 1.936,0.816 1.184,0 1.92,-0.784 0.752,-0.8 0.752,-2.112 0,-1.296 -0.736,-2.096 -0.72,-0.8 -1.888,-0.8 z"
         id="path18672" />
      <path
         d="m 47.455995,16.936 v -4.512 h -1.056 v -1.152 h 1.056 V 8.904 h 1.296 v 2.368 h 1.792 v 1.152 h -1.792 v 4.4 q 0,0.512 0.224,0.768 0.24,0.24 0.72,0.24 h 0.848 V 19 h -1.04 q -1.072,0 -1.568,-0.496 -0.48,-0.496 -0.48,-1.568 z"
         id="path18674" />
      <path
         d="m 51.935996,8.68 h 1.44 v 1.424 h -1.44 z m 0.064,10.32 v -7.728 h 1.312 V 19 Z"
         id="path18676" />
      <path
         d="m 62.847986,15.144 q 0,1.744 -1.168,2.928 -1.168,1.168 -2.88,1.168 -1.712,0 -2.864,-1.168 -1.136,-1.168 -1.136,-2.912 0,-1.744 1.168,-2.912 1.168,-1.184 2.88,-1.184 1.712,0 2.848,1.168 1.152,1.168 1.152,2.912 z m -6.72,0.016 q 0,1.248 0.768,2.096 0.784,0.848 1.936,0.848 1.136,0 1.904,-0.848 0.784,-0.848 0.784,-2.112 0,-1.232 -0.784,-2.08 -0.784,-0.864 -1.92,-0.864 -1.136,0 -1.92,0.848 -0.768,0.848 -0.768,2.112 z"
         id="path18678" />
      <path
         d="m 64.191994,11.272 h 1.28 v 1.2 q 0.464,-0.672 1.168,-1.024 0.72,-0.368 1.6,-0.368 1.536,0 2.4,0.992 0.864,0.992 0.864,2.72 V 19 h -1.296 v -4.128 q 0,-1.216 -0.608,-1.92 -0.592,-0.704 -1.664,-0.704 -1.104,0 -1.776,0.752 -0.672,0.752 -0.672,1.952 V 19 h -1.296 z"
         id="path18680" />
      <path
         d="m 428.73899,-75.376 -1.472,3.376 h -1.44 l 4.976,-11.2 h 1.344 l 4.96,11.2 h -1.456 l -1.488,-3.376 z m 2.704,-6.176 -2.16,4.96 h 4.352 z"
         id="path18682" />
      <path
         d="m 441.587,-71.76 q -1.776,0 -2.896,-1.12 -1.104,-1.136 -1.104,-2.96 0,-1.728 1.168,-2.912 1.168,-1.184 2.864,-1.184 1.232,0 2.096,0.576 0.88,0.56 1.328,1.632 l -1.104,0.528 q -0.368,-0.8 -0.96,-1.2 -0.576,-0.4 -1.376,-0.4 -1.136,0 -1.92,0.864 -0.768,0.848 -0.768,2.096 0,1.264 0.768,2.112 0.784,0.832 1.952,0.832 0.752,0 1.392,-0.4 0.656,-0.416 1.056,-1.152 l 1.008,0.544 q -0.464,0.992 -1.392,1.568 -0.928,0.576 -2.112,0.576 z"
         id="path18684" />
      <path
         d="m 450.035,-71.76 q -1.776,0 -2.896,-1.12 -1.104,-1.136 -1.104,-2.96 0,-1.728 1.168,-2.912 1.168,-1.184 2.864,-1.184 1.232,0 2.096,0.576 0.88,0.56 1.328,1.632 l -1.104,0.528 q -0.368,-0.8 -0.96,-1.2 -0.576,-0.4 -1.376,-0.4 -1.136,0 -1.92,0.864 -0.768,0.848 -0.768,2.096 0,1.264 0.768,2.112 0.784,0.832 1.952,0.832 0.752,0 1.392,-0.4 0.656,-0.416 1.056,-1.152 l 1.008,0.544 q -0.464,0.992 -1.392,1.568 -0.928,0.576 -2.112,0.576 z"
         id="path18686" />
      <path
         d="m 462.067,-72 h -1.296 v -1.184 q -0.464,0.672 -1.168,1.024 -0.704,0.336 -1.6,0.336 -1.52,0 -2.4,-0.992 -0.864,-0.992 -0.864,-2.704 v -4.208 h 1.312 v 4.128 q 0,1.216 0.592,1.92 0.608,0.704 1.68,0.704 1.088,0 1.76,-0.752 0.672,-0.752 0.672,-1.952 v -4.048 h 1.312 z"
         id="path18688" />
      <path
         d="m 463.74699,-79.728 h 1.28 v 0.976 q 0.352,-0.512 0.912,-0.768 0.56,-0.256 1.328,-0.256 h 0.704 v 1.232 h -0.72 q -1.104,0 -1.664,0.576 -0.544,0.576 -0.544,1.744 V -72 h -1.296 z"
         id="path18690" />
      <path
         d="m 475.34698,-72 h -1.264 v -1.264 q -0.464,0.672 -1.264,1.056 -0.784,0.368 -1.696,0.368 -1.28,0 -2.08,-0.64 -0.8,-0.656 -0.8,-1.712 0,-1.168 0.896,-1.76 0.896,-0.608 2.656,-0.608 h 2.272 q -0.016,-1.088 -0.576,-1.68 -0.544,-0.592 -1.568,-0.592 -0.608,0 -1.2,0.256 -0.592,0.256 -1.168,0.784 l -0.688,-0.864 q 0.672,-0.64 1.472,-0.96 0.8,-0.336 1.712,-0.336 1.552,0 2.416,0.928 0.88,0.912 0.88,2.528 z m -1.28,-3.552 h -2.256 q -1.168,0 -1.728,0.32 -0.56,0.32 -0.56,1.008 0,0.576 0.48,0.96 0.496,0.384 1.264,0.384 1.152,0 1.936,-0.736 0.8,-0.752 0.864,-1.936 z"
         id="path18692" />
      <path
         d="m 480.59497,-71.76 q -1.776,0 -2.896,-1.12 -1.104,-1.136 -1.104,-2.96 0,-1.728 1.168,-2.912 1.168,-1.184 2.864,-1.184 1.232,0 2.096,0.576 0.88,0.56 1.328,1.632 l -1.104,0.528 q -0.368,-0.8 -0.96,-1.2 -0.576,-0.4 -1.376,-0.4 -1.136,0 -1.92,0.864 -0.768,0.848 -0.768,2.096 0,1.264 0.768,2.112 0.784,0.832 1.952,0.832 0.752,0 1.392,-0.4 0.656,-0.416 1.056,-1.152 l 1.008,0.544 q -0.464,0.992 -1.392,1.568 -0.928,0.576 -2.112,0.576 z"
         id="path18694" />
      <path
         d="m 487.77898,-72.064 -3.264,-7.664 h 1.424 l 2.496,6.144 2.496,-6.144 h 1.36 l -4.496,10.608 h -1.344 z"
         id="path18696" />
      <path
         d="m 506.32295,-72 h -1.664 l -1.264,-1.312 q -0.736,0.736 -1.68,1.136 -0.928,0.384 -1.984,0.384 -1.664,0 -2.704,-0.896 -1.04,-0.896 -1.04,-2.272 0,-1.2 0.72,-2.016 0.736,-0.816 2.112,-1.152 -0.528,-0.656 -0.816,-1.296 -0.272,-0.656 -0.272,-1.216 0,-1.184 0.864,-1.984 0.864,-0.816 2.16,-0.816 1.216,0 2.032,0.768 0.816,0.768 0.816,1.936 0,1.056 -0.736,1.888 -0.72,0.816 -1.984,1.168 l 2.4,2.512 q 0.288,-0.512 0.464,-1.12 0.176,-0.608 0.256,-1.312 h 1.248 q -0.08,0.944 -0.368,1.792 -0.272,0.832 -0.72,1.552 z m -5.632,-10.32 q -0.72,0 -1.2,0.48 -0.48,0.48 -0.48,1.168 0,0.48 0.272,1.024 0.272,0.528 0.864,1.2 1.04,-0.272 1.616,-0.864 0.576,-0.592 0.576,-1.344 0,-0.704 -0.48,-1.184 -0.48,-0.48 -1.168,-0.48 z m -3.376,7.248 q 0,0.928 0.688,1.52 0.704,0.576 1.856,0.576 0.752,0 1.44,-0.304 0.704,-0.304 1.264,-0.896 l -2.992,-3.104 q -1.104,0.24 -1.68,0.816 -0.576,0.56 -0.576,1.392 z"
         id="path18698" />
      <path
         d="m 415.24599,-53 v -11.2 h 4.864 q 1.84,0 2.896,0.928 1.072,0.912 1.072,2.48 0,1.584 -1.152,2.544 -1.152,0.944 -3.072,0.944 h -3.232 V -53 Z m 7.424,-7.76 q 0,-1.024 -0.688,-1.6 -0.688,-0.592 -1.92,-0.592 h -3.44 v 4.416 h 3.328 q 1.248,0 1.984,-0.592 0.736,-0.608 0.736,-1.632 z"
         id="path18700" />
      <path
         d="m 428.68599,-53.864 q 0.768,0 1.408,-0.32 0.656,-0.336 1.2,-1.008 l 0.784,0.72 q -0.656,0.864 -1.536,1.296 -0.88,0.416 -1.968,0.416 -1.744,0 -2.864,-1.136 -1.104,-1.152 -1.104,-2.944 0,-1.744 1.136,-2.912 1.136,-1.168 2.8,-1.168 1.696,0 2.752,1.104 1.056,1.104 1.056,2.88 0,0.128 -0.016,0.304 -0.016,0.16 -0.032,0.24 h -6.352 q 0.128,1.136 0.88,1.84 0.768,0.688 1.856,0.688 z m -0.128,-5.952 q -1.008,0 -1.728,0.656 -0.72,0.656 -0.88,1.76 h 5.088 q -0.144,-1.12 -0.816,-1.76 -0.672,-0.656 -1.664,-0.656 z"
         id="path18702" />
      <path
         d="m 433.662,-60.728 h 1.28 v 0.976 q 0.352,-0.512 0.912,-0.768 0.56,-0.256 1.328,-0.256 h 0.704 v 1.232 h -0.72 q -1.104,0 -1.664,0.576 -0.544,0.576 -0.544,1.744 V -53 h -1.296 z"
         id="path18704" />
      <path
         d="m 439.45399,-59.576 h -1.056 v -1.152 h 1.056 v -1.456 q 0,-0.976 0.512,-1.488 0.528,-0.528 1.504,-0.528 h 1.056 v 1.088 h -0.864 q -0.448,0 -0.672,0.24 -0.224,0.24 -0.224,0.72 v 1.424 h 1.76 v 1.152 h -1.76 V -53 h -1.312 z"
         id="path18706" />
      <path
         d="m 451.08599,-56.856 q 0,1.744 -1.168,2.928 -1.168,1.168 -2.88,1.168 -1.712,0 -2.864,-1.168 -1.136,-1.168 -1.136,-2.912 0,-1.744 1.168,-2.912 1.168,-1.184 2.88,-1.184 1.712,0 2.848,1.168 1.152,1.168 1.152,2.912 z m -6.72,0.016 q 0,1.248 0.768,2.096 0.784,0.848 1.936,0.848 1.136,0 1.904,-0.848 0.784,-0.848 0.784,-2.112 0,-1.232 -0.784,-2.08 -0.784,-0.864 -1.92,-0.864 -1.136,0 -1.92,0.848 -0.768,0.848 -0.768,2.112 z"
         id="path18708" />
      <path
         d="m 452.43,-60.728 h 1.28 v 0.976 q 0.352,-0.512 0.912,-0.768 0.56,-0.256 1.328,-0.256 h 0.704 v 1.232 h -0.72 q -1.104,0 -1.664,0.576 -0.544,0.576 -0.544,1.744 V -53 h -1.296 z"
         id="path18710" />
      <path
         d="m 457.71,-60.728 h 1.28 v 0.928 q 0.432,-0.56 0.976,-0.832 0.56,-0.288 1.248,-0.288 0.8,0 1.424,0.336 0.624,0.336 0.992,0.976 0.432,-0.64 1.088,-0.976 0.672,-0.336 1.504,-0.336 1.36,0 2.16,0.88 0.816,0.88 0.816,2.288 V -53 h -1.312 v -4.672 q 0,-0.976 -0.496,-1.52 -0.48,-0.56 -1.36,-0.56 -0.864,0 -1.408,0.608 -0.528,0.592 -0.528,1.552 V -53 h -1.296 v -4.672 q 0,-0.976 -0.496,-1.52 -0.48,-0.56 -1.36,-0.56 -0.864,0 -1.408,0.608 -0.528,0.592 -0.528,1.552 V -53 h -1.296 z"
         id="path18712" />
      <path
         d="m 477.43801,-53 h -1.264 v -1.264 q -0.464,0.672 -1.264,1.056 -0.784,0.368 -1.696,0.368 -1.28,0 -2.08,-0.64 -0.8,-0.656 -0.8,-1.712 0,-1.168 0.896,-1.76 0.896,-0.608 2.656,-0.608 h 2.272 q -0.016,-1.088 -0.576,-1.68 -0.544,-0.592 -1.568,-0.592 -0.608,0 -1.2,0.256 -0.592,0.256 -1.168,0.784 l -0.688,-0.864 q 0.672,-0.64 1.472,-0.96 0.8,-0.336 1.712,-0.336 1.552,0 2.416,0.928 0.88,0.912 0.88,2.528 z m -1.28,-3.552 h -2.256 q -1.168,0 -1.728,0.32 -0.56,0.32 -0.56,1.008 0,0.576 0.48,0.96 0.496,0.384 1.264,0.384 1.152,0 1.936,-0.736 0.8,-0.752 0.864,-1.936 z"
         id="path18714" />
      <path
         d="m 479.038,-60.728 h 1.28 v 1.2 q 0.464,-0.672 1.168,-1.024 0.72,-0.368 1.6,-0.368 1.536,0 2.4,0.992 0.864,0.992 0.864,2.72 V -53 h -1.296 v -4.128 q 0,-1.216 -0.608,-1.92 -0.592,-0.704 -1.664,-0.704 -1.104,0 -1.776,0.752 -0.672,0.752 -0.672,1.952 V -53 h -1.296 z"
         id="path18716" />
      <path
         d="m 491.59799,-52.76 q -1.776,0 -2.896,-1.12 -1.104,-1.136 -1.104,-2.96 0,-1.728 1.168,-2.912 1.168,-1.184 2.864,-1.184 1.232,0 2.096,0.576 0.88,0.56 1.328,1.632 l -1.104,0.528 q -0.368,-0.8 -0.96,-1.2 -0.576,-0.4 -1.376,-0.4 -1.136,0 -1.92,0.864 -0.768,0.848 -0.768,2.096 0,1.264 0.768,2.112 0.784,0.832 1.952,0.832 0.752,0 1.392,-0.4 0.656,-0.416 1.056,-1.152 l 1.008,0.544 q -0.464,0.992 -1.392,1.568 -0.928,0.576 -2.112,0.576 z"
         id="path18718" />
      <path
         d="m 500.12599,-53.864 q 0.768,0 1.408,-0.32 0.656,-0.336 1.2,-1.008 l 0.784,0.72 q -0.656,0.864 -1.536,1.296 -0.88,0.416 -1.968,0.416 -1.744,0 -2.864,-1.136 -1.104,-1.152 -1.104,-2.944 0,-1.744 1.136,-2.912 1.136,-1.168 2.8,-1.168 1.696,0 2.752,1.104 1.056,1.104 1.056,2.88 0,0.128 -0.016,0.304 -0.016,0.16 -0.032,0.24 h -6.352 q 0.128,1.136 0.88,1.84 0.768,0.688 1.856,0.688 z m -0.128,-5.952 q -1.008,0 -1.728,0.656 -0.72,0.656 -0.88,1.76 h 5.088 q -0.144,-1.12 -0.816,-1.76 -0.672,-0.656 -1.664,-0.656 z"
         id="path18720" />
      <path
         d="m 518.07799,-53 h -1.664 l -1.264,-1.312 q -0.736,0.736 -1.68,1.136 -0.928,0.384 -1.984,0.384 -1.664,0 -2.704,-0.896 -1.04,-0.896 -1.04,-2.272 0,-1.2 0.72,-2.016 0.736,-0.816 2.112,-1.152 -0.528,-0.656 -0.816,-1.296 -0.272,-0.656 -0.272,-1.216 0,-1.184 0.864,-1.984 0.864,-0.816 2.16,-0.816 1.216,0 2.032,0.768 0.816,0.768 0.816,1.936 0,1.056 -0.736,1.888 -0.72,0.816 -1.984,1.168 l 2.4,2.512 q 0.288,-0.512 0.464,-1.12 0.176,-0.608 0.256,-1.312 h 1.248 q -0.08,0.944 -0.368,1.792 -0.272,0.832 -0.72,1.552 z m -5.632,-10.32 q -0.72,0 -1.2,0.48 -0.48,0.48 -0.48,1.168 0,0.48 0.272,1.024 0.272,0.528 0.864,1.2 1.04,-0.272 1.616,-0.864 0.576,-0.592 0.576,-1.344 0,-0.704 -0.48,-1.184 -0.48,-0.48 -1.168,-0.48 z m -3.376,7.248 q 0,0.928 0.688,1.52 0.704,0.576 1.856,0.576 0.752,0 1.44,-0.304 0.704,-0.304 1.264,-0.896 l -2.992,-3.104 q -1.104,0.24 -1.68,0.816 -0.576,0.56 -0.576,1.392 z"
         id="path18722" />
      <path
         d="m 418.91201,-34 v -11.2 h 4.208 q 2.624,0 4.224,1.552 1.616,1.552 1.616,4.032 0,2.464 -1.632,4.048 -1.632,1.568 -4.24,1.568 z m 8.656,-5.584 q 0,-1.92 -1.248,-3.136 -1.232,-1.232 -3.216,-1.232 h -2.816 v 8.704 h 2.816 q 1.984,0 3.216,-1.216 1.248,-1.216 1.248,-3.12 z"
         id="path18724" />
      <path
         d="m 434.14402,-34.864 q 0.768,0 1.408,-0.32 0.656,-0.336 1.2,-1.008 l 0.784,0.72 q -0.656,0.864 -1.536,1.296 -0.88,0.416 -1.968,0.416 -1.744,0 -2.864,-1.136 -1.104,-1.152 -1.104,-2.944 0,-1.744 1.136,-2.912 1.136,-1.168 2.8,-1.168 1.696,0 2.752,1.104 1.056,1.104 1.056,2.88 0,0.128 -0.016,0.304 -0.016,0.16 -0.032,0.24 h -6.352 q 0.128,1.136 0.88,1.84 0.768,0.688 1.856,0.688 z m -0.128,-5.952 q -1.008,0 -1.728,0.656 -0.72,0.656 -0.88,1.76 h 5.088 q -0.144,-1.12 -0.816,-1.76 -0.672,-0.656 -1.664,-0.656 z"
         id="path18726" />
      <path
         d="m 440.41603,-31.12 h -1.296 v -10.608 h 1.28 v 1.248 q 0.512,-0.672 1.264,-1.04 0.752,-0.384 1.6,-0.384 1.632,0 2.72,1.136 1.088,1.12 1.088,2.88 0,1.776 -1.136,2.928 -1.12,1.136 -2.768,1.136 -0.784,0 -1.52,-0.32 -0.72,-0.336 -1.232,-0.944 z m 2.704,-9.632 q -1.168,0 -1.968,0.848 -0.784,0.832 -0.784,2.08 0,1.232 0.768,2.048 0.784,0.816 1.936,0.816 1.184,0 1.92,-0.784 0.752,-0.8 0.752,-2.112 0,-1.296 -0.736,-2.096 -0.72,-0.8 -1.888,-0.8 z"
         id="path18728" />
      <path
         d="m 452.14402,-34.864 q 0.768,0 1.408,-0.32 0.656,-0.336 1.2,-1.008 l 0.784,0.72 q -0.656,0.864 -1.536,1.296 -0.88,0.416 -1.968,0.416 -1.744,0 -2.864,-1.136 -1.104,-1.152 -1.104,-2.944 0,-1.744 1.136,-2.912 1.136,-1.168 2.8,-1.168 1.696,0 2.752,1.104 1.056,1.104 1.056,2.88 0,0.128 -0.016,0.304 -0.016,0.16 -0.032,0.24 h -6.352 q 0.128,1.136 0.88,1.84 0.768,0.688 1.856,0.688 z m -0.128,-5.952 q -1.008,0 -1.728,0.656 -0.72,0.656 -0.88,1.76 h 5.088 q -0.144,-1.12 -0.816,-1.76 -0.672,-0.656 -1.664,-0.656 z"
         id="path18730" />
      <path
         d="m 457.12003,-41.728 h 1.28 v 1.2 q 0.464,-0.672 1.168,-1.024 0.72,-0.368 1.6,-0.368 1.536,0 2.4,0.992 0.864,0.992 0.864,2.72 V -34 h -1.296 v -4.128 q 0,-1.216 -0.608,-1.92 -0.592,-0.704 -1.664,-0.704 -1.104,0 -1.776,0.752 -0.672,0.752 -0.672,1.952 V -34 h -1.296 z"
         id="path18732" />
      <path
         d="m 472.33602,-45.2 h 1.312 V -34 h -1.296 v -1.248 q -0.528,0.672 -1.28,1.04 -0.736,0.368 -1.584,0.368 -1.616,0 -2.72,-1.12 -1.088,-1.136 -1.088,-2.88 0,-1.76 1.12,-2.912 1.136,-1.168 2.784,-1.168 0.8,0 1.504,0.336 0.72,0.32 1.248,0.928 z m -2.704,10.224 q 1.168,0 1.952,-0.832 0.8,-0.848 0.8,-2.08 0,-1.248 -0.768,-2.064 -0.768,-0.816 -1.92,-0.816 -1.184,0 -1.936,0.8 -0.752,0.8 -0.752,2.096 0,1.296 0.736,2.096 0.736,0.8 1.888,0.8 z"
         id="path18734" />
      <path
         d="m 481.96801,-34 h -1.264 v -1.264 q -0.464,0.672 -1.264,1.056 -0.784,0.368 -1.696,0.368 -1.28,0 -2.08,-0.64 -0.8,-0.656 -0.8,-1.712 0,-1.168 0.896,-1.76 0.896,-0.608 2.656,-0.608 h 2.272 q -0.016,-1.088 -0.576,-1.68 -0.544,-0.592 -1.568,-0.592 -0.608,0 -1.2,0.256 -0.592,0.256 -1.168,0.784 l -0.688,-0.864 q 0.672,-0.64 1.472,-0.96 0.8,-0.336 1.712,-0.336 1.552,0 2.416,0.928 0.88,0.912 0.88,2.528 z m -1.28,-3.552 h -2.256 q -1.168,0 -1.728,0.32 -0.56,0.32 -0.56,1.008 0,0.576 0.48,0.96 0.496,0.384 1.264,0.384 1.152,0 1.936,-0.736 0.8,-0.752 0.864,-1.936 z"
         id="path18736" />
      <path
         d="m 484.848,-34 h -1.28 v -11.2 h 1.296 v 4.672 q 0.512,-0.656 1.248,-1.008 0.752,-0.368 1.584,-0.368 1.632,0 2.72,1.136 1.104,1.12 1.104,2.88 0,1.776 -1.12,2.928 -1.12,1.136 -2.768,1.136 -0.816,0 -1.552,-0.352 -0.72,-0.352 -1.232,-0.976 z m 2.72,-6.752 q -1.152,0 -1.952,0.848 -0.8,0.832 -0.8,2.08 0,1.216 0.784,2.048 0.784,0.816 1.92,0.816 1.184,0 1.92,-0.784 0.752,-0.8 0.752,-2.112 0,-1.296 -0.736,-2.096 -0.72,-0.8 -1.888,-0.8 z"
         id="path18738" />
      <path
         d="m 492.94399,-44.32 h 1.44 v 1.424 h -1.44 z m 0.064,10.32 v -7.728 h 1.312 V -34 Z"
         id="path18740" />
      <path
         d="m 496.30398,-45.2 h 1.312 V -34 h -1.312 z"
         id="path18742" />
      <path
         d="m 499.53597,-44.32 h 1.44 v 1.424 h -1.44 z m 0.064,10.32 v -7.728 h 1.312 V -34 Z"
         id="path18744" />
      <path
         d="m 503.18396,-36.064 v -4.512 h -1.056 v -1.152 h 1.056 v -2.368 h 1.296 v 2.368 h 1.792 v 1.152 h -1.792 v 4.4 q 0,0.512 0.224,0.768 0.24,0.24 0.72,0.24 h 0.848 V -34 h -1.04 q -1.072,0 -1.568,-0.496 -0.48,-0.496 -0.48,-1.568 z"
         id="path18746" />
      <path
         d="m 510.20796,-34.064 -3.264,-7.664 h 1.424 l 2.496,6.144 2.496,-6.144 h 1.36 l -4.496,10.608 h -1.344 z"
         id="path18748" />
      <path
         d="m 443.691,-15 v -11.2 h 1.376 V -15 Z"
         id="path18750" />
      <path
         d="m 447.06699,-22.728 h 1.28 v 0.928 q 0.432,-0.56 0.976,-0.832 0.56,-0.288 1.248,-0.288 0.8,0 1.424,0.336 0.624,0.336 0.992,0.976 0.432,-0.64 1.088,-0.976 0.672,-0.336 1.504,-0.336 1.36,0 2.16,0.88 0.816,0.88 0.816,2.288 V -15 h -1.312 v -4.672 q 0,-0.976 -0.496,-1.52 -0.48,-0.56 -1.36,-0.56 -0.864,0 -1.408,0.608 -0.528,0.592 -0.528,1.552 V -15 h -1.296 v -4.672 q 0,-0.976 -0.496,-1.52 -0.48,-0.56 -1.36,-0.56 -0.864,0 -1.408,0.608 -0.528,0.592 -0.528,1.552 V -15 h -1.296 z"
         id="path18752" />
      <path
         d="m 461.45101,-12.12 h -1.296 v -10.608 h 1.28 v 1.248 q 0.512,-0.672 1.264,-1.04 0.752,-0.384 1.6,-0.384 1.632,0 2.72,1.136 1.088,1.12 1.088,2.88 0,1.776 -1.136,2.928 -1.12,1.136 -2.768,1.136 -0.784,0 -1.52,-0.32 -0.72,-0.336 -1.232,-0.944 z m 2.704,-9.632 q -1.168,0 -1.968,0.848 -0.784,0.832 -0.784,2.08 0,1.232 0.768,2.048 0.784,0.816 1.936,0.816 1.184,0 1.92,-0.784 0.752,-0.8 0.752,-2.112 0,-1.296 -0.736,-2.096 -0.72,-0.8 -1.888,-0.8 z"
         id="path18754" />
      <path
         d="m 476.091,-15 h -1.264 v -1.264 q -0.464,0.672 -1.264,1.056 -0.784,0.368 -1.696,0.368 -1.28,0 -2.08,-0.64 -0.8,-0.656 -0.8,-1.712 0,-1.168 0.896,-1.76 0.896,-0.608 2.656,-0.608 h 2.272 q -0.016,-1.088 -0.576,-1.68 -0.544,-0.592 -1.568,-0.592 -0.608,0 -1.2,0.256 -0.592,0.256 -1.168,0.784 l -0.688,-0.864 q 0.672,-0.64 1.472,-0.96 0.8,-0.336 1.712,-0.336 1.552,0 2.416,0.928 0.88,0.912 0.88,2.528 z m -1.28,-3.552 h -2.256 q -1.168,0 -1.728,0.32 -0.56,0.32 -0.56,1.008 0,0.576 0.48,0.96 0.496,0.384 1.264,0.384 1.152,0 1.936,-0.736 0.8,-0.752 0.864,-1.936 z"
         id="path18756" />
      <path
         d="m 481.33899,-14.76 q -1.776,0 -2.896,-1.12 -1.104,-1.136 -1.104,-2.96 0,-1.728 1.168,-2.912 1.168,-1.184 2.864,-1.184 1.232,0 2.096,0.576 0.88,0.56 1.328,1.632 l -1.104,0.528 q -0.368,-0.8 -0.96,-1.2 -0.576,-0.4 -1.376,-0.4 -1.136,0 -1.92,0.864 -0.768,0.848 -0.768,2.096 0,1.264 0.768,2.112 0.784,0.832 1.952,0.832 0.752,0 1.392,-0.4 0.656,-0.416 1.056,-1.152 l 1.008,0.544 q -0.464,0.992 -1.392,1.568 -0.928,0.576 -2.112,0.576 z"
         id="path18758" />
      <path
         d="m 486.57099,-17.064 v -4.512 h -1.056 v -1.152 h 1.056 v -2.368 h 1.296 v 2.368 h 1.792 v 1.152 h -1.792 v 4.4 q 0,0.512 0.224,0.768 0.24,0.24 0.72,0.24 h 0.848 V -15 h -1.04 q -1.072,0 -1.568,-0.496 -0.48,-0.496 -0.48,-1.568 z"
         id="path18760" />
    </g>
  </g>
</svg>
