<?xml version="1.0" encoding="UTF-8" standalone="no"?>
<!DOCTYPE svg PUBLIC "-//W3C//DTD SVG 1.1//EN"
 "http://www.w3.org/Graphics/SVG/1.1/DTD/svg11.dtd">
<!-- Generated by graphviz version 2.43.20200408.0903 (20200408.0903)
 -->
<!-- Title: ngraph Pages: 1 -->
<svg width="1292pt" height="1194pt"
 viewBox="0.00 0.00 1292.00 1194.00" xmlns="http://www.w3.org/2000/svg" xmlns:xlink="http://www.w3.org/1999/xlink">
<g id="graph0" class="graph" transform="scale(1 1) rotate(0) translate(4 1190)">
<title>ngraph</title>
<polygon fill="white" stroke="transparent" points="-4,4 -4,-1190 1288,-1190 1288,4 -4,4"/>
<!-- Multiply_165 -->
<g id="node1" class="node">
<title>Multiply_165</title>
<polygon fill="none" stroke="black" points="1097.5,-247 843.5,-247 843.5,-134 1097.5,-134 1097.5,-247"/>
<text text-anchor="middle" x="970.5" y="-231.8" font-family="Times New Roman,serif" font-size="14.00">friendly_name: Convolution_162</text>
<text text-anchor="middle" x="970.5" y="-216.8" font-family="Times New Roman,serif" font-size="14.00">name: Multiply_165</text>
<text text-anchor="middle" x="970.5" y="-201.8" font-family="Times New Roman,serif" font-size="14.00">type_name: Multiply</text>
<text text-anchor="middle" x="970.5" y="-186.8" font-family="Times New Roman,serif" font-size="14.00">rt info: DEQUANTIZATION() </text>
<text text-anchor="middle" x="970.5" y="-171.8" font-family="Times New Roman,serif" font-size="14.00">in0: {f32}[1,6,9,9]: Convolution_162: out0</text>
<text text-anchor="middle" x="970.5" y="-156.8" font-family="Times New Roman,serif" font-size="14.00">in1: {f32}[1,6,1,1]: Constant_168: out0</text>
<text text-anchor="middle" x="970.5" y="-141.8" font-family="Times New Roman,serif" font-size="14.00">out0: {f32}[1,6,9,9]</text>
</g>
<!-- Result_94 -->
<g id="node2" class="node">
<title>Result_94</title>
<polygon fill="none" stroke="crimson" stroke-width="1.5" points="1116.5,-83 824.5,-83 824.5,0 1116.5,0 1116.5,-83"/>
<text text-anchor="middle" x="970.5" y="-67.8" font-family="Times New Roman,serif" font-size="14.00">friendly_name: Result_94</text>
<text text-anchor="middle" x="970.5" y="-52.8" font-family="Times New Roman,serif" font-size="14.00">type_name: Result</text>
<text text-anchor="middle" x="970.5" y="-37.8" font-family="Times New Roman,serif" font-size="14.00">rt info: PRECISION_PRESERVED(value: false) </text>
<text text-anchor="middle" x="970.5" y="-22.8" font-family="Times New Roman,serif" font-size="14.00">in0: {f32}[1,6,9,9]: Multiply_165: out0</text>
<text text-anchor="middle" x="970.5" y="-7.8" font-family="Times New Roman,serif" font-size="14.00">out0: {f32}[1,6,9,9]</text>
</g>
<!-- Multiply_165&#45;&gt;Result_94 -->
<g id="edge1" class="edge">
<title>Multiply_165&#45;&gt;Result_94</title>
<path fill="none" stroke="black" d="M970.5,-133.93C970.5,-120.58 970.5,-106.4 970.5,-93.28"/>
<polygon fill="black" stroke="black" points="974,-93.03 970.5,-83.03 967,-93.03 974,-93.03"/>
<text text-anchor="middle" x="991.5" y="-104.8" font-family="Times New Roman,serif" font-size="14.00"> 0 &#45;&gt; 0 </text>
</g>
<!-- Convolution_162 -->
<g id="node3" class="node">
<title>Convolution_162</title>
<polygon fill="none" stroke="black" points="943,-396 696,-396 696,-298 943,-298 943,-396"/>
<text text-anchor="middle" x="819.5" y="-380.8" font-family="Times New Roman,serif" font-size="14.00">friendly_name: Convolution_162_original</text>
<text text-anchor="middle" x="819.5" y="-365.8" font-family="Times New Roman,serif" font-size="14.00">name: Convolution_162</text>
<text text-anchor="middle" x="819.5" y="-350.8" font-family="Times New Roman,serif" font-size="14.00">type_name: Convolution</text>
<text text-anchor="middle" x="819.5" y="-335.8" font-family="Times New Roman,serif" font-size="14.00">in0: {f32}[1,3,9,9]: Subtract_137: out0</text>
<text text-anchor="middle" x="819.5" y="-320.8" font-family="Times New Roman,serif" font-size="14.00">in1: {i8}[6,3,1,1]: Constant_150: out0</text>
<text text-anchor="middle" x="819.5" y="-305.8" font-family="Times New Roman,serif" font-size="14.00">out0: {f32}[1,6,9,9]</text>
</g>
<!-- Convolution_162&#45;&gt;Multiply_165 -->
<g id="edge2" class="edge">
<title>Convolution_162&#45;&gt;Multiply_165</title>
<path fill="none" stroke="black" d="M866.45,-297.96C879.87,-284.23 894.7,-269.06 908.85,-254.58"/>
<polygon fill="black" stroke="black" points="911.7,-256.67 916.18,-247.08 906.69,-251.78 911.7,-256.67"/>
<text text-anchor="middle" x="916.5" y="-268.8" font-family="Times New Roman,serif" font-size="14.00"> 0 &#45;&gt; 0 </text>
</g>
<!-- CLONE_0 -->
<g id="node4" class="node">
<title>CLONE_0</title>
<polygon fill="none" stroke="black" stroke-dasharray="5,2" points="1284,-381 961,-381 961,-313 1284,-313 1284,-381"/>
<text text-anchor="middle" x="1122.5" y="-365.8" font-family="Times New Roman,serif" font-size="14.00">friendly_name: Constant_168</text>
<text text-anchor="middle" x="1122.5" y="-350.8" font-family="Times New Roman,serif" font-size="14.00">type_name: Constant</text>
<text text-anchor="middle" x="1122.5" y="-335.8" font-family="Times New Roman,serif" font-size="14.00">{f32}[1,6,1,1]</text>
<text text-anchor="middle" x="1122.5" y="-320.8" font-family="Times New Roman,serif" font-size="14.00">value: [0.0001, 0.0001, 0.0001, 0.0001, 0.0001, 0.0001]</text>
</g>
<!-- CLONE_0&#45;&gt;Multiply_165 -->
<g id="edge3" class="edge">
<title>CLONE_0&#45;&gt;Multiply_165</title>
<path fill="none" stroke="black" d="M1089.89,-312.86C1073.11,-295.8 1052.09,-274.43 1032.37,-254.39"/>
<polygon fill="black" stroke="black" points="1034.69,-251.75 1025.18,-247.08 1029.7,-256.66 1034.69,-251.75"/>
<text text-anchor="middle" x="1077.5" y="-268.8" font-family="Times New Roman,serif" font-size="14.00"> 0 &#45;&gt; 1 </text>
</g>
<!-- Subtract_137 -->
<g id="node5" class="node">
<title>Subtract_137</title>
<polygon fill="none" stroke="black" points="850.5,-560 420.5,-560 420.5,-447 850.5,-447 850.5,-560"/>
<text text-anchor="middle" x="635.5" y="-544.8" font-family="Times New Roman,serif" font-size="14.00">friendly_name: Subtract_122</text>
<text text-anchor="middle" x="635.5" y="-529.8" font-family="Times New Roman,serif" font-size="14.00">name: Subtract_137</text>
<text text-anchor="middle" x="635.5" y="-514.8" font-family="Times New Roman,serif" font-size="14.00">type_name: Subtract</text>
<text text-anchor="middle" x="635.5" y="-499.8" font-family="Times New Roman,serif" font-size="14.00">rt info: PRECISION_PRESERVED(value: true, operation: FakeQuantize) </text>
<text text-anchor="middle" x="635.5" y="-484.8" font-family="Times New Roman,serif" font-size="14.00">in0: {u8}[1,3,9,9]: MaxPool_120: out0</text>
<text text-anchor="middle" x="635.5" y="-469.8" font-family="Times New Roman,serif" font-size="14.00">in1: {u8}[1,3,1,1]: Constant_136: out0</text>
<text text-anchor="middle" x="635.5" y="-454.8" font-family="Times New Roman,serif" font-size="14.00">out0: {f32}[1,3,9,9]</text>
</g>
<!-- Subtract_137&#45;&gt;Convolution_162 -->
<g id="edge4" class="edge">
<title>Subtract_137&#45;&gt;Convolution_162</title>
<path fill="none" stroke="black" d="M701.67,-446.94C718.82,-432.54 737.28,-417.04 754.38,-402.68"/>
<polygon fill="black" stroke="black" points="756.72,-405.28 762.13,-396.17 752.22,-399.92 756.72,-405.28"/>
<text text-anchor="middle" x="760.5" y="-417.8" font-family="Times New Roman,serif" font-size="14.00"> 0 &#45;&gt; 0 </text>
</g>
<!-- CLONE_1 -->
<g id="node6" class="node">
<title>CLONE_1</title>
<polygon fill="none" stroke="black" stroke-dasharray="5,2" points="1140,-552.5 869,-552.5 869,-454.5 1140,-454.5 1140,-552.5"/>
<text text-anchor="middle" x="1004.5" y="-537.3" font-family="Times New Roman,serif" font-size="14.00">friendly_name: Constant_150</text>
<text text-anchor="middle" x="1004.5" y="-522.3" font-family="Times New Roman,serif" font-size="14.00">type_name: Constant</text>
<text text-anchor="middle" x="1004.5" y="-507.3" font-family="Times New Roman,serif" font-size="14.00">{i8}[6,3,1,1]</text>
<text text-anchor="middle" x="1004.5" y="-492.3" font-family="Times New Roman,serif" font-size="14.00">value: [127, 127, 127, 127, 127, 127, 127, 127</text>
<text text-anchor="middle" x="1004.5" y="-477.3" font-family="Times New Roman,serif" font-size="14.00">, 127, 127, 127, 127, 127, 127, 127, 127</text>
<text text-anchor="middle" x="1004.5" y="-462.3" font-family="Times New Roman,serif" font-size="14.00">, 127, 127]</text>
</g>
<!-- CLONE_1&#45;&gt;Convolution_162 -->
<g id="edge5" class="edge">
<title>CLONE_1&#45;&gt;Convolution_162</title>
<path fill="none" stroke="black" d="M946.98,-454.46C927.23,-437.97 904.98,-419.39 884.67,-402.42"/>
<polygon fill="black" stroke="black" points="886.9,-399.73 876.99,-396.01 882.42,-405.1 886.9,-399.73"/>
<text text-anchor="middle" x="933.5" y="-417.8" font-family="Times New Roman,serif" font-size="14.00"> 0 &#45;&gt; 1 </text>
</g>
<!-- MaxPool_120 -->
<g id="node7" class="node">
<title>MaxPool_120</title>
<polygon fill="none" stroke="black" points="689.5,-709 259.5,-709 259.5,-611 689.5,-611 689.5,-709"/>
<text text-anchor="middle" x="474.5" y="-693.8" font-family="Times New Roman,serif" font-size="14.00">friendly_name: maxPool</text>
<text text-anchor="middle" x="474.5" y="-678.8" font-family="Times New Roman,serif" font-size="14.00">name: MaxPool_120</text>
<text text-anchor="middle" x="474.5" y="-663.8" font-family="Times New Roman,serif" font-size="14.00">type_name: MaxPool</text>
<text text-anchor="middle" x="474.5" y="-648.8" font-family="Times New Roman,serif" font-size="14.00">rt info: PRECISION_PRESERVED(value: true, operation: FakeQuantize) </text>
<text text-anchor="middle" x="474.5" y="-633.8" font-family="Times New Roman,serif" font-size="14.00">in0: {u8}[1,3,9,9]: AvgPool_115: out0</text>
<text text-anchor="middle" x="474.5" y="-618.8" font-family="Times New Roman,serif" font-size="14.00">out0: {u8}[1,3,9,9]</text>
</g>
<!-- MaxPool_120&#45;&gt;Subtract_137 -->
<g id="edge6" class="edge">
<title>MaxPool_120&#45;&gt;Subtract_137</title>
<path fill="none" stroke="black" d="M524.56,-610.96C539,-597.11 554.97,-581.78 570.18,-567.18"/>
<polygon fill="black" stroke="black" points="572.79,-569.53 577.59,-560.08 567.95,-564.48 572.79,-569.53"/>
<text text-anchor="middle" x="576.5" y="-581.8" font-family="Times New Roman,serif" font-size="14.00"> 0 &#45;&gt; 0 </text>
</g>
<!-- CLONE_2 -->
<g id="node8" class="node">
<title>CLONE_2</title>
<polygon fill="none" stroke="black" stroke-dasharray="5,2" points="887.5,-694 707.5,-694 707.5,-626 887.5,-626 887.5,-694"/>
<text text-anchor="middle" x="797.5" y="-678.8" font-family="Times New Roman,serif" font-size="14.00">friendly_name: Constant_136</text>
<text text-anchor="middle" x="797.5" y="-663.8" font-family="Times New Roman,serif" font-size="14.00">type_name: Constant</text>
<text text-anchor="middle" x="797.5" y="-648.8" font-family="Times New Roman,serif" font-size="14.00">{u8}[1,3,1,1]</text>
<text text-anchor="middle" x="797.5" y="-633.8" font-family="Times New Roman,serif" font-size="14.00">value: [128, 128, 128]</text>
</g>
<!-- CLONE_2&#45;&gt;Subtract_137 -->
<g id="edge7" class="edge">
<title>CLONE_2&#45;&gt;Subtract_137</title>
<path fill="none" stroke="black" d="M762.75,-625.86C744.78,-608.72 722.26,-587.24 701.17,-567.13"/>
<polygon fill="black" stroke="black" points="703.43,-564.45 693.78,-560.08 698.6,-569.51 703.43,-564.45"/>
<text text-anchor="middle" x="747.5" y="-581.8" font-family="Times New Roman,serif" font-size="14.00"> 0 &#45;&gt; 1 </text>
</g>
<!-- AvgPool_115 -->
<g id="node9" class="node">
<title>AvgPool_115</title>
<polygon fill="none" stroke="black" points="689.5,-858 259.5,-858 259.5,-760 689.5,-760 689.5,-858"/>
<text text-anchor="middle" x="474.5" y="-842.8" font-family="Times New Roman,serif" font-size="14.00">friendly_name: avgPool</text>
<text text-anchor="middle" x="474.5" y="-827.8" font-family="Times New Roman,serif" font-size="14.00">name: AvgPool_115</text>
<text text-anchor="middle" x="474.5" y="-812.8" font-family="Times New Roman,serif" font-size="14.00">type_name: AvgPool</text>
<text text-anchor="middle" x="474.5" y="-797.8" font-family="Times New Roman,serif" font-size="14.00">rt info: PRECISION_PRESERVED(value: true, operation: FakeQuantize) </text>
<text text-anchor="middle" x="474.5" y="-782.8" font-family="Times New Roman,serif" font-size="14.00">in0: {u8}[1,3,9,9]: FakeQuantize_111: out0</text>
<text text-anchor="middle" x="474.5" y="-767.8" font-family="Times New Roman,serif" font-size="14.00">out0: {u8}[1,3,9,9]</text>
</g>
<!-- AvgPool_115&#45;&gt;MaxPool_120 -->
<g id="edge8" class="edge">
<title>AvgPool_115&#45;&gt;MaxPool_120</title>
<path fill="none" stroke="black" d="M474.5,-759.87C474.5,-746.92 474.5,-732.78 474.5,-719.35"/>
<polygon fill="black" stroke="black" points="478,-719.24 474.5,-709.24 471,-719.24 478,-719.24"/>
<text text-anchor="middle" x="495.5" y="-730.8" font-family="Times New Roman,serif" font-size="14.00"> 0 &#45;&gt; 0 </text>
</g>
<!-- FakeQuantize_111 -->
<g id="node10" class="node">
<title>FakeQuantize_111</title>
<polygon fill="none" stroke="black" points="620.5,-1067 328.5,-1067 328.5,-909 620.5,-909 620.5,-1067"/>
<text text-anchor="middle" x="474.5" y="-1051.8" font-family="Times New Roman,serif" font-size="14.00">friendly_name: fakeQuantizeOnActivations</text>
<text text-anchor="middle" x="474.5" y="-1036.8" font-family="Times New Roman,serif" font-size="14.00">name: FakeQuantize_111</text>
<text text-anchor="middle" x="474.5" y="-1021.8" font-family="Times New Roman,serif" font-size="14.00">type_name: FakeQuantize</text>
<text text-anchor="middle" x="474.5" y="-1006.8" font-family="Times New Roman,serif" font-size="14.00">rt info: PRECISION_PRESERVED(value: false) </text>
<text text-anchor="middle" x="474.5" y="-991.8" font-family="Times New Roman,serif" font-size="14.00">in0: {f32}[1,3,9,9]: Parameter_79: out0</text>
<text text-anchor="middle" x="474.5" y="-976.8" font-family="Times New Roman,serif" font-size="14.00">in1: {f32}[]: Constant_80: out0</text>
<text text-anchor="middle" x="474.5" y="-961.8" font-family="Times New Roman,serif" font-size="14.00">in2: {f32}[]: Constant_81: out0</text>
<text text-anchor="middle" x="474.5" y="-946.8" font-family="Times New Roman,serif" font-size="14.00">in3: {f32}[]: Constant_109: out0</text>
<text text-anchor="middle" x="474.5" y="-931.8" font-family="Times New Roman,serif" font-size="14.00">in4: {f32}[]: Constant_110: out0</text>
<text text-anchor="middle" x="474.5" y="-916.8" font-family="Times New Roman,serif" font-size="14.00">out0: {u8}[1,3,9,9]</text>
</g>
<!-- FakeQuantize_111&#45;&gt;AvgPool_115 -->
<g id="edge9" class="edge">
<title>FakeQuantize_111&#45;&gt;AvgPool_115</title>
<path fill="none" stroke="black" d="M474.5,-908.85C474.5,-895.26 474.5,-881.34 474.5,-868.39"/>
<polygon fill="black" stroke="black" points="478,-868.24 474.5,-858.24 471,-868.24 478,-868.24"/>
<text text-anchor="middle" x="495.5" y="-879.8" font-family="Times New Roman,serif" font-size="14.00"> 0 &#45;&gt; 0 </text>
</g>
<!-- CLONE_3 -->
<g id="node11" class="node">
<title>CLONE_3</title>
<polygon fill="none" stroke="blue" stroke-dasharray="5,2" points="179,-1178.5 0,-1178.5 0,-1125.5 179,-1125.5 179,-1178.5"/>
<text text-anchor="middle" x="89.5" y="-1163.3" font-family="Times New Roman,serif" font-size="14.00">friendly_name: Parameter_79</text>
<text text-anchor="middle" x="89.5" y="-1148.3" font-family="Times New Roman,serif" font-size="14.00">type_name: Parameter</text>
<text text-anchor="middle" x="89.5" y="-1133.3" font-family="Times New Roman,serif" font-size="14.00">{f32}[1,3,9,9]</text>
</g>
<!-- CLONE_3&#45;&gt;FakeQuantize_111 -->
<g id="edge10" class="edge">
<title>CLONE_3&#45;&gt;FakeQuantize_111</title>
<path fill="none" stroke="black" d="M150.5,-1125.33C195.79,-1106.28 259.67,-1079.4 318.75,-1054.54"/>
<polygon fill="black" stroke="black" points="320.33,-1057.67 328.19,-1050.56 317.62,-1051.22 320.33,-1057.67"/>
<text text-anchor="middle" x="257.5" y="-1088.8" font-family="Times New Roman,serif" font-size="14.00"> 0 &#45;&gt; 0 </text>
</g>
<!-- CLONE_4 -->
<g id="node12" class="node">
<title>CLONE_4</title>
<polygon fill="none" stroke="black" stroke-dasharray="5,2" points="370,-1186 197,-1186 197,-1118 370,-1118 370,-1186"/>
<text text-anchor="middle" x="283.5" y="-1170.8" font-family="Times New Roman,serif" font-size="14.00">friendly_name: Constant_80</text>
<text text-anchor="middle" x="283.5" y="-1155.8" font-family="Times New Roman,serif" font-size="14.00">type_name: Constant</text>
<text text-anchor="middle" x="283.5" y="-1140.8" font-family="Times New Roman,serif" font-size="14.00">{f32}[]</text>
<text text-anchor="middle" x="283.5" y="-1125.8" font-family="Times New Roman,serif" font-size="14.00">value: [&#45;1.28]</text>
</g>
<!-- CLONE_4&#45;&gt;FakeQuantize_111 -->
<g id="edge11" class="edge">
<title>CLONE_4&#45;&gt;FakeQuantize_111</title>
<path fill="none" stroke="black" d="M322.61,-1117.83C337.8,-1104.95 355.94,-1089.56 374.32,-1073.97"/>
<polygon fill="black" stroke="black" points="376.84,-1076.42 382.2,-1067.28 372.31,-1071.08 376.84,-1076.42"/>
<text text-anchor="middle" x="377.5" y="-1088.8" font-family="Times New Roman,serif" font-size="14.00"> 0 &#45;&gt; 1 </text>
</g>
<!-- CLONE_5 -->
<g id="node13" class="node">
<title>CLONE_5</title>
<polygon fill="none" stroke="black" stroke-dasharray="5,2" points="561,-1186 388,-1186 388,-1118 561,-1118 561,-1186"/>
<text text-anchor="middle" x="474.5" y="-1170.8" font-family="Times New Roman,serif" font-size="14.00">friendly_name: Constant_81</text>
<text text-anchor="middle" x="474.5" y="-1155.8" font-family="Times New Roman,serif" font-size="14.00">type_name: Constant</text>
<text text-anchor="middle" x="474.5" y="-1140.8" font-family="Times New Roman,serif" font-size="14.00">{f32}[]</text>
<text text-anchor="middle" x="474.5" y="-1125.8" font-family="Times New Roman,serif" font-size="14.00">value: [1.27]</text>
</g>
<!-- CLONE_5&#45;&gt;FakeQuantize_111 -->
<g id="edge12" class="edge">
<title>CLONE_5&#45;&gt;FakeQuantize_111</title>
<path fill="none" stroke="black" d="M474.5,-1117.83C474.5,-1105.87 474.5,-1091.74 474.5,-1077.3"/>
<polygon fill="black" stroke="black" points="478,-1077.28 474.5,-1067.28 471,-1077.28 478,-1077.28"/>
<text text-anchor="middle" x="495.5" y="-1088.8" font-family="Times New Roman,serif" font-size="14.00"> 0 &#45;&gt; 2 </text>
</g>
<!-- CLONE_6 -->
<g id="node14" class="node">
<title>CLONE_6</title>
<polygon fill="none" stroke="black" stroke-dasharray="5,2" points="759.5,-1186 579.5,-1186 579.5,-1118 759.5,-1118 759.5,-1186"/>
<text text-anchor="middle" x="669.5" y="-1170.8" font-family="Times New Roman,serif" font-size="14.00">friendly_name: Constant_109</text>
<text text-anchor="middle" x="669.5" y="-1155.8" font-family="Times New Roman,serif" font-size="14.00">type_name: Constant</text>
<text text-anchor="middle" x="669.5" y="-1140.8" font-family="Times New Roman,serif" font-size="14.00">{f32}[]</text>
<text text-anchor="middle" x="669.5" y="-1125.8" font-family="Times New Roman,serif" font-size="14.00">value: [0]</text>
</g>
<!-- CLONE_6&#45;&gt;FakeQuantize_111 -->
<g id="edge13" class="edge">
<title>CLONE_6&#45;&gt;FakeQuantize_111</title>
<path fill="none" stroke="black" d="M629.57,-1117.83C614,-1104.89 595.37,-1089.42 576.52,-1073.76"/>
<polygon fill="black" stroke="black" points="578.66,-1070.98 568.73,-1067.28 574.18,-1076.36 578.66,-1070.98"/>
<text text-anchor="middle" x="627.5" y="-1088.8" font-family="Times New Roman,serif" font-size="14.00"> 0 &#45;&gt; 3 </text>
</g>
<!-- CLONE_7 -->
<g id="node15" class="node">
<title>CLONE_7</title>
<polygon fill="none" stroke="black" stroke-dasharray="5,2" points="957.5,-1186 777.5,-1186 777.5,-1118 957.5,-1118 957.5,-1186"/>
<text text-anchor="middle" x="867.5" y="-1170.8" font-family="Times New Roman,serif" font-size="14.00">friendly_name: Constant_110</text>
<text text-anchor="middle" x="867.5" y="-1155.8" font-family="Times New Roman,serif" font-size="14.00">type_name: Constant</text>
<text text-anchor="middle" x="867.5" y="-1140.8" font-family="Times New Roman,serif" font-size="14.00">{f32}[]</text>
<text text-anchor="middle" x="867.5" y="-1125.8" font-family="Times New Roman,serif" font-size="14.00">value: [255]</text>
</g>
<!-- CLONE_7&#45;&gt;FakeQuantize_111 -->
<g id="edge14" class="edge">
<title>CLONE_7&#45;&gt;FakeQuantize_111</title>
<path fill="none" stroke="black" d="M787.02,-1117.83C741.81,-1099.19 683.82,-1075.28 630.1,-1053.14"/>
<polygon fill="black" stroke="black" points="631.4,-1049.89 620.82,-1049.32 628.73,-1056.36 631.4,-1049.89"/>
<text text-anchor="middle" x="761.5" y="-1088.8" font-family="Times New Roman,serif" font-size="14.00"> 0 &#45;&gt; 4 </text>
</g>
</g>
</svg>
