<?xml version="1.0" encoding="UTF-8" standalone="no"?>
<!DOCTYPE svg PUBLIC "-//W3C//DTD SVG 1.1//EN"
 "http://www.w3.org/Graphics/SVG/1.1/DTD/svg11.dtd">
<!-- Generated by graphviz version 2.43.20200408.0903 (20200408.0903)
 -->
<!-- Title: ngraph Pages: 1 -->
<svg width="1957pt" height="941pt"
 viewBox="0.00 0.00 1956.50 941.00" xmlns="http://www.w3.org/2000/svg" xmlns:xlink="http://www.w3.org/1999/xlink">
<g id="graph0" class="graph" transform="scale(1 1) rotate(0) translate(4 937)">
<title>ngraph</title>
<polygon fill="white" stroke="transparent" points="-4,4 -4,-937 1952.5,-937 1952.5,4 -4,4"/>
<!-- Convolution_93 -->
<g id="node1" class="node">
<title>Convolution_93</title>
<polygon fill="none" stroke="black" points="1016,-247 641,-247 641,-134 1016,-134 1016,-247"/>
<text text-anchor="middle" x="828.5" y="-231.8" font-family="Times New Roman,serif" font-size="14.00">friendly_name: output</text>
<text text-anchor="middle" x="828.5" y="-216.8" font-family="Times New Roman,serif" font-size="14.00">name: Convolution_93</text>
<text text-anchor="middle" x="828.5" y="-201.8" font-family="Times New Roman,serif" font-size="14.00">type_name: Convolution</text>
<text text-anchor="middle" x="828.5" y="-186.8" font-family="Times New Roman,serif" font-size="14.00">rt info: PRECISION_PRESERVED(value: false) </text>
<text text-anchor="middle" x="828.5" y="-171.8" font-family="Times New Roman,serif" font-size="14.00">in0: {f32}[1,3,9,9]: MaxPool_86: out0 PRECISIONS({u8}) </text>
<text text-anchor="middle" x="828.5" y="-156.8" font-family="Times New Roman,serif" font-size="14.00">in1: {f32}[6,3,1,1]: FakeQuantize_92: out0 PRECISIONS({i8}) </text>
<text text-anchor="middle" x="828.5" y="-141.8" font-family="Times New Roman,serif" font-size="14.00">out0: {f32}[1,6,9,9]</text>
</g>
<!-- Result_94 -->
<g id="node2" class="node">
<title>Result_94</title>
<polygon fill="none" stroke="crimson" stroke-width="1.5" points="974.5,-83 682.5,-83 682.5,0 974.5,0 974.5,-83"/>
<text text-anchor="middle" x="828.5" y="-67.8" font-family="Times New Roman,serif" font-size="14.00">friendly_name: Result_94</text>
<text text-anchor="middle" x="828.5" y="-52.8" font-family="Times New Roman,serif" font-size="14.00">type_name: Result</text>
<text text-anchor="middle" x="828.5" y="-37.8" font-family="Times New Roman,serif" font-size="14.00">rt info: PRECISION_PRESERVED(value: false) </text>
<text text-anchor="middle" x="828.5" y="-22.8" font-family="Times New Roman,serif" font-size="14.00">in0: {f32}[1,6,9,9]: Convolution_93: out0</text>
<text text-anchor="middle" x="828.5" y="-7.8" font-family="Times New Roman,serif" font-size="14.00">out0: {f32}[1,6,9,9]</text>
</g>
<!-- Convolution_93&#45;&gt;Result_94 -->
<g id="edge1" class="edge">
<title>Convolution_93&#45;&gt;Result_94</title>
<path fill="none" stroke="black" d="M828.5,-133.93C828.5,-120.58 828.5,-106.4 828.5,-93.28"/>
<polygon fill="black" stroke="black" points="832,-93.03 828.5,-83.03 825,-93.03 832,-93.03"/>
<text text-anchor="middle" x="849.5" y="-104.8" font-family="Times New Roman,serif" font-size="14.00"> 0 &#45;&gt; 0 </text>
</g>
<!-- MaxPool_86 -->
<g id="node3" class="node">
<title>MaxPool_86</title>
<polygon fill="none" stroke="black" points="819,-426 532,-426 532,-328 819,-328 819,-426"/>
<text text-anchor="middle" x="675.5" y="-410.8" font-family="Times New Roman,serif" font-size="14.00">friendly_name: maxPool</text>
<text text-anchor="middle" x="675.5" y="-395.8" font-family="Times New Roman,serif" font-size="14.00">name: MaxPool_86</text>
<text text-anchor="middle" x="675.5" y="-380.8" font-family="Times New Roman,serif" font-size="14.00">type_name: MaxPool</text>
<text text-anchor="middle" x="675.5" y="-365.8" font-family="Times New Roman,serif" font-size="14.00">rt info: PRECISION_PRESERVED(value: true) </text>
<text text-anchor="middle" x="675.5" y="-350.8" font-family="Times New Roman,serif" font-size="14.00">in0: {f32}[1,3,9,9]: AvgPool_85: out0</text>
<text text-anchor="middle" x="675.5" y="-335.8" font-family="Times New Roman,serif" font-size="14.00">out0: {f32}[1,3,9,9]</text>
</g>
<!-- MaxPool_86&#45;&gt;Convolution_93 -->
<g id="edge2" class="edge">
<title>MaxPool_86&#45;&gt;Convolution_93</title>
<path fill="none" stroke="black" d="M715.7,-327.52C734.07,-305.37 756.09,-278.82 775.77,-255.09"/>
<polygon fill="black" stroke="black" points="778.66,-257.09 782.35,-247.16 773.27,-252.62 778.66,-257.09"/>
<text text-anchor="middle" x="787.5" y="-268.8" font-family="Times New Roman,serif" font-size="14.00"> 0 &#45;&gt; 0 </text>
</g>
<!-- FakeQuantize_92 -->
<g id="node4" class="node">
<title>FakeQuantize_92</title>
<polygon fill="none" stroke="black" points="1326.5,-456 1034.5,-456 1034.5,-298 1326.5,-298 1326.5,-456"/>
<text text-anchor="middle" x="1180.5" y="-440.8" font-family="Times New Roman,serif" font-size="14.00">friendly_name: fakeQuantizeOnWeights</text>
<text text-anchor="middle" x="1180.5" y="-425.8" font-family="Times New Roman,serif" font-size="14.00">name: FakeQuantize_92</text>
<text text-anchor="middle" x="1180.5" y="-410.8" font-family="Times New Roman,serif" font-size="14.00">type_name: FakeQuantize</text>
<text text-anchor="middle" x="1180.5" y="-395.8" font-family="Times New Roman,serif" font-size="14.00">rt info: PRECISION_PRESERVED(value: false) </text>
<text text-anchor="middle" x="1180.5" y="-380.8" font-family="Times New Roman,serif" font-size="14.00">in0: {f32}[6,3,1,1]: Constant_87: out0</text>
<text text-anchor="middle" x="1180.5" y="-365.8" font-family="Times New Roman,serif" font-size="14.00">in1: {f32}[6,1,1,1]: Constant_88: out0</text>
<text text-anchor="middle" x="1180.5" y="-350.8" font-family="Times New Roman,serif" font-size="14.00">in2: {f32}[6,1,1,1]: Constant_89: out0</text>
<text text-anchor="middle" x="1180.5" y="-335.8" font-family="Times New Roman,serif" font-size="14.00">in3: {f32}[6,1,1,1]: Constant_90: out0</text>
<text text-anchor="middle" x="1180.5" y="-320.8" font-family="Times New Roman,serif" font-size="14.00">in4: {f32}[6,1,1,1]: Constant_91: out0</text>
<text text-anchor="middle" x="1180.5" y="-305.8" font-family="Times New Roman,serif" font-size="14.00">out0: {f32}[6,3,1,1]</text>
</g>
<!-- FakeQuantize_92&#45;&gt;Convolution_93 -->
<g id="edge3" class="edge">
<title>FakeQuantize_92&#45;&gt;Convolution_93</title>
<path fill="none" stroke="black" d="M1034.28,-299.36C1003.98,-283.48 972.47,-266.96 943.48,-251.76"/>
<polygon fill="black" stroke="black" points="945.05,-248.64 934.56,-247.09 941.8,-254.84 945.05,-248.64"/>
<text text-anchor="middle" x="1015.5" y="-268.8" font-family="Times New Roman,serif" font-size="14.00"> 0 &#45;&gt; 1 </text>
</g>
<!-- CLONE_0 -->
<g id="node5" class="node">
<title>CLONE_0</title>
<polygon fill="none" stroke="black" stroke-dasharray="5,2" points="853,-605 636,-605 636,-507 853,-507 853,-605"/>
<text text-anchor="middle" x="744.5" y="-589.8" font-family="Times New Roman,serif" font-size="14.00">friendly_name: Constant_87</text>
<text text-anchor="middle" x="744.5" y="-574.8" font-family="Times New Roman,serif" font-size="14.00">type_name: Constant</text>
<text text-anchor="middle" x="744.5" y="-559.8" font-family="Times New Roman,serif" font-size="14.00">{f32}[6,3,1,1]</text>
<text text-anchor="middle" x="744.5" y="-544.8" font-family="Times New Roman,serif" font-size="14.00">value: [18, 18, 18, 18, 18, 18, 18, 18</text>
<text text-anchor="middle" x="744.5" y="-529.8" font-family="Times New Roman,serif" font-size="14.00">, 18, 18, 18, 18, 18, 18, 18, 18</text>
<text text-anchor="middle" x="744.5" y="-514.8" font-family="Times New Roman,serif" font-size="14.00">, 18, 18]</text>
</g>
<!-- CLONE_0&#45;&gt;FakeQuantize_92 -->
<g id="edge4" class="edge">
<title>CLONE_0&#45;&gt;FakeQuantize_92</title>
<path fill="none" stroke="black" d="M853.17,-510.4C855.97,-509.25 858.75,-508.12 861.5,-507 914.74,-485.32 973.02,-461.71 1025.04,-440.69"/>
<polygon fill="black" stroke="black" points="1026.37,-443.92 1034.34,-436.93 1023.75,-437.43 1026.37,-443.92"/>
<text text-anchor="middle" x="961.5" y="-477.8" font-family="Times New Roman,serif" font-size="14.00"> 0 &#45;&gt; 0 </text>
</g>
<!-- CLONE_1 -->
<g id="node6" class="node">
<title>CLONE_1</title>
<polygon fill="none" stroke="black" stroke-dasharray="5,2" points="1140,-590 871,-590 871,-522 1140,-522 1140,-590"/>
<text text-anchor="middle" x="1005.5" y="-574.8" font-family="Times New Roman,serif" font-size="14.00">friendly_name: Constant_88</text>
<text text-anchor="middle" x="1005.5" y="-559.8" font-family="Times New Roman,serif" font-size="14.00">type_name: Constant</text>
<text text-anchor="middle" x="1005.5" y="-544.8" font-family="Times New Roman,serif" font-size="14.00">{f32}[6,1,1,1]</text>
<text text-anchor="middle" x="1005.5" y="-529.8" font-family="Times New Roman,serif" font-size="14.00">value: [&#45;1.27, &#45;1.27, &#45;1.27, &#45;1.27, &#45;1.27, &#45;1.27]</text>
</g>
<!-- CLONE_1&#45;&gt;FakeQuantize_92 -->
<g id="edge5" class="edge">
<title>CLONE_1&#45;&gt;FakeQuantize_92</title>
<path fill="none" stroke="black" d="M1038.42,-521.71C1054.8,-505.14 1075.44,-484.26 1095.87,-463.6"/>
<polygon fill="black" stroke="black" points="1098.53,-465.88 1103.08,-456.31 1093.56,-460.96 1098.53,-465.88"/>
<text text-anchor="middle" x="1104.5" y="-477.8" font-family="Times New Roman,serif" font-size="14.00"> 0 &#45;&gt; 1 </text>
</g>
<!-- CLONE_2 -->
<g id="node7" class="node">
<title>CLONE_2</title>
<polygon fill="none" stroke="black" stroke-dasharray="5,2" points="1400.5,-590 1158.5,-590 1158.5,-522 1400.5,-522 1400.5,-590"/>
<text text-anchor="middle" x="1279.5" y="-574.8" font-family="Times New Roman,serif" font-size="14.00">friendly_name: Constant_89</text>
<text text-anchor="middle" x="1279.5" y="-559.8" font-family="Times New Roman,serif" font-size="14.00">type_name: Constant</text>
<text text-anchor="middle" x="1279.5" y="-544.8" font-family="Times New Roman,serif" font-size="14.00">{f32}[6,1,1,1]</text>
<text text-anchor="middle" x="1279.5" y="-529.8" font-family="Times New Roman,serif" font-size="14.00">value: [1.27, 1.27, 1.27, 1.27, 1.27, 1.27]</text>
</g>
<!-- CLONE_2&#45;&gt;FakeQuantize_92 -->
<g id="edge6" class="edge">
<title>CLONE_2&#45;&gt;FakeQuantize_92</title>
<path fill="none" stroke="black" d="M1260.88,-521.71C1251.85,-505.57 1240.55,-485.35 1229.29,-465.23"/>
<polygon fill="black" stroke="black" points="1232.24,-463.33 1224.3,-456.31 1226.13,-466.75 1232.24,-463.33"/>
<text text-anchor="middle" x="1263.5" y="-477.8" font-family="Times New Roman,serif" font-size="14.00"> 0 &#45;&gt; 2 </text>
</g>
<!-- CLONE_3 -->
<g id="node8" class="node">
<title>CLONE_3</title>
<polygon fill="none" stroke="black" stroke-dasharray="5,2" points="1688,-590 1419,-590 1419,-522 1688,-522 1688,-590"/>
<text text-anchor="middle" x="1553.5" y="-574.8" font-family="Times New Roman,serif" font-size="14.00">friendly_name: Constant_90</text>
<text text-anchor="middle" x="1553.5" y="-559.8" font-family="Times New Roman,serif" font-size="14.00">type_name: Constant</text>
<text text-anchor="middle" x="1553.5" y="-544.8" font-family="Times New Roman,serif" font-size="14.00">{f32}[6,1,1,1]</text>
<text text-anchor="middle" x="1553.5" y="-529.8" font-family="Times New Roman,serif" font-size="14.00">value: [&#45;1.27, &#45;1.27, &#45;1.27, &#45;1.27, &#45;1.27, &#45;1.27]</text>
</g>
<!-- CLONE_3&#45;&gt;FakeQuantize_92 -->
<g id="edge7" class="edge">
<title>CLONE_3&#45;&gt;FakeQuantize_92</title>
<path fill="none" stroke="black" d="M1483.78,-521.92C1442.11,-502.14 1387.42,-476.19 1335.97,-451.77"/>
<polygon fill="black" stroke="black" points="1337.28,-448.52 1326.74,-447.4 1334.27,-454.84 1337.28,-448.52"/>
<text text-anchor="middle" x="1432.5" y="-477.8" font-family="Times New Roman,serif" font-size="14.00"> 0 &#45;&gt; 3 </text>
</g>
<!-- CLONE_4 -->
<g id="node9" class="node">
<title>CLONE_4</title>
<polygon fill="none" stroke="black" stroke-dasharray="5,2" points="1948.5,-590 1706.5,-590 1706.5,-522 1948.5,-522 1948.5,-590"/>
<text text-anchor="middle" x="1827.5" y="-574.8" font-family="Times New Roman,serif" font-size="14.00">friendly_name: Constant_91</text>
<text text-anchor="middle" x="1827.5" y="-559.8" font-family="Times New Roman,serif" font-size="14.00">type_name: Constant</text>
<text text-anchor="middle" x="1827.5" y="-544.8" font-family="Times New Roman,serif" font-size="14.00">{f32}[6,1,1,1]</text>
<text text-anchor="middle" x="1827.5" y="-529.8" font-family="Times New Roman,serif" font-size="14.00">value: [1.27, 1.27, 1.27, 1.27, 1.27, 1.27]</text>
</g>
<!-- CLONE_4&#45;&gt;FakeQuantize_92 -->
<g id="edge8" class="edge">
<title>CLONE_4&#45;&gt;FakeQuantize_92</title>
<path fill="none" stroke="black" d="M1741.27,-521.93C1726.43,-516.66 1711.09,-511.48 1696.5,-507 1577,-470.28 1439.58,-436.32 1336.62,-412.47"/>
<polygon fill="black" stroke="black" points="1337.3,-409.04 1326.76,-410.2 1335.72,-415.86 1337.3,-409.04"/>
<text text-anchor="middle" x="1648.5" y="-477.8" font-family="Times New Roman,serif" font-size="14.00"> 0 &#45;&gt; 4 </text>
</g>
<!-- AvgPool_85 -->
<g id="node10" class="node">
<title>AvgPool_85</title>
<polygon fill="none" stroke="black" points="618,-605 331,-605 331,-507 618,-507 618,-605"/>
<text text-anchor="middle" x="474.5" y="-589.8" font-family="Times New Roman,serif" font-size="14.00">friendly_name: avgPool</text>
<text text-anchor="middle" x="474.5" y="-574.8" font-family="Times New Roman,serif" font-size="14.00">name: AvgPool_85</text>
<text text-anchor="middle" x="474.5" y="-559.8" font-family="Times New Roman,serif" font-size="14.00">type_name: AvgPool</text>
<text text-anchor="middle" x="474.5" y="-544.8" font-family="Times New Roman,serif" font-size="14.00">rt info: PRECISION_PRESERVED(value: true) </text>
<text text-anchor="middle" x="474.5" y="-529.8" font-family="Times New Roman,serif" font-size="14.00">in0: {f32}[1,3,9,9]: FakeQuantize_84: out0</text>
<text text-anchor="middle" x="474.5" y="-514.8" font-family="Times New Roman,serif" font-size="14.00">out0: {f32}[1,3,9,9]</text>
</g>
<!-- AvgPool_85&#45;&gt;MaxPool_86 -->
<g id="edge9" class="edge">
<title>AvgPool_85&#45;&gt;MaxPool_86</title>
<path fill="none" stroke="black" d="M529.16,-506.87C555.08,-484.04 586.18,-456.65 613.03,-433.01"/>
<polygon fill="black" stroke="black" points="615.66,-435.36 620.85,-426.12 611.03,-430.1 615.66,-435.36"/>
<text text-anchor="middle" x="584.5" y="-477.8" font-family="Times New Roman,serif" font-size="14.00"> 0 &#45;&gt; 0 </text>
</g>
<!-- FakeQuantize_84 -->
<g id="node11" class="node">
<title>FakeQuantize_84</title>
<polygon fill="none" stroke="black" points="620.5,-814 328.5,-814 328.5,-656 620.5,-656 620.5,-814"/>
<text text-anchor="middle" x="474.5" y="-798.8" font-family="Times New Roman,serif" font-size="14.00">friendly_name: fakeQuantizeOnActivations</text>
<text text-anchor="middle" x="474.5" y="-783.8" font-family="Times New Roman,serif" font-size="14.00">name: FakeQuantize_84</text>
<text text-anchor="middle" x="474.5" y="-768.8" font-family="Times New Roman,serif" font-size="14.00">type_name: FakeQuantize</text>
<text text-anchor="middle" x="474.5" y="-753.8" font-family="Times New Roman,serif" font-size="14.00">rt info: PRECISION_PRESERVED(value: false) </text>
<text text-anchor="middle" x="474.5" y="-738.8" font-family="Times New Roman,serif" font-size="14.00">in0: {f32}[1,3,9,9]: Parameter_79: out0</text>
<text text-anchor="middle" x="474.5" y="-723.8" font-family="Times New Roman,serif" font-size="14.00">in1: {f32}[]: Constant_80: out0</text>
<text text-anchor="middle" x="474.5" y="-708.8" font-family="Times New Roman,serif" font-size="14.00">in2: {f32}[]: Constant_81: out0</text>
<text text-anchor="middle" x="474.5" y="-693.8" font-family="Times New Roman,serif" font-size="14.00">in3: {f32}[]: Constant_82: out0</text>
<text text-anchor="middle" x="474.5" y="-678.8" font-family="Times New Roman,serif" font-size="14.00">in4: {f32}[]: Constant_83: out0</text>
<text text-anchor="middle" x="474.5" y="-663.8" font-family="Times New Roman,serif" font-size="14.00">out0: {f32}[1,3,9,9]</text>
</g>
<!-- FakeQuantize_84&#45;&gt;AvgPool_85 -->
<g id="edge10" class="edge">
<title>FakeQuantize_84&#45;&gt;AvgPool_85</title>
<path fill="none" stroke="black" d="M474.5,-655.85C474.5,-642.26 474.5,-628.34 474.5,-615.39"/>
<polygon fill="black" stroke="black" points="478,-615.24 474.5,-605.24 471,-615.24 478,-615.24"/>
<text text-anchor="middle" x="495.5" y="-626.8" font-family="Times New Roman,serif" font-size="14.00"> 0 &#45;&gt; 0 </text>
</g>
<!-- CLONE_5 -->
<g id="node12" class="node">
<title>CLONE_5</title>
<polygon fill="none" stroke="blue" stroke-dasharray="5,2" points="179,-925.5 0,-925.5 0,-872.5 179,-872.5 179,-925.5"/>
<text text-anchor="middle" x="89.5" y="-910.3" font-family="Times New Roman,serif" font-size="14.00">friendly_name: Parameter_79</text>
<text text-anchor="middle" x="89.5" y="-895.3" font-family="Times New Roman,serif" font-size="14.00">type_name: Parameter</text>
<text text-anchor="middle" x="89.5" y="-880.3" font-family="Times New Roman,serif" font-size="14.00">{f32}[1,3,9,9]</text>
</g>
<!-- CLONE_5&#45;&gt;FakeQuantize_84 -->
<g id="edge11" class="edge">
<title>CLONE_5&#45;&gt;FakeQuantize_84</title>
<path fill="none" stroke="black" d="M150.5,-872.33C195.79,-853.28 259.67,-826.4 318.75,-801.54"/>
<polygon fill="black" stroke="black" points="320.33,-804.67 328.19,-797.56 317.62,-798.22 320.33,-804.67"/>
<text text-anchor="middle" x="257.5" y="-835.8" font-family="Times New Roman,serif" font-size="14.00"> 0 &#45;&gt; 0 </text>
</g>
<!-- CLONE_6 -->
<g id="node13" class="node">
<title>CLONE_6</title>
<polygon fill="none" stroke="black" stroke-dasharray="5,2" points="370,-933 197,-933 197,-865 370,-865 370,-933"/>
<text text-anchor="middle" x="283.5" y="-917.8" font-family="Times New Roman,serif" font-size="14.00">friendly_name: Constant_80</text>
<text text-anchor="middle" x="283.5" y="-902.8" font-family="Times New Roman,serif" font-size="14.00">type_name: Constant</text>
<text text-anchor="middle" x="283.5" y="-887.8" font-family="Times New Roman,serif" font-size="14.00">{f32}[]</text>
<text text-anchor="middle" x="283.5" y="-872.8" font-family="Times New Roman,serif" font-size="14.00">value: [&#45;1.28]</text>
</g>
<!-- CLONE_6&#45;&gt;FakeQuantize_84 -->
<g id="edge12" class="edge">
<title>CLONE_6&#45;&gt;FakeQuantize_84</title>
<path fill="none" stroke="black" d="M322.61,-864.83C337.8,-851.95 355.94,-836.56 374.32,-820.97"/>
<polygon fill="black" stroke="black" points="376.84,-823.42 382.2,-814.28 372.31,-818.08 376.84,-823.42"/>
<text text-anchor="middle" x="377.5" y="-835.8" font-family="Times New Roman,serif" font-size="14.00"> 0 &#45;&gt; 1 </text>
</g>
<!-- CLONE_7 -->
<g id="node14" class="node">
<title>CLONE_7</title>
<polygon fill="none" stroke="black" stroke-dasharray="5,2" points="561,-933 388,-933 388,-865 561,-865 561,-933"/>
<text text-anchor="middle" x="474.5" y="-917.8" font-family="Times New Roman,serif" font-size="14.00">friendly_name: Constant_81</text>
<text text-anchor="middle" x="474.5" y="-902.8" font-family="Times New Roman,serif" font-size="14.00">type_name: Constant</text>
<text text-anchor="middle" x="474.5" y="-887.8" font-family="Times New Roman,serif" font-size="14.00">{f32}[]</text>
<text text-anchor="middle" x="474.5" y="-872.8" font-family="Times New Roman,serif" font-size="14.00">value: [1.27]</text>
</g>
<!-- CLONE_7&#45;&gt;FakeQuantize_84 -->
<g id="edge13" class="edge">
<title>CLONE_7&#45;&gt;FakeQuantize_84</title>
<path fill="none" stroke="black" d="M474.5,-864.83C474.5,-852.87 474.5,-838.74 474.5,-824.3"/>
<polygon fill="black" stroke="black" points="478,-824.28 474.5,-814.28 471,-824.28 478,-824.28"/>
<text text-anchor="middle" x="495.5" y="-835.8" font-family="Times New Roman,serif" font-size="14.00"> 0 &#45;&gt; 2 </text>
</g>
<!-- CLONE_8 -->
<g id="node15" class="node">
<title>CLONE_8</title>
<polygon fill="none" stroke="black" stroke-dasharray="5,2" points="752,-933 579,-933 579,-865 752,-865 752,-933"/>
<text text-anchor="middle" x="665.5" y="-917.8" font-family="Times New Roman,serif" font-size="14.00">friendly_name: Constant_82</text>
<text text-anchor="middle" x="665.5" y="-902.8" font-family="Times New Roman,serif" font-size="14.00">type_name: Constant</text>
<text text-anchor="middle" x="665.5" y="-887.8" font-family="Times New Roman,serif" font-size="14.00">{f32}[]</text>
<text text-anchor="middle" x="665.5" y="-872.8" font-family="Times New Roman,serif" font-size="14.00">value: [&#45;1.28]</text>
</g>
<!-- CLONE_8&#45;&gt;FakeQuantize_84 -->
<g id="edge14" class="edge">
<title>CLONE_8&#45;&gt;FakeQuantize_84</title>
<path fill="none" stroke="black" d="M626.39,-864.83C611.2,-851.95 593.06,-836.56 574.68,-820.97"/>
<polygon fill="black" stroke="black" points="576.69,-818.08 566.8,-814.28 572.16,-823.42 576.69,-818.08"/>
<text text-anchor="middle" x="625.5" y="-835.8" font-family="Times New Roman,serif" font-size="14.00"> 0 &#45;&gt; 3 </text>
</g>
<!-- CLONE_9 -->
<g id="node16" class="node">
<title>CLONE_9</title>
<polygon fill="none" stroke="black" stroke-dasharray="5,2" points="943,-933 770,-933 770,-865 943,-865 943,-933"/>
<text text-anchor="middle" x="856.5" y="-917.8" font-family="Times New Roman,serif" font-size="14.00">friendly_name: Constant_83</text>
<text text-anchor="middle" x="856.5" y="-902.8" font-family="Times New Roman,serif" font-size="14.00">type_name: Constant</text>
<text text-anchor="middle" x="856.5" y="-887.8" font-family="Times New Roman,serif" font-size="14.00">{f32}[]</text>
<text text-anchor="middle" x="856.5" y="-872.8" font-family="Times New Roman,serif" font-size="14.00">value: [1.27]</text>
</g>
<!-- CLONE_9&#45;&gt;FakeQuantize_84 -->
<g id="edge15" class="edge">
<title>CLONE_9&#45;&gt;FakeQuantize_84</title>
<path fill="none" stroke="black" d="M778.27,-864.83C735.53,-846.7 681.05,-823.6 630.06,-801.97"/>
<polygon fill="black" stroke="black" points="631.16,-798.64 620.59,-797.95 628.43,-805.08 631.16,-798.64"/>
<text text-anchor="middle" x="754.5" y="-835.8" font-family="Times New Roman,serif" font-size="14.00"> 0 &#45;&gt; 4 </text>
</g>
</g>
</svg>
