<?xml version="1.0" encoding="UTF-8" standalone="no"?>
<svg
   xmlns:dc="http://purl.org/dc/elements/1.1/"
   xmlns:cc="http://creativecommons.org/ns#"
   xmlns:rdf="http://www.w3.org/1999/02/22-rdf-syntax-ns#"
   xmlns:svg="http://www.w3.org/2000/svg"
   xmlns="http://www.w3.org/2000/svg"
   id="svg1024"
   version="1.1"
   viewBox="0 0 86.485756 54.614262"
   height="54.614262mm"
   width="86.485756mm">
  <defs
     id="defs1018" />
  <metadata
     id="metadata1021">
    <rdf:RDF>
      <cc:Work
         rdf:about="">
        <dc:format>image/svg+xml</dc:format>
        <dc:type
           rdf:resource="http://purl.org/dc/dcmitype/StillImage" />
        <dc:title></dc:title>
      </cc:Work>
    </rdf:RDF>
  </metadata>
  <g
     transform="translate(-53.686132,-73.901207)"
     id="layer1">
    <path
       id="path4719"
       d="m 97.347285,78.795704 c -6.620611,0 -11.777059,5.535474 -11.777059,12.251491 0,6.715993 5.156448,12.207855 11.777059,12.207855 6.665485,0 11.819745,-5.491862 11.819745,-12.207855 0,-6.716017 -5.15426,-12.251491 -11.819745,-12.251491 z"
       style="fill:#ffffff;fill-opacity:1;stroke-width:1.7972852" />
    <g
       transform="matrix(0.89843594,0,0,-0.91748779,103.52607,88.397231)"
       id="g4566">
      <path
         id="path4568"
         style="fill:#6c24f0;fill-opacity:1;fill-rule:nonzero;stroke:none"
         d="m 0,0 c -0.48,-0.981 -1.465,-1.665 -2.65,-1.665 -1.664,0 -2.959,1.351 -2.959,3.003 0,1.194 0.681,2.228 1.684,2.714 -0.897,0.388 -1.889,0.605 -2.943,0.605 -4.158,0 -7.396,-3.405 -7.396,-7.536 0,-4.131 3.238,-7.507 7.396,-7.507 4.187,0 7.425,3.376 7.425,7.507 C 0.557,-1.862 0.358,-0.889 0,0" />
    </g>
    <g
       style="fill:#4a4a4a;fill-opacity:1"
       transform="matrix(0.89843594,0,0,-0.91748779,109.16643,91.025379)"
       id="g4570">
      <path
         id="path4572"
         style="fill:#4a4a4a;fill-opacity:1;fill-rule:nonzero;stroke:none"
         d="m 0,0 c 0,7.32 -5.737,13.354 -13.156,13.354 -7.369,0 -13.107,-6.034 -13.107,-13.354 0,-7.32 5.738,-13.304 13.107,-13.304 C -5.737,-13.304 0,-7.32 0,0 m -31.654,0 c 0,10.238 8.26,18.547 18.498,18.547 10.287,0 18.547,-8.309 18.547,-18.547 0,-10.238 -8.26,-18.547 -18.547,-18.547 -10.238,0 -18.498,8.309 -18.498,18.547" />
    </g>
    <g
       id="text7452"
       style="font-style:normal;font-variant:normal;font-weight:500;font-stretch:normal;font-size:48.05083466px;line-height:1.25;font-family:Roboto;-inkscape-font-specification:'Roboto, Medium';font-variant-ligatures:normal;font-variant-caps:normal;font-variant-numeric:normal;font-feature-settings:normal;text-align:start;letter-spacing:0px;word-spacing:0px;writing-mode:lr-tb;text-anchor:start;fill:#4a4a4a;fill-opacity:1;stroke:none;stroke-width:1.20125616"
       aria-label="4">
      <path
         id="path1660"
         style="font-style:normal;font-variant:normal;font-weight:500;font-stretch:normal;font-size:48.05083466px;font-family:Roboto;-inkscape-font-specification:'Roboto, Medium';font-variant-ligatures:normal;font-variant-caps:normal;font-variant-numeric:normal;font-feature-settings:normal;text-align:start;writing-mode:lr-tb;text-anchor:start;fill:#4a4a4a;fill-opacity:1;stroke-width:1.20125616"
         d="m 74.309513,95.885402 h 4.24668 v 4.575158 h -4.24668 v 7.60179 h -5.701345 v -7.60179 h -14.7578 L 53.686132,96.988132 68.42047,73.901207 h 5.889043 z m -14.640489,0 h 8.939144 V 81.620311 l -0.422321,0.750794 z" />
    </g>
    <g
       id="text7452-1"
       style="font-style:normal;font-variant:normal;font-weight:500;font-stretch:normal;font-size:48.05083466px;line-height:1.25;font-family:Roboto;-inkscape-font-specification:'Roboto, Medium';font-variant-ligatures:normal;font-variant-caps:normal;font-variant-numeric:normal;font-feature-settings:normal;text-align:start;letter-spacing:0px;word-spacing:0px;writing-mode:lr-tb;text-anchor:start;fill:#4a4a4a;fill-opacity:1;stroke:none;stroke-width:1.20125616"
       aria-label="4">
      <path
         id="path1657"
         style="font-style:normal;font-variant:normal;font-weight:500;font-stretch:normal;font-size:48.05083466px;font-family:Roboto;-inkscape-font-specification:'Roboto, Medium';font-variant-ligatures:normal;font-variant-caps:normal;font-variant-numeric:normal;font-feature-settings:normal;text-align:start;writing-mode:lr-tb;text-anchor:start;fill:#4a4a4a;fill-opacity:1;stroke-width:1.20125616"
         d="m 135.92521,95.929004 h 4.24668 v 4.575156 h -4.24668 v 7.60179 h -5.70135 v -7.60179 h -14.7578 l -0.16423,-3.472426 14.73434,-23.086925 h 5.88904 z m -14.64049,0 h 8.93914 V 81.663913 l -0.42232,0.750794 z" />
    </g>
    <g
       id="text947-8"
       style="font-style:normal;font-variant:normal;font-weight:bold;font-stretch:normal;font-size:10.69849682px;line-height:1.25;font-family:Roboto;-inkscape-font-specification:'Roboto, Bold';font-variant-ligatures:normal;font-variant-caps:normal;font-variant-numeric:normal;font-feature-settings:normal;text-align:start;letter-spacing:0px;word-spacing:0px;writing-mode:lr-tb;text-anchor:start;fill:#4a4a4a;fill-opacity:1;stroke:none;stroke-width:0.36472142"
       aria-label="PAGE NOT FOUND">
      <path
         id="path1663"
         style="font-style:normal;font-variant:normal;font-weight:bold;font-stretch:normal;font-size:10.69849682px;font-family:Roboto;-inkscape-font-specification:'Roboto, Bold';font-variant-ligatures:normal;font-variant-caps:normal;font-variant-numeric:normal;font-feature-settings:normal;text-align:start;writing-mode:lr-tb;text-anchor:start;fill:#4a4a4a;fill-opacity:1;stroke-width:0.36472142"
         d="m 55.448251,125.73115 v 2.67985 h -1.567163 v -7.60597 h 2.967161 q 0.856716,0 1.504477,0.31344 0.652984,0.31343 1.002984,0.89328 0.349999,0.57462 0.349999,1.31119 0,1.11791 -0.767909,1.76567 -0.762686,0.64254 -2.11567,0.64254 z m 0,-1.2694 h 1.399998 q 0.621642,0 0.945522,-0.29254 0.329104,-0.29254 0.329104,-0.83582 0,-0.55896 -0.329104,-0.90373 -0.329104,-0.34478 -0.908954,-0.35523 h -1.436566 z" />
      <path
         id="path1665"
         style="font-style:normal;font-variant:normal;font-weight:bold;font-stretch:normal;font-size:10.69849682px;font-family:Roboto;-inkscape-font-specification:'Roboto, Bold';font-variant-ligatures:normal;font-variant-caps:normal;font-variant-numeric:normal;font-feature-settings:normal;text-align:start;writing-mode:lr-tb;text-anchor:start;fill:#4a4a4a;fill-opacity:1;stroke-width:0.36472142"
         d="m 64.151227,126.84383 h -2.747758 l -0.522388,1.56717 h -1.666416 l 2.83134,-7.60597 h 1.452238 l 2.847012,7.60597 h -1.666416 z m -2.324624,-1.2694 h 1.90149 l -0.955969,-2.84701 z" />
      <path
         id="path1667"
         style="font-style:normal;font-variant:normal;font-weight:bold;font-stretch:normal;font-size:10.69849682px;font-family:Roboto;-inkscape-font-specification:'Roboto, Bold';font-variant-ligatures:normal;font-variant-caps:normal;font-variant-numeric:normal;font-feature-settings:normal;text-align:start;writing-mode:lr-tb;text-anchor:start;fill:#4a4a4a;fill-opacity:1;stroke-width:0.36472142"
         d="m 72.979576,127.4498 q -0.423134,0.50672 -1.196267,0.78881 -0.773134,0.27686 -1.713431,0.27686 -0.987313,0 -1.734327,-0.42835 -0.74179,-0.43359 -1.149253,-1.25373 -0.402238,-0.82015 -0.412686,-1.92761 v -0.51717 q 0,-1.1388 0.381343,-1.9694 0.386567,-0.83582 1.107462,-1.27463 0.726118,-0.44402 1.697759,-0.44402 1.352984,0 2.11567,0.64776 0.762686,0.64253 0.90373,1.87537 h -1.525371 q -0.104478,-0.65299 -0.464925,-0.95597 -0.355224,-0.30299 -0.982089,-0.30299 -0.799253,0 -1.217163,0.60075 -0.41791,0.60074 -0.423134,1.78656 v 0.48582 q 0,1.19627 0.454477,1.80747 0.454478,0.61119 1.332089,0.61119 0.882835,0 1.258954,-0.37612 v -1.31119 h -1.426118 v -1.15448 h 2.99328 z" />
      <path
         id="path1669"
         style="font-style:normal;font-variant:normal;font-weight:bold;font-stretch:normal;font-size:10.69849682px;font-family:Roboto;-inkscape-font-specification:'Roboto, Bold';font-variant-ligatures:normal;font-variant-caps:normal;font-variant-numeric:normal;font-feature-settings:normal;text-align:start;writing-mode:lr-tb;text-anchor:start;fill:#4a4a4a;fill-opacity:1;stroke-width:0.36472142"
         d="m 78.830317,125.11473 h -3.008953 v 2.03731 h 3.53134 v 1.25896 h -5.098502 v -7.60597 h 5.088054 v 1.2694 h -3.520892 v 1.81269 h 3.008953 z" />
      <path
         id="path1671"
         style="font-style:normal;font-variant:normal;font-weight:bold;font-stretch:normal;font-size:10.69849682px;font-family:Roboto;-inkscape-font-specification:'Roboto, Bold';font-variant-ligatures:normal;font-variant-caps:normal;font-variant-numeric:normal;font-feature-settings:normal;text-align:start;writing-mode:lr-tb;text-anchor:start;fill:#4a4a4a;fill-opacity:1;stroke-width:0.36472142"
         d="m 89.1318,128.411 h -1.567163 l -3.050743,-5.00448 v 5.00448 h -1.567162 v -7.60597 h 1.567162 l 3.055967,5.01492 v -5.01492 H 89.1318 Z" />
      <path
         id="path1673"
         style="font-style:normal;font-variant:normal;font-weight:bold;font-stretch:normal;font-size:10.69849682px;font-family:Roboto;-inkscape-font-specification:'Roboto, Bold';font-variant-ligatures:normal;font-variant-caps:normal;font-variant-numeric:normal;font-feature-settings:normal;text-align:start;writing-mode:lr-tb;text-anchor:start;fill:#4a4a4a;fill-opacity:1;stroke-width:0.36472142"
         d="m 96.758657,124.7804 q 0,1.12314 -0.397014,1.9694 -0.397015,0.84627 -1.138805,1.30597 -0.736566,0.4597 -1.692536,0.4597 -0.945521,0 -1.687311,-0.45447 -0.741791,-0.45448 -1.149253,-1.29553 -0.407462,-0.84626 -0.412686,-1.94328 v -0.37612 q 0,-1.12313 0.402238,-1.97462 0.407463,-0.85672 1.144029,-1.31119 0.74179,-0.4597 1.692536,-0.4597 0.950745,0 1.687311,0.4597 0.741791,0.45447 1.144029,1.31119 0.407462,0.85149 0.407462,1.9694 z m -1.588058,-0.34477 q 0,-1.19627 -0.428358,-1.81791 -0.428357,-0.62164 -1.222386,-0.62164 -0.788806,0 -1.217163,0.61641 -0.428358,0.6112 -0.433582,1.79702 v 0.37089 q 0,1.16493 0.428358,1.80746 0.428358,0.64254 1.232834,0.64254 0.788806,0 1.211939,-0.61642 0.423134,-0.62164 0.428358,-1.80746 z" />
      <path
         id="path1675"
         style="font-style:normal;font-variant:normal;font-weight:bold;font-stretch:normal;font-size:10.69849682px;font-family:Roboto;-inkscape-font-specification:'Roboto, Bold';font-variant-ligatures:normal;font-variant-caps:normal;font-variant-numeric:normal;font-feature-settings:normal;text-align:start;writing-mode:lr-tb;text-anchor:start;fill:#4a4a4a;fill-opacity:1;stroke-width:0.36472142"
         d="m 103.19447,122.07443 h -2.32985 v 6.33657 h -1.567159 v -6.33657 h -2.298505 v -1.2694 h 6.195514 z" />
      <path
         id="path1677"
         style="font-style:normal;font-variant:normal;font-weight:bold;font-stretch:normal;font-size:10.69849682px;font-family:Roboto;-inkscape-font-specification:'Roboto, Bold';font-variant-ligatures:normal;font-variant-caps:normal;font-variant-numeric:normal;font-feature-settings:normal;text-align:start;writing-mode:lr-tb;text-anchor:start;fill:#4a4a4a;fill-opacity:1;stroke-width:0.36472142"
         d="m 111.03029,125.30279 h -3.00896 v 3.10821 h -1.56716 v -7.60597 h 4.95223 v 1.2694 h -3.38507 v 1.96418 h 3.00896 z" />
      <path
         id="path1679"
         style="font-style:normal;font-variant:normal;font-weight:bold;font-stretch:normal;font-size:10.69849682px;font-family:Roboto;-inkscape-font-specification:'Roboto, Bold';font-variant-ligatures:normal;font-variant-caps:normal;font-variant-numeric:normal;font-feature-settings:normal;text-align:start;writing-mode:lr-tb;text-anchor:start;fill:#4a4a4a;fill-opacity:1;stroke-width:0.36472142"
         d="m 118.57356,124.7804 q 0,1.12314 -0.39701,1.9694 -0.39702,0.84627 -1.13881,1.30597 -0.73657,0.4597 -1.69253,0.4597 -0.94553,0 -1.68732,-0.45447 -0.74179,-0.45448 -1.14925,-1.29553 -0.40746,-0.84626 -0.41268,-1.94328 v -0.37612 q 0,-1.12313 0.40223,-1.97462 0.40747,-0.85672 1.14403,-1.31119 0.74179,-0.4597 1.69254,-0.4597 0.95074,0 1.68731,0.4597 0.74179,0.45447 1.14403,1.31119 0.40746,0.85149 0.40746,1.9694 z m -1.58806,-0.34477 q 0,-1.19627 -0.42836,-1.81791 -0.42835,-0.62164 -1.22238,-0.62164 -0.78881,0 -1.21717,0.61641 -0.42835,0.6112 -0.43358,1.79702 v 0.37089 q 0,1.16493 0.42836,1.80746 0.42836,0.64254 1.23284,0.64254 0.7888,0 1.21193,-0.61642 0.42314,-0.62164 0.42836,-1.80746 z" />
      <path
         id="path1681"
         style="font-style:normal;font-variant:normal;font-weight:bold;font-stretch:normal;font-size:10.69849682px;font-family:Roboto;-inkscape-font-specification:'Roboto, Bold';font-variant-ligatures:normal;font-variant-caps:normal;font-variant-numeric:normal;font-feature-settings:normal;text-align:start;writing-mode:lr-tb;text-anchor:start;fill:#4a4a4a;fill-opacity:1;stroke-width:0.36472142"
         d="m 125.47953,120.80503 v 5.0097 q 0,1.24851 -0.78358,1.97462 -0.77836,0.72612 -2.13135,0.72612 -1.33208,0 -2.11566,-0.70522 -0.78359,-0.70522 -0.79926,-1.93806 v -5.06716 h 1.56716 v 5.02015 q 0,0.74701 0.35523,1.09179 0.36045,0.33955 0.99253,0.33955 1.32165,0 1.34254,-1.38955 v -5.06194 z" />
      <path
         id="path1683"
         style="font-style:normal;font-variant:normal;font-weight:bold;font-stretch:normal;font-size:10.69849682px;font-family:Roboto;-inkscape-font-specification:'Roboto, Bold';font-variant-ligatures:normal;font-variant-caps:normal;font-variant-numeric:normal;font-feature-settings:normal;text-align:start;writing-mode:lr-tb;text-anchor:start;fill:#4a4a4a;fill-opacity:1;stroke-width:0.36472142"
         d="m 132.94966,128.411 h -1.56716 l -3.05074,-5.00448 v 5.00448 h -1.56717 v -7.60597 h 1.56717 l 3.05596,5.01492 v -5.01492 h 1.56194 z" />
      <path
         id="path1685"
         style="font-style:normal;font-variant:normal;font-weight:bold;font-stretch:normal;font-size:10.69849682px;font-family:Roboto;-inkscape-font-specification:'Roboto, Bold';font-variant-ligatures:normal;font-variant-caps:normal;font-variant-numeric:normal;font-feature-settings:normal;text-align:start;writing-mode:lr-tb;text-anchor:start;fill:#4a4a4a;fill-opacity:1;stroke-width:0.36472142"
         d="m 134.32877,128.411 v -7.60597 h 2.34029 q 1.00299,0 1.79179,0.45448 0.79403,0.44925 1.23806,1.28507 0.44403,0.8306 0.44403,1.89105 v 0.35 q 0,1.06044 -0.43881,1.88581 -0.43358,0.82538 -1.22761,1.27985 -0.79403,0.45448 -1.79179,0.45971 z m 1.56716,-6.33657 v 5.07761 h 0.75746 q 0.9194,0 1.40522,-0.60074 0.48582,-0.60075 0.49627,-1.71866 v -0.40224 q 0,-1.1597 -0.4806,-1.75522 -0.48059,-0.60075 -1.40522,-0.60075 z" />
    </g>
  </g>
</svg>
