<svg viewBox="0 0 13 7" version="1.1" xmlns="http://www.w3.org/2000/svg" xmlns:xlink="http://www.w3.org/1999/xlink">
    <g stroke="none" stroke-width="1" fill="none" fill-rule="evenodd">
        <g transform="translate(-1092.000000, -36.000000)" fill="#3EB6E0">
            <g transform="translate(946.000000, 29.000000)">
                <g transform="translate(146.000000, 7.000000)">
                    <path d="M11.9025,0.25575 C11.5605,-0.08525 11.0065,-0.08525 10.6645,0.25575 L6.0795,4.84075 L1.4945,0.25575 C1.1525,-0.08525 0.5985,-0.08325 0.2565,0.25575 C-0.0855,0.59775 -0.0855,1.15275 0.2565,1.49475 L5.4495,6.68575 C5.6205,6.85675 5.8435,6.94175 6.0675,6.94175 C6.0715,6.94175 6.0755,6.93975 6.0795,6.93975 C6.0835,6.93975 6.0875,6.94175 6.0915,6.94175 C6.3155,6.94175 6.5395,6.85675 6.7105,6.68575 L11.9025,1.49475 C12.2445,1.15275 12.2445,0.59775 11.9025,0.25575"></path>
                </g>
            </g>
        </g>
    </g>
</svg>