
<svg viewBox="0 0 7 13" version="1.1" xmlns="http://www.w3.org/2000/svg" xmlns:xlink="http://www.w3.org/1999/xlink">
    <defs>
        <polygon id="path-1" points="0.00015 5e-05 12.158 5e-05 12.158 6.94185 0.00015 6.94185"></polygon>
    </defs>
    <g stroke="none" stroke-width="1" fill="none" fill-rule="evenodd">
        <g transform="translate(-17.000000, -277.000000)">
            <g id="Group-3-Copy-4" transform="translate(20.500000, 283.500000) rotate(-90.000000) translate(-20.500000, -283.500000) translate(14.000000, 280.000000)">
                <mask id="mask-2" fill="white">
                    <use xlink:href="#path-1"></use>
                </mask>
                <g id="Clip-2"></g>
                <path d="M11.9019,0.25655 C11.5599,-0.08545 11.0059,-0.08545 10.6649,0.25655 L6.0799,4.84055 L1.4939,0.25655 C1.1519,-0.08545 0.5979,-0.08345 0.2559,0.25655 C-0.0851,0.59855 -0.0851,1.15255 0.2559,1.49455 L5.4489,6.68655 C5.6199,6.85755 5.8429,6.94255 6.0669,6.94255 C6.0719,6.94255 6.0759,6.93955 6.0799,6.93955 C6.0839,6.93955 6.0879,6.94255 6.0909,6.94255 C6.3159,6.94255 6.5389,6.85755 6.7099,6.68655 L11.9019,1.49455 C12.2439,1.15255 12.2439,0.59855 11.9019,0.25655" id="Fill-1" fill="white" mask="url(#mask-2)"></path>
            </g>
        </g>
    </g>
</svg>