<svg width="156px" height="156px" viewBox="0 0 156 156" version="1.1" xmlns="http://www.w3.org/2000/svg" xmlns:xlink="http://www.w3.org/1999/xlink">
    <defs>
        <polygon id="path-1" points="8.1461095e-05 0.236258075 75.7460488 0.236258075 75.7460488 75.5997042 8.1461095e-05 75.5997042"></polygon>
    </defs>
    <g id="OpenVINO-8/31" stroke="none" stroke-width="1" fill="none" fill-rule="evenodd">
        <g id="Landing-Page-floating-card-circle-icons" transform="translate(-252.000000, -870.000000)">
            <g id="Group-Copy" transform="translate(252.000000, 870.000000)">
                <circle id="Oval-2" fill="#F9F9F9" cx="78" cy="78" r="78"></circle>
                <g id="Group-10-Copy-2" transform="translate(40.000000, 40.000000)">
                    <g id="Group-3">
                        <mask id="mask-2" fill="white">
                            <use xlink:href="#path-1"></use>
                        </mask>
                        <g id="Clip-2"></g>
                        <path d="M71.0558602,5.25814959 C68.1826894,16.6457919 63.1654537,27.013922 56.2822016,36.4984748 C53.717974,40.0266049 50.9065919,43.3446537 47.8418764,46.4396455 C46.9088683,47.3856293 46.6617138,48.3736293 46.9274049,49.6650114 C47.6317951,53.0948976 46.8903317,56.2269626 44.4682179,58.7856293 C41.9225268,61.4857919 39.2223642,64.0494016 36.4542341,66.8113528 C36.7508195,64.8773691 37.0103317,63.135548 37.2945593,61.3931089 C38.1101691,56.3567187 36.775535,51.9759057 33.241226,48.3180195 C31.0600878,46.062735 28.9098439,43.7641984 26.5186244,41.7257919 C23.2500065,38.9391252 19.3943967,37.9072553 15.1618764,38.3459545 C13.0857789,38.5615967 11.022039,38.9755805 8.93358374,39.303678 C8.97065691,39.0250114 9.20545366,38.9082309 9.36610407,38.7469626 C11.6399252,36.4675805 13.9199252,34.1999382 16.1999252,31.9254992 C18.6096813,29.516361 21.4890309,28.3911902 24.9059415,28.7131089 C25.1592748,28.7378244 25.4126081,28.7748976 25.6474049,28.8546049 C27.2539089,29.3983447 28.4711447,28.8675805 29.6574862,27.7053366 C39.5930959,17.9866049 51.3205756,11.2145724 64.3950472,6.67249106 C66.415535,5.96810081 68.4607382,5.34465366 70.524478,4.77619837 C71.0435024,4.63346667 71.2350472,4.55314146 71.0558602,5.25814959 M70.5430146,0.345954472 C61.002852,2.64449106 52.0126081,6.31473496 43.5908195,11.3560683 C37.578787,14.9521659 32.0548846,19.1846862 26.9943967,24.0357106 C26.6730959,24.3446537 26.3950472,24.4552553 25.9378114,24.3693691 C25.1654537,24.2266374 24.3745593,24.2087187 23.7875675,24.1524911 C21.2356976,24.2334341 19.0051285,24.7889138 16.9043154,25.8584748 C15.2174862,26.7167187 13.8087057,27.9339545 12.4802504,29.2630276 C8.64317724,33.093922 4.7999252,36.9180195 0.969030894,40.7489138 C-0.0010504065,41.7134341 -0.235847154,42.6402634 0.233746341,43.597987 C0.703339837,44.5674504 1.66106341,45.0061496 2.99569756,44.802865 C6.93781138,44.1911577 10.8799252,43.5850114 14.8158602,42.9362309 C18.4552098,42.3313203 21.6311447,43.2266374 24.2942341,45.7723285 C26.2405756,47.625987 28.1251285,49.5352553 30.0096813,51.4451415 C32.3143967,53.7863122 33.3462667,56.6347675 32.9446407,59.8731089 C32.481226,63.5248163 31.8139089,67.157987 31.2330959,70.7967187 C31.1218764,71.4949301 30.9921203,72.1931415 30.8994374,72.8919707 C30.7511447,73.9485561 31.2392748,74.9062797 32.122852,75.3696943 C33.0064293,75.8269301 34.0568358,75.5983122 34.940413,74.7209138 C39.0493561,70.6305073 43.1830146,66.5586374 47.2548846,62.4249789 C50.7582992,58.8721333 52.1670797,54.5772065 51.4688683,49.6223772 C51.4194374,49.2640033 51.5306569,49.053922 51.7469171,48.8253041 C52.5501691,47.984361 53.3596,47.1378569 54.1381366,46.2734341 C59.0935837,40.7680683 63.3075675,34.7374992 66.8418764,28.2311577 C70.7592748,21.0266049 73.7189496,13.4451415 75.6343967,5.47440976 C76.3511447,2.50175935 73.4965106,-0.36523252 70.5430146,0.345954472" id="Fill-1" fill="#4A4A4A" mask="url(#mask-2)"></path>
                    </g>
                    <path d="M26.1463991,61.0674031 C23.3951896,63.8245008 20.6377556,66.5634268 17.8865461,69.3073657 C15.9140161,71.2818236 13.9464655,73.2550284 11.9795375,75.2294863 C11.5064788,75.7050857 10.9774001,76.0127528 10.2927099,75.9995939 C9.42751058,75.9626237 8.68680033,75.643051 8.29465961,74.8347201 C7.89629443,74.0132303 7.85894769,73.161663 8.450271,72.3783966 C8.6058824,72.1772538 8.77394271,71.9830037 8.95445193,71.8012859 C13.6041205,67.1518165 18.2724624,62.5211455 22.8972331,57.8466116 C24.0674308,56.6629394 25.6235448,56.8001677 26.4576219,57.7651519 C27.27925,58.7176038 27.1609854,60.0591825 26.1463991,61.0674031" id="Fill-4" fill="#4A4A4A"></path>
                    <path d="M18,50.2469699 C18,50.7600802 17.8613562,51.2297781 17.4936487,51.5975775 C14.5459606,54.5460023 11.5982724,57.506486 8.62647237,60.4368222 C7.83077742,61.2266865 6.49859118,61.160965 5.66672828,60.3946157 C4.8891173,59.6831349 4.77458545,58.3807633 5.41355261,57.506486 C5.54616843,57.3316305 5.69686824,57.1634075 5.85359603,57.0060376 C8.56619245,54.3048223 11.2908449,51.616269 13.9853573,48.8963622 C15.0221719,47.8478324 15.877544,47.8412 16.8486535,48.2572354 C17.5961245,48.5713722 17.993972,49.3365156 18,50.2469699" id="Fill-6" fill="#4A4A4A"></path>
                    <path d="M43.0238649,35.6160181 C40.9612846,35.6219904 39.3696403,34.0512907 39.3577179,31.9908672 C39.3457954,30.0200274 40.9851295,28.4015498 42.9880976,28.3955776 C45.0327943,28.3890081 46.6423222,29.9483605 46.6602059,31.9550338 C46.6780895,33.9855961 45.0626003,35.6160181 43.0238649,35.6160181 M42.9821364,24.0000075 C38.5827599,24.0000075 35.0179535,27.6072416 35.0000699,32.0201312 C34.9821863,36.2908815 38.3979623,39.9578381 43.0298261,39.9996437 C47.4470862,40.0414494 51.0118926,36.3983818 50.9999702,31.9789228 C50.9880478,27.5654359 47.4053577,23.9940352 42.9821364,24.0000075" id="Fill-8" fill="#4A4A4A"></path>
                </g>
            </g>
        </g>
    </g>
</svg>