<svg width="156px" height="156px" viewBox="0 0 156 156" version="1.1" xmlns="http://www.w3.org/2000/svg" xmlns:xlink="http://www.w3.org/1999/xlink">
    <defs>
        <polygon id="path-1" points="0.159571116 0.0278018237 34.7523124 0.0278018237 34.7523124 53.8187643 0.159571116 53.8187643"></polygon>
    </defs>
    <g id="OpenVINO-8/31" stroke="none" stroke-width="1" fill="none" fill-rule="evenodd">
        <g id="Landing-Page-floating-card-circle-icons" transform="translate(-616.000000, -872.000000)">
            <g id="Group-2-Copy" transform="translate(616.000000, 872.000000)" fill="#F9F9F9">
                <circle id="Oval-2-Copy" cx="78" cy="78" r="78"></circle>
            </g>
            <g id="Group-20-Copy-3" transform="translate(653.000000, 916.000000)">
                <path d="M32.8177141,58.1747885 C33.296629,58.1747885 33.6428658,58.2964594 33.9697134,58.6404083 C34.8729761,59.5882773 35.8033838,60.5136968 36.8171653,61.5394463 L36.0280223,61.5394463 C25.4137852,61.5394463 14.7992712,61.5339032 4.18503412,61.5530269 C3.61194288,61.5530269 3.42082014,61.4673861 3.42082014,60.8243872 C3.44297929,43.0920309 3.43993241,25.3596745 3.42635993,7.62731818 C3.42635993,7.08132346 3.50363999,6.84574199 4.11883364,6.89840138 C4.84980889,6.9593754 5.59518759,6.93720303 6.33197962,6.90394447 C6.74164707,6.88454364 6.86379943,7.03420717 6.81366433,7.41113753 C6.79455206,7.54971487 6.81089444,7.68829221 6.81089444,7.82686955 L6.81089444,55.6914826 C6.81089444,55.8771762 6.80563164,56.0600983 6.81089444,56.2457919 C6.84413318,57.5068457 7.39561924,58.086099 8.6584143,58.1831031 C8.84122736,58.1969609 9.02681032,58.1858747 9.21239327,58.1858747 C17.0816645,58.1858747 24.9484429,58.1914178 32.8177141,58.1747885 M81.9861176,5.27150341 C81.9861176,4.04647973 81.3930831,3.469998 80.1466304,3.46445491 C78.9223369,3.45614027 77.7008133,3.46168336 76.4765197,3.46168336 C75.1829788,3.46168336 75.1829788,3.46168336 75.177716,2.19231493 C75.1718993,0.606990169 74.5929912,0.013879157 73.0171981,0.013879157 C64.7324426,0.0083360634 56.4449172,0.013879157 48.1601617,0.00556451661 C47.4729508,0.00556451661 46.9247886,0.221745166 46.4372871,0.717852041 C44.7891997,2.40018094 43.0992868,4.04093664 41.462556,5.73435172 C41.0636911,6.1473122 40.8642587,6.07525198 40.5097121,5.71217935 C38.9114828,4.07696675 37.274475,2.4805558 35.6787385,0.845343193 C35.1084172,0.263318368 34.4796511,-0.00275012375 33.6567153,2.14230368e-05 C25.4384373,0.0194222505 17.2229292,0.0111076102 9.00742105,0.0111076102 C8.77474989,0.0111076102 8.54207872,0.00556451661 8.31494734,0.0415946248 C7.43993756,0.185715058 6.96323866,0.651334918 6.84994996,1.5326868 C6.79150518,1.98722047 6.78070259,2.45838342 6.82197402,2.91568864 C6.86075255,3.38962314 6.67516959,3.47831264 6.24334299,3.469998 C4.88055472,3.44505408 3.52025936,3.46168336 2.15774809,3.46168336 C0.537082611,3.46168336 0,3.99382034 0,5.60408903 L0,62.8309871 C0,64.5188591 0.476144924,64.990022 2.18544703,64.990022 L50.5145723,64.990022 C50.628138,64.990022 50.7469665,64.9761643 50.8608092,64.9927936 C51.1624507,65.0315952 51.2566272,64.9151903 51.2483175,64.6075486 C51.2292052,63.8703171 51.1984594,63.1275426 51.2566272,62.3930827 C51.3095321,61.7279115 51.154141,61.4895584 50.4203959,61.5172739 C48.7030611,61.5865626 46.9829564,61.5394463 45.124357,61.5394463 C45.7448134,60.9158482 46.3126418,60.4444081 46.7613648,59.8737467 C47.7889958,58.5711197 49.0271388,57.847746 50.733394,58.1858747 C50.7555532,58.1886462 50.7804822,58.1831031 50.8026414,58.1858747 C51.1901497,58.2523918 51.2566272,58.0528404 51.2483175,57.7147117 C51.2292052,56.8610753 51.2264353,56.0046673 51.2513644,55.1510309 C51.259397,54.8156738 51.154141,54.7214412 50.8248005,54.7269843 C49.9245847,54.7491566 49.0243689,54.7574713 48.1241531,54.7269843 C47.4566084,54.7045347 46.9383611,54.9265356 46.467479,55.4060132 C44.7864298,57.118552 43.069095,58.7983865 41.3902617,60.5167455 C41.0636911,60.8521027 40.8974974,60.8188441 40.5900391,60.5056593 C38.9416747,58.8233304 37.2603485,57.1742601 35.6094912,55.4947027 C35.0945677,54.9706032 34.5320021,54.7214412 33.7760978,54.7242127 C26.1367278,54.7436136 18.4973578,54.7325274 10.8579878,54.7463851 C10.4064949,54.7463851 10.2347615,54.6823624 10.2347615,54.1643603 C10.2511038,37.4463901 10.2511038,20.7256483 10.2372544,4.00490653 C10.2372544,3.53374358 10.3843358,3.45059717 10.8161624,3.45336872 C18.200702,3.46445491 25.5855187,3.46445491 32.9728283,3.45336872 C33.3243279,3.45336872 33.5683557,3.5531444 33.8148763,3.79981207 C35.4518841,5.45996859 37.0916619,7.11735357 38.7560917,8.74979463 C39.1469239,9.13226809 39.3128406,9.51197 39.3100707,10.0690509 C39.2964982,24.7333049 39.301761,39.397559 39.2879115,54.061813 C39.2879115,54.5773207 39.3768251,54.7990445 39.9471465,54.7491566 C40.5900391,54.6909542 41.2437343,54.6854111 41.883303,54.7491566 C42.5483547,54.8156738 42.7090086,54.6130737 42.7059618,53.939865 C42.6838026,39.2756109 42.6921123,24.6113569 42.6810327,9.94710284 C42.6810327,9.50088381 42.7948754,9.17661283 43.121446,8.85788495 C44.8030491,7.20881462 46.4649861,5.54034345 48.1155664,3.86355764 C48.3925559,3.57808832 48.6642826,3.45059717 49.0686872,3.45336872 C56.4089086,3.46445491 63.7491299,3.46722645 71.0863044,3.44782563 C71.6402833,3.44505408 71.7566189,3.6002607 71.753849,4.12685459 C71.7264271,7.12843976 71.753849,10.1327965 71.7264271,13.1343816 C71.7236572,13.6332601 71.8621519,13.7552081 72.3385738,13.7274927 C73.097525,13.6859195 73.862016,13.6859195 74.6237371,13.7274927 C75.0888024,13.7524366 75.1940584,13.5916869 75.1887956,13.1482394 C75.1638666,11.2552729 75.1940584,9.35953492 75.1666365,7.46656847 C75.1608197,7.00926325 75.2912817,6.87900055 75.7400047,6.90117292 C76.4543606,6.93997458 77.1720403,6.94828922 77.8866732,6.90117292 C78.4265257,6.86237127 78.5680673,7.02589253 78.5650204,7.57188724 C78.5375985,11.1277818 78.5597576,14.6836763 78.5400914,18.2423424 C78.5348286,18.7190484 78.6453474,18.8853412 79.1411586,18.8548542 C79.9001098,18.8105095 80.6646007,18.8188241 81.4263218,18.8520827 C81.8639652,18.874255 82.00246,18.7633932 81.999967,18.2950018 C81.9803008,13.9547595 81.9913804,9.61174568 81.9861176,5.27150341" id="Fill-1" fill="#4A4A4A"></path>
                <g id="Group-5" transform="translate(47.000000, 15.000000)">
                    <mask id="mask-2" fill="white">
                        <use xlink:href="#path-1"></use>
                    </mask>
                    <g id="Clip-4"></g>
                    <path d="M23.942744,31.6141232 C23.164624,32.9932291 22.674624,34.4508206 22.660344,36.0485652 C22.652224,37.1445619 22.626744,38.2433616 22.657544,39.3393583 C22.668744,39.7794389 22.534624,39.8887582 22.108744,39.8831521 C20.546344,39.8579246 18.983944,39.8719399 17.421544,39.8719399 C16.673944,39.8719399 15.929144,39.8887582 15.181544,39.8691368 C14.232344,39.8439093 13.280344,39.9588347 12.336744,39.8018634 C12.322744,38.8712472 12.300344,37.9434341 12.297544,37.012818 C12.297544,36.2167488 12.244624,35.4290888 12.098744,34.6470348 C11.723544,32.6148159 10.698744,30.9189642 9.349144,29.4025084 C8.139824,28.045827 6.851544,26.7676314 5.846344,25.2312738 C1.019144,17.8426863 4.169144,6.65567128 14.053424,4.02079427 C21.895944,1.92971104 30.002224,7.3732548 31.099824,15.3675837 C31.782744,20.3402133 30.290344,24.5532135 26.784744,28.090676 C25.715144,29.1670513 24.693424,30.2798664 23.942744,31.6141232 M22.654744,43.9055441 C22.621144,44.6960072 22.626744,45.4920765 22.652224,46.2853426 C22.665944,46.6525436 22.548624,46.7618629 22.181544,46.7618629 C19.034624,46.7478476 15.887144,46.7478476 12.739944,46.7618629 C12.353544,46.764666 12.277944,46.627316 12.289144,46.2797365 C12.311544,45.5116979 12.325544,44.7380531 12.283544,43.9700145 C12.258624,43.4906912 12.381544,43.3365228 12.885544,43.3477351 C14.422744,43.3841749 15.962744,43.3617504 17.499944,43.3617504 C19.039944,43.3617504 20.577144,43.3785687 22.114624,43.3505381 C22.553944,43.344932 22.674624,43.4794789 22.654744,43.9055441 M29.612744,30.122895 C33.712224,25.8619625 35.408744,20.7578694 34.523944,14.9527308 C33.563544,8.64864739 30.057944,4.06284018 24.189144,1.54849479 C18.143944,-1.0443363 12.297544,-0.304328294 7.058744,3.63677497 C0.568624,8.5197066 -1.237656,16.4719896 1.198624,23.6758555 C2.041144,26.1677764 3.550344,28.2504505 5.328624,30.1565317 C5.947144,30.8208571 6.560344,31.4935916 7.162344,32.1747354 C8.794744,34.0163462 8.921024,36.2475825 8.828624,38.5488952 C8.777944,39.8158787 8.819944,39.8355001 7.551544,39.8607276 C7.165144,39.8663337 7.083944,39.9952745 7.097944,40.3428541 C7.123424,40.9034662 7.106344,41.4640783 7.106344,42.0246904 C7.106344,43.3084922 7.106344,43.3309167 8.380344,43.3477351 C8.777944,43.3561442 8.831144,43.5019034 8.825544,43.8382707 C8.808744,44.7464623 8.817144,45.657457 8.819944,46.5684517 C8.825544,48.6931717 10.348744,50.2292489 12.462744,50.2432642 C13.045144,50.2460673 13.627544,50.2432642 14.212744,50.2432642 C15.705144,50.2432642 15.693944,50.2432642 15.707944,51.7681292 C15.713544,52.3932118 15.442224,53.2089024 15.814624,53.5929217 C16.223424,54.0133808 17.052224,53.7162564 17.693424,53.7246656 C19.179944,53.74709 19.177144,53.7330747 19.182744,52.267074 C19.182744,51.616764 18.955944,50.742209 19.283544,50.3778112 C19.664624,49.9517459 20.554744,50.2993255 21.109144,50.2432642 L22.478624,50.2432642 C24.485944,50.2404612 26.020344,48.754839 26.067944,46.7562568 C26.084744,46.0554916 26.073544,45.3547265 26.073544,44.6539613 C26.073544,43.4065993 26.073544,43.389781 27.325144,43.3729626 C27.714624,43.3673565 27.862744,43.2636432 27.843424,42.8571995 C27.812344,42.2769659 27.834744,41.6911262 27.834744,41.1080896 C27.834744,39.8999705 27.834744,39.877546 26.605544,39.8831521 C26.171544,39.8859552 26.045544,39.7682266 26.062344,39.3365553 C26.095944,38.4255606 26.067944,37.5145659 26.073544,36.6035712 C26.084744,35.0871154 26.566344,33.7332371 27.456744,32.5111026 C28.092344,31.6393508 28.871024,30.8965397 29.612744,30.122895" id="Fill-3" fill="#4A4A4A" mask="url(#mask-2)"></path>
                </g>
                <path d="M31.018845,26.6535542 C26.3348101,26.636991 21.6480297,26.636991 16.9639949,26.6535542 C16.480765,26.6563147 16.3489751,26.5238095 16.3517207,26.0407177 C16.3736857,23.0289855 16.3764313,20.0200138 16.3489751,17.0082816 C16.3462294,16.4865424 16.5411688,16.4230504 16.9832143,16.4285714 C19.3142492,16.4478951 21.6452841,16.436853 23.976319,16.436853 C26.3293189,16.436853 28.6850644,16.4478951 31.0380643,16.4258109 C31.4883467,16.4202899 31.6064085,16.5417529 31.6009173,16.9917184 C31.5816979,20.0255349 31.5816979,23.0593513 31.6036629,26.0931677 C31.6064085,26.5652174 31.449908,26.6535542 31.018845,26.6535542 M33.0286419,13 L14.9816542,13 C13.5594209,13 13.0048048,13.5548654 13.0020592,15.0041408 C12.9993136,19.3271222 12.9993136,23.6501035 13.0020592,27.9730849 C13.0048048,29.5134576 13.4797978,29.9937888 15.0008736,29.9965493 C17.9743846,30.0020704 20.9478955,29.9993099 23.9214065,29.9993099 C26.9635581,29.9993099 30.0057097,30.0020704 33.0451156,29.9965493 C34.437147,29.9937888 35,29.4251208 35,28.0365769 L35,14.9986197 C35,13.5355418 34.4728402,13 33.0286419,13" id="Fill-6" fill="#4A4A4A"></path>
                <path d="M34.3674702,38.9998245 C30.9179495,38.9679537 27.4656868,38.9838891 24.0161661,38.9838891 C20.5666454,38.9838891 17.1171247,38.9679537 13.664862,38.9998245 C13.1054802,39.0061986 12.973861,38.8054129 13.0040237,38.1998687 C13.0451548,37.355294 13.0451548,36.5011579 13.0040237,35.6533961 C12.9793451,35.1211546 13.1301588,35.0032329 13.5688896,35.0032329 C17.5010141,35.0255424 21.4303966,35.0159811 25.3597791,35.0159811 C28.3760531,35.0159811 31.3923272,35.0319165 34.4086012,35.0000458 C34.9021733,34.9968587 35.0228243,35.1593995 34.9954036,35.7043893 C34.9542726,36.5521511 34.9515306,37.4062872 34.9954036,38.254049 C35.0283084,38.8404708 34.8912051,39.0061986 34.3674702,38.9998245" id="Fill-8" fill="#4A4A4A"></path>
                <path d="M34.9977795,44.4089479 C35.0224585,44.9424381 34.8414787,44.9967455 34.4520979,44.9967455 C30.9558966,44.9807727 27.4596953,44.9871618 23.963494,44.9871618 C20.5139088,44.9871618 17.0643235,44.9772587 13.6147382,44.99994 C13.1513202,45.0028151 12.9730825,44.9041035 13.0032458,44.3163059 C13.0498618,43.4154421 13.030667,42.5081893 13.00873,41.604131 C13.0005037,41.1792556 13.0717987,40.9968466 13.4886008,41.0000412 C20.5029403,41.0128194 27.5172798,41.0128194 34.5343614,41.0000412 C34.8908368,41.0000412 35.0060058,41.1150451 34.9950374,41.5338509 C34.9703583,42.4922165 34.9566477,43.4505822 34.9977795,44.4089479" id="Fill-10" fill="#4A4A4A"></path>
                <path d="M34.995866,48.7511813 C34.9440604,49.6458309 34.9659887,50.5470107 34.9903839,51.4416603 C35.0016221,51.8599253 34.908427,52.0068568 34.5381132,51.9937962 C33.6034205,51.9608183 32.6659867,51.9836743 31.731294,51.9836743 C25.7259617,51.9836743 19.7203554,51.9738788 13.7144749,52 C13.152837,52 12.9582236,51.8599253 13.0072881,51.1644495 C13.0648498,50.3543672 13.0511446,49.5318773 13.0100291,48.7185298 C12.9801518,48.1471296 13.1224115,47.9969329 13.6048336,48.0001981 C17.0530548,48.0263192 20.5012761,48.0132586 23.9494974,48.0132586 C27.4196469,48.0132586 30.8900705,48.0295844 34.3602201,48.0001981 C34.8697784,47.9939943 35.0287584,48.1311304 34.995866,48.7511813" id="Fill-12" fill="#4A4A4A"></path>
                <path d="M27.9971509,7.71631791 C27.9567032,8.61246222 27.9755788,9.51514774 27.9914882,10.4112921 C27.9998474,10.8004934 27.9540067,11 27.5654392,11 C22.8495081,10.983647 18.1360038,10.9869176 13.4195334,10.9967294 C13.0962215,10.9967294 12.9964506,10.8822584 13.0042705,10.4897864 C13.0258426,9.53804194 13.0368983,8.58302683 13.0018436,7.63128232 C12.9826984,7.12433936 13.1097041,6.99678598 13.5220009,7.00332718 C15.8571809,7.02622137 18.1926306,7.01313897 20.5278106,7.01313897 C22.8171499,7.01313897 25.1091857,7.02949197 27.3985251,7.00005658 C27.8623252,6.99678598 28.024116,7.13415116 27.9971509,7.71631791" id="Fill-14" fill="#4A4A4A"></path>
                <path d="M66.999816,34.4325975 C67.006541,34.9104157 66.8300897,35.0186508 66.2860051,34.9975317 C65.3826133,34.9576696 64.4731369,34.9764127 63.5668629,34.991988 C63.1857795,34.9975317 62.996839,34.9444702 63.0000414,34.5672313 C63.0128509,30.5226715 63.0128509,26.4757358 63.0000414,22.431704 C62.996839,22.056841 63.1793748,21.9984997 63.5639808,22.0037795 C64.5246953,22.0198827 65.4854097,22.0328181 66.4461242,22.0014036 C66.9357683,21.9826604 66.9934112,22.1518767 66.9934112,22.4947971 C66.9741969,24.495826 66.983804,26.4968548 66.983804,28.4981477 C66.983804,30.4754177 66.96491,32.4553275 66.999816,34.4325975" id="Fill-16" fill="#4A4A4A"></path>
                <path d="M66.766419,43.8229803 C66.3923645,44.1454888 65.527953,43.9287259 64.8804302,43.9287259 C63.0133012,43.9346178 63.0133012,43.9318269 63.0133012,42.1112044 C63.0133012,41.5995322 63.0384477,41.081658 63.0035569,40.5702959 C62.9724381,40.145453 63.1450061,40.0431186 63.5410637,40.0648259 C64.0348785,40.0927353 64.5315222,40.0707179 65.1378676,40.0707179 C65.637969,40.1299478 66.4552308,39.8009271 66.8132544,40.2040627 C67.1121836,40.5420765 66.926728,41.3266404 66.9078682,41.9130477 C66.885865,42.5701588 67.2061687,43.444653 66.766419,43.8229803" id="Fill-18" fill="#4A4A4A"></path>
            </g>
        </g>
    </g>
</svg>