<svg width="63px" height="57px" viewBox="0 0 63 57" version="1.1" xmlns="http://www.w3.org/2000/svg" xmlns:xlink="http://www.w3.org/1999/xlink">
    <defs>
        <polygon id="path-1" points="0 0.813313433 62.317325 0.813313433 62.317325 57 0 57"></polygon>
    </defs>
    <g id="openvino-image-screen" stroke="none" stroke-width="1" fill="none" fill-rule="evenodd">
        <g id="floating-card-circle-icons" transform="translate(-248.000000, -341.000000)">
            <g id="Group-6" transform="translate(248.000000, 341.000000)">
                <g id="Group-3">
                    <mask id="mask-2" fill="white">
                        <use xlink:href="#path-1"></use>
                    </mask>
                    <g id="Clip-2"></g>
                    <path d="M58.5570125,37.2797015 C58.5570125,38.2665672 58.3207625,38.4877612 57.2882625,38.4877612 L5.0332625,38.4877612 C3.9395125,38.4877612 3.7732625,38.3176119 3.7732625,37.2371642 L3.7732625,5.67447761 C3.7732625,4.64507463 3.9307625,4.48343284 4.9632625,4.48343284 L57.2182625,4.48343284 C58.4345125,4.48343284 58.5570125,4.60253731 58.5570125,5.77656716 L58.5570125,37.2797015 Z M31.1345125,45.7871642 C29.9270125,45.7616418 28.9820125,44.8002985 28.9907625,43.6092537 C28.9995125,42.4692537 29.9532625,41.5164179 31.0820125,41.5164179 C32.3420125,41.5079104 33.3307625,42.4522388 33.3307625,43.651791 C33.3307625,44.808806 32.2982625,45.8126866 31.1345125,45.7871642 Z M57.4720125,0.816716418 C48.7045125,0.808208955 39.9370125,0.816716418 31.1607625,0.816716418 C22.3932625,0.816716418 13.6170125,0.808208955 4.8495125,0.816716418 C1.8832625,0.816716418 0.0107625,2.57776119 0.0107625,5.45328358 C-0.0067375,18.2825373 0.0020125,31.111791 0.0020125,43.9410448 C0.0020125,44.6471642 0.1245125,45.3277612 0.4832625,45.948806 C1.3407625,47.420597 2.6882625,47.9735821 4.3595125,47.9735821 C10.7995125,47.9735821 17.2395125,47.9735821 23.6795125,47.9650746 C24.1170125,47.9650746 24.2482625,48.0161194 24.1520125,48.5095522 C23.7845125,50.3726866 22.6995125,51.6828358 21.0107625,52.5591045 C19.9082625,53.1291045 18.7095125,53.3843284 17.5020125,53.6055224 C16.5395125,53.7756716 16.0057625,54.5498507 16.0932625,55.4686567 C16.1895125,56.4044776 16.9595125,57 18.1320125,57 L33.7420125,57 C37.2857625,57 40.8382625,57 44.3820125,56.9914925 C45.3795125,56.9914925 46.1232625,56.3959701 46.2282625,55.5367164 C46.3507625,54.5753731 45.7907625,53.818209 44.7845125,53.58 C43.9970125,53.3928358 43.1832625,53.2652239 42.4220125,53.01 C40.3045125,52.2953731 38.7820125,50.9937313 38.2657625,48.781791 C38.0820125,48.0076119 38.1170125,47.9735821 38.9307625,47.9735821 C45.3095125,47.9735821 51.6882625,47.9820896 58.0670125,47.9735821 C60.5870125,47.9650746 62.3107625,46.3061194 62.3107625,43.8644776 C62.3195125,31.0777612 62.3195125,18.2825373 62.3107625,5.4958209 C62.3107625,2.68835821 60.3507625,0.816716418 57.4720125,0.816716418 Z" id="Fill-1" fill="#FEFEFE" mask="url(#mask-2)"></path>
                </g>
                <path d="M38.732549,28.7698629 C37.9077359,26.0609918 36.5739955,23.7838471 33.6783751,22.5902507 C35.4157473,21.4220501 36.1791382,19.8221231 35.9071254,17.8243307 C35.7404078,16.6138039 35.0998615,15.6233729 34.1083308,14.8615029 C32.0199742,13.2615759 29.141903,13.5493935 27.3431085,15.4963946 C25.9128474,17.037065 25.342498,20.4231539 28.448709,22.6071812 C25.5355393,23.7330557 24.2368974,26.069457 23.4033097,28.7613977 C19.6477777,25.2567957 18.9896821,18.7809008 23.0260016,14.4890332 C27.3255592,9.9178132 34.5207374,9.75697398 38.8904919,14.0996329 C43.4181894,18.6031311 42.6197001,24.8843259 38.732549,28.7698629 M44.9274218,20.0591493 C44.2166786,13.3208325 37.9340597,7.69145978 30.5897132,8.01313822 C22.2889346,8.20783833 16.24323,15.4286728 17.0768177,22.9627205 C17.8226593,29.6248503 24.1316021,35.711345 32.4850284,34.9325446 C39.8293749,34.2468616 45.7259111,27.7032449 44.9274218,20.0591493" id="Fill-4" fill="#FEFEFE"></path>
            </g>
        </g>
    </g>
</svg>