<svg width="69px" height="69px" viewBox="0 0 69 69" version="1.1" xmlns="http://www.w3.org/2000/svg" xmlns:xlink="http://www.w3.org/1999/xlink">
    <g id="openvino-teaser-spoke-diagram" stroke="none" stroke-width="1" fill="none" fill-rule="evenodd">
        <g id="Landing-Page-floating-card-circle-icons" transform="translate(-698.000000, -341.000000)" fill="#FEFEFE">
            <path d="M763.86529,375.50656 C763.86529,376.181894 763.873831,376.865777 763.856748,377.541111 C763.839665,378.378868 763.39551,378.857586 762.575531,378.874683 C761.191817,378.900328 759.816644,378.908877 758.441472,378.874683 C757.459206,378.849037 757.006509,378.33698 756.997968,377.327398 C756.989426,376.079312 756.989426,374.831225 756.997968,373.583139 C757.006509,372.574412 757.459206,372.0615 758.441472,372.035854 C759.765396,372.00166 761.08932,372.010209 762.413244,372.035854 C763.429676,372.0615 763.856748,372.540218 763.86529,373.557494 L763.86529,375.50656 Z M748.422356,394.202207 C749.336291,393.244771 750.27585,392.31298 751.22395,391.389738 C751.949973,390.688759 752.607665,390.698162 753.325146,391.40769 C754.247622,392.31298 755.161557,393.244771 756.084033,394.159464 C756.365901,394.441566 756.59652,394.740764 756.553812,395.17674 C756.613602,395.638361 756.365901,395.96406 756.06695,396.262404 C755.144474,397.185645 754.230539,398.108887 753.299522,399.015032 C752.58204,399.708318 751.915808,399.698915 751.206868,398.997935 C750.284391,398.09179 749.361915,397.168548 748.447981,396.245307 C747.773207,395.552875 747.756124,394.895493 748.422356,394.202207 Z M735.960388,375.772419 C735.960388,376.447753 735.968929,377.123088 735.960388,377.798422 C735.943305,378.695163 735.482067,379.216624 734.585215,379.24227 C733.235667,379.285012 731.886118,379.285012 730.53657,379.24227 C729.614094,379.216624 729.110149,378.686615 729.101607,377.754825 C729.075983,376.455447 729.075983,375.15607 729.093066,373.856692 C729.110149,372.890708 729.562845,372.377796 730.502404,372.35215 C731.877577,372.317956 733.25275,372.317956 734.627922,372.360699 C735.507691,372.386344 735.926222,372.873611 735.960388,373.745561 L735.960388,375.772419 Z M734.516883,399.922032 C735.490608,399.938274 735.943305,400.459735 735.960388,401.452219 C735.968929,402.075408 735.960388,402.700306 735.960388,403.323494 C735.960388,404.050974 735.977471,404.776745 735.951846,405.50337 C735.926222,406.26419 735.524774,406.76086 734.764585,406.777102 C733.295457,406.829248 731.809245,406.836942 730.331575,406.785651 C729.554304,406.76086 729.11869,406.255642 729.101607,405.452079 C729.075983,404.075765 729.067441,402.700306 729.101607,401.323137 C729.11869,400.452041 729.64826,399.938274 730.545111,399.922032 C731.869035,399.887838 733.192959,399.887838 734.516883,399.922032 Z M730.528028,350.98936 C729.631177,350.963715 729.11869,350.442254 729.101607,349.570303 C729.075983,348.219635 729.075983,346.868966 729.101607,345.518298 C729.11869,344.595056 729.597011,344.150532 730.502404,344.141983 C731.826328,344.133435 733.150252,344.133435 734.465635,344.141983 C735.524774,344.150532 735.951846,344.595056 735.960388,345.672171 C735.968929,346.296214 735.960388,346.920257 735.960388,347.5443 C735.960388,348.185441 735.968929,348.835129 735.960388,349.484818 C735.943305,350.442254 735.490608,350.963715 734.568132,350.98936 C733.218584,351.023554 731.869035,351.023554 730.528028,350.98936 Z M716.554224,396.33934 C715.657372,397.236937 714.76052,398.143081 713.838044,399.023581 C713.120563,399.716012 712.45433,399.698915 711.74539,398.997935 C710.839997,398.101194 709.934604,397.202743 709.037752,396.296598 C708.303188,395.552875 708.294646,394.877541 709.020669,394.133818 C709.908979,393.219125 710.814373,392.321529 711.728307,391.432481 C712.488496,390.688759 713.120563,390.68021 713.880752,391.415384 C714.794686,392.304432 715.691538,393.210577 716.596931,394.099624 C716.921506,394.424469 717.152125,394.783507 717.100876,395.270774 C717.126501,395.723846 716.853174,396.040997 716.554224,396.33934 Z M708.055486,377.566757 C708.02132,378.42161 707.585706,378.866989 706.748645,378.874683 C705.399096,378.900328 704.049548,378.900328 702.7,378.874683 C701.70065,378.857586 701.213788,378.371174 701.196705,377.378689 C701.171081,376.104957 701.179622,374.831225 701.196705,373.557494 C701.213788,372.523121 701.692109,372.052951 702.751248,372.035854 C704.023924,372.010209 705.296599,372.010209 706.569274,372.035854 C707.628414,372.052951 708.046944,372.514572 708.064027,373.583139 C708.072569,374.207182 708.064027,374.831225 708.064027,375.455269 C708.064027,376.156248 708.08111,376.865777 708.055486,377.566757 Z M716.836092,356.486068 C715.794035,357.614475 714.683647,358.665945 713.598884,359.74306 C713.385348,359.948225 713.086397,359.982419 712.813071,360.050808 C712.479954,359.965322 712.15538,359.92258 711.899136,359.657575 C710.91687,358.657396 709.908979,357.682863 708.926713,356.682685 C708.320271,356.058642 708.320271,355.391856 708.935255,354.759264 C709.866272,353.776183 710.814373,352.818747 711.788097,351.878408 C712.479954,351.203074 713.146187,351.211622 713.829503,351.869859 C714.811769,352.835844 715.768411,353.818925 716.725053,354.810556 C717.228998,355.332016 717.305871,355.973156 716.836092,356.486068 Z M748.456522,354.682328 C749.361915,353.750537 750.27585,352.835844 751.198326,351.921151 C751.949973,351.185977 752.590582,351.194525 753.35077,351.946796 C754.273246,352.852941 755.170098,353.784731 756.092574,354.707973 C756.374442,354.990075 756.605061,355.297822 756.545271,355.699603 C756.59652,356.161224 756.365901,356.468971 756.084033,356.751073 C755.153015,357.691412 754.221998,358.631751 753.273897,359.546444 C752.573499,360.21323 751.907266,360.196133 751.232492,359.529347 C750.310016,358.623202 749.38754,357.708509 748.473605,356.776719 C747.764665,356.058642 747.756124,355.408953 748.456522,354.682328 Z M766.974376,373.070227 C766.94021,371.292132 765.590662,369.573876 763.86529,369.137901 C761.994713,368.659183 760.089971,368.915639 758.202311,368.924187 C755.665502,368.932736 753.812008,371.086967 753.888881,373.395071 C753.905964,374.019115 753.530141,373.883193 753.188483,373.883193 C748.875053,373.890887 744.561623,373.873789 740.239652,373.899435 C739.505087,373.899435 738.881562,373.925081 739.035308,372.890708 C739.060932,372.676995 738.966976,372.41199 738.847396,372.223922 C738.57407,371.787947 738.710733,371.514394 739.052391,371.172452 C742.135853,368.112077 745.210773,365.043152 748.260069,361.957131 C748.635893,361.580996 748.832346,361.546801 749.233794,361.931486 C750.98479,363.589901 753.589931,363.589901 755.332386,361.940034 C756.391525,360.939855 757.42504,359.914031 758.43293,358.862561 C760.055805,357.144306 760.192468,354.571197 758.646466,352.844392 C757.493371,351.553564 756.237779,350.322574 754.922396,349.185619 C753.376395,347.852048 750.788337,347.980276 749.353374,349.365139 C748.26861,350.416608 747.209471,351.485175 746.158873,352.562291 C744.390794,354.391677 744.348087,356.930592 746.082,358.785625 C746.457824,359.187406 746.423658,359.375473 746.056376,359.734512 C743.212075,362.555529 740.350691,365.359448 737.583262,368.248853 C736.737659,369.129352 735.968929,369.582425 734.721878,369.25758 C734.209391,369.120804 734.08127,368.992576 734.08127,368.488212 C734.098353,363.931843 734.098353,359.384022 734.08127,354.827653 C734.08127,354.314741 734.175226,354.14377 734.738961,354.109576 C737.455141,353.921508 739.078015,352.151961 739.086557,349.424978 C739.095098,347.963179 739.120722,346.509928 739.069474,345.048128 C738.984059,342.902446 737.113483,341.055962 734.978121,341.021768 C733.397954,340.987574 731.809245,340.996122 730.229078,341.030317 C728.144965,341.081608 726.487925,342.492116 726.095018,344.56941 C725.796068,346.133792 725.98398,347.732368 725.975438,349.313847 C725.949814,352.057927 727.623937,353.904411 730.331575,354.101027 C730.920935,354.14377 730.972184,354.340386 730.972184,354.827653 C730.955101,359.093372 730.963642,363.359091 730.963642,367.62481 C730.963642,368.120625 731.100305,368.719023 730.869686,369.069513 C730.664692,369.394357 729.972835,369.146449 729.571387,369.31742 C728.888071,369.599522 728.537872,369.266129 728.110799,368.838702 C725.087128,365.795424 722.054915,362.760693 719.01416,359.734512 C718.681044,359.401119 718.604171,359.230148 718.979994,358.836916 C720.594328,357.11866 720.739532,354.613939 719.227696,352.895684 C718.083143,351.587758 716.82755,350.356769 715.512168,349.219813 C713.923459,347.843499 711.335401,347.971727 709.883355,349.382236 C708.807133,350.425157 707.730911,351.493724 706.688855,352.579388 C704.929317,354.391677 704.903692,356.973335 706.637606,358.802722 C707.688204,359.92258 708.772967,361.008244 709.900438,362.051165 C710.85708,362.931664 712.001634,363.290703 713.334099,363.12828 C714.572609,362.974407 715.495085,362.324718 716.383395,361.486962 C719.364359,364.478949 722.3197,367.488034 725.326288,370.437278 C726.060853,371.163904 726.684378,371.805044 726.077935,372.899256 C726.026687,372.984742 725.992521,373.104421 726.001062,373.198455 C726.095018,373.899435 725.667946,373.899435 725.155459,373.890887 C720.790781,373.883193 716.426102,373.873789 712.061424,373.899435 C711.386649,373.907984 711.190196,373.745561 711.15603,373.062533 C711.044992,370.839059 709.4392,369.180644 707.218424,368.96693 C705.587008,368.804508 703.955592,368.898542 702.315635,368.924187 C700.257146,368.958382 698.301155,370.565506 698.121785,372.865062 C697.985122,374.677352 697.91679,376.506738 698.173034,378.310479 C698.471984,380.396322 700.094859,381.892316 702.178971,381.994898 C703.733514,382.07269 705.296599,382.029092 706.859683,381.994898 C709.610029,381.935913 711.258528,379.695342 711.181655,377.618048 C711.164572,377.020505 711.472064,377.020505 711.899136,377.020505 C716.221108,377.028199 720.534537,377.028199 724.847967,377.028199 C725.898565,377.028199 725.890024,377.028199 725.975438,378.105314 C726.001062,378.439562 726.026687,378.789197 726.154808,379.096945 C726.308554,379.430337 726.197516,379.601308 725.966897,379.82357 C722.763855,383.020722 719.569354,386.217875 716.315063,389.457769 C716.161317,389.286799 716.024654,389.091037 715.853825,388.936309 C714.162619,387.389024 711.548937,387.320636 709.908979,388.850823 C708.73026,389.945891 707.594248,391.099088 706.500943,392.287335 C704.895151,394.048333 704.997648,396.612894 706.680313,398.331149 C707.662579,399.331328 708.644846,400.331506 709.644195,401.314588 C711.361025,403.007198 713.880752,403.178169 715.691538,401.588141 C716.938589,400.502477 718.100226,399.297134 719.184989,398.040499 C720.730991,396.25471 720.619952,393.817523 718.997077,392.117219 C718.595629,391.697486 718.672502,391.500869 719.039785,391.150379 C721.901169,388.312266 724.754011,385.465603 727.589771,382.593296 C728.093717,382.080383 728.512247,381.687151 729.280977,382.165869 C729.588469,382.353937 730.041166,382.388131 730.41699,382.36334 C730.963642,382.328291 730.972184,382.601844 730.972184,383.012174 C730.963642,387.38133 730.955101,391.757325 730.972184,396.125627 C730.972184,396.587248 730.920935,396.775316 730.365741,396.80951 C727.957053,396.954835 726.308554,398.365343 726.035228,400.699094 C725.821692,402.46864 725.821692,404.289478 726.035228,406.067574 C726.300013,408.281644 727.88018,409.70925 730.092415,409.897318 C731.740914,410.042643 733.415037,410.025546 735.072077,409.897318 C737.386809,409.718653 739.026767,407.965349 739.078015,405.631598 C739.112181,404.255284 739.095098,402.879825 739.086557,401.494107 C739.069474,398.784222 737.455141,397.014675 734.73042,396.80951 C734.158143,396.758219 734.08127,396.578699 734.08127,396.075191 C734.098353,391.808617 734.106894,387.542898 734.08127,383.277178 C734.072728,382.601844 734.192309,382.294097 734.935414,382.345388 C735.336862,382.371034 735.781017,382.252209 736.139758,382.063286 C736.600996,381.832476 736.857239,381.970107 737.190356,382.302645 C740.120072,385.260439 743.049787,388.209683 746.013669,391.133282 C746.4322,391.543612 746.457824,391.757325 746.039293,392.210398 C744.339546,394.031236 744.416419,396.587248 746.158873,398.356795 C747.149681,399.356973 748.123406,400.365701 749.131296,401.348782 C750.839585,403.024295 753.393478,403.161927 755.17864,401.562496 C756.391525,400.476832 757.54462,399.297134 758.612301,398.066999 C760.209551,396.22821 760.064346,393.758538 758.37314,392.014636 C757.476288,391.107637 756.579437,390.201492 755.682585,389.295347 C753.649721,387.252247 751.206868,387.183859 749.071506,389.141474 C748.789639,389.389381 748.661517,389.415882 748.396732,389.141474 C745.31327,386.046904 742.229809,382.960883 739.137805,379.874861 C738.907186,379.644051 738.804689,379.41324 738.924269,379.114042 C739.10364,378.669518 739.120722,378.191655 739.078015,377.730034 C739.018225,377.113684 739.274468,377.011102 739.829662,377.011102 C744.30538,377.036748 748.772556,377.028199 753.248273,377.011102 C753.752218,377.011102 753.88034,377.13933 753.888881,377.652242 C753.931589,380.012493 755.682585,381.900864 758.005858,381.994898 C759.697064,382.063286 761.38827,382.097481 763.070935,381.952155 C765.206296,381.772636 766.931668,379.968895 766.974376,377.823213 C767.008541,376.241734 767.008541,374.651706 766.974376,373.070227 Z" id="Fill-1"></path>
        </g>
    </g>
</svg>