
<svg viewBox="0 0 9 5" version="1.1" xmlns="http://www.w3.org/2000/svg" xmlns:xlink="http://www.w3.org/1999/xlink">
    <defs>
        <polygon id="path-1" points="0.000103846154 3.57142857e-05 8.41707692 3.57142857e-05 8.41707692 4.95846429 0.000103846154 4.95846429"></polygon>
    </defs>
    <g stroke="none" stroke-width="1" fill="none" fill-rule="evenodd">
        <g transform="translate(-21.000000, -397.000000)">
            <g transform="translate(21.000000, 397.000000)">
                <mask id="mask-2" fill="white">
                    <use xlink:href="#path-1"></use>
                </mask>
                <g id="Clip-2"></g>
                <path d="M8.23977692,0.18325 C8.00300769,-0.0610357143 7.61946923,-0.0610357143 7.38339231,0.18325 L4.20916154,3.45753571 L1.03423846,0.18325 C0.797469231,-0.0610357143 0.413930769,-0.0596071429 0.177161538,0.18325 C-0.0589153846,0.427535714 -0.0589153846,0.82325 0.177161538,1.06753571 L3.77231538,4.77610714 C3.8907,4.89825 4.04508462,4.95896429 4.20016154,4.95896429 C4.20362308,4.95896429 4.20639231,4.95682143 4.20916154,4.95682143 C4.21193077,4.95682143 4.2147,4.95896429 4.21677692,4.95896429 C4.37254615,4.95896429 4.52693077,4.89825 4.64531538,4.77610714 L8.23977692,1.06753571 C8.47654615,0.82325 8.47654615,0.427535714 8.23977692,0.18325 L-38.828726,165.714286" id="Fill-1" fill="white" mask="url(#mask-2)"></path>
            </g>
        </g>
    </g>
</svg>