<svg width="80px" height="46px" viewBox="0 0 80 46" version="1.1" xmlns="http://www.w3.org/2000/svg" xmlns:xlink="http://www.w3.org/1999/xlink">
    <defs>
        <polygon id="path-1" points="4.35309903e-05 0.453916994 79.8990476 0.453916994 79.8990476 46 4.35309903e-05 46"></polygon>
    </defs>
    <g id="openvino-image-eye" stroke="none" stroke-width="1" fill="none" fill-rule="evenodd">
        <g id="Landing-Page-floating-card-circle-icons" transform="translate(-470.000000, -346.000000)">
            <g id="Group-8" transform="translate(470.000000, 346.000000)">
                <g id="Group-3">
                    <mask id="mask-2" fill="white">
                        <use xlink:href="#path-1"></use>
                    </mask>
                    <g id="Clip-2"></g>
                    <path d="M72.4842857,23.6221926 C66.9319048,29.3968963 60.7414286,34.4918222 53.0271429,37.9239333 C48.6557143,39.8661556 44.0461905,40.9488593 39.1033333,40.8721926 C30.4557143,40.7180074 22.6271429,35.1221926 20.6461905,27.5568963 C20.322381,26.3131926 20.0461905,25.0609704 20.0938095,23.7755259 C20.1128571,23.3070074 19.9319048,23.1621926 19.417619,23.1868963 C18.6271429,23.2209704 17.8366667,23.2294889 17.0461905,23.1868963 C16.4842857,23.1528222 16.417619,23.3572667 16.4271429,23.7917111 C16.4938095,27.0543037 17.4366667,30.1039333 19.0938095,33.0010815 C19.217619,33.2055259 19.4461905,33.3750444 19.3795238,33.7328222 C18.3033333,33.1620815 17.4080952,32.4550444 16.4938095,31.7820815 C13.2747619,29.3892296 10.3604762,26.7306 7.6652381,23.8683778 C7.39857143,23.5881185 6.8747619,23.3657852 7.40809524,22.803563 C13.417619,16.5688593 20.122381,11.1161556 28.6842857,7.7768963 C33.1795238,6.02293333 37.8652381,5.19578519 42.7985714,5.69922963 C48.3985714,6.26997037 52.6938095,8.79145185 56.017619,12.7270074 C58.4366667,15.5968963 59.6747619,18.8850444 59.77,22.4977481 C59.7890476,23.0599704 59.9890476,23.2550444 60.617619,23.2047852 C61.3128571,23.1621926 62.0271429,23.1528222 62.722381,23.2047852 C63.3985714,23.263563 63.4842857,23.0258963 63.4652381,22.4798593 C63.3414286,19.0043037 62.2747619,15.7851556 60.3795238,12.7696 C60.6938095,12.6333037 60.8461905,12.8624519 61.0271429,12.982563 C65.217619,15.8192296 68.9414286,19.0980074 72.3414286,22.676637 C72.6080952,22.9577481 72.9128571,23.1868963 72.4842857,23.6221926 M79.5985714,22.676637 C76.8461905,19.2351556 73.6938095,16.1003407 70.2366667,13.2202296 C65.0747619,8.92774815 59.4557143,5.23922963 52.8557143,2.82848889 C47.3985714,0.835155556 41.77,0.0344148148 35.922381,0.664785185 C31.8557143,1.09922963 28.0080952,2.26626667 24.3604762,3.8933037 C14.4557143,8.31356296 6.72238095,14.9673778 0.16047619,22.8291185 C-0.0871428571,23.1281185 -0.03,23.3496 0.208095238,23.6221926 C0.865238095,24.3965259 1.48428571,25.2057852 2.17,25.9647852 C7.54142857,31.8843037 13.6747619,37.0473778 21.0366667,40.9488593 C26.8652381,44.0410815 33.0938095,46.0080074 39.97,46.0003407 C44.4938095,46.0003407 49.4461905,45.0880074 53.817619,43.273563 C64.4652381,38.8354148 72.7890476,31.9447852 79.7319048,23.5881185 C80.0652381,23.1783778 79.8366667,22.9739333 79.5985714,22.676637" id="Fill-1" fill="#FEFEFE" mask="url(#mask-2)"></path>
                </g>
                <path d="M52.3715332,24.7254889 C51.6551543,24.6653677 50.816237,24.5365363 50.2318227,24.8027877 C49.6097042,25.0862167 49.7322427,25.9708584 49.4588876,26.5634825 C49.1289763,27.2935267 48.7896389,28.0321597 48.308911,28.6934938 C48.1015382,28.9769227 48.1109642,29.1658754 48.3937453,29.389183 C48.6388223,29.5867244 48.8556212,29.8272095 49.0912721,30.0419284 C50.4768996,31.3474192 50.4580476,31.3388304 48.9687336,32.6185549 C48.6199702,32.9105726 48.4031714,32.9277501 48.0826861,32.6185549 C47.5925321,32.1375846 47.045822,31.6995581 46.565094,31.2099991 C46.2634608,30.9093927 46.0089578,30.8836264 45.6413423,31.0983453 C44.4913658,31.7682682 43.2282767,32.2234722 41.9180575,32.5240786 C41.4656077,32.6271437 41.3430692,32.7989188 41.3524952,33.1940015 C41.3901994,33.8295694 41.3336432,34.4565485 41.3713473,35.0921164 C41.4090515,35.6160305 41.1828266,35.7285432 40.6455424,35.7285432 C38.6566485,35.7534506 38.6566485,35.7706281 38.6566485,33.9412232 C38.6566485,33.7265043 38.6377964,33.5031967 38.6566485,33.2884778 C38.7037787,32.8418626 38.5812402,32.6185549 38.025104,32.4983124 C36.771441,32.2320609 35.5649081,31.7854457 34.4620617,31.1498778 C34.028464,30.8922151 33.7456829,30.9008039 33.3969195,31.2701204 C32.9444697,31.7425019 32.3977595,32.1461734 31.9358837,32.6185549 C31.6153984,32.9535164 31.3985995,32.8933951 31.0592622,32.6185549 C29.522818,31.3645967 29.513392,31.3731854 30.9555757,30.0247509 C31.0404101,29.9474521 31.1158184,29.8615645 31.2100788,29.7928545 C31.8887535,29.354828 31.9735878,28.8910352 31.4551557,28.2554673 C30.767055,27.4051805 30.4371437,26.3917074 30.1826407,25.3782343 C30.0506761,24.828554 29.7490429,24.6653677 29.1834807,24.6997227 C28.6367705,24.7340777 28.0994863,24.7083114 27.5527762,24.7083114 C27.4302377,24.7083114 27.3171252,24.6997227 27.1945867,24.7083114 C26.3462434,24.7684327 26.6195984,24.1414536 26.6950067,23.8666134 C26.8363973,23.3512881 26.0728883,22.5267676 27.1851607,22.3549925 C27.8638354,22.2519275 28.5707882,22.3206375 29.268315,22.337815 C29.758469,22.3549925 30.0412501,22.2261612 30.1543625,21.7451909 C30.4277176,20.5599427 30.9272976,19.4434045 31.6625286,18.4299314 C31.9547357,18.0176712 31.8604754,17.7600085 31.4928599,17.4594021 C31.0404101,17.0900856 30.6727946,16.6434703 30.2014927,16.3085089 C29.5699482,15.8790711 29.758469,15.5870535 30.2297708,15.1747932 C31.511712,14.058255 31.4928599,14.0419364 32.765375,15.183382 C32.9161916,15.3122133 33.0764342,15.4410446 33.1989727,15.5956422 C33.6137184,16.09379 34.028464,16.1796776 34.6411565,15.8017723 C35.5177779,15.2692695 36.4980859,14.8484205 37.525524,14.6860931 C38.5246839,14.5306366 38.8168911,14.0754326 38.6566485,13.2509121 C38.6377964,13.113492 38.6566485,12.9760719 38.6566485,12.8386518 C38.6566485,11.3012646 38.6566485,11.3527972 40.3250571,11.2754984 C41.2393828,11.2325546 41.4561816,11.5245723 41.3807733,12.2898304 C41.3147911,12.9417169 41.1545484,13.7061161 41.4467556,14.2300302 C41.7483888,14.7882992 42.7286967,14.6422904 43.3696673,14.9257193 C44.0200639,15.2091482 44.7270167,15.4152784 45.311431,15.7760061 C45.9901057,16.2054438 46.4237035,16.0680238 46.8950053,15.5449686 C47.1966386,15.2005595 47.5736801,14.9171306 47.9130174,14.6079354 C48.0167038,14.5048703 48.1109642,14.3502727 48.2335027,14.3245065 C49.2515148,14.1011988 49.4117574,15.0811758 50.0433019,15.4238671 C50.3920653,15.604231 50.3920653,15.8447161 50.0433019,16.1195563 C49.4023314,16.6606479 48.5351359,17.1587957 48.2806329,17.8373073 C48.0167038,18.5510329 48.9970117,19.1857419 49.2420887,19.9329636 C49.4588876,20.5599427 49.6945385,21.1783331 49.8924853,21.8139009 C50.0055978,22.1746287 50.2035446,22.37217 50.6465683,22.337815 C51.0047577,22.3120487 51.3629472,22.337815 51.7305626,22.337815 C53.3706932,22.337815 53.314137,22.337815 53.3989713,23.8150809 C53.4461015,24.5966576 53.1633204,24.7856102 52.3715332,24.7254889 M56.9997177,19.6065909 C56.9997177,19.1427981 56.8583271,18.971023 56.339895,18.9882005 C55.3124569,19.0225555 54.2944449,18.9967893 53.2670068,18.9967893 C53.0313558,18.9967893 52.7768528,19.0569105 52.6354623,18.7992479 C52.4752196,18.5072302 52.7014445,18.3526326 52.8899653,18.1808575 C53.6157702,17.5195234 54.313297,16.8332818 55.06738,16.2054438 C55.5009777,15.8533049 55.4444215,15.6471748 55.06738,15.3036245 C53.0219298,13.4742197 51.0047577,11.6276373 48.9970117,9.76387747 C48.6293963,9.42032727 48.4031714,9.42032727 48.054408,9.75528872 C47.3380291,10.4595666 46.5839461,11.1294895 45.8298631,11.8080012 C45.6696205,11.9625988 45.5188039,12.1429627 45.2171707,12.0227201 C44.9155374,11.9024775 44.9720937,11.6800287 44.9720937,11.4653099 C44.9720937,10.5540429 44.9249635,9.65222366 44.9909458,8.75040437 C45.0380759,8.09765898 44.7741469,7.9774164 44.1331763,8.00318267 C42.7758269,8.04612644 41.4184775,8.01177142 40.0611281,8.01177142 C38.7037787,8.01177142 37.3464292,8.04612644 35.9890798,8.00318267 C35.282127,7.9774164 34.9710678,8.11483649 35.03705,8.83629192 C35.1124583,9.70375619 35.0559021,10.588398 35.0559021,11.4730397 C35.0559021,11.6963474 35.0464761,11.9110663 34.782547,12.0313088 C34.4714878,12.1601402 34.3395232,11.9282438 34.1792806,11.7822349 C33.4346236,11.112312 32.6805406,10.4338004 31.9547357,9.73811121 C31.6342505,9.42891602 31.4174516,9.40314976 31.0781142,9.7209337 C29.023238,11.6190486 26.9589358,13.499986 24.8852075,15.3809233 C24.5364441,15.6901185 24.6024264,15.8876599 24.9229117,16.1625001 C25.6864207,16.8332818 26.4122256,17.5281121 27.1568826,18.2066238 C27.3265513,18.3612214 27.5244981,18.5166778 27.4019596,18.7657517 C27.2888471,19.0225555 27.0343441,18.9967893 26.7892671,18.9967893 C25.7712551,18.9967893 24.743817,19.0139668 23.7163789,18.9882005 C23.254503,18.9804706 23,19.0740881 23,19.5722359 C23.0282781,22.2089837 23.0188521,24.8457315 23.009426,27.4824793 C23,27.9205059 23.1885208,28.0665147 23.6409706,28.0579259 C24.6684087,28.0493372 25.6958468,28.0493372 26.7232849,28.0579259 C26.9683618,28.0665147 27.2982732,27.9643085 27.4113856,28.2898223 C27.515072,28.58184 27.269995,28.7450264 27.0814743,28.9168015 C26.3556694,29.5781356 25.6392905,30.2394697 24.9134856,30.9008039 C24.6589826,31.1327003 24.49874,31.3130641 24.8569294,31.6308481 C26.9400837,33.4946079 29.004386,35.3755453 31.0686882,37.2650715 C31.3985995,37.5742666 31.6342505,37.5656779 31.9547357,37.2564827 C32.6805406,36.5530637 33.4346236,35.8822819 34.1792806,35.2037702 C34.3395232,35.0577614 34.4620617,34.8516313 34.782547,34.9718738 C35.0841802,35.0921164 35.0464761,35.3068353 35.0559021,35.5215542 C35.0559021,36.4834947 35.0747542,37.4462942 35.0464761,38.4073759 C35.03705,38.8196361 35.1407364,39 35.6403164,39 C38.5623881,38.9828225 41.4844598,38.9828225 44.4159575,39 C44.8401291,39 44.9909458,38.8711687 44.9815197,38.4760859 C44.9532416,37.5141454 44.9720937,36.5607935 44.9815197,35.598853 C44.9815197,35.3927228 44.8778333,35.1522377 45.1888925,35.0319951 C45.5188039,34.894575 45.6978986,35.0663501 45.8958454,35.246714 C46.5933721,35.8822819 47.319177,36.509261 47.9884257,37.1791839 C48.4031714,37.5914442 48.6671004,37.5485004 49.07242,37.1620064 C51.061314,35.3240128 53.06906,33.5031967 55.086232,31.6995581 C55.4632735,31.3645967 55.4632735,31.1670553 55.0956581,30.8492714 C54.322723,30.196526 53.5969181,29.5016957 52.8522611,28.8137364 C52.6825924,28.6591388 52.4940717,28.5045412 52.6354623,28.2554673 C52.7580007,28.0407484 52.9747996,28.0579259 53.1821724,28.0579259 C54.2096105,28.0579259 55.2370486,28.0407484 56.2644867,28.0665147 C56.7829188,28.0836922 57.0091437,27.9643085 56.9997177,27.4309468 C56.9714396,24.8199652 56.9808656,22.2175724 56.9997177,19.6065909" id="Fill-4" fill="#FEFEFE"></path>
                <path d="M40.1232237,26.5839878 C38.1409156,26.5928371 36.6043897,25.2123448 36.6423286,23.4336335 C36.6707828,21.734566 38.1978239,20.3452243 40.0283764,20.3540736 C41.8684136,20.3717722 43.3670006,21.7788125 43.3575159,23.4867294 C43.3575159,25.1857969 41.9063525,26.5751385 40.1232237,26.5839878 M39.9430139,17.0001852 C36.0922144,17.0267331 32.9717389,19.964704 33.0001931,23.5398252 C33.0286472,27.0883985 36.2250005,30.0263694 40.0378612,29.9998215 C43.9740232,29.9732736 47.0375903,27.0353026 46.9996514,23.3097432 C46.9617125,19.8054164 43.7938134,16.9736372 39.9430139,17.0001852" id="Fill-6" fill="#FEFEFE"></path>
            </g>
        </g>
    </g>
</svg>