<svg width="156px" height="156px" viewBox="0 0 156 156" version="1.1" xmlns="http://www.w3.org/2000/svg" xmlns:xlink="http://www.w3.org/1999/xlink">
    <defs>
        <polygon id="path-1" points="0.000233739837 0.521835366 114.459593 0.521835366 114.459593 110.999774 0.000233739837 110.999774"></polygon>
    </defs>
    <g id="OpenVINO-8/31" stroke="none" stroke-width="1" fill="none" fill-rule="evenodd">
        <g id="Landing-Page-floating-card-circle-icons" transform="translate(-616.000000, -1372.000000)">
            <g id="Group-4-Copy-2" transform="translate(616.000000, 1372.000000)" fill="#F9F9F9">
                <circle id="Oval-2-Copy-2" cx="78" cy="78" r="78"></circle>
            </g>
            <g id="Group-8" transform="translate(637.000000, 1394.000000)">
                <g id="Group-3">
                    <mask id="mask-2" fill="white">
                        <use xlink:href="#path-1"></use>
                    </mask>
                    <g id="Clip-2"></g>
                    <path d="M110.610833,57.3175122 C110.650102,57.9573415 110.415427,58.2082195 109.791809,58.3959268 C107.905996,58.9608537 106.046362,59.6268537 104.161484,60.2035122 C103.133963,60.5049268 102.62628,61.1573902 102.496321,62.1365366 C102.015752,65.5504634 101.079858,68.8642195 99.7531504,72.0642683 C99.3370935,73.0686829 99.4932317,73.8835854 100.272988,74.6876585 C101.612785,76.0674878 102.860955,77.5357561 104.186728,78.929122 C104.564451,79.3063415 104.629898,79.6068537 104.35689,80.0472439 C103.719248,81.0507561 103.094695,82.0678049 102.509411,83.0956829 C102.275671,83.5099024 102.05502,83.523439 101.599695,83.435 C99.5708333,83.0090488 97.5167276,82.6444634 95.4757114,82.2302439 C94.5257927,82.0416341 93.7974593,82.2934146 93.1869309,83.0460488 C90.9112398,85.8327805 88.2970935,88.3180976 85.4239634,90.539 C84.7863211,91.028122 84.5394919,91.5551463 84.5787602,92.2455122 C85.0209959,94.341878 85.4239634,96.4761463 85.917622,98.5842439 C86.0223374,99.0480976 85.9438008,99.2493415 85.5408333,99.4623171 C84.4740447,100.039878 83.4343699,100.630073 82.3937602,101.245537 C81.9262805,101.52078 81.6270935,101.433244 81.2231911,101.081293 C79.7674593,99.7763659 78.2201016,98.5472439 76.7503455,97.2405122 C75.9836789,96.5510488 75.1908333,96.4129756 74.2025813,96.777561 C70.8208333,98.0572195 67.3493293,99.0110976 63.7347764,99.4623171 C62.7596138,99.5886585 62.135061,100.103049 61.8227846,101.056927 C61.2375,102.876244 60.5493699,104.671195 59.9509959,106.504049 C59.7686789,107.105976 59.4956707,107.332488 58.8327846,107.294585 C57.7145732,107.232317 56.5832724,107.232317 55.4519715,107.281951 C54.8928659,107.30722 54.6843699,107.105976 54.5282317,106.629488 C53.9167683,104.771366 53.2277033,102.939415 52.6433537,101.094829 C52.3048984,100.052512 51.6158333,99.5886585 50.5621341,99.4505854 C47.1168089,98.9984634 43.7752642,98.1447561 40.5496545,96.8777317 C39.3669309,96.4129756 38.4310366,96.5510488 37.4942073,97.4173902 C36.0898984,98.6979512 34.5948984,99.8639024 33.1775,101.131829 C32.7997764,101.471146 32.5146138,101.495512 32.097622,101.257268 C31.0579472,100.654439 30.0051829,100.065146 28.9383943,99.4875854 C28.5616057,99.2746098 28.4185569,99.0986341 28.5354268,98.6221463 C28.990752,96.7513902 29.3282724,94.8571707 29.7574187,92.9864146 C30.0051829,91.9070976 29.7705081,91.0660244 28.8346138,90.3630244 C26.0521748,88.2801951 23.5679878,85.8824146 21.4091667,83.1967561 C20.6555894,82.2555122 19.7580285,82.0416341 18.6145732,82.2807805 C16.7025813,82.695 14.7775,83.0207805 12.8664431,83.435 C12.4242073,83.5360732 12.177378,83.5099024 11.9436382,83.1092195 C11.3452642,82.0416341 10.7216463,81.0002195 10.0709146,79.971439 C9.82408537,79.5824878 9.87550813,79.3559756 10.200874,79.017561 C11.5790041,77.5492927 12.9188008,76.0304878 14.2969309,74.5613171 C14.9729065,73.8339512 15.1159553,73.0813171 14.7391667,72.1770732 C13.4133943,68.9147561 12.4242073,65.5504634 11.9436382,62.0742683 C11.8136789,61.1330244 11.3059959,60.5049268 10.3177439,60.2161463 C8.3674187,59.6268537 6.44327236,58.9608537 4.50603659,58.3589268 C4.06380081,58.2208537 3.83006098,58.0322439 3.85530488,57.5304878 C3.89457317,56.4132683 3.89457317,55.2834146 3.84221545,54.1670976 C3.81603659,53.5895366 3.99835366,53.3133902 4.60981707,53.1374146 C6.49563008,52.5724878 8.35432927,51.9082927 10.2532317,51.3433659 C11.3190854,51.0293171 11.8267683,50.3642195 11.9698171,49.3471707 C12.4372967,46.0090488 13.3217683,42.7954634 14.6213618,39.6829512 C15.0897764,38.554 14.9990854,37.637122 14.0893699,36.7211463 C12.7626626,35.3909512 11.5406707,33.9353171 10.2401423,32.5545854 C9.91477642,32.2161707 9.81099593,31.9526585 10.0840041,31.5249024 C10.7861585,30.4203171 11.2022154,28.9520488 12.2035569,28.2625854 C13.2048984,27.5586829 14.6475407,28.5504634 15.9088008,28.7011707 C16.7025813,28.8013415 17.5085163,28.8897805 18.2630285,29.1406585 C19.744939,29.6297805 20.7593699,29.1911951 21.6831098,28.023439 C23.6979472,25.501122 26.0521748,23.2919512 28.6392073,21.3210244 C29.7181504,20.506122 30.0435163,19.6145122 29.705061,18.3348537 C29.2375813,16.502 28.9253049,14.6312439 28.509248,12.7866585 C28.4316463,12.4473415 28.509248,12.2849024 28.7953455,12.121561 C29.9397358,11.4943659 31.0972154,10.8662683 32.2154268,10.2147073 C32.6053049,9.97556098 32.8259553,10.0883659 33.1251423,10.351878 C34.6210772,11.6568049 36.1815244,12.9256341 37.663435,14.2431951 C38.4693699,14.9588293 39.2762398,15.1212683 40.2906707,14.7323171 C43.6443699,13.4526585 47.0906301,12.5231463 50.6668496,12.0592927 C51.693435,11.9338537 52.3310772,11.4068293 52.6433537,10.4141463 C53.2277033,8.59482927 53.9046138,6.78814634 54.5020528,4.96792683 C54.6712805,4.45353659 54.866687,4.21439024 55.4772154,4.24056098 C56.6739634,4.29019512 57.857622,4.29019512 59.053435,4.24056098 C59.5863618,4.21439024 59.7686789,4.44 59.9117276,4.8677561 C60.5353455,6.71234146 61.2122561,8.54429268 61.7975407,10.4024146 C62.1219715,11.4311951 62.7979472,11.9338537 63.8516463,12.0710244 C67.3362398,12.5231463 70.7039634,13.3894878 73.9548171,14.6691463 C75.0992073,15.1095366 76.0098577,14.9831951 76.9326626,14.142122 C78.3238821,12.8498293 79.8329065,11.6829756 81.2493699,10.4141463 C81.6663618,10.0504634 81.9646138,10.0378293 82.4068496,10.2896098 C83.615752,10.9926098 85.410874,11.3689268 85.8531098,12.4735122 C86.2691667,13.5149268 85.4632317,15.0210976 85.202378,16.3260244 C85.0209959,17.205 84.8255894,18.0830732 84.6432724,18.9620488 C84.4618902,19.803122 84.7218089,20.4682195 85.4370528,21.007878 C88.2970935,23.1917805 90.8719715,25.6761951 93.1345732,28.4376585 C93.7712805,29.215561 94.5127033,29.4790732 95.5009553,29.2787317 C97.5429065,28.8645122 99.5839228,28.512561 101.625874,28.0739756 C102.119533,27.9611707 102.30185,28.0857073 102.5225,28.4629268 C103.107785,29.4790732 103.732337,30.496122 104.35689,31.5005366 C104.615874,31.902122 104.577541,32.1782683 104.225996,32.5419512 C102.847866,33.9858537 101.547337,35.491122 100.182297,36.9350244 C99.5063211,37.6497561 99.3370935,38.3906585 99.7017276,39.3066341 C101.040589,42.6077561 102.028841,45.9837805 102.509411,49.5105122 C102.640305,50.4526585 103.211565,51.0419512 104.186728,51.3298293 C106.09872,51.9082927 107.997622,52.5607561 109.908679,53.1626829 C110.390183,53.3007561 110.650102,53.4893659 110.610833,54.0542927 C110.545386,55.1336098 110.545386,56.225561 110.610833,57.3175122 M114.316077,52.184439 C114.238476,51.0924878 113.718638,50.4896585 112.678028,50.1629756 C110.780061,49.5736829 108.920427,48.8959512 107.008435,48.3680244 C106.345549,48.1803171 106.08563,47.841 105.994939,47.2517073 C105.552703,44.5904146 104.82437,41.9931951 103.823028,39.4826098 C103.589289,38.9050488 103.757581,38.591 104.148394,38.1767805 C105.526524,36.7085122 106.878476,35.2149756 108.244451,33.7223415 C108.790467,33.1195122 109.050386,32.4535122 108.685752,31.6756098 C107.542297,29.2660976 106.2025,26.9820244 104.59063,24.8486585 C104.082947,24.1709268 103.380793,23.9453171 102.470142,24.1456585 C100.403882,24.5851463 98.3226626,24.9488293 96.2554675,25.3747805 C95.8001423,25.4632195 95.5140447,25.4253171 95.1886789,25.049 C93.3552236,22.8777317 91.3011179,20.9068049 89.0516057,19.1253902 C88.6748171,18.8239756 88.6093699,18.5478293 88.7140854,18.1083415 C89.1553862,16.1753171 89.480752,14.2179268 89.9622561,12.2849024 C90.2352642,11.1803171 89.9229878,10.4276829 88.9870935,9.81221951 C86.905874,8.4567561 84.7348984,7.26463415 82.4844512,6.19795122 C81.5878252,5.77109756 80.7818902,5.87126829 80.0142886,6.549 C78.4669309,7.90446341 76.8803049,9.22202439 75.3338821,10.5648537 C74.9823374,10.8662683 74.7224187,10.9926098 74.2278252,10.8166341 C71.5370122,9.8374878 68.7536382,9.10921951 65.906687,8.64446341 C65.3606707,8.55782927 65.0998171,8.35658537 64.9436789,7.82956098 C64.3322154,5.97234146 63.6562398,4.1394878 63.0447764,2.28226829 C62.7072561,1.27785366 62.1219715,0.749926829 60.9785163,0.663292683 C58.4681504,0.474682927 55.9718089,0.474682927 53.462378,0.663292683 C52.3703455,0.749926829 51.7588821,1.25258537 51.4335163,2.20736585 C50.8098984,4.06368293 50.1329878,5.89743902 49.5355488,7.7537561 C49.3532317,8.34395122 49.0540447,8.59482927 48.4556707,8.68236585 C45.6863211,9.10921951 43.0076626,9.81221951 40.3935163,10.7660976 C39.8475,10.9673415 39.4838008,10.9041707 39.041565,10.5025854 C37.5072967,9.1344878 35.9085163,7.82956098 34.3480691,6.48673171 C33.6711585,5.90917073 32.9306707,5.77109756 32.1238008,6.13478049 C29.7443293,7.22673171 27.4564837,8.48202439 25.2976626,9.95029268 C24.530061,10.4646829 24.2570528,11.1803171 24.4777033,12.1468293 C24.9461179,14.1303902 25.2976626,16.1509512 25.7529878,18.1462439 C25.8698577,18.6353659 25.7268089,18.861878 25.3621748,19.1497561 C23.1519309,20.919439 21.1240041,22.8650976 19.3027033,25.0110976 C18.9651829,25.4126829 18.6659959,25.4758537 18.159248,25.3630488 C16.2210772,24.9488293 14.2576626,24.6600488 12.3335163,24.1826585 C11.0198984,23.856878 10.1616057,24.2710976 9.47254065,25.2881463 C8.17294715,27.2455366 6.96310976,29.2417317 5.89632114,31.3371951 C5.42884146,32.2658049 5.57189024,33.0446098 6.27404472,33.7972439 C7.6521748,35.2781463 9.00506098,36.7707805 10.3831911,38.2525854 C10.6692886,38.5666341 10.8637602,38.8039756 10.6692886,39.3066341 C9.66794715,41.9173902 8.88819106,44.5904146 8.43286585,47.351878 C8.34123984,47.9032683 8.06823171,48.1550488 7.50912602,48.3174878 C5.62331301,48.8959512 3.76461382,49.5601463 1.86571138,50.1386098 C0.786768293,50.4643902 0.227662602,51.0545854 0.136971545,52.184439 C-0.0453455285,54.5813171 -0.0453455285,56.965561 0.136971545,59.3507073 C0.227662602,60.4426585 0.7475,61.0445854 1.78810976,61.3712683 C3.7122561,61.9614634 5.61115854,62.6382927 7.54839431,63.1914878 C8.14676829,63.366561 8.35432927,63.6806098 8.43286585,64.195 C8.90034553,66.918561 9.66794715,69.5663171 10.6561992,72.1518049 C10.8506707,72.6544634 10.6954675,72.9306098 10.3701016,73.2816585 C8.96579268,74.7751951 7.5876626,76.3066341 6.20859756,77.8128049 C5.64949187,78.4147317 5.41575203,79.0798293 5.77945122,79.8586341 C6.91075203,82.2555122 8.26363821,84.5395854 9.86335366,86.6729512 C10.3701016,87.3642195 11.0853455,87.5771951 11.9819715,87.3885854 C14.0501016,86.9364634 16.1303862,86.5980488 18.1975813,86.1459268 C18.7314431,86.033122 18.9913618,86.1838293 19.3157927,86.5601463 C21.1361585,88.6565122 23.125752,90.6021707 25.3238415,92.3339512 C25.7651423,92.685 25.8567683,92.9864146 25.7398984,93.513439 C25.2976626,95.3841951 24.9984756,97.2919512 24.5038821,99.1491707 C24.1663618,100.428829 24.6478659,101.219366 25.7006301,101.872732 C27.6902236,103.114488 29.7443293,104.26961 31.8769715,105.285756 C32.8390447,105.737878 33.6459146,105.650341 34.4387602,104.97261 C35.9992073,103.628878 37.5727439,102.299585 39.1331911,100.955854 C39.432378,100.692341 39.6530285,100.503732 40.1205081,100.68061 C42.8646138,101.671488 45.6732317,102.41239 48.5472967,102.876244 C49.1064024,102.964683 49.3401423,103.202927 49.5093699,103.704683 C50.1208333,105.575439 50.7968089,107.445293 51.4204268,109.315146 C51.7457927,110.280756 52.3572561,110.783415 53.4492886,110.858317 C55.9587195,111.046927 58.455061,111.046927 60.9644919,110.858317 C62.0957927,110.783415 62.7072561,110.25639 63.032622,109.252878 C63.6440854,107.420024 64.320061,105.625073 64.9175,103.793122 C65.0998171,103.228195 65.3466463,102.92678 65.9711992,102.838341 C68.8059959,102.424122 71.5370122,101.658854 74.2278252,100.704976 C74.7093293,100.529902 74.969248,100.642707 75.3198577,100.944122 C76.8933943,102.311317 78.4931098,103.66678 80.0797358,105.022244 C80.7164431,105.562805 81.4055081,105.77578 82.2114431,105.412098 C84.6694512,104.33278 86.9975,103.039585 89.1946545,101.533415 C89.9360772,101.019024 90.1959959,100.328659 89.9875,99.4126829 C89.5190854,97.4173902 89.1553862,95.408561 88.7140854,93.4132683 C88.6093699,92.9485122 88.6879065,92.685 89.0646951,92.3962195 C91.3142073,90.6139024 93.3421341,88.6312439 95.2148577,86.4726098 C95.4878659,86.158561 95.7094512,86.033122 96.1638415,86.1341951 C98.2057927,86.5727805 100.272988,86.8741951 102.28876,87.3506829 C103.510752,87.6403659 104.278354,87.2135122 104.902907,86.3092683 C106.228679,84.3762439 107.424492,82.3556829 108.50437,80.2845854 C109.024207,79.268439 108.881159,78.4652683 108.114492,77.6494634 C106.748516,76.2064634 105.435833,74.7246585 104.082947,73.2690244 C103.745427,72.9179756 103.601443,72.6409268 103.79685,72.1400732 C104.798191,69.5545854 105.565793,66.9059268 106.020183,64.1697317 C106.09872,63.654439 106.332459,63.366561 106.917744,63.1914878 C108.881159,62.626561 110.818394,61.9614634 112.769654,61.3333659 C113.718638,61.0319512 114.225386,60.4426585 114.316077,59.4382439 C114.420793,58.1955854 114.446972,56.9538293 114.460061,55.7111707 C114.433882,54.5307805 114.420793,53.3639268 114.316077,52.184439" id="Fill-1" fill="#4A4A4A" mask="url(#mask-2)"></path>
                </g>
                <path d="M56.9808424,90.2757617 C38.2177998,90.3265572 22.5508734,75.5160349 22.7838042,56.4033135 C22.9915785,38.5659225 38.1004026,23.7055118 57.0069307,23.7055118 C75.2388911,23.69372 91.1769489,37.8348299 91.1769489,57.1489192 C91.189993,75.6675144 75.5882873,90.3002524 56.9808424,90.2757617 M55.2832427,20.0346284 C34.5766253,20.9045017 18.8836107,37.6579526 19.0010079,56.8459602 C18.8454101,77.8499077 36.7270426,94.5770537 58.1464282,93.9847417 C78.3871839,93.4296192 95.06503,77.017224 94.9998094,57.0219304 C94.9215446,36.1948602 77.3632201,19.1266585 55.2832427,20.0346284" id="Fill-4" fill="#4A4A4A"></path>
                <path d="M79.5021313,67.7811398 C76.3710065,70.7171796 73.2917584,73.7031036 70.2254795,76.6890277 C69.7104187,77.1843062 69.3630306,77.3081259 68.8600126,76.72555 C68.4348096,76.2302714 67.9586563,75.772406 67.4556383,75.3510629 C66.9276084,74.9172488 67.0054234,74.6072543 67.4686075,74.1743309 C68.2161867,73.5053485 68.9248584,72.798953 69.5816535,72.0551444 C70.0587332,71.5108724 70.2384486,70.8659413 69.8651222,70.1729077 C69.5177341,69.5039253 68.8989201,69.243815 68.1772792,69.1440466 C67.5584652,69.2304531 67.0054234,69.4540411 66.5672512,69.8869645 C65.935468,70.4944824 65.2786729,71.0761675 64.6728281,71.7086275 C64.3384091,72.0551444 64.1058907,72.1050285 63.7585026,71.7451499 C63.1915652,71.1634648 62.5986895,70.605831 61.993771,70.0615591 C61.6324874,69.7382027 61.6324874,69.4665121 61.993771,69.1440466 C62.6894736,68.5115866 63.3712807,67.8684371 64.0290021,67.1994547 C64.9692659,66.2570001 65.0211425,65.3154364 64.2216867,64.5235252 C63.4361264,63.7547744 62.3022517,63.7912968 61.3490187,64.6589251 C60.6533162,65.2913851 59.9705827,65.9354254 59.3137876,66.6044078 C58.9654732,66.9633957 58.720912,66.9509246 58.386493,66.5919367 C57.7158024,65.8980123 56.5439465,65.2913851 56.4661316,64.5351054 C56.3633047,63.7298323 57.6648521,63.1721986 58.3216472,62.4791649 C58.8756155,61.9090601 59.4425528,61.3638973 59.3526951,60.5087401 C59.2748802,59.8157064 58.8885846,59.2830147 58.2058512,59.0353754 C57.4323337,58.7494322 56.6856809,58.8866137 56.079836,59.4308856 C55.3841335,60.0633457 54.7014,60.719857 54.0696169,61.4137815 C53.6444139,61.8716469 53.3229641,61.884118 52.9357421,61.3888394 C52.7560267,61.1777225 52.5364774,60.9924384 52.3437928,60.7937925 C50.8486344,59.2954858 50.8486344,59.307066 52.4206814,57.8203395 C52.7810386,57.4738227 53.1552914,57.1397769 53.4897104,56.7549561 C54.1854129,55.937212 54.1733701,54.9092418 53.4897104,54.2652015 C52.7171192,53.5213928 51.7249788,53.4848705 50.8486344,54.2402594 C50.0890124,54.8967707 49.3803407,55.5906952 48.6586998,56.2961999 C48.2974162,56.6560786 48.0269167,56.6810207 47.6535903,56.2846196 C47.1255604,55.7145148 46.5456538,55.1818231 45.9537045,54.6607117 C45.5664826,54.3266659 45.5924209,54.1039687 45.9537045,53.7699229 C46.6355116,53.174876 47.293233,52.5433067 47.9250162,51.8992664 C48.8393417,50.9692829 48.9032611,49.8424351 48.1047316,49.1244594 C47.2802639,48.3681797 46.1593583,48.4296441 45.2190945,49.3097434 C44.561373,49.9288416 43.9175471,50.5613017 43.2737211,51.205342 C42.9772833,51.5144457 42.732722,51.6516272 42.3714384,51.2302841 C41.7146433,50.4989465 40.5418611,49.8673772 40.4260651,49.0612134 C40.310269,48.2933534 41.6368284,47.7232486 42.2686115,47.0177439 C42.3714384,46.9055045 42.5002036,46.8066269 42.6030305,46.6952783 C43.4793749,45.7661856 43.5571898,44.7257443 42.8096106,43.9819357 C41.998112,43.1775534 40.9281567,43.2140757 39.9499118,44.1191171 C39.266252,44.7257443 38.6094569,45.3448425 37.9786001,45.9888828 C37.6173165,46.3478707 37.3338478,46.3977549 36.9605214,46.0022446 C36.4195223,45.4446109 35.8396158,44.9110284 35.2597092,44.3908077 C34.9123211,44.069233 34.8734137,43.8331739 35.2467401,43.4875479 C38.50663,40.3769134 41.7526244,37.2546987 44.986576,34.1084327 C45.5285015,33.5766318 45.7860319,33.972142 46.1204508,34.2946076 C53.2710874,41.1572444 60.4217241,48.0332431 67.5723607,54.8967707 C71.539996,58.7120191 75.4955885,62.5531004 79.4891621,66.3442974 C80.095007,66.9135115 80.1079761,67.2110349 79.5021313,67.7811398 M53.4646984,67.9423725 C52.4466197,68.9578718 51.3896335,69.8629132 50.0121239,70.4704311 C47.0866529,71.795034 44.2269541,73.2452382 41.3413169,74.6446674 C41.2764711,74.583203 41.2125517,74.5333188 41.1347368,74.4709636 C41.7665199,73.2452382 42.3973767,72.0310931 43.0412027,70.8160572 C43.8786396,69.2304531 44.7809223,67.6938425 45.5405443,66.0717161 C46.13342,64.7836355 47.0607146,63.7797165 48.1047316,62.8132107 C48.5039963,62.4292807 48.7365148,62.4791649 49.1098412,62.8381528 C50.5392274,64.237582 51.9825092,65.6129598 53.4517293,66.9758667 C53.8250557,67.3348546 53.8380248,67.5709136 53.4646984,67.9423725 M65.200858,46.3362904 C65.7937337,45.8410119 66.3606711,45.2958491 66.9016701,44.7257443 C67.2759229,44.3418143 67.5464224,44.3792275 67.9197488,44.7382154 C69.3630306,46.1510064 70.8313243,47.5504356 72.3125872,48.9382845 C72.5710439,49.1859238 72.6998091,49.408621 72.4033713,49.7061444 C71.6946995,50.3991781 70.9730587,51.0939934 70.2514178,51.787027 C70.1615601,51.8618533 70.045764,51.9117375 69.929968,51.9856729 C69.736357,51.8119691 69.5686844,51.6756784 69.4139809,51.5269167 C68.0096066,50.1649007 66.6182014,48.7770517 65.175846,47.439087 C64.7247047,47.0177439 64.7247047,46.7326915 65.200858,46.3362904 M70.5608248,41.2320707 C71.2694965,40.6129725 71.9142488,39.9306283 72.5960559,39.2874788 C73.3056539,38.6184964 74.1681028,38.2835598 75.1732124,38.2960308 C76.8610554,38.3325532 77.981961,39.2126525 78.6517252,40.5996106 C79.3214895,41.9749885 79.0250516,43.276431 77.9300843,44.3908077 C77.2862584,45.0357388 76.6164941,45.6298949 75.984711,46.2864063 C75.6113846,46.6828073 75.3149467,46.7326915 74.9027128,46.3113484 C73.4724002,44.9243902 72.0300448,43.5490123 70.5737939,42.1736344 C70.2134367,41.8395886 70.1356217,41.5919494 70.5608248,41.2320707 M82.5035645,64.1387044 C79.4372855,61.1777225 76.3839757,58.2176313 73.2917584,55.2931717 C72.7507594,54.7729511 72.7507594,54.4878987 73.2917584,53.980149 C75.6373229,51.8003889 77.9300843,49.581434 80.235815,47.3776225 C81.7819236,45.890896 82.7360829,44.1565303 82.7749904,41.5794783 C82.5035645,38.902658 81.0482399,36.5002006 78.0078993,35.2602226 C75.1213358,34.0710196 72.3904021,34.4558404 70.0837451,36.6115492 C67.6103418,38.9160198 65.1499077,41.2320707 62.7404239,43.6104767 C62.0965979,44.242046 61.7482835,44.1805816 61.1294695,43.5864255 C56.9172729,39.4852339 52.6652426,35.4223462 48.4141386,31.3460967 C46.5197155,29.5493757 44.4335342,29.5493757 42.5391111,31.357677 C39.1763943,34.57966 35.8136775,37.8123325 32.4509607,41.0583669 C30.5055873,42.9414944 30.5185564,44.9359705 32.476899,46.8199888 C36.7150338,50.9078185 40.9281567,55.0081193 45.1931562,59.0718978 C45.8110438,59.6544736 45.8110438,60.0018813 45.1542487,60.5336822 C44.3946267,61.1412001 43.5951709,61.7487181 43.1319868,62.6145648 C41.0059716,66.6044078 38.8669873,70.59336 36.818787,74.6321963 C35.9294735,76.3790332 36.8697373,78.311154 38.7771295,78.9436141 C39.7952083,79.2776599 40.7614104,79.0549627 41.7146433,78.5846262 C43.9434854,77.4818297 46.2103085,76.4413884 48.4141386,75.3136498 C51.0422454,73.963214 53.9797592,73.0964765 55.9251325,70.7305414 C56.4401933,70.0980814 56.8264889,70.221901 57.3674879,70.7421217 C60.4087549,73.7155747 63.4750339,76.6640856 66.554282,79.6001254 C68.4996554,81.4707819 70.5478556,81.4583108 72.4802598,79.6125965 C75.8300075,76.4039752 79.166786,73.195354 82.4915217,69.9742618 C84.5008145,68.0412501 84.5008145,66.0841871 82.5035645,64.1387044" id="Fill-6" fill="#4A4A4A"></path>
            </g>
        </g>
    </g>
</svg>