<svg width="156px" height="156px" viewBox="0 0 156 156" version="1.1" xmlns="http://www.w3.org/2000/svg" xmlns:xlink="http://www.w3.org/1999/xlink">
    <defs>
        <polygon id="path-1" points="0 0 80 0 80 81 0 81"></polygon>
    </defs>
    <g id="OpenVINO-8/31" stroke="none" stroke-width="1" fill="none" fill-rule="evenodd">
        <g id="Landing-Page-floating-card-circle-icons" transform="translate(-252.000000, -1372.000000)">
            <g id="Group-4-Copy" transform="translate(252.000000, 1372.000000)" fill="#F9F9F9">
                <circle id="Oval-2-Copy-2" cx="78" cy="78" r="78"></circle>
            </g>
            <g id="Group-3-Copy-2" transform="translate(290.000000, 1410.000000)">
                <mask id="mask-2" fill="white">
                    <use xlink:href="#path-1"></use>
                </mask>
                <g id="Clip-2"></g>
                <path d="M68.7217386,26.1727263 C66.6901494,27.7368322 64.6436746,29.2876881 62.6245893,30.8698623 C62.2375632,31.1716017 61.8689953,31.3203634 61.3741973,31.317352 C50.8512559,31.3047042 40.3259328,31.3022951 29.8035869,31.3269884 C29.1456425,31.3269884 29.0164354,31.1463061 29.0194125,30.5157251 C29.0444203,24.2737559 29.0444203,18.0311844 29.0194125,11.7862038 C29.0164354,11.1556228 29.2069713,11.0435998 29.7821516,11.0472135 C40.2032753,11.0622703 50.6238037,11.0622703 61.0449275,11.0435998 C61.7737273,11.0435998 62.3417625,11.2242821 62.9288513,11.6838172 C66.9670219,14.8517792 71.032582,17.9817979 75.1725702,21.1871009 C72.9843843,22.8776844 70.85455,24.5285179 68.7217386,26.1727263 M34.4991064,35.5170096 C34.4866024,35.1098723 34.6128325,34.9821902 35.0183167,34.9858038 C38.2943436,35.0008607 41.5733477,34.9978493 44.8493746,34.9858038 C45.2673627,34.9858038 45.4459902,35.0881904 45.4305091,35.5477256 C45.399547,36.4029549 45.3965699,37.2575819 45.4305091,38.1091975 C45.4519444,38.5789713 45.2703399,38.6656988 44.8553288,38.6626874 C43.2179108,38.6410056 41.5798973,38.6536533 39.9418839,38.6536533 C38.3282828,38.6536533 36.7146818,38.6379942 35.1016762,38.6626874 C34.6527259,38.6723238 34.4681443,38.5849941 34.4961292,38.0784815 C34.5389998,37.2268659 34.5264959,36.3692275 34.4991064,35.5170096 M50.1016162,42.343787 C50.6482161,42.3401734 50.8792409,42.411844 50.8756684,43.0677205 C50.8453017,49.3373943 50.8482788,55.6070682 50.8726912,61.8737306 C50.8756684,62.4585388 50.7315756,62.5892323 50.1629449,62.5892323 C39.5852245,62.5675504 29.0104811,62.5705618 18.4327606,62.5826073 C17.9963143,62.5826073 17.670617,62.4519138 17.3234844,62.1851064 C13.3496197,59.1044741 9.36384646,56.0334783 5.36556934,52.9811529 C4.87077138,52.6017202 4.75049559,52.421038 5.32865301,51.9801733 C9.30251771,48.936882 13.2513746,45.8616703 17.2002314,42.7846517 C17.6057157,42.4678555 18.0111999,42.3401734 18.5250515,42.343787 C23.7737205,42.3588439 29.0259622,42.3528211 34.2746312,42.3528211 C39.5512853,42.3528211 44.8249622,42.3588439 50.1016162,42.343787 M45.4305091,76.6800381 C45.4334862,77.1961871 45.2828438,77.3359147 44.7791145,77.3268806 C43.141101,77.2955623 41.5060647,77.3142328 39.8680512,77.3142328 C38.2818397,77.3142328 36.6932465,77.2985737 35.1076304,77.3268806 C34.6467717,77.3329033 34.4931521,77.2052212 34.4961292,76.7240042 C34.5175645,73.4102918 34.5145874,70.0995909 34.4991064,66.7858785 C34.4961292,66.3624798 34.6437946,66.2787637 35.0248664,66.2823773 C38.2973208,66.2944228 41.5733477,66.3004456 44.8493746,66.2757523 C45.3441725,66.272741 45.4334862,66.4437868 45.4305091,66.9009129 C45.412051,70.1616251 45.412051,73.4223373 45.4305091,76.6800381 M34.4961292,6.76323748 C34.5360227,5.91463322 34.5235188,5.05940393 34.4991064,4.2077883 C34.4866024,3.79824188 34.6342678,3.68260524 35.0308206,3.68260524 C38.3253057,3.69826437 41.6227679,3.69826437 44.917253,3.68260524 C45.3441725,3.67959387 45.4364634,3.85063973 45.4269366,4.23308381 C45.4090738,5.10939269 45.3935928,5.98931521 45.4305091,6.86562409 C45.4519444,7.34443203 45.2548588,7.41007991 44.8493746,7.40706854 C43.2423232,7.38538667 41.6316993,7.39743216 40.0216708,7.39743216 C38.3866345,7.39743216 36.7515981,7.37575029 35.1171572,7.41007991 C34.6003286,7.4221254 34.4746939,7.25770455 34.4961292,6.76323748 M78.8850435,19.3965399 C73.9894613,15.6166674 69.0909019,11.839204 64.2072282,8.04367231 C63.6296662,7.59919399 63.0366232,7.38538667 62.3054416,7.38839804 C58.1071018,7.40706854 53.9063803,7.38839804 49.7080404,7.41007991 C49.1828758,7.41309128 49.0078209,7.29444328 49.023302,6.73553287 C49.0626,5.18407468 49.0447373,3.62960512 49.0352105,2.07573783 C49.0256837,0.732666494 48.3992969,0.0274034735 47.0869807,0.0177670872 C42.3235828,-0.00692615264 37.5601849,-0.00391478193 32.7997642,0.0147557165 C31.5612807,0.0207784579 30.8789239,0.773018862 30.8699926,2.03237409 C30.8574887,3.63623014 30.850939,5.24309755 30.8759468,6.85056723 C30.8848782,7.29143191 30.755671,7.4221254 30.3227972,7.40706854 C29.4284693,7.37575029 28.5311642,7.39743216 27.6338591,7.39743216 C26.0851594,7.39743216 25.3748177,8.08763832 25.3748177,9.65415337 C25.3688634,17.3728988 25.3688634,25.0910419 25.3748177,32.8097873 C25.3748177,34.2456089 26.0661058,34.9574969 27.4796441,34.9888152 C28.4263695,35.010497 29.3760719,35.0135084 30.3227972,34.9821902 C30.7681749,34.9695424 30.894405,35.1285428 30.8759468,35.5603733 C30.8449847,36.3096024 30.8235494,37.0648541 30.8789239,37.8140832 C30.9277488,38.4669483 30.7806789,38.6819602 30.0679555,38.6753352 C25.9464254,38.6319715 21.8225137,38.6626874 17.7009836,38.6440169 C16.9483668,38.6410056 16.3088806,38.8433697 15.7158376,39.3035071 C10.8327593,43.0990388 5.9711163,46.9252864 1.02909097,50.6431247 C-0.276675476,51.6284452 -0.408859768,53.163642 1.0320681,54.2585764 C5.94015421,57.9764146 10.7928658,61.771344 15.6545088,65.5548302 C16.3148349,66.0673655 17.0037413,66.3040592 17.8391222,66.3004456 C21.9636293,66.2757523 26.0851594,66.2974342 30.2090711,66.2757523 C30.7497168,66.272741 30.8819011,66.4154799 30.8789239,66.9599358 C30.8545115,70.8175016 30.86642,74.6780789 30.86642,78.5356448 C30.86642,80.4075128 31.4445774,80.9977415 33.2790811,80.9977415 C37.7352398,81.0007528 42.1913985,81.0007528 46.6475573,80.9977415 C48.4451446,80.9977415 49.0352105,80.4008878 49.0352105,78.5916563 C49.0381876,74.7063858 49.0447373,70.820513 49.0256837,66.9352425 C49.0256837,66.4498096 49.1179745,66.2480477 49.6496888,66.2757523 C50.5166272,66.3221274 51.3895199,66.2914115 52.2618171,66.2877978 C53.8539829,66.2823773 54.5303854,65.5885575 54.5303854,63.9600083 C54.5327671,60.1241242 54.5327671,56.2912516 54.5327671,52.4589812 C54.5327671,48.6008131 54.5327671,44.7402358 54.5303854,40.8826699 C54.5303854,39.3745755 53.8170666,38.6626874 52.3142145,38.6536533 C51.392497,38.650642 50.4701841,38.6343806 49.5484666,38.6626874 C49.1489366,38.6723238 49.0107981,38.5512667 49.0292562,38.1375044 C49.0596229,37.3882754 49.0810582,36.6330236 49.023302,35.8868059 C48.9709046,35.1965998 49.1519137,34.9671333 49.8866679,34.973156 C53.9831901,35.0135084 58.0791168,34.9888152 62.1792116,34.9978493 C62.8859807,34.9978493 63.5070087,34.8454739 64.0964792,34.3889501 C69.0170693,30.5590889 73.9614763,26.7575345 78.8909977,22.9336959 C80.3813458,21.780341 80.3599105,20.5342358 78.8850435,19.3965399" id="Fill-1" fill="#4A4A4A" mask="url(#mask-2)"></path>
            </g>
        </g>
    </g>
</svg>