<?xml version="1.0" encoding="utf-8"?>
<!-- Generator: Adobe Illustrator 22.1.0, SVG Export Plug-In . SVG Version: 6.00 Build 0)  -->
<svg version="1.1" id="Layer_1" xmlns="http://www.w3.org/2000/svg" xmlns:xlink="http://www.w3.org/1999/xlink" x="0px" y="0px"
   viewBox="0 0 562.8 525.1" style="enable-background:new 0 0 562.8 525.1;" xml:space="preserve">
<style type="text/css">
  .st0{clip-path:url(#SVGID_2_);}
  .st1{clip-path:url(#SVGID_4_);fill:#F9F9F9;}
  .st2{fill:none;stroke:#4B4B4B;stroke-width:10;stroke-miterlimit:10;}
  .st3{fill:none;stroke:#4B4B4B;stroke-width:10;stroke-linecap:round;stroke-miterlimit:10;}
</style>
<g>
  <defs>
    <circle id="SVGID_1_" cx="278.9" cy="262.5" r="255.4"/>
  </defs>
  <use xlink:href="#SVGID_1_"  style="overflow:visible;fill-rule:evenodd;clip-rule:evenodd;fill:#F9F9F9;"/>
  <clipPath id="SVGID_2_">
    <use xlink:href="#SVGID_1_"  style="overflow:visible;"/>
  </clipPath>
  <g class="st0">
    <defs>
      <rect id="SVGID_3_" x="-719.6" y="-6304.5" width="3352.3" height="9028.9"/>
    </defs>
    <use xlink:href="#SVGID_3_"  style="overflow:visible;fill:#F9F9F9;"/>
    <clipPath id="SVGID_4_">
      <use xlink:href="#SVGID_3_"  style="overflow:visible;"/>
    </clipPath>
    <rect x="7.2" y="-9.2" class="st1" width="543.4" height="543.4"/>
  </g>
</g>
<g>
  <path class="st2" d="M308.1,271.5H148.2c-1.7,0-3.1-1.4-3.1-3.1V139.2c0-1.7,1.4-3.1,3.1-3.1h159.9c1.7,0,3.1,1.4,3.1,3.1v129.1
    C311.2,270,309.8,271.5,308.1,271.5z"/>
  <path class="st2" d="M342.5,174.9h-16c-1,0-1.8-0.8-1.8-1.8v-16c0-1,0.8-1.8,1.8-1.8h16c1,0,1.8,0.8,1.8,1.8v16
    C344.3,174.1,343.5,174.9,342.5,174.9z"/>
  <path class="st2" d="M342.5,213.4h-16c-1,0-1.8-0.8-1.8-1.8v-16c0-1,0.8-1.8,1.8-1.8h16c1,0,1.8,0.8,1.8,1.8v16
    C344.3,212.7,343.5,213.4,342.5,213.4z"/>
  <path class="st2" d="M342.5,252h-16c-1,0-1.8-0.8-1.8-1.8v-16c0-1,0.8-1.8,1.8-1.8h16c1,0,1.8,0.8,1.8,1.8v16
    C344.3,251.2,343.5,252,342.5,252z"/>
  <path class="st2" d="M212.3,389.1h-65.5c-1,0-1.8-0.8-1.8-1.8v-65.5c0-1,0.8-1.8,1.8-1.8h65.5c1,0,1.8,0.8,1.8,1.8v65.5
    C214,388.2,213.2,389.1,212.3,389.1z"/>
  <path class="st2" d="M168.4,342.2v23.6c0,0.5,0.6,0.9,1.1,0.6l20.2-11.3c0.5-0.3,0.5-0.9,0-1.2l-20.2-12.2
    C169,341.4,168.4,341.8,168.4,342.2z"/>
  <path class="st2" d="M203.2,176.4V229c0,1.2,1.3,2,2.4,1.4l45.2-25.3c1.1-0.6,1.1-2.1,0-2.7l-45.2-27.3
    C204.6,174.5,203.2,175.2,203.2,176.4z"/>
  <path class="st2" d="M311.8,389.1h-65.4c-1,0-1.8-0.8-1.8-1.8v-65.5c0-1,0.8-1.8,1.8-1.8h65.5c1,0,1.8,0.8,1.8,1.8v65.5
    C313.6,388.2,312.8,389.1,311.8,389.1z"/>
  <path class="st2" d="M268,342.2v23.6c0,0.5,0.6,0.9,1.1,0.6l20.2-11.3c0.5-0.3,0.5-0.9,0-1.2l-20.2-12.2
    C268.6,341.4,268,341.8,268,342.2z"/>
  <path class="st2" d="M409.6,389.1h-65.5c-1,0-1.8-0.8-1.8-1.8v-65.5c0-1,0.8-1.8,1.8-1.8h65.5c1,0,1.8,0.8,1.8,1.8v65.5
    C411.4,388.2,410.6,389.1,409.6,389.1z"/>
  <path class="st2" d="M365.8,342.2v23.6c0,0.5,0.6,0.9,1.1,0.6l20.2-11.3c0.5-0.3,0.5-0.9,0-1.2l-20.2-12.2
    C366.4,341.4,365.8,341.8,365.8,342.2z"/>
  <path class="st2" d="M390.3,295.8H349c-6,0-10.8-4.9-10.8-10.8l0,0c0-6,4.9-10.8,10.8-10.8h41.3c6,0,10.8,4.9,10.8,10.8l0,0
    C401.1,290.9,396.2,295.8,390.3,295.8z"/>
  <circle class="st2" cx="192.4" cy="293.1" r="8.3"/>
  <line class="st3" x1="145" y1="293.1" x2="175.8" y2="293.1"/>
  <line class="st3" x1="210.4" y1="293.1" x2="311.2" y2="293.1"/>
  <line class="st3" x1="324.8" y1="136.1" x2="378.4" y2="136.1"/>
  <line class="st3" x1="357.1" y1="155.4" x2="412.8" y2="155.4"/>
  <line class="st3" x1="357.1" y1="174.9" x2="412.8" y2="174.9"/>
  <line class="st3" x1="357.1" y1="194.4" x2="412.8" y2="194.4"/>
  <line class="st3" x1="357.1" y1="213.9" x2="412.8" y2="213.9"/>
  <line class="st3" x1="357.1" y1="233.4" x2="412.8" y2="233.4"/>
  <line class="st3" x1="357.1" y1="252.9" x2="412.8" y2="252.9"/>
</g>
</svg>
