
<svg viewBox="0 0 16 16" version="1.1" xmlns="http://www.w3.org/2000/svg" xmlns:xlink="http://www.w3.org/1999/xlink">
    <g stroke="none" stroke-width="1" fill="none" fill-rule="evenodd">
        <g transform="translate(-971.000000, -1446.000000)" fill="#4A4A4A">
            <path d="M972.750029,1452 C972.750029,1449.656 974.656061,1447.75 977.0001,1447.75 C979.344139,1447.75 981.250171,1449.656 981.250171,1452 C981.250171,1454.344 979.344139,1456.25 977.0001,1456.25 C974.656061,1456.25 972.750029,1454.344 972.750029,1452 Z M985.744246,1459.506 L981.81018,1455.572 C982.554193,1454.572 983.0002,1453.339 983.0002,1452 C983.0002,1448.691 980.309155,1446 977.0001,1446 C973.692045,1446 971,1448.691 971,1452 C971,1455.309 973.692045,1458 977.0001,1458 C978.339122,1458 979.573143,1457.554 980.57216,1456.81 L984.506225,1460.744 C984.677228,1460.915 984.901232,1461 985.125235,1461 C985.349239,1461 985.573243,1460.915 985.744246,1460.744 C986.085251,1460.402 986.085251,1459.848 985.744246,1459.506 Z" id="search-copy"></path>
        </g>
    </g>
</svg>