<?xml version="1.0" encoding="UTF-8" standalone="no"?>
<svg
   xmlns:dc="http://purl.org/dc/elements/1.1/"
   xmlns:cc="http://creativecommons.org/ns#"
   xmlns:rdf="http://www.w3.org/1999/02/22-rdf-syntax-ns#"
   xmlns:svg="http://www.w3.org/2000/svg"
   xmlns="http://www.w3.org/2000/svg"
   xmlns:sodipodi="http://sodipodi.sourceforge.net/DTD/sodipodi-0.dtd"
   xmlns:inkscape="http://www.inkscape.org/namespaces/inkscape"
   viewBox="0 0 16 16"
   version="1.1"
   id="svg7"
   sodipodi:docname="icon-search-white.svg"
   inkscape:version="1.0.1 (3bc2e813f5, 2020-09-07)">
  <metadata
     id="metadata13">
    <rdf:RDF>
      <cc:Work
         rdf:about="">
        <dc:format>image/svg+xml</dc:format>
        <dc:type
           rdf:resource="http://purl.org/dc/dcmitype/StillImage" />
        <dc:title></dc:title>
      </cc:Work>
    </rdf:RDF>
  </metadata>
  <defs
     id="defs11" />
  <sodipodi:namedview
     pagecolor="#ffffff"
     bordercolor="#666666"
     borderopacity="1"
     objecttolerance="10"
     gridtolerance="10"
     guidetolerance="10"
     inkscape:pageopacity="0"
     inkscape:pageshadow="2"
     inkscape:window-width="3840"
     inkscape:window-height="2081"
     id="namedview9"
     showgrid="false"
     inkscape:zoom="63"
     inkscape:cx="4.9444444"
     inkscape:cy="8"
     inkscape:window-x="2391"
     inkscape:window-y="-9"
     inkscape:window-maximized="1"
     inkscape:current-layer="g5" />
  <g
     stroke="none"
     stroke-width="1"
     fill="none"
     fill-rule="evenodd"
     id="g5">
    <g
       transform="translate(-971.000000, -1446.000000)"
       fill="#4A4A4A"
       id="g3"
       style="fill:#ffffff;fill-opacity:1">
      <path
         d="M972.750029,1452 C972.750029,1449.656 974.656061,1447.75 977.0001,1447.75 C979.344139,1447.75 981.250171,1449.656 981.250171,1452 C981.250171,1454.344 979.344139,1456.25 977.0001,1456.25 C974.656061,1456.25 972.750029,1454.344 972.750029,1452 Z M985.744246,1459.506 L981.81018,1455.572 C982.554193,1454.572 983.0002,1453.339 983.0002,1452 C983.0002,1448.691 980.309155,1446 977.0001,1446 C973.692045,1446 971,1448.691 971,1452 C971,1455.309 973.692045,1458 977.0001,1458 C978.339122,1458 979.573143,1457.554 980.57216,1456.81 L984.506225,1460.744 C984.677228,1460.915 984.901232,1461 985.125235,1461 C985.349239,1461 985.573243,1460.915 985.744246,1460.744 C986.085251,1460.402 986.085251,1459.848 985.744246,1459.506 Z"
         id="search-copy"
         style="fill:#ffffff;fill-opacity:1" />
    </g>
  </g>
</svg>
