<?xml version="1.0" encoding="utf-8"?>
<!-- Generator: Adobe Illustrator 24.2.3, SVG Export Plug-In . SVG Version: 6.00 Build 0)  -->
<svg version="1.1" id="Layer_1" xmlns="http://www.w3.org/2000/svg" xmlns:xlink="http://www.w3.org/1999/xlink" x="0px" y="0px"
	 viewBox="0 0 238 50" enable-background="new 0 0 238 50" xml:space="preserve">
<g>
	<g>
		<g>
			<g>
				<path fill="#FFFFFF" d="M230.844,2.164h-0.91V1.57h2.587v0.594h-0.91V4.94h-0.768V2.164z"/>
				<path fill="#FFFFFF" d="M233.09,1.57h1.008l0.787,2.097l0.777-2.097h0.99V4.94h-0.759V2.574l-0.933,2.366h-0.25l-0.938-2.366
					V4.94h-0.683V1.57z"/>
			</g>
		</g>
		<g>
			<path fill="#FFFFFF" d="M46.148,34.609v14.442h-5.243V12.946h5.243v3.462c1.83-2.424,4.946-3.957,8.26-3.957
				c6.479,0,12.315,4.946,12.315,12.859c0,7.864-6.034,12.859-12.266,12.859C51.044,38.17,47.929,36.884,46.148,34.609z
				 M61.48,25.261c0-4.501-3.413-8.012-7.814-8.012c-4.501,0-7.814,3.611-7.814,8.012c0,4.451,3.314,8.062,7.814,8.062
				C58.068,33.323,61.48,29.762,61.48,25.261z"/>
			<path fill="#FFFFFF" d="M69.161,25.41c0-7.271,5.589-12.958,12.859-12.958c7.32,0,12.711,5.292,12.711,12.612v2.077H74.256
				c0.692,3.808,3.66,6.331,7.963,6.331c3.363,0,5.935-1.781,7.221-4.451l4.352,2.424c-2.176,4.056-6.084,6.727-11.573,6.727
				C74.404,38.17,69.161,32.581,69.161,25.41z M74.503,22.64h14.838c-0.791-3.561-3.512-5.539-7.32-5.539
				C78.36,17.101,75.492,19.376,74.503,22.64z"/>
			<path fill="#FFFFFF" d="M97.916,12.946h5.243v3.215c1.682-2.275,4.353-3.71,7.617-3.71c6.232,0,10.04,4.056,10.04,10.782v14.442
				h-5.342V23.679c0-4.056-2.028-6.628-5.985-6.628c-3.561,0-6.281,2.671-6.281,7.023v13.601h-5.292V12.946z"/>
			<path fill="#FFFFFF" d="M119.403,1.57h5.589l9.744,28.142l9.743-28.142h5.589l-12.612,36.105h-5.44L119.403,1.57z"/>
			<path fill="#FFFFFF" d="M152.071,1.57h5.391v36.105h-5.391V1.57z"/>
			<path fill="#FFFFFF" d="M162.377,1.57h6.084l18.3,27.302V1.57h5.341v36.105h-5.688L167.768,9.929v27.746h-5.391V1.57z"/>
		</g>
	</g>
	<path fill="#FFFFFF" d="M26.186,16.708c-0.48,0.982-1.465,1.665-2.65,1.665c-1.663,0-2.958-1.351-2.958-3.003
		c0-1.194,0.681-2.228,1.684-2.714c-0.897-0.388-1.889-0.604-2.942-0.604c-4.159,0-7.396,3.405-7.396,7.536
		c0,4.131,3.238,7.507,7.396,7.507c4.186,0,7.424-3.377,7.424-7.507C26.743,18.57,26.544,17.598,26.186,16.708z"/>
	<path fill="#FFFFFF" d="M0.81,19.598C0.81,9.36,9.07,1.051,19.308,1.051c10.288,0,18.547,8.309,18.547,18.547
		c0,10.238-8.26,18.547-18.547,18.547C9.07,38.145,0.81,29.836,0.81,19.598z M32.464,19.598c0-7.32-5.737-13.354-13.156-13.354
		c-7.369,0-13.107,6.034-13.107,13.354c0,7.32,5.737,13.304,13.107,13.304C26.727,32.903,32.464,26.918,32.464,19.598z"/>
	<path fill="#FFFFFF" d="M220.658,16.733c-0.48,0.982-1.465,1.665-2.65,1.665c-1.663,0-2.959-1.351-2.959-3.003
		c0-1.194,0.681-2.228,1.684-2.714c-0.897-0.388-1.889-0.604-2.942-0.604c-4.159,0-7.396,3.405-7.396,7.536
		c0,4.131,3.237,7.508,7.396,7.508c4.187,0,7.424-3.377,7.424-7.508C221.214,18.595,221.016,17.622,220.658,16.733z"/>
	<path fill="#FFFFFF" d="M195.282,19.623c0-10.238,8.259-18.547,18.497-18.547c10.288,0,18.547,8.309,18.547,18.547
		c0,10.238-8.26,18.547-18.547,18.547C203.541,38.17,195.282,29.861,195.282,19.623z M226.936,19.623
		c0-7.32-5.737-13.354-13.156-13.354c-7.369,0-13.107,6.034-13.107,13.354c0,7.32,5.737,13.304,13.107,13.304
		C221.199,32.927,226.936,26.943,226.936,19.623z"/>
</g>
</svg>
