<svg width="949" height="100" viewBox="0 0 949 100" fill="none" xmlns="http://www.w3.org/2000/svg">
<rect x="20" y="10" width="164" height="80" fill="#00285A"/>
<path d="M59.144 44V34.442L56.39 35.828L55.364 33.83L59.45 31.814H61.718V44H59.144ZM65.7995 44V41.264H68.5715V44H65.7995ZM77.8981 44H75.2701V31.58H77.8981V44ZM80.592 34.91H82.05C82.662 34.91 82.968 35.174 82.968 35.702V36.368C83.208 35.852 83.586 35.444 84.102 35.144C84.618 34.832 85.236 34.676 85.956 34.676C86.928 34.676 87.678 34.958 88.206 35.522C88.746 36.086 89.016 36.932 89.016 38.06V44H86.46V38.24C86.46 37.184 85.992 36.656 85.056 36.656C84.468 36.656 84 36.866 83.652 37.286C83.316 37.706 83.148 38.288 83.148 39.032V44H80.592V34.91ZM94.064 44H91.508V34.91H94.064V44ZM91.49 31.184H94.082V33.506H91.49V31.184ZM101.502 42.038V43.946C101.31 43.994 101.1 44.03 100.872 44.054C100.644 44.078 100.374 44.09 100.062 44.09C98.9821 44.09 98.1901 43.844 97.6861 43.352C97.1821 42.848 96.9301 42.032 96.9301 40.904V36.854H95.5801V34.91H96.9301V32.732H99.4861V34.91H101.502V36.854H99.4861V40.67C99.4861 41.21 99.6061 41.576 99.8461 41.768C100.086 41.948 100.518 42.038 101.142 42.038H101.502ZM105.718 44H103.162V34.91H105.718V44ZM103.144 31.184H105.736V33.506H103.144V31.184ZM107.558 41.444C107.558 40.496 107.9 39.776 108.584 39.284C109.268 38.78 110.21 38.528 111.41 38.528H112.886V38.168C112.886 37.64 112.742 37.256 112.454 37.016C112.178 36.764 111.734 36.638 111.122 36.638C110.666 36.638 110.228 36.704 109.808 36.836C109.388 36.968 109.004 37.154 108.656 37.394L107.774 35.9C108.278 35.516 108.848 35.216 109.484 35C110.12 34.784 110.804 34.676 111.536 34.676C112.784 34.676 113.72 34.976 114.344 35.576C114.98 36.176 115.298 37.04 115.298 38.168V41.66C115.298 41.936 115.346 42.122 115.442 42.218C115.538 42.302 115.712 42.344 115.964 42.344H116.162V43.91C116.03 43.958 115.874 44 115.694 44.036C115.514 44.072 115.298 44.09 115.046 44.09C114.518 44.09 114.122 43.982 113.858 43.766C113.594 43.55 113.438 43.232 113.39 42.812C113.174 43.244 112.814 43.586 112.31 43.838C111.806 44.09 111.23 44.216 110.582 44.216C109.67 44.216 108.938 43.97 108.386 43.478C107.834 42.986 107.558 42.308 107.558 41.444ZM111.23 42.38C111.746 42.38 112.148 42.212 112.436 41.876C112.736 41.54 112.886 41.066 112.886 40.454V39.986H111.644C111.116 39.986 110.708 40.094 110.42 40.31C110.144 40.514 110.006 40.826 110.006 41.246C110.006 41.63 110.114 41.918 110.33 42.11C110.558 42.29 110.858 42.38 111.23 42.38ZM120.343 31.094V40.904C120.343 41.384 120.415 41.702 120.559 41.858C120.715 42.002 121.021 42.074 121.477 42.074H121.639V44C121.375 44.06 120.991 44.09 120.487 44.09C119.515 44.09 118.819 43.85 118.399 43.37C117.991 42.89 117.787 42.17 117.787 41.21V31.094H120.343ZM126.074 44H123.518V34.91H126.074V44ZM123.5 31.184H126.092V33.506H123.5V31.184ZM130.83 42.056H135.87V44H127.842V42.272L132.792 36.854H128.004V34.91H135.816V36.656L130.83 42.056ZM139.613 40.004C139.709 40.796 139.973 41.372 140.405 41.732C140.849 42.08 141.461 42.254 142.241 42.254C142.661 42.254 143.063 42.2 143.447 42.092C143.831 41.984 144.173 41.828 144.473 41.624L145.337 43.136C144.485 43.868 143.363 44.234 141.971 44.234C141.143 44.234 140.423 44.114 139.811 43.874C139.211 43.622 138.707 43.28 138.299 42.848C137.903 42.416 137.609 41.906 137.417 41.318C137.225 40.73 137.129 40.1 137.129 39.428C137.129 38.648 137.249 37.964 137.489 37.376C137.729 36.776 138.053 36.278 138.461 35.882C138.881 35.486 139.367 35.186 139.919 34.982C140.483 34.778 141.077 34.676 141.701 34.676C142.337 34.676 142.901 34.778 143.393 34.982C143.885 35.174 144.293 35.45 144.617 35.81C144.953 36.17 145.205 36.602 145.373 37.106C145.553 37.598 145.643 38.15 145.643 38.762C145.643 38.966 145.631 39.182 145.607 39.41C145.595 39.626 145.565 39.824 145.517 40.004H139.613ZM141.701 36.548C141.125 36.548 140.657 36.722 140.297 37.07C139.937 37.418 139.727 37.898 139.667 38.51H143.339V38.276C143.339 37.724 143.189 37.298 142.889 36.998C142.601 36.698 142.205 36.548 141.701 36.548ZM94.2249 67.136C93.7569 67.484 93.1929 67.76 92.5329 67.964C91.8849 68.168 91.1469 68.27 90.3189 68.27C89.3229 68.27 88.4409 68.12 87.6729 67.82C86.9049 67.508 86.2569 67.076 85.7289 66.524C85.2009 65.96 84.7989 65.282 84.5229 64.49C84.2469 63.686 84.1089 62.792 84.1089 61.808C84.1089 60.776 84.2589 59.858 84.5589 59.054C84.8589 58.238 85.2849 57.554 85.8369 57.002C86.3889 56.45 87.0489 56.03 87.8169 55.742C88.5969 55.454 89.4669 55.31 90.4269 55.31C91.9389 55.31 93.1569 55.664 94.0809 56.372L93.1089 58.19C92.7369 57.938 92.3409 57.758 91.9209 57.65C91.5129 57.53 91.0809 57.47 90.6249 57.47C89.3889 57.47 88.4469 57.842 87.7989 58.586C87.1629 59.33 86.8449 60.404 86.8449 61.808C86.8449 63.2 87.1629 64.262 87.7989 64.994C88.4469 65.726 89.3889 66.092 90.6249 66.092C91.1649 66.092 91.6509 66.026 92.0829 65.894C92.5149 65.75 92.9049 65.558 93.2529 65.318L94.2249 67.136ZM104.328 63.446C104.328 64.202 104.214 64.88 103.986 65.48C103.77 66.068 103.458 66.566 103.05 66.974C102.642 67.382 102.15 67.694 101.574 67.91C100.998 68.126 100.356 68.234 99.6479 68.234C98.9399 68.234 98.2979 68.126 97.7219 67.91C97.1459 67.694 96.6539 67.382 96.2459 66.974C95.8379 66.566 95.5199 66.068 95.2919 65.48C95.0759 64.88 94.9679 64.202 94.9679 63.446C94.9679 62.69 95.0759 62.018 95.2919 61.43C95.5199 60.842 95.8379 60.344 96.2459 59.936C96.6539 59.528 97.1459 59.216 97.7219 59C98.2979 58.784 98.9399 58.676 99.6479 58.676C100.356 58.676 100.998 58.784 101.574 59C102.15 59.216 102.642 59.528 103.05 59.936C103.458 60.344 103.77 60.842 103.986 61.43C104.214 62.018 104.328 62.69 104.328 63.446ZM101.718 63.446C101.718 62.522 101.538 61.826 101.178 61.358C100.83 60.89 100.32 60.656 99.6479 60.656C98.9759 60.656 98.4599 60.89 98.0999 61.358C97.7519 61.826 97.5779 62.522 97.5779 63.446C97.5779 64.382 97.7519 65.084 98.0999 65.552C98.4599 66.02 98.9759 66.254 99.6479 66.254C100.32 66.254 100.83 66.02 101.178 65.552C101.538 65.084 101.718 64.382 101.718 63.446ZM106.335 58.91H107.793C108.405 58.91 108.711 59.174 108.711 59.702V60.818C108.903 60.206 109.221 59.72 109.665 59.36C110.121 58.988 110.685 58.802 111.357 58.802C111.633 58.802 111.873 58.832 112.077 58.892V60.98H111.555C110.643 60.98 109.971 61.214 109.539 61.682C109.107 62.15 108.891 62.93 108.891 64.022V68H106.335V58.91ZM115.083 64.004C115.179 64.796 115.443 65.372 115.875 65.732C116.319 66.08 116.931 66.254 117.711 66.254C118.131 66.254 118.533 66.2 118.917 66.092C119.301 65.984 119.643 65.828 119.943 65.624L120.807 67.136C119.955 67.868 118.833 68.234 117.441 68.234C116.613 68.234 115.893 68.114 115.281 67.874C114.681 67.622 114.177 67.28 113.769 66.848C113.373 66.416 113.079 65.906 112.887 65.318C112.695 64.73 112.599 64.1 112.599 63.428C112.599 62.648 112.719 61.964 112.959 61.376C113.199 60.776 113.523 60.278 113.931 59.882C114.351 59.486 114.837 59.186 115.389 58.982C115.953 58.778 116.547 58.676 117.171 58.676C117.807 58.676 118.371 58.778 118.863 58.982C119.355 59.174 119.763 59.45 120.087 59.81C120.423 60.17 120.675 60.602 120.843 61.106C121.023 61.598 121.113 62.15 121.113 62.762C121.113 62.966 121.101 63.182 121.077 63.41C121.065 63.626 121.035 63.824 120.987 64.004H115.083ZM117.171 60.548C116.595 60.548 116.127 60.722 115.767 61.07C115.407 61.418 115.197 61.898 115.137 62.51H118.809V62.276C118.809 61.724 118.659 61.298 118.359 60.998C118.071 60.698 117.675 60.548 117.171 60.548Z" fill="white"/>
<rect x="20" y="10" width="164" height="80" fill="#00285A"/>
<path d="M67.5895 41.948H73.1695V44H64.9615V31.58H67.5895V41.948ZM77.1988 44H74.6428V34.91H77.1988V44ZM74.6248 31.184H77.2168V33.506H74.6248V31.184ZM79.7229 34.91H81.1809C81.7929 34.91 82.0989 35.174 82.0989 35.702V36.368C82.3389 35.852 82.7169 35.444 83.2329 35.144C83.7489 34.832 84.3669 34.676 85.0869 34.676C86.0589 34.676 86.8089 34.958 87.3369 35.522C87.8769 36.086 88.1469 36.932 88.1469 38.06V44H85.5909V38.24C85.5909 37.184 85.1229 36.656 84.1869 36.656C83.5989 36.656 83.1309 36.866 82.7829 37.286C82.4469 37.706 82.2789 38.288 82.2789 39.032V44H79.7229V34.91ZM93.1949 39.824V44H90.6389V31.094H93.1949V38.114H93.4289C93.6209 38.114 93.7829 38.078 93.9149 38.006C94.0469 37.922 94.1729 37.796 94.2929 37.628L96.3089 34.91H99.1529L96.0569 38.942L99.5669 44H96.5429L94.4009 40.49C94.2329 40.226 94.0829 40.052 93.9509 39.968C93.8309 39.872 93.6389 39.824 93.3749 39.824H93.1949ZM113.797 41.534L115.165 34.91H117.829L115.021 44H112.555L110.935 38.222L109.297 44H106.831L104.041 34.91H106.759L108.181 41.498L109.837 35.576H112.213L113.797 41.534ZM121.724 44H119.168V34.91H121.724V44ZM119.15 31.184H121.742V33.506H119.15V31.184ZM129.162 42.038V43.946C128.97 43.994 128.76 44.03 128.532 44.054C128.304 44.078 128.034 44.09 127.722 44.09C126.642 44.09 125.85 43.844 125.346 43.352C124.842 42.848 124.59 42.032 124.59 40.904V36.854H123.24V34.91H124.59V32.732H127.146V34.91H129.162V36.854H127.146V40.67C127.146 41.21 127.266 41.576 127.506 41.768C127.746 41.948 128.178 42.038 128.802 42.038H129.162ZM130.823 31.094H133.379V36.062C133.655 35.63 134.027 35.294 134.495 35.054C134.975 34.802 135.527 34.676 136.151 34.676C137.183 34.676 137.957 34.97 138.473 35.558C138.989 36.134 139.247 36.968 139.247 38.06V44H136.691V38.24C136.691 37.184 136.223 36.656 135.287 36.656C134.711 36.656 134.249 36.866 133.901 37.286C133.553 37.694 133.379 38.27 133.379 39.014V44H130.823V31.094ZM36.2154 68H33.6594V58.91H36.2154V68ZM33.6414 55.184H36.2334V57.506H33.6414V55.184ZM38.7395 58.91H40.1975C40.8095 58.91 41.1155 59.174 41.1155 59.702V60.368C41.3555 59.852 41.7335 59.444 42.2495 59.144C42.7655 58.832 43.3835 58.676 44.1035 58.676C45.0755 58.676 45.8255 58.958 46.3535 59.522C46.8935 60.086 47.1635 60.932 47.1635 62.06V68H44.6075V62.24C44.6075 61.184 44.1395 60.656 43.2035 60.656C42.6155 60.656 42.1475 60.866 41.7995 61.286C41.4635 61.706 41.2955 62.288 41.2955 63.032V68H38.7395V58.91ZM54.8215 57.092H54.4075C53.7355 57.092 53.2495 57.194 52.9495 57.398C52.6615 57.59 52.5175 57.992 52.5175 58.604V58.91H54.7315V60.854H52.5175V68H49.9615V60.854H48.6115V58.91H49.9615V58.244C49.9615 57.188 50.2675 56.39 50.8795 55.85C51.4915 55.31 52.3795 55.04 53.5435 55.04C53.7475 55.04 53.9695 55.052 54.2095 55.076C54.4495 55.088 54.6535 55.118 54.8215 55.166V57.092ZM57.9812 64.004C58.0772 64.796 58.3412 65.372 58.7732 65.732C59.2172 66.08 59.8292 66.254 60.6092 66.254C61.0292 66.254 61.4312 66.2 61.8152 66.092C62.1992 65.984 62.5412 65.828 62.8412 65.624L63.7052 67.136C62.8532 67.868 61.7312 68.234 60.3392 68.234C59.5112 68.234 58.7912 68.114 58.1792 67.874C57.5792 67.622 57.0752 67.28 56.6672 66.848C56.2712 66.416 55.9772 65.906 55.7852 65.318C55.5932 64.73 55.4972 64.1 55.4972 63.428C55.4972 62.648 55.6172 61.964 55.8572 61.376C56.0972 60.776 56.4212 60.278 56.8292 59.882C57.2492 59.486 57.7352 59.186 58.2872 58.982C58.8512 58.778 59.4452 58.676 60.0692 58.676C60.7052 58.676 61.2692 58.778 61.7612 58.982C62.2532 59.174 62.6612 59.45 62.9852 59.81C63.3212 60.17 63.5732 60.602 63.7412 61.106C63.9212 61.598 64.0112 62.15 64.0112 62.762C64.0112 62.966 63.9992 63.182 63.9752 63.41C63.9632 63.626 63.9332 63.824 63.8852 64.004H57.9812ZM60.0692 60.548C59.4932 60.548 59.0252 60.722 58.6652 61.07C58.3052 61.418 58.0952 61.898 58.0352 62.51H61.7072V62.276C61.7072 61.724 61.5572 61.298 61.2572 60.998C60.9692 60.698 60.5732 60.548 60.0692 60.548ZM65.9856 58.91H67.4436C68.0556 58.91 68.3616 59.174 68.3616 59.702V60.818C68.5536 60.206 68.8716 59.72 69.3156 59.36C69.7716 58.988 70.3356 58.802 71.0076 58.802C71.2836 58.802 71.5236 58.832 71.7276 58.892V60.98H71.2056C70.2936 60.98 69.6216 61.214 69.1896 61.682C68.7576 62.15 68.5416 62.93 68.5416 64.022V68H65.9856V58.91ZM74.7332 64.004C74.8292 64.796 75.0932 65.372 75.5252 65.732C75.9692 66.08 76.5812 66.254 77.3612 66.254C77.7812 66.254 78.1832 66.2 78.5672 66.092C78.9512 65.984 79.2932 65.828 79.5932 65.624L80.4572 67.136C79.6052 67.868 78.4832 68.234 77.0912 68.234C76.2632 68.234 75.5432 68.114 74.9312 67.874C74.3312 67.622 73.8272 67.28 73.4192 66.848C73.0232 66.416 72.7292 65.906 72.5372 65.318C72.3452 64.73 72.2492 64.1 72.2492 63.428C72.2492 62.648 72.3692 61.964 72.6092 61.376C72.8492 60.776 73.1732 60.278 73.5812 59.882C74.0012 59.486 74.4872 59.186 75.0392 58.982C75.6032 58.778 76.1972 58.676 76.8212 58.676C77.4572 58.676 78.0212 58.778 78.5132 58.982C79.0052 59.174 79.4132 59.45 79.7372 59.81C80.0732 60.17 80.3252 60.602 80.4932 61.106C80.6732 61.598 80.7632 62.15 80.7632 62.762C80.7632 62.966 80.7512 63.182 80.7272 63.41C80.7152 63.626 80.6852 63.824 80.6372 64.004H74.7332ZM76.8212 60.548C76.2452 60.548 75.7772 60.722 75.4172 61.07C75.0572 61.418 74.8472 61.898 74.7872 62.51H78.4592V62.276C78.4592 61.724 78.3092 61.298 78.0092 60.998C77.7212 60.698 77.3252 60.548 76.8212 60.548ZM82.7375 58.91H84.1955C84.8075 58.91 85.1135 59.174 85.1135 59.702V60.368C85.3535 59.852 85.7315 59.444 86.2475 59.144C86.7635 58.832 87.3815 58.676 88.1015 58.676C89.0735 58.676 89.8235 58.958 90.3515 59.522C90.8915 60.086 91.1615 60.932 91.1615 62.06V68H88.6055V62.24C88.6055 61.184 88.1375 60.656 87.2015 60.656C86.6135 60.656 86.1455 60.866 85.7975 61.286C85.4615 61.706 85.2935 62.288 85.2935 63.032V68H82.7375V58.91ZM95.7596 63.446C95.7596 64.334 95.9636 65.012 96.3716 65.48C96.7916 65.936 97.4216 66.164 98.2616 66.164C98.6096 66.164 98.9456 66.122 99.2696 66.038C99.6056 65.942 99.8936 65.81 100.134 65.642L100.89 67.388C100.542 67.64 100.122 67.844 99.6296 68C99.1376 68.156 98.5676 68.234 97.9196 68.234C97.1756 68.234 96.5096 68.126 95.9216 67.91C95.3336 67.682 94.8356 67.364 94.4276 66.956C94.0196 66.548 93.7016 66.05 93.4736 65.462C93.2576 64.874 93.1496 64.208 93.1496 63.464C93.1496 62.72 93.2636 62.054 93.4916 61.466C93.7196 60.878 94.0376 60.38 94.4456 59.972C94.8656 59.552 95.3696 59.234 95.9576 59.018C96.5576 58.79 97.2296 58.676 97.9736 58.676C98.5736 58.676 99.1076 58.748 99.5756 58.892C100.044 59.036 100.452 59.228 100.8 59.468L100.026 61.214C99.7976 61.058 99.5336 60.944 99.2336 60.872C98.9336 60.788 98.6156 60.746 98.2796 60.746C97.5116 60.746 96.8996 60.968 96.4436 61.412C95.9876 61.844 95.7596 62.522 95.7596 63.446ZM104.317 64.004C104.413 64.796 104.677 65.372 105.109 65.732C105.553 66.08 106.165 66.254 106.945 66.254C107.365 66.254 107.767 66.2 108.151 66.092C108.535 65.984 108.877 65.828 109.177 65.624L110.041 67.136C109.189 67.868 108.067 68.234 106.675 68.234C105.847 68.234 105.127 68.114 104.515 67.874C103.915 67.622 103.411 67.28 103.003 66.848C102.607 66.416 102.313 65.906 102.121 65.318C101.929 64.73 101.833 64.1 101.833 63.428C101.833 62.648 101.953 61.964 102.193 61.376C102.433 60.776 102.757 60.278 103.165 59.882C103.585 59.486 104.071 59.186 104.623 58.982C105.187 58.778 105.781 58.676 106.405 58.676C107.041 58.676 107.605 58.778 108.097 58.982C108.589 59.174 108.997 59.45 109.321 59.81C109.657 60.17 109.909 60.602 110.077 61.106C110.257 61.598 110.347 62.15 110.347 62.762C110.347 62.966 110.335 63.182 110.311 63.41C110.299 63.626 110.269 63.824 110.221 64.004H104.317ZM106.405 60.548C105.829 60.548 105.361 60.722 105.001 61.07C104.641 61.418 104.431 61.898 104.371 62.51H108.043V62.276C108.043 61.724 107.893 61.298 107.593 60.998C107.305 60.698 106.909 60.548 106.405 60.548ZM119.236 55.094V64.904C119.236 65.384 119.308 65.702 119.452 65.858C119.608 66.002 119.914 66.074 120.37 66.074H120.532V68C120.268 68.06 119.884 68.09 119.38 68.09C118.408 68.09 117.712 67.85 117.292 67.37C116.884 66.89 116.68 66.17 116.68 65.21V55.094H119.236ZM124.967 68H122.411V58.91H124.967V68ZM122.393 55.184H124.985V57.506H122.393V55.184ZM127.491 55.094H130.047V60.134C130.335 59.666 130.737 59.306 131.253 59.054C131.769 58.802 132.351 58.676 132.999 58.676C134.127 58.676 135.015 59.078 135.663 59.882C136.323 60.674 136.653 61.796 136.653 63.248C136.653 63.992 136.563 64.67 136.383 65.282C136.215 65.894 135.963 66.422 135.627 66.866C135.291 67.298 134.883 67.634 134.403 67.874C133.935 68.114 133.401 68.234 132.801 68.234C132.249 68.234 131.697 68.114 131.145 67.874C130.605 67.634 130.185 67.214 129.885 66.614V67.19C129.885 67.73 129.579 68 128.967 68H127.491V55.094ZM129.975 63.572C129.975 64.412 130.143 65.072 130.479 65.552C130.827 66.02 131.337 66.254 132.009 66.254C132.693 66.254 133.203 66.002 133.539 65.498C133.875 64.982 134.043 64.286 134.043 63.41C134.043 62.522 133.881 61.844 133.557 61.376C133.233 60.896 132.747 60.656 132.099 60.656C131.415 60.656 130.887 60.92 130.515 61.448C130.155 61.964 129.975 62.672 129.975 63.572ZM138.671 58.91H140.129C140.741 58.91 141.047 59.174 141.047 59.702V60.818C141.239 60.206 141.557 59.72 142.001 59.36C142.457 58.988 143.021 58.802 143.693 58.802C143.969 58.802 144.209 58.832 144.413 58.892V60.98H143.891C142.979 60.98 142.307 61.214 141.875 61.682C141.443 62.15 141.227 62.93 141.227 64.022V68H138.671V58.91ZM145.018 65.444C145.018 64.496 145.36 63.776 146.044 63.284C146.728 62.78 147.67 62.528 148.87 62.528H150.346V62.168C150.346 61.64 150.202 61.256 149.914 61.016C149.638 60.764 149.194 60.638 148.582 60.638C148.126 60.638 147.688 60.704 147.268 60.836C146.848 60.968 146.464 61.154 146.116 61.394L145.234 59.9C145.738 59.516 146.308 59.216 146.944 59C147.58 58.784 148.264 58.676 148.996 58.676C150.244 58.676 151.18 58.976 151.804 59.576C152.44 60.176 152.758 61.04 152.758 62.168V65.66C152.758 65.936 152.806 66.122 152.902 66.218C152.998 66.302 153.172 66.344 153.424 66.344H153.622V67.91C153.49 67.958 153.334 68 153.154 68.036C152.974 68.072 152.758 68.09 152.506 68.09C151.978 68.09 151.582 67.982 151.318 67.766C151.054 67.55 150.898 67.232 150.85 66.812C150.634 67.244 150.274 67.586 149.77 67.838C149.266 68.09 148.69 68.216 148.042 68.216C147.13 68.216 146.398 67.97 145.846 67.478C145.294 66.986 145.018 66.308 145.018 65.444ZM148.69 66.38C149.206 66.38 149.608 66.212 149.896 65.876C150.196 65.54 150.346 65.066 150.346 64.454V63.986H149.104C148.576 63.986 148.168 64.094 147.88 64.31C147.604 64.514 147.466 64.826 147.466 65.246C147.466 65.63 147.574 65.918 147.79 66.11C148.018 66.29 148.318 66.38 148.69 66.38ZM155.282 58.91H156.74C157.352 58.91 157.658 59.174 157.658 59.702V60.818C157.85 60.206 158.168 59.72 158.612 59.36C159.068 58.988 159.632 58.802 160.304 58.802C160.58 58.802 160.82 58.832 161.024 58.892V60.98H160.502C159.59 60.98 158.918 61.214 158.486 61.682C158.054 62.15 157.838 62.93 157.838 64.022V68H155.282V58.91ZM164.81 58.91L166.862 65.858L168.878 58.91H171.56L167.564 69.404C167.396 69.836 167.216 70.208 167.024 70.52C166.832 70.844 166.604 71.108 166.34 71.312C166.088 71.528 165.794 71.684 165.458 71.78C165.122 71.876 164.726 71.924 164.27 71.924C164.03 71.924 163.82 71.912 163.64 71.888C163.472 71.864 163.322 71.84 163.19 71.816V69.89H163.676C164 69.89 164.264 69.866 164.468 69.818C164.684 69.77 164.864 69.686 165.008 69.566C165.152 69.446 165.278 69.284 165.386 69.08C165.494 68.876 165.608 68.618 165.728 68.306L162.074 58.91H164.81Z" fill="white"/>
<rect x="267" y="10" width="164" height="80" fill="#00285A"/>
<path d="M337.472 44.27C335.744 44.27 334.454 43.82 333.602 42.92C332.75 42.008 332.324 40.676 332.324 38.924V31.58H334.952V39.212C334.952 40.16 335.156 40.88 335.564 41.372C335.984 41.864 336.62 42.11 337.472 42.11C338.312 42.11 338.936 41.864 339.344 41.372C339.764 40.88 339.974 40.16 339.974 39.212V31.58H342.602V38.924C342.602 40.688 342.17 42.02 341.306 42.92C340.454 43.82 339.176 44.27 337.472 44.27ZM348.698 36.62C348.278 36.62 347.948 36.692 347.708 36.836C347.468 36.968 347.348 37.172 347.348 37.448C347.348 37.676 347.42 37.856 347.564 37.988C347.708 38.108 347.9 38.204 348.14 38.276L349.508 38.69C350.348 38.942 350.966 39.272 351.362 39.68C351.77 40.076 351.974 40.616 351.974 41.3C351.974 42.212 351.632 42.932 350.948 43.46C350.276 43.976 349.352 44.234 348.176 44.234C347.432 44.234 346.748 44.132 346.124 43.928C345.5 43.712 344.948 43.412 344.468 43.028L345.422 41.408C345.818 41.684 346.244 41.9 346.7 42.056C347.168 42.212 347.624 42.29 348.068 42.29C348.488 42.29 348.818 42.212 349.058 42.056C349.298 41.9 349.418 41.66 349.418 41.336C349.418 41.12 349.352 40.946 349.22 40.814C349.1 40.67 348.884 40.55 348.572 40.454L347.078 40.022C346.334 39.806 345.764 39.494 345.368 39.086C344.984 38.666 344.792 38.12 344.792 37.448C344.792 36.992 344.882 36.596 345.062 36.26C345.242 35.912 345.488 35.624 345.8 35.396C346.124 35.156 346.508 34.976 346.952 34.856C347.396 34.736 347.882 34.676 348.41 34.676C349.058 34.676 349.688 34.766 350.3 34.946C350.912 35.114 351.428 35.354 351.848 35.666L351.038 37.286C350.294 36.842 349.514 36.62 348.698 36.62ZM355.905 40.004C356.001 40.796 356.265 41.372 356.697 41.732C357.141 42.08 357.753 42.254 358.533 42.254C358.953 42.254 359.355 42.2 359.739 42.092C360.123 41.984 360.465 41.828 360.765 41.624L361.629 43.136C360.777 43.868 359.655 44.234 358.263 44.234C357.435 44.234 356.715 44.114 356.103 43.874C355.503 43.622 354.999 43.28 354.591 42.848C354.195 42.416 353.901 41.906 353.709 41.318C353.517 40.73 353.421 40.1 353.421 39.428C353.421 38.648 353.541 37.964 353.781 37.376C354.021 36.776 354.345 36.278 354.753 35.882C355.173 35.486 355.659 35.186 356.211 34.982C356.775 34.778 357.369 34.676 357.993 34.676C358.629 34.676 359.193 34.778 359.685 34.982C360.177 35.174 360.585 35.45 360.909 35.81C361.245 36.17 361.497 36.602 361.665 37.106C361.845 37.598 361.935 38.15 361.935 38.762C361.935 38.966 361.923 39.182 361.899 39.41C361.887 39.626 361.857 39.824 361.809 40.004H355.905ZM357.993 36.548C357.417 36.548 356.949 36.722 356.589 37.07C356.229 37.418 356.019 37.898 355.959 38.51H359.631V38.276C359.631 37.724 359.481 37.298 359.181 36.998C358.893 36.698 358.497 36.548 357.993 36.548ZM296.882 68H294.326V58.91H296.882V68ZM294.308 55.184H296.9V57.506H294.308V55.184ZM299.406 58.91H300.864C301.476 58.91 301.782 59.174 301.782 59.702V60.368C302.022 59.852 302.4 59.444 302.916 59.144C303.432 58.832 304.05 58.676 304.77 58.676C305.742 58.676 306.492 58.958 307.02 59.522C307.56 60.086 307.83 60.932 307.83 62.06V68H305.274V62.24C305.274 61.184 304.806 60.656 303.87 60.656C303.282 60.656 302.814 60.866 302.466 61.286C302.13 61.706 301.962 62.288 301.962 63.032V68H299.406V58.91ZM315.489 57.092H315.075C314.403 57.092 313.917 57.194 313.617 57.398C313.329 57.59 313.185 57.992 313.185 58.604V58.91H315.399V60.854H313.185V68H310.629V60.854H309.279V58.91H310.629V58.244C310.629 57.188 310.935 56.39 311.547 55.85C312.159 55.31 313.047 55.04 314.211 55.04C314.415 55.04 314.637 55.052 314.877 55.076C315.117 55.088 315.321 55.118 315.489 55.166V57.092ZM318.648 64.004C318.744 64.796 319.008 65.372 319.44 65.732C319.884 66.08 320.496 66.254 321.276 66.254C321.696 66.254 322.098 66.2 322.482 66.092C322.866 65.984 323.208 65.828 323.508 65.624L324.372 67.136C323.52 67.868 322.398 68.234 321.006 68.234C320.178 68.234 319.458 68.114 318.846 67.874C318.246 67.622 317.742 67.28 317.334 66.848C316.938 66.416 316.644 65.906 316.452 65.318C316.26 64.73 316.164 64.1 316.164 63.428C316.164 62.648 316.284 61.964 316.524 61.376C316.764 60.776 317.088 60.278 317.496 59.882C317.916 59.486 318.402 59.186 318.954 58.982C319.518 58.778 320.112 58.676 320.736 58.676C321.372 58.676 321.936 58.778 322.428 58.982C322.92 59.174 323.328 59.45 323.652 59.81C323.988 60.17 324.24 60.602 324.408 61.106C324.588 61.598 324.678 62.15 324.678 62.762C324.678 62.966 324.666 63.182 324.642 63.41C324.63 63.626 324.6 63.824 324.552 64.004H318.648ZM320.736 60.548C320.16 60.548 319.692 60.722 319.332 61.07C318.972 61.418 318.762 61.898 318.702 62.51H322.374V62.276C322.374 61.724 322.224 61.298 321.924 60.998C321.636 60.698 321.24 60.548 320.736 60.548ZM326.653 58.91H328.111C328.723 58.91 329.029 59.174 329.029 59.702V60.818C329.221 60.206 329.539 59.72 329.983 59.36C330.439 58.988 331.003 58.802 331.675 58.802C331.951 58.802 332.191 58.832 332.395 58.892V60.98H331.873C330.961 60.98 330.289 61.214 329.857 61.682C329.425 62.15 329.209 62.93 329.209 64.022V68H326.653V58.91ZM335.4 64.004C335.496 64.796 335.76 65.372 336.192 65.732C336.636 66.08 337.248 66.254 338.028 66.254C338.448 66.254 338.85 66.2 339.234 66.092C339.618 65.984 339.96 65.828 340.26 65.624L341.124 67.136C340.272 67.868 339.15 68.234 337.758 68.234C336.93 68.234 336.21 68.114 335.598 67.874C334.998 67.622 334.494 67.28 334.086 66.848C333.69 66.416 333.396 65.906 333.204 65.318C333.012 64.73 332.916 64.1 332.916 63.428C332.916 62.648 333.036 61.964 333.276 61.376C333.516 60.776 333.84 60.278 334.248 59.882C334.668 59.486 335.154 59.186 335.706 58.982C336.27 58.778 336.864 58.676 337.488 58.676C338.124 58.676 338.688 58.778 339.18 58.982C339.672 59.174 340.08 59.45 340.404 59.81C340.74 60.17 340.992 60.602 341.16 61.106C341.34 61.598 341.43 62.15 341.43 62.762C341.43 62.966 341.418 63.182 341.394 63.41C341.382 63.626 341.352 63.824 341.304 64.004H335.4ZM337.488 60.548C336.912 60.548 336.444 60.722 336.084 61.07C335.724 61.418 335.514 61.898 335.454 62.51H339.126V62.276C339.126 61.724 338.976 61.298 338.676 60.998C338.388 60.698 337.992 60.548 337.488 60.548ZM343.405 58.91H344.863C345.475 58.91 345.781 59.174 345.781 59.702V60.368C346.021 59.852 346.399 59.444 346.915 59.144C347.431 58.832 348.049 58.676 348.769 58.676C349.741 58.676 350.491 58.958 351.019 59.522C351.559 60.086 351.829 60.932 351.829 62.06V68H349.273V62.24C349.273 61.184 348.805 60.656 347.869 60.656C347.281 60.656 346.813 60.866 346.465 61.286C346.129 61.706 345.961 62.288 345.961 63.032V68H343.405V58.91ZM356.427 63.446C356.427 64.334 356.631 65.012 357.039 65.48C357.459 65.936 358.089 66.164 358.929 66.164C359.277 66.164 359.613 66.122 359.937 66.038C360.273 65.942 360.561 65.81 360.801 65.642L361.557 67.388C361.209 67.64 360.789 67.844 360.297 68C359.805 68.156 359.235 68.234 358.587 68.234C357.843 68.234 357.177 68.126 356.589 67.91C356.001 67.682 355.503 67.364 355.095 66.956C354.687 66.548 354.369 66.05 354.141 65.462C353.925 64.874 353.817 64.208 353.817 63.464C353.817 62.72 353.931 62.054 354.159 61.466C354.387 60.878 354.705 60.38 355.113 59.972C355.533 59.552 356.037 59.234 356.625 59.018C357.225 58.79 357.897 58.676 358.641 58.676C359.241 58.676 359.775 58.748 360.243 58.892C360.711 59.036 361.119 59.228 361.467 59.468L360.693 61.214C360.465 61.058 360.201 60.944 359.901 60.872C359.601 60.788 359.283 60.746 358.947 60.746C358.179 60.746 357.567 60.968 357.111 61.412C356.655 61.844 356.427 62.522 356.427 63.446ZM364.984 64.004C365.08 64.796 365.344 65.372 365.776 65.732C366.22 66.08 366.832 66.254 367.612 66.254C368.032 66.254 368.434 66.2 368.818 66.092C369.202 65.984 369.544 65.828 369.844 65.624L370.708 67.136C369.856 67.868 368.734 68.234 367.342 68.234C366.514 68.234 365.794 68.114 365.182 67.874C364.582 67.622 364.078 67.28 363.67 66.848C363.274 66.416 362.98 65.906 362.788 65.318C362.596 64.73 362.5 64.1 362.5 63.428C362.5 62.648 362.62 61.964 362.86 61.376C363.1 60.776 363.424 60.278 363.832 59.882C364.252 59.486 364.738 59.186 365.29 58.982C365.854 58.778 366.448 58.676 367.072 58.676C367.708 58.676 368.272 58.778 368.764 58.982C369.256 59.174 369.664 59.45 369.988 59.81C370.324 60.17 370.576 60.602 370.744 61.106C370.924 61.598 371.014 62.15 371.014 62.762C371.014 62.966 371.002 63.182 370.978 63.41C370.966 63.626 370.936 63.824 370.888 64.004H364.984ZM367.072 60.548C366.496 60.548 366.028 60.722 365.668 61.07C365.308 61.418 365.098 61.898 365.038 62.51H368.71V62.276C368.71 61.724 368.56 61.298 368.26 60.998C367.972 60.698 367.576 60.548 367.072 60.548ZM384.187 64.904H379.903L378.949 68H376.195L380.785 55.58H383.449L388.039 68H385.159L384.187 64.904ZM380.479 63.014H383.593L382.009 58.01L380.479 63.014ZM392.125 63.734V68H389.551V55.58H394.195C395.623 55.58 396.727 55.934 397.507 56.642C398.287 57.338 398.677 58.346 398.677 59.666C398.677 60.938 398.287 61.934 397.507 62.654C396.739 63.374 395.629 63.734 394.177 63.734H392.125ZM392.125 57.506V61.808H393.763C394.531 61.808 395.107 61.64 395.491 61.304C395.875 60.968 396.067 60.422 396.067 59.666C396.067 58.91 395.875 58.364 395.491 58.028C395.119 57.68 394.549 57.506 393.781 57.506H392.125ZM403.5 68H400.872V55.58H403.5V68Z" fill="white"/>
<rect x="761" y="10" width="164" height="80" fill="#00285A"/>
<path d="M834.765 35.216C834.765 36.068 834.525 36.812 834.045 37.448C833.565 38.072 832.917 38.48 832.101 38.672L835.629 44H832.605L829.977 39.68C829.845 39.464 829.719 39.32 829.599 39.248C829.479 39.176 829.293 39.14 829.041 39.14H828.267V44H825.711V31.58H830.481C831.141 31.58 831.735 31.664 832.263 31.832C832.791 32 833.241 32.24 833.613 32.552C833.985 32.864 834.267 33.248 834.459 33.704C834.663 34.148 834.765 34.652 834.765 35.216ZM832.155 35.414C832.155 34.802 831.993 34.352 831.669 34.064C831.345 33.776 830.823 33.632 830.103 33.632H828.267V37.268H830.049C830.733 37.268 831.255 37.112 831.615 36.8C831.975 36.488 832.155 36.026 832.155 35.414ZM845.163 44H843.705C843.369 44 843.129 43.928 842.985 43.784C842.841 43.64 842.769 43.418 842.769 43.118V42.614C842.529 43.154 842.157 43.562 841.653 43.838C841.161 44.102 840.591 44.234 839.943 44.234C838.947 44.234 838.191 43.94 837.675 43.352C837.171 42.764 836.919 41.906 836.919 40.778V34.91H839.475V40.616C839.475 41.204 839.589 41.624 839.817 41.876C840.045 42.128 840.381 42.254 840.825 42.254C841.413 42.254 841.857 42.044 842.157 41.624C842.457 41.204 842.607 40.634 842.607 39.914V34.91H845.163V44ZM847.679 34.91H849.137C849.749 34.91 850.055 35.174 850.055 35.702V36.368C850.295 35.852 850.673 35.444 851.189 35.144C851.705 34.832 852.323 34.676 853.043 34.676C854.015 34.676 854.765 34.958 855.293 35.522C855.833 36.086 856.103 36.932 856.103 38.06V44H853.547V38.24C853.547 37.184 853.079 36.656 852.143 36.656C851.555 36.656 851.087 36.866 850.739 37.286C850.403 37.706 850.235 38.288 850.235 39.032V44H847.679V34.91ZM796.282 65.444C796.282 64.496 796.624 63.776 797.308 63.284C797.992 62.78 798.934 62.528 800.134 62.528H801.61V62.168C801.61 61.64 801.466 61.256 801.178 61.016C800.902 60.764 800.458 60.638 799.846 60.638C799.39 60.638 798.952 60.704 798.532 60.836C798.112 60.968 797.728 61.154 797.38 61.394L796.498 59.9C797.002 59.516 797.572 59.216 798.208 59C798.844 58.784 799.528 58.676 800.26 58.676C801.508 58.676 802.444 58.976 803.068 59.576C803.704 60.176 804.022 61.04 804.022 62.168V65.66C804.022 65.936 804.07 66.122 804.166 66.218C804.262 66.302 804.436 66.344 804.688 66.344H804.886V67.91C804.754 67.958 804.598 68 804.418 68.036C804.238 68.072 804.022 68.09 803.77 68.09C803.242 68.09 802.846 67.982 802.582 67.766C802.318 67.55 802.162 67.232 802.114 66.812C801.898 67.244 801.538 67.586 801.034 67.838C800.53 68.09 799.954 68.216 799.306 68.216C798.394 68.216 797.662 67.97 797.11 67.478C796.558 66.986 796.282 66.308 796.282 65.444ZM799.954 66.38C800.47 66.38 800.872 66.212 801.16 65.876C801.46 65.54 801.61 65.066 801.61 64.454V63.986H800.368C799.84 63.986 799.432 64.094 799.144 64.31C798.868 64.514 798.73 64.826 798.73 65.246C798.73 65.63 798.838 65.918 799.054 66.11C799.282 66.29 799.582 66.38 799.954 66.38ZM808.94 60.458C809.216 59.846 809.642 59.396 810.218 59.108C810.794 58.82 811.406 58.676 812.054 58.676C813.146 58.676 814.028 59.066 814.7 59.846C815.372 60.614 815.708 61.748 815.708 63.248C815.708 63.98 815.618 64.652 815.438 65.264C815.27 65.876 815.018 66.404 814.682 66.848C814.358 67.28 813.956 67.622 813.476 67.874C812.996 68.114 812.456 68.234 811.856 68.234C811.352 68.234 810.842 68.138 810.326 67.946C809.822 67.742 809.414 67.394 809.102 66.902V71.78H806.546V58.91H808.022C808.634 58.91 808.94 59.18 808.94 59.72V60.458ZM809.03 63.572C809.03 64.412 809.198 65.072 809.534 65.552C809.882 66.02 810.392 66.254 811.064 66.254C811.424 66.254 811.73 66.182 811.982 66.038C812.246 65.894 812.456 65.696 812.612 65.444C812.78 65.18 812.9 64.874 812.972 64.526C813.056 64.178 813.098 63.806 813.098 63.41C813.098 62.522 812.936 61.844 812.612 61.376C812.288 60.896 811.802 60.656 811.154 60.656C810.47 60.656 809.942 60.92 809.57 61.448C809.21 61.964 809.03 62.672 809.03 63.572ZM820.12 60.458C820.396 59.846 820.822 59.396 821.398 59.108C821.974 58.82 822.586 58.676 823.234 58.676C824.326 58.676 825.208 59.066 825.88 59.846C826.552 60.614 826.888 61.748 826.888 63.248C826.888 63.98 826.798 64.652 826.618 65.264C826.45 65.876 826.198 66.404 825.862 66.848C825.538 67.28 825.136 67.622 824.656 67.874C824.176 68.114 823.636 68.234 823.036 68.234C822.532 68.234 822.022 68.138 821.506 67.946C821.002 67.742 820.594 67.394 820.282 66.902V71.78H817.726V58.91H819.202C819.814 58.91 820.12 59.18 820.12 59.72V60.458ZM820.21 63.572C820.21 64.412 820.378 65.072 820.714 65.552C821.062 66.02 821.572 66.254 822.244 66.254C822.604 66.254 822.91 66.182 823.162 66.038C823.426 65.894 823.636 65.696 823.792 65.444C823.96 65.18 824.08 64.874 824.152 64.526C824.236 64.178 824.278 63.806 824.278 63.41C824.278 62.522 824.116 61.844 823.792 61.376C823.468 60.896 822.982 60.656 822.334 60.656C821.65 60.656 821.122 60.92 820.75 61.448C820.39 61.964 820.21 62.672 820.21 63.572ZM831.426 55.094V64.904C831.426 65.384 831.498 65.702 831.642 65.858C831.798 66.002 832.104 66.074 832.56 66.074H832.722V68C832.458 68.06 832.074 68.09 831.57 68.09C830.598 68.09 829.902 67.85 829.482 67.37C829.074 66.89 828.87 66.17 828.87 65.21V55.094H831.426ZM837.157 68H834.601V58.91H837.157V68ZM834.583 55.184H837.175V57.506H834.583V55.184ZM841.787 63.446C841.787 64.334 841.991 65.012 842.399 65.48C842.819 65.936 843.449 66.164 844.289 66.164C844.637 66.164 844.973 66.122 845.297 66.038C845.633 65.942 845.921 65.81 846.161 65.642L846.917 67.388C846.569 67.64 846.149 67.844 845.657 68C845.165 68.156 844.595 68.234 843.947 68.234C843.203 68.234 842.537 68.126 841.949 67.91C841.361 67.682 840.863 67.364 840.455 66.956C840.047 66.548 839.729 66.05 839.501 65.462C839.285 64.874 839.177 64.208 839.177 63.464C839.177 62.72 839.291 62.054 839.519 61.466C839.747 60.878 840.065 60.38 840.473 59.972C840.893 59.552 841.397 59.234 841.985 59.018C842.585 58.79 843.257 58.676 844.001 58.676C844.601 58.676 845.135 58.748 845.603 58.892C846.071 59.036 846.479 59.228 846.827 59.468L846.053 61.214C845.825 61.058 845.561 60.944 845.261 60.872C844.961 60.788 844.643 60.746 844.307 60.746C843.539 60.746 842.927 60.968 842.471 61.412C842.015 61.844 841.787 62.522 841.787 63.446ZM847.856 65.444C847.856 64.496 848.198 63.776 848.882 63.284C849.566 62.78 850.508 62.528 851.708 62.528H853.184V62.168C853.184 61.64 853.04 61.256 852.752 61.016C852.476 60.764 852.032 60.638 851.42 60.638C850.964 60.638 850.526 60.704 850.106 60.836C849.686 60.968 849.302 61.154 848.954 61.394L848.072 59.9C848.576 59.516 849.146 59.216 849.782 59C850.418 58.784 851.102 58.676 851.834 58.676C853.082 58.676 854.018 58.976 854.642 59.576C855.278 60.176 855.596 61.04 855.596 62.168V65.66C855.596 65.936 855.644 66.122 855.74 66.218C855.836 66.302 856.01 66.344 856.262 66.344H856.46V67.91C856.328 67.958 856.172 68 855.992 68.036C855.812 68.072 855.596 68.09 855.344 68.09C854.816 68.09 854.42 67.982 854.156 67.766C853.892 67.55 853.736 67.232 853.688 66.812C853.472 67.244 853.112 67.586 852.608 67.838C852.104 68.09 851.528 68.216 850.88 68.216C849.968 68.216 849.236 67.97 848.684 67.478C848.132 66.986 847.856 66.308 847.856 65.444ZM851.528 66.38C852.044 66.38 852.446 66.212 852.734 65.876C853.034 65.54 853.184 65.066 853.184 64.454V63.986H851.942C851.414 63.986 851.006 64.094 850.718 64.31C850.442 64.514 850.304 64.826 850.304 65.246C850.304 65.63 850.412 65.918 850.628 66.11C850.856 66.29 851.156 66.38 851.528 66.38ZM863.034 66.038V67.946C862.842 67.994 862.632 68.03 862.404 68.054C862.176 68.078 861.906 68.09 861.594 68.09C860.514 68.09 859.722 67.844 859.218 67.352C858.714 66.848 858.462 66.032 858.462 64.904V60.854H857.112V58.91H858.462V56.732H861.018V58.91H863.034V60.854H861.018V64.67C861.018 65.21 861.138 65.576 861.378 65.768C861.618 65.948 862.05 66.038 862.674 66.038H863.034ZM867.251 68H864.695V58.91H867.251V68ZM864.677 55.184H867.269V57.506H864.677V55.184ZM878.631 63.446C878.631 64.202 878.517 64.88 878.289 65.48C878.073 66.068 877.761 66.566 877.353 66.974C876.945 67.382 876.453 67.694 875.877 67.91C875.301 68.126 874.659 68.234 873.951 68.234C873.243 68.234 872.601 68.126 872.025 67.91C871.449 67.694 870.957 67.382 870.549 66.974C870.141 66.566 869.823 66.068 869.595 65.48C869.379 64.88 869.271 64.202 869.271 63.446C869.271 62.69 869.379 62.018 869.595 61.43C869.823 60.842 870.141 60.344 870.549 59.936C870.957 59.528 871.449 59.216 872.025 59C872.601 58.784 873.243 58.676 873.951 58.676C874.659 58.676 875.301 58.784 875.877 59C876.453 59.216 876.945 59.528 877.353 59.936C877.761 60.344 878.073 60.842 878.289 61.43C878.517 62.018 878.631 62.69 878.631 63.446ZM876.021 63.446C876.021 62.522 875.841 61.826 875.481 61.358C875.133 60.89 874.623 60.656 873.951 60.656C873.279 60.656 872.763 60.89 872.403 61.358C872.055 61.826 871.881 62.522 871.881 63.446C871.881 64.382 872.055 65.084 872.403 65.552C872.763 66.02 873.279 66.254 873.951 66.254C874.623 66.254 875.133 66.02 875.481 65.552C875.841 65.084 876.021 64.382 876.021 63.446ZM880.638 58.91H882.096C882.708 58.91 883.014 59.174 883.014 59.702V60.368C883.254 59.852 883.632 59.444 884.148 59.144C884.664 58.832 885.282 58.676 886.002 58.676C886.974 58.676 887.724 58.958 888.252 59.522C888.792 60.086 889.062 60.932 889.062 62.06V68H886.506V62.24C886.506 61.184 886.038 60.656 885.102 60.656C884.514 60.656 884.046 60.866 883.698 61.286C883.362 61.706 883.194 62.288 883.194 63.032V68H880.638V58.91Z" fill="white"/>
<rect x="514" y="10" width="164" height="80" fill="#00285A"/>
<path d="M581.981 34.856C581.981 36.188 581.393 37.076 580.217 37.52C580.973 37.724 581.561 38.066 581.981 38.546C582.413 39.014 582.629 39.674 582.629 40.526C582.629 41.582 582.245 42.428 581.477 43.064C580.721 43.688 579.539 44 577.931 44H573.305V31.58H577.589C579.005 31.58 580.091 31.862 580.847 32.426C581.603 32.978 581.981 33.788 581.981 34.856ZM575.861 38.618V41.948H577.787C578.567 41.948 579.131 41.81 579.479 41.534C579.839 41.258 580.019 40.844 580.019 40.292C580.019 39.716 579.839 39.296 579.479 39.032C579.131 38.756 578.609 38.618 577.913 38.618H575.861ZM575.861 33.632V36.746H577.319C578.039 36.746 578.561 36.626 578.885 36.386C579.209 36.134 579.371 35.738 579.371 35.198C579.371 34.658 579.209 34.262 578.885 34.01C578.573 33.758 578.045 33.632 577.301 33.632H575.861ZM592.705 44H591.247C590.911 44 590.671 43.928 590.527 43.784C590.383 43.64 590.311 43.418 590.311 43.118V42.614C590.071 43.154 589.699 43.562 589.195 43.838C588.703 44.102 588.133 44.234 587.485 44.234C586.489 44.234 585.733 43.94 585.217 43.352C584.713 42.764 584.461 41.906 584.461 40.778V34.91H587.017V40.616C587.017 41.204 587.131 41.624 587.359 41.876C587.587 42.128 587.923 42.254 588.367 42.254C588.955 42.254 589.399 42.044 589.699 41.624C589.999 41.204 590.149 40.634 590.149 39.914V34.91H592.705V44ZM597.777 44H595.221V34.91H597.777V44ZM595.203 31.184H597.795V33.506H595.203V31.184ZM602.821 31.094V40.904C602.821 41.384 602.893 41.702 603.037 41.858C603.193 42.002 603.499 42.074 603.955 42.074H604.117V44C603.853 44.06 603.469 44.09 602.965 44.09C601.993 44.09 601.297 43.85 600.877 43.37C600.469 42.89 600.265 42.17 600.265 41.21V31.094H602.821ZM614.479 44H613.003C612.391 44 612.085 43.73 612.085 43.19V42.596C611.845 43.1 611.473 43.502 610.969 43.802C610.477 44.09 609.883 44.234 609.187 44.234C608.587 44.234 608.047 44.12 607.567 43.892C607.087 43.664 606.679 43.346 606.343 42.938C606.019 42.518 605.767 42.014 605.587 41.426C605.407 40.838 605.317 40.178 605.317 39.446C605.317 38.69 605.413 38.018 605.605 37.43C605.797 36.83 606.067 36.332 606.415 35.936C606.763 35.528 607.177 35.216 607.657 35C608.149 34.784 608.695 34.676 609.295 34.676C609.871 34.676 610.387 34.79 610.843 35.018C611.299 35.246 611.659 35.57 611.923 35.99V31.094H614.479V44ZM611.995 39.464C611.995 38.588 611.821 37.904 611.473 37.412C611.137 36.908 610.639 36.656 609.979 36.656C609.331 36.656 608.827 36.902 608.467 37.394C608.107 37.886 607.927 38.576 607.927 39.464C607.927 40.364 608.095 41.054 608.431 41.534C608.767 42.014 609.265 42.254 609.925 42.254C610.573 42.254 611.077 42.008 611.437 41.516C611.809 41.012 611.995 40.328 611.995 39.464ZM549.282 65.444C549.282 64.496 549.624 63.776 550.308 63.284C550.992 62.78 551.934 62.528 553.134 62.528H554.61V62.168C554.61 61.64 554.466 61.256 554.178 61.016C553.902 60.764 553.458 60.638 552.846 60.638C552.39 60.638 551.952 60.704 551.532 60.836C551.112 60.968 550.728 61.154 550.38 61.394L549.498 59.9C550.002 59.516 550.572 59.216 551.208 59C551.844 58.784 552.528 58.676 553.26 58.676C554.508 58.676 555.444 58.976 556.068 59.576C556.704 60.176 557.022 61.04 557.022 62.168V65.66C557.022 65.936 557.07 66.122 557.166 66.218C557.262 66.302 557.436 66.344 557.688 66.344H557.886V67.91C557.754 67.958 557.598 68 557.418 68.036C557.238 68.072 557.022 68.09 556.77 68.09C556.242 68.09 555.846 67.982 555.582 67.766C555.318 67.55 555.162 67.232 555.114 66.812C554.898 67.244 554.538 67.586 554.034 67.838C553.53 68.09 552.954 68.216 552.306 68.216C551.394 68.216 550.662 67.97 550.11 67.478C549.558 66.986 549.282 66.308 549.282 65.444ZM552.954 66.38C553.47 66.38 553.872 66.212 554.16 65.876C554.46 65.54 554.61 65.066 554.61 64.454V63.986H553.368C552.84 63.986 552.432 64.094 552.144 64.31C551.868 64.514 551.73 64.826 551.73 65.246C551.73 65.63 551.838 65.918 552.054 66.11C552.282 66.29 552.582 66.38 552.954 66.38ZM561.94 60.458C562.216 59.846 562.642 59.396 563.218 59.108C563.794 58.82 564.406 58.676 565.054 58.676C566.146 58.676 567.028 59.066 567.7 59.846C568.372 60.614 568.708 61.748 568.708 63.248C568.708 63.98 568.618 64.652 568.438 65.264C568.27 65.876 568.018 66.404 567.682 66.848C567.358 67.28 566.956 67.622 566.476 67.874C565.996 68.114 565.456 68.234 564.856 68.234C564.352 68.234 563.842 68.138 563.326 67.946C562.822 67.742 562.414 67.394 562.102 66.902V71.78H559.546V58.91H561.022C561.634 58.91 561.94 59.18 561.94 59.72V60.458ZM562.03 63.572C562.03 64.412 562.198 65.072 562.534 65.552C562.882 66.02 563.392 66.254 564.064 66.254C564.424 66.254 564.73 66.182 564.982 66.038C565.246 65.894 565.456 65.696 565.612 65.444C565.78 65.18 565.9 64.874 565.972 64.526C566.056 64.178 566.098 63.806 566.098 63.41C566.098 62.522 565.936 61.844 565.612 61.376C565.288 60.896 564.802 60.656 564.154 60.656C563.47 60.656 562.942 60.92 562.57 61.448C562.21 61.964 562.03 62.672 562.03 63.572ZM573.12 60.458C573.396 59.846 573.822 59.396 574.398 59.108C574.974 58.82 575.586 58.676 576.234 58.676C577.326 58.676 578.208 59.066 578.88 59.846C579.552 60.614 579.888 61.748 579.888 63.248C579.888 63.98 579.798 64.652 579.618 65.264C579.45 65.876 579.198 66.404 578.862 66.848C578.538 67.28 578.136 67.622 577.656 67.874C577.176 68.114 576.636 68.234 576.036 68.234C575.532 68.234 575.022 68.138 574.506 67.946C574.002 67.742 573.594 67.394 573.282 66.902V71.78H570.726V58.91H572.202C572.814 58.91 573.12 59.18 573.12 59.72V60.458ZM573.21 63.572C573.21 64.412 573.378 65.072 573.714 65.552C574.062 66.02 574.572 66.254 575.244 66.254C575.604 66.254 575.91 66.182 576.162 66.038C576.426 65.894 576.636 65.696 576.792 65.444C576.96 65.18 577.08 64.874 577.152 64.526C577.236 64.178 577.278 63.806 577.278 63.41C577.278 62.522 577.116 61.844 576.792 61.376C576.468 60.896 575.982 60.656 575.334 60.656C574.65 60.656 574.122 60.92 573.75 61.448C573.39 61.964 573.21 62.672 573.21 63.572ZM584.426 55.094V64.904C584.426 65.384 584.498 65.702 584.642 65.858C584.798 66.002 585.104 66.074 585.56 66.074H585.722V68C585.458 68.06 585.074 68.09 584.57 68.09C583.598 68.09 582.902 67.85 582.482 67.37C582.074 66.89 581.87 66.17 581.87 65.21V55.094H584.426ZM590.157 68H587.601V58.91H590.157V68ZM587.583 55.184H590.175V57.506H587.583V55.184ZM594.787 63.446C594.787 64.334 594.991 65.012 595.399 65.48C595.819 65.936 596.449 66.164 597.289 66.164C597.637 66.164 597.973 66.122 598.297 66.038C598.633 65.942 598.921 65.81 599.161 65.642L599.917 67.388C599.569 67.64 599.149 67.844 598.657 68C598.165 68.156 597.595 68.234 596.947 68.234C596.203 68.234 595.537 68.126 594.949 67.91C594.361 67.682 593.863 67.364 593.455 66.956C593.047 66.548 592.729 66.05 592.501 65.462C592.285 64.874 592.177 64.208 592.177 63.464C592.177 62.72 592.291 62.054 592.519 61.466C592.747 60.878 593.065 60.38 593.473 59.972C593.893 59.552 594.397 59.234 594.985 59.018C595.585 58.79 596.257 58.676 597.001 58.676C597.601 58.676 598.135 58.748 598.603 58.892C599.071 59.036 599.479 59.228 599.827 59.468L599.053 61.214C598.825 61.058 598.561 60.944 598.261 60.872C597.961 60.788 597.643 60.746 597.307 60.746C596.539 60.746 595.927 60.968 595.471 61.412C595.015 61.844 594.787 62.522 594.787 63.446ZM600.856 65.444C600.856 64.496 601.198 63.776 601.882 63.284C602.566 62.78 603.508 62.528 604.708 62.528H606.184V62.168C606.184 61.64 606.04 61.256 605.752 61.016C605.476 60.764 605.032 60.638 604.42 60.638C603.964 60.638 603.526 60.704 603.106 60.836C602.686 60.968 602.302 61.154 601.954 61.394L601.072 59.9C601.576 59.516 602.146 59.216 602.782 59C603.418 58.784 604.102 58.676 604.834 58.676C606.082 58.676 607.018 58.976 607.642 59.576C608.278 60.176 608.596 61.04 608.596 62.168V65.66C608.596 65.936 608.644 66.122 608.74 66.218C608.836 66.302 609.01 66.344 609.262 66.344H609.46V67.91C609.328 67.958 609.172 68 608.992 68.036C608.812 68.072 608.596 68.09 608.344 68.09C607.816 68.09 607.42 67.982 607.156 67.766C606.892 67.55 606.736 67.232 606.688 66.812C606.472 67.244 606.112 67.586 605.608 67.838C605.104 68.09 604.528 68.216 603.88 68.216C602.968 68.216 602.236 67.97 601.684 67.478C601.132 66.986 600.856 66.308 600.856 65.444ZM604.528 66.38C605.044 66.38 605.446 66.212 605.734 65.876C606.034 65.54 606.184 65.066 606.184 64.454V63.986H604.942C604.414 63.986 604.006 64.094 603.718 64.31C603.442 64.514 603.304 64.826 603.304 65.246C603.304 65.63 603.412 65.918 603.628 66.11C603.856 66.29 604.156 66.38 604.528 66.38ZM616.034 66.038V67.946C615.842 67.994 615.632 68.03 615.404 68.054C615.176 68.078 614.906 68.09 614.594 68.09C613.514 68.09 612.722 67.844 612.218 67.352C611.714 66.848 611.462 66.032 611.462 64.904V60.854H610.112V58.91H611.462V56.732H614.018V58.91H616.034V60.854H614.018V64.67C614.018 65.21 614.138 65.576 614.378 65.768C614.618 65.948 615.05 66.038 615.674 66.038H616.034ZM620.251 68H617.695V58.91H620.251V68ZM617.677 55.184H620.269V57.506H617.677V55.184ZM631.631 63.446C631.631 64.202 631.517 64.88 631.289 65.48C631.073 66.068 630.761 66.566 630.353 66.974C629.945 67.382 629.453 67.694 628.877 67.91C628.301 68.126 627.659 68.234 626.951 68.234C626.243 68.234 625.601 68.126 625.025 67.91C624.449 67.694 623.957 67.382 623.549 66.974C623.141 66.566 622.823 66.068 622.595 65.48C622.379 64.88 622.271 64.202 622.271 63.446C622.271 62.69 622.379 62.018 622.595 61.43C622.823 60.842 623.141 60.344 623.549 59.936C623.957 59.528 624.449 59.216 625.025 59C625.601 58.784 626.243 58.676 626.951 58.676C627.659 58.676 628.301 58.784 628.877 59C629.453 59.216 629.945 59.528 630.353 59.936C630.761 60.344 631.073 60.842 631.289 61.43C631.517 62.018 631.631 62.69 631.631 63.446ZM629.021 63.446C629.021 62.522 628.841 61.826 628.481 61.358C628.133 60.89 627.623 60.656 626.951 60.656C626.279 60.656 625.763 60.89 625.403 61.358C625.055 61.826 624.881 62.522 624.881 63.446C624.881 64.382 625.055 65.084 625.403 65.552C625.763 66.02 626.279 66.254 626.951 66.254C627.623 66.254 628.133 66.02 628.481 65.552C628.841 65.084 629.021 64.382 629.021 63.446ZM633.638 58.91H635.096C635.708 58.91 636.014 59.174 636.014 59.702V60.368C636.254 59.852 636.632 59.444 637.148 59.144C637.664 58.832 638.282 58.676 639.002 58.676C639.974 58.676 640.724 58.958 641.252 59.522C641.792 60.086 642.062 60.932 642.062 62.06V68H639.506V62.24C639.506 61.184 639.038 60.656 638.102 60.656C637.514 60.656 637.046 60.866 636.698 61.286C636.362 61.706 636.194 62.288 636.194 63.032V68H633.638V58.91Z" fill="white"/>
<path d="M247 55L257 49.5L247 44V49L194 49L194 50L247 50V55Z" fill="#C9CACE"/>
<path d="M494 55L504 49.5L494 44V49L441 49L441 50L494 50V55Z" fill="#C9CACE"/>
<path d="M741 55L751 49.5L741 44V49L688 49L688 50L741 50V55Z" fill="#C9CACE"/>
</svg>
