<?xml version="1.0" encoding="UTF-8"?>
<svg width="1134" height="756" overflow="hidden" version="1.1" xmlns="http://www.w3.org/2000/svg"><defs><clipPath id="clip0"><rect width="1134" height="756"/></clipPath></defs><g clip-path="url(#clip0)"><path d="m0 0h1134v756.06h-1134z" fill="#fff"/><path d="m474 72.005h651v245.02h-651z" fill="none" stroke="#76ceff" stroke-miterlimit="8" stroke-width="4.0006"/><path d="m474 27.002h651v45.003h-651z" fill="none" stroke="#2b66af" stroke-miterlimit="8" stroke-width="4.0006"/><g transform="matrix(1 0 0 1.0001 662.13 59)" fill="#2b66af" aria-label="Developer Environment"><path d="m1.755 0v-18.9h7.101q4.428 0 7.128 2.619 2.727 2.619 2.727 6.804 0 4.158-2.754 6.831-2.754 2.646-7.155 2.646zm14.607-9.423q0-3.24-2.106-5.292-2.079-2.079-5.427-2.079h-4.752v14.688h4.752q3.348 0 5.427-2.052 2.106-2.052 2.106-5.265z"/><path d="m27.459-1.458q1.296 0 2.376-0.54 1.107-0.567 2.025-1.701l1.323 1.215q-1.107 1.458-2.592 2.187-1.485 0.702-3.321 0.702-2.943 0-4.833-1.917-1.863-1.944-1.863-4.968 0-2.943 1.917-4.914t4.725-1.971q2.862 0 4.644 1.863t1.782 4.86q0 0.216-0.027 0.513-0.027 0.27-0.054 0.405h-10.719q0.216 1.917 1.485 3.105 1.296 1.161 3.132 1.161zm-0.216-10.044q-1.701 0-2.916 1.107t-1.485 2.97h8.586q-0.243-1.89-1.377-2.97-1.134-1.107-2.808-1.107z"/><path d="m39.825 0-5.589-13.041h2.403l4.239 10.422 4.212-10.422h2.268l-5.535 13.041z"/><path d="m54.621-1.458q1.296 0 2.376-0.54 1.107-0.567 2.025-1.701l1.323 1.215q-1.107 1.458-2.592 2.187-1.485 0.702-3.321 0.702-2.943 0-4.833-1.917-1.863-1.944-1.863-4.968 0-2.943 1.917-4.914t4.725-1.971q2.862 0 4.644 1.863t1.782 4.86q0 0.216-0.027 0.513-0.027 0.27-0.054 0.405h-10.719q0.216 1.917 1.485 3.105 1.296 1.161 3.132 1.161zm-0.216-10.044q-1.701 0-2.916 1.107t-1.485 2.97h8.586q-0.243-1.89-1.377-2.97-1.134-1.107-2.808-1.107z"/><path d="m63.261-18.9h2.214v18.9h-2.214z"/><path d="m81.567-6.507q0 2.943-1.971 4.941-1.971 1.971-4.86 1.971t-4.833-1.971q-1.917-1.971-1.917-4.914t1.971-4.914q1.971-1.998 4.86-1.998t4.806 1.971q1.944 1.971 1.944 4.914zm-11.34 0.027q0 2.106 1.296 3.537 1.323 1.431 3.267 1.431 1.917 0 3.213-1.431 1.323-1.431 1.323-3.564 0-2.079-1.323-3.51-1.323-1.458-3.24-1.458t-3.24 1.431q-1.296 1.431-1.296 3.564z"/><path d="m86.022 4.86h-2.187v-17.901h2.16v2.106q0.864-1.134 2.133-1.755 1.269-0.648 2.7-0.648 2.754 0 4.59 1.917 1.836 1.89 1.836 4.86 0 2.997-1.917 4.941-1.89 1.917-4.671 1.917-1.323 0-2.565-0.54-1.215-0.567-2.079-1.593zm4.563-16.254q-1.971 0-3.321 1.431-1.323 1.404-1.323 3.51 0 2.079 1.296 3.456 1.323 1.377 3.267 1.377 1.998 0 3.24-1.323 1.269-1.35 1.269-3.564 0-2.187-1.242-3.537-1.215-1.35-3.186-1.35z"/><path d="m105.81-1.458q1.296 0 2.376-0.54 1.107-0.567 2.025-1.701l1.323 1.215q-1.107 1.458-2.592 2.187-1.485 0.702-3.321 0.702-2.943 0-4.833-1.917-1.863-1.944-1.863-4.968 0-2.943 1.917-4.914 1.917-1.971 4.725-1.971 2.862 0 4.644 1.863t1.782 4.86q0 0.216-0.027 0.513-0.027 0.27-0.054 0.405h-10.719q0.216 1.917 1.485 3.105 1.296 1.161 3.132 1.161zm-0.216-10.044q-1.701 0-2.916 1.107t-1.485 2.97h8.586q-0.243-1.89-1.377-2.97-1.134-1.107-2.808-1.107z"/><path d="m114.21-13.041h2.16v1.647q0.594-0.864 1.539-1.296t2.241-0.432h1.188v2.079h-1.215q-1.863 0-2.808 0.972-0.918 0.972-0.918 2.943v7.128h-2.187z"/><path d="m128.44 0v-18.9h13.716v2.052h-11.394v6.291h10.638v2.052h-10.638v6.453h11.394v2.052z"/><path d="m144.91-13.041h2.16v2.025q0.783-1.134 1.971-1.728 1.215-0.621 2.7-0.621 2.592 0 4.05 1.674t1.458 4.59v7.101h-2.187v-6.966q0-2.052-1.026-3.24-0.999-1.188-2.808-1.188-1.863 0-2.997 1.269t-1.134 3.294v6.831h-2.187z"/><path d="m163.92 0-5.589-13.041h2.403l4.239 10.422 4.212-10.422h2.268l-5.535 13.041z"/><path d="m173.37-17.415h2.43v2.403h-2.43zm0.108 17.415v-13.041h2.214v13.041z"/><path d="m178.79-13.041h2.16v1.647q0.594-0.864 1.539-1.296t2.241-0.432h1.188v2.079h-1.215q-1.863 0-2.808 0.972-0.918 0.972-0.918 2.943v7.128h-2.187z"/><path d="m200.34-6.507q0 2.943-1.971 4.941-1.971 1.971-4.86 1.971t-4.833-1.971q-1.917-1.971-1.917-4.914t1.971-4.914q1.971-1.998 4.86-1.998t4.806 1.971q1.944 1.971 1.944 4.914zm-11.34 0.027q0 2.106 1.296 3.537 1.323 1.431 3.267 1.431 1.917 0 3.213-1.431 1.323-1.431 1.323-3.564 0-2.079-1.323-3.51-1.323-1.458-3.24-1.458t-3.24 1.431q-1.296 1.431-1.296 3.564z"/><path d="m202.61-13.041h2.16v2.025q0.783-1.134 1.971-1.728 1.215-0.621 2.7-0.621 2.592 0 4.05 1.674t1.458 4.59v7.101h-2.187v-6.966q0-2.052-1.026-3.24-0.999-1.188-2.808-1.188-1.863 0-2.997 1.269t-1.134 3.294v6.831h-2.187z"/><path d="m217.65-13.041h2.16v1.566q0.729-0.945 1.647-1.404 0.945-0.486 2.106-0.486 1.35 0 2.403 0.567t1.674 1.647q0.729-1.08 1.836-1.647 1.134-0.567 2.538-0.567 2.295 0 3.645 1.485 1.377 1.485 1.377 3.861v8.019h-2.214v-7.884q0-1.647-0.837-2.565-0.81-0.945-2.295-0.945-1.458 0-2.376 1.026-0.891 0.999-0.891 2.619v7.749h-2.187v-7.884q0-1.647-0.837-2.565-0.81-0.945-2.295-0.945-1.458 0-2.376 1.026-0.891 0.999-0.891 2.619v7.749h-2.187z"/><path d="m246.02-1.458q1.296 0 2.376-0.54 1.107-0.567 2.025-1.701l1.323 1.215q-1.107 1.458-2.592 2.187-1.485 0.702-3.321 0.702-2.943 0-4.833-1.917-1.863-1.944-1.863-4.968 0-2.943 1.917-4.914t4.725-1.971q2.862 0 4.644 1.863t1.782 4.86q0 0.216-0.027 0.513-0.027 0.27-0.054 0.405h-10.719q0.216 1.917 1.485 3.105 1.296 1.161 3.132 1.161zm-0.216-10.044q-1.701 0-2.916 1.107t-1.485 2.97h8.586q-0.243-1.89-1.377-2.97-1.134-1.107-2.808-1.107z"/><path d="m254.42-13.041h2.16v2.025q0.783-1.134 1.971-1.728 1.215-0.621 2.7-0.621 2.592 0 4.05 1.674t1.458 4.59v7.101h-2.187v-6.966q0-2.052-1.026-3.24-0.999-1.188-2.808-1.188-1.863 0-2.997 1.269t-1.134 3.294v6.831h-2.187z"/><path d="m270.19-3.483v-7.614h-1.782v-1.944h1.782v-3.996h2.187v3.996h3.024v1.944h-3.024v7.425q0 0.864 0.378 1.296 0.405 0.405 1.215 0.405h1.431v1.971h-1.755q-1.809 0-2.646-0.837-0.81-0.837-0.81-2.646z"/></g><path d="m15 479.04h1110v250.02h-1110z" fill="none" stroke="#76ceff" stroke-miterlimit="8" stroke-width="4.0006"/><path d="m15 435.03h1110v44.003h-1110z" fill="none" stroke="#2b66af" stroke-miterlimit="8" stroke-width="4.0006"/><g transform="matrix(1 0 0 1.0001 495.4 467)" fill="#2b66af" aria-label="Edge DeviceDeep LearningModel"><path d="m1.755 0v-18.9h13.716v2.052h-11.394v6.291h10.638v2.052h-10.638v6.453h11.394v2.052z"/><path d="m28.863-18.9h2.214v18.9h-2.187v-2.106q-0.891 1.134-2.16 1.755-1.242 0.621-2.673 0.621-2.727 0-4.59-1.89-1.836-1.917-1.836-4.86 0-2.97 1.89-4.914 1.917-1.971 4.698-1.971 1.35 0 2.538 0.567 1.215 0.54 2.106 1.566zm-4.563 17.253q1.971 0 3.294-1.404 1.35-1.431 1.35-3.51 0-2.106-1.296-3.483t-3.24-1.377q-1.998 0-3.267 1.35t-1.269 3.537 1.242 3.537 3.186 1.35z"/><path d="m44.577-1.539v-0.918q-0.891 1.08-2.16 1.674-1.242 0.594-2.673 0.594-2.754 0-4.59-1.836t-1.836-4.725q0-2.862 1.863-4.725 1.89-1.89 4.644-1.89 1.404 0 2.646 0.594t2.133 1.674v-1.944h2.187v11.421q0 3.24-1.728 4.86t-5.211 1.62h-3.294v-1.89h3.402q2.295 0 3.456-1.134t1.161-3.375zm-4.509-0.594q1.944 0 3.267-1.323 1.35-1.35 1.35-3.294 0-1.998-1.35-3.321-1.323-1.35-3.267-1.35-2.025 0-3.267 1.269t-1.242 3.375q0 2.079 1.242 3.375 1.269 1.269 3.267 1.269z"/><path d="m55.917-1.458q1.296 0 2.376-0.54 1.107-0.567 2.025-1.701l1.323 1.215q-1.107 1.458-2.592 2.187-1.485 0.702-3.321 0.702-2.943 0-4.833-1.917-1.863-1.944-1.863-4.968 0-2.943 1.917-4.914t4.725-1.971q2.862 0 4.644 1.863t1.782 4.86q0 0.216-0.027 0.513-0.027 0.27-0.054 0.405h-10.719q0.216 1.917 1.485 3.105 1.296 1.161 3.132 1.161zm-0.216-10.044q-1.701 0-2.916 1.107t-1.485 2.97h8.586q-0.243-1.89-1.377-2.97-1.134-1.107-2.808-1.107z"/><path d="m69.633 0v-18.9h7.101q4.428 0 7.128 2.619 2.727 2.619 2.727 6.804 0 4.158-2.754 6.831-2.754 2.646-7.155 2.646zm14.607-9.423q0-3.24-2.106-5.292-2.079-2.079-5.427-2.079h-4.752v14.688h4.752q3.348 0 5.427-2.052 2.106-2.052 2.106-5.265z"/><path d="m95.337-1.458q1.296 0 2.376-0.54 1.107-0.567 2.025-1.701l1.323 1.215q-1.107 1.458-2.592 2.187-1.485 0.702-3.321 0.702-2.943 0-4.833-1.917-1.863-1.944-1.863-4.968 0-2.943 1.917-4.914t4.725-1.971q2.862 0 4.644 1.863 1.782 1.863 1.782 4.86 0 0.216-0.027 0.513-0.027 0.27-0.054 0.405h-10.719q0.216 1.917 1.485 3.105 1.296 1.161 3.132 1.161zm-0.216-10.044q-1.701 0-2.916 1.107t-1.485 2.97h8.586q-0.243-1.89-1.377-2.97-1.134-1.107-2.808-1.107z"/><path d="m107.7 0-5.589-13.041h2.403l4.239 10.422 4.212-10.422h2.268l-5.535 13.041z"/><path d="m117.15-17.415h2.43v2.403h-2.43zm0.108 17.415v-13.041h2.214v13.041z"/><path d="m128.74 0.405q-2.997 0-4.887-1.89-1.863-1.917-1.863-4.995 0-2.916 1.971-4.914t4.833-1.998q2.079 0 3.537 0.972 1.485 0.945 2.241 2.754l-1.863 0.891q-0.621-1.35-1.62-2.025-0.972-0.675-2.322-0.675-1.917 0-3.24 1.458-1.296 1.431-1.296 3.537 0 2.133 1.296 3.564 1.323 1.404 3.294 1.404 1.269 0 2.349-0.675 1.107-0.702 1.782-1.944l1.701 0.918q-0.783 1.674-2.349 2.646t-3.564 0.972z"/><path d="m143.13-1.458q1.296 0 2.376-0.54 1.107-0.567 2.025-1.701l1.323 1.215q-1.107 1.458-2.592 2.187-1.485 0.702-3.321 0.702-2.943 0-4.833-1.917-1.863-1.944-1.863-4.968 0-2.943 1.917-4.914t4.725-1.971q2.862 0 4.644 1.863t1.782 4.86q0 0.216-0.027 0.513-0.027 0.27-0.054 0.405h-10.719q0.216 1.917 1.485 3.105 1.296 1.161 3.132 1.161zm-0.216-10.044q-1.701 0-2.916 1.107t-1.485 2.97h8.586q-0.243-1.89-1.377-2.97-1.134-1.107-2.808-1.107z"/><path d="m-258.09-302.98v-22.4h8.416q5.248 0 8.448 3.104 3.232 3.104 3.232 8.064 0 4.928-3.264 8.096-3.264 3.136-8.48 3.136zm17.312-11.168q0-3.84-2.496-6.272-2.464-2.464-6.432-2.464h-5.632v17.408h5.632q3.968 0 6.432-2.432 2.496-2.432 2.496-6.24z"/><path d="m-227.63-304.71q1.536 0 2.816-0.64 1.312-0.672 2.4-2.016l1.568 1.44q-1.312 1.728-3.072 2.592-1.76 0.832-3.936 0.832-3.488 0-5.728-2.272-2.208-2.304-2.208-5.888 0-3.488 2.272-5.824t5.6-2.336q3.392 0 5.504 2.208t2.112 5.76q0 0.256-0.032 0.608-0.032 0.32-0.064 0.48h-12.704q0.256 2.272 1.76 3.68 1.536 1.376 3.712 1.376zm-0.256-11.904q-2.016 0-3.456 1.312t-1.76 3.52h10.176q-0.288-2.24-1.632-3.52-1.344-1.312-3.328-1.312z"/><path d="m-210.22-304.71q1.536 0 2.816-0.64 1.312-0.672 2.4-2.016l1.568 1.44q-1.312 1.728-3.072 2.592-1.76 0.832-3.936 0.832-3.488 0-5.728-2.272-2.208-2.304-2.208-5.888 0-3.488 2.272-5.824t5.6-2.336q3.392 0 5.504 2.208t2.112 5.76q0 0.256-0.032 0.608-0.032 0.32-0.064 0.48h-12.704q0.256 2.272 1.76 3.68 1.536 1.376 3.712 1.376zm-0.256-11.904q-2.016 0-3.456 1.312t-1.76 3.52h10.176q-0.288-2.24-1.632-3.52-1.344-1.312-3.328-1.312z"/><path d="m-197.68-297.22h-2.592v-21.216h2.56v2.496q1.024-1.344 2.528-2.08 1.504-0.768 3.2-0.768 3.264 0 5.44 2.272 2.176 2.24 2.176 5.76 0 3.552-2.272 5.856-2.24 2.272-5.536 2.272-1.568 0-3.04-0.64-1.44-0.672-2.464-1.888zm5.408-19.264q-2.336 0-3.936 1.696-1.568 1.664-1.568 4.16 0 2.464 1.536 4.096 1.568 1.632 3.872 1.632 2.368 0 3.84-1.568 1.504-1.6 1.504-4.224 0-2.592-1.472-4.192-1.44-1.6-3.776-1.6z"/><path d="m-175.37-302.98v-22.4h2.752v19.936h12.928v2.464z"/><path d="m-149.9-304.71q1.536 0 2.816-0.64 1.312-0.672 2.4-2.016l1.568 1.44q-1.312 1.728-3.072 2.592-1.76 0.832-3.936 0.832-3.488 0-5.728-2.272-2.208-2.304-2.208-5.888 0-3.488 2.272-5.824t5.6-2.336q3.392 0 5.504 2.208t2.112 5.76q0 0.256-0.032 0.608-0.032 0.32-0.064 0.48h-12.704q0.256 2.272 1.76 3.68 1.536 1.376 3.712 1.376zm-0.256-11.904q-2.016 0-3.456 1.312t-1.76 3.52h10.176q-0.288-2.24-1.632-3.52-1.344-1.312-3.328-1.312z"/><path d="m-126.67-302.98h-2.528v-2.528q-0.928 1.344-2.528 2.112-1.568 0.736-3.392 0.736-2.56 0-4.16-1.28-1.6-1.312-1.6-3.424 0-2.336 1.792-3.52 1.792-1.216 5.312-1.216h4.544q-0.032-2.176-1.152-3.36-1.088-1.184-3.136-1.184-1.216 0-2.4 0.512t-2.336 1.568l-1.376-1.728q1.344-1.28 2.944-1.92 1.6-0.672 3.424-0.672 3.104 0 4.832 1.856 1.76 1.824 1.76 5.056zm-2.56-7.104h-4.512q-2.336 0-3.456 0.64t-1.12 2.016q0 1.152 0.96 1.92 0.992 0.768 2.528 0.768 2.304 0 3.872-1.472 1.6-1.504 1.728-3.872z"/><path d="m-123.47-318.43h2.56v1.952q0.704-1.024 1.824-1.536t2.656-0.512h1.408v2.464h-1.44q-2.208 0-3.328 1.152-1.088 1.152-1.088 3.488v8.448h-2.592z"/><path d="m-112.91-318.43h2.56v2.4q0.928-1.344 2.336-2.048 1.44-0.736 3.2-0.736 3.072 0 4.8 1.984t1.728 5.44v8.416h-2.592v-8.256q0-2.432-1.216-3.84-1.184-1.408-3.328-1.408-2.208 0-3.552 1.504t-1.344 3.904v8.096h-2.592z"/><path d="m-94.925-323.62h2.88v2.848h-2.88zm0.128 20.64v-15.456h2.624v15.456z"/><path d="m-88.493-318.43h2.56v2.4q0.928-1.344 2.336-2.048 1.44-0.736 3.2-0.736 3.072 0 4.8 1.984t1.728 5.44v8.416h-2.592v-8.256q0-2.432-1.216-3.84-1.184-1.408-3.328-1.408-2.208 0-3.552 1.504t-1.344 3.904v8.096h-2.592z"/><path d="m-58.029-304.8v-1.088q-1.056 1.28-2.56 1.984-1.472 0.704-3.168 0.704-3.264 0-5.44-2.176t-2.176-5.6q0-3.392 2.208-5.6 2.24-2.24 5.504-2.24 1.664 0 3.136 0.704t2.528 1.984v-2.304h2.592v13.536q0 3.84-2.048 5.76t-6.176 1.92h-3.904v-2.24h4.032q2.72 0 4.096-1.344t1.376-4zm-5.344-0.704q2.304 0 3.872-1.568 1.6-1.6 1.6-3.904 0-2.368-1.6-3.936-1.568-1.6-3.872-1.6-2.4 0-3.872 1.504t-1.472 4q0 2.464 1.472 4 1.504 1.504 3.872 1.504z"/><path d="m-179.8-267.38h3.648v22.4h-2.752v-18.88l-7.328 12.8h-2.24l-7.36-12.768v18.848h-2.752v-22.4h3.648l7.584 13.088z"/><path d="m-156.98-252.69q0 3.488-2.336 5.856-2.336 2.336-5.76 2.336t-5.728-2.336q-2.272-2.336-2.272-5.824t2.336-5.824q2.336-2.368 5.76-2.368t5.696 2.336q2.304 2.336 2.304 5.824zm-13.44 0.032q0 2.496 1.536 4.192 1.568 1.696 3.872 1.696 2.272 0 3.808-1.696 1.568-1.696 1.568-4.224 0-2.464-1.568-4.16-1.568-1.728-3.84-1.728t-3.84 1.696q-1.536 1.696-1.536 4.224z"/><path d="m-141.69-267.38h2.624v22.4h-2.592v-2.496q-1.056 1.344-2.56 2.08-1.472 0.736-3.168 0.736-3.232 0-5.44-2.24-2.176-2.272-2.176-5.76 0-3.52 2.24-5.824 2.272-2.336 5.568-2.336 1.6 0 3.008 0.672 1.44 0.64 2.496 1.856zm-5.408 20.448q2.336 0 3.904-1.664 1.6-1.696 1.6-4.16 0-2.496-1.536-4.128t-3.84-1.632q-2.368 0-3.872 1.6t-1.504 4.192 1.472 4.192 3.776 1.6z"/><path d="m-128.25-246.71q1.536 0 2.816-0.64 1.312-0.672 2.4-2.016l1.568 1.44q-1.312 1.728-3.072 2.592-1.76 0.832-3.936 0.832-3.488 0-5.728-2.272-2.208-2.304-2.208-5.888 0-3.488 2.272-5.824t5.6-2.336q3.392 0 5.504 2.208t2.112 5.76q0 0.256-0.032 0.608-0.032 0.32-0.064 0.48h-12.704q0.256 2.272 1.76 3.68 1.536 1.376 3.712 1.376zm-0.256-11.904q-2.016 0-3.456 1.312t-1.76 3.52h10.176q-0.288-2.24-1.632-3.52-1.344-1.312-3.328-1.312z"/><path d="m-118.01-267.38h2.624v22.4h-2.624z"/></g><path d="m480 135.01c0-13.256 10.745-24.002 24-24.002h136c13.256 0 24.001 10.746 24.001 24.002v96.006c0 13.257-10.745 24.003-24.001 24.003h-136c-13.255 0-24-10.746-24-24.003z" fill="#2B66AF" fill-rule="evenodd" stroke="#2B66AF" stroke-miterlimit="8" stroke-width="4.0006"/><g transform="matrix(1 0 0 1.0001 528.63 176)" fill="#fff" aria-label="ModelOptimizer"><path d="m20.864-22.4h3.648v22.4h-2.752v-18.88l-7.328 12.8h-2.24l-7.36-12.768v18.848h-2.752v-22.4h3.648l7.584 13.088z"/><path d="m43.68-7.712q0 3.488-2.336 5.856-2.336 2.336-5.76 2.336t-5.728-2.336q-2.272-2.336-2.272-5.824t2.336-5.824q2.336-2.368 5.76-2.368t5.696 2.336q2.304 2.336 2.304 5.824zm-13.44 0.032q0 2.496 1.536 4.192 1.568 1.696 3.872 1.696 2.272 0 3.808-1.696 1.568-1.696 1.568-4.224 0-2.464-1.568-4.16-1.568-1.728-3.84-1.728t-3.84 1.696q-1.536 1.696-1.536 4.224z"/><path d="m58.976-22.4h2.624v22.4h-2.592v-2.496q-1.056 1.344-2.56 2.08-1.472 0.736-3.168 0.736-3.232 0-5.44-2.24-2.176-2.272-2.176-5.76 0-3.52 2.24-5.824 2.272-2.336 5.568-2.336 1.6 0 3.008 0.672 1.44 0.64 2.496 1.856zm-5.408 20.448q2.336 0 3.904-1.664 1.6-1.696 1.6-4.16 0-2.496-1.536-4.128t-3.84-1.632q-2.368 0-3.872 1.6t-1.504 4.192 1.472 4.192 3.776 1.6z"/><path d="m72.416-1.728q1.536 0 2.816-0.64 1.312-0.672 2.4-2.016l1.568 1.44q-1.312 1.728-3.072 2.592-1.76 0.832-3.936 0.832-3.488 0-5.728-2.272-2.208-2.304-2.208-5.888 0-3.488 2.272-5.824t5.6-2.336q3.392 0 5.504 2.208t2.112 5.76q0 0.256-0.032 0.608-0.032 0.32-0.064 0.48h-12.704q0.256 2.272 1.76 3.68 1.536 1.376 3.712 1.376zm-0.256-11.904q-2.016 0-3.456 1.312t-1.76 3.52h10.176q-0.288-2.24-1.632-3.52-1.344-1.312-3.328-1.312z"/><path d="m82.656-22.4h2.624v22.4h-2.624z"/><path d="m-23.066 27.829q0-4.96 3.296-8.352t8.128-3.392q4.864 0 8.096 3.36 3.264 3.328 3.264 8.32t-3.296 8.384q-3.264 3.36-8.096 3.36-4.864 0-8.128-3.328-3.264-3.36-3.264-8.352zm2.816-0.064q0 3.936 2.464 6.624 2.496 2.656 6.144 2.656 3.648 0 6.08-2.624 2.464-2.656 2.464-6.592t-2.464-6.592q-2.464-2.688-6.112-2.688-3.68 0-6.144 2.656-2.432 2.624-2.432 6.56z"/><path d="m5.1898 44.757h-2.592v-21.216h2.56v2.496q1.024-1.344 2.528-2.08 1.504-0.768 3.2-0.768 3.264 0 5.44 2.272 2.176 2.24 2.176 5.76 0 3.552-2.272 5.856-2.24 2.272-5.536 2.272-1.568 0-3.04-0.64-1.44-0.672-2.464-1.888zm5.408-19.264q-2.336 0-3.936 1.696-1.568 1.664-1.568 4.16 0 2.464 1.536 4.096 1.568 1.632 3.872 1.632 2.368 0 3.84-1.568 1.504-1.6 1.504-4.224 0-2.592-1.472-4.192-1.44-1.6-3.776-1.6z"/><path d="m21.894 34.869v-9.024h-2.112v-2.304h2.112v-4.736h2.592v4.736h3.584v2.304h-3.584v8.8q0 1.024 0.448 1.536 0.48 0.48 1.44 0.48h1.696v2.336h-2.08q-2.144 0-3.136-0.992-0.96-0.992-0.96-3.136z"/><path d="m30.854 18.357h2.88v2.848h-2.88zm0.128 20.64v-15.456h2.624v15.456z"/><path d="m37.286 23.541h2.56v1.856q0.864-1.12 1.952-1.664 1.12-0.576 2.496-0.576 1.6 0 2.848 0.672t1.984 1.952q0.864-1.28 2.176-1.952 1.344-0.672 3.008-0.672 2.72 0 4.32 1.76 1.632 1.76 1.632 4.576v9.504h-2.624v-9.344q0-1.952-0.992-3.04-0.96-1.12-2.72-1.12-1.728 0-2.816 1.216-1.056 1.184-1.056 3.104v9.184h-2.592v-9.344q0-1.952-0.992-3.04-0.96-1.12-2.72-1.12-1.728 0-2.816 1.216-1.056 1.184-1.056 3.104v9.184h-2.592z"/><path d="m63.622 18.357h2.88v2.848h-2.88zm0.128 20.64v-15.456h2.624v15.456z"/><path d="m82.598 38.997h-13.536v-2.048l9.856-11.232h-9.472v-2.176h12.736v2.048l-9.76 11.232h10.176z"/><path d="m91.878 37.269q1.536 0 2.816-0.64 1.312-0.672 2.4-2.016l1.568 1.44q-1.312 1.728-3.072 2.592-1.76 0.832-3.936 0.832-3.488 0-5.728-2.272-2.208-2.304-2.208-5.888 0-3.488 2.272-5.824t5.6-2.336q3.392 0 5.504 2.208t2.112 5.76q0 0.256-0.032 0.608-0.032 0.32-0.064 0.48h-12.704q0.256 2.272 1.76 3.68 1.536 1.376 3.712 1.376zm-0.256-11.904q-2.016 0-3.456 1.312t-1.76 3.52h10.176q-0.288-2.24-1.632-3.52-1.344-1.312-3.328-1.312z"/><path d="m101.83 23.541h2.56v1.952q0.704-1.024 1.824-1.536t2.656-0.512h1.408v2.464h-1.44q-2.208 0-3.328 1.152-1.088 1.152-1.088 3.488v8.448h-2.592z"/></g><g fill-rule="evenodd" stroke="#2B66AF" stroke-miterlimit="8"><path d="m107 228.02c0-8.285 6.716-15.001 15-15.001s15 6.716 15 15.001-6.716 15.001-15 15.001-15-6.716-15-15.001z" fill="none" stroke-width="8.0012"/><path transform="matrix(6.1232e-17 1.0001 1 -6.1237e-17 110.5 128.51)" d="m0 10.44h58.794v-10.44l19.206 11.5-19.206 11.5v-10.44h-58.794z" fill="#2B66AF" stroke-width="1.3335"/><path d="m107 109.01c0-8.285 6.716-15.001 15-15.001s15 6.7161 15 15.001-6.716 15.001-15 15.001-15-6.716-15-15.001z" fill="none" stroke-width="8.0012"/><path d="m33.815 125.4c-4.1365-7.165-1.6817-16.327 5.4829-20.464 7.1645-4.136 16.326-1.681 20.462 5.484s1.6817 16.327-5.4829 20.463c-7.1645 4.137-16.326 1.682-20.462-5.483z" fill="none" stroke-width="8.0013"/><path transform="matrix(.49999 .86607 .86601 -.50003 44.419 136.58)" d="m0 10.335h81.651v-10.335l19.013 11.385-19.013 11.385v-10.335h-81.651z" fill="#2B66AF" stroke-width="1.3336"/><path d="m184.52 110.42c4.136-7.166 13.297-9.62 20.462-5.484 7.164 4.137 9.619 13.299 5.483 20.464-4.137 7.165-13.298 9.62-20.463 5.483-7.164-4.136-9.619-13.298-5.482-20.463z" fill="none" stroke-width="8.0013"/></g><g fill="#2B66AF" fill-rule="evenodd" stroke="#2B66AF" stroke-miterlimit="8"><path transform="matrix(-.49999 .86607 .86601 .50003 180.15 125.19)" d="m0 10.335h81.651v-10.335l19.013 11.385-19.013 11.385v-10.335h-81.651z" stroke-width="1.3336"/><path transform="matrix(1 0 0 -1.0001 667.5 193.51)" d="m0 10.44h246.79v-10.44l19.206 11.5-19.206 11.5v-10.44h-246.79z" stroke-width="1.3335"/><path transform="matrix(1 0 0 -1.0001 223.5 195.51)" d="m0 10.44h234.79v-10.44l19.206 11.5-19.206 11.5v-10.44h-234.79z" stroke-width="1.3335"/></g><path d="m936 135.01c0-13.256 10.745-24.002 24.001-24.002h135c13.25 0 24 10.746 24 24.002v96.006c0 13.256-10.75 24.003-24 24.003h-135c-13.256 0-24.001-10.747-24.001-24.003z" fill="#F0955E" fill-rule="evenodd" stroke="#F0955E" stroke-miterlimit="8" stroke-width="4.0006"/><g transform="matrix(1 0 0 1.0001 951.48 195)" fill="#fff" aria-label="EncryptionModel IR"><path d="m2.08 0v-22.4h16.256v2.432h-13.504v7.456h12.608v2.432h-12.608v7.648h13.504v2.432z"/><path d="m21.6-15.456h2.56v2.4q0.928-1.344 2.336-2.048 1.44-0.736 3.2-0.736 3.072 0 4.8 1.984t1.728 5.44v8.416h-2.592v-8.256q0-2.432-1.216-3.84-1.184-1.408-3.328-1.408-2.208 0-3.552 1.504t-1.344 3.904v8.096h-2.592z"/><path d="m46.72 0.48q-3.552 0-5.792-2.24-2.208-2.272-2.208-5.92 0-3.456 2.336-5.824t5.728-2.368q2.464 0 4.192 1.152 1.76 1.12 2.656 3.264l-2.208 1.056q-0.736-1.6-1.92-2.4-1.152-0.8-2.752-0.8-2.272 0-3.84 1.728-1.536 1.696-1.536 4.192 0 2.528 1.536 4.224 1.568 1.664 3.904 1.664 1.504 0 2.784-0.8 1.312-0.832 2.112-2.304l2.016 1.088q-0.928 1.984-2.784 3.136t-4.224 1.152z"/><path d="m56.32-15.456h2.56v1.952q0.704-1.024 1.824-1.536t2.656-0.512h1.408v2.464h-1.44q-2.208 0-3.328 1.152-1.088 1.152-1.088 3.488v8.448h-2.592z"/><path d="m72.128-0.128-6.528-15.328h2.848l4.992 12.288 4.992-12.288h2.72l-8.992 21.216h-2.688z"/><path d="m85.856 5.76h-2.592v-21.216h2.56v2.496q1.024-1.344 2.528-2.08 1.504-0.768 3.2-0.768 3.264 0 5.44 2.272 2.176 2.24 2.176 5.76 0 3.552-2.272 5.856-2.24 2.272-5.536 2.272-1.568 0-3.04-0.64-1.44-0.672-2.464-1.888zm5.408-19.264q-2.336 0-3.936 1.696-1.568 1.664-1.568 4.16 0 2.464 1.536 4.096 1.568 1.632 3.872 1.632 2.368 0 3.84-1.568 1.504-1.6 1.504-4.224 0-2.592-1.472-4.192-1.44-1.6-3.776-1.6z"/><path d="m102.56-4.128v-9.024h-2.112v-2.304h2.112v-4.736h2.592v4.736h3.584v2.304h-3.584v8.8q0 1.024 0.448 1.536 0.48 0.48 1.44 0.48h1.696v2.336h-2.08q-2.144 0-3.136-0.992-0.96-0.992-0.96-3.136z"/><path d="m111.52-20.64h2.88v2.848h-2.88zm0.128 20.64v-15.456h2.624v15.456z"/><path d="m133.34-7.712q0 3.488-2.336 5.856-2.336 2.336-5.76 2.336t-5.728-2.336q-2.272-2.336-2.272-5.824t2.336-5.824q2.336-2.368 5.76-2.368t5.696 2.336q2.304 2.336 2.304 5.824zm-13.44 0.032q0 2.496 1.536 4.192 1.568 1.696 3.872 1.696 2.272 0 3.808-1.696 1.568-1.696 1.568-4.224 0-2.464-1.568-4.16-1.568-1.728-3.84-1.728t-3.84 1.696q-1.536 1.696-1.536 4.224z"/><path d="m136.03-15.456h2.56v2.4q0.928-1.344 2.336-2.048 1.44-0.736 3.2-0.736 3.072 0 4.8 1.984t1.728 5.44v8.416h-2.592v-8.256q0-2.432-1.216-3.84-1.184-1.408-3.328-1.408-2.208 0-3.552 1.504t-1.344 3.904v8.096h-2.592z"/><g fill="#2b66af"><path d="m-203.86-52.398h3.648v22.4h-2.752v-18.88l-7.328 12.8h-2.24l-7.36-12.768v18.848h-2.752v-22.4h3.648l7.584 13.088z"/><path d="m-181.05-37.71q0 3.488-2.336 5.856-2.336 2.336-5.76 2.336t-5.728-2.336q-2.272-2.336-2.272-5.824t2.336-5.824q2.336-2.368 5.76-2.368t5.696 2.336q2.304 2.336 2.304 5.824zm-13.44 0.032q0 2.496 1.536 4.192 1.568 1.696 3.872 1.696 2.272 0 3.808-1.696 1.568-1.696 1.568-4.224 0-2.464-1.568-4.16-1.568-1.728-3.84-1.728t-3.84 1.696q-1.536 1.696-1.536 4.224z"/><path d="m-165.75-52.398h2.624v22.4h-2.592v-2.496q-1.056 1.344-2.56 2.08-1.472 0.736-3.168 0.736-3.232 0-5.44-2.24-2.176-2.272-2.176-5.76 0-3.52 2.24-5.824 2.272-2.336 5.568-2.336 1.6 0 3.008 0.672 1.44 0.64 2.496 1.856zm-5.408 20.448q2.336 0 3.904-1.664 1.6-1.696 1.6-4.16 0-2.496-1.536-4.128t-3.84-1.632q-2.368 0-3.872 1.6t-1.504 4.192 1.472 4.192 3.776 1.6z"/><path d="m-152.31-31.726q1.536 0 2.816-0.64 1.312-0.672 2.4-2.016l1.568 1.44q-1.312 1.728-3.072 2.592-1.76 0.832-3.936 0.832-3.488 0-5.728-2.272-2.208-2.304-2.208-5.888 0-3.488 2.272-5.824t5.6-2.336q3.392 0 5.504 2.208t2.112 5.76q0 0.256-0.032 0.608-0.032 0.32-0.064 0.48h-12.704q0.256 2.272 1.76 3.68 1.536 1.376 3.712 1.376zm-0.256-11.904q-2.016 0-3.456 1.312t-1.76 3.52h10.176q-0.288-2.24-1.632-3.52-1.344-1.312-3.328-1.312z"/><path d="m-142.07-52.398h2.624v22.4h-2.624z"/><path d="m-129.24-29.998v-22.4h2.752v22.4z"/><path d="m-110.1-39.438 6.368 9.44h-3.264l-6.048-9.12h-6.304v9.12h-2.752v-22.4h9.856q3.776 0 5.888 1.76 2.112 1.728 2.112 4.768 0 2.496-1.536 4.192t-4.32 2.24zm3.072-6.368q0-1.952-1.408-3.04-1.376-1.12-3.872-1.12h-7.04v8.448h6.816q2.528 0 4-1.152 1.504-1.184 1.504-3.136z"/></g></g><path d="m124 397.03v124.66h-8.002v-124.66zm16.002 120.66-20.003 40.008-20.003-40.008z" fill="#F0955E"/><path transform="matrix(1 0 0 -1.0001 1029 401.68)" d="m0 0 1.05e-4 143.64" fill="none" fill-rule="evenodd" stroke="#F0955E" stroke-miterlimit="8" stroke-width="8.0012"/><g transform="matrix(1 0 0 1.0001 61.935 705)" fill="#2b66af" aria-label="Storage"><path d="m16.896-6.304q0-1.952-1.536-2.848-1.504-0.896-4.864-0.992-4.608-0.224-6.656-1.6-2.048-1.408-2.048-4.32 0-2.88 2.432-4.832 2.464-1.952 6.176-1.952 2.72 0 4.896 0.928t3.84 2.816l-1.728 1.824q-1.344-1.504-3.168-2.304t-3.84-0.8q-2.56 0-4.224 1.184t-1.664 2.912q0 1.824 1.472 2.656 1.504 0.8 4.832 0.896 4.576 0.192 6.688 1.696 2.112 1.472 2.112 4.512 0 3.008-2.528 4.992t-6.464 1.984q-3.2 0-5.536-1.024-2.304-1.024-4.096-3.264l1.696-1.824q1.632 1.888 3.552 2.784 1.92 0.864 4.384 0.864 2.752 0 4.512-1.216 1.76-1.248 1.76-3.072z"/><path d="m23.232-4.128v-9.024h-2.112v-2.304h2.112v-4.736h2.592v4.736h3.584v2.304h-3.584v8.8q0 1.024 0.448 1.536 0.48 0.48 1.44 0.48h1.696v2.336h-2.08q-2.144 0-3.136-0.992-0.96-0.992-0.96-3.136z"/><path d="m47.168-7.712q0 3.488-2.336 5.856-2.336 2.336-5.76 2.336t-5.728-2.336q-2.272-2.336-2.272-5.824t2.336-5.824q2.336-2.368 5.76-2.368t5.696 2.336q2.304 2.336 2.304 5.824zm-13.44 0.032q0 2.496 1.536 4.192 1.568 1.696 3.872 1.696 2.272 0 3.808-1.696 1.568-1.696 1.568-4.224 0-2.464-1.568-4.16-1.568-1.728-3.84-1.728t-3.84 1.696q-1.536 1.696-1.536 4.224z"/><path d="m49.856-15.456h2.56v1.952q0.704-1.024 1.824-1.536t2.656-0.512h1.408v2.464h-1.44q-2.208 0-3.328 1.152-1.088 1.152-1.088 3.488v8.448h-2.592z"/><path d="m73.056 0h-2.528v-2.528q-0.928 1.344-2.528 2.112-1.568 0.736-3.392 0.736-2.56 0-4.16-1.28-1.6-1.312-1.6-3.424 0-2.336 1.792-3.52 1.792-1.216 5.312-1.216h4.544q-0.032-2.176-1.152-3.36-1.088-1.184-3.136-1.184-1.216 0-2.4 0.512t-2.336 1.568l-1.376-1.728q1.344-1.28 2.944-1.92 1.6-0.672 3.424-0.672 3.104 0 4.832 1.856 1.76 1.824 1.76 5.056zm-2.56-7.104h-4.512q-2.336 0-3.456 0.64t-1.12 2.016q0 1.152 0.96 1.92 0.992 0.768 2.528 0.768 2.304 0 3.872-1.472 1.6-1.504 1.728-3.872z"/><path d="m88.896-1.824v-1.088q-1.056 1.28-2.56 1.984-1.472 0.704-3.168 0.704-3.264 0-5.44-2.176t-2.176-5.6q0-3.392 2.208-5.6 2.24-2.24 5.504-2.24 1.664 0 3.136 0.704t2.528 1.984v-2.304h2.592v13.536q0 3.84-2.048 5.76t-6.176 1.92h-3.904v-2.24h4.032q2.72 0 4.096-1.344t1.376-4zm-5.344-0.704q2.304 0 3.872-1.568 1.6-1.6 1.6-3.904 0-2.368-1.6-3.936-1.568-1.6-3.872-1.6-2.4 0-3.872 1.504t-1.472 4q0 2.464 1.472 4 1.504 1.504 3.872 1.504z"/><path d="m102.34-1.728q1.536 0 2.816-0.64 1.312-0.672 2.4-2.016l1.568 1.44q-1.312 1.728-3.072 2.592-1.76 0.832-3.936 0.832-3.488 0-5.728-2.272-2.208-2.304-2.208-5.888 0-3.488 2.272-5.824t5.6-2.336q3.392 0 5.504 2.208t2.112 5.76q0 0.256-0.032 0.608-0.032 0.32-0.064 0.48h-12.704q0.256 2.272 1.76 3.68 1.536 1.376 3.712 1.376zm-0.256-11.904q-2.016 0-3.456 1.312-1.44 1.312-1.76 3.52h10.176q-0.288-2.24-1.632-3.52-1.344-1.312-3.328-1.312z"/></g><path d="m117 401.03h916.29" fill="none" fill-rule="evenodd" stroke="#F0955E" stroke-miterlimit="8" stroke-width="8.0012"/><g transform="matrix(1 0 0 1.0001 455.28 386)" fill="#f0955e" aria-label="Encrypted Model"><path d="m2.08 0v-22.4h16.256v2.432h-13.504v7.456h12.608v2.432h-12.608v7.648h13.504v2.432z"/><path d="m21.6-15.456h2.56v2.4q0.928-1.344 2.336-2.048 1.44-0.736 3.2-0.736 3.072 0 4.8 1.984t1.728 5.44v8.416h-2.592v-8.256q0-2.432-1.216-3.84-1.184-1.408-3.328-1.408-2.208 0-3.552 1.504t-1.344 3.904v8.096h-2.592z"/><path d="m46.72 0.48q-3.552 0-5.792-2.24-2.208-2.272-2.208-5.92 0-3.456 2.336-5.824t5.728-2.368q2.464 0 4.192 1.152 1.76 1.12 2.656 3.264l-2.208 1.056q-0.736-1.6-1.92-2.4-1.152-0.8-2.752-0.8-2.272 0-3.84 1.728-1.536 1.696-1.536 4.192 0 2.528 1.536 4.224 1.568 1.664 3.904 1.664 1.504 0 2.784-0.8 1.312-0.832 2.112-2.304l2.016 1.088q-0.928 1.984-2.784 3.136t-4.224 1.152z"/><path d="m56.32-15.456h2.56v1.952q0.704-1.024 1.824-1.536t2.656-0.512h1.408v2.464h-1.44q-2.208 0-3.328 1.152-1.088 1.152-1.088 3.488v8.448h-2.592z"/><path d="m72.128-0.128-6.528-15.328h2.848l4.992 12.288 4.992-12.288h2.72l-8.992 21.216h-2.688z"/><path d="m85.856 5.76h-2.592v-21.216h2.56v2.496q1.024-1.344 2.528-2.08 1.504-0.768 3.2-0.768 3.264 0 5.44 2.272 2.176 2.24 2.176 5.76 0 3.552-2.272 5.856-2.24 2.272-5.536 2.272-1.568 0-3.04-0.64-1.44-0.672-2.464-1.888zm5.408-19.264q-2.336 0-3.936 1.696-1.568 1.664-1.568 4.16 0 2.464 1.536 4.096 1.568 1.632 3.872 1.632 2.368 0 3.84-1.568 1.504-1.6 1.504-4.224 0-2.592-1.472-4.192-1.44-1.6-3.776-1.6z"/><path d="m102.56-4.128v-9.024h-2.112v-2.304h2.112v-4.736h2.592v4.736h3.584v2.304h-3.584v8.8q0 1.024 0.448 1.536 0.48 0.48 1.44 0.48h1.696v2.336h-2.08q-2.144 0-3.136-0.992-0.96-0.992-0.96-3.136z"/><path d="m118.56-1.728q1.536 0 2.816-0.64 1.312-0.672 2.4-2.016l1.568 1.44q-1.312 1.728-3.072 2.592-1.76 0.832-3.936 0.832-3.488 0-5.728-2.272-2.208-2.304-2.208-5.888 0-3.488 2.272-5.824t5.6-2.336q3.392 0 5.504 2.208t2.112 5.76q0 0.256-0.032 0.608-0.032 0.32-0.064 0.48h-12.704q0.256 2.272 1.76 3.68 1.536 1.376 3.712 1.376zm-0.256-11.904q-2.016 0-3.456 1.312t-1.76 3.52h10.176q-0.288-2.24-1.632-3.52-1.344-1.312-3.328-1.312z"/><path d="m141.12-22.4h2.624v22.4h-2.592v-2.496q-1.056 1.344-2.56 2.08-1.472 0.736-3.168 0.736-3.232 0-5.44-2.24-2.176-2.272-2.176-5.76 0-3.52 2.24-5.824 2.272-2.336 5.568-2.336 1.6 0 3.008 0.672 1.44 0.64 2.496 1.856zm-5.408 20.448q2.336 0 3.904-1.664 1.6-1.696 1.6-4.16 0-2.496-1.536-4.128t-3.84-1.632q-2.368 0-3.872 1.6t-1.504 4.192 1.472 4.192 3.776 1.6z"/><path d="m172.19-22.4h3.648v22.4h-2.752v-18.88l-7.328 12.8h-2.24l-7.36-12.768v18.848h-2.752v-22.4h3.648l7.584 13.088z"/><path d="m195.01-7.712q0 3.488-2.336 5.856-2.336 2.336-5.76 2.336t-5.728-2.336q-2.272-2.336-2.272-5.824t2.336-5.824q2.336-2.368 5.76-2.368t5.696 2.336q2.304 2.336 2.304 5.824zm-13.44 0.032q0 2.496 1.536 4.192 1.568 1.696 3.872 1.696 2.272 0 3.808-1.696 1.568-1.696 1.568-4.224 0-2.464-1.568-4.16-1.568-1.728-3.84-1.728t-3.84 1.696q-1.536 1.696-1.536 4.224z"/><path d="m210.3-22.4h2.624v22.4h-2.592v-2.496q-1.056 1.344-2.56 2.08-1.472 0.736-3.168 0.736-3.232 0-5.44-2.24-2.176-2.272-2.176-5.76 0-3.52 2.24-5.824 2.272-2.336 5.568-2.336 1.6 0 3.008 0.672 1.44 0.64 2.496 1.856zm-5.408 20.448q2.336 0 3.904-1.664 1.6-1.696 1.6-4.16 0-2.496-1.536-4.128t-3.84-1.632q-2.368 0-3.872 1.6t-1.504 4.192 1.472 4.192 3.776 1.6z"/><path d="m223.74-1.728q1.536 0 2.816-0.64 1.312-0.672 2.4-2.016l1.568 1.44q-1.312 1.728-3.072 2.592-1.76 0.832-3.936 0.832-3.488 0-5.728-2.272-2.208-2.304-2.208-5.888 0-3.488 2.272-5.824t5.6-2.336q3.392 0 5.504 2.208t2.112 5.76q0 0.256-0.032 0.608-0.032 0.32-0.064 0.48h-12.704q0.256 2.272 1.76 3.68 1.536 1.376 3.712 1.376zm-0.256-11.904q-2.016 0-3.456 1.312t-1.76 3.52h10.176q-0.288-2.24-1.632-3.52-1.344-1.312-3.328-1.312z"/><path d="m233.98-22.4h2.624v22.4h-2.624z"/></g><path d="m481 576.21c0-13.348 10.82-24.168 24.167-24.168h134.67c13.347 0 24.167 10.82 24.167 24.168v96.673c0 13.348-10.82 24.169-24.167 24.169h-134.67c-13.347 0-24.167-10.821-24.167-24.169z" fill="#F0955E" fill-rule="evenodd" stroke="#F0955E" stroke-miterlimit="8" stroke-width="4.0006"/><g transform="matrix(1 0 0 1.0001 494.89 636)" fill="#fff" aria-label="DecryptionEncryptedModel"><path d="m2.08 0v-22.4h8.416q5.248 0 8.448 3.104 3.232 3.104 3.232 8.064 0 4.928-3.264 8.096-3.264 3.136-8.48 3.136zm17.312-11.168q0-3.84-2.496-6.272-2.464-2.464-6.432-2.464h-5.632v17.408h5.632q3.968 0 6.432-2.432 2.496-2.432 2.496-6.24z"/><path d="m32.544-1.728q1.536 0 2.816-0.64 1.312-0.672 2.4-2.016l1.568 1.44q-1.312 1.728-3.072 2.592-1.76 0.832-3.936 0.832-3.488 0-5.728-2.272-2.208-2.304-2.208-5.888 0-3.488 2.272-5.824t5.6-2.336q3.392 0 5.504 2.208t2.112 5.76q0 0.256-0.032 0.608-0.032 0.32-0.064 0.48h-12.704q0.256 2.272 1.76 3.68 1.536 1.376 3.712 1.376zm-0.256-11.904q-2.016 0-3.456 1.312t-1.76 3.52h10.176q-0.288-2.24-1.632-3.52-1.344-1.312-3.328-1.312z"/><path d="m49.792 0.48q-3.552 0-5.792-2.24-2.208-2.272-2.208-5.92 0-3.456 2.336-5.824t5.728-2.368q2.464 0 4.192 1.152 1.76 1.12 2.656 3.264l-2.208 1.056q-0.736-1.6-1.92-2.4-1.152-0.8-2.752-0.8-2.272 0-3.84 1.728-1.536 1.696-1.536 4.192 0 2.528 1.536 4.224 1.568 1.664 3.904 1.664 1.504 0 2.784-0.8 1.312-0.832 2.112-2.304l2.016 1.088q-0.928 1.984-2.784 3.136t-4.224 1.152z"/><path d="m59.392-15.456h2.56v1.952q0.704-1.024 1.824-1.536t2.656-0.512h1.408v2.464h-1.44q-2.208 0-3.328 1.152-1.088 1.152-1.088 3.488v8.448h-2.592z"/><path d="m75.2-0.128-6.528-15.328h2.848l4.992 12.288 4.992-12.288h2.72l-8.992 21.216h-2.688z"/><path d="m88.928 5.76h-2.592v-21.216h2.56v2.496q1.024-1.344 2.528-2.08 1.504-0.768 3.2-0.768 3.264 0 5.44 2.272 2.176 2.24 2.176 5.76 0 3.552-2.272 5.856-2.24 2.272-5.536 2.272-1.568 0-3.04-0.64-1.44-0.672-2.464-1.888zm5.408-19.264q-2.336 0-3.936 1.696-1.568 1.664-1.568 4.16 0 2.464 1.536 4.096 1.568 1.632 3.872 1.632 2.368 0 3.84-1.568 1.504-1.6 1.504-4.224 0-2.592-1.472-4.192-1.44-1.6-3.776-1.6z"/><path d="m105.63-4.128v-9.024h-2.112v-2.304h2.112v-4.736h2.592v4.736h3.584v2.304h-3.584v8.8q0 1.024 0.448 1.536 0.48 0.48 1.44 0.48h1.696v2.336h-2.08q-2.144 0-3.136-0.992-0.96-0.992-0.96-3.136z"/><path d="m114.59-20.64h2.88v2.848h-2.88zm0.128 20.64v-15.456h2.624v15.456z"/><path d="m136.42-7.712q0 3.488-2.336 5.856-2.336 2.336-5.76 2.336t-5.728-2.336q-2.272-2.336-2.272-5.824t2.336-5.824q2.336-2.368 5.76-2.368t5.696 2.336q2.304 2.336 2.304 5.824zm-13.44 0.032q0 2.496 1.536 4.192 1.568 1.696 3.872 1.696 2.272 0 3.808-1.696 1.568-1.696 1.568-4.224 0-2.464-1.568-4.16-1.568-1.728-3.84-1.728t-3.84 1.696q-1.536 1.696-1.536 4.224z"/><path d="m139.1-15.456h2.56v2.4q0.928-1.344 2.336-2.048 1.44-0.736 3.2-0.736 3.072 0 4.8 1.984t1.728 5.44v8.416h-2.592v-8.256q0-2.432-1.216-3.84-1.184-1.408-3.328-1.408-2.208 0-3.552 1.504t-1.344 3.904v8.096h-2.592z"/><g fill="#f0955e"><path d="m-225.09-28.998v-22.4h16.256v2.432h-13.504v7.456h12.608v2.432h-12.608v7.648h13.504v2.432z"/><path d="m-205.57-44.454h2.56v2.4q0.928-1.344 2.336-2.048 1.44-0.736 3.2-0.736 3.072 0 4.8 1.984t1.728 5.44v8.416h-2.592v-8.256q0-2.432-1.216-3.84-1.184-1.408-3.328-1.408-2.208 0-3.552 1.504t-1.344 3.904v8.096h-2.592z"/><path d="m-180.45-28.518q-3.552 0-5.792-2.24-2.208-2.272-2.208-5.92 0-3.456 2.336-5.824t5.728-2.368q2.464 0 4.192 1.152 1.76 1.12 2.656 3.264l-2.208 1.056q-0.736-1.6-1.92-2.4-1.152-0.8-2.752-0.8-2.272 0-3.84 1.728-1.536 1.696-1.536 4.192 0 2.528 1.536 4.224 1.568 1.664 3.904 1.664 1.504 0 2.784-0.8 1.312-0.832 2.112-2.304l2.016 1.088q-0.928 1.984-2.784 3.136t-4.224 1.152z"/><path d="m-170.85-44.454h2.56v1.952q0.704-1.024 1.824-1.536t2.656-0.512h1.408v2.464h-1.44q-2.208 0-3.328 1.152-1.088 1.152-1.088 3.488v8.448h-2.592z"/><path d="m-155.04-29.126-6.528-15.328h2.848l4.992 12.288 4.992-12.288h2.72l-8.992 21.216h-2.688z"/><path d="m-141.31-23.238h-2.592v-21.216h2.56v2.496q1.024-1.344 2.528-2.08 1.504-0.768 3.2-0.768 3.264 0 5.44 2.272 2.176 2.24 2.176 5.76 0 3.552-2.272 5.856-2.24 2.272-5.536 2.272-1.568 0-3.04-0.64-1.44-0.672-2.464-1.888zm5.408-19.264q-2.336 0-3.936 1.696-1.568 1.664-1.568 4.16 0 2.464 1.536 4.096 1.568 1.632 3.872 1.632 2.368 0 3.84-1.568 1.504-1.6 1.504-4.224 0-2.592-1.472-4.192-1.44-1.6-3.776-1.6z"/><path d="m-124.61-33.126v-9.024h-2.112v-2.304h2.112v-4.736h2.592v4.736h3.584v2.304h-3.584v8.8q0 1.024 0.448 1.536 0.48 0.48 1.44 0.48h1.696v2.336h-2.08q-2.144 0-3.136-0.992-0.96-0.992-0.96-3.136z"/><path d="m-108.61-30.726q1.536 0 2.816-0.64 1.312-0.672 2.4-2.016l1.568 1.44q-1.312 1.728-3.072 2.592-1.76 0.832-3.936 0.832-3.488 0-5.728-2.272-2.208-2.304-2.208-5.888 0-3.488 2.272-5.824t5.6-2.336q3.392 0 5.504 2.208t2.112 5.76q0 0.256-0.032 0.608-0.032 0.32-0.064 0.48h-12.704q0.256 2.272 1.76 3.68 1.536 1.376 3.712 1.376zm-0.256-11.904q-2.016 0-3.456 1.312t-1.76 3.52h10.176q-0.288-2.24-1.632-3.52-1.344-1.312-3.328-1.312z"/><path d="m-86.049-51.398h2.624v22.4h-2.592v-2.496q-1.056 1.344-2.56 2.08-1.472 0.736-3.168 0.736-3.232 0-5.44-2.24-2.176-2.272-2.176-5.76 0-3.52 2.24-5.824 2.272-2.336 5.568-2.336 1.6 0 3.008 0.672 1.44 0.64 2.496 1.856zm-5.408 20.448q2.336 0 3.904-1.664 1.6-1.696 1.6-4.16 0-2.496-1.536-4.128t-3.84-1.632q-2.368 0-3.872 1.6t-1.504 4.192 1.472 4.192 3.776 1.6z"/><path d="m-174.13 6.5979h3.648v22.4h-2.752v-18.88l-7.328 12.8h-2.24l-7.36-12.768v18.848h-2.752v-22.4h3.648l7.584 13.088z"/><path d="m-151.32 21.286q0 3.488-2.336 5.856-2.336 2.336-5.76 2.336t-5.728-2.336q-2.272-2.336-2.272-5.824t2.336-5.824q2.336-2.368 5.76-2.368t5.696 2.336q2.304 2.336 2.304 5.824zm-13.44 0.032q0 2.496 1.536 4.192 1.568 1.696 3.872 1.696 2.272 0 3.808-1.696 1.568-1.696 1.568-4.224 0-2.464-1.568-4.16-1.568-1.728-3.84-1.728t-3.84 1.696q-1.536 1.696-1.536 4.224z"/><path d="m-136.02 6.5979h2.624v22.4h-2.592v-2.496q-1.056 1.344-2.56 2.08-1.472 0.736-3.168 0.736-3.232 0-5.44-2.24-2.176-2.272-2.176-5.76 0-3.52 2.24-5.824 2.272-2.336 5.568-2.336 1.6 0 3.008 0.672 1.44 0.64 2.496 1.856zm-5.408 20.448q2.336 0 3.904-1.664 1.6-1.696 1.6-4.16 0-2.496-1.536-4.128t-3.84-1.632q-2.368 0-3.872 1.6t-1.504 4.192 1.472 4.192 3.776 1.6z"/><path d="m-122.58 27.27q1.536 0 2.816-0.64 1.312-0.672 2.4-2.016l1.568 1.44q-1.312 1.728-3.072 2.592-1.76 0.832-3.936 0.832-3.488 0-5.728-2.272-2.208-2.304-2.208-5.888 0-3.488 2.272-5.824t5.6-2.336q3.392 0 5.504 2.208t2.112 5.76q0 0.256-0.032 0.608-0.032 0.32-0.064 0.48h-12.704q0.256 2.272 1.76 3.68 1.536 1.376 3.712 1.376zm-0.256-11.904q-2.016 0-3.456 1.312t-1.76 3.52h10.176q-0.288-2.24-1.632-3.52-1.344-1.312-3.328-1.312z"/><path d="m-112.34 6.5979h2.624v22.4h-2.624z"/></g></g><path d="m936 575.04c0-13.256 10.745-24.002 24.001-24.002h135c13.25 0 24 10.746 24 24.002v96.006c0 13.256-10.75 24.002-24 24.002h-135c-13.256 0-24.001-10.746-24.001-24.002z" fill="#2B66AF" fill-rule="evenodd" stroke="#2B66AF" stroke-miterlimit="8" stroke-width="4.0006"/><g transform="matrix(1 0 0 1.0001 948 615)" fill="#fff" aria-label="OpenVINORuntime"><path d="m1.184-11.168q0-4.96 3.296-8.352t8.128-3.392q4.864 0 8.096 3.36 3.264 3.328 3.264 8.32t-3.296 8.384q-3.264 3.36-8.096 3.36-4.864 0-8.128-3.328-3.264-3.36-3.264-8.352zm2.816-0.064q0 3.936 2.464 6.624 2.496 2.656 6.144 2.656t6.08-2.624q2.464-2.656 2.464-6.592t-2.464-6.592q-2.464-2.688-6.112-2.688-3.68 0-6.144 2.656-2.432 2.624-2.432 6.56z"/><path d="m29.44 5.76h-2.592v-21.216h2.56v2.496q1.024-1.344 2.528-2.08 1.504-0.768 3.2-0.768 3.264 0 5.44 2.272 2.176 2.24 2.176 5.76 0 3.552-2.272 5.856-2.24 2.272-5.536 2.272-1.568 0-3.04-0.64-1.44-0.672-2.464-1.888zm5.408-19.264q-2.336 0-3.936 1.696-1.568 1.664-1.568 4.16 0 2.464 1.536 4.096 1.568 1.632 3.872 1.632 2.368 0 3.84-1.568 1.504-1.6 1.504-4.224 0-2.592-1.472-4.192-1.44-1.6-3.776-1.6z"/><path d="m52.896-1.728q1.536 0 2.816-0.64 1.312-0.672 2.4-2.016l1.568 1.44q-1.312 1.728-3.072 2.592-1.76 0.832-3.936 0.832-3.488 0-5.728-2.272-2.208-2.304-2.208-5.888 0-3.488 2.272-5.824t5.6-2.336q3.392 0 5.504 2.208t2.112 5.76q0 0.256-0.032 0.608-0.032 0.32-0.064 0.48h-12.704q0.256 2.272 1.76 3.68 1.536 1.376 3.712 1.376zm-0.256-11.904q-2.016 0-3.456 1.312t-1.76 3.52h10.176q-0.288-2.24-1.632-3.52-1.344-1.312-3.328-1.312z"/><path d="m62.848-15.456h2.56v2.4q0.928-1.344 2.336-2.048 1.44-0.736 3.2-0.736 3.072 0 4.8 1.984t1.728 5.44v8.416h-2.592v-8.256q0-2.432-1.216-3.84-1.184-1.408-3.328-1.408-2.208 0-3.552 1.504t-1.344 3.904v8.096h-2.592z"/><path d="m87.712 0-9.92-22.4h3.008l8.352 18.88 8.256-18.88h2.944l-9.92 22.4z"/><path d="m103.1 0v-22.4h2.752v22.4z"/><path d="m112.93-18.4v18.4h-2.688v-22.4h2.944l13.984 18.304v-18.304h2.688v22.4h-2.88z"/><path d="m133.12-11.168q0-4.96 3.296-8.352t8.128-3.392q4.864 0 8.096 3.36 3.264 3.328 3.264 8.32t-3.296 8.384q-3.264 3.36-8.096 3.36-4.864 0-8.128-3.328-3.264-3.36-3.264-8.352zm2.816-0.064q0 3.936 2.464 6.624 2.496 2.656 6.144 2.656t6.08-2.624q2.464-2.656 2.464-6.592t-2.464-6.592q-2.464-2.688-6.112-2.688-3.68 0-6.144 2.656-2.432 2.624-2.432 6.56z"/><path d="m35.083 29.557 6.368 9.44h-3.264l-6.048-9.12h-6.304v9.12h-2.752v-22.4h9.856q3.776 0 5.888 1.76 2.112 1.728 2.112 4.768 0 2.496-1.536 4.192t-4.32 2.24zm3.072-6.368q0-1.952-1.408-3.04-1.376-1.12-3.872-1.12h-7.04v8.448h6.816q2.528 0 4-1.152 1.504-1.184 1.504-3.136z"/><path d="m58.539 38.997h-2.592v-2.368q-0.928 1.344-2.336 2.048-1.408 0.672-3.2 0.672-3.04 0-4.8-1.984-1.728-1.984-1.728-5.408v-8.416h2.624v8.256q0 2.432 1.184 3.84 1.216 1.408 3.36 1.408 2.176 0 3.52-1.504t1.344-3.904v-8.096h2.624z"/><path d="m61.899 23.541h2.56v2.4q0.928-1.344 2.336-2.048 1.44-0.736 3.2-0.736 3.072 0 4.8 1.984t1.728 5.44v8.416h-2.592v-8.256q0-2.432-1.216-3.84-1.184-1.408-3.328-1.408-2.208 0-3.552 1.504t-1.344 3.904v8.096h-2.592z"/><path d="m80.587 34.869v-9.024h-2.112v-2.304h2.112v-4.736h2.592v4.736h3.584v2.304h-3.584v8.8q0 1.024 0.448 1.536 0.48 0.48 1.44 0.48h1.696v2.336h-2.08q-2.144 0-3.136-0.992-0.96-0.992-0.96-3.136z"/><path d="m89.547 18.357h2.88v2.848h-2.88zm0.128 20.64v-15.456h2.624v15.456z"/><path d="m95.979 23.541h2.56v1.856q0.864-1.12 1.952-1.664 1.12-0.576 2.496-0.576 1.6 0 2.848 0.672t1.984 1.952q0.864-1.28 2.176-1.952 1.344-0.672 3.008-0.672 2.72 0 4.32 1.76 1.632 1.76 1.632 4.576v9.504h-2.624v-9.344q0-1.952-0.992-3.04-0.96-1.12-2.72-1.12-1.728 0-2.816 1.216-1.056 1.184-1.056 3.104v9.184h-2.592v-9.344q0-1.952-0.992-3.04-0.96-1.12-2.72-1.12-1.728 0-2.816 1.216-1.056 1.184-1.056 3.104v9.184h-2.592z"/><path d="m129.61 37.269q1.536 0 2.816-0.64 1.312-0.672 2.4-2.016l1.568 1.44q-1.312 1.728-3.072 2.592-1.76 0.832-3.936 0.832-3.488 0-5.728-2.272-2.208-2.304-2.208-5.888 0-3.488 2.272-5.824t5.6-2.336q3.392 0 5.504 2.208t2.112 5.76q0 0.256-0.032 0.608-0.032 0.32-0.064 0.48h-12.704q0.256 2.272 1.76 3.68 1.536 1.376 3.712 1.376zm-0.256-11.904q-2.016 0-3.456 1.312t-1.76 3.52h10.176q-0.288-2.24-1.632-3.52-1.344-1.312-3.328-1.312z"/></g><path transform="matrix(1 0 0 -1.0001 667.5 636.55)" d="m0 10.44h246.79v-10.44l19.206 11.5-19.206 11.5v-10.44h-246.79z" fill="#2B66AF" fill-rule="evenodd" stroke="#2B66AF" stroke-miterlimit="8" stroke-width="1.3335"/><g transform="matrix(1 0 0 1.0001 726.89 607)" fill="#2b66af" aria-label="Model IR"><path d="m20.864-22.4h3.648v22.4h-2.752v-18.88l-7.328 12.8h-2.24l-7.36-12.768v18.848h-2.752v-22.4h3.648l7.584 13.088z"/><path d="m43.68-7.712q0 3.488-2.336 5.856-2.336 2.336-5.76 2.336t-5.728-2.336q-2.272-2.336-2.272-5.824t2.336-5.824q2.336-2.368 5.76-2.368t5.696 2.336q2.304 2.336 2.304 5.824zm-13.44 0.032q0 2.496 1.536 4.192 1.568 1.696 3.872 1.696 2.272 0 3.808-1.696 1.568-1.696 1.568-4.224 0-2.464-1.568-4.16-1.568-1.728-3.84-1.728t-3.84 1.696q-1.536 1.696-1.536 4.224z"/><path d="m58.976-22.4h2.624v22.4h-2.592v-2.496q-1.056 1.344-2.56 2.08-1.472 0.736-3.168 0.736-3.232 0-5.44-2.24-2.176-2.272-2.176-5.76 0-3.52 2.24-5.824 2.272-2.336 5.568-2.336 1.6 0 3.008 0.672 1.44 0.64 2.496 1.856zm-5.408 20.448q2.336 0 3.904-1.664 1.6-1.696 1.6-4.16 0-2.496-1.536-4.128t-3.84-1.632q-2.368 0-3.872 1.6t-1.504 4.192 1.472 4.192 3.776 1.6z"/><path d="m72.416-1.728q1.536 0 2.816-0.64 1.312-0.672 2.4-2.016l1.568 1.44q-1.312 1.728-3.072 2.592-1.76 0.832-3.936 0.832-3.488 0-5.728-2.272-2.208-2.304-2.208-5.888 0-3.488 2.272-5.824t5.6-2.336q3.392 0 5.504 2.208t2.112 5.76q0 0.256-0.032 0.608-0.032 0.32-0.064 0.48h-12.704q0.256 2.272 1.76 3.68 1.536 1.376 3.712 1.376zm-0.256-11.904q-2.016 0-3.456 1.312t-1.76 3.52h10.176q-0.288-2.24-1.632-3.52-1.344-1.312-3.328-1.312z"/><path d="m82.656-22.4h2.624v22.4h-2.624z"/><path d="m95.488 0v-22.4h2.752v22.4z"/><path d="m114.62-9.44 6.368 9.44h-3.264l-6.048-9.12h-6.304v9.12h-2.752v-22.4h9.856q3.776 0 5.888 1.76 2.112 1.728 2.112 4.768 0 2.496-1.536 4.192t-4.32 2.24zm3.072-6.368q0-1.952-1.408-3.04-1.376-1.12-3.872-1.12h-7.04v8.448h6.816q2.528 0 4-1.152 1.504-1.184 1.504-3.136z"/></g><g stroke-miterlimit="8"><path d="m29.5 621.55h112.76" fill="none" fill-rule="evenodd" stroke="#0071C5" stroke-width="6.6676"/><path d="m29.5 641.55h112.76" fill="none" fill-rule="evenodd" stroke="#0071C5" stroke-width="6.6676"/><path d="m184.5 629.55h14v14.001h-14z" fill="#0071c5" stroke="#0071c5" stroke-width="1.3335"/><path d="m58.091 562.04h112.82l36.091 36.1v55.907h-185v-55.907z" fill="none" fill-rule="evenodd" stroke="#0071C5" stroke-width="8.0012"/><path d="m20.5 597.54h188v6.0005h-188z" fill="#0071c5" stroke="#0071c5" stroke-width="1.3335"/><path transform="matrix(1 0 0 -1.0001 212.5 636.55)" d="m0 10.44h246.79v-10.44l19.206 11.5-19.206 11.5v-10.44h-246.79z" fill="#F0955E" fill-rule="evenodd" stroke="#F0955E" stroke-width="1.3335"/></g></g></svg>
