<?xml version="1.0" encoding="UTF-8" standalone="no"?>
<svg
   width="664.31476"
   height="265.15228"
   viewBox="0 0 664.31476 265.15228"
   fill="none"
   version="1.1"
   id="svg19777"
   sodipodi:docname="IMPLEMENT_PIPELINE_with_API_C.svg"
   inkscape:version="1.1.2 (b8e25be833, 2022-02-05)"
   xmlns:inkscape="http://www.inkscape.org/namespaces/inkscape"
   xmlns:sodipodi="http://sodipodi.sourceforge.net/DTD/sodipodi-0.dtd"
   xmlns="http://www.w3.org/2000/svg"
   xmlns:svg="http://www.w3.org/2000/svg">
  <defs
     id="defs19781" />
  <sodipodi:namedview
     id="namedview19779"
     pagecolor="#ffffff"
     bordercolor="#666666"
     borderopacity="1.0"
     inkscape:pageshadow="2"
     inkscape:pageopacity="0.0"
     inkscape:pagecheckerboard="0"
     showgrid="false"
     inkscape:zoom="2.1646365"
     inkscape:cx="332.61935"
     inkscape:cy="53.126702"
     inkscape:window-width="2880"
     inkscape:window-height="1706"
     inkscape:window-x="-11"
     inkscape:window-y="-11"
     inkscape:window-maximized="1"
     inkscape:current-layer="svg19777" />
  <rect
     style="fill:#ffffff;stroke-width:0.930441"
     id="rect64326"
     width="664.31476"
     height="265.15228"
     x="0"
     y="0" />
  <rect
     x="3.8310032"
     y="2.8175354"
     width="164"
     height="80"
     fill="#00285a"
     id="rect19723" />
  <rect
     x="250.83101"
     y="2.8175354"
     width="164"
     height="80"
     fill="#00285a"
     id="rect19727" />
  <rect
     x="250.83101"
     y="135.81754"
     width="164"
     height="80"
     fill="#00285a"
     id="rect19731" />
  <rect
     x="3.8310032"
     y="135.81754"
     width="164"
     height="80"
     fill="#00285a"
     id="rect19735" />
  <path
     d="m 274.364,253.81754 h -2.628 v -12.42 h 2.628 z m 2.694,-9.09 h 1.458 c 0.612,0 0.918,0.264 0.918,0.792 v 0.666 c 0.24,-0.516 0.618,-0.924 1.134,-1.224 0.516,-0.312 1.134,-0.468 1.854,-0.468 0.972,0 1.722,0.282 2.25,0.846 0.54,0.564 0.81,1.41 0.81,2.538 v 5.94 h -2.556 v -5.76 c 0,-1.056 -0.468,-1.584 -1.404,-1.584 -0.588,0 -1.056,0.21 -1.404,0.63 -0.336,0.42 -0.504,1.002 -0.504,1.746 v 4.968 h -2.556 z m 16.082,-1.818 h -0.414 c -0.672,0 -1.158,0.102 -1.458,0.306 -0.288,0.192 -0.432,0.594 -0.432,1.206 v 0.306 h 2.214 v 1.944 h -2.214 v 7.146 h -2.556 v -7.146 h -1.35 v -1.944 h 1.35 v -0.666 c 0,-1.056 0.306,-1.854 0.918,-2.394 0.612,-0.54 1.5,-0.81 2.664,-0.81 0.204,0 0.426,0.012 0.666,0.036 0.24,0.012 0.444,0.042 0.612,0.09 z m 3.16,6.912 c 0.096,0.792 0.36,1.368 0.792,1.728 0.444,0.348 1.056,0.522 1.836,0.522 0.42,0 0.822,-0.054 1.206,-0.162 0.384,-0.108 0.726,-0.264 1.026,-0.468 l 0.864,1.512 c -0.852,0.732 -1.974,1.098 -3.366,1.098 -0.828,0 -1.548,-0.12 -2.16,-0.36 -0.6,-0.252 -1.104,-0.594 -1.512,-1.026 -0.396,-0.432 -0.69,-0.942 -0.882,-1.53 -0.192,-0.588 -0.288,-1.218 -0.288,-1.89 0,-0.78 0.12,-1.464 0.36,-2.052 0.24,-0.6 0.564,-1.098 0.972,-1.494 0.42,-0.396 0.906,-0.696 1.458,-0.9 0.564,-0.204 1.158,-0.306 1.782,-0.306 0.636,0 1.2,0.102 1.692,0.306 0.492,0.192 0.9,0.468 1.224,0.828 0.336,0.36 0.588,0.792 0.756,1.296 0.18,0.492 0.27,1.044 0.27,1.656 0,0.204 -0.012,0.42 -0.036,0.648 -0.012,0.216 -0.042,0.414 -0.09,0.594 z m 2.088,-3.456 c -0.576,0 -1.044,0.174 -1.404,0.522 -0.36,0.348 -0.57,0.828 -0.63,1.44 h 3.672 v -0.234 c 0,-0.552 -0.15,-0.978 -0.45,-1.278 -0.288,-0.3 -0.684,-0.45 -1.188,-0.45 z m 5.916,-1.638 h 1.458 c 0.612,0 0.918,0.264 0.918,0.792 v 1.116 c 0.192,-0.612 0.51,-1.098 0.954,-1.458 0.456,-0.372 1.02,-0.558 1.692,-0.558 0.276,0 0.516,0.03 0.72,0.09 v 2.088 h -0.522 c -0.912,0 -1.584,0.234 -2.016,0.702 -0.432,0.468 -0.648,1.248 -0.648,2.34 v 3.978 h -2.556 z m 8.747,5.094 c 0.096,0.792 0.36,1.368 0.792,1.728 0.444,0.348 1.056,0.522 1.836,0.522 0.42,0 0.822,-0.054 1.206,-0.162 0.384,-0.108 0.726,-0.264 1.026,-0.468 l 0.864,1.512 c -0.852,0.732 -1.974,1.098 -3.366,1.098 -0.828,0 -1.548,-0.12 -2.16,-0.36 -0.6,-0.252 -1.104,-0.594 -1.512,-1.026 -0.396,-0.432 -0.69,-0.942 -0.882,-1.53 -0.192,-0.588 -0.288,-1.218 -0.288,-1.89 0,-0.78 0.12,-1.464 0.36,-2.052 0.24,-0.6 0.564,-1.098 0.972,-1.494 0.42,-0.396 0.906,-0.696 1.458,-0.9 0.564,-0.204 1.158,-0.306 1.782,-0.306 0.636,0 1.2,0.102 1.692,0.306 0.492,0.192 0.9,0.468 1.224,0.828 0.336,0.36 0.588,0.792 0.756,1.296 0.18,0.492 0.27,1.044 0.27,1.656 0,0.204 -0.012,0.42 -0.036,0.648 -0.012,0.216 -0.042,0.414 -0.09,0.594 z m 2.088,-3.456 c -0.576,0 -1.044,0.174 -1.404,0.522 -0.36,0.348 -0.57,0.828 -0.63,1.44 h 3.672 v -0.234 c 0,-0.552 -0.15,-0.978 -0.45,-1.278 -0.288,-0.3 -0.684,-0.45 -1.188,-0.45 z m 5.917,-1.638 h 1.458 c 0.612,0 0.918,0.264 0.918,0.792 v 0.666 c 0.24,-0.516 0.618,-0.924 1.134,-1.224 0.516,-0.312 1.134,-0.468 1.854,-0.468 0.972,0 1.722,0.282 2.25,0.846 0.54,0.564 0.81,1.41 0.81,2.538 v 5.94 h -2.556 v -5.76 c 0,-1.056 -0.468,-1.584 -1.404,-1.584 -0.588,0 -1.056,0.21 -1.404,0.63 -0.336,0.42 -0.504,1.002 -0.504,1.746 v 4.968 h -2.556 z m 13.022,4.536 c 0,0.888 0.204,1.566 0.612,2.034 0.42,0.456 1.05,0.684 1.89,0.684 0.348,0 0.684,-0.042 1.008,-0.126 0.336,-0.096 0.624,-0.228 0.864,-0.396 l 0.756,1.746 c -0.348,0.252 -0.768,0.456 -1.26,0.612 -0.492,0.156 -1.062,0.234 -1.71,0.234 -0.744,0 -1.41,-0.108 -1.998,-0.324 -0.588,-0.228 -1.086,-0.546 -1.494,-0.954 -0.408,-0.408 -0.726,-0.906 -0.954,-1.494 -0.216,-0.588 -0.324,-1.254 -0.324,-1.998 0,-0.744 0.114,-1.41 0.342,-1.998 0.228,-0.588 0.546,-1.086 0.954,-1.494 0.42,-0.42 0.924,-0.738 1.512,-0.954 0.6,-0.228 1.272,-0.342 2.016,-0.342 0.6,0 1.134,0.072 1.602,0.216 0.468,0.144 0.876,0.336 1.224,0.576 l -0.774,1.746 c -0.228,-0.156 -0.492,-0.27 -0.792,-0.342 -0.3,-0.084 -0.618,-0.126 -0.954,-0.126 -0.768,0 -1.38,0.222 -1.836,0.666 -0.456,0.432 -0.684,1.11 -0.684,2.034 z m 8.557,0.558 c 0.096,0.792 0.36,1.368 0.792,1.728 0.444,0.348 1.056,0.522 1.836,0.522 0.42,0 0.822,-0.054 1.206,-0.162 0.384,-0.108 0.726,-0.264 1.026,-0.468 l 0.864,1.512 c -0.852,0.732 -1.974,1.098 -3.366,1.098 -0.828,0 -1.548,-0.12 -2.16,-0.36 -0.6,-0.252 -1.104,-0.594 -1.512,-1.026 -0.396,-0.432 -0.69,-0.942 -0.882,-1.53 -0.192,-0.588 -0.288,-1.218 -0.288,-1.89 0,-0.78 0.12,-1.464 0.36,-2.052 0.24,-0.6 0.564,-1.098 0.972,-1.494 0.42,-0.396 0.906,-0.696 1.458,-0.9 0.564,-0.204 1.158,-0.306 1.782,-0.306 0.636,0 1.2,0.102 1.692,0.306 0.492,0.192 0.9,0.468 1.224,0.828 0.336,0.36 0.588,0.792 0.756,1.296 0.18,0.492 0.27,1.044 0.27,1.656 0,0.204 -0.012,0.42 -0.036,0.648 -0.012,0.216 -0.042,0.414 -0.09,0.594 z m 2.088,-3.456 c -0.576,0 -1.044,0.174 -1.404,0.522 -0.36,0.348 -0.57,0.828 -0.63,1.44 h 3.672 v -0.234 c 0,-0.552 -0.15,-0.978 -0.45,-1.278 -0.288,-0.3 -0.684,-0.45 -1.188,-0.45 z m 13.119,5.4 h 5.58 v 2.052 h -8.208 v -12.42 h 2.628 z m 15.734,-2.502 c 0,0.756 -0.114,1.434 -0.342,2.034 -0.216,0.588 -0.528,1.086 -0.936,1.494 -0.408,0.408 -0.9,0.72 -1.476,0.936 -0.576,0.216 -1.218,0.324 -1.926,0.324 -0.708,0 -1.35,-0.108 -1.926,-0.324 -0.576,-0.216 -1.068,-0.528 -1.476,-0.936 -0.408,-0.408 -0.726,-0.906 -0.954,-1.494 -0.216,-0.6 -0.324,-1.278 -0.324,-2.034 0,-0.756 0.108,-1.428 0.324,-2.016 0.228,-0.588 0.546,-1.086 0.954,-1.494 0.408,-0.408 0.9,-0.72 1.476,-0.936 0.576,-0.216 1.218,-0.324 1.926,-0.324 0.708,0 1.35,0.108 1.926,0.324 0.576,0.216 1.068,0.528 1.476,0.936 0.408,0.408 0.72,0.906 0.936,1.494 0.228,0.588 0.342,1.26 0.342,2.016 z m -2.61,0 c 0,-0.924 -0.18,-1.62 -0.54,-2.088 -0.348,-0.468 -0.858,-0.702 -1.53,-0.702 -0.672,0 -1.188,0.234 -1.548,0.702 -0.348,0.468 -0.522,1.164 -0.522,2.088 0,0.936 0.174,1.638 0.522,2.106 0.36,0.468 0.876,0.702 1.548,0.702 0.672,0 1.182,-0.234 1.53,-0.702 0.36,-0.468 0.54,-1.17 0.54,-2.106 z m 13.473,0 c 0,0.756 -0.114,1.434 -0.342,2.034 -0.216,0.588 -0.528,1.086 -0.936,1.494 -0.408,0.408 -0.9,0.72 -1.476,0.936 -0.576,0.216 -1.218,0.324 -1.926,0.324 -0.708,0 -1.35,-0.108 -1.926,-0.324 -0.576,-0.216 -1.068,-0.528 -1.476,-0.936 -0.408,-0.408 -0.726,-0.906 -0.954,-1.494 -0.216,-0.6 -0.324,-1.278 -0.324,-2.034 0,-0.756 0.108,-1.428 0.324,-2.016 0.228,-0.588 0.546,-1.086 0.954,-1.494 0.408,-0.408 0.9,-0.72 1.476,-0.936 0.576,-0.216 1.218,-0.324 1.926,-0.324 0.708,0 1.35,0.108 1.926,0.324 0.576,0.216 1.068,0.528 1.476,0.936 0.408,0.408 0.72,0.906 0.936,1.494 0.228,0.588 0.342,1.26 0.342,2.016 z m -2.61,0 c 0,-0.924 -0.18,-1.62 -0.54,-2.088 -0.348,-0.468 -0.858,-0.702 -1.53,-0.702 -0.672,0 -1.188,0.234 -1.548,0.702 -0.348,0.468 -0.522,1.164 -0.522,2.088 0,0.936 0.174,1.638 0.522,2.106 0.36,0.468 0.876,0.702 1.548,0.702 0.672,0 1.182,-0.234 1.53,-0.702 0.36,-0.468 0.54,-1.17 0.54,-2.106 z m 7.011,-2.988 c 0.276,-0.612 0.702,-1.062 1.278,-1.35 0.576,-0.288 1.188,-0.432 1.836,-0.432 1.092,0 1.974,0.39 2.646,1.17 0.672,0.768 1.008,1.902 1.008,3.402 0,0.732 -0.09,1.404 -0.27,2.016 -0.168,0.612 -0.42,1.14 -0.756,1.584 -0.324,0.432 -0.726,0.774 -1.206,1.026 -0.48,0.24 -1.02,0.36 -1.62,0.36 -0.504,0 -1.014,-0.096 -1.53,-0.288 -0.504,-0.204 -0.912,-0.552 -1.224,-1.044 v 4.878 h -2.556 v -12.87 h 1.476 c 0.612,0 0.918,0.27 0.918,0.81 z m 0.09,3.114 c 0,0.84 0.168,1.5 0.504,1.98 0.348,0.468 0.858,0.702 1.53,0.702 0.36,0 0.666,-0.072 0.918,-0.216 0.264,-0.144 0.474,-0.342 0.63,-0.594 0.168,-0.264 0.288,-0.57 0.36,-0.918 0.084,-0.348 0.126,-0.72 0.126,-1.116 0,-0.888 -0.162,-1.566 -0.486,-2.034 -0.324,-0.48 -0.81,-0.72 -1.458,-0.72 -0.684,0 -1.212,0.264 -1.584,0.792 -0.36,0.516 -0.54,1.224 -0.54,2.124 z"
     fill="#00285a"
     id="path19739" />
  <rect
     x="497.83099"
     y="2.8175354"
     width="164"
     height="80"
     fill="#00285a"
     id="rect19741" />
  <rect
     x="497.83099"
     y="135.81754"
     width="164"
     height="80"
     fill="#00285a"
     id="rect19749" />
  <path
     d="m 86.831003,232.81754 v 28.501 H 580.831 v -28.501"
     stroke="#c9cace"
     id="path19755" />
  <path
     d="m 230.831,47.817535 10,-5.5 -10,-5.5 v 5 h -53 v 1 h 53 z"
     fill="#c9cace"
     id="path19757" />
  <path
     d="m 586.331,235.81754 -5.5,-10 -5.5,10 h 5 v 14 h 1 v -14 z"
     fill="#c9cace"
     id="path19759" />
  <path
     d="m 574.831,115.81754 5.5,10 5.5,-10 h -5 V 92.817535 h -1 v 23.000005 z"
     fill="#c9cace"
     id="path19761" />
  <path
     d="m 477.831,47.817535 10,-5.5 -10,-5.5 v 5 h -53 v 1 h 53 z"
     fill="#c9cace"
     id="path19763" />
  <path
     d="m 434.831,169.81754 -10,5.5 10,5.5 v -5 h 53 v -1 h -53 z"
     fill="#c9cace"
     id="path19773" />
  <path
     d="m 187.831,169.81754 -10,5.5 10,5.5 v -5 h 53 v -1 h -53 z"
     fill="#c9cace"
     id="path19775" />
  <text
     xml:space="preserve"
     style="font-style:normal;font-variant:normal;font-weight:bold;font-stretch:normal;font-size:17.3333px;line-height:1.25;font-family:'Intel Clear';-inkscape-font-specification:'Intel Clear, Bold';font-variant-ligatures:normal;font-variant-caps:normal;font-variant-numeric:normal;font-variant-east-asian:normal;text-align:center;text-anchor:middle;fill:#ffffff"
     x="85.400604"
     y="26.947418"
     id="text23375"><tspan
       sodipodi:role="line"
       id="tspan23373"
       x="85.400604"
       y="26.947418">1. Create</tspan><tspan
       sodipodi:role="line"
       x="85.400604"
       y="48.614044"
       id="tspan26951">OpenVINO™</tspan><tspan
       sodipodi:role="line"
       x="85.400604"
       y="70.28067"
       id="tspan43095">Runtime Core</tspan></text>
  <text
     xml:space="preserve"
     style="font-style:normal;font-variant:normal;font-weight:bold;font-stretch:normal;font-size:17.3333px;line-height:1.25;font-family:'Intel Clear';-inkscape-font-specification:'Intel Clear, Bold';font-variant-ligatures:normal;font-variant-caps:normal;font-variant-numeric:normal;font-variant-east-asian:normal;text-align:center;text-anchor:middle;fill:#ffffff"
     x="579.57941"
     y="25.257416"
     id="text23375-7"><tspan
       sodipodi:role="line"
       x="579.57941"
       y="25.257416"
       id="tspan43095-7">3. Create</tspan><tspan
       sodipodi:role="line"
       x="579.57941"
       y="46.924042"
       id="tspan45286">Inference</tspan><tspan
       sodipodi:role="line"
       x="579.57941"
       y="68.590668"
       id="tspan46830"> Request</tspan></text>
  <text
     xml:space="preserve"
     style="font-style:normal;font-variant:normal;font-weight:bold;font-stretch:normal;font-size:17.3333px;line-height:1.25;font-family:'Intel Clear';-inkscape-font-specification:'Intel Clear, Bold';font-variant-ligatures:normal;font-variant-caps:normal;font-variant-numeric:normal;font-variant-east-asian:normal;text-align:center;text-anchor:middle;fill:#ffffff"
     x="578.50342"
     y="180.63101"
     id="text23375-7-6"><tspan
       sodipodi:role="line"
       x="578.50342"
       y="180.63101"
       id="tspan46830-5">4. Set Inputs</tspan></text>
  <text
     xml:space="preserve"
     style="font-style:normal;font-variant:normal;font-weight:bold;font-stretch:normal;font-size:17.3333px;line-height:1.25;font-family:'Intel Clear';-inkscape-font-specification:'Intel Clear, Bold';font-variant-ligatures:normal;font-variant-caps:normal;font-variant-numeric:normal;font-variant-east-asian:normal;text-align:center;text-anchor:middle;fill:#ffffff"
     x="332.65402"
     y="171.50504"
     id="text23375-7-6-4"><tspan
       sodipodi:role="line"
       x="332.65402"
       y="171.50504"
       id="tspan56250">5. Start</tspan><tspan
       sodipodi:role="line"
       x="332.65402"
       y="193.17166"
       id="tspan56254">Inference</tspan></text>
  <text
     xml:space="preserve"
     style="font-style:normal;font-variant:normal;font-weight:bold;font-stretch:normal;font-size:17.3333px;line-height:1.25;font-family:'Intel Clear';-inkscape-font-specification:'Intel Clear, Bold';font-variant-ligatures:normal;font-variant-caps:normal;font-variant-numeric:normal;font-variant-east-asian:normal;text-align:center;text-anchor:middle;fill:#ffffff"
     x="81.884232"
     y="160.54172"
     id="text23375-7-6-4-5"><tspan
       sodipodi:role="line"
       x="81.884232"
       y="160.54172"
       id="tspan56250-1">6. Process</tspan><tspan
       sodipodi:role="line"
       x="81.884232"
       y="182.20834"
       id="tspan56254-1">Inference</tspan><tspan
       sodipodi:role="line"
       x="81.884232"
       y="203.87497"
       id="tspan63568">Results</tspan></text>
  <text
     xml:space="preserve"
     style="font-style:normal;font-variant:normal;font-weight:bold;font-stretch:normal;font-size:17.3333px;line-height:1.25;font-family:'Intel Clear';-inkscape-font-specification:'Intel Clear, Bold';font-variant-ligatures:normal;font-variant-caps:normal;font-variant-numeric:normal;font-variant-east-asian:normal;text-align:center;text-anchor:middle;fill:#ffffff"
     x="332.75928"
     y="47.028046"
     id="text23375-2"><tspan
       sodipodi:role="line"
       x="332.75928"
       y="47.028046"
       id="tspan36063">2. Compile Model</tspan></text>
</svg>
