<?xml version="1.0" encoding="UTF-8" standalone="no"?>
<svg
   width="664.31476"
   height="265.15228"
   viewBox="0 0 664.31476 265.15228"
   fill="none"
   version="1.1"
   id="svg19777"
   sodipodi:docname="IMPLEMENT_PIPELINE_with_API_C.svg"
   inkscape:version="1.1.2 (b8e25be833, 2022-02-05)"
   xmlns:inkscape="http://www.inkscape.org/namespaces/inkscape"
   xmlns:sodipodi="http://sodipodi.sourceforge.net/DTD/sodipodi-0.dtd"
   xmlns="http://www.w3.org/2000/svg"
   xmlns:svg="http://www.w3.org/2000/svg">
  <defs
     id="defs19781" />
  <sodipodi:namedview
     id="namedview19779"
     pagecolor="#ffffff"
     bordercolor="#666666"
     borderopacity="1.0"
     inkscape:pageshadow="2"
     inkscape:pageopacity="0.0"
     inkscape:pagecheckerboard="0"
     showgrid="false"
     inkscape:zoom="1.3249068"
     inkscape:cx="332.85359"
     inkscape:cy="52.833903"
     inkscape:window-width="1920"
     inkscape:window-height="1137"
     inkscape:window-x="-8"
     inkscape:window-y="-8"
     inkscape:window-maximized="1"
     inkscape:current-layer="svg19777" />
  <rect
     style="fill:#ffffff;stroke-width:0.930441"
     id="rect64326"
     width="664.31476"
     height="265.15228"
     x="0"
     y="0" />
  <rect
     x="3.8310032"
     y="2.8175354"
     width="164"
     height="80"
     fill="#00285a"
     id="rect19723" />
  <rect
     x="250.83101"
     y="2.8175354"
     width="164"
     height="80"
     fill="#00285a"
     id="rect19727" />
  <rect
     x="250.83101"
     y="135.81754"
     width="164"
     height="80"
     fill="#00285a"
     id="rect19731" />
  <rect
     x="3.8310032"
     y="135.81754"
     width="164"
     height="80"
     fill="#00285a"
     id="rect19735" />
  <path
     d="m 274.364,253.81754 h -2.628 v -12.42 h 2.628 z m 2.694,-9.09 h 1.458 c 0.612,0 0.918,0.264 0.918,0.792 v 0.666 c 0.24,-0.516 0.618,-0.924 1.134,-1.224 0.516,-0.312 1.134,-0.468 1.854,-0.468 0.972,0 1.722,0.282 2.25,0.846 0.54,0.564 0.81,1.41 0.81,2.538 v 5.94 h -2.556 v -5.76 c 0,-1.056 -0.468,-1.584 -1.404,-1.584 -0.588,0 -1.056,0.21 -1.404,0.63 -0.336,0.42 -0.504,1.002 -0.504,1.746 v 4.968 h -2.556 z m 16.082,-1.818 h -0.414 c -0.672,0 -1.158,0.102 -1.458,0.306 -0.288,0.192 -0.432,0.594 -0.432,1.206 v 0.306 h 2.214 v 1.944 h -2.214 v 7.146 h -2.556 v -7.146 h -1.35 v -1.944 h 1.35 v -0.666 c 0,-1.056 0.306,-1.854 0.918,-2.394 0.612,-0.54 1.5,-0.81 2.664,-0.81 0.204,0 0.426,0.012 0.666,0.036 0.24,0.012 0.444,0.042 0.612,0.09 z m 3.16,6.912 c 0.096,0.792 0.36,1.368 0.792,1.728 0.444,0.348 1.056,0.522 1.836,0.522 0.42,0 0.822,-0.054 1.206,-0.162 0.384,-0.108 0.726,-0.264 1.026,-0.468 l 0.864,1.512 c -0.852,0.732 -1.974,1.098 -3.366,1.098 -0.828,0 -1.548,-0.12 -2.16,-0.36 -0.6,-0.252 -1.104,-0.594 -1.512,-1.026 -0.396,-0.432 -0.69,-0.942 -0.882,-1.53 -0.192,-0.588 -0.288,-1.218 -0.288,-1.89 0,-0.78 0.12,-1.464 0.36,-2.052 0.24,-0.6 0.564,-1.098 0.972,-1.494 0.42,-0.396 0.906,-0.696 1.458,-0.9 0.564,-0.204 1.158,-0.306 1.782,-0.306 0.636,0 1.2,0.102 1.692,0.306 0.492,0.192 0.9,0.468 1.224,0.828 0.336,0.36 0.588,0.792 0.756,1.296 0.18,0.492 0.27,1.044 0.27,1.656 0,0.204 -0.012,0.42 -0.036,0.648 -0.012,0.216 -0.042,0.414 -0.09,0.594 z m 2.088,-3.456 c -0.576,0 -1.044,0.174 -1.404,0.522 -0.36,0.348 -0.57,0.828 -0.63,1.44 h 3.672 v -0.234 c 0,-0.552 -0.15,-0.978 -0.45,-1.278 -0.288,-0.3 -0.684,-0.45 -1.188,-0.45 z m 5.916,-1.638 h 1.458 c 0.612,0 0.918,0.264 0.918,0.792 v 1.116 c 0.192,-0.612 0.51,-1.098 0.954,-1.458 0.456,-0.372 1.02,-0.558 1.692,-0.558 0.276,0 0.516,0.03 0.72,0.09 v 2.088 h -0.522 c -0.912,0 -1.584,0.234 -2.016,0.702 -0.432,0.468 -0.648,1.248 -0.648,2.34 v 3.978 h -2.556 z m 8.747,5.094 c 0.096,0.792 0.36,1.368 0.792,1.728 0.444,0.348 1.056,0.522 1.836,0.522 0.42,0 0.822,-0.054 1.206,-0.162 0.384,-0.108 0.726,-0.264 1.026,-0.468 l 0.864,1.512 c -0.852,0.732 -1.974,1.098 -3.366,1.098 -0.828,0 -1.548,-0.12 -2.16,-0.36 -0.6,-0.252 -1.104,-0.594 -1.512,-1.026 -0.396,-0.432 -0.69,-0.942 -0.882,-1.53 -0.192,-0.588 -0.288,-1.218 -0.288,-1.89 0,-0.78 0.12,-1.464 0.36,-2.052 0.24,-0.6 0.564,-1.098 0.972,-1.494 0.42,-0.396 0.906,-0.696 1.458,-0.9 0.564,-0.204 1.158,-0.306 1.782,-0.306 0.636,0 1.2,0.102 1.692,0.306 0.492,0.192 0.9,0.468 1.224,0.828 0.336,0.36 0.588,0.792 0.756,1.296 0.18,0.492 0.27,1.044 0.27,1.656 0,0.204 -0.012,0.42 -0.036,0.648 -0.012,0.216 -0.042,0.414 -0.09,0.594 z m 2.088,-3.456 c -0.576,0 -1.044,0.174 -1.404,0.522 -0.36,0.348 -0.57,0.828 -0.63,1.44 h 3.672 v -0.234 c 0,-0.552 -0.15,-0.978 -0.45,-1.278 -0.288,-0.3 -0.684,-0.45 -1.188,-0.45 z m 5.917,-1.638 h 1.458 c 0.612,0 0.918,0.264 0.918,0.792 v 0.666 c 0.24,-0.516 0.618,-0.924 1.134,-1.224 0.516,-0.312 1.134,-0.468 1.854,-0.468 0.972,0 1.722,0.282 2.25,0.846 0.54,0.564 0.81,1.41 0.81,2.538 v 5.94 h -2.556 v -5.76 c 0,-1.056 -0.468,-1.584 -1.404,-1.584 -0.588,0 -1.056,0.21 -1.404,0.63 -0.336,0.42 -0.504,1.002 -0.504,1.746 v 4.968 h -2.556 z m 13.022,4.536 c 0,0.888 0.204,1.566 0.612,2.034 0.42,0.456 1.05,0.684 1.89,0.684 0.348,0 0.684,-0.042 1.008,-0.126 0.336,-0.096 0.624,-0.228 0.864,-0.396 l 0.756,1.746 c -0.348,0.252 -0.768,0.456 -1.26,0.612 -0.492,0.156 -1.062,0.234 -1.71,0.234 -0.744,0 -1.41,-0.108 -1.998,-0.324 -0.588,-0.228 -1.086,-0.546 -1.494,-0.954 -0.408,-0.408 -0.726,-0.906 -0.954,-1.494 -0.216,-0.588 -0.324,-1.254 -0.324,-1.998 0,-0.744 0.114,-1.41 0.342,-1.998 0.228,-0.588 0.546,-1.086 0.954,-1.494 0.42,-0.42 0.924,-0.738 1.512,-0.954 0.6,-0.228 1.272,-0.342 2.016,-0.342 0.6,0 1.134,0.072 1.602,0.216 0.468,0.144 0.876,0.336 1.224,0.576 l -0.774,1.746 c -0.228,-0.156 -0.492,-0.27 -0.792,-0.342 -0.3,-0.084 -0.618,-0.126 -0.954,-0.126 -0.768,0 -1.38,0.222 -1.836,0.666 -0.456,0.432 -0.684,1.11 -0.684,2.034 z m 8.557,0.558 c 0.096,0.792 0.36,1.368 0.792,1.728 0.444,0.348 1.056,0.522 1.836,0.522 0.42,0 0.822,-0.054 1.206,-0.162 0.384,-0.108 0.726,-0.264 1.026,-0.468 l 0.864,1.512 c -0.852,0.732 -1.974,1.098 -3.366,1.098 -0.828,0 -1.548,-0.12 -2.16,-0.36 -0.6,-0.252 -1.104,-0.594 -1.512,-1.026 -0.396,-0.432 -0.69,-0.942 -0.882,-1.53 -0.192,-0.588 -0.288,-1.218 -0.288,-1.89 0,-0.78 0.12,-1.464 0.36,-2.052 0.24,-0.6 0.564,-1.098 0.972,-1.494 0.42,-0.396 0.906,-0.696 1.458,-0.9 0.564,-0.204 1.158,-0.306 1.782,-0.306 0.636,0 1.2,0.102 1.692,0.306 0.492,0.192 0.9,0.468 1.224,0.828 0.336,0.36 0.588,0.792 0.756,1.296 0.18,0.492 0.27,1.044 0.27,1.656 0,0.204 -0.012,0.42 -0.036,0.648 -0.012,0.216 -0.042,0.414 -0.09,0.594 z m 2.088,-3.456 c -0.576,0 -1.044,0.174 -1.404,0.522 -0.36,0.348 -0.57,0.828 -0.63,1.44 h 3.672 v -0.234 c 0,-0.552 -0.15,-0.978 -0.45,-1.278 -0.288,-0.3 -0.684,-0.45 -1.188,-0.45 z m 13.119,5.4 h 5.58 v 2.052 h -8.208 v -12.42 h 2.628 z m 15.734,-2.502 c 0,0.756 -0.114,1.434 -0.342,2.034 -0.216,0.588 -0.528,1.086 -0.936,1.494 -0.408,0.408 -0.9,0.72 -1.476,0.936 -0.576,0.216 -1.218,0.324 -1.926,0.324 -0.708,0 -1.35,-0.108 -1.926,-0.324 -0.576,-0.216 -1.068,-0.528 -1.476,-0.936 -0.408,-0.408 -0.726,-0.906 -0.954,-1.494 -0.216,-0.6 -0.324,-1.278 -0.324,-2.034 0,-0.756 0.108,-1.428 0.324,-2.016 0.228,-0.588 0.546,-1.086 0.954,-1.494 0.408,-0.408 0.9,-0.72 1.476,-0.936 0.576,-0.216 1.218,-0.324 1.926,-0.324 0.708,0 1.35,0.108 1.926,0.324 0.576,0.216 1.068,0.528 1.476,0.936 0.408,0.408 0.72,0.906 0.936,1.494 0.228,0.588 0.342,1.26 0.342,2.016 z m -2.61,0 c 0,-0.924 -0.18,-1.62 -0.54,-2.088 -0.348,-0.468 -0.858,-0.702 -1.53,-0.702 -0.672,0 -1.188,0.234 -1.548,0.702 -0.348,0.468 -0.522,1.164 -0.522,2.088 0,0.936 0.174,1.638 0.522,2.106 0.36,0.468 0.876,0.702 1.548,0.702 0.672,0 1.182,-0.234 1.53,-0.702 0.36,-0.468 0.54,-1.17 0.54,-2.106 z m 13.473,0 c 0,0.756 -0.114,1.434 -0.342,2.034 -0.216,0.588 -0.528,1.086 -0.936,1.494 -0.408,0.408 -0.9,0.72 -1.476,0.936 -0.576,0.216 -1.218,0.324 -1.926,0.324 -0.708,0 -1.35,-0.108 -1.926,-0.324 -0.576,-0.216 -1.068,-0.528 -1.476,-0.936 -0.408,-0.408 -0.726,-0.906 -0.954,-1.494 -0.216,-0.6 -0.324,-1.278 -0.324,-2.034 0,-0.756 0.108,-1.428 0.324,-2.016 0.228,-0.588 0.546,-1.086 0.954,-1.494 0.408,-0.408 0.9,-0.72 1.476,-0.936 0.576,-0.216 1.218,-0.324 1.926,-0.324 0.708,0 1.35,0.108 1.926,0.324 0.576,0.216 1.068,0.528 1.476,0.936 0.408,0.408 0.72,0.906 0.936,1.494 0.228,0.588 0.342,1.26 0.342,2.016 z m -2.61,0 c 0,-0.924 -0.18,-1.62 -0.54,-2.088 -0.348,-0.468 -0.858,-0.702 -1.53,-0.702 -0.672,0 -1.188,0.234 -1.548,0.702 -0.348,0.468 -0.522,1.164 -0.522,2.088 0,0.936 0.174,1.638 0.522,2.106 0.36,0.468 0.876,0.702 1.548,0.702 0.672,0 1.182,-0.234 1.53,-0.702 0.36,-0.468 0.54,-1.17 0.54,-2.106 z m 7.011,-2.988 c 0.276,-0.612 0.702,-1.062 1.278,-1.35 0.576,-0.288 1.188,-0.432 1.836,-0.432 1.092,0 1.974,0.39 2.646,1.17 0.672,0.768 1.008,1.902 1.008,3.402 0,0.732 -0.09,1.404 -0.27,2.016 -0.168,0.612 -0.42,1.14 -0.756,1.584 -0.324,0.432 -0.726,0.774 -1.206,1.026 -0.48,0.24 -1.02,0.36 -1.62,0.36 -0.504,0 -1.014,-0.096 -1.53,-0.288 -0.504,-0.204 -0.912,-0.552 -1.224,-1.044 v 4.878 h -2.556 v -12.87 h 1.476 c 0.612,0 0.918,0.27 0.918,0.81 z m 0.09,3.114 c 0,0.84 0.168,1.5 0.504,1.98 0.348,0.468 0.858,0.702 1.53,0.702 0.36,0 0.666,-0.072 0.918,-0.216 0.264,-0.144 0.474,-0.342 0.63,-0.594 0.168,-0.264 0.288,-0.57 0.36,-0.918 0.084,-0.348 0.126,-0.72 0.126,-1.116 0,-0.888 -0.162,-1.566 -0.486,-2.034 -0.324,-0.48 -0.81,-0.72 -1.458,-0.72 -0.684,0 -1.212,0.264 -1.584,0.792 -0.36,0.516 -0.54,1.224 -0.54,2.124 z"
     fill="#00285a"
     id="path19739" />
  <rect
     x="497.83099"
     y="2.8175354"
     width="164"
     height="80"
     fill="#00285a"
     id="rect19741" />
  <rect
     x="497.83099"
     y="135.81754"
     width="164"
     height="80"
     fill="#00285a"
     id="rect19749" />
  <path
     d="m 86.831003,232.81754 v 28.501 H 580.831 v -28.501"
     stroke="#c9cace"
     id="path19755" />
  <path
     d="m 230.831,47.817535 10,-5.5 -10,-5.5 v 5 h -53 v 1 h 53 z"
     fill="#c9cace"
     id="path19757" />
  <path
     d="m 586.331,235.81754 -5.5,-10 -5.5,10 h 5 v 14 h 1 v -14 z"
     fill="#c9cace"
     id="path19759" />
  <path
     d="m 574.831,115.81754 5.5,10 5.5,-10 h -5 V 92.817535 h -1 v 23.000005 z"
     fill="#c9cace"
     id="path19761" />
  <path
     d="m 477.831,47.817535 10,-5.5 -10,-5.5 v 5 h -53 v 1 h 53 z"
     fill="#c9cace"
     id="path19763" />
  <path
     d="m 434.831,169.81754 -10,5.5 10,5.5 v -5 h 53 v -1 h -53 z"
     fill="#c9cace"
     id="path19773" />
  <path
     d="m 187.831,169.81754 -10,5.5 10,5.5 v -5 h 53 v -1 h -53 z"
     fill="#c9cace"
     id="path19775" />
  <g
     aria-label="1. Create
OpenVINO™
Runtime Core"
     id="text23375"
     style="font-weight:bold;font-size:17.3333px;line-height:1.25;font-family:'Intel Clear';-inkscape-font-specification:'Intel Clear, Bold';text-align:center;text-anchor:middle;fill:#ffffff">
    <path
       d="m 54.54733,26.947418 v -9.203982 l -2.651995,1.334664 -0.987998,-1.923996 3.934659,-1.94133 h 2.183996 v 11.734644 z"
       id="path9583" />
    <path
       d="m 60.960649,26.947418 v -2.634661 h 2.669328 v 2.634661 z"
       id="path9585" />
    <path
       d="m 79.333938,26.11542 q -0.675998,0.502666 -1.62933,0.797332 -0.935998,0.294666 -2.131996,0.294666 -1.438664,0 -2.547995,-0.433333 -1.109331,-0.450666 -1.871996,-1.247997 -0.762665,-0.814665 -1.161331,-1.958663 -0.398666,-1.161331 -0.398666,-2.582662 0,-1.490664 0.433332,-2.651995 0.433333,-1.178664 1.230665,-1.975996 0.797331,-0.797332 1.906663,-1.213331 1.126664,-0.415999 2.513328,-0.415999 2.183996,0 3.51866,1.022665 l -0.935998,1.750663 q -0.537333,-0.363999 -1.143998,-0.519999 -0.589332,-0.173333 -1.247998,-0.173333 -1.78533,0 -2.721328,1.074665 -0.918665,1.074664 -0.918665,3.10266 0,2.010663 0.918665,3.067994 0.935998,1.057331 2.721328,1.057331 0.779999,0 1.403998,-0.190666 0.623998,-0.207999 1.126664,-0.554665 z"
       id="path9587" />
    <path
       d="m 80.876591,18.194102 h 1.403997 q 0.883999,0 0.883999,0.762665 v 1.074665 q 0.277332,-0.883999 0.918664,-1.403998 0.658666,-0.537332 1.629331,-0.537332 0.398665,0 0.693332,0.08667 v 2.010662 h -0.502666 q -1.317331,0 -1.94133,0.675999 -0.623998,0.675999 -0.623998,2.253329 v 3.830659 h -2.461329 z"
       id="path9589" />
    <path
       d="m 89.300597,23.099426 q 0.138667,1.143997 0.762666,1.663996 0.641332,0.502666 1.767996,0.502666 0.606666,0 1.161331,-0.156 0.554666,-0.155999 0.987998,-0.450665 l 0.831999,1.455997 q -1.230665,1.057331 -3.241327,1.057331 -1.195998,0 -2.079996,-0.346666 -0.866665,-0.363999 -1.455997,-0.987998 -0.571999,-0.623999 -0.849332,-1.47333 -0.277333,-0.849332 -0.277333,-1.819997 0,-1.126664 0.346666,-1.975996 0.346666,-0.866665 0.935998,-1.438664 0.606666,-0.571999 1.403998,-0.866665 0.814665,-0.294666 1.715996,-0.294666 0.918665,0 1.62933,0.294666 0.710666,0.277333 1.178665,0.797332 0.485332,0.519999 0.727998,1.247997 0.26,0.710666 0.26,1.594664 0,0.294666 -0.03467,0.623999 -0.01733,0.311999 -0.08667,0.571999 z m 2.010663,-3.327994 q -0.831998,0 -1.351997,0.502666 -0.519999,0.502666 -0.606666,1.386664 h 3.535993 v -0.225333 q 0,-0.797332 -0.433332,-1.230664 -0.415999,-0.433333 -1.143998,-0.433333 z"
       id="path9591" />
    <path
       d="m 96.355257,24.48609 q 0,-1.369331 0.987998,-2.079996 0.987998,-0.727999 2.721325,-0.727999 h 1.42133 v -0.346666 q 0,-0.762665 -0.416,-1.109331 -0.39866,-0.363999 -1.28266,-0.363999 -0.658665,0 -1.265331,0.190666 -0.606665,0.190666 -1.109331,0.537332 l -0.849332,-1.438664 q 0.727999,-0.554665 1.646664,-0.866665 0.918665,-0.311999 1.976,-0.311999 1.80266,0 2.70399,0.866665 0.91867,0.866665 0.91867,2.495995 v 3.36266 q 0,0.398666 0.13866,0.537333 0.13867,0.121333 0.50267,0.121333 h 0.19066 v 1.507997 q -0.19066,0.06933 -0.45066,0.121333 -0.26,0.052 -0.624,0.052 -0.76267,0 -1.144,-0.312 -0.38133,-0.311999 -0.45066,-0.918665 -0.312,0.623999 -1.04,0.987999 -0.728,0.363999 -1.663999,0.363999 -1.317331,0 -2.114663,-0.710665 -0.797331,-0.710666 -0.797331,-1.958663 z m 3.535993,0.901331 q 0.74533,0 1.16133,-0.485332 0.43333,-0.485333 0.43333,-1.369331 v -0.450666 h -1.19599 q -0.76267,0 -1.178669,0.312 -0.398666,0.294666 -0.398666,0.901331 0,0.554666 0.312,0.831999 0.329332,0.259999 0.866665,0.259999 z"
       id="path9593" />
    <path
       d="m 110.96722,25.058089 v 1.837329 q -0.27733,0.06933 -0.60666,0.104 -0.32934,0.03467 -0.78,0.03467 -1.56,0 -2.288,-0.710666 -0.728,-0.727998 -0.728,-2.357328 v -3.899993 h -1.29999 v -1.871996 h 1.29999 v -2.097329 h 2.46133 v 2.097329 h 1.94133 v 1.871996 h -1.94133 v 3.67466 q 0,0.779998 0.34667,1.057331 0.34666,0.26 1.248,0.26 z"
       id="path9595" />
    <path
       d="m 114.46854,23.099426 q 0.13867,1.143997 0.76267,1.663996 0.64133,0.502666 1.768,0.502666 0.60666,0 1.16133,-0.156 0.55466,-0.155999 0.98799,-0.450665 l 0.832,1.455997 q -1.23066,1.057331 -3.24132,1.057331 -1.196,0 -2.08,-0.346666 -0.86667,-0.363999 -1.456,-0.987998 -0.572,-0.623999 -0.84933,-1.47333 -0.27733,-0.849332 -0.27733,-1.819997 0,-1.126664 0.34666,-1.975996 0.34667,-0.866665 0.936,-1.438664 0.60667,-0.571999 1.404,-0.866665 0.81466,-0.294666 1.716,-0.294666 0.91866,0 1.62933,0.294666 0.71066,0.277333 1.17866,0.797332 0.48533,0.519999 0.728,1.247997 0.26,0.710666 0.26,1.594664 0,0.294666 -0.0347,0.623999 -0.0173,0.311999 -0.0867,0.571999 z m 2.01067,-3.327994 q -0.832,0 -1.352,0.502666 -0.52,0.502666 -0.60667,1.386664 h 3.536 v -0.225333 q 0,-0.797332 -0.43334,-1.230664 -0.416,-0.433333 -1.14399,-0.433333 z"
       id="path9597" />
    <path
       d="m 43.792035,46.794046 q 1.577331,0 2.391996,-1.039998 0.831998,-1.039998 0.831998,-3.119994 0,-2.062662 -0.831998,-3.10266 -0.814665,-1.057332 -2.391996,-1.057332 -1.57733,0 -2.409328,1.057332 -0.814665,1.039998 -0.814665,3.10266 0,2.079996 0.814665,3.119994 0.831998,1.039998 2.409328,1.039998 z m 0,2.079996 q -1.351997,0 -2.443995,-0.415999 -1.091998,-0.433332 -1.854663,-1.230664 -0.745332,-0.814665 -1.161331,-1.975996 -0.398666,-1.161331 -0.398666,-2.617329 0,-1.455997 0.398666,-2.599995 0.415999,-1.161331 1.161331,-1.958662 0.762665,-0.814666 1.854663,-1.247998 1.091998,-0.433332 2.443995,-0.433332 1.351998,0 2.443996,0.433332 1.091998,0.433332 1.837329,1.247998 0.762666,0.797331 1.161331,1.958662 0.416,1.143998 0.416,2.599995 0,1.455998 -0.416,2.617329 -0.398665,1.161331 -1.161331,1.975996 -0.745331,0.797332 -1.837329,1.230664 -1.091998,0.415999 -2.443996,0.415999 z"
       id="path9599" />
    <path
       d="m 54.001338,41.35139 q 0.398666,-0.883998 1.230664,-1.299997 0.831998,-0.415999 1.767997,-0.415999 1.57733,0 2.547995,1.126664 0.970664,1.109331 0.970664,3.275994 0,1.057331 -0.259999,1.941329 -0.242666,0.883998 -0.727999,1.525331 -0.467999,0.623998 -1.161331,0.987998 -0.693332,0.346666 -1.559997,0.346666 -0.727998,0 -1.47333,-0.277333 -0.727999,-0.294666 -1.178665,-1.005332 v 4.697325 h -2.461328 v -12.39331 h 1.42133 q 0.883999,0 0.883999,0.779999 z m 0.08667,2.998661 q 0,1.213331 0.485333,1.906663 0.502665,0.675999 1.47333,0.675999 0.519999,0 0.883998,-0.208 0.381333,-0.207999 0.606666,-0.571999 0.242666,-0.381332 0.346666,-0.883998 0.121333,-0.502666 0.121333,-1.074665 0,-1.282664 -0.467999,-1.958663 -0.467999,-0.693331 -1.403997,-0.693331 -0.987999,0 -1.525331,0.762665 -0.519999,0.745332 -0.519999,2.045329 z"
       id="path9601" />
    <path
       d="m 64.366655,44.76605 q 0.138666,1.143998 0.762665,1.663997 0.641332,0.502666 1.767996,0.502666 0.606666,0 1.161331,-0.156 0.554666,-0.156 0.987999,-0.450666 l 0.831998,1.455997 q -1.230664,1.057332 -3.241327,1.057332 -1.195998,0 -2.079996,-0.346666 -0.866665,-0.364 -1.455997,-0.987998 -0.571999,-0.623999 -0.849332,-1.473331 -0.277333,-0.849332 -0.277333,-1.819996 0,-1.126665 0.346666,-1.975997 0.346666,-0.866664 0.935998,-1.438663 0.606666,-0.571999 1.403998,-0.866665 0.814665,-0.294666 1.715996,-0.294666 0.918665,0 1.629331,0.294666 0.710665,0.277332 1.178664,0.797331 0.485332,0.519999 0.727998,1.247998 0.26,0.710665 0.26,1.594664 0,0.294666 -0.03467,0.623998 -0.01733,0.312 -0.08667,0.571999 z m 2.010662,-3.327993 q -0.831998,0 -1.351997,0.502665 -0.519999,0.502666 -0.606665,1.386664 h 3.535993 v -0.225333 q 0,-0.797331 -0.433333,-1.230664 -0.415999,-0.433332 -1.143998,-0.433332 z"
       id="path9603" />
    <path
       d="m 72.079979,39.860726 h 1.403997 q 0.883999,0 0.883999,0.762666 v 0.641332 q 0.346666,-0.745332 1.091998,-1.178665 0.745331,-0.450665 1.785329,-0.450665 1.403998,0 2.166663,0.814665 0.779998,0.814665 0.779998,2.443995 v 5.719989 h -2.461328 v -5.546656 q 0,-1.52533 -1.351998,-1.52533 -0.849331,0 -1.351997,0.606665 -0.485332,0.606665 -0.485332,1.68133 v 4.783991 h -2.461329 z"
       id="path9605" />
    <path
       d="m 84.282636,36.654066 2.894662,9.463982 2.842661,-9.463982 H 92.81062 L 88.459962,48.614043 H 85.790634 L 81.439975,36.654066 Z"
       id="path9607" />
    <path
       d="M 96.797272,48.614043 H 94.26661 V 36.654066 h 2.530662 z"
       id="path9609" />
    <path
       d="m 102.36126,36.654066 4.64532,8.579983 v -8.579983 h 2.392 v 11.959977 h -2.79066 l -4.64533,-8.423984 v 8.423984 H 99.570596 V 36.654066 Z"
       id="path9611" />
    <path
       d="m 117.47588,46.794046 q 1.57733,0 2.392,-1.039998 0.83199,-1.039998 0.83199,-3.119994 0,-2.062662 -0.83199,-3.10266 -0.81467,-1.057332 -2.392,-1.057332 -1.57733,0 -2.40933,1.057332 -0.81466,1.039998 -0.81466,3.10266 0,2.079996 0.81466,3.119994 0.832,1.039998 2.40933,1.039998 z m 0,2.079996 q -1.352,0 -2.44399,-0.415999 -1.092,-0.433332 -1.85467,-1.230664 -0.74533,-0.814665 -1.16133,-1.975996 -0.39866,-1.161331 -0.39866,-2.617329 0,-1.455997 0.39866,-2.599995 0.416,-1.161331 1.16133,-1.958662 0.76267,-0.814666 1.85467,-1.247998 1.09199,-0.433332 2.44399,-0.433332 1.352,0 2.444,0.433332 1.09199,0.433332 1.83733,1.247998 0.76266,0.797331 1.16133,1.958662 0.416,1.143998 0.416,2.599995 0,1.455998 -0.416,2.617329 -0.39867,1.161331 -1.16133,1.975996 -0.74534,0.797332 -1.83733,1.230664 -1.092,0.415999 -2.444,0.415999 z"
       id="path9613" />
    <path
       d="m 128.44785,40.744725 v -4.090659 h 1.24799 l 1.07467,2.183996 1.092,-2.183996 h 1.21333 v 4.090659 h -1.07467 v -2.617329 l -0.78,1.681331 h -0.93599 l -0.76267,-1.594664 v 2.530662 z m -2.912,0 v -3.189327 h -1.36933 v -0.901332 h 3.88266 v 0.901332 h -1.36933 v 3.189327 z"
       id="path9615" />
    <path
       d="m 40.784682,61.822017 q 0,1.230664 -0.693332,2.149329 -0.693332,0.901332 -1.871997,1.178665 l 3.397327,5.130656 h -2.911994 l -2.530662,-4.159992 q -0.190666,-0.311999 -0.363999,-0.415999 -0.173333,-0.104 -0.537333,-0.104 H 34.52736 v 4.679991 H 32.066032 V 58.320691 h 4.593324 q 0.953332,0 1.715997,0.242666 0.762665,0.242666 1.299997,0.693332 0.537333,0.450666 0.814665,1.109331 0.294667,0.641332 0.294667,1.455997 z m -2.513329,0.190666 q 0,-0.883998 -0.467999,-1.299997 -0.467999,-0.415999 -1.507997,-0.415999 H 34.52736 v 3.501326 h 1.715997 q 0.987998,0 1.507997,-0.450666 0.519999,-0.450665 0.519999,-1.334664 z"
       id="path9617" />
    <path
       d="m 50.803314,70.280667 h -1.403997 q -0.485333,0 -0.693332,-0.207999 -0.208,-0.208 -0.208,-0.641332 V 68.946003 Q 48.151319,69.726002 47.42332,70.124668 46.712655,70.506 45.776657,70.506 q -1.438664,0 -2.183996,-0.849331 -0.727998,-0.849332 -0.727998,-2.478662 v -5.650656 h 2.461328 v 5.494656 q 0,0.849332 0.329333,1.213331 0.329333,0.363999 0.970665,0.363999 0.849331,0 1.282664,-0.606665 0.433332,-0.606666 0.433332,-1.646664 v -4.818657 h 2.461329 z"
       id="path9619" />
    <path
       d="m 53.229973,61.527351 h 1.403998 q 0.883998,0 0.883998,0.762665 v 0.641332 q 0.346666,-0.745332 1.091998,-1.178664 0.745332,-0.450666 1.78533,-0.450666 1.403997,0 2.166662,0.814665 0.779999,0.814665 0.779999,2.443995 v 5.719989 h -2.461329 v -5.546656 q 0,-1.52533 -1.351997,-1.52533 -0.849332,0 -1.351998,0.606666 -0.485332,0.606665 -0.485332,1.68133 v 4.78399 h -2.461329 z"
       id="path9621" />
    <path
       d="m 68.205969,68.391338 v 1.837329 q -0.277332,0.06933 -0.606665,0.104 -0.329333,0.03467 -0.779999,0.03467 -1.559997,0 -2.287995,-0.710665 -0.727999,-0.727999 -0.727999,-2.357329 v -3.899993 h -1.299997 v -1.871996 h 1.299997 v -2.097329 h 2.461329 v 2.097329 h 1.941329 v 1.871996 H 66.26464 v 3.67466 q 0,0.779998 0.346666,1.057331 0.346666,0.26 1.247997,0.26 z"
       id="path9623" />
    <path
       d="M 72.26196,70.280667 H 69.800631 V 61.527351 H 72.26196 Z M 69.783298,57.939358 h 2.495995 v 2.235996 h -2.495995 z"
       id="path9625" />
    <path
       d="m 82.505931,70.280667 h -2.461329 v -5.494656 q 0,-1.52533 -1.230664,-1.52533 -0.779999,0 -1.230664,0.554666 -0.433333,0.537332 -0.433333,1.57733 v 4.88799 h -2.461328 v -8.753316 h 1.403997 q 0.883998,0 0.883998,0.762665 v 0.606666 q 0.346666,-0.779999 1.057331,-1.178665 0.727999,-0.415999 1.663997,-0.415999 0.935998,0 1.559997,0.415999 0.641332,0.398666 0.935998,1.178665 0.381333,-0.762666 1.109331,-1.178665 0.727999,-0.415999 1.715997,-0.415999 1.369331,0 2.097329,0.849332 0.745332,0.831998 0.745332,2.409328 v 5.719989 h -2.461328 v -5.494656 q 0,-1.52533 -1.230665,-1.52533 -0.779998,0 -1.230664,0.554666 -0.433332,0.537332 -0.433332,1.57733 z"
       id="path9627" />
    <path
       d="m 92.160591,66.432675 q 0.138666,1.143998 0.762665,1.663997 0.641332,0.502665 1.767997,0.502665 0.606665,0 1.161331,-0.155999 0.554665,-0.156 0.987998,-0.450666 l 0.831998,1.455997 Q 96.441916,70.506 94.431253,70.506 q -1.195998,0 -2.079996,-0.346666 -0.866665,-0.363999 -1.455997,-0.987998 -0.571999,-0.623999 -0.849332,-1.47333 -0.277333,-0.849332 -0.277333,-1.819997 0,-1.126664 0.346666,-1.975996 0.346666,-0.866665 0.935999,-1.438664 0.606665,-0.571999 1.403997,-0.866665 0.814665,-0.294666 1.715997,-0.294666 0.918664,0 1.62933,0.294666 0.710665,0.277333 1.178664,0.797332 0.485332,0.519999 0.727999,1.247998 0.259999,0.710665 0.259999,1.594663 0,0.294666 -0.03467,0.623999 -0.01733,0.311999 -0.08667,0.571999 z m 2.010663,-3.327994 q -0.831999,0 -1.351998,0.502666 -0.519999,0.502666 -0.606665,1.386664 h 3.535993 v -0.225333 q 0,-0.797332 -0.433333,-1.230664 -0.415999,-0.433333 -1.143997,-0.433333 z"
       id="path9629" />
    <path
       d="m 113.53255,69.448669 q -0.676,0.502666 -1.62933,0.797332 -0.936,0.294666 -2.132,0.294666 -1.43866,0 -2.54799,-0.433333 -1.10934,-0.450665 -1.872,-1.247997 -0.76267,-0.814665 -1.16133,-1.958663 -0.39867,-1.161331 -0.39867,-2.582662 0,-1.490664 0.43334,-2.651995 0.43333,-1.178664 1.23066,-1.975996 0.79733,-0.797332 1.90666,-1.213331 1.12667,-0.415999 2.51333,-0.415999 2.184,0 3.51866,1.022665 l -0.936,1.750663 q -0.53733,-0.363999 -1.144,-0.519999 -0.58933,-0.173333 -1.24799,-0.173333 -1.78533,0 -2.72133,1.074665 -0.91867,1.074664 -0.91867,3.10266 0,2.010663 0.91867,3.067994 0.936,1.057332 2.72133,1.057332 0.78,0 1.40399,-0.190667 0.624,-0.207999 1.12667,-0.554665 z"
       id="path9631" />
    <path
       d="m 123.25651,65.895342 q 0,1.091998 -0.32933,1.958663 -0.312,0.849332 -0.90133,1.438664 -0.58933,0.589332 -1.42133,0.901332 -0.832,0.311999 -1.85466,0.311999 -1.02267,0 -1.85467,-0.311999 -0.832,-0.312 -1.42133,-0.901332 -0.58933,-0.589332 -0.91866,-1.438664 -0.312,-0.866665 -0.312,-1.958663 0,-1.091997 0.312,-1.941329 0.32933,-0.849332 0.91866,-1.438664 0.58933,-0.589332 1.42133,-0.901332 0.832,-0.311999 1.85467,-0.311999 1.02266,0 1.85466,0.311999 0.832,0.312 1.42133,0.901332 0.58933,0.589332 0.90133,1.438664 0.32933,0.849332 0.32933,1.941329 z m -2.51333,0 q 0,-1.334664 -0.51999,-2.010662 -0.50267,-0.675999 -1.47333,-0.675999 -0.97067,0 -1.49067,0.675999 -0.50266,0.675998 -0.50266,2.010662 0,1.351998 0.50266,2.027997 0.52,0.675998 1.49067,0.675998 0.97066,0 1.47333,-0.675998 0.51999,-0.675999 0.51999,-2.027997 z"
       id="path9633" />
    <path
       d="m 125.19784,61.527351 h 1.404 q 0.884,0 0.884,0.762665 v 1.074665 q 0.27733,-0.883999 0.91866,-1.403998 0.65867,-0.537332 1.62933,-0.537332 0.39867,0 0.69334,0.08667 v 2.010662 h -0.50267 q -1.31733,0 -1.94133,0.675999 -0.624,0.675999 -0.624,2.253329 v 3.830659 h -2.46133 z"
       id="path9635" />
    <path
       d="m 133.62185,66.432675 q 0.13867,1.143998 0.76266,1.663997 0.64134,0.502665 1.768,0.502665 0.60667,0 1.16133,-0.155999 0.55467,-0.156 0.988,-0.450666 l 0.832,1.455997 q -1.23067,1.057331 -3.24133,1.057331 -1.196,0 -2.07999,-0.346666 -0.86667,-0.363999 -1.456,-0.987998 -0.572,-0.623999 -0.84933,-1.47333 -0.27734,-0.849332 -0.27734,-1.819997 0,-1.126664 0.34667,-1.975996 0.34667,-0.866665 0.936,-1.438664 0.60666,-0.571999 1.40399,-0.866665 0.81467,-0.294666 1.716,-0.294666 0.91867,0 1.62933,0.294666 0.71067,0.277333 1.17867,0.797332 0.48533,0.519999 0.72799,1.247998 0.26,0.710665 0.26,1.594663 0,0.294666 -0.0347,0.623999 -0.0173,0.311999 -0.0867,0.571999 z m 2.01066,-3.327994 q -0.832,0 -1.352,0.502666 -0.51999,0.502666 -0.60666,1.386664 h 3.53599 v -0.225333 q 0,-0.797332 -0.43333,-1.230664 -0.416,-0.433333 -1.144,-0.433333 z"
       id="path9637" />
  </g>
  <g
     aria-label="3. Create
Inference
 Request"
     id="text23375-7"
     style="font-weight:bold;font-size:17.3333px;line-height:1.25;font-family:'Intel Clear';-inkscape-font-specification:'Intel Clear, Bold';text-align:center;text-anchor:middle;fill:#ffffff">
    <path
       d="m 552.62613,16.538766 q 0,0.935998 -0.39867,1.611997 -0.39867,0.658665 -1.16133,1.057331 2.06266,0.641332 2.06266,2.738662 0,0.814665 -0.312,1.47333 -0.312,0.658665 -0.90133,1.126664 -0.58933,0.450666 -1.42133,0.693332 -0.832,0.242667 -1.872,0.242667 -1.24799,0 -2.27066,-0.364 -1.00533,-0.363999 -1.73333,-1.005331 l 1.05733,-1.57733 q 0.65867,0.467999 1.33467,0.710665 0.67599,0.225333 1.45599,0.225333 1.04,0 1.57733,-0.433333 0.55467,-0.450665 0.55467,-1.282664 0,-1.455997 -2.01066,-1.455997 h -1.75067 v -1.906663 h 1.59467 q 0.86666,0 1.26533,-0.450666 0.39866,-0.450665 0.39866,-1.109331 0,-0.727998 -0.43333,-1.126664 -0.43333,-0.398666 -1.33466,-0.398666 -0.60667,0 -1.23067,0.207999 -0.624,0.208 -1.17866,0.606666 l -1.04,-1.542664 q 0.79733,-0.623999 1.75066,-0.953331 0.95333,-0.329333 2.028,-0.329333 0.884,0 1.612,0.225333 0.74533,0.208 1.26533,0.623999 0.52,0.398666 0.79733,1.005331 0.29467,0.606666 0.29467,1.386664 z"
       id="path9669" />
    <path
       d="m 555.13945,25.257416 v -2.634662 h 2.66933 v 2.634662 z"
       id="path9671" />
    <path
       d="m 573.51274,24.425417 q -0.676,0.502666 -1.62933,0.797332 -0.936,0.294666 -2.132,0.294666 -1.43866,0 -2.54799,-0.433332 -1.10933,-0.450666 -1.872,-1.247998 -0.76266,-0.814665 -1.16133,-1.958663 -0.39866,-1.161331 -0.39866,-2.582661 0,-1.490664 0.43333,-2.651995 0.43333,-1.178665 1.23066,-1.975996 0.79733,-0.797332 1.90667,-1.213331 1.12666,-0.415999 2.51332,-0.415999 2.184,0 3.51866,1.022664 l -0.93599,1.750663 q -0.53734,-0.363999 -1.144,-0.519999 -0.58933,-0.173333 -1.248,-0.173333 -1.78533,0 -2.72133,1.074665 -0.91866,1.074665 -0.91866,3.102661 0,2.010662 0.91866,3.067994 0.936,1.057331 2.72133,1.057331 0.78,0 1.404,-0.190666 0.624,-0.208 1.12666,-0.554666 z"
       id="path9673" />
    <path
       d="m 575.05539,16.504099 h 1.404 q 0.884,0 0.884,0.762666 v 1.074664 q 0.27733,-0.883998 0.91866,-1.403997 0.65867,-0.537332 1.62933,-0.537332 0.39867,0 0.69334,0.08667 v 2.010663 h -0.50267 q -1.31733,0 -1.94133,0.675999 -0.624,0.675998 -0.624,2.253329 v 3.830659 h -2.46133 z"
       id="path9675" />
    <path
       d="m 583.4794,21.409423 q 0.13867,1.143998 0.76267,1.663997 0.64133,0.502666 1.76799,0.502666 0.60667,0 1.16133,-0.156 0.55467,-0.156 0.988,-0.450666 l 0.832,1.455997 q -1.23067,1.057332 -3.24133,1.057332 -1.196,0 -2.07999,-0.346666 -0.86667,-0.364 -1.456,-0.987998 -0.572,-0.623999 -0.84933,-1.473331 -0.27734,-0.849332 -0.27734,-1.819996 0,-1.126665 0.34667,-1.975996 0.34667,-0.866665 0.936,-1.438664 0.60666,-0.571999 1.404,-0.866665 0.81466,-0.294666 1.71599,-0.294666 0.91867,0 1.62933,0.294666 0.71067,0.277332 1.17867,0.797331 0.48533,0.519999 0.728,1.247998 0.26,0.710665 0.26,1.594664 0,0.294666 -0.0347,0.623998 -0.0173,0.312 -0.0867,0.571999 z m 2.01066,-3.327993 q -0.832,0 -1.35199,0.502665 -0.52,0.502666 -0.60667,1.386664 h 3.53599 v -0.225333 q 0,-0.797331 -0.43333,-1.230664 -0.416,-0.433332 -1.144,-0.433332 z"
       id="path9677" />
    <path
       d="m 590.53406,22.796087 q 0,-1.36933 0.988,-2.079996 0.988,-0.727998 2.72133,-0.727998 h 1.42133 v -0.346666 q 0,-0.762665 -0.416,-1.109331 -0.39867,-0.364 -1.28267,-0.364 -0.65866,0 -1.26533,0.190667 -0.60666,0.190666 -1.10933,0.537332 l -0.84933,-1.438664 q 0.728,-0.554666 1.64666,-0.866665 0.91867,-0.311999 1.976,-0.311999 1.80266,0 2.70399,0.866665 0.91867,0.866665 0.91867,2.495995 v 3.36266 q 0,0.398666 0.13866,0.537332 0.13867,0.121333 0.50267,0.121333 h 0.19067 v 1.507997 q -0.19067,0.06933 -0.45067,0.121333 -0.26,0.052 -0.624,0.052 -0.76266,0 -1.144,-0.311999 -0.38133,-0.312 -0.45066,-0.918665 -0.312,0.623999 -1.04,0.987998 -0.728,0.363999 -1.664,0.363999 -1.31733,0 -2.11466,-0.710665 -0.79733,-0.710665 -0.79733,-1.958663 z m 3.53599,0.901332 q 0.74533,0 1.16133,-0.485333 0.43334,-0.485332 0.43334,-1.36933 V 21.39209 h -1.196 q -0.76267,0 -1.17867,0.311999 -0.39866,0.294666 -0.39866,0.901332 0,0.554666 0.312,0.831998 0.32933,0.26 0.86666,0.26 z"
       id="path9679" />
    <path
       d="m 605.14602,23.368086 v 1.83733 q -0.27733,0.06933 -0.60666,0.104 -0.32933,0.03467 -0.78,0.03467 -1.56,0 -2.28799,-0.710665 -0.728,-0.727999 -0.728,-2.357329 v -3.899992 h -1.3 v -1.871997 h 1.3 V 14.40677 h 2.46133 v 2.097329 h 1.94132 v 1.871997 h -1.94132 v 3.674659 q 0,0.779999 0.34666,1.057332 0.34667,0.259999 1.248,0.259999 z"
       id="path9681" />
    <path
       d="m 608.64735,21.409423 q 0.13866,1.143998 0.76266,1.663997 0.64133,0.502666 1.768,0.502666 0.60666,0 1.16133,-0.156 0.55466,-0.156 0.988,-0.450666 l 0.832,1.455997 q -1.23067,1.057332 -3.24133,1.057332 -1.196,0 -2.08,-0.346666 -0.86666,-0.364 -1.456,-0.987998 -0.57199,-0.623999 -0.84933,-1.473331 -0.27733,-0.849332 -0.27733,-1.819996 0,-1.126665 0.34667,-1.975996 0.34666,-0.866665 0.93599,-1.438664 0.60667,-0.571999 1.404,-0.866665 0.81467,-0.294666 1.716,-0.294666 0.91866,0 1.62933,0.294666 0.71066,0.277332 1.17866,0.797331 0.48534,0.519999 0.728,1.247998 0.26,0.710665 0.26,1.594664 0,0.294666 -0.0347,0.623998 -0.0173,0.312 -0.0867,0.571999 z m 2.01066,-3.327993 q -0.832,0 -1.352,0.502665 -0.52,0.502666 -0.60666,1.386664 h 3.53599 v -0.225333 q 0,-0.797331 -0.43333,-1.230664 -0.416,-0.433332 -1.144,-0.433332 z"
       id="path9683" />
    <path
       d="m 545.41543,46.92404 h -2.53066 V 34.964064 h 2.53066 z"
       id="path9685" />
    <path
       d="m 548.01542,38.170724 h 1.404 q 0.884,0 0.884,0.762665 v 0.641332 q 0.34666,-0.745332 1.092,-1.178664 0.74533,-0.450666 1.78533,-0.450666 1.40399,0 2.16666,0.814665 0.78,0.814665 0.78,2.443995 v 5.719989 h -2.46133 v -5.546656 q 0,-1.52533 -1.352,-1.52533 -0.84933,0 -1.352,0.606666 -0.48533,0.606665 -0.48533,1.68133 v 4.78399 h -2.46133 z"
       id="path9687" />
    <path
       d="m 563.49407,36.420061 h -0.39866 q -0.97067,0 -1.404,0.294666 -0.416,0.277333 -0.416,1.161331 v 0.294666 h 2.132 v 1.871996 h -2.132 v 6.88132 h -2.46133 v -6.88132 h -1.29999 v -1.871996 h 1.29999 v -0.641332 q 0,-1.52533 0.884,-2.305329 0.884,-0.779998 2.56533,-0.779998 0.29467,0 0.64133,0.03467 0.34667,0.01733 0.58933,0.08667 z"
       id="path9689" />
    <path
       d="m 566.54475,43.076048 q 0.13866,1.143998 0.76266,1.663997 0.64133,0.502665 1.768,0.502665 0.60666,0 1.16133,-0.155999 0.55467,-0.156 0.988,-0.450666 l 0.832,1.455997 q -1.23067,1.057331 -3.24133,1.057331 -1.196,0 -2.08,-0.346666 -0.86666,-0.363999 -1.45599,-0.987998 -0.572,-0.623999 -0.84934,-1.47333 -0.27733,-0.849332 -0.27733,-1.819997 0,-1.126664 0.34667,-1.975996 0.34666,-0.866665 0.936,-1.438664 0.60666,-0.571999 1.40399,-0.866665 0.81467,-0.294666 1.716,-0.294666 0.91866,0 1.62933,0.294666 0.71066,0.277333 1.17866,0.797332 0.48534,0.519999 0.728,1.247998 0.26,0.710665 0.26,1.594663 0,0.294666 -0.0347,0.623999 -0.0173,0.311999 -0.0867,0.571999 z m 2.01066,-3.327994 q -0.832,0 -1.352,0.502666 -0.52,0.502666 -0.60666,1.386664 h 3.53599 v -0.225333 q 0,-0.797332 -0.43333,-1.230664 -0.416,-0.433333 -1.144,-0.433333 z"
       id="path9691" />
    <path
       d="m 574.25807,38.170724 h 1.404 q 0.88399,0 0.88399,0.762665 v 1.074665 q 0.27734,-0.883999 0.91867,-1.403998 0.65867,-0.537332 1.62933,-0.537332 0.39867,0 0.69333,0.08667 v 2.010662 h -0.50266 q -1.31733,0 -1.94133,0.675999 -0.624,0.675999 -0.624,2.253329 v 3.830659 h -2.46133 z"
       id="path9693" />
    <path
       d="m 582.68208,43.076048 q 0.13866,1.143998 0.76266,1.663997 0.64133,0.502665 1.768,0.502665 0.60666,0 1.16133,-0.155999 0.55466,-0.156 0.988,-0.450666 l 0.832,1.455997 q -1.23067,1.057331 -3.24133,1.057331 -1.196,0 -2.08,-0.346666 -0.86666,-0.363999 -1.456,-0.987998 -0.57199,-0.623999 -0.84933,-1.47333 -0.27733,-0.849332 -0.27733,-1.819997 0,-1.126664 0.34667,-1.975996 0.34666,-0.866665 0.93599,-1.438664 0.60667,-0.571999 1.404,-0.866665 0.81467,-0.294666 1.716,-0.294666 0.91866,0 1.62933,0.294666 0.71066,0.277333 1.17866,0.797332 0.48534,0.519999 0.728,1.247998 0.26,0.710665 0.26,1.594663 0,0.294666 -0.0347,0.623999 -0.0173,0.311999 -0.0867,0.571999 z m 2.01066,-3.327994 q -0.832,0 -1.352,0.502666 -0.52,0.502666 -0.60666,1.386664 h 3.53599 v -0.225333 q 0,-0.797332 -0.43333,-1.230664 -0.416,-0.433333 -1.144,-0.433333 z"
       id="path9695" />
    <path
       d="m 590.3954,38.170724 h 1.404 q 0.884,0 0.884,0.762665 v 0.641332 q 0.34666,-0.745332 1.09199,-1.178664 0.74534,-0.450666 1.78533,-0.450666 1.404,0 2.16667,0.814665 0.77999,0.814665 0.77999,2.443995 v 5.719989 h -2.46132 v -5.546656 q 0,-1.52533 -1.352,-1.52533 -0.84933,0 -1.352,0.606666 -0.48533,0.606665 -0.48533,1.68133 v 4.78399 h -2.46133 z"
       id="path9697" />
    <path
       d="m 602.92739,42.538716 q 0,1.282664 0.58933,1.958662 0.60667,0.658666 1.82,0.658666 0.50266,0 0.97066,-0.121333 0.48534,-0.138667 0.832,-0.381333 l 0.728,1.68133 q -0.50266,0.363999 -1.21333,0.589332 -0.71067,0.225333 -1.64666,0.225333 -1.07467,0 -1.924,-0.311999 -0.84933,-0.329333 -1.43866,-0.918665 -0.58934,-0.589332 -0.91867,-1.438664 -0.312,-0.849332 -0.312,-1.923996 0,-1.074665 0.32933,-1.923996 0.32934,-0.849332 0.91867,-1.438664 0.60667,-0.606666 1.456,-0.918665 0.86666,-0.329333 1.94133,-0.329333 0.86666,0 1.54266,0.208 0.676,0.207999 1.17866,0.554665 l -0.74533,1.68133 q -0.32933,-0.225333 -0.76266,-0.329332 -0.43334,-0.121333 -0.91867,-0.121333 -1.10933,0 -1.76799,0.641332 -0.65867,0.623998 -0.65867,1.958663 z"
       id="path9699" />
    <path
       d="m 611.16072,43.076048 q 0.13866,1.143998 0.76266,1.663997 0.64133,0.502665 1.768,0.502665 0.60666,0 1.16133,-0.155999 0.55467,-0.156 0.988,-0.450666 l 0.832,1.455997 q -1.23067,1.057331 -3.24133,1.057331 -1.196,0 -2.08,-0.346666 -0.86666,-0.363999 -1.45599,-0.987998 -0.572,-0.623999 -0.84934,-1.47333 -0.27733,-0.849332 -0.27733,-1.819997 0,-1.126664 0.34667,-1.975996 0.34666,-0.866665 0.936,-1.438664 0.60666,-0.571999 1.40399,-0.866665 0.81467,-0.294666 1.716,-0.294666 0.91867,0 1.62933,0.294666 0.71067,0.277333 1.17866,0.797332 0.48534,0.519999 0.728,1.247998 0.26,0.710665 0.26,1.594663 0,0.294666 -0.0347,0.623999 -0.0173,0.311999 -0.0867,0.571999 z m 2.01066,-3.327994 q -0.832,0 -1.352,0.502666 -0.52,0.502666 -0.60666,1.386664 h 3.53599 v -0.225333 q 0,-0.797332 -0.43333,-1.230664 -0.416,-0.433333 -1.144,-0.433333 z"
       id="path9701" />
    <path
       d="m 558.90944,60.132015 q 0,1.230664 -0.69333,2.149329 -0.69333,0.901331 -1.872,1.178664 l 3.39733,5.130657 h -2.91199 l -2.53067,-4.159992 q -0.19066,-0.311999 -0.364,-0.415999 -0.17333,-0.104 -0.53733,-0.104 h -0.74533 v 4.679991 h -2.46133 V 56.630688 h 4.59333 q 0.95333,0 1.71599,0.242666 0.76267,0.242667 1.3,0.693332 0.53733,0.450666 0.81467,1.109331 0.29466,0.641333 0.29466,1.455998 z m -2.51333,0.190666 q 0,-0.883998 -0.468,-1.299998 -0.46799,-0.415999 -1.50799,-0.415999 h -1.768 v 3.501327 h 1.716 q 0.988,0 1.50799,-0.450666 0.52,-0.450666 0.52,-1.334664 z"
       id="path9703" />
    <path
       d="m 562.70543,64.742672 q 0.13867,1.143998 0.76267,1.663997 0.64133,0.502666 1.76799,0.502666 0.60667,0 1.16133,-0.156 0.55467,-0.156 0.988,-0.450666 l 0.832,1.455997 q -1.23067,1.057332 -3.24133,1.057332 -1.196,0 -2.07999,-0.346666 -0.86667,-0.364 -1.456,-0.987998 -0.572,-0.623999 -0.84933,-1.473331 -0.27734,-0.849331 -0.27734,-1.819996 0,-1.126665 0.34667,-1.975996 0.34667,-0.866665 0.936,-1.438664 0.60666,-0.571999 1.404,-0.866665 0.81466,-0.294666 1.71599,-0.294666 0.91867,0 1.62933,0.294666 0.71067,0.277333 1.17867,0.797332 0.48533,0.519999 0.728,1.247997 0.26,0.710665 0.26,1.594664 0,0.294666 -0.0347,0.623998 -0.0173,0.312 -0.0867,0.571999 z m 2.01066,-3.327993 q -0.832,0 -1.35199,0.502666 -0.52,0.502665 -0.60667,1.386663 h 3.53599 v -0.225332 q 0,-0.797332 -0.43333,-1.230665 -0.416,-0.433332 -1.144,-0.433332 z"
       id="path9705" />
    <path
       d="m 573.76408,59.612016 q 0.97067,0 1.64666,0.398666 0.69334,0.398665 1.04,1.109331 v -0.519999 q 0,-0.762665 0.884,-0.762665 h 1.42133 v 12.393309 h -2.46133 v -4.801324 q -0.364,0.641332 -1.02266,1.022664 -0.65867,0.364 -1.612,0.364 -0.884,0 -1.57733,-0.329333 -0.676,-0.329333 -1.16133,-0.935998 -0.48533,-0.606666 -0.74533,-1.455997 -0.24267,-0.849332 -0.24267,-1.88933 0,-1.057331 0.26,-1.906663 0.27733,-0.866665 0.76267,-1.455997 0.50266,-0.589332 1.21333,-0.901332 0.71066,-0.329332 1.59466,-0.329332 z m 2.6,4.610657 q 0,-1.282664 -0.50267,-1.993329 -0.50267,-0.710665 -1.43866,-0.710665 -0.936,0 -1.456,0.710665 -0.52,0.710665 -0.52,1.993329 0,1.299998 0.48533,1.99333 0.50267,0.693332 1.43867,0.693332 0.93599,0 1.45599,-0.710665 0.53734,-0.727999 0.53734,-1.975997 z"
       id="path9707" />
    <path
       d="m 589.05206,68.590665 h -1.404 q -0.48533,0 -0.69333,-0.208 -0.208,-0.207999 -0.208,-0.641332 v -0.485332 q -0.34667,0.779998 -1.07467,1.178664 -0.71066,0.381333 -1.64666,0.381333 -1.43866,0 -2.184,-0.849332 -0.72799,-0.849332 -0.72799,-2.478662 v -5.650655 h 2.46132 v 5.494656 q 0,0.849331 0.32934,1.213331 0.32933,0.363999 0.97066,0.363999 0.84933,0 1.28267,-0.606666 0.43333,-0.606665 0.43333,-1.646663 v -4.818657 h 2.46133 z"
       id="path9709" />
    <path
       d="m 593.38538,64.742672 q 0.13866,1.143998 0.76266,1.663997 0.64133,0.502666 1.768,0.502666 0.60666,0 1.16133,-0.156 0.55467,-0.156 0.988,-0.450666 l 0.832,1.455997 q -1.23067,1.057332 -3.24133,1.057332 -1.196,0 -2.08,-0.346666 -0.86666,-0.364 -1.45599,-0.987998 -0.572,-0.623999 -0.84934,-1.473331 -0.27733,-0.849331 -0.27733,-1.819996 0,-1.126665 0.34667,-1.975996 0.34666,-0.866665 0.936,-1.438664 0.60666,-0.571999 1.40399,-0.866665 0.81467,-0.294666 1.716,-0.294666 0.91866,0 1.62933,0.294666 0.71066,0.277333 1.17866,0.797332 0.48534,0.519999 0.728,1.247997 0.26,0.710665 0.26,1.594664 0,0.294666 -0.0347,0.623998 -0.0173,0.312 -0.0867,0.571999 z m 2.01066,-3.327993 q -0.832,0 -1.352,0.502666 -0.52,0.502665 -0.60666,1.386663 h 3.53599 v -0.225332 q 0,-0.797332 -0.43333,-1.230665 -0.416,-0.433332 -1.144,-0.433332 z"
       id="path9711" />
    <path
       d="m 604.44403,61.484012 q -0.60667,0 -0.95333,0.208 -0.34667,0.190666 -0.34667,0.589332 0,0.329332 0.208,0.519999 0.208,0.173333 0.55467,0.277333 l 1.31733,0.398665 q 1.21333,0.364 1.78533,0.953332 0.58933,0.571999 0.58933,1.559997 0,1.317331 -0.988,2.079996 -0.97066,0.745332 -2.66933,0.745332 -1.07466,0 -1.97599,-0.294666 -0.90134,-0.312 -1.59467,-0.866665 l 0.91867,-1.559997 q 0.572,0.398666 1.23066,0.623999 0.676,0.225332 1.31733,0.225332 0.60667,0 0.95333,-0.225332 0.34667,-0.225333 0.34667,-0.693332 0,-0.312 -0.19067,-0.502666 -0.17333,-0.208 -0.624,-0.346666 l -1.43866,-0.415999 q -1.07466,-0.312 -1.64666,-0.901332 -0.55467,-0.606665 -0.55467,-1.57733 0,-0.658666 0.26,-1.143998 0.26,-0.502666 0.71067,-0.831998 0.468,-0.346666 1.10933,-0.519999 0.64133,-0.173333 1.404,-0.173333 0.93599,0 1.81999,0.259999 0.884,0.242666 1.49067,0.693332 l -0.78,1.559997 q -1.07467,-0.641332 -2.25333,-0.641332 z"
       id="path9713" />
    <path
       d="m 614.20267,66.701335 v 1.83733 q -0.27733,0.06933 -0.60666,0.104 -0.32933,0.03467 -0.78,0.03467 -1.56,0 -2.28799,-0.710665 -0.728,-0.727999 -0.728,-2.357329 v -3.899992 h -1.3 v -1.871996 h 1.3 v -2.09733 h 2.46133 v 2.09733 h 1.94132 v 1.871996 h -1.94132 v 3.674659 q 0,0.779999 0.34666,1.057332 0.34667,0.259999 1.248,0.259999 z"
       id="path9715" />
  </g>
  <g
     aria-label="4. Set Inputs"
     id="text23375-7-6"
     style="font-weight:bold;font-size:17.3333px;line-height:1.25;font-family:'Intel Clear';-inkscape-font-specification:'Intel Clear, Bold';text-align:center;text-anchor:middle;fill:#ffffff">
    <path
       d="m 533.97418,180.63101 v -2.39199 h -5.47733 v -1.82 l 5.47733,-7.52265 h 2.25333 v 7.43598 h 1.50799 v 1.90667 h -1.50799 v 2.39199 z m 0,-4.29866 v -4.15999 l -2.98133,4.15999 z"
       id="path9718" />
    <path
       d="m 539.0355,180.63101 v -2.63466 h 2.66933 v 2.63466 z"
       id="path9720" />
    <path
       d="m 552.48613,170.45637 q -1.04,0 -1.612,0.36399 -0.55466,0.34667 -0.55466,1.10934 0,0.60666 0.39866,0.95333 0.416,0.34666 1.144,0.55466 l 1.80266,0.53733 q 1.456,0.43334 2.184,1.17867 0.74533,0.728 0.74533,1.99333 0,0.86666 -0.34666,1.56 -0.34667,0.69333 -0.988,1.17866 -0.624,0.48533 -1.508,0.74533 -0.86666,0.26 -1.92399,0.26 -1.248,0 -2.42667,-0.38133 -1.17866,-0.38133 -2.11466,-1.16133 l 1.092,-1.69867 q 0.76266,0.55467 1.59466,0.884 0.832,0.312 1.78533,0.312 1.02267,0 1.612,-0.38133 0.58933,-0.38133 0.58933,-1.16133 0,-0.60667 -0.39866,-0.91867 -0.38134,-0.312 -1.144,-0.53733 l -1.924,-0.52 q -1.31733,-0.364 -2.06266,-1.17866 -0.74533,-0.81467 -0.74533,-2.11466 0,-0.84934 0.32933,-1.52534 0.34667,-0.67599 0.936,-1.14399 0.60666,-0.468 1.43866,-0.71067 0.84933,-0.24266 1.872,-0.24266 1.17866,0 2.27066,0.32933 1.10933,0.32933 1.88933,0.95333 l -0.97067,1.612 q -1.28266,-0.84933 -2.96399,-0.84933 z"
       id="path9722" />
    <path
       d="m 560.47678,176.78302 q 0.13867,1.144 0.76267,1.664 0.64133,0.50266 1.76799,0.50266 0.60667,0 1.16133,-0.156 0.55467,-0.156 0.988,-0.45066 l 0.832,1.45599 q -1.23066,1.05733 -3.24133,1.05733 -1.19599,0 -2.07999,-0.34666 -0.86667,-0.364 -1.456,-0.988 -0.572,-0.624 -0.84933,-1.47333 -0.27733,-0.84933 -0.27733,-1.82 0,-1.12666 0.34666,-1.97599 0.34667,-0.86667 0.936,-1.43867 0.60666,-0.572 1.404,-0.86666 0.81466,-0.29467 1.71599,-0.29467 0.91867,0 1.62933,0.29467 0.71067,0.27733 1.17867,0.79733 0.48533,0.52 0.728,1.248 0.26,0.71066 0.26,1.59466 0,0.29467 -0.0347,0.624 -0.0173,0.312 -0.0867,0.572 z m 2.01066,-3.32799 q -0.832,0 -1.35199,0.50266 -0.52,0.50267 -0.60667,1.38667 h 3.53599 v -0.22534 q 0,-0.79733 -0.43333,-1.23066 -0.416,-0.43333 -1.144,-0.43333 z"
       id="path9724" />
    <path
       d="m 572.9221,178.74168 v 1.83733 q -0.27734,0.0693 -0.60667,0.104 -0.32933,0.0347 -0.78,0.0347 -1.56,0 -2.28799,-0.71067 -0.728,-0.728 -0.728,-2.35733 v -3.89999 h -1.3 v -1.87199 h 1.3 v -2.09733 h 2.46133 v 2.09733 h 1.94133 v 1.87199 h -1.94133 v 3.67466 q 0,0.78 0.34666,1.05733 0.34667,0.26 1.248,0.26 z"
       id="path9726" />
    <path
       d="m 581.45007,180.63101 h -2.53067 v -11.95997 h 2.53067 z"
       id="path9728" />
    <path
       d="m 584.05006,171.8777 h 1.40399 q 0.884,0 0.884,0.76266 v 0.64133 q 0.34667,-0.74533 1.092,-1.17866 0.74533,-0.45067 1.78533,-0.45067 1.404,0 2.16666,0.81467 0.78,0.81466 0.78,2.44399 v 5.71999 h -2.46133 v -5.54665 q 0,-1.52533 -1.352,-1.52533 -0.84933,0 -1.35199,0.60666 -0.48534,0.60667 -0.48534,1.68133 v 4.78399 h -2.46132 z"
       id="path9730" />
    <path
       d="m 596.85938,173.36836 q 0.39866,-0.884 1.23066,-1.3 0.832,-0.416 1.768,-0.416 1.57733,0 2.54799,1.12667 0.97067,1.10933 0.97067,3.27599 0,1.05733 -0.26,1.94133 -0.24267,0.884 -0.728,1.52533 -0.468,0.624 -1.16133,0.988 -0.69333,0.34666 -1.56,0.34666 -0.728,0 -1.47333,-0.27733 -0.728,-0.29466 -1.17866,-1.00533 v 4.69732 h -2.46133 v -12.3933 h 1.42133 q 0.884,0 0.884,0.77999 z m 0.0867,2.99866 q 0,1.21333 0.48533,1.90666 0.50266,0.676 1.47333,0.676 0.52,0 0.884,-0.208 0.38133,-0.208 0.60666,-0.572 0.24267,-0.38133 0.34667,-0.88399 0.12133,-0.50267 0.12133,-1.07467 0,-1.28266 -0.468,-1.95866 -0.468,-0.69333 -1.404,-0.69333 -0.98799,0 -1.52533,0.76266 -0.51999,0.74533 -0.51999,2.04533 z"
       id="path9732" />
    <path
       d="m 613.18735,180.63101 h -1.40399 q -0.48534,0 -0.69334,-0.208 -0.208,-0.208 -0.208,-0.64133 v -0.48533 q -0.34666,0.78 -1.07466,1.17866 -0.71067,0.38133 -1.64666,0.38133 -1.43867,0 -2.184,-0.84933 -0.728,-0.84933 -0.728,-2.47866 v -5.65065 h 2.46133 v 5.49465 q 0,0.84933 0.32933,1.21333 0.32934,0.364 0.97067,0.364 0.84933,0 1.28266,-0.60666 0.43333,-0.60667 0.43333,-1.64667 v -4.81865 h 2.46133 z"
       id="path9734" />
    <path
       d="m 620.34601,178.74168 v 1.83733 q -0.27733,0.0693 -0.60667,0.104 -0.32933,0.0347 -0.78,0.0347 -1.55999,0 -2.28799,-0.71067 -0.728,-0.728 -0.728,-2.35733 v -3.89999 h -1.3 v -1.87199 h 1.3 v -2.09733 h 2.46133 v 2.09733 h 1.94133 v 1.87199 h -1.94133 v 3.67466 q 0,0.78 0.34666,1.05733 0.34667,0.26 1.248,0.26 z"
       id="path9736" />
    <path
       d="m 625.28599,173.52436 q -0.60667,0 -0.95333,0.208 -0.34667,0.19067 -0.34667,0.58933 0,0.32933 0.208,0.52 0.208,0.17333 0.55467,0.27733 l 1.31733,0.39867 q 1.21333,0.364 1.78533,0.95333 0.58933,0.572 0.58933,1.56 0,1.31733 -0.988,2.07999 -0.97066,0.74533 -2.66933,0.74533 -1.07466,0 -1.97599,-0.29466 -0.90133,-0.312 -1.59467,-0.86667 l 0.91867,-1.55999 q 0.572,0.39866 1.23066,0.624 0.676,0.22533 1.31733,0.22533 0.60667,0 0.95333,-0.22533 0.34667,-0.22534 0.34667,-0.69334 0,-0.312 -0.19067,-0.50266 -0.17333,-0.208 -0.62399,-0.34667 l -1.43867,-0.416 q -1.07466,-0.312 -1.64666,-0.90133 -0.55467,-0.60666 -0.55467,-1.57733 0,-0.65866 0.26,-1.144 0.26,-0.50266 0.71067,-0.832 0.468,-0.34666 1.10933,-0.51999 0.64133,-0.17334 1.404,-0.17334 0.93599,0 1.81999,0.26 0.884,0.24267 1.49067,0.69333 l -0.78,1.56 q -1.07467,-0.64133 -2.25333,-0.64133 z"
       id="path9738" />
  </g>
  <g
     aria-label="5. Start
Inference"
     id="text23375-7-6-4"
     style="font-weight:bold;font-size:17.3333px;line-height:1.25;font-family:'Intel Clear';-inkscape-font-specification:'Intel Clear, Bold';text-align:center;text-anchor:middle;fill:#ffffff">
    <path
       d="m 307.33873,161.76372 -0.24266,2.77333 q 0.34666,-0.312 0.86666,-0.468 0.53733,-0.156 1.196,-0.156 1.664,0 2.65199,0.95333 1.00534,0.95333 1.00534,2.704 0,0.93599 -0.312,1.71599 -0.29467,0.76267 -0.884,1.31733 -0.58933,0.53734 -1.43867,0.832 -0.84933,0.29467 -1.94133,0.29467 -2.30532,0 -3.96932,-1.404 l 1.05733,-1.57733 q 1.36933,0.97067 2.72133,0.97067 0.43333,0 0.832,-0.104 0.416,-0.12134 0.728,-0.364 0.31199,-0.24267 0.48533,-0.624 0.19066,-0.38133 0.19066,-0.91867 0,-0.936 -0.51999,-1.35199 -0.52,-0.43334 -1.404,-0.43334 -0.55467,0 -1.05733,0.17334 -0.50267,0.156 -0.884,0.45066 l -1.57733,-0.74533 0.53733,-6.03199 h 6.74265 v 1.99333 z"
       id="path9741" />
    <path
       d="m 314.60138,171.50504 v -2.63467 h 2.66933 v 2.63467 z"
       id="path9743" />
    <path
       d="m 328.05202,161.33039 q -1.04,0 -1.612,0.364 -0.55467,0.34666 -0.55467,1.10933 0,0.60666 0.39867,0.95333 0.416,0.34667 1.144,0.55467 l 1.80266,0.53733 q 1.456,0.43333 2.184,1.17866 0.74533,0.728 0.74533,1.99333 0,0.86667 -0.34667,1.56 -0.34666,0.69333 -0.988,1.17866 -0.624,0.48534 -1.50799,0.74534 -0.86667,0.25999 -1.924,0.25999 -1.248,0 -2.42666,-0.38133 -1.17867,-0.38133 -2.11466,-1.16133 l 1.09199,-1.69866 q 0.76267,0.55466 1.59467,0.884 0.832,0.312 1.78533,0.312 1.02266,0 1.61199,-0.38134 0.58934,-0.38133 0.58934,-1.16133 0,-0.60666 -0.39867,-0.91866 -0.38133,-0.312 -1.144,-0.53734 l -1.92399,-0.51999 q -1.31733,-0.364 -2.06267,-1.17867 -0.74533,-0.81466 -0.74533,-2.11466 0,-0.84933 0.32933,-1.52533 0.34667,-0.676 0.936,-1.144 0.60667,-0.468 1.43867,-0.71066 0.84933,-0.24267 1.87199,-0.24267 1.17867,0 2.27067,0.32933 1.10933,0.32933 1.88932,0.95333 l -0.97066,1.612 q -1.28266,-0.84933 -2.96399,-0.84933 z"
       id="path9745" />
    <path
       d="m 338.60801,169.61571 v 1.83733 q -0.27734,0.0693 -0.60667,0.104 -0.32933,0.0347 -0.78,0.0347 -1.55999,0 -2.28799,-0.71066 -0.728,-0.728 -0.728,-2.35733 v -3.89999 h -1.3 v -1.872 h 1.3 v -2.09733 h 2.46133 v 2.09733 h 1.94133 v 1.872 h -1.94133 v 3.67465 q 0,0.78 0.34666,1.05734 0.34667,0.26 1.248,0.26 z"
       id="path9747" />
    <path
       d="m 339.71734,169.04371 q 0,-1.36933 0.98799,-2.08 0.988,-0.728 2.72133,-0.728 h 1.42133 v -0.34666 q 0,-0.76267 -0.416,-1.10933 -0.39866,-0.364 -1.28266,-0.364 -0.65867,0 -1.26533,0.19066 -0.60667,0.19067 -1.10933,0.53733 l -0.84934,-1.43866 q 0.728,-0.55467 1.64667,-0.86666 0.91866,-0.312 1.97599,-0.312 1.80267,0 2.704,0.86666 0.91866,0.86667 0.91866,2.496 v 3.36266 q 0,0.39866 0.13867,0.53733 0.13867,0.12133 0.50267,0.12133 h 0.19066 v 1.508 q -0.19066,0.0693 -0.45066,0.12133 -0.26,0.052 -0.624,0.052 -0.76267,0 -1.144,-0.312 -0.38133,-0.312 -0.45067,-0.91866 -0.312,0.624 -1.03999,0.988 -0.728,0.36399 -1.664,0.36399 -1.31733,0 -2.11466,-0.71066 -0.79733,-0.71067 -0.79733,-1.95866 z m 3.53599,0.90133 q 0.74533,0 1.16133,-0.48533 0.43333,-0.48534 0.43333,-1.36933 v -0.45067 h -1.196 q -0.76266,0 -1.17866,0.312 -0.39867,0.29467 -0.39867,0.90133 0,0.55467 0.312,0.832 0.32934,0.26 0.86667,0.26 z"
       id="path9749" />
    <path
       d="m 349.59731,162.75172 h 1.404 q 0.884,0 0.884,0.76266 v 1.07467 q 0.27733,-0.884 0.91866,-1.404 0.65867,-0.53733 1.62933,-0.53733 0.39867,0 0.69333,0.0867 v 2.01066 h -0.50266 q -1.31733,0 -1.94133,0.676 -0.624,0.676 -0.624,2.25333 v 3.83066 h -2.46133 z"
       id="path9751" />
    <path
       d="m 361.45331,169.61571 v 1.83733 q -0.27733,0.0693 -0.60667,0.104 -0.32933,0.0347 -0.77999,0.0347 -1.56,0 -2.288,-0.71066 -0.728,-0.728 -0.728,-2.35733 v -3.89999 h -1.3 v -1.872 h 1.3 v -2.09733 h 2.46133 v 2.09733 h 1.94133 v 1.872 h -1.94133 v 3.67465 q 0,0.78 0.34667,1.05734 0.34666,0.26 1.24799,0.26 z"
       id="path9753" />
    <path
       d="m 298.49005,193.17166 h -2.53066 v -11.95998 h 2.53066 z"
       id="path9755" />
    <path
       d="m 301.09004,184.41834 h 1.40399 q 0.884,0 0.884,0.76267 v 0.64133 q 0.34667,-0.74533 1.092,-1.17866 0.74533,-0.45067 1.78533,-0.45067 1.404,0 2.16666,0.81467 0.78,0.81466 0.78,2.44399 v 5.71999 h -2.46133 V 187.625 q 0,-1.52533 -1.35199,-1.52533 -0.84934,0 -1.352,0.60667 -0.48533,0.60666 -0.48533,1.68133 v 4.78399 h -2.46133 z"
       id="path9757" />
    <path
       d="m 316.56869,182.66768 h -0.39867 q -0.97066,0 -1.40399,0.29467 -0.416,0.27733 -0.416,1.16133 v 0.29466 h 2.13199 v 1.872 h -2.13199 v 6.88132 h -2.46133 v -6.88132 h -1.3 v -1.872 h 1.3 v -0.64133 q 0,-1.52533 0.884,-2.30533 0.884,-0.78 2.56533,-0.78 0.29466,0 0.64133,0.0347 0.34666,0.0173 0.58933,0.0867 z"
       id="path9759" />
    <path
       d="m 319.61936,189.32367 q 0.13867,1.144 0.76267,1.66399 0.64133,0.50267 1.76799,0.50267 0.60667,0 1.16134,-0.156 0.55466,-0.156 0.98799,-0.45067 l 0.832,1.456 q -1.23066,1.05733 -3.24133,1.05733 -1.19599,0 -2.07999,-0.34666 -0.86667,-0.364 -1.456,-0.988 -0.572,-0.624 -0.84933,-1.47333 -0.27733,-0.84933 -0.27733,-1.82 0,-1.12666 0.34666,-1.97599 0.34667,-0.86667 0.936,-1.43867 0.60667,-0.572 1.404,-0.86666 0.81466,-0.29467 1.716,-0.29467 0.91866,0 1.62933,0.29467 0.71066,0.27733 1.17866,0.79733 0.48533,0.52 0.728,1.248 0.26,0.71066 0.26,1.59466 0,0.29467 -0.0347,0.624 -0.0173,0.312 -0.0867,0.572 z m 2.01067,-3.328 q -0.832,0 -1.352,0.50267 -0.52,0.50267 -0.60667,1.38666 h 3.536 v -0.22533 q 0,-0.79733 -0.43334,-1.23066 -0.416,-0.43334 -1.14399,-0.43334 z"
       id="path9761" />
    <path
       d="m 327.33268,184.41834 h 1.404 q 0.884,0 0.884,0.76267 v 1.07466 q 0.27733,-0.88399 0.91867,-1.40399 0.65866,-0.53734 1.62933,-0.53734 0.39866,0 0.69333,0.0867 v 2.01066 h -0.50267 q -1.31733,0 -1.94133,0.676 -0.624,0.676 -0.624,2.25333 v 3.83066 h -2.46133 z"
       id="path9763" />
    <path
       d="m 335.75669,189.32367 q 0.13867,1.144 0.76267,1.66399 0.64133,0.50267 1.76799,0.50267 0.60667,0 1.16133,-0.156 0.55467,-0.156 0.988,-0.45067 l 0.832,1.456 q -1.23066,1.05733 -3.24133,1.05733 -1.19599,0 -2.07999,-0.34666 -0.86667,-0.364 -1.456,-0.988 -0.572,-0.624 -0.84933,-1.47333 -0.27733,-0.84933 -0.27733,-1.82 0,-1.12666 0.34666,-1.97599 0.34667,-0.86667 0.936,-1.43867 0.60667,-0.572 1.404,-0.86666 0.81466,-0.29467 1.71599,-0.29467 0.91867,0 1.62933,0.29467 0.71067,0.27733 1.17867,0.79733 0.48533,0.52 0.728,1.248 0.26,0.71066 0.26,1.59466 0,0.29467 -0.0347,0.624 -0.0173,0.312 -0.0867,0.572 z m 2.01066,-3.328 q -0.83199,0 -1.35199,0.50267 -0.52,0.50267 -0.60667,1.38666 h 3.53599 v -0.22533 q 0,-0.79733 -0.43333,-1.23066 -0.416,-0.43334 -1.144,-0.43334 z"
       id="path9765" />
    <path
       d="m 343.47002,184.41834 h 1.40399 q 0.884,0 0.884,0.76267 v 0.64133 q 0.34667,-0.74533 1.092,-1.17866 0.74533,-0.45067 1.78533,-0.45067 1.404,0 2.16666,0.81467 0.78,0.81466 0.78,2.44399 v 5.71999 h -2.46133 V 187.625 q 0,-1.52533 -1.352,-1.52533 -0.84933,0 -1.35199,0.60667 -0.48534,0.60666 -0.48534,1.68133 v 4.78399 h -2.46132 z"
       id="path9767" />
    <path
       d="m 356.00201,188.78634 q 0,1.28266 0.58933,1.95866 0.60666,0.65866 1.81999,0.65866 0.50267,0 0.97067,-0.12133 0.48533,-0.13867 0.832,-0.38133 l 0.728,1.68133 q -0.50267,0.364 -1.21333,0.58933 -0.71067,0.22533 -1.64667,0.22533 -1.07466,0 -1.92399,-0.312 -0.84934,-0.32933 -1.43867,-0.91866 -0.58933,-0.58933 -0.91866,-1.43867 -0.312,-0.84933 -0.312,-1.92399 0,-1.07467 0.32933,-1.924 0.32933,-0.84933 0.91867,-1.43866 0.60666,-0.60667 1.45599,-0.91867 0.86667,-0.32933 1.94133,-0.32933 0.86667,0 1.54267,0.208 0.67599,0.208 1.17866,0.55467 l -0.74533,1.68133 q -0.32933,-0.22534 -0.76267,-0.32934 -0.43333,-0.12133 -0.91866,-0.12133 -1.10933,0 -1.768,0.64133 -0.65866,0.624 -0.65866,1.95867 z"
       id="path9769" />
    <path
       d="m 364.23533,189.32367 q 0.13867,1.144 0.76267,1.66399 0.64133,0.50267 1.76799,0.50267 0.60667,0 1.16134,-0.156 0.55466,-0.156 0.98799,-0.45067 l 0.832,1.456 q -1.23066,1.05733 -3.24132,1.05733 -1.196,0 -2.08,-0.34666 -0.86667,-0.364 -1.456,-0.988 -0.572,-0.624 -0.84933,-1.47333 -0.27733,-0.84933 -0.27733,-1.82 0,-1.12666 0.34666,-1.97599 0.34667,-0.86667 0.936,-1.43867 0.60667,-0.572 1.404,-0.86666 0.81466,-0.29467 1.716,-0.29467 0.91866,0 1.62933,0.29467 0.71066,0.27733 1.17866,0.79733 0.48533,0.52 0.728,1.248 0.26,0.71066 0.26,1.59466 0,0.29467 -0.0347,0.624 -0.0173,0.312 -0.0867,0.572 z m 2.01067,-3.328 q -0.832,0 -1.352,0.50267 -0.52,0.50267 -0.60667,1.38666 h 3.536 v -0.22533 q 0,-0.79733 -0.43334,-1.23066 -0.416,-0.43334 -1.14399,-0.43334 z"
       id="path9771" />
  </g>
  <g
     aria-label="6. Process
Inference
Results"
     id="text23375-7-6-4-5"
     style="font-weight:bold;font-size:17.3333px;line-height:1.25;font-family:'Intel Clear';-inkscape-font-specification:'Intel Clear, Bold';text-align:center;text-anchor:middle;fill:#ffffff">
    <path
       d="m 49.644288,151.19907 q -0.866665,-0.60667 -2.131996,-0.60667 -1.473331,0 -2.287996,0.936 -0.797332,0.91867 -0.901331,2.808 0.225333,-0.39867 0.571999,-0.676 0.346666,-0.29467 0.745331,-0.468 0.416,-0.19067 0.849332,-0.26 0.450666,-0.0867 0.866665,-0.0867 0.797332,0 1.438664,0.26 0.658665,0.24267 1.126664,0.71067 0.468,0.45066 0.710666,1.12666 0.259999,0.65867 0.259999,1.49067 0,0.98799 -0.294666,1.80266 -0.294666,0.79733 -0.849332,1.36933 -0.537332,0.55466 -1.334664,0.86666 -0.779998,0.29467 -1.750663,0.29467 -1.074664,0 -1.941329,-0.38133 -0.866665,-0.38133 -1.490664,-1.10933 -0.606666,-0.74534 -0.935998,-1.82 -0.329333,-1.092 -0.329333,-2.51333 0,-1.52533 0.381332,-2.70399 0.381333,-1.17867 1.074665,-1.99333 0.710665,-0.81467 1.698663,-1.23067 0.987999,-0.43333 2.218663,-0.43333 0.918665,0 1.73333,0.22533 0.831998,0.22534 1.438664,0.676 z m -1.178665,5.52932 q 0,-1.00533 -0.467999,-1.49066 -0.467999,-0.48533 -1.351997,-0.48533 -0.935998,0 -1.455997,0.51999 -0.502666,0.50267 -0.502666,1.49067 0,1.04 0.502666,1.57733 0.519999,0.52 1.403997,0.52 0.901331,0 1.386664,-0.55467 0.485332,-0.572 0.485332,-1.57733 z"
       id="path9774" />
    <path
       d="m 52.278947,160.54172 v -2.63466 h 2.669328 v 2.63466 z"
       id="path9776" />
    <path
       d="m 63.874916,156.43373 v 4.10799 h -2.478662 v -11.95998 h 4.471992 q 2.062662,0 3.189327,1.02267 1.126664,1.00533 1.126664,2.91199 0,1.83733 -1.126664,2.87733 -1.109331,1.04 -3.206661,1.04 z m 0,-5.99733 v 4.14266 h 1.577331 q 1.109331,0 1.663996,-0.48533 0.554666,-0.48533 0.554666,-1.57733 0,-1.092 -0.554666,-1.57733 -0.537332,-0.50267 -1.646663,-0.50267 z"
       id="path9778" />
    <path
       d="m 72.125561,151.7884 h 1.403997 q 0.883998,0 0.883998,0.76267 v 1.07466 q 0.277333,-0.884 0.918665,-1.404 0.658666,-0.53733 1.62933,-0.53733 0.398666,0 0.693332,0.0867 v 2.01066 h -0.502665 q -1.317331,0 -1.94133,0.676 -0.623999,0.676 -0.623999,2.25333 v 3.83066 h -2.461328 z"
       id="path9780" />
    <path
       d="m 87.170888,156.15639 q 0,1.092 -0.329333,1.95867 -0.311999,0.84933 -0.901331,1.43866 -0.589333,0.58933 -1.421331,0.90133 -0.831998,0.312 -1.854663,0.312 -1.022665,0 -1.854663,-0.312 -0.831999,-0.312 -1.421331,-0.90133 -0.589332,-0.58933 -0.918665,-1.43866 -0.311999,-0.86667 -0.311999,-1.95867 0,-1.092 0.311999,-1.94133 0.329333,-0.84933 0.918665,-1.43866 0.589332,-0.58933 1.421331,-0.90133 0.831998,-0.312 1.854663,-0.312 1.022665,0 1.854663,0.312 0.831998,0.312 1.421331,0.90133 0.589332,0.58933 0.901331,1.43866 0.329333,0.84933 0.329333,1.94133 z m -2.513329,0 q 0,-1.33466 -0.519999,-2.01066 -0.502665,-0.676 -1.47333,-0.676 -0.970665,0 -1.490664,0.676 -0.502666,0.676 -0.502666,2.01066 0,1.352 0.502666,2.028 0.519999,0.676 1.490664,0.676 0.970665,0 1.47333,-0.676 0.519999,-0.676 0.519999,-2.028 z"
       id="path9782" />
    <path
       d="m 91.140215,156.15639 q 0,1.28267 0.589332,1.95867 0.606666,0.65866 1.819997,0.65866 0.502665,0 0.970664,-0.12133 0.485333,-0.13867 0.831999,-0.38133 l 0.727998,1.68133 q -0.502665,0.36399 -1.213331,0.58933 -0.710665,0.22533 -1.646663,0.22533 -1.074665,0 -1.923996,-0.312 -0.849332,-0.32933 -1.438664,-0.91866 -0.589332,-0.58934 -0.918665,-1.43867 -0.311999,-0.84933 -0.311999,-1.92399 0,-1.07467 0.329332,-1.924 0.329333,-0.84933 0.918665,-1.43866 0.606666,-0.60667 1.455997,-0.91867 0.866665,-0.32933 1.94133,-0.32933 0.866665,0 1.542664,0.208 0.675998,0.208 1.178664,0.55466 l -0.745332,1.68133 q -0.329333,-0.22533 -0.762665,-0.32933 -0.433333,-0.12133 -0.918665,-0.12133 -1.109331,0 -1.767997,0.64133 -0.658665,0.624 -0.658665,1.95866 z"
       id="path9784" />
    <path
       d="m 99.373538,156.69373 q 0.138667,1.14399 0.762662,1.66399 0.64134,0.50267 1.768,0.50267 0.60667,0 1.16133,-0.156 0.55467,-0.156 0.988,-0.45067 l 0.832,1.456 q -1.23067,1.05733 -3.24133,1.05733 -1.196,0 -2.079996,-0.34667 -0.866665,-0.36399 -1.455997,-0.98799 -0.571999,-0.624 -0.849331,-1.47333 -0.277333,-0.84934 -0.277333,-1.82 0,-1.12667 0.346666,-1.976 0.346666,-0.86666 0.935998,-1.43866 0.606665,-0.572 1.403997,-0.86667 0.814666,-0.29466 1.715996,-0.29466 0.91867,0 1.62933,0.29466 0.71067,0.27734 1.17867,0.79734 0.48533,0.52 0.72799,1.24799 0.26,0.71067 0.26,1.59467 0,0.29466 -0.0347,0.624 -0.0173,0.312 -0.0867,0.572 z m 2.010662,-3.328 q -0.832,0 -1.352,0.50267 -0.519995,0.50266 -0.606662,1.38666 h 3.535992 v -0.22533 q 0,-0.79733 -0.43333,-1.23067 -0.416,-0.43333 -1.144,-0.43333 z"
       id="path9786" />
    <path
       d="m 110.43219,153.43506 q -0.60667,0 -0.95334,0.208 -0.34666,0.19067 -0.34666,0.58934 0,0.32933 0.208,0.52 0.208,0.17333 0.55466,0.27733 l 1.31733,0.39866 q 1.21334,0.364 1.78533,0.95334 0.58934,0.57199 0.58934,1.55999 0,1.31733 -0.988,2.08 -0.97067,0.74533 -2.66933,0.74533 -1.07466,0 -1.976,-0.29467 -0.90133,-0.312 -1.59466,-0.86666 l 0.91867,-1.56 q 0.57199,0.39867 1.23066,0.624 0.676,0.22533 1.31733,0.22533 0.60667,0 0.95333,-0.22533 0.34667,-0.22533 0.34667,-0.69333 0,-0.312 -0.19067,-0.50267 -0.17333,-0.208 -0.624,-0.34666 l -1.43866,-0.416 q -1.07467,-0.312 -1.64666,-0.90133 -0.55467,-0.60667 -0.55467,-1.57733 0,-0.65867 0.26,-1.144 0.26,-0.50267 0.71066,-0.832 0.468,-0.34667 1.10934,-0.52 0.64133,-0.17333 1.40399,-0.17333 0.936,0 1.82,0.26 0.884,0.24266 1.49066,0.69333 l -0.78,1.56 q -1.07466,-0.64134 -2.25332,-0.64134 z"
       id="path9788" />
    <path
       d="m 118.80417,153.43506 q -0.60666,0 -0.95333,0.208 -0.34667,0.19067 -0.34667,0.58934 0,0.32933 0.208,0.52 0.208,0.17333 0.55467,0.27733 l 1.31733,0.39866 q 1.21333,0.364 1.78533,0.95334 0.58933,0.57199 0.58933,1.55999 0,1.31733 -0.988,2.08 -0.97066,0.74533 -2.66932,0.74533 -1.07467,0 -1.976,-0.29467 -0.90133,-0.312 -1.59466,-0.86666 l 0.91866,-1.56 q 0.572,0.39867 1.23067,0.624 0.67599,0.22533 1.31733,0.22533 0.60666,0 0.95333,-0.22533 0.34666,-0.22533 0.34666,-0.69333 0,-0.312 -0.19066,-0.50267 -0.17334,-0.208 -0.624,-0.34666 l -1.43866,-0.416 q -1.07467,-0.312 -1.64667,-0.90133 -0.55466,-0.60667 -0.55466,-1.57733 0,-0.65867 0.26,-1.144 0.26,-0.50267 0.71066,-0.832 0.468,-0.34667 1.10933,-0.52 0.64133,-0.17333 1.404,-0.17333 0.936,0 1.82,0.26 0.88399,0.24266 1.49066,0.69333 l -0.78,1.56 q -1.07466,-0.64134 -2.25333,-0.64134 z"
       id="path9790" />
    <path
       d="m 47.720256,182.20834 h -2.530662 v -11.95997 h 2.530662 z"
       id="path9792" />
    <path
       d="m 50.320247,173.45503 h 1.403997 q 0.883999,0 0.883999,0.76266 v 0.64133 q 0.346666,-0.74533 1.091997,-1.17866 0.745332,-0.45067 1.78533,-0.45067 1.403998,0 2.166663,0.81467 0.779998,0.81466 0.779998,2.44399 v 5.71999 h -2.461328 v -5.54665 q 0,-1.52533 -1.351998,-1.52533 -0.849331,0 -1.351997,0.60666 -0.485332,0.60667 -0.485332,1.68133 v 4.78399 h -2.461329 z"
       id="path9794" />
    <path
       d="m 65.798899,171.70436 h -0.398666 q -0.970665,0 -1.403997,0.29467 -0.415999,0.27733 -0.415999,1.16133 v 0.29467 h 2.131995 v 1.87199 h -2.131995 v 6.88132 h -2.461329 v -6.88132 h -1.299997 v -1.87199 h 1.299997 v -0.64134 q 0,-1.52533 0.883998,-2.30533 0.883999,-0.77999 2.565329,-0.77999 0.294666,0 0.641332,0.0347 0.346666,0.0173 0.589332,0.0867 z"
       id="path9796" />
    <path
       d="m 68.849572,178.36035 q 0.138666,1.144 0.762665,1.664 0.641332,0.50266 1.767996,0.50266 0.606666,0 1.161331,-0.156 0.554666,-0.156 0.987998,-0.45066 l 0.831999,1.45599 q -1.230664,1.05733 -3.241327,1.05733 -1.195998,0 -2.079996,-0.34666 -0.866665,-0.364 -1.455997,-0.988 -0.571999,-0.624 -0.849332,-1.47333 -0.277333,-0.84933 -0.277333,-1.82 0,-1.12666 0.346666,-1.97599 0.346666,-0.86667 0.935998,-1.43867 0.606666,-0.57199 1.403998,-0.86666 0.814665,-0.29467 1.715996,-0.29467 0.918665,0 1.629331,0.29467 0.710665,0.27733 1.178664,0.79733 0.485332,0.52 0.727998,1.248 0.26,0.71066 0.26,1.59466 0,0.29467 -0.03467,0.624 -0.01733,0.312 -0.08667,0.572 z m 2.010662,-3.32799 q -0.831998,0 -1.351997,0.50266 -0.519999,0.50267 -0.606666,1.38667 h 3.535994 v -0.22534 q 0,-0.79733 -0.433333,-1.23066 -0.415999,-0.43333 -1.143998,-0.43333 z"
       id="path9798" />
    <path
       d="m 76.562894,173.45503 h 1.403997 q 0.883999,0 0.883999,0.76266 v 1.07467 q 0.277333,-0.884 0.918665,-1.404 0.658665,-0.53733 1.62933,-0.53733 0.398666,0 0.693332,0.0867 v 2.01067 h -0.502666 q -1.317331,0 -1.941329,0.67599 -0.623999,0.676 -0.623999,2.25333 v 3.83066 h -2.461329 z"
       id="path9800" />
    <path
       d="m 84.986901,178.36035 q 0.138666,1.144 0.762665,1.664 0.641332,0.50266 1.767996,0.50266 0.606666,0 1.161332,-0.156 0.554665,-0.156 0.987998,-0.45066 l 0.831998,1.45599 q -1.230664,1.05733 -3.241327,1.05733 -1.195998,0 -2.079996,-0.34666 -0.866665,-0.364 -1.455997,-0.988 -0.571999,-0.624 -0.849332,-1.47333 -0.277333,-0.84933 -0.277333,-1.82 0,-1.12666 0.346666,-1.97599 0.346666,-0.86667 0.935999,-1.43867 0.606665,-0.57199 1.403997,-0.86666 0.814665,-0.29467 1.715996,-0.29467 0.918665,0 1.629331,0.29467 0.710665,0.27733 1.178664,0.79733 0.485332,0.52 0.727999,1.248 0.259999,0.71066 0.259999,1.59466 0,0.29467 -0.03467,0.624 -0.01733,0.312 -0.08667,0.572 z m 2.010662,-3.32799 q -0.831998,0 -1.351997,0.50266 -0.519999,0.50267 -0.606665,1.38667 h 3.535993 v -0.22534 q 0,-0.79733 -0.433333,-1.23066 -0.415999,-0.43333 -1.143998,-0.43333 z"
       id="path9802" />
    <path
       d="m 92.700225,173.45503 h 1.403997 q 0.883999,0 0.883999,0.76266 v 0.64133 q 0.346666,-0.74533 1.091998,-1.17866 0.745332,-0.45067 1.78533,-0.45067 1.403997,0 2.166661,0.81467 0.78,0.81466 0.78,2.44399 v 5.71999 h -2.461329 v -5.54665 q 0,-1.52533 -1.351997,-1.52533 -0.849332,0 -1.351998,0.60666 -0.485332,0.60667 -0.485332,1.68133 v 4.78399 h -2.461329 z"
       id="path9804" />
    <path
       d="m 105.23222,177.82302 q 0,1.28266 0.58933,1.95866 0.60666,0.65867 1.81999,0.65867 0.50267,0 0.97067,-0.12134 0.48533,-0.13866 0.832,-0.38133 l 0.728,1.68133 q -0.50267,0.364 -1.21334,0.58933 -0.71066,0.22533 -1.64666,0.22533 -1.07466,0 -1.924,-0.31199 -0.84933,-0.32934 -1.43866,-0.91867 -0.58933,-0.58933 -0.91866,-1.43866 -0.312,-0.84933 -0.312,-1.924 0,-1.07466 0.32933,-1.924 0.32933,-0.84933 0.91866,-1.43866 0.60667,-0.60667 1.456,-0.91866 0.86667,-0.32934 1.94133,-0.32934 0.86667,0 1.54266,0.208 0.676,0.208 1.17867,0.55467 l -0.74533,1.68133 q -0.32934,-0.22533 -0.76267,-0.32933 -0.43333,-0.12134 -0.91866,-0.12134 -1.10933,0 -1.768,0.64133 -0.65866,0.624 -0.65866,1.95867 z"
       id="path9806" />
    <path
       d="m 113.46554,178.36035 q 0.13867,1.144 0.76267,1.664 0.64133,0.50266 1.76799,0.50266 0.60667,0 1.16134,-0.156 0.55466,-0.156 0.98799,-0.45066 l 0.832,1.45599 q -1.23066,1.05733 -3.24133,1.05733 -1.19599,0 -2.07999,-0.34666 -0.86667,-0.364 -1.456,-0.988 -0.572,-0.624 -0.84933,-1.47333 -0.27733,-0.84933 -0.27733,-1.82 0,-1.12666 0.34666,-1.97599 0.34667,-0.86667 0.936,-1.43867 0.60667,-0.57199 1.404,-0.86666 0.81466,-0.29467 1.71599,-0.29467 0.91867,0 1.62934,0.29467 0.71066,0.27733 1.17866,0.79733 0.48533,0.52 0.728,1.248 0.26,0.71066 0.26,1.59466 0,0.29467 -0.0347,0.624 -0.0173,0.312 -0.0867,0.572 z m 2.01066,-3.32799 q -0.83199,0 -1.35199,0.50266 -0.52,0.50267 -0.60667,1.38667 h 3.536 v -0.22534 q 0,-0.79733 -0.43334,-1.23066 -0.416,-0.43333 -1.144,-0.43333 z"
       id="path9808" />
    <path
       d="m 62.496937,195.41632 q 0,1.23066 -0.693332,2.14933 -0.693332,0.90133 -1.871996,1.17866 l 3.397326,5.13066 h -2.911994 l -2.530662,-4.16 q -0.190666,-0.31199 -0.363999,-0.41599 -0.173333,-0.104 -0.537332,-0.104 h -0.745332 v 4.67999 h -2.461329 v -11.95998 h 4.593325 q 0.953331,0 1.715996,0.24267 0.762666,0.24266 1.299998,0.69333 0.537332,0.45066 0.814665,1.10933 0.294666,0.64133 0.294666,1.456 z m -2.513328,0.19066 q 0,-0.884 -0.468,-1.29999 -0.467999,-0.416 -1.507997,-0.416 h -1.767996 v 3.50132 h 1.715996 q 0.987999,0 1.507998,-0.45066 0.519999,-0.45067 0.519999,-1.33467 z"
       id="path9810" />
    <path
       d="m 66.292925,200.02697 q 0.138667,1.144 0.762666,1.664 0.641332,0.50267 1.767996,0.50267 0.606666,0 1.161331,-0.156 0.554666,-0.156 0.987998,-0.45067 l 0.831999,1.456 q -1.230665,1.05733 -3.241327,1.05733 -1.195998,0 -2.079996,-0.34667 -0.866665,-0.364 -1.455997,-0.98799 -0.571999,-0.624 -0.849332,-1.47334 -0.277333,-0.84933 -0.277333,-1.81999 0,-1.12667 0.346666,-1.976 0.346666,-0.86666 0.935998,-1.43866 0.606666,-0.572 1.403997,-0.86667 0.814666,-0.29466 1.715997,-0.29466 0.918665,0 1.62933,0.29466 0.710666,0.27734 1.178665,0.79734 0.485332,0.51999 0.727998,1.24799 0.26,0.71067 0.26,1.59467 0,0.29466 -0.03467,0.624 -0.01733,0.31199 -0.08667,0.57199 z m 2.010663,-3.32799 q -0.831998,0 -1.351997,0.50267 -0.519999,0.50266 -0.606666,1.38666 h 3.535993 v -0.22533 q 0,-0.79733 -0.433332,-1.23067 -0.415999,-0.43333 -1.143998,-0.43333 z"
       id="path9812" />
    <path
       d="m 77.351576,196.76831 q -0.606666,0 -0.953332,0.208 -0.346666,0.19067 -0.346666,0.58934 0,0.32933 0.208,0.51999 0.208,0.17334 0.554666,0.27734 l 1.31733,0.39866 q 1.213331,0.364 1.78533,0.95333 0.589332,0.572 0.589332,1.56 0,1.31733 -0.987998,2.08 -0.970665,0.74533 -2.669328,0.74533 -1.074664,0 -1.975996,-0.29467 -0.901332,-0.312 -1.594664,-0.86666 l 0.918665,-1.56 q 0.571999,0.39867 1.230665,0.624 0.675998,0.22533 1.31733,0.22533 0.606666,0 0.953332,-0.22533 0.346666,-0.22533 0.346666,-0.69333 0,-0.312 -0.190667,-0.50267 -0.173333,-0.208 -0.623998,-0.34666 l -1.438664,-0.416 q -1.074665,-0.312 -1.646664,-0.90133 -0.554665,-0.60667 -0.554665,-1.57733 0,-0.65867 0.259999,-1.144 0.26,-0.50267 0.710666,-0.832 0.467999,-0.34667 1.109331,-0.52 0.641332,-0.17333 1.403997,-0.17333 0.935998,0 1.819996,0.26 0.883999,0.24266 1.490664,0.69333 l -0.779998,1.56 q -1.074665,-0.64134 -2.253329,-0.64134 z"
       id="path9814" />
    <path
       d="M 90.247548,203.87497 H 88.84355 q -0.485332,0 -0.693332,-0.208 -0.207999,-0.208 -0.207999,-0.64134 v -0.48533 q -0.346666,0.78 -1.074665,1.17867 -0.710665,0.38133 -1.646663,0.38133 -1.438664,0 -2.183996,-0.84933 -0.727999,-0.84933 -0.727999,-2.47866 v -5.65066 h 2.461329 v 5.49466 q 0,0.84933 0.329333,1.21333 0.329332,0.364 0.970664,0.364 0.849332,0 1.282665,-0.60667 0.433332,-0.60666 0.433332,-1.64666 v -4.81866 h 2.461329 z"
       id="path9816" />
    <path
       d="m 95.100868,191.44699 v 9.44665 q 0,0.69333 0.208,0.91866 0.225333,0.208 0.883998,0.208 h 0.156 v 1.85467 q -0.381333,0.0867 -1.109331,0.0867 -1.403998,0 -2.010663,-0.69333 -0.589332,-0.69333 -0.589332,-2.07999 v -9.74132 z"
       id="path9818" />
    <path
       d="m 102.62353,201.98564 v 1.83733 q -0.27733,0.0693 -0.60666,0.104 -0.32934,0.0347 -0.78,0.0347 -1.559999,0 -2.287998,-0.71066 -0.727998,-0.728 -0.727998,-2.35733 v -3.89999 h -1.299998 v -1.872 h 1.299998 v -2.09733 h 2.461326 v 2.09733 h 1.94133 v 1.872 h -1.94133 v 3.67466 q 0,0.77999 0.34667,1.05733 0.34666,0.26 1.248,0.26 z"
       id="path9820" />
    <path
       d="m 107.56352,196.76831 q -0.60667,0 -0.95333,0.208 -0.34667,0.19067 -0.34667,0.58934 0,0.32933 0.208,0.51999 0.208,0.17334 0.55466,0.27734 l 1.31734,0.39866 q 1.21333,0.364 1.78532,0.95333 0.58934,0.572 0.58934,1.56 0,1.31733 -0.988,2.08 -0.97067,0.74533 -2.66933,0.74533 -1.07466,0 -1.976,-0.29467 -0.90133,-0.312 -1.59466,-0.86666 l 0.91867,-1.56 q 0.57199,0.39867 1.23066,0.624 0.676,0.22533 1.31733,0.22533 0.60667,0 0.95333,-0.22533 0.34667,-0.22533 0.34667,-0.69333 0,-0.312 -0.19067,-0.50267 -0.17333,-0.208 -0.624,-0.34666 l -1.43866,-0.416 q -1.07466,-0.312 -1.64666,-0.90133 -0.55467,-0.60667 -0.55467,-1.57733 0,-0.65867 0.26,-1.144 0.26,-0.50267 0.71067,-0.832 0.46799,-0.34667 1.10933,-0.52 0.64133,-0.17333 1.40399,-0.17333 0.936,0 1.82,0.26 0.884,0.24266 1.49066,0.69333 l -0.77999,1.56 q -1.07467,-0.64134 -2.25333,-0.64134 z"
       id="path9822" />
  </g>
  <g
     aria-label="2. Compile Model"
     id="text23375-2"
     style="font-weight:bold;font-size:17.3333px;line-height:1.25;font-family:'Intel Clear';-inkscape-font-specification:'Intel Clear, Bold';text-align:center;text-anchor:middle;fill:#ffffff">
    <path
       d="m 266.63275,37.078732 q -0.64133,0 -1.3,0.242666 -0.65867,0.242666 -1.16133,0.641332 l -1.07467,-1.542664 q 1.716,-1.351997 3.93466,-1.351997 1.85467,0 2.86,0.849332 1.02266,0.831998 1.02266,2.409328 0,1.143998 -0.55466,2.027996 -0.53734,0.883999 -1.716,1.78533 l -1.82,1.421331 q -0.45066,0.346666 -0.76266,0.693332 -0.29467,0.329332 -0.45067,0.779998 h 5.25199 v 1.99333 h -7.81732 v -1.091998 q 0,-1.109331 0.53734,-2.027996 0.55466,-0.935998 1.54266,-1.698664 l 1.95866,-1.507997 q 0.65867,-0.502665 0.97067,-1.005331 0.312,-0.519999 0.312,-1.143998 0,-1.47333 -1.73333,-1.47333 z"
       id="path9640" />
    <path
       d="m 273.18473,47.028046 v -2.634662 h 2.66933 v 2.634662 z"
       id="path9642" />
    <path
       d="m 291.55802,46.196047 q -0.676,0.502666 -1.62933,0.797332 -0.936,0.294666 -2.13199,0.294666 -1.43867,0 -2.548,-0.433332 -1.10933,-0.450666 -1.872,-1.247998 -0.76266,-0.814665 -1.16133,-1.958663 -0.39866,-1.161331 -0.39866,-2.582661 0,-1.490664 0.43333,-2.651995 0.43333,-1.178665 1.23066,-1.975996 0.79734,-0.797332 1.90667,-1.213331 1.12666,-0.416 2.51333,-0.416 2.18399,0 3.51866,1.022665 l -0.936,1.750663 q -0.53733,-0.363999 -1.144,-0.519999 -0.58933,-0.173333 -1.248,-0.173333 -1.78533,0 -2.72133,1.074665 -0.91866,1.074665 -0.91866,3.102661 0,2.010662 0.91866,3.067994 0.936,1.057331 2.72133,1.057331 0.78,0 1.404,-0.190666 0.624,-0.208 1.12666,-0.554666 z"
       id="path9644" />
    <path
       d="m 301.28198,42.642721 q 0,1.091998 -0.32933,1.958663 -0.312,0.849331 -0.90133,1.438664 -0.58933,0.589332 -1.42133,0.901331 -0.832,0.312 -1.85466,0.312 -1.02267,0 -1.85467,-0.312 -0.832,-0.311999 -1.42133,-0.901331 -0.58933,-0.589333 -0.91866,-1.438664 -0.312,-0.866665 -0.312,-1.958663 0,-1.091998 0.312,-1.94133 0.32933,-0.849331 0.91866,-1.438664 0.58933,-0.589332 1.42133,-0.901331 0.832,-0.312 1.85467,-0.312 1.02266,0 1.85466,0.312 0.832,0.311999 1.42133,0.901331 0.58933,0.589333 0.90133,1.438664 0.32933,0.849332 0.32933,1.94133 z m -2.51332,0 q 0,-1.334664 -0.52,-2.010663 -0.50267,-0.675999 -1.47333,-0.675999 -0.97067,0 -1.49067,0.675999 -0.50266,0.675999 -0.50266,2.010663 0,1.351997 0.50266,2.027996 0.52,0.675999 1.49067,0.675999 0.97066,0 1.47333,-0.675999 0.52,-0.675999 0.52,-2.027996 z"
       id="path9646" />
    <path
       d="m 311.04063,47.028046 h -2.46132 V 41.53339 q 0,-1.525331 -1.23067,-1.525331 -0.78,0 -1.23066,0.554666 -0.43334,0.537332 -0.43334,1.57733 v 4.887991 h -2.46132 v -8.753317 h 1.40399 q 0.884,0 0.884,0.762666 v 0.606665 q 0.34667,-0.779998 1.05733,-1.178664 0.728,-0.416 1.664,-0.416 0.936,0 1.56,0.416 0.64133,0.398666 0.93599,1.178664 0.38134,-0.762665 1.10934,-1.178664 0.72799,-0.416 1.71599,-0.416 1.36933,0 2.09733,0.849332 0.74533,0.831999 0.74533,2.409329 v 5.719989 h -2.46133 V 41.53339 q 0,-1.525331 -1.23066,-1.525331 -0.78,0 -1.23066,0.554666 -0.43334,0.537332 -0.43334,1.57733 z"
       id="path9648" />
    <path
       d="m 321.09396,39.765393 q 0.39867,-0.883998 1.23066,-1.299997 0.832,-0.416 1.768,-0.416 1.57733,0 2.548,1.126665 0.97066,1.109331 0.97066,3.275994 0,1.057331 -0.26,1.941329 -0.24267,0.883998 -0.728,1.52533 -0.468,0.623999 -1.16133,0.987999 -0.69333,0.346666 -1.56,0.346666 -0.72799,0 -1.47333,-0.277333 -0.72799,-0.294666 -1.17866,-1.005332 v 4.697325 h -2.46133 v -12.39331 h 1.42133 q 0.884,0 0.884,0.779999 z m 0.0867,2.998661 q 0,1.213331 0.48533,1.906663 0.50266,0.675999 1.47333,0.675999 0.52,0 0.884,-0.208 0.38133,-0.208 0.60666,-0.571999 0.24267,-0.381332 0.34667,-0.883998 0.12133,-0.502666 0.12133,-1.074665 0,-1.282664 -0.468,-1.958663 -0.468,-0.693332 -1.40399,-0.693332 -0.988,0 -1.52533,0.762666 -0.52,0.745331 -0.52,2.045329 z"
       id="path9650" />
    <path
       d="m 332.01394,47.028046 h -2.46133 v -8.753317 h 2.46133 z m -2.47866,-12.34131 h 2.49599 v 2.235996 h -2.49599 z"
       id="path9652" />
    <path
       d="m 336.86726,34.60007 v 9.446648 q 0,0.693332 0.208,0.918665 0.22533,0.208 0.884,0.208 h 0.156 v 1.854663 q -0.38134,0.08667 -1.10933,0.08667 -1.404,0 -2.01067,-0.693332 -0.58933,-0.693332 -0.58933,-2.079996 V 34.60007 Z"
       id="path9654" />
    <path
       d="m 341.65125,43.180053 q 0.13866,1.143998 0.76266,1.663997 0.64133,0.502666 1.768,0.502666 0.60666,0 1.16133,-0.156 0.55466,-0.156 0.988,-0.450666 l 0.83199,1.455997 q -1.23066,1.057332 -3.24132,1.057332 -1.196,0 -2.08,-0.346666 -0.86666,-0.364 -1.456,-0.987999 -0.57199,-0.623998 -0.84933,-1.47333 -0.27733,-0.849332 -0.27733,-1.819996 0,-1.126665 0.34667,-1.975997 0.34666,-0.866665 0.93599,-1.438663 0.60667,-0.571999 1.404,-0.866665 0.81467,-0.294667 1.716,-0.294667 0.91866,0 1.62933,0.294667 0.71066,0.277332 1.17866,0.797331 0.48534,0.519999 0.728,1.247998 0.26,0.710665 0.26,1.594663 0,0.294667 -0.0347,0.623999 -0.0173,0.312 -0.0867,0.571999 z m 2.01066,-3.327993 q -0.832,0 -1.352,0.502665 -0.52,0.502666 -0.60666,1.386664 h 3.53599 v -0.225333 q 0,-0.797331 -0.43333,-1.230664 -0.416,-0.433332 -1.144,-0.433332 z"
       id="path9656" />
    <path
       d="m 356.15921,38.846728 v 8.181318 h -2.39199 V 35.068069 h 2.79066 l 3.24133,6.517321 3.25866,-6.517321 h 2.68666 v 11.959977 h -2.392 v -8.198651 l -2.59999,5.182657 h -1.99333 z"
       id="path9658" />
    <path
       d="m 376.8725,42.642721 q 0,1.091998 -0.32933,1.958663 -0.312,0.849331 -0.90133,1.438664 -0.58933,0.589332 -1.42133,0.901331 -0.832,0.312 -1.85466,0.312 -1.02267,0 -1.85467,-0.312 -0.832,-0.311999 -1.42133,-0.901331 -0.58933,-0.589333 -0.91866,-1.438664 -0.312,-0.866665 -0.312,-1.958663 0,-1.091998 0.312,-1.94133 0.32933,-0.849331 0.91866,-1.438664 0.58933,-0.589332 1.42133,-0.901331 0.832,-0.312 1.85467,-0.312 1.02266,0 1.85466,0.312 0.832,0.311999 1.42133,0.901331 0.58933,0.589333 0.90133,1.438664 0.32933,0.849332 0.32933,1.94133 z m -2.51333,0 q 0,-1.334664 -0.51999,-2.010663 -0.50267,-0.675999 -1.47333,-0.675999 -0.97067,0 -1.49067,0.675999 -0.50266,0.675999 -0.50266,2.010663 0,1.351997 0.50266,2.027996 0.52,0.675999 1.49067,0.675999 0.97066,0 1.47333,-0.675999 0.51999,-0.675999 0.51999,-2.027996 z"
       id="path9660" />
    <path
       d="m 387.15115,47.028046 h -1.42133 q -0.884,0 -0.884,-0.779999 v -0.571999 q -0.34666,0.727999 -1.07466,1.161331 -0.71067,0.416 -1.716,0.416 -0.86666,0 -1.56,-0.329333 -0.69333,-0.329333 -1.17866,-0.918665 -0.468,-0.606666 -0.728,-1.455997 -0.26,-0.849332 -0.26,-1.906663 0,-1.091998 0.27733,-1.94133 0.27734,-0.866665 0.78,-1.438664 0.50267,-0.589332 1.196,-0.901331 0.71067,-0.312 1.57733,-0.312 0.832,0 1.49066,0.329333 0.65867,0.329333 1.04,0.935998 V 34.60007 h 2.46133 z m -2.39199,-4.367992 q 0,-1.265331 -0.50267,-1.975996 -0.48533,-0.727999 -1.43866,-0.727999 -0.936,0 -1.456,0.710666 -0.52,0.710665 -0.52,1.993329 0,1.299998 0.48533,1.99333 0.48534,0.693332 1.43867,0.693332 0.93599,0 1.45599,-0.710666 0.53734,-0.727998 0.53734,-1.975996 z"
       id="path9662" />
    <path
       d="m 391.48448,43.180053 q 0.13867,1.143998 0.76267,1.663997 0.64133,0.502666 1.76799,0.502666 0.60667,0 1.16133,-0.156 0.55467,-0.156 0.988,-0.450666 l 0.832,1.455997 q -1.23066,1.057332 -3.24133,1.057332 -1.19599,0 -2.07999,-0.346666 -0.86667,-0.364 -1.456,-0.987999 -0.572,-0.623998 -0.84933,-1.47333 -0.27733,-0.849332 -0.27733,-1.819996 0,-1.126665 0.34666,-1.975997 0.34667,-0.866665 0.936,-1.438663 0.60667,-0.571999 1.404,-0.866665 0.81466,-0.294667 1.71599,-0.294667 0.91867,0 1.62933,0.294667 0.71067,0.277332 1.17867,0.797331 0.48533,0.519999 0.728,1.247998 0.26,0.710665 0.26,1.594663 0,0.294667 -0.0347,0.623999 -0.0173,0.312 -0.0867,0.571999 z m 2.01066,-3.327993 q -0.83199,0 -1.35199,0.502665 -0.52,0.502666 -0.60667,1.386664 h 3.536 v -0.225333 q 0,-0.797331 -0.43334,-1.230664 -0.416,-0.433332 -1.144,-0.433332 z"
       id="path9664" />
    <path
       d="m 401.62447,34.60007 v 9.446648 q 0,0.693332 0.208,0.918665 0.22533,0.208 0.884,0.208 h 0.156 v 1.854663 q -0.38134,0.08667 -1.10934,0.08667 -1.40399,0 -2.01066,-0.693332 -0.58933,-0.693332 -0.58933,-2.079996 V 34.60007 Z"
       id="path9666" />
  </g>
</svg>
