<?xml version="1.0" encoding="UTF-8" standalone="no"?>
<svg
   width="800"
   height="528"
   overflow="hidden"
   version="1.1"
   id="svg13240"
   sodipodi:docname="llt2_use_const_initializer.svg"
   inkscape:version="1.2.1 (9c6d41e410, 2022-07-14)"
   xmlns:inkscape="http://www.inkscape.org/namespaces/inkscape"
   xmlns:sodipodi="http://sodipodi.sourceforge.net/DTD/sodipodi-0.dtd"
   xmlns="http://www.w3.org/2000/svg"
   xmlns:svg="http://www.w3.org/2000/svg">
  <sodipodi:namedview
     id="namedview13242"
     pagecolor="#ffffff"
     bordercolor="#000000"
     borderopacity="0.25"
     inkscape:showpageshadow="2"
     inkscape:pageopacity="0.0"
     inkscape:pagecheckerboard="0"
     inkscape:deskcolor="#d1d1d1"
     showgrid="false"
     inkscape:zoom="1.59375"
     inkscape:cx="400"
     inkscape:cy="264.15686"
     inkscape:window-width="1920"
     inkscape:window-height="1129"
     inkscape:window-x="-8"
     inkscape:window-y="-8"
     inkscape:window-maximized="1"
     inkscape:current-layer="svg13240" />
  <defs
     id="defs13158">
    <clipPath
       id="clip0">
      <rect
         x="0"
         y="0"
         width="800"
         height="528"
         id="rect13155" />
    </clipPath>
  </defs>
  <g
     clip-path="url(#clip0)"
     id="g13238">
    <path
       id="rect13160"
       style="fill:#ffffff"
       d="M 0,0 H 800 V 528 H 0 Z" />
    <path
       d="M32.5001 100C32.5001 95.3057 36.3057 91.5001 41.0002 91.5001L153 91.5001C157.694 91.5001 161.5 95.3057 161.5 100L161.5 134C161.5 138.694 157.694 142.5 153 142.5L41.0002 142.5C36.3057 142.5 32.5001 138.694 32.5001 134Z"
       stroke="#000000"
       stroke-width="1.33333"
       stroke-miterlimit="8"
       fill="#FFFFFF"
       fill-rule="evenodd"
       id="path13162" />
    <g
       aria-label="Parameter"
       transform="translate(60.1138 123)"
       id="text13164"
       style="font-size:16px;font-family:'IntelOne Display Regular', 'IntelOne Display Regular_MSFontService', sans-serif">
      <path
         d="m 1.04,0 v -11.2 h 4.864 q 1.84,0 2.896,0.928 1.072,0.912 1.072,2.48 0,1.584 -1.152,2.544 -1.152,0.944 -3.072,0.944 H 2.416 V 0 Z m 7.424,-7.76 q 0,-1.024 -0.688,-1.6 -0.688,-0.592 -1.92,-0.592 h -3.44 v 4.416 h 3.328 q 1.248,0 1.984,-0.592 0.736,-0.608 0.736,-1.632 z"
         id="path13245" />
      <path
         d="m 17.439996,0 h -1.264 v -1.264 q -0.464,0.672 -1.264,1.056 -0.784,0.368 -1.696,0.368 -1.28,0 -2.08,-0.64 -0.8,-0.656 -0.8,-1.712 0,-1.168 0.896,-1.76 0.896,-0.608 2.656,-0.608 h 2.272 q -0.016,-1.088 -0.576,-1.68 -0.544,-0.592 -1.568,-0.592 -0.608,0 -1.2,0.256 -0.592,0.256 -1.168,0.784 l -0.688,-0.864 q 0.672,-0.64 1.472,-0.96 0.8,-0.336 1.712,-0.336 1.552,0 2.416,0.928 0.88,0.912 0.88,2.528 z m -1.28,-3.552 h -2.256 q -1.168,0 -1.728,0.32 -0.56,0.32 -0.56,1.008 0,0.576 0.48,0.96 0.496,0.384 1.264,0.384 1.152,0 1.936,-0.736 0.8,-0.752 0.864,-1.936 z"
         id="path13247" />
      <path
         d="m 19.039986,-7.728 h 1.28 v 0.976 q 0.352,-0.512 0.912,-0.768 0.56,-0.256 1.328,-0.256 h 0.704 v 1.232 h -0.72 q -1.104,0 -1.664,0.576 -0.544,0.576 -0.544,1.744 V 0 h -1.296 z"
         id="path13249" />
      <path
         d="m 30.639978,0 h -1.264 v -1.264 q -0.464,0.672 -1.264,1.056 -0.784,0.368 -1.696,0.368 -1.28,0 -2.08,-0.64 -0.8,-0.656 -0.8,-1.712 0,-1.168 0.896,-1.76 0.896,-0.608 2.656,-0.608 h 2.272 q -0.016,-1.088 -0.576,-1.68 -0.544,-0.592 -1.568,-0.592 -0.608,0 -1.2,0.256 -0.592,0.256 -1.168,0.784 l -0.688,-0.864 q 0.672,-0.64 1.472,-0.96 0.8,-0.336 1.712,-0.336 1.552,0 2.416,0.928 0.88,0.912 0.88,2.528 z m -1.28,-3.552 h -2.256 q -1.168,0 -1.728,0.32 -0.56,0.32 -0.56,1.008 0,0.576 0.48,0.96 0.496,0.384 1.264,0.384 1.152,0 1.936,-0.736 0.8,-0.752 0.864,-1.936 z"
         id="path13251" />
      <path
         d="m 32.239968,-7.728 h 1.28 V -6.8 q 0.432,-0.56 0.976,-0.832 0.56,-0.288 1.248,-0.288 0.8,0 1.424,0.336 0.624,0.336 0.992,0.976 0.432,-0.64 1.088,-0.976 0.672,-0.336 1.504,-0.336 1.36,0 2.16,0.88 0.816,0.88 0.816,2.288 V 0 h -1.312 v -4.672 q 0,-0.976 -0.496,-1.52 -0.48,-0.56 -1.36,-0.56 -0.864,0 -1.408,0.608 -0.528,0.592 -0.528,1.552 V 0 h -1.296 v -4.672 q 0,-0.976 -0.496,-1.52 -0.48,-0.56 -1.36,-0.56 -0.864,0 -1.408,0.608 -0.528,0.592 -0.528,1.552 V 0 h -1.296 z"
         id="path13253" />
      <path
         d="m 49.05598,-0.864 q 0.768,0 1.408,-0.32 0.656,-0.336 1.2,-1.008 l 0.784,0.72 q -0.656,0.864 -1.536,1.296 -0.88,0.416 -1.968,0.416 -1.744,0 -2.864,-1.136 -1.104,-1.152 -1.104,-2.944 0,-1.744 1.136,-2.912 1.136,-1.168 2.8,-1.168 1.696,0 2.752,1.104 1.056,1.104 1.056,2.88 0,0.128 -0.016,0.304 -0.016,0.16 -0.032,0.24 h -6.352 q 0.128,1.136 0.88,1.84 0.768,0.688 1.856,0.688 z m -0.128,-5.952 q -1.008,0 -1.728,0.656 -0.72,0.656 -0.88,1.76 h 5.088 q -0.144,-1.12 -0.816,-1.76 -0.672,-0.656 -1.664,-0.656 z"
         id="path13255" />
      <path
         d="m 54.384004,-2.064 v -4.512 h -1.056 v -1.152 h 1.056 v -2.368 h 1.296 v 2.368 h 1.792 v 1.152 h -1.792 v 4.4 q 0,0.512 0.224,0.768 0.24,0.24 0.72,0.24 h 0.848 V 0 h -1.04 q -1.072,0 -1.568,-0.496 -0.48,-0.496 -0.48,-1.568 z"
         id="path13257" />
      <path
         d="m 62.384014,-0.864 q 0.768,0 1.408,-0.32 0.656,-0.336 1.2,-1.008 l 0.784,0.72 q -0.656,0.864 -1.536,1.296 -0.88,0.416 -1.968,0.416 -1.744,0 -2.864,-1.136 -1.104,-1.152 -1.104,-2.944 0,-1.744 1.136,-2.912 1.136,-1.168 2.8,-1.168 1.696,0 2.752,1.104 1.056,1.104 1.056,2.88 0,0.128 -0.016,0.304 -0.016,0.16 -0.032,0.24 h -6.352 q 0.128,1.136 0.88,1.84 0.768,0.688 1.856,0.688 z m -0.128,-5.952 q -1.008,0 -1.728,0.656 -0.72,0.656 -0.88,1.76 h 5.088 q -0.144,-1.12 -0.816,-1.76 -0.672,-0.656 -1.664,-0.656 z"
         id="path13259" />
      <path
         d="m 67.360024,-7.728 h 1.28 v 0.976 q 0.352,-0.512 0.912,-0.768 0.56,-0.256 1.328,-0.256 h 0.704 v 1.232 h -0.72 q -1.104,0 -1.664,0.576 -0.544,0.576 -0.544,1.744 V 0 h -1.296 z"
         id="path13261" />
    </g>
    <path
       d="M46.5001 173.167C46.5001 170.037 49.0372 167.5 52.1668 167.5L141.833 167.5C144.963 167.5 147.5 170.037 147.5 173.167L147.5 195.833C147.5 198.963 144.963 201.5 141.833 201.5L52.1668 201.5C49.0372 201.5 46.5001 198.963 46.5001 195.833Z"
       stroke="#8F5DA2"
       stroke-width="1.33333"
       stroke-miterlimit="8"
       fill="#CC94DA"
       fill-rule="evenodd"
       id="path13166" />
    <g
       aria-label="ShapeOf"
       transform="translate(65.0305 191)"
       id="text13168"
       style="font-size:16px;font-family:'IntelOne Display Regular', 'IntelOne Display Regular_MSFontService', sans-serif">
      <path
         d="m 8.448,-3.152 q 0,-0.976 -0.768,-1.424 -0.752,-0.448 -2.432,-0.496 -2.304,-0.112 -3.328,-0.8 -1.024,-0.704 -1.024,-2.16 0,-1.44 1.216,-2.416 1.232,-0.976 3.088,-0.976 1.36,0 2.448,0.464 1.088,0.464 1.92,1.408 L 8.704,-8.64 Q 8.032,-9.392 7.12,-9.792 q -0.912,-0.4 -1.92,-0.4 -1.28,0 -2.112,0.592 -0.832,0.592 -0.832,1.456 0,0.912 0.736,1.328 0.752,0.4 2.416,0.448 2.288,0.096 3.344,0.848 1.056,0.736 1.056,2.256 0,1.504 -1.264,2.496 -1.264,0.992 -3.232,0.992 -1.6,0 -2.768,-0.512 Q 1.392,-0.8 0.496,-1.92 l 0.848,-0.912 q 0.816,0.944 1.776,1.392 0.96,0.432 2.192,0.432 1.376,0 2.256,-0.608 0.88,-0.624 0.88,-1.536 z"
         id="path13264" />
      <path
         d="m 11.344002,-11.2 h 1.296 v 4.64 q 0.464,-0.656 1.152,-1.008 0.704,-0.352 1.568,-0.352 1.552,0 2.416,0.992 0.88,0.992 0.88,2.72 V 0 h -1.296 v -4.128 q 0,-1.232 -0.608,-1.92 -0.608,-0.704 -1.696,-0.704 -1.088,0 -1.76,0.752 -0.656,0.752 -0.656,1.952 V 0 h -1.296 z"
         id="path13266" />
      <path
         d="m 26.89599,0 h -1.264 v -1.264 q -0.464,0.672 -1.264,1.056 -0.784,0.368 -1.696,0.368 -1.28,0 -2.08,-0.64 -0.8,-0.656 -0.8,-1.712 0,-1.168 0.896,-1.76 0.896,-0.608 2.656,-0.608 h 2.272 q -0.016,-1.088 -0.576,-1.68 -0.544,-0.592 -1.568,-0.592 -0.608,0 -1.2,0.256 -0.592,0.256 -1.168,0.784 l -0.688,-0.864 q 0.672,-0.64 1.472,-0.96 0.8,-0.336 1.712,-0.336 1.552,0 2.416,0.928 0.88,0.912 0.88,2.528 z m -1.28,-3.552 h -2.256 q -1.168,0 -1.728,0.32 -0.56,0.32 -0.56,1.008 0,0.576 0.48,0.96 0.496,0.384 1.264,0.384 1.152,0 1.936,-0.736 0.8,-0.752 0.864,-1.936 z"
         id="path13268" />
      <path
         d="m 29.79198,2.88 h -1.296 V -7.728 h 1.28 v 1.248 q 0.512,-0.672 1.264,-1.04 0.752,-0.384 1.6,-0.384 1.632,0 2.72,1.136 1.088,1.12 1.088,2.88 0,1.776 -1.136,2.928 -1.12,1.136 -2.768,1.136 -0.784,0 -1.52,-0.32 -0.72,-0.336 -1.232,-0.944 z m 2.704,-9.632 q -1.168,0 -1.968,0.848 -0.784,0.832 -0.784,2.08 0,1.232 0.768,2.048 0.784,0.816 1.936,0.816 1.184,0 1.92,-0.784 0.752,-0.8 0.752,-2.112 0,-1.296 -0.736,-2.096 -0.72,-0.8 -1.888,-0.8 z"
         id="path13270" />
      <path
         d="m 41.51997,-0.864 q 0.768,0 1.408,-0.32 0.656,-0.336 1.2,-1.008 l 0.784,0.72 q -0.656,0.864 -1.536,1.296 -0.88,0.416 -1.968,0.416 -1.744,0 -2.864,-1.136 -1.104,-1.152 -1.104,-2.944 0,-1.744 1.136,-2.912 1.136,-1.168 2.8,-1.168 1.696,0 2.752,1.104 1.056,1.104 1.056,2.88 0,0.128 -0.016,0.304 -0.016,0.16 -0.032,0.24 h -6.352 q 0.128,1.136 0.88,1.84 0.768,0.688 1.856,0.688 z m -0.128,-5.952 q -1.008,0 -1.728,0.656 -0.72,0.656 -0.88,1.76 h 5.088 q -0.144,-1.12 -0.816,-1.76 -0.672,-0.656 -1.664,-0.656 z"
         id="path13272" />
      <path
         d="m 46.23998,-5.584 q 0,-2.48 1.648,-4.176 1.648,-1.696 4.064,-1.696 2.432,0 4.048,1.68 1.632,1.664 1.632,4.16 0,2.496 -1.648,4.192 -1.632,1.68 -4.048,1.68 -2.432,0 -4.064,-1.664 -1.632,-1.68 -1.632,-4.176 z m 1.408,-0.032 q 0,1.968 1.232,3.312 1.248,1.328 3.072,1.328 1.824,0 3.04,-1.312 1.232,-1.328 1.232,-3.296 0,-1.968 -1.232,-3.296 -1.232,-1.344 -3.056,-1.344 -1.84,0 -3.072,1.328 -1.216,1.312 -1.216,3.28 z"
         id="path13274" />
      <path
         d="m 59.583969,-6.576 h -1.056 v -1.152 h 1.056 v -1.456 q 0,-0.976 0.512,-1.488 0.528,-0.528 1.504,-0.528 h 1.056 v 1.088 h -0.864 q -0.448,0 -0.672,0.24 -0.224,0.24 -0.224,0.72 v 1.424 h 1.76 v 1.152 h -1.76 V 0 h -1.312 z"
         id="path13276" />
    </g>
    <path
       d="M201.5 104.5C201.5 97.3205 207.32 91.5001 214.5 91.5001L318.5 91.5001C325.68 91.5001 331.5 97.3205 331.5 104.5L331.5 156.5C331.5 163.68 325.68 169.5 318.5 169.5L214.5 169.5C207.32 169.5 201.5 163.68 201.5 156.5Z"
       stroke="#8F5DA2"
       stroke-width="1.33333"
       stroke-miterlimit="8"
       fill="#CC94DA"
       fill-rule="evenodd"
       id="path13170" />
    <g
       aria-label="Constantshape: 1value:0"
       transform="translate(234.25 117)"
       id="text13178"
       style="font-size:16px;font-family:'IntelOne Display Regular', 'IntelOne Display Regular_MSFontService', sans-serif">
      <path
         d="m 2,-5.616 q 0,2 1.2,3.328 1.2,1.312 3.008,1.312 1.216,0 2.128,-0.56 0.928,-0.56 1.584,-1.68 l 1.056,0.608 Q 10.256,-1.232 9.008,-0.48 7.776,0.256 6.176,0.256 3.744,0.256 2.16,-1.392 0.592,-3.04 0.592,-5.584 q 0,-2.496 1.632,-4.176 1.648,-1.696 4.096,-1.696 1.552,0 2.736,0.736 1.2,0.72 1.872,2.064 L 9.824,-8 Q 9.2,-9.136 8.336,-9.68 q -0.864,-0.544 -2.048,-0.544 -1.84,0 -3.072,1.312 Q 2,-7.6 2,-5.616 Z"
         id="path13279" />
      <path
         d="m 20.096002,-3.856 q 0,1.744 -1.168,2.928 -1.168,1.168 -2.88,1.168 -1.712,0 -2.864,-1.168 -1.136,-1.168 -1.136,-2.912 0,-1.744 1.168,-2.912 1.168,-1.184 2.88,-1.184 1.712,0 2.848,1.168 1.152,1.168 1.152,2.912 z m -6.72,0.016 q 0,1.248 0.768,2.096 0.784,0.848 1.936,0.848 1.136,0 1.904,-0.848 0.784,-0.848 0.784,-2.112 0,-1.232 -0.784,-2.08 -0.784,-0.864 -1.92,-0.864 -1.136,0 -1.92,0.848 -0.768,0.848 -0.768,2.112 z"
         id="path13281" />
      <path
         d="m 21.44001,-7.728 h 1.28 v 1.2 q 0.464,-0.672 1.168,-1.024 0.72,-0.368 1.6,-0.368 1.536,0 2.4,0.992 0.864,0.992 0.864,2.72 V 0 h -1.296 v -4.128 q 0,-1.216 -0.608,-1.92 -0.592,-0.704 -1.664,-0.704 -1.104,0 -1.776,0.752 -0.672,0.752 -0.672,1.952 V 0 h -1.296 z"
         id="path13283" />
      <path
         d="m 36.575998,-2.256 q 0,1.088 -0.928,1.776 -0.928,0.688 -2.416,0.688 -0.976,0 -1.84,-0.304 -0.848,-0.32 -1.536,-0.944 l 0.672,-0.992 q 0.736,0.608 1.376,0.88 0.64,0.272 1.36,0.272 0.928,0 1.488,-0.352 0.576,-0.368 0.576,-0.944 0,-0.592 -0.48,-0.848 -0.48,-0.272 -1.584,-0.288 -1.616,-0.064 -2.368,-0.592 -0.736,-0.528 -0.736,-1.648 0,-1.024 0.848,-1.696 0.864,-0.688 2.208,-0.688 0.912,0 1.712,0.288 0.8,0.288 1.456,0.848 l -0.624,0.976 q -0.656,-0.528 -1.264,-0.768 -0.608,-0.24 -1.296,-0.24 -0.784,0 -1.296,0.352 -0.496,0.352 -0.496,0.864 0,0.56 0.448,0.816 0.448,0.256 1.424,0.304 1.744,0.048 2.512,0.576 0.784,0.528 0.784,1.664 z"
         id="path13285" />
      <path
         d="m 38.240022,-2.064 v -4.512 h -1.056 v -1.152 h 1.056 v -2.368 h 1.296 v 2.368 h 1.792 v 1.152 h -1.792 v 4.4 q 0,0.512 0.224,0.768 0.24,0.24 0.72,0.24 h 0.848 V 0 h -1.04 q -1.072,0 -1.568,-0.496 -0.48,-0.496 -0.48,-1.568 z"
         id="path13287" />
      <path
         d="m 49.360009,0 h -1.264 v -1.264 q -0.464,0.672 -1.264,1.056 -0.784,0.368 -1.696,0.368 -1.28,0 -2.08,-0.64 -0.8,-0.656 -0.8,-1.712 0,-1.168 0.896,-1.76 0.896,-0.608 2.656,-0.608 h 2.272 q -0.016,-1.088 -0.576,-1.68 -0.544,-0.592 -1.568,-0.592 -0.608,0 -1.2,0.256 -0.592,0.256 -1.168,0.784 l -0.688,-0.864 q 0.672,-0.64 1.472,-0.96 0.8,-0.336 1.712,-0.336 1.552,0 2.416,0.928 0.88,0.912 0.88,2.528 z m -1.28,-3.552 h -2.256 q -1.168,0 -1.728,0.32 -0.56,0.32 -0.56,1.008 0,0.576 0.48,0.96 0.496,0.384 1.264,0.384 1.152,0 1.936,-0.736 0.8,-0.752 0.864,-1.936 z"
         id="path13289" />
      <path
         d="m 50.96,-7.728 h 1.28 v 1.2 q 0.464,-0.672 1.168,-1.024 0.72,-0.368 1.6,-0.368 1.536,0 2.4,0.992 0.864,0.992 0.864,2.72 V 0 h -1.296 v -4.128 q 0,-1.216 -0.608,-1.92 -0.592,-0.704 -1.664,-0.704 -1.104,0 -1.776,0.752 -0.672,0.752 -0.672,1.952 V 0 H 50.96 Z"
         id="path13291" />
      <path
         d="m 60.303987,-2.064 v -4.512 h -1.056 v -1.152 h 1.056 v -2.368 h 1.296 v 2.368 h 1.792 v 1.152 h -1.792 v 4.4 q 0,0.512 0.224,0.768 0.24,0.24 0.72,0.24 h 0.848 V 0 h -1.04 q -1.072,0 -1.568,-0.496 -0.48,-0.496 -0.48,-1.568 z"
         id="path13293" />
      <path
         d="m 11.98533,16.744 q 0,1.088 -0.928,1.776 -0.928,0.688 -2.4159999,0.688 -0.976,0 -1.84,-0.304 -0.848,-0.32 -1.536,-0.944 l 0.672,-0.992 q 0.736,0.608 1.376,0.88 0.64,0.272 1.36,0.272 0.928,0 1.4879999,-0.352 0.576,-0.368 0.576,-0.944 0,-0.592 -0.48,-0.848 -0.4799999,-0.272 -1.5839999,-0.288 -1.616,-0.064 -2.368,-0.592 -0.736,-0.528 -0.736,-1.648 0,-1.024 0.848,-1.696 0.864,-0.688 2.208,-0.688 0.912,0 1.7119999,0.288 0.8,0.288 1.456,0.848 l -0.624,0.976 q -0.656,-0.528 -1.2639999,-0.768 -0.608,-0.24 -1.296,-0.24 -0.784,0 -1.296,0.352 -0.496,0.352 -0.496,0.864 0,0.56 0.448,0.816 0.448,0.256 1.424,0.304 1.7439999,0.048 2.5119999,0.576 0.784,0.528 0.784,1.664 z"
         id="path13295" />
      <path
         d="m 13.297341,7.8 h 1.296 v 4.64 q 0.464,-0.656 1.152,-1.008 0.704,-0.352 1.568,-0.352 1.552,0 2.416,0.992 0.88,0.992 0.88,2.72 V 19 h -1.296 v -4.128 q 0,-1.232 -0.608,-1.92 -0.608,-0.704 -1.696,-0.704 -1.088,0 -1.76,0.752 -0.656,0.752 -0.656,1.952 V 19 h -1.296 z"
         id="path13297" />
      <path
         d="m 28.849328,19 h -1.264 v -1.264 q -0.464,0.672 -1.264,1.056 -0.784,0.368 -1.696,0.368 -1.28,0 -2.08,-0.64 -0.8,-0.656 -0.8,-1.712 0,-1.168 0.896,-1.76 0.896,-0.608 2.656,-0.608 h 2.272 q -0.016,-1.088 -0.576,-1.68 -0.544,-0.592 -1.568,-0.592 -0.608,0 -1.2,0.256 -0.592,0.256 -1.168,0.784 l -0.688,-0.864 q 0.672,-0.64 1.472,-0.96 0.8,-0.336 1.712,-0.336 1.552,0 2.416,0.928 0.88,0.912 0.88,2.528 z m -1.28,-3.552 h -2.256 q -1.168,0 -1.728,0.32 -0.56,0.32 -0.56,1.008 0,0.576 0.48,0.96 0.496,0.384 1.264,0.384 1.152,0 1.936,-0.736 0.8,-0.752 0.864,-1.936 z"
         id="path13299" />
      <path
         d="m 31.745318,21.88 h -1.296 V 11.272 h 1.28 v 1.248 q 0.512,-0.672 1.264,-1.04 0.752,-0.384 1.6,-0.384 1.632,0 2.72,1.136 1.088,1.12 1.088,2.88 0,1.776 -1.136,2.928 -1.12,1.136 -2.768,1.136 -0.784,0 -1.52,-0.32 -0.72,-0.336 -1.232,-0.944 z m 2.704,-9.632 q -1.168,0 -1.968,0.848 -0.784,0.832 -0.784,2.08 0,1.232 0.768,2.048 0.784,0.816 1.936,0.816 1.184,0 1.92,-0.784 0.752,-0.8 0.752,-2.112 0,-1.296 -0.736,-2.096 -0.72,-0.8 -1.888,-0.8 z"
         id="path13301" />
      <path
         d="m 43.473308,18.136 q 0.768,0 1.408,-0.32 0.656,-0.336 1.2,-1.008 l 0.784,0.72 q -0.656,0.864 -1.536,1.296 -0.88,0.416 -1.968,0.416 -1.744,0 -2.864,-1.136 -1.104,-1.152 -1.104,-2.944 0,-1.744 1.136,-2.912 1.136,-1.168 2.8,-1.168 1.696,0 2.752,1.104 1.056,1.104 1.056,2.88 0,0.128 -0.016,0.304 -0.016,0.16 -0.032,0.24 h -6.352 q 0.128,1.136 0.88,1.84 0.768,0.688 1.856,0.688 z m -0.128,-5.952 q -1.008,0 -1.728,0.656 -0.72,0.656 -0.88,1.76 h 5.088 q -0.144,-1.12 -0.816,-1.76 -0.672,-0.656 -1.664,-0.656 z"
         id="path13303" />
      <path
         d="m 48.529318,11.272 h 1.6 v 1.6 h -1.6 z m 0,6.112 h 1.6 V 19 h -1.6 z"
         id="path13305" />
      <path
         d="m 56.177303,9.016 h -1.728 V 7.8 h 3.072 V 19 h -1.344 z"
         id="path13307" />
      <path
         d="m 8.3533302,38 -3.312,-7.728 h 1.424 l 2.512,6.176 2.4959998,-6.176 h 1.344 L 9.5373302,38 Z"
         id="path13309" />
      <path
         d="m 20.177318,38 h -1.264 v -1.264 q -0.464,0.672 -1.264,1.056 -0.784,0.368 -1.696,0.368 -1.28,0 -2.08,-0.64 -0.8,-0.656 -0.8,-1.712 0,-1.168 0.896,-1.76 0.896,-0.608 2.656,-0.608 h 2.272 q -0.016,-1.088 -0.576,-1.68 -0.544,-0.592 -1.568,-0.592 -0.608,0 -1.2,0.256 -0.592,0.256 -1.168,0.784 l -0.688,-0.864 q 0.672,-0.64 1.472,-0.96 0.8,-0.336 1.712,-0.336 1.552,0 2.416,0.928 0.88,0.912 0.88,2.528 z m -1.28,-3.552 h -2.256 q -1.168,0 -1.728,0.32 -0.56,0.32 -0.56,1.008 0,0.576 0.48,0.96 0.496,0.384 1.264,0.384 1.152,0 1.936,-0.736 0.8,-0.752 0.864,-1.936 z"
         id="path13311" />
      <path
         d="m 21.921308,26.8 h 1.312 V 38 h -1.312 z"
         id="path13313" />
      <path
         d="m 32.305298,38 h -1.296 v -1.184 q -0.464,0.672 -1.168,1.024 -0.704,0.336 -1.6,0.336 -1.52,0 -2.4,-0.992 -0.864,-0.992 -0.864,-2.704 v -4.208 h 1.312 V 34.4 q 0,1.216 0.592,1.92 0.608,0.704 1.68,0.704 1.088,0 1.76,-0.752 0.672,-0.752 0.672,-1.952 v -4.048 h 1.312 z"
         id="path13315" />
      <path
         d="m 37.713285,37.136 q 0.768,0 1.408,-0.32 0.656,-0.336 1.2,-1.008 l 0.784,0.72 q -0.656,0.864 -1.536,1.296 -0.88,0.416 -1.968,0.416 -1.744,0 -2.864,-1.136 -1.104,-1.152 -1.104,-2.944 0,-1.744 1.136,-2.912 1.136,-1.168 2.8,-1.168 1.696,0 2.752,1.104 1.056,1.104 1.056,2.88 0,0.128 -0.016,0.304 -0.016,0.16 -0.032,0.24 h -6.352 q 0.128,1.136 0.88,1.84 0.768,0.688 1.856,0.688 z m -0.128,-5.952 q -1.008,0 -1.728,0.656 -0.72,0.656 -0.88,1.76 h 5.088 q -0.144,-1.12 -0.816,-1.76 -0.672,-0.656 -1.664,-0.656 z"
         id="path13317" />
      <path
         d="m 42.769295,30.272 h 1.6 v 1.6 h -1.6 z m 0,6.112 h 1.6 V 38 h -1.6 z"
         id="path13319" />
      <path
         d="M 49.092,32.672 V 32.16 q 0,-2.576 1.232,-4.096 1.232,-1.52 3.296,-1.52 2.064,0 3.264,1.504 1.216,1.504 1.216,4.08 v 0.512 q 0,2.576 -1.232,4.096 -1.216,1.52 -3.28,1.52 -2.064,0 -3.28,-1.504 -1.216,-1.504 -1.216,-4.08 z m 4.496,-4.912 q -1.472,0 -2.304,1.152 -0.816,1.152 -0.816,3.216 v 0.512 q 0,2.08 0.832,3.248 0.832,1.152 2.304,1.152 1.472,0 2.288,-1.152 0.832,-1.152 0.832,-3.216 V 32.16 q 0,-2.08 -0.832,-3.232 Q 55.06,27.76 53.588,27.76 Z"
         id="path13321" />
    </g>
    <path
       d="M133.5 244.5C133.5 240.634 136.634 237.5 140.5 237.5L234.5 237.5C238.366 237.5 241.5 240.634 241.5 244.5L241.5 272.5C241.5 276.366 238.366 279.5 234.5 279.5L140.5 279.5C136.634 279.5 133.5 276.366 133.5 272.5Z"
       stroke="#8F5DA2"
       stroke-width="1.33333"
       stroke-miterlimit="8"
       fill="#CC94DA"
       fill-rule="evenodd"
       id="path13180" />
    <g
       aria-label="Broadcast"
       transform="translate(151.523 264)"
       id="text13182"
       style="font-size:16px;font-family:'IntelOne Display Regular', 'IntelOne Display Regular_MSFontService', sans-serif">
      <path
         d="m 1.04,0 v -11.2 h 4.848 q 1.872,0 2.896,0.768 1.024,0.768 1.024,2.176 0,0.896 -0.464,1.552 -0.464,0.64 -1.392,0.992 1.04,0.272 1.552,0.944 0.528,0.656 0.528,1.696 0,1.376 -1.072,2.224 Q 7.888,0 6.128,0 Z m 7.392,-8.192 q 0,-0.88 -0.656,-1.328 Q 7.12,-9.984 5.856,-9.984 H 2.432 v 3.728 h 3.632 q 1.04,0 1.696,-0.544 0.672,-0.544 0.672,-1.392 z m 0.224,5.104 q 0,-0.896 -0.608,-1.424 Q 7.44,-5.04 6.4,-5.04 H 2.432 v 3.824 h 3.792 q 1.104,0 1.76,-0.512 0.672,-0.512 0.672,-1.36 z"
         id="path13324" />
      <path
         d="m 11.456002,-7.728 h 1.28 v 0.976 q 0.352,-0.512 0.912,-0.768 0.56,-0.256 1.328,-0.256 h 0.704 v 1.232 h -0.72 q -1.104,0 -1.664,0.576 -0.544,0.576 -0.544,1.744 V 0 h -1.296 z"
         id="path13326" />
      <path
         d="m 24.223993,-3.856 q 0,1.744 -1.168,2.928 -1.168,1.168 -2.88,1.168 -1.712,0 -2.864,-1.168 -1.136,-1.168 -1.136,-2.912 0,-1.744 1.168,-2.912 1.168,-1.184 2.88,-1.184 1.712,0 2.848,1.168 1.152,1.168 1.152,2.912 z m -6.72,0.016 q 0,1.248 0.768,2.096 0.784,0.848 1.936,0.848 1.136,0 1.904,-0.848 0.784,-0.848 0.784,-2.112 0,-1.232 -0.784,-2.08 -0.784,-0.864 -1.92,-0.864 -1.136,0 -1.92,0.848 -0.768,0.848 -0.768,2.112 z"
         id="path13328" />
      <path
         d="m 32.208001,0 h -1.264 v -1.264 q -0.464,0.672 -1.264,1.056 -0.784,0.368 -1.696,0.368 -1.28,0 -2.08,-0.64 -0.8,-0.656 -0.8,-1.712 0,-1.168 0.896,-1.76 0.896,-0.608 2.656,-0.608 h 2.272 q -0.016,-1.088 -0.576,-1.68 -0.544,-0.592 -1.568,-0.592 -0.608,0 -1.2,0.256 -0.592,0.256 -1.168,0.784 l -0.688,-0.864 q 0.672,-0.64 1.472,-0.96 0.8,-0.336 1.712,-0.336 1.552,0 2.416,0.928 0.88,0.912 0.88,2.528 z m -1.28,-3.552 h -2.256 q -1.168,0 -1.728,0.32 -0.56,0.32 -0.56,1.008 0,0.576 0.48,0.96 0.496,0.384 1.264,0.384 1.152,0 1.936,-0.736 0.8,-0.752 0.864,-1.936 z"
         id="path13330" />
      <path
         d="m 40.111991,-11.2 h 1.312 V 0 h -1.296 v -1.248 q -0.528,0.672 -1.28,1.04 -0.736,0.368 -1.584,0.368 -1.616,0 -2.72,-1.12 -1.088,-1.136 -1.088,-2.88 0,-1.76 1.12,-2.912 1.136,-1.168 2.784,-1.168 0.8,0 1.504,0.336 0.72,0.32 1.248,0.928 z m -2.704,10.224 q 1.168,0 1.952,-0.832 0.8,-0.848 0.8,-2.08 0,-1.248 -0.768,-2.064 -0.768,-0.816 -1.92,-0.816 -1.184,0 -1.936,0.8 -0.752,0.8 -0.752,2.096 0,1.296 0.736,2.096 0.736,0.8 1.888,0.8 z"
         id="path13332" />
      <path
         d="m 46.751981,0.24 q -1.776,0 -2.896,-1.12 -1.104,-1.136 -1.104,-2.96 0,-1.728 1.168,-2.912 1.168,-1.184 2.864,-1.184 1.232,0 2.096,0.576 0.88,0.56 1.328,1.632 l -1.104,0.528 q -0.368,-0.8 -0.96,-1.2 -0.576,-0.4 -1.376,-0.4 -1.136,0 -1.92,0.864 -0.768,0.848 -0.768,2.096 0,1.264 0.768,2.112 0.784,0.832 1.952,0.832 0.752,0 1.392,-0.4 0.656,-0.416 1.056,-1.152 l 1.008,0.544 q -0.464,0.992 -1.392,1.568 -0.928,0.576 -2.112,0.576 z"
         id="path13334" />
      <path
         d="m 58.191979,0 h -1.264 v -1.264 q -0.464,0.672 -1.264,1.056 -0.784,0.368 -1.696,0.368 -1.28,0 -2.08,-0.64 -0.8,-0.656 -0.8,-1.712 0,-1.168 0.896,-1.76 0.896,-0.608 2.656,-0.608 h 2.272 q -0.016,-1.088 -0.576,-1.68 -0.544,-0.592 -1.568,-0.592 -0.608,0 -1.2,0.256 -0.592,0.256 -1.168,0.784 l -0.688,-0.864 q 0.672,-0.64 1.472,-0.96 0.8,-0.336 1.712,-0.336 1.552,0 2.416,0.928 0.88,0.912 0.88,2.528 z m -1.28,-3.552 h -2.256 q -1.168,0 -1.728,0.32 -0.56,0.32 -0.56,1.008 0,0.576 0.48,0.96 0.496,0.384 1.264,0.384 1.152,0 1.936,-0.736 0.8,-0.752 0.864,-1.936 z"
         id="path13336" />
      <path
         d="m 66.01597,-2.256 q 0,1.088 -0.928,1.776 -0.928,0.688 -2.416,0.688 -0.976,0 -1.84,-0.304 -0.848,-0.32 -1.536,-0.944 l 0.672,-0.992 q 0.736,0.608 1.376,0.88 0.64,0.272 1.36,0.272 0.928,0 1.488,-0.352 0.576,-0.368 0.576,-0.944 0,-0.592 -0.48,-0.848 -0.48,-0.272 -1.584,-0.288 -1.616,-0.064 -2.368,-0.592 -0.736,-0.528 -0.736,-1.648 0,-1.024 0.848,-1.696 0.864,-0.688 2.208,-0.688 0.912,0 1.712,0.288 0.8,0.288 1.456,0.848 l -0.624,0.976 q -0.656,-0.528 -1.264,-0.768 -0.608,-0.24 -1.296,-0.24 -0.784,0 -1.296,0.352 -0.496,0.352 -0.496,0.864 0,0.56 0.448,0.816 0.448,0.256 1.424,0.304 1.744,0.048 2.512,0.576 0.784,0.528 0.784,1.664 z"
         id="path13338" />
      <path
         d="m 67.679994,-2.064 v -4.512 h -1.056 v -1.152 h 1.056 v -2.368 h 1.296 v 2.368 h 1.792 v 1.152 h -1.792 v 4.4 q 0,0.512 0.224,0.768 0.24,0.24 0.72,0.24 h 0.848 V 0 h -1.04 q -1.072,0 -1.568,-0.496 -0.48,-0.496 -0.48,-1.568 z"
         id="path13340" />
    </g>
    <path
       d="M109.5 380.5C109.5 373.32 115.32 367.5 122.5 367.5L253.5 367.5C260.68 367.5 266.5 373.32 266.5 380.5L266.5 432.5C266.5 439.68 260.68 445.5 253.5 445.5L122.5 445.5C115.32 445.5 109.5 439.68 109.5 432.5Z"
       stroke="#000000"
       stroke-width="1.33333"
       stroke-miterlimit="8"
       fill="#FFFFFF"
       fill-rule="evenodd"
       id="path13184" />
    <g
       aria-label="TesorIterator"
       transform="translate(141.773 413)"
       id="text13186"
       style="font-size:16px;font-family:'IntelOne Display Regular', 'IntelOne Display Regular_MSFontService', sans-serif">
      <path
         d="M 4.672,-9.952 H 0.32 V -11.2 h 10.064 v 1.248 H 6.048 V 0 H 4.672 Z"
         id="path13343" />
      <path
         d="m 13.712017,-0.864 q 0.768,0 1.408,-0.32 0.656,-0.336 1.2,-1.008 l 0.784,0.72 q -0.656,0.864 -1.536,1.296 -0.88,0.416 -1.968,0.416 -1.744,0 -2.864,-1.136 -1.1040002,-1.152 -1.1040002,-2.944 0,-1.744 1.1360002,-2.912 1.136,-1.168 2.8,-1.168 1.696,0 2.752,1.104 1.056,1.104 1.056,2.88 0,0.128 -0.016,0.304 -0.016,0.16 -0.032,0.24 h -6.352 q 0.128,1.136 0.88,1.84 0.768,0.688 1.856,0.688 z m -0.128,-5.952 q -1.008,0 -1.728,0.656 -0.72,0.656 -0.88,1.76 h 5.088 q -0.144,-1.12 -0.816,-1.76 -0.672,-0.656 -1.664,-0.656 z"
         id="path13345" />
      <path
         d="m 24.912027,-2.256 q 0,1.088 -0.928,1.776 -0.928,0.688 -2.416,0.688 -0.976,0 -1.84,-0.304 -0.848,-0.32 -1.536,-0.944 l 0.672,-0.992 q 0.736,0.608 1.376,0.88 0.64,0.272 1.36,0.272 0.928,0 1.488,-0.352 0.576,-0.368 0.576,-0.944 0,-0.592 -0.48,-0.848 -0.48,-0.272 -1.584,-0.288 -1.616,-0.064 -2.368,-0.592 -0.736,-0.528 -0.736,-1.648 0,-1.024 0.848,-1.696 0.864,-0.688 2.208,-0.688 0.912,0 1.712,0.288 0.8,0.288 1.456,0.848 l -0.624,0.976 q -0.656,-0.528 -1.264,-0.768 -0.608,-0.24 -1.296,-0.24 -0.784,0 -1.296,0.352 -0.496,0.352 -0.496,0.864 0,0.56 0.448,0.816 0.448,0.256 1.424,0.304 1.744,0.048 2.512,0.576 0.784,0.528 0.784,1.664 z"
         id="path13347" />
      <path
         d="m 33.920038,-3.856 q 0,1.744 -1.168,2.928 -1.168,1.168 -2.88,1.168 -1.712,0 -2.864,-1.168 -1.136,-1.168 -1.136,-2.912 0,-1.744 1.168,-2.912 1.168,-1.184 2.88,-1.184 1.712,0 2.848,1.168 1.152,1.168 1.152,2.912 z m -6.72,0.016 q 0,1.248 0.768,2.096 0.784,0.848 1.936,0.848 1.136,0 1.904,-0.848 0.784,-0.848 0.784,-2.112 0,-1.232 -0.784,-2.08 -0.784,-0.864 -1.92,-0.864 -1.136,0 -1.92,0.848 -0.768,0.848 -0.768,2.112 z"
         id="path13349" />
      <path
         d="m 35.264046,-7.728 h 1.28 v 0.976 q 0.352,-0.512 0.912,-0.768 0.56,-0.256 1.328,-0.256 h 0.704 v 1.232 h -0.72 q -1.104,0 -1.664,0.576 -0.544,0.576 -0.544,1.744 V 0 h -1.296 z"
         id="path13351" />
      <path
         d="m 40.848045,0 v -11.2 h 1.376 V 0 Z"
         id="path13353" />
      <path
         d="m 44.656038,-2.064 v -4.512 h -1.056 v -1.152 h 1.056 v -2.368 h 1.296 v 2.368 h 1.792 v 1.152 h -1.792 v 4.4 q 0,0.512 0.224,0.768 0.24,0.24 0.72,0.24 h 0.848 V 0 h -1.04 q -1.072,0 -1.568,-0.496 -0.48,-0.496 -0.48,-1.568 z"
         id="path13355" />
      <path
         d="m 52.656048,-0.864 q 0.768,0 1.408,-0.32 0.656,-0.336 1.2,-1.008 l 0.784,0.72 q -0.656,0.864 -1.536,1.296 -0.88,0.416 -1.968,0.416 -1.744,0 -2.864,-1.136 -1.104,-1.152 -1.104,-2.944 0,-1.744 1.136,-2.912 1.136,-1.168 2.8,-1.168 1.696,0 2.752,1.104 1.056,1.104 1.056,2.88 0,0.128 -0.016,0.304 -0.016,0.16 -0.032,0.24 h -6.352 q 0.128,1.136 0.88,1.84 0.768,0.688 1.856,0.688 z m -0.128,-5.952 q -1.008,0 -1.728,0.656 -0.72,0.656 -0.88,1.76 h 5.088 q -0.144,-1.12 -0.816,-1.76 -0.672,-0.656 -1.664,-0.656 z"
         id="path13357" />
      <path
         d="m 57.632058,-7.728 h 1.28 v 0.976 q 0.352,-0.512 0.912,-0.768 0.56,-0.256 1.328,-0.256 h 0.704 v 1.232 h -0.72 q -1.104,0 -1.664,0.576 -0.544,0.576 -0.544,1.744 V 0 h -1.296 z"
         id="path13359" />
      <path
         d="m 69.232049,0 h -1.264 v -1.264 q -0.464,0.672 -1.264,1.056 -0.784,0.368 -1.696,0.368 -1.28,0 -2.08,-0.64 -0.8,-0.656 -0.8,-1.712 0,-1.168 0.896,-1.76 0.896,-0.608 2.656,-0.608 h 2.272 q -0.016,-1.088 -0.576,-1.68 -0.544,-0.592 -1.568,-0.592 -0.608,0 -1.2,0.256 -0.592,0.256 -1.168,0.784 l -0.688,-0.864 q 0.672,-0.64 1.472,-0.96 0.8,-0.336 1.712,-0.336 1.552,0 2.416,0.928 0.88,0.912 0.88,2.528 z m -1.28,-3.552 h -2.256 q -1.168,0 -1.728,0.32 -0.56,0.32 -0.56,1.008 0,0.576 0.48,0.96 0.496,0.384 1.264,0.384 1.152,0 1.936,-0.736 0.8,-0.752 0.864,-1.936 z"
         id="path13361" />
      <path
         d="m 71.184053,-2.064 v -4.512 h -1.056 v -1.152 h 1.056 v -2.368 h 1.296 v 2.368 h 1.792 v 1.152 h -1.792 v 4.4 q 0,0.512 0.224,0.768 0.24,0.24 0.72,0.24 h 0.848 V 0 h -1.04 q -1.072,0 -1.568,-0.496 -0.48,-0.496 -0.48,-1.568 z"
         id="path13363" />
      <path
         d="m 83.152063,-3.856 q 0,1.744 -1.168,2.928 -1.168,1.168 -2.88,1.168 -1.712,0 -2.864,-1.168 -1.136,-1.168 -1.136,-2.912 0,-1.744 1.168,-2.912 1.168,-1.184 2.88,-1.184 1.712,0 2.848,1.168 1.152,1.168 1.152,2.912 z m -6.72,0.016 q 0,1.248 0.768,2.096 0.784,0.848 1.936,0.848 1.136,0 1.904,-0.848 0.784,-0.848 0.784,-2.112 0,-1.232 -0.784,-2.08 -0.784,-0.864 -1.92,-0.864 -1.136,0 -1.92,0.848 -0.768,0.848 -0.768,2.112 z"
         id="path13365" />
      <path
         d="m 84.496071,-7.728 h 1.28 v 0.976 q 0.352,-0.512 0.912,-0.768 0.56,-0.256 1.328,-0.256 h 0.704 v 1.232 h -0.72 q -1.104,0 -1.664,0.576 -0.544,0.576 -0.544,1.744 V 0 h -1.296 z"
         id="path13367" />
    </g>
    <path
       d="M123.5 473.167C123.5 470.037 126.037 467.5 129.167 467.5L246.833 467.5C249.963 467.5 252.5 470.037 252.5 473.167L252.5 495.833C252.5 498.963 249.963 501.5 246.833 501.5L129.167 501.5C126.037 501.5 123.5 498.963 123.5 495.833Z"
       stroke="#EDB200"
       stroke-width="1.33333"
       stroke-miterlimit="8"
       fill="#FFE17A"
       fill-rule="evenodd"
       id="path13188" />
    <g
       aria-label="Assign"
       transform="translate(163.19 490)"
       id="text13190"
       style="font-size:16px;font-family:'IntelOne Display Regular', 'IntelOne Display Regular_MSFontService', sans-serif">
      <path
         d="M 3.12,-3.376 1.648,0 H 0.208 L 5.184,-11.2 H 6.528 L 11.488,0 H 10.032 L 8.544,-3.376 Z m 2.704,-6.176 -2.16,4.96 h 4.352 z"
         id="path13370" />
      <path
         d="m 18.784006,-2.256 q 0,1.088 -0.928,1.776 -0.928,0.688 -2.416,0.688 -0.976,0 -1.84,-0.304 -0.848,-0.32 -1.536,-0.944 l 0.672,-0.992 q 0.736,0.608 1.376,0.88 0.64,0.272 1.36,0.272 0.928,0 1.488,-0.352 0.576,-0.368 0.576,-0.944 0,-0.592 -0.48,-0.848 -0.48,-0.272 -1.584,-0.288 -1.616,-0.064 -2.368,-0.592 -0.736,-0.528 -0.736,-1.648 0,-1.024 0.848,-1.696 0.864,-0.688 2.208,-0.688 0.912,0 1.712,0.288 0.8,0.288 1.456,0.848 l -0.624,0.976 q -0.656,-0.528 -1.264,-0.768 -0.608,-0.24 -1.296,-0.24 -0.784,0 -1.296,0.352 -0.496,0.352 -0.496,0.864 0,0.56 0.448,0.816 0.448,0.256 1.424,0.304 1.744,0.048 2.512,0.576 0.784,0.528 0.784,1.664 z"
         id="path13372" />
      <path
         d="m 26.320016,-2.256 q 0,1.088 -0.928,1.776 -0.928,0.688 -2.416,0.688 -0.976,0 -1.84,-0.304 -0.848,-0.32 -1.536,-0.944 l 0.672,-0.992 q 0.736,0.608 1.376,0.88 0.64,0.272 1.36,0.272 0.928,0 1.488,-0.352 0.576,-0.368 0.576,-0.944 0,-0.592 -0.48,-0.848 -0.48,-0.272 -1.584,-0.288 -1.616,-0.064 -2.368,-0.592 -0.736,-0.528 -0.736,-1.648 0,-1.024 0.848,-1.696 0.864,-0.688 2.208,-0.688 0.912,0 1.712,0.288 0.8,0.288 1.456,0.848 l -0.624,0.976 q -0.656,-0.528 -1.264,-0.768 -0.608,-0.24 -1.296,-0.24 -0.784,0 -1.296,0.352 -0.496,0.352 -0.496,0.864 0,0.56 0.448,0.816 0.448,0.256 1.424,0.304 1.744,0.048 2.512,0.576 0.784,0.528 0.784,1.664 z"
         id="path13374" />
      <path
         d="m 27.712027,-10.32 h 1.44 v 1.424 h -1.44 z m 0.064,10.32 v -7.728 h 1.312 V 0 Z"
         id="path13376" />
      <path
         d="m 37.248017,-0.912 v -0.544 q -0.528,0.64 -1.28,0.992 -0.736,0.352 -1.584,0.352 -1.632,0 -2.72,-1.088 -1.088,-1.088 -1.088,-2.8 0,-1.696 1.104,-2.8 1.12,-1.12 2.752,-1.12 0.832,0 1.568,0.352 0.736,0.352 1.264,0.992 v -1.152 h 1.296 v 6.768 q 0,1.92 -1.024,2.88 -1.024,0.96 -3.088,0.96 h -1.952 V 1.76 h 2.016 q 1.36,0 2.048,-0.672 0.688,-0.672 0.688,-2 z m -2.672,-0.352 q 1.152,0 1.936,-0.784 0.8,-0.8 0.8,-1.952 0,-1.184 -0.8,-1.968 -0.784,-0.8 -1.936,-0.8 -1.2,0 -1.936,0.752 -0.736,0.752 -0.736,2 0,1.232 0.736,2 0.752,0.752 1.936,0.752 z"
         id="path13378" />
      <path
         d="m 40.240029,-7.728 h 1.28 v 1.2 q 0.464,-0.672 1.168,-1.024 0.72,-0.368 1.6,-0.368 1.536,0 2.4,0.992 0.864,0.992 0.864,2.72 V 0 h -1.296 v -4.128 q 0,-1.216 -0.608,-1.92 -0.592,-0.704 -1.664,-0.704 -1.104,0 -1.776,0.752 -0.672,0.752 -0.672,1.952 V 0 h -1.296 z"
         id="path13380" />
    </g>
    <path
       d="M534.5 173.167C534.5 170.037 537.037 167.5 540.167 167.5L657.833 167.5C660.963 167.5 663.5 170.037 663.5 173.167L663.5 195.833C663.5 198.963 660.963 201.5 657.833 201.5L540.167 201.5C537.037 201.5 534.5 198.963 534.5 195.833Z"
       stroke="#000000"
       stroke-width="1.33333"
       stroke-miterlimit="8"
       fill="#FFFFFF"
       fill-rule="evenodd"
       id="path13192" />
    <g
       aria-label="Parameter"
       transform="translate(562.477 191)"
       id="text13194"
       style="font-size:16px;font-family:'IntelOne Display Regular', 'IntelOne Display Regular_MSFontService', sans-serif">
      <path
         d="m 1.04,0 v -11.2 h 4.864 q 1.84,0 2.896,0.928 1.072,0.912 1.072,2.48 0,1.584 -1.152,2.544 -1.152,0.944 -3.072,0.944 H 2.416 V 0 Z m 7.424,-7.76 q 0,-1.024 -0.688,-1.6 -0.688,-0.592 -1.92,-0.592 h -3.44 v 4.416 h 3.328 q 1.248,0 1.984,-0.592 0.736,-0.608 0.736,-1.632 z"
         id="path13383" />
      <path
         d="m 17.439996,0 h -1.264 v -1.264 q -0.464,0.672 -1.264,1.056 -0.784,0.368 -1.696,0.368 -1.28,0 -2.08,-0.64 -0.8,-0.656 -0.8,-1.712 0,-1.168 0.896,-1.76 0.896,-0.608 2.656,-0.608 h 2.272 q -0.016,-1.088 -0.576,-1.68 -0.544,-0.592 -1.568,-0.592 -0.608,0 -1.2,0.256 -0.592,0.256 -1.168,0.784 l -0.688,-0.864 q 0.672,-0.64 1.472,-0.96 0.8,-0.336 1.712,-0.336 1.552,0 2.416,0.928 0.88,0.912 0.88,2.528 z m -1.28,-3.552 h -2.256 q -1.168,0 -1.728,0.32 -0.56,0.32 -0.56,1.008 0,0.576 0.48,0.96 0.496,0.384 1.264,0.384 1.152,0 1.936,-0.736 0.8,-0.752 0.864,-1.936 z"
         id="path13385" />
      <path
         d="m 19.039986,-7.728 h 1.28 v 0.976 q 0.352,-0.512 0.912,-0.768 0.56,-0.256 1.328,-0.256 h 0.704 v 1.232 h -0.72 q -1.104,0 -1.664,0.576 -0.544,0.576 -0.544,1.744 V 0 h -1.296 z"
         id="path13387" />
      <path
         d="m 30.639978,0 h -1.264 v -1.264 q -0.464,0.672 -1.264,1.056 -0.784,0.368 -1.696,0.368 -1.28,0 -2.08,-0.64 -0.8,-0.656 -0.8,-1.712 0,-1.168 0.896,-1.76 0.896,-0.608 2.656,-0.608 h 2.272 q -0.016,-1.088 -0.576,-1.68 -0.544,-0.592 -1.568,-0.592 -0.608,0 -1.2,0.256 -0.592,0.256 -1.168,0.784 l -0.688,-0.864 q 0.672,-0.64 1.472,-0.96 0.8,-0.336 1.712,-0.336 1.552,0 2.416,0.928 0.88,0.912 0.88,2.528 z m -1.28,-3.552 h -2.256 q -1.168,0 -1.728,0.32 -0.56,0.32 -0.56,1.008 0,0.576 0.48,0.96 0.496,0.384 1.264,0.384 1.152,0 1.936,-0.736 0.8,-0.752 0.864,-1.936 z"
         id="path13389" />
      <path
         d="m 32.239968,-7.728 h 1.28 V -6.8 q 0.432,-0.56 0.976,-0.832 0.56,-0.288 1.248,-0.288 0.8,0 1.424,0.336 0.624,0.336 0.992,0.976 0.432,-0.64 1.088,-0.976 0.672,-0.336 1.504,-0.336 1.36,0 2.16,0.88 0.816,0.88 0.816,2.288 V 0 h -1.312 v -4.672 q 0,-0.976 -0.496,-1.52 -0.48,-0.56 -1.36,-0.56 -0.864,0 -1.408,0.608 -0.528,0.592 -0.528,1.552 V 0 h -1.296 v -4.672 q 0,-0.976 -0.496,-1.52 -0.48,-0.56 -1.36,-0.56 -0.864,0 -1.408,0.608 -0.528,0.592 -0.528,1.552 V 0 h -1.296 z"
         id="path13391" />
      <path
         d="m 49.05598,-0.864 q 0.768,0 1.408,-0.32 0.656,-0.336 1.2,-1.008 l 0.784,0.72 q -0.656,0.864 -1.536,1.296 -0.88,0.416 -1.968,0.416 -1.744,0 -2.864,-1.136 -1.104,-1.152 -1.104,-2.944 0,-1.744 1.136,-2.912 1.136,-1.168 2.8,-1.168 1.696,0 2.752,1.104 1.056,1.104 1.056,2.88 0,0.128 -0.016,0.304 -0.016,0.16 -0.032,0.24 h -6.352 q 0.128,1.136 0.88,1.84 0.768,0.688 1.856,0.688 z m -0.128,-5.952 q -1.008,0 -1.728,0.656 -0.72,0.656 -0.88,1.76 h 5.088 q -0.144,-1.12 -0.816,-1.76 -0.672,-0.656 -1.664,-0.656 z"
         id="path13393" />
      <path
         d="m 54.384004,-2.064 v -4.512 h -1.056 v -1.152 h 1.056 v -2.368 h 1.296 v 2.368 h 1.792 v 1.152 h -1.792 v 4.4 q 0,0.512 0.224,0.768 0.24,0.24 0.72,0.24 h 0.848 V 0 h -1.04 q -1.072,0 -1.568,-0.496 -0.48,-0.496 -0.48,-1.568 z"
         id="path13395" />
      <path
         d="m 62.384014,-0.864 q 0.768,0 1.408,-0.32 0.656,-0.336 1.2,-1.008 l 0.784,0.72 q -0.656,0.864 -1.536,1.296 -0.88,0.416 -1.968,0.416 -1.744,0 -2.864,-1.136 -1.104,-1.152 -1.104,-2.944 0,-1.744 1.136,-2.912 1.136,-1.168 2.8,-1.168 1.696,0 2.752,1.104 1.056,1.104 1.056,2.88 0,0.128 -0.016,0.304 -0.016,0.16 -0.032,0.24 h -6.352 q 0.128,1.136 0.88,1.84 0.768,0.688 1.856,0.688 z m -0.128,-5.952 q -1.008,0 -1.728,0.656 -0.72,0.656 -0.88,1.76 h 5.088 q -0.144,-1.12 -0.816,-1.76 -0.672,-0.656 -1.664,-0.656 z"
         id="path13397" />
      <path
         d="m 67.360024,-7.728 h 1.28 v 0.976 q 0.352,-0.512 0.912,-0.768 0.56,-0.256 1.328,-0.256 h 0.704 v 1.232 h -0.72 q -1.104,0 -1.664,0.576 -0.544,0.576 -0.544,1.744 V 0 h -1.296 z"
         id="path13399" />
    </g>
    <path
       d="M520.5 314.5C520.5 307.32 526.32 301.5 533.5 301.5L664.5 301.5C671.68 301.5 677.5 307.32 677.5 314.5L677.5 366.5C677.5 373.68 671.68 379.5 664.5 379.5L533.5 379.5C526.32 379.5 520.5 373.68 520.5 366.5Z"
       stroke="#000000"
       stroke-width="1.33333"
       stroke-miterlimit="8"
       fill="#FFFFFF"
       fill-rule="evenodd"
       id="path13196" />
    <g
       aria-label="TensorIterator"
       transform="translate(548.811 347)"
       id="text13198"
       style="font-size:16px;font-family:'IntelOne Display Regular', 'IntelOne Display Regular_MSFontService', sans-serif">
      <path
         d="M 4.672,-9.952 H 0.32 V -11.2 h 10.064 v 1.248 H 6.048 V 0 H 4.672 Z"
         id="path13402" />
      <path
         d="m 13.712017,-0.864 q 0.768,0 1.408,-0.32 0.656,-0.336 1.2,-1.008 l 0.784,0.72 q -0.656,0.864 -1.536,1.296 -0.88,0.416 -1.968,0.416 -1.744,0 -2.864,-1.136 -1.1040002,-1.152 -1.1040002,-2.944 0,-1.744 1.1360002,-2.912 1.136,-1.168 2.8,-1.168 1.696,0 2.752,1.104 1.056,1.104 1.056,2.88 0,0.128 -0.016,0.304 -0.016,0.16 -0.032,0.24 h -6.352 q 0.128,1.136 0.88,1.84 0.768,0.688 1.856,0.688 z m -0.128,-5.952 q -1.008,0 -1.728,0.656 -0.72,0.656 -0.88,1.76 h 5.088 q -0.144,-1.12 -0.816,-1.76 -0.672,-0.656 -1.664,-0.656 z"
         id="path13404" />
      <path
         d="m 18.688027,-7.728 h 1.28 v 1.2 q 0.464,-0.672 1.168,-1.024 0.72,-0.368 1.6,-0.368 1.536,0 2.4,0.992 0.864,0.992 0.864,2.72 V 0 h -1.296 v -4.128 q 0,-1.216 -0.608,-1.92 -0.592,-0.704 -1.664,-0.704 -1.104,0 -1.776,0.752 -0.672,0.752 -0.672,1.952 V 0 h -1.296 z"
         id="path13406" />
      <path
         d="m 33.824014,-2.256 q 0,1.088 -0.928,1.776 -0.928,0.688 -2.416,0.688 -0.976,0 -1.84,-0.304 -0.848,-0.32 -1.536,-0.944 l 0.672,-0.992 q 0.736,0.608 1.376,0.88 0.64,0.272 1.36,0.272 0.928,0 1.488,-0.352 0.576,-0.368 0.576,-0.944 0,-0.592 -0.48,-0.848 -0.48,-0.272 -1.584,-0.288 -1.616,-0.064 -2.368,-0.592 -0.736,-0.528 -0.736,-1.648 0,-1.024 0.848,-1.696 0.864,-0.688 2.208,-0.688 0.912,0 1.712,0.288 0.8,0.288 1.456,0.848 l -0.624,0.976 q -0.656,-0.528 -1.264,-0.768 -0.608,-0.24 -1.296,-0.24 -0.784,0 -1.296,0.352 -0.496,0.352 -0.496,0.864 0,0.56 0.448,0.816 0.448,0.256 1.424,0.304 1.744,0.048 2.512,0.576 0.784,0.528 0.784,1.664 z"
         id="path13408" />
      <path
         d="m 42.832025,-3.856 q 0,1.744 -1.168,2.928 -1.168,1.168 -2.88,1.168 -1.712,0 -2.864,-1.168 -1.136,-1.168 -1.136,-2.912 0,-1.744 1.168,-2.912 1.168,-1.184 2.88,-1.184 1.712,0 2.848,1.168 1.152,1.168 1.152,2.912 z m -6.72,0.016 q 0,1.248 0.768,2.096 0.784,0.848 1.936,0.848 1.136,0 1.904,-0.848 0.784,-0.848 0.784,-2.112 0,-1.232 -0.784,-2.08 -0.784,-0.864 -1.92,-0.864 -1.136,0 -1.92,0.848 -0.768,0.848 -0.768,2.112 z"
         id="path13410" />
      <path
         d="m 44.176033,-7.728 h 1.28 v 0.976 q 0.352,-0.512 0.912,-0.768 0.56,-0.256 1.328,-0.256 h 0.704 v 1.232 h -0.72 q -1.104,0 -1.664,0.576 -0.544,0.576 -0.544,1.744 V 0 h -1.296 z"
         id="path13412" />
      <path
         d="m 49.760032,0 v -11.2 h 1.376 V 0 Z"
         id="path13414" />
      <path
         d="m 53.568025,-2.064 v -4.512 h -1.056 v -1.152 h 1.056 v -2.368 h 1.296 v 2.368 h 1.792 v 1.152 h -1.792 v 4.4 q 0,0.512 0.224,0.768 0.24,0.24 0.72,0.24 h 0.848 V 0 h -1.04 q -1.072,0 -1.568,-0.496 -0.48,-0.496 -0.48,-1.568 z"
         id="path13416" />
      <path
         d="m 61.568035,-0.864 q 0.768,0 1.408,-0.32 0.656,-0.336 1.2,-1.008 l 0.784,0.72 q -0.656,0.864 -1.536,1.296 -0.88,0.416 -1.968,0.416 -1.744,0 -2.864,-1.136 -1.104,-1.152 -1.104,-2.944 0,-1.744 1.136,-2.912 1.136,-1.168 2.8,-1.168 1.696,0 2.752,1.104 1.056,1.104 1.056,2.88 0,0.128 -0.016,0.304 -0.016,0.16 -0.032,0.24 h -6.352 q 0.128,1.136 0.88,1.84 0.768,0.688 1.856,0.688 z m -0.128,-5.952 q -1.008,0 -1.728,0.656 -0.72,0.656 -0.88,1.76 h 5.088 q -0.144,-1.12 -0.816,-1.76 -0.672,-0.656 -1.664,-0.656 z"
         id="path13418" />
      <path
         d="m 66.544045,-7.728 h 1.28 v 0.976 q 0.352,-0.512 0.912,-0.768 0.56,-0.256 1.328,-0.256 h 0.704 v 1.232 h -0.72 q -1.104,0 -1.664,0.576 -0.544,0.576 -0.544,1.744 V 0 h -1.296 z"
         id="path13420" />
      <path
         d="m 78.144036,0 h -1.264 v -1.264 q -0.464,0.672 -1.264,1.056 -0.784,0.368 -1.696,0.368 -1.28,0 -2.08,-0.64 -0.8,-0.656 -0.8,-1.712 0,-1.168 0.896,-1.76 0.896,-0.608 2.656,-0.608 h 2.272 q -0.016,-1.088 -0.576,-1.68 -0.544,-0.592 -1.568,-0.592 -0.608,0 -1.2,0.256 -0.592,0.256 -1.168,0.784 l -0.688,-0.864 q 0.672,-0.64 1.472,-0.96 0.8,-0.336 1.712,-0.336 1.552,0 2.416,0.928 0.88,0.912 0.88,2.528 z m -1.28,-3.552 h -2.256 q -1.168,0 -1.728,0.32 -0.56,0.32 -0.56,1.008 0,0.576 0.48,0.96 0.496,0.384 1.264,0.384 1.152,0 1.936,-0.736 0.8,-0.752 0.864,-1.936 z"
         id="path13422" />
      <path
         d="m 80.09604,-2.064 v -4.512 h -1.056 v -1.152 h 1.056 v -2.368 h 1.296 v 2.368 h 1.792 v 1.152 h -1.792 v 4.4 q 0,0.512 0.224,0.768 0.24,0.24 0.72,0.24 h 0.848 V 0 h -1.04 q -1.072,0 -1.568,-0.496 -0.48,-0.496 -0.48,-1.568 z"
         id="path13424" />
      <path
         d="m 92.06405,-3.856 q 0,1.744 -1.168,2.928 -1.168,1.168 -2.88,1.168 -1.712,0 -2.864,-1.168 -1.136,-1.168 -1.136,-2.912 0,-1.744 1.168,-2.912 1.168,-1.184 2.88,-1.184 1.712,0 2.848,1.168 1.152,1.168 1.152,2.912 z m -6.72,0.016 q 0,1.248 0.768,2.096 0.784,0.848 1.936,0.848 1.136,0 1.904,-0.848 0.784,-0.848 0.784,-2.112 0,-1.232 -0.784,-2.08 -0.784,-0.864 -1.92,-0.864 -1.136,0 -1.92,0.848 -0.768,0.848 -0.768,2.112 z"
         id="path13426" />
      <path
         d="m 93.408059,-7.728 h 1.28 v 0.976 q 0.352,-0.512 0.912,-0.768 0.56,-0.256 1.328,-0.256 h 0.704 v 1.232 h -0.72 q -1.104,0 -1.664,0.576 -0.544,0.576 -0.544,1.744 V 0 h -1.296 z"
         id="path13428" />
    </g>
    <path
       d="M123.5 308.334C123.5 305.112 126.112 302.5 129.334 302.5L246.667 302.5C249.888 302.5 252.5 305.112 252.5 308.334L252.5 331.667C252.5 334.888 249.888 337.5 246.667 337.5L129.334 337.5C126.112 337.5 123.5 334.888 123.5 331.667Z"
       stroke="#EDB200"
       stroke-width="1.33333"
       stroke-miterlimit="8"
       fill="#FFE17A"
       fill-rule="evenodd"
       id="path13200" />
    <g
       aria-label="ReadValue"
       transform="translate(148.523 326)"
       id="text13202"
       style="font-size:16px;font-family:'IntelOne Display Regular', 'IntelOne Display Regular_MSFontService', sans-serif">
      <path
         d="M 7.04,-4.72 10.224,0 H 8.592 L 5.568,-4.56 H 2.416 V 0 H 1.04 v -11.2 h 4.928 q 1.888,0 2.944,0.88 1.056,0.864 1.056,2.384 0,1.248 -0.768,2.096 -0.768,0.848 -2.16,1.12 z m 1.536,-3.184 q 0,-0.976 -0.704,-1.52 -0.688,-0.56 -1.936,-0.56 h -3.52 v 4.224 h 3.408 q 1.264,0 2,-0.576 0.752,-0.592 0.752,-1.568 z"
         id="path13431" />
      <path
         d="m 15.023998,-0.864 q 0.768,0 1.408,-0.32 0.656,-0.336 1.2,-1.008 l 0.784,0.72 q -0.656,0.864 -1.536,1.296 -0.88,0.416 -1.968,0.416 -1.744,0 -2.864,-1.136 -1.104,-1.152 -1.104,-2.944 0,-1.744 1.136,-2.912 1.136,-1.168 2.8,-1.168 1.696,0 2.752,1.104 1.056,1.104 1.056,2.88 0,0.128 -0.016,0.304 -0.016,0.16 -0.032,0.24 h -6.352 q 0.128,1.136 0.88,1.84 0.768,0.688 1.856,0.688 z m -0.128,-5.952 q -1.008,0 -1.728,0.656 -0.72,0.656 -0.88,1.76 h 5.088 q -0.144,-1.12 -0.816,-1.76 -0.672,-0.656 -1.664,-0.656 z"
         id="path13433" />
      <path
         d="m 26.640008,0 h -1.264 v -1.264 q -0.464,0.672 -1.264,1.056 -0.784,0.368 -1.696,0.368 -1.28,0 -2.08,-0.64 -0.8,-0.656 -0.8,-1.712 0,-1.168 0.896,-1.76 0.896,-0.608 2.656,-0.608 h 2.272 q -0.016,-1.088 -0.576,-1.68 -0.544,-0.592 -1.568,-0.592 -0.608,0 -1.2,0.256 -0.592,0.256 -1.168,0.784 l -0.688,-0.864 q 0.672,-0.64 1.472,-0.96 0.8,-0.336 1.712,-0.336 1.552,0 2.416,0.928 0.88,0.912 0.88,2.528 z m -1.28,-3.552 h -2.256 q -1.168,0 -1.728,0.32 -0.56,0.32 -0.56,1.008 0,0.576 0.48,0.96 0.496,0.384 1.264,0.384 1.152,0 1.936,-0.736 0.8,-0.752 0.864,-1.936 z"
         id="path13435" />
      <path
         d="m 34.543998,-11.2 h 1.312 V 0 h -1.296 v -1.248 q -0.528,0.672 -1.28,1.04 -0.736,0.368 -1.584,0.368 -1.616,0 -2.72,-1.12 -1.088,-1.136 -1.088,-2.88 0,-1.76 1.12,-2.912 1.136,-1.168 2.784,-1.168 0.8,0 1.504,0.336 0.72,0.32 1.248,0.928 z m -2.704,10.224 q 1.168,0 1.952,-0.832 0.8,-0.848 0.8,-2.08 0,-1.248 -0.768,-2.064 -0.768,-0.816 -1.92,-0.816 -1.184,0 -1.936,0.8 -0.752,0.8 -0.752,2.096 0,1.296 0.736,2.096 0.736,0.8 1.888,0.8 z"
         id="path13437" />
      <path
         d="m 41.855988,0 -4.96,-11.2 h 1.504 l 4.176,9.44 4.128,-9.44 h 1.472 l -4.96,11.2 z"
         id="path13439" />
      <path
         d="m 55.071984,0 h -1.264 v -1.264 q -0.464,0.672 -1.264,1.056 -0.784,0.368 -1.696,0.368 -1.28,0 -2.08,-0.64 -0.8,-0.656 -0.8,-1.712 0,-1.168 0.896,-1.76 0.896,-0.608 2.656,-0.608 h 2.272 q -0.016,-1.088 -0.576,-1.68 -0.544,-0.592 -1.568,-0.592 -0.608,0 -1.2,0.256 -0.592,0.256 -1.168,0.784 l -0.688,-0.864 q 0.672,-0.64 1.472,-0.96 0.8,-0.336 1.712,-0.336 1.552,0 2.416,0.928 0.88,0.912 0.88,2.528 z m -1.28,-3.552 h -2.256 q -1.168,0 -1.728,0.32 -0.56,0.32 -0.56,1.008 0,0.576 0.48,0.96 0.496,0.384 1.264,0.384 1.152,0 1.936,-0.736 0.8,-0.752 0.864,-1.936 z"
         id="path13441" />
      <path
         d="m 56.815975,-11.2 h 1.312 V 0 h -1.312 z"
         id="path13443" />
      <path
         d="m 67.199965,0 h -1.296 v -1.184 q -0.464,0.672 -1.168,1.024 -0.704,0.336 -1.6,0.336 -1.52,0 -2.4,-0.992 -0.864,-0.992 -0.864,-2.704 v -4.208 h 1.312 V -3.6 q 0,1.216 0.592,1.92 0.608,0.704 1.68,0.704 1.088,0 1.76,-0.752 0.672,-0.752 0.672,-1.952 v -4.048 h 1.312 z"
         id="path13445" />
      <path
         d="m 72.607952,-0.864 q 0.768,0 1.408,-0.32 0.656,-0.336 1.2,-1.008 l 0.784,0.72 q -0.656,0.864 -1.536,1.296 -0.88,0.416 -1.968,0.416 -1.744,0 -2.864,-1.136 -1.104,-1.152 -1.104,-2.944 0,-1.744 1.136,-2.912 1.136,-1.168 2.8,-1.168 1.696,0 2.752,1.104 1.056,1.104 1.056,2.88 0,0.128 -0.016,0.304 -0.016,0.16 -0.032,0.24 h -6.352 q 0.128,1.136 0.88,1.84 0.768,0.688 1.856,0.688 z m -0.128,-5.952 q -1.008,0 -1.728,0.656 -0.72,0.656 -0.88,1.76 h 5.088 q -0.144,-1.12 -0.816,-1.76 -0.672,-0.656 -1.664,-0.656 z"
         id="path13447" />
    </g>
    <path
       d="M534.5 242.334C534.5 239.112 537.112 236.5 540.334 236.5L657.667 236.5C660.888 236.5 663.5 239.112 663.5 242.334L663.5 265.667C663.5 268.888 660.888 271.5 657.667 271.5L540.334 271.5C537.112 271.5 534.5 268.888 534.5 265.667Z"
       stroke="#EDB200"
       stroke-width="1.33333"
       stroke-miterlimit="8"
       fill="#FFE17A"
       fill-rule="evenodd"
       id="path13204" />
    <g
       aria-label="ReadValue"
       transform="translate(559.977 260)"
       id="text13206"
       style="font-size:16px;font-family:'IntelOne Display Regular', 'IntelOne Display Regular_MSFontService', sans-serif">
      <path
         d="M 7.04,-4.72 10.224,0 H 8.592 L 5.568,-4.56 H 2.416 V 0 H 1.04 v -11.2 h 4.928 q 1.888,0 2.944,0.88 1.056,0.864 1.056,2.384 0,1.248 -0.768,2.096 -0.768,0.848 -2.16,1.12 z m 1.536,-3.184 q 0,-0.976 -0.704,-1.52 -0.688,-0.56 -1.936,-0.56 h -3.52 v 4.224 h 3.408 q 1.264,0 2,-0.576 0.752,-0.592 0.752,-1.568 z"
         id="path13450" />
      <path
         d="m 15.023998,-0.864 q 0.768,0 1.408,-0.32 0.656,-0.336 1.2,-1.008 l 0.784,0.72 q -0.656,0.864 -1.536,1.296 -0.88,0.416 -1.968,0.416 -1.744,0 -2.864,-1.136 -1.104,-1.152 -1.104,-2.944 0,-1.744 1.136,-2.912 1.136,-1.168 2.8,-1.168 1.696,0 2.752,1.104 1.056,1.104 1.056,2.88 0,0.128 -0.016,0.304 -0.016,0.16 -0.032,0.24 h -6.352 q 0.128,1.136 0.88,1.84 0.768,0.688 1.856,0.688 z m -0.128,-5.952 q -1.008,0 -1.728,0.656 -0.72,0.656 -0.88,1.76 h 5.088 q -0.144,-1.12 -0.816,-1.76 -0.672,-0.656 -1.664,-0.656 z"
         id="path13452" />
      <path
         d="m 26.640008,0 h -1.264 v -1.264 q -0.464,0.672 -1.264,1.056 -0.784,0.368 -1.696,0.368 -1.28,0 -2.08,-0.64 -0.8,-0.656 -0.8,-1.712 0,-1.168 0.896,-1.76 0.896,-0.608 2.656,-0.608 h 2.272 q -0.016,-1.088 -0.576,-1.68 -0.544,-0.592 -1.568,-0.592 -0.608,0 -1.2,0.256 -0.592,0.256 -1.168,0.784 l -0.688,-0.864 q 0.672,-0.64 1.472,-0.96 0.8,-0.336 1.712,-0.336 1.552,0 2.416,0.928 0.88,0.912 0.88,2.528 z m -1.28,-3.552 h -2.256 q -1.168,0 -1.728,0.32 -0.56,0.32 -0.56,1.008 0,0.576 0.48,0.96 0.496,0.384 1.264,0.384 1.152,0 1.936,-0.736 0.8,-0.752 0.864,-1.936 z"
         id="path13454" />
      <path
         d="m 34.543998,-11.2 h 1.312 V 0 h -1.296 v -1.248 q -0.528,0.672 -1.28,1.04 -0.736,0.368 -1.584,0.368 -1.616,0 -2.72,-1.12 -1.088,-1.136 -1.088,-2.88 0,-1.76 1.12,-2.912 1.136,-1.168 2.784,-1.168 0.8,0 1.504,0.336 0.72,0.32 1.248,0.928 z m -2.704,10.224 q 1.168,0 1.952,-0.832 0.8,-0.848 0.8,-2.08 0,-1.248 -0.768,-2.064 -0.768,-0.816 -1.92,-0.816 -1.184,0 -1.936,0.8 -0.752,0.8 -0.752,2.096 0,1.296 0.736,2.096 0.736,0.8 1.888,0.8 z"
         id="path13456" />
      <path
         d="m 41.855988,0 -4.96,-11.2 h 1.504 l 4.176,9.44 4.128,-9.44 h 1.472 l -4.96,11.2 z"
         id="path13458" />
      <path
         d="m 55.071984,0 h -1.264 v -1.264 q -0.464,0.672 -1.264,1.056 -0.784,0.368 -1.696,0.368 -1.28,0 -2.08,-0.64 -0.8,-0.656 -0.8,-1.712 0,-1.168 0.896,-1.76 0.896,-0.608 2.656,-0.608 h 2.272 q -0.016,-1.088 -0.576,-1.68 -0.544,-0.592 -1.568,-0.592 -0.608,0 -1.2,0.256 -0.592,0.256 -1.168,0.784 l -0.688,-0.864 q 0.672,-0.64 1.472,-0.96 0.8,-0.336 1.712,-0.336 1.552,0 2.416,0.928 0.88,0.912 0.88,2.528 z m -1.28,-3.552 h -2.256 q -1.168,0 -1.728,0.32 -0.56,0.32 -0.56,1.008 0,0.576 0.48,0.96 0.496,0.384 1.264,0.384 1.152,0 1.936,-0.736 0.8,-0.752 0.864,-1.936 z"
         id="path13460" />
      <path
         d="m 56.815975,-11.2 h 1.312 V 0 h -1.312 z"
         id="path13462" />
      <path
         d="m 67.199965,0 h -1.296 v -1.184 q -0.464,0.672 -1.168,1.024 -0.704,0.336 -1.6,0.336 -1.52,0 -2.4,-0.992 -0.864,-0.992 -0.864,-2.704 v -4.208 h 1.312 V -3.6 q 0,1.216 0.592,1.92 0.608,0.704 1.68,0.704 1.088,0 1.76,-0.752 0.672,-0.752 0.672,-1.952 v -4.048 h 1.312 z"
         id="path13464" />
      <path
         d="m 72.607952,-0.864 q 0.768,0 1.408,-0.32 0.656,-0.336 1.2,-1.008 l 0.784,0.72 q -0.656,0.864 -1.536,1.296 -0.88,0.416 -1.968,0.416 -1.744,0 -2.864,-1.136 -1.104,-1.152 -1.104,-2.944 0,-1.744 1.136,-2.912 1.136,-1.168 2.8,-1.168 1.696,0 2.752,1.104 1.056,1.104 1.056,2.88 0,0.128 -0.016,0.304 -0.016,0.16 -0.032,0.24 h -6.352 q 0.128,1.136 0.88,1.84 0.768,0.688 1.856,0.688 z m -0.128,-5.952 q -1.008,0 -1.728,0.656 -0.72,0.656 -0.88,1.76 h 5.088 q -0.144,-1.12 -0.816,-1.76 -0.672,-0.656 -1.664,-0.656 z"
         id="path13466" />
    </g>
    <path
       d="M534.5 406.334C534.5 403.112 537.112 400.5 540.334 400.5L657.667 400.5C660.888 400.5 663.5 403.112 663.5 406.334L663.5 429.667C663.5 432.888 660.888 435.5 657.667 435.5L540.334 435.5C537.112 435.5 534.5 432.888 534.5 429.667Z"
       stroke="#EDB200"
       stroke-width="1.33333"
       stroke-miterlimit="8"
       fill="#FFE17A"
       fill-rule="evenodd"
       id="path13208" />
    <g
       aria-label="Assign"
       transform="translate(574.644 424)"
       id="text13210"
       style="font-size:16px;font-family:'IntelOne Display Regular', 'IntelOne Display Regular_MSFontService', sans-serif">
      <path
         d="M 3.12,-3.376 1.648,0 H 0.208 L 5.184,-11.2 H 6.528 L 11.488,0 H 10.032 L 8.544,-3.376 Z m 2.704,-6.176 -2.16,4.96 h 4.352 z"
         id="path13469" />
      <path
         d="m 18.784006,-2.256 q 0,1.088 -0.928,1.776 -0.928,0.688 -2.416,0.688 -0.976,0 -1.84,-0.304 -0.848,-0.32 -1.536,-0.944 l 0.672,-0.992 q 0.736,0.608 1.376,0.88 0.64,0.272 1.36,0.272 0.928,0 1.488,-0.352 0.576,-0.368 0.576,-0.944 0,-0.592 -0.48,-0.848 -0.48,-0.272 -1.584,-0.288 -1.616,-0.064 -2.368,-0.592 -0.736,-0.528 -0.736,-1.648 0,-1.024 0.848,-1.696 0.864,-0.688 2.208,-0.688 0.912,0 1.712,0.288 0.8,0.288 1.456,0.848 l -0.624,0.976 q -0.656,-0.528 -1.264,-0.768 -0.608,-0.24 -1.296,-0.24 -0.784,0 -1.296,0.352 -0.496,0.352 -0.496,0.864 0,0.56 0.448,0.816 0.448,0.256 1.424,0.304 1.744,0.048 2.512,0.576 0.784,0.528 0.784,1.664 z"
         id="path13471" />
      <path
         d="m 26.320016,-2.256 q 0,1.088 -0.928,1.776 -0.928,0.688 -2.416,0.688 -0.976,0 -1.84,-0.304 -0.848,-0.32 -1.536,-0.944 l 0.672,-0.992 q 0.736,0.608 1.376,0.88 0.64,0.272 1.36,0.272 0.928,0 1.488,-0.352 0.576,-0.368 0.576,-0.944 0,-0.592 -0.48,-0.848 -0.48,-0.272 -1.584,-0.288 -1.616,-0.064 -2.368,-0.592 -0.736,-0.528 -0.736,-1.648 0,-1.024 0.848,-1.696 0.864,-0.688 2.208,-0.688 0.912,0 1.712,0.288 0.8,0.288 1.456,0.848 l -0.624,0.976 q -0.656,-0.528 -1.264,-0.768 -0.608,-0.24 -1.296,-0.24 -0.784,0 -1.296,0.352 -0.496,0.352 -0.496,0.864 0,0.56 0.448,0.816 0.448,0.256 1.424,0.304 1.744,0.048 2.512,0.576 0.784,0.528 0.784,1.664 z"
         id="path13473" />
      <path
         d="m 27.712027,-10.32 h 1.44 v 1.424 h -1.44 z m 0.064,10.32 v -7.728 h 1.312 V 0 Z"
         id="path13475" />
      <path
         d="m 37.248017,-0.912 v -0.544 q -0.528,0.64 -1.28,0.992 -0.736,0.352 -1.584,0.352 -1.632,0 -2.72,-1.088 -1.088,-1.088 -1.088,-2.8 0,-1.696 1.104,-2.8 1.12,-1.12 2.752,-1.12 0.832,0 1.568,0.352 0.736,0.352 1.264,0.992 v -1.152 h 1.296 v 6.768 q 0,1.92 -1.024,2.88 -1.024,0.96 -3.088,0.96 h -1.952 V 1.76 h 2.016 q 1.36,0 2.048,-0.672 0.688,-0.672 0.688,-2 z m -2.672,-0.352 q 1.152,0 1.936,-0.784 0.8,-0.8 0.8,-1.952 0,-1.184 -0.8,-1.968 -0.784,-0.8 -1.936,-0.8 -1.2,0 -1.936,0.752 -0.736,0.752 -0.736,2 0,1.232 0.736,2 0.752,0.752 1.936,0.752 z"
         id="path13477" />
      <path
         d="m 40.240029,-7.728 h 1.28 v 1.2 q 0.464,-0.672 1.168,-1.024 0.72,-0.368 1.6,-0.368 1.536,0 2.4,0.992 0.864,0.992 0.864,2.72 V 0 h -1.296 v -4.128 q 0,-1.216 -0.608,-1.92 -0.592,-0.704 -1.664,-0.704 -1.104,0 -1.776,0.752 -0.672,0.752 -0.672,1.952 V 0 h -1.296 z"
         id="path13479" />
    </g>
    <path
       d="M0.666667-5.87716e-06 0.666818 17.1514-0.666515 17.1514-0.666667 5.87716e-06ZM4.00014 15.818 0.000209974 23.8181-3.99986 15.8181Z"
       transform="matrix(-1 0 0 1 187.5 279.5)"
       id="path13212" />
    <path
       d="M0.666667-2.29138e-06 0.666749 23.8787-0.666585 23.8787-0.666667 2.29138e-06ZM4.00008 22.5454 0.000104987 30.5454-3.99992 22.5454Z"
       transform="matrix(-1 0 0 1 187.5 337.5)"
       id="path13214" />
    <path
       d="M188.167 445.5 188.167 460.106 186.833 460.106 186.833 445.5ZM191.5 458.773 187.5 466.773 183.5 458.773Z"
       id="path13216" />
    <path
       d="M600.167 201.5 600.167 229.56 598.833 229.56 598.833 201.5ZM603.5 228.227 599.5 236.227 595.5 228.227Z"
       id="path13218" />
    <path
       d="M600.167 271.5 600.167 295.379 598.833 295.379 598.833 271.5ZM603.5 294.046 599.5 302.046 595.5 294.046Z"
       id="path13220" />
    <path
       d="M600.167 379.5 600.167 394.106 598.833 394.106 598.833 379.5ZM603.5 392.773 599.5 400.773 595.5 392.773Z"
       id="path13222" />
    <path
       d="M147.61 183.842 149.579 184.171 151.537 185.116 153.448 186.566 155.268 188.515 156.997 190.949 158.648 193.743 160.232 196.911 161.689 200.459 164.207 208.326 166.157 217.133 167.415 226.503 167.551 229.497 166.219 229.558 166.084 226.593 166.089 226.651 164.839 217.339 164.849 217.394 162.912 208.644 162.928 208.703 160.428 200.891 160.446 200.941 159.008 197.441 159.029 197.486 157.466 194.361 157.489 194.402 155.864 191.652 155.894 191.699 154.207 189.324 154.263 189.392 152.513 187.517 152.597 187.594 150.785 186.219 150.898 186.288 149.085 185.413 149.265 185.47 147.39 185.158ZM170.82 228.014 167.188 236.188 162.828 228.377Z"
       id="path13224" />
    <path
       d="M242.543 170.541 242.166 176.701 241.154 182.712 239.508 188.346 237.414 193.421 234.924 197.699 232.081 201.059 229.004 203.219 227.351 203.839 225.773 204.037 224.273 204.224 224.424 204.187 222.924 204.749 223.073 204.671 220.136 206.733 220.262 206.618 217.512 209.868 217.575 209.779 215.075 213.967 215.119 213.879 213.056 218.879 213.08 218.812 211.455 224.374 211.475 224.285 210.671 229.706 209.352 229.51 210.162 224.045 211.81 218.404 213.905 213.325 216.458 209.049 219.299 205.691 222.377 203.531 224.03 202.911 225.607 202.714 227.107 202.526 226.956 202.563 228.456 202.001 228.307 202.079 231.245 200.017 231.119 200.132 233.869 196.882 233.802 196.977 236.239 192.79 236.199 192.871 238.261 187.871 238.238 187.938 239.863 182.376 239.845 182.452 240.845 176.514 240.837 176.584 241.212 170.459ZM214.111 228.622 209.44 236.25 206.141 227.937Z"
       id="path13226" />
    <path
       d="M97.1667 142.5 97.1668 160.833 95.8335 160.833 95.8334 142.5ZM100.5 159.5 96.5002 167.5 92.5001 159.5Z"
       id="path13228" />
    <g
       aria-label="use_const_initializer is trueuse_const_initializer is false"
       transform="translate(74.7559 48)"
       id="text13236"
       style="font-size:19px;font-family:'IntelOne Display Regular', 'IntelOne Display Regular_MSFontService', sans-serif">
      <path
         d="M 9.595,0 H 8.056 V -1.406 Q 7.505,-0.608 6.669,-0.19 5.833,0.209 4.769,0.209 2.964,0.209 1.919,-0.969 0.893,-2.147 0.893,-4.18 v -4.997 h 1.558 v 4.902 q 0,1.444 0.703,2.28 0.722,0.836 1.995,0.836 1.292,0 2.09,-0.893 0.798,-0.893 0.798,-2.318 v -4.807 h 1.558 z"
         id="path13482" />
      <path
         d="m 18.7313,-2.679 q 0,1.292 -1.102,2.109 -1.102,0.817 -2.869,0.817 -1.159,0 -2.185,-0.361 -1.007,-0.38 -1.824,-1.121 l 0.798,-1.178 q 0.874,0.722 1.634,1.045 0.76,0.323 1.615,0.323 1.102,0 1.767,-0.418 0.684,-0.437 0.684,-1.121 0,-0.703 -0.57,-1.007 -0.57,-0.323 -1.881,-0.342 -1.919,-0.076 -2.812,-0.703 -0.874,-0.627 -0.874,-1.957 0,-1.216 1.007,-2.014 1.026,-0.817 2.622,-0.817 1.083,0 2.033,0.342 0.95,0.342 1.729,1.007 l -0.741,1.159 q -0.779,-0.627 -1.501,-0.912 -0.722,-0.285 -1.539,-0.285 -0.931,0 -1.539,0.418 -0.589,0.418 -0.589,1.026 0,0.665 0.532,0.969 0.532,0.304 1.691,0.361 2.071,0.057 2.983,0.684 0.931,0.627 0.931,1.976 z"
         id="path13484" />
      <path
         d="m 24.716312,-1.026 q 0.912,0 1.672,-0.38 0.779,-0.399 1.425,-1.197 l 0.931,0.855 q -0.779,1.026 -1.824,1.539 -1.045,0.494 -2.337,0.494 -2.071,0 -3.401,-1.349 -1.311,-1.368 -1.311,-3.496 0,-2.071 1.349,-3.458 1.349,-1.387 3.325,-1.387 2.014,0 3.268,1.311 1.254,1.311 1.254,3.42 0,0.152 -0.019,0.361 -0.019,0.19 -0.038,0.285 h -7.543 q 0.152,1.349 1.045,2.185 0.912,0.817 2.204,0.817 z m -0.152,-7.068 q -1.197,0 -2.052,0.779 -0.855,0.779 -1.045,2.09 h 6.042 q -0.171,-1.33 -0.969,-2.09 -0.798,-0.779 -1.976,-0.779 z"
         id="path13486" />
      <path
         d="M 29.580324,2.451 V 1.064 h 9.652 v 1.387 z"
         id="path13488" />
      <path
         d="m 44.533319,0.285 q -2.109,0 -3.439,-1.33 -1.311,-1.349 -1.311,-3.515 0,-2.052 1.387,-3.458 1.387,-1.406 3.401,-1.406 1.463,0 2.489,0.684 1.045,0.665 1.577,1.938 l -1.311,0.627 q -0.437,-0.95 -1.14,-1.425 -0.684,-0.475 -1.634,-0.475 -1.349,0 -2.28,1.026 -0.912,1.007 -0.912,2.489 0,1.501 0.912,2.508 0.931,0.988 2.318,0.988 0.893,0 1.653,-0.475 0.779,-0.494 1.254,-1.368 l 1.197,0.646 q -0.551,1.178 -1.653,1.862 -1.102,0.684 -2.508,0.684 z"
         id="path13490" />
      <path
         d="m 59.372316,-4.579 q 0,2.071 -1.387,3.477 -1.387,1.387 -3.42,1.387 -2.033,0 -3.401,-1.387 -1.349,-1.387 -1.349,-3.458 0,-2.071 1.387,-3.458 1.387,-1.406 3.42,-1.406 2.033,0 3.382,1.387 1.368,1.387 1.368,3.458 z m -7.98,0.019 q 0,1.482 0.912,2.489 0.931,1.007 2.299,1.007 1.349,0 2.261,-1.007 0.931,-1.007 0.931,-2.508 0,-1.463 -0.931,-2.47 -0.931,-1.026 -2.28,-1.026 -1.349,0 -2.28,1.007 -0.912,1.007 -0.912,2.508 z"
         id="path13492" />
      <path
         d="m 60.968329,-9.177 h 1.52 v 1.425 q 0.551,-0.798 1.387,-1.216 0.855,-0.437 1.9,-0.437 1.824,0 2.85,1.178 1.026,1.178 1.026,3.23 V 0 h -1.539 v -4.902 q 0,-1.444 -0.722,-2.28 -0.703,-0.836 -1.976,-0.836 -1.311,0 -2.109,0.893 -0.798,0.893 -0.798,2.318 V 0 h -1.539 z"
         id="path13494" />
      <path
         d="m 78.942313,-2.679 q 0,1.292 -1.102,2.109 -1.102,0.817 -2.869,0.817 -1.159,0 -2.185,-0.361 -1.007,-0.38 -1.824,-1.121 l 0.798,-1.178 q 0.874,0.722 1.634,1.045 0.76,0.323 1.615,0.323 1.102,0 1.767,-0.418 0.684,-0.437 0.684,-1.121 0,-0.703 -0.57,-1.007 -0.57,-0.323 -1.881,-0.342 -1.919,-0.076 -2.812,-0.703 -0.874,-0.627 -0.874,-1.957 0,-1.216 1.007,-2.014 1.026,-0.817 2.622,-0.817 1.083,0 2.033,0.342 0.95,0.342 1.729,1.007 l -0.741,1.159 q -0.779,-0.627 -1.501,-0.912 -0.722,-0.285 -1.539,-0.285 -0.931,0 -1.539,0.418 -0.589,0.418 -0.589,1.026 0,0.665 0.532,0.969 0.532,0.304 1.691,0.361 2.071,0.057 2.983,0.684 0.931,0.627 0.931,1.976 z"
         id="path13496" />
      <path
         d="m 80.91834,-2.451 v -5.358 h -1.254 v -1.368 h 1.254 v -2.812 h 1.539 v 2.812 h 2.128 v 1.368 h -2.128 v 5.225 q 0,0.608 0.266,0.912 0.285,0.285 0.855,0.285 h 1.007 V 0 h -1.235 q -1.273,0 -1.862,-0.589 -0.57,-0.589 -0.57,-1.862 z"
         id="path13498" />
      <path
         d="M 85.098339,2.451 V 1.064 h 9.652 v 1.387 z"
         id="path13500" />
      <path
         d="m 95.814336,-12.255 h 1.71 v 1.691 h -1.71 z M 95.890336,0 v -9.177 h 1.558 V 0 Z"
         id="path13502" />
      <path
         d="m 99.633322,-9.177 h 1.519998 v 1.425 q 0.551,-0.798 1.387,-1.216 0.855,-0.437 1.9,-0.437 1.824,0 2.85,1.178 1.026,1.178 1.026,3.23 V 0 h -1.539 v -4.902 q 0,-1.444 -0.722,-2.28 -0.703,-0.836 -1.976,-0.836 -1.311,0 -2.109,0.893 -0.798,0.893 -0.798,2.318 V 0 h -1.538998 z"
         id="path13504" />
      <path
         d="m 110.31131,-12.255 h 1.71 v 1.691 h -1.71 z M 110.38731,0 v -9.177 h 1.558 V 0 Z"
         id="path13506" />
      <path
         d="m 114.64329,-2.451 v -5.358 h -1.254 v -1.368 h 1.254 v -2.812 h 1.539 v 2.812 h 2.128 v 1.368 h -2.128 v 5.225 q 0,0.608 0.266,0.912 0.285,0.285 0.855,0.285 h 1.007 V 0 h -1.235 q -1.273,0 -1.862,-0.589 -0.57,-0.589 -0.57,-1.862 z"
         id="path13508" />
      <path
         d="m 119.9633,-12.255 h 1.71 v 1.691 h -1.71 z M 120.0393,0 v -9.177 h 1.558 V 0 Z"
         id="path13510" />
      <path
         d="m 131.66729,0 h -1.501 v -1.501 q -0.551,0.798 -1.501,1.254 -0.931,0.437 -2.014,0.437 -1.52,0 -2.47,-0.76 -0.95,-0.779 -0.95,-2.033 0,-1.387 1.064,-2.09 1.064,-0.722 3.154,-0.722 h 2.698 q -0.019,-1.292 -0.684,-1.995 -0.646,-0.703 -1.862,-0.703 -0.722,0 -1.425,0.304 -0.703,0.304 -1.387,0.931 l -0.817,-1.026 q 0.798,-0.76 1.748,-1.14 0.95,-0.399 2.033,-0.399 1.843,0 2.869,1.102 1.045,1.083 1.045,3.002 z m -1.52,-4.218 h -2.679 q -1.387,0 -2.052,0.38 -0.665,0.38 -0.665,1.197 0,0.684 0.57,1.14 0.589,0.456 1.501,0.456 1.368,0 2.299,-0.874 0.95,-0.893 1.026,-2.299 z"
         id="path13512" />
      <path
         d="m 133.73827,-13.3 h 1.558 V 0 h -1.558 z"
         id="path13514" />
      <path
         d="m 137.57626,-12.255 h 1.71 v 1.691 h -1.71 z M 137.65226,0 v -9.177 h 1.558 V 0 Z"
         id="path13516" />
      <path
         d="m 148.84325,0 h -8.037 v -1.216 l 5.852,-6.669 h -5.624 v -1.292 h 7.562 v 1.216 l -5.795,6.669 h 6.042 z"
         id="path13518" />
      <path
         d="m 154.35327,-1.026 q 0.912,0 1.672,-0.38 0.779,-0.399 1.425,-1.197 l 0.931,0.855 q -0.779,1.026 -1.824,1.539 -1.045,0.494 -2.337,0.494 -2.071,0 -3.401,-1.349 -1.311,-1.368 -1.311,-3.496 0,-2.071 1.349,-3.458 1.349,-1.387 3.325,-1.387 2.014,0 3.268,1.311 1.254,1.311 1.254,3.42 0,0.152 -0.019,0.361 -0.019,0.19 -0.038,0.285 h -7.543 q 0.152,1.349 1.045,2.185 0.912,0.817 2.204,0.817 z m -0.152,-7.068 q -1.197,0 -2.052,0.779 -0.855,0.779 -1.045,2.09 h 6.042 q -0.171,-1.33 -0.969,-2.09 -0.798,-0.779 -1.976,-0.779 z"
         id="path13520" />
      <path
         d="m 160.26228,-9.177 h 1.52 v 1.159 q 0.418,-0.608 1.083,-0.912 0.665,-0.304 1.577,-0.304 h 0.836 v 1.463 h -0.855 q -1.311,0 -1.976,0.684 -0.646,0.684 -0.646,2.071 V 0 h -1.539 z"
         id="path13522" />
      <path
         d="m 170.14227,-12.255 h 1.71 v 1.691 h -1.71 z M 170.21827,0 v -9.177 h 1.558 V 0 Z"
         id="path13524" />
      <path
         d="m 181.35227,-2.679 q 0,1.292 -1.102,2.109 -1.102,0.817 -2.869,0.817 -1.159,0 -2.185,-0.361 -1.007,-0.38 -1.824,-1.121 l 0.798,-1.178 q 0.874,0.722 1.634,1.045 0.76,0.323 1.615,0.323 1.102,0 1.767,-0.418 0.684,-0.437 0.684,-1.121 0,-0.703 -0.57,-1.007 -0.57,-0.323 -1.881,-0.342 -1.919,-0.076 -2.812,-0.703 -0.874,-0.627 -0.874,-1.957 0,-1.216 1.007,-2.014 1.026,-0.817 2.622,-0.817 1.083,0 2.033,0.342 0.95,0.342 1.729,1.007 l -0.741,1.159 q -0.779,-0.627 -1.501,-0.912 -0.722,-0.285 -1.539,-0.285 -0.931,0 -1.539,0.418 -0.589,0.418 -0.589,1.026 0,0.665 0.532,0.969 0.532,0.304 1.691,0.361 2.071,0.057 2.983,0.684 0.931,0.627 0.931,1.976 z"
         id="path13526" />
      <path
         d="m 186.93826,-2.451 v -5.358 h -1.254 v -1.368 h 1.254 v -2.812 h 1.539 v 2.812 h 2.128 v 1.368 h -2.128 v 5.225 q 0,0.608 0.266,0.912 0.285,0.285 0.855,0.285 h 1.007 V 0 h -1.235 q -1.273,0 -1.862,-0.589 -0.57,-0.589 -0.57,-1.862 z"
         id="path13528" />
      <path
         d="m 192.16327,-9.177 h 1.52 v 1.159 q 0.418,-0.608 1.083,-0.912 0.665,-0.304 1.577,-0.304 h 0.836 v 1.463 h -0.855 q -1.311,0 -1.976,0.684 -0.646,0.684 -0.646,2.071 V 0 h -1.539 z"
         id="path13530" />
      <path
         d="m 207.02127,0 h -1.539 v -1.406 q -0.551,0.798 -1.387,1.216 -0.836,0.399 -1.9,0.399 -1.805,0 -2.85,-1.178 -1.026,-1.178 -1.026,-3.211 v -4.997 h 1.558 v 4.902 q 0,1.444 0.703,2.28 0.722,0.836 1.995,0.836 1.292,0 2.09,-0.893 0.798,-0.893 0.798,-2.318 v -4.807 h 1.558 z"
         id="path13532" />
      <path
         d="m 213.44325,-1.026 q 0.912,0 1.672,-0.38 0.779,-0.399 1.425,-1.197 l 0.931,0.855 q -0.779,1.026 -1.824,1.539 -1.045,0.494 -2.337,0.494 -2.071,0 -3.401,-1.349 -1.311,-1.368 -1.311,-3.496 0,-2.071 1.349,-3.458 1.349,-1.387 3.325,-1.387 2.014,0 3.268,1.311 1.254,1.311 1.254,3.42 0,0.152 -0.019,0.361 -0.019,0.19 -0.038,0.285 h -7.543 q 0.152,1.349 1.045,2.185 0.912,0.817 2.204,0.817 z m -0.152,-7.068 q -1.197,0 -2.052,0.779 -0.855,0.779 -1.045,2.09 h 6.042 q -0.171,-1.33 -0.969,-2.09 -0.798,-0.779 -1.976,-0.779 z"
         id="path13534" />
      <path
         d="m 421.04901,0 h -1.539 v -1.406 q -0.551,0.798 -1.387,1.216 -0.836,0.399 -1.9,0.399 -1.805,0 -2.85,-1.178 -1.026,-1.178 -1.026,-3.211 v -4.997 h 1.558 v 4.902 q 0,1.444 0.703,2.28 0.722,0.836 1.995,0.836 1.292,0 2.09,-0.893 0.798,-0.893 0.798,-2.318 v -4.807 h 1.558 z"
         id="path13536" />
      <path
         d="m 430.18599,-2.679 q 0,1.292 -1.102,2.109 -1.102,0.817 -2.869,0.817 -1.159,0 -2.185,-0.361 -1.007,-0.38 -1.824,-1.121 l 0.798,-1.178 q 0.874,0.722 1.634,1.045 0.76,0.323 1.615,0.323 1.102,0 1.767,-0.418 0.684,-0.437 0.684,-1.121 0,-0.703 -0.57,-1.007 -0.57,-0.323 -1.881,-0.342 -1.919,-0.076 -2.812,-0.703 -0.874,-0.627 -0.874,-1.957 0,-1.216 1.007,-2.014 1.026,-0.817 2.622,-0.817 1.083,0 2.033,0.342 0.95,0.342 1.729,1.007 l -0.741,1.159 q -0.779,-0.627 -1.501,-0.912 -0.722,-0.285 -1.539,-0.285 -0.931,0 -1.539,0.418 -0.589,0.418 -0.589,1.026 0,0.665 0.532,0.969 0.532,0.304 1.691,0.361 2.071,0.057 2.983,0.684 0.931,0.627 0.931,1.976 z"
         id="path13538" />
      <path
         d="m 436.17101,-1.026 q 0.912,0 1.672,-0.38 0.779,-0.399 1.425,-1.197 l 0.931,0.855 q -0.779,1.026 -1.824,1.539 -1.045,0.494 -2.337,0.494 -2.071,0 -3.401,-1.349 -1.311,-1.368 -1.311,-3.496 0,-2.071 1.349,-3.458 1.349,-1.387 3.325,-1.387 2.014,0 3.268,1.311 1.254,1.311 1.254,3.42 0,0.152 -0.019,0.361 -0.019,0.19 -0.038,0.285 h -7.543 q 0.152,1.349 1.045,2.185 0.912,0.817 2.204,0.817 z m -0.152,-7.068 q -1.197,0 -2.052,0.779 -0.855,0.779 -1.045,2.09 h 6.042 q -0.171,-1.33 -0.969,-2.09 -0.798,-0.779 -1.976,-0.779 z"
         id="path13540" />
      <path
         d="M 441.03502,2.451 V 1.064 h 9.652 v 1.387 z"
         id="path13542" />
      <path
         d="m 455.98801,0.285 q -2.109,0 -3.439,-1.33 -1.311,-1.349 -1.311,-3.515 0,-2.052 1.387,-3.458 1.387,-1.406 3.401,-1.406 1.463,0 2.489,0.684 1.045,0.665 1.577,1.938 l -1.311,0.627 q -0.437,-0.95 -1.14,-1.425 -0.684,-0.475 -1.634,-0.475 -1.349,0 -2.28,1.026 -0.912,1.007 -0.912,2.489 0,1.501 0.912,2.508 0.931,0.988 2.318,0.988 0.893,0 1.653,-0.475 0.779,-0.494 1.254,-1.368 l 1.197,0.646 q -0.551,1.178 -1.653,1.862 -1.102,0.684 -2.508,0.684 z"
         id="path13544" />
      <path
         d="m 470.82701,-4.579 q 0,2.071 -1.387,3.477 -1.387,1.387 -3.42,1.387 -2.033,0 -3.401,-1.387 -1.349,-1.387 -1.349,-3.458 0,-2.071 1.387,-3.458 1.387,-1.406 3.42,-1.406 2.033,0 3.382,1.387 1.368,1.387 1.368,3.458 z m -7.98,0.019 q 0,1.482 0.912,2.489 0.931,1.007 2.299,1.007 1.349,0 2.261,-1.007 0.931,-1.007 0.931,-2.508 0,-1.463 -0.931,-2.47 -0.931,-1.026 -2.28,-1.026 -1.349,0 -2.28,1.007 -0.912,1.007 -0.912,2.508 z"
         id="path13546" />
      <path
         d="m 472.42302,-9.177 h 1.52 v 1.425 q 0.551,-0.798 1.387,-1.216 0.855,-0.437 1.9,-0.437 1.824,0 2.85,1.178 1.026,1.178 1.026,3.23 V 0 h -1.539 v -4.902 q 0,-1.444 -0.722,-2.28 -0.703,-0.836 -1.976,-0.836 -1.311,0 -2.109,0.893 -0.798,0.893 -0.798,2.318 V 0 h -1.539 z"
         id="path13548" />
      <path
         d="m 490.39701,-2.679 q 0,1.292 -1.102,2.109 -1.102,0.817 -2.869,0.817 -1.159,0 -2.185,-0.361 -1.007,-0.38 -1.824,-1.121 l 0.798,-1.178 q 0.874,0.722 1.634,1.045 0.76,0.323 1.615,0.323 1.102,0 1.767,-0.418 0.684,-0.437 0.684,-1.121 0,-0.703 -0.57,-1.007 -0.57,-0.323 -1.881,-0.342 -1.919,-0.076 -2.812,-0.703 -0.874,-0.627 -0.874,-1.957 0,-1.216 1.007,-2.014 1.026,-0.817 2.622,-0.817 1.083,0 2.033,0.342 0.95,0.342 1.729,1.007 l -0.741,1.159 q -0.779,-0.627 -1.501,-0.912 -0.722,-0.285 -1.539,-0.285 -0.931,0 -1.539,0.418 -0.589,0.418 -0.589,1.026 0,0.665 0.532,0.969 0.532,0.304 1.691,0.361 2.071,0.057 2.983,0.684 0.931,0.627 0.931,1.976 z"
         id="path13550" />
      <path
         d="m 492.37303,-2.451 v -5.358 h -1.254 v -1.368 h 1.254 v -2.812 h 1.539 v 2.812 h 2.128 v 1.368 h -2.128 v 5.225 q 0,0.608 0.266,0.912 0.285,0.285 0.855,0.285 h 1.007 V 0 h -1.235 q -1.273,0 -1.862,-0.589 -0.57,-0.589 -0.57,-1.862 z"
         id="path13552" />
      <path
         d="M 496.55303,2.451 V 1.064 h 9.652 v 1.387 z"
         id="path13554" />
      <path
         d="m 507.26903,-12.255 h 1.71 v 1.691 h -1.71 z M 507.34503,0 v -9.177 h 1.558 V 0 Z"
         id="path13556" />
      <path
         d="m 511.08802,-9.177 h 1.52 v 1.425 q 0.551,-0.798 1.387,-1.216 0.855,-0.437 1.9,-0.437 1.824,0 2.85,1.178 1.026,1.178 1.026,3.23 V 0 h -1.539 v -4.902 q 0,-1.444 -0.722,-2.28 -0.703,-0.836 -1.976,-0.836 -1.311,0 -2.109,0.893 -0.798,0.893 -0.798,2.318 V 0 h -1.539 z"
         id="path13558" />
      <path
         d="m 521.766,-12.255 h 1.71 v 1.691 h -1.71 z M 521.842,0 V -9.177 H 523.4 V 0 Z"
         id="path13560" />
      <path
         d="m 526.09799,-2.451 v -5.358 h -1.254 v -1.368 h 1.254 v -2.812 h 1.539 v 2.812 h 2.128 v 1.368 h -2.128 v 5.225 q 0,0.608 0.266,0.912 0.285,0.285 0.855,0.285 h 1.007 V 0 h -1.235 q -1.273,0 -1.862,-0.589 -0.57,-0.589 -0.57,-1.862 z"
         id="path13562" />
      <path
         d="m 531.41799,-12.255 h 1.71 v 1.691 h -1.71 z M 531.49399,0 v -9.177 h 1.558 V 0 Z"
         id="path13564" />
      <path
         d="m 543.12198,0 h -1.501 v -1.501 q -0.551,0.798 -1.501,1.254 -0.931,0.437 -2.014,0.437 -1.52,0 -2.47,-0.76 -0.95,-0.779 -0.95,-2.033 0,-1.387 1.064,-2.09 1.064,-0.722 3.154,-0.722 h 2.698 q -0.019,-1.292 -0.684,-1.995 -0.646,-0.703 -1.862,-0.703 -0.722,0 -1.425,0.304 -0.703,0.304 -1.387,0.931 l -0.817,-1.026 q 0.798,-0.76 1.748,-1.14 0.95,-0.399 2.033,-0.399 1.843,0 2.869,1.102 1.045,1.083 1.045,3.002 z m -1.52,-4.218 h -2.679 q -1.387,0 -2.052,0.38 -0.665,0.38 -0.665,1.197 0,0.684 0.57,1.14 0.589,0.456 1.501,0.456 1.368,0 2.299,-0.874 0.95,-0.893 1.026,-2.299 z"
         id="path13566" />
      <path
         d="m 545.19297,-13.3 h 1.558 V 0 h -1.558 z"
         id="path13568" />
      <path
         d="m 549.03096,-12.255 h 1.71 v 1.691 h -1.71 z M 549.10696,0 v -9.177 h 1.558 V 0 Z"
         id="path13570" />
      <path
         d="m 560.29794,0 h -8.037 v -1.216 l 5.852,-6.669 h -5.624 v -1.292 h 7.562 v 1.216 l -5.795,6.669 h 6.042 z"
         id="path13572" />
      <path
         d="m 565.80796,-1.026 q 0.912,0 1.672,-0.38 0.779,-0.399 1.425,-1.197 l 0.931,0.855 q -0.779,1.026 -1.824,1.539 -1.045,0.494 -2.337,0.494 -2.071,0 -3.401,-1.349 -1.311,-1.368 -1.311,-3.496 0,-2.071 1.349,-3.458 1.349,-1.387 3.325,-1.387 2.014,0 3.268,1.311 1.254,1.311 1.254,3.42 0,0.152 -0.019,0.361 -0.019,0.19 -0.038,0.285 h -7.543 q 0.152,1.349 1.045,2.185 0.912,0.817 2.204,0.817 z m -0.152,-7.068 q -1.197,0 -2.052,0.779 -0.855,0.779 -1.045,2.09 h 6.042 q -0.171,-1.33 -0.969,-2.09 -0.798,-0.779 -1.976,-0.779 z"
         id="path13574" />
      <path
         d="m 571.71698,-9.177 h 1.52 v 1.159 q 0.418,-0.608 1.083,-0.912 0.665,-0.304 1.577,-0.304 h 0.836 v 1.463 h -0.855 q -1.311,0 -1.976,0.684 -0.646,0.684 -0.646,2.071 V 0 h -1.539 z"
         id="path13576" />
      <path
         d="m 581.59696,-12.255 h 1.71 v 1.691 h -1.71 z M 581.67296,0 v -9.177 h 1.558 V 0 Z"
         id="path13578" />
      <path
         d="m 592.80697,-2.679 q 0,1.292 -1.102,2.109 -1.102,0.817 -2.869,0.817 -1.159,0 -2.185,-0.361 -1.007,-0.38 -1.824,-1.121 l 0.798,-1.178 q 0.874,0.722 1.634,1.045 0.76,0.323 1.615,0.323 1.102,0 1.767,-0.418 0.684,-0.437 0.684,-1.121 0,-0.703 -0.57,-1.007 -0.57,-0.323 -1.881,-0.342 -1.919,-0.076 -2.812,-0.703 -0.874,-0.627 -0.874,-1.957 0,-1.216 1.007,-2.014 1.026,-0.817 2.622,-0.817 1.083,0 2.033,0.342 0.95,0.342 1.729,1.007 l -0.741,1.159 q -0.779,-0.627 -1.501,-0.912 -0.722,-0.285 -1.539,-0.285 -0.931,0 -1.539,0.418 -0.589,0.418 -0.589,1.026 0,0.665 0.532,0.969 0.532,0.304 1.691,0.361 2.071,0.057 2.983,0.684 0.931,0.627 0.931,1.976 z"
         id="path13580" />
      <path
         d="m 598.48796,-7.809 h -1.254 v -1.368 h 1.254 v -1.729 q 0,-1.159 0.608,-1.767 0.627,-0.627 1.786,-0.627 h 1.254 v 1.292 h -1.026 q -0.532,0 -0.798,0.285 -0.266,0.285 -0.266,0.855 v 1.691 h 2.09 v 1.368 h -2.09 V 0 h -1.558 z"
         id="path13582" />
      <path
         d="m 610.85695,0 h -1.501 v -1.501 q -0.551,0.798 -1.501,1.254 -0.931,0.437 -2.014,0.437 -1.52,0 -2.47,-0.76 -0.95,-0.779 -0.95,-2.033 0,-1.387 1.064,-2.09 1.064,-0.722 3.154,-0.722 h 2.698 q -0.019,-1.292 -0.684,-1.995 -0.646,-0.703 -1.862,-0.703 -0.722,0 -1.425,0.304 -0.703,0.304 -1.387,0.931 l -0.817,-1.026 q 0.798,-0.76 1.748,-1.14 0.95,-0.399 2.033,-0.399 1.843,0 2.869,1.102 1.045,1.083 1.045,3.002 z m -1.52,-4.218 h -2.679 q -1.387,0 -2.052,0.38 -0.665,0.38 -0.665,1.197 0,0.684 0.57,1.14 0.589,0.456 1.501,0.456 1.368,0 2.299,-0.874 0.95,-0.893 1.026,-2.299 z"
         id="path13584" />
      <path
         d="m 612.92794,-13.3 h 1.558 V 0 h -1.558 z"
         id="path13586" />
      <path
         d="m 624.06193,-2.679 q 0,1.292 -1.102,2.109 -1.102,0.817 -2.869,0.817 -1.159,0 -2.185,-0.361 -1.007,-0.38 -1.824,-1.121 l 0.798,-1.178 q 0.874,0.722 1.634,1.045 0.76,0.323 1.615,0.323 1.102,0 1.767,-0.418 0.684,-0.437 0.684,-1.121 0,-0.703 -0.57,-1.007 -0.57,-0.323 -1.881,-0.342 -1.919,-0.076 -2.812,-0.703 -0.874,-0.627 -0.874,-1.957 0,-1.216 1.007,-2.014 1.026,-0.817 2.622,-0.817 1.083,0 2.033,0.342 0.95,0.342 1.729,1.007 l -0.741,1.159 q -0.779,-0.627 -1.501,-0.912 -0.722,-0.285 -1.539,-0.285 -0.931,0 -1.539,0.418 -0.589,0.418 -0.589,1.026 0,0.665 0.532,0.969 0.532,0.304 1.691,0.361 2.071,0.057 2.983,0.684 0.931,0.627 0.931,1.976 z"
         id="path13588" />
      <path
         d="m 630.04695,-1.026 q 0.912,0 1.672,-0.38 0.779,-0.399 1.425,-1.197 l 0.931,0.855 q -0.779,1.026 -1.824,1.539 -1.045,0.494 -2.337,0.494 -2.071,0 -3.401,-1.349 -1.311,-1.368 -1.311,-3.496 0,-2.071 1.349,-3.458 1.349,-1.387 3.325,-1.387 2.014,0 3.268,1.311 1.254,1.311 1.254,3.42 0,0.152 -0.019,0.361 -0.019,0.19 -0.038,0.285 h -7.543 q 0.152,1.349 1.045,2.185 0.912,0.817 2.204,0.817 z m -0.152,-7.068 q -1.197,0 -2.052,0.779 -0.855,0.779 -1.045,2.09 h 6.042 q -0.171,-1.33 -0.969,-2.09 -0.798,-0.779 -1.976,-0.779 z"
         id="path13590" />
    </g>
  </g>
</svg>
