<?xml version="1.0" encoding="UTF-8"?>
<svg width="1e3" height="500" overflow="hidden" version="1.1" xmlns="http://www.w3.org/2000/svg"><defs><clipPath id="clipPath551"><rect width="1361" height="794"/></clipPath><clipPath id="clipPath557"><rect width="1361" height="794"/></clipPath><clipPath id="clipPath563"><rect width="1361" height="794"/></clipPath><clipPath id="clipPath569"><rect width="1361" height="794"/></clipPath><clipPath id="clipPath575"><rect width="1361" height="794"/></clipPath><clipPath id="clipPath581"><rect width="1361" height="794"/></clipPath><clipPath id="clipPath587"><rect width="1361" height="794"/></clipPath><clipPath id="clipPath593"><rect width="1361" height="794"/></clipPath><clipPath id="clipPath599"><rect width="1361" height="794"/></clipPath><clipPath id="clipPath605"><rect width="1361" height="794"/></clipPath><clipPath id="clipPath611"><rect width="1361" height="794"/></clipPath><clipPath id="clipPath617"><rect width="1361" height="794"/></clipPath><clipPath id="clipPath623"><rect width="1361" height="794"/></clipPath><clipPath id="clipPath629"><rect width="1361" height="794"/></clipPath><clipPath id="clipPath635"><rect width="1361" height="794"/></clipPath><clipPath id="clipPath641"><rect width="1361" height="794"/></clipPath><clipPath id="clipPath647"><rect width="1361" height="794"/></clipPath><clipPath id="clipPath653"><rect width="1361" height="794"/></clipPath><clipPath id="clipPath659"><rect width="1361" height="794"/></clipPath><clipPath id="clipPath665"><rect width="1361" height="794"/></clipPath></defs><g transform="matrix(.63695 0 0 .63695 69.154 -6.2304)"><path d="m858 280.05h184v48.008c0 13.257-10.79 24.005-24.11 24.005h-135.78c-13.314 0-24.108-10.748-24.108-24.005z" clip-path="url(#clipPath665)" fill="none" fill-rule="evenodd" stroke="#000" stroke-miterlimit="8" stroke-width="2.0005"/><g transform="scale(.99992 1.0001)" stroke-width="1.0001" aria-label="custom &lt;64 x 3 x 7 x 7&gt;"><path d="m914.89 312.38q-2.9972 0-4.8874-1.8902-1.8632-1.9172-1.8632-4.9954 0-2.9162 1.9712-4.9144 1.9712-1.9982 4.8334-1.9982 2.0792 0 3.5373 0.97208 1.4851 0.94508 2.2412 2.7542l-1.8632 0.89107q-0.62105-1.3501-1.6201-2.0252-0.97208-0.67506-2.3222-0.67506-1.9172 0-3.2403 1.4581-1.2961 1.4311-1.2961 3.5373 0 2.1332 1.2961 3.5643 1.3231 1.4041 3.2943 1.4041 1.2691 0 2.3492-0.67506 1.1071-0.70206 1.7822-1.9442l1.7011 0.91808q-0.78306 1.6741-2.3492 2.6462-1.5661 0.97208-3.5643 0.97208z"/><path d="m935.2 311.97h-2.1872v-1.9982q-0.78307 1.1341-1.9712 1.7282-1.1881 0.56705-2.7002 0.56705-2.5652 0-4.0503-1.6742-1.4581-1.6741-1.4581-4.5634v-7.1016h2.2142v6.9666q0 2.0522 0.99909 3.2403 1.0261 1.1881 2.8352 1.1881 1.8362 0 2.9702-1.2691 1.1341-1.2691 1.1341-3.2943v-6.8316h2.2142z"/><path d="m948.53 308.17q0 1.8362-1.5661 2.9972-1.5661 1.1611-4.0774 1.1611-1.6471 0-3.1053-0.51304-1.4311-0.54005-2.5922-1.5931l1.1341-1.6741q1.2421 1.0261 2.3222 1.4851 1.0801 0.45904 2.2952 0.45904 1.5661 0 2.5112-0.59405 0.97208-0.62105 0.97208-1.5931 0-0.99909-0.81007-1.4311-0.81007-0.45904-2.6732-0.48605-2.7272-0.10801-3.9963-0.99908-1.2421-0.89108-1.2421-2.7812 0-1.7282 1.4311-2.8622 1.4581-1.1611 3.7263-1.1611 1.5391 0 2.8892 0.48604 1.3501 0.48604 2.4572 1.4311l-1.0531 1.6471q-1.1071-0.89107-2.1332-1.2961-1.0261-0.40503-2.1872-0.40503-1.3231 0-2.1872 0.59405-0.83707 0.59405-0.83707 1.4581 0 0.94508 0.75606 1.3771 0.75607 0.43204 2.4032 0.51304 2.9432 0.081 4.2394 0.97209 1.3231 0.89107 1.3231 2.8082z"/><path d="m951.34 308.49v-7.6146h-1.7822v-1.9442h1.7822v-3.9963h2.1872v3.9963h3.0243v1.9442h-3.0243v7.4256q0 0.86407 0.37803 1.2961 0.40504 0.40503 1.2151 0.40503h1.4311v1.9712h-1.7552q-1.8092 0-2.6462-0.83707-0.81007-0.83707-0.81007-2.6462z"/><path d="m971.54 305.47q0 2.9432-1.9712 4.9414-1.9712 1.9712-4.8604 1.9712-2.8892 0-4.8334-1.9712-1.9172-1.9712-1.9172-4.9144t1.9712-4.9144q1.9712-1.9982 4.8604-1.9982 2.8892 0 4.8064 1.9712 1.9442 1.9712 1.9442 4.9144zm-11.341 0.027q0 2.1062 1.2961 3.5373 1.3231 1.4311 3.2673 1.4311 1.9172 0 3.2133-1.4311 1.3231-1.4311 1.3231-3.5643 0-2.0792-1.3231-3.5103-1.3231-1.4581-3.2403-1.4581-1.9172 0-3.2403 1.4311-1.2961 1.4311-1.2961 3.5643z"/><path d="m973.81 298.93h2.1602v1.5661q0.72906-0.94508 1.6471-1.4041 0.94508-0.48604 2.1062-0.48604 1.3501 0 2.4032 0.56705t1.6741 1.6471q0.72906-1.0801 1.8362-1.6471 1.1341-0.56705 2.5382-0.56705 2.2952 0 3.6453 1.4851 1.3771 1.4851 1.3771 3.8613v8.0197h-2.2142v-7.8847q0-1.6471-0.83707-2.5652-0.81007-0.94508-2.2952-0.94508-1.4581 0-2.3762 1.0261-0.89107 0.99908-0.89107 2.6192v7.7497h-2.1872v-7.8847q0-1.6471-0.83707-2.5652-0.81007-0.94508-2.2952-0.94508-1.4581 0-2.3762 1.0261-0.89108 0.99908-0.89108 2.6192v7.7497h-2.1872z"/><g stroke-width="1.0002"><path d="m884.33 335.59v1.7281l-8.1607-3.9603v-1.7281l8.1607-3.9603v1.7281l-6.6726 3.0963z"/><path d="m892.93 329.86q2.5922 0 4.2244 1.5361 1.6321 1.5361 1.6321 3.9603 0 2.5442-1.8722 4.2724-1.8482 1.7042-4.6084 1.7042-2.6162 0-4.3444-1.6081-1.7282-1.6321-1.7282-4.1283 0-2.0162 0.86408-3.7683 0.88807-1.7521 3.0242-4.0323l3.3603-3.6243h2.5922v0.048l-4.4884 4.6324q-0.40803 0.43203-0.79207 0.86407-0.38403 0.43203-0.74406 0.86407 0.64806-0.36003 1.3681-0.52804 0.72006-0.19202 1.5121-0.19202zm3.7923 5.5205q0-1.7041-1.1281-2.7602-1.1281-1.0561-2.9762-1.0561-1.8482 0-3.0963 1.1281-1.2241 1.1041-1.2241 2.7842 0 1.7762 1.1521 2.9042 1.1761 1.1281 2.9282 1.1281 1.8962 0 3.1203-1.1761 1.2241-1.1761 1.2241-2.9522z"/><path d="m908.89 337.01h-9.1208v-1.5361l8.3047-11.305h2.8322v11.137h2.8322v1.7042h-2.8322v3.9603h-2.0162zm0.072-11.209-6.9846 9.5048h6.9846z"/><path d="m921.06 340.97h-2.1842l4.5124-5.9765-4.2004-5.6165h2.3042l3.0483 4.2484 3.0962-4.2484h2.1602l-4.2004 5.5925 4.5844 6.0005h-2.2802l-3.4083-4.6804z"/><path d="m941.82 339.53q1.7042 0 2.8322-0.93608 1.1521-0.96008 1.1521-2.3762 0-1.4881-1.1761-2.3522-1.1521-0.86407-3.2163-0.86407h-1.0561v-1.7041h1.0081q1.8962 0 3.0002-0.81607 1.1041-0.84007 1.1041-2.1362 0-1.2001-1.0081-1.9682-1.0081-0.76806-2.6402-0.76806-1.7281 0-2.7602 0.93607-1.0081 0.91208-1.1281 2.5202h-1.9682q0.072-2.2562 1.7041-3.7683 1.6561-1.5121 4.2484-1.5121 2.4722 0 4.0323 1.2721 1.5841 1.2481 1.5841 3.1203 0 1.3921-0.81607 2.4242-0.79206 1.0321-2.3042 1.5601 1.7281 0.48004 2.5922 1.5121 0.86407 1.0321 0.86407 2.6402 0 2.1362-1.7282 3.6003-1.7281 1.4401-4.3684 1.4401-2.8082 0-4.4644-1.5121-1.6321-1.5361-1.6561-4.2004h1.9442q0.096 1.8722 1.1761 2.8802 1.1041 1.0081 3.0482 1.0081z"/><path d="m955.57 340.97h-2.1842l4.5124-5.9765-4.2004-5.6165h2.3042l3.0482 4.2484 3.0963-4.2484h2.1602l-4.2004 5.5925 4.5844 6.0005h-2.2802l-3.4083-4.6804z"/><path d="m981.42 325.8-7.1766 15.169h-2.2322l7.3446-15.001h-9.7688v-1.8002h11.833z"/><path d="m988.77 340.97h-2.1842l4.5124-5.9765-4.2004-5.6165h2.3042l3.0483 4.2484 3.0963-4.2484h2.1602l-4.2004 5.5925 4.5844 6.0005h-2.2802l-3.4083-4.6804z"/><path d="m1014.6 325.8-7.1766 15.169h-2.2322l7.3446-15.001h-9.7688v-1.8002h11.833z"/><path d="m1016.3 329.4v-1.7281l8.1607 3.9603v1.7281l-8.1607 3.9603v-1.7281l6.6726-3.0963z"/></g></g><path d="m302.11 234.04h135.78c13.314 0 24.108 7.016 24.108 15.67v31.338h-184v-31.338c0-8.654 10.794-15.67 24.108-15.67z" clip-path="url(#clipPath659)" fill="#2b66af" fill-rule="evenodd" stroke="#000" stroke-miterlimit="8" stroke-width="2.0005"/><g transform="scale(.99992 1.0001)" fill="#fff" stroke-width="1.0001" aria-label="convolution"><path d="m309.82 267.38q-2.9973 0-4.8874-1.8902-1.8632-1.9172-1.8632-4.9954 0-2.9162 1.9712-4.9144t4.8334-1.9982q2.0792 0 3.5373 0.97209 1.4851 0.94508 2.2412 2.7542l-1.8632 0.89108q-0.62105-1.3501-1.6201-2.0252-0.97209-0.67505-2.3222-0.67505-1.9172 0-3.2403 1.4581-1.2961 1.4311-1.2961 3.5373 0 2.1332 1.2961 3.5643 1.3231 1.4041 3.2943 1.4041 1.2691 0 2.3492-0.67506 1.1071-0.70206 1.7822-1.9442l1.7012 0.91808q-0.78307 1.6741-2.3492 2.6462-1.5661 0.97208-3.5643 0.97208z"/><path d="m330.91 260.47q0 2.9432-1.9712 4.9414-1.9712 1.9712-4.8604 1.9712-2.8892 0-4.8334-1.9712-1.9172-1.9712-1.9172-4.9144t1.9712-4.9144q1.9712-1.9982 4.8604-1.9982 2.8892 0 4.8064 1.9712 1.9442 1.9712 1.9442 4.9144zm-11.341 0.027q0 2.1062 1.2961 3.5373 1.3231 1.4311 3.2673 1.4311 1.9172 0 3.2133-1.4311 1.3231-1.4311 1.3231-3.5643 0-2.0792-1.3231-3.5103-1.3231-1.4581-3.2403-1.4581t-3.2403 1.4311q-1.2961 1.4311-1.2961 3.5643z"/><path d="m333.18 253.94h2.1602v2.0252q0.78307-1.1341 1.9712-1.7282 1.2151-0.62105 2.7002-0.62105 2.5922 0 4.0504 1.6741 1.4581 1.6741 1.4581 4.5904v7.1016h-2.1872v-6.9666q0-2.0522-1.0261-3.2403-0.99909-1.1881-2.8082-1.1881-1.8632 0-2.9973 1.2691t-1.1341 3.2943v6.8316h-2.1872z"/><path d="m352.19 266.98-5.5895-13.042h2.4032l4.2394 10.423 4.2124-10.423h2.2682l-5.5355 13.042z"/><path d="m373.68 260.47q0 2.9432-1.9712 4.9414-1.9712 1.9712-4.8604 1.9712t-4.8334-1.9712q-1.9172-1.9712-1.9172-4.9144t1.9712-4.9144q1.9712-1.9982 4.8604-1.9982 2.8892 0 4.8064 1.9712 1.9442 1.9712 1.9442 4.9144zm-11.341 0.027q0 2.1062 1.2961 3.5373 1.3231 1.4311 3.2673 1.4311 1.9172 0 3.2133-1.4311 1.3231-1.4311 1.3231-3.5643 0-2.0792-1.3231-3.5103-1.3231-1.4581-3.2403-1.4581t-3.2403 1.4311q-1.2961 1.4311-1.2961 3.5643z"/><path d="m376.19 248.08h2.2142v18.902h-2.2142z"/><path d="m393.72 266.98h-2.1872v-1.9982q-0.78307 1.1341-1.9712 1.7282-1.1881 0.56705-2.7002 0.56705-2.5652 0-4.0503-1.6741-1.4581-1.6742-1.4581-4.5634v-7.1016h2.2142v6.9666q0 2.0522 0.99909 3.2403 1.0261 1.1881 2.8352 1.1881 1.8362 0 2.9702-1.2691 1.1341-1.2691 1.1341-3.2943v-6.8316h2.2142z"/><path d="m397.28 263.49v-7.6146h-1.7822v-1.9442h1.7822v-3.9963h2.1872v3.9963h3.0243v1.9442h-3.0243v7.4256q0 0.86408 0.37804 1.2961 0.40503 0.40504 1.2151 0.40504h1.4311v1.9712h-1.7552q-1.8092 0-2.6462-0.83707-0.81007-0.83707-0.81007-2.6462z"/><path d="m404.84 249.56h2.4302v2.4032h-2.4302zm0.10801 17.416v-13.042h2.2142v13.042z"/><path d="m423.26 260.47q0 2.9432-1.9712 4.9414-1.9712 1.9712-4.8604 1.9712-2.8892 0-4.8334-1.9712-1.9172-1.9712-1.9172-4.9144t1.9712-4.9144q1.9712-1.9982 4.8604-1.9982 2.8892 0 4.8064 1.9712 1.9442 1.9712 1.9442 4.9144zm-11.341 0.027q0 2.1062 1.2961 3.5373 1.3231 1.4311 3.2673 1.4311 1.9172 0 3.2133-1.4311 1.3231-1.4311 1.3231-3.5643 0-2.0792-1.3231-3.5103-1.3231-1.4581-3.2403-1.4581t-3.2403 1.4311q-1.2961 1.4311-1.2961 3.5643z"/><path d="m425.52 253.94h2.1602v2.0252q0.78306-1.1341 1.9712-1.7282 1.2151-0.62105 2.7002-0.62105 2.5922 0 4.0504 1.6741 1.4581 1.6741 1.4581 4.5904v7.1016h-2.1872v-6.9666q0-2.0522-1.0261-3.2403-0.99909-1.1881-2.8082-1.1881-1.8632 0-2.9973 1.2691-1.1341 1.2691-1.1341 3.2943v6.8316h-2.1872z"/></g><path d="m882.11 234.04h135.78c13.32 0 24.11 7.016 24.11 15.67v31.338h-184v-31.338c0-8.654 10.794-15.67 24.108-15.67z" clip-path="url(#clipPath653)" fill="#2b66af" fill-rule="evenodd" stroke="#000" stroke-miterlimit="8" stroke-width="2.0005"/><g transform="scale(.99992 1.0001)" fill="#fff" stroke-width="1.0001" aria-label="convolutionModel with original shapes"><path d="m889.89 267.38q-2.9973 0-4.8874-1.8902-1.8632-1.9172-1.8632-4.9954 0-2.9162 1.9712-4.9144t4.8334-1.9982q2.0792 0 3.5373 0.97209 1.4851 0.94508 2.2412 2.7542l-1.8632 0.89108q-0.62105-1.3501-1.6201-2.0252-0.97208-0.67505-2.3222-0.67505-1.9172 0-3.2403 1.4581-1.2961 1.4311-1.2961 3.5373 0 2.1332 1.2961 3.5643 1.3231 1.4041 3.2943 1.4041 1.2691 0 2.3492-0.67506 1.1071-0.70206 1.7822-1.9442l1.7011 0.91808q-0.78306 1.6741-2.3492 2.6462-1.5661 0.97208-3.5643 0.97208z"/><path d="m910.97 260.47q0 2.9432-1.9712 4.9414-1.9712 1.9712-4.8604 1.9712-2.8892 0-4.8334-1.9712-1.9172-1.9712-1.9172-4.9144t1.9712-4.9144q1.9712-1.9982 4.8604-1.9982 2.8892 0 4.8064 1.9712 1.9442 1.9712 1.9442 4.9144zm-11.341 0.027q0 2.1062 1.2961 3.5373 1.3231 1.4311 3.2673 1.4311 1.9172 0 3.2133-1.4311 1.3231-1.4311 1.3231-3.5643 0-2.0792-1.3231-3.5103-1.3231-1.4581-3.2403-1.4581-1.9172 0-3.2403 1.4311-1.2961 1.4311-1.2961 3.5643z"/><path d="m913.24 253.94h2.1602v2.0252q0.78306-1.1341 1.9712-1.7282 1.2151-0.62105 2.7002-0.62105 2.5922 0 4.0504 1.6741t1.4581 4.5904v7.1016h-2.1872v-6.9666q0-2.0522-1.0261-3.2403-0.99909-1.1881-2.8082-1.1881-1.8632 0-2.9972 1.2691-1.1341 1.2691-1.1341 3.2943v6.8316h-2.1872z"/><path d="m932.25 266.98-5.5895-13.042h2.4032l4.2394 10.423 4.2124-10.423h2.2682l-5.5355 13.042z"/><path d="m953.75 260.47q0 2.9432-1.9712 4.9414-1.9712 1.9712-4.8604 1.9712-2.8892 0-4.8334-1.9712-1.9172-1.9712-1.9172-4.9144t1.9712-4.9144q1.9712-1.9982 4.8604-1.9982t4.8064 1.9712q1.9442 1.9712 1.9442 4.9144zm-11.341 0.027q0 2.1062 1.2961 3.5373 1.3231 1.4311 3.2673 1.4311 1.9172 0 3.2133-1.4311 1.3231-1.4311 1.3231-3.5643 0-2.0792-1.3231-3.5103-1.3231-1.4581-3.2403-1.4581-1.9172 0-3.2403 1.4311-1.2961 1.4311-1.2961 3.5643z"/><path d="m956.26 248.08h2.2142v18.902h-2.2142z"/><path d="m973.78 266.98h-2.1872v-1.9982q-0.78306 1.1341-1.9712 1.7282-1.1881 0.56705-2.7002 0.56705-2.5652 0-4.0504-1.6741-1.4581-1.6742-1.4581-4.5634v-7.1016h2.2142v6.9666q0 2.0522 0.99908 3.2403 1.0261 1.1881 2.8352 1.1881 1.8362 0 2.9702-1.2691 1.1341-1.2691 1.1341-3.2943v-6.8316h2.2142z"/><path d="m977.35 263.49v-7.6146h-1.7822v-1.9442h1.7822v-3.9963h2.1872v3.9963h3.0243v1.9442h-3.0243v7.4256q0 0.86408 0.37803 1.2961 0.40504 0.40504 1.2151 0.40504h1.4311v1.9712h-1.7552q-1.8092 0-2.6462-0.83707-0.81007-0.83707-0.81007-2.6462z"/><path d="m984.91 249.56h2.4302v2.4032h-2.4302zm0.108 17.416v-13.042h2.2142v13.042z"/><path d="m1003.3 260.47q0 2.9432-1.9712 4.9414-1.9712 1.9712-4.8604 1.9712t-4.8334-1.9712q-1.9172-1.9712-1.9172-4.9144t1.9712-4.9144q1.9712-1.9982 4.8604-1.9982 2.8892 0 4.8064 1.9712 1.9442 1.9712 1.9442 4.9144zm-11.341 0.027q0 2.1062 1.2961 3.5373 1.3231 1.4311 3.2673 1.4311 1.9172 0 3.2133-1.4311 1.3231-1.4311 1.3231-3.5643 0-2.0792-1.3231-3.5103-1.3231-1.4581-3.2403-1.4581-1.9172 0-3.2403 1.4311-1.2961 1.4311-1.2961 3.5643z"/><path d="m1005.6 253.94h2.1602v2.0252q0.783-1.1341 1.9711-1.7282 1.2151-0.62105 2.7003-0.62105 2.5922 0 4.0503 1.6741t1.4581 4.5904v7.1016h-2.1871v-6.9666q0-2.0522-1.0261-3.2403-0.9991-1.1881-2.8083-1.1881-1.8631 0-2.9972 1.2691t-1.1341 3.2943v6.8316h-2.1872z"/><g fill="#000" stroke-width="1.0002"><path d="m170.35 20.894h4.9024v30.103h-3.6983v-25.372l-9.8478 17.201h-3.0103l-9.8908-17.158v25.329h-3.6983v-30.103h4.9024l10.192 17.589z"/><path d="m201.01 40.633q0 4.6874-3.1393 7.8697-3.1393 3.1393-7.7407 3.1393-4.6014 0-7.6977-3.1393-3.0533-3.1393-3.0533-7.8267 0-4.6874 3.1393-7.8267 3.1393-3.1823 7.7407-3.1823 4.6014 0 7.6547 3.1393 3.0963 3.1393 3.0963 7.8267zm-18.062 0.043q0 3.3543 2.0642 5.6335 2.1072 2.2792 5.2034 2.2792 3.0533 0 5.1174-2.2792 2.1072-2.2792 2.1072-5.6765 0-3.3113-2.1072-5.5905-2.1072-2.3222-5.1604-2.3222t-5.1604 2.2792q-2.0642 2.2792-2.0642 5.6765z"/><path d="m221.57 20.894h3.5263v30.103h-3.4833v-3.3543q-1.4191 1.8062-3.4403 2.7952-1.9782 0.98908-4.2574 0.98908-4.3434 0-7.3106-3.0103-2.9242-3.0533-2.9242-7.7407 0-4.7304 3.0103-7.8267 3.0533-3.1393 7.4826-3.1393 2.1502 0 4.0424 0.90308 1.9352 0.86007 3.3543 2.4942zm-7.2676 27.479q3.1393 0 5.2464-2.2362 2.1502-2.2792 2.1502-5.5905 0-3.3543-2.0642-5.5475-2.0642-2.1932-5.1604-2.1932-3.1823 0-5.2034 2.1502t-2.0212 5.6335 1.9782 5.6335 5.0744 2.1502z"/><path d="m239.63 48.675q2.0642 0 3.7843-0.86007 1.7632-0.90308 3.2253-2.7092l2.1072 1.9352q-1.7632 2.3222-4.1284 3.4833-2.3652 1.1181-5.2894 1.1181-4.6874 0-7.6977-3.0533-2.9673-3.0963-2.9673-7.9127 0-4.6874 3.0533-7.8267 3.0533-3.1393 7.5256-3.1393 4.5584 0 7.3966 2.9673 2.8382 2.9673 2.8382 7.7407 0 0.34403-0.043 0.81707-0.043 0.43004-0.086 0.64506h-17.072q0.34403 3.0533 2.3652 4.9454 2.0642 1.8492 4.9884 1.8492zm-0.34403-15.997q-2.7092 0-4.6444 1.7632-1.9352 1.7632-2.3652 4.7304h13.675q-0.38703-3.0103-2.1932-4.7304-1.8062-1.7632-4.4724-1.7632z"/><path d="m253.39 20.894h3.5263v30.103h-3.5263z"/><path d="m297.56 30.226-5.2464 20.771h-3.3973l-5.8055-15.954-5.7625 15.954h-3.3543l-5.2465-20.771h3.5263l3.6983 15.868 5.6335-15.868h3.0963l5.5905 15.868 3.7413-15.868z"/><path d="m301.25 23.26h3.8703v3.8273h-3.8703zm0.17201 27.737v-20.771h3.5263v20.771z"/><path d="m311.06 45.449v-12.127h-2.8382v-3.0963h2.8382v-6.3645h3.4833v6.3645h4.8164v3.0963h-4.8164v11.826q0 1.3761 0.60205 2.0642 0.64506 0.64506 1.9352 0.64506h2.2792v3.1393h-2.7952q-2.8812 0-4.2144-1.3331-1.2901-1.3331-1.2901-4.2144z"/><path d="m322.88 20.894h3.4833v12.471q1.2471-1.7632 3.0963-2.7092 1.8922-0.94608 4.2144-0.94608 4.1714 0 6.4936 2.6662 2.3652 2.6662 2.3652 7.3106v11.31h-3.4833v-11.095q0-3.3113-1.6341-5.1604-1.6341-1.8922-4.5584-1.8922t-4.7304 2.0212q-1.7632 2.0212-1.7632 5.2465v10.88h-3.4833z"/><path d="m375.48 40.633q0 4.6874-3.1393 7.8697-3.1393 3.1393-7.7407 3.1393-4.6014 0-7.6977-3.1393-3.0533-3.1393-3.0533-7.8267 0-4.6874 3.1393-7.8267 3.1393-3.1823 7.7407-3.1823t7.6547 3.1393q3.0963 3.1393 3.0963 7.8267zm-18.062 0.043q0 3.3543 2.0642 5.6335 2.1072 2.2792 5.2034 2.2792 3.0533 0 5.1174-2.2792 2.1072-2.2792 2.1072-5.6765 0-3.3113-2.1072-5.5905-2.1072-2.3222-5.1604-2.3222t-5.1604 2.2792q-2.0642 2.2792-2.0642 5.6765z"/><path d="m379.09 30.226h3.4403v2.6232q0.94609-1.3761 2.4512-2.0642t3.5693-0.68806h1.8922v3.3113h-1.9352q-2.9673 0-4.4724 1.5481-1.4621 1.5481-1.4621 4.6874v11.353h-3.4833z"/><path d="m393.5 23.26h3.8703v3.8273h-3.8703zm0.17202 27.737v-20.771h3.5263v20.771z"/><path d="m419.13 48.546v-1.4621q-1.4191 1.7201-3.4403 2.6662-1.9782 0.94608-4.2574 0.94608-4.3864 0-7.3106-2.9243-2.9243-2.9243-2.9243-7.5256 0-4.5584 2.9673-7.5256 3.0103-3.0103 7.3966-3.0103 2.2362 0 4.2144 0.94608t3.3973 2.6662v-3.0963h3.4833v18.191q0 5.1604-2.7522 7.7407-2.7522 2.5802-8.2997 2.5802h-5.2464v-3.0103h5.4185q3.6553 0 5.5045-1.8062 1.8492-1.8062 1.8492-5.3755zm-7.1816-0.94608q3.0963 0 5.2034-2.1072 2.1502-2.1502 2.1502-5.2465 0-3.1823-2.1502-5.2895-2.1072-2.1502-5.2034-2.1502-3.2253 0-5.2034 2.0212t-1.9782 5.3755q0 3.3113 1.9782 5.3755 2.0212 2.0212 5.2034 2.0212z"/><path d="m427.38 23.26h3.8703v3.8273h-3.8703zm0.17202 27.737v-20.771h3.5263v20.771z"/><path d="m436.03 30.226h3.4403v3.2253q1.2471-1.8062 3.1393-2.7522 1.9352-0.98908 4.3004-0.98908 4.1284 0 6.4506 2.6662t2.3222 7.3106v11.31h-3.4833v-11.095q0-3.2683-1.6341-5.1604-1.5911-1.8922-4.4724-1.8922-2.9672 0-4.7734 2.0212-1.8062 2.0212-1.8062 5.2465v10.88h-3.4833z"/><path d="m477.83 50.997h-3.3973v-3.3973q-1.2471 1.8062-3.3973 2.8382-2.1072 0.98908-4.5584 0.98908-3.4403 0-5.5905-1.7201-2.1502-1.7632-2.1502-4.6014 0-3.1393 2.4082-4.7304 2.4082-1.6341 7.1386-1.6341h6.1065q-0.043-2.9243-1.5481-4.5154-1.4621-1.5911-4.2144-1.5911-1.6341 0-3.2253 0.68806-1.5911 0.68806-3.1393 2.1072l-1.8492-2.3222q1.8062-1.7201 3.9563-2.5802 2.1502-0.90308 4.6014-0.90308 4.1714 0 6.4936 2.4942 2.3652 2.4512 2.3652 6.7946zm-3.4403-9.5468h-6.0635q-3.1393 0-4.6444 0.86007t-1.5051 2.7092q0 1.5481 1.2901 2.5802 1.3331 1.0321 3.3973 1.0321 3.0963 0 5.2034-1.9782 2.1502-2.0212 2.3222-5.2034z"/><path d="m482.51 20.894h3.5263v30.103h-3.5263z"/><path d="m515.67 44.933q0 2.9243-2.4942 4.7734-2.4942 1.8492-6.4936 1.8492-2.6232 0-4.9454-0.81707-2.2792-0.86007-4.1284-2.5372l1.8062-2.6662q1.9782 1.6341 3.6983 2.3652 1.7202 0.73106 3.6553 0.73106 2.4942 0 3.9993-0.94608 1.5481-0.98908 1.5481-2.5372 0-1.5911-1.2901-2.2792-1.2901-0.73106-4.2574-0.77407-4.3434-0.17202-6.3646-1.5911-1.9782-1.4191-1.9782-4.4294 0-2.7522 2.2792-4.5584 2.3222-1.8492 5.9345-1.8492 2.4512 0 4.6014 0.77407 2.1502 0.77407 3.9133 2.2792l-1.6771 2.6232q-1.7632-1.4191-3.3973-2.0642-1.6341-0.64506-3.4833-0.64506-2.1072 0-3.4833 0.94608-1.3331 0.94608-1.3331 2.3222 0 1.5051 1.2041 2.1932 1.2041 0.68806 3.8273 0.81707 4.6874 0.12901 6.7516 1.5481 2.1072 1.4191 2.1072 4.4724z"/><path d="m519.2 20.894h3.4833v12.471q1.2471-1.7632 3.0963-2.7092 1.8922-0.94608 4.2144-0.94608 4.1714 0 6.4936 2.6662 2.3652 2.6662 2.3652 7.3106v11.31h-3.4833v-11.095q0-3.3113-1.6341-5.1604-1.6341-1.8922-4.5584-1.8922-2.9242 0-4.7304 2.0212-1.7632 2.0212-1.7632 5.2465v10.88h-3.4833z"/><path d="m561 50.997h-3.3973v-3.3973q-1.2471 1.8062-3.3973 2.8382-2.1072 0.98908-4.5584 0.98908-3.4403 0-5.5905-1.7201-2.1502-1.7632-2.1502-4.6014 0-3.1393 2.4082-4.7304 2.4082-1.6341 7.1386-1.6341h6.1065q-0.043-2.9243-1.5481-4.5154-1.4621-1.5911-4.2144-1.5911-1.6341 0-3.2253 0.68806-1.5911 0.68806-3.1393 2.1072l-1.8492-2.3222q1.8062-1.7201 3.9563-2.5802 2.1502-0.90308 4.6014-0.90308 4.1714 0 6.4936 2.4942 2.3652 2.4512 2.3652 6.7946zm-3.4403-9.5468h-6.0635q-3.1393 0-4.6444 0.86007t-1.5051 2.7092q0 1.5481 1.2901 2.5802 1.3331 1.0321 3.3973 1.0321 3.0963 0 5.2034-1.9782 2.1502-2.0212 2.3222-5.2034z"/><path d="m568.78 58.738h-3.4833v-28.511h3.4403v3.3543q1.3761-1.8062 3.3973-2.7952 2.0212-1.0321 4.3004-1.0321 4.3864 0 7.3106 3.0533 2.9242 3.0103 2.9242 7.7407 0 4.7734-3.0533 7.8697-3.0103 3.0533-7.4396 3.0533-2.1072 0-4.0854-0.86007-1.9352-0.90308-3.3113-2.5372zm7.2676-25.888q-3.1393 0-5.2895 2.2792-2.1072 2.2362-2.1072 5.5905 0 3.3113 2.0642 5.5045 2.1072 2.1932 5.2034 2.1932 3.1823 0 5.1604-2.1072 2.0212-2.1502 2.0212-5.6765 0-3.4833-1.9782-5.6335-1.9352-2.1502-5.0744-2.1502z"/><path d="m600.3 48.675q2.0642 0 3.7843-0.86007 1.7632-0.90308 3.2253-2.7092l2.1072 1.9352q-1.7632 2.3222-4.1284 3.4833-2.3652 1.1181-5.2895 1.1181-4.6874 0-7.6977-3.0533-2.9672-3.0963-2.9672-7.9127 0-4.6874 3.0533-7.8267t7.5256-3.1393q4.5584 0 7.3966 2.9673 2.8382 2.9673 2.8382 7.7407 0 0.34403-0.043 0.81707-0.043 0.43004-0.086 0.64506h-17.072q0.34403 3.0533 2.3652 4.9454 2.0642 1.8492 4.9884 1.8492zm-0.34403-15.997q-2.7092 0-4.6444 1.7632-1.9352 1.7632-2.3652 4.7304h13.675q-0.38703-3.0103-2.1932-4.7304-1.8062-1.7632-4.4724-1.7632z"/><path d="m630.4 44.933q0 2.9243-2.4942 4.7734-2.4942 1.8492-6.4936 1.8492-2.6232 0-4.9454-0.81707-2.2792-0.86007-4.1284-2.5372l1.8062-2.6662q1.9782 1.6341 3.6983 2.3652t3.6553 0.73106q2.4942 0 3.9994-0.94608 1.5481-0.98908 1.5481-2.5372 0-1.5911-1.2901-2.2792-1.2901-0.73106-4.2574-0.77407-4.3434-0.17202-6.3645-1.5911-1.9782-1.4191-1.9782-4.4294 0-2.7522 2.2792-4.5584 2.3222-1.8492 5.9345-1.8492 2.4512 0 4.6014 0.77407 2.1502 0.77407 3.9133 2.2792l-1.6772 2.6232q-1.7632-1.4191-3.3973-2.0642-1.6341-0.64506-3.4833-0.64506-2.1072 0-3.4833 0.94608-1.3331 0.94608-1.3331 2.3222 0 1.5051 1.2041 2.1932 1.2041 0.68806 3.8273 0.81707 4.6874 0.12901 6.7516 1.5481 2.1072 1.4191 2.1072 4.4724z"/></g></g><path d="m278 102.85c0-4.3266 3.507-7.8344 7.833-7.8344h168.33c4.327 0 7.834 3.5078 7.834 7.8344v31.339c0 4.327-3.507 7.835-7.834 7.835h-168.33c-4.326 0-7.833-3.508-7.833-7.835z" clip-path="url(#clipPath647)" fill="none" fill-rule="evenodd" stroke="#000" stroke-miterlimit="8" stroke-width="2.0005"/><g transform="scale(.99992 1.0001)" stroke-width="1.0001" aria-label="data_0"><path d="m341.73 110.09h2.2142v18.902h-2.1872v-2.1062q-0.89107 1.1341-2.1602 1.7552-1.2421 0.62105-2.6732 0.62105-2.7272 0-4.5904-1.8902-1.8362-1.9172-1.8362-4.8604 0-2.9703 1.8902-4.9144 1.9172-1.9712 4.6984-1.9712 1.3501 0 2.5382 0.56705 1.2151 0.54004 2.1062 1.5661zm-4.5634 17.254q1.9712 0 3.2943-1.4041 1.3501-1.4311 1.3501-3.5103 0-2.1062-1.2961-3.4833-1.2961-1.3771-3.2403-1.3771-1.9982 0-3.2673 1.3501-1.2691 1.3501-1.2691 3.5373 0 2.1872 1.2421 3.5373 1.2421 1.3501 3.1863 1.3501z"/><path d="m357.98 128.99h-2.1332v-2.1332q-0.78307 1.1341-2.1332 1.7822-1.3231 0.62105-2.8622 0.62105-2.1602 0-3.5103-1.0801-1.3501-1.1071-1.3501-2.8892 0-1.9712 1.5121-2.9702 1.5121-1.0261 4.4824-1.0261h3.8343q-0.027-1.8362-0.97208-2.8352-0.91808-0.99908-2.6462-0.99908-1.0261 0-2.0252 0.43203-0.99908 0.43204-1.9712 1.3231l-1.1611-1.4581q1.1341-1.0801 2.4842-1.6201 1.3501-0.56704 2.8892-0.56704 2.6192 0 4.0774 1.5661 1.4851 1.5391 1.4851 4.2664zm-2.1602-5.9945h-3.8073q-1.9712 0-2.9162 0.54004-0.94508 0.54005-0.94508 1.7012 0 0.97208 0.81007 1.6201 0.83707 0.64805 2.1332 0.64805 1.9442 0 3.2673-1.2421 1.3501-1.2691 1.4581-3.2673z"/><path d="m361.28 125.51v-7.6146h-1.7822v-1.9442h1.7822v-3.9963h2.1872v3.9963h3.0243v1.9442h-3.0243v7.4256q0 0.86407 0.37803 1.2961 0.40504 0.40503 1.2151 0.40503h1.4311v1.9712h-1.7552q-1.8092 0-2.6462-0.83707-0.81007-0.83707-0.81007-2.6462z"/><path d="m380.04 128.99h-2.1332v-2.1332q-0.78307 1.1341-2.1332 1.7822-1.3231 0.62105-2.8622 0.62105-2.1602 0-3.5103-1.0801-1.3501-1.1071-1.3501-2.8892 0-1.9712 1.5121-2.9702 1.5121-1.0261 4.4824-1.0261h3.8343q-0.027-1.8362-0.97208-2.8352-0.91808-0.99908-2.6462-0.99908-1.0261 0-2.0252 0.43203-0.99909 0.43204-1.9712 1.3231l-1.1611-1.4581q1.1341-1.0801 2.4842-1.6201 1.3501-0.56704 2.8892-0.56704 2.6192 0 4.0774 1.5661 1.4851 1.5391 1.4851 4.2664zm-2.1602-5.9945h-3.8073q-1.9712 0-2.9162 0.54004-0.94508 0.54005-0.94508 1.7012 0 0.97208 0.81006 1.6201 0.83708 0.64805 2.1332 0.64805 1.9442 0 3.2673-1.2421 1.3501-1.2691 1.4581-3.2673z"/><path d="m381.26 132.47v-1.9712h13.717v1.9712z"/><path d="m395.92 120v-0.86407q0-4.3474 2.0792-6.9126t5.5625-2.5652q3.4833 0 5.5085 2.5382 2.0522 2.5382 2.0522 6.8856v0.86408q0 4.3474-2.0792 6.9126-2.0522 2.5652-5.5355 2.5652-3.4833 0-5.5355-2.5382-2.0522-2.5382-2.0522-6.8856zm7.5876-8.2897q-2.4842 0-3.8883 1.9442-1.3771 1.9442-1.3771 5.4275v0.86408q0 3.5103 1.4041 5.4815 1.4041 1.9442 3.8883 1.9442t3.8613-1.9442q1.4041-1.9442 1.4041-5.4275v-0.86407q0-3.5103-1.4041-5.4545-1.4041-1.9712-3.8883-1.9712z"/></g><path d="m368.02 143.52v60.29h-14.525l16 26.726 16-26.726h-14.525v-60.29z" clip-path="url(#clipPath641)" fill-rule="evenodd" stroke="#000" stroke-miterlimit="8" stroke-width="1.3338"/><path d="m278 280.05h184v48.008c0 13.257-10.794 24.005-24.108 24.005h-135.78c-13.314 0-24.108-10.748-24.108-24.005z" clip-path="url(#clipPath635)" fill="none" fill-rule="evenodd" stroke="#000" stroke-miterlimit="8" stroke-width="2.0005"/><g transform="scale(.99992 1.0001)" stroke-width="1.0001" aria-label="custom &lt;64 x 3 x 7 x 7&gt;1 x 3 x 224 x 224"><path d="m334.82 312.38q-2.9972 0-4.8874-1.8902-1.8632-1.9172-1.8632-4.9954 0-2.9162 1.9712-4.9144 1.9712-1.9982 4.8334-1.9982 2.0792 0 3.5373 0.97208 1.4851 0.94508 2.2412 2.7542l-1.8632 0.89107q-0.62105-1.3501-1.6201-2.0252-0.97208-0.67506-2.3222-0.67506-1.9172 0-3.2403 1.4581-1.2961 1.4311-1.2961 3.5373 0 2.1332 1.2961 3.5643 1.3231 1.4041 3.2943 1.4041 1.2691 0 2.3492-0.67506 1.1071-0.70206 1.7822-1.9442l1.7012 0.91808q-0.78307 1.6741-2.3492 2.6462-1.5661 0.97208-3.5643 0.97208z"/><path d="m355.13 311.97h-2.1872v-1.9982q-0.78306 1.1341-1.9712 1.7282-1.1881 0.56705-2.7002 0.56705-2.5652 0-4.0504-1.6742-1.4581-1.6741-1.4581-4.5634v-7.1016h2.2142v6.9666q0 2.0522 0.99909 3.2403 1.0261 1.1881 2.8352 1.1881 1.8362 0 2.9702-1.2691 1.1341-1.2691 1.1341-3.2943v-6.8316h2.2142z"/><path d="m368.47 308.17q0 1.8362-1.5661 2.9972t-4.0774 1.1611q-1.6471 0-3.1053-0.51304-1.4311-0.54005-2.5922-1.5931l1.1341-1.6741q1.2421 1.0261 2.3222 1.4851 1.0801 0.45904 2.2952 0.45904 1.5661 0 2.5112-0.59405 0.97208-0.62105 0.97208-1.5931 0-0.99909-0.81007-1.4311-0.81006-0.45904-2.6732-0.48605-2.7272-0.10801-3.9963-0.99908-1.2421-0.89108-1.2421-2.7812 0-1.7282 1.4311-2.8622 1.4581-1.1611 3.7263-1.1611 1.5391 0 2.8892 0.48604 1.3501 0.48604 2.4572 1.4311l-1.0531 1.6471q-1.1071-0.89107-2.1332-1.2961-1.0261-0.40503-2.1872-0.40503-1.3231 0-2.1872 0.59405-0.83707 0.59405-0.83707 1.4581 0 0.94508 0.75606 1.3771 0.75607 0.43204 2.4032 0.51304 2.9432 0.081 4.2394 0.97209 1.3231 0.89107 1.3231 2.8082z"/><path d="m371.28 308.49v-7.6146h-1.7822v-1.9442h1.7822v-3.9963h2.1872v3.9963h3.0243v1.9442h-3.0243v7.4256q0 0.86407 0.37803 1.2961 0.40504 0.40503 1.2151 0.40503h1.4311v1.9712h-1.7552q-1.8092 0-2.6462-0.83707-0.81006-0.83707-0.81006-2.6462z"/><path d="m391.48 305.47q0 2.9432-1.9712 4.9414-1.9712 1.9712-4.8604 1.9712-2.8892 0-4.8334-1.9712-1.9172-1.9712-1.9172-4.9144t1.9712-4.9144q1.9712-1.9982 4.8604-1.9982 2.8892 0 4.8064 1.9712 1.9442 1.9712 1.9442 4.9144zm-11.341 0.027q0 2.1062 1.2961 3.5373 1.3231 1.4311 3.2673 1.4311 1.9172 0 3.2133-1.4311 1.3231-1.4311 1.3231-3.5643 0-2.0792-1.3231-3.5103-1.3231-1.4581-3.2403-1.4581t-3.2403 1.4311q-1.2961 1.4311-1.2961 3.5643z"/><path d="m393.74 298.93h2.1602v1.5661q0.72907-0.94508 1.6471-1.4041 0.94509-0.48604 2.1062-0.48604 1.3501 0 2.4032 0.56705t1.6741 1.6471q0.72906-1.0801 1.8362-1.6471 1.1341-0.56705 2.5382-0.56705 2.2952 0 3.6453 1.4851 1.3771 1.4851 1.3771 3.8613v8.0197h-2.2142v-7.8847q0-1.6471-0.83707-2.5652-0.81007-0.94508-2.2952-0.94508-1.4581 0-2.3762 1.0261-0.89107 0.99908-0.89107 2.6192v7.7497h-2.1872v-7.8847q0-1.6471-0.83707-2.5652-0.81007-0.94508-2.2952-0.94508-1.4581 0-2.3762 1.0261-0.89107 0.99908-0.89107 2.6192v7.7497h-2.1872z"/><g stroke-width="1.0002"><path d="m304.27 335.59v1.7281l-8.1607-3.9603v-1.7281l8.1607-3.9603v1.7281l-6.6726 3.0963z"/><path d="m312.86 329.86q2.5922 0 4.2244 1.5361 1.6321 1.5361 1.6321 3.9603 0 2.5442-1.8722 4.2724-1.8482 1.7042-4.6084 1.7042-2.6162 0-4.3444-1.6081-1.7282-1.6321-1.7282-4.1283 0-2.0162 0.86408-3.7683 0.88807-1.7521 3.0242-4.0323l3.3603-3.6243h2.5922v0.048l-4.4884 4.6324q-0.40803 0.43203-0.79207 0.86407-0.38403 0.43203-0.74406 0.86407 0.64806-0.36003 1.3681-0.52804 0.72006-0.19202 1.5121-0.19202zm3.7923 5.5205q0-1.7041-1.1281-2.7602-1.1281-1.0561-2.9762-1.0561-1.8482 0-3.0963 1.1281-1.2241 1.1041-1.2241 2.7842 0 1.7762 1.1521 2.9042 1.1761 1.1281 2.9282 1.1281 1.8962 0 3.1203-1.1761 1.2241-1.1761 1.2241-2.9522z"/><path d="m328.82 337.01h-9.1208v-1.5361l8.3047-11.305h2.8322v11.137h2.8322v1.7042h-2.8322v3.9603h-2.0162zm0.072-11.209-6.9846 9.5048h6.9846z"/><path d="m340.99 340.97h-2.1842l4.5124-5.9765-4.2004-5.6165h2.3042l3.0483 4.2484 3.0962-4.2484h2.1602l-4.2004 5.5925 4.5844 6.0005h-2.2802l-3.4083-4.6804z"/><path d="m361.75 339.53q1.7042 0 2.8322-0.93608 1.1521-0.96008 1.1521-2.3762 0-1.4881-1.1761-2.3522-1.1521-0.86407-3.2163-0.86407h-1.0561v-1.7041h1.0081q1.8962 0 3.0002-0.81607 1.1041-0.84007 1.1041-2.1362 0-1.2001-1.0081-1.9682-1.0081-0.76806-2.6402-0.76806-1.7281 0-2.7602 0.93607-1.0081 0.91208-1.1281 2.5202h-1.9682q0.072-2.2562 1.7041-3.7683 1.6561-1.5121 4.2484-1.5121 2.4722 0 4.0323 1.2721 1.5841 1.2481 1.5841 3.1203 0 1.3921-0.81607 2.4242-0.79206 1.0321-2.3042 1.5601 1.7281 0.48004 2.5922 1.5121 0.86407 1.0321 0.86407 2.6402 0 2.1362-1.7282 3.6003-1.7281 1.4401-4.3684 1.4401-2.8082 0-4.4644-1.5121-1.6321-1.5361-1.6561-4.2004h1.9442q0.096 1.8722 1.1761 2.8802 1.1041 1.0081 3.0482 1.0081z"/><path d="m375.5 340.97h-2.1842l4.5124-5.9765-4.2004-5.6165h2.3042l3.0482 4.2484 3.0963-4.2484h2.1602l-4.2004 5.5925 4.5844 6.0005h-2.2802l-3.4083-4.6804z"/><path d="m401.36 325.8-7.1766 15.169h-2.2322l7.3446-15.001h-9.7688v-1.8002h11.833z"/><path d="m408.7 340.97h-2.1842l4.5124-5.9765-4.2004-5.6165h2.3042l3.0483 4.2484 3.0963-4.2484h2.1602l-4.2004 5.5925 4.5844 6.0005h-2.2802l-3.4083-4.6804z"/><path d="m434.55 325.8-7.1766 15.169h-2.2322l7.3446-15.001h-9.7688v-1.8002h11.833z"/><path d="m436.25 329.4v-1.7281l8.1607 3.9603v1.7281l-8.1607 3.9603v-1.7281l6.6726-3.0963z"/><path d="m383.27 166.01h-2.5922v-1.8242h4.6084v16.801h-2.0162z"/><path d="m393.86 180.99h-2.1842l4.5124-5.9765-4.2004-5.6165h2.3042l3.0483 4.2484 3.0962-4.2484h2.1602l-4.2004 5.5925 4.5844 6.0005h-2.2802l-3.4083-4.6804z"/><path d="m414.62 179.55q1.7041 0 2.8322-0.93608 1.1521-0.96008 1.1521-2.3762 0-1.4881-1.1761-2.3522-1.1521-0.86407-3.2163-0.86407h-1.0561v-1.7041h1.0081q1.8962 0 3.0002-0.81607 1.1041-0.84007 1.1041-2.1362 0-1.2001-1.0081-1.9682-1.0081-0.76807-2.6402-0.76807-1.7281 0-2.7602 0.93608-1.0081 0.91208-1.1281 2.5202h-1.9682q0.072-2.2562 1.7042-3.7683 1.6561-1.5121 4.2484-1.5121 2.4722 0 4.0323 1.2721 1.5841 1.2481 1.5841 3.1203 0 1.3921-0.81607 2.4242-0.79207 1.0321-2.3042 1.5601 1.7281 0.48004 2.5922 1.5121 0.86408 1.0321 0.86408 2.6402 0 2.1362-1.7282 3.6003-1.7281 1.4401-4.3684 1.4401-2.8082 0-4.4644-1.5121-1.6321-1.5361-1.6561-4.2004h1.9442q0.096 1.8722 1.1761 2.8802 1.1041 1.0081 3.0482 1.0081z"/><path d="m428.37 180.99h-2.1842l4.5124-5.9765-4.2004-5.6165h2.3042l3.0483 4.2484 3.0963-4.2484h2.1602l-4.2004 5.5925 4.5844 6.0005h-2.2802l-3.4083-4.6804z"/><path d="m455.04 180.99h-11.977v-1.6801l5.8085-5.3284q2.0642-1.8722 2.8082-2.9762 0.74407-1.1041 0.74407-2.3522 0-1.3201-0.98409-2.1602-0.96008-0.86407-2.4002-0.86407-1.7761 0-2.8082 1.1041-1.0081 1.0801-1.0801 3.0483h-1.9682q0.048-2.7362 1.6321-4.3444 1.6081-1.6321 4.2724-1.6321 2.3522 0 3.8643 1.3681 1.5361 1.3441 1.5361 3.4323 0 1.6801-0.93608 3.1203-0.91208 1.4161-3.4803 3.6723l-4.2484 3.7923h9.2168z"/><path d="m468.63 180.99h-11.977v-1.6801l5.8085-5.3284q2.0642-1.8722 2.8082-2.9762 0.74406-1.1041 0.74406-2.3522 0-1.3201-0.98408-2.1602-0.96008-0.86407-2.4002-0.86407-1.7762 0-2.8082 1.1041-1.0081 1.0801-1.0801 3.0483h-1.9682q0.048-2.7362 1.6321-4.3444 1.6081-1.6321 4.2724-1.6321 2.3522 0 3.8643 1.3681 1.5361 1.3441 1.5361 3.4323 0 1.6801-0.93608 3.1203-0.91207 1.4161-3.4803 3.6723l-4.2484 3.7923h9.2168z"/><path d="m478.75 177.03h-9.1208v-1.5361l8.3047-11.305h2.8322v11.137h2.8322v1.7041h-2.8322v3.9603h-2.0162zm0.072-11.209-6.9846 9.5048h6.9846z"/><path d="m490.92 180.99h-2.1842l4.5124-5.9765-4.2004-5.6165h2.3042l3.0482 4.2484 3.0963-4.2484h2.1602l-4.2004 5.5925 4.5844 6.0005h-2.2802l-3.4083-4.6804z"/><path d="m517.59 180.99h-11.977v-1.6801l5.8085-5.3284q2.0642-1.8722 2.8082-2.9762 0.74407-1.1041 0.74407-2.3522 0-1.3201-0.98409-2.1602-0.96008-0.86407-2.4002-0.86407-1.7761 0-2.8082 1.1041-1.0081 1.0801-1.0801 3.0483h-1.9682q0.048-2.7362 1.6321-4.3444 1.6081-1.6321 4.2724-1.6321 2.3522 0 3.8643 1.3681 1.5361 1.3441 1.5361 3.4323 0 1.6801-0.93608 3.1203-0.91208 1.4161-3.4803 3.6723l-4.2484 3.7923h9.2168z"/><path d="m531.18 180.99h-11.977v-1.6801l5.8085-5.3284q2.0642-1.8722 2.8082-2.9762t0.74406-2.3522q0-1.3201-0.98408-2.1602-0.96008-0.86407-2.4002-0.86407-1.7762 0-2.8082 1.1041-1.0081 1.0801-1.0801 3.0483h-1.9682q0.048-2.7362 1.6321-4.3444 1.6081-1.6321 4.2724-1.6321 2.3522 0 3.8643 1.3681 1.5361 1.3441 1.5361 3.4323 0 1.6801-0.93608 3.1203-0.91208 1.4161-3.4803 3.6723l-4.2484 3.7923h9.2168z"/><path d="m541.3 177.03h-9.1208v-1.5361l8.3047-11.305h2.8322v11.137h2.8322v1.7041h-2.8322v3.9603h-2.0162zm0.072-11.209-6.9846 9.5048h6.9846z"/></g></g><path d="m281 490.09h183v48.008c0 13.257-10.735 24.004-23.977 24.004h-135.05c-13.242 0-23.977-10.747-23.977-24.004z" clip-path="url(#clipPath629)" fill="none" fill-rule="evenodd" stroke="#000" stroke-miterlimit="8" stroke-width="2.0005"/><g transform="scale(.99992 1.0001)" stroke-width="1.0001" aria-label="custom&lt;1 x 64 x 1 x 1&gt;"><path d="m337.08 521.36q-2.9972 0-4.8874-1.8902-1.8632-1.9172-1.8632-4.9954 0-2.9162 1.9712-4.9144 1.9712-1.9982 4.8334-1.9982 2.0792 0 3.5373 0.97208 1.4851 0.94508 2.2412 2.7542l-1.8632 0.89107q-0.62105-1.3501-1.6201-2.0252-0.97208-0.67506-2.3222-0.67506-1.9172 0-3.2403 1.4581-1.2961 1.4311-1.2961 3.5373 0 2.1332 1.2961 3.5643 1.3231 1.4041 3.2943 1.4041 1.2691 0 2.3492-0.67506 1.1071-0.70206 1.7822-1.9442l1.7012 0.91808q-0.78307 1.6741-2.3492 2.6462-1.5661 0.97208-3.5643 0.97208z"/><path d="m357.38 520.96h-2.1872v-1.9982q-0.78306 1.1341-1.9712 1.7282-1.1881 0.56704-2.7002 0.56704-2.5652 0-4.0504-1.6741-1.4581-1.6741-1.4581-4.5634v-7.1016h2.2142v6.9666q0 2.0522 0.99908 3.2403 1.0261 1.1881 2.8352 1.1881 1.8362 0 2.9703-1.2691 1.1341-1.2691 1.1341-3.2943v-6.8316h2.2142z"/><path d="m370.72 517.15q0 1.8362-1.5661 2.9972t-4.0774 1.1611q-1.6471 0-3.1053-0.51304-1.4311-0.54005-2.5922-1.5931l1.1341-1.6741q1.2421 1.0261 2.3222 1.4851t2.2952 0.45904q1.5661 0 2.5112-0.59405 0.97208-0.62105 0.97208-1.5931 0-0.99909-0.81006-1.4311-0.81007-0.45903-2.6732-0.48604-2.7272-0.10801-3.9963-0.99908-1.2421-0.89108-1.2421-2.7812 0-1.7282 1.4311-2.8622 1.4581-1.1611 3.7263-1.1611 1.5391 0 2.8892 0.48604 1.3501 0.48604 2.4572 1.4311l-1.0531 1.6471q-1.1071-0.89107-2.1332-1.2961-1.0261-0.40503-2.1872-0.40503-1.3231 0-2.1872 0.59405-0.83707 0.59405-0.83707 1.4581 0 0.94508 0.75607 1.3771 0.75606 0.43204 2.4032 0.51304 2.9432 0.081 4.2394 0.97209 1.3231 0.89107 1.3231 2.8082z"/><path d="m373.53 517.47v-7.6146h-1.7822v-1.9442h1.7822v-3.9963h2.1872v3.9963h3.0243v1.9442h-3.0243v7.4256q0 0.86407 0.37803 1.2961 0.40504 0.40503 1.2151 0.40503h1.4311v1.9712h-1.7552q-1.8092 0-2.6462-0.83707-0.81007-0.83707-0.81007-2.6462z"/><path d="m393.73 514.45q0 2.9432-1.9712 4.9414-1.9712 1.9712-4.8604 1.9712-2.8892 0-4.8334-1.9712-1.9172-1.9712-1.9172-4.9144t1.9712-4.9144q1.9712-1.9982 4.8604-1.9982 2.8892 0 4.8064 1.9712 1.9442 1.9712 1.9442 4.9144zm-11.341 0.027q0 2.1062 1.2961 3.5373 1.3231 1.4311 3.2673 1.4311 1.9172 0 3.2133-1.4311 1.3231-1.4311 1.3231-3.5643 0-2.0792-1.3231-3.5103-1.3231-1.4581-3.2403-1.4581t-3.2403 1.4311q-1.2961 1.4311-1.2961 3.5643z"/><path d="m396 507.91h2.1602v1.5661q0.72906-0.94508 1.6471-1.4041 0.94508-0.48604 2.1062-0.48604 1.3501 0 2.4032 0.56705t1.6741 1.6471q0.72906-1.0801 1.8362-1.6471 1.1341-0.56705 2.5382-0.56705 2.2952 0 3.6453 1.4851 1.3771 1.4851 1.3771 3.8613v8.0197h-2.2142v-7.8847q0-1.6471-0.83707-2.5652-0.81007-0.94508-2.2952-0.94508-1.4581 0-2.3762 1.0261-0.89107 0.99908-0.89107 2.6192v7.7497h-2.1872v-7.8847q0-1.6471-0.83707-2.5652-0.81007-0.94508-2.2952-0.94508-1.4581 0-2.3762 1.0261-0.89107 0.99908-0.89107 2.6192v7.7497h-2.1872z"/><g stroke-width="1.0002"><path d="m315.44 544.58v1.7281l-8.1607-3.9603v-1.7281l8.1607-3.9603v1.7281l-6.6726 3.0963z"/><path d="m319.88 534.98h-2.5922v-1.8242h4.6084v16.801h-2.0162z"/><path d="m330.46 549.95h-2.1842l4.5124-5.9765-4.2004-5.6165h2.3042l3.0483 4.2484 3.0963-4.2484h2.1602l-4.2004 5.5925 4.5844 6.0005h-2.2802l-3.4083-4.6804z"/><path d="m351.63 538.84q2.5922 0 4.2244 1.5361 1.6321 1.5361 1.6321 3.9603 0 2.5442-1.8722 4.2724-1.8482 1.7041-4.6084 1.7041-2.6162 0-4.3444-1.6081-1.7281-1.6321-1.7281-4.1283 0-2.0162 0.86407-3.7683 0.88808-1.7521 3.0242-4.0323l3.3603-3.6243h2.5922v0.048l-4.4884 4.6324q-0.40804 0.43204-0.79207 0.86408-0.38403 0.43203-0.74406 0.86407 0.64805-0.36003 1.3681-0.52805 0.72006-0.19201 1.5121-0.19201zm3.7923 5.5205q0-1.7041-1.1281-2.7602t-2.9762-1.0561q-1.8482 0-3.0963 1.1281-1.2241 1.1041-1.2241 2.7842 0 1.7761 1.1521 2.9042 1.1761 1.1281 2.9282 1.1281 1.8962 0 3.1203-1.1761 1.2241-1.1761 1.2241-2.9522z"/><path d="m367.59 545.99h-9.1208v-1.5361l8.3047-11.305h2.8322v11.137h2.8322v1.7041h-2.8322v3.9603h-2.0162zm0.072-11.209-6.9846 9.5048h6.9846z"/><path d="m379.76 549.95h-2.1842l4.5124-5.9765-4.2004-5.6165h2.3042l3.0482 4.2484 3.0963-4.2484h2.1602l-4.2004 5.5925 4.5844 6.0005h-2.2802l-3.4083-4.6804z"/><path d="m396.78 534.98h-2.5922v-1.8242h4.6084v16.801h-2.0162z"/><path d="m407.37 549.95h-2.1842l4.5124-5.9765-4.2004-5.6165h2.3042l3.0483 4.2484 3.0962-4.2484h2.1602l-4.2004 5.5925 4.5844 6.0005h-2.2802l-3.4083-4.6804z"/><path d="m424.38 534.98h-2.5922v-1.8242h4.6084v16.801h-2.0162z"/><path d="m429.33 538.38v-1.7281l8.1607 3.9603v1.7281l-8.1607 3.9603v-1.7281l6.6726-3.0963z"/></g></g><path d="m368.02 353.56v60.29h-14.525l16 26.726 16-26.726h-14.525v-60.29z" clip-path="url(#clipPath623)" fill-rule="evenodd" stroke="#000" stroke-miterlimit="8" stroke-width="1.3338"/><g transform="scale(.99992 1.0001)" stroke-width="1.0001" aria-label="1 x 64 x 112 x 112"><path d="m388.63 374.99h-2.5922v-1.8242h4.6084v16.801h-2.0162z"/><path d="m399.22 389.97h-2.1842l4.5124-5.9765-4.2004-5.6165h2.3042l3.0482 4.2484 3.0963-4.2484h2.1602l-4.2004 5.5925 4.5844 6.0005h-2.2802l-3.4083-4.6804z"/><path d="m420.39 378.85q2.5922 0 4.2244 1.5361t1.6321 3.9603q0 2.5442-1.8722 4.2724-1.8482 1.7041-4.6084 1.7041-2.6162 0-4.3444-1.6081-1.7281-1.6321-1.7281-4.1283 0-2.0162 0.86407-3.7683 0.88808-1.7522 3.0242-4.0323l3.3603-3.6243h2.5922v0.048l-4.4884 4.6324q-0.40804 0.43203-0.79207 0.86407t-0.74406 0.86407q0.64805-0.36003 1.3681-0.52804 0.72006-0.19202 1.5121-0.19202zm3.7923 5.5205q0-1.7041-1.1281-2.7602t-2.9762-1.0561q-1.8482 0-3.0963 1.1281-1.2241 1.1041-1.2241 2.7842 0 1.7762 1.1521 2.9042 1.1761 1.1281 2.9282 1.1281 1.8962 0 3.1203-1.1761t1.2241-2.9522z"/><path d="m436.35 386.01h-9.1208v-1.5361l8.3047-11.305h2.8322v11.137h2.8322v1.7041h-2.8322v3.9603h-2.0162zm0.072-11.209-6.9846 9.5048h6.9846z"/><path d="m448.52 389.97h-2.1842l4.5124-5.9765-4.2004-5.6165h2.3042l3.0482 4.2484 3.0963-4.2484h2.1602l-4.2004 5.5925 4.5844 6.0005h-2.2802l-3.4083-4.6804z"/><path d="m465.54 374.99h-2.5922v-1.8242h4.6084v16.801h-2.0162z"/><path d="m472.52 374.99h-2.5922v-1.8242h4.6084v16.801h-2.0162z"/><path d="m489.15 389.97h-11.977v-1.6801l5.8085-5.3284q2.0642-1.8722 2.8082-2.9762 0.74407-1.1041 0.74407-2.3522 0-1.3201-0.98409-2.1602-0.96008-0.86407-2.4002-0.86407-1.7761 0-2.8082 1.1041-1.0081 1.0801-1.0801 3.0482h-1.9682q0.048-2.7362 1.6321-4.3444 1.6081-1.6321 4.2724-1.6321 2.3522 0 3.8643 1.3681 1.5361 1.3441 1.5361 3.4323 0 1.6801-0.93608 3.1203-0.91208 1.4161-3.4803 3.6723l-4.2484 3.7923h9.2168z"/><path d="m496.69 389.97h-2.1842l4.5124-5.9765-4.2004-5.6165h2.3042l3.0482 4.2484 3.0963-4.2484h2.1602l-4.2004 5.5925 4.5844 6.0005h-2.2802l-3.4083-4.6804z"/><path d="m513.71 374.99h-2.5922v-1.8242h4.6084v16.801h-2.0162z"/><path d="m520.69 374.99h-2.5922v-1.8242h4.6084v16.801h-2.0162z"/><path d="m537.33 389.97h-11.977v-1.6801l5.8085-5.3284q2.0642-1.8722 2.8082-2.9762 0.74407-1.1041 0.74407-2.3522 0-1.3201-0.98409-2.1602-0.96008-0.86407-2.4002-0.86407-1.7761 0-2.8082 1.1041-1.0081 1.0801-1.0801 3.0482h-1.9682q0.048-2.7362 1.6321-4.3444 1.6081-1.6321 4.2724-1.6321 2.3522 0 3.8643 1.3681 1.5361 1.3441 1.5361 3.4323 0 1.6801-0.93608 3.1203-0.91208 1.4161-3.4803 3.6723l-4.2484 3.7923h9.2168z"/></g><path d="m368.02 563.6v60.29h-14.525l16 26.726 16-26.726h-14.525v-60.29z" clip-path="url(#clipPath617)" fill-rule="evenodd" stroke="#000" stroke-miterlimit="8" stroke-width="1.3338"/><path d="m368.02 700.62v60.29h-14.525l16 26.726 16-26.726h-14.525v-60.29z" clip-path="url(#clipPath611)" fill-rule="evenodd" stroke="#000" stroke-miterlimit="8" stroke-width="1.3338"/><g transform="scale(.99992 1.0001)" stroke-width="1.0001" aria-label="1 x 64 x 112 x 1121 x 64 x 112 x 112Model with updated shapes"><path d="m387.59 589.97h-2.5922v-1.8242h4.6084v16.801h-2.0162z"/><path d="m398.17 604.95h-2.1842l4.5124-5.9765-4.2004-5.6165h2.3042l3.0482 4.2484 3.0963-4.2484h2.1602l-4.2004 5.5925 4.5844 6.0005h-2.2802l-3.4083-4.6804z"/><path d="m419.34 593.84q2.5922 0 4.2244 1.5361 1.6321 1.5361 1.6321 3.9603 0 2.5442-1.8722 4.2724-1.8482 1.7041-4.6084 1.7041-2.6162 0-4.3444-1.6081-1.7281-1.6321-1.7281-4.1283 0-2.0162 0.86407-3.7683 0.88807-1.7522 3.0242-4.0323l3.3603-3.6243h2.5922v0.048l-4.4884 4.6324q-0.40803 0.43203-0.79206 0.86407-0.38404 0.43204-0.74407 0.86407 0.64806-0.36003 1.3681-0.52804 0.72006-0.19202 1.5121-0.19202zm3.7923 5.5205q0-1.7041-1.1281-2.7602-1.1281-1.0561-2.9762-1.0561-1.8482 0-3.0963 1.1281-1.2241 1.1041-1.2241 2.7842 0 1.7762 1.1521 2.9042 1.1761 1.1281 2.9282 1.1281 1.8962 0 3.1203-1.1761t1.2241-2.9522z"/><path d="m435.3 600.99h-9.1208v-1.5361l8.3047-11.305h2.8322v11.137h2.8322v1.7041h-2.8322v3.9603h-2.0162zm0.072-11.209-6.9846 9.5048h6.9846z"/><path d="m447.47 604.95h-2.1842l4.5124-5.9765-4.2004-5.6165h2.3042l3.0482 4.2484 3.0963-4.2484h2.1602l-4.2004 5.5925 4.5844 6.0005h-2.2802l-3.4083-4.6804z"/><path d="m464.49 589.97h-2.5922v-1.8242h4.6084v16.801h-2.0162z"/><path d="m471.47 589.97h-2.5922v-1.8242h4.6084v16.801h-2.0162z"/><path d="m488.11 604.95h-11.977v-1.6801l5.8085-5.3284q2.0642-1.8722 2.8082-2.9762 0.74406-1.1041 0.74406-2.3522 0-1.3201-0.98408-2.1602-0.96008-0.86407-2.4002-0.86407-1.7762 0-2.8082 1.1041-1.0081 1.0801-1.0801 3.0482h-1.9682q0.048-2.7362 1.6321-4.3444 1.6081-1.6321 4.2724-1.6321 2.3522 0 3.8643 1.3681 1.5361 1.3441 1.5361 3.4323 0 1.6801-0.93607 3.1203-0.91208 1.4161-3.4803 3.6723l-4.2484 3.7923h9.2168z"/><path d="m495.64 604.95h-2.1842l4.5124-5.9765-4.2004-5.6165h2.3042l3.0483 4.2484 3.0962-4.2484h2.1602l-4.2004 5.5925 4.5844 6.0005h-2.2802l-3.4083-4.6804z"/><path d="m512.66 589.97h-2.5922v-1.8242h4.6084v16.801h-2.0162z"/><path d="m519.65 589.97h-2.5922v-1.8242h4.6084v16.801h-2.0162z"/><path d="m536.28 604.95h-11.977v-1.6801l5.8085-5.3284q2.0642-1.8722 2.8082-2.9762 0.74406-1.1041 0.74406-2.3522 0-1.3201-0.98408-2.1602-0.96008-0.86407-2.4002-0.86407-1.7762 0-2.8082 1.1041-1.0081 1.0801-1.0801 3.0482h-1.9682q0.048-2.7362 1.6321-4.3444 1.6081-1.6321 4.2724-1.6321 2.3522 0 3.8643 1.3681 1.5361 1.3441 1.5361 3.4323 0 1.6801-0.93607 3.1203-0.91208 1.4161-3.4803 3.6723l-4.2484 3.7923h9.2168z"/><g stroke-width="1.0002"><path d="m387.59 726.96h-2.5922v-1.8242h4.6084v16.801h-2.0162z"/><path d="m398.17 741.94h-2.1842l4.5124-5.9765-4.2004-5.6165h2.3042l3.0482 4.2484 3.0963-4.2484h2.1602l-4.2004 5.5925 4.5844 6.0005h-2.2802l-3.4083-4.6804z"/><path d="m419.34 730.82q2.5922 0 4.2244 1.5361 1.6321 1.5361 1.6321 3.9603 0 2.5442-1.8722 4.2724-1.8482 1.7041-4.6084 1.7041-2.6162 0-4.3444-1.6081-1.7281-1.6321-1.7281-4.1283 0-2.0162 0.86407-3.7683 0.88807-1.7522 3.0242-4.0323l3.3603-3.6243h2.5922v0.048l-4.4884 4.6324q-0.40803 0.43203-0.79206 0.86407-0.38404 0.43204-0.74407 0.86407 0.64806-0.36003 1.3681-0.52804 0.72006-0.19202 1.5121-0.19202zm3.7923 5.5205q0-1.7041-1.1281-2.7602-1.1281-1.0561-2.9762-1.0561-1.8482 0-3.0963 1.1281-1.2241 1.1041-1.2241 2.7842 0 1.7762 1.1521 2.9042 1.1761 1.1281 2.9282 1.1281 1.8962 0 3.1203-1.1761t1.2241-2.9522z"/><path d="m435.3 737.98h-9.1208v-1.5361l8.3047-11.305h2.8322v11.137h2.8322v1.7041h-2.8322v3.9603h-2.0162zm0.072-11.209-6.9846 9.5048h6.9846z"/><path d="m447.47 741.94h-2.1842l4.5124-5.9765-4.2004-5.6165h2.3042l3.0482 4.2484 3.0963-4.2484h2.1602l-4.2004 5.5925 4.5844 6.0005h-2.2802l-3.4083-4.6804z"/><path d="m464.49 726.96h-2.5922v-1.8242h4.6084v16.801h-2.0162z"/><path d="m471.47 726.96h-2.5922v-1.8242h4.6084v16.801h-2.0162z"/><path d="m488.11 741.94h-11.977v-1.6801l5.8085-5.3284q2.0642-1.8722 2.8082-2.9762 0.74406-1.1041 0.74406-2.3522 0-1.3201-0.98408-2.1602-0.96008-0.86407-2.4002-0.86407-1.7762 0-2.8082 1.1041-1.0081 1.0801-1.0801 3.0482h-1.9682q0.048-2.7362 1.6321-4.3444 1.6081-1.6321 4.2724-1.6321 2.3522 0 3.8643 1.3681 1.5361 1.3441 1.5361 3.4323 0 1.6801-0.93607 3.1203-0.91208 1.4161-3.4803 3.6723l-4.2484 3.7923h9.2168z"/><path d="m495.64 741.94h-2.1842l4.5124-5.9765-4.2004-5.6165h2.3042l3.0483 4.2484 3.0962-4.2484h2.1602l-4.2004 5.5925 4.5844 6.0005h-2.2802l-3.4083-4.6804z"/><path d="m512.66 726.96h-2.5922v-1.8242h4.6084v16.801h-2.0162z"/><path d="m519.65 726.96h-2.5922v-1.8242h4.6084v16.801h-2.0162z"/><path d="m536.28 741.94h-11.977v-1.6801l5.8085-5.3284q2.0642-1.8722 2.8082-2.9762 0.74406-1.1041 0.74406-2.3522 0-1.3201-0.98408-2.1602-0.96008-0.86407-2.4002-0.86407-1.7762 0-2.8082 1.1041-1.0081 1.0801-1.0801 3.0482h-1.9682q0.048-2.7362 1.6321-4.3444 1.6081-1.6321 4.2724-1.6321 2.3522 0 3.8643 1.3681 1.5361 1.3441 1.5361 3.4323 0 1.6801-0.93607 3.1203-0.91208 1.4161-3.4803 3.6723l-4.2484 3.7923h9.2168z"/><path d="m727.11 20.896h4.9024v30.103h-3.6983v-25.372l-9.8478 17.201h-3.0103l-9.8908-17.158v25.329h-3.6983v-30.103h4.9024l10.192 17.589z"/><path d="m757.77 40.635q0 4.6874-3.1393 7.8697-3.1393 3.1393-7.7407 3.1393t-7.6977-3.1393q-3.0533-3.1393-3.0533-7.8267t3.1393-7.8267q3.1393-3.1823 7.7407-3.1823 4.6014 0 7.6547 3.1393 3.0963 3.1393 3.0963 7.8267zm-18.062 0.043q0 3.3543 2.0642 5.6335 2.1072 2.2792 5.2034 2.2792 3.0533 0 5.1174-2.2792 2.1072-2.2792 2.1072-5.6765 0-3.3113-2.1072-5.5905-2.1072-2.3222-5.1604-2.3222-3.0533 0-5.1604 2.2792-2.0642 2.2792-2.0642 5.6765z"/><path d="m778.33 20.896h3.5263v30.103h-3.4833v-3.3543q-1.4191 1.8062-3.4403 2.7952-1.9782 0.98908-4.2574 0.98908-4.3434 0-7.3106-3.0103-2.9242-3.0533-2.9242-7.7407 0-4.7304 3.0103-7.8267 3.0533-3.1393 7.4826-3.1393 2.1502 0 4.0424 0.90308 1.9352 0.86007 3.3543 2.4942zm-7.2676 27.479q3.1393 0 5.2465-2.2362 2.1502-2.2792 2.1502-5.5905 0-3.3543-2.0642-5.5475-2.0642-2.1932-5.1604-2.1932-3.1823 0-5.2034 2.1502-2.0212 2.1502-2.0212 5.6335 0 3.4833 1.9782 5.6335t5.0744 2.1502z"/><path d="m796.39 48.676q2.0642 0 3.7843-0.86007 1.7632-0.90308 3.2253-2.7092l2.1072 1.9352q-1.7632 2.3222-4.1284 3.4833-2.3652 1.1181-5.2895 1.1181-4.6874 0-7.6977-3.0533-2.9673-3.0963-2.9673-7.9127 0-4.6874 3.0533-7.8267 3.0533-3.1393 7.5256-3.1393 4.5584 0 7.3966 2.9673 2.8382 2.9673 2.8382 7.7407 0 0.34403-0.043 0.81707-0.043 0.43004-0.086 0.64506h-17.072q0.34403 3.0533 2.3652 4.9454 2.0642 1.8492 4.9884 1.8492zm-0.34403-15.997q-2.7092 0-4.6444 1.7632-1.9352 1.7632-2.3652 4.7304h13.675q-0.38703-3.0103-2.1932-4.7304-1.8062-1.7632-4.4724-1.7632z"/><path d="m810.15 20.896h3.5263v30.103h-3.5263z"/><path d="m854.31 30.228-5.2464 20.771h-3.3973l-5.8055-15.954-5.7625 15.954h-3.3543l-5.2464-20.771h3.5263l3.6983 15.868 5.6335-15.868h3.0963l5.5905 15.868 3.7413-15.868z"/><path d="m858.01 23.261h3.8703v3.8273h-3.8703zm0.17201 27.737v-20.771h3.5263v20.771z"/><path d="m867.82 45.451v-12.127h-2.8382v-3.0963h2.8382v-6.3645h3.4833v6.3645h4.8164v3.0963h-4.8164v11.826q0 1.3761 0.60206 2.0642 0.64505 0.64506 1.9352 0.64506h2.2792v3.1393h-2.7952q-2.8812 0-4.2144-1.3331-1.2901-1.3331-1.2901-4.2144z"/><path d="m879.64 20.896h3.4833v12.471q1.2471-1.7632 3.0963-2.7092 1.8922-0.94608 4.2144-0.94608 4.1714 0 6.4936 2.6662 2.3652 2.6662 2.3652 7.3106v11.31h-3.4833v-11.095q0-3.3113-1.6341-5.1604-1.6341-1.8922-4.5584-1.8922-2.9242 0-4.7304 2.0212-1.7632 2.0212-1.7632 5.2465v10.88h-3.4833z"/><path d="m930.99 50.998h-3.4833v-3.1823q-1.2471 1.8062-3.1393 2.7522-1.8922 0.90308-4.3004 0.90308-4.0854 0-6.4506-2.6662-2.3222-2.6662-2.3222-7.2676v-11.31h3.5263v11.095q0 3.2683 1.5911 5.1604 1.6341 1.8922 4.5154 1.8922 2.9243 0 4.7304-2.0212 1.8062-2.0212 1.8062-5.2465v-10.88h3.5263z"/><path d="m938.99 58.739h-3.4833v-28.511h3.4403v3.3543q1.3761-1.8062 3.3973-2.7952 2.0212-1.0321 4.3004-1.0321 4.3864 0 7.3106 3.0533 2.9242 3.0103 2.9242 7.7407 0 4.7734-3.0533 7.8697-3.0103 3.0533-7.4396 3.0533-2.1072 0-4.0854-0.86007-1.9352-0.90308-3.3113-2.5372zm7.2676-25.888q-3.1393 0-5.2894 2.2792-2.1072 2.2362-2.1072 5.5905 0 3.3113 2.0642 5.5045 2.1072 2.1932 5.2034 2.1932 3.1823 0 5.1604-2.1072 2.0212-2.1502 2.0212-5.6765 0-3.4833-1.9782-5.6335-1.9352-2.1502-5.0744-2.1502z"/><path d="m977.43 20.896h3.5263v30.103h-3.4833v-3.3543q-1.4191 1.8062-3.4403 2.7952-1.9782 0.98908-4.2574 0.98908-4.3434 0-7.3106-3.0103-2.9242-3.0533-2.9242-7.7407 0-4.7304 3.0103-7.8267 3.0533-3.1393 7.4826-3.1393 2.1502 0 4.0424 0.90308 1.9352 0.86007 3.3543 2.4942zm-7.2676 27.479q3.1393 0 5.2464-2.2362 2.1502-2.2792 2.1502-5.5905 0-3.3543-2.0642-5.5475-2.0642-2.1932-5.1604-2.1932-3.1823 0-5.2034 2.1502-2.0212 2.1502-2.0212 5.6335 0 3.4833 1.9782 5.6335t5.0744 2.1502z"/><path d="m1003.3 50.998h-3.3973v-3.3973q-1.2471 1.8062-3.3973 2.8382-2.1072 0.98908-4.5584 0.98908-3.4403 0-5.5905-1.7201-2.1502-1.7632-2.1502-4.6014 0-3.1393 2.4082-4.7304 2.4082-1.6341 7.1386-1.6341h6.1065q-0.043-2.9243-1.5481-4.5154-1.4621-1.5911-4.2144-1.5911-1.6341 0-3.2253 0.68806-1.5911 0.68806-3.1393 2.1072l-1.8492-2.3222q1.8062-1.7201 3.9563-2.5802 2.1502-0.90308 4.6014-0.90308 4.1714 0 6.4936 2.4942 2.3652 2.4512 2.3652 6.7946zm-3.4403-9.5468h-6.0635q-3.1393 0-4.6444 0.86007t-1.5051 2.7092q0 1.5481 1.2901 2.5802 1.3331 1.0321 3.3973 1.0321 3.0963 0 5.2034-1.9782 2.1502-2.0212 2.3222-5.2034z"/><path d="m1008.6 45.451v-12.127h-2.8382v-3.0963h2.8382v-6.3645h3.4833v6.3645h4.8165v3.0963h-4.8165v11.826q0 1.3761 0.6021 2.0642 0.645 0.64506 1.9352 0.64506h2.2792v3.1393h-2.7953q-2.8812 0-4.2144-1.3331-1.2901-1.3331-1.2901-4.2144z"/><path d="m1030.1 48.676q2.0642 0 3.7843-0.86007 1.7632-0.90308 3.2253-2.7092l2.1072 1.9352q-1.7632 2.3222-4.1284 3.4833-2.3652 1.1181-5.2894 1.1181-4.6874 0-7.6977-3.0533-2.9672-3.0963-2.9672-7.9127 0-4.6874 3.0532-7.8267 3.0533-3.1393 7.5257-3.1393 4.5584 0 7.3966 2.9673 2.8382 2.9673 2.8382 7.7407 0 0.34403-0.043 0.81707-0.043 0.43004-0.086 0.64506h-17.072q0.344 3.0533 2.3652 4.9454 2.0641 1.8492 4.9884 1.8492zm-0.344-15.997q-2.7093 0-4.6444 1.7632-1.9352 1.7632-2.3652 4.7304h13.675q-0.387-3.0103-2.1931-4.7304-1.8062-1.7632-4.4724-1.7632z"/><path d="m1060.4 20.896h3.5263v30.103h-3.4833v-3.3543q-1.4191 1.8062-3.4403 2.7952-1.9781 0.98908-4.2573 0.98908-4.3434 0-7.3107-3.0103-2.9242-3.0533-2.9242-7.7407 0-4.7304 3.0103-7.8267 3.0532-3.1393 7.4826-3.1393 2.1502 0 4.0423 0.90308 1.9352 0.86007 3.3543 2.4942zm-7.2676 27.479q3.1393 0 5.2465-2.2362 2.1501-2.2792 2.1501-5.5905 0-3.3543-2.0641-5.5475-2.0642-2.1932-5.1605-2.1932-3.1823 0-5.2034 2.1502-2.0212 2.1502-2.0212 5.6335 0 3.4833 1.9782 5.6335 1.9781 2.1502 5.0744 2.1502z"/><path d="m1093.1 44.935q0 2.9243-2.4942 4.7734t-6.4936 1.8492q-2.6232 0-4.9454-0.81707-2.2792-0.86007-4.1283-2.5372l1.8061-2.6662q1.9782 1.6341 3.6983 2.3652 1.7202 0.73106 3.6553 0.73106 2.4943 0 3.9994-0.94608 1.5481-0.98908 1.5481-2.5372 0-1.5911-1.2901-2.2792-1.2901-0.73106-4.2574-0.77407-4.3433-0.17202-6.3645-1.5911-1.9782-1.4191-1.9782-4.4294 0-2.7522 2.2792-4.5584 2.3222-1.8492 5.9345-1.8492 2.4512 0 4.6014 0.77407 2.1502 0.77407 3.9134 2.2792l-1.6772 2.6232q-1.7631-1.4191-3.3973-2.0642-1.6341-0.64506-3.4833-0.64506-2.1072 0-3.4833 0.94608-1.3331 0.94608-1.3331 2.3222 0 1.5051 1.2041 2.1932t3.8273 0.81707q4.6875 0.12901 6.7516 1.5481 2.1072 1.4191 2.1072 4.4724z"/><path d="m1096.6 20.896h3.4833v12.471q1.2471-1.7632 3.0963-2.7092 1.8922-0.94608 4.2144-0.94608 4.1713 0 6.4935 2.6662 2.3652 2.6662 2.3652 7.3106v11.31h-3.4833v-11.095q0-3.3113-1.6341-5.1604-1.6342-1.8922-4.5584-1.8922-2.9243 0-4.7304 2.0212-1.7632 2.0212-1.7632 5.2465v10.88h-3.4833z"/><path d="m1138.4 50.998h-3.3973v-3.3973q-1.2471 1.8062-3.3973 2.8382-2.1072 0.98908-4.5584 0.98908-3.4403 0-5.5905-1.7201-2.1501-1.7632-2.1501-4.6014 0-3.1393 2.4082-4.7304 2.4082-1.6341 7.1386-1.6341h6.1065q-0.043-2.9243-1.5481-4.5154-1.4622-1.5911-4.2144-1.5911-1.6341 0-3.2253 0.68806-1.5911 0.68806-3.1392 2.1072l-1.8492-2.3222q1.8062-1.7201 3.9563-2.5802 2.1502-0.90308 4.6014-0.90308 4.1714 0 6.4936 2.4942 2.3652 2.4512 2.3652 6.7946zm-3.4403-9.5468h-6.0635q-3.1393 0-4.6444 0.86007t-1.5051 2.7092q0 1.5481 1.2901 2.5802 1.3331 1.0321 3.3973 1.0321 3.0962 0 5.2034-1.9782 2.1502-2.0212 2.3222-5.2034z"/><path d="m1146.2 58.739h-3.4833v-28.511h3.4403v3.3543q1.3762-1.8062 3.3973-2.7952 2.0212-1.0321 4.3004-1.0321 4.3864 0 7.3106 3.0533 2.9243 3.0103 2.9243 7.7407 0 4.7734-3.0533 7.8697-3.0102 3.0533-7.4396 3.0533-2.1072 0-4.0854-0.86007-1.9351-0.90308-3.3113-2.5372zm7.2677-25.888q-3.1393 0-5.2895 2.2792-2.1072 2.2362-2.1072 5.5905 0 3.3113 2.0642 5.5045 2.1072 2.1932 5.2035 2.1932 3.1822 0 5.1604-2.1072 2.0212-2.1502 2.0212-5.6765 0-3.4833-1.9782-5.6335-1.9352-2.1502-5.0744-2.1502z"/><path d="m1177.7 48.676q2.0642 0 3.7843-0.86007 1.7632-0.90308 3.2253-2.7092l2.1072 1.9352q-1.7632 2.3222-4.1284 3.4833-2.3652 1.1181-5.2894 1.1181-4.6874 0-7.6977-3.0533-2.9672-3.0963-2.9672-7.9127 0-4.6874 3.0532-7.8267 3.0533-3.1393 7.5257-3.1393 4.5584 0 7.3966 2.9673 2.8383 2.9673 2.8383 7.7407 0 0.34403-0.043 0.81707-0.043 0.43004-0.086 0.64506h-17.072q0.344 3.0533 2.3652 4.9454 2.0642 1.8492 4.9884 1.8492zm-0.344-15.997q-2.7092 0-4.6444 1.7632-1.9352 1.7632-2.3652 4.7304h13.675q-0.3871-3.0103-2.1932-4.7304-1.8062-1.7632-4.4724-1.7632z"/><path d="m1207.8 44.935q0 2.9243-2.4942 4.7734t-6.4935 1.8492q-2.6233 0-4.9455-0.81707-2.2792-0.86007-4.1283-2.5372l1.8061-2.6662q1.9782 1.6341 3.6984 2.3652 1.7201 0.73106 3.6553 0.73106 2.4942 0 3.9993-0.94608 1.5481-0.98908 1.5481-2.5372 0-1.5911-1.2901-2.2792-1.2901-0.73106-4.2573-0.77407-4.3434-0.17202-6.3646-1.5911-1.9781-1.4191-1.9781-4.4294 0-2.7522 2.2791-4.5584 2.3222-1.8492 5.9346-1.8492 2.4512 0 4.6014 0.77407 2.1501 0.77407 3.9133 2.2792l-1.6772 2.6232q-1.7631-1.4191-3.3972-2.0642-1.6342-0.64506-3.4833-0.64506-2.1072 0-3.4833 0.94608-1.3332 0.94608-1.3332 2.3222 0 1.5051 1.2041 2.1932t3.8274 0.81707q4.6874 0.12901 6.7516 1.5481 2.1071 1.4191 2.1071 4.4724z"/></g></g><path d="m858 102.85c0-4.3266 3.507-7.8344 7.833-7.8344h168.34c4.32 0 7.83 3.5078 7.83 7.8344v31.339c0 4.327-3.51 7.835-7.83 7.835h-168.34c-4.326 0-7.833-3.508-7.833-7.835z" clip-path="url(#clipPath605)" fill="none" fill-rule="evenodd" stroke="#000" stroke-miterlimit="8" stroke-width="2.0005"/><g transform="scale(.99992 1.0001)" stroke-width="1.0001" aria-label="data_0"><path d="m921.79 110.09h2.2142v18.902h-2.1872v-2.1062q-0.89108 1.1341-2.1602 1.7552-1.2421 0.62105-2.6732 0.62105-2.7272 0-4.5904-1.8902-1.8362-1.9172-1.8362-4.8604 0-2.9703 1.8902-4.9144 1.9172-1.9712 4.6984-1.9712 1.3501 0 2.5382 0.56705 1.2151 0.54004 2.1062 1.5661zm-4.5634 17.254q1.9712 0 3.2943-1.4041 1.3501-1.4311 1.3501-3.5103 0-2.1062-1.2961-3.4833-1.2961-1.3771-3.2403-1.3771-1.9982 0-3.2673 1.3501-1.2691 1.3501-1.2691 3.5373 0 2.1872 1.2421 3.5373 1.2421 1.3501 3.1863 1.3501z"/><path d="m938.05 128.99h-2.1332v-2.1332q-0.78307 1.1341-2.1332 1.7822-1.3231 0.62105-2.8622 0.62105-2.1602 0-3.5103-1.0801-1.3501-1.1071-1.3501-2.8892 0-1.9712 1.5121-2.9702 1.5121-1.0261 4.4824-1.0261h3.8343q-0.027-1.8362-0.97208-2.8352-0.91808-0.99908-2.6462-0.99908-1.0261 0-2.0252 0.43203-0.99909 0.43204-1.9712 1.3231l-1.1611-1.4581q1.1341-1.0801 2.4842-1.6201 1.3501-0.56704 2.8892-0.56704 2.6192 0 4.0774 1.5661 1.4851 1.5391 1.4851 4.2664zm-2.1602-5.9945h-3.8073q-1.9712 0-2.9162 0.54004-0.94508 0.54005-0.94508 1.7012 0 0.97208 0.81007 1.6201 0.83707 0.64805 2.1332 0.64805 1.9442 0 3.2673-1.2421 1.3501-1.2691 1.4581-3.2673z"/><path d="m941.34 125.51v-7.6146h-1.7822v-1.9442h1.7822v-3.9963h2.1872v3.9963h3.0242v1.9442h-3.0242v7.4256q0 0.86407 0.37803 1.2961 0.40503 0.40503 1.2151 0.40503h1.4311v1.9712h-1.7551q-1.8092 0-2.6462-0.83707-0.81007-0.83707-0.81007-2.6462z"/><path d="m960.11 128.99h-2.1332v-2.1332q-0.78307 1.1341-2.1332 1.7822-1.3231 0.62105-2.8622 0.62105-2.1602 0-3.5103-1.0801-1.3501-1.1071-1.3501-2.8892 0-1.9712 1.5121-2.9702 1.5121-1.0261 4.4824-1.0261h3.8343q-0.027-1.8362-0.97208-2.8352-0.91808-0.99908-2.6462-0.99908-1.0261 0-2.0252 0.43203-0.99908 0.43204-1.9712 1.3231l-1.1611-1.4581q1.1341-1.0801 2.4842-1.6201 1.3501-0.56704 2.8892-0.56704 2.6192 0 4.0774 1.5661 1.4851 1.5391 1.4851 4.2664zm-2.1602-5.9945h-3.8073q-1.9712 0-2.9162 0.54004-0.94508 0.54005-0.94508 1.7012 0 0.97208 0.81007 1.6201 0.83707 0.64805 2.1332 0.64805 1.9442 0 3.2673-1.2421 1.3501-1.2691 1.4581-3.2673z"/><path d="m961.32 132.47v-1.9712h13.717v1.9712z"/><path d="m975.99 120v-0.86407q0-4.3474 2.0792-6.9126 2.0792-2.5652 5.5625-2.5652 3.4833 0 5.5085 2.5382 2.0522 2.5382 2.0522 6.8856v0.86408q0 4.3474-2.0792 6.9126-2.0522 2.5652-5.5355 2.5652-3.4833 0-5.5355-2.5382-2.0522-2.5382-2.0522-6.8856zm7.5876-8.2897q-2.4842 0-3.8883 1.9442-1.3771 1.9442-1.3771 5.4275v0.86408q0 3.5103 1.4041 5.4815 1.4041 1.9442 3.8883 1.9442 2.4842 0 3.8613-1.9442 1.4041-1.9442 1.4041-5.4275v-0.86407q0-3.5103-1.4041-5.4545-1.4041-1.9712-3.8883-1.9712z"/></g><path d="m948.02 143.52v60.29h-14.525l16 26.726 16-26.726h-14.525v-60.29z" clip-path="url(#clipPath599)" fill-rule="evenodd" stroke="#000" stroke-miterlimit="8" stroke-width="1.3338"/><g transform="scale(.99992 1.0001)" stroke-width="1.0001" aria-label="8 x 3 x 448 x 448"><path d="m973.66 177.47q0 2.1602-1.8002 3.5283-1.7762 1.3441-4.5844 1.3441-2.7842 0-4.5604-1.3441-1.7521-1.3441-1.7521-3.4803 0-1.4401 0.84007-2.5442 0.86407-1.1041 2.4002-1.7041-1.3441-0.55204-2.0882-1.5601-0.72006-1.0321-0.72006-2.3042 0-2.0642 1.6561-3.3363 1.6561-1.2721 4.2964-1.2721 2.6162 0 4.2484 1.2721 1.6321 1.2481 1.6321 3.2883 0 1.2721-0.74406 2.3042-0.72006 1.0081-2.0642 1.5841 1.5361 0.57605 2.3762 1.6801 0.86408 1.1041 0.86408 2.5442zm-10.225-7.9927q0 1.3201 1.0801 2.1362 1.0801 0.81607 2.8082 0.81607 1.7281 0 2.7842-0.81607 1.0801-0.81606 1.0801-2.1842 0-1.2721-1.1041-2.0642-1.0801-0.79207-2.7842-0.79207-1.7042 0-2.7842 0.81607-1.0801 0.79207-1.0801 2.0882zm-0.43203 7.9687q0 1.3681 1.2001 2.2562 1.2241 0.86407 3.1203 0.86407t3.0963-0.86407q1.2001-0.88808 1.2001-2.3042 0-1.4401-1.2001-2.3042-1.2001-0.88807-3.1203-0.88807t-3.1203 0.88807q-1.1761 0.88808-1.1761 2.3522z"/><path d="m981.34 181.98h-2.1842l4.5124-5.9765-4.2004-5.6165h2.3042l3.0482 4.2484 3.0963-4.2484h2.1602l-4.2004 5.5925 4.5844 6.0005h-2.2802l-3.4083-4.6804z"/><path d="m1002.1 180.54q1.7041 0 2.8322-0.93608 1.1521-0.96008 1.1521-2.3762 0-1.4881-1.1761-2.3522-1.1521-0.86408-3.2163-0.86408h-1.056v-1.7041h1.008q1.8962 0 3.0003-0.81607 1.1041-0.84007 1.1041-2.1362 0-1.2001-1.0081-1.9682-1.0081-0.76806-2.6402-0.76806-1.7282 0-2.7602 0.93608-1.0081 0.91207-1.1281 2.5202h-1.9682q0.072-2.2562 1.7041-3.7683 1.6561-1.5121 4.2484-1.5121 2.4722 0 4.0323 1.2721 1.5842 1.2481 1.5842 3.1203 0 1.3921-0.8161 2.4242-0.7921 1.0321-2.3042 1.5601 1.7281 0.48004 2.5922 1.5121t0.8641 2.6402q0 2.1362-1.7282 3.6003-1.7281 1.4401-4.3683 1.4401-2.8083 0-4.4644-1.5121-1.6321-1.5361-1.6561-4.2004h1.9442q0.096 1.8722 1.1761 2.8802 1.1041 1.0081 3.0483 1.0081z"/><path d="m1015.9 181.98h-2.1842l4.5124-5.9765-4.2003-5.6165h2.3042l3.0482 4.2484 3.0963-4.2484h2.1602l-4.2004 5.5925 4.5844 6.0005h-2.2802l-3.4083-4.6804z"/><path d="m1039.1 178.02h-9.1208v-1.5361l8.3047-11.305h2.8322v11.137h2.8323v1.7041h-2.8323v3.9603h-2.0161zm0.072-11.209-6.9846 9.5048h6.9846z"/><path d="m1053.8 178.02h-9.1208v-1.5361l8.3047-11.305h2.8322v11.137h2.8323v1.7041h-2.8323v3.9603h-2.0161zm0.072-11.209-6.9846 9.5048h6.9846z"/><path d="m1072.8 177.47q0 2.1602-1.8001 3.5283-1.7762 1.3441-4.5844 1.3441-2.7842 0-4.5604-1.3441-1.7521-1.3441-1.7521-3.4803 0-1.4401 0.8401-2.5442 0.864-1.1041 2.4002-1.7041-1.3442-0.55204-2.0882-1.5601-0.7201-1.0321-0.7201-2.3042 0-2.0642 1.6562-3.3363 1.6561-1.2721 4.2963-1.2721 2.6162 0 4.2484 1.2721 1.6321 1.2481 1.6321 3.2883 0 1.2721-0.7441 2.3042-0.72 1.0081-2.0641 1.5841 1.5361 0.57605 2.3762 1.6801 0.864 1.1041 0.864 2.5442zm-10.225-7.9927q0 1.3201 1.0801 2.1362 1.0801 0.81607 2.8082 0.81607 1.7282 0 2.7842-0.81607 1.0801-0.81606 1.0801-2.1842 0-1.2721-1.1041-2.0642-1.08-0.79207-2.7842-0.79207-1.7041 0-2.7842 0.81607-1.0801 0.79207-1.0801 2.0882zm-0.432 7.9687q0 1.3681 1.2001 2.2562 1.2241 0.86407 3.1202 0.86407 1.8962 0 3.0963-0.86407 1.2001-0.88808 1.2001-2.3042 0-1.4401-1.2001-2.3042-1.2001-0.88807-3.1203-0.88807t-3.1203 0.88807q-1.176 0.88808-1.176 2.3522z"/><path d="m1080.5 181.98h-2.1842l4.5124-5.9765-4.2004-5.6165h2.3042l3.0483 4.2484 3.0962-4.2484h2.1602l-4.2003 5.5925 4.5843 6.0005h-2.2802l-3.4082-4.6804z"/><path d="m1103.7 178.02h-9.1208v-1.5361l8.3047-11.305h2.8323v11.137h2.8322v1.7041h-2.8322v3.9603h-2.0162zm0.072-11.209-6.9846 9.5048h6.9846z"/><path d="m1118.5 178.02h-9.1207v-1.5361l8.3047-11.305h2.8322v11.137h2.8322v1.7041h-2.8322v3.9603h-2.0162zm0.072-11.209-6.9845 9.5048h6.9845z"/><path d="m1137.5 177.47q0 2.1602-1.8002 3.5283-1.7761 1.3441-4.5843 1.3441-2.7843 0-4.5604-1.3441-1.7522-1.3441-1.7522-3.4803 0-1.4401 0.8401-2.5442 0.8641-1.1041 2.4002-1.7041-1.3441-0.55204-2.0882-1.5601-0.72-1.0321-0.72-2.3042 0-2.0642 1.6561-3.3363 1.6561-1.2721 4.2964-1.2721 2.6162 0 4.2483 1.2721 1.6322 1.2481 1.6322 3.2883 0 1.2721-0.7441 2.3042-0.7201 1.0081-2.0642 1.5841 1.5361 0.57605 2.3762 1.6801 0.8641 1.1041 0.8641 2.5442zm-10.225-7.9927q0 1.3201 1.0801 2.1362 1.0801 0.81607 2.8083 0.81607 1.7281 0 2.7842-0.81607 1.0801-0.81606 1.0801-2.1842 0-1.2721-1.1041-2.0642-1.0801-0.79207-2.7842-0.79207-1.7042 0-2.7843 0.81607-1.0801 0.79207-1.0801 2.0882zm-0.432 7.9687q0 1.3681 1.2001 2.2562 1.2241 0.86407 3.1203 0.86407 1.8961 0 3.0962-0.86407 1.2001-0.88808 1.2001-2.3042 0-1.4401-1.2001-2.3042-1.2001-0.88807-3.1202-0.88807-1.9202 0-3.1203 0.88807-1.1761 0.88808-1.1761 2.3522z"/></g><path d="m304.98 443.08h135.05c13.242 0 23.977 7.015 23.977 15.669v31.339h-183v-31.339c0-8.654 10.735-15.669 23.977-15.669z" clip-path="url(#clipPath593)" fill="#49a1ef" fill-rule="evenodd" stroke="#000" stroke-miterlimit="8" stroke-width="2.0005"/><g transform="scale(.99992 1.0001)" fill="#fff" stroke-width="1.0001" aria-label="Add"><path d="m352.6 470.26-2.4842 5.6975h-2.4302l8.3977-18.902h2.2682l8.3707 18.902h-2.4572l-2.5112-5.6975zm4.5634-10.423-3.6453 8.3707h7.3446z"/><path d="m378.76 457.06h2.2142v18.902h-2.1872v-2.1062q-0.89107 1.1341-2.1602 1.7552-1.2421 0.62106-2.6732 0.62106-2.7272 0-4.5904-1.8902-1.8362-1.9172-1.8362-4.8604 0-2.9702 1.8902-4.9144 1.9172-1.9712 4.6984-1.9712 1.3501 0 2.5382 0.56704 1.2151 0.54005 2.1062 1.5661zm-4.5634 17.254q1.9712 0 3.2943-1.4041 1.3501-1.4311 1.3501-3.5103 0-2.1062-1.2961-3.4833t-3.2403-1.3771q-1.9982 0-3.2673 1.3501-1.2691 1.3501-1.2691 3.5373 0 2.1872 1.2421 3.5373 1.2421 1.3501 3.1863 1.3501z"/><path d="m394.45 457.06h2.2142v18.902h-2.1872v-2.1062q-0.89107 1.1341-2.1602 1.7552-1.2421 0.62106-2.6732 0.62106-2.7272 0-4.5904-1.8902-1.8362-1.9172-1.8362-4.8604 0-2.9702 1.8902-4.9144 1.9172-1.9712 4.6984-1.9712 1.3501 0 2.5382 0.56704 1.2151 0.54005 2.1062 1.5661zm-4.5634 17.254q1.9712 0 3.2943-1.4041 1.3501-1.4311 1.3501-3.5103 0-2.1062-1.2961-3.4833t-3.2403-1.3771q-1.9982 0-3.2673 1.3501-1.2691 1.3501-1.2691 3.5373 0 2.1872 1.2421 3.5373 1.2421 1.3501 3.1863 1.3501z"/></g><path d="m884.98 443.08h135.04c13.25 0 23.98 7.015 23.98 15.669v31.339h-183v-31.339c0-8.654 10.735-15.669 23.977-15.669z" clip-path="url(#clipPath587)" fill="#49a1ef" fill-rule="evenodd" stroke="#000" stroke-miterlimit="8" stroke-width="2.0005"/><g transform="scale(.99992 1.0001)" fill="#fff" stroke-width="1.0001" aria-label="Add"><path d="m932.66 470.26-2.4842 5.6975h-2.4302l8.3977-18.902h2.2682l8.3707 18.902h-2.4572l-2.5112-5.6975zm4.5634-10.423-3.6453 8.3707h7.3446z"/><path d="m958.83 457.06h2.2142v18.902h-2.1872v-2.1062q-0.89108 1.1341-2.1602 1.7552-1.2421 0.62106-2.6732 0.62106-2.7272 0-4.5904-1.8902-1.8362-1.9172-1.8362-4.8604 0-2.9702 1.8902-4.9144 1.9172-1.9712 4.6984-1.9712 1.3501 0 2.5382 0.56704 1.2151 0.54005 2.1062 1.5661zm-4.5634 17.254q1.9712 0 3.2943-1.4041 1.3501-1.4311 1.3501-3.5103 0-2.1062-1.2961-3.4833t-3.2403-1.3771q-1.9982 0-3.2673 1.3501-1.2691 1.3501-1.2691 3.5373 0 2.1872 1.2421 3.5373 1.2421 1.3501 3.1863 1.3501z"/><path d="m974.52 457.06h2.2142v18.902h-2.1872v-2.1062q-0.89108 1.1341-2.1602 1.7552-1.2421 0.62106-2.6732 0.62106-2.7272 0-4.5904-1.8902-1.8362-1.9172-1.8362-4.8604 0-2.9702 1.8902-4.9144 1.9172-1.9712 4.6984-1.9712 1.3501 0 2.5382 0.56704 1.2151 0.54005 2.1062 1.5661zm-4.5634 17.254q1.9712 0 3.2943-1.4041 1.3501-1.4311 1.3501-3.5103 0-2.1062-1.2961-3.4833t-3.2403-1.3771q-1.9982 0-3.2673 1.3501-1.2691 1.3501-1.2691 3.5373 0 2.1872 1.2421 3.5373 1.2421 1.3501 3.1863 1.3501z"/></g><path d="m861 490.09h183v48.008c0 13.257-10.73 24.004-23.98 24.004h-135.04c-13.242 0-23.977-10.747-23.977-24.004z" clip-path="url(#clipPath581)" fill="none" fill-rule="evenodd" stroke="#000" stroke-miterlimit="8" stroke-width="2.0005"/><g transform="scale(.99992 1.0001)" stroke-width="1.0001" aria-label="custom&lt;1 x 64 x 1 x 1&gt;"><path d="m917.14 522.36q-2.9973 0-4.8874-1.8902-1.8632-1.9172-1.8632-4.9954 0-2.9162 1.9712-4.9144t4.8334-1.9982q2.0792 0 3.5373 0.97208 1.4851 0.94508 2.2412 2.7542l-1.8632 0.89108q-0.62106-1.3501-1.6201-2.0252-0.97208-0.67506-2.3222-0.67506-1.9172 0-3.2403 1.4581-1.2961 1.4311-1.2961 3.5373 0 2.1332 1.2961 3.5643 1.3231 1.4041 3.2943 1.4041 1.2691 0 2.3492-0.67506 1.1071-0.70206 1.7822-1.9442l1.7011 0.91807q-0.78306 1.6742-2.3492 2.6462-1.5661 0.97208-3.5643 0.97208z"/><path d="m937.45 521.96h-2.1872v-1.9982q-0.78307 1.1341-1.9712 1.7281-1.1881 0.56705-2.7002 0.56705-2.5652 0-4.0503-1.6741-1.4581-1.6741-1.4581-4.5634v-7.1016h2.2142v6.9666q0 2.0522 0.99909 3.2403 1.0261 1.1881 2.8352 1.1881 1.8362 0 2.9702-1.2691t1.1341-3.2943v-6.8316h2.2142z"/><path d="m950.79 518.15q0 1.8362-1.5661 2.9973-1.5661 1.1611-4.0774 1.1611-1.6471 0-3.1053-0.51305-1.4311-0.54004-2.5922-1.5931l1.1341-1.6741q1.2421 1.0261 2.3222 1.4851t2.2952 0.45904q1.5661 0 2.5112-0.59405 0.97208-0.62105 0.97208-1.5931 0-0.99908-0.81007-1.4311-0.81007-0.45904-2.6732-0.48604-2.7272-0.10801-3.9963-0.99908-1.2421-0.89108-1.2421-2.7812 0-1.7282 1.4311-2.8622 1.4581-1.1611 3.7263-1.1611 1.5391 0 2.8892 0.48604 1.3501 0.48604 2.4572 1.4311l-1.0531 1.6471q-1.1071-0.89108-2.1332-1.2961t-2.1872-0.40503q-1.3231 0-2.1872 0.59405-0.83707 0.59405-0.83707 1.4581 0 0.94508 0.75606 1.3771 0.75606 0.43203 2.4032 0.51304 2.9433 0.081 4.2394 0.97208 1.3231 0.89108 1.3231 2.8082z"/><path d="m953.6 518.47v-7.6146h-1.7822v-1.9442h1.7822v-3.9963h2.1872v3.9963h3.0242v1.9442h-3.0242v7.4256q0 0.86408 0.37803 1.2961 0.40503 0.40503 1.2151 0.40503h1.4311v1.9712h-1.7551q-1.8092 0-2.6462-0.83707-0.81007-0.83708-0.81007-2.6462z"/><path d="m973.8 515.45q0 2.9432-1.9712 4.9414-1.9712 1.9712-4.8604 1.9712-2.8892 0-4.8334-1.9712-1.9172-1.9712-1.9172-4.9144 0-2.9433 1.9712-4.9144 1.9712-1.9982 4.8604-1.9982t4.8064 1.9712q1.9442 1.9712 1.9442 4.9144zm-11.341 0.027q0 2.1062 1.2961 3.5373 1.3231 1.4311 3.2673 1.4311 1.9172 0 3.2133-1.4311 1.3231-1.4311 1.3231-3.5643 0-2.0792-1.3231-3.5103-1.3231-1.4581-3.2403-1.4581-1.9172 0-3.2403 1.4311-1.2961 1.4311-1.2961 3.5643z"/><path d="m976.06 508.91h2.1602v1.5661q0.72906-0.94508 1.6471-1.4041 0.94508-0.48604 2.1062-0.48604 1.3501 0 2.4032 0.56705t1.6742 1.6471q0.72906-1.0801 1.8362-1.6471 1.1341-0.56705 2.5382-0.56705 2.2952 0 3.6453 1.4851 1.3771 1.4851 1.3771 3.8613v8.0197h-2.2142v-7.8847q0-1.6471-0.83707-2.5652-0.81007-0.94508-2.2952-0.94508-1.4581 0-2.3762 1.0261-0.89108 0.99909-0.89108 2.6192v7.7497h-2.1872v-7.8847q0-1.6471-0.83707-2.5652-0.81007-0.94508-2.2952-0.94508-1.4581 0-2.3762 1.0261-0.89108 0.99909-0.89108 2.6192v7.7497h-2.1872z"/><g stroke-width="1.0002"><path d="m895.5 545.58v1.7282l-8.1607-3.9603v-1.7282l8.1607-3.9603v1.7282l-6.6726 3.0963z"/><path d="m899.94 535.98h-2.5922v-1.8242h4.6084v16.801h-2.0162z"/><path d="m910.53 550.95h-2.1842l4.5124-5.9765-4.2004-5.6165h2.3042l3.0482 4.2484 3.0963-4.2484h2.1602l-4.2004 5.5925 4.5844 6.0005h-2.2802l-3.4083-4.6804z"/><path d="m931.7 539.84q2.5922 0 4.2244 1.5361 1.6321 1.5361 1.6321 3.9603 0 2.5442-1.8722 4.2724-1.8482 1.7041-4.6084 1.7041-2.6162 0-4.3444-1.6081-1.7281-1.6321-1.7281-4.1284 0-2.0162 0.86407-3.7683 0.88807-1.7522 3.0242-4.0323l3.3603-3.6243h2.5922v0.048l-4.4884 4.6324q-0.40803 0.43204-0.79206 0.86407-0.38404 0.43204-0.74407 0.86408 0.64806-0.36003 1.3681-0.52805 0.72006-0.19201 1.5121-0.19201zm3.7923 5.5205q0-1.7042-1.1281-2.7602-1.1281-1.0561-2.9762-1.0561-1.8482 0-3.0963 1.1281-1.2241 1.1041-1.2241 2.7842 0 1.7762 1.1521 2.9042 1.1761 1.1281 2.9282 1.1281 1.8962 0 3.1203-1.1761t1.2241-2.9522z"/><path d="m947.66 546.99h-9.1208v-1.5361l8.3047-11.305h2.8322v11.137h2.8322v1.7041h-2.8322v3.9603h-2.0162zm0.072-11.209-6.9846 9.5048h6.9846z"/><path d="m959.83 550.95h-2.1842l4.5124-5.9765-4.2004-5.6165h2.3042l3.0483 4.2484 3.0962-4.2484h2.1602l-4.2004 5.5925 4.5844 6.0005h-2.2802l-3.4083-4.6804z"/><path d="m976.85 535.98h-2.5922v-1.8242h4.6084v16.801h-2.0162z"/><path d="m987.43 550.95h-2.1842l4.5124-5.9765-4.2004-5.6165h2.3042l3.0482 4.2484 3.0963-4.2484h2.1602l-4.2004 5.5925 4.5844 6.0005h-2.2802l-3.4083-4.6804z"/><path d="m1004.4 535.98h-2.5923v-1.8242h4.6084v16.801h-2.0161z"/><path d="m1009.4 539.38v-1.7282l8.1607 3.9603v1.7282l-8.1607 3.9603v-1.7282l6.6725-3.0962z"/></g></g><path d="m948.02 353.56v60.29h-14.525l16 26.726 16-26.726h-14.525v-60.29z" clip-path="url(#clipPath575)" fill-rule="evenodd" stroke="#000" stroke-miterlimit="8" stroke-width="1.3338"/><g transform="scale(.99992 1.0001)" stroke-width="1.0001" aria-label="8 x 64 x 224 x 224"><path d="m979.02 385.45q0 2.1602-1.8002 3.5283-1.7762 1.3441-4.5844 1.3441-2.7842 0-4.5604-1.3441-1.7521-1.3441-1.7521-3.4803 0-1.4401 0.84007-2.5442 0.86407-1.1041 2.4002-1.7041-1.3441-0.55204-2.0882-1.5601-0.72006-1.0321-0.72006-2.3042 0-2.0642 1.6561-3.3363 1.6561-1.2721 4.2964-1.2721 2.6162 0 4.2484 1.2721 1.6321 1.2481 1.6321 3.2883 0 1.2721-0.74406 2.3042-0.72006 1.0081-2.0642 1.5841 1.5361 0.57605 2.3762 1.6801 0.86408 1.1041 0.86408 2.5442zm-10.225-7.9927q0 1.3201 1.0801 2.1362 1.0801 0.81607 2.8082 0.81607 1.7281 0 2.7842-0.81607 1.0801-0.81606 1.0801-2.1842 0-1.2721-1.1041-2.0642-1.0801-0.79207-2.7842-0.79207-1.7042 0-2.7842 0.81607-1.0801 0.79207-1.0801 2.0882zm-0.43203 7.9687q0 1.3681 1.2001 2.2562 1.2241 0.86407 3.1203 0.86407t3.0963-0.86407q1.2001-0.88808 1.2001-2.3042 0-1.4401-1.2001-2.3042-1.2001-0.88807-3.1203-0.88807t-3.1203 0.88807q-1.1761 0.88808-1.1761 2.3522z"/><path d="m986.7 389.97h-2.1842l4.5124-5.9765-4.2004-5.6165h2.3042l3.0482 4.2484 3.0963-4.2484h2.1602l-4.2004 5.5925 4.5844 6.0005h-2.2802l-3.4083-4.6804z"/><path d="m1007.9 378.85q2.5922 0 4.2243 1.5361 1.6322 1.5361 1.6322 3.9603 0 2.5442-1.8722 4.2724-1.8482 1.7041-4.6084 1.7041-2.6162 0-4.3443-1.6081-1.7282-1.6321-1.7282-4.1283 0-2.0162 0.8641-3.7683 0.8881-1.7522 3.0242-4.0323l3.3603-3.6243h2.5922v0.048l-4.4883 4.6324q-0.4081 0.43203-0.7921 0.86407t-0.7441 0.86407q0.6481-0.36003 1.3681-0.52804 0.7201-0.19202 1.5122-0.19202zm3.7923 5.5205q0-1.7041-1.1281-2.7602t-2.9763-1.0561q-1.8481 0-3.0962 1.1281-1.2241 1.1041-1.2241 2.7842 0 1.7762 1.1521 2.9042 1.1761 1.1281 2.9282 1.1281 1.8962 0 3.1203-1.1761t1.2241-2.9522z"/><path d="m1023.8 386.01h-9.1208v-1.5361l8.3047-11.305h2.8323v11.137h2.8322v1.7041h-2.8322v3.9603h-2.0162zm0.072-11.209-6.9846 9.5048h6.9846z"/><path d="m1036 389.97h-2.1842l4.5124-5.9765-4.2004-5.6165h2.3042l3.0483 4.2484 3.0962-4.2484h2.1602l-4.2003 5.5925 4.5844 6.0005h-2.2802l-3.4083-4.6804z"/><path d="m1062.7 389.97h-11.977v-1.6801l5.8085-5.3284q2.0642-1.8722 2.8082-2.9762 0.7441-1.1041 0.7441-2.3522 0-1.3201-0.9841-2.1602-0.9601-0.86407-2.4002-0.86407-1.7761 0-2.8082 1.1041-1.0081 1.0801-1.0801 3.0482h-1.9682q0.048-2.7362 1.6322-4.3444 1.6081-1.6321 4.2723-1.6321 2.3522 0 3.8643 1.3681 1.5362 1.3441 1.5362 3.4323 0 1.6801-0.9361 3.1203-0.9121 1.4161-3.4803 3.6723l-4.2484 3.7923h9.2168z"/><path d="m1076.3 389.97h-11.977v-1.6801l5.8084-5.3284q2.0642-1.8722 2.8083-2.9762 0.744-1.1041 0.744-2.3522 0-1.3201-0.9841-2.1602-0.96-0.86407-2.4002-0.86407-1.7761 0-2.8082 1.1041-1.0081 1.0801-1.0801 3.0482h-1.9681q0.048-2.7362 1.6321-4.3444 1.6081-1.6321 4.2724-1.6321 2.3521 0 3.8643 1.3681 1.5361 1.3441 1.5361 3.4323 0 1.6801-0.9361 3.1203-0.9121 1.4161-3.4803 3.6723l-4.2483 3.7923h9.2167z"/><path d="m1086.4 386.01h-9.1208v-1.5361l8.3047-11.305h2.8323v11.137h2.8322v1.7041h-2.8322v3.9603h-2.0162zm0.072-11.209-6.9846 9.5048h6.9846z"/><path d="m1098.6 389.97h-2.1842l4.5124-5.9765-4.2004-5.6165h2.3042l3.0483 4.2484 3.0962-4.2484h2.1602l-4.2003 5.5925 4.5843 6.0005h-2.2801l-3.4083-4.6804z"/><path d="m1125.2 389.97h-11.977v-1.6801l5.8085-5.3284q2.0642-1.8722 2.8082-2.9762 0.7441-1.1041 0.7441-2.3522 0-1.3201-0.9841-2.1602-0.9601-0.86407-2.4002-0.86407-1.7761 0-2.8082 1.1041-1.0081 1.0801-1.0801 3.0482h-1.9682q0.048-2.7362 1.6321-4.3444 1.6082-1.6321 4.2724-1.6321 2.3522 0 3.8643 1.3681 1.5362 1.3441 1.5362 3.4323 0 1.6801-0.9361 3.1203-0.9121 1.4161-3.4803 3.6723l-4.2484 3.7923h9.2168z"/><path d="m1138.8 389.97h-11.977v-1.6801l5.8085-5.3284q2.0642-1.8722 2.8082-2.9762 0.7441-1.1041 0.7441-2.3522 0-1.3201-0.9841-2.1602-0.9601-0.86407-2.4002-0.86407-1.7761 0-2.8082 1.1041-1.0081 1.0801-1.0801 3.0482h-1.9682q0.048-2.7362 1.6322-4.3444 1.6081-1.6321 4.2723-1.6321 2.3522 0 3.8644 1.3681 1.5361 1.3441 1.5361 3.4323 0 1.6801-0.9361 3.1203-0.9121 1.4161-3.4803 3.6723l-4.2483 3.7923h9.2167z"/><path d="m1148.9 386.01h-9.1208v-1.5361l8.3047-11.305h2.8323v11.137h2.8322v1.7041h-2.8322v3.9603h-2.0162zm0.072-11.209-6.9846 9.5048h6.9846z"/></g><path d="m948.02 563.6v60.29h-14.525l16 26.726 16-26.726h-14.525v-60.29z" clip-path="url(#clipPath569)" fill-rule="evenodd" stroke="#000" stroke-miterlimit="8" stroke-width="1.3338"/><path d="m281 660.95c0-4.327 3.507-7.835 7.833-7.835h167.33c4.326 0 7.833 3.508 7.833 7.835v31.339c0 4.327-3.507 7.834-7.833 7.834h-167.33c-4.326 0-7.833-3.507-7.833-7.834z" clip-path="url(#clipPath563)" fill="#e96114" fill-rule="evenodd" stroke="#000" stroke-miterlimit="8" stroke-width="2.0005"/><g transform="scale(.99992 1.0001)" fill="#fff" stroke-width="1.0001" aria-label="ReLU"><path d="m350.63 677.98 5.3735 7.9657h-2.7542l-5.1034-7.6956h-5.3194v7.6956h-2.3222v-18.902h8.3167q3.1863 0 4.9684 1.4851 1.7822 1.4581 1.7822 4.0233 0 2.1062-1.2961 3.5373t-3.6453 1.8902zm2.5922-5.3734q0-1.6472-1.1881-2.5652-1.1611-0.94508-3.2673-0.94508h-5.9405v7.1286h5.7515q2.1332 0 3.3753-0.97208 1.2691-0.99908 1.2691-2.6462z"/><path d="m364.1 684.48q1.2961 0 2.3762-0.54005 1.1071-0.56705 2.0252-1.7011l1.3231 1.2151q-1.1071 1.4581-2.5922 2.1872-1.4851 0.70206-3.3213 0.70206-2.9432 0-4.8334-1.9172-1.8632-1.9442-1.8632-4.9684 0-2.9432 1.9172-4.9144 1.9172-1.9712 4.7254-1.9712 2.8622 0 4.6444 1.8632 1.7822 1.8632 1.7822 4.8604 0 0.21601-0.027 0.51304-0.027 0.27002-0.054 0.40503h-10.72q0.21601 1.9172 1.4851 3.1053 1.2961 1.1611 3.1323 1.1611zm-0.21602-10.045q-1.7011 0-2.9162 1.1071-1.2151 1.1071-1.4851 2.9702h8.5867q-0.24302-1.8902-1.3771-2.9702-1.1341-1.1071-2.8082-1.1071z"/><path d="m372.82 685.94v-18.902h2.3222v16.822h10.909v2.0792z"/><path d="m396.15 684.29q2.8082 0 4.5364-1.8902 1.7552-1.9172 1.7552-4.9684v-10.396h2.2952v10.45q0 3.9963-2.3762 6.4536-2.3762 2.4302-6.2645 2.4302t-6.2375-2.4302q-2.3492-2.4572-2.3492-6.4536v-10.45h2.3222v10.396q0 3.0513 1.7552 4.9684 1.7552 1.8902 4.5634 1.8902z"/></g><path d="m861 660.78c0-4.236 3.432-7.669 7.667-7.669h167.66c4.24 0 7.67 3.433 7.67 7.669v30.671c0 4.235-3.43 7.668-7.67 7.668h-167.66c-4.235 0-7.667-3.433-7.667-7.668z" clip-path="url(#clipPath557)" fill="#e96114" fill-rule="evenodd" stroke="#000" stroke-miterlimit="8" stroke-width="2.0005"/><g transform="scale(.99992 1.0001)" fill="#fff" stroke-width="1.0001" aria-label="ReLU"><path d="m930.69 677.98 5.3735 7.9657h-2.7542l-5.1034-7.6956h-5.3195v7.6956h-2.3222v-18.902h8.3167q3.1863 0 4.9684 1.4851 1.7822 1.4581 1.7822 4.0233 0 2.1062-1.2961 3.5373t-3.6453 1.8902zm2.5922-5.3734q0-1.6472-1.1881-2.5652-1.1611-0.94508-3.2673-0.94508h-5.9405v7.1286h5.7515q2.1332 0 3.3753-0.97208 1.2691-0.99908 1.2691-2.6462z"/><path d="m944.17 684.48q1.2961 0 2.3762-0.54005 1.1071-0.56705 2.0252-1.7011l1.3231 1.2151q-1.1071 1.4581-2.5922 2.1872-1.4851 0.70206-3.3213 0.70206-2.9432 0-4.8334-1.9172-1.8632-1.9442-1.8632-4.9684 0-2.9432 1.9172-4.9144t4.7254-1.9712q2.8622 0 4.6444 1.8632t1.7822 4.8604q0 0.21601-0.027 0.51304-0.027 0.27002-0.054 0.40503h-10.72q0.21602 1.9172 1.4851 3.1053 1.2961 1.1611 3.1323 1.1611zm-0.21601-10.045q-1.7012 0-2.9162 1.1071-1.2151 1.1071-1.4851 2.9702h8.5867q-0.24302-1.8902-1.3771-2.9702-1.1341-1.1071-2.8082-1.1071z"/><path d="m952.89 685.94v-18.902h2.3222v16.822h10.909v2.0792z"/><path d="m976.22 684.29q2.8082 0 4.5364-1.8902 1.7551-1.9172 1.7551-4.9684v-10.396h2.2952v10.45q0 3.9963-2.3762 6.4536-2.3762 2.4302-6.2645 2.4302-3.8883 0-6.2375-2.4302-2.3492-2.4572-2.3492-6.4536v-10.45h2.3222v10.396q0 3.0513 1.7552 4.9684 1.7552 1.8902 4.5634 1.8902z"/></g><path d="m948.02 701.62v60.29h-14.525l16 26.726 16-26.726h-14.525v-60.29z" clip-path="url(#clipPath551)" fill-rule="evenodd" stroke="#000" stroke-miterlimit="8" stroke-width="1.3338"/><g transform="scale(.99992 1.0001)" stroke-width="1.0001" aria-label="8 x 64 x 224 x 2248 x 64 x 224 x 224"><path d="m977.98 602.44q0 2.1602-1.8002 3.5283-1.7762 1.3441-4.5844 1.3441-2.7842 0-4.5604-1.3441-1.7522-1.3441-1.7522-3.4803 0-1.4401 0.84007-2.5442 0.86407-1.1041 2.4002-1.7041-1.3441-0.55205-2.0882-1.5601-0.72006-1.0321-0.72006-2.3042 0-2.0642 1.6561-3.3363 1.6561-1.2721 4.2964-1.2721 2.6162 0 4.2484 1.2721 1.6321 1.2481 1.6321 3.2883 0 1.2721-0.74406 2.3042-0.72006 1.0081-2.0642 1.5841 1.5361 0.57605 2.3762 1.6801 0.86407 1.1041 0.86407 2.5442zm-10.225-7.9927q0 1.3201 1.0801 2.1362t2.8082 0.81607q1.7282 0 2.7842-0.81607 1.0801-0.81607 1.0801-2.1842 0-1.2721-1.1041-2.0642-1.0801-0.79207-2.7842-0.79207t-2.7842 0.81607q-1.0801 0.79206-1.0801 2.0882zm-0.43204 7.9687q0 1.3681 1.2001 2.2562 1.2241 0.86407 3.1203 0.86407t3.0963-0.86407q1.2001-0.88808 1.2001-2.3042 0-1.4401-1.2001-2.3042-1.2001-0.88807-3.1203-0.88807t-3.1203 0.88807q-1.1761 0.88808-1.1761 2.3522z"/><path d="m985.66 606.95h-2.1842l4.5124-5.9765-4.2004-5.6165h2.3042l3.0483 4.2484 3.0963-4.2484h2.1602l-4.2004 5.5925 4.5844 6.0005h-2.2802l-3.4083-4.6804z"/><path d="m1006.8 595.84q2.5922 0 4.2243 1.5361 1.6322 1.5361 1.6322 3.9603 0 2.5442-1.8722 4.2724-1.8482 1.7042-4.6084 1.7042-2.6162 0-4.3443-1.6081-1.7282-1.6321-1.7282-4.1283 0-2.0162 0.8641-3.7683 0.8881-1.7521 3.0242-4.0323l3.3603-3.6243h2.5922v0.048l-4.4883 4.6324q-0.4081 0.43204-0.7921 0.86408-0.384 0.43203-0.7441 0.86407 0.6481-0.36003 1.3681-0.52805 0.7201-0.19201 1.5122-0.19201zm3.7923 5.5205q0-1.7041-1.1281-2.7602t-2.9763-1.0561q-1.8481 0-3.0962 1.1281-1.2241 1.1041-1.2241 2.7842 0 1.7762 1.1521 2.9042 1.1761 1.1281 2.9282 1.1281 1.8962 0 3.1203-1.1761 1.2241-1.1761 1.2241-2.9522z"/><path d="m1022.8 602.99h-9.1208v-1.5361l8.3047-11.305h2.8323v11.137h2.8322v1.7042h-2.8322v3.9603h-2.0162zm0.072-11.209-6.9846 9.5048h6.9846z"/><path d="m1035 606.95h-2.1842l4.5124-5.9765-4.2004-5.6165h2.3042l3.0483 4.2484 3.0962-4.2484h2.1602l-4.2003 5.5925 4.5843 6.0005h-2.2801l-3.4083-4.6804z"/><path d="m1061.6 606.95h-11.977v-1.6801l5.8085-5.3284q2.0642-1.8722 2.8082-2.9762 0.7441-1.1041 0.7441-2.3522 0-1.3201-0.9841-2.1602-0.9601-0.86408-2.4002-0.86408-1.7761 0-2.8082 1.1041-1.0081 1.0801-1.0801 3.0482h-1.9682q0.048-2.7362 1.6322-4.3444 1.6081-1.6321 4.2723-1.6321 2.3522 0 3.8643 1.3681 1.5362 1.3441 1.5362 3.4323 0 1.6801-0.9361 3.1203-0.9121 1.4161-3.4803 3.6723l-4.2484 3.7923h9.2168z"/><path d="m1075.2 606.95h-11.977v-1.6801l5.8085-5.3284q2.0642-1.8722 2.8083-2.9762 0.744-1.1041 0.744-2.3522 0-1.3201-0.9841-2.1602-0.96-0.86408-2.4002-0.86408-1.7761 0-2.8082 1.1041-1.0081 1.0801-1.0801 3.0482h-1.9681q0.048-2.7362 1.6321-4.3444 1.6081-1.6321 4.2723-1.6321 2.3522 0 3.8644 1.3681 1.5361 1.3441 1.5361 3.4323 0 1.6801-0.9361 3.1203-0.9121 1.4161-3.4803 3.6723l-4.2483 3.7923h9.2167z"/><path d="m1085.3 602.99h-9.1208v-1.5361l8.3047-11.305h2.8323v11.137h2.8322v1.7042h-2.8322v3.9603h-2.0162zm0.072-11.209-6.9846 9.5048h6.9846z"/><path d="m1097.5 606.95h-2.1842l4.5124-5.9765-4.2004-5.6165h2.3042l3.0483 4.2484 3.0962-4.2484h2.1602l-4.2003 5.5925 4.5843 6.0005h-2.2801l-3.4083-4.6804z"/><path d="m1124.2 606.95h-11.977v-1.6801l5.8085-5.3284q2.0642-1.8722 2.8082-2.9762 0.7441-1.1041 0.7441-2.3522 0-1.3201-0.9841-2.1602-0.9601-0.86408-2.4002-0.86408-1.7762 0-2.8082 1.1041-1.0081 1.0801-1.0801 3.0482h-1.9682q0.048-2.7362 1.6321-4.3444 1.6082-1.6321 4.2724-1.6321 2.3522 0 3.8643 1.3681 1.5361 1.3441 1.5361 3.4323 0 1.6801-0.936 3.1203-0.9121 1.4161-3.4803 3.6723l-4.2484 3.7923h9.2168z"/><path d="m1137.8 606.95h-11.977v-1.6801l5.8085-5.3284q2.0642-1.8722 2.8082-2.9762 0.7441-1.1041 0.7441-2.3522 0-1.3201-0.9841-2.1602-0.9601-0.86408-2.4002-0.86408-1.7761 0-2.8082 1.1041-1.0081 1.0801-1.0801 3.0482h-1.9682q0.048-2.7362 1.6322-4.3444 1.6081-1.6321 4.2723-1.6321 2.3522 0 3.8643 1.3681 1.5362 1.3441 1.5362 3.4323 0 1.6801-0.9361 3.1203-0.9121 1.4161-3.4803 3.6723l-4.2483 3.7923h9.2167z"/><path d="m1147.9 602.99h-9.1208v-1.5361l8.3047-11.305h2.8322v11.137h2.8323v1.7042h-2.8323v3.9603h-2.0161zm0.072-11.209-6.9846 9.5048h6.9846z"/><g stroke-width="1.0002"><path d="m977.98 740.42q0 2.1602-1.8002 3.5283-1.7762 1.3441-4.5844 1.3441-2.7842 0-4.5604-1.3441-1.7522-1.3441-1.7522-3.4803 0-1.4401 0.84007-2.5442 0.86407-1.1041 2.4002-1.7041-1.3441-0.55205-2.0882-1.5601-0.72006-1.0321-0.72006-2.3042 0-2.0642 1.6561-3.3363 1.6561-1.2721 4.2964-1.2721 2.6162 0 4.2484 1.2721 1.6321 1.2481 1.6321 3.2883 0 1.2721-0.74406 2.3042-0.72006 1.0081-2.0642 1.5841 1.5361 0.57605 2.3762 1.6801 0.86407 1.1041 0.86407 2.5442zm-10.225-7.9927q0 1.3201 1.0801 2.1362t2.8082 0.81607q1.7282 0 2.7842-0.81607 1.0801-0.81607 1.0801-2.1842 0-1.2721-1.1041-2.0642-1.0801-0.79207-2.7842-0.79207t-2.7842 0.81607q-1.0801 0.79207-1.0801 2.0882zm-0.43204 7.9687q0 1.3681 1.2001 2.2562 1.2241 0.86407 3.1203 0.86407t3.0963-0.86407q1.2001-0.88808 1.2001-2.3042 0-1.4401-1.2001-2.3042-1.2001-0.88807-3.1203-0.88807t-3.1203 0.88807q-1.1761 0.88808-1.1761 2.3522z"/><path d="m985.66 744.94h-2.1842l4.5124-5.9765-4.2004-5.6165h2.3042l3.0483 4.2484 3.0963-4.2484h2.1602l-4.2004 5.5925 4.5844 6.0005h-2.2802l-3.4083-4.6804z"/><path d="m1006.8 733.82q2.5922 0 4.2243 1.5361 1.6322 1.5361 1.6322 3.9603 0 2.5442-1.8722 4.2724-1.8482 1.7041-4.6084 1.7041-2.6162 0-4.3443-1.6081-1.7282-1.6321-1.7282-4.1283 0-2.0162 0.8641-3.7683 0.8881-1.7521 3.0242-4.0323l3.3603-3.6243h2.5922v0.048l-4.4883 4.6324q-0.4081 0.43203-0.7921 0.86407-0.384 0.43203-0.7441 0.86407 0.6481-0.36003 1.3681-0.52804 0.7201-0.19202 1.5122-0.19202zm3.7923 5.5205q0-1.7041-1.1281-2.7602t-2.9763-1.0561q-1.8481 0-3.0962 1.1281-1.2241 1.1041-1.2241 2.7842 0 1.7762 1.1521 2.9042 1.1761 1.1281 2.9282 1.1281 1.8962 0 3.1203-1.1761t1.2241-2.9522z"/><path d="m1022.8 740.98h-9.1208v-1.5361l8.3047-11.305h2.8323v11.137h2.8322v1.7041h-2.8322v3.9603h-2.0162zm0.072-11.209-6.9846 9.5048h6.9846z"/><path d="m1035 744.94h-2.1842l4.5124-5.9765-4.2004-5.6165h2.3042l3.0483 4.2484 3.0962-4.2484h2.1602l-4.2003 5.5925 4.5843 6.0005h-2.2801l-3.4083-4.6804z"/><path d="m1061.6 744.94h-11.977v-1.6801l5.8085-5.3284q2.0642-1.8722 2.8082-2.9762 0.7441-1.1041 0.7441-2.3522 0-1.3201-0.9841-2.1602-0.9601-0.86407-2.4002-0.86407-1.7761 0-2.8082 1.1041-1.0081 1.0801-1.0801 3.0482h-1.9682q0.048-2.7362 1.6322-4.3444 1.6081-1.6321 4.2723-1.6321 2.3522 0 3.8643 1.3681 1.5362 1.3441 1.5362 3.4323 0 1.6801-0.9361 3.1203-0.9121 1.4161-3.4803 3.6723l-4.2484 3.7923h9.2168z"/><path d="m1075.2 744.94h-11.977v-1.6801l5.8085-5.3284q2.0642-1.8722 2.8083-2.9762 0.744-1.1041 0.744-2.3522 0-1.3201-0.9841-2.1602-0.96-0.86407-2.4002-0.86407-1.7761 0-2.8082 1.1041-1.0081 1.0801-1.0801 3.0482h-1.9681q0.048-2.7362 1.6321-4.3444 1.6081-1.6321 4.2723-1.6321 2.3522 0 3.8644 1.3681 1.5361 1.3441 1.5361 3.4323 0 1.6801-0.9361 3.1203-0.9121 1.4161-3.4803 3.6723l-4.2483 3.7923h9.2167z"/><path d="m1085.3 740.98h-9.1208v-1.5361l8.3047-11.305h2.8323v11.137h2.8322v1.7041h-2.8322v3.9603h-2.0162zm0.072-11.209-6.9846 9.5048h6.9846z"/><path d="m1097.5 744.94h-2.1842l4.5124-5.9765-4.2004-5.6165h2.3042l3.0483 4.2484 3.0962-4.2484h2.1602l-4.2003 5.5925 4.5843 6.0005h-2.2801l-3.4083-4.6804z"/><path d="m1124.2 744.94h-11.977v-1.6801l5.8085-5.3284q2.0642-1.8722 2.8082-2.9762 0.7441-1.1041 0.7441-2.3522 0-1.3201-0.9841-2.1602-0.9601-0.86407-2.4002-0.86407-1.7762 0-2.8082 1.1041-1.0081 1.0801-1.0801 3.0482h-1.9682q0.048-2.7362 1.6321-4.3444 1.6082-1.6321 4.2724-1.6321 2.3522 0 3.8643 1.3681 1.5361 1.3441 1.5361 3.4323 0 1.6801-0.936 3.1203-0.9121 1.4161-3.4803 3.6723l-4.2484 3.7923h9.2168z"/><path d="m1137.8 744.94h-11.977v-1.6801l5.8085-5.3284q2.0642-1.8722 2.8082-2.9762 0.7441-1.1041 0.7441-2.3522 0-1.3201-0.9841-2.1602-0.9601-0.86407-2.4002-0.86407-1.7761 0-2.8082 1.1041-1.0081 1.0801-1.0801 3.0482h-1.9682q0.048-2.7362 1.6322-4.3444 1.6081-1.6321 4.2723-1.6321 2.3522 0 3.8643 1.3681 1.5362 1.3441 1.5362 3.4323 0 1.6801-0.9361 3.1203-0.9121 1.4161-3.4803 3.6723l-4.2483 3.7923h9.2167z"/><path d="m1147.9 740.98h-9.1208v-1.5361l8.3047-11.305h2.8322v11.137h2.8323v1.7041h-2.8323v3.9603h-2.0161zm0.072-11.209-6.9846 9.5048h6.9846z"/></g></g></g></svg>
