<?xml version="1.0" encoding="UTF-8" standalone="no"?>
<!DOCTYPE svg PUBLIC "-//W3C//DTD SVG 1.1//EN"
 "http://www.w3.org/Graphics/SVG/1.1/DTD/svg11.dtd">
<!-- Generated by graphviz version 2.43.20200408.0903 (20200408.0903)
 -->
<!-- Title: ngraph Pages: 1 -->
<svg width="3271pt" height="896pt"
 viewBox="0.00 0.00 3270.50 896.00" xmlns="http://www.w3.org/2000/svg" xmlns:xlink="http://www.w3.org/1999/xlink">
<g id="graph0" class="graph" transform="scale(1 1) rotate(0) translate(4 892)">
<title>ngraph</title>
<polygon fill="white" stroke="transparent" points="-4,4 -4,-892 3266.5,-892 3266.5,4 -4,4"/>
<!-- Convolution_106 -->
<g id="node1" class="node">
<title>Convolution_106</title>
<polygon fill="none" stroke="black" points="2218,-217 1958,-217 1958,-119 2218,-119 2218,-217"/>
<text text-anchor="middle" x="2088" y="-201.8" font-family="Times New Roman,serif" font-size="14.00">friendly_name: convolution</text>
<text text-anchor="middle" x="2088" y="-186.8" font-family="Times New Roman,serif" font-size="14.00">name: Convolution_106</text>
<text text-anchor="middle" x="2088" y="-171.8" font-family="Times New Roman,serif" font-size="14.00">type_name: Convolution</text>
<text text-anchor="middle" x="2088" y="-156.8" font-family="Times New Roman,serif" font-size="14.00">in0: {f32}[1,6,7,7]: MaxPool_99: out0</text>
<text text-anchor="middle" x="2088" y="-141.8" font-family="Times New Roman,serif" font-size="14.00">in1: {f32}[9,6,1,1]: FakeQuantize_105: out0</text>
<text text-anchor="middle" x="2088" y="-126.8" font-family="Times New Roman,serif" font-size="14.00">out0: {f32}[1,9,7,7]</text>
</g>
<!-- Result_108 -->
<g id="node2" class="node">
<title>Result_108</title>
<polygon fill="none" stroke="crimson" stroke-width="1.5" points="2215,-68 1961,-68 1961,0 2215,0 2215,-68"/>
<text text-anchor="middle" x="2088" y="-52.8" font-family="Times New Roman,serif" font-size="14.00">friendly_name: Result_108</text>
<text text-anchor="middle" x="2088" y="-37.8" font-family="Times New Roman,serif" font-size="14.00">type_name: Result</text>
<text text-anchor="middle" x="2088" y="-22.8" font-family="Times New Roman,serif" font-size="14.00">in0: {f32}[1,9,7,7]: Convolution_106: out0</text>
<text text-anchor="middle" x="2088" y="-7.8" font-family="Times New Roman,serif" font-size="14.00">out0: {f32}[1,9,7,7]</text>
</g>
<!-- Convolution_106&#45;&gt;Result_108 -->
<g id="edge1" class="edge">
<title>Convolution_106&#45;&gt;Result_108</title>
<path fill="none" stroke="black" d="M2088,-118.97C2088,-105.71 2088,-91.4 2088,-78.42"/>
<polygon fill="black" stroke="black" points="2091.5,-78.33 2088,-68.33 2084.5,-78.33 2091.5,-78.33"/>
<text text-anchor="middle" x="2109" y="-89.8" font-family="Times New Roman,serif" font-size="14.00"> 0 &#45;&gt; 0 </text>
</g>
<!-- MaxPool_99 -->
<g id="node3" class="node">
<title>MaxPool_99</title>
<polygon fill="none" stroke="black" points="2075,-381 1857,-381 1857,-298 2075,-298 2075,-381"/>
<text text-anchor="middle" x="1966" y="-365.8" font-family="Times New Roman,serif" font-size="14.00">friendly_name: MaxPool</text>
<text text-anchor="middle" x="1966" y="-350.8" font-family="Times New Roman,serif" font-size="14.00">name: MaxPool_99</text>
<text text-anchor="middle" x="1966" y="-335.8" font-family="Times New Roman,serif" font-size="14.00">type_name: MaxPool</text>
<text text-anchor="middle" x="1966" y="-320.8" font-family="Times New Roman,serif" font-size="14.00">in0: {f32}[1,6,9,9]: Concat_98: out0</text>
<text text-anchor="middle" x="1966" y="-305.8" font-family="Times New Roman,serif" font-size="14.00">out0: {f32}[1,6,7,7]</text>
</g>
<!-- MaxPool_99&#45;&gt;Convolution_106 -->
<g id="edge2" class="edge">
<title>MaxPool_99&#45;&gt;Convolution_106</title>
<path fill="none" stroke="black" d="M1995.22,-297.9C2010.86,-276.17 2030.37,-249.07 2047.45,-225.34"/>
<polygon fill="black" stroke="black" points="2050.38,-227.26 2053.38,-217.1 2044.7,-223.17 2050.38,-227.26"/>
<text text-anchor="middle" x="2059" y="-238.8" font-family="Times New Roman,serif" font-size="14.00"> 0 &#45;&gt; 0 </text>
</g>
<!-- FakeQuantize_105 -->
<g id="node4" class="node">
<title>FakeQuantize_105</title>
<polygon fill="none" stroke="black" points="2387.5,-411 2150.5,-411 2150.5,-268 2387.5,-268 2387.5,-411"/>
<text text-anchor="middle" x="2269" y="-395.8" font-family="Times New Roman,serif" font-size="14.00">friendly_name: fakeQuantizeOnWeights</text>
<text text-anchor="middle" x="2269" y="-380.8" font-family="Times New Roman,serif" font-size="14.00">name: FakeQuantize_105</text>
<text text-anchor="middle" x="2269" y="-365.8" font-family="Times New Roman,serif" font-size="14.00">type_name: FakeQuantize</text>
<text text-anchor="middle" x="2269" y="-350.8" font-family="Times New Roman,serif" font-size="14.00">in0: {f32}[9,6,1,1]: Constant_100: out0</text>
<text text-anchor="middle" x="2269" y="-335.8" font-family="Times New Roman,serif" font-size="14.00">in1: {f32}[9,1,1,1]: Constant_101: out0</text>
<text text-anchor="middle" x="2269" y="-320.8" font-family="Times New Roman,serif" font-size="14.00">in2: {f32}[9,1,1,1]: Constant_102: out0</text>
<text text-anchor="middle" x="2269" y="-305.8" font-family="Times New Roman,serif" font-size="14.00">in3: {f32}[9,1,1,1]: Constant_103: out0</text>
<text text-anchor="middle" x="2269" y="-290.8" font-family="Times New Roman,serif" font-size="14.00">in4: {f32}[9,1,1,1]: Constant_104: out0</text>
<text text-anchor="middle" x="2269" y="-275.8" font-family="Times New Roman,serif" font-size="14.00">out0: {f32}[9,6,1,1]</text>
</g>
<!-- FakeQuantize_105&#45;&gt;Convolution_106 -->
<g id="edge3" class="edge">
<title>FakeQuantize_105&#45;&gt;Convolution_106</title>
<path fill="none" stroke="black" d="M2193.55,-267.84C2178.02,-253.3 2161.88,-238.19 2147.04,-224.29"/>
<polygon fill="black" stroke="black" points="2149.09,-221.42 2139.4,-217.13 2144.31,-226.52 2149.09,-221.42"/>
<text text-anchor="middle" x="2195" y="-238.8" font-family="Times New Roman,serif" font-size="14.00"> 0 &#45;&gt; 1 </text>
</g>
<!-- CLONE_0 -->
<g id="node5" class="node">
<title>CLONE_0</title>
<polygon fill="none" stroke="black" stroke-dasharray="5,2" points="1914.5,-575 1697.5,-575 1697.5,-462 1914.5,-462 1914.5,-575"/>
<text text-anchor="middle" x="1806" y="-559.8" font-family="Times New Roman,serif" font-size="14.00">friendly_name: Constant_100</text>
<text text-anchor="middle" x="1806" y="-544.8" font-family="Times New Roman,serif" font-size="14.00">type_name: Constant</text>
<text text-anchor="middle" x="1806" y="-529.8" font-family="Times New Roman,serif" font-size="14.00">{f32}[9,6,1,1]</text>
<text text-anchor="middle" x="1806" y="-514.8" font-family="Times New Roman,serif" font-size="14.00">value: [54, 54, 54, 54, 54, 54, 54, 54</text>
<text text-anchor="middle" x="1806" y="-499.8" font-family="Times New Roman,serif" font-size="14.00">, 54, 54, 54, 54, 54, 54, 54, 54</text>
<text text-anchor="middle" x="1806" y="-484.8" font-family="Times New Roman,serif" font-size="14.00">, 54, 54, 54, 54, 54, 54, 54, 54</text>
<text text-anchor="middle" x="1806" y="-469.8" font-family="Times New Roman,serif" font-size="14.00">, 54, 54, 54, 54, 54, 54, 54, 54...]</text>
</g>
<!-- CLONE_0&#45;&gt;FakeQuantize_105 -->
<g id="edge4" class="edge">
<title>CLONE_0&#45;&gt;FakeQuantize_105</title>
<path fill="none" stroke="black" d="M1914.77,-465.31C1917.54,-464.17 1920.28,-463.07 1923,-462 1992.85,-434.52 2013.12,-435.71 2084,-411 2102.46,-404.56 2121.86,-397.51 2140.85,-390.42"/>
<polygon fill="black" stroke="black" points="2142.31,-393.62 2150.44,-386.83 2139.85,-387.06 2142.31,-393.62"/>
<text text-anchor="middle" x="2047" y="-432.8" font-family="Times New Roman,serif" font-size="14.00"> 0 &#45;&gt; 0 </text>
</g>
<!-- CLONE_1 -->
<g id="node6" class="node">
<title>CLONE_1</title>
<polygon fill="none" stroke="black" stroke-dasharray="5,2" points="2269.5,-560 1932.5,-560 1932.5,-477 2269.5,-477 2269.5,-560"/>
<text text-anchor="middle" x="2101" y="-544.8" font-family="Times New Roman,serif" font-size="14.00">friendly_name: Constant_101</text>
<text text-anchor="middle" x="2101" y="-529.8" font-family="Times New Roman,serif" font-size="14.00">type_name: Constant</text>
<text text-anchor="middle" x="2101" y="-514.8" font-family="Times New Roman,serif" font-size="14.00">{f32}[9,1,1,1]</text>
<text text-anchor="middle" x="2101" y="-499.8" font-family="Times New Roman,serif" font-size="14.00">value: [&#45;1.27, &#45;1.27, &#45;1.27, &#45;1.27, &#45;1.27, &#45;1.27, &#45;1.27, &#45;1.27</text>
<text text-anchor="middle" x="2101" y="-484.8" font-family="Times New Roman,serif" font-size="14.00">, &#45;1.27]</text>
</g>
<!-- CLONE_1&#45;&gt;FakeQuantize_105 -->
<g id="edge5" class="edge">
<title>CLONE_1&#45;&gt;FakeQuantize_105</title>
<path fill="none" stroke="black" d="M2139.54,-476.89C2156.02,-459.53 2175.84,-438.65 2194.96,-418.5"/>
<polygon fill="black" stroke="black" points="2197.62,-420.79 2201.97,-411.12 2192.54,-415.97 2197.62,-420.79"/>
<text text-anchor="middle" x="2206" y="-432.8" font-family="Times New Roman,serif" font-size="14.00"> 0 &#45;&gt; 1 </text>
</g>
<!-- CLONE_2 -->
<g id="node7" class="node">
<title>CLONE_2</title>
<polygon fill="none" stroke="black" stroke-dasharray="5,2" points="2588.5,-560 2287.5,-560 2287.5,-477 2588.5,-477 2588.5,-560"/>
<text text-anchor="middle" x="2438" y="-544.8" font-family="Times New Roman,serif" font-size="14.00">friendly_name: Constant_102</text>
<text text-anchor="middle" x="2438" y="-529.8" font-family="Times New Roman,serif" font-size="14.00">type_name: Constant</text>
<text text-anchor="middle" x="2438" y="-514.8" font-family="Times New Roman,serif" font-size="14.00">{f32}[9,1,1,1]</text>
<text text-anchor="middle" x="2438" y="-499.8" font-family="Times New Roman,serif" font-size="14.00">value: [1.27, 1.27, 1.27, 1.27, 1.27, 1.27, 1.27, 1.27</text>
<text text-anchor="middle" x="2438" y="-484.8" font-family="Times New Roman,serif" font-size="14.00">, 1.27]</text>
</g>
<!-- CLONE_2&#45;&gt;FakeQuantize_105 -->
<g id="edge6" class="edge">
<title>CLONE_2&#45;&gt;FakeQuantize_105</title>
<path fill="none" stroke="black" d="M2399.23,-476.89C2382.65,-459.53 2362.71,-438.65 2343.48,-418.5"/>
<polygon fill="black" stroke="black" points="2345.87,-415.94 2336.43,-411.12 2340.81,-420.77 2345.87,-415.94"/>
<text text-anchor="middle" x="2385" y="-432.8" font-family="Times New Roman,serif" font-size="14.00"> 0 &#45;&gt; 2 </text>
</g>
<!-- CLONE_3 -->
<g id="node8" class="node">
<title>CLONE_3</title>
<polygon fill="none" stroke="black" stroke-dasharray="5,2" points="2943.5,-560 2606.5,-560 2606.5,-477 2943.5,-477 2943.5,-560"/>
<text text-anchor="middle" x="2775" y="-544.8" font-family="Times New Roman,serif" font-size="14.00">friendly_name: Constant_103</text>
<text text-anchor="middle" x="2775" y="-529.8" font-family="Times New Roman,serif" font-size="14.00">type_name: Constant</text>
<text text-anchor="middle" x="2775" y="-514.8" font-family="Times New Roman,serif" font-size="14.00">{f32}[9,1,1,1]</text>
<text text-anchor="middle" x="2775" y="-499.8" font-family="Times New Roman,serif" font-size="14.00">value: [&#45;1.27, &#45;1.27, &#45;1.27, &#45;1.27, &#45;1.27, &#45;1.27, &#45;1.27, &#45;1.27</text>
<text text-anchor="middle" x="2775" y="-484.8" font-family="Times New Roman,serif" font-size="14.00">, &#45;1.27]</text>
</g>
<!-- CLONE_3&#45;&gt;FakeQuantize_105 -->
<g id="edge7" class="edge">
<title>CLONE_3&#45;&gt;FakeQuantize_105</title>
<path fill="none" stroke="black" d="M2658.91,-476.89C2580.83,-449.58 2477.84,-413.55 2397.32,-385.39"/>
<polygon fill="black" stroke="black" points="2398.21,-381.99 2387.62,-381.99 2395.9,-388.6 2398.21,-381.99"/>
<text text-anchor="middle" x="2574" y="-432.8" font-family="Times New Roman,serif" font-size="14.00"> 0 &#45;&gt; 3 </text>
</g>
<!-- CLONE_4 -->
<g id="node9" class="node">
<title>CLONE_4</title>
<polygon fill="none" stroke="black" stroke-dasharray="5,2" points="3262.5,-560 2961.5,-560 2961.5,-477 3262.5,-477 3262.5,-560"/>
<text text-anchor="middle" x="3112" y="-544.8" font-family="Times New Roman,serif" font-size="14.00">friendly_name: Constant_104</text>
<text text-anchor="middle" x="3112" y="-529.8" font-family="Times New Roman,serif" font-size="14.00">type_name: Constant</text>
<text text-anchor="middle" x="3112" y="-514.8" font-family="Times New Roman,serif" font-size="14.00">{f32}[9,1,1,1]</text>
<text text-anchor="middle" x="3112" y="-499.8" font-family="Times New Roman,serif" font-size="14.00">value: [1.27, 1.27, 1.27, 1.27, 1.27, 1.27, 1.27, 1.27</text>
<text text-anchor="middle" x="3112" y="-484.8" font-family="Times New Roman,serif" font-size="14.00">, 1.27]</text>
</g>
<!-- CLONE_4&#45;&gt;FakeQuantize_105 -->
<g id="edge8" class="edge">
<title>CLONE_4&#45;&gt;FakeQuantize_105</title>
<path fill="none" stroke="black" d="M3002.53,-476.97C2985.74,-471.5 2968.5,-466.3 2952,-462 2761.7,-412.4 2536.28,-376.64 2397.98,-357.25"/>
<polygon fill="black" stroke="black" points="2398.15,-353.74 2387.76,-355.82 2397.18,-360.67 2398.15,-353.74"/>
<text text-anchor="middle" x="2900" y="-432.8" font-family="Times New Roman,serif" font-size="14.00"> 0 &#45;&gt; 4 </text>
</g>
<!-- Concat_98 -->
<g id="node10" class="node">
<title>Concat_98</title>
<polygon fill="none" stroke="black" points="1679,-575 1425,-575 1425,-462 1679,-462 1679,-575"/>
<text text-anchor="middle" x="1552" y="-559.8" font-family="Times New Roman,serif" font-size="14.00">friendly_name: concat2</text>
<text text-anchor="middle" x="1552" y="-544.8" font-family="Times New Roman,serif" font-size="14.00">name: Concat_98</text>
<text text-anchor="middle" x="1552" y="-529.8" font-family="Times New Roman,serif" font-size="14.00">type_name: Concat</text>
<text text-anchor="middle" x="1552" y="-514.8" font-family="Times New Roman,serif" font-size="14.00">rt info: &#160;Variant::std::string</text>
<text text-anchor="middle" x="1552" y="-499.8" font-family="Times New Roman,serif" font-size="14.00">in0: {f32}[1,3,9,9]: FakeQuantize_90: out0</text>
<text text-anchor="middle" x="1552" y="-484.8" font-family="Times New Roman,serif" font-size="14.00">in1: {f32}[1,3,9,9]: FakeQuantize_96: out0</text>
<text text-anchor="middle" x="1552" y="-469.8" font-family="Times New Roman,serif" font-size="14.00">out0: {f32}[1,6,9,9]</text>
</g>
<!-- Concat_98&#45;&gt;MaxPool_99 -->
<g id="edge9" class="edge">
<title>Concat_98&#45;&gt;MaxPool_99</title>
<path fill="none" stroke="black" d="M1668.32,-461.99C1692.55,-450.8 1718.01,-439.31 1742,-429 1776.76,-414.05 1814.94,-398.62 1849.77,-384.9"/>
<polygon fill="black" stroke="black" points="1851.47,-387.99 1859.5,-381.08 1848.91,-381.48 1851.47,-387.99"/>
<text text-anchor="middle" x="1763" y="-432.8" font-family="Times New Roman,serif" font-size="14.00"> 0 &#45;&gt; 0 </text>
</g>
<!-- FakeQuantize_90 -->
<g id="node11" class="node">
<title>FakeQuantize_90</title>
<polygon fill="none" stroke="black" points="1475.5,-769 1242.5,-769 1242.5,-626 1475.5,-626 1475.5,-769"/>
<text text-anchor="middle" x="1359" y="-753.8" font-family="Times New Roman,serif" font-size="14.00">friendly_name: fakeQuantize2</text>
<text text-anchor="middle" x="1359" y="-738.8" font-family="Times New Roman,serif" font-size="14.00">name: FakeQuantize_90</text>
<text text-anchor="middle" x="1359" y="-723.8" font-family="Times New Roman,serif" font-size="14.00">type_name: FakeQuantize</text>
<text text-anchor="middle" x="1359" y="-708.8" font-family="Times New Roman,serif" font-size="14.00">in0: {f32}[1,3,9,9]: Parameter_85: out0</text>
<text text-anchor="middle" x="1359" y="-693.8" font-family="Times New Roman,serif" font-size="14.00">in1: {f32}[]: Constant_86: out0</text>
<text text-anchor="middle" x="1359" y="-678.8" font-family="Times New Roman,serif" font-size="14.00">in2: {f32}[]: Constant_87: out0</text>
<text text-anchor="middle" x="1359" y="-663.8" font-family="Times New Roman,serif" font-size="14.00">in3: {f32}[]: Constant_88: out0</text>
<text text-anchor="middle" x="1359" y="-648.8" font-family="Times New Roman,serif" font-size="14.00">in4: {f32}[]: Constant_89: out0</text>
<text text-anchor="middle" x="1359" y="-633.8" font-family="Times New Roman,serif" font-size="14.00">out0: {f32}[1,3,9,9]</text>
</g>
<!-- FakeQuantize_90&#45;&gt;Concat_98 -->
<g id="edge10" class="edge">
<title>FakeQuantize_90&#45;&gt;Concat_98</title>
<path fill="none" stroke="black" d="M1436.11,-625.78C1451.9,-611.3 1468.41,-596.16 1483.86,-581.99"/>
<polygon fill="black" stroke="black" points="1486.35,-584.46 1491.35,-575.12 1481.62,-579.3 1486.35,-584.46"/>
<text text-anchor="middle" x="1489" y="-596.8" font-family="Times New Roman,serif" font-size="14.00"> 0 &#45;&gt; 0 </text>
</g>
<!-- Concat_97 -->
<g id="node23" class="node">
<title>Concat_97</title>
<polygon fill="none" stroke="black" points="1292,-575 1038,-575 1038,-462 1292,-462 1292,-575"/>
<text text-anchor="middle" x="1165" y="-559.8" font-family="Times New Roman,serif" font-size="14.00">friendly_name: concat1</text>
<text text-anchor="middle" x="1165" y="-544.8" font-family="Times New Roman,serif" font-size="14.00">name: Concat_97</text>
<text text-anchor="middle" x="1165" y="-529.8" font-family="Times New Roman,serif" font-size="14.00">type_name: Concat</text>
<text text-anchor="middle" x="1165" y="-514.8" font-family="Times New Roman,serif" font-size="14.00">rt info: &#160;Variant::std::string</text>
<text text-anchor="middle" x="1165" y="-499.8" font-family="Times New Roman,serif" font-size="14.00">in0: {f32}[1,3,9,9]: FakeQuantize_84: out0</text>
<text text-anchor="middle" x="1165" y="-484.8" font-family="Times New Roman,serif" font-size="14.00">in1: {f32}[1,3,9,9]: FakeQuantize_90: out0</text>
<text text-anchor="middle" x="1165" y="-469.8" font-family="Times New Roman,serif" font-size="14.00">out0: {f32}[1,6,9,9]</text>
</g>
<!-- FakeQuantize_90&#45;&gt;Concat_97 -->
<g id="edge24" class="edge">
<title>FakeQuantize_90&#45;&gt;Concat_97</title>
<path fill="none" stroke="black" d="M1281.49,-625.78C1265.62,-611.3 1249.02,-596.16 1233.49,-581.99"/>
<polygon fill="black" stroke="black" points="1235.71,-579.27 1225.96,-575.12 1230.99,-584.44 1235.71,-579.27"/>
<text text-anchor="middle" x="1283" y="-596.8" font-family="Times New Roman,serif" font-size="14.00"> 0 &#45;&gt; 1 </text>
</g>
<!-- FakeQuantize_96 -->
<g id="node12" class="node">
<title>FakeQuantize_96</title>
<polygon fill="none" stroke="black" points="2302.5,-769 2069.5,-769 2069.5,-626 2302.5,-626 2302.5,-769"/>
<text text-anchor="middle" x="2186" y="-753.8" font-family="Times New Roman,serif" font-size="14.00">friendly_name: fakeQuantize3</text>
<text text-anchor="middle" x="2186" y="-738.8" font-family="Times New Roman,serif" font-size="14.00">name: FakeQuantize_96</text>
<text text-anchor="middle" x="2186" y="-723.8" font-family="Times New Roman,serif" font-size="14.00">type_name: FakeQuantize</text>
<text text-anchor="middle" x="2186" y="-708.8" font-family="Times New Roman,serif" font-size="14.00">in0: {f32}[1,3,9,9]: Parameter_91: out0</text>
<text text-anchor="middle" x="2186" y="-693.8" font-family="Times New Roman,serif" font-size="14.00">in1: {f32}[]: Constant_92: out0</text>
<text text-anchor="middle" x="2186" y="-678.8" font-family="Times New Roman,serif" font-size="14.00">in2: {f32}[]: Constant_93: out0</text>
<text text-anchor="middle" x="2186" y="-663.8" font-family="Times New Roman,serif" font-size="14.00">in3: {f32}[]: Constant_94: out0</text>
<text text-anchor="middle" x="2186" y="-648.8" font-family="Times New Roman,serif" font-size="14.00">in4: {f32}[]: Constant_95: out0</text>
<text text-anchor="middle" x="2186" y="-633.8" font-family="Times New Roman,serif" font-size="14.00">out0: {f32}[1,3,9,9]</text>
</g>
<!-- FakeQuantize_96&#45;&gt;Concat_98 -->
<g id="edge11" class="edge">
<title>FakeQuantize_96&#45;&gt;Concat_98</title>
<path fill="none" stroke="black" d="M2069.42,-673.18C1970.01,-652.11 1823.53,-618.26 1688.87,-575.19"/>
<polygon fill="black" stroke="black" points="1689.79,-571.81 1679.2,-572.07 1687.64,-578.47 1689.79,-571.81"/>
<text text-anchor="middle" x="1817" y="-596.8" font-family="Times New Roman,serif" font-size="14.00"> 0 &#45;&gt; 1 </text>
</g>
<!-- CLONE_5 -->
<g id="node13" class="node">
<title>CLONE_5</title>
<polygon fill="none" stroke="blue" stroke-dasharray="5,2" points="1986,-888 1846,-888 1846,-820 1986,-820 1986,-888"/>
<text text-anchor="middle" x="1916" y="-872.8" font-family="Times New Roman,serif" font-size="14.00">friendly_name: input3</text>
<text text-anchor="middle" x="1916" y="-857.8" font-family="Times New Roman,serif" font-size="14.00">name: Parameter_91</text>
<text text-anchor="middle" x="1916" y="-842.8" font-family="Times New Roman,serif" font-size="14.00">type_name: Parameter</text>
<text text-anchor="middle" x="1916" y="-827.8" font-family="Times New Roman,serif" font-size="14.00">{f32}[1,3,9,9]</text>
</g>
<!-- CLONE_5&#45;&gt;FakeQuantize_96 -->
<g id="edge12" class="edge">
<title>CLONE_5&#45;&gt;FakeQuantize_96</title>
<path fill="none" stroke="black" d="M1973.92,-819.86C1999.31,-805.33 2030.16,-787.67 2060.38,-770.38"/>
<polygon fill="black" stroke="black" points="2062.37,-773.28 2069.31,-765.27 2058.89,-767.2 2062.37,-773.28"/>
<text text-anchor="middle" x="2048" y="-790.8" font-family="Times New Roman,serif" font-size="14.00"> 0 &#45;&gt; 0 </text>
</g>
<!-- CLONE_6 -->
<g id="node14" class="node">
<title>CLONE_6</title>
<polygon fill="none" stroke="black" stroke-dasharray="5,2" points="2177.5,-888 2004.5,-888 2004.5,-820 2177.5,-820 2177.5,-888"/>
<text text-anchor="middle" x="2091" y="-872.8" font-family="Times New Roman,serif" font-size="14.00">friendly_name: Constant_92</text>
<text text-anchor="middle" x="2091" y="-857.8" font-family="Times New Roman,serif" font-size="14.00">type_name: Constant</text>
<text text-anchor="middle" x="2091" y="-842.8" font-family="Times New Roman,serif" font-size="14.00">{f32}[]</text>
<text text-anchor="middle" x="2091" y="-827.8" font-family="Times New Roman,serif" font-size="14.00">value: [&#45;1.28]</text>
</g>
<!-- CLONE_6&#45;&gt;FakeQuantize_96 -->
<g id="edge13" class="edge">
<title>CLONE_6&#45;&gt;FakeQuantize_96</title>
<path fill="none" stroke="black" d="M2111.38,-819.86C2119.04,-807.4 2128.11,-792.65 2137.24,-777.8"/>
<polygon fill="black" stroke="black" points="2140.36,-779.41 2142.61,-769.06 2134.39,-775.75 2140.36,-779.41"/>
<text text-anchor="middle" x="2151" y="-790.8" font-family="Times New Roman,serif" font-size="14.00"> 0 &#45;&gt; 1 </text>
</g>
<!-- CLONE_7 -->
<g id="node15" class="node">
<title>CLONE_7</title>
<polygon fill="none" stroke="black" stroke-dasharray="5,2" points="2368.5,-888 2195.5,-888 2195.5,-820 2368.5,-820 2368.5,-888"/>
<text text-anchor="middle" x="2282" y="-872.8" font-family="Times New Roman,serif" font-size="14.00">friendly_name: Constant_93</text>
<text text-anchor="middle" x="2282" y="-857.8" font-family="Times New Roman,serif" font-size="14.00">type_name: Constant</text>
<text text-anchor="middle" x="2282" y="-842.8" font-family="Times New Roman,serif" font-size="14.00">{f32}[]</text>
<text text-anchor="middle" x="2282" y="-827.8" font-family="Times New Roman,serif" font-size="14.00">value: [1.27]</text>
</g>
<!-- CLONE_7&#45;&gt;FakeQuantize_96 -->
<g id="edge14" class="edge">
<title>CLONE_7&#45;&gt;FakeQuantize_96</title>
<path fill="none" stroke="black" d="M2261.41,-819.86C2253.67,-807.4 2244.5,-792.65 2235.27,-777.8"/>
<polygon fill="black" stroke="black" points="2238.09,-775.71 2229.84,-769.06 2232.15,-779.4 2238.09,-775.71"/>
<text text-anchor="middle" x="2270" y="-790.8" font-family="Times New Roman,serif" font-size="14.00"> 0 &#45;&gt; 2 </text>
</g>
<!-- CLONE_8 -->
<g id="node16" class="node">
<title>CLONE_8</title>
<polygon fill="none" stroke="black" stroke-dasharray="5,2" points="2559.5,-888 2386.5,-888 2386.5,-820 2559.5,-820 2559.5,-888"/>
<text text-anchor="middle" x="2473" y="-872.8" font-family="Times New Roman,serif" font-size="14.00">friendly_name: Constant_94</text>
<text text-anchor="middle" x="2473" y="-857.8" font-family="Times New Roman,serif" font-size="14.00">type_name: Constant</text>
<text text-anchor="middle" x="2473" y="-842.8" font-family="Times New Roman,serif" font-size="14.00">{f32}[]</text>
<text text-anchor="middle" x="2473" y="-827.8" font-family="Times New Roman,serif" font-size="14.00">value: [&#45;1.28]</text>
</g>
<!-- CLONE_8&#45;&gt;FakeQuantize_96 -->
<g id="edge15" class="edge">
<title>CLONE_8&#45;&gt;FakeQuantize_96</title>
<path fill="none" stroke="black" d="M2411.43,-819.86C2382.33,-804.19 2346.46,-784.88 2311.96,-766.31"/>
<polygon fill="black" stroke="black" points="2313.22,-763.01 2302.75,-761.35 2309.9,-769.17 2313.22,-763.01"/>
<text text-anchor="middle" x="2393" y="-790.8" font-family="Times New Roman,serif" font-size="14.00"> 0 &#45;&gt; 3 </text>
</g>
<!-- CLONE_9 -->
<g id="node17" class="node">
<title>CLONE_9</title>
<polygon fill="none" stroke="black" stroke-dasharray="5,2" points="2750.5,-888 2577.5,-888 2577.5,-820 2750.5,-820 2750.5,-888"/>
<text text-anchor="middle" x="2664" y="-872.8" font-family="Times New Roman,serif" font-size="14.00">friendly_name: Constant_95</text>
<text text-anchor="middle" x="2664" y="-857.8" font-family="Times New Roman,serif" font-size="14.00">type_name: Constant</text>
<text text-anchor="middle" x="2664" y="-842.8" font-family="Times New Roman,serif" font-size="14.00">{f32}[]</text>
<text text-anchor="middle" x="2664" y="-827.8" font-family="Times New Roman,serif" font-size="14.00">value: [1.27]</text>
</g>
<!-- CLONE_9&#45;&gt;FakeQuantize_96 -->
<g id="edge16" class="edge">
<title>CLONE_9&#45;&gt;FakeQuantize_96</title>
<path fill="none" stroke="black" d="M2577.42,-823.14C2574.24,-822.07 2571.1,-821.02 2568,-820 2483.11,-791.91 2387.21,-761.42 2312.73,-738"/>
<polygon fill="black" stroke="black" points="2313.42,-734.55 2302.83,-734.89 2311.33,-741.23 2313.42,-734.55"/>
<text text-anchor="middle" x="2527" y="-790.8" font-family="Times New Roman,serif" font-size="14.00"> 0 &#45;&gt; 4 </text>
</g>
<!-- CLONE_10 -->
<g id="node18" class="node">
<title>CLONE_10</title>
<polygon fill="none" stroke="blue" stroke-dasharray="5,2" points="1063,-888 923,-888 923,-820 1063,-820 1063,-888"/>
<text text-anchor="middle" x="993" y="-872.8" font-family="Times New Roman,serif" font-size="14.00">friendly_name: input2</text>
<text text-anchor="middle" x="993" y="-857.8" font-family="Times New Roman,serif" font-size="14.00">name: Parameter_85</text>
<text text-anchor="middle" x="993" y="-842.8" font-family="Times New Roman,serif" font-size="14.00">type_name: Parameter</text>
<text text-anchor="middle" x="993" y="-827.8" font-family="Times New Roman,serif" font-size="14.00">{f32}[1,3,9,9]</text>
</g>
<!-- CLONE_10&#45;&gt;FakeQuantize_90 -->
<g id="edge17" class="edge">
<title>CLONE_10&#45;&gt;FakeQuantize_90</title>
<path fill="none" stroke="black" d="M1063.14,-823.39C1111.11,-803.14 1176.07,-775.72 1232.89,-751.73"/>
<polygon fill="black" stroke="black" points="1234.45,-754.87 1242.3,-747.76 1231.73,-748.43 1234.45,-754.87"/>
<text text-anchor="middle" x="1165" y="-790.8" font-family="Times New Roman,serif" font-size="14.00"> 0 &#45;&gt; 0 </text>
</g>
<!-- CLONE_11 -->
<g id="node19" class="node">
<title>CLONE_11</title>
<polygon fill="none" stroke="black" stroke-dasharray="5,2" points="1254.5,-888 1081.5,-888 1081.5,-820 1254.5,-820 1254.5,-888"/>
<text text-anchor="middle" x="1168" y="-872.8" font-family="Times New Roman,serif" font-size="14.00">friendly_name: Constant_86</text>
<text text-anchor="middle" x="1168" y="-857.8" font-family="Times New Roman,serif" font-size="14.00">type_name: Constant</text>
<text text-anchor="middle" x="1168" y="-842.8" font-family="Times New Roman,serif" font-size="14.00">{f32}[]</text>
<text text-anchor="middle" x="1168" y="-827.8" font-family="Times New Roman,serif" font-size="14.00">value: [&#45;0.64]</text>
</g>
<!-- CLONE_11&#45;&gt;FakeQuantize_90 -->
<g id="edge18" class="edge">
<title>CLONE_11&#45;&gt;FakeQuantize_90</title>
<path fill="none" stroke="black" d="M1208.97,-819.86C1225.16,-806.76 1244.49,-791.13 1263.8,-775.51"/>
<polygon fill="black" stroke="black" points="1266.2,-778.07 1271.77,-769.06 1261.79,-772.63 1266.2,-778.07"/>
<text text-anchor="middle" x="1268" y="-790.8" font-family="Times New Roman,serif" font-size="14.00"> 0 &#45;&gt; 1 </text>
</g>
<!-- CLONE_12 -->
<g id="node20" class="node">
<title>CLONE_12</title>
<polygon fill="none" stroke="black" stroke-dasharray="5,2" points="1445.5,-888 1272.5,-888 1272.5,-820 1445.5,-820 1445.5,-888"/>
<text text-anchor="middle" x="1359" y="-872.8" font-family="Times New Roman,serif" font-size="14.00">friendly_name: Constant_87</text>
<text text-anchor="middle" x="1359" y="-857.8" font-family="Times New Roman,serif" font-size="14.00">type_name: Constant</text>
<text text-anchor="middle" x="1359" y="-842.8" font-family="Times New Roman,serif" font-size="14.00">{f32}[]</text>
<text text-anchor="middle" x="1359" y="-827.8" font-family="Times New Roman,serif" font-size="14.00">value: [0.635]</text>
</g>
<!-- CLONE_12&#45;&gt;FakeQuantize_90 -->
<g id="edge19" class="edge">
<title>CLONE_12&#45;&gt;FakeQuantize_90</title>
<path fill="none" stroke="black" d="M1359,-819.86C1359,-807.87 1359,-793.75 1359,-779.47"/>
<polygon fill="black" stroke="black" points="1362.5,-779.06 1359,-769.06 1355.5,-779.06 1362.5,-779.06"/>
<text text-anchor="middle" x="1380" y="-790.8" font-family="Times New Roman,serif" font-size="14.00"> 0 &#45;&gt; 2 </text>
</g>
<!-- CLONE_13 -->
<g id="node21" class="node">
<title>CLONE_13</title>
<polygon fill="none" stroke="black" stroke-dasharray="5,2" points="1636.5,-888 1463.5,-888 1463.5,-820 1636.5,-820 1636.5,-888"/>
<text text-anchor="middle" x="1550" y="-872.8" font-family="Times New Roman,serif" font-size="14.00">friendly_name: Constant_88</text>
<text text-anchor="middle" x="1550" y="-857.8" font-family="Times New Roman,serif" font-size="14.00">type_name: Constant</text>
<text text-anchor="middle" x="1550" y="-842.8" font-family="Times New Roman,serif" font-size="14.00">{f32}[]</text>
<text text-anchor="middle" x="1550" y="-827.8" font-family="Times New Roman,serif" font-size="14.00">value: [&#45;0.64]</text>
</g>
<!-- CLONE_13&#45;&gt;FakeQuantize_90 -->
<g id="edge20" class="edge">
<title>CLONE_13&#45;&gt;FakeQuantize_90</title>
<path fill="none" stroke="black" d="M1509.03,-819.86C1492.84,-806.76 1473.51,-791.13 1454.2,-775.51"/>
<polygon fill="black" stroke="black" points="1456.21,-772.63 1446.23,-769.06 1451.8,-778.07 1456.21,-772.63"/>
<text text-anchor="middle" x="1504" y="-790.8" font-family="Times New Roman,serif" font-size="14.00"> 0 &#45;&gt; 3 </text>
</g>
<!-- CLONE_14 -->
<g id="node22" class="node">
<title>CLONE_14</title>
<polygon fill="none" stroke="black" stroke-dasharray="5,2" points="1827.5,-888 1654.5,-888 1654.5,-820 1827.5,-820 1827.5,-888"/>
<text text-anchor="middle" x="1741" y="-872.8" font-family="Times New Roman,serif" font-size="14.00">friendly_name: Constant_89</text>
<text text-anchor="middle" x="1741" y="-857.8" font-family="Times New Roman,serif" font-size="14.00">type_name: Constant</text>
<text text-anchor="middle" x="1741" y="-842.8" font-family="Times New Roman,serif" font-size="14.00">{f32}[]</text>
<text text-anchor="middle" x="1741" y="-827.8" font-family="Times New Roman,serif" font-size="14.00">value: [0.635]</text>
</g>
<!-- CLONE_14&#45;&gt;FakeQuantize_90 -->
<g id="edge21" class="edge">
<title>CLONE_14&#45;&gt;FakeQuantize_90</title>
<path fill="none" stroke="black" d="M1659.05,-819.86C1608.38,-799.36 1542.31,-772.64 1485.07,-749.49"/>
<polygon fill="black" stroke="black" points="1486.18,-746.16 1475.6,-745.66 1483.56,-752.65 1486.18,-746.16"/>
<text text-anchor="middle" x="1628" y="-790.8" font-family="Times New Roman,serif" font-size="14.00"> 0 &#45;&gt; 4 </text>
</g>
<!-- Result_107 -->
<g id="node24" class="node">
<title>Result_107</title>
<polygon fill="none" stroke="crimson" stroke-width="1.5" points="1274,-373.5 1056,-373.5 1056,-305.5 1274,-305.5 1274,-373.5"/>
<text text-anchor="middle" x="1165" y="-358.3" font-family="Times New Roman,serif" font-size="14.00">friendly_name: Result_107</text>
<text text-anchor="middle" x="1165" y="-343.3" font-family="Times New Roman,serif" font-size="14.00">type_name: Result</text>
<text text-anchor="middle" x="1165" y="-328.3" font-family="Times New Roman,serif" font-size="14.00">in0: {f32}[1,6,9,9]: Concat_97: out0</text>
<text text-anchor="middle" x="1165" y="-313.3" font-family="Times New Roman,serif" font-size="14.00">out0: {f32}[1,6,9,9]</text>
</g>
<!-- Concat_97&#45;&gt;Result_107 -->
<g id="edge22" class="edge">
<title>Concat_97&#45;&gt;Result_107</title>
<path fill="none" stroke="black" d="M1165,-461.98C1165,-436.72 1165,-407.28 1165,-383.71"/>
<polygon fill="black" stroke="black" points="1168.5,-383.66 1165,-373.66 1161.5,-383.66 1168.5,-383.66"/>
<text text-anchor="middle" x="1186" y="-432.8" font-family="Times New Roman,serif" font-size="14.00"> 0 &#45;&gt; 0 </text>
</g>
<!-- FakeQuantize_84 -->
<g id="node25" class="node">
<title>FakeQuantize_84</title>
<polygon fill="none" stroke="black" points="648.5,-769 415.5,-769 415.5,-626 648.5,-626 648.5,-769"/>
<text text-anchor="middle" x="532" y="-753.8" font-family="Times New Roman,serif" font-size="14.00">friendly_name: fakeQuantize1</text>
<text text-anchor="middle" x="532" y="-738.8" font-family="Times New Roman,serif" font-size="14.00">name: FakeQuantize_84</text>
<text text-anchor="middle" x="532" y="-723.8" font-family="Times New Roman,serif" font-size="14.00">type_name: FakeQuantize</text>
<text text-anchor="middle" x="532" y="-708.8" font-family="Times New Roman,serif" font-size="14.00">in0: {f32}[1,3,9,9]: Parameter_79: out0</text>
<text text-anchor="middle" x="532" y="-693.8" font-family="Times New Roman,serif" font-size="14.00">in1: {f32}[]: Constant_80: out0</text>
<text text-anchor="middle" x="532" y="-678.8" font-family="Times New Roman,serif" font-size="14.00">in2: {f32}[]: Constant_81: out0</text>
<text text-anchor="middle" x="532" y="-663.8" font-family="Times New Roman,serif" font-size="14.00">in3: {f32}[]: Constant_82: out0</text>
<text text-anchor="middle" x="532" y="-648.8" font-family="Times New Roman,serif" font-size="14.00">in4: {f32}[]: Constant_83: out0</text>
<text text-anchor="middle" x="532" y="-633.8" font-family="Times New Roman,serif" font-size="14.00">out0: {f32}[1,3,9,9]</text>
</g>
<!-- FakeQuantize_84&#45;&gt;Concat_97 -->
<g id="edge23" class="edge">
<title>FakeQuantize_84&#45;&gt;Concat_97</title>
<path fill="none" stroke="black" d="M648.84,-663.83C756.1,-633.84 915.06,-589.39 1028.2,-557.75"/>
<polygon fill="black" stroke="black" points="1029.29,-561.08 1037.98,-555.02 1027.4,-554.34 1029.29,-561.08"/>
<text text-anchor="middle" x="908" y="-596.8" font-family="Times New Roman,serif" font-size="14.00"> 0 &#45;&gt; 0 </text>
</g>
<!-- CLONE_15 -->
<g id="node26" class="node">
<title>CLONE_15</title>
<polygon fill="none" stroke="blue" stroke-dasharray="5,2" points="140,-888 0,-888 0,-820 140,-820 140,-888"/>
<text text-anchor="middle" x="70" y="-872.8" font-family="Times New Roman,serif" font-size="14.00">friendly_name: input1</text>
<text text-anchor="middle" x="70" y="-857.8" font-family="Times New Roman,serif" font-size="14.00">name: Parameter_79</text>
<text text-anchor="middle" x="70" y="-842.8" font-family="Times New Roman,serif" font-size="14.00">type_name: Parameter</text>
<text text-anchor="middle" x="70" y="-827.8" font-family="Times New Roman,serif" font-size="14.00">{f32}[1,3,9,9]</text>
</g>
<!-- CLONE_15&#45;&gt;FakeQuantize_84 -->
<g id="edge25" class="edge">
<title>CLONE_15&#45;&gt;FakeQuantize_84</title>
<path fill="none" stroke="black" d="M140.08,-823.35C143.09,-822.19 146.07,-821.07 149,-820 233.62,-788.97 330.38,-758.32 405.47,-735.56"/>
<polygon fill="black" stroke="black" points="406.89,-738.79 415.45,-732.54 404.87,-732.09 406.89,-738.79"/>
<text text-anchor="middle" x="264" y="-790.8" font-family="Times New Roman,serif" font-size="14.00"> 0 &#45;&gt; 0 </text>
</g>
<!-- CLONE_16 -->
<g id="node27" class="node">
<title>CLONE_16</title>
<polygon fill="none" stroke="black" stroke-dasharray="5,2" points="331.5,-888 158.5,-888 158.5,-820 331.5,-820 331.5,-888"/>
<text text-anchor="middle" x="245" y="-872.8" font-family="Times New Roman,serif" font-size="14.00">friendly_name: Constant_80</text>
<text text-anchor="middle" x="245" y="-857.8" font-family="Times New Roman,serif" font-size="14.00">type_name: Constant</text>
<text text-anchor="middle" x="245" y="-842.8" font-family="Times New Roman,serif" font-size="14.00">{f32}[]</text>
<text text-anchor="middle" x="245" y="-827.8" font-family="Times New Roman,serif" font-size="14.00">value: [&#45;0.426667]</text>
</g>
<!-- CLONE_16&#45;&gt;FakeQuantize_84 -->
<g id="edge26" class="edge">
<title>CLONE_16&#45;&gt;FakeQuantize_84</title>
<path fill="none" stroke="black" d="M306.57,-819.86C335.67,-804.19 371.54,-784.88 406.04,-766.31"/>
<polygon fill="black" stroke="black" points="408.1,-769.17 415.25,-761.35 404.78,-763.01 408.1,-769.17"/>
<text text-anchor="middle" x="384" y="-790.8" font-family="Times New Roman,serif" font-size="14.00"> 0 &#45;&gt; 1 </text>
</g>
<!-- CLONE_17 -->
<g id="node28" class="node">
<title>CLONE_17</title>
<polygon fill="none" stroke="black" stroke-dasharray="5,2" points="522.5,-888 349.5,-888 349.5,-820 522.5,-820 522.5,-888"/>
<text text-anchor="middle" x="436" y="-872.8" font-family="Times New Roman,serif" font-size="14.00">friendly_name: Constant_81</text>
<text text-anchor="middle" x="436" y="-857.8" font-family="Times New Roman,serif" font-size="14.00">type_name: Constant</text>
<text text-anchor="middle" x="436" y="-842.8" font-family="Times New Roman,serif" font-size="14.00">{f32}[]</text>
<text text-anchor="middle" x="436" y="-827.8" font-family="Times New Roman,serif" font-size="14.00">value: [0.423333]</text>
</g>
<!-- CLONE_17&#45;&gt;FakeQuantize_84 -->
<g id="edge27" class="edge">
<title>CLONE_17&#45;&gt;FakeQuantize_84</title>
<path fill="none" stroke="black" d="M456.59,-819.86C464.33,-807.4 473.5,-792.65 482.73,-777.8"/>
<polygon fill="black" stroke="black" points="485.85,-779.4 488.16,-769.06 479.91,-775.71 485.85,-779.4"/>
<text text-anchor="middle" x="497" y="-790.8" font-family="Times New Roman,serif" font-size="14.00"> 0 &#45;&gt; 2 </text>
</g>
<!-- CLONE_18 -->
<g id="node29" class="node">
<title>CLONE_18</title>
<polygon fill="none" stroke="black" stroke-dasharray="5,2" points="713.5,-888 540.5,-888 540.5,-820 713.5,-820 713.5,-888"/>
<text text-anchor="middle" x="627" y="-872.8" font-family="Times New Roman,serif" font-size="14.00">friendly_name: Constant_82</text>
<text text-anchor="middle" x="627" y="-857.8" font-family="Times New Roman,serif" font-size="14.00">type_name: Constant</text>
<text text-anchor="middle" x="627" y="-842.8" font-family="Times New Roman,serif" font-size="14.00">{f32}[]</text>
<text text-anchor="middle" x="627" y="-827.8" font-family="Times New Roman,serif" font-size="14.00">value: [&#45;0.426667]</text>
</g>
<!-- CLONE_18&#45;&gt;FakeQuantize_84 -->
<g id="edge28" class="edge">
<title>CLONE_18&#45;&gt;FakeQuantize_84</title>
<path fill="none" stroke="black" d="M606.62,-819.86C598.96,-807.4 589.89,-792.65 580.76,-777.8"/>
<polygon fill="black" stroke="black" points="583.61,-775.75 575.39,-769.06 577.64,-779.41 583.61,-775.75"/>
<text text-anchor="middle" x="615" y="-790.8" font-family="Times New Roman,serif" font-size="14.00"> 0 &#45;&gt; 3 </text>
</g>
<!-- CLONE_19 -->
<g id="node30" class="node">
<title>CLONE_19</title>
<polygon fill="none" stroke="black" stroke-dasharray="5,2" points="904.5,-888 731.5,-888 731.5,-820 904.5,-820 904.5,-888"/>
<text text-anchor="middle" x="818" y="-872.8" font-family="Times New Roman,serif" font-size="14.00">friendly_name: Constant_83</text>
<text text-anchor="middle" x="818" y="-857.8" font-family="Times New Roman,serif" font-size="14.00">type_name: Constant</text>
<text text-anchor="middle" x="818" y="-842.8" font-family="Times New Roman,serif" font-size="14.00">{f32}[]</text>
<text text-anchor="middle" x="818" y="-827.8" font-family="Times New Roman,serif" font-size="14.00">value: [0.423333]</text>
</g>
<!-- CLONE_19&#45;&gt;FakeQuantize_84 -->
<g id="edge29" class="edge">
<title>CLONE_19&#45;&gt;FakeQuantize_84</title>
<path fill="none" stroke="black" d="M756.65,-819.86C727.72,-804.23 692.08,-784.98 657.79,-766.45"/>
<polygon fill="black" stroke="black" points="659.1,-763.18 648.64,-761.51 655.77,-769.34 659.1,-763.18"/>
<text text-anchor="middle" x="739" y="-790.8" font-family="Times New Roman,serif" font-size="14.00"> 0 &#45;&gt; 4 </text>
</g>
</g>
</svg>
