<?xml version="1.0" encoding="UTF-8" standalone="no"?>
<!DOCTYPE svg PUBLIC "-//W3C//DTD SVG 1.1//EN"
 "http://www.w3.org/Graphics/SVG/1.1/DTD/svg11.dtd">
<!-- Generated by graphviz version 2.38.0 (20140413.2041)
 -->
<!-- Title: ngraph Pages: 1 -->
<svg width="3493pt" height="926pt"
 viewBox="0.00 0.00 3492.50 926.00" xmlns="http://www.w3.org/2000/svg" xmlns:xlink="http://www.w3.org/1999/xlink">
<g id="graph0" class="graph" transform="scale(1 1) rotate(0) translate(4 922)">
<title>ngraph</title>
<polygon fill="white" stroke="none" points="-4,4 -4,-922 3488.5,-922 3488.5,4 -4,4"/>
<!-- Convolution_106 -->
<g id="node1" class="node"><title>Convolution_106</title>
<polygon fill="none" stroke="black" points="2576,-217 2316,-217 2316,-119 2576,-119 2576,-217"/>
<text text-anchor="middle" x="2446" y="-201.8" font-family="Times New Roman,serif" font-size="14.00">friendly_name: convolution</text>
<text text-anchor="middle" x="2446" y="-186.8" font-family="Times New Roman,serif" font-size="14.00">name: Convolution_106</text>
<text text-anchor="middle" x="2446" y="-171.8" font-family="Times New Roman,serif" font-size="14.00">type_name: Convolution</text>
<text text-anchor="middle" x="2446" y="-156.8" font-family="Times New Roman,serif" font-size="14.00">in0: {f32}[1,6,7,7]: MaxPool_99: out0</text>
<text text-anchor="middle" x="2446" y="-141.8" font-family="Times New Roman,serif" font-size="14.00">in1: {f32}[9,6,1,1]: FakeQuantize_105: out0</text>
<text text-anchor="middle" x="2446" y="-126.8" font-family="Times New Roman,serif" font-size="14.00">out0: {f32}[1,9,7,7]</text>
</g>
<!-- Result_108 -->
<g id="node2" class="node"><title>Result_108</title>
<polygon fill="none" stroke="crimson" stroke-width="1.5" points="2573,-68 2319,-68 2319,-0 2573,-0 2573,-68"/>
<text text-anchor="middle" x="2446" y="-52.8" font-family="Times New Roman,serif" font-size="14.00">friendly_name: Result_108</text>
<text text-anchor="middle" x="2446" y="-37.8" font-family="Times New Roman,serif" font-size="14.00">type_name: Result</text>
<text text-anchor="middle" x="2446" y="-22.8" font-family="Times New Roman,serif" font-size="14.00">in0: {f32}[1,9,7,7]: Convolution_106: out0</text>
<text text-anchor="middle" x="2446" y="-7.8" font-family="Times New Roman,serif" font-size="14.00">out0: {f32}[1,9,7,7]</text>
</g>
<!-- Convolution_106&#45;&gt;Result_108 -->
<g id="edge1" class="edge"><title>Convolution_106&#45;&gt;Result_108</title>
<path fill="none" stroke="black" d="M2446,-118.972C2446,-105.71 2446,-91.4001 2446,-78.4163"/>
<polygon fill="black" stroke="black" points="2449.5,-78.3331 2446,-68.3332 2442.5,-78.3332 2449.5,-78.3331"/>
<text text-anchor="middle" x="2467" y="-89.8" font-family="Times New Roman,serif" font-size="14.00"> 0 &#45;&gt; 0 </text>
</g>
<!-- MaxPool_99 -->
<g id="node3" class="node"><title>MaxPool_99</title>
<polygon fill="none" stroke="black" points="2033,-381 1815,-381 1815,-298 2033,-298 2033,-381"/>
<text text-anchor="middle" x="1924" y="-365.8" font-family="Times New Roman,serif" font-size="14.00">friendly_name: MaxPool</text>
<text text-anchor="middle" x="1924" y="-350.8" font-family="Times New Roman,serif" font-size="14.00">name: MaxPool_99</text>
<text text-anchor="middle" x="1924" y="-335.8" font-family="Times New Roman,serif" font-size="14.00">type_name: MaxPool</text>
<text text-anchor="middle" x="1924" y="-320.8" font-family="Times New Roman,serif" font-size="14.00">in0: {f32}[1,6,9,9]: Concat_98: out0</text>
<text text-anchor="middle" x="1924" y="-305.8" font-family="Times New Roman,serif" font-size="14.00">out0: {f32}[1,6,7,7]</text>
</g>
<!-- MaxPool_99&#45;&gt;Convolution_106 -->
<g id="edge2" class="edge"><title>MaxPool_99&#45;&gt;Convolution_106</title>
<path fill="none" stroke="black" d="M2033.11,-303.07C2112.48,-277.299 2220.58,-242.197 2306.26,-214.374"/>
<polygon fill="black" stroke="black" points="2307.37,-217.694 2315.8,-211.276 2305.21,-211.036 2307.37,-217.694"/>
<text text-anchor="middle" x="2253" y="-238.8" font-family="Times New Roman,serif" font-size="14.00"> 0 &#45;&gt; 0 </text>
</g>
<!-- FakeQuantize_105 -->
<g id="node4" class="node"><title>FakeQuantize_105</title>
<polygon fill="none" stroke="black" points="2723.5,-411 2486.5,-411 2486.5,-268 2723.5,-268 2723.5,-411"/>
<text text-anchor="middle" x="2605" y="-395.8" font-family="Times New Roman,serif" font-size="14.00">friendly_name: fakeQuantizeOnWeights</text>
<text text-anchor="middle" x="2605" y="-380.8" font-family="Times New Roman,serif" font-size="14.00">name: FakeQuantize_105</text>
<text text-anchor="middle" x="2605" y="-365.8" font-family="Times New Roman,serif" font-size="14.00">type_name: FakeQuantize</text>
<text text-anchor="middle" x="2605" y="-350.8" font-family="Times New Roman,serif" font-size="14.00">in0: {f32}[9,6,1,1]: Constant_100: out0</text>
<text text-anchor="middle" x="2605" y="-335.8" font-family="Times New Roman,serif" font-size="14.00">in1: {f32}[9,1,1,1]: Constant_101: out0</text>
<text text-anchor="middle" x="2605" y="-320.8" font-family="Times New Roman,serif" font-size="14.00">in2: {f32}[9,1,1,1]: Constant_102: out0</text>
<text text-anchor="middle" x="2605" y="-305.8" font-family="Times New Roman,serif" font-size="14.00">in3: {f32}[9,1,1,1]: Constant_103: out0</text>
<text text-anchor="middle" x="2605" y="-290.8" font-family="Times New Roman,serif" font-size="14.00">in4: {f32}[9,1,1,1]: Constant_104: out0</text>
<text text-anchor="middle" x="2605" y="-275.8" font-family="Times New Roman,serif" font-size="14.00">out0: {f32}[9,6,1,1]</text>
</g>
<!-- FakeQuantize_105&#45;&gt;Convolution_106 -->
<g id="edge3" class="edge"><title>FakeQuantize_105&#45;&gt;Convolution_106</title>
<path fill="none" stroke="black" d="M2538.49,-267.599C2525.06,-253.285 2511.13,-238.43 2498.27,-224.726"/>
<polygon fill="black" stroke="black" points="2500.65,-222.141 2491.25,-217.242 2495.54,-226.93 2500.65,-222.141"/>
<text text-anchor="middle" x="2542" y="-238.8" font-family="Times New Roman,serif" font-size="14.00"> 0 &#45;&gt; 1 </text>
</g>
<!-- CLONE_0 -->
<g id="node5" class="node"><title>CLONE_0</title>
<polygon fill="none" stroke="black" stroke-dasharray="5,2" points="2136,-590 1956,-590 1956,-462 2136,-462 2136,-590"/>
<text text-anchor="middle" x="2046" y="-574.8" font-family="Times New Roman,serif" font-size="14.00">friendly_name: Constant_100</text>
<text text-anchor="middle" x="2046" y="-559.8" font-family="Times New Roman,serif" font-size="14.00">type_name: Constant</text>
<text text-anchor="middle" x="2046" y="-544.8" font-family="Times New Roman,serif" font-size="14.00">{f32}[9,6,1,1]</text>
<text text-anchor="middle" x="2046" y="-529.8" font-family="Times New Roman,serif" font-size="14.00">value: [1, 1, 1, 1, 1, 1, 1, 1</text>
<text text-anchor="middle" x="2046" y="-514.8" font-family="Times New Roman,serif" font-size="14.00">, 1, 1, 1, 1, 1, 1, 1, 1</text>
<text text-anchor="middle" x="2046" y="-499.8" font-family="Times New Roman,serif" font-size="14.00">, 1, 1, 1, 1, 1, 1, 1, 1</text>
<text text-anchor="middle" x="2046" y="-484.8" font-family="Times New Roman,serif" font-size="14.00">, 1, 1, 1, 1, 1, 1, 1, 1...</text>
<text text-anchor="middle" x="2046" y="-469.8" font-family="Times New Roman,serif" font-size="14.00">(min: 1, max: 1)]</text>
</g>
<!-- CLONE_0&#45;&gt;FakeQuantize_105 -->
<g id="edge4" class="edge"><title>CLONE_0&#45;&gt;FakeQuantize_105</title>
<path fill="none" stroke="black" d="M2136.01,-466.153C2139.01,-464.696 2142.01,-463.307 2145,-462 2252.44,-414.988 2382.19,-382.751 2476.46,-363.36"/>
<polygon fill="black" stroke="black" points="2477.23,-366.775 2486.33,-361.35 2475.84,-359.915 2477.23,-366.775"/>
<text text-anchor="middle" x="2251" y="-432.8" font-family="Times New Roman,serif" font-size="14.00"> 0 &#45;&gt; 0 </text>
</g>
<!-- CLONE_1 -->
<g id="node6" class="node"><title>CLONE_1</title>
<polygon fill="none" stroke="black" stroke-dasharray="5,2" points="2491.5,-575 2154.5,-575 2154.5,-477 2491.5,-477 2491.5,-575"/>
<text text-anchor="middle" x="2323" y="-559.8" font-family="Times New Roman,serif" font-size="14.00">friendly_name: Constant_101</text>
<text text-anchor="middle" x="2323" y="-544.8" font-family="Times New Roman,serif" font-size="14.00">type_name: Constant</text>
<text text-anchor="middle" x="2323" y="-529.8" font-family="Times New Roman,serif" font-size="14.00">{f32}[9,1,1,1]</text>
<text text-anchor="middle" x="2323" y="-514.8" font-family="Times New Roman,serif" font-size="14.00">value: [&#45;1.27, &#45;1.27, &#45;1.27, &#45;1.27, &#45;1.27, &#45;1.27, &#45;1.27, &#45;1.27</text>
<text text-anchor="middle" x="2323" y="-499.8" font-family="Times New Roman,serif" font-size="14.00">, &#45;1.27</text>
<text text-anchor="middle" x="2323" y="-484.8" font-family="Times New Roman,serif" font-size="14.00">(min: &#45;1.27, max: &#45;1.27)]</text>
</g>
<!-- CLONE_1&#45;&gt;FakeQuantize_105 -->
<g id="edge5" class="edge"><title>CLONE_1&#45;&gt;FakeQuantize_105</title>
<path fill="none" stroke="black" d="M2396.72,-476.766C2424.77,-458.418 2457.45,-437.037 2488.49,-416.724"/>
<polygon fill="black" stroke="black" points="2490.75,-419.431 2497.2,-411.027 2486.92,-413.573 2490.75,-419.431"/>
<text text-anchor="middle" x="2485" y="-432.8" font-family="Times New Roman,serif" font-size="14.00"> 0 &#45;&gt; 1 </text>
</g>
<!-- CLONE_2 -->
<g id="node7" class="node"><title>CLONE_2</title>
<polygon fill="none" stroke="black" stroke-dasharray="5,2" points="2810.5,-575 2509.5,-575 2509.5,-477 2810.5,-477 2810.5,-575"/>
<text text-anchor="middle" x="2660" y="-559.8" font-family="Times New Roman,serif" font-size="14.00">friendly_name: Constant_102</text>
<text text-anchor="middle" x="2660" y="-544.8" font-family="Times New Roman,serif" font-size="14.00">type_name: Constant</text>
<text text-anchor="middle" x="2660" y="-529.8" font-family="Times New Roman,serif" font-size="14.00">{f32}[9,1,1,1]</text>
<text text-anchor="middle" x="2660" y="-514.8" font-family="Times New Roman,serif" font-size="14.00">value: [1.27, 1.27, 1.27, 1.27, 1.27, 1.27, 1.27, 1.27</text>
<text text-anchor="middle" x="2660" y="-499.8" font-family="Times New Roman,serif" font-size="14.00">, 1.27</text>
<text text-anchor="middle" x="2660" y="-484.8" font-family="Times New Roman,serif" font-size="14.00">(min: 1.27, max: 1.27)]</text>
</g>
<!-- CLONE_2&#45;&gt;FakeQuantize_105 -->
<g id="edge6" class="edge"><title>CLONE_2&#45;&gt;FakeQuantize_105</title>
<path fill="none" stroke="black" d="M2645.55,-476.525C2640.48,-459.523 2634.64,-439.939 2629,-421.024"/>
<polygon fill="black" stroke="black" points="2632.29,-419.793 2626.08,-411.21 2625.58,-421.793 2632.29,-419.793"/>
<text text-anchor="middle" x="2657" y="-432.8" font-family="Times New Roman,serif" font-size="14.00"> 0 &#45;&gt; 2 </text>
</g>
<!-- CLONE_3 -->
<g id="node8" class="node"><title>CLONE_3</title>
<polygon fill="none" stroke="black" stroke-dasharray="5,2" points="3165.5,-575 2828.5,-575 2828.5,-477 3165.5,-477 3165.5,-575"/>
<text text-anchor="middle" x="2997" y="-559.8" font-family="Times New Roman,serif" font-size="14.00">friendly_name: Constant_103</text>
<text text-anchor="middle" x="2997" y="-544.8" font-family="Times New Roman,serif" font-size="14.00">type_name: Constant</text>
<text text-anchor="middle" x="2997" y="-529.8" font-family="Times New Roman,serif" font-size="14.00">{f32}[9,1,1,1]</text>
<text text-anchor="middle" x="2997" y="-514.8" font-family="Times New Roman,serif" font-size="14.00">value: [&#45;1.27, &#45;1.27, &#45;1.27, &#45;1.27, &#45;1.27, &#45;1.27, &#45;1.27, &#45;1.27</text>
<text text-anchor="middle" x="2997" y="-499.8" font-family="Times New Roman,serif" font-size="14.00">, &#45;1.27</text>
<text text-anchor="middle" x="2997" y="-484.8" font-family="Times New Roman,serif" font-size="14.00">(min: &#45;1.27, max: &#45;1.27)]</text>
</g>
<!-- CLONE_3&#45;&gt;FakeQuantize_105 -->
<g id="edge7" class="edge"><title>CLONE_3&#45;&gt;FakeQuantize_105</title>
<path fill="none" stroke="black" d="M2894.77,-476.886C2845.34,-453.619 2785.49,-425.452 2733.05,-400.77"/>
<polygon fill="black" stroke="black" points="2734.23,-397.455 2723.69,-396.363 2731.25,-403.789 2734.23,-397.455"/>
<text text-anchor="middle" x="2846" y="-432.8" font-family="Times New Roman,serif" font-size="14.00"> 0 &#45;&gt; 3 </text>
</g>
<!-- CLONE_4 -->
<g id="node9" class="node"><title>CLONE_4</title>
<polygon fill="none" stroke="black" stroke-dasharray="5,2" points="3484.5,-575 3183.5,-575 3183.5,-477 3484.5,-477 3484.5,-575"/>
<text text-anchor="middle" x="3334" y="-559.8" font-family="Times New Roman,serif" font-size="14.00">friendly_name: Constant_104</text>
<text text-anchor="middle" x="3334" y="-544.8" font-family="Times New Roman,serif" font-size="14.00">type_name: Constant</text>
<text text-anchor="middle" x="3334" y="-529.8" font-family="Times New Roman,serif" font-size="14.00">{f32}[9,1,1,1]</text>
<text text-anchor="middle" x="3334" y="-514.8" font-family="Times New Roman,serif" font-size="14.00">value: [1.27, 1.27, 1.27, 1.27, 1.27, 1.27, 1.27, 1.27</text>
<text text-anchor="middle" x="3334" y="-499.8" font-family="Times New Roman,serif" font-size="14.00">, 1.27</text>
<text text-anchor="middle" x="3334" y="-484.8" font-family="Times New Roman,serif" font-size="14.00">(min: 1.27, max: 1.27)]</text>
</g>
<!-- CLONE_4&#45;&gt;FakeQuantize_105 -->
<g id="edge8" class="edge"><title>CLONE_4&#45;&gt;FakeQuantize_105</title>
<path fill="none" stroke="black" d="M3218.56,-476.957C3203.7,-471.537 3188.58,-466.394 3174,-462 3025.28,-417.177 2849.93,-382.365 2733.6,-361.709"/>
<polygon fill="black" stroke="black" points="2734.04,-358.232 2723.58,-359.939 2732.82,-365.125 2734.04,-358.232"/>
<text text-anchor="middle" x="3119" y="-432.8" font-family="Times New Roman,serif" font-size="14.00"> 0 &#45;&gt; 4 </text>
</g>
<!-- Concat_98 -->
<g id="node10" class="node"><title>Concat_98</title>
<polygon fill="none" stroke="black" points="1938,-582.5 1684,-582.5 1684,-469.5 1938,-469.5 1938,-582.5"/>
<text text-anchor="middle" x="1811" y="-567.3" font-family="Times New Roman,serif" font-size="14.00">friendly_name: concat2</text>
<text text-anchor="middle" x="1811" y="-552.3" font-family="Times New Roman,serif" font-size="14.00">name: Concat_98</text>
<text text-anchor="middle" x="1811" y="-537.3" font-family="Times New Roman,serif" font-size="14.00">type_name: Concat</text>
<text text-anchor="middle" x="1811" y="-522.3" font-family="Times New Roman,serif" font-size="14.00">rt info: &#160;Variant::std::string</text>
<text text-anchor="middle" x="1811" y="-507.3" font-family="Times New Roman,serif" font-size="14.00">in0: {f32}[1,3,9,9]: FakeQuantize_90: out0</text>
<text text-anchor="middle" x="1811" y="-492.3" font-family="Times New Roman,serif" font-size="14.00">in1: {f32}[1,3,9,9]: FakeQuantize_96: out0</text>
<text text-anchor="middle" x="1811" y="-477.3" font-family="Times New Roman,serif" font-size="14.00">out0: {f32}[1,6,9,9]</text>
</g>
<!-- Concat_98&#45;&gt;MaxPool_99 -->
<g id="edge9" class="edge"><title>Concat_98&#45;&gt;MaxPool_99</title>
<path fill="none" stroke="black" d="M1845.06,-469.394C1860.57,-444.068 1878.77,-414.343 1893.79,-389.824"/>
<polygon fill="black" stroke="black" points="1896.93,-391.4 1899.17,-381.045 1890.96,-387.744 1896.93,-391.4"/>
<text text-anchor="middle" x="1889" y="-432.8" font-family="Times New Roman,serif" font-size="14.00"> 0 &#45;&gt; 0 </text>
</g>
<!-- FakeQuantize_90 -->
<g id="node11" class="node"><title>FakeQuantize_90</title>
<polygon fill="none" stroke="black" points="1590.5,-784 1357.5,-784 1357.5,-641 1590.5,-641 1590.5,-784"/>
<text text-anchor="middle" x="1474" y="-768.8" font-family="Times New Roman,serif" font-size="14.00">friendly_name: fakeQuantize2</text>
<text text-anchor="middle" x="1474" y="-753.8" font-family="Times New Roman,serif" font-size="14.00">name: FakeQuantize_90</text>
<text text-anchor="middle" x="1474" y="-738.8" font-family="Times New Roman,serif" font-size="14.00">type_name: FakeQuantize</text>
<text text-anchor="middle" x="1474" y="-723.8" font-family="Times New Roman,serif" font-size="14.00">in0: {f32}[1,3,9,9]: Parameter_85: out0</text>
<text text-anchor="middle" x="1474" y="-708.8" font-family="Times New Roman,serif" font-size="14.00">in1: {f32}[]: Constant_86: out0</text>
<text text-anchor="middle" x="1474" y="-693.8" font-family="Times New Roman,serif" font-size="14.00">in2: {f32}[]: Constant_87: out0</text>
<text text-anchor="middle" x="1474" y="-678.8" font-family="Times New Roman,serif" font-size="14.00">in3: {f32}[]: Constant_88: out0</text>
<text text-anchor="middle" x="1474" y="-663.8" font-family="Times New Roman,serif" font-size="14.00">in4: {f32}[]: Constant_89: out0</text>
<text text-anchor="middle" x="1474" y="-648.8" font-family="Times New Roman,serif" font-size="14.00">out0: {f32}[1,3,9,9]</text>
</g>
<!-- FakeQuantize_90&#45;&gt;Concat_98 -->
<g id="edge10" class="edge"><title>FakeQuantize_90&#45;&gt;Concat_98</title>
<path fill="none" stroke="black" d="M1590.92,-647.489C1626.5,-628.011 1665.47,-606.675 1700.6,-587.442"/>
<polygon fill="black" stroke="black" points="1702.35,-590.472 1709.44,-582.599 1698.99,-584.332 1702.35,-590.472"/>
<text text-anchor="middle" x="1684" y="-611.8" font-family="Times New Roman,serif" font-size="14.00"> 0 &#45;&gt; 0 </text>
</g>
<!-- Concat_97 -->
<g id="node23" class="node"><title>Concat_97</title>
<polygon fill="none" stroke="black" points="1176,-582.5 922,-582.5 922,-469.5 1176,-469.5 1176,-582.5"/>
<text text-anchor="middle" x="1049" y="-567.3" font-family="Times New Roman,serif" font-size="14.00">friendly_name: concat1</text>
<text text-anchor="middle" x="1049" y="-552.3" font-family="Times New Roman,serif" font-size="14.00">name: Concat_97</text>
<text text-anchor="middle" x="1049" y="-537.3" font-family="Times New Roman,serif" font-size="14.00">type_name: Concat</text>
<text text-anchor="middle" x="1049" y="-522.3" font-family="Times New Roman,serif" font-size="14.00">rt info: &#160;Variant::std::string</text>
<text text-anchor="middle" x="1049" y="-507.3" font-family="Times New Roman,serif" font-size="14.00">in0: {f32}[1,3,9,9]: FakeQuantize_84: out0</text>
<text text-anchor="middle" x="1049" y="-492.3" font-family="Times New Roman,serif" font-size="14.00">in1: {f32}[1,3,9,9]: FakeQuantize_90: out0</text>
<text text-anchor="middle" x="1049" y="-477.3" font-family="Times New Roman,serif" font-size="14.00">out0: {f32}[1,6,9,9]</text>
</g>
<!-- FakeQuantize_90&#45;&gt;Concat_97 -->
<g id="edge24" class="edge"><title>FakeQuantize_90&#45;&gt;Concat_97</title>
<path fill="none" stroke="black" d="M1357.3,-660.841C1304.22,-637.798 1241.06,-610.376 1185.76,-586.371"/>
<polygon fill="black" stroke="black" points="1186.82,-583.013 1176.25,-582.241 1184.03,-589.434 1186.82,-583.013"/>
<text text-anchor="middle" x="1283" y="-611.8" font-family="Times New Roman,serif" font-size="14.00"> 0 &#45;&gt; 1 </text>
</g>
<!-- FakeQuantize_96 -->
<g id="node12" class="node"><title>FakeQuantize_96</title>
<polygon fill="none" stroke="black" points="2417.5,-784 2184.5,-784 2184.5,-641 2417.5,-641 2417.5,-784"/>
<text text-anchor="middle" x="2301" y="-768.8" font-family="Times New Roman,serif" font-size="14.00">friendly_name: fakeQuantize3</text>
<text text-anchor="middle" x="2301" y="-753.8" font-family="Times New Roman,serif" font-size="14.00">name: FakeQuantize_96</text>
<text text-anchor="middle" x="2301" y="-738.8" font-family="Times New Roman,serif" font-size="14.00">type_name: FakeQuantize</text>
<text text-anchor="middle" x="2301" y="-723.8" font-family="Times New Roman,serif" font-size="14.00">in0: {f32}[1,3,9,9]: Parameter_91: out0</text>
<text text-anchor="middle" x="2301" y="-708.8" font-family="Times New Roman,serif" font-size="14.00">in1: {f32}[]: Constant_92: out0</text>
<text text-anchor="middle" x="2301" y="-693.8" font-family="Times New Roman,serif" font-size="14.00">in2: {f32}[]: Constant_93: out0</text>
<text text-anchor="middle" x="2301" y="-678.8" font-family="Times New Roman,serif" font-size="14.00">in3: {f32}[]: Constant_94: out0</text>
<text text-anchor="middle" x="2301" y="-663.8" font-family="Times New Roman,serif" font-size="14.00">in4: {f32}[]: Constant_95: out0</text>
<text text-anchor="middle" x="2301" y="-648.8" font-family="Times New Roman,serif" font-size="14.00">out0: {f32}[1,3,9,9]</text>
</g>
<!-- FakeQuantize_96&#45;&gt;Concat_98 -->
<g id="edge11" class="edge"><title>FakeQuantize_96&#45;&gt;Concat_98</title>
<path fill="none" stroke="black" d="M2184.3,-674.808C2114.75,-652.108 2025.07,-621.384 1947,-590 1944.13,-588.848 1941.24,-587.668 1938.33,-586.464"/>
<polygon fill="black" stroke="black" points="1939.57,-583.186 1928.99,-582.546 1936.86,-589.641 1939.57,-583.186"/>
<text text-anchor="middle" x="2055" y="-611.8" font-family="Times New Roman,serif" font-size="14.00"> 0 &#45;&gt; 1 </text>
</g>
<!-- CLONE_5 -->
<g id="node13" class="node"><title>CLONE_5</title>
<polygon fill="none" stroke="blue" stroke-dasharray="5,2" points="2101,-910.5 1961,-910.5 1961,-842.5 2101,-842.5 2101,-910.5"/>
<text text-anchor="middle" x="2031" y="-895.3" font-family="Times New Roman,serif" font-size="14.00">friendly_name: input3</text>
<text text-anchor="middle" x="2031" y="-880.3" font-family="Times New Roman,serif" font-size="14.00">name: Parameter_91</text>
<text text-anchor="middle" x="2031" y="-865.3" font-family="Times New Roman,serif" font-size="14.00">type_name: Parameter</text>
<text text-anchor="middle" x="2031" y="-850.3" font-family="Times New Roman,serif" font-size="14.00">{f32}[1,3,9,9]</text>
</g>
<!-- CLONE_5&#45;&gt;FakeQuantize_96 -->
<g id="edge12" class="edge"><title>CLONE_5&#45;&gt;FakeQuantize_96</title>
<path fill="none" stroke="black" d="M2086.29,-842.326C2112.24,-826.757 2144.31,-807.515 2175.68,-788.694"/>
<polygon fill="black" stroke="black" points="2177.73,-791.546 2184.5,-783.4 2174.12,-785.544 2177.73,-791.546"/>
<text text-anchor="middle" x="2171" y="-805.8" font-family="Times New Roman,serif" font-size="14.00"> 0 &#45;&gt; 0 </text>
</g>
<!-- CLONE_6 -->
<g id="node14" class="node"><title>CLONE_6</title>
<polygon fill="none" stroke="black" stroke-dasharray="5,2" points="2292.5,-918 2119.5,-918 2119.5,-835 2292.5,-835 2292.5,-918"/>
<text text-anchor="middle" x="2206" y="-902.8" font-family="Times New Roman,serif" font-size="14.00">friendly_name: Constant_92</text>
<text text-anchor="middle" x="2206" y="-887.8" font-family="Times New Roman,serif" font-size="14.00">type_name: Constant</text>
<text text-anchor="middle" x="2206" y="-872.8" font-family="Times New Roman,serif" font-size="14.00">{f32}[]</text>
<text text-anchor="middle" x="2206" y="-857.8" font-family="Times New Roman,serif" font-size="14.00">value: [&#45;1.28</text>
<text text-anchor="middle" x="2206" y="-842.8" font-family="Times New Roman,serif" font-size="14.00">(min: &#45;1.28, max: &#45;1.28)]</text>
</g>
<!-- CLONE_6&#45;&gt;FakeQuantize_96 -->
<g id="edge13" class="edge"><title>CLONE_6&#45;&gt;FakeQuantize_96</title>
<path fill="none" stroke="black" d="M2229.97,-834.621C2237.39,-821.968 2245.84,-807.568 2254.25,-793.222"/>
<polygon fill="black" stroke="black" points="2257.43,-794.709 2259.47,-784.313 2251.4,-791.168 2257.43,-794.709"/>
<text text-anchor="middle" x="2269" y="-805.8" font-family="Times New Roman,serif" font-size="14.00"> 0 &#45;&gt; 1 </text>
</g>
<!-- CLONE_7 -->
<g id="node15" class="node"><title>CLONE_7</title>
<polygon fill="none" stroke="black" stroke-dasharray="5,2" points="2483.5,-918 2310.5,-918 2310.5,-835 2483.5,-835 2483.5,-918"/>
<text text-anchor="middle" x="2397" y="-902.8" font-family="Times New Roman,serif" font-size="14.00">friendly_name: Constant_93</text>
<text text-anchor="middle" x="2397" y="-887.8" font-family="Times New Roman,serif" font-size="14.00">type_name: Constant</text>
<text text-anchor="middle" x="2397" y="-872.8" font-family="Times New Roman,serif" font-size="14.00">{f32}[]</text>
<text text-anchor="middle" x="2397" y="-857.8" font-family="Times New Roman,serif" font-size="14.00">value: [1.27</text>
<text text-anchor="middle" x="2397" y="-842.8" font-family="Times New Roman,serif" font-size="14.00">(min: 1.27, max: 1.27)]</text>
</g>
<!-- CLONE_7&#45;&gt;FakeQuantize_96 -->
<g id="edge14" class="edge"><title>CLONE_7&#45;&gt;FakeQuantize_96</title>
<path fill="none" stroke="black" d="M2372.78,-834.621C2365.28,-821.968 2356.74,-807.568 2348.24,-793.222"/>
<polygon fill="black" stroke="black" points="2351.07,-791.131 2342.96,-784.313 2345.05,-794.7 2351.07,-791.131"/>
<text text-anchor="middle" x="2382" y="-805.8" font-family="Times New Roman,serif" font-size="14.00"> 0 &#45;&gt; 2 </text>
</g>
<!-- CLONE_8 -->
<g id="node16" class="node"><title>CLONE_8</title>
<polygon fill="none" stroke="black" stroke-dasharray="5,2" points="2674.5,-918 2501.5,-918 2501.5,-835 2674.5,-835 2674.5,-918"/>
<text text-anchor="middle" x="2588" y="-902.8" font-family="Times New Roman,serif" font-size="14.00">friendly_name: Constant_94</text>
<text text-anchor="middle" x="2588" y="-887.8" font-family="Times New Roman,serif" font-size="14.00">type_name: Constant</text>
<text text-anchor="middle" x="2588" y="-872.8" font-family="Times New Roman,serif" font-size="14.00">{f32}[]</text>
<text text-anchor="middle" x="2588" y="-857.8" font-family="Times New Roman,serif" font-size="14.00">value: [&#45;1.28</text>
<text text-anchor="middle" x="2588" y="-842.8" font-family="Times New Roman,serif" font-size="14.00">(min: &#45;1.28, max: &#45;1.28)]</text>
</g>
<!-- CLONE_8&#45;&gt;FakeQuantize_96 -->
<g id="edge15" class="edge"><title>CLONE_8&#45;&gt;FakeQuantize_96</title>
<path fill="none" stroke="black" d="M2515.95,-834.83C2488.82,-819.517 2457.12,-801.624 2426.53,-784.355"/>
<polygon fill="black" stroke="black" points="2427.93,-781.13 2417.5,-779.262 2424.49,-787.226 2427.93,-781.13"/>
<text text-anchor="middle" x="2500" y="-805.8" font-family="Times New Roman,serif" font-size="14.00"> 0 &#45;&gt; 3 </text>
</g>
<!-- CLONE_9 -->
<g id="node17" class="node"><title>CLONE_9</title>
<polygon fill="none" stroke="black" stroke-dasharray="5,2" points="2865.5,-918 2692.5,-918 2692.5,-835 2865.5,-835 2865.5,-918"/>
<text text-anchor="middle" x="2779" y="-902.8" font-family="Times New Roman,serif" font-size="14.00">friendly_name: Constant_95</text>
<text text-anchor="middle" x="2779" y="-887.8" font-family="Times New Roman,serif" font-size="14.00">type_name: Constant</text>
<text text-anchor="middle" x="2779" y="-872.8" font-family="Times New Roman,serif" font-size="14.00">{f32}[]</text>
<text text-anchor="middle" x="2779" y="-857.8" font-family="Times New Roman,serif" font-size="14.00">value: [1.27</text>
<text text-anchor="middle" x="2779" y="-842.8" font-family="Times New Roman,serif" font-size="14.00">(min: 1.27, max: 1.27)]</text>
</g>
<!-- CLONE_9&#45;&gt;FakeQuantize_96 -->
<g id="edge16" class="edge"><title>CLONE_9&#45;&gt;FakeQuantize_96</title>
<path fill="none" stroke="black" d="M2692.28,-838.496C2689.15,-837.297 2686.05,-836.127 2683,-835 2598.8,-803.924 2502.5,-773.325 2427.65,-750.608"/>
<polygon fill="black" stroke="black" points="2428.28,-747.144 2417.7,-747.596 2426.26,-753.843 2428.28,-747.144"/>
<text text-anchor="middle" x="2653" y="-805.8" font-family="Times New Roman,serif" font-size="14.00"> 0 &#45;&gt; 4 </text>
</g>
<!-- CLONE_10 -->
<g id="node18" class="node"><title>CLONE_10</title>
<polygon fill="none" stroke="blue" stroke-dasharray="5,2" points="1178,-910.5 1038,-910.5 1038,-842.5 1178,-842.5 1178,-910.5"/>
<text text-anchor="middle" x="1108" y="-895.3" font-family="Times New Roman,serif" font-size="14.00">friendly_name: input2</text>
<text text-anchor="middle" x="1108" y="-880.3" font-family="Times New Roman,serif" font-size="14.00">name: Parameter_85</text>
<text text-anchor="middle" x="1108" y="-865.3" font-family="Times New Roman,serif" font-size="14.00">type_name: Parameter</text>
<text text-anchor="middle" x="1108" y="-850.3" font-family="Times New Roman,serif" font-size="14.00">{f32}[1,3,9,9]</text>
</g>
<!-- CLONE_10&#45;&gt;FakeQuantize_90 -->
<g id="edge17" class="edge"><title>CLONE_10&#45;&gt;FakeQuantize_90</title>
<path fill="none" stroke="black" d="M1171.62,-842.381C1176.8,-839.838 1181.97,-837.349 1187,-835 1239.15,-810.635 1297.51,-785.539 1347.93,-764.527"/>
<polygon fill="black" stroke="black" points="1349.35,-767.724 1357.24,-760.652 1346.67,-761.261 1349.35,-767.724"/>
<text text-anchor="middle" x="1279" y="-805.8" font-family="Times New Roman,serif" font-size="14.00"> 0 &#45;&gt; 0 </text>
</g>
<!-- CLONE_11 -->
<g id="node19" class="node"><title>CLONE_11</title>
<polygon fill="none" stroke="black" stroke-dasharray="5,2" points="1369.5,-918 1196.5,-918 1196.5,-835 1369.5,-835 1369.5,-918"/>
<text text-anchor="middle" x="1283" y="-902.8" font-family="Times New Roman,serif" font-size="14.00">friendly_name: Constant_86</text>
<text text-anchor="middle" x="1283" y="-887.8" font-family="Times New Roman,serif" font-size="14.00">type_name: Constant</text>
<text text-anchor="middle" x="1283" y="-872.8" font-family="Times New Roman,serif" font-size="14.00">{f32}[]</text>
<text text-anchor="middle" x="1283" y="-857.8" font-family="Times New Roman,serif" font-size="14.00">value: [&#45;0.64</text>
<text text-anchor="middle" x="1283" y="-842.8" font-family="Times New Roman,serif" font-size="14.00">(min: &#45;0.64, max: &#45;0.64)]</text>
</g>
<!-- CLONE_11&#45;&gt;FakeQuantize_90 -->
<g id="edge18" class="edge"><title>CLONE_11&#45;&gt;FakeQuantize_90</title>
<path fill="none" stroke="black" d="M1331.2,-834.621C1346.96,-821.252 1365.02,-805.933 1382.88,-790.787"/>
<polygon fill="black" stroke="black" points="1385.15,-793.45 1390.51,-784.313 1380.62,-788.112 1385.15,-793.45"/>
<text text-anchor="middle" x="1389" y="-805.8" font-family="Times New Roman,serif" font-size="14.00"> 0 &#45;&gt; 1 </text>
</g>
<!-- CLONE_12 -->
<g id="node20" class="node"><title>CLONE_12</title>
<polygon fill="none" stroke="black" stroke-dasharray="5,2" points="1560.5,-918 1387.5,-918 1387.5,-835 1560.5,-835 1560.5,-918"/>
<text text-anchor="middle" x="1474" y="-902.8" font-family="Times New Roman,serif" font-size="14.00">friendly_name: Constant_87</text>
<text text-anchor="middle" x="1474" y="-887.8" font-family="Times New Roman,serif" font-size="14.00">type_name: Constant</text>
<text text-anchor="middle" x="1474" y="-872.8" font-family="Times New Roman,serif" font-size="14.00">{f32}[]</text>
<text text-anchor="middle" x="1474" y="-857.8" font-family="Times New Roman,serif" font-size="14.00">value: [0.635</text>
<text text-anchor="middle" x="1474" y="-842.8" font-family="Times New Roman,serif" font-size="14.00">(min: 0.635, max: 0.635)]</text>
</g>
<!-- CLONE_12&#45;&gt;FakeQuantize_90 -->
<g id="edge19" class="edge"><title>CLONE_12&#45;&gt;FakeQuantize_90</title>
<path fill="none" stroke="black" d="M1474,-834.621C1474,-822.326 1474,-808.382 1474,-794.44"/>
<polygon fill="black" stroke="black" points="1477.5,-794.312 1474,-784.313 1470.5,-794.313 1477.5,-794.312"/>
<text text-anchor="middle" x="1495" y="-805.8" font-family="Times New Roman,serif" font-size="14.00"> 0 &#45;&gt; 2 </text>
</g>
<!-- CLONE_13 -->
<g id="node21" class="node"><title>CLONE_13</title>
<polygon fill="none" stroke="black" stroke-dasharray="5,2" points="1751.5,-918 1578.5,-918 1578.5,-835 1751.5,-835 1751.5,-918"/>
<text text-anchor="middle" x="1665" y="-902.8" font-family="Times New Roman,serif" font-size="14.00">friendly_name: Constant_88</text>
<text text-anchor="middle" x="1665" y="-887.8" font-family="Times New Roman,serif" font-size="14.00">type_name: Constant</text>
<text text-anchor="middle" x="1665" y="-872.8" font-family="Times New Roman,serif" font-size="14.00">{f32}[]</text>
<text text-anchor="middle" x="1665" y="-857.8" font-family="Times New Roman,serif" font-size="14.00">value: [&#45;0.64</text>
<text text-anchor="middle" x="1665" y="-842.8" font-family="Times New Roman,serif" font-size="14.00">(min: &#45;0.64, max: &#45;0.64)]</text>
</g>
<!-- CLONE_13&#45;&gt;FakeQuantize_90 -->
<g id="edge20" class="edge"><title>CLONE_13&#45;&gt;FakeQuantize_90</title>
<path fill="none" stroke="black" d="M1616.8,-834.621C1601.04,-821.252 1582.98,-805.933 1565.12,-790.787"/>
<polygon fill="black" stroke="black" points="1567.38,-788.112 1557.49,-784.313 1562.85,-793.45 1567.38,-788.112"/>
<text text-anchor="middle" x="1614" y="-805.8" font-family="Times New Roman,serif" font-size="14.00"> 0 &#45;&gt; 3 </text>
</g>
<!-- CLONE_14 -->
<g id="node22" class="node"><title>CLONE_14</title>
<polygon fill="none" stroke="black" stroke-dasharray="5,2" points="1942.5,-918 1769.5,-918 1769.5,-835 1942.5,-835 1942.5,-918"/>
<text text-anchor="middle" x="1856" y="-902.8" font-family="Times New Roman,serif" font-size="14.00">friendly_name: Constant_89</text>
<text text-anchor="middle" x="1856" y="-887.8" font-family="Times New Roman,serif" font-size="14.00">type_name: Constant</text>
<text text-anchor="middle" x="1856" y="-872.8" font-family="Times New Roman,serif" font-size="14.00">{f32}[]</text>
<text text-anchor="middle" x="1856" y="-857.8" font-family="Times New Roman,serif" font-size="14.00">value: [0.635</text>
<text text-anchor="middle" x="1856" y="-842.8" font-family="Times New Roman,serif" font-size="14.00">(min: 0.635, max: 0.635)]</text>
</g>
<!-- CLONE_14&#45;&gt;FakeQuantize_90 -->
<g id="edge21" class="edge"><title>CLONE_14&#45;&gt;FakeQuantize_90</title>
<path fill="none" stroke="black" d="M1769.32,-838.74C1719.38,-817.56 1655.71,-790.56 1600.29,-767.055"/>
<polygon fill="black" stroke="black" points="1601.33,-763.695 1590.75,-763.013 1598.59,-770.14 1601.33,-763.695"/>
<text text-anchor="middle" x="1732" y="-805.8" font-family="Times New Roman,serif" font-size="14.00"> 0 &#45;&gt; 4 </text>
</g>
<!-- Result_107 -->
<g id="node24" class="node"><title>Result_107</title>
<polygon fill="none" stroke="crimson" stroke-width="1.5" points="1158,-373.5 940,-373.5 940,-305.5 1158,-305.5 1158,-373.5"/>
<text text-anchor="middle" x="1049" y="-358.3" font-family="Times New Roman,serif" font-size="14.00">friendly_name: Result_107</text>
<text text-anchor="middle" x="1049" y="-343.3" font-family="Times New Roman,serif" font-size="14.00">type_name: Result</text>
<text text-anchor="middle" x="1049" y="-328.3" font-family="Times New Roman,serif" font-size="14.00">in0: {f32}[1,6,9,9]: Concat_97: out0</text>
<text text-anchor="middle" x="1049" y="-313.3" font-family="Times New Roman,serif" font-size="14.00">out0: {f32}[1,6,9,9]</text>
</g>
<!-- Concat_97&#45;&gt;Result_107 -->
<g id="edge22" class="edge"><title>Concat_97&#45;&gt;Result_107</title>
<path fill="none" stroke="black" d="M1049,-469.394C1049,-441.977 1049,-409.404 1049,-383.862"/>
<polygon fill="black" stroke="black" points="1052.5,-383.737 1049,-373.737 1045.5,-383.737 1052.5,-383.737"/>
<text text-anchor="middle" x="1070" y="-432.8" font-family="Times New Roman,serif" font-size="14.00"> 0 &#45;&gt; 0 </text>
</g>
<!-- FakeQuantize_84 -->
<g id="node25" class="node"><title>FakeQuantize_84</title>
<polygon fill="none" stroke="black" points="707.5,-784 474.5,-784 474.5,-641 707.5,-641 707.5,-784"/>
<text text-anchor="middle" x="591" y="-768.8" font-family="Times New Roman,serif" font-size="14.00">friendly_name: fakeQuantize1</text>
<text text-anchor="middle" x="591" y="-753.8" font-family="Times New Roman,serif" font-size="14.00">name: FakeQuantize_84</text>
<text text-anchor="middle" x="591" y="-738.8" font-family="Times New Roman,serif" font-size="14.00">type_name: FakeQuantize</text>
<text text-anchor="middle" x="591" y="-723.8" font-family="Times New Roman,serif" font-size="14.00">in0: {f32}[1,3,9,9]: Parameter_79: out0</text>
<text text-anchor="middle" x="591" y="-708.8" font-family="Times New Roman,serif" font-size="14.00">in1: {f32}[]: Constant_80: out0</text>
<text text-anchor="middle" x="591" y="-693.8" font-family="Times New Roman,serif" font-size="14.00">in2: {f32}[]: Constant_81: out0</text>
<text text-anchor="middle" x="591" y="-678.8" font-family="Times New Roman,serif" font-size="14.00">in3: {f32}[]: Constant_82: out0</text>
<text text-anchor="middle" x="591" y="-663.8" font-family="Times New Roman,serif" font-size="14.00">in4: {f32}[]: Constant_83: out0</text>
<text text-anchor="middle" x="591" y="-648.8" font-family="Times New Roman,serif" font-size="14.00">out0: {f32}[1,3,9,9]</text>
</g>
<!-- FakeQuantize_84&#45;&gt;Concat_97 -->
<g id="edge23" class="edge"><title>FakeQuantize_84&#45;&gt;Concat_97</title>
<path fill="none" stroke="black" d="M707.758,-664.465C770.151,-639.331 847.313,-608.247 912.471,-581.999"/>
<polygon fill="black" stroke="black" points="914.026,-585.146 921.994,-578.163 911.411,-578.653 914.026,-585.146"/>
<text text-anchor="middle" x="869" y="-611.8" font-family="Times New Roman,serif" font-size="14.00"> 0 &#45;&gt; 0 </text>
</g>
<!-- CLONE_15 -->
<g id="node26" class="node"><title>CLONE_15</title>
<polygon fill="none" stroke="blue" stroke-dasharray="5,2" points="140,-910.5 0,-910.5 0,-842.5 140,-842.5 140,-910.5"/>
<text text-anchor="middle" x="70" y="-895.3" font-family="Times New Roman,serif" font-size="14.00">friendly_name: input1</text>
<text text-anchor="middle" x="70" y="-880.3" font-family="Times New Roman,serif" font-size="14.00">name: Parameter_79</text>
<text text-anchor="middle" x="70" y="-865.3" font-family="Times New Roman,serif" font-size="14.00">type_name: Parameter</text>
<text text-anchor="middle" x="70" y="-850.3" font-family="Times New Roman,serif" font-size="14.00">{f32}[1,3,9,9]</text>
</g>
<!-- CLONE_15&#45;&gt;FakeQuantize_84 -->
<g id="edge25" class="edge"><title>CLONE_15&#45;&gt;FakeQuantize_84</title>
<path fill="none" stroke="black" d="M131.545,-842.431C137.376,-839.76 143.254,-837.235 149,-835 252.658,-794.676 374.873,-762.168 464.486,-740.96"/>
<polygon fill="black" stroke="black" points="465.491,-744.32 474.425,-738.623 463.889,-737.506 465.491,-744.32"/>
<text text-anchor="middle" x="253" y="-805.8" font-family="Times New Roman,serif" font-size="14.00"> 0 &#45;&gt; 0 </text>
</g>
<!-- CLONE_16 -->
<g id="node27" class="node"><title>CLONE_16</title>
<polygon fill="none" stroke="black" stroke-dasharray="5,2" points="364,-918 158,-918 158,-835 364,-835 364,-918"/>
<text text-anchor="middle" x="261" y="-902.8" font-family="Times New Roman,serif" font-size="14.00">friendly_name: Constant_80</text>
<text text-anchor="middle" x="261" y="-887.8" font-family="Times New Roman,serif" font-size="14.00">type_name: Constant</text>
<text text-anchor="middle" x="261" y="-872.8" font-family="Times New Roman,serif" font-size="14.00">{f32}[]</text>
<text text-anchor="middle" x="261" y="-857.8" font-family="Times New Roman,serif" font-size="14.00">value: [&#45;0.426667</text>
<text text-anchor="middle" x="261" y="-842.8" font-family="Times New Roman,serif" font-size="14.00">(min: &#45;0.426667, max: &#45;0.426667)]</text>
</g>
<!-- CLONE_16&#45;&gt;FakeQuantize_84 -->
<g id="edge26" class="edge"><title>CLONE_16&#45;&gt;FakeQuantize_84</title>
<path fill="none" stroke="black" d="M343.847,-834.83C380.589,-816.793 424.628,-795.173 465.288,-775.213"/>
<polygon fill="black" stroke="black" points="467.016,-778.264 474.45,-770.715 463.931,-771.98 467.016,-778.264"/>
<text text-anchor="middle" x="428" y="-805.8" font-family="Times New Roman,serif" font-size="14.00"> 0 &#45;&gt; 1 </text>
</g>
<!-- CLONE_17 -->
<g id="node28" class="node"><title>CLONE_17</title>
<polygon fill="none" stroke="black" stroke-dasharray="5,2" points="579.5,-918 382.5,-918 382.5,-835 579.5,-835 579.5,-918"/>
<text text-anchor="middle" x="481" y="-902.8" font-family="Times New Roman,serif" font-size="14.00">friendly_name: Constant_81</text>
<text text-anchor="middle" x="481" y="-887.8" font-family="Times New Roman,serif" font-size="14.00">type_name: Constant</text>
<text text-anchor="middle" x="481" y="-872.8" font-family="Times New Roman,serif" font-size="14.00">{f32}[]</text>
<text text-anchor="middle" x="481" y="-857.8" font-family="Times New Roman,serif" font-size="14.00">value: [0.423333</text>
<text text-anchor="middle" x="481" y="-842.8" font-family="Times New Roman,serif" font-size="14.00">(min: 0.423333, max: 0.423333)]</text>
</g>
<!-- CLONE_17&#45;&gt;FakeQuantize_84 -->
<g id="edge27" class="edge"><title>CLONE_17&#45;&gt;FakeQuantize_84</title>
<path fill="none" stroke="black" d="M508.758,-834.621C517.43,-821.849 527.311,-807.297 537.143,-792.816"/>
<polygon fill="black" stroke="black" points="540.195,-794.552 542.917,-784.313 534.404,-790.619 540.195,-794.552"/>
<text text-anchor="middle" x="551" y="-805.8" font-family="Times New Roman,serif" font-size="14.00"> 0 &#45;&gt; 2 </text>
</g>
<!-- CLONE_18 -->
<g id="node29" class="node"><title>CLONE_18</title>
<polygon fill="none" stroke="black" stroke-dasharray="5,2" points="804,-918 598,-918 598,-835 804,-835 804,-918"/>
<text text-anchor="middle" x="701" y="-902.8" font-family="Times New Roman,serif" font-size="14.00">friendly_name: Constant_82</text>
<text text-anchor="middle" x="701" y="-887.8" font-family="Times New Roman,serif" font-size="14.00">type_name: Constant</text>
<text text-anchor="middle" x="701" y="-872.8" font-family="Times New Roman,serif" font-size="14.00">{f32}[]</text>
<text text-anchor="middle" x="701" y="-857.8" font-family="Times New Roman,serif" font-size="14.00">value: [&#45;0.426667</text>
<text text-anchor="middle" x="701" y="-842.8" font-family="Times New Roman,serif" font-size="14.00">(min: &#45;0.426667, max: &#45;0.426667)]</text>
</g>
<!-- CLONE_18&#45;&gt;FakeQuantize_84 -->
<g id="edge28" class="edge"><title>CLONE_18&#45;&gt;FakeQuantize_84</title>
<path fill="none" stroke="black" d="M673.242,-834.621C664.57,-821.849 654.689,-807.297 644.857,-792.816"/>
<polygon fill="black" stroke="black" points="647.596,-790.619 639.083,-784.313 641.805,-794.552 647.596,-790.619"/>
<text text-anchor="middle" x="681" y="-805.8" font-family="Times New Roman,serif" font-size="14.00"> 0 &#45;&gt; 3 </text>
</g>
<!-- CLONE_19 -->
<g id="node30" class="node"><title>CLONE_19</title>
<polygon fill="none" stroke="black" stroke-dasharray="5,2" points="1019.5,-918 822.5,-918 822.5,-835 1019.5,-835 1019.5,-918"/>
<text text-anchor="middle" x="921" y="-902.8" font-family="Times New Roman,serif" font-size="14.00">friendly_name: Constant_83</text>
<text text-anchor="middle" x="921" y="-887.8" font-family="Times New Roman,serif" font-size="14.00">type_name: Constant</text>
<text text-anchor="middle" x="921" y="-872.8" font-family="Times New Roman,serif" font-size="14.00">{f32}[]</text>
<text text-anchor="middle" x="921" y="-857.8" font-family="Times New Roman,serif" font-size="14.00">value: [0.423333</text>
<text text-anchor="middle" x="921" y="-842.8" font-family="Times New Roman,serif" font-size="14.00">(min: 0.423333, max: 0.423333)]</text>
</g>
<!-- CLONE_19&#45;&gt;FakeQuantize_84 -->
<g id="edge29" class="edge"><title>CLONE_19&#45;&gt;FakeQuantize_84</title>
<path fill="none" stroke="black" d="M838.153,-834.83C801.411,-816.793 757.372,-795.173 716.712,-775.213"/>
<polygon fill="black" stroke="black" points="718.069,-771.98 707.55,-770.715 714.984,-778.264 718.069,-771.98"/>
<text text-anchor="middle" x="817" y="-805.8" font-family="Times New Roman,serif" font-size="14.00"> 0 &#45;&gt; 4 </text>
</g>
</g>
</svg>
