<?xml version="1.0" encoding="UTF-8" standalone="no"?>
<!DOCTYPE svg PUBLIC "-//W3C//DTD SVG 1.1//EN"
 "http://www.w3.org/Graphics/SVG/1.1/DTD/svg11.dtd">
<!-- Generated by graphviz version 2.43.20200408.0903 (20200408.0903)
 -->
<!-- Title: ngraph Pages: 1 -->
<svg width="3485pt" height="956pt"
 viewBox="0.00 0.00 3484.50 956.00" xmlns="http://www.w3.org/2000/svg" xmlns:xlink="http://www.w3.org/1999/xlink">
<g id="graph0" class="graph" transform="scale(1 1) rotate(0) translate(4 952)">
<title>ngraph</title>
<polygon fill="white" stroke="transparent" points="-4,4 -4,-952 3480.5,-952 3480.5,4 -4,4"/>
<!-- Convolution_106 -->
<g id="node1" class="node">
<title>Convolution_106</title>
<polygon fill="none" stroke="black" points="2550,-217 2080,-217 2080,-119 2550,-119 2550,-217"/>
<text text-anchor="middle" x="2315" y="-201.8" font-family="Times New Roman,serif" font-size="14.00">friendly_name: convolution</text>
<text text-anchor="middle" x="2315" y="-186.8" font-family="Times New Roman,serif" font-size="14.00">name: Convolution_106</text>
<text text-anchor="middle" x="2315" y="-171.8" font-family="Times New Roman,serif" font-size="14.00">type_name: Convolution</text>
<text text-anchor="middle" x="2315" y="-156.8" font-family="Times New Roman,serif" font-size="14.00">in0: {f32}[1,6,7,7]: MaxPool_99: out0 PRECISIONS(2568398225584: u8}) </text>
<text text-anchor="middle" x="2315" y="-141.8" font-family="Times New Roman,serif" font-size="14.00">in1: {f32}[9,6,1,1]: FakeQuantize_105: out0 PRECISIONS(2568398226256: i8}) </text>
<text text-anchor="middle" x="2315" y="-126.8" font-family="Times New Roman,serif" font-size="14.00">out0: {f32}[1,9,7,7]</text>
</g>
<!-- Result_108 -->
<g id="node2" class="node">
<title>Result_108</title>
<polygon fill="none" stroke="crimson" stroke-width="1.5" points="2442,-68 2188,-68 2188,0 2442,0 2442,-68"/>
<text text-anchor="middle" x="2315" y="-52.8" font-family="Times New Roman,serif" font-size="14.00">friendly_name: Result_108</text>
<text text-anchor="middle" x="2315" y="-37.8" font-family="Times New Roman,serif" font-size="14.00">type_name: Result</text>
<text text-anchor="middle" x="2315" y="-22.8" font-family="Times New Roman,serif" font-size="14.00">in0: {f32}[1,9,7,7]: Convolution_106: out0</text>
<text text-anchor="middle" x="2315" y="-7.8" font-family="Times New Roman,serif" font-size="14.00">out0: {f32}[1,9,7,7]</text>
</g>
<!-- Convolution_106&#45;&gt;Result_108 -->
<g id="edge1" class="edge">
<title>Convolution_106&#45;&gt;Result_108</title>
<path fill="none" stroke="black" d="M2315,-118.97C2315,-105.71 2315,-91.4 2315,-78.42"/>
<polygon fill="black" stroke="black" points="2318.5,-78.33 2315,-68.33 2311.5,-78.33 2318.5,-78.33"/>
<text text-anchor="middle" x="2336" y="-89.8" font-family="Times New Roman,serif" font-size="14.00"> 0 &#45;&gt; 0 </text>
</g>
<!-- MaxPool_99 -->
<g id="node3" class="node">
<title>MaxPool_99</title>
<polygon fill="none" stroke="black" points="2076,-403.5 1516,-403.5 1516,-290.5 2076,-290.5 2076,-403.5"/>
<text text-anchor="middle" x="1796" y="-388.3" font-family="Times New Roman,serif" font-size="14.00">friendly_name: MaxPool</text>
<text text-anchor="middle" x="1796" y="-373.3" font-family="Times New Roman,serif" font-size="14.00">name: MaxPool_99</text>
<text text-anchor="middle" x="1796" y="-358.3" font-family="Times New Roman,serif" font-size="14.00">type_name: MaxPool</text>
<text text-anchor="middle" x="1796" y="-343.3" font-family="Times New Roman,serif" font-size="14.00">rt info: &#160;PRECISION_PRESERVED(value: true)</text>
<text text-anchor="middle" x="1796" y="-328.3" font-family="Times New Roman,serif" font-size="14.00">QUANTIZATION_ALIGNMENT(2568398406816: low: &#45;1.28, high: 1.27, hasToBeAligned: true)</text>
<text text-anchor="middle" x="1796" y="-313.3" font-family="Times New Roman,serif" font-size="14.00">in0: {f32}[1,6,9,9]: Concat_98: out0 PRECISIONS(2568398225584: u8}) </text>
<text text-anchor="middle" x="1796" y="-298.3" font-family="Times New Roman,serif" font-size="14.00">out0: {f32}[1,6,7,7]</text>
</g>
<!-- MaxPool_99&#45;&gt;Convolution_106 -->
<g id="edge2" class="edge">
<title>MaxPool_99&#45;&gt;Convolution_106</title>
<path fill="none" stroke="black" d="M1958.79,-290.48C2024.53,-268.06 2099.94,-242.34 2164.39,-220.36"/>
<polygon fill="black" stroke="black" points="2165.9,-223.55 2174.23,-217.01 2163.64,-216.92 2165.9,-223.55"/>
<text text-anchor="middle" x="2139" y="-238.8" font-family="Times New Roman,serif" font-size="14.00"> 0 &#45;&gt; 0 </text>
</g>
<!-- FakeQuantize_105 -->
<g id="node4" class="node">
<title>FakeQuantize_105</title>
<polygon fill="none" stroke="black" points="2926,-426 2318,-426 2318,-268 2926,-268 2926,-426"/>
<text text-anchor="middle" x="2622" y="-410.8" font-family="Times New Roman,serif" font-size="14.00">friendly_name: fakeQuantizeOnWeights</text>
<text text-anchor="middle" x="2622" y="-395.8" font-family="Times New Roman,serif" font-size="14.00">name: FakeQuantize_105</text>
<text text-anchor="middle" x="2622" y="-380.8" font-family="Times New Roman,serif" font-size="14.00">type_name: FakeQuantize</text>
<text text-anchor="middle" x="2622" y="-365.8" font-family="Times New Roman,serif" font-size="14.00">rt info: &#160;QUANTIZATION_ALIGNMENT(2568398409024: low: &#45;1.27, high: 1.27, hasToBeAligned: false)</text>
<text text-anchor="middle" x="2622" y="-350.8" font-family="Times New Roman,serif" font-size="14.00">in0: {f32}[9,6,1,1]: Constant_100: out0</text>
<text text-anchor="middle" x="2622" y="-335.8" font-family="Times New Roman,serif" font-size="14.00">in1: {f32}[9,1,1,1]: Constant_101: out0</text>
<text text-anchor="middle" x="2622" y="-320.8" font-family="Times New Roman,serif" font-size="14.00">in2: {f32}[9,1,1,1]: Constant_102: out0</text>
<text text-anchor="middle" x="2622" y="-305.8" font-family="Times New Roman,serif" font-size="14.00">in3: {f32}[9,1,1,1]: Constant_103: out0</text>
<text text-anchor="middle" x="2622" y="-290.8" font-family="Times New Roman,serif" font-size="14.00">in4: {f32}[9,1,1,1]: Constant_104: out0</text>
<text text-anchor="middle" x="2622" y="-275.8" font-family="Times New Roman,serif" font-size="14.00">out0: {f32}[9,6,1,1] PRECISIONS(2568398226256: i8}) </text>
</g>
<!-- FakeQuantize_105&#45;&gt;Convolution_106 -->
<g id="edge3" class="edge">
<title>FakeQuantize_105&#45;&gt;Convolution_106</title>
<path fill="none" stroke="black" d="M2486.45,-267.85C2459.73,-252.44 2432.26,-236.61 2407.37,-222.25"/>
<polygon fill="black" stroke="black" points="2409.09,-219.2 2398.67,-217.24 2405.59,-225.27 2409.09,-219.2"/>
<text text-anchor="middle" x="2472" y="-238.8" font-family="Times New Roman,serif" font-size="14.00"> 0 &#45;&gt; 1 </text>
</g>
<!-- CLONE_0 -->
<g id="node5" class="node">
<title>CLONE_0</title>
<polygon fill="none" stroke="black" stroke-dasharray="5,2" points="2128.5,-605 1911.5,-605 1911.5,-492 2128.5,-492 2128.5,-605"/>
<text text-anchor="middle" x="2020" y="-589.8" font-family="Times New Roman,serif" font-size="14.00">friendly_name: Constant_100</text>
<text text-anchor="middle" x="2020" y="-574.8" font-family="Times New Roman,serif" font-size="14.00">type_name: Constant</text>
<text text-anchor="middle" x="2020" y="-559.8" font-family="Times New Roman,serif" font-size="14.00">{f32}[9,6,1,1]</text>
<text text-anchor="middle" x="2020" y="-544.8" font-family="Times New Roman,serif" font-size="14.00">value: [54, 54, 54, 54, 54, 54, 54, 54</text>
<text text-anchor="middle" x="2020" y="-529.8" font-family="Times New Roman,serif" font-size="14.00">, 54, 54, 54, 54, 54, 54, 54, 54</text>
<text text-anchor="middle" x="2020" y="-514.8" font-family="Times New Roman,serif" font-size="14.00">, 54, 54, 54, 54, 54, 54, 54, 54</text>
<text text-anchor="middle" x="2020" y="-499.8" font-family="Times New Roman,serif" font-size="14.00">, 54, 54, 54, 54, 54, 54, 54, 54...]</text>
</g>
<!-- CLONE_0&#45;&gt;FakeQuantize_105 -->
<g id="edge4" class="edge">
<title>CLONE_0&#45;&gt;FakeQuantize_105</title>
<path fill="none" stroke="black" d="M2106.1,-491.96C2116.3,-486.48 2126.74,-481.35 2137,-477 2191.04,-454.08 2250.23,-434.29 2308.12,-417.57"/>
<polygon fill="black" stroke="black" points="2309.12,-420.92 2317.77,-414.8 2307.19,-414.19 2309.12,-420.92"/>
<text text-anchor="middle" x="2235" y="-447.8" font-family="Times New Roman,serif" font-size="14.00"> 0 &#45;&gt; 0 </text>
</g>
<!-- CLONE_1 -->
<g id="node6" class="node">
<title>CLONE_1</title>
<polygon fill="none" stroke="black" stroke-dasharray="5,2" points="2483.5,-590 2146.5,-590 2146.5,-507 2483.5,-507 2483.5,-590"/>
<text text-anchor="middle" x="2315" y="-574.8" font-family="Times New Roman,serif" font-size="14.00">friendly_name: Constant_101</text>
<text text-anchor="middle" x="2315" y="-559.8" font-family="Times New Roman,serif" font-size="14.00">type_name: Constant</text>
<text text-anchor="middle" x="2315" y="-544.8" font-family="Times New Roman,serif" font-size="14.00">{f32}[9,1,1,1]</text>
<text text-anchor="middle" x="2315" y="-529.8" font-family="Times New Roman,serif" font-size="14.00">value: [&#45;1.27, &#45;1.27, &#45;1.27, &#45;1.27, &#45;1.27, &#45;1.27, &#45;1.27, &#45;1.27</text>
<text text-anchor="middle" x="2315" y="-514.8" font-family="Times New Roman,serif" font-size="14.00">, &#45;1.27]</text>
</g>
<!-- CLONE_1&#45;&gt;FakeQuantize_105 -->
<g id="edge5" class="edge">
<title>CLONE_1&#45;&gt;FakeQuantize_105</title>
<path fill="none" stroke="black" d="M2377.5,-506.89C2410.89,-485.19 2453.27,-457.65 2493.33,-431.62"/>
<polygon fill="black" stroke="black" points="2495.36,-434.47 2501.84,-426.09 2491.55,-428.6 2495.36,-434.47"/>
<text text-anchor="middle" x="2490" y="-447.8" font-family="Times New Roman,serif" font-size="14.00"> 0 &#45;&gt; 1 </text>
</g>
<!-- CLONE_2 -->
<g id="node7" class="node">
<title>CLONE_2</title>
<polygon fill="none" stroke="black" stroke-dasharray="5,2" points="2802.5,-590 2501.5,-590 2501.5,-507 2802.5,-507 2802.5,-590"/>
<text text-anchor="middle" x="2652" y="-574.8" font-family="Times New Roman,serif" font-size="14.00">friendly_name: Constant_102</text>
<text text-anchor="middle" x="2652" y="-559.8" font-family="Times New Roman,serif" font-size="14.00">type_name: Constant</text>
<text text-anchor="middle" x="2652" y="-544.8" font-family="Times New Roman,serif" font-size="14.00">{f32}[9,1,1,1]</text>
<text text-anchor="middle" x="2652" y="-529.8" font-family="Times New Roman,serif" font-size="14.00">value: [1.27, 1.27, 1.27, 1.27, 1.27, 1.27, 1.27, 1.27</text>
<text text-anchor="middle" x="2652" y="-514.8" font-family="Times New Roman,serif" font-size="14.00">, 1.27]</text>
</g>
<!-- CLONE_2&#45;&gt;FakeQuantize_105 -->
<g id="edge6" class="edge">
<title>CLONE_2&#45;&gt;FakeQuantize_105</title>
<path fill="none" stroke="black" d="M2645.86,-506.65C2642.8,-486.31 2638.97,-460.88 2635.29,-436.38"/>
<polygon fill="black" stroke="black" points="2638.73,-435.69 2633.78,-426.32 2631.8,-436.73 2638.73,-435.69"/>
<text text-anchor="middle" x="2659" y="-447.8" font-family="Times New Roman,serif" font-size="14.00"> 0 &#45;&gt; 2 </text>
</g>
<!-- CLONE_3 -->
<g id="node8" class="node">
<title>CLONE_3</title>
<polygon fill="none" stroke="black" stroke-dasharray="5,2" points="3157.5,-590 2820.5,-590 2820.5,-507 3157.5,-507 3157.5,-590"/>
<text text-anchor="middle" x="2989" y="-574.8" font-family="Times New Roman,serif" font-size="14.00">friendly_name: Constant_103</text>
<text text-anchor="middle" x="2989" y="-559.8" font-family="Times New Roman,serif" font-size="14.00">type_name: Constant</text>
<text text-anchor="middle" x="2989" y="-544.8" font-family="Times New Roman,serif" font-size="14.00">{f32}[9,1,1,1]</text>
<text text-anchor="middle" x="2989" y="-529.8" font-family="Times New Roman,serif" font-size="14.00">value: [&#45;1.27, &#45;1.27, &#45;1.27, &#45;1.27, &#45;1.27, &#45;1.27, &#45;1.27, &#45;1.27</text>
<text text-anchor="middle" x="2989" y="-514.8" font-family="Times New Roman,serif" font-size="14.00">, &#45;1.27]</text>
</g>
<!-- CLONE_3&#45;&gt;FakeQuantize_105 -->
<g id="edge7" class="edge">
<title>CLONE_3&#45;&gt;FakeQuantize_105</title>
<path fill="none" stroke="black" d="M2914.29,-506.89C2874.04,-485.01 2822.86,-457.19 2774.62,-430.96"/>
<polygon fill="black" stroke="black" points="2776.1,-427.79 2765.65,-426.09 2772.76,-433.94 2776.1,-427.79"/>
<text text-anchor="middle" x="2838" y="-447.8" font-family="Times New Roman,serif" font-size="14.00"> 0 &#45;&gt; 3 </text>
</g>
<!-- CLONE_4 -->
<g id="node9" class="node">
<title>CLONE_4</title>
<polygon fill="none" stroke="black" stroke-dasharray="5,2" points="3476.5,-590 3175.5,-590 3175.5,-507 3476.5,-507 3476.5,-590"/>
<text text-anchor="middle" x="3326" y="-574.8" font-family="Times New Roman,serif" font-size="14.00">friendly_name: Constant_104</text>
<text text-anchor="middle" x="3326" y="-559.8" font-family="Times New Roman,serif" font-size="14.00">type_name: Constant</text>
<text text-anchor="middle" x="3326" y="-544.8" font-family="Times New Roman,serif" font-size="14.00">{f32}[9,1,1,1]</text>
<text text-anchor="middle" x="3326" y="-529.8" font-family="Times New Roman,serif" font-size="14.00">value: [1.27, 1.27, 1.27, 1.27, 1.27, 1.27, 1.27, 1.27</text>
<text text-anchor="middle" x="3326" y="-514.8" font-family="Times New Roman,serif" font-size="14.00">, 1.27]</text>
</g>
<!-- CLONE_4&#45;&gt;FakeQuantize_105 -->
<g id="edge8" class="edge">
<title>CLONE_4&#45;&gt;FakeQuantize_105</title>
<path fill="none" stroke="black" d="M3241.61,-506.88C3217.53,-496.24 3191.04,-485.41 3166,-477 3092.54,-452.33 3011.99,-430.51 2935.92,-412.15"/>
<polygon fill="black" stroke="black" points="2936.72,-408.74 2926.18,-409.81 2935.09,-415.55 2936.72,-408.74"/>
<text text-anchor="middle" x="3130" y="-447.8" font-family="Times New Roman,serif" font-size="14.00"> 0 &#45;&gt; 4 </text>
</g>
<!-- Concat_98 -->
<g id="node10" class="node">
<title>Concat_98</title>
<polygon fill="none" stroke="black" points="1893,-620 1333,-620 1333,-477 1893,-477 1893,-620"/>
<text text-anchor="middle" x="1613" y="-604.8" font-family="Times New Roman,serif" font-size="14.00">friendly_name: concat2</text>
<text text-anchor="middle" x="1613" y="-589.8" font-family="Times New Roman,serif" font-size="14.00">name: Concat_98</text>
<text text-anchor="middle" x="1613" y="-574.8" font-family="Times New Roman,serif" font-size="14.00">type_name: Concat</text>
<text text-anchor="middle" x="1613" y="-559.8" font-family="Times New Roman,serif" font-size="14.00">rt info: &#160;PRECISION_PRESERVED(value: true)</text>
<text text-anchor="middle" x="1613" y="-544.8" font-family="Times New Roman,serif" font-size="14.00">QUANTIZATION_ALIGNMENT(2568398406816: low: &#45;1.28, high: 1.27, hasToBeAligned: true)</text>
<text text-anchor="middle" x="1613" y="-529.8" font-family="Times New Roman,serif" font-size="14.00">Variant::std::string</text>
<text text-anchor="middle" x="1613" y="-514.8" font-family="Times New Roman,serif" font-size="14.00">in0: {f32}[1,3,9,9]: FakeQuantize_90: out0 PRECISIONS(2568398225584: u8}) </text>
<text text-anchor="middle" x="1613" y="-499.8" font-family="Times New Roman,serif" font-size="14.00">in1: {f32}[1,3,9,9]: FakeQuantize_96: out0 PRECISIONS(2568398225584: u8}) </text>
<text text-anchor="middle" x="1613" y="-484.8" font-family="Times New Roman,serif" font-size="14.00">out0: {f32}[1,6,9,9]</text>
</g>
<!-- Concat_98&#45;&gt;MaxPool_99 -->
<g id="edge9" class="edge">
<title>Concat_98&#45;&gt;MaxPool_99</title>
<path fill="none" stroke="black" d="M1677.78,-476.88C1697.37,-455.52 1718.76,-432.2 1737.89,-411.34"/>
<polygon fill="black" stroke="black" points="1740.65,-413.52 1744.83,-403.78 1735.49,-408.78 1740.65,-413.52"/>
<text text-anchor="middle" x="1726" y="-447.8" font-family="Times New Roman,serif" font-size="14.00"> 0 &#45;&gt; 0 </text>
</g>
<!-- FakeQuantize_90 -->
<g id="node11" class="node">
<title>FakeQuantize_90</title>
<polygon fill="none" stroke="black" points="1661,-829 1057,-829 1057,-671 1661,-671 1661,-829"/>
<text text-anchor="middle" x="1359" y="-813.8" font-family="Times New Roman,serif" font-size="14.00">friendly_name: fakeQuantize2</text>
<text text-anchor="middle" x="1359" y="-798.8" font-family="Times New Roman,serif" font-size="14.00">name: FakeQuantize_90</text>
<text text-anchor="middle" x="1359" y="-783.8" font-family="Times New Roman,serif" font-size="14.00">type_name: FakeQuantize</text>
<text text-anchor="middle" x="1359" y="-768.8" font-family="Times New Roman,serif" font-size="14.00">rt info: &#160;QUANTIZATION_ALIGNMENT(2568398406816: low: &#45;1.28, high: 1.27, hasToBeAligned: true)</text>
<text text-anchor="middle" x="1359" y="-753.8" font-family="Times New Roman,serif" font-size="14.00">in0: {f32}[1,3,9,9]: Parameter_85: out0</text>
<text text-anchor="middle" x="1359" y="-738.8" font-family="Times New Roman,serif" font-size="14.00">in1: {f32}[]: Constant_86: out0</text>
<text text-anchor="middle" x="1359" y="-723.8" font-family="Times New Roman,serif" font-size="14.00">in2: {f32}[]: Constant_87: out0</text>
<text text-anchor="middle" x="1359" y="-708.8" font-family="Times New Roman,serif" font-size="14.00">in3: {f32}[]: Constant_88: out0</text>
<text text-anchor="middle" x="1359" y="-693.8" font-family="Times New Roman,serif" font-size="14.00">in4: {f32}[]: Constant_89: out0</text>
<text text-anchor="middle" x="1359" y="-678.8" font-family="Times New Roman,serif" font-size="14.00">out0: {f32}[1,3,9,9] PRECISIONS(2568398225584: u8}) </text>
</g>
<!-- FakeQuantize_90&#45;&gt;Concat_98 -->
<g id="edge10" class="edge">
<title>FakeQuantize_90&#45;&gt;Concat_98</title>
<path fill="none" stroke="black" d="M1458.66,-670.72C1477.26,-656.11 1496.69,-640.85 1515.24,-626.28"/>
<polygon fill="black" stroke="black" points="1517.43,-629.01 1523.13,-620.09 1513.11,-623.51 1517.43,-629.01"/>
<text text-anchor="middle" x="1515" y="-641.8" font-family="Times New Roman,serif" font-size="14.00"> 0 &#45;&gt; 0 </text>
</g>
<!-- Concat_97 -->
<g id="node23" class="node">
<title>Concat_97</title>
<polygon fill="none" stroke="black" points="1260,-620 700,-620 700,-477 1260,-477 1260,-620"/>
<text text-anchor="middle" x="980" y="-604.8" font-family="Times New Roman,serif" font-size="14.00">friendly_name: concat1</text>
<text text-anchor="middle" x="980" y="-589.8" font-family="Times New Roman,serif" font-size="14.00">name: Concat_97</text>
<text text-anchor="middle" x="980" y="-574.8" font-family="Times New Roman,serif" font-size="14.00">type_name: Concat</text>
<text text-anchor="middle" x="980" y="-559.8" font-family="Times New Roman,serif" font-size="14.00">rt info: &#160;PRECISION_PRESERVED(value: true)</text>
<text text-anchor="middle" x="980" y="-544.8" font-family="Times New Roman,serif" font-size="14.00">QUANTIZATION_ALIGNMENT(2568398406816: low: &#45;1.28, high: 1.27, hasToBeAligned: true)</text>
<text text-anchor="middle" x="980" y="-529.8" font-family="Times New Roman,serif" font-size="14.00">Variant::std::string</text>
<text text-anchor="middle" x="980" y="-514.8" font-family="Times New Roman,serif" font-size="14.00">in0: {f32}[1,3,9,9]: FakeQuantize_84: out0 PRECISIONS(2568398225584: u8}) </text>
<text text-anchor="middle" x="980" y="-499.8" font-family="Times New Roman,serif" font-size="14.00">in1: {f32}[1,3,9,9]: FakeQuantize_90: out0 PRECISIONS(2568398225584: u8}) </text>
<text text-anchor="middle" x="980" y="-484.8" font-family="Times New Roman,serif" font-size="14.00">out0: {f32}[1,6,9,9]</text>
</g>
<!-- FakeQuantize_90&#45;&gt;Concat_97 -->
<g id="edge24" class="edge">
<title>FakeQuantize_90&#45;&gt;Concat_97</title>
<path fill="none" stroke="black" d="M1210.57,-670.87C1181.83,-655.74 1151.76,-639.91 1123.2,-624.88"/>
<polygon fill="black" stroke="black" points="1124.45,-621.58 1113.98,-620.02 1121.19,-627.78 1124.45,-621.58"/>
<text text-anchor="middle" x="1191" y="-641.8" font-family="Times New Roman,serif" font-size="14.00"> 0 &#45;&gt; 1 </text>
</g>
<!-- FakeQuantize_96 -->
<g id="node12" class="node">
<title>FakeQuantize_96</title>
<polygon fill="none" stroke="black" points="2489,-829 1885,-829 1885,-671 2489,-671 2489,-829"/>
<text text-anchor="middle" x="2187" y="-813.8" font-family="Times New Roman,serif" font-size="14.00">friendly_name: fakeQuantize3</text>
<text text-anchor="middle" x="2187" y="-798.8" font-family="Times New Roman,serif" font-size="14.00">name: FakeQuantize_96</text>
<text text-anchor="middle" x="2187" y="-783.8" font-family="Times New Roman,serif" font-size="14.00">type_name: FakeQuantize</text>
<text text-anchor="middle" x="2187" y="-768.8" font-family="Times New Roman,serif" font-size="14.00">rt info: &#160;QUANTIZATION_ALIGNMENT(2568398406816: low: &#45;1.28, high: 1.27, hasToBeAligned: true)</text>
<text text-anchor="middle" x="2187" y="-753.8" font-family="Times New Roman,serif" font-size="14.00">in0: {f32}[1,3,9,9]: Parameter_91: out0</text>
<text text-anchor="middle" x="2187" y="-738.8" font-family="Times New Roman,serif" font-size="14.00">in1: {f32}[]: Constant_92: out0</text>
<text text-anchor="middle" x="2187" y="-723.8" font-family="Times New Roman,serif" font-size="14.00">in2: {f32}[]: Constant_93: out0</text>
<text text-anchor="middle" x="2187" y="-708.8" font-family="Times New Roman,serif" font-size="14.00">in3: {f32}[]: Constant_94: out0</text>
<text text-anchor="middle" x="2187" y="-693.8" font-family="Times New Roman,serif" font-size="14.00">in4: {f32}[]: Constant_95: out0</text>
<text text-anchor="middle" x="2187" y="-678.8" font-family="Times New Roman,serif" font-size="14.00">out0: {f32}[1,3,9,9] PRECISIONS(2568398225584: u8}) </text>
</g>
<!-- FakeQuantize_96&#45;&gt;Concat_98 -->
<g id="edge11" class="edge">
<title>FakeQuantize_96&#45;&gt;Concat_98</title>
<path fill="none" stroke="black" d="M1962.2,-670.87C1917.16,-655.22 1869.98,-638.82 1825.38,-623.32"/>
<polygon fill="black" stroke="black" points="1826.5,-620 1815.91,-620.02 1824.2,-626.61 1826.5,-620"/>
<text text-anchor="middle" x="1921" y="-641.8" font-family="Times New Roman,serif" font-size="14.00"> 0 &#45;&gt; 1 </text>
</g>
<!-- CLONE_5 -->
<g id="node13" class="node">
<title>CLONE_5</title>
<polygon fill="none" stroke="blue" stroke-dasharray="5,2" points="1986,-948 1846,-948 1846,-880 1986,-880 1986,-948"/>
<text text-anchor="middle" x="1916" y="-932.8" font-family="Times New Roman,serif" font-size="14.00">friendly_name: input3</text>
<text text-anchor="middle" x="1916" y="-917.8" font-family="Times New Roman,serif" font-size="14.00">name: Parameter_91</text>
<text text-anchor="middle" x="1916" y="-902.8" font-family="Times New Roman,serif" font-size="14.00">type_name: Parameter</text>
<text text-anchor="middle" x="1916" y="-887.8" font-family="Times New Roman,serif" font-size="14.00">{f32}[1,3,9,9]</text>
</g>
<!-- CLONE_5&#45;&gt;FakeQuantize_96 -->
<g id="edge12" class="edge">
<title>CLONE_5&#45;&gt;FakeQuantize_96</title>
<path fill="none" stroke="black" d="M1971.49,-879.83C1993.78,-866.5 2020.57,-850.49 2047.56,-834.35"/>
<polygon fill="black" stroke="black" points="2049.54,-837.25 2056.33,-829.11 2045.95,-831.24 2049.54,-837.25"/>
<text text-anchor="middle" x="2041" y="-850.8" font-family="Times New Roman,serif" font-size="14.00"> 0 &#45;&gt; 0 </text>
</g>
<!-- CLONE_6 -->
<g id="node14" class="node">
<title>CLONE_6</title>
<polygon fill="none" stroke="black" stroke-dasharray="5,2" points="2177.5,-948 2004.5,-948 2004.5,-880 2177.5,-880 2177.5,-948"/>
<text text-anchor="middle" x="2091" y="-932.8" font-family="Times New Roman,serif" font-size="14.00">friendly_name: Constant_92</text>
<text text-anchor="middle" x="2091" y="-917.8" font-family="Times New Roman,serif" font-size="14.00">type_name: Constant</text>
<text text-anchor="middle" x="2091" y="-902.8" font-family="Times New Roman,serif" font-size="14.00">{f32}[]</text>
<text text-anchor="middle" x="2091" y="-887.8" font-family="Times New Roman,serif" font-size="14.00">value: [&#45;0.426667]</text>
</g>
<!-- CLONE_6&#45;&gt;FakeQuantize_96 -->
<g id="edge13" class="edge">
<title>CLONE_6&#45;&gt;FakeQuantize_96</title>
<path fill="none" stroke="black" d="M2110.66,-879.83C2117.95,-867.52 2126.6,-852.92 2135.41,-838.05"/>
<polygon fill="black" stroke="black" points="2138.52,-839.67 2140.61,-829.28 2132.5,-836.1 2138.52,-839.67"/>
<text text-anchor="middle" x="2149" y="-850.8" font-family="Times New Roman,serif" font-size="14.00"> 0 &#45;&gt; 1 </text>
</g>
<!-- CLONE_7 -->
<g id="node15" class="node">
<title>CLONE_7</title>
<polygon fill="none" stroke="black" stroke-dasharray="5,2" points="2368.5,-948 2195.5,-948 2195.5,-880 2368.5,-880 2368.5,-948"/>
<text text-anchor="middle" x="2282" y="-932.8" font-family="Times New Roman,serif" font-size="14.00">friendly_name: Constant_93</text>
<text text-anchor="middle" x="2282" y="-917.8" font-family="Times New Roman,serif" font-size="14.00">type_name: Constant</text>
<text text-anchor="middle" x="2282" y="-902.8" font-family="Times New Roman,serif" font-size="14.00">{f32}[]</text>
<text text-anchor="middle" x="2282" y="-887.8" font-family="Times New Roman,serif" font-size="14.00">value: [0.423333]</text>
</g>
<!-- CLONE_7&#45;&gt;FakeQuantize_96 -->
<g id="edge14" class="edge">
<title>CLONE_7&#45;&gt;FakeQuantize_96</title>
<path fill="none" stroke="black" d="M2262.55,-879.83C2255.33,-867.52 2246.77,-852.92 2238.05,-838.05"/>
<polygon fill="black" stroke="black" points="2240.98,-836.14 2232.91,-829.28 2234.95,-839.68 2240.98,-836.14"/>
<text text-anchor="middle" x="2273" y="-850.8" font-family="Times New Roman,serif" font-size="14.00"> 0 &#45;&gt; 2 </text>
</g>
<!-- CLONE_8 -->
<g id="node16" class="node">
<title>CLONE_8</title>
<polygon fill="none" stroke="black" stroke-dasharray="5,2" points="2559.5,-948 2386.5,-948 2386.5,-880 2559.5,-880 2559.5,-948"/>
<text text-anchor="middle" x="2473" y="-932.8" font-family="Times New Roman,serif" font-size="14.00">friendly_name: Constant_94</text>
<text text-anchor="middle" x="2473" y="-917.8" font-family="Times New Roman,serif" font-size="14.00">type_name: Constant</text>
<text text-anchor="middle" x="2473" y="-902.8" font-family="Times New Roman,serif" font-size="14.00">{f32}[]</text>
<text text-anchor="middle" x="2473" y="-887.8" font-family="Times New Roman,serif" font-size="14.00">value: [&#45;0.426667]</text>
</g>
<!-- CLONE_8&#45;&gt;FakeQuantize_96 -->
<g id="edge15" class="edge">
<title>CLONE_8&#45;&gt;FakeQuantize_96</title>
<path fill="none" stroke="black" d="M2414.43,-879.83C2390.81,-866.45 2362.4,-850.35 2333.79,-834.14"/>
<polygon fill="black" stroke="black" points="2335.33,-831 2324.9,-829.11 2331.88,-837.09 2335.33,-831"/>
<text text-anchor="middle" x="2402" y="-850.8" font-family="Times New Roman,serif" font-size="14.00"> 0 &#45;&gt; 3 </text>
</g>
<!-- CLONE_9 -->
<g id="node17" class="node">
<title>CLONE_9</title>
<polygon fill="none" stroke="black" stroke-dasharray="5,2" points="2750.5,-948 2577.5,-948 2577.5,-880 2750.5,-880 2750.5,-948"/>
<text text-anchor="middle" x="2664" y="-932.8" font-family="Times New Roman,serif" font-size="14.00">friendly_name: Constant_95</text>
<text text-anchor="middle" x="2664" y="-917.8" font-family="Times New Roman,serif" font-size="14.00">type_name: Constant</text>
<text text-anchor="middle" x="2664" y="-902.8" font-family="Times New Roman,serif" font-size="14.00">{f32}[]</text>
<text text-anchor="middle" x="2664" y="-887.8" font-family="Times New Roman,serif" font-size="14.00">value: [0.423333]</text>
</g>
<!-- CLONE_9&#45;&gt;FakeQuantize_96 -->
<g id="edge16" class="edge">
<title>CLONE_9&#45;&gt;FakeQuantize_96</title>
<path fill="none" stroke="black" d="M2577.4,-883.21C2574.23,-882.13 2571.09,-881.05 2568,-880 2522.63,-864.52 2474.2,-848.07 2427.6,-832.28"/>
<polygon fill="black" stroke="black" points="2428.6,-828.92 2418,-829.02 2426.35,-835.55 2428.6,-828.92"/>
<text text-anchor="middle" x="2527" y="-850.8" font-family="Times New Roman,serif" font-size="14.00"> 0 &#45;&gt; 4 </text>
</g>
<!-- CLONE_10 -->
<g id="node18" class="node">
<title>CLONE_10</title>
<polygon fill="none" stroke="blue" stroke-dasharray="5,2" points="1063,-948 923,-948 923,-880 1063,-880 1063,-948"/>
<text text-anchor="middle" x="993" y="-932.8" font-family="Times New Roman,serif" font-size="14.00">friendly_name: input2</text>
<text text-anchor="middle" x="993" y="-917.8" font-family="Times New Roman,serif" font-size="14.00">name: Parameter_85</text>
<text text-anchor="middle" x="993" y="-902.8" font-family="Times New Roman,serif" font-size="14.00">type_name: Parameter</text>
<text text-anchor="middle" x="993" y="-887.8" font-family="Times New Roman,serif" font-size="14.00">{f32}[1,3,9,9]</text>
</g>
<!-- CLONE_10&#45;&gt;FakeQuantize_90 -->
<g id="edge17" class="edge">
<title>CLONE_10&#45;&gt;FakeQuantize_90</title>
<path fill="none" stroke="black" d="M1063.14,-881.96C1094.84,-867.92 1133.96,-850.61 1173.26,-833.21"/>
<polygon fill="black" stroke="black" points="1174.98,-836.28 1182.71,-829.03 1172.14,-829.88 1174.98,-836.28"/>
<text text-anchor="middle" x="1154" y="-850.8" font-family="Times New Roman,serif" font-size="14.00"> 0 &#45;&gt; 0 </text>
</g>
<!-- CLONE_11 -->
<g id="node19" class="node">
<title>CLONE_11</title>
<polygon fill="none" stroke="black" stroke-dasharray="5,2" points="1254.5,-948 1081.5,-948 1081.5,-880 1254.5,-880 1254.5,-948"/>
<text text-anchor="middle" x="1168" y="-932.8" font-family="Times New Roman,serif" font-size="14.00">friendly_name: Constant_86</text>
<text text-anchor="middle" x="1168" y="-917.8" font-family="Times New Roman,serif" font-size="14.00">type_name: Constant</text>
<text text-anchor="middle" x="1168" y="-902.8" font-family="Times New Roman,serif" font-size="14.00">{f32}[]</text>
<text text-anchor="middle" x="1168" y="-887.8" font-family="Times New Roman,serif" font-size="14.00">value: [&#45;0.64]</text>
</g>
<!-- CLONE_11&#45;&gt;FakeQuantize_90 -->
<g id="edge18" class="edge">
<title>CLONE_11&#45;&gt;FakeQuantize_90</title>
<path fill="none" stroke="black" d="M1207.11,-879.83C1222.3,-866.95 1240.44,-851.56 1258.82,-835.97"/>
<polygon fill="black" stroke="black" points="1261.34,-838.42 1266.7,-829.28 1256.81,-833.08 1261.34,-838.42"/>
<text text-anchor="middle" x="1262" y="-850.8" font-family="Times New Roman,serif" font-size="14.00"> 0 &#45;&gt; 1 </text>
</g>
<!-- CLONE_12 -->
<g id="node20" class="node">
<title>CLONE_12</title>
<polygon fill="none" stroke="black" stroke-dasharray="5,2" points="1445.5,-948 1272.5,-948 1272.5,-880 1445.5,-880 1445.5,-948"/>
<text text-anchor="middle" x="1359" y="-932.8" font-family="Times New Roman,serif" font-size="14.00">friendly_name: Constant_87</text>
<text text-anchor="middle" x="1359" y="-917.8" font-family="Times New Roman,serif" font-size="14.00">type_name: Constant</text>
<text text-anchor="middle" x="1359" y="-902.8" font-family="Times New Roman,serif" font-size="14.00">{f32}[]</text>
<text text-anchor="middle" x="1359" y="-887.8" font-family="Times New Roman,serif" font-size="14.00">value: [0.635]</text>
</g>
<!-- CLONE_12&#45;&gt;FakeQuantize_90 -->
<g id="edge19" class="edge">
<title>CLONE_12&#45;&gt;FakeQuantize_90</title>
<path fill="none" stroke="black" d="M1359,-879.83C1359,-867.87 1359,-853.74 1359,-839.3"/>
<polygon fill="black" stroke="black" points="1362.5,-839.28 1359,-829.28 1355.5,-839.28 1362.5,-839.28"/>
<text text-anchor="middle" x="1380" y="-850.8" font-family="Times New Roman,serif" font-size="14.00"> 0 &#45;&gt; 2 </text>
</g>
<!-- CLONE_13 -->
<g id="node21" class="node">
<title>CLONE_13</title>
<polygon fill="none" stroke="black" stroke-dasharray="5,2" points="1636.5,-948 1463.5,-948 1463.5,-880 1636.5,-880 1636.5,-948"/>
<text text-anchor="middle" x="1550" y="-932.8" font-family="Times New Roman,serif" font-size="14.00">friendly_name: Constant_88</text>
<text text-anchor="middle" x="1550" y="-917.8" font-family="Times New Roman,serif" font-size="14.00">type_name: Constant</text>
<text text-anchor="middle" x="1550" y="-902.8" font-family="Times New Roman,serif" font-size="14.00">{f32}[]</text>
<text text-anchor="middle" x="1550" y="-887.8" font-family="Times New Roman,serif" font-size="14.00">value: [&#45;0.64]</text>
</g>
<!-- CLONE_13&#45;&gt;FakeQuantize_90 -->
<g id="edge20" class="edge">
<title>CLONE_13&#45;&gt;FakeQuantize_90</title>
<path fill="none" stroke="black" d="M1510.89,-879.83C1495.7,-866.95 1477.56,-851.56 1459.18,-835.97"/>
<polygon fill="black" stroke="black" points="1461.19,-833.08 1451.3,-829.28 1456.66,-838.42 1461.19,-833.08"/>
<text text-anchor="middle" x="1510" y="-850.8" font-family="Times New Roman,serif" font-size="14.00"> 0 &#45;&gt; 3 </text>
</g>
<!-- CLONE_14 -->
<g id="node22" class="node">
<title>CLONE_14</title>
<polygon fill="none" stroke="black" stroke-dasharray="5,2" points="1827.5,-948 1654.5,-948 1654.5,-880 1827.5,-880 1827.5,-948"/>
<text text-anchor="middle" x="1741" y="-932.8" font-family="Times New Roman,serif" font-size="14.00">friendly_name: Constant_89</text>
<text text-anchor="middle" x="1741" y="-917.8" font-family="Times New Roman,serif" font-size="14.00">type_name: Constant</text>
<text text-anchor="middle" x="1741" y="-902.8" font-family="Times New Roman,serif" font-size="14.00">{f32}[]</text>
<text text-anchor="middle" x="1741" y="-887.8" font-family="Times New Roman,serif" font-size="14.00">value: [0.635]</text>
</g>
<!-- CLONE_14&#45;&gt;FakeQuantize_90 -->
<g id="edge21" class="edge">
<title>CLONE_14&#45;&gt;FakeQuantize_90</title>
<path fill="none" stroke="black" d="M1662.77,-879.83C1630.54,-866.16 1591.64,-849.66 1552.59,-833.1"/>
<polygon fill="black" stroke="black" points="1553.77,-829.8 1543.19,-829.11 1551.03,-836.24 1553.77,-829.8"/>
<text text-anchor="middle" x="1639" y="-850.8" font-family="Times New Roman,serif" font-size="14.00"> 0 &#45;&gt; 4 </text>
</g>
<!-- Result_107 -->
<g id="node24" class="node">
<title>Result_107</title>
<polygon fill="none" stroke="crimson" stroke-width="1.5" points="1089,-381 871,-381 871,-313 1089,-313 1089,-381"/>
<text text-anchor="middle" x="980" y="-365.8" font-family="Times New Roman,serif" font-size="14.00">friendly_name: Result_107</text>
<text text-anchor="middle" x="980" y="-350.8" font-family="Times New Roman,serif" font-size="14.00">type_name: Result</text>
<text text-anchor="middle" x="980" y="-335.8" font-family="Times New Roman,serif" font-size="14.00">in0: {f32}[1,6,9,9]: Concat_97: out0</text>
<text text-anchor="middle" x="980" y="-320.8" font-family="Times New Roman,serif" font-size="14.00">out0: {f32}[1,6,9,9]</text>
</g>
<!-- Concat_97&#45;&gt;Result_107 -->
<g id="edge22" class="edge">
<title>Concat_97&#45;&gt;Result_107</title>
<path fill="none" stroke="black" d="M980,-476.88C980,-448.34 980,-416.31 980,-391.32"/>
<polygon fill="black" stroke="black" points="983.5,-391.08 980,-381.08 976.5,-391.08 983.5,-391.08"/>
<text text-anchor="middle" x="1001" y="-447.8" font-family="Times New Roman,serif" font-size="14.00"> 0 &#45;&gt; 0 </text>
</g>
<!-- FakeQuantize_84 -->
<g id="node25" class="node">
<title>FakeQuantize_84</title>
<polygon fill="none" stroke="black" points="834,-829 230,-829 230,-671 834,-671 834,-829"/>
<text text-anchor="middle" x="532" y="-813.8" font-family="Times New Roman,serif" font-size="14.00">friendly_name: fakeQuantize1</text>
<text text-anchor="middle" x="532" y="-798.8" font-family="Times New Roman,serif" font-size="14.00">name: FakeQuantize_84</text>
<text text-anchor="middle" x="532" y="-783.8" font-family="Times New Roman,serif" font-size="14.00">type_name: FakeQuantize</text>
<text text-anchor="middle" x="532" y="-768.8" font-family="Times New Roman,serif" font-size="14.00">rt info: &#160;QUANTIZATION_ALIGNMENT(2568398406816: low: &#45;1.28, high: 1.27, hasToBeAligned: true)</text>
<text text-anchor="middle" x="532" y="-753.8" font-family="Times New Roman,serif" font-size="14.00">in0: {f32}[1,3,9,9]: Parameter_79: out0</text>
<text text-anchor="middle" x="532" y="-738.8" font-family="Times New Roman,serif" font-size="14.00">in1: {f32}[]: Constant_80: out0</text>
<text text-anchor="middle" x="532" y="-723.8" font-family="Times New Roman,serif" font-size="14.00">in2: {f32}[]: Constant_81: out0</text>
<text text-anchor="middle" x="532" y="-708.8" font-family="Times New Roman,serif" font-size="14.00">in3: {f32}[]: Constant_82: out0</text>
<text text-anchor="middle" x="532" y="-693.8" font-family="Times New Roman,serif" font-size="14.00">in4: {f32}[]: Constant_83: out0</text>
<text text-anchor="middle" x="532" y="-678.8" font-family="Times New Roman,serif" font-size="14.00">out0: {f32}[1,3,9,9] PRECISIONS(2568398225584: u8}) </text>
</g>
<!-- FakeQuantize_84&#45;&gt;Concat_97 -->
<g id="edge23" class="edge">
<title>FakeQuantize_84&#45;&gt;Concat_97</title>
<path fill="none" stroke="black" d="M707.45,-670.87C742.02,-655.48 778.2,-639.37 812.49,-624.1"/>
<polygon fill="black" stroke="black" points="813.92,-627.29 821.63,-620.02 811.07,-620.89 813.92,-627.29"/>
<text text-anchor="middle" x="791" y="-641.8" font-family="Times New Roman,serif" font-size="14.00"> 0 &#45;&gt; 0 </text>
</g>
<!-- CLONE_15 -->
<g id="node26" class="node">
<title>CLONE_15</title>
<polygon fill="none" stroke="blue" stroke-dasharray="5,2" points="140,-948 0,-948 0,-880 140,-880 140,-948"/>
<text text-anchor="middle" x="70" y="-932.8" font-family="Times New Roman,serif" font-size="14.00">friendly_name: input1</text>
<text text-anchor="middle" x="70" y="-917.8" font-family="Times New Roman,serif" font-size="14.00">name: Parameter_79</text>
<text text-anchor="middle" x="70" y="-902.8" font-family="Times New Roman,serif" font-size="14.00">type_name: Parameter</text>
<text text-anchor="middle" x="70" y="-887.8" font-family="Times New Roman,serif" font-size="14.00">{f32}[1,3,9,9]</text>
</g>
<!-- CLONE_15&#45;&gt;FakeQuantize_84 -->
<g id="edge25" class="edge">
<title>CLONE_15&#45;&gt;FakeQuantize_84</title>
<path fill="none" stroke="black" d="M140.11,-883.41C143.11,-882.24 146.08,-881.1 149,-880 191.83,-863.86 237.71,-847.57 282.29,-832.26"/>
<polygon fill="black" stroke="black" points="283.46,-835.56 291.78,-829.01 281.19,-828.94 283.46,-835.56"/>
<text text-anchor="middle" x="254" y="-850.8" font-family="Times New Roman,serif" font-size="14.00"> 0 &#45;&gt; 0 </text>
</g>
<!-- CLONE_16 -->
<g id="node27" class="node">
<title>CLONE_16</title>
<polygon fill="none" stroke="black" stroke-dasharray="5,2" points="331.5,-948 158.5,-948 158.5,-880 331.5,-880 331.5,-948"/>
<text text-anchor="middle" x="245" y="-932.8" font-family="Times New Roman,serif" font-size="14.00">friendly_name: Constant_80</text>
<text text-anchor="middle" x="245" y="-917.8" font-family="Times New Roman,serif" font-size="14.00">type_name: Constant</text>
<text text-anchor="middle" x="245" y="-902.8" font-family="Times New Roman,serif" font-size="14.00">{f32}[]</text>
<text text-anchor="middle" x="245" y="-887.8" font-family="Times New Roman,serif" font-size="14.00">value: [&#45;1.28]</text>
</g>
<!-- CLONE_16&#45;&gt;FakeQuantize_84 -->
<g id="edge26" class="edge">
<title>CLONE_16&#45;&gt;FakeQuantize_84</title>
<path fill="none" stroke="black" d="M303.77,-879.83C327.48,-866.45 355.99,-850.35 384.7,-834.14"/>
<polygon fill="black" stroke="black" points="386.63,-837.08 393.61,-829.11 383.18,-830.98 386.63,-837.08"/>
<text text-anchor="middle" x="376" y="-850.8" font-family="Times New Roman,serif" font-size="14.00"> 0 &#45;&gt; 1 </text>
</g>
<!-- CLONE_17 -->
<g id="node28" class="node">
<title>CLONE_17</title>
<polygon fill="none" stroke="black" stroke-dasharray="5,2" points="522.5,-948 349.5,-948 349.5,-880 522.5,-880 522.5,-948"/>
<text text-anchor="middle" x="436" y="-932.8" font-family="Times New Roman,serif" font-size="14.00">friendly_name: Constant_81</text>
<text text-anchor="middle" x="436" y="-917.8" font-family="Times New Roman,serif" font-size="14.00">type_name: Constant</text>
<text text-anchor="middle" x="436" y="-902.8" font-family="Times New Roman,serif" font-size="14.00">{f32}[]</text>
<text text-anchor="middle" x="436" y="-887.8" font-family="Times New Roman,serif" font-size="14.00">value: [1.27]</text>
</g>
<!-- CLONE_17&#45;&gt;FakeQuantize_84 -->
<g id="edge27" class="edge">
<title>CLONE_17&#45;&gt;FakeQuantize_84</title>
<path fill="none" stroke="black" d="M455.66,-879.83C462.95,-867.52 471.6,-852.92 480.41,-838.05"/>
<polygon fill="black" stroke="black" points="483.52,-839.67 485.61,-829.28 477.5,-836.1 483.52,-839.67"/>
<text text-anchor="middle" x="494" y="-850.8" font-family="Times New Roman,serif" font-size="14.00"> 0 &#45;&gt; 2 </text>
</g>
<!-- CLONE_18 -->
<g id="node29" class="node">
<title>CLONE_18</title>
<polygon fill="none" stroke="black" stroke-dasharray="5,2" points="713.5,-948 540.5,-948 540.5,-880 713.5,-880 713.5,-948"/>
<text text-anchor="middle" x="627" y="-932.8" font-family="Times New Roman,serif" font-size="14.00">friendly_name: Constant_82</text>
<text text-anchor="middle" x="627" y="-917.8" font-family="Times New Roman,serif" font-size="14.00">type_name: Constant</text>
<text text-anchor="middle" x="627" y="-902.8" font-family="Times New Roman,serif" font-size="14.00">{f32}[]</text>
<text text-anchor="middle" x="627" y="-887.8" font-family="Times New Roman,serif" font-size="14.00">value: [&#45;1.28]</text>
</g>
<!-- CLONE_18&#45;&gt;FakeQuantize_84 -->
<g id="edge28" class="edge">
<title>CLONE_18&#45;&gt;FakeQuantize_84</title>
<path fill="none" stroke="black" d="M607.55,-879.83C600.33,-867.52 591.77,-852.92 583.05,-838.05"/>
<polygon fill="black" stroke="black" points="585.98,-836.14 577.91,-829.28 579.95,-839.68 585.98,-836.14"/>
<text text-anchor="middle" x="618" y="-850.8" font-family="Times New Roman,serif" font-size="14.00"> 0 &#45;&gt; 3 </text>
</g>
<!-- CLONE_19 -->
<g id="node30" class="node">
<title>CLONE_19</title>
<polygon fill="none" stroke="black" stroke-dasharray="5,2" points="904.5,-948 731.5,-948 731.5,-880 904.5,-880 904.5,-948"/>
<text text-anchor="middle" x="818" y="-932.8" font-family="Times New Roman,serif" font-size="14.00">friendly_name: Constant_83</text>
<text text-anchor="middle" x="818" y="-917.8" font-family="Times New Roman,serif" font-size="14.00">type_name: Constant</text>
<text text-anchor="middle" x="818" y="-902.8" font-family="Times New Roman,serif" font-size="14.00">{f32}[]</text>
<text text-anchor="middle" x="818" y="-887.8" font-family="Times New Roman,serif" font-size="14.00">value: [1.27]</text>
</g>
<!-- CLONE_19&#45;&gt;FakeQuantize_84 -->
<g id="edge29" class="edge">
<title>CLONE_19&#45;&gt;FakeQuantize_84</title>
<path fill="none" stroke="black" d="M759.43,-879.83C735.81,-866.45 707.4,-850.35 678.79,-834.14"/>
<polygon fill="black" stroke="black" points="680.33,-831 669.9,-829.11 676.88,-837.09 680.33,-831"/>
<text text-anchor="middle" x="747" y="-850.8" font-family="Times New Roman,serif" font-size="14.00"> 0 &#45;&gt; 4 </text>
</g>
</g>
</svg>
