<?xml version="1.0" encoding="UTF-8" standalone="no"?>
<!DOCTYPE svg PUBLIC "-//W3C//DTD SVG 1.1//EN"
 "http://www.w3.org/Graphics/SVG/1.1/DTD/svg11.dtd">
<!-- Generated by graphviz version 2.43.20200408.0903 (20200408.0903)
 -->
<!-- Title: ngraph Pages: 1 -->
<svg width="3411pt" height="971pt"
 viewBox="0.00 0.00 3410.50 971.00" xmlns="http://www.w3.org/2000/svg" xmlns:xlink="http://www.w3.org/1999/xlink">
<g id="graph0" class="graph" transform="scale(1 1) rotate(0) translate(4 967)">
<title>ngraph</title>
<polygon fill="white" stroke="transparent" points="-4,4 -4,-967 3406.5,-967 3406.5,4 -4,4"/>
<!-- Convolution_106 -->
<g id="node1" class="node">
<title>Convolution_106</title>
<polygon fill="none" stroke="black" points="2490,-217 2020,-217 2020,-119 2490,-119 2490,-217"/>
<text text-anchor="middle" x="2255" y="-201.8" font-family="Times New Roman,serif" font-size="14.00">friendly_name: convolution</text>
<text text-anchor="middle" x="2255" y="-186.8" font-family="Times New Roman,serif" font-size="14.00">name: Convolution_106</text>
<text text-anchor="middle" x="2255" y="-171.8" font-family="Times New Roman,serif" font-size="14.00">type_name: Convolution</text>
<text text-anchor="middle" x="2255" y="-156.8" font-family="Times New Roman,serif" font-size="14.00">in0: {f32}[1,6,7,7]: MaxPool_99: out0 PRECISIONS(2588780580416: u8}) </text>
<text text-anchor="middle" x="2255" y="-141.8" font-family="Times New Roman,serif" font-size="14.00">in1: {f32}[9,6,1,1]: FakeQuantize_105: out0 PRECISIONS(2588780584448: i8}) </text>
<text text-anchor="middle" x="2255" y="-126.8" font-family="Times New Roman,serif" font-size="14.00">out0: {f32}[1,9,7,7]</text>
</g>
<!-- Result_108 -->
<g id="node2" class="node">
<title>Result_108</title>
<polygon fill="none" stroke="crimson" stroke-width="1.5" points="2382,-68 2128,-68 2128,0 2382,0 2382,-68"/>
<text text-anchor="middle" x="2255" y="-52.8" font-family="Times New Roman,serif" font-size="14.00">friendly_name: Result_108</text>
<text text-anchor="middle" x="2255" y="-37.8" font-family="Times New Roman,serif" font-size="14.00">type_name: Result</text>
<text text-anchor="middle" x="2255" y="-22.8" font-family="Times New Roman,serif" font-size="14.00">in0: {f32}[1,9,7,7]: Convolution_106: out0</text>
<text text-anchor="middle" x="2255" y="-7.8" font-family="Times New Roman,serif" font-size="14.00">out0: {f32}[1,9,7,7]</text>
</g>
<!-- Convolution_106&#45;&gt;Result_108 -->
<g id="edge1" class="edge">
<title>Convolution_106&#45;&gt;Result_108</title>
<path fill="none" stroke="black" d="M2255,-118.97C2255,-105.71 2255,-91.4 2255,-78.42"/>
<polygon fill="black" stroke="black" points="2258.5,-78.33 2255,-68.33 2251.5,-78.33 2258.5,-78.33"/>
<text text-anchor="middle" x="2276" y="-89.8" font-family="Times New Roman,serif" font-size="14.00"> 0 &#45;&gt; 0 </text>
</g>
<!-- MaxPool_99 -->
<g id="node3" class="node">
<title>MaxPool_99</title>
<polygon fill="none" stroke="black" points="1984,-411 1536,-411 1536,-283 1984,-283 1984,-411"/>
<text text-anchor="middle" x="1760" y="-395.8" font-family="Times New Roman,serif" font-size="14.00">friendly_name: MaxPool</text>
<text text-anchor="middle" x="1760" y="-380.8" font-family="Times New Roman,serif" font-size="14.00">name: MaxPool_99</text>
<text text-anchor="middle" x="1760" y="-365.8" font-family="Times New Roman,serif" font-size="14.00">type_name: MaxPool</text>
<text text-anchor="middle" x="1760" y="-350.8" font-family="Times New Roman,serif" font-size="14.00">rt info: &#160;INTERVALS_ALIGNMENT(2588780199328: low: &#45;1.28, high: 1.27)</text>
<text text-anchor="middle" x="1760" y="-335.8" font-family="Times New Roman,serif" font-size="14.00">PRECISION_PRESERVED(value: true)</text>
<text text-anchor="middle" x="1760" y="-320.8" font-family="Times New Roman,serif" font-size="14.00">QUANTIZATION_ALIGNMENT(2588780198176: value: true)</text>
<text text-anchor="middle" x="1760" y="-305.8" font-family="Times New Roman,serif" font-size="14.00">in0: {f32}[1,6,9,9]: Concat_98: out0 PRECISIONS(2588780580416: u8}) </text>
<text text-anchor="middle" x="1760" y="-290.8" font-family="Times New Roman,serif" font-size="14.00">out0: {f32}[1,6,7,7]</text>
</g>
<!-- MaxPool_99&#45;&gt;Convolution_106 -->
<g id="edge2" class="edge">
<title>MaxPool_99&#45;&gt;Convolution_106</title>
<path fill="none" stroke="black" d="M1936.26,-282.97C1993.52,-262.5 2056.33,-240.04 2110.95,-220.51"/>
<polygon fill="black" stroke="black" points="2112.46,-223.69 2120.69,-217.02 2110.1,-217.1 2112.46,-223.69"/>
<text text-anchor="middle" x="2088" y="-238.8" font-family="Times New Roman,serif" font-size="14.00"> 0 &#45;&gt; 0 </text>
</g>
<!-- FakeQuantize_105 -->
<g id="node4" class="node">
<title>FakeQuantize_105</title>
<polygon fill="none" stroke="black" points="2773,-426 2325,-426 2325,-268 2773,-268 2773,-426"/>
<text text-anchor="middle" x="2549" y="-410.8" font-family="Times New Roman,serif" font-size="14.00">friendly_name: fakeQuantizeOnWeights</text>
<text text-anchor="middle" x="2549" y="-395.8" font-family="Times New Roman,serif" font-size="14.00">name: FakeQuantize_105</text>
<text text-anchor="middle" x="2549" y="-380.8" font-family="Times New Roman,serif" font-size="14.00">type_name: FakeQuantize</text>
<text text-anchor="middle" x="2549" y="-365.8" font-family="Times New Roman,serif" font-size="14.00">rt info: &#160;INTERVALS_ALIGNMENT(2588780201536: low: &#45;1.27, high: 1.27)</text>
<text text-anchor="middle" x="2549" y="-350.8" font-family="Times New Roman,serif" font-size="14.00">in0: {f32}[9,6,1,1]: Constant_100: out0</text>
<text text-anchor="middle" x="2549" y="-335.8" font-family="Times New Roman,serif" font-size="14.00">in1: {f32}[9,1,1,1]: Constant_101: out0</text>
<text text-anchor="middle" x="2549" y="-320.8" font-family="Times New Roman,serif" font-size="14.00">in2: {f32}[9,1,1,1]: Constant_102: out0</text>
<text text-anchor="middle" x="2549" y="-305.8" font-family="Times New Roman,serif" font-size="14.00">in3: {f32}[9,1,1,1]: Constant_103: out0</text>
<text text-anchor="middle" x="2549" y="-290.8" font-family="Times New Roman,serif" font-size="14.00">in4: {f32}[9,1,1,1]: Constant_104: out0</text>
<text text-anchor="middle" x="2549" y="-275.8" font-family="Times New Roman,serif" font-size="14.00">out0: {f32}[9,6,1,1] PRECISIONS(2588780584448: i8}) </text>
</g>
<!-- FakeQuantize_105&#45;&gt;Convolution_106 -->
<g id="edge3" class="edge">
<title>FakeQuantize_105&#45;&gt;Convolution_106</title>
<path fill="none" stroke="black" d="M2419.19,-267.85C2393.71,-252.51 2367.53,-236.75 2343.77,-222.44"/>
<polygon fill="black" stroke="black" points="2345.5,-219.4 2335.13,-217.24 2341.89,-225.4 2345.5,-219.4"/>
<text text-anchor="middle" x="2406" y="-238.8" font-family="Times New Roman,serif" font-size="14.00"> 0 &#45;&gt; 1 </text>
</g>
<!-- CLONE_0 -->
<g id="node5" class="node">
<title>CLONE_0</title>
<polygon fill="none" stroke="black" stroke-dasharray="5,2" points="2054.5,-612.5 1837.5,-612.5 1837.5,-499.5 2054.5,-499.5 2054.5,-612.5"/>
<text text-anchor="middle" x="1946" y="-597.3" font-family="Times New Roman,serif" font-size="14.00">friendly_name: Constant_100</text>
<text text-anchor="middle" x="1946" y="-582.3" font-family="Times New Roman,serif" font-size="14.00">type_name: Constant</text>
<text text-anchor="middle" x="1946" y="-567.3" font-family="Times New Roman,serif" font-size="14.00">{f32}[9,6,1,1]</text>
<text text-anchor="middle" x="1946" y="-552.3" font-family="Times New Roman,serif" font-size="14.00">value: [54, 54, 54, 54, 54, 54, 54, 54</text>
<text text-anchor="middle" x="1946" y="-537.3" font-family="Times New Roman,serif" font-size="14.00">, 54, 54, 54, 54, 54, 54, 54, 54</text>
<text text-anchor="middle" x="1946" y="-522.3" font-family="Times New Roman,serif" font-size="14.00">, 54, 54, 54, 54, 54, 54, 54, 54</text>
<text text-anchor="middle" x="1946" y="-507.3" font-family="Times New Roman,serif" font-size="14.00">, 54, 54, 54, 54, 54, 54, 54, 54...]</text>
</g>
<!-- CLONE_0&#45;&gt;FakeQuantize_105 -->
<g id="edge4" class="edge">
<title>CLONE_0&#45;&gt;FakeQuantize_105</title>
<path fill="none" stroke="black" d="M2021.65,-499.43C2035,-491.13 2049.09,-483.27 2063,-477 2142.14,-441.3 2233.15,-413.87 2314.85,-393.67"/>
<polygon fill="black" stroke="black" points="2315.88,-397.02 2324.77,-391.24 2314.22,-390.22 2315.88,-397.02"/>
<text text-anchor="middle" x="2161" y="-447.8" font-family="Times New Roman,serif" font-size="14.00"> 0 &#45;&gt; 0 </text>
</g>
<!-- CLONE_1 -->
<g id="node6" class="node">
<title>CLONE_1</title>
<polygon fill="none" stroke="black" stroke-dasharray="5,2" points="2409.5,-597.5 2072.5,-597.5 2072.5,-514.5 2409.5,-514.5 2409.5,-597.5"/>
<text text-anchor="middle" x="2241" y="-582.3" font-family="Times New Roman,serif" font-size="14.00">friendly_name: Constant_101</text>
<text text-anchor="middle" x="2241" y="-567.3" font-family="Times New Roman,serif" font-size="14.00">type_name: Constant</text>
<text text-anchor="middle" x="2241" y="-552.3" font-family="Times New Roman,serif" font-size="14.00">{f32}[9,1,1,1]</text>
<text text-anchor="middle" x="2241" y="-537.3" font-family="Times New Roman,serif" font-size="14.00">value: [&#45;1.27, &#45;1.27, &#45;1.27, &#45;1.27, &#45;1.27, &#45;1.27, &#45;1.27, &#45;1.27</text>
<text text-anchor="middle" x="2241" y="-522.3" font-family="Times New Roman,serif" font-size="14.00">, &#45;1.27]</text>
</g>
<!-- CLONE_1&#45;&gt;FakeQuantize_105 -->
<g id="edge5" class="edge">
<title>CLONE_1&#45;&gt;FakeQuantize_105</title>
<path fill="none" stroke="black" d="M2301.48,-514.35C2336.55,-490.78 2382.03,-460.22 2424.41,-431.73"/>
<polygon fill="black" stroke="black" points="2426.5,-434.55 2432.85,-426.06 2422.59,-428.74 2426.5,-434.55"/>
<text text-anchor="middle" x="2426" y="-447.8" font-family="Times New Roman,serif" font-size="14.00"> 0 &#45;&gt; 1 </text>
</g>
<!-- CLONE_2 -->
<g id="node7" class="node">
<title>CLONE_2</title>
<polygon fill="none" stroke="black" stroke-dasharray="5,2" points="2728.5,-597.5 2427.5,-597.5 2427.5,-514.5 2728.5,-514.5 2728.5,-597.5"/>
<text text-anchor="middle" x="2578" y="-582.3" font-family="Times New Roman,serif" font-size="14.00">friendly_name: Constant_102</text>
<text text-anchor="middle" x="2578" y="-567.3" font-family="Times New Roman,serif" font-size="14.00">type_name: Constant</text>
<text text-anchor="middle" x="2578" y="-552.3" font-family="Times New Roman,serif" font-size="14.00">{f32}[9,1,1,1]</text>
<text text-anchor="middle" x="2578" y="-537.3" font-family="Times New Roman,serif" font-size="14.00">value: [1.27, 1.27, 1.27, 1.27, 1.27, 1.27, 1.27, 1.27</text>
<text text-anchor="middle" x="2578" y="-522.3" font-family="Times New Roman,serif" font-size="14.00">, 1.27]</text>
</g>
<!-- CLONE_2&#45;&gt;FakeQuantize_105 -->
<g id="edge6" class="edge">
<title>CLONE_2&#45;&gt;FakeQuantize_105</title>
<path fill="none" stroke="black" d="M2572.27,-514.1C2569.14,-491.75 2565.13,-463.16 2561.33,-436.02"/>
<polygon fill="black" stroke="black" points="2564.8,-435.52 2559.94,-426.1 2557.86,-436.49 2564.8,-435.52"/>
<text text-anchor="middle" x="2586" y="-447.8" font-family="Times New Roman,serif" font-size="14.00"> 0 &#45;&gt; 2 </text>
</g>
<!-- CLONE_3 -->
<g id="node8" class="node">
<title>CLONE_3</title>
<polygon fill="none" stroke="black" stroke-dasharray="5,2" points="3083.5,-597.5 2746.5,-597.5 2746.5,-514.5 3083.5,-514.5 3083.5,-597.5"/>
<text text-anchor="middle" x="2915" y="-582.3" font-family="Times New Roman,serif" font-size="14.00">friendly_name: Constant_103</text>
<text text-anchor="middle" x="2915" y="-567.3" font-family="Times New Roman,serif" font-size="14.00">type_name: Constant</text>
<text text-anchor="middle" x="2915" y="-552.3" font-family="Times New Roman,serif" font-size="14.00">{f32}[9,1,1,1]</text>
<text text-anchor="middle" x="2915" y="-537.3" font-family="Times New Roman,serif" font-size="14.00">value: [&#45;1.27, &#45;1.27, &#45;1.27, &#45;1.27, &#45;1.27, &#45;1.27, &#45;1.27, &#45;1.27</text>
<text text-anchor="middle" x="2915" y="-522.3" font-family="Times New Roman,serif" font-size="14.00">, &#45;1.27]</text>
</g>
<!-- CLONE_3&#45;&gt;FakeQuantize_105 -->
<g id="edge7" class="edge">
<title>CLONE_3&#45;&gt;FakeQuantize_105</title>
<path fill="none" stroke="black" d="M2843.13,-514.35C2801.11,-490.59 2746.52,-459.71 2695.79,-431.02"/>
<polygon fill="black" stroke="black" points="2697.45,-427.94 2687.03,-426.06 2694.01,-434.03 2697.45,-427.94"/>
<text text-anchor="middle" x="2764" y="-447.8" font-family="Times New Roman,serif" font-size="14.00"> 0 &#45;&gt; 3 </text>
</g>
<!-- CLONE_4 -->
<g id="node9" class="node">
<title>CLONE_4</title>
<polygon fill="none" stroke="black" stroke-dasharray="5,2" points="3402.5,-597.5 3101.5,-597.5 3101.5,-514.5 3402.5,-514.5 3402.5,-597.5"/>
<text text-anchor="middle" x="3252" y="-582.3" font-family="Times New Roman,serif" font-size="14.00">friendly_name: Constant_104</text>
<text text-anchor="middle" x="3252" y="-567.3" font-family="Times New Roman,serif" font-size="14.00">type_name: Constant</text>
<text text-anchor="middle" x="3252" y="-552.3" font-family="Times New Roman,serif" font-size="14.00">{f32}[9,1,1,1]</text>
<text text-anchor="middle" x="3252" y="-537.3" font-family="Times New Roman,serif" font-size="14.00">value: [1.27, 1.27, 1.27, 1.27, 1.27, 1.27, 1.27, 1.27</text>
<text text-anchor="middle" x="3252" y="-522.3" font-family="Times New Roman,serif" font-size="14.00">, 1.27]</text>
</g>
<!-- CLONE_4&#45;&gt;FakeQuantize_105 -->
<g id="edge8" class="edge">
<title>CLONE_4&#45;&gt;FakeQuantize_105</title>
<path fill="none" stroke="black" d="M3177.38,-514.39C3150.95,-501.16 3120.66,-487.25 3092,-477 2992.88,-441.55 2880.09,-412.96 2783.09,-391.79"/>
<polygon fill="black" stroke="black" points="2783.67,-388.33 2773.15,-389.63 2782.18,-395.17 2783.67,-388.33"/>
<text text-anchor="middle" x="3056" y="-447.8" font-family="Times New Roman,serif" font-size="14.00"> 0 &#45;&gt; 4 </text>
</g>
<!-- Concat_98 -->
<g id="node10" class="node">
<title>Concat_98</title>
<polygon fill="none" stroke="black" points="1819.5,-635 1352.5,-635 1352.5,-477 1819.5,-477 1819.5,-635"/>
<text text-anchor="middle" x="1586" y="-619.8" font-family="Times New Roman,serif" font-size="14.00">friendly_name: concat2</text>
<text text-anchor="middle" x="1586" y="-604.8" font-family="Times New Roman,serif" font-size="14.00">name: Concat_98</text>
<text text-anchor="middle" x="1586" y="-589.8" font-family="Times New Roman,serif" font-size="14.00">type_name: Concat</text>
<text text-anchor="middle" x="1586" y="-574.8" font-family="Times New Roman,serif" font-size="14.00">rt info: &#160;INTERVALS_ALIGNMENT(2588780199328: low: &#45;1.28, high: 1.27)</text>
<text text-anchor="middle" x="1586" y="-559.8" font-family="Times New Roman,serif" font-size="14.00">PRECISION_PRESERVED(value: true)</text>
<text text-anchor="middle" x="1586" y="-544.8" font-family="Times New Roman,serif" font-size="14.00">QUANTIZATION_ALIGNMENT(2588780198176: value: true)</text>
<text text-anchor="middle" x="1586" y="-529.8" font-family="Times New Roman,serif" font-size="14.00">Variant::std::string</text>
<text text-anchor="middle" x="1586" y="-514.8" font-family="Times New Roman,serif" font-size="14.00">in0: {f32}[1,3,9,9]: FakeQuantize_90: out0 PRECISIONS(2588780580416: u8}) </text>
<text text-anchor="middle" x="1586" y="-499.8" font-family="Times New Roman,serif" font-size="14.00">in1: {f32}[1,3,9,9]: FakeQuantize_96: out0 PRECISIONS(2588780580416: u8}) </text>
<text text-anchor="middle" x="1586" y="-484.8" font-family="Times New Roman,serif" font-size="14.00">out0: {f32}[1,6,9,9]</text>
</g>
<!-- Concat_98&#45;&gt;MaxPool_99 -->
<g id="edge9" class="edge">
<title>Concat_98&#45;&gt;MaxPool_99</title>
<path fill="none" stroke="black" d="M1651.78,-476.74C1667.7,-457.81 1684.62,-437.67 1700.24,-419.09"/>
<polygon fill="black" stroke="black" points="1703.1,-421.14 1706.85,-411.23 1697.74,-416.63 1703.1,-421.14"/>
<text text-anchor="middle" x="1700" y="-447.8" font-family="Times New Roman,serif" font-size="14.00"> 0 &#45;&gt; 0 </text>
</g>
<!-- FakeQuantize_90 -->
<g id="node11" class="node">
<title>FakeQuantize_90</title>
<polygon fill="none" stroke="black" points="1583,-844 1135,-844 1135,-686 1583,-686 1583,-844"/>
<text text-anchor="middle" x="1359" y="-828.8" font-family="Times New Roman,serif" font-size="14.00">friendly_name: fakeQuantize2</text>
<text text-anchor="middle" x="1359" y="-813.8" font-family="Times New Roman,serif" font-size="14.00">name: FakeQuantize_90</text>
<text text-anchor="middle" x="1359" y="-798.8" font-family="Times New Roman,serif" font-size="14.00">type_name: FakeQuantize</text>
<text text-anchor="middle" x="1359" y="-783.8" font-family="Times New Roman,serif" font-size="14.00">rt info: &#160;INTERVALS_ALIGNMENT(2588780199328: low: &#45;1.28, high: 1.27)</text>
<text text-anchor="middle" x="1359" y="-768.8" font-family="Times New Roman,serif" font-size="14.00">in0: {f32}[1,3,9,9]: Parameter_85: out0</text>
<text text-anchor="middle" x="1359" y="-753.8" font-family="Times New Roman,serif" font-size="14.00">in1: {f32}[]: Constant_86: out0</text>
<text text-anchor="middle" x="1359" y="-738.8" font-family="Times New Roman,serif" font-size="14.00">in2: {f32}[]: Constant_87: out0</text>
<text text-anchor="middle" x="1359" y="-723.8" font-family="Times New Roman,serif" font-size="14.00">in3: {f32}[]: Constant_88: out0</text>
<text text-anchor="middle" x="1359" y="-708.8" font-family="Times New Roman,serif" font-size="14.00">in4: {f32}[]: Constant_89: out0</text>
<text text-anchor="middle" x="1359" y="-693.8" font-family="Times New Roman,serif" font-size="14.00">out0: {f32}[1,3,9,9] PRECISIONS(2588780580416: u8}) </text>
</g>
<!-- FakeQuantize_90&#45;&gt;Concat_98 -->
<g id="edge10" class="edge">
<title>FakeQuantize_90&#45;&gt;Concat_98</title>
<path fill="none" stroke="black" d="M1444.82,-685.74C1460.46,-671.48 1476.86,-656.53 1492.71,-642.08"/>
<polygon fill="black" stroke="black" points="1495.41,-644.35 1500.44,-635.03 1490.69,-639.18 1495.41,-644.35"/>
<text text-anchor="middle" x="1501" y="-656.8" font-family="Times New Roman,serif" font-size="14.00"> 0 &#45;&gt; 0 </text>
</g>
<!-- Concat_97 -->
<g id="node23" class="node">
<title>Concat_97</title>
<polygon fill="none" stroke="black" points="1256.5,-635 789.5,-635 789.5,-477 1256.5,-477 1256.5,-635"/>
<text text-anchor="middle" x="1023" y="-619.8" font-family="Times New Roman,serif" font-size="14.00">friendly_name: concat1</text>
<text text-anchor="middle" x="1023" y="-604.8" font-family="Times New Roman,serif" font-size="14.00">name: Concat_97</text>
<text text-anchor="middle" x="1023" y="-589.8" font-family="Times New Roman,serif" font-size="14.00">type_name: Concat</text>
<text text-anchor="middle" x="1023" y="-574.8" font-family="Times New Roman,serif" font-size="14.00">rt info: &#160;INTERVALS_ALIGNMENT(2588780199328: low: &#45;1.28, high: 1.27)</text>
<text text-anchor="middle" x="1023" y="-559.8" font-family="Times New Roman,serif" font-size="14.00">PRECISION_PRESERVED(value: true)</text>
<text text-anchor="middle" x="1023" y="-544.8" font-family="Times New Roman,serif" font-size="14.00">QUANTIZATION_ALIGNMENT(2588780197408: value: false)</text>
<text text-anchor="middle" x="1023" y="-529.8" font-family="Times New Roman,serif" font-size="14.00">Variant::std::string</text>
<text text-anchor="middle" x="1023" y="-514.8" font-family="Times New Roman,serif" font-size="14.00">in0: {f32}[1,3,9,9]: FakeQuantize_84: out0 PRECISIONS(2588780580416: u8}) </text>
<text text-anchor="middle" x="1023" y="-499.8" font-family="Times New Roman,serif" font-size="14.00">in1: {f32}[1,3,9,9]: FakeQuantize_90: out0 PRECISIONS(2588780580416: u8}) </text>
<text text-anchor="middle" x="1023" y="-484.8" font-family="Times New Roman,serif" font-size="14.00">out0: {f32}[1,6,9,9]</text>
</g>
<!-- FakeQuantize_90&#45;&gt;Concat_97 -->
<g id="edge24" class="edge">
<title>FakeQuantize_90&#45;&gt;Concat_97</title>
<path fill="none" stroke="black" d="M1231.97,-685.74C1207.87,-670.89 1182.57,-655.3 1158.22,-640.3"/>
<polygon fill="black" stroke="black" points="1160,-637.29 1149.65,-635.03 1156.33,-643.25 1160,-637.29"/>
<text text-anchor="middle" x="1223" y="-656.8" font-family="Times New Roman,serif" font-size="14.00"> 0 &#45;&gt; 1 </text>
</g>
<!-- FakeQuantize_96 -->
<g id="node12" class="node">
<title>FakeQuantize_96</title>
<polygon fill="none" stroke="black" points="2411,-844 1963,-844 1963,-686 2411,-686 2411,-844"/>
<text text-anchor="middle" x="2187" y="-828.8" font-family="Times New Roman,serif" font-size="14.00">friendly_name: fakeQuantize3</text>
<text text-anchor="middle" x="2187" y="-813.8" font-family="Times New Roman,serif" font-size="14.00">name: FakeQuantize_96</text>
<text text-anchor="middle" x="2187" y="-798.8" font-family="Times New Roman,serif" font-size="14.00">type_name: FakeQuantize</text>
<text text-anchor="middle" x="2187" y="-783.8" font-family="Times New Roman,serif" font-size="14.00">rt info: &#160;INTERVALS_ALIGNMENT(2588780199328: low: &#45;1.28, high: 1.27)</text>
<text text-anchor="middle" x="2187" y="-768.8" font-family="Times New Roman,serif" font-size="14.00">in0: {f32}[1,3,9,9]: Parameter_91: out0</text>
<text text-anchor="middle" x="2187" y="-753.8" font-family="Times New Roman,serif" font-size="14.00">in1: {f32}[]: Constant_92: out0</text>
<text text-anchor="middle" x="2187" y="-738.8" font-family="Times New Roman,serif" font-size="14.00">in2: {f32}[]: Constant_93: out0</text>
<text text-anchor="middle" x="2187" y="-723.8" font-family="Times New Roman,serif" font-size="14.00">in3: {f32}[]: Constant_94: out0</text>
<text text-anchor="middle" x="2187" y="-708.8" font-family="Times New Roman,serif" font-size="14.00">in4: {f32}[]: Constant_95: out0</text>
<text text-anchor="middle" x="2187" y="-693.8" font-family="Times New Roman,serif" font-size="14.00">out0: {f32}[1,3,9,9] PRECISIONS(2588780580416: u8}) </text>
</g>
<!-- FakeQuantize_96&#45;&gt;Concat_98 -->
<g id="edge11" class="edge">
<title>FakeQuantize_96&#45;&gt;Concat_98</title>
<path fill="none" stroke="black" d="M1962.78,-686.77C1916.91,-670.97 1868.49,-654.3 1822.21,-638.36"/>
<polygon fill="black" stroke="black" points="1823.27,-635.02 1812.68,-635.07 1820.99,-641.64 1823.27,-635.02"/>
<text text-anchor="middle" x="1926" y="-656.8" font-family="Times New Roman,serif" font-size="14.00"> 0 &#45;&gt; 1 </text>
</g>
<!-- CLONE_5 -->
<g id="node13" class="node">
<title>CLONE_5</title>
<polygon fill="none" stroke="blue" stroke-dasharray="5,2" points="1986,-963 1846,-963 1846,-895 1986,-895 1986,-963"/>
<text text-anchor="middle" x="1916" y="-947.8" font-family="Times New Roman,serif" font-size="14.00">friendly_name: input3</text>
<text text-anchor="middle" x="1916" y="-932.8" font-family="Times New Roman,serif" font-size="14.00">name: Parameter_91</text>
<text text-anchor="middle" x="1916" y="-917.8" font-family="Times New Roman,serif" font-size="14.00">type_name: Parameter</text>
<text text-anchor="middle" x="1916" y="-902.8" font-family="Times New Roman,serif" font-size="14.00">{f32}[1,3,9,9]</text>
</g>
<!-- CLONE_5&#45;&gt;FakeQuantize_96 -->
<g id="edge12" class="edge">
<title>CLONE_5&#45;&gt;FakeQuantize_96</title>
<path fill="none" stroke="black" d="M1971.49,-894.83C1993.78,-881.5 2020.57,-865.49 2047.56,-849.35"/>
<polygon fill="black" stroke="black" points="2049.54,-852.25 2056.33,-844.11 2045.95,-846.24 2049.54,-852.25"/>
<text text-anchor="middle" x="2041" y="-865.8" font-family="Times New Roman,serif" font-size="14.00"> 0 &#45;&gt; 0 </text>
</g>
<!-- CLONE_6 -->
<g id="node14" class="node">
<title>CLONE_6</title>
<polygon fill="none" stroke="black" stroke-dasharray="5,2" points="2177.5,-963 2004.5,-963 2004.5,-895 2177.5,-895 2177.5,-963"/>
<text text-anchor="middle" x="2091" y="-947.8" font-family="Times New Roman,serif" font-size="14.00">friendly_name: Constant_92</text>
<text text-anchor="middle" x="2091" y="-932.8" font-family="Times New Roman,serif" font-size="14.00">type_name: Constant</text>
<text text-anchor="middle" x="2091" y="-917.8" font-family="Times New Roman,serif" font-size="14.00">{f32}[]</text>
<text text-anchor="middle" x="2091" y="-902.8" font-family="Times New Roman,serif" font-size="14.00">value: [&#45;1.28]</text>
</g>
<!-- CLONE_6&#45;&gt;FakeQuantize_96 -->
<g id="edge13" class="edge">
<title>CLONE_6&#45;&gt;FakeQuantize_96</title>
<path fill="none" stroke="black" d="M2110.66,-894.83C2117.95,-882.52 2126.6,-867.92 2135.41,-853.05"/>
<polygon fill="black" stroke="black" points="2138.52,-854.67 2140.61,-844.28 2132.5,-851.1 2138.52,-854.67"/>
<text text-anchor="middle" x="2149" y="-865.8" font-family="Times New Roman,serif" font-size="14.00"> 0 &#45;&gt; 1 </text>
</g>
<!-- CLONE_7 -->
<g id="node15" class="node">
<title>CLONE_7</title>
<polygon fill="none" stroke="black" stroke-dasharray="5,2" points="2368.5,-963 2195.5,-963 2195.5,-895 2368.5,-895 2368.5,-963"/>
<text text-anchor="middle" x="2282" y="-947.8" font-family="Times New Roman,serif" font-size="14.00">friendly_name: Constant_93</text>
<text text-anchor="middle" x="2282" y="-932.8" font-family="Times New Roman,serif" font-size="14.00">type_name: Constant</text>
<text text-anchor="middle" x="2282" y="-917.8" font-family="Times New Roman,serif" font-size="14.00">{f32}[]</text>
<text text-anchor="middle" x="2282" y="-902.8" font-family="Times New Roman,serif" font-size="14.00">value: [1.27]</text>
</g>
<!-- CLONE_7&#45;&gt;FakeQuantize_96 -->
<g id="edge14" class="edge">
<title>CLONE_7&#45;&gt;FakeQuantize_96</title>
<path fill="none" stroke="black" d="M2262.55,-894.83C2255.33,-882.52 2246.77,-867.92 2238.05,-853.05"/>
<polygon fill="black" stroke="black" points="2240.98,-851.14 2232.91,-844.28 2234.95,-854.68 2240.98,-851.14"/>
<text text-anchor="middle" x="2273" y="-865.8" font-family="Times New Roman,serif" font-size="14.00"> 0 &#45;&gt; 2 </text>
</g>
<!-- CLONE_8 -->
<g id="node16" class="node">
<title>CLONE_8</title>
<polygon fill="none" stroke="black" stroke-dasharray="5,2" points="2559.5,-963 2386.5,-963 2386.5,-895 2559.5,-895 2559.5,-963"/>
<text text-anchor="middle" x="2473" y="-947.8" font-family="Times New Roman,serif" font-size="14.00">friendly_name: Constant_94</text>
<text text-anchor="middle" x="2473" y="-932.8" font-family="Times New Roman,serif" font-size="14.00">type_name: Constant</text>
<text text-anchor="middle" x="2473" y="-917.8" font-family="Times New Roman,serif" font-size="14.00">{f32}[]</text>
<text text-anchor="middle" x="2473" y="-902.8" font-family="Times New Roman,serif" font-size="14.00">value: [&#45;1.28]</text>
</g>
<!-- CLONE_8&#45;&gt;FakeQuantize_96 -->
<g id="edge15" class="edge">
<title>CLONE_8&#45;&gt;FakeQuantize_96</title>
<path fill="none" stroke="black" d="M2414.43,-894.83C2390.81,-881.45 2362.4,-865.35 2333.79,-849.14"/>
<polygon fill="black" stroke="black" points="2335.33,-846 2324.9,-844.11 2331.88,-852.09 2335.33,-846"/>
<text text-anchor="middle" x="2402" y="-865.8" font-family="Times New Roman,serif" font-size="14.00"> 0 &#45;&gt; 3 </text>
</g>
<!-- CLONE_9 -->
<g id="node17" class="node">
<title>CLONE_9</title>
<polygon fill="none" stroke="black" stroke-dasharray="5,2" points="2750.5,-963 2577.5,-963 2577.5,-895 2750.5,-895 2750.5,-963"/>
<text text-anchor="middle" x="2664" y="-947.8" font-family="Times New Roman,serif" font-size="14.00">friendly_name: Constant_95</text>
<text text-anchor="middle" x="2664" y="-932.8" font-family="Times New Roman,serif" font-size="14.00">type_name: Constant</text>
<text text-anchor="middle" x="2664" y="-917.8" font-family="Times New Roman,serif" font-size="14.00">{f32}[]</text>
<text text-anchor="middle" x="2664" y="-902.8" font-family="Times New Roman,serif" font-size="14.00">value: [1.27]</text>
</g>
<!-- CLONE_9&#45;&gt;FakeQuantize_96 -->
<g id="edge16" class="edge">
<title>CLONE_9&#45;&gt;FakeQuantize_96</title>
<path fill="none" stroke="black" d="M2577.4,-898.21C2574.23,-897.13 2571.09,-896.05 2568,-895 2520.44,-878.78 2469.52,-861.48 2420.88,-845"/>
<polygon fill="black" stroke="black" points="2421.78,-841.61 2411.19,-841.71 2419.54,-848.24 2421.78,-841.61"/>
<text text-anchor="middle" x="2527" y="-865.8" font-family="Times New Roman,serif" font-size="14.00"> 0 &#45;&gt; 4 </text>
</g>
<!-- CLONE_10 -->
<g id="node18" class="node">
<title>CLONE_10</title>
<polygon fill="none" stroke="blue" stroke-dasharray="5,2" points="1063,-963 923,-963 923,-895 1063,-895 1063,-963"/>
<text text-anchor="middle" x="993" y="-947.8" font-family="Times New Roman,serif" font-size="14.00">friendly_name: input2</text>
<text text-anchor="middle" x="993" y="-932.8" font-family="Times New Roman,serif" font-size="14.00">name: Parameter_85</text>
<text text-anchor="middle" x="993" y="-917.8" font-family="Times New Roman,serif" font-size="14.00">type_name: Parameter</text>
<text text-anchor="middle" x="993" y="-902.8" font-family="Times New Roman,serif" font-size="14.00">{f32}[1,3,9,9]</text>
</g>
<!-- CLONE_10&#45;&gt;FakeQuantize_90 -->
<g id="edge17" class="edge">
<title>CLONE_10&#45;&gt;FakeQuantize_90</title>
<path fill="none" stroke="black" d="M1063.14,-896.96C1094.84,-882.92 1133.96,-865.61 1173.26,-848.21"/>
<polygon fill="black" stroke="black" points="1174.98,-851.28 1182.71,-844.03 1172.14,-844.88 1174.98,-851.28"/>
<text text-anchor="middle" x="1154" y="-865.8" font-family="Times New Roman,serif" font-size="14.00"> 0 &#45;&gt; 0 </text>
</g>
<!-- CLONE_11 -->
<g id="node19" class="node">
<title>CLONE_11</title>
<polygon fill="none" stroke="black" stroke-dasharray="5,2" points="1254.5,-963 1081.5,-963 1081.5,-895 1254.5,-895 1254.5,-963"/>
<text text-anchor="middle" x="1168" y="-947.8" font-family="Times New Roman,serif" font-size="14.00">friendly_name: Constant_86</text>
<text text-anchor="middle" x="1168" y="-932.8" font-family="Times New Roman,serif" font-size="14.00">type_name: Constant</text>
<text text-anchor="middle" x="1168" y="-917.8" font-family="Times New Roman,serif" font-size="14.00">{f32}[]</text>
<text text-anchor="middle" x="1168" y="-902.8" font-family="Times New Roman,serif" font-size="14.00">value: [&#45;0.64]</text>
</g>
<!-- CLONE_11&#45;&gt;FakeQuantize_90 -->
<g id="edge18" class="edge">
<title>CLONE_11&#45;&gt;FakeQuantize_90</title>
<path fill="none" stroke="black" d="M1207.11,-894.83C1222.3,-881.95 1240.44,-866.56 1258.82,-850.97"/>
<polygon fill="black" stroke="black" points="1261.34,-853.42 1266.7,-844.28 1256.81,-848.08 1261.34,-853.42"/>
<text text-anchor="middle" x="1262" y="-865.8" font-family="Times New Roman,serif" font-size="14.00"> 0 &#45;&gt; 1 </text>
</g>
<!-- CLONE_12 -->
<g id="node20" class="node">
<title>CLONE_12</title>
<polygon fill="none" stroke="black" stroke-dasharray="5,2" points="1445.5,-963 1272.5,-963 1272.5,-895 1445.5,-895 1445.5,-963"/>
<text text-anchor="middle" x="1359" y="-947.8" font-family="Times New Roman,serif" font-size="14.00">friendly_name: Constant_87</text>
<text text-anchor="middle" x="1359" y="-932.8" font-family="Times New Roman,serif" font-size="14.00">type_name: Constant</text>
<text text-anchor="middle" x="1359" y="-917.8" font-family="Times New Roman,serif" font-size="14.00">{f32}[]</text>
<text text-anchor="middle" x="1359" y="-902.8" font-family="Times New Roman,serif" font-size="14.00">value: [0.635]</text>
</g>
<!-- CLONE_12&#45;&gt;FakeQuantize_90 -->
<g id="edge19" class="edge">
<title>CLONE_12&#45;&gt;FakeQuantize_90</title>
<path fill="none" stroke="black" d="M1359,-894.83C1359,-882.87 1359,-868.74 1359,-854.3"/>
<polygon fill="black" stroke="black" points="1362.5,-854.28 1359,-844.28 1355.5,-854.28 1362.5,-854.28"/>
<text text-anchor="middle" x="1380" y="-865.8" font-family="Times New Roman,serif" font-size="14.00"> 0 &#45;&gt; 2 </text>
</g>
<!-- CLONE_13 -->
<g id="node21" class="node">
<title>CLONE_13</title>
<polygon fill="none" stroke="black" stroke-dasharray="5,2" points="1636.5,-963 1463.5,-963 1463.5,-895 1636.5,-895 1636.5,-963"/>
<text text-anchor="middle" x="1550" y="-947.8" font-family="Times New Roman,serif" font-size="14.00">friendly_name: Constant_88</text>
<text text-anchor="middle" x="1550" y="-932.8" font-family="Times New Roman,serif" font-size="14.00">type_name: Constant</text>
<text text-anchor="middle" x="1550" y="-917.8" font-family="Times New Roman,serif" font-size="14.00">{f32}[]</text>
<text text-anchor="middle" x="1550" y="-902.8" font-family="Times New Roman,serif" font-size="14.00">value: [&#45;0.64]</text>
</g>
<!-- CLONE_13&#45;&gt;FakeQuantize_90 -->
<g id="edge20" class="edge">
<title>CLONE_13&#45;&gt;FakeQuantize_90</title>
<path fill="none" stroke="black" d="M1510.89,-894.83C1495.7,-881.95 1477.56,-866.56 1459.18,-850.97"/>
<polygon fill="black" stroke="black" points="1461.19,-848.08 1451.3,-844.28 1456.66,-853.42 1461.19,-848.08"/>
<text text-anchor="middle" x="1510" y="-865.8" font-family="Times New Roman,serif" font-size="14.00"> 0 &#45;&gt; 3 </text>
</g>
<!-- CLONE_14 -->
<g id="node22" class="node">
<title>CLONE_14</title>
<polygon fill="none" stroke="black" stroke-dasharray="5,2" points="1827.5,-963 1654.5,-963 1654.5,-895 1827.5,-895 1827.5,-963"/>
<text text-anchor="middle" x="1741" y="-947.8" font-family="Times New Roman,serif" font-size="14.00">friendly_name: Constant_89</text>
<text text-anchor="middle" x="1741" y="-932.8" font-family="Times New Roman,serif" font-size="14.00">type_name: Constant</text>
<text text-anchor="middle" x="1741" y="-917.8" font-family="Times New Roman,serif" font-size="14.00">{f32}[]</text>
<text text-anchor="middle" x="1741" y="-902.8" font-family="Times New Roman,serif" font-size="14.00">value: [0.635]</text>
</g>
<!-- CLONE_14&#45;&gt;FakeQuantize_90 -->
<g id="edge21" class="edge">
<title>CLONE_14&#45;&gt;FakeQuantize_90</title>
<path fill="none" stroke="black" d="M1662.77,-894.83C1630.54,-881.16 1591.64,-864.66 1552.59,-848.1"/>
<polygon fill="black" stroke="black" points="1553.77,-844.8 1543.19,-844.11 1551.03,-851.24 1553.77,-844.8"/>
<text text-anchor="middle" x="1639" y="-865.8" font-family="Times New Roman,serif" font-size="14.00"> 0 &#45;&gt; 4 </text>
</g>
<!-- Result_107 -->
<g id="node24" class="node">
<title>Result_107</title>
<polygon fill="none" stroke="crimson" stroke-width="1.5" points="1132,-381 914,-381 914,-313 1132,-313 1132,-381"/>
<text text-anchor="middle" x="1023" y="-365.8" font-family="Times New Roman,serif" font-size="14.00">friendly_name: Result_107</text>
<text text-anchor="middle" x="1023" y="-350.8" font-family="Times New Roman,serif" font-size="14.00">type_name: Result</text>
<text text-anchor="middle" x="1023" y="-335.8" font-family="Times New Roman,serif" font-size="14.00">in0: {f32}[1,6,9,9]: Concat_97: out0</text>
<text text-anchor="middle" x="1023" y="-320.8" font-family="Times New Roman,serif" font-size="14.00">out0: {f32}[1,6,9,9]</text>
</g>
<!-- Concat_97&#45;&gt;Result_107 -->
<g id="edge22" class="edge">
<title>Concat_97&#45;&gt;Result_107</title>
<path fill="none" stroke="black" d="M1023,-476.74C1023,-447.79 1023,-416.03 1023,-391.3"/>
<polygon fill="black" stroke="black" points="1026.5,-391.16 1023,-381.16 1019.5,-391.16 1026.5,-391.16"/>
<text text-anchor="middle" x="1044" y="-447.8" font-family="Times New Roman,serif" font-size="14.00"> 0 &#45;&gt; 0 </text>
</g>
<!-- FakeQuantize_84 -->
<g id="node25" class="node">
<title>FakeQuantize_84</title>
<polygon fill="none" stroke="black" points="756,-844 308,-844 308,-686 756,-686 756,-844"/>
<text text-anchor="middle" x="532" y="-828.8" font-family="Times New Roman,serif" font-size="14.00">friendly_name: fakeQuantize1</text>
<text text-anchor="middle" x="532" y="-813.8" font-family="Times New Roman,serif" font-size="14.00">name: FakeQuantize_84</text>
<text text-anchor="middle" x="532" y="-798.8" font-family="Times New Roman,serif" font-size="14.00">type_name: FakeQuantize</text>
<text text-anchor="middle" x="532" y="-783.8" font-family="Times New Roman,serif" font-size="14.00">rt info: &#160;INTERVALS_ALIGNMENT(2588780199328: low: &#45;1.28, high: 1.27)</text>
<text text-anchor="middle" x="532" y="-768.8" font-family="Times New Roman,serif" font-size="14.00">in0: {f32}[1,3,9,9]: Parameter_79: out0</text>
<text text-anchor="middle" x="532" y="-753.8" font-family="Times New Roman,serif" font-size="14.00">in1: {f32}[]: Constant_80: out0</text>
<text text-anchor="middle" x="532" y="-738.8" font-family="Times New Roman,serif" font-size="14.00">in2: {f32}[]: Constant_81: out0</text>
<text text-anchor="middle" x="532" y="-723.8" font-family="Times New Roman,serif" font-size="14.00">in3: {f32}[]: Constant_82: out0</text>
<text text-anchor="middle" x="532" y="-708.8" font-family="Times New Roman,serif" font-size="14.00">in4: {f32}[]: Constant_83: out0</text>
<text text-anchor="middle" x="532" y="-693.8" font-family="Times New Roman,serif" font-size="14.00">out0: {f32}[1,3,9,9] PRECISIONS(2588780580416: u8}) </text>
</g>
<!-- FakeQuantize_84&#45;&gt;Concat_97 -->
<g id="edge23" class="edge">
<title>FakeQuantize_84&#45;&gt;Concat_97</title>
<path fill="none" stroke="black" d="M717.28,-685.89C753.6,-670.58 791.79,-654.48 828.4,-639.04"/>
<polygon fill="black" stroke="black" points="829.82,-642.24 837.68,-635.13 827.1,-635.79 829.82,-642.24"/>
<text text-anchor="middle" x="814" y="-656.8" font-family="Times New Roman,serif" font-size="14.00"> 0 &#45;&gt; 0 </text>
</g>
<!-- CLONE_15 -->
<g id="node26" class="node">
<title>CLONE_15</title>
<polygon fill="none" stroke="blue" stroke-dasharray="5,2" points="140,-963 0,-963 0,-895 140,-895 140,-963"/>
<text text-anchor="middle" x="70" y="-947.8" font-family="Times New Roman,serif" font-size="14.00">friendly_name: input1</text>
<text text-anchor="middle" x="70" y="-932.8" font-family="Times New Roman,serif" font-size="14.00">name: Parameter_79</text>
<text text-anchor="middle" x="70" y="-917.8" font-family="Times New Roman,serif" font-size="14.00">type_name: Parameter</text>
<text text-anchor="middle" x="70" y="-902.8" font-family="Times New Roman,serif" font-size="14.00">{f32}[1,3,9,9]</text>
</g>
<!-- CLONE_15&#45;&gt;FakeQuantize_84 -->
<g id="edge25" class="edge">
<title>CLONE_15&#45;&gt;FakeQuantize_84</title>
<path fill="none" stroke="black" d="M140.11,-898.41C143.11,-897.24 146.08,-896.1 149,-895 196.96,-876.93 248.73,-858.67 298.23,-841.8"/>
<polygon fill="black" stroke="black" points="299.43,-845.09 307.77,-838.56 297.18,-838.46 299.43,-845.09"/>
<text text-anchor="middle" x="254" y="-865.8" font-family="Times New Roman,serif" font-size="14.00"> 0 &#45;&gt; 0 </text>
</g>
<!-- CLONE_16 -->
<g id="node27" class="node">
<title>CLONE_16</title>
<polygon fill="none" stroke="black" stroke-dasharray="5,2" points="331.5,-963 158.5,-963 158.5,-895 331.5,-895 331.5,-963"/>
<text text-anchor="middle" x="245" y="-947.8" font-family="Times New Roman,serif" font-size="14.00">friendly_name: Constant_80</text>
<text text-anchor="middle" x="245" y="-932.8" font-family="Times New Roman,serif" font-size="14.00">type_name: Constant</text>
<text text-anchor="middle" x="245" y="-917.8" font-family="Times New Roman,serif" font-size="14.00">{f32}[]</text>
<text text-anchor="middle" x="245" y="-902.8" font-family="Times New Roman,serif" font-size="14.00">value: [&#45;0.426667]</text>
</g>
<!-- CLONE_16&#45;&gt;FakeQuantize_84 -->
<g id="edge26" class="edge">
<title>CLONE_16&#45;&gt;FakeQuantize_84</title>
<path fill="none" stroke="black" d="M303.77,-894.83C327.48,-881.45 355.99,-865.35 384.7,-849.14"/>
<polygon fill="black" stroke="black" points="386.63,-852.08 393.61,-844.11 383.18,-845.98 386.63,-852.08"/>
<text text-anchor="middle" x="376" y="-865.8" font-family="Times New Roman,serif" font-size="14.00"> 0 &#45;&gt; 1 </text>
</g>
<!-- CLONE_17 -->
<g id="node28" class="node">
<title>CLONE_17</title>
<polygon fill="none" stroke="black" stroke-dasharray="5,2" points="522.5,-963 349.5,-963 349.5,-895 522.5,-895 522.5,-963"/>
<text text-anchor="middle" x="436" y="-947.8" font-family="Times New Roman,serif" font-size="14.00">friendly_name: Constant_81</text>
<text text-anchor="middle" x="436" y="-932.8" font-family="Times New Roman,serif" font-size="14.00">type_name: Constant</text>
<text text-anchor="middle" x="436" y="-917.8" font-family="Times New Roman,serif" font-size="14.00">{f32}[]</text>
<text text-anchor="middle" x="436" y="-902.8" font-family="Times New Roman,serif" font-size="14.00">value: [0.423333]</text>
</g>
<!-- CLONE_17&#45;&gt;FakeQuantize_84 -->
<g id="edge27" class="edge">
<title>CLONE_17&#45;&gt;FakeQuantize_84</title>
<path fill="none" stroke="black" d="M455.66,-894.83C462.95,-882.52 471.6,-867.92 480.41,-853.05"/>
<polygon fill="black" stroke="black" points="483.52,-854.67 485.61,-844.28 477.5,-851.1 483.52,-854.67"/>
<text text-anchor="middle" x="494" y="-865.8" font-family="Times New Roman,serif" font-size="14.00"> 0 &#45;&gt; 2 </text>
</g>
<!-- CLONE_18 -->
<g id="node29" class="node">
<title>CLONE_18</title>
<polygon fill="none" stroke="black" stroke-dasharray="5,2" points="713.5,-963 540.5,-963 540.5,-895 713.5,-895 713.5,-963"/>
<text text-anchor="middle" x="627" y="-947.8" font-family="Times New Roman,serif" font-size="14.00">friendly_name: Constant_82</text>
<text text-anchor="middle" x="627" y="-932.8" font-family="Times New Roman,serif" font-size="14.00">type_name: Constant</text>
<text text-anchor="middle" x="627" y="-917.8" font-family="Times New Roman,serif" font-size="14.00">{f32}[]</text>
<text text-anchor="middle" x="627" y="-902.8" font-family="Times New Roman,serif" font-size="14.00">value: [&#45;0.426667]</text>
</g>
<!-- CLONE_18&#45;&gt;FakeQuantize_84 -->
<g id="edge28" class="edge">
<title>CLONE_18&#45;&gt;FakeQuantize_84</title>
<path fill="none" stroke="black" d="M607.55,-894.83C600.33,-882.52 591.77,-867.92 583.05,-853.05"/>
<polygon fill="black" stroke="black" points="585.98,-851.14 577.91,-844.28 579.95,-854.68 585.98,-851.14"/>
<text text-anchor="middle" x="618" y="-865.8" font-family="Times New Roman,serif" font-size="14.00"> 0 &#45;&gt; 3 </text>
</g>
<!-- CLONE_19 -->
<g id="node30" class="node">
<title>CLONE_19</title>
<polygon fill="none" stroke="black" stroke-dasharray="5,2" points="904.5,-963 731.5,-963 731.5,-895 904.5,-895 904.5,-963"/>
<text text-anchor="middle" x="818" y="-947.8" font-family="Times New Roman,serif" font-size="14.00">friendly_name: Constant_83</text>
<text text-anchor="middle" x="818" y="-932.8" font-family="Times New Roman,serif" font-size="14.00">type_name: Constant</text>
<text text-anchor="middle" x="818" y="-917.8" font-family="Times New Roman,serif" font-size="14.00">{f32}[]</text>
<text text-anchor="middle" x="818" y="-902.8" font-family="Times New Roman,serif" font-size="14.00">value: [0.423333]</text>
</g>
<!-- CLONE_19&#45;&gt;FakeQuantize_84 -->
<g id="edge29" class="edge">
<title>CLONE_19&#45;&gt;FakeQuantize_84</title>
<path fill="none" stroke="black" d="M759.43,-894.83C735.81,-881.45 707.4,-865.35 678.79,-849.14"/>
<polygon fill="black" stroke="black" points="680.33,-846 669.9,-844.11 676.88,-852.09 680.33,-846"/>
<text text-anchor="middle" x="747" y="-865.8" font-family="Times New Roman,serif" font-size="14.00"> 0 &#45;&gt; 4 </text>
</g>
</g>
</svg>
