<?xml version="1.0" encoding="UTF-8" standalone="no"?>
<!DOCTYPE svg PUBLIC "-//W3C//DTD SVG 1.1//EN"
 "http://www.w3.org/Graphics/SVG/1.1/DTD/svg11.dtd">
<!-- Generated by graphviz version 2.38.0 (20140413.2041)
 -->
<!-- Title: ngraph Pages: 1 -->
<svg width="3993pt" height="941pt"
 viewBox="0.00 0.00 3992.50 941.00" xmlns="http://www.w3.org/2000/svg" xmlns:xlink="http://www.w3.org/1999/xlink">
<g id="graph0" class="graph" transform="scale(1 1) rotate(0) translate(4 937)">
<title>ngraph</title>
<polygon fill="white" stroke="none" points="-4,4 -4,-937 3988.5,-937 3988.5,4 -4,4"/>
<!-- Convolution_106 -->
<g id="node1" class="node"><title>Convolution_106</title>
<polygon fill="none" stroke="black" points="3282,-217 2192,-217 2192,-119 3282,-119 3282,-217"/>
<text text-anchor="middle" x="2737" y="-201.8" font-family="Times New Roman,serif" font-size="14.00">friendly_name: convolution</text>
<text text-anchor="middle" x="2737" y="-186.8" font-family="Times New Roman,serif" font-size="14.00">name: Convolution_106</text>
<text text-anchor="middle" x="2737" y="-171.8" font-family="Times New Roman,serif" font-size="14.00">type_name: Convolution</text>
<text text-anchor="middle" x="2737" y="-156.8" font-family="Times New Roman,serif" font-size="14.00">in0: {f32}[1,6,7,7]: MaxPool_99: out0 LowPrecision::Precisions(2113893385744: sharedValue: 2113888800304, attributes: [2113893386304, 2113893385744, 2113893389104], precisions: [u8]) </text>
<text text-anchor="middle" x="2737" y="-141.8" font-family="Times New Roman,serif" font-size="14.00">in1: {f32}[9,6,1,1]: FakeQuantize_105: out0 LowPrecision::Precisions(2113893386080: sharedValue: 2113888793392, attributes: [2113893386080], precisions: [i8]) </text>
<text text-anchor="middle" x="2737" y="-126.8" font-family="Times New Roman,serif" font-size="14.00">out0: {f32}[1,9,7,7]</text>
</g>
<!-- Result_108 -->
<g id="node2" class="node"><title>Result_108</title>
<polygon fill="none" stroke="crimson" stroke-width="1.5" points="2864,-68 2610,-68 2610,-0 2864,-0 2864,-68"/>
<text text-anchor="middle" x="2737" y="-52.8" font-family="Times New Roman,serif" font-size="14.00">friendly_name: Result_108</text>
<text text-anchor="middle" x="2737" y="-37.8" font-family="Times New Roman,serif" font-size="14.00">type_name: Result</text>
<text text-anchor="middle" x="2737" y="-22.8" font-family="Times New Roman,serif" font-size="14.00">in0: {f32}[1,9,7,7]: Convolution_106: out0</text>
<text text-anchor="middle" x="2737" y="-7.8" font-family="Times New Roman,serif" font-size="14.00">out0: {f32}[1,9,7,7]</text>
</g>
<!-- Convolution_106&#45;&gt;Result_108 -->
<g id="edge1" class="edge"><title>Convolution_106&#45;&gt;Result_108</title>
<path fill="none" stroke="black" d="M2737,-118.972C2737,-105.71 2737,-91.4001 2737,-78.4163"/>
<polygon fill="black" stroke="black" points="2740.5,-78.3331 2737,-68.3332 2733.5,-78.3332 2740.5,-78.3331"/>
<text text-anchor="middle" x="2758" y="-89.8" font-family="Times New Roman,serif" font-size="14.00"> 0 &#45;&gt; 0 </text>
</g>
<!-- MaxPool_99 -->
<g id="node3" class="node"><title>MaxPool_99</title>
<polygon fill="none" stroke="black" points="2554,-396 1684,-396 1684,-283 2554,-283 2554,-396"/>
<text text-anchor="middle" x="2119" y="-380.8" font-family="Times New Roman,serif" font-size="14.00">friendly_name: MaxPool</text>
<text text-anchor="middle" x="2119" y="-365.8" font-family="Times New Roman,serif" font-size="14.00">name: MaxPool_99</text>
<text text-anchor="middle" x="2119" y="-350.8" font-family="Times New Roman,serif" font-size="14.00">type_name: MaxPool</text>
<text text-anchor="middle" x="2119" y="-335.8" font-family="Times New Roman,serif" font-size="14.00">rt info: &#160;LowPrecision::PrecisionPreserved(2113893385304: shared: 2113893702912,value: true)</text>
<text text-anchor="middle" x="2119" y="-320.8" font-family="Times New Roman,serif" font-size="14.00">LowPrecision::Precisions(2113893385744: sharedValue: 2113888800304, attributes: [2113893386304, 2113893385744, 2113893389104], precisions: [u8])</text>
<text text-anchor="middle" x="2119" y="-305.8" font-family="Times New Roman,serif" font-size="14.00">in0: {f32}[1,6,9,9]: Concat_98: out0</text>
<text text-anchor="middle" x="2119" y="-290.8" font-family="Times New Roman,serif" font-size="14.00">out0: {f32}[1,6,7,7]</text>
</g>
<!-- MaxPool_99&#45;&gt;Convolution_106 -->
<g id="edge2" class="edge"><title>MaxPool_99&#45;&gt;Convolution_106</title>
<path fill="none" stroke="black" d="M2321.36,-282.999C2395.73,-262.602 2479.49,-239.628 2552.23,-219.677"/>
<polygon fill="black" stroke="black" points="2553.24,-223.028 2561.96,-217.008 2551.39,-216.278 2553.24,-223.028"/>
<text text-anchor="middle" x="2505" y="-238.8" font-family="Times New Roman,serif" font-size="14.00"> 0 &#45;&gt; 0 </text>
</g>
<!-- FakeQuantize_105 -->
<g id="node4" class="node"><title>FakeQuantize_105</title>
<polygon fill="none" stroke="black" points="3519,-411 2725,-411 2725,-268 3519,-268 3519,-411"/>
<text text-anchor="middle" x="3122" y="-395.8" font-family="Times New Roman,serif" font-size="14.00">friendly_name: fakeQuantizeOnWeights</text>
<text text-anchor="middle" x="3122" y="-380.8" font-family="Times New Roman,serif" font-size="14.00">name: FakeQuantize_105</text>
<text text-anchor="middle" x="3122" y="-365.8" font-family="Times New Roman,serif" font-size="14.00">type_name: FakeQuantize</text>
<text text-anchor="middle" x="3122" y="-350.8" font-family="Times New Roman,serif" font-size="14.00">in0: {f32}[9,6,1,1]: Constant_100: out0</text>
<text text-anchor="middle" x="3122" y="-335.8" font-family="Times New Roman,serif" font-size="14.00">in1: {f32}[9,1,1,1]: Constant_101: out0</text>
<text text-anchor="middle" x="3122" y="-320.8" font-family="Times New Roman,serif" font-size="14.00">in2: {f32}[9,1,1,1]: Constant_102: out0</text>
<text text-anchor="middle" x="3122" y="-305.8" font-family="Times New Roman,serif" font-size="14.00">in3: {f32}[9,1,1,1]: Constant_103: out0</text>
<text text-anchor="middle" x="3122" y="-290.8" font-family="Times New Roman,serif" font-size="14.00">in4: {f32}[9,1,1,1]: Constant_104: out0</text>
<text text-anchor="middle" x="3122" y="-275.8" font-family="Times New Roman,serif" font-size="14.00">out0: {f32}[9,6,1,1] LowPrecision::Precisions(2113893386080: sharedValue: 2113888793392, attributes: [2113893386080], precisions: [i8]) </text>
</g>
<!-- FakeQuantize_105&#45;&gt;Convolution_106 -->
<g id="edge3" class="edge"><title>FakeQuantize_105&#45;&gt;Convolution_106</title>
<path fill="none" stroke="black" d="M2961.79,-267.967C2926.22,-252.305 2889.13,-235.977 2855.57,-221.204"/>
<polygon fill="black" stroke="black" points="2856.77,-217.906 2846.21,-217.08 2853.95,-224.313 2856.77,-217.906"/>
<text text-anchor="middle" x="2939" y="-238.8" font-family="Times New Roman,serif" font-size="14.00"> 0 &#45;&gt; 1 </text>
</g>
<!-- CLONE_0 -->
<g id="node5" class="node"><title>CLONE_0</title>
<polygon fill="none" stroke="black" stroke-dasharray="5,2" points="2636,-597.5 2456,-597.5 2456,-469.5 2636,-469.5 2636,-597.5"/>
<text text-anchor="middle" x="2546" y="-582.3" font-family="Times New Roman,serif" font-size="14.00">friendly_name: Constant_100</text>
<text text-anchor="middle" x="2546" y="-567.3" font-family="Times New Roman,serif" font-size="14.00">type_name: Constant</text>
<text text-anchor="middle" x="2546" y="-552.3" font-family="Times New Roman,serif" font-size="14.00">{f32}[9,6,1,1]</text>
<text text-anchor="middle" x="2546" y="-537.3" font-family="Times New Roman,serif" font-size="14.00">value: [1, 1, 1, 1, 1, 1, 1, 1</text>
<text text-anchor="middle" x="2546" y="-522.3" font-family="Times New Roman,serif" font-size="14.00">, 1, 1, 1, 1, 1, 1, 1, 1</text>
<text text-anchor="middle" x="2546" y="-507.3" font-family="Times New Roman,serif" font-size="14.00">, 1, 1, 1, 1, 1, 1, 1, 1</text>
<text text-anchor="middle" x="2546" y="-492.3" font-family="Times New Roman,serif" font-size="14.00">, 1, 1, 1, 1, 1, 1, 1, 1...</text>
<text text-anchor="middle" x="2546" y="-477.3" font-family="Times New Roman,serif" font-size="14.00">(min: 1, max: 1)]</text>
</g>
<!-- CLONE_0&#45;&gt;FakeQuantize_105 -->
<g id="edge4" class="edge"><title>CLONE_0&#45;&gt;FakeQuantize_105</title>
<path fill="none" stroke="black" d="M2630.38,-469.463C2635.23,-466.775 2640.12,-464.263 2645,-462 2684.64,-443.621 2727.48,-427.737 2770.65,-414.084"/>
<polygon fill="black" stroke="black" points="2771.95,-417.345 2780.45,-411.024 2769.86,-410.663 2771.95,-417.345"/>
<text text-anchor="middle" x="2741" y="-432.8" font-family="Times New Roman,serif" font-size="14.00"> 0 &#45;&gt; 0 </text>
</g>
<!-- CLONE_1 -->
<g id="node6" class="node"><title>CLONE_1</title>
<polygon fill="none" stroke="black" stroke-dasharray="5,2" points="2991.5,-582.5 2654.5,-582.5 2654.5,-484.5 2991.5,-484.5 2991.5,-582.5"/>
<text text-anchor="middle" x="2823" y="-567.3" font-family="Times New Roman,serif" font-size="14.00">friendly_name: Constant_101</text>
<text text-anchor="middle" x="2823" y="-552.3" font-family="Times New Roman,serif" font-size="14.00">type_name: Constant</text>
<text text-anchor="middle" x="2823" y="-537.3" font-family="Times New Roman,serif" font-size="14.00">{f32}[9,1,1,1]</text>
<text text-anchor="middle" x="2823" y="-522.3" font-family="Times New Roman,serif" font-size="14.00">value: [&#45;1.27, &#45;1.27, &#45;1.27, &#45;1.27, &#45;1.27, &#45;1.27, &#45;1.27, &#45;1.27</text>
<text text-anchor="middle" x="2823" y="-507.3" font-family="Times New Roman,serif" font-size="14.00">, &#45;1.27</text>
<text text-anchor="middle" x="2823" y="-492.3" font-family="Times New Roman,serif" font-size="14.00">(min: &#45;1.27, max: &#45;1.27)]</text>
</g>
<!-- CLONE_1&#45;&gt;FakeQuantize_105 -->
<g id="edge5" class="edge"><title>CLONE_1&#45;&gt;FakeQuantize_105</title>
<path fill="none" stroke="black" d="M2898.06,-484.298C2930.01,-463.782 2968.05,-439.356 3003.63,-416.51"/>
<polygon fill="black" stroke="black" points="3005.61,-419.397 3012.14,-411.048 3001.83,-413.507 3005.61,-419.397"/>
<text text-anchor="middle" x="3003" y="-432.8" font-family="Times New Roman,serif" font-size="14.00"> 0 &#45;&gt; 1 </text>
</g>
<!-- CLONE_2 -->
<g id="node7" class="node"><title>CLONE_2</title>
<polygon fill="none" stroke="black" stroke-dasharray="5,2" points="3310.5,-582.5 3009.5,-582.5 3009.5,-484.5 3310.5,-484.5 3310.5,-582.5"/>
<text text-anchor="middle" x="3160" y="-567.3" font-family="Times New Roman,serif" font-size="14.00">friendly_name: Constant_102</text>
<text text-anchor="middle" x="3160" y="-552.3" font-family="Times New Roman,serif" font-size="14.00">type_name: Constant</text>
<text text-anchor="middle" x="3160" y="-537.3" font-family="Times New Roman,serif" font-size="14.00">{f32}[9,1,1,1]</text>
<text text-anchor="middle" x="3160" y="-522.3" font-family="Times New Roman,serif" font-size="14.00">value: [1.27, 1.27, 1.27, 1.27, 1.27, 1.27, 1.27, 1.27</text>
<text text-anchor="middle" x="3160" y="-507.3" font-family="Times New Roman,serif" font-size="14.00">, 1.27</text>
<text text-anchor="middle" x="3160" y="-492.3" font-family="Times New Roman,serif" font-size="14.00">(min: 1.27, max: 1.27)]</text>
</g>
<!-- CLONE_2&#45;&gt;FakeQuantize_105 -->
<g id="edge6" class="edge"><title>CLONE_2&#45;&gt;FakeQuantize_105</title>
<path fill="none" stroke="black" d="M3150.41,-484.05C3146.63,-464.966 3142.19,-442.527 3137.96,-421.133"/>
<polygon fill="black" stroke="black" points="3141.34,-420.195 3135.97,-411.065 3134.47,-421.554 3141.34,-420.195"/>
<text text-anchor="middle" x="3164" y="-432.8" font-family="Times New Roman,serif" font-size="14.00"> 0 &#45;&gt; 2 </text>
</g>
<!-- CLONE_3 -->
<g id="node8" class="node"><title>CLONE_3</title>
<polygon fill="none" stroke="black" stroke-dasharray="5,2" points="3665.5,-582.5 3328.5,-582.5 3328.5,-484.5 3665.5,-484.5 3665.5,-582.5"/>
<text text-anchor="middle" x="3497" y="-567.3" font-family="Times New Roman,serif" font-size="14.00">friendly_name: Constant_103</text>
<text text-anchor="middle" x="3497" y="-552.3" font-family="Times New Roman,serif" font-size="14.00">type_name: Constant</text>
<text text-anchor="middle" x="3497" y="-537.3" font-family="Times New Roman,serif" font-size="14.00">{f32}[9,1,1,1]</text>
<text text-anchor="middle" x="3497" y="-522.3" font-family="Times New Roman,serif" font-size="14.00">value: [&#45;1.27, &#45;1.27, &#45;1.27, &#45;1.27, &#45;1.27, &#45;1.27, &#45;1.27, &#45;1.27</text>
<text text-anchor="middle" x="3497" y="-507.3" font-family="Times New Roman,serif" font-size="14.00">, &#45;1.27</text>
<text text-anchor="middle" x="3497" y="-492.3" font-family="Times New Roman,serif" font-size="14.00">(min: &#45;1.27, max: &#45;1.27)]</text>
</g>
<!-- CLONE_3&#45;&gt;FakeQuantize_105 -->
<g id="edge7" class="edge"><title>CLONE_3&#45;&gt;FakeQuantize_105</title>
<path fill="none" stroke="black" d="M3402.86,-484.298C3362.28,-463.522 3313.87,-438.737 3268.76,-415.643"/>
<polygon fill="black" stroke="black" points="3270.29,-412.49 3259.79,-411.048 3267.1,-418.721 3270.29,-412.49"/>
<text text-anchor="middle" x="3342" y="-432.8" font-family="Times New Roman,serif" font-size="14.00"> 0 &#45;&gt; 3 </text>
</g>
<!-- CLONE_4 -->
<g id="node9" class="node"><title>CLONE_4</title>
<polygon fill="none" stroke="black" stroke-dasharray="5,2" points="3984.5,-582.5 3683.5,-582.5 3683.5,-484.5 3984.5,-484.5 3984.5,-582.5"/>
<text text-anchor="middle" x="3834" y="-567.3" font-family="Times New Roman,serif" font-size="14.00">friendly_name: Constant_104</text>
<text text-anchor="middle" x="3834" y="-552.3" font-family="Times New Roman,serif" font-size="14.00">type_name: Constant</text>
<text text-anchor="middle" x="3834" y="-537.3" font-family="Times New Roman,serif" font-size="14.00">{f32}[9,1,1,1]</text>
<text text-anchor="middle" x="3834" y="-522.3" font-family="Times New Roman,serif" font-size="14.00">value: [1.27, 1.27, 1.27, 1.27, 1.27, 1.27, 1.27, 1.27</text>
<text text-anchor="middle" x="3834" y="-507.3" font-family="Times New Roman,serif" font-size="14.00">, 1.27</text>
<text text-anchor="middle" x="3834" y="-492.3" font-family="Times New Roman,serif" font-size="14.00">(min: 1.27, max: 1.27)]</text>
</g>
<!-- CLONE_4&#45;&gt;FakeQuantize_105 -->
<g id="edge8" class="edge"><title>CLONE_4&#45;&gt;FakeQuantize_105</title>
<path fill="none" stroke="black" d="M3733.18,-484.471C3713.81,-476.274 3693.48,-468.364 3674,-462 3618.67,-443.918 3559.34,-427.693 3500.84,-413.433"/>
<polygon fill="black" stroke="black" points="3501.62,-410.021 3491.07,-411.07 3499.97,-416.825 3501.62,-410.021"/>
<text text-anchor="middle" x="3637" y="-432.8" font-family="Times New Roman,serif" font-size="14.00"> 0 &#45;&gt; 4 </text>
</g>
<!-- Concat_98 -->
<g id="node10" class="node"><title>Concat_98</title>
<polygon fill="none" stroke="black" points="2438,-605 1568,-605 1568,-462 2438,-462 2438,-605"/>
<text text-anchor="middle" x="2003" y="-589.8" font-family="Times New Roman,serif" font-size="14.00">friendly_name: concat2</text>
<text text-anchor="middle" x="2003" y="-574.8" font-family="Times New Roman,serif" font-size="14.00">name: Concat_98</text>
<text text-anchor="middle" x="2003" y="-559.8" font-family="Times New Roman,serif" font-size="14.00">type_name: Concat</text>
<text text-anchor="middle" x="2003" y="-544.8" font-family="Times New Roman,serif" font-size="14.00">rt info: &#160;LowPrecision::PrecisionPreserved(2113893388664: shared: 2113893707776,value: true)</text>
<text text-anchor="middle" x="2003" y="-529.8" font-family="Times New Roman,serif" font-size="14.00">LowPrecision::Precisions(2113893385744: sharedValue: 2113888800304, attributes: [2113893386304, 2113893385744, 2113893389104], precisions: [u8])</text>
<text text-anchor="middle" x="2003" y="-514.8" font-family="Times New Roman,serif" font-size="14.00">Variant::std::string</text>
<text text-anchor="middle" x="2003" y="-499.8" font-family="Times New Roman,serif" font-size="14.00">in0: {f32}[1,3,9,9]: FakeQuantize_90: out0</text>
<text text-anchor="middle" x="2003" y="-484.8" font-family="Times New Roman,serif" font-size="14.00">in1: {f32}[1,3,9,9]: FakeQuantize_96: out0</text>
<text text-anchor="middle" x="2003" y="-469.8" font-family="Times New Roman,serif" font-size="14.00">out0: {f32}[1,6,9,9]</text>
</g>
<!-- Concat_98&#45;&gt;MaxPool_99 -->
<g id="edge9" class="edge"><title>Concat_98&#45;&gt;MaxPool_99</title>
<path fill="none" stroke="black" d="M2045.7,-461.824C2056.97,-443.171 2069.07,-423.144 2080.13,-404.845"/>
<polygon fill="black" stroke="black" points="2083.28,-406.383 2085.46,-396.014 2077.29,-402.763 2083.28,-406.383"/>
<text text-anchor="middle" x="2086" y="-432.8" font-family="Times New Roman,serif" font-size="14.00"> 0 &#45;&gt; 0 </text>
</g>
<!-- FakeQuantize_90 -->
<g id="node11" class="node"><title>FakeQuantize_90</title>
<polygon fill="none" stroke="black" points="1994,-799 1006,-799 1006,-656 1994,-656 1994,-799"/>
<text text-anchor="middle" x="1500" y="-783.8" font-family="Times New Roman,serif" font-size="14.00">friendly_name: fakeQuantize2</text>
<text text-anchor="middle" x="1500" y="-768.8" font-family="Times New Roman,serif" font-size="14.00">name: FakeQuantize_90</text>
<text text-anchor="middle" x="1500" y="-753.8" font-family="Times New Roman,serif" font-size="14.00">type_name: FakeQuantize</text>
<text text-anchor="middle" x="1500" y="-738.8" font-family="Times New Roman,serif" font-size="14.00">in0: {f32}[1,3,9,9]: Parameter_85: out0</text>
<text text-anchor="middle" x="1500" y="-723.8" font-family="Times New Roman,serif" font-size="14.00">in1: {f32}[]: Constant_86: out0</text>
<text text-anchor="middle" x="1500" y="-708.8" font-family="Times New Roman,serif" font-size="14.00">in2: {f32}[]: Constant_87: out0</text>
<text text-anchor="middle" x="1500" y="-693.8" font-family="Times New Roman,serif" font-size="14.00">in3: {f32}[]: Constant_88: out0</text>
<text text-anchor="middle" x="1500" y="-678.8" font-family="Times New Roman,serif" font-size="14.00">in4: {f32}[]: Constant_89: out0</text>
<text text-anchor="middle" x="1500" y="-663.8" font-family="Times New Roman,serif" font-size="14.00">out0: {f32}[1,3,9,9] LowPrecision::Precisions(2113893385744: sharedValue: 2113888800304, attributes: [2113893386304, 2113893385744, 2113893389104], precisions: [u8]) </text>
</g>
<!-- FakeQuantize_90&#45;&gt;Concat_98 -->
<g id="edge10" class="edge"><title>FakeQuantize_90&#45;&gt;Concat_98</title>
<path fill="none" stroke="black" d="M1684.8,-655.96C1725.1,-640.578 1767.86,-624.255 1808.53,-608.733"/>
<polygon fill="black" stroke="black" points="1809.89,-611.957 1817.99,-605.121 1807.4,-605.418 1809.89,-611.957"/>
<text text-anchor="middle" x="1788" y="-626.8" font-family="Times New Roman,serif" font-size="14.00"> 0 &#45;&gt; 0 </text>
</g>
<!-- Concat_97 -->
<g id="node23" class="node"><title>Concat_97</title>
<polygon fill="none" stroke="black" points="1285,-605 415,-605 415,-462 1285,-462 1285,-605"/>
<text text-anchor="middle" x="850" y="-589.8" font-family="Times New Roman,serif" font-size="14.00">friendly_name: concat1</text>
<text text-anchor="middle" x="850" y="-574.8" font-family="Times New Roman,serif" font-size="14.00">name: Concat_97</text>
<text text-anchor="middle" x="850" y="-559.8" font-family="Times New Roman,serif" font-size="14.00">type_name: Concat</text>
<text text-anchor="middle" x="850" y="-544.8" font-family="Times New Roman,serif" font-size="14.00">rt info: &#160;LowPrecision::PrecisionPreserved(2113893384184: shared: 2113893706112,value: true)</text>
<text text-anchor="middle" x="850" y="-529.8" font-family="Times New Roman,serif" font-size="14.00">LowPrecision::Precisions(2113893386304: sharedValue: 2113888800304, attributes: [2113893386304, 2113893385744, 2113893389104], precisions: [u8])</text>
<text text-anchor="middle" x="850" y="-514.8" font-family="Times New Roman,serif" font-size="14.00">Variant::std::string</text>
<text text-anchor="middle" x="850" y="-499.8" font-family="Times New Roman,serif" font-size="14.00">in0: {f32}[1,3,9,9]: FakeQuantize_84: out0</text>
<text text-anchor="middle" x="850" y="-484.8" font-family="Times New Roman,serif" font-size="14.00">in1: {f32}[1,3,9,9]: FakeQuantize_90: out0</text>
<text text-anchor="middle" x="850" y="-469.8" font-family="Times New Roman,serif" font-size="14.00">out0: {f32}[1,6,9,9]</text>
</g>
<!-- FakeQuantize_90&#45;&gt;Concat_97 -->
<g id="edge24" class="edge"><title>FakeQuantize_90&#45;&gt;Concat_97</title>
<path fill="none" stroke="black" d="M1261.19,-655.96C1208.26,-640.326 1152.05,-623.72 1098.73,-607.971"/>
<polygon fill="black" stroke="black" points="1099.39,-604.517 1088.81,-605.041 1097.41,-611.231 1099.39,-604.517"/>
<text text-anchor="middle" x="1216" y="-626.8" font-family="Times New Roman,serif" font-size="14.00"> 0 &#45;&gt; 1 </text>
</g>
<!-- FakeQuantize_96 -->
<g id="node12" class="node"><title>FakeQuantize_96</title>
<polygon fill="none" stroke="black" points="3000,-799 2012,-799 2012,-656 3000,-656 3000,-799"/>
<text text-anchor="middle" x="2506" y="-783.8" font-family="Times New Roman,serif" font-size="14.00">friendly_name: fakeQuantize3</text>
<text text-anchor="middle" x="2506" y="-768.8" font-family="Times New Roman,serif" font-size="14.00">name: FakeQuantize_96</text>
<text text-anchor="middle" x="2506" y="-753.8" font-family="Times New Roman,serif" font-size="14.00">type_name: FakeQuantize</text>
<text text-anchor="middle" x="2506" y="-738.8" font-family="Times New Roman,serif" font-size="14.00">in0: {f32}[1,3,9,9]: Parameter_91: out0</text>
<text text-anchor="middle" x="2506" y="-723.8" font-family="Times New Roman,serif" font-size="14.00">in1: {f32}[]: Constant_92: out0</text>
<text text-anchor="middle" x="2506" y="-708.8" font-family="Times New Roman,serif" font-size="14.00">in2: {f32}[]: Constant_93: out0</text>
<text text-anchor="middle" x="2506" y="-693.8" font-family="Times New Roman,serif" font-size="14.00">in3: {f32}[]: Constant_94: out0</text>
<text text-anchor="middle" x="2506" y="-678.8" font-family="Times New Roman,serif" font-size="14.00">in4: {f32}[]: Constant_95: out0</text>
<text text-anchor="middle" x="2506" y="-663.8" font-family="Times New Roman,serif" font-size="14.00">out0: {f32}[1,3,9,9] LowPrecision::Precisions(2113893389104: sharedValue: 2113888800304, attributes: [2113893386304, 2113893385744, 2113893389104], precisions: [u8]) </text>
</g>
<!-- FakeQuantize_96&#45;&gt;Concat_98 -->
<g id="edge11" class="edge"><title>FakeQuantize_96&#45;&gt;Concat_98</title>
<path fill="none" stroke="black" d="M2321.2,-655.96C2280.9,-640.578 2238.14,-624.255 2197.47,-608.733"/>
<polygon fill="black" stroke="black" points="2198.6,-605.418 2188.01,-605.121 2196.11,-611.957 2198.6,-605.418"/>
<text text-anchor="middle" x="2291" y="-626.8" font-family="Times New Roman,serif" font-size="14.00"> 0 &#45;&gt; 1 </text>
</g>
<!-- CLONE_5 -->
<g id="node13" class="node"><title>CLONE_5</title>
<polygon fill="none" stroke="blue" stroke-dasharray="5,2" points="2210,-925.5 2070,-925.5 2070,-857.5 2210,-857.5 2210,-925.5"/>
<text text-anchor="middle" x="2140" y="-910.3" font-family="Times New Roman,serif" font-size="14.00">friendly_name: input3</text>
<text text-anchor="middle" x="2140" y="-895.3" font-family="Times New Roman,serif" font-size="14.00">name: Parameter_91</text>
<text text-anchor="middle" x="2140" y="-880.3" font-family="Times New Roman,serif" font-size="14.00">type_name: Parameter</text>
<text text-anchor="middle" x="2140" y="-865.3" font-family="Times New Roman,serif" font-size="14.00">{f32}[1,3,9,9]</text>
</g>
<!-- CLONE_5&#45;&gt;FakeQuantize_96 -->
<g id="edge12" class="edge"><title>CLONE_5&#45;&gt;FakeQuantize_96</title>
<path fill="none" stroke="black" d="M2203.62,-857.381C2208.8,-854.838 2213.97,-852.349 2219,-850 2252.75,-834.231 2289.1,-818.156 2324.22,-803.08"/>
<polygon fill="black" stroke="black" points="2325.79,-806.217 2333.6,-799.063 2323.03,-799.782 2325.79,-806.217"/>
<text text-anchor="middle" x="2311" y="-820.8" font-family="Times New Roman,serif" font-size="14.00"> 0 &#45;&gt; 0 </text>
</g>
<!-- CLONE_6 -->
<g id="node14" class="node"><title>CLONE_6</title>
<polygon fill="none" stroke="black" stroke-dasharray="5,2" points="2401.5,-933 2228.5,-933 2228.5,-850 2401.5,-850 2401.5,-933"/>
<text text-anchor="middle" x="2315" y="-917.8" font-family="Times New Roman,serif" font-size="14.00">friendly_name: Constant_92</text>
<text text-anchor="middle" x="2315" y="-902.8" font-family="Times New Roman,serif" font-size="14.00">type_name: Constant</text>
<text text-anchor="middle" x="2315" y="-887.8" font-family="Times New Roman,serif" font-size="14.00">{f32}[]</text>
<text text-anchor="middle" x="2315" y="-872.8" font-family="Times New Roman,serif" font-size="14.00">value: [&#45;1.28</text>
<text text-anchor="middle" x="2315" y="-857.8" font-family="Times New Roman,serif" font-size="14.00">(min: &#45;1.28, max: &#45;1.28)]</text>
</g>
<!-- CLONE_6&#45;&gt;FakeQuantize_96 -->
<g id="edge13" class="edge"><title>CLONE_6&#45;&gt;FakeQuantize_96</title>
<path fill="none" stroke="black" d="M2363.2,-849.621C2378.96,-836.252 2397.02,-820.933 2414.88,-805.787"/>
<polygon fill="black" stroke="black" points="2417.15,-808.45 2422.51,-799.313 2412.62,-803.112 2417.15,-808.45"/>
<text text-anchor="middle" x="2421" y="-820.8" font-family="Times New Roman,serif" font-size="14.00"> 0 &#45;&gt; 1 </text>
</g>
<!-- CLONE_7 -->
<g id="node15" class="node"><title>CLONE_7</title>
<polygon fill="none" stroke="black" stroke-dasharray="5,2" points="2592.5,-933 2419.5,-933 2419.5,-850 2592.5,-850 2592.5,-933"/>
<text text-anchor="middle" x="2506" y="-917.8" font-family="Times New Roman,serif" font-size="14.00">friendly_name: Constant_93</text>
<text text-anchor="middle" x="2506" y="-902.8" font-family="Times New Roman,serif" font-size="14.00">type_name: Constant</text>
<text text-anchor="middle" x="2506" y="-887.8" font-family="Times New Roman,serif" font-size="14.00">{f32}[]</text>
<text text-anchor="middle" x="2506" y="-872.8" font-family="Times New Roman,serif" font-size="14.00">value: [1.27</text>
<text text-anchor="middle" x="2506" y="-857.8" font-family="Times New Roman,serif" font-size="14.00">(min: 1.27, max: 1.27)]</text>
</g>
<!-- CLONE_7&#45;&gt;FakeQuantize_96 -->
<g id="edge14" class="edge"><title>CLONE_7&#45;&gt;FakeQuantize_96</title>
<path fill="none" stroke="black" d="M2506,-849.621C2506,-837.326 2506,-823.382 2506,-809.44"/>
<polygon fill="black" stroke="black" points="2509.5,-809.312 2506,-799.313 2502.5,-809.313 2509.5,-809.312"/>
<text text-anchor="middle" x="2527" y="-820.8" font-family="Times New Roman,serif" font-size="14.00"> 0 &#45;&gt; 2 </text>
</g>
<!-- CLONE_8 -->
<g id="node16" class="node"><title>CLONE_8</title>
<polygon fill="none" stroke="black" stroke-dasharray="5,2" points="2783.5,-933 2610.5,-933 2610.5,-850 2783.5,-850 2783.5,-933"/>
<text text-anchor="middle" x="2697" y="-917.8" font-family="Times New Roman,serif" font-size="14.00">friendly_name: Constant_94</text>
<text text-anchor="middle" x="2697" y="-902.8" font-family="Times New Roman,serif" font-size="14.00">type_name: Constant</text>
<text text-anchor="middle" x="2697" y="-887.8" font-family="Times New Roman,serif" font-size="14.00">{f32}[]</text>
<text text-anchor="middle" x="2697" y="-872.8" font-family="Times New Roman,serif" font-size="14.00">value: [&#45;1.28</text>
<text text-anchor="middle" x="2697" y="-857.8" font-family="Times New Roman,serif" font-size="14.00">(min: &#45;1.28, max: &#45;1.28)]</text>
</g>
<!-- CLONE_8&#45;&gt;FakeQuantize_96 -->
<g id="edge15" class="edge"><title>CLONE_8&#45;&gt;FakeQuantize_96</title>
<path fill="none" stroke="black" d="M2648.8,-849.621C2633.04,-836.252 2614.98,-820.933 2597.12,-805.787"/>
<polygon fill="black" stroke="black" points="2599.38,-803.112 2589.49,-799.313 2594.85,-808.45 2599.38,-803.112"/>
<text text-anchor="middle" x="2646" y="-820.8" font-family="Times New Roman,serif" font-size="14.00"> 0 &#45;&gt; 3 </text>
</g>
<!-- CLONE_9 -->
<g id="node17" class="node"><title>CLONE_9</title>
<polygon fill="none" stroke="black" stroke-dasharray="5,2" points="2974.5,-933 2801.5,-933 2801.5,-850 2974.5,-850 2974.5,-933"/>
<text text-anchor="middle" x="2888" y="-917.8" font-family="Times New Roman,serif" font-size="14.00">friendly_name: Constant_95</text>
<text text-anchor="middle" x="2888" y="-902.8" font-family="Times New Roman,serif" font-size="14.00">type_name: Constant</text>
<text text-anchor="middle" x="2888" y="-887.8" font-family="Times New Roman,serif" font-size="14.00">{f32}[]</text>
<text text-anchor="middle" x="2888" y="-872.8" font-family="Times New Roman,serif" font-size="14.00">value: [1.27</text>
<text text-anchor="middle" x="2888" y="-857.8" font-family="Times New Roman,serif" font-size="14.00">(min: 1.27, max: 1.27)]</text>
</g>
<!-- CLONE_9&#45;&gt;FakeQuantize_96 -->
<g id="edge16" class="edge"><title>CLONE_9&#45;&gt;FakeQuantize_96</title>
<path fill="none" stroke="black" d="M2801.32,-853.74C2765.81,-838.682 2723.37,-820.681 2681.88,-803.087"/>
<polygon fill="black" stroke="black" points="2683.06,-799.786 2672.49,-799.104 2680.32,-806.23 2683.06,-799.786"/>
<text text-anchor="middle" x="2764" y="-820.8" font-family="Times New Roman,serif" font-size="14.00"> 0 &#45;&gt; 4 </text>
</g>
<!-- CLONE_10 -->
<g id="node18" class="node"><title>CLONE_10</title>
<polygon fill="none" stroke="blue" stroke-dasharray="5,2" points="1204,-925.5 1064,-925.5 1064,-857.5 1204,-857.5 1204,-925.5"/>
<text text-anchor="middle" x="1134" y="-910.3" font-family="Times New Roman,serif" font-size="14.00">friendly_name: input2</text>
<text text-anchor="middle" x="1134" y="-895.3" font-family="Times New Roman,serif" font-size="14.00">name: Parameter_85</text>
<text text-anchor="middle" x="1134" y="-880.3" font-family="Times New Roman,serif" font-size="14.00">type_name: Parameter</text>
<text text-anchor="middle" x="1134" y="-865.3" font-family="Times New Roman,serif" font-size="14.00">{f32}[1,3,9,9]</text>
</g>
<!-- CLONE_10&#45;&gt;FakeQuantize_90 -->
<g id="edge17" class="edge"><title>CLONE_10&#45;&gt;FakeQuantize_90</title>
<path fill="none" stroke="black" d="M1197.62,-857.381C1202.8,-854.838 1207.97,-852.349 1213,-850 1246.75,-834.231 1283.1,-818.156 1318.22,-803.08"/>
<polygon fill="black" stroke="black" points="1319.79,-806.217 1327.6,-799.063 1317.03,-799.782 1319.79,-806.217"/>
<text text-anchor="middle" x="1305" y="-820.8" font-family="Times New Roman,serif" font-size="14.00"> 0 &#45;&gt; 0 </text>
</g>
<!-- CLONE_11 -->
<g id="node19" class="node"><title>CLONE_11</title>
<polygon fill="none" stroke="black" stroke-dasharray="5,2" points="1395.5,-933 1222.5,-933 1222.5,-850 1395.5,-850 1395.5,-933"/>
<text text-anchor="middle" x="1309" y="-917.8" font-family="Times New Roman,serif" font-size="14.00">friendly_name: Constant_86</text>
<text text-anchor="middle" x="1309" y="-902.8" font-family="Times New Roman,serif" font-size="14.00">type_name: Constant</text>
<text text-anchor="middle" x="1309" y="-887.8" font-family="Times New Roman,serif" font-size="14.00">{f32}[]</text>
<text text-anchor="middle" x="1309" y="-872.8" font-family="Times New Roman,serif" font-size="14.00">value: [&#45;0.64</text>
<text text-anchor="middle" x="1309" y="-857.8" font-family="Times New Roman,serif" font-size="14.00">(min: &#45;0.64, max: &#45;0.64)]</text>
</g>
<!-- CLONE_11&#45;&gt;FakeQuantize_90 -->
<g id="edge18" class="edge"><title>CLONE_11&#45;&gt;FakeQuantize_90</title>
<path fill="none" stroke="black" d="M1357.2,-849.621C1372.96,-836.252 1391.02,-820.933 1408.88,-805.787"/>
<polygon fill="black" stroke="black" points="1411.15,-808.45 1416.51,-799.313 1406.62,-803.112 1411.15,-808.45"/>
<text text-anchor="middle" x="1415" y="-820.8" font-family="Times New Roman,serif" font-size="14.00"> 0 &#45;&gt; 1 </text>
</g>
<!-- CLONE_12 -->
<g id="node20" class="node"><title>CLONE_12</title>
<polygon fill="none" stroke="black" stroke-dasharray="5,2" points="1586.5,-933 1413.5,-933 1413.5,-850 1586.5,-850 1586.5,-933"/>
<text text-anchor="middle" x="1500" y="-917.8" font-family="Times New Roman,serif" font-size="14.00">friendly_name: Constant_87</text>
<text text-anchor="middle" x="1500" y="-902.8" font-family="Times New Roman,serif" font-size="14.00">type_name: Constant</text>
<text text-anchor="middle" x="1500" y="-887.8" font-family="Times New Roman,serif" font-size="14.00">{f32}[]</text>
<text text-anchor="middle" x="1500" y="-872.8" font-family="Times New Roman,serif" font-size="14.00">value: [0.635</text>
<text text-anchor="middle" x="1500" y="-857.8" font-family="Times New Roman,serif" font-size="14.00">(min: 0.635, max: 0.635)]</text>
</g>
<!-- CLONE_12&#45;&gt;FakeQuantize_90 -->
<g id="edge19" class="edge"><title>CLONE_12&#45;&gt;FakeQuantize_90</title>
<path fill="none" stroke="black" d="M1500,-849.621C1500,-837.326 1500,-823.382 1500,-809.44"/>
<polygon fill="black" stroke="black" points="1503.5,-809.312 1500,-799.313 1496.5,-809.313 1503.5,-809.312"/>
<text text-anchor="middle" x="1521" y="-820.8" font-family="Times New Roman,serif" font-size="14.00"> 0 &#45;&gt; 2 </text>
</g>
<!-- CLONE_13 -->
<g id="node21" class="node"><title>CLONE_13</title>
<polygon fill="none" stroke="black" stroke-dasharray="5,2" points="1777.5,-933 1604.5,-933 1604.5,-850 1777.5,-850 1777.5,-933"/>
<text text-anchor="middle" x="1691" y="-917.8" font-family="Times New Roman,serif" font-size="14.00">friendly_name: Constant_88</text>
<text text-anchor="middle" x="1691" y="-902.8" font-family="Times New Roman,serif" font-size="14.00">type_name: Constant</text>
<text text-anchor="middle" x="1691" y="-887.8" font-family="Times New Roman,serif" font-size="14.00">{f32}[]</text>
<text text-anchor="middle" x="1691" y="-872.8" font-family="Times New Roman,serif" font-size="14.00">value: [&#45;0.64</text>
<text text-anchor="middle" x="1691" y="-857.8" font-family="Times New Roman,serif" font-size="14.00">(min: &#45;0.64, max: &#45;0.64)]</text>
</g>
<!-- CLONE_13&#45;&gt;FakeQuantize_90 -->
<g id="edge20" class="edge"><title>CLONE_13&#45;&gt;FakeQuantize_90</title>
<path fill="none" stroke="black" d="M1642.8,-849.621C1627.04,-836.252 1608.98,-820.933 1591.12,-805.787"/>
<polygon fill="black" stroke="black" points="1593.38,-803.112 1583.49,-799.313 1588.85,-808.45 1593.38,-803.112"/>
<text text-anchor="middle" x="1640" y="-820.8" font-family="Times New Roman,serif" font-size="14.00"> 0 &#45;&gt; 3 </text>
</g>
<!-- CLONE_14 -->
<g id="node22" class="node"><title>CLONE_14</title>
<polygon fill="none" stroke="black" stroke-dasharray="5,2" points="1968.5,-933 1795.5,-933 1795.5,-850 1968.5,-850 1968.5,-933"/>
<text text-anchor="middle" x="1882" y="-917.8" font-family="Times New Roman,serif" font-size="14.00">friendly_name: Constant_89</text>
<text text-anchor="middle" x="1882" y="-902.8" font-family="Times New Roman,serif" font-size="14.00">type_name: Constant</text>
<text text-anchor="middle" x="1882" y="-887.8" font-family="Times New Roman,serif" font-size="14.00">{f32}[]</text>
<text text-anchor="middle" x="1882" y="-872.8" font-family="Times New Roman,serif" font-size="14.00">value: [0.635</text>
<text text-anchor="middle" x="1882" y="-857.8" font-family="Times New Roman,serif" font-size="14.00">(min: 0.635, max: 0.635)]</text>
</g>
<!-- CLONE_14&#45;&gt;FakeQuantize_90 -->
<g id="edge21" class="edge"><title>CLONE_14&#45;&gt;FakeQuantize_90</title>
<path fill="none" stroke="black" d="M1795.32,-853.74C1759.81,-838.682 1717.37,-820.681 1675.88,-803.087"/>
<polygon fill="black" stroke="black" points="1677.06,-799.786 1666.49,-799.104 1674.32,-806.23 1677.06,-799.786"/>
<text text-anchor="middle" x="1758" y="-820.8" font-family="Times New Roman,serif" font-size="14.00"> 0 &#45;&gt; 4 </text>
</g>
<!-- Result_107 -->
<g id="node24" class="node"><title>Result_107</title>
<polygon fill="none" stroke="crimson" stroke-width="1.5" points="1389.5,-373.5 310.5,-373.5 310.5,-305.5 1389.5,-305.5 1389.5,-373.5"/>
<text text-anchor="middle" x="850" y="-358.3" font-family="Times New Roman,serif" font-size="14.00">friendly_name: Result_107</text>
<text text-anchor="middle" x="850" y="-343.3" font-family="Times New Roman,serif" font-size="14.00">type_name: Result</text>
<text text-anchor="middle" x="850" y="-328.3" font-family="Times New Roman,serif" font-size="14.00">in0: {f32}[1,6,9,9]: Concat_97: out0 LowPrecision::Precisions(2113893386304: sharedValue: 2113888800304, attributes: [2113893386304, 2113893385744, 2113893389104], precisions: [u8]) </text>
<text text-anchor="middle" x="850" y="-313.3" font-family="Times New Roman,serif" font-size="14.00">out0: {f32}[1,6,9,9]</text>
</g>
<!-- Concat_97&#45;&gt;Result_107 -->
<g id="edge22" class="edge"><title>Concat_97&#45;&gt;Result_107</title>
<path fill="none" stroke="black" d="M850,-461.824C850,-435.676 850,-406.828 850,-383.825"/>
<polygon fill="black" stroke="black" points="853.5,-383.698 850,-373.698 846.5,-383.698 853.5,-383.698"/>
<text text-anchor="middle" x="871" y="-432.8" font-family="Times New Roman,serif" font-size="14.00"> 0 &#45;&gt; 0 </text>
</g>
<!-- FakeQuantize_84 -->
<g id="node25" class="node"><title>FakeQuantize_84</title>
<polygon fill="none" stroke="black" points="988,-799 0,-799 0,-656 988,-656 988,-799"/>
<text text-anchor="middle" x="494" y="-783.8" font-family="Times New Roman,serif" font-size="14.00">friendly_name: fakeQuantize1</text>
<text text-anchor="middle" x="494" y="-768.8" font-family="Times New Roman,serif" font-size="14.00">name: FakeQuantize_84</text>
<text text-anchor="middle" x="494" y="-753.8" font-family="Times New Roman,serif" font-size="14.00">type_name: FakeQuantize</text>
<text text-anchor="middle" x="494" y="-738.8" font-family="Times New Roman,serif" font-size="14.00">in0: {f32}[1,3,9,9]: Parameter_79: out0</text>
<text text-anchor="middle" x="494" y="-723.8" font-family="Times New Roman,serif" font-size="14.00">in1: {f32}[]: Constant_80: out0</text>
<text text-anchor="middle" x="494" y="-708.8" font-family="Times New Roman,serif" font-size="14.00">in2: {f32}[]: Constant_81: out0</text>
<text text-anchor="middle" x="494" y="-693.8" font-family="Times New Roman,serif" font-size="14.00">in3: {f32}[]: Constant_82: out0</text>
<text text-anchor="middle" x="494" y="-678.8" font-family="Times New Roman,serif" font-size="14.00">in4: {f32}[]: Constant_83: out0</text>
<text text-anchor="middle" x="494" y="-663.8" font-family="Times New Roman,serif" font-size="14.00">out0: {f32}[1,3,9,9] LowPrecision::Precisions(2113893386304: sharedValue: 2113888800304, attributes: [2113893386304, 2113893385744, 2113893389104], precisions: [u8]) </text>
</g>
<!-- FakeQuantize_84&#45;&gt;Concat_97 -->
<g id="edge23" class="edge"><title>FakeQuantize_84&#45;&gt;Concat_97</title>
<path fill="none" stroke="black" d="M624.792,-655.96C652.534,-640.999 681.925,-625.147 709.993,-610.009"/>
<polygon fill="black" stroke="black" points="711.916,-612.949 719.056,-605.121 708.594,-606.788 711.916,-612.949"/>
<text text-anchor="middle" x="704" y="-626.8" font-family="Times New Roman,serif" font-size="14.00"> 0 &#45;&gt; 0 </text>
</g>
<!-- CLONE_15 -->
<g id="node26" class="node"><title>CLONE_15</title>
<polygon fill="none" stroke="blue" stroke-dasharray="5,2" points="153,-925.5 13,-925.5 13,-857.5 153,-857.5 153,-925.5"/>
<text text-anchor="middle" x="83" y="-910.3" font-family="Times New Roman,serif" font-size="14.00">friendly_name: input1</text>
<text text-anchor="middle" x="83" y="-895.3" font-family="Times New Roman,serif" font-size="14.00">name: Parameter_79</text>
<text text-anchor="middle" x="83" y="-880.3" font-family="Times New Roman,serif" font-size="14.00">type_name: Parameter</text>
<text text-anchor="middle" x="83" y="-865.3" font-family="Times New Roman,serif" font-size="14.00">{f32}[1,3,9,9]</text>
</g>
<!-- CLONE_15&#45;&gt;FakeQuantize_84 -->
<g id="edge25" class="edge"><title>CLONE_15&#45;&gt;FakeQuantize_84</title>
<path fill="none" stroke="black" d="M146.055,-857.31C151.41,-854.756 156.775,-852.285 162,-850 199.484,-833.607 239.956,-817.513 279.319,-802.675"/>
<polygon fill="black" stroke="black" points="280.63,-805.921 288.763,-799.131 278.171,-799.367 280.63,-805.921"/>
<text text-anchor="middle" x="255" y="-820.8" font-family="Times New Roman,serif" font-size="14.00"> 0 &#45;&gt; 0 </text>
</g>
<!-- CLONE_16 -->
<g id="node27" class="node"><title>CLONE_16</title>
<polygon fill="none" stroke="black" stroke-dasharray="5,2" points="377,-933 171,-933 171,-850 377,-850 377,-933"/>
<text text-anchor="middle" x="274" y="-917.8" font-family="Times New Roman,serif" font-size="14.00">friendly_name: Constant_80</text>
<text text-anchor="middle" x="274" y="-902.8" font-family="Times New Roman,serif" font-size="14.00">type_name: Constant</text>
<text text-anchor="middle" x="274" y="-887.8" font-family="Times New Roman,serif" font-size="14.00">{f32}[]</text>
<text text-anchor="middle" x="274" y="-872.8" font-family="Times New Roman,serif" font-size="14.00">value: [&#45;0.426667</text>
<text text-anchor="middle" x="274" y="-857.8" font-family="Times New Roman,serif" font-size="14.00">(min: &#45;0.426667, max: &#45;0.426667)]</text>
</g>
<!-- CLONE_16&#45;&gt;FakeQuantize_84 -->
<g id="edge26" class="edge"><title>CLONE_16&#45;&gt;FakeQuantize_84</title>
<path fill="none" stroke="black" d="M329.231,-849.83C347.659,-836.26 368.841,-820.663 389.745,-805.27"/>
<polygon fill="black" stroke="black" points="392.07,-807.904 398.047,-799.156 387.92,-802.267 392.07,-807.904"/>
<text text-anchor="middle" x="392" y="-820.8" font-family="Times New Roman,serif" font-size="14.00"> 0 &#45;&gt; 1 </text>
</g>
<!-- CLONE_17 -->
<g id="node28" class="node"><title>CLONE_17</title>
<polygon fill="none" stroke="black" stroke-dasharray="5,2" points="592.5,-933 395.5,-933 395.5,-850 592.5,-850 592.5,-933"/>
<text text-anchor="middle" x="494" y="-917.8" font-family="Times New Roman,serif" font-size="14.00">friendly_name: Constant_81</text>
<text text-anchor="middle" x="494" y="-902.8" font-family="Times New Roman,serif" font-size="14.00">type_name: Constant</text>
<text text-anchor="middle" x="494" y="-887.8" font-family="Times New Roman,serif" font-size="14.00">{f32}[]</text>
<text text-anchor="middle" x="494" y="-872.8" font-family="Times New Roman,serif" font-size="14.00">value: [0.423333</text>
<text text-anchor="middle" x="494" y="-857.8" font-family="Times New Roman,serif" font-size="14.00">(min: 0.423333, max: 0.423333)]</text>
</g>
<!-- CLONE_17&#45;&gt;FakeQuantize_84 -->
<g id="edge27" class="edge"><title>CLONE_17&#45;&gt;FakeQuantize_84</title>
<path fill="none" stroke="black" d="M494,-849.621C494,-837.326 494,-823.382 494,-809.44"/>
<polygon fill="black" stroke="black" points="497.5,-809.312 494,-799.313 490.5,-809.313 497.5,-809.312"/>
<text text-anchor="middle" x="515" y="-820.8" font-family="Times New Roman,serif" font-size="14.00"> 0 &#45;&gt; 2 </text>
</g>
<!-- CLONE_18 -->
<g id="node29" class="node"><title>CLONE_18</title>
<polygon fill="none" stroke="black" stroke-dasharray="5,2" points="817,-933 611,-933 611,-850 817,-850 817,-933"/>
<text text-anchor="middle" x="714" y="-917.8" font-family="Times New Roman,serif" font-size="14.00">friendly_name: Constant_82</text>
<text text-anchor="middle" x="714" y="-902.8" font-family="Times New Roman,serif" font-size="14.00">type_name: Constant</text>
<text text-anchor="middle" x="714" y="-887.8" font-family="Times New Roman,serif" font-size="14.00">{f32}[]</text>
<text text-anchor="middle" x="714" y="-872.8" font-family="Times New Roman,serif" font-size="14.00">value: [&#45;0.426667</text>
<text text-anchor="middle" x="714" y="-857.8" font-family="Times New Roman,serif" font-size="14.00">(min: &#45;0.426667, max: &#45;0.426667)]</text>
</g>
<!-- CLONE_18&#45;&gt;FakeQuantize_84 -->
<g id="edge28" class="edge"><title>CLONE_18&#45;&gt;FakeQuantize_84</title>
<path fill="none" stroke="black" d="M658.769,-849.83C640.341,-836.26 619.159,-820.663 598.255,-805.27"/>
<polygon fill="black" stroke="black" points="600.08,-802.267 589.953,-799.156 595.93,-807.904 600.08,-802.267"/>
<text text-anchor="middle" x="652" y="-820.8" font-family="Times New Roman,serif" font-size="14.00"> 0 &#45;&gt; 3 </text>
</g>
<!-- CLONE_19 -->
<g id="node30" class="node"><title>CLONE_19</title>
<polygon fill="none" stroke="black" stroke-dasharray="5,2" points="1032.5,-933 835.5,-933 835.5,-850 1032.5,-850 1032.5,-933"/>
<text text-anchor="middle" x="934" y="-917.8" font-family="Times New Roman,serif" font-size="14.00">friendly_name: Constant_83</text>
<text text-anchor="middle" x="934" y="-902.8" font-family="Times New Roman,serif" font-size="14.00">type_name: Constant</text>
<text text-anchor="middle" x="934" y="-887.8" font-family="Times New Roman,serif" font-size="14.00">{f32}[]</text>
<text text-anchor="middle" x="934" y="-872.8" font-family="Times New Roman,serif" font-size="14.00">value: [0.423333</text>
<text text-anchor="middle" x="934" y="-857.8" font-family="Times New Roman,serif" font-size="14.00">(min: 0.423333, max: 0.423333)]</text>
</g>
<!-- CLONE_19&#45;&gt;FakeQuantize_84 -->
<g id="edge29" class="edge"><title>CLONE_19&#45;&gt;FakeQuantize_84</title>
<path fill="none" stroke="black" d="M835.424,-853.497C832.246,-852.316 829.098,-851.148 826,-850 784.398,-834.587 739.82,-818.192 697.264,-802.597"/>
<polygon fill="black" stroke="black" points="698.239,-799.227 687.645,-799.074 695.831,-805.8 698.239,-799.227"/>
<text text-anchor="middle" x="793" y="-820.8" font-family="Times New Roman,serif" font-size="14.00"> 0 &#45;&gt; 4 </text>
</g>
</g>
</svg>
