<?xml version="1.0" encoding="UTF-8" standalone="no"?>
<!DOCTYPE svg PUBLIC "-//W3C//DTD SVG 1.1//EN"
 "http://www.w3.org/Graphics/SVG/1.1/DTD/svg11.dtd">
<!-- Generated by graphviz version 2.38.0 (20140413.2041)
 -->
<!-- Title: ngraph Pages: 1 -->
<svg width="4210pt" height="986pt"
 viewBox="0.00 0.00 4210.00 986.00" xmlns="http://www.w3.org/2000/svg" xmlns:xlink="http://www.w3.org/1999/xlink">
<g id="graph0" class="graph" transform="scale(1 1) rotate(0) translate(4 982)">
<title>ngraph</title>
<polygon fill="white" stroke="none" points="-4,4 -4,-982 4206,-982 4206,4 -4,4"/>
<!-- Convolution_106 -->
<g id="node1" class="node"><title>Convolution_106</title>
<polygon fill="none" stroke="black" points="3466.5,-217 2376.5,-217 2376.5,-119 3466.5,-119 3466.5,-217"/>
<text text-anchor="middle" x="2921.5" y="-201.8" font-family="Times New Roman,serif" font-size="14.00">friendly_name: convolution</text>
<text text-anchor="middle" x="2921.5" y="-186.8" font-family="Times New Roman,serif" font-size="14.00">name: Convolution_106</text>
<text text-anchor="middle" x="2921.5" y="-171.8" font-family="Times New Roman,serif" font-size="14.00">type_name: Convolution</text>
<text text-anchor="middle" x="2921.5" y="-156.8" font-family="Times New Roman,serif" font-size="14.00">in0: {f32}[1,6,7,7]: MaxPool_99: out0 LowPrecision::Precisions(2113893385744: sharedValue: 2113888800304, attributes: [2113893386304, 2113893385744, 2113893389104], precisions: [u8]) </text>
<text text-anchor="middle" x="2921.5" y="-141.8" font-family="Times New Roman,serif" font-size="14.00">in1: {f32}[9,6,1,1]: FakeQuantize_105: out0 LowPrecision::Precisions(2113893386080: sharedValue: 2113888793392, attributes: [2113893386080], precisions: [i8]) </text>
<text text-anchor="middle" x="2921.5" y="-126.8" font-family="Times New Roman,serif" font-size="14.00">out0: {f32}[1,9,7,7]</text>
</g>
<!-- Result_108 -->
<g id="node2" class="node"><title>Result_108</title>
<polygon fill="none" stroke="crimson" stroke-width="1.5" points="3048.5,-68 2794.5,-68 2794.5,-0 3048.5,-0 3048.5,-68"/>
<text text-anchor="middle" x="2921.5" y="-52.8" font-family="Times New Roman,serif" font-size="14.00">friendly_name: Result_108</text>
<text text-anchor="middle" x="2921.5" y="-37.8" font-family="Times New Roman,serif" font-size="14.00">type_name: Result</text>
<text text-anchor="middle" x="2921.5" y="-22.8" font-family="Times New Roman,serif" font-size="14.00">in0: {f32}[1,9,7,7]: Convolution_106: out0</text>
<text text-anchor="middle" x="2921.5" y="-7.8" font-family="Times New Roman,serif" font-size="14.00">out0: {f32}[1,9,7,7]</text>
</g>
<!-- Convolution_106&#45;&gt;Result_108 -->
<g id="edge1" class="edge"><title>Convolution_106&#45;&gt;Result_108</title>
<path fill="none" stroke="black" d="M2921.5,-118.972C2921.5,-105.71 2921.5,-91.4001 2921.5,-78.4163"/>
<polygon fill="black" stroke="black" points="2925,-78.3331 2921.5,-68.3332 2918,-78.3332 2925,-78.3331"/>
<text text-anchor="middle" x="2942.5" y="-89.8" font-family="Times New Roman,serif" font-size="14.00"> 0 &#45;&gt; 0 </text>
</g>
<!-- MaxPool_99 -->
<g id="node3" class="node"><title>MaxPool_99</title>
<polygon fill="none" stroke="black" points="2769,-411 1724,-411 1724,-283 2769,-283 2769,-411"/>
<text text-anchor="middle" x="2246.5" y="-395.8" font-family="Times New Roman,serif" font-size="14.00">friendly_name: MaxPool</text>
<text text-anchor="middle" x="2246.5" y="-380.8" font-family="Times New Roman,serif" font-size="14.00">name: MaxPool_99</text>
<text text-anchor="middle" x="2246.5" y="-365.8" font-family="Times New Roman,serif" font-size="14.00">type_name: MaxPool</text>
<text text-anchor="middle" x="2246.5" y="-350.8" font-family="Times New Roman,serif" font-size="14.00">rt info: &#160;LowPrecision::IntervalsAlignment(2113893389216: sharedValue: 2113888797280, attributes: [2113893384736, 2113893389216, 2113893383952], low: &#45;0.426667, high: 0.423333)</text>
<text text-anchor="middle" x="2246.5" y="-335.8" font-family="Times New Roman,serif" font-size="14.00">LowPrecision::PrecisionPreserved(2113893385304: shared: 2113893702912,value: true)</text>
<text text-anchor="middle" x="2246.5" y="-320.8" font-family="Times New Roman,serif" font-size="14.00">LowPrecision::Precisions(2113893385744: sharedValue: 2113888800304, attributes: [2113893386304, 2113893385744, 2113893389104], precisions: [u8])</text>
<text text-anchor="middle" x="2246.5" y="-305.8" font-family="Times New Roman,serif" font-size="14.00">in0: {f32}[1,6,9,9]: Concat_98: out0</text>
<text text-anchor="middle" x="2246.5" y="-290.8" font-family="Times New Roman,serif" font-size="14.00">out0: {f32}[1,6,7,7]</text>
</g>
<!-- MaxPool_99&#45;&gt;Convolution_106 -->
<g id="edge2" class="edge"><title>MaxPool_99&#45;&gt;Convolution_106</title>
<path fill="none" stroke="black" d="M2486.86,-282.973C2566.06,-262.204 2653.07,-239.388 2728.3,-219.662"/>
<polygon fill="black" stroke="black" points="2729.57,-222.946 2738.36,-217.024 2727.8,-216.175 2729.57,-222.946"/>
<text text-anchor="middle" x="2685.5" y="-238.8" font-family="Times New Roman,serif" font-size="14.00"> 0 &#45;&gt; 0 </text>
</g>
<!-- FakeQuantize_105 -->
<g id="node4" class="node"><title>FakeQuantize_105</title>
<polygon fill="none" stroke="black" points="3739.5,-426 2939.5,-426 2939.5,-268 3739.5,-268 3739.5,-426"/>
<text text-anchor="middle" x="3339.5" y="-410.8" font-family="Times New Roman,serif" font-size="14.00">friendly_name: fakeQuantizeOnWeights</text>
<text text-anchor="middle" x="3339.5" y="-395.8" font-family="Times New Roman,serif" font-size="14.00">name: FakeQuantize_105</text>
<text text-anchor="middle" x="3339.5" y="-380.8" font-family="Times New Roman,serif" font-size="14.00">type_name: FakeQuantize</text>
<text text-anchor="middle" x="3339.5" y="-365.8" font-family="Times New Roman,serif" font-size="14.00">rt info: &#160;LowPrecision::IntervalsAlignment(2113893387200: sharedValue: 2113888796992, attributes: [2113893387200], low: &#45;1.27, high: 1.27)</text>
<text text-anchor="middle" x="3339.5" y="-350.8" font-family="Times New Roman,serif" font-size="14.00">in0: {f32}[9,6,1,1]: Constant_100: out0</text>
<text text-anchor="middle" x="3339.5" y="-335.8" font-family="Times New Roman,serif" font-size="14.00">in1: {f32}[9,1,1,1]: Constant_101: out0</text>
<text text-anchor="middle" x="3339.5" y="-320.8" font-family="Times New Roman,serif" font-size="14.00">in2: {f32}[9,1,1,1]: Constant_102: out0</text>
<text text-anchor="middle" x="3339.5" y="-305.8" font-family="Times New Roman,serif" font-size="14.00">in3: {f32}[9,1,1,1]: Constant_103: out0</text>
<text text-anchor="middle" x="3339.5" y="-290.8" font-family="Times New Roman,serif" font-size="14.00">in4: {f32}[9,1,1,1]: Constant_104: out0</text>
<text text-anchor="middle" x="3339.5" y="-275.8" font-family="Times New Roman,serif" font-size="14.00">out0: {f32}[9,6,1,1] LowPrecision::Precisions(2113893386080: sharedValue: 2113888793392, attributes: [2113893386080], precisions: [i8]) </text>
</g>
<!-- FakeQuantize_105&#45;&gt;Convolution_106 -->
<g id="edge3" class="edge"><title>FakeQuantize_105&#45;&gt;Convolution_106</title>
<path fill="none" stroke="black" d="M3155.25,-267.979C3117.68,-252.07 3079.02,-235.702 3044.24,-220.972"/>
<polygon fill="black" stroke="black" points="3045.58,-217.74 3035.01,-217.064 3042.85,-224.186 3045.58,-217.74"/>
<text text-anchor="middle" x="3126.5" y="-238.8" font-family="Times New Roman,serif" font-size="14.00"> 0 &#45;&gt; 1 </text>
</g>
<!-- CLONE_0 -->
<g id="node5" class="node"><title>CLONE_0</title>
<polygon fill="none" stroke="black" stroke-dasharray="5,2" points="2853.5,-620 2673.5,-620 2673.5,-492 2853.5,-492 2853.5,-620"/>
<text text-anchor="middle" x="2763.5" y="-604.8" font-family="Times New Roman,serif" font-size="14.00">friendly_name: Constant_100</text>
<text text-anchor="middle" x="2763.5" y="-589.8" font-family="Times New Roman,serif" font-size="14.00">type_name: Constant</text>
<text text-anchor="middle" x="2763.5" y="-574.8" font-family="Times New Roman,serif" font-size="14.00">{f32}[9,6,1,1]</text>
<text text-anchor="middle" x="2763.5" y="-559.8" font-family="Times New Roman,serif" font-size="14.00">value: [1, 1, 1, 1, 1, 1, 1, 1</text>
<text text-anchor="middle" x="2763.5" y="-544.8" font-family="Times New Roman,serif" font-size="14.00">, 1, 1, 1, 1, 1, 1, 1, 1</text>
<text text-anchor="middle" x="2763.5" y="-529.8" font-family="Times New Roman,serif" font-size="14.00">, 1, 1, 1, 1, 1, 1, 1, 1</text>
<text text-anchor="middle" x="2763.5" y="-514.8" font-family="Times New Roman,serif" font-size="14.00">, 1, 1, 1, 1, 1, 1, 1, 1...</text>
<text text-anchor="middle" x="2763.5" y="-499.8" font-family="Times New Roman,serif" font-size="14.00">(min: 1, max: 1)]</text>
</g>
<!-- CLONE_0&#45;&gt;FakeQuantize_105 -->
<g id="edge4" class="edge"><title>CLONE_0&#45;&gt;FakeQuantize_105</title>
<path fill="none" stroke="black" d="M2837.32,-491.826C2845.52,-486.348 2854,-481.274 2862.5,-477 2898.51,-458.9 2937.37,-443.099 2976.82,-429.362"/>
<polygon fill="black" stroke="black" points="2978,-432.658 2986.32,-426.098 2975.73,-426.038 2978,-432.658"/>
<text text-anchor="middle" x="2957.5" y="-447.8" font-family="Times New Roman,serif" font-size="14.00"> 0 &#45;&gt; 0 </text>
</g>
<!-- CLONE_1 -->
<g id="node6" class="node"><title>CLONE_1</title>
<polygon fill="none" stroke="black" stroke-dasharray="5,2" points="3209,-605 2872,-605 2872,-507 3209,-507 3209,-605"/>
<text text-anchor="middle" x="3040.5" y="-589.8" font-family="Times New Roman,serif" font-size="14.00">friendly_name: Constant_101</text>
<text text-anchor="middle" x="3040.5" y="-574.8" font-family="Times New Roman,serif" font-size="14.00">type_name: Constant</text>
<text text-anchor="middle" x="3040.5" y="-559.8" font-family="Times New Roman,serif" font-size="14.00">{f32}[9,1,1,1]</text>
<text text-anchor="middle" x="3040.5" y="-544.8" font-family="Times New Roman,serif" font-size="14.00">value: [&#45;1.27, &#45;1.27, &#45;1.27, &#45;1.27, &#45;1.27, &#45;1.27, &#45;1.27, &#45;1.27</text>
<text text-anchor="middle" x="3040.5" y="-529.8" font-family="Times New Roman,serif" font-size="14.00">, &#45;1.27</text>
<text text-anchor="middle" x="3040.5" y="-514.8" font-family="Times New Roman,serif" font-size="14.00">(min: &#45;1.27, max: &#45;1.27)]</text>
</g>
<!-- CLONE_1&#45;&gt;FakeQuantize_105 -->
<g id="edge5" class="edge"><title>CLONE_1&#45;&gt;FakeQuantize_105</title>
<path fill="none" stroke="black" d="M3109.85,-506.99C3142.09,-484.672 3181.38,-457.466 3218.29,-431.914"/>
<polygon fill="black" stroke="black" points="3220.39,-434.717 3226.62,-426.147 3216.41,-428.962 3220.39,-434.717"/>
<text text-anchor="middle" x="3220.5" y="-447.8" font-family="Times New Roman,serif" font-size="14.00"> 0 &#45;&gt; 1 </text>
</g>
<!-- CLONE_2 -->
<g id="node7" class="node"><title>CLONE_2</title>
<polygon fill="none" stroke="black" stroke-dasharray="5,2" points="3528,-605 3227,-605 3227,-507 3528,-507 3528,-605"/>
<text text-anchor="middle" x="3377.5" y="-589.8" font-family="Times New Roman,serif" font-size="14.00">friendly_name: Constant_102</text>
<text text-anchor="middle" x="3377.5" y="-574.8" font-family="Times New Roman,serif" font-size="14.00">type_name: Constant</text>
<text text-anchor="middle" x="3377.5" y="-559.8" font-family="Times New Roman,serif" font-size="14.00">{f32}[9,1,1,1]</text>
<text text-anchor="middle" x="3377.5" y="-544.8" font-family="Times New Roman,serif" font-size="14.00">value: [1.27, 1.27, 1.27, 1.27, 1.27, 1.27, 1.27, 1.27</text>
<text text-anchor="middle" x="3377.5" y="-529.8" font-family="Times New Roman,serif" font-size="14.00">, 1.27</text>
<text text-anchor="middle" x="3377.5" y="-514.8" font-family="Times New Roman,serif" font-size="14.00">(min: 1.27, max: 1.27)]</text>
</g>
<!-- CLONE_2&#45;&gt;FakeQuantize_105 -->
<g id="edge6" class="edge"><title>CLONE_2&#45;&gt;FakeQuantize_105</title>
<path fill="none" stroke="black" d="M3368.69,-506.99C3364.81,-485.891 3360.14,-460.423 3355.68,-436.114"/>
<polygon fill="black" stroke="black" points="3359.09,-435.351 3353.85,-426.147 3352.21,-436.615 3359.09,-435.351"/>
<text text-anchor="middle" x="3381.5" y="-447.8" font-family="Times New Roman,serif" font-size="14.00"> 0 &#45;&gt; 2 </text>
</g>
<!-- CLONE_3 -->
<g id="node8" class="node"><title>CLONE_3</title>
<polygon fill="none" stroke="black" stroke-dasharray="5,2" points="3883,-605 3546,-605 3546,-507 3883,-507 3883,-605"/>
<text text-anchor="middle" x="3714.5" y="-589.8" font-family="Times New Roman,serif" font-size="14.00">friendly_name: Constant_103</text>
<text text-anchor="middle" x="3714.5" y="-574.8" font-family="Times New Roman,serif" font-size="14.00">type_name: Constant</text>
<text text-anchor="middle" x="3714.5" y="-559.8" font-family="Times New Roman,serif" font-size="14.00">{f32}[9,1,1,1]</text>
<text text-anchor="middle" x="3714.5" y="-544.8" font-family="Times New Roman,serif" font-size="14.00">value: [&#45;1.27, &#45;1.27, &#45;1.27, &#45;1.27, &#45;1.27, &#45;1.27, &#45;1.27, &#45;1.27</text>
<text text-anchor="middle" x="3714.5" y="-529.8" font-family="Times New Roman,serif" font-size="14.00">, &#45;1.27</text>
<text text-anchor="middle" x="3714.5" y="-514.8" font-family="Times New Roman,serif" font-size="14.00">(min: &#45;1.27, max: &#45;1.27)]</text>
</g>
<!-- CLONE_3&#45;&gt;FakeQuantize_105 -->
<g id="edge7" class="edge"><title>CLONE_3&#45;&gt;FakeQuantize_105</title>
<path fill="none" stroke="black" d="M3627.52,-506.99C3586.67,-484.437 3536.77,-456.894 3490.06,-431.109"/>
<polygon fill="black" stroke="black" points="3491.52,-427.916 3481.07,-426.147 3488.13,-434.044 3491.52,-427.916"/>
<text text-anchor="middle" x="3559.5" y="-447.8" font-family="Times New Roman,serif" font-size="14.00"> 0 &#45;&gt; 3 </text>
</g>
<!-- CLONE_4 -->
<g id="node9" class="node"><title>CLONE_4</title>
<polygon fill="none" stroke="black" stroke-dasharray="5,2" points="4202,-605 3901,-605 3901,-507 4202,-507 4202,-605"/>
<text text-anchor="middle" x="4051.5" y="-589.8" font-family="Times New Roman,serif" font-size="14.00">friendly_name: Constant_104</text>
<text text-anchor="middle" x="4051.5" y="-574.8" font-family="Times New Roman,serif" font-size="14.00">type_name: Constant</text>
<text text-anchor="middle" x="4051.5" y="-559.8" font-family="Times New Roman,serif" font-size="14.00">{f32}[9,1,1,1]</text>
<text text-anchor="middle" x="4051.5" y="-544.8" font-family="Times New Roman,serif" font-size="14.00">value: [1.27, 1.27, 1.27, 1.27, 1.27, 1.27, 1.27, 1.27</text>
<text text-anchor="middle" x="4051.5" y="-529.8" font-family="Times New Roman,serif" font-size="14.00">, 1.27</text>
<text text-anchor="middle" x="4051.5" y="-514.8" font-family="Times New Roman,serif" font-size="14.00">(min: 1.27, max: 1.27)]</text>
</g>
<!-- CLONE_4&#45;&gt;FakeQuantize_105 -->
<g id="edge8" class="edge"><title>CLONE_4&#45;&gt;FakeQuantize_105</title>
<path fill="none" stroke="black" d="M3961.64,-506.834C3939.15,-496.004 3914.79,-485.282 3891.5,-477 3840.98,-459.04 3786.97,-442.881 3733.23,-428.572"/>
<polygon fill="black" stroke="black" points="3734.12,-425.186 3723.55,-426.014 3732.33,-431.954 3734.12,-425.186"/>
<text text-anchor="middle" x="3854.5" y="-447.8" font-family="Times New Roman,serif" font-size="14.00"> 0 &#45;&gt; 4 </text>
</g>
<!-- Concat_98 -->
<g id="node10" class="node"><title>Concat_98</title>
<polygon fill="none" stroke="black" points="2655,-635 1610,-635 1610,-477 2655,-477 2655,-635"/>
<text text-anchor="middle" x="2132.5" y="-619.8" font-family="Times New Roman,serif" font-size="14.00">friendly_name: concat2</text>
<text text-anchor="middle" x="2132.5" y="-604.8" font-family="Times New Roman,serif" font-size="14.00">name: Concat_98</text>
<text text-anchor="middle" x="2132.5" y="-589.8" font-family="Times New Roman,serif" font-size="14.00">type_name: Concat</text>
<text text-anchor="middle" x="2132.5" y="-574.8" font-family="Times New Roman,serif" font-size="14.00">rt info: &#160;LowPrecision::IntervalsAlignment(2113893389216: sharedValue: 2113888797280, attributes: [2113893384736, 2113893389216, 2113893383952], low: &#45;0.426667, high: 0.423333)</text>
<text text-anchor="middle" x="2132.5" y="-559.8" font-family="Times New Roman,serif" font-size="14.00">LowPrecision::PrecisionPreserved(2113893388664: shared: 2113893707776,value: true)</text>
<text text-anchor="middle" x="2132.5" y="-544.8" font-family="Times New Roman,serif" font-size="14.00">LowPrecision::Precisions(2113893385744: sharedValue: 2113888800304, attributes: [2113893386304, 2113893385744, 2113893389104], precisions: [u8])</text>
<text text-anchor="middle" x="2132.5" y="-529.8" font-family="Times New Roman,serif" font-size="14.00">Variant::std::string</text>
<text text-anchor="middle" x="2132.5" y="-514.8" font-family="Times New Roman,serif" font-size="14.00">in0: {f32}[1,3,9,9]: FakeQuantize_90: out0</text>
<text text-anchor="middle" x="2132.5" y="-499.8" font-family="Times New Roman,serif" font-size="14.00">in1: {f32}[1,3,9,9]: FakeQuantize_96: out0</text>
<text text-anchor="middle" x="2132.5" y="-484.8" font-family="Times New Roman,serif" font-size="14.00">out0: {f32}[1,6,9,9]</text>
</g>
<!-- Concat_98&#45;&gt;MaxPool_99 -->
<g id="edge9" class="edge"><title>Concat_98&#45;&gt;MaxPool_99</title>
<path fill="none" stroke="black" d="M2175.6,-476.742C2185.84,-458.147 2196.72,-438.393 2206.8,-420.088"/>
<polygon fill="black" stroke="black" points="2209.92,-421.677 2211.68,-411.229 2203.79,-418.3 2209.92,-421.677"/>
<text text-anchor="middle" x="2214.5" y="-447.8" font-family="Times New Roman,serif" font-size="14.00"> 0 &#45;&gt; 0 </text>
</g>
<!-- FakeQuantize_90 -->
<g id="node11" class="node"><title>FakeQuantize_90</title>
<polygon fill="none" stroke="black" points="2108,-844 1063,-844 1063,-686 2108,-686 2108,-844"/>
<text text-anchor="middle" x="1585.5" y="-828.8" font-family="Times New Roman,serif" font-size="14.00">friendly_name: fakeQuantize2</text>
<text text-anchor="middle" x="1585.5" y="-813.8" font-family="Times New Roman,serif" font-size="14.00">name: FakeQuantize_90</text>
<text text-anchor="middle" x="1585.5" y="-798.8" font-family="Times New Roman,serif" font-size="14.00">type_name: FakeQuantize</text>
<text text-anchor="middle" x="1585.5" y="-783.8" font-family="Times New Roman,serif" font-size="14.00">rt info: &#160;LowPrecision::IntervalsAlignment(2113893389216: sharedValue: 2113888797280, attributes: [2113893384736, 2113893389216, 2113893383952], low: &#45;0.426667, high: 0.423333)</text>
<text text-anchor="middle" x="1585.5" y="-768.8" font-family="Times New Roman,serif" font-size="14.00">in0: {f32}[1,3,9,9]: Parameter_85: out0</text>
<text text-anchor="middle" x="1585.5" y="-753.8" font-family="Times New Roman,serif" font-size="14.00">in1: {f32}[]: Constant_86: out0</text>
<text text-anchor="middle" x="1585.5" y="-738.8" font-family="Times New Roman,serif" font-size="14.00">in2: {f32}[]: Constant_87: out0</text>
<text text-anchor="middle" x="1585.5" y="-723.8" font-family="Times New Roman,serif" font-size="14.00">in3: {f32}[]: Constant_88: out0</text>
<text text-anchor="middle" x="1585.5" y="-708.8" font-family="Times New Roman,serif" font-size="14.00">in4: {f32}[]: Constant_89: out0</text>
<text text-anchor="middle" x="1585.5" y="-693.8" font-family="Times New Roman,serif" font-size="14.00">out0: {f32}[1,3,9,9] LowPrecision::Precisions(2113893385744: sharedValue: 2113888800304, attributes: [2113893386304, 2113893385744, 2113893389104], precisions: [u8]) </text>
</g>
<!-- FakeQuantize_90&#45;&gt;Concat_98 -->
<g id="edge10" class="edge"><title>FakeQuantize_90&#45;&gt;Concat_98</title>
<path fill="none" stroke="black" d="M1791.91,-685.89C1832.63,-670.481 1875.46,-654.271 1916.49,-638.746"/>
<polygon fill="black" stroke="black" points="1917.92,-641.944 1926.04,-635.131 1915.45,-635.397 1917.92,-641.944"/>
<text text-anchor="middle" x="1896.5" y="-656.8" font-family="Times New Roman,serif" font-size="14.00"> 0 &#45;&gt; 0 </text>
</g>
<!-- Concat_97 -->
<g id="node23" class="node"><title>Concat_97</title>
<polygon fill="none" stroke="black" points="1334,-635 289,-635 289,-477 1334,-477 1334,-635"/>
<text text-anchor="middle" x="811.5" y="-619.8" font-family="Times New Roman,serif" font-size="14.00">friendly_name: concat1</text>
<text text-anchor="middle" x="811.5" y="-604.8" font-family="Times New Roman,serif" font-size="14.00">name: Concat_97</text>
<text text-anchor="middle" x="811.5" y="-589.8" font-family="Times New Roman,serif" font-size="14.00">type_name: Concat</text>
<text text-anchor="middle" x="811.5" y="-574.8" font-family="Times New Roman,serif" font-size="14.00">rt info: &#160;LowPrecision::IntervalsAlignment(2113893384736: sharedValue: 2113888797280, attributes: [2113893384736, 2113893389216, 2113893383952], low: &#45;0.426667, high: 0.423333)</text>
<text text-anchor="middle" x="811.5" y="-559.8" font-family="Times New Roman,serif" font-size="14.00">LowPrecision::PrecisionPreserved(2113893384184: shared: 2113893706112,value: true)</text>
<text text-anchor="middle" x="811.5" y="-544.8" font-family="Times New Roman,serif" font-size="14.00">LowPrecision::Precisions(2113893386304: sharedValue: 2113888800304, attributes: [2113893386304, 2113893385744, 2113893389104], precisions: [u8])</text>
<text text-anchor="middle" x="811.5" y="-529.8" font-family="Times New Roman,serif" font-size="14.00">Variant::std::string</text>
<text text-anchor="middle" x="811.5" y="-514.8" font-family="Times New Roman,serif" font-size="14.00">in0: {f32}[1,3,9,9]: FakeQuantize_84: out0</text>
<text text-anchor="middle" x="811.5" y="-499.8" font-family="Times New Roman,serif" font-size="14.00">in1: {f32}[1,3,9,9]: FakeQuantize_90: out0</text>
<text text-anchor="middle" x="811.5" y="-484.8" font-family="Times New Roman,serif" font-size="14.00">out0: {f32}[1,6,9,9]</text>
</g>
<!-- FakeQuantize_90&#45;&gt;Concat_97 -->
<g id="edge24" class="edge"><title>FakeQuantize_90&#45;&gt;Concat_97</title>
<path fill="none" stroke="black" d="M1293.71,-685.963C1234.66,-670.172 1172.46,-653.537 1113.09,-637.657"/>
<polygon fill="black" stroke="black" points="1113.76,-634.214 1103.2,-635.012 1111.95,-640.977 1113.76,-634.214"/>
<text text-anchor="middle" x="1243.5" y="-656.8" font-family="Times New Roman,serif" font-size="14.00"> 0 &#45;&gt; 1 </text>
</g>
<!-- FakeQuantize_96 -->
<g id="node12" class="node"><title>FakeQuantize_96</title>
<polygon fill="none" stroke="black" points="3171,-844 2126,-844 2126,-686 3171,-686 3171,-844"/>
<text text-anchor="middle" x="2648.5" y="-828.8" font-family="Times New Roman,serif" font-size="14.00">friendly_name: fakeQuantize3</text>
<text text-anchor="middle" x="2648.5" y="-813.8" font-family="Times New Roman,serif" font-size="14.00">name: FakeQuantize_96</text>
<text text-anchor="middle" x="2648.5" y="-798.8" font-family="Times New Roman,serif" font-size="14.00">type_name: FakeQuantize</text>
<text text-anchor="middle" x="2648.5" y="-783.8" font-family="Times New Roman,serif" font-size="14.00">rt info: &#160;LowPrecision::IntervalsAlignment(2113893383952: sharedValue: 2113888797280, attributes: [2113893384736, 2113893389216, 2113893383952], low: &#45;0.426667, high: 0.423333)</text>
<text text-anchor="middle" x="2648.5" y="-768.8" font-family="Times New Roman,serif" font-size="14.00">in0: {f32}[1,3,9,9]: Parameter_91: out0</text>
<text text-anchor="middle" x="2648.5" y="-753.8" font-family="Times New Roman,serif" font-size="14.00">in1: {f32}[]: Constant_92: out0</text>
<text text-anchor="middle" x="2648.5" y="-738.8" font-family="Times New Roman,serif" font-size="14.00">in2: {f32}[]: Constant_93: out0</text>
<text text-anchor="middle" x="2648.5" y="-723.8" font-family="Times New Roman,serif" font-size="14.00">in3: {f32}[]: Constant_94: out0</text>
<text text-anchor="middle" x="2648.5" y="-708.8" font-family="Times New Roman,serif" font-size="14.00">in4: {f32}[]: Constant_95: out0</text>
<text text-anchor="middle" x="2648.5" y="-693.8" font-family="Times New Roman,serif" font-size="14.00">out0: {f32}[1,3,9,9] LowPrecision::Precisions(2113893389104: sharedValue: 2113888800304, attributes: [2113893386304, 2113893385744, 2113893389104], precisions: [u8]) </text>
</g>
<!-- FakeQuantize_96&#45;&gt;Concat_98 -->
<g id="edge11" class="edge"><title>FakeQuantize_96&#45;&gt;Concat_98</title>
<path fill="none" stroke="black" d="M2453.79,-685.89C2415.62,-670.578 2375.48,-654.476 2337.01,-639.04"/>
<polygon fill="black" stroke="black" points="2337.84,-635.606 2327.26,-635.131 2335.24,-642.102 2337.84,-635.606"/>
<text text-anchor="middle" x="2427.5" y="-656.8" font-family="Times New Roman,serif" font-size="14.00"> 0 &#45;&gt; 1 </text>
</g>
<!-- CLONE_5 -->
<g id="node13" class="node"><title>CLONE_5</title>
<polygon fill="none" stroke="blue" stroke-dasharray="5,2" points="2352.5,-970.5 2212.5,-970.5 2212.5,-902.5 2352.5,-902.5 2352.5,-970.5"/>
<text text-anchor="middle" x="2282.5" y="-955.3" font-family="Times New Roman,serif" font-size="14.00">friendly_name: input3</text>
<text text-anchor="middle" x="2282.5" y="-940.3" font-family="Times New Roman,serif" font-size="14.00">name: Parameter_91</text>
<text text-anchor="middle" x="2282.5" y="-925.3" font-family="Times New Roman,serif" font-size="14.00">type_name: Parameter</text>
<text text-anchor="middle" x="2282.5" y="-910.3" font-family="Times New Roman,serif" font-size="14.00">{f32}[1,3,9,9]</text>
</g>
<!-- CLONE_5&#45;&gt;FakeQuantize_96 -->
<g id="edge12" class="edge"><title>CLONE_5&#45;&gt;FakeQuantize_96</title>
<path fill="none" stroke="black" d="M2346.6,-902.289C2351.63,-899.792 2356.64,-897.337 2361.5,-895 2393.68,-879.533 2428.13,-863.555 2461.6,-848.336"/>
<polygon fill="black" stroke="black" points="2463.35,-851.385 2471.01,-844.065 2460.46,-845.01 2463.35,-851.385"/>
<text text-anchor="middle" x="2445.5" y="-865.8" font-family="Times New Roman,serif" font-size="14.00"> 0 &#45;&gt; 0 </text>
</g>
<!-- CLONE_6 -->
<g id="node14" class="node"><title>CLONE_6</title>
<polygon fill="none" stroke="black" stroke-dasharray="5,2" points="2544,-978 2371,-978 2371,-895 2544,-895 2544,-978"/>
<text text-anchor="middle" x="2457.5" y="-962.8" font-family="Times New Roman,serif" font-size="14.00">friendly_name: Constant_92</text>
<text text-anchor="middle" x="2457.5" y="-947.8" font-family="Times New Roman,serif" font-size="14.00">type_name: Constant</text>
<text text-anchor="middle" x="2457.5" y="-932.8" font-family="Times New Roman,serif" font-size="14.00">{f32}[]</text>
<text text-anchor="middle" x="2457.5" y="-917.8" font-family="Times New Roman,serif" font-size="14.00">value: [&#45;1.28</text>
<text text-anchor="middle" x="2457.5" y="-902.8" font-family="Times New Roman,serif" font-size="14.00">(min: &#45;1.28, max: &#45;1.28)]</text>
</g>
<!-- CLONE_6&#45;&gt;FakeQuantize_96 -->
<g id="edge13" class="edge"><title>CLONE_6&#45;&gt;FakeQuantize_96</title>
<path fill="none" stroke="black" d="M2503.25,-894.901C2518.18,-881.651 2535.36,-866.404 2552.56,-851.141"/>
<polygon fill="black" stroke="black" points="2555.3,-853.389 2560.46,-844.134 2550.65,-848.153 2555.3,-853.389"/>
<text text-anchor="middle" x="2557.5" y="-865.8" font-family="Times New Roman,serif" font-size="14.00"> 0 &#45;&gt; 1 </text>
</g>
<!-- CLONE_7 -->
<g id="node15" class="node"><title>CLONE_7</title>
<polygon fill="none" stroke="black" stroke-dasharray="5,2" points="2735,-978 2562,-978 2562,-895 2735,-895 2735,-978"/>
<text text-anchor="middle" x="2648.5" y="-962.8" font-family="Times New Roman,serif" font-size="14.00">friendly_name: Constant_93</text>
<text text-anchor="middle" x="2648.5" y="-947.8" font-family="Times New Roman,serif" font-size="14.00">type_name: Constant</text>
<text text-anchor="middle" x="2648.5" y="-932.8" font-family="Times New Roman,serif" font-size="14.00">{f32}[]</text>
<text text-anchor="middle" x="2648.5" y="-917.8" font-family="Times New Roman,serif" font-size="14.00">value: [1.27</text>
<text text-anchor="middle" x="2648.5" y="-902.8" font-family="Times New Roman,serif" font-size="14.00">(min: 1.27, max: 1.27)]</text>
</g>
<!-- CLONE_7&#45;&gt;FakeQuantize_96 -->
<g id="edge14" class="edge"><title>CLONE_7&#45;&gt;FakeQuantize_96</title>
<path fill="none" stroke="black" d="M2648.5,-894.901C2648.5,-882.606 2648.5,-868.592 2648.5,-854.44"/>
<polygon fill="black" stroke="black" points="2652,-854.134 2648.5,-844.134 2645,-854.134 2652,-854.134"/>
<text text-anchor="middle" x="2669.5" y="-865.8" font-family="Times New Roman,serif" font-size="14.00"> 0 &#45;&gt; 2 </text>
</g>
<!-- CLONE_8 -->
<g id="node16" class="node"><title>CLONE_8</title>
<polygon fill="none" stroke="black" stroke-dasharray="5,2" points="2926,-978 2753,-978 2753,-895 2926,-895 2926,-978"/>
<text text-anchor="middle" x="2839.5" y="-962.8" font-family="Times New Roman,serif" font-size="14.00">friendly_name: Constant_94</text>
<text text-anchor="middle" x="2839.5" y="-947.8" font-family="Times New Roman,serif" font-size="14.00">type_name: Constant</text>
<text text-anchor="middle" x="2839.5" y="-932.8" font-family="Times New Roman,serif" font-size="14.00">{f32}[]</text>
<text text-anchor="middle" x="2839.5" y="-917.8" font-family="Times New Roman,serif" font-size="14.00">value: [&#45;1.28</text>
<text text-anchor="middle" x="2839.5" y="-902.8" font-family="Times New Roman,serif" font-size="14.00">(min: &#45;1.28, max: &#45;1.28)]</text>
</g>
<!-- CLONE_8&#45;&gt;FakeQuantize_96 -->
<g id="edge15" class="edge"><title>CLONE_8&#45;&gt;FakeQuantize_96</title>
<path fill="none" stroke="black" d="M2793.75,-894.901C2778.82,-881.651 2761.64,-866.404 2744.44,-851.141"/>
<polygon fill="black" stroke="black" points="2746.35,-848.153 2736.54,-844.134 2741.7,-853.389 2746.35,-848.153"/>
<text text-anchor="middle" x="2793.5" y="-865.8" font-family="Times New Roman,serif" font-size="14.00"> 0 &#45;&gt; 3 </text>
</g>
<!-- CLONE_9 -->
<g id="node17" class="node"><title>CLONE_9</title>
<polygon fill="none" stroke="black" stroke-dasharray="5,2" points="3117,-978 2944,-978 2944,-895 3117,-895 3117,-978"/>
<text text-anchor="middle" x="3030.5" y="-962.8" font-family="Times New Roman,serif" font-size="14.00">friendly_name: Constant_95</text>
<text text-anchor="middle" x="3030.5" y="-947.8" font-family="Times New Roman,serif" font-size="14.00">type_name: Constant</text>
<text text-anchor="middle" x="3030.5" y="-932.8" font-family="Times New Roman,serif" font-size="14.00">{f32}[]</text>
<text text-anchor="middle" x="3030.5" y="-917.8" font-family="Times New Roman,serif" font-size="14.00">value: [1.27</text>
<text text-anchor="middle" x="3030.5" y="-902.8" font-family="Times New Roman,serif" font-size="14.00">(min: 1.27, max: 1.27)]</text>
</g>
<!-- CLONE_9&#45;&gt;FakeQuantize_96 -->
<g id="edge16" class="edge"><title>CLONE_9&#45;&gt;FakeQuantize_96</title>
<path fill="none" stroke="black" d="M2943.82,-897.038C2911.01,-882.479 2872.27,-865.292 2833.84,-848.24"/>
<polygon fill="black" stroke="black" points="2835.17,-845 2824.61,-844.143 2832.33,-851.398 2835.17,-845"/>
<text text-anchor="middle" x="2917.5" y="-865.8" font-family="Times New Roman,serif" font-size="14.00"> 0 &#45;&gt; 4 </text>
</g>
<!-- CLONE_10 -->
<g id="node18" class="node"><title>CLONE_10</title>
<polygon fill="none" stroke="blue" stroke-dasharray="5,2" points="1289.5,-970.5 1149.5,-970.5 1149.5,-902.5 1289.5,-902.5 1289.5,-970.5"/>
<text text-anchor="middle" x="1219.5" y="-955.3" font-family="Times New Roman,serif" font-size="14.00">friendly_name: input2</text>
<text text-anchor="middle" x="1219.5" y="-940.3" font-family="Times New Roman,serif" font-size="14.00">name: Parameter_85</text>
<text text-anchor="middle" x="1219.5" y="-925.3" font-family="Times New Roman,serif" font-size="14.00">type_name: Parameter</text>
<text text-anchor="middle" x="1219.5" y="-910.3" font-family="Times New Roman,serif" font-size="14.00">{f32}[1,3,9,9]</text>
</g>
<!-- CLONE_10&#45;&gt;FakeQuantize_90 -->
<g id="edge17" class="edge"><title>CLONE_10&#45;&gt;FakeQuantize_90</title>
<path fill="none" stroke="black" d="M1283.6,-902.289C1288.63,-899.792 1293.64,-897.337 1298.5,-895 1330.68,-879.533 1365.13,-863.555 1398.6,-848.336"/>
<polygon fill="black" stroke="black" points="1400.35,-851.385 1408.01,-844.065 1397.46,-845.01 1400.35,-851.385"/>
<text text-anchor="middle" x="1382.5" y="-865.8" font-family="Times New Roman,serif" font-size="14.00"> 0 &#45;&gt; 0 </text>
</g>
<!-- CLONE_11 -->
<g id="node19" class="node"><title>CLONE_11</title>
<polygon fill="none" stroke="black" stroke-dasharray="5,2" points="1481,-978 1308,-978 1308,-895 1481,-895 1481,-978"/>
<text text-anchor="middle" x="1394.5" y="-962.8" font-family="Times New Roman,serif" font-size="14.00">friendly_name: Constant_86</text>
<text text-anchor="middle" x="1394.5" y="-947.8" font-family="Times New Roman,serif" font-size="14.00">type_name: Constant</text>
<text text-anchor="middle" x="1394.5" y="-932.8" font-family="Times New Roman,serif" font-size="14.00">{f32}[]</text>
<text text-anchor="middle" x="1394.5" y="-917.8" font-family="Times New Roman,serif" font-size="14.00">value: [&#45;0.64</text>
<text text-anchor="middle" x="1394.5" y="-902.8" font-family="Times New Roman,serif" font-size="14.00">(min: &#45;0.64, max: &#45;0.64)]</text>
</g>
<!-- CLONE_11&#45;&gt;FakeQuantize_90 -->
<g id="edge18" class="edge"><title>CLONE_11&#45;&gt;FakeQuantize_90</title>
<path fill="none" stroke="black" d="M1440.25,-894.901C1455.18,-881.651 1472.36,-866.404 1489.56,-851.141"/>
<polygon fill="black" stroke="black" points="1492.3,-853.389 1497.46,-844.134 1487.65,-848.153 1492.3,-853.389"/>
<text text-anchor="middle" x="1494.5" y="-865.8" font-family="Times New Roman,serif" font-size="14.00"> 0 &#45;&gt; 1 </text>
</g>
<!-- CLONE_12 -->
<g id="node20" class="node"><title>CLONE_12</title>
<polygon fill="none" stroke="black" stroke-dasharray="5,2" points="1672,-978 1499,-978 1499,-895 1672,-895 1672,-978"/>
<text text-anchor="middle" x="1585.5" y="-962.8" font-family="Times New Roman,serif" font-size="14.00">friendly_name: Constant_87</text>
<text text-anchor="middle" x="1585.5" y="-947.8" font-family="Times New Roman,serif" font-size="14.00">type_name: Constant</text>
<text text-anchor="middle" x="1585.5" y="-932.8" font-family="Times New Roman,serif" font-size="14.00">{f32}[]</text>
<text text-anchor="middle" x="1585.5" y="-917.8" font-family="Times New Roman,serif" font-size="14.00">value: [0.635</text>
<text text-anchor="middle" x="1585.5" y="-902.8" font-family="Times New Roman,serif" font-size="14.00">(min: 0.635, max: 0.635)]</text>
</g>
<!-- CLONE_12&#45;&gt;FakeQuantize_90 -->
<g id="edge19" class="edge"><title>CLONE_12&#45;&gt;FakeQuantize_90</title>
<path fill="none" stroke="black" d="M1585.5,-894.901C1585.5,-882.606 1585.5,-868.592 1585.5,-854.44"/>
<polygon fill="black" stroke="black" points="1589,-854.134 1585.5,-844.134 1582,-854.134 1589,-854.134"/>
<text text-anchor="middle" x="1606.5" y="-865.8" font-family="Times New Roman,serif" font-size="14.00"> 0 &#45;&gt; 2 </text>
</g>
<!-- CLONE_13 -->
<g id="node21" class="node"><title>CLONE_13</title>
<polygon fill="none" stroke="black" stroke-dasharray="5,2" points="1863,-978 1690,-978 1690,-895 1863,-895 1863,-978"/>
<text text-anchor="middle" x="1776.5" y="-962.8" font-family="Times New Roman,serif" font-size="14.00">friendly_name: Constant_88</text>
<text text-anchor="middle" x="1776.5" y="-947.8" font-family="Times New Roman,serif" font-size="14.00">type_name: Constant</text>
<text text-anchor="middle" x="1776.5" y="-932.8" font-family="Times New Roman,serif" font-size="14.00">{f32}[]</text>
<text text-anchor="middle" x="1776.5" y="-917.8" font-family="Times New Roman,serif" font-size="14.00">value: [&#45;0.64</text>
<text text-anchor="middle" x="1776.5" y="-902.8" font-family="Times New Roman,serif" font-size="14.00">(min: &#45;0.64, max: &#45;0.64)]</text>
</g>
<!-- CLONE_13&#45;&gt;FakeQuantize_90 -->
<g id="edge20" class="edge"><title>CLONE_13&#45;&gt;FakeQuantize_90</title>
<path fill="none" stroke="black" d="M1730.75,-894.901C1715.82,-881.651 1698.64,-866.404 1681.44,-851.141"/>
<polygon fill="black" stroke="black" points="1683.35,-848.153 1673.54,-844.134 1678.7,-853.389 1683.35,-848.153"/>
<text text-anchor="middle" x="1730.5" y="-865.8" font-family="Times New Roman,serif" font-size="14.00"> 0 &#45;&gt; 3 </text>
</g>
<!-- CLONE_14 -->
<g id="node22" class="node"><title>CLONE_14</title>
<polygon fill="none" stroke="black" stroke-dasharray="5,2" points="2054,-978 1881,-978 1881,-895 2054,-895 2054,-978"/>
<text text-anchor="middle" x="1967.5" y="-962.8" font-family="Times New Roman,serif" font-size="14.00">friendly_name: Constant_89</text>
<text text-anchor="middle" x="1967.5" y="-947.8" font-family="Times New Roman,serif" font-size="14.00">type_name: Constant</text>
<text text-anchor="middle" x="1967.5" y="-932.8" font-family="Times New Roman,serif" font-size="14.00">{f32}[]</text>
<text text-anchor="middle" x="1967.5" y="-917.8" font-family="Times New Roman,serif" font-size="14.00">value: [0.635</text>
<text text-anchor="middle" x="1967.5" y="-902.8" font-family="Times New Roman,serif" font-size="14.00">(min: 0.635, max: 0.635)]</text>
</g>
<!-- CLONE_14&#45;&gt;FakeQuantize_90 -->
<g id="edge21" class="edge"><title>CLONE_14&#45;&gt;FakeQuantize_90</title>
<path fill="none" stroke="black" d="M1880.82,-897.038C1848.01,-882.479 1809.27,-865.292 1770.84,-848.24"/>
<polygon fill="black" stroke="black" points="1772.17,-845 1761.61,-844.143 1769.33,-851.398 1772.17,-845"/>
<text text-anchor="middle" x="1854.5" y="-865.8" font-family="Times New Roman,serif" font-size="14.00"> 0 &#45;&gt; 4 </text>
</g>
<!-- Result_107 -->
<g id="node24" class="node"><title>Result_107</title>
<polygon fill="none" stroke="crimson" stroke-width="1.5" points="1351,-381 272,-381 272,-313 1351,-313 1351,-381"/>
<text text-anchor="middle" x="811.5" y="-365.8" font-family="Times New Roman,serif" font-size="14.00">friendly_name: Result_107</text>
<text text-anchor="middle" x="811.5" y="-350.8" font-family="Times New Roman,serif" font-size="14.00">type_name: Result</text>
<text text-anchor="middle" x="811.5" y="-335.8" font-family="Times New Roman,serif" font-size="14.00">in0: {f32}[1,6,9,9]: Concat_97: out0 LowPrecision::Precisions(2113893386304: sharedValue: 2113888800304, attributes: [2113893386304, 2113893385744, 2113893389104], precisions: [u8]) </text>
<text text-anchor="middle" x="811.5" y="-320.8" font-family="Times New Roman,serif" font-size="14.00">out0: {f32}[1,6,9,9]</text>
</g>
<!-- Concat_97&#45;&gt;Result_107 -->
<g id="edge22" class="edge"><title>Concat_97&#45;&gt;Result_107</title>
<path fill="none" stroke="black" d="M811.5,-476.742C811.5,-447.791 811.5,-416.033 811.5,-391.303"/>
<polygon fill="black" stroke="black" points="815,-391.163 811.5,-381.163 808,-391.163 815,-391.163"/>
<text text-anchor="middle" x="832.5" y="-447.8" font-family="Times New Roman,serif" font-size="14.00"> 0 &#45;&gt; 0 </text>
</g>
<!-- FakeQuantize_84 -->
<g id="node25" class="node"><title>FakeQuantize_84</title>
<polygon fill="none" stroke="black" points="1045,-844 0,-844 0,-686 1045,-686 1045,-844"/>
<text text-anchor="middle" x="522.5" y="-828.8" font-family="Times New Roman,serif" font-size="14.00">friendly_name: fakeQuantize1</text>
<text text-anchor="middle" x="522.5" y="-813.8" font-family="Times New Roman,serif" font-size="14.00">name: FakeQuantize_84</text>
<text text-anchor="middle" x="522.5" y="-798.8" font-family="Times New Roman,serif" font-size="14.00">type_name: FakeQuantize</text>
<text text-anchor="middle" x="522.5" y="-783.8" font-family="Times New Roman,serif" font-size="14.00">rt info: &#160;LowPrecision::IntervalsAlignment(2113893384736: sharedValue: 2113888797280, attributes: [2113893384736, 2113893389216, 2113893383952], low: &#45;0.426667, high: 0.423333)</text>
<text text-anchor="middle" x="522.5" y="-768.8" font-family="Times New Roman,serif" font-size="14.00">in0: {f32}[1,3,9,9]: Parameter_79: out0</text>
<text text-anchor="middle" x="522.5" y="-753.8" font-family="Times New Roman,serif" font-size="14.00">in1: {f32}[]: Constant_80: out0</text>
<text text-anchor="middle" x="522.5" y="-738.8" font-family="Times New Roman,serif" font-size="14.00">in2: {f32}[]: Constant_81: out0</text>
<text text-anchor="middle" x="522.5" y="-723.8" font-family="Times New Roman,serif" font-size="14.00">in3: {f32}[]: Constant_82: out0</text>
<text text-anchor="middle" x="522.5" y="-708.8" font-family="Times New Roman,serif" font-size="14.00">in4: {f32}[]: Constant_83: out0</text>
<text text-anchor="middle" x="522.5" y="-693.8" font-family="Times New Roman,serif" font-size="14.00">out0: {f32}[1,3,9,9] LowPrecision::Precisions(2113893386304: sharedValue: 2113888800304, attributes: [2113893386304, 2113893385744, 2113893389104], precisions: [u8]) </text>
</g>
<!-- FakeQuantize_84&#45;&gt;Concat_97 -->
<g id="edge23" class="edge"><title>FakeQuantize_84&#45;&gt;Concat_97</title>
<path fill="none" stroke="black" d="M631.759,-685.742C652.22,-671.087 673.685,-655.712 694.373,-640.894"/>
<polygon fill="black" stroke="black" points="696.475,-643.694 702.566,-635.025 692.399,-638.003 696.475,-643.694"/>
<text text-anchor="middle" x="697.5" y="-656.8" font-family="Times New Roman,serif" font-size="14.00"> 0 &#45;&gt; 0 </text>
</g>
<!-- CLONE_15 -->
<g id="node26" class="node"><title>CLONE_15</title>
<polygon fill="none" stroke="blue" stroke-dasharray="5,2" points="181.5,-970.5 41.5,-970.5 41.5,-902.5 181.5,-902.5 181.5,-970.5"/>
<text text-anchor="middle" x="111.5" y="-955.3" font-family="Times New Roman,serif" font-size="14.00">friendly_name: input1</text>
<text text-anchor="middle" x="111.5" y="-940.3" font-family="Times New Roman,serif" font-size="14.00">name: Parameter_79</text>
<text text-anchor="middle" x="111.5" y="-925.3" font-family="Times New Roman,serif" font-size="14.00">type_name: Parameter</text>
<text text-anchor="middle" x="111.5" y="-910.3" font-family="Times New Roman,serif" font-size="14.00">{f32}[1,3,9,9]</text>
</g>
<!-- CLONE_15&#45;&gt;FakeQuantize_84 -->
<g id="edge25" class="edge"><title>CLONE_15&#45;&gt;FakeQuantize_84</title>
<path fill="none" stroke="black" d="M174.605,-902.423C179.949,-899.844 185.298,-897.337 190.5,-895 226.251,-878.942 264.649,-862.928 302.192,-847.921"/>
<polygon fill="black" stroke="black" points="303.721,-851.08 311.717,-844.128 301.131,-844.576 303.721,-851.08"/>
<text text-anchor="middle" x="283.5" y="-865.8" font-family="Times New Roman,serif" font-size="14.00"> 0 &#45;&gt; 0 </text>
</g>
<!-- CLONE_16 -->
<g id="node27" class="node"><title>CLONE_16</title>
<polygon fill="none" stroke="black" stroke-dasharray="5,2" points="405.5,-978 199.5,-978 199.5,-895 405.5,-895 405.5,-978"/>
<text text-anchor="middle" x="302.5" y="-962.8" font-family="Times New Roman,serif" font-size="14.00">friendly_name: Constant_80</text>
<text text-anchor="middle" x="302.5" y="-947.8" font-family="Times New Roman,serif" font-size="14.00">type_name: Constant</text>
<text text-anchor="middle" x="302.5" y="-932.8" font-family="Times New Roman,serif" font-size="14.00">{f32}[]</text>
<text text-anchor="middle" x="302.5" y="-917.8" font-family="Times New Roman,serif" font-size="14.00">value: [&#45;0.426667</text>
<text text-anchor="middle" x="302.5" y="-902.8" font-family="Times New Roman,serif" font-size="14.00">(min: &#45;0.426667, max: &#45;0.426667)]</text>
</g>
<!-- CLONE_16&#45;&gt;FakeQuantize_84 -->
<g id="edge26" class="edge"><title>CLONE_16&#45;&gt;FakeQuantize_84</title>
<path fill="none" stroke="black" d="M355.195,-894.901C372.702,-881.412 392.896,-865.854 413.064,-850.316"/>
<polygon fill="black" stroke="black" points="415.302,-853.009 421.088,-844.134 411.03,-847.464 415.302,-853.009"/>
<text text-anchor="middle" x="414.5" y="-865.8" font-family="Times New Roman,serif" font-size="14.00"> 0 &#45;&gt; 1 </text>
</g>
<!-- CLONE_17 -->
<g id="node28" class="node"><title>CLONE_17</title>
<polygon fill="none" stroke="black" stroke-dasharray="5,2" points="621,-978 424,-978 424,-895 621,-895 621,-978"/>
<text text-anchor="middle" x="522.5" y="-962.8" font-family="Times New Roman,serif" font-size="14.00">friendly_name: Constant_81</text>
<text text-anchor="middle" x="522.5" y="-947.8" font-family="Times New Roman,serif" font-size="14.00">type_name: Constant</text>
<text text-anchor="middle" x="522.5" y="-932.8" font-family="Times New Roman,serif" font-size="14.00">{f32}[]</text>
<text text-anchor="middle" x="522.5" y="-917.8" font-family="Times New Roman,serif" font-size="14.00">value: [0.423333</text>
<text text-anchor="middle" x="522.5" y="-902.8" font-family="Times New Roman,serif" font-size="14.00">(min: 0.423333, max: 0.423333)]</text>
</g>
<!-- CLONE_17&#45;&gt;FakeQuantize_84 -->
<g id="edge27" class="edge"><title>CLONE_17&#45;&gt;FakeQuantize_84</title>
<path fill="none" stroke="black" d="M522.5,-894.901C522.5,-882.606 522.5,-868.592 522.5,-854.44"/>
<polygon fill="black" stroke="black" points="526,-854.134 522.5,-844.134 519,-854.134 526,-854.134"/>
<text text-anchor="middle" x="543.5" y="-865.8" font-family="Times New Roman,serif" font-size="14.00"> 0 &#45;&gt; 2 </text>
</g>
<!-- CLONE_18 -->
<g id="node29" class="node"><title>CLONE_18</title>
<polygon fill="none" stroke="black" stroke-dasharray="5,2" points="845.5,-978 639.5,-978 639.5,-895 845.5,-895 845.5,-978"/>
<text text-anchor="middle" x="742.5" y="-962.8" font-family="Times New Roman,serif" font-size="14.00">friendly_name: Constant_82</text>
<text text-anchor="middle" x="742.5" y="-947.8" font-family="Times New Roman,serif" font-size="14.00">type_name: Constant</text>
<text text-anchor="middle" x="742.5" y="-932.8" font-family="Times New Roman,serif" font-size="14.00">{f32}[]</text>
<text text-anchor="middle" x="742.5" y="-917.8" font-family="Times New Roman,serif" font-size="14.00">value: [&#45;0.426667</text>
<text text-anchor="middle" x="742.5" y="-902.8" font-family="Times New Roman,serif" font-size="14.00">(min: &#45;0.426667, max: &#45;0.426667)]</text>
</g>
<!-- CLONE_18&#45;&gt;FakeQuantize_84 -->
<g id="edge28" class="edge"><title>CLONE_18&#45;&gt;FakeQuantize_84</title>
<path fill="none" stroke="black" d="M689.805,-894.901C672.298,-881.412 652.104,-865.854 631.936,-850.316"/>
<polygon fill="black" stroke="black" points="633.97,-847.464 623.912,-844.134 629.698,-853.009 633.97,-847.464"/>
<text text-anchor="middle" x="686.5" y="-865.8" font-family="Times New Roman,serif" font-size="14.00"> 0 &#45;&gt; 3 </text>
</g>
<!-- CLONE_19 -->
<g id="node30" class="node"><title>CLONE_19</title>
<polygon fill="none" stroke="black" stroke-dasharray="5,2" points="1061,-978 864,-978 864,-895 1061,-895 1061,-978"/>
<text text-anchor="middle" x="962.5" y="-962.8" font-family="Times New Roman,serif" font-size="14.00">friendly_name: Constant_83</text>
<text text-anchor="middle" x="962.5" y="-947.8" font-family="Times New Roman,serif" font-size="14.00">type_name: Constant</text>
<text text-anchor="middle" x="962.5" y="-932.8" font-family="Times New Roman,serif" font-size="14.00">{f32}[]</text>
<text text-anchor="middle" x="962.5" y="-917.8" font-family="Times New Roman,serif" font-size="14.00">value: [0.423333</text>
<text text-anchor="middle" x="962.5" y="-902.8" font-family="Times New Roman,serif" font-size="14.00">(min: 0.423333, max: 0.423333)]</text>
</g>
<!-- CLONE_19&#45;&gt;FakeQuantize_84 -->
<g id="edge29" class="edge"><title>CLONE_19&#45;&gt;FakeQuantize_84</title>
<path fill="none" stroke="black" d="M863.755,-897.461C825.435,-882.699 779.976,-865.187 734.941,-847.838"/>
<polygon fill="black" stroke="black" points="735.929,-844.468 725.34,-844.139 733.413,-851 735.929,-844.468"/>
<text text-anchor="middle" x="829.5" y="-865.8" font-family="Times New Roman,serif" font-size="14.00"> 0 &#45;&gt; 4 </text>
</g>
</g>
</svg>
