<?xml version="1.0" encoding="UTF-8" standalone="no"?>
<!DOCTYPE svg PUBLIC "-//W3C//DTD SVG 1.1//EN"
 "http://www.w3.org/Graphics/SVG/1.1/DTD/svg11.dtd">
<!-- Generated by graphviz version 2.38.0 (20140413.2041)
 -->
<!-- Title: ngraph Pages: 1 -->
<svg width="4210pt" height="1001pt"
 viewBox="0.00 0.00 4210.00 1001.00" xmlns="http://www.w3.org/2000/svg" xmlns:xlink="http://www.w3.org/1999/xlink">
<g id="graph0" class="graph" transform="scale(1 1) rotate(0) translate(4 997)">
<title>ngraph</title>
<polygon fill="white" stroke="none" points="-4,4 -4,-997 4206,-997 4206,4 -4,4"/>
<!-- Convolution_106 -->
<g id="node1" class="node"><title>Convolution_106</title>
<polygon fill="none" stroke="black" points="3466.5,-217 2376.5,-217 2376.5,-119 3466.5,-119 3466.5,-217"/>
<text text-anchor="middle" x="2921.5" y="-201.8" font-family="Times New Roman,serif" font-size="14.00">friendly_name: convolution</text>
<text text-anchor="middle" x="2921.5" y="-186.8" font-family="Times New Roman,serif" font-size="14.00">name: Convolution_106</text>
<text text-anchor="middle" x="2921.5" y="-171.8" font-family="Times New Roman,serif" font-size="14.00">type_name: Convolution</text>
<text text-anchor="middle" x="2921.5" y="-156.8" font-family="Times New Roman,serif" font-size="14.00">in0: {f32}[1,6,7,7]: MaxPool_99: out0 LowPrecision::Precisions(2113893385744: sharedValue: 2113888800304, attributes: [2113893386304, 2113893385744, 2113893389104], precisions: [u8]) </text>
<text text-anchor="middle" x="2921.5" y="-141.8" font-family="Times New Roman,serif" font-size="14.00">in1: {f32}[9,6,1,1]: FakeQuantize_105: out0 LowPrecision::Precisions(2113893386080: sharedValue: 2113888793392, attributes: [2113893386080], precisions: [i8]) </text>
<text text-anchor="middle" x="2921.5" y="-126.8" font-family="Times New Roman,serif" font-size="14.00">out0: {f32}[1,9,7,7]</text>
</g>
<!-- Result_108 -->
<g id="node2" class="node"><title>Result_108</title>
<polygon fill="none" stroke="crimson" stroke-width="1.5" points="3048.5,-68 2794.5,-68 2794.5,-0 3048.5,-0 3048.5,-68"/>
<text text-anchor="middle" x="2921.5" y="-52.8" font-family="Times New Roman,serif" font-size="14.00">friendly_name: Result_108</text>
<text text-anchor="middle" x="2921.5" y="-37.8" font-family="Times New Roman,serif" font-size="14.00">type_name: Result</text>
<text text-anchor="middle" x="2921.5" y="-22.8" font-family="Times New Roman,serif" font-size="14.00">in0: {f32}[1,9,7,7]: Convolution_106: out0</text>
<text text-anchor="middle" x="2921.5" y="-7.8" font-family="Times New Roman,serif" font-size="14.00">out0: {f32}[1,9,7,7]</text>
</g>
<!-- Convolution_106&#45;&gt;Result_108 -->
<g id="edge1" class="edge"><title>Convolution_106&#45;&gt;Result_108</title>
<path fill="none" stroke="black" d="M2921.5,-118.972C2921.5,-105.71 2921.5,-91.4001 2921.5,-78.4163"/>
<polygon fill="black" stroke="black" points="2925,-78.3331 2921.5,-68.3332 2918,-78.3332 2925,-78.3331"/>
<text text-anchor="middle" x="2942.5" y="-89.8" font-family="Times New Roman,serif" font-size="14.00"> 0 &#45;&gt; 0 </text>
</g>
<!-- MaxPool_99 -->
<g id="node3" class="node"><title>MaxPool_99</title>
<polygon fill="none" stroke="black" points="2769,-418.5 1724,-418.5 1724,-275.5 2769,-275.5 2769,-418.5"/>
<text text-anchor="middle" x="2246.5" y="-403.3" font-family="Times New Roman,serif" font-size="14.00">friendly_name: MaxPool</text>
<text text-anchor="middle" x="2246.5" y="-388.3" font-family="Times New Roman,serif" font-size="14.00">name: MaxPool_99</text>
<text text-anchor="middle" x="2246.5" y="-373.3" font-family="Times New Roman,serif" font-size="14.00">type_name: MaxPool</text>
<text text-anchor="middle" x="2246.5" y="-358.3" font-family="Times New Roman,serif" font-size="14.00">rt info: &#160;LowPrecision::IntervalsAlignment(2113893389216: sharedValue: 2113888797280, attributes: [2113893384736, 2113893389216, 2113893383952], low: &#45;0.426667, high: 0.423333)</text>
<text text-anchor="middle" x="2246.5" y="-343.3" font-family="Times New Roman,serif" font-size="14.00">LowPrecision::PrecisionPreserved(2113893385304: shared: 2113893702912,value: true)</text>
<text text-anchor="middle" x="2246.5" y="-328.3" font-family="Times New Roman,serif" font-size="14.00">LowPrecision::Precisions(2113893385744: sharedValue: 2113888800304, attributes: [2113893386304, 2113893385744, 2113893389104], precisions: [u8])</text>
<text text-anchor="middle" x="2246.5" y="-313.3" font-family="Times New Roman,serif" font-size="14.00">LowPrecision::QuantizationAlignment(2113893390672: sharedValue: 2113893700992, attributes: [2113893390672], value: true)</text>
<text text-anchor="middle" x="2246.5" y="-298.3" font-family="Times New Roman,serif" font-size="14.00">in0: {f32}[1,6,9,9]: Concat_98: out0</text>
<text text-anchor="middle" x="2246.5" y="-283.3" font-family="Times New Roman,serif" font-size="14.00">out0: {f32}[1,6,7,7]</text>
</g>
<!-- MaxPool_99&#45;&gt;Convolution_106 -->
<g id="edge2" class="edge"><title>MaxPool_99&#45;&gt;Convolution_106</title>
<path fill="none" stroke="black" d="M2515.7,-275.409C2586.88,-256.744 2662.29,-236.97 2728.54,-219.598"/>
<polygon fill="black" stroke="black" points="2729.46,-222.975 2738.25,-217.053 2727.69,-216.204 2729.46,-222.975"/>
<text text-anchor="middle" x="2685.5" y="-238.8" font-family="Times New Roman,serif" font-size="14.00"> 0 &#45;&gt; 0 </text>
</g>
<!-- FakeQuantize_105 -->
<g id="node4" class="node"><title>FakeQuantize_105</title>
<polygon fill="none" stroke="black" points="3739.5,-426 2939.5,-426 2939.5,-268 3739.5,-268 3739.5,-426"/>
<text text-anchor="middle" x="3339.5" y="-410.8" font-family="Times New Roman,serif" font-size="14.00">friendly_name: fakeQuantizeOnWeights</text>
<text text-anchor="middle" x="3339.5" y="-395.8" font-family="Times New Roman,serif" font-size="14.00">name: FakeQuantize_105</text>
<text text-anchor="middle" x="3339.5" y="-380.8" font-family="Times New Roman,serif" font-size="14.00">type_name: FakeQuantize</text>
<text text-anchor="middle" x="3339.5" y="-365.8" font-family="Times New Roman,serif" font-size="14.00">rt info: &#160;LowPrecision::IntervalsAlignment(2113893387200: sharedValue: 2113888796992, attributes: [2113893387200], low: &#45;1.27, high: 1.27)</text>
<text text-anchor="middle" x="3339.5" y="-350.8" font-family="Times New Roman,serif" font-size="14.00">in0: {f32}[9,6,1,1]: Constant_100: out0</text>
<text text-anchor="middle" x="3339.5" y="-335.8" font-family="Times New Roman,serif" font-size="14.00">in1: {f32}[9,1,1,1]: Constant_101: out0</text>
<text text-anchor="middle" x="3339.5" y="-320.8" font-family="Times New Roman,serif" font-size="14.00">in2: {f32}[9,1,1,1]: Constant_102: out0</text>
<text text-anchor="middle" x="3339.5" y="-305.8" font-family="Times New Roman,serif" font-size="14.00">in3: {f32}[9,1,1,1]: Constant_103: out0</text>
<text text-anchor="middle" x="3339.5" y="-290.8" font-family="Times New Roman,serif" font-size="14.00">in4: {f32}[9,1,1,1]: Constant_104: out0</text>
<text text-anchor="middle" x="3339.5" y="-275.8" font-family="Times New Roman,serif" font-size="14.00">out0: {f32}[9,6,1,1] LowPrecision::Precisions(2113893386080: sharedValue: 2113888793392, attributes: [2113893386080], precisions: [i8]) </text>
</g>
<!-- FakeQuantize_105&#45;&gt;Convolution_106 -->
<g id="edge3" class="edge"><title>FakeQuantize_105&#45;&gt;Convolution_106</title>
<path fill="none" stroke="black" d="M3155.25,-267.979C3117.68,-252.07 3079.02,-235.702 3044.24,-220.972"/>
<polygon fill="black" stroke="black" points="3045.58,-217.74 3035.01,-217.064 3042.85,-224.186 3045.58,-217.74"/>
<text text-anchor="middle" x="3126.5" y="-238.8" font-family="Times New Roman,serif" font-size="14.00"> 0 &#45;&gt; 1 </text>
</g>
<!-- CLONE_0 -->
<g id="node5" class="node"><title>CLONE_0</title>
<polygon fill="none" stroke="black" stroke-dasharray="5,2" points="2853.5,-627.5 2673.5,-627.5 2673.5,-499.5 2853.5,-499.5 2853.5,-627.5"/>
<text text-anchor="middle" x="2763.5" y="-612.3" font-family="Times New Roman,serif" font-size="14.00">friendly_name: Constant_100</text>
<text text-anchor="middle" x="2763.5" y="-597.3" font-family="Times New Roman,serif" font-size="14.00">type_name: Constant</text>
<text text-anchor="middle" x="2763.5" y="-582.3" font-family="Times New Roman,serif" font-size="14.00">{f32}[9,6,1,1]</text>
<text text-anchor="middle" x="2763.5" y="-567.3" font-family="Times New Roman,serif" font-size="14.00">value: [1, 1, 1, 1, 1, 1, 1, 1</text>
<text text-anchor="middle" x="2763.5" y="-552.3" font-family="Times New Roman,serif" font-size="14.00">, 1, 1, 1, 1, 1, 1, 1, 1</text>
<text text-anchor="middle" x="2763.5" y="-537.3" font-family="Times New Roman,serif" font-size="14.00">, 1, 1, 1, 1, 1, 1, 1, 1</text>
<text text-anchor="middle" x="2763.5" y="-522.3" font-family="Times New Roman,serif" font-size="14.00">, 1, 1, 1, 1, 1, 1, 1, 1...</text>
<text text-anchor="middle" x="2763.5" y="-507.3" font-family="Times New Roman,serif" font-size="14.00">(min: 1, max: 1)]</text>
</g>
<!-- CLONE_0&#45;&gt;FakeQuantize_105 -->
<g id="edge4" class="edge"><title>CLONE_0&#45;&gt;FakeQuantize_105</title>
<path fill="none" stroke="black" d="M2828.4,-499.481C2839.23,-491.08 2850.77,-483.232 2862.5,-477 2896.64,-458.869 2933.53,-443.124 2971.16,-429.487"/>
<polygon fill="black" stroke="black" points="2972.5,-432.725 2980.74,-426.065 2970.15,-426.133 2972.5,-432.725"/>
<text text-anchor="middle" x="2944.5" y="-447.8" font-family="Times New Roman,serif" font-size="14.00"> 0 &#45;&gt; 0 </text>
</g>
<!-- CLONE_1 -->
<g id="node6" class="node"><title>CLONE_1</title>
<polygon fill="none" stroke="black" stroke-dasharray="5,2" points="3209,-612.5 2872,-612.5 2872,-514.5 3209,-514.5 3209,-612.5"/>
<text text-anchor="middle" x="3040.5" y="-597.3" font-family="Times New Roman,serif" font-size="14.00">friendly_name: Constant_101</text>
<text text-anchor="middle" x="3040.5" y="-582.3" font-family="Times New Roman,serif" font-size="14.00">type_name: Constant</text>
<text text-anchor="middle" x="3040.5" y="-567.3" font-family="Times New Roman,serif" font-size="14.00">{f32}[9,1,1,1]</text>
<text text-anchor="middle" x="3040.5" y="-552.3" font-family="Times New Roman,serif" font-size="14.00">value: [&#45;1.27, &#45;1.27, &#45;1.27, &#45;1.27, &#45;1.27, &#45;1.27, &#45;1.27, &#45;1.27</text>
<text text-anchor="middle" x="3040.5" y="-537.3" font-family="Times New Roman,serif" font-size="14.00">, &#45;1.27</text>
<text text-anchor="middle" x="3040.5" y="-522.3" font-family="Times New Roman,serif" font-size="14.00">(min: &#45;1.27, max: &#45;1.27)]</text>
</g>
<!-- CLONE_1&#45;&gt;FakeQuantize_105 -->
<g id="edge5" class="edge"><title>CLONE_1&#45;&gt;FakeQuantize_105</title>
<path fill="none" stroke="black" d="M3107.6,-514.362C3141.44,-490.088 3183.46,-459.939 3222.41,-432"/>
<polygon fill="black" stroke="black" points="3224.58,-434.748 3230.67,-426.075 3220.5,-429.06 3224.58,-434.748"/>
<text text-anchor="middle" x="3220.5" y="-447.8" font-family="Times New Roman,serif" font-size="14.00"> 0 &#45;&gt; 1 </text>
</g>
<!-- CLONE_2 -->
<g id="node7" class="node"><title>CLONE_2</title>
<polygon fill="none" stroke="black" stroke-dasharray="5,2" points="3528,-612.5 3227,-612.5 3227,-514.5 3528,-514.5 3528,-612.5"/>
<text text-anchor="middle" x="3377.5" y="-597.3" font-family="Times New Roman,serif" font-size="14.00">friendly_name: Constant_102</text>
<text text-anchor="middle" x="3377.5" y="-582.3" font-family="Times New Roman,serif" font-size="14.00">type_name: Constant</text>
<text text-anchor="middle" x="3377.5" y="-567.3" font-family="Times New Roman,serif" font-size="14.00">{f32}[9,1,1,1]</text>
<text text-anchor="middle" x="3377.5" y="-552.3" font-family="Times New Roman,serif" font-size="14.00">value: [1.27, 1.27, 1.27, 1.27, 1.27, 1.27, 1.27, 1.27</text>
<text text-anchor="middle" x="3377.5" y="-537.3" font-family="Times New Roman,serif" font-size="14.00">, 1.27</text>
<text text-anchor="middle" x="3377.5" y="-522.3" font-family="Times New Roman,serif" font-size="14.00">(min: 1.27, max: 1.27)]</text>
</g>
<!-- CLONE_2&#45;&gt;FakeQuantize_105 -->
<g id="edge6" class="edge"><title>CLONE_2&#45;&gt;FakeQuantize_105</title>
<path fill="none" stroke="black" d="M3368.97,-514.362C3364.9,-491.361 3359.89,-463.086 3355.16,-436.415"/>
<polygon fill="black" stroke="black" points="3358.56,-435.522 3353.37,-426.286 3351.67,-436.743 3358.56,-435.522"/>
<text text-anchor="middle" x="3379.5" y="-447.8" font-family="Times New Roman,serif" font-size="14.00"> 0 &#45;&gt; 2 </text>
</g>
<!-- CLONE_3 -->
<g id="node8" class="node"><title>CLONE_3</title>
<polygon fill="none" stroke="black" stroke-dasharray="5,2" points="3883,-612.5 3546,-612.5 3546,-514.5 3883,-514.5 3883,-612.5"/>
<text text-anchor="middle" x="3714.5" y="-597.3" font-family="Times New Roman,serif" font-size="14.00">friendly_name: Constant_103</text>
<text text-anchor="middle" x="3714.5" y="-582.3" font-family="Times New Roman,serif" font-size="14.00">type_name: Constant</text>
<text text-anchor="middle" x="3714.5" y="-567.3" font-family="Times New Roman,serif" font-size="14.00">{f32}[9,1,1,1]</text>
<text text-anchor="middle" x="3714.5" y="-552.3" font-family="Times New Roman,serif" font-size="14.00">value: [&#45;1.27, &#45;1.27, &#45;1.27, &#45;1.27, &#45;1.27, &#45;1.27, &#45;1.27, &#45;1.27</text>
<text text-anchor="middle" x="3714.5" y="-537.3" font-family="Times New Roman,serif" font-size="14.00">, &#45;1.27</text>
<text text-anchor="middle" x="3714.5" y="-522.3" font-family="Times New Roman,serif" font-size="14.00">(min: &#45;1.27, max: &#45;1.27)]</text>
</g>
<!-- CLONE_3&#45;&gt;FakeQuantize_105 -->
<g id="edge7" class="edge"><title>CLONE_3&#45;&gt;FakeQuantize_105</title>
<path fill="none" stroke="black" d="M3630.34,-514.362C3587.46,-489.834 3534.09,-459.307 3484.82,-431.124"/>
<polygon fill="black" stroke="black" points="3486.41,-428.002 3476,-426.075 3482.94,-434.079 3486.41,-428.002"/>
<text text-anchor="middle" x="3548.5" y="-447.8" font-family="Times New Roman,serif" font-size="14.00"> 0 &#45;&gt; 3 </text>
</g>
<!-- CLONE_4 -->
<g id="node9" class="node"><title>CLONE_4</title>
<polygon fill="none" stroke="black" stroke-dasharray="5,2" points="4202,-612.5 3901,-612.5 3901,-514.5 4202,-514.5 4202,-612.5"/>
<text text-anchor="middle" x="4051.5" y="-597.3" font-family="Times New Roman,serif" font-size="14.00">friendly_name: Constant_104</text>
<text text-anchor="middle" x="4051.5" y="-582.3" font-family="Times New Roman,serif" font-size="14.00">type_name: Constant</text>
<text text-anchor="middle" x="4051.5" y="-567.3" font-family="Times New Roman,serif" font-size="14.00">{f32}[9,1,1,1]</text>
<text text-anchor="middle" x="4051.5" y="-552.3" font-family="Times New Roman,serif" font-size="14.00">value: [1.27, 1.27, 1.27, 1.27, 1.27, 1.27, 1.27, 1.27</text>
<text text-anchor="middle" x="4051.5" y="-537.3" font-family="Times New Roman,serif" font-size="14.00">, 1.27</text>
<text text-anchor="middle" x="4051.5" y="-522.3" font-family="Times New Roman,serif" font-size="14.00">(min: 1.27, max: 1.27)]</text>
</g>
<!-- CLONE_4&#45;&gt;FakeQuantize_105 -->
<g id="edge8" class="edge"><title>CLONE_4&#45;&gt;FakeQuantize_105</title>
<path fill="none" stroke="black" d="M3971.21,-514.319C3946.29,-500.824 3918.32,-487.101 3891.5,-477 3843.48,-458.915 3792.12,-442.846 3740.78,-428.722"/>
<polygon fill="black" stroke="black" points="3741.42,-425.269 3730.85,-426.015 3739.58,-432.023 3741.42,-425.269"/>
<text text-anchor="middle" x="3855.5" y="-447.8" font-family="Times New Roman,serif" font-size="14.00"> 0 &#45;&gt; 4 </text>
</g>
<!-- Concat_98 -->
<g id="node10" class="node"><title>Concat_98</title>
<polygon fill="none" stroke="black" points="2655,-650 1610,-650 1610,-477 2655,-477 2655,-650"/>
<text text-anchor="middle" x="2132.5" y="-634.8" font-family="Times New Roman,serif" font-size="14.00">friendly_name: concat2</text>
<text text-anchor="middle" x="2132.5" y="-619.8" font-family="Times New Roman,serif" font-size="14.00">name: Concat_98</text>
<text text-anchor="middle" x="2132.5" y="-604.8" font-family="Times New Roman,serif" font-size="14.00">type_name: Concat</text>
<text text-anchor="middle" x="2132.5" y="-589.8" font-family="Times New Roman,serif" font-size="14.00">rt info: &#160;LowPrecision::IntervalsAlignment(2113893389216: sharedValue: 2113888797280, attributes: [2113893384736, 2113893389216, 2113893383952], low: &#45;0.426667, high: 0.423333)</text>
<text text-anchor="middle" x="2132.5" y="-574.8" font-family="Times New Roman,serif" font-size="14.00">LowPrecision::PrecisionPreserved(2113893388664: shared: 2113893707776,value: true)</text>
<text text-anchor="middle" x="2132.5" y="-559.8" font-family="Times New Roman,serif" font-size="14.00">LowPrecision::Precisions(2113893385744: sharedValue: 2113888800304, attributes: [2113893386304, 2113893385744, 2113893389104], precisions: [u8])</text>
<text text-anchor="middle" x="2132.5" y="-544.8" font-family="Times New Roman,serif" font-size="14.00">LowPrecision::QuantizationAlignment(2113893390672: sharedValue: 2113893700992, attributes: [2113893390672], value: true)</text>
<text text-anchor="middle" x="2132.5" y="-529.8" font-family="Times New Roman,serif" font-size="14.00">Variant::std::string</text>
<text text-anchor="middle" x="2132.5" y="-514.8" font-family="Times New Roman,serif" font-size="14.00">in0: {f32}[1,3,9,9]: FakeQuantize_90: out0</text>
<text text-anchor="middle" x="2132.5" y="-499.8" font-family="Times New Roman,serif" font-size="14.00">in1: {f32}[1,3,9,9]: FakeQuantize_96: out0</text>
<text text-anchor="middle" x="2132.5" y="-484.8" font-family="Times New Roman,serif" font-size="14.00">out0: {f32}[1,6,9,9]</text>
</g>
<!-- Concat_98&#45;&gt;MaxPool_99 -->
<g id="edge9" class="edge"><title>Concat_98&#45;&gt;MaxPool_99</title>
<path fill="none" stroke="black" d="M2178.05,-476.799C2186.6,-460.704 2195.51,-443.933 2203.97,-428.019"/>
<polygon fill="black" stroke="black" points="2207.29,-429.232 2208.89,-418.759 2201.11,-425.947 2207.29,-429.232"/>
<text text-anchor="middle" x="2214.5" y="-447.8" font-family="Times New Roman,serif" font-size="14.00"> 0 &#45;&gt; 0 </text>
</g>
<!-- FakeQuantize_90 -->
<g id="node11" class="node"><title>FakeQuantize_90</title>
<polygon fill="none" stroke="black" points="2108,-859 1063,-859 1063,-701 2108,-701 2108,-859"/>
<text text-anchor="middle" x="1585.5" y="-843.8" font-family="Times New Roman,serif" font-size="14.00">friendly_name: fakeQuantize2</text>
<text text-anchor="middle" x="1585.5" y="-828.8" font-family="Times New Roman,serif" font-size="14.00">name: FakeQuantize_90</text>
<text text-anchor="middle" x="1585.5" y="-813.8" font-family="Times New Roman,serif" font-size="14.00">type_name: FakeQuantize</text>
<text text-anchor="middle" x="1585.5" y="-798.8" font-family="Times New Roman,serif" font-size="14.00">rt info: &#160;LowPrecision::IntervalsAlignment(2113893389216: sharedValue: 2113888797280, attributes: [2113893384736, 2113893389216, 2113893383952], low: &#45;0.426667, high: 0.423333)</text>
<text text-anchor="middle" x="1585.5" y="-783.8" font-family="Times New Roman,serif" font-size="14.00">in0: {f32}[1,3,9,9]: Parameter_85: out0</text>
<text text-anchor="middle" x="1585.5" y="-768.8" font-family="Times New Roman,serif" font-size="14.00">in1: {f32}[]: Constant_86: out0</text>
<text text-anchor="middle" x="1585.5" y="-753.8" font-family="Times New Roman,serif" font-size="14.00">in2: {f32}[]: Constant_87: out0</text>
<text text-anchor="middle" x="1585.5" y="-738.8" font-family="Times New Roman,serif" font-size="14.00">in3: {f32}[]: Constant_88: out0</text>
<text text-anchor="middle" x="1585.5" y="-723.8" font-family="Times New Roman,serif" font-size="14.00">in4: {f32}[]: Constant_89: out0</text>
<text text-anchor="middle" x="1585.5" y="-708.8" font-family="Times New Roman,serif" font-size="14.00">out0: {f32}[1,3,9,9] LowPrecision::Precisions(2113893385744: sharedValue: 2113888800304, attributes: [2113893386304, 2113893385744, 2113893389104], precisions: [u8]) </text>
</g>
<!-- FakeQuantize_90&#45;&gt;Concat_98 -->
<g id="edge10" class="edge"><title>FakeQuantize_90&#45;&gt;Concat_98</title>
<path fill="none" stroke="black" d="M1784.53,-700.954C1823.64,-685.618 1864.94,-669.419 1904.9,-653.749"/>
<polygon fill="black" stroke="black" points="1906.19,-657.006 1914.22,-650.097 1903.63,-650.49 1906.19,-657.006"/>
<text text-anchor="middle" x="1880.5" y="-671.8" font-family="Times New Roman,serif" font-size="14.00"> 0 &#45;&gt; 0 </text>
</g>
<!-- Concat_97 -->
<g id="node23" class="node"><title>Concat_97</title>
<polygon fill="none" stroke="black" points="1334,-650 289,-650 289,-477 1334,-477 1334,-650"/>
<text text-anchor="middle" x="811.5" y="-634.8" font-family="Times New Roman,serif" font-size="14.00">friendly_name: concat1</text>
<text text-anchor="middle" x="811.5" y="-619.8" font-family="Times New Roman,serif" font-size="14.00">name: Concat_97</text>
<text text-anchor="middle" x="811.5" y="-604.8" font-family="Times New Roman,serif" font-size="14.00">type_name: Concat</text>
<text text-anchor="middle" x="811.5" y="-589.8" font-family="Times New Roman,serif" font-size="14.00">rt info: &#160;LowPrecision::IntervalsAlignment(2113893384736: sharedValue: 2113888797280, attributes: [2113893384736, 2113893389216, 2113893383952], low: &#45;0.426667, high: 0.423333)</text>
<text text-anchor="middle" x="811.5" y="-574.8" font-family="Times New Roman,serif" font-size="14.00">LowPrecision::PrecisionPreserved(2113893384184: shared: 2113893706112,value: true)</text>
<text text-anchor="middle" x="811.5" y="-559.8" font-family="Times New Roman,serif" font-size="14.00">LowPrecision::Precisions(2113893386304: sharedValue: 2113888800304, attributes: [2113893386304, 2113893385744, 2113893389104], precisions: [u8])</text>
<text text-anchor="middle" x="811.5" y="-544.8" font-family="Times New Roman,serif" font-size="14.00">LowPrecision::QuantizationAlignment(2113893394480: sharedValue: 2113893701120, attributes: [2113893394480], value: true)</text>
<text text-anchor="middle" x="811.5" y="-529.8" font-family="Times New Roman,serif" font-size="14.00">Variant::std::string</text>
<text text-anchor="middle" x="811.5" y="-514.8" font-family="Times New Roman,serif" font-size="14.00">in0: {f32}[1,3,9,9]: FakeQuantize_84: out0</text>
<text text-anchor="middle" x="811.5" y="-499.8" font-family="Times New Roman,serif" font-size="14.00">in1: {f32}[1,3,9,9]: FakeQuantize_90: out0</text>
<text text-anchor="middle" x="811.5" y="-484.8" font-family="Times New Roman,serif" font-size="14.00">out0: {f32}[1,6,9,9]</text>
</g>
<!-- FakeQuantize_90&#45;&gt;Concat_97 -->
<g id="edge24" class="edge"><title>FakeQuantize_90&#45;&gt;Concat_97</title>
<path fill="none" stroke="black" d="M1303.88,-700.954C1247.39,-685.299 1187.66,-668.745 1130.02,-652.772"/>
<polygon fill="black" stroke="black" points="1130.61,-649.304 1120.04,-650.006 1128.74,-656.05 1130.61,-649.304"/>
<text text-anchor="middle" x="1243.5" y="-671.8" font-family="Times New Roman,serif" font-size="14.00"> 0 &#45;&gt; 1 </text>
</g>
<!-- FakeQuantize_96 -->
<g id="node12" class="node"><title>FakeQuantize_96</title>
<polygon fill="none" stroke="black" points="3171,-859 2126,-859 2126,-701 3171,-701 3171,-859"/>
<text text-anchor="middle" x="2648.5" y="-843.8" font-family="Times New Roman,serif" font-size="14.00">friendly_name: fakeQuantize3</text>
<text text-anchor="middle" x="2648.5" y="-828.8" font-family="Times New Roman,serif" font-size="14.00">name: FakeQuantize_96</text>
<text text-anchor="middle" x="2648.5" y="-813.8" font-family="Times New Roman,serif" font-size="14.00">type_name: FakeQuantize</text>
<text text-anchor="middle" x="2648.5" y="-798.8" font-family="Times New Roman,serif" font-size="14.00">rt info: &#160;LowPrecision::IntervalsAlignment(2113893383952: sharedValue: 2113888797280, attributes: [2113893384736, 2113893389216, 2113893383952], low: &#45;0.426667, high: 0.423333)</text>
<text text-anchor="middle" x="2648.5" y="-783.8" font-family="Times New Roman,serif" font-size="14.00">in0: {f32}[1,3,9,9]: Parameter_91: out0</text>
<text text-anchor="middle" x="2648.5" y="-768.8" font-family="Times New Roman,serif" font-size="14.00">in1: {f32}[]: Constant_92: out0</text>
<text text-anchor="middle" x="2648.5" y="-753.8" font-family="Times New Roman,serif" font-size="14.00">in2: {f32}[]: Constant_93: out0</text>
<text text-anchor="middle" x="2648.5" y="-738.8" font-family="Times New Roman,serif" font-size="14.00">in3: {f32}[]: Constant_94: out0</text>
<text text-anchor="middle" x="2648.5" y="-723.8" font-family="Times New Roman,serif" font-size="14.00">in4: {f32}[]: Constant_95: out0</text>
<text text-anchor="middle" x="2648.5" y="-708.8" font-family="Times New Roman,serif" font-size="14.00">out0: {f32}[1,3,9,9] LowPrecision::Precisions(2113893389104: sharedValue: 2113888800304, attributes: [2113893386304, 2113893385744, 2113893389104], precisions: [u8]) </text>
</g>
<!-- FakeQuantize_96&#45;&gt;Concat_98 -->
<g id="edge11" class="edge"><title>FakeQuantize_96&#45;&gt;Concat_98</title>
<path fill="none" stroke="black" d="M2460.75,-700.954C2424.09,-685.715 2385.39,-669.624 2347.91,-654.046"/>
<polygon fill="black" stroke="black" points="2348.99,-650.704 2338.41,-650.097 2346.3,-657.168 2348.99,-650.704"/>
<text text-anchor="middle" x="2427.5" y="-671.8" font-family="Times New Roman,serif" font-size="14.00"> 0 &#45;&gt; 1 </text>
</g>
<!-- CLONE_5 -->
<g id="node13" class="node"><title>CLONE_5</title>
<polygon fill="none" stroke="blue" stroke-dasharray="5,2" points="2352.5,-985.5 2212.5,-985.5 2212.5,-917.5 2352.5,-917.5 2352.5,-985.5"/>
<text text-anchor="middle" x="2282.5" y="-970.3" font-family="Times New Roman,serif" font-size="14.00">friendly_name: input3</text>
<text text-anchor="middle" x="2282.5" y="-955.3" font-family="Times New Roman,serif" font-size="14.00">name: Parameter_91</text>
<text text-anchor="middle" x="2282.5" y="-940.3" font-family="Times New Roman,serif" font-size="14.00">type_name: Parameter</text>
<text text-anchor="middle" x="2282.5" y="-925.3" font-family="Times New Roman,serif" font-size="14.00">{f32}[1,3,9,9]</text>
</g>
<!-- CLONE_5&#45;&gt;FakeQuantize_96 -->
<g id="edge12" class="edge"><title>CLONE_5&#45;&gt;FakeQuantize_96</title>
<path fill="none" stroke="black" d="M2346.6,-917.289C2351.63,-914.792 2356.64,-912.337 2361.5,-910 2393.68,-894.533 2428.13,-878.555 2461.6,-863.336"/>
<polygon fill="black" stroke="black" points="2463.35,-866.385 2471.01,-859.065 2460.46,-860.01 2463.35,-866.385"/>
<text text-anchor="middle" x="2445.5" y="-880.8" font-family="Times New Roman,serif" font-size="14.00"> 0 &#45;&gt; 0 </text>
</g>
<!-- CLONE_6 -->
<g id="node14" class="node"><title>CLONE_6</title>
<polygon fill="none" stroke="black" stroke-dasharray="5,2" points="2544,-993 2371,-993 2371,-910 2544,-910 2544,-993"/>
<text text-anchor="middle" x="2457.5" y="-977.8" font-family="Times New Roman,serif" font-size="14.00">friendly_name: Constant_92</text>
<text text-anchor="middle" x="2457.5" y="-962.8" font-family="Times New Roman,serif" font-size="14.00">type_name: Constant</text>
<text text-anchor="middle" x="2457.5" y="-947.8" font-family="Times New Roman,serif" font-size="14.00">{f32}[]</text>
<text text-anchor="middle" x="2457.5" y="-932.8" font-family="Times New Roman,serif" font-size="14.00">value: [&#45;1.28</text>
<text text-anchor="middle" x="2457.5" y="-917.8" font-family="Times New Roman,serif" font-size="14.00">(min: &#45;1.28, max: &#45;1.28)]</text>
</g>
<!-- CLONE_6&#45;&gt;FakeQuantize_96 -->
<g id="edge13" class="edge"><title>CLONE_6&#45;&gt;FakeQuantize_96</title>
<path fill="none" stroke="black" d="M2503.25,-909.901C2518.18,-896.651 2535.36,-881.404 2552.56,-866.141"/>
<polygon fill="black" stroke="black" points="2555.3,-868.389 2560.46,-859.134 2550.65,-863.153 2555.3,-868.389"/>
<text text-anchor="middle" x="2557.5" y="-880.8" font-family="Times New Roman,serif" font-size="14.00"> 0 &#45;&gt; 1 </text>
</g>
<!-- CLONE_7 -->
<g id="node15" class="node"><title>CLONE_7</title>
<polygon fill="none" stroke="black" stroke-dasharray="5,2" points="2735,-993 2562,-993 2562,-910 2735,-910 2735,-993"/>
<text text-anchor="middle" x="2648.5" y="-977.8" font-family="Times New Roman,serif" font-size="14.00">friendly_name: Constant_93</text>
<text text-anchor="middle" x="2648.5" y="-962.8" font-family="Times New Roman,serif" font-size="14.00">type_name: Constant</text>
<text text-anchor="middle" x="2648.5" y="-947.8" font-family="Times New Roman,serif" font-size="14.00">{f32}[]</text>
<text text-anchor="middle" x="2648.5" y="-932.8" font-family="Times New Roman,serif" font-size="14.00">value: [1.27</text>
<text text-anchor="middle" x="2648.5" y="-917.8" font-family="Times New Roman,serif" font-size="14.00">(min: 1.27, max: 1.27)]</text>
</g>
<!-- CLONE_7&#45;&gt;FakeQuantize_96 -->
<g id="edge14" class="edge"><title>CLONE_7&#45;&gt;FakeQuantize_96</title>
<path fill="none" stroke="black" d="M2648.5,-909.901C2648.5,-897.606 2648.5,-883.592 2648.5,-869.44"/>
<polygon fill="black" stroke="black" points="2652,-869.134 2648.5,-859.134 2645,-869.134 2652,-869.134"/>
<text text-anchor="middle" x="2669.5" y="-880.8" font-family="Times New Roman,serif" font-size="14.00"> 0 &#45;&gt; 2 </text>
</g>
<!-- CLONE_8 -->
<g id="node16" class="node"><title>CLONE_8</title>
<polygon fill="none" stroke="black" stroke-dasharray="5,2" points="2926,-993 2753,-993 2753,-910 2926,-910 2926,-993"/>
<text text-anchor="middle" x="2839.5" y="-977.8" font-family="Times New Roman,serif" font-size="14.00">friendly_name: Constant_94</text>
<text text-anchor="middle" x="2839.5" y="-962.8" font-family="Times New Roman,serif" font-size="14.00">type_name: Constant</text>
<text text-anchor="middle" x="2839.5" y="-947.8" font-family="Times New Roman,serif" font-size="14.00">{f32}[]</text>
<text text-anchor="middle" x="2839.5" y="-932.8" font-family="Times New Roman,serif" font-size="14.00">value: [&#45;1.28</text>
<text text-anchor="middle" x="2839.5" y="-917.8" font-family="Times New Roman,serif" font-size="14.00">(min: &#45;1.28, max: &#45;1.28)]</text>
</g>
<!-- CLONE_8&#45;&gt;FakeQuantize_96 -->
<g id="edge15" class="edge"><title>CLONE_8&#45;&gt;FakeQuantize_96</title>
<path fill="none" stroke="black" d="M2793.75,-909.901C2778.82,-896.651 2761.64,-881.404 2744.44,-866.141"/>
<polygon fill="black" stroke="black" points="2746.35,-863.153 2736.54,-859.134 2741.7,-868.389 2746.35,-863.153"/>
<text text-anchor="middle" x="2793.5" y="-880.8" font-family="Times New Roman,serif" font-size="14.00"> 0 &#45;&gt; 3 </text>
</g>
<!-- CLONE_9 -->
<g id="node17" class="node"><title>CLONE_9</title>
<polygon fill="none" stroke="black" stroke-dasharray="5,2" points="3117,-993 2944,-993 2944,-910 3117,-910 3117,-993"/>
<text text-anchor="middle" x="3030.5" y="-977.8" font-family="Times New Roman,serif" font-size="14.00">friendly_name: Constant_95</text>
<text text-anchor="middle" x="3030.5" y="-962.8" font-family="Times New Roman,serif" font-size="14.00">type_name: Constant</text>
<text text-anchor="middle" x="3030.5" y="-947.8" font-family="Times New Roman,serif" font-size="14.00">{f32}[]</text>
<text text-anchor="middle" x="3030.5" y="-932.8" font-family="Times New Roman,serif" font-size="14.00">value: [1.27</text>
<text text-anchor="middle" x="3030.5" y="-917.8" font-family="Times New Roman,serif" font-size="14.00">(min: 1.27, max: 1.27)]</text>
</g>
<!-- CLONE_9&#45;&gt;FakeQuantize_96 -->
<g id="edge16" class="edge"><title>CLONE_9&#45;&gt;FakeQuantize_96</title>
<path fill="none" stroke="black" d="M2943.82,-912.038C2911.01,-897.479 2872.27,-880.292 2833.84,-863.24"/>
<polygon fill="black" stroke="black" points="2835.17,-860 2824.61,-859.143 2832.33,-866.398 2835.17,-860"/>
<text text-anchor="middle" x="2917.5" y="-880.8" font-family="Times New Roman,serif" font-size="14.00"> 0 &#45;&gt; 4 </text>
</g>
<!-- CLONE_10 -->
<g id="node18" class="node"><title>CLONE_10</title>
<polygon fill="none" stroke="blue" stroke-dasharray="5,2" points="1289.5,-985.5 1149.5,-985.5 1149.5,-917.5 1289.5,-917.5 1289.5,-985.5"/>
<text text-anchor="middle" x="1219.5" y="-970.3" font-family="Times New Roman,serif" font-size="14.00">friendly_name: input2</text>
<text text-anchor="middle" x="1219.5" y="-955.3" font-family="Times New Roman,serif" font-size="14.00">name: Parameter_85</text>
<text text-anchor="middle" x="1219.5" y="-940.3" font-family="Times New Roman,serif" font-size="14.00">type_name: Parameter</text>
<text text-anchor="middle" x="1219.5" y="-925.3" font-family="Times New Roman,serif" font-size="14.00">{f32}[1,3,9,9]</text>
</g>
<!-- CLONE_10&#45;&gt;FakeQuantize_90 -->
<g id="edge17" class="edge"><title>CLONE_10&#45;&gt;FakeQuantize_90</title>
<path fill="none" stroke="black" d="M1283.6,-917.289C1288.63,-914.792 1293.64,-912.337 1298.5,-910 1330.68,-894.533 1365.13,-878.555 1398.6,-863.336"/>
<polygon fill="black" stroke="black" points="1400.35,-866.385 1408.01,-859.065 1397.46,-860.01 1400.35,-866.385"/>
<text text-anchor="middle" x="1382.5" y="-880.8" font-family="Times New Roman,serif" font-size="14.00"> 0 &#45;&gt; 0 </text>
</g>
<!-- CLONE_11 -->
<g id="node19" class="node"><title>CLONE_11</title>
<polygon fill="none" stroke="black" stroke-dasharray="5,2" points="1481,-993 1308,-993 1308,-910 1481,-910 1481,-993"/>
<text text-anchor="middle" x="1394.5" y="-977.8" font-family="Times New Roman,serif" font-size="14.00">friendly_name: Constant_86</text>
<text text-anchor="middle" x="1394.5" y="-962.8" font-family="Times New Roman,serif" font-size="14.00">type_name: Constant</text>
<text text-anchor="middle" x="1394.5" y="-947.8" font-family="Times New Roman,serif" font-size="14.00">{f32}[]</text>
<text text-anchor="middle" x="1394.5" y="-932.8" font-family="Times New Roman,serif" font-size="14.00">value: [&#45;0.64</text>
<text text-anchor="middle" x="1394.5" y="-917.8" font-family="Times New Roman,serif" font-size="14.00">(min: &#45;0.64, max: &#45;0.64)]</text>
</g>
<!-- CLONE_11&#45;&gt;FakeQuantize_90 -->
<g id="edge18" class="edge"><title>CLONE_11&#45;&gt;FakeQuantize_90</title>
<path fill="none" stroke="black" d="M1440.25,-909.901C1455.18,-896.651 1472.36,-881.404 1489.56,-866.141"/>
<polygon fill="black" stroke="black" points="1492.3,-868.389 1497.46,-859.134 1487.65,-863.153 1492.3,-868.389"/>
<text text-anchor="middle" x="1494.5" y="-880.8" font-family="Times New Roman,serif" font-size="14.00"> 0 &#45;&gt; 1 </text>
</g>
<!-- CLONE_12 -->
<g id="node20" class="node"><title>CLONE_12</title>
<polygon fill="none" stroke="black" stroke-dasharray="5,2" points="1672,-993 1499,-993 1499,-910 1672,-910 1672,-993"/>
<text text-anchor="middle" x="1585.5" y="-977.8" font-family="Times New Roman,serif" font-size="14.00">friendly_name: Constant_87</text>
<text text-anchor="middle" x="1585.5" y="-962.8" font-family="Times New Roman,serif" font-size="14.00">type_name: Constant</text>
<text text-anchor="middle" x="1585.5" y="-947.8" font-family="Times New Roman,serif" font-size="14.00">{f32}[]</text>
<text text-anchor="middle" x="1585.5" y="-932.8" font-family="Times New Roman,serif" font-size="14.00">value: [0.635</text>
<text text-anchor="middle" x="1585.5" y="-917.8" font-family="Times New Roman,serif" font-size="14.00">(min: 0.635, max: 0.635)]</text>
</g>
<!-- CLONE_12&#45;&gt;FakeQuantize_90 -->
<g id="edge19" class="edge"><title>CLONE_12&#45;&gt;FakeQuantize_90</title>
<path fill="none" stroke="black" d="M1585.5,-909.901C1585.5,-897.606 1585.5,-883.592 1585.5,-869.44"/>
<polygon fill="black" stroke="black" points="1589,-869.134 1585.5,-859.134 1582,-869.134 1589,-869.134"/>
<text text-anchor="middle" x="1606.5" y="-880.8" font-family="Times New Roman,serif" font-size="14.00"> 0 &#45;&gt; 2 </text>
</g>
<!-- CLONE_13 -->
<g id="node21" class="node"><title>CLONE_13</title>
<polygon fill="none" stroke="black" stroke-dasharray="5,2" points="1863,-993 1690,-993 1690,-910 1863,-910 1863,-993"/>
<text text-anchor="middle" x="1776.5" y="-977.8" font-family="Times New Roman,serif" font-size="14.00">friendly_name: Constant_88</text>
<text text-anchor="middle" x="1776.5" y="-962.8" font-family="Times New Roman,serif" font-size="14.00">type_name: Constant</text>
<text text-anchor="middle" x="1776.5" y="-947.8" font-family="Times New Roman,serif" font-size="14.00">{f32}[]</text>
<text text-anchor="middle" x="1776.5" y="-932.8" font-family="Times New Roman,serif" font-size="14.00">value: [&#45;0.64</text>
<text text-anchor="middle" x="1776.5" y="-917.8" font-family="Times New Roman,serif" font-size="14.00">(min: &#45;0.64, max: &#45;0.64)]</text>
</g>
<!-- CLONE_13&#45;&gt;FakeQuantize_90 -->
<g id="edge20" class="edge"><title>CLONE_13&#45;&gt;FakeQuantize_90</title>
<path fill="none" stroke="black" d="M1730.75,-909.901C1715.82,-896.651 1698.64,-881.404 1681.44,-866.141"/>
<polygon fill="black" stroke="black" points="1683.35,-863.153 1673.54,-859.134 1678.7,-868.389 1683.35,-863.153"/>
<text text-anchor="middle" x="1730.5" y="-880.8" font-family="Times New Roman,serif" font-size="14.00"> 0 &#45;&gt; 3 </text>
</g>
<!-- CLONE_14 -->
<g id="node22" class="node"><title>CLONE_14</title>
<polygon fill="none" stroke="black" stroke-dasharray="5,2" points="2054,-993 1881,-993 1881,-910 2054,-910 2054,-993"/>
<text text-anchor="middle" x="1967.5" y="-977.8" font-family="Times New Roman,serif" font-size="14.00">friendly_name: Constant_89</text>
<text text-anchor="middle" x="1967.5" y="-962.8" font-family="Times New Roman,serif" font-size="14.00">type_name: Constant</text>
<text text-anchor="middle" x="1967.5" y="-947.8" font-family="Times New Roman,serif" font-size="14.00">{f32}[]</text>
<text text-anchor="middle" x="1967.5" y="-932.8" font-family="Times New Roman,serif" font-size="14.00">value: [0.635</text>
<text text-anchor="middle" x="1967.5" y="-917.8" font-family="Times New Roman,serif" font-size="14.00">(min: 0.635, max: 0.635)]</text>
</g>
<!-- CLONE_14&#45;&gt;FakeQuantize_90 -->
<g id="edge21" class="edge"><title>CLONE_14&#45;&gt;FakeQuantize_90</title>
<path fill="none" stroke="black" d="M1880.82,-912.038C1848.01,-897.479 1809.27,-880.292 1770.84,-863.24"/>
<polygon fill="black" stroke="black" points="1772.17,-860 1761.61,-859.143 1769.33,-866.398 1772.17,-860"/>
<text text-anchor="middle" x="1854.5" y="-880.8" font-family="Times New Roman,serif" font-size="14.00"> 0 &#45;&gt; 4 </text>
</g>
<!-- Result_107 -->
<g id="node24" class="node"><title>Result_107</title>
<polygon fill="none" stroke="crimson" stroke-width="1.5" points="1351,-381 272,-381 272,-313 1351,-313 1351,-381"/>
<text text-anchor="middle" x="811.5" y="-365.8" font-family="Times New Roman,serif" font-size="14.00">friendly_name: Result_107</text>
<text text-anchor="middle" x="811.5" y="-350.8" font-family="Times New Roman,serif" font-size="14.00">type_name: Result</text>
<text text-anchor="middle" x="811.5" y="-335.8" font-family="Times New Roman,serif" font-size="14.00">in0: {f32}[1,6,9,9]: Concat_97: out0 LowPrecision::Precisions(2113893386304: sharedValue: 2113888800304, attributes: [2113893386304, 2113893385744, 2113893389104], precisions: [u8]) </text>
<text text-anchor="middle" x="811.5" y="-320.8" font-family="Times New Roman,serif" font-size="14.00">out0: {f32}[1,6,9,9]</text>
</g>
<!-- Concat_97&#45;&gt;Result_107 -->
<g id="edge22" class="edge"><title>Concat_97&#45;&gt;Result_107</title>
<path fill="none" stroke="black" d="M811.5,-476.799C811.5,-447.393 811.5,-415.732 811.5,-391.159"/>
<polygon fill="black" stroke="black" points="815,-391.089 811.5,-381.09 808,-391.09 815,-391.089"/>
<text text-anchor="middle" x="832.5" y="-447.8" font-family="Times New Roman,serif" font-size="14.00"> 0 &#45;&gt; 0 </text>
</g>
<!-- FakeQuantize_84 -->
<g id="node25" class="node"><title>FakeQuantize_84</title>
<polygon fill="none" stroke="black" points="1045,-859 0,-859 0,-701 1045,-701 1045,-859"/>
<text text-anchor="middle" x="522.5" y="-843.8" font-family="Times New Roman,serif" font-size="14.00">friendly_name: fakeQuantize1</text>
<text text-anchor="middle" x="522.5" y="-828.8" font-family="Times New Roman,serif" font-size="14.00">name: FakeQuantize_84</text>
<text text-anchor="middle" x="522.5" y="-813.8" font-family="Times New Roman,serif" font-size="14.00">type_name: FakeQuantize</text>
<text text-anchor="middle" x="522.5" y="-798.8" font-family="Times New Roman,serif" font-size="14.00">rt info: &#160;LowPrecision::IntervalsAlignment(2113893384736: sharedValue: 2113888797280, attributes: [2113893384736, 2113893389216, 2113893383952], low: &#45;0.426667, high: 0.423333)</text>
<text text-anchor="middle" x="522.5" y="-783.8" font-family="Times New Roman,serif" font-size="14.00">in0: {f32}[1,3,9,9]: Parameter_79: out0</text>
<text text-anchor="middle" x="522.5" y="-768.8" font-family="Times New Roman,serif" font-size="14.00">in1: {f32}[]: Constant_80: out0</text>
<text text-anchor="middle" x="522.5" y="-753.8" font-family="Times New Roman,serif" font-size="14.00">in2: {f32}[]: Constant_81: out0</text>
<text text-anchor="middle" x="522.5" y="-738.8" font-family="Times New Roman,serif" font-size="14.00">in3: {f32}[]: Constant_82: out0</text>
<text text-anchor="middle" x="522.5" y="-723.8" font-family="Times New Roman,serif" font-size="14.00">in4: {f32}[]: Constant_83: out0</text>
<text text-anchor="middle" x="522.5" y="-708.8" font-family="Times New Roman,serif" font-size="14.00">out0: {f32}[1,3,9,9] LowPrecision::Precisions(2113893386304: sharedValue: 2113888800304, attributes: [2113893386304, 2113893385744, 2113893389104], precisions: [u8]) </text>
</g>
<!-- FakeQuantize_84&#45;&gt;Concat_97 -->
<g id="edge23" class="edge"><title>FakeQuantize_84&#45;&gt;Concat_97</title>
<path fill="none" stroke="black" d="M627.653,-700.954C647.228,-686.425 667.846,-671.122 687.914,-656.227"/>
<polygon fill="black" stroke="black" points="690.229,-658.868 696.173,-650.097 686.057,-653.247 690.229,-658.868"/>
<text text-anchor="middle" x="688.5" y="-671.8" font-family="Times New Roman,serif" font-size="14.00"> 0 &#45;&gt; 0 </text>
</g>
<!-- CLONE_15 -->
<g id="node26" class="node"><title>CLONE_15</title>
<polygon fill="none" stroke="blue" stroke-dasharray="5,2" points="181.5,-985.5 41.5,-985.5 41.5,-917.5 181.5,-917.5 181.5,-985.5"/>
<text text-anchor="middle" x="111.5" y="-970.3" font-family="Times New Roman,serif" font-size="14.00">friendly_name: input1</text>
<text text-anchor="middle" x="111.5" y="-955.3" font-family="Times New Roman,serif" font-size="14.00">name: Parameter_79</text>
<text text-anchor="middle" x="111.5" y="-940.3" font-family="Times New Roman,serif" font-size="14.00">type_name: Parameter</text>
<text text-anchor="middle" x="111.5" y="-925.3" font-family="Times New Roman,serif" font-size="14.00">{f32}[1,3,9,9]</text>
</g>
<!-- CLONE_15&#45;&gt;FakeQuantize_84 -->
<g id="edge25" class="edge"><title>CLONE_15&#45;&gt;FakeQuantize_84</title>
<path fill="none" stroke="black" d="M174.605,-917.423C179.949,-914.844 185.298,-912.337 190.5,-910 226.251,-893.942 264.649,-877.928 302.192,-862.921"/>
<polygon fill="black" stroke="black" points="303.721,-866.08 311.717,-859.128 301.131,-859.576 303.721,-866.08"/>
<text text-anchor="middle" x="283.5" y="-880.8" font-family="Times New Roman,serif" font-size="14.00"> 0 &#45;&gt; 0 </text>
</g>
<!-- CLONE_16 -->
<g id="node27" class="node"><title>CLONE_16</title>
<polygon fill="none" stroke="black" stroke-dasharray="5,2" points="405.5,-993 199.5,-993 199.5,-910 405.5,-910 405.5,-993"/>
<text text-anchor="middle" x="302.5" y="-977.8" font-family="Times New Roman,serif" font-size="14.00">friendly_name: Constant_80</text>
<text text-anchor="middle" x="302.5" y="-962.8" font-family="Times New Roman,serif" font-size="14.00">type_name: Constant</text>
<text text-anchor="middle" x="302.5" y="-947.8" font-family="Times New Roman,serif" font-size="14.00">{f32}[]</text>
<text text-anchor="middle" x="302.5" y="-932.8" font-family="Times New Roman,serif" font-size="14.00">value: [&#45;0.426667</text>
<text text-anchor="middle" x="302.5" y="-917.8" font-family="Times New Roman,serif" font-size="14.00">(min: &#45;0.426667, max: &#45;0.426667)]</text>
</g>
<!-- CLONE_16&#45;&gt;FakeQuantize_84 -->
<g id="edge26" class="edge"><title>CLONE_16&#45;&gt;FakeQuantize_84</title>
<path fill="none" stroke="black" d="M355.195,-909.901C372.702,-896.412 392.896,-880.854 413.064,-865.316"/>
<polygon fill="black" stroke="black" points="415.302,-868.009 421.088,-859.134 411.03,-862.464 415.302,-868.009"/>
<text text-anchor="middle" x="414.5" y="-880.8" font-family="Times New Roman,serif" font-size="14.00"> 0 &#45;&gt; 1 </text>
</g>
<!-- CLONE_17 -->
<g id="node28" class="node"><title>CLONE_17</title>
<polygon fill="none" stroke="black" stroke-dasharray="5,2" points="621,-993 424,-993 424,-910 621,-910 621,-993"/>
<text text-anchor="middle" x="522.5" y="-977.8" font-family="Times New Roman,serif" font-size="14.00">friendly_name: Constant_81</text>
<text text-anchor="middle" x="522.5" y="-962.8" font-family="Times New Roman,serif" font-size="14.00">type_name: Constant</text>
<text text-anchor="middle" x="522.5" y="-947.8" font-family="Times New Roman,serif" font-size="14.00">{f32}[]</text>
<text text-anchor="middle" x="522.5" y="-932.8" font-family="Times New Roman,serif" font-size="14.00">value: [0.423333</text>
<text text-anchor="middle" x="522.5" y="-917.8" font-family="Times New Roman,serif" font-size="14.00">(min: 0.423333, max: 0.423333)]</text>
</g>
<!-- CLONE_17&#45;&gt;FakeQuantize_84 -->
<g id="edge27" class="edge"><title>CLONE_17&#45;&gt;FakeQuantize_84</title>
<path fill="none" stroke="black" d="M522.5,-909.901C522.5,-897.606 522.5,-883.592 522.5,-869.44"/>
<polygon fill="black" stroke="black" points="526,-869.134 522.5,-859.134 519,-869.134 526,-869.134"/>
<text text-anchor="middle" x="543.5" y="-880.8" font-family="Times New Roman,serif" font-size="14.00"> 0 &#45;&gt; 2 </text>
</g>
<!-- CLONE_18 -->
<g id="node29" class="node"><title>CLONE_18</title>
<polygon fill="none" stroke="black" stroke-dasharray="5,2" points="845.5,-993 639.5,-993 639.5,-910 845.5,-910 845.5,-993"/>
<text text-anchor="middle" x="742.5" y="-977.8" font-family="Times New Roman,serif" font-size="14.00">friendly_name: Constant_82</text>
<text text-anchor="middle" x="742.5" y="-962.8" font-family="Times New Roman,serif" font-size="14.00">type_name: Constant</text>
<text text-anchor="middle" x="742.5" y="-947.8" font-family="Times New Roman,serif" font-size="14.00">{f32}[]</text>
<text text-anchor="middle" x="742.5" y="-932.8" font-family="Times New Roman,serif" font-size="14.00">value: [&#45;0.426667</text>
<text text-anchor="middle" x="742.5" y="-917.8" font-family="Times New Roman,serif" font-size="14.00">(min: &#45;0.426667, max: &#45;0.426667)]</text>
</g>
<!-- CLONE_18&#45;&gt;FakeQuantize_84 -->
<g id="edge28" class="edge"><title>CLONE_18&#45;&gt;FakeQuantize_84</title>
<path fill="none" stroke="black" d="M689.805,-909.901C672.298,-896.412 652.104,-880.854 631.936,-865.316"/>
<polygon fill="black" stroke="black" points="633.97,-862.464 623.912,-859.134 629.698,-868.009 633.97,-862.464"/>
<text text-anchor="middle" x="686.5" y="-880.8" font-family="Times New Roman,serif" font-size="14.00"> 0 &#45;&gt; 3 </text>
</g>
<!-- CLONE_19 -->
<g id="node30" class="node"><title>CLONE_19</title>
<polygon fill="none" stroke="black" stroke-dasharray="5,2" points="1061,-993 864,-993 864,-910 1061,-910 1061,-993"/>
<text text-anchor="middle" x="962.5" y="-977.8" font-family="Times New Roman,serif" font-size="14.00">friendly_name: Constant_83</text>
<text text-anchor="middle" x="962.5" y="-962.8" font-family="Times New Roman,serif" font-size="14.00">type_name: Constant</text>
<text text-anchor="middle" x="962.5" y="-947.8" font-family="Times New Roman,serif" font-size="14.00">{f32}[]</text>
<text text-anchor="middle" x="962.5" y="-932.8" font-family="Times New Roman,serif" font-size="14.00">value: [0.423333</text>
<text text-anchor="middle" x="962.5" y="-917.8" font-family="Times New Roman,serif" font-size="14.00">(min: 0.423333, max: 0.423333)]</text>
</g>
<!-- CLONE_19&#45;&gt;FakeQuantize_84 -->
<g id="edge29" class="edge"><title>CLONE_19&#45;&gt;FakeQuantize_84</title>
<path fill="none" stroke="black" d="M863.755,-912.461C825.435,-897.699 779.976,-880.187 734.941,-862.838"/>
<polygon fill="black" stroke="black" points="735.929,-859.468 725.34,-859.139 733.413,-866 735.929,-859.468"/>
<text text-anchor="middle" x="829.5" y="-880.8" font-family="Times New Roman,serif" font-size="14.00"> 0 &#45;&gt; 4 </text>
</g>
</g>
</svg>
