<?xml version="1.0" encoding="UTF-8" standalone="no"?>
<!DOCTYPE svg PUBLIC "-//W3C//DTD SVG 1.1//EN"
 "http://www.w3.org/Graphics/SVG/1.1/DTD/svg11.dtd">
<!-- Generated by graphviz version 2.43.20200408.0903 (20200408.0903)
 -->
<!-- Title: ngraph Pages: 1 -->
<svg width="3300pt" height="911pt"
 viewBox="0.00 0.00 3299.50 911.00" xmlns="http://www.w3.org/2000/svg" xmlns:xlink="http://www.w3.org/1999/xlink">
<g id="graph0" class="graph" transform="scale(1 1) rotate(0) translate(4 907)">
<title>ngraph</title>
<polygon fill="white" stroke="transparent" points="-4,4 -4,-907 3295.5,-907 3295.5,4 -4,4"/>
<!-- Convolution_106 -->
<g id="node1" class="node">
<title>Convolution_106</title>
<polygon fill="none" stroke="black" points="2352,-217 1882,-217 1882,-119 2352,-119 2352,-217"/>
<text text-anchor="middle" x="2117" y="-201.8" font-family="Times New Roman,serif" font-size="14.00">friendly_name: convolution</text>
<text text-anchor="middle" x="2117" y="-186.8" font-family="Times New Roman,serif" font-size="14.00">name: Convolution_106</text>
<text text-anchor="middle" x="2117" y="-171.8" font-family="Times New Roman,serif" font-size="14.00">type_name: Convolution</text>
<text text-anchor="middle" x="2117" y="-156.8" font-family="Times New Roman,serif" font-size="14.00">in0: {f32}[1,6,7,7]: MaxPool_99: out0 PRECISIONS(2588780584112: u8}) </text>
<text text-anchor="middle" x="2117" y="-141.8" font-family="Times New Roman,serif" font-size="14.00">in1: {f32}[9,6,1,1]: FakeQuantize_105: out0 PRECISIONS(2588780584336: i8}) </text>
<text text-anchor="middle" x="2117" y="-126.8" font-family="Times New Roman,serif" font-size="14.00">out0: {f32}[1,9,7,7]</text>
</g>
<!-- Result_108 -->
<g id="node2" class="node">
<title>Result_108</title>
<polygon fill="none" stroke="crimson" stroke-width="1.5" points="2244,-68 1990,-68 1990,0 2244,0 2244,-68"/>
<text text-anchor="middle" x="2117" y="-52.8" font-family="Times New Roman,serif" font-size="14.00">friendly_name: Result_108</text>
<text text-anchor="middle" x="2117" y="-37.8" font-family="Times New Roman,serif" font-size="14.00">type_name: Result</text>
<text text-anchor="middle" x="2117" y="-22.8" font-family="Times New Roman,serif" font-size="14.00">in0: {f32}[1,9,7,7]: Convolution_106: out0</text>
<text text-anchor="middle" x="2117" y="-7.8" font-family="Times New Roman,serif" font-size="14.00">out0: {f32}[1,9,7,7]</text>
</g>
<!-- Convolution_106&#45;&gt;Result_108 -->
<g id="edge1" class="edge">
<title>Convolution_106&#45;&gt;Result_108</title>
<path fill="none" stroke="black" d="M2117,-118.97C2117,-105.71 2117,-91.4 2117,-78.42"/>
<polygon fill="black" stroke="black" points="2120.5,-78.33 2117,-68.33 2113.5,-78.33 2120.5,-78.33"/>
<text text-anchor="middle" x="2138" y="-89.8" font-family="Times New Roman,serif" font-size="14.00"> 0 &#45;&gt; 0 </text>
</g>
<!-- MaxPool_99 -->
<g id="node3" class="node">
<title>MaxPool_99</title>
<polygon fill="none" stroke="black" points="2121.5,-388.5 1834.5,-388.5 1834.5,-290.5 2121.5,-290.5 2121.5,-388.5"/>
<text text-anchor="middle" x="1978" y="-373.3" font-family="Times New Roman,serif" font-size="14.00">friendly_name: MaxPool</text>
<text text-anchor="middle" x="1978" y="-358.3" font-family="Times New Roman,serif" font-size="14.00">name: MaxPool_99</text>
<text text-anchor="middle" x="1978" y="-343.3" font-family="Times New Roman,serif" font-size="14.00">type_name: MaxPool</text>
<text text-anchor="middle" x="1978" y="-328.3" font-family="Times New Roman,serif" font-size="14.00">rt info: &#160;PRECISION_PRESERVED(value: true)</text>
<text text-anchor="middle" x="1978" y="-313.3" font-family="Times New Roman,serif" font-size="14.00">in0: {f32}[1,6,9,9]: Concat_98: out0</text>
<text text-anchor="middle" x="1978" y="-298.3" font-family="Times New Roman,serif" font-size="14.00">out0: {f32}[1,6,7,7]</text>
</g>
<!-- MaxPool_99&#45;&gt;Convolution_106 -->
<g id="edge2" class="edge">
<title>MaxPool_99&#45;&gt;Convolution_106</title>
<path fill="none" stroke="black" d="M2017.46,-290.38C2034.11,-270.07 2053.62,-246.29 2070.93,-225.18"/>
<polygon fill="black" stroke="black" points="2073.81,-227.19 2077.44,-217.24 2068.39,-222.75 2073.81,-227.19"/>
<text text-anchor="middle" x="2081" y="-238.8" font-family="Times New Roman,serif" font-size="14.00"> 0 &#45;&gt; 0 </text>
</g>
<!-- FakeQuantize_105 -->
<g id="node4" class="node">
<title>FakeQuantize_105</title>
<polygon fill="none" stroke="black" points="2416.5,-411 2179.5,-411 2179.5,-268 2416.5,-268 2416.5,-411"/>
<text text-anchor="middle" x="2298" y="-395.8" font-family="Times New Roman,serif" font-size="14.00">friendly_name: fakeQuantizeOnWeights</text>
<text text-anchor="middle" x="2298" y="-380.8" font-family="Times New Roman,serif" font-size="14.00">name: FakeQuantize_105</text>
<text text-anchor="middle" x="2298" y="-365.8" font-family="Times New Roman,serif" font-size="14.00">type_name: FakeQuantize</text>
<text text-anchor="middle" x="2298" y="-350.8" font-family="Times New Roman,serif" font-size="14.00">in0: {f32}[9,6,1,1]: Constant_100: out0</text>
<text text-anchor="middle" x="2298" y="-335.8" font-family="Times New Roman,serif" font-size="14.00">in1: {f32}[9,1,1,1]: Constant_101: out0</text>
<text text-anchor="middle" x="2298" y="-320.8" font-family="Times New Roman,serif" font-size="14.00">in2: {f32}[9,1,1,1]: Constant_102: out0</text>
<text text-anchor="middle" x="2298" y="-305.8" font-family="Times New Roman,serif" font-size="14.00">in3: {f32}[9,1,1,1]: Constant_103: out0</text>
<text text-anchor="middle" x="2298" y="-290.8" font-family="Times New Roman,serif" font-size="14.00">in4: {f32}[9,1,1,1]: Constant_104: out0</text>
<text text-anchor="middle" x="2298" y="-275.8" font-family="Times New Roman,serif" font-size="14.00">out0: {f32}[9,6,1,1]</text>
</g>
<!-- FakeQuantize_105&#45;&gt;Convolution_106 -->
<g id="edge3" class="edge">
<title>FakeQuantize_105&#45;&gt;Convolution_106</title>
<path fill="none" stroke="black" d="M2222.55,-267.84C2207.02,-253.3 2190.88,-238.19 2176.04,-224.29"/>
<polygon fill="black" stroke="black" points="2178.09,-221.42 2168.4,-217.13 2173.31,-226.52 2178.09,-221.42"/>
<text text-anchor="middle" x="2224" y="-238.8" font-family="Times New Roman,serif" font-size="14.00"> 0 &#45;&gt; 1 </text>
</g>
<!-- CLONE_0 -->
<g id="node5" class="node">
<title>CLONE_0</title>
<polygon fill="none" stroke="black" stroke-dasharray="5,2" points="1943.5,-582.5 1726.5,-582.5 1726.5,-469.5 1943.5,-469.5 1943.5,-582.5"/>
<text text-anchor="middle" x="1835" y="-567.3" font-family="Times New Roman,serif" font-size="14.00">friendly_name: Constant_100</text>
<text text-anchor="middle" x="1835" y="-552.3" font-family="Times New Roman,serif" font-size="14.00">type_name: Constant</text>
<text text-anchor="middle" x="1835" y="-537.3" font-family="Times New Roman,serif" font-size="14.00">{f32}[9,6,1,1]</text>
<text text-anchor="middle" x="1835" y="-522.3" font-family="Times New Roman,serif" font-size="14.00">value: [54, 54, 54, 54, 54, 54, 54, 54</text>
<text text-anchor="middle" x="1835" y="-507.3" font-family="Times New Roman,serif" font-size="14.00">, 54, 54, 54, 54, 54, 54, 54, 54</text>
<text text-anchor="middle" x="1835" y="-492.3" font-family="Times New Roman,serif" font-size="14.00">, 54, 54, 54, 54, 54, 54, 54, 54</text>
<text text-anchor="middle" x="1835" y="-477.3" font-family="Times New Roman,serif" font-size="14.00">, 54, 54, 54, 54, 54, 54, 54, 54...]</text>
</g>
<!-- CLONE_0&#45;&gt;FakeQuantize_105 -->
<g id="edge4" class="edge">
<title>CLONE_0&#45;&gt;FakeQuantize_105</title>
<path fill="none" stroke="black" d="M1934.85,-469.44C1940.59,-466.81 1946.34,-464.3 1952,-462 2028.22,-430.98 2052.37,-438.3 2130,-411 2142.97,-406.44 2156.37,-401.4 2169.69,-396.17"/>
<polygon fill="black" stroke="black" points="2171.36,-399.27 2179.37,-392.33 2168.78,-392.76 2171.36,-399.27"/>
<text text-anchor="middle" x="2087" y="-432.8" font-family="Times New Roman,serif" font-size="14.00"> 0 &#45;&gt; 0 </text>
</g>
<!-- CLONE_1 -->
<g id="node6" class="node">
<title>CLONE_1</title>
<polygon fill="none" stroke="black" stroke-dasharray="5,2" points="2298.5,-567.5 1961.5,-567.5 1961.5,-484.5 2298.5,-484.5 2298.5,-567.5"/>
<text text-anchor="middle" x="2130" y="-552.3" font-family="Times New Roman,serif" font-size="14.00">friendly_name: Constant_101</text>
<text text-anchor="middle" x="2130" y="-537.3" font-family="Times New Roman,serif" font-size="14.00">type_name: Constant</text>
<text text-anchor="middle" x="2130" y="-522.3" font-family="Times New Roman,serif" font-size="14.00">{f32}[9,1,1,1]</text>
<text text-anchor="middle" x="2130" y="-507.3" font-family="Times New Roman,serif" font-size="14.00">value: [&#45;1.27, &#45;1.27, &#45;1.27, &#45;1.27, &#45;1.27, &#45;1.27, &#45;1.27, &#45;1.27</text>
<text text-anchor="middle" x="2130" y="-492.3" font-family="Times New Roman,serif" font-size="14.00">, &#45;1.27]</text>
</g>
<!-- CLONE_1&#45;&gt;FakeQuantize_105 -->
<g id="edge5" class="edge">
<title>CLONE_1&#45;&gt;FakeQuantize_105</title>
<path fill="none" stroke="black" d="M2167.28,-484.05C2184.83,-464.79 2206.36,-441.14 2226.84,-418.64"/>
<polygon fill="black" stroke="black" points="2229.6,-420.82 2233.74,-411.07 2224.42,-416.1 2229.6,-420.82"/>
<text text-anchor="middle" x="2235" y="-432.8" font-family="Times New Roman,serif" font-size="14.00"> 0 &#45;&gt; 1 </text>
</g>
<!-- CLONE_2 -->
<g id="node7" class="node">
<title>CLONE_2</title>
<polygon fill="none" stroke="black" stroke-dasharray="5,2" points="2617.5,-567.5 2316.5,-567.5 2316.5,-484.5 2617.5,-484.5 2617.5,-567.5"/>
<text text-anchor="middle" x="2467" y="-552.3" font-family="Times New Roman,serif" font-size="14.00">friendly_name: Constant_102</text>
<text text-anchor="middle" x="2467" y="-537.3" font-family="Times New Roman,serif" font-size="14.00">type_name: Constant</text>
<text text-anchor="middle" x="2467" y="-522.3" font-family="Times New Roman,serif" font-size="14.00">{f32}[9,1,1,1]</text>
<text text-anchor="middle" x="2467" y="-507.3" font-family="Times New Roman,serif" font-size="14.00">value: [1.27, 1.27, 1.27, 1.27, 1.27, 1.27, 1.27, 1.27</text>
<text text-anchor="middle" x="2467" y="-492.3" font-family="Times New Roman,serif" font-size="14.00">, 1.27]</text>
</g>
<!-- CLONE_2&#45;&gt;FakeQuantize_105 -->
<g id="edge6" class="edge">
<title>CLONE_2&#45;&gt;FakeQuantize_105</title>
<path fill="none" stroke="black" d="M2429.49,-484.05C2411.85,-464.79 2390.19,-441.14 2369.58,-418.64"/>
<polygon fill="black" stroke="black" points="2371.97,-416.08 2362.64,-411.07 2366.81,-420.8 2371.97,-416.08"/>
<text text-anchor="middle" x="2414" y="-432.8" font-family="Times New Roman,serif" font-size="14.00"> 0 &#45;&gt; 2 </text>
</g>
<!-- CLONE_3 -->
<g id="node8" class="node">
<title>CLONE_3</title>
<polygon fill="none" stroke="black" stroke-dasharray="5,2" points="2972.5,-567.5 2635.5,-567.5 2635.5,-484.5 2972.5,-484.5 2972.5,-567.5"/>
<text text-anchor="middle" x="2804" y="-552.3" font-family="Times New Roman,serif" font-size="14.00">friendly_name: Constant_103</text>
<text text-anchor="middle" x="2804" y="-537.3" font-family="Times New Roman,serif" font-size="14.00">type_name: Constant</text>
<text text-anchor="middle" x="2804" y="-522.3" font-family="Times New Roman,serif" font-size="14.00">{f32}[9,1,1,1]</text>
<text text-anchor="middle" x="2804" y="-507.3" font-family="Times New Roman,serif" font-size="14.00">value: [&#45;1.27, &#45;1.27, &#45;1.27, &#45;1.27, &#45;1.27, &#45;1.27, &#45;1.27, &#45;1.27</text>
<text text-anchor="middle" x="2804" y="-492.3" font-family="Times New Roman,serif" font-size="14.00">, &#45;1.27]</text>
</g>
<!-- CLONE_3&#45;&gt;FakeQuantize_105 -->
<g id="edge7" class="edge">
<title>CLONE_3&#45;&gt;FakeQuantize_105</title>
<path fill="none" stroke="black" d="M2692.64,-484.4C2613.91,-455.69 2508.18,-417.14 2425.97,-387.16"/>
<polygon fill="black" stroke="black" points="2427.17,-383.87 2416.58,-383.74 2424.77,-390.45 2427.17,-383.87"/>
<text text-anchor="middle" x="2603" y="-432.8" font-family="Times New Roman,serif" font-size="14.00"> 0 &#45;&gt; 3 </text>
</g>
<!-- CLONE_4 -->
<g id="node9" class="node">
<title>CLONE_4</title>
<polygon fill="none" stroke="black" stroke-dasharray="5,2" points="3291.5,-567.5 2990.5,-567.5 2990.5,-484.5 3291.5,-484.5 3291.5,-567.5"/>
<text text-anchor="middle" x="3141" y="-552.3" font-family="Times New Roman,serif" font-size="14.00">friendly_name: Constant_104</text>
<text text-anchor="middle" x="3141" y="-537.3" font-family="Times New Roman,serif" font-size="14.00">type_name: Constant</text>
<text text-anchor="middle" x="3141" y="-522.3" font-family="Times New Roman,serif" font-size="14.00">{f32}[9,1,1,1]</text>
<text text-anchor="middle" x="3141" y="-507.3" font-family="Times New Roman,serif" font-size="14.00">value: [1.27, 1.27, 1.27, 1.27, 1.27, 1.27, 1.27, 1.27</text>
<text text-anchor="middle" x="3141" y="-492.3" font-family="Times New Roman,serif" font-size="14.00">, 1.27]</text>
</g>
<!-- CLONE_4&#45;&gt;FakeQuantize_105 -->
<g id="edge8" class="edge">
<title>CLONE_4&#45;&gt;FakeQuantize_105</title>
<path fill="none" stroke="black" d="M3046.89,-484.35C3025.5,-476.13 3002.69,-468.13 2981,-462 2791.48,-408.41 2565.38,-373.71 2426.77,-355.63"/>
<polygon fill="black" stroke="black" points="2426.9,-352.12 2416.53,-354.3 2426,-359.06 2426.9,-352.12"/>
<text text-anchor="middle" x="2930" y="-432.8" font-family="Times New Roman,serif" font-size="14.00"> 0 &#45;&gt; 4 </text>
</g>
<!-- Concat_98 -->
<g id="node10" class="node">
<title>Concat_98</title>
<polygon fill="none" stroke="black" points="1708.5,-590 1421.5,-590 1421.5,-462 1708.5,-462 1708.5,-590"/>
<text text-anchor="middle" x="1565" y="-574.8" font-family="Times New Roman,serif" font-size="14.00">friendly_name: concat2</text>
<text text-anchor="middle" x="1565" y="-559.8" font-family="Times New Roman,serif" font-size="14.00">name: Concat_98</text>
<text text-anchor="middle" x="1565" y="-544.8" font-family="Times New Roman,serif" font-size="14.00">type_name: Concat</text>
<text text-anchor="middle" x="1565" y="-529.8" font-family="Times New Roman,serif" font-size="14.00">rt info: &#160;PRECISION_PRESERVED(value: true)</text>
<text text-anchor="middle" x="1565" y="-514.8" font-family="Times New Roman,serif" font-size="14.00">Variant::std::string</text>
<text text-anchor="middle" x="1565" y="-499.8" font-family="Times New Roman,serif" font-size="14.00">in0: {f32}[1,3,9,9]: FakeQuantize_90: out0</text>
<text text-anchor="middle" x="1565" y="-484.8" font-family="Times New Roman,serif" font-size="14.00">in1: {f32}[1,3,9,9]: FakeQuantize_96: out0</text>
<text text-anchor="middle" x="1565" y="-469.8" font-family="Times New Roman,serif" font-size="14.00">out0: {f32}[1,6,9,9]</text>
</g>
<!-- Concat_98&#45;&gt;MaxPool_99 -->
<g id="edge9" class="edge">
<title>Concat_98&#45;&gt;MaxPool_99</title>
<path fill="none" stroke="black" d="M1698.8,-461.89C1722.78,-450.8 1747.58,-439.46 1771,-429 1797.93,-416.97 1826.97,-404.34 1854.54,-392.51"/>
<polygon fill="black" stroke="black" points="1856.02,-395.69 1863.83,-388.54 1853.26,-389.26 1856.02,-395.69"/>
<text text-anchor="middle" x="1792" y="-432.8" font-family="Times New Roman,serif" font-size="14.00"> 0 &#45;&gt; 0 </text>
</g>
<!-- FakeQuantize_90 -->
<g id="node11" class="node">
<title>FakeQuantize_90</title>
<polygon fill="none" stroke="black" points="1475.5,-784 1242.5,-784 1242.5,-641 1475.5,-641 1475.5,-784"/>
<text text-anchor="middle" x="1359" y="-768.8" font-family="Times New Roman,serif" font-size="14.00">friendly_name: fakeQuantize2</text>
<text text-anchor="middle" x="1359" y="-753.8" font-family="Times New Roman,serif" font-size="14.00">name: FakeQuantize_90</text>
<text text-anchor="middle" x="1359" y="-738.8" font-family="Times New Roman,serif" font-size="14.00">type_name: FakeQuantize</text>
<text text-anchor="middle" x="1359" y="-723.8" font-family="Times New Roman,serif" font-size="14.00">in0: {f32}[1,3,9,9]: Parameter_85: out0</text>
<text text-anchor="middle" x="1359" y="-708.8" font-family="Times New Roman,serif" font-size="14.00">in1: {f32}[]: Constant_86: out0</text>
<text text-anchor="middle" x="1359" y="-693.8" font-family="Times New Roman,serif" font-size="14.00">in2: {f32}[]: Constant_87: out0</text>
<text text-anchor="middle" x="1359" y="-678.8" font-family="Times New Roman,serif" font-size="14.00">in3: {f32}[]: Constant_88: out0</text>
<text text-anchor="middle" x="1359" y="-663.8" font-family="Times New Roman,serif" font-size="14.00">in4: {f32}[]: Constant_89: out0</text>
<text text-anchor="middle" x="1359" y="-648.8" font-family="Times New Roman,serif" font-size="14.00">out0: {f32}[1,3,9,9]</text>
</g>
<!-- FakeQuantize_90&#45;&gt;Concat_98 -->
<g id="edge10" class="edge">
<title>FakeQuantize_90&#45;&gt;Concat_98</title>
<path fill="none" stroke="black" d="M1437.76,-640.96C1453.77,-626.62 1470.61,-611.54 1486.6,-597.22"/>
<polygon fill="black" stroke="black" points="1489.26,-599.53 1494.38,-590.25 1484.59,-594.31 1489.26,-599.53"/>
<text text-anchor="middle" x="1496" y="-611.8" font-family="Times New Roman,serif" font-size="14.00"> 0 &#45;&gt; 0 </text>
</g>
<!-- Concat_97 -->
<g id="node23" class="node">
<title>Concat_97</title>
<polygon fill="none" stroke="black" points="1296.5,-590 1009.5,-590 1009.5,-462 1296.5,-462 1296.5,-590"/>
<text text-anchor="middle" x="1153" y="-574.8" font-family="Times New Roman,serif" font-size="14.00">friendly_name: concat1</text>
<text text-anchor="middle" x="1153" y="-559.8" font-family="Times New Roman,serif" font-size="14.00">name: Concat_97</text>
<text text-anchor="middle" x="1153" y="-544.8" font-family="Times New Roman,serif" font-size="14.00">type_name: Concat</text>
<text text-anchor="middle" x="1153" y="-529.8" font-family="Times New Roman,serif" font-size="14.00">rt info: &#160;PRECISION_PRESERVED(value: true)</text>
<text text-anchor="middle" x="1153" y="-514.8" font-family="Times New Roman,serif" font-size="14.00">Variant::std::string</text>
<text text-anchor="middle" x="1153" y="-499.8" font-family="Times New Roman,serif" font-size="14.00">in0: {f32}[1,3,9,9]: FakeQuantize_84: out0</text>
<text text-anchor="middle" x="1153" y="-484.8" font-family="Times New Roman,serif" font-size="14.00">in1: {f32}[1,3,9,9]: FakeQuantize_90: out0</text>
<text text-anchor="middle" x="1153" y="-469.8" font-family="Times New Roman,serif" font-size="14.00">out0: {f32}[1,6,9,9]</text>
</g>
<!-- FakeQuantize_90&#45;&gt;Concat_97 -->
<g id="edge24" class="edge">
<title>FakeQuantize_90&#45;&gt;Concat_97</title>
<path fill="none" stroke="black" d="M1280.24,-640.96C1264.23,-626.62 1247.39,-611.54 1231.4,-597.22"/>
<polygon fill="black" stroke="black" points="1233.41,-594.31 1223.62,-590.25 1228.74,-599.53 1233.41,-594.31"/>
<text text-anchor="middle" x="1277" y="-611.8" font-family="Times New Roman,serif" font-size="14.00"> 0 &#45;&gt; 1 </text>
</g>
<!-- FakeQuantize_96 -->
<g id="node12" class="node">
<title>FakeQuantize_96</title>
<polygon fill="none" stroke="black" points="2302.5,-784 2069.5,-784 2069.5,-641 2302.5,-641 2302.5,-784"/>
<text text-anchor="middle" x="2186" y="-768.8" font-family="Times New Roman,serif" font-size="14.00">friendly_name: fakeQuantize3</text>
<text text-anchor="middle" x="2186" y="-753.8" font-family="Times New Roman,serif" font-size="14.00">name: FakeQuantize_96</text>
<text text-anchor="middle" x="2186" y="-738.8" font-family="Times New Roman,serif" font-size="14.00">type_name: FakeQuantize</text>
<text text-anchor="middle" x="2186" y="-723.8" font-family="Times New Roman,serif" font-size="14.00">in0: {f32}[1,3,9,9]: Parameter_91: out0</text>
<text text-anchor="middle" x="2186" y="-708.8" font-family="Times New Roman,serif" font-size="14.00">in1: {f32}[]: Constant_92: out0</text>
<text text-anchor="middle" x="2186" y="-693.8" font-family="Times New Roman,serif" font-size="14.00">in2: {f32}[]: Constant_93: out0</text>
<text text-anchor="middle" x="2186" y="-678.8" font-family="Times New Roman,serif" font-size="14.00">in3: {f32}[]: Constant_94: out0</text>
<text text-anchor="middle" x="2186" y="-663.8" font-family="Times New Roman,serif" font-size="14.00">in4: {f32}[]: Constant_95: out0</text>
<text text-anchor="middle" x="2186" y="-648.8" font-family="Times New Roman,serif" font-size="14.00">out0: {f32}[1,3,9,9]</text>
</g>
<!-- FakeQuantize_96&#45;&gt;Concat_98 -->
<g id="edge11" class="edge">
<title>FakeQuantize_96&#45;&gt;Concat_98</title>
<path fill="none" stroke="black" d="M2069.04,-685.98C1975.78,-664.53 1842.04,-631.28 1718.46,-590.41"/>
<polygon fill="black" stroke="black" points="1719.41,-587.04 1708.82,-587.21 1717.2,-593.69 1719.41,-587.04"/>
<text text-anchor="middle" x="1840" y="-611.8" font-family="Times New Roman,serif" font-size="14.00"> 0 &#45;&gt; 1 </text>
</g>
<!-- CLONE_5 -->
<g id="node13" class="node">
<title>CLONE_5</title>
<polygon fill="none" stroke="blue" stroke-dasharray="5,2" points="1986,-903 1846,-903 1846,-835 1986,-835 1986,-903"/>
<text text-anchor="middle" x="1916" y="-887.8" font-family="Times New Roman,serif" font-size="14.00">friendly_name: input3</text>
<text text-anchor="middle" x="1916" y="-872.8" font-family="Times New Roman,serif" font-size="14.00">name: Parameter_91</text>
<text text-anchor="middle" x="1916" y="-857.8" font-family="Times New Roman,serif" font-size="14.00">type_name: Parameter</text>
<text text-anchor="middle" x="1916" y="-842.8" font-family="Times New Roman,serif" font-size="14.00">{f32}[1,3,9,9]</text>
</g>
<!-- CLONE_5&#45;&gt;FakeQuantize_96 -->
<g id="edge12" class="edge">
<title>CLONE_5&#45;&gt;FakeQuantize_96</title>
<path fill="none" stroke="black" d="M1973.92,-834.86C1999.31,-820.33 2030.16,-802.67 2060.38,-785.38"/>
<polygon fill="black" stroke="black" points="2062.37,-788.28 2069.31,-780.27 2058.89,-782.2 2062.37,-788.28"/>
<text text-anchor="middle" x="2048" y="-805.8" font-family="Times New Roman,serif" font-size="14.00"> 0 &#45;&gt; 0 </text>
</g>
<!-- CLONE_6 -->
<g id="node14" class="node">
<title>CLONE_6</title>
<polygon fill="none" stroke="black" stroke-dasharray="5,2" points="2177.5,-903 2004.5,-903 2004.5,-835 2177.5,-835 2177.5,-903"/>
<text text-anchor="middle" x="2091" y="-887.8" font-family="Times New Roman,serif" font-size="14.00">friendly_name: Constant_92</text>
<text text-anchor="middle" x="2091" y="-872.8" font-family="Times New Roman,serif" font-size="14.00">type_name: Constant</text>
<text text-anchor="middle" x="2091" y="-857.8" font-family="Times New Roman,serif" font-size="14.00">{f32}[]</text>
<text text-anchor="middle" x="2091" y="-842.8" font-family="Times New Roman,serif" font-size="14.00">value: [&#45;1.28]</text>
</g>
<!-- CLONE_6&#45;&gt;FakeQuantize_96 -->
<g id="edge13" class="edge">
<title>CLONE_6&#45;&gt;FakeQuantize_96</title>
<path fill="none" stroke="black" d="M2111.38,-834.86C2119.04,-822.4 2128.11,-807.65 2137.24,-792.8"/>
<polygon fill="black" stroke="black" points="2140.36,-794.41 2142.61,-784.06 2134.39,-790.75 2140.36,-794.41"/>
<text text-anchor="middle" x="2151" y="-805.8" font-family="Times New Roman,serif" font-size="14.00"> 0 &#45;&gt; 1 </text>
</g>
<!-- CLONE_7 -->
<g id="node15" class="node">
<title>CLONE_7</title>
<polygon fill="none" stroke="black" stroke-dasharray="5,2" points="2368.5,-903 2195.5,-903 2195.5,-835 2368.5,-835 2368.5,-903"/>
<text text-anchor="middle" x="2282" y="-887.8" font-family="Times New Roman,serif" font-size="14.00">friendly_name: Constant_93</text>
<text text-anchor="middle" x="2282" y="-872.8" font-family="Times New Roman,serif" font-size="14.00">type_name: Constant</text>
<text text-anchor="middle" x="2282" y="-857.8" font-family="Times New Roman,serif" font-size="14.00">{f32}[]</text>
<text text-anchor="middle" x="2282" y="-842.8" font-family="Times New Roman,serif" font-size="14.00">value: [1.27]</text>
</g>
<!-- CLONE_7&#45;&gt;FakeQuantize_96 -->
<g id="edge14" class="edge">
<title>CLONE_7&#45;&gt;FakeQuantize_96</title>
<path fill="none" stroke="black" d="M2261.41,-834.86C2253.67,-822.4 2244.5,-807.65 2235.27,-792.8"/>
<polygon fill="black" stroke="black" points="2238.09,-790.71 2229.84,-784.06 2232.15,-794.4 2238.09,-790.71"/>
<text text-anchor="middle" x="2270" y="-805.8" font-family="Times New Roman,serif" font-size="14.00"> 0 &#45;&gt; 2 </text>
</g>
<!-- CLONE_8 -->
<g id="node16" class="node">
<title>CLONE_8</title>
<polygon fill="none" stroke="black" stroke-dasharray="5,2" points="2559.5,-903 2386.5,-903 2386.5,-835 2559.5,-835 2559.5,-903"/>
<text text-anchor="middle" x="2473" y="-887.8" font-family="Times New Roman,serif" font-size="14.00">friendly_name: Constant_94</text>
<text text-anchor="middle" x="2473" y="-872.8" font-family="Times New Roman,serif" font-size="14.00">type_name: Constant</text>
<text text-anchor="middle" x="2473" y="-857.8" font-family="Times New Roman,serif" font-size="14.00">{f32}[]</text>
<text text-anchor="middle" x="2473" y="-842.8" font-family="Times New Roman,serif" font-size="14.00">value: [&#45;1.28]</text>
</g>
<!-- CLONE_8&#45;&gt;FakeQuantize_96 -->
<g id="edge15" class="edge">
<title>CLONE_8&#45;&gt;FakeQuantize_96</title>
<path fill="none" stroke="black" d="M2411.43,-834.86C2382.33,-819.19 2346.46,-799.88 2311.96,-781.31"/>
<polygon fill="black" stroke="black" points="2313.22,-778.01 2302.75,-776.35 2309.9,-784.17 2313.22,-778.01"/>
<text text-anchor="middle" x="2393" y="-805.8" font-family="Times New Roman,serif" font-size="14.00"> 0 &#45;&gt; 3 </text>
</g>
<!-- CLONE_9 -->
<g id="node17" class="node">
<title>CLONE_9</title>
<polygon fill="none" stroke="black" stroke-dasharray="5,2" points="2750.5,-903 2577.5,-903 2577.5,-835 2750.5,-835 2750.5,-903"/>
<text text-anchor="middle" x="2664" y="-887.8" font-family="Times New Roman,serif" font-size="14.00">friendly_name: Constant_95</text>
<text text-anchor="middle" x="2664" y="-872.8" font-family="Times New Roman,serif" font-size="14.00">type_name: Constant</text>
<text text-anchor="middle" x="2664" y="-857.8" font-family="Times New Roman,serif" font-size="14.00">{f32}[]</text>
<text text-anchor="middle" x="2664" y="-842.8" font-family="Times New Roman,serif" font-size="14.00">value: [1.27]</text>
</g>
<!-- CLONE_9&#45;&gt;FakeQuantize_96 -->
<g id="edge16" class="edge">
<title>CLONE_9&#45;&gt;FakeQuantize_96</title>
<path fill="none" stroke="black" d="M2577.42,-838.14C2574.24,-837.07 2571.1,-836.02 2568,-835 2483.11,-806.91 2387.21,-776.42 2312.73,-753"/>
<polygon fill="black" stroke="black" points="2313.42,-749.55 2302.83,-749.89 2311.33,-756.23 2313.42,-749.55"/>
<text text-anchor="middle" x="2527" y="-805.8" font-family="Times New Roman,serif" font-size="14.00"> 0 &#45;&gt; 4 </text>
</g>
<!-- CLONE_10 -->
<g id="node18" class="node">
<title>CLONE_10</title>
<polygon fill="none" stroke="blue" stroke-dasharray="5,2" points="1063,-903 923,-903 923,-835 1063,-835 1063,-903"/>
<text text-anchor="middle" x="993" y="-887.8" font-family="Times New Roman,serif" font-size="14.00">friendly_name: input2</text>
<text text-anchor="middle" x="993" y="-872.8" font-family="Times New Roman,serif" font-size="14.00">name: Parameter_85</text>
<text text-anchor="middle" x="993" y="-857.8" font-family="Times New Roman,serif" font-size="14.00">type_name: Parameter</text>
<text text-anchor="middle" x="993" y="-842.8" font-family="Times New Roman,serif" font-size="14.00">{f32}[1,3,9,9]</text>
</g>
<!-- CLONE_10&#45;&gt;FakeQuantize_90 -->
<g id="edge17" class="edge">
<title>CLONE_10&#45;&gt;FakeQuantize_90</title>
<path fill="none" stroke="black" d="M1063.14,-838.39C1111.11,-818.14 1176.07,-790.72 1232.89,-766.73"/>
<polygon fill="black" stroke="black" points="1234.45,-769.87 1242.3,-762.76 1231.73,-763.43 1234.45,-769.87"/>
<text text-anchor="middle" x="1165" y="-805.8" font-family="Times New Roman,serif" font-size="14.00"> 0 &#45;&gt; 0 </text>
</g>
<!-- CLONE_11 -->
<g id="node19" class="node">
<title>CLONE_11</title>
<polygon fill="none" stroke="black" stroke-dasharray="5,2" points="1254.5,-903 1081.5,-903 1081.5,-835 1254.5,-835 1254.5,-903"/>
<text text-anchor="middle" x="1168" y="-887.8" font-family="Times New Roman,serif" font-size="14.00">friendly_name: Constant_86</text>
<text text-anchor="middle" x="1168" y="-872.8" font-family="Times New Roman,serif" font-size="14.00">type_name: Constant</text>
<text text-anchor="middle" x="1168" y="-857.8" font-family="Times New Roman,serif" font-size="14.00">{f32}[]</text>
<text text-anchor="middle" x="1168" y="-842.8" font-family="Times New Roman,serif" font-size="14.00">value: [&#45;0.64]</text>
</g>
<!-- CLONE_11&#45;&gt;FakeQuantize_90 -->
<g id="edge18" class="edge">
<title>CLONE_11&#45;&gt;FakeQuantize_90</title>
<path fill="none" stroke="black" d="M1208.97,-834.86C1225.16,-821.76 1244.49,-806.13 1263.8,-790.51"/>
<polygon fill="black" stroke="black" points="1266.2,-793.07 1271.77,-784.06 1261.79,-787.63 1266.2,-793.07"/>
<text text-anchor="middle" x="1268" y="-805.8" font-family="Times New Roman,serif" font-size="14.00"> 0 &#45;&gt; 1 </text>
</g>
<!-- CLONE_12 -->
<g id="node20" class="node">
<title>CLONE_12</title>
<polygon fill="none" stroke="black" stroke-dasharray="5,2" points="1445.5,-903 1272.5,-903 1272.5,-835 1445.5,-835 1445.5,-903"/>
<text text-anchor="middle" x="1359" y="-887.8" font-family="Times New Roman,serif" font-size="14.00">friendly_name: Constant_87</text>
<text text-anchor="middle" x="1359" y="-872.8" font-family="Times New Roman,serif" font-size="14.00">type_name: Constant</text>
<text text-anchor="middle" x="1359" y="-857.8" font-family="Times New Roman,serif" font-size="14.00">{f32}[]</text>
<text text-anchor="middle" x="1359" y="-842.8" font-family="Times New Roman,serif" font-size="14.00">value: [0.635]</text>
</g>
<!-- CLONE_12&#45;&gt;FakeQuantize_90 -->
<g id="edge19" class="edge">
<title>CLONE_12&#45;&gt;FakeQuantize_90</title>
<path fill="none" stroke="black" d="M1359,-834.86C1359,-822.87 1359,-808.75 1359,-794.47"/>
<polygon fill="black" stroke="black" points="1362.5,-794.06 1359,-784.06 1355.5,-794.06 1362.5,-794.06"/>
<text text-anchor="middle" x="1380" y="-805.8" font-family="Times New Roman,serif" font-size="14.00"> 0 &#45;&gt; 2 </text>
</g>
<!-- CLONE_13 -->
<g id="node21" class="node">
<title>CLONE_13</title>
<polygon fill="none" stroke="black" stroke-dasharray="5,2" points="1636.5,-903 1463.5,-903 1463.5,-835 1636.5,-835 1636.5,-903"/>
<text text-anchor="middle" x="1550" y="-887.8" font-family="Times New Roman,serif" font-size="14.00">friendly_name: Constant_88</text>
<text text-anchor="middle" x="1550" y="-872.8" font-family="Times New Roman,serif" font-size="14.00">type_name: Constant</text>
<text text-anchor="middle" x="1550" y="-857.8" font-family="Times New Roman,serif" font-size="14.00">{f32}[]</text>
<text text-anchor="middle" x="1550" y="-842.8" font-family="Times New Roman,serif" font-size="14.00">value: [&#45;0.64]</text>
</g>
<!-- CLONE_13&#45;&gt;FakeQuantize_90 -->
<g id="edge20" class="edge">
<title>CLONE_13&#45;&gt;FakeQuantize_90</title>
<path fill="none" stroke="black" d="M1509.03,-834.86C1492.84,-821.76 1473.51,-806.13 1454.2,-790.51"/>
<polygon fill="black" stroke="black" points="1456.21,-787.63 1446.23,-784.06 1451.8,-793.07 1456.21,-787.63"/>
<text text-anchor="middle" x="1504" y="-805.8" font-family="Times New Roman,serif" font-size="14.00"> 0 &#45;&gt; 3 </text>
</g>
<!-- CLONE_14 -->
<g id="node22" class="node">
<title>CLONE_14</title>
<polygon fill="none" stroke="black" stroke-dasharray="5,2" points="1827.5,-903 1654.5,-903 1654.5,-835 1827.5,-835 1827.5,-903"/>
<text text-anchor="middle" x="1741" y="-887.8" font-family="Times New Roman,serif" font-size="14.00">friendly_name: Constant_89</text>
<text text-anchor="middle" x="1741" y="-872.8" font-family="Times New Roman,serif" font-size="14.00">type_name: Constant</text>
<text text-anchor="middle" x="1741" y="-857.8" font-family="Times New Roman,serif" font-size="14.00">{f32}[]</text>
<text text-anchor="middle" x="1741" y="-842.8" font-family="Times New Roman,serif" font-size="14.00">value: [0.635]</text>
</g>
<!-- CLONE_14&#45;&gt;FakeQuantize_90 -->
<g id="edge21" class="edge">
<title>CLONE_14&#45;&gt;FakeQuantize_90</title>
<path fill="none" stroke="black" d="M1659.05,-834.86C1608.38,-814.36 1542.31,-787.64 1485.07,-764.49"/>
<polygon fill="black" stroke="black" points="1486.18,-761.16 1475.6,-760.66 1483.56,-767.65 1486.18,-761.16"/>
<text text-anchor="middle" x="1628" y="-805.8" font-family="Times New Roman,serif" font-size="14.00"> 0 &#45;&gt; 4 </text>
</g>
<!-- Result_107 -->
<g id="node24" class="node">
<title>Result_107</title>
<polygon fill="none" stroke="crimson" stroke-width="1.5" points="1262,-373.5 1044,-373.5 1044,-305.5 1262,-305.5 1262,-373.5"/>
<text text-anchor="middle" x="1153" y="-358.3" font-family="Times New Roman,serif" font-size="14.00">friendly_name: Result_107</text>
<text text-anchor="middle" x="1153" y="-343.3" font-family="Times New Roman,serif" font-size="14.00">type_name: Result</text>
<text text-anchor="middle" x="1153" y="-328.3" font-family="Times New Roman,serif" font-size="14.00">in0: {f32}[1,6,9,9]: Concat_97: out0</text>
<text text-anchor="middle" x="1153" y="-313.3" font-family="Times New Roman,serif" font-size="14.00">out0: {f32}[1,6,9,9]</text>
</g>
<!-- Concat_97&#45;&gt;Result_107 -->
<g id="edge22" class="edge">
<title>Concat_97&#45;&gt;Result_107</title>
<path fill="none" stroke="black" d="M1153,-461.76C1153,-436.07 1153,-407.04 1153,-383.82"/>
<polygon fill="black" stroke="black" points="1156.5,-383.6 1153,-373.6 1149.5,-383.6 1156.5,-383.6"/>
<text text-anchor="middle" x="1174" y="-432.8" font-family="Times New Roman,serif" font-size="14.00"> 0 &#45;&gt; 0 </text>
</g>
<!-- FakeQuantize_84 -->
<g id="node25" class="node">
<title>FakeQuantize_84</title>
<polygon fill="none" stroke="black" points="648.5,-784 415.5,-784 415.5,-641 648.5,-641 648.5,-784"/>
<text text-anchor="middle" x="532" y="-768.8" font-family="Times New Roman,serif" font-size="14.00">friendly_name: fakeQuantize1</text>
<text text-anchor="middle" x="532" y="-753.8" font-family="Times New Roman,serif" font-size="14.00">name: FakeQuantize_84</text>
<text text-anchor="middle" x="532" y="-738.8" font-family="Times New Roman,serif" font-size="14.00">type_name: FakeQuantize</text>
<text text-anchor="middle" x="532" y="-723.8" font-family="Times New Roman,serif" font-size="14.00">in0: {f32}[1,3,9,9]: Parameter_79: out0</text>
<text text-anchor="middle" x="532" y="-708.8" font-family="Times New Roman,serif" font-size="14.00">in1: {f32}[]: Constant_80: out0</text>
<text text-anchor="middle" x="532" y="-693.8" font-family="Times New Roman,serif" font-size="14.00">in2: {f32}[]: Constant_81: out0</text>
<text text-anchor="middle" x="532" y="-678.8" font-family="Times New Roman,serif" font-size="14.00">in3: {f32}[]: Constant_82: out0</text>
<text text-anchor="middle" x="532" y="-663.8" font-family="Times New Roman,serif" font-size="14.00">in4: {f32}[]: Constant_83: out0</text>
<text text-anchor="middle" x="532" y="-648.8" font-family="Times New Roman,serif" font-size="14.00">out0: {f32}[1,3,9,9]</text>
</g>
<!-- FakeQuantize_84&#45;&gt;Concat_97 -->
<g id="edge23" class="edge">
<title>FakeQuantize_84&#45;&gt;Concat_97</title>
<path fill="none" stroke="black" d="M648.81,-676.8C748.05,-647.31 891.26,-604.76 999.7,-572.54"/>
<polygon fill="black" stroke="black" points="1000.84,-575.86 1009.43,-569.66 998.84,-569.15 1000.84,-575.86"/>
<text text-anchor="middle" x="901" y="-611.8" font-family="Times New Roman,serif" font-size="14.00"> 0 &#45;&gt; 0 </text>
</g>
<!-- CLONE_15 -->
<g id="node26" class="node">
<title>CLONE_15</title>
<polygon fill="none" stroke="blue" stroke-dasharray="5,2" points="140,-903 0,-903 0,-835 140,-835 140,-903"/>
<text text-anchor="middle" x="70" y="-887.8" font-family="Times New Roman,serif" font-size="14.00">friendly_name: input1</text>
<text text-anchor="middle" x="70" y="-872.8" font-family="Times New Roman,serif" font-size="14.00">name: Parameter_79</text>
<text text-anchor="middle" x="70" y="-857.8" font-family="Times New Roman,serif" font-size="14.00">type_name: Parameter</text>
<text text-anchor="middle" x="70" y="-842.8" font-family="Times New Roman,serif" font-size="14.00">{f32}[1,3,9,9]</text>
</g>
<!-- CLONE_15&#45;&gt;FakeQuantize_84 -->
<g id="edge25" class="edge">
<title>CLONE_15&#45;&gt;FakeQuantize_84</title>
<path fill="none" stroke="black" d="M140.08,-838.35C143.09,-837.19 146.07,-836.07 149,-835 233.62,-803.97 330.38,-773.32 405.47,-750.56"/>
<polygon fill="black" stroke="black" points="406.89,-753.79 415.45,-747.54 404.87,-747.09 406.89,-753.79"/>
<text text-anchor="middle" x="264" y="-805.8" font-family="Times New Roman,serif" font-size="14.00"> 0 &#45;&gt; 0 </text>
</g>
<!-- CLONE_16 -->
<g id="node27" class="node">
<title>CLONE_16</title>
<polygon fill="none" stroke="black" stroke-dasharray="5,2" points="331.5,-903 158.5,-903 158.5,-835 331.5,-835 331.5,-903"/>
<text text-anchor="middle" x="245" y="-887.8" font-family="Times New Roman,serif" font-size="14.00">friendly_name: Constant_80</text>
<text text-anchor="middle" x="245" y="-872.8" font-family="Times New Roman,serif" font-size="14.00">type_name: Constant</text>
<text text-anchor="middle" x="245" y="-857.8" font-family="Times New Roman,serif" font-size="14.00">{f32}[]</text>
<text text-anchor="middle" x="245" y="-842.8" font-family="Times New Roman,serif" font-size="14.00">value: [&#45;0.426667]</text>
</g>
<!-- CLONE_16&#45;&gt;FakeQuantize_84 -->
<g id="edge26" class="edge">
<title>CLONE_16&#45;&gt;FakeQuantize_84</title>
<path fill="none" stroke="black" d="M306.57,-834.86C335.67,-819.19 371.54,-799.88 406.04,-781.31"/>
<polygon fill="black" stroke="black" points="408.1,-784.17 415.25,-776.35 404.78,-778.01 408.1,-784.17"/>
<text text-anchor="middle" x="384" y="-805.8" font-family="Times New Roman,serif" font-size="14.00"> 0 &#45;&gt; 1 </text>
</g>
<!-- CLONE_17 -->
<g id="node28" class="node">
<title>CLONE_17</title>
<polygon fill="none" stroke="black" stroke-dasharray="5,2" points="522.5,-903 349.5,-903 349.5,-835 522.5,-835 522.5,-903"/>
<text text-anchor="middle" x="436" y="-887.8" font-family="Times New Roman,serif" font-size="14.00">friendly_name: Constant_81</text>
<text text-anchor="middle" x="436" y="-872.8" font-family="Times New Roman,serif" font-size="14.00">type_name: Constant</text>
<text text-anchor="middle" x="436" y="-857.8" font-family="Times New Roman,serif" font-size="14.00">{f32}[]</text>
<text text-anchor="middle" x="436" y="-842.8" font-family="Times New Roman,serif" font-size="14.00">value: [0.423333]</text>
</g>
<!-- CLONE_17&#45;&gt;FakeQuantize_84 -->
<g id="edge27" class="edge">
<title>CLONE_17&#45;&gt;FakeQuantize_84</title>
<path fill="none" stroke="black" d="M456.59,-834.86C464.33,-822.4 473.5,-807.65 482.73,-792.8"/>
<polygon fill="black" stroke="black" points="485.85,-794.4 488.16,-784.06 479.91,-790.71 485.85,-794.4"/>
<text text-anchor="middle" x="497" y="-805.8" font-family="Times New Roman,serif" font-size="14.00"> 0 &#45;&gt; 2 </text>
</g>
<!-- CLONE_18 -->
<g id="node29" class="node">
<title>CLONE_18</title>
<polygon fill="none" stroke="black" stroke-dasharray="5,2" points="713.5,-903 540.5,-903 540.5,-835 713.5,-835 713.5,-903"/>
<text text-anchor="middle" x="627" y="-887.8" font-family="Times New Roman,serif" font-size="14.00">friendly_name: Constant_82</text>
<text text-anchor="middle" x="627" y="-872.8" font-family="Times New Roman,serif" font-size="14.00">type_name: Constant</text>
<text text-anchor="middle" x="627" y="-857.8" font-family="Times New Roman,serif" font-size="14.00">{f32}[]</text>
<text text-anchor="middle" x="627" y="-842.8" font-family="Times New Roman,serif" font-size="14.00">value: [&#45;0.426667]</text>
</g>
<!-- CLONE_18&#45;&gt;FakeQuantize_84 -->
<g id="edge28" class="edge">
<title>CLONE_18&#45;&gt;FakeQuantize_84</title>
<path fill="none" stroke="black" d="M606.62,-834.86C598.96,-822.4 589.89,-807.65 580.76,-792.8"/>
<polygon fill="black" stroke="black" points="583.61,-790.75 575.39,-784.06 577.64,-794.41 583.61,-790.75"/>
<text text-anchor="middle" x="615" y="-805.8" font-family="Times New Roman,serif" font-size="14.00"> 0 &#45;&gt; 3 </text>
</g>
<!-- CLONE_19 -->
<g id="node30" class="node">
<title>CLONE_19</title>
<polygon fill="none" stroke="black" stroke-dasharray="5,2" points="904.5,-903 731.5,-903 731.5,-835 904.5,-835 904.5,-903"/>
<text text-anchor="middle" x="818" y="-887.8" font-family="Times New Roman,serif" font-size="14.00">friendly_name: Constant_83</text>
<text text-anchor="middle" x="818" y="-872.8" font-family="Times New Roman,serif" font-size="14.00">type_name: Constant</text>
<text text-anchor="middle" x="818" y="-857.8" font-family="Times New Roman,serif" font-size="14.00">{f32}[]</text>
<text text-anchor="middle" x="818" y="-842.8" font-family="Times New Roman,serif" font-size="14.00">value: [0.423333]</text>
</g>
<!-- CLONE_19&#45;&gt;FakeQuantize_84 -->
<g id="edge29" class="edge">
<title>CLONE_19&#45;&gt;FakeQuantize_84</title>
<path fill="none" stroke="black" d="M756.65,-834.86C727.72,-819.23 692.08,-799.98 657.79,-781.45"/>
<polygon fill="black" stroke="black" points="659.1,-778.18 648.64,-776.51 655.77,-784.34 659.1,-778.18"/>
<text text-anchor="middle" x="739" y="-805.8" font-family="Times New Roman,serif" font-size="14.00"> 0 &#45;&gt; 4 </text>
</g>
</g>
</svg>
