<?xml version="1.0" encoding="UTF-8" standalone="no"?>
<!DOCTYPE svg PUBLIC "-//W3C//DTD SVG 1.1//EN"
 "http://www.w3.org/Graphics/SVG/1.1/DTD/svg11.dtd">
<!-- Generated by graphviz version 2.43.20200408.0903 (20200408.0903)
 -->
<!-- Title: ngraph Pages: 1 -->
<svg width="3411pt" height="911pt"
 viewBox="0.00 0.00 3410.50 911.00" xmlns="http://www.w3.org/2000/svg" xmlns:xlink="http://www.w3.org/1999/xlink">
<g id="graph0" class="graph" transform="scale(1 1) rotate(0) translate(4 907)">
<title>ngraph</title>
<polygon fill="white" stroke="transparent" points="-4,4 -4,-907 3406.5,-907 3406.5,4 -4,4"/>
<!-- Convolution_106 -->
<g id="node1" class="node">
<title>Convolution_106</title>
<polygon fill="none" stroke="black" points="2490,-217 2020,-217 2020,-119 2490,-119 2490,-217"/>
<text text-anchor="middle" x="2255" y="-201.8" font-family="Times New Roman,serif" font-size="14.00">friendly_name: convolution</text>
<text text-anchor="middle" x="2255" y="-186.8" font-family="Times New Roman,serif" font-size="14.00">name: Convolution_106</text>
<text text-anchor="middle" x="2255" y="-171.8" font-family="Times New Roman,serif" font-size="14.00">type_name: Convolution</text>
<text text-anchor="middle" x="2255" y="-156.8" font-family="Times New Roman,serif" font-size="14.00">in0: {f32}[1,6,7,7]: MaxPool_99: out0 PRECISIONS(2588780580416: u8}) </text>
<text text-anchor="middle" x="2255" y="-141.8" font-family="Times New Roman,serif" font-size="14.00">in1: {f32}[9,6,1,1]: FakeQuantize_105: out0 PRECISIONS(2588780584448: i8}) </text>
<text text-anchor="middle" x="2255" y="-126.8" font-family="Times New Roman,serif" font-size="14.00">out0: {f32}[1,9,7,7]</text>
</g>
<!-- Result_108 -->
<g id="node2" class="node">
<title>Result_108</title>
<polygon fill="none" stroke="crimson" stroke-width="1.5" points="2382,-68 2128,-68 2128,0 2382,0 2382,-68"/>
<text text-anchor="middle" x="2255" y="-52.8" font-family="Times New Roman,serif" font-size="14.00">friendly_name: Result_108</text>
<text text-anchor="middle" x="2255" y="-37.8" font-family="Times New Roman,serif" font-size="14.00">type_name: Result</text>
<text text-anchor="middle" x="2255" y="-22.8" font-family="Times New Roman,serif" font-size="14.00">in0: {f32}[1,9,7,7]: Convolution_106: out0</text>
<text text-anchor="middle" x="2255" y="-7.8" font-family="Times New Roman,serif" font-size="14.00">out0: {f32}[1,9,7,7]</text>
</g>
<!-- Convolution_106&#45;&gt;Result_108 -->
<g id="edge1" class="edge">
<title>Convolution_106&#45;&gt;Result_108</title>
<path fill="none" stroke="black" d="M2255,-118.97C2255,-105.71 2255,-91.4 2255,-78.42"/>
<polygon fill="black" stroke="black" points="2258.5,-78.33 2255,-68.33 2251.5,-78.33 2258.5,-78.33"/>
<text text-anchor="middle" x="2276" y="-89.8" font-family="Times New Roman,serif" font-size="14.00"> 0 &#45;&gt; 0 </text>
</g>
<!-- MaxPool_99 -->
<g id="node3" class="node">
<title>MaxPool_99</title>
<polygon fill="none" stroke="black" points="1975.5,-388.5 1544.5,-388.5 1544.5,-290.5 1975.5,-290.5 1975.5,-388.5"/>
<text text-anchor="middle" x="1760" y="-373.3" font-family="Times New Roman,serif" font-size="14.00">friendly_name: MaxPool</text>
<text text-anchor="middle" x="1760" y="-358.3" font-family="Times New Roman,serif" font-size="14.00">name: MaxPool_99</text>
<text text-anchor="middle" x="1760" y="-343.3" font-family="Times New Roman,serif" font-size="14.00">type_name: MaxPool</text>
<text text-anchor="middle" x="1760" y="-328.3" font-family="Times New Roman,serif" font-size="14.00">rt info: &#160;PRECISION_PRESERVED(value: true)</text>
<text text-anchor="middle" x="1760" y="-313.3" font-family="Times New Roman,serif" font-size="14.00">in0: {f32}[1,6,9,9]: Concat_98: out0 PRECISIONS(2588780580416: u8}) </text>
<text text-anchor="middle" x="1760" y="-298.3" font-family="Times New Roman,serif" font-size="14.00">out0: {f32}[1,6,7,7]</text>
</g>
<!-- MaxPool_99&#45;&gt;Convolution_106 -->
<g id="edge2" class="edge">
<title>MaxPool_99&#45;&gt;Convolution_106</title>
<path fill="none" stroke="black" d="M1900.19,-290.49C1964.22,-268.57 2040.13,-242.58 2105.27,-220.27"/>
<polygon fill="black" stroke="black" points="2106.48,-223.56 2114.8,-217.01 2104.21,-216.93 2106.48,-223.56"/>
<text text-anchor="middle" x="2073" y="-238.8" font-family="Times New Roman,serif" font-size="14.00"> 0 &#45;&gt; 0 </text>
</g>
<!-- FakeQuantize_105 -->
<g id="node4" class="node">
<title>FakeQuantize_105</title>
<polygon fill="none" stroke="black" points="2717,-411 2381,-411 2381,-268 2717,-268 2717,-411"/>
<text text-anchor="middle" x="2549" y="-395.8" font-family="Times New Roman,serif" font-size="14.00">friendly_name: fakeQuantizeOnWeights</text>
<text text-anchor="middle" x="2549" y="-380.8" font-family="Times New Roman,serif" font-size="14.00">name: FakeQuantize_105</text>
<text text-anchor="middle" x="2549" y="-365.8" font-family="Times New Roman,serif" font-size="14.00">type_name: FakeQuantize</text>
<text text-anchor="middle" x="2549" y="-350.8" font-family="Times New Roman,serif" font-size="14.00">in0: {f32}[9,6,1,1]: Constant_100: out0</text>
<text text-anchor="middle" x="2549" y="-335.8" font-family="Times New Roman,serif" font-size="14.00">in1: {f32}[9,1,1,1]: Constant_101: out0</text>
<text text-anchor="middle" x="2549" y="-320.8" font-family="Times New Roman,serif" font-size="14.00">in2: {f32}[9,1,1,1]: Constant_102: out0</text>
<text text-anchor="middle" x="2549" y="-305.8" font-family="Times New Roman,serif" font-size="14.00">in3: {f32}[9,1,1,1]: Constant_103: out0</text>
<text text-anchor="middle" x="2549" y="-290.8" font-family="Times New Roman,serif" font-size="14.00">in4: {f32}[9,1,1,1]: Constant_104: out0</text>
<text text-anchor="middle" x="2549" y="-275.8" font-family="Times New Roman,serif" font-size="14.00">out0: {f32}[9,6,1,1] PRECISIONS(2588780584448: i8}) </text>
</g>
<!-- FakeQuantize_105&#45;&gt;Convolution_106 -->
<g id="edge3" class="edge">
<title>FakeQuantize_105&#45;&gt;Convolution_106</title>
<path fill="none" stroke="black" d="M2426.45,-267.84C2399.95,-252.57 2372.36,-236.66 2347.26,-222.19"/>
<polygon fill="black" stroke="black" points="2348.9,-219.1 2338.49,-217.13 2345.4,-225.16 2348.9,-219.1"/>
<text text-anchor="middle" x="2415" y="-238.8" font-family="Times New Roman,serif" font-size="14.00"> 0 &#45;&gt; 1 </text>
</g>
<!-- CLONE_0 -->
<g id="node5" class="node">
<title>CLONE_0</title>
<polygon fill="none" stroke="black" stroke-dasharray="5,2" points="2054.5,-582.5 1837.5,-582.5 1837.5,-469.5 2054.5,-469.5 2054.5,-582.5"/>
<text text-anchor="middle" x="1946" y="-567.3" font-family="Times New Roman,serif" font-size="14.00">friendly_name: Constant_100</text>
<text text-anchor="middle" x="1946" y="-552.3" font-family="Times New Roman,serif" font-size="14.00">type_name: Constant</text>
<text text-anchor="middle" x="1946" y="-537.3" font-family="Times New Roman,serif" font-size="14.00">{f32}[9,6,1,1]</text>
<text text-anchor="middle" x="1946" y="-522.3" font-family="Times New Roman,serif" font-size="14.00">value: [54, 54, 54, 54, 54, 54, 54, 54</text>
<text text-anchor="middle" x="1946" y="-507.3" font-family="Times New Roman,serif" font-size="14.00">, 54, 54, 54, 54, 54, 54, 54, 54</text>
<text text-anchor="middle" x="1946" y="-492.3" font-family="Times New Roman,serif" font-size="14.00">, 54, 54, 54, 54, 54, 54, 54, 54</text>
<text text-anchor="middle" x="1946" y="-477.3" font-family="Times New Roman,serif" font-size="14.00">, 54, 54, 54, 54, 54, 54, 54, 54...]</text>
</g>
<!-- CLONE_0&#45;&gt;FakeQuantize_105 -->
<g id="edge4" class="edge">
<title>CLONE_0&#45;&gt;FakeQuantize_105</title>
<path fill="none" stroke="black" d="M2045.43,-469.35C2051.31,-466.72 2057.19,-464.25 2063,-462 2162.19,-423.59 2277.52,-394.15 2370.94,-373.88"/>
<polygon fill="black" stroke="black" points="2371.73,-377.29 2380.77,-371.76 2370.26,-370.44 2371.73,-377.29"/>
<text text-anchor="middle" x="2175" y="-432.8" font-family="Times New Roman,serif" font-size="14.00"> 0 &#45;&gt; 0 </text>
</g>
<!-- CLONE_1 -->
<g id="node6" class="node">
<title>CLONE_1</title>
<polygon fill="none" stroke="black" stroke-dasharray="5,2" points="2409.5,-567.5 2072.5,-567.5 2072.5,-484.5 2409.5,-484.5 2409.5,-567.5"/>
<text text-anchor="middle" x="2241" y="-552.3" font-family="Times New Roman,serif" font-size="14.00">friendly_name: Constant_101</text>
<text text-anchor="middle" x="2241" y="-537.3" font-family="Times New Roman,serif" font-size="14.00">type_name: Constant</text>
<text text-anchor="middle" x="2241" y="-522.3" font-family="Times New Roman,serif" font-size="14.00">{f32}[9,1,1,1]</text>
<text text-anchor="middle" x="2241" y="-507.3" font-family="Times New Roman,serif" font-size="14.00">value: [&#45;1.27, &#45;1.27, &#45;1.27, &#45;1.27, &#45;1.27, &#45;1.27, &#45;1.27, &#45;1.27</text>
<text text-anchor="middle" x="2241" y="-492.3" font-family="Times New Roman,serif" font-size="14.00">, &#45;1.27]</text>
</g>
<!-- CLONE_1&#45;&gt;FakeQuantize_105 -->
<g id="edge5" class="edge">
<title>CLONE_1&#45;&gt;FakeQuantize_105</title>
<path fill="none" stroke="black" d="M2308.97,-484.28C2342.32,-464.3 2383.6,-439.58 2422.47,-416.3"/>
<polygon fill="black" stroke="black" points="2424.46,-419.18 2431.24,-411.04 2420.86,-413.18 2424.46,-419.18"/>
<text text-anchor="middle" x="2416" y="-432.8" font-family="Times New Roman,serif" font-size="14.00"> 0 &#45;&gt; 1 </text>
</g>
<!-- CLONE_2 -->
<g id="node7" class="node">
<title>CLONE_2</title>
<polygon fill="none" stroke="black" stroke-dasharray="5,2" points="2728.5,-567.5 2427.5,-567.5 2427.5,-484.5 2728.5,-484.5 2728.5,-567.5"/>
<text text-anchor="middle" x="2578" y="-552.3" font-family="Times New Roman,serif" font-size="14.00">friendly_name: Constant_102</text>
<text text-anchor="middle" x="2578" y="-537.3" font-family="Times New Roman,serif" font-size="14.00">type_name: Constant</text>
<text text-anchor="middle" x="2578" y="-522.3" font-family="Times New Roman,serif" font-size="14.00">{f32}[9,1,1,1]</text>
<text text-anchor="middle" x="2578" y="-507.3" font-family="Times New Roman,serif" font-size="14.00">value: [1.27, 1.27, 1.27, 1.27, 1.27, 1.27, 1.27, 1.27</text>
<text text-anchor="middle" x="2578" y="-492.3" font-family="Times New Roman,serif" font-size="14.00">, 1.27]</text>
</g>
<!-- CLONE_2&#45;&gt;FakeQuantize_105 -->
<g id="edge6" class="edge">
<title>CLONE_2&#45;&gt;FakeQuantize_105</title>
<path fill="none" stroke="black" d="M2571.56,-484.05C2568.64,-465.46 2565.08,-442.78 2561.65,-421"/>
<polygon fill="black" stroke="black" points="2565.1,-420.4 2560.09,-411.07 2558.19,-421.49 2565.1,-420.4"/>
<text text-anchor="middle" x="2587" y="-432.8" font-family="Times New Roman,serif" font-size="14.00"> 0 &#45;&gt; 2 </text>
</g>
<!-- CLONE_3 -->
<g id="node8" class="node">
<title>CLONE_3</title>
<polygon fill="none" stroke="black" stroke-dasharray="5,2" points="3083.5,-567.5 2746.5,-567.5 2746.5,-484.5 3083.5,-484.5 3083.5,-567.5"/>
<text text-anchor="middle" x="2915" y="-552.3" font-family="Times New Roman,serif" font-size="14.00">friendly_name: Constant_103</text>
<text text-anchor="middle" x="2915" y="-537.3" font-family="Times New Roman,serif" font-size="14.00">type_name: Constant</text>
<text text-anchor="middle" x="2915" y="-522.3" font-family="Times New Roman,serif" font-size="14.00">{f32}[9,1,1,1]</text>
<text text-anchor="middle" x="2915" y="-507.3" font-family="Times New Roman,serif" font-size="14.00">value: [&#45;1.27, &#45;1.27, &#45;1.27, &#45;1.27, &#45;1.27, &#45;1.27, &#45;1.27, &#45;1.27</text>
<text text-anchor="middle" x="2915" y="-492.3" font-family="Times New Roman,serif" font-size="14.00">, &#45;1.27]</text>
</g>
<!-- CLONE_3&#45;&gt;FakeQuantize_105 -->
<g id="edge7" class="edge">
<title>CLONE_3&#45;&gt;FakeQuantize_105</title>
<path fill="none" stroke="black" d="M2834.23,-484.28C2794.18,-464.09 2744.51,-439.06 2697.91,-415.56"/>
<polygon fill="black" stroke="black" points="2699.44,-412.42 2688.94,-411.04 2696.29,-418.67 2699.44,-412.42"/>
<text text-anchor="middle" x="2775" y="-432.8" font-family="Times New Roman,serif" font-size="14.00"> 0 &#45;&gt; 3 </text>
</g>
<!-- CLONE_4 -->
<g id="node9" class="node">
<title>CLONE_4</title>
<polygon fill="none" stroke="black" stroke-dasharray="5,2" points="3402.5,-567.5 3101.5,-567.5 3101.5,-484.5 3402.5,-484.5 3402.5,-567.5"/>
<text text-anchor="middle" x="3252" y="-552.3" font-family="Times New Roman,serif" font-size="14.00">friendly_name: Constant_104</text>
<text text-anchor="middle" x="3252" y="-537.3" font-family="Times New Roman,serif" font-size="14.00">type_name: Constant</text>
<text text-anchor="middle" x="3252" y="-522.3" font-family="Times New Roman,serif" font-size="14.00">{f32}[9,1,1,1]</text>
<text text-anchor="middle" x="3252" y="-507.3" font-family="Times New Roman,serif" font-size="14.00">value: [1.27, 1.27, 1.27, 1.27, 1.27, 1.27, 1.27, 1.27</text>
<text text-anchor="middle" x="3252" y="-492.3" font-family="Times New Roman,serif" font-size="14.00">, 1.27]</text>
</g>
<!-- CLONE_4&#45;&gt;FakeQuantize_105 -->
<g id="edge8" class="edge">
<title>CLONE_4&#45;&gt;FakeQuantize_105</title>
<path fill="none" stroke="black" d="M3155.98,-484.41C3135.1,-476.37 3112.98,-468.43 3092,-462 2971.99,-425.19 2833.91,-394.44 2727.02,-373.09"/>
<polygon fill="black" stroke="black" points="2727.6,-369.64 2717.1,-371.12 2726.23,-376.5 2727.6,-369.64"/>
<text text-anchor="middle" x="3041" y="-432.8" font-family="Times New Roman,serif" font-size="14.00"> 0 &#45;&gt; 4 </text>
</g>
<!-- Concat_98 -->
<g id="node10" class="node">
<title>Concat_98</title>
<polygon fill="none" stroke="black" points="1819.5,-590 1352.5,-590 1352.5,-462 1819.5,-462 1819.5,-590"/>
<text text-anchor="middle" x="1586" y="-574.8" font-family="Times New Roman,serif" font-size="14.00">friendly_name: concat2</text>
<text text-anchor="middle" x="1586" y="-559.8" font-family="Times New Roman,serif" font-size="14.00">name: Concat_98</text>
<text text-anchor="middle" x="1586" y="-544.8" font-family="Times New Roman,serif" font-size="14.00">type_name: Concat</text>
<text text-anchor="middle" x="1586" y="-529.8" font-family="Times New Roman,serif" font-size="14.00">rt info: &#160;PRECISION_PRESERVED(value: true)</text>
<text text-anchor="middle" x="1586" y="-514.8" font-family="Times New Roman,serif" font-size="14.00">Variant::std::string</text>
<text text-anchor="middle" x="1586" y="-499.8" font-family="Times New Roman,serif" font-size="14.00">in0: {f32}[1,3,9,9]: FakeQuantize_90: out0 PRECISIONS(2588780580416: u8}) </text>
<text text-anchor="middle" x="1586" y="-484.8" font-family="Times New Roman,serif" font-size="14.00">in1: {f32}[1,3,9,9]: FakeQuantize_96: out0 PRECISIONS(2588780580416: u8}) </text>
<text text-anchor="middle" x="1586" y="-469.8" font-family="Times New Roman,serif" font-size="14.00">out0: {f32}[1,6,9,9]</text>
</g>
<!-- Concat_98&#45;&gt;MaxPool_99 -->
<g id="edge9" class="edge">
<title>Concat_98&#45;&gt;MaxPool_99</title>
<path fill="none" stroke="black" d="M1645.64,-461.76C1665.79,-440.4 1688.12,-416.72 1707.67,-395.99"/>
<polygon fill="black" stroke="black" points="1710.42,-398.18 1714.73,-388.5 1705.32,-393.38 1710.42,-398.18"/>
<text text-anchor="middle" x="1694" y="-432.8" font-family="Times New Roman,serif" font-size="14.00"> 0 &#45;&gt; 0 </text>
</g>
<!-- FakeQuantize_90 -->
<g id="node11" class="node">
<title>FakeQuantize_90</title>
<polygon fill="none" stroke="black" points="1529,-784 1189,-784 1189,-641 1529,-641 1529,-784"/>
<text text-anchor="middle" x="1359" y="-768.8" font-family="Times New Roman,serif" font-size="14.00">friendly_name: fakeQuantize2</text>
<text text-anchor="middle" x="1359" y="-753.8" font-family="Times New Roman,serif" font-size="14.00">name: FakeQuantize_90</text>
<text text-anchor="middle" x="1359" y="-738.8" font-family="Times New Roman,serif" font-size="14.00">type_name: FakeQuantize</text>
<text text-anchor="middle" x="1359" y="-723.8" font-family="Times New Roman,serif" font-size="14.00">in0: {f32}[1,3,9,9]: Parameter_85: out0</text>
<text text-anchor="middle" x="1359" y="-708.8" font-family="Times New Roman,serif" font-size="14.00">in1: {f32}[]: Constant_86: out0</text>
<text text-anchor="middle" x="1359" y="-693.8" font-family="Times New Roman,serif" font-size="14.00">in2: {f32}[]: Constant_87: out0</text>
<text text-anchor="middle" x="1359" y="-678.8" font-family="Times New Roman,serif" font-size="14.00">in3: {f32}[]: Constant_88: out0</text>
<text text-anchor="middle" x="1359" y="-663.8" font-family="Times New Roman,serif" font-size="14.00">in4: {f32}[]: Constant_89: out0</text>
<text text-anchor="middle" x="1359" y="-648.8" font-family="Times New Roman,serif" font-size="14.00">out0: {f32}[1,3,9,9] PRECISIONS(2588780580416: u8}) </text>
</g>
<!-- FakeQuantize_90&#45;&gt;Concat_98 -->
<g id="edge10" class="edge">
<title>FakeQuantize_90&#45;&gt;Concat_98</title>
<path fill="none" stroke="black" d="M1445.79,-640.96C1463.59,-626.49 1482.32,-611.27 1500.09,-596.83"/>
<polygon fill="black" stroke="black" points="1502.63,-599.27 1508.18,-590.25 1498.21,-593.84 1502.63,-599.27"/>
<text text-anchor="middle" x="1508" y="-611.8" font-family="Times New Roman,serif" font-size="14.00"> 0 &#45;&gt; 0 </text>
</g>
<!-- Concat_97 -->
<g id="node23" class="node">
<title>Concat_97</title>
<polygon fill="none" stroke="black" points="1256.5,-590 789.5,-590 789.5,-462 1256.5,-462 1256.5,-590"/>
<text text-anchor="middle" x="1023" y="-574.8" font-family="Times New Roman,serif" font-size="14.00">friendly_name: concat1</text>
<text text-anchor="middle" x="1023" y="-559.8" font-family="Times New Roman,serif" font-size="14.00">name: Concat_97</text>
<text text-anchor="middle" x="1023" y="-544.8" font-family="Times New Roman,serif" font-size="14.00">type_name: Concat</text>
<text text-anchor="middle" x="1023" y="-529.8" font-family="Times New Roman,serif" font-size="14.00">rt info: &#160;PRECISION_PRESERVED(value: true)</text>
<text text-anchor="middle" x="1023" y="-514.8" font-family="Times New Roman,serif" font-size="14.00">Variant::std::string</text>
<text text-anchor="middle" x="1023" y="-499.8" font-family="Times New Roman,serif" font-size="14.00">in0: {f32}[1,3,9,9]: FakeQuantize_84: out0 PRECISIONS(2588780580416: u8}) </text>
<text text-anchor="middle" x="1023" y="-484.8" font-family="Times New Roman,serif" font-size="14.00">in1: {f32}[1,3,9,9]: FakeQuantize_90: out0 PRECISIONS(2588780580416: u8}) </text>
<text text-anchor="middle" x="1023" y="-469.8" font-family="Times New Roman,serif" font-size="14.00">out0: {f32}[1,6,9,9]</text>
</g>
<!-- FakeQuantize_90&#45;&gt;Concat_97 -->
<g id="edge24" class="edge">
<title>FakeQuantize_90&#45;&gt;Concat_97</title>
<path fill="none" stroke="black" d="M1230.53,-640.96C1203.04,-625.86 1174.04,-609.94 1146.72,-594.94"/>
<polygon fill="black" stroke="black" points="1148.37,-591.85 1137.92,-590.1 1145,-597.98 1148.37,-591.85"/>
<text text-anchor="middle" x="1212" y="-611.8" font-family="Times New Roman,serif" font-size="14.00"> 0 &#45;&gt; 1 </text>
</g>
<!-- FakeQuantize_96 -->
<g id="node12" class="node">
<title>FakeQuantize_96</title>
<polygon fill="none" stroke="black" points="2356,-784 2016,-784 2016,-641 2356,-641 2356,-784"/>
<text text-anchor="middle" x="2186" y="-768.8" font-family="Times New Roman,serif" font-size="14.00">friendly_name: fakeQuantize3</text>
<text text-anchor="middle" x="2186" y="-753.8" font-family="Times New Roman,serif" font-size="14.00">name: FakeQuantize_96</text>
<text text-anchor="middle" x="2186" y="-738.8" font-family="Times New Roman,serif" font-size="14.00">type_name: FakeQuantize</text>
<text text-anchor="middle" x="2186" y="-723.8" font-family="Times New Roman,serif" font-size="14.00">in0: {f32}[1,3,9,9]: Parameter_91: out0</text>
<text text-anchor="middle" x="2186" y="-708.8" font-family="Times New Roman,serif" font-size="14.00">in1: {f32}[]: Constant_92: out0</text>
<text text-anchor="middle" x="2186" y="-693.8" font-family="Times New Roman,serif" font-size="14.00">in2: {f32}[]: Constant_93: out0</text>
<text text-anchor="middle" x="2186" y="-678.8" font-family="Times New Roman,serif" font-size="14.00">in3: {f32}[]: Constant_94: out0</text>
<text text-anchor="middle" x="2186" y="-663.8" font-family="Times New Roman,serif" font-size="14.00">in4: {f32}[]: Constant_95: out0</text>
<text text-anchor="middle" x="2186" y="-648.8" font-family="Times New Roman,serif" font-size="14.00">out0: {f32}[1,3,9,9] PRECISIONS(2588780580416: u8}) </text>
</g>
<!-- FakeQuantize_96&#45;&gt;Concat_98 -->
<g id="edge11" class="edge">
<title>FakeQuantize_96&#45;&gt;Concat_98</title>
<path fill="none" stroke="black" d="M2015.67,-659.12C1948.91,-638.6 1871.55,-614.81 1801.01,-593.12"/>
<polygon fill="black" stroke="black" points="1801.69,-589.66 1791.11,-590.07 1799.64,-596.35 1801.69,-589.66"/>
<text text-anchor="middle" x="1907" y="-611.8" font-family="Times New Roman,serif" font-size="14.00"> 0 &#45;&gt; 1 </text>
</g>
<!-- CLONE_5 -->
<g id="node13" class="node">
<title>CLONE_5</title>
<polygon fill="none" stroke="blue" stroke-dasharray="5,2" points="1986,-903 1846,-903 1846,-835 1986,-835 1986,-903"/>
<text text-anchor="middle" x="1916" y="-887.8" font-family="Times New Roman,serif" font-size="14.00">friendly_name: input3</text>
<text text-anchor="middle" x="1916" y="-872.8" font-family="Times New Roman,serif" font-size="14.00">name: Parameter_91</text>
<text text-anchor="middle" x="1916" y="-857.8" font-family="Times New Roman,serif" font-size="14.00">type_name: Parameter</text>
<text text-anchor="middle" x="1916" y="-842.8" font-family="Times New Roman,serif" font-size="14.00">{f32}[1,3,9,9]</text>
</g>
<!-- CLONE_5&#45;&gt;FakeQuantize_96 -->
<g id="edge12" class="edge">
<title>CLONE_5&#45;&gt;FakeQuantize_96</title>
<path fill="none" stroke="black" d="M1973.92,-834.86C1997.51,-821.36 2025.83,-805.15 2053.97,-789.05"/>
<polygon fill="black" stroke="black" points="2055.75,-792.06 2062.69,-784.06 2052.27,-785.99 2055.75,-792.06"/>
<text text-anchor="middle" x="2048" y="-805.8" font-family="Times New Roman,serif" font-size="14.00"> 0 &#45;&gt; 0 </text>
</g>
<!-- CLONE_6 -->
<g id="node14" class="node">
<title>CLONE_6</title>
<polygon fill="none" stroke="black" stroke-dasharray="5,2" points="2177.5,-903 2004.5,-903 2004.5,-835 2177.5,-835 2177.5,-903"/>
<text text-anchor="middle" x="2091" y="-887.8" font-family="Times New Roman,serif" font-size="14.00">friendly_name: Constant_92</text>
<text text-anchor="middle" x="2091" y="-872.8" font-family="Times New Roman,serif" font-size="14.00">type_name: Constant</text>
<text text-anchor="middle" x="2091" y="-857.8" font-family="Times New Roman,serif" font-size="14.00">{f32}[]</text>
<text text-anchor="middle" x="2091" y="-842.8" font-family="Times New Roman,serif" font-size="14.00">value: [&#45;1.28]</text>
</g>
<!-- CLONE_6&#45;&gt;FakeQuantize_96 -->
<g id="edge13" class="edge">
<title>CLONE_6&#45;&gt;FakeQuantize_96</title>
<path fill="none" stroke="black" d="M2111.38,-834.86C2119.04,-822.4 2128.11,-807.65 2137.24,-792.8"/>
<polygon fill="black" stroke="black" points="2140.36,-794.41 2142.61,-784.06 2134.39,-790.75 2140.36,-794.41"/>
<text text-anchor="middle" x="2151" y="-805.8" font-family="Times New Roman,serif" font-size="14.00"> 0 &#45;&gt; 1 </text>
</g>
<!-- CLONE_7 -->
<g id="node15" class="node">
<title>CLONE_7</title>
<polygon fill="none" stroke="black" stroke-dasharray="5,2" points="2368.5,-903 2195.5,-903 2195.5,-835 2368.5,-835 2368.5,-903"/>
<text text-anchor="middle" x="2282" y="-887.8" font-family="Times New Roman,serif" font-size="14.00">friendly_name: Constant_93</text>
<text text-anchor="middle" x="2282" y="-872.8" font-family="Times New Roman,serif" font-size="14.00">type_name: Constant</text>
<text text-anchor="middle" x="2282" y="-857.8" font-family="Times New Roman,serif" font-size="14.00">{f32}[]</text>
<text text-anchor="middle" x="2282" y="-842.8" font-family="Times New Roman,serif" font-size="14.00">value: [1.27]</text>
</g>
<!-- CLONE_7&#45;&gt;FakeQuantize_96 -->
<g id="edge14" class="edge">
<title>CLONE_7&#45;&gt;FakeQuantize_96</title>
<path fill="none" stroke="black" d="M2261.41,-834.86C2253.67,-822.4 2244.5,-807.65 2235.27,-792.8"/>
<polygon fill="black" stroke="black" points="2238.09,-790.71 2229.84,-784.06 2232.15,-794.4 2238.09,-790.71"/>
<text text-anchor="middle" x="2270" y="-805.8" font-family="Times New Roman,serif" font-size="14.00"> 0 &#45;&gt; 2 </text>
</g>
<!-- CLONE_8 -->
<g id="node16" class="node">
<title>CLONE_8</title>
<polygon fill="none" stroke="black" stroke-dasharray="5,2" points="2559.5,-903 2386.5,-903 2386.5,-835 2559.5,-835 2559.5,-903"/>
<text text-anchor="middle" x="2473" y="-887.8" font-family="Times New Roman,serif" font-size="14.00">friendly_name: Constant_94</text>
<text text-anchor="middle" x="2473" y="-872.8" font-family="Times New Roman,serif" font-size="14.00">type_name: Constant</text>
<text text-anchor="middle" x="2473" y="-857.8" font-family="Times New Roman,serif" font-size="14.00">{f32}[]</text>
<text text-anchor="middle" x="2473" y="-842.8" font-family="Times New Roman,serif" font-size="14.00">value: [&#45;1.28]</text>
</g>
<!-- CLONE_8&#45;&gt;FakeQuantize_96 -->
<g id="edge15" class="edge">
<title>CLONE_8&#45;&gt;FakeQuantize_96</title>
<path fill="none" stroke="black" d="M2411.43,-834.86C2386.25,-821.3 2356,-805.01 2325.96,-788.84"/>
<polygon fill="black" stroke="black" points="2327.54,-785.72 2317.07,-784.06 2324.22,-791.88 2327.54,-785.72"/>
<text text-anchor="middle" x="2393" y="-805.8" font-family="Times New Roman,serif" font-size="14.00"> 0 &#45;&gt; 3 </text>
</g>
<!-- CLONE_9 -->
<g id="node17" class="node">
<title>CLONE_9</title>
<polygon fill="none" stroke="black" stroke-dasharray="5,2" points="2750.5,-903 2577.5,-903 2577.5,-835 2750.5,-835 2750.5,-903"/>
<text text-anchor="middle" x="2664" y="-887.8" font-family="Times New Roman,serif" font-size="14.00">friendly_name: Constant_95</text>
<text text-anchor="middle" x="2664" y="-872.8" font-family="Times New Roman,serif" font-size="14.00">type_name: Constant</text>
<text text-anchor="middle" x="2664" y="-857.8" font-family="Times New Roman,serif" font-size="14.00">{f32}[]</text>
<text text-anchor="middle" x="2664" y="-842.8" font-family="Times New Roman,serif" font-size="14.00">value: [1.27]</text>
</g>
<!-- CLONE_9&#45;&gt;FakeQuantize_96 -->
<g id="edge16" class="edge">
<title>CLONE_9&#45;&gt;FakeQuantize_96</title>
<path fill="none" stroke="black" d="M2577.42,-838.14C2574.24,-837.07 2571.1,-836.02 2568,-835 2502.33,-813.27 2430.06,-790.1 2366.23,-769.88"/>
<polygon fill="black" stroke="black" points="2367.06,-766.47 2356.47,-766.79 2364.94,-773.15 2367.06,-766.47"/>
<text text-anchor="middle" x="2527" y="-805.8" font-family="Times New Roman,serif" font-size="14.00"> 0 &#45;&gt; 4 </text>
</g>
<!-- CLONE_10 -->
<g id="node18" class="node">
<title>CLONE_10</title>
<polygon fill="none" stroke="blue" stroke-dasharray="5,2" points="1063,-903 923,-903 923,-835 1063,-835 1063,-903"/>
<text text-anchor="middle" x="993" y="-887.8" font-family="Times New Roman,serif" font-size="14.00">friendly_name: input2</text>
<text text-anchor="middle" x="993" y="-872.8" font-family="Times New Roman,serif" font-size="14.00">name: Parameter_85</text>
<text text-anchor="middle" x="993" y="-857.8" font-family="Times New Roman,serif" font-size="14.00">type_name: Parameter</text>
<text text-anchor="middle" x="993" y="-842.8" font-family="Times New Roman,serif" font-size="14.00">{f32}[1,3,9,9]</text>
</g>
<!-- CLONE_10&#45;&gt;FakeQuantize_90 -->
<g id="edge17" class="edge">
<title>CLONE_10&#45;&gt;FakeQuantize_90</title>
<path fill="none" stroke="black" d="M1063.14,-838.39C1097.36,-823.95 1140.23,-805.85 1182.63,-787.95"/>
<polygon fill="black" stroke="black" points="1184.1,-791.13 1191.95,-784.02 1181.38,-784.68 1184.1,-791.13"/>
<text text-anchor="middle" x="1165" y="-805.8" font-family="Times New Roman,serif" font-size="14.00"> 0 &#45;&gt; 0 </text>
</g>
<!-- CLONE_11 -->
<g id="node19" class="node">
<title>CLONE_11</title>
<polygon fill="none" stroke="black" stroke-dasharray="5,2" points="1254.5,-903 1081.5,-903 1081.5,-835 1254.5,-835 1254.5,-903"/>
<text text-anchor="middle" x="1168" y="-887.8" font-family="Times New Roman,serif" font-size="14.00">friendly_name: Constant_86</text>
<text text-anchor="middle" x="1168" y="-872.8" font-family="Times New Roman,serif" font-size="14.00">type_name: Constant</text>
<text text-anchor="middle" x="1168" y="-857.8" font-family="Times New Roman,serif" font-size="14.00">{f32}[]</text>
<text text-anchor="middle" x="1168" y="-842.8" font-family="Times New Roman,serif" font-size="14.00">value: [&#45;0.64]</text>
</g>
<!-- CLONE_11&#45;&gt;FakeQuantize_90 -->
<g id="edge18" class="edge">
<title>CLONE_11&#45;&gt;FakeQuantize_90</title>
<path fill="none" stroke="black" d="M1208.97,-834.86C1225.16,-821.76 1244.49,-806.13 1263.8,-790.51"/>
<polygon fill="black" stroke="black" points="1266.2,-793.07 1271.77,-784.06 1261.79,-787.63 1266.2,-793.07"/>
<text text-anchor="middle" x="1268" y="-805.8" font-family="Times New Roman,serif" font-size="14.00"> 0 &#45;&gt; 1 </text>
</g>
<!-- CLONE_12 -->
<g id="node20" class="node">
<title>CLONE_12</title>
<polygon fill="none" stroke="black" stroke-dasharray="5,2" points="1445.5,-903 1272.5,-903 1272.5,-835 1445.5,-835 1445.5,-903"/>
<text text-anchor="middle" x="1359" y="-887.8" font-family="Times New Roman,serif" font-size="14.00">friendly_name: Constant_87</text>
<text text-anchor="middle" x="1359" y="-872.8" font-family="Times New Roman,serif" font-size="14.00">type_name: Constant</text>
<text text-anchor="middle" x="1359" y="-857.8" font-family="Times New Roman,serif" font-size="14.00">{f32}[]</text>
<text text-anchor="middle" x="1359" y="-842.8" font-family="Times New Roman,serif" font-size="14.00">value: [0.635]</text>
</g>
<!-- CLONE_12&#45;&gt;FakeQuantize_90 -->
<g id="edge19" class="edge">
<title>CLONE_12&#45;&gt;FakeQuantize_90</title>
<path fill="none" stroke="black" d="M1359,-834.86C1359,-822.87 1359,-808.75 1359,-794.47"/>
<polygon fill="black" stroke="black" points="1362.5,-794.06 1359,-784.06 1355.5,-794.06 1362.5,-794.06"/>
<text text-anchor="middle" x="1380" y="-805.8" font-family="Times New Roman,serif" font-size="14.00"> 0 &#45;&gt; 2 </text>
</g>
<!-- CLONE_13 -->
<g id="node21" class="node">
<title>CLONE_13</title>
<polygon fill="none" stroke="black" stroke-dasharray="5,2" points="1636.5,-903 1463.5,-903 1463.5,-835 1636.5,-835 1636.5,-903"/>
<text text-anchor="middle" x="1550" y="-887.8" font-family="Times New Roman,serif" font-size="14.00">friendly_name: Constant_88</text>
<text text-anchor="middle" x="1550" y="-872.8" font-family="Times New Roman,serif" font-size="14.00">type_name: Constant</text>
<text text-anchor="middle" x="1550" y="-857.8" font-family="Times New Roman,serif" font-size="14.00">{f32}[]</text>
<text text-anchor="middle" x="1550" y="-842.8" font-family="Times New Roman,serif" font-size="14.00">value: [&#45;0.64]</text>
</g>
<!-- CLONE_13&#45;&gt;FakeQuantize_90 -->
<g id="edge20" class="edge">
<title>CLONE_13&#45;&gt;FakeQuantize_90</title>
<path fill="none" stroke="black" d="M1509.03,-834.86C1492.84,-821.76 1473.51,-806.13 1454.2,-790.51"/>
<polygon fill="black" stroke="black" points="1456.21,-787.63 1446.23,-784.06 1451.8,-793.07 1456.21,-787.63"/>
<text text-anchor="middle" x="1504" y="-805.8" font-family="Times New Roman,serif" font-size="14.00"> 0 &#45;&gt; 3 </text>
</g>
<!-- CLONE_14 -->
<g id="node22" class="node">
<title>CLONE_14</title>
<polygon fill="none" stroke="black" stroke-dasharray="5,2" points="1827.5,-903 1654.5,-903 1654.5,-835 1827.5,-835 1827.5,-903"/>
<text text-anchor="middle" x="1741" y="-887.8" font-family="Times New Roman,serif" font-size="14.00">friendly_name: Constant_89</text>
<text text-anchor="middle" x="1741" y="-872.8" font-family="Times New Roman,serif" font-size="14.00">type_name: Constant</text>
<text text-anchor="middle" x="1741" y="-857.8" font-family="Times New Roman,serif" font-size="14.00">{f32}[]</text>
<text text-anchor="middle" x="1741" y="-842.8" font-family="Times New Roman,serif" font-size="14.00">value: [0.635]</text>
</g>
<!-- CLONE_14&#45;&gt;FakeQuantize_90 -->
<g id="edge21" class="edge">
<title>CLONE_14&#45;&gt;FakeQuantize_90</title>
<path fill="none" stroke="black" d="M1659.05,-834.86C1623.62,-820.52 1580.65,-803.15 1538.44,-786.07"/>
<polygon fill="black" stroke="black" points="1539.74,-782.83 1529.16,-782.32 1537.12,-789.32 1539.74,-782.83"/>
<text text-anchor="middle" x="1628" y="-805.8" font-family="Times New Roman,serif" font-size="14.00"> 0 &#45;&gt; 4 </text>
</g>
<!-- Result_107 -->
<g id="node24" class="node">
<title>Result_107</title>
<polygon fill="none" stroke="crimson" stroke-width="1.5" points="1132,-373.5 914,-373.5 914,-305.5 1132,-305.5 1132,-373.5"/>
<text text-anchor="middle" x="1023" y="-358.3" font-family="Times New Roman,serif" font-size="14.00">friendly_name: Result_107</text>
<text text-anchor="middle" x="1023" y="-343.3" font-family="Times New Roman,serif" font-size="14.00">type_name: Result</text>
<text text-anchor="middle" x="1023" y="-328.3" font-family="Times New Roman,serif" font-size="14.00">in0: {f32}[1,6,9,9]: Concat_97: out0</text>
<text text-anchor="middle" x="1023" y="-313.3" font-family="Times New Roman,serif" font-size="14.00">out0: {f32}[1,6,9,9]</text>
</g>
<!-- Concat_97&#45;&gt;Result_107 -->
<g id="edge22" class="edge">
<title>Concat_97&#45;&gt;Result_107</title>
<path fill="none" stroke="black" d="M1023,-461.76C1023,-436.07 1023,-407.04 1023,-383.82"/>
<polygon fill="black" stroke="black" points="1026.5,-383.6 1023,-373.6 1019.5,-383.6 1026.5,-383.6"/>
<text text-anchor="middle" x="1044" y="-432.8" font-family="Times New Roman,serif" font-size="14.00"> 0 &#45;&gt; 0 </text>
</g>
<!-- FakeQuantize_84 -->
<g id="node25" class="node">
<title>FakeQuantize_84</title>
<polygon fill="none" stroke="black" points="702,-784 362,-784 362,-641 702,-641 702,-784"/>
<text text-anchor="middle" x="532" y="-768.8" font-family="Times New Roman,serif" font-size="14.00">friendly_name: fakeQuantize1</text>
<text text-anchor="middle" x="532" y="-753.8" font-family="Times New Roman,serif" font-size="14.00">name: FakeQuantize_84</text>
<text text-anchor="middle" x="532" y="-738.8" font-family="Times New Roman,serif" font-size="14.00">type_name: FakeQuantize</text>
<text text-anchor="middle" x="532" y="-723.8" font-family="Times New Roman,serif" font-size="14.00">in0: {f32}[1,3,9,9]: Parameter_79: out0</text>
<text text-anchor="middle" x="532" y="-708.8" font-family="Times New Roman,serif" font-size="14.00">in1: {f32}[]: Constant_80: out0</text>
<text text-anchor="middle" x="532" y="-693.8" font-family="Times New Roman,serif" font-size="14.00">in2: {f32}[]: Constant_81: out0</text>
<text text-anchor="middle" x="532" y="-678.8" font-family="Times New Roman,serif" font-size="14.00">in3: {f32}[]: Constant_82: out0</text>
<text text-anchor="middle" x="532" y="-663.8" font-family="Times New Roman,serif" font-size="14.00">in4: {f32}[]: Constant_83: out0</text>
<text text-anchor="middle" x="532" y="-648.8" font-family="Times New Roman,serif" font-size="14.00">out0: {f32}[1,3,9,9] PRECISIONS(2588780580416: u8}) </text>
</g>
<!-- FakeQuantize_84&#45;&gt;Concat_97 -->
<g id="edge23" class="edge">
<title>FakeQuantize_84&#45;&gt;Concat_97</title>
<path fill="none" stroke="black" d="M702.01,-647.62C748.41,-630.18 798.79,-611.25 845.6,-593.66"/>
<polygon fill="black" stroke="black" points="847.09,-596.84 855.22,-590.05 844.62,-590.29 847.09,-596.84"/>
<text text-anchor="middle" x="828" y="-611.8" font-family="Times New Roman,serif" font-size="14.00"> 0 &#45;&gt; 0 </text>
</g>
<!-- CLONE_15 -->
<g id="node26" class="node">
<title>CLONE_15</title>
<polygon fill="none" stroke="blue" stroke-dasharray="5,2" points="140,-903 0,-903 0,-835 140,-835 140,-903"/>
<text text-anchor="middle" x="70" y="-887.8" font-family="Times New Roman,serif" font-size="14.00">friendly_name: input1</text>
<text text-anchor="middle" x="70" y="-872.8" font-family="Times New Roman,serif" font-size="14.00">name: Parameter_79</text>
<text text-anchor="middle" x="70" y="-857.8" font-family="Times New Roman,serif" font-size="14.00">type_name: Parameter</text>
<text text-anchor="middle" x="70" y="-842.8" font-family="Times New Roman,serif" font-size="14.00">{f32}[1,3,9,9]</text>
</g>
<!-- CLONE_15&#45;&gt;FakeQuantize_84 -->
<g id="edge25" class="edge">
<title>CLONE_15&#45;&gt;FakeQuantize_84</title>
<path fill="none" stroke="black" d="M140.08,-838.35C143.09,-837.19 146.07,-836.07 149,-835 214.57,-810.96 287.42,-787.14 351.84,-767.05"/>
<polygon fill="black" stroke="black" points="353.19,-770.29 361.69,-763.98 351.11,-763.61 353.19,-770.29"/>
<text text-anchor="middle" x="264" y="-805.8" font-family="Times New Roman,serif" font-size="14.00"> 0 &#45;&gt; 0 </text>
</g>
<!-- CLONE_16 -->
<g id="node27" class="node">
<title>CLONE_16</title>
<polygon fill="none" stroke="black" stroke-dasharray="5,2" points="331.5,-903 158.5,-903 158.5,-835 331.5,-835 331.5,-903"/>
<text text-anchor="middle" x="245" y="-887.8" font-family="Times New Roman,serif" font-size="14.00">friendly_name: Constant_80</text>
<text text-anchor="middle" x="245" y="-872.8" font-family="Times New Roman,serif" font-size="14.00">type_name: Constant</text>
<text text-anchor="middle" x="245" y="-857.8" font-family="Times New Roman,serif" font-size="14.00">{f32}[]</text>
<text text-anchor="middle" x="245" y="-842.8" font-family="Times New Roman,serif" font-size="14.00">value: [&#45;0.426667]</text>
</g>
<!-- CLONE_16&#45;&gt;FakeQuantize_84 -->
<g id="edge26" class="edge">
<title>CLONE_16&#45;&gt;FakeQuantize_84</title>
<path fill="none" stroke="black" d="M306.57,-834.86C331.75,-821.3 362,-805.01 392.04,-788.84"/>
<polygon fill="black" stroke="black" points="393.78,-791.88 400.93,-784.06 390.46,-785.72 393.78,-791.88"/>
<text text-anchor="middle" x="384" y="-805.8" font-family="Times New Roman,serif" font-size="14.00"> 0 &#45;&gt; 1 </text>
</g>
<!-- CLONE_17 -->
<g id="node28" class="node">
<title>CLONE_17</title>
<polygon fill="none" stroke="black" stroke-dasharray="5,2" points="522.5,-903 349.5,-903 349.5,-835 522.5,-835 522.5,-903"/>
<text text-anchor="middle" x="436" y="-887.8" font-family="Times New Roman,serif" font-size="14.00">friendly_name: Constant_81</text>
<text text-anchor="middle" x="436" y="-872.8" font-family="Times New Roman,serif" font-size="14.00">type_name: Constant</text>
<text text-anchor="middle" x="436" y="-857.8" font-family="Times New Roman,serif" font-size="14.00">{f32}[]</text>
<text text-anchor="middle" x="436" y="-842.8" font-family="Times New Roman,serif" font-size="14.00">value: [0.423333]</text>
</g>
<!-- CLONE_17&#45;&gt;FakeQuantize_84 -->
<g id="edge27" class="edge">
<title>CLONE_17&#45;&gt;FakeQuantize_84</title>
<path fill="none" stroke="black" d="M456.59,-834.86C464.33,-822.4 473.5,-807.65 482.73,-792.8"/>
<polygon fill="black" stroke="black" points="485.85,-794.4 488.16,-784.06 479.91,-790.71 485.85,-794.4"/>
<text text-anchor="middle" x="497" y="-805.8" font-family="Times New Roman,serif" font-size="14.00"> 0 &#45;&gt; 2 </text>
</g>
<!-- CLONE_18 -->
<g id="node29" class="node">
<title>CLONE_18</title>
<polygon fill="none" stroke="black" stroke-dasharray="5,2" points="713.5,-903 540.5,-903 540.5,-835 713.5,-835 713.5,-903"/>
<text text-anchor="middle" x="627" y="-887.8" font-family="Times New Roman,serif" font-size="14.00">friendly_name: Constant_82</text>
<text text-anchor="middle" x="627" y="-872.8" font-family="Times New Roman,serif" font-size="14.00">type_name: Constant</text>
<text text-anchor="middle" x="627" y="-857.8" font-family="Times New Roman,serif" font-size="14.00">{f32}[]</text>
<text text-anchor="middle" x="627" y="-842.8" font-family="Times New Roman,serif" font-size="14.00">value: [&#45;0.426667]</text>
</g>
<!-- CLONE_18&#45;&gt;FakeQuantize_84 -->
<g id="edge28" class="edge">
<title>CLONE_18&#45;&gt;FakeQuantize_84</title>
<path fill="none" stroke="black" d="M606.62,-834.86C598.96,-822.4 589.89,-807.65 580.76,-792.8"/>
<polygon fill="black" stroke="black" points="583.61,-790.75 575.39,-784.06 577.64,-794.41 583.61,-790.75"/>
<text text-anchor="middle" x="615" y="-805.8" font-family="Times New Roman,serif" font-size="14.00"> 0 &#45;&gt; 3 </text>
</g>
<!-- CLONE_19 -->
<g id="node30" class="node">
<title>CLONE_19</title>
<polygon fill="none" stroke="black" stroke-dasharray="5,2" points="904.5,-903 731.5,-903 731.5,-835 904.5,-835 904.5,-903"/>
<text text-anchor="middle" x="818" y="-887.8" font-family="Times New Roman,serif" font-size="14.00">friendly_name: Constant_83</text>
<text text-anchor="middle" x="818" y="-872.8" font-family="Times New Roman,serif" font-size="14.00">type_name: Constant</text>
<text text-anchor="middle" x="818" y="-857.8" font-family="Times New Roman,serif" font-size="14.00">{f32}[]</text>
<text text-anchor="middle" x="818" y="-842.8" font-family="Times New Roman,serif" font-size="14.00">value: [0.423333]</text>
</g>
<!-- CLONE_19&#45;&gt;FakeQuantize_84 -->
<g id="edge29" class="edge">
<title>CLONE_19&#45;&gt;FakeQuantize_84</title>
<path fill="none" stroke="black" d="M756.65,-834.86C731.55,-821.3 701.41,-805.01 671.47,-788.84"/>
<polygon fill="black" stroke="black" points="673.08,-785.73 662.62,-784.06 669.75,-791.89 673.08,-785.73"/>
<text text-anchor="middle" x="739" y="-805.8" font-family="Times New Roman,serif" font-size="14.00"> 0 &#45;&gt; 4 </text>
</g>
</g>
</svg>
