<?xml version="1.0" encoding="UTF-8" standalone="no"?>
<!DOCTYPE svg PUBLIC "-//W3C//DTD SVG 1.1//EN"
 "http://www.w3.org/Graphics/SVG/1.1/DTD/svg11.dtd">
<!-- Generated by graphviz version 2.43.20200408.0903 (20200408.0903)
 -->
<!-- Title: ngraph Pages: 1 -->
<svg width="2801pt" height="1329pt"
 viewBox="0.00 0.00 2801.00 1329.00" xmlns="http://www.w3.org/2000/svg" xmlns:xlink="http://www.w3.org/1999/xlink">
<g id="graph0" class="graph" transform="scale(1 1) rotate(0) translate(4 1325)">
<title>ngraph</title>
<polygon fill="white" stroke="transparent" points="-4,4 -4,-1325 2797,-1325 2797,4 -4,4"/>
<!-- Multiply_214 -->
<g id="node1" class="node">
<title>Multiply_214</title>
<polygon fill="none" stroke="black" points="2524,-232 2270,-232 2270,-119 2524,-119 2524,-232"/>
<text text-anchor="middle" x="2397" y="-216.8" font-family="Times New Roman,serif" font-size="14.00">friendly_name: Convolution_211</text>
<text text-anchor="middle" x="2397" y="-201.8" font-family="Times New Roman,serif" font-size="14.00">name: Multiply_214</text>
<text text-anchor="middle" x="2397" y="-186.8" font-family="Times New Roman,serif" font-size="14.00">type_name: Multiply</text>
<text text-anchor="middle" x="2397" y="-171.8" font-family="Times New Roman,serif" font-size="14.00">rt info: &#160;DEQUANTIZATION</text>
<text text-anchor="middle" x="2397" y="-156.8" font-family="Times New Roman,serif" font-size="14.00">in0: {f32}[1,9,7,7]: Convolution_211: out0</text>
<text text-anchor="middle" x="2397" y="-141.8" font-family="Times New Roman,serif" font-size="14.00">in1: {f32}[1,9,1,1]: Constant_217: out0</text>
<text text-anchor="middle" x="2397" y="-126.8" font-family="Times New Roman,serif" font-size="14.00">out0: {f32}[1,9,7,7]</text>
</g>
<!-- Result_108 -->
<g id="node2" class="node">
<title>Result_108</title>
<polygon fill="none" stroke="crimson" stroke-width="1.5" points="2512,-68 2282,-68 2282,0 2512,0 2512,-68"/>
<text text-anchor="middle" x="2397" y="-52.8" font-family="Times New Roman,serif" font-size="14.00">friendly_name: Result_108</text>
<text text-anchor="middle" x="2397" y="-37.8" font-family="Times New Roman,serif" font-size="14.00">type_name: Result</text>
<text text-anchor="middle" x="2397" y="-22.8" font-family="Times New Roman,serif" font-size="14.00">in0: {f32}[1,9,7,7]: Multiply_214: out0</text>
<text text-anchor="middle" x="2397" y="-7.8" font-family="Times New Roman,serif" font-size="14.00">out0: {f32}[1,9,7,7]</text>
</g>
<!-- Multiply_214&#45;&gt;Result_108 -->
<g id="edge1" class="edge">
<title>Multiply_214&#45;&gt;Result_108</title>
<path fill="none" stroke="black" d="M2397,-118.97C2397,-105.55 2397,-91.4 2397,-78.62"/>
<polygon fill="black" stroke="black" points="2400.5,-78.25 2397,-68.25 2393.5,-78.25 2400.5,-78.25"/>
<text text-anchor="middle" x="2418" y="-89.8" font-family="Times New Roman,serif" font-size="14.00"> 0 &#45;&gt; 0 </text>
</g>
<!-- Convolution_211 -->
<g id="node3" class="node">
<title>Convolution_211</title>
<polygon fill="none" stroke="black" points="2277.5,-396 2030.5,-396 2030.5,-298 2277.5,-298 2277.5,-396"/>
<text text-anchor="middle" x="2154" y="-380.8" font-family="Times New Roman,serif" font-size="14.00">friendly_name: Convolution_211_original</text>
<text text-anchor="middle" x="2154" y="-365.8" font-family="Times New Roman,serif" font-size="14.00">name: Convolution_211</text>
<text text-anchor="middle" x="2154" y="-350.8" font-family="Times New Roman,serif" font-size="14.00">type_name: Convolution</text>
<text text-anchor="middle" x="2154" y="-335.8" font-family="Times New Roman,serif" font-size="14.00">in0: {f32}[1,6,7,7]: Subtract_185: out0</text>
<text text-anchor="middle" x="2154" y="-320.8" font-family="Times New Roman,serif" font-size="14.00">in1: {i8}[9,6,1,1]: Constant_199: out0</text>
<text text-anchor="middle" x="2154" y="-305.8" font-family="Times New Roman,serif" font-size="14.00">out0: {f32}[1,9,7,7]</text>
</g>
<!-- Convolution_211&#45;&gt;Multiply_214 -->
<g id="edge2" class="edge">
<title>Convolution_211&#45;&gt;Multiply_214</title>
<path fill="none" stroke="black" d="M2222.98,-297.88C2249.68,-279.26 2280.55,-257.73 2308.82,-238.01"/>
<polygon fill="black" stroke="black" points="2310.91,-240.82 2317.11,-232.22 2306.91,-235.07 2310.91,-240.82"/>
<text text-anchor="middle" x="2312" y="-253.8" font-family="Times New Roman,serif" font-size="14.00"> 0 &#45;&gt; 0 </text>
</g>
<!-- CLONE_0 -->
<g id="node4" class="node">
<title>CLONE_0</title>
<polygon fill="none" stroke="black" stroke-dasharray="5,2" points="2704.5,-388.5 2295.5,-388.5 2295.5,-305.5 2704.5,-305.5 2704.5,-388.5"/>
<text text-anchor="middle" x="2500" y="-373.3" font-family="Times New Roman,serif" font-size="14.00">friendly_name: Constant_217</text>
<text text-anchor="middle" x="2500" y="-358.3" font-family="Times New Roman,serif" font-size="14.00">type_name: Constant</text>
<text text-anchor="middle" x="2500" y="-343.3" font-family="Times New Roman,serif" font-size="14.00">{f32}[1,9,1,1]</text>
<text text-anchor="middle" x="2500" y="-328.3" font-family="Times New Roman,serif" font-size="14.00">value: [0.0001, 0.0001, 0.0001, 0.0001, 0.0001, 0.0001, 0.0001, 0.0001</text>
<text text-anchor="middle" x="2500" y="-313.3" font-family="Times New Roman,serif" font-size="14.00">, 0.0001]</text>
</g>
<!-- CLONE_0&#45;&gt;Multiply_214 -->
<g id="edge3" class="edge">
<title>CLONE_0&#45;&gt;Multiply_214</title>
<path fill="none" stroke="black" d="M2475.33,-305.4C2463.61,-286.12 2449.32,-262.61 2436.18,-240.97"/>
<polygon fill="black" stroke="black" points="2439,-238.88 2430.82,-232.15 2433.02,-242.51 2439,-238.88"/>
<text text-anchor="middle" x="2470" y="-253.8" font-family="Times New Roman,serif" font-size="14.00"> 0 &#45;&gt; 1 </text>
</g>
<!-- Subtract_185 -->
<g id="node5" class="node">
<title>Subtract_185</title>
<polygon fill="none" stroke="black" points="2111,-605 1663,-605 1663,-462 2111,-462 2111,-605"/>
<text text-anchor="middle" x="1887" y="-589.8" font-family="Times New Roman,serif" font-size="14.00">friendly_name: Subtract_170</text>
<text text-anchor="middle" x="1887" y="-574.8" font-family="Times New Roman,serif" font-size="14.00">name: Subtract_185</text>
<text text-anchor="middle" x="1887" y="-559.8" font-family="Times New Roman,serif" font-size="14.00">type_name: Subtract</text>
<text text-anchor="middle" x="1887" y="-544.8" font-family="Times New Roman,serif" font-size="14.00">rt info: &#160;INTERVALS_ALIGNMENT(2588780199328: low: &#45;1.28, high: 1.27)</text>
<text text-anchor="middle" x="1887" y="-529.8" font-family="Times New Roman,serif" font-size="14.00">PRECISION_PRESERVED(value: true)</text>
<text text-anchor="middle" x="1887" y="-514.8" font-family="Times New Roman,serif" font-size="14.00">QUANTIZATION_ALIGNMENT(2588780198176: value: true)</text>
<text text-anchor="middle" x="1887" y="-499.8" font-family="Times New Roman,serif" font-size="14.00">in0: {u8}[1,6,7,7]: MaxPool_168: out0</text>
<text text-anchor="middle" x="1887" y="-484.8" font-family="Times New Roman,serif" font-size="14.00">in1: {u8}[1,6,1,1]: Constant_184: out0</text>
<text text-anchor="middle" x="1887" y="-469.8" font-family="Times New Roman,serif" font-size="14.00">out0: {f32}[1,6,7,7]</text>
</g>
<!-- Subtract_185&#45;&gt;Convolution_211 -->
<g id="edge4" class="edge">
<title>Subtract_185&#45;&gt;Convolution_211</title>
<path fill="none" stroke="black" d="M1989.08,-461.96C2017.9,-442.05 2048.79,-420.7 2075.95,-401.93"/>
<polygon fill="black" stroke="black" points="2078.02,-404.76 2084.26,-396.19 2074.04,-399 2078.02,-404.76"/>
<text text-anchor="middle" x="2058" y="-432.8" font-family="Times New Roman,serif" font-size="14.00"> 0 &#45;&gt; 0 </text>
</g>
<!-- CLONE_1 -->
<g id="node6" class="node">
<title>CLONE_1</title>
<polygon fill="none" stroke="black" stroke-dasharray="5,2" points="2400.5,-590 2129.5,-590 2129.5,-477 2400.5,-477 2400.5,-590"/>
<text text-anchor="middle" x="2265" y="-574.8" font-family="Times New Roman,serif" font-size="14.00">friendly_name: Constant_199</text>
<text text-anchor="middle" x="2265" y="-559.8" font-family="Times New Roman,serif" font-size="14.00">type_name: Constant</text>
<text text-anchor="middle" x="2265" y="-544.8" font-family="Times New Roman,serif" font-size="14.00">{i8}[9,6,1,1]</text>
<text text-anchor="middle" x="2265" y="-529.8" font-family="Times New Roman,serif" font-size="14.00">value: [127, 127, 127, 127, 127, 127, 127, 127</text>
<text text-anchor="middle" x="2265" y="-514.8" font-family="Times New Roman,serif" font-size="14.00">, 127, 127, 127, 127, 127, 127, 127, 127</text>
<text text-anchor="middle" x="2265" y="-499.8" font-family="Times New Roman,serif" font-size="14.00">, 127, 127, 127, 127, 127, 127, 127, 127</text>
<text text-anchor="middle" x="2265" y="-484.8" font-family="Times New Roman,serif" font-size="14.00">, 127, 127, 127, 127, 127, 127, 127, 127...]</text>
</g>
<!-- CLONE_1&#45;&gt;Convolution_211 -->
<g id="edge5" class="edge">
<title>CLONE_1&#45;&gt;Convolution_211</title>
<path fill="none" stroke="black" d="M2231.55,-476.89C2217.79,-454.03 2201.88,-427.58 2188.06,-404.62"/>
<polygon fill="black" stroke="black" points="2191.03,-402.77 2182.88,-396 2185.03,-406.37 2191.03,-402.77"/>
<text text-anchor="middle" x="2231" y="-432.8" font-family="Times New Roman,serif" font-size="14.00"> 0 &#45;&gt; 1 </text>
</g>
<!-- MaxPool_168 -->
<g id="node7" class="node">
<title>MaxPool_168</title>
<polygon fill="none" stroke="black" points="1864,-784 1416,-784 1416,-656 1864,-656 1864,-784"/>
<text text-anchor="middle" x="1640" y="-768.8" font-family="Times New Roman,serif" font-size="14.00">friendly_name: MaxPool</text>
<text text-anchor="middle" x="1640" y="-753.8" font-family="Times New Roman,serif" font-size="14.00">name: MaxPool_168</text>
<text text-anchor="middle" x="1640" y="-738.8" font-family="Times New Roman,serif" font-size="14.00">type_name: MaxPool</text>
<text text-anchor="middle" x="1640" y="-723.8" font-family="Times New Roman,serif" font-size="14.00">rt info: &#160;INTERVALS_ALIGNMENT(2588780199328: low: &#45;1.28, high: 1.27)</text>
<text text-anchor="middle" x="1640" y="-708.8" font-family="Times New Roman,serif" font-size="14.00">PRECISION_PRESERVED(value: true)</text>
<text text-anchor="middle" x="1640" y="-693.8" font-family="Times New Roman,serif" font-size="14.00">QUANTIZATION_ALIGNMENT(2588780198176: value: true)</text>
<text text-anchor="middle" x="1640" y="-678.8" font-family="Times New Roman,serif" font-size="14.00">in0: {u8}[1,6,9,9]: Concat_167: out0</text>
<text text-anchor="middle" x="1640" y="-663.8" font-family="Times New Roman,serif" font-size="14.00">out0: {u8}[1,6,7,7]</text>
</g>
<!-- MaxPool_168&#45;&gt;Subtract_185 -->
<g id="edge6" class="edge">
<title>MaxPool_168&#45;&gt;Subtract_185</title>
<path fill="none" stroke="black" d="M1724.66,-655.76C1743.81,-641.46 1764.34,-626.12 1784.15,-611.33"/>
<polygon fill="black" stroke="black" points="1786.37,-614.04 1792.28,-605.25 1782.18,-608.43 1786.37,-614.04"/>
<text text-anchor="middle" x="1785" y="-626.8" font-family="Times New Roman,serif" font-size="14.00"> 0 &#45;&gt; 0 </text>
</g>
<!-- CLONE_2 -->
<g id="node8" class="node">
<title>CLONE_2</title>
<polygon fill="none" stroke="black" stroke-dasharray="5,2" points="2102,-754 1882,-754 1882,-686 2102,-686 2102,-754"/>
<text text-anchor="middle" x="1992" y="-738.8" font-family="Times New Roman,serif" font-size="14.00">friendly_name: Constant_184</text>
<text text-anchor="middle" x="1992" y="-723.8" font-family="Times New Roman,serif" font-size="14.00">type_name: Constant</text>
<text text-anchor="middle" x="1992" y="-708.8" font-family="Times New Roman,serif" font-size="14.00">{u8}[1,6,1,1]</text>
<text text-anchor="middle" x="1992" y="-693.8" font-family="Times New Roman,serif" font-size="14.00">value: [128, 128, 128, 128, 128, 128]</text>
</g>
<!-- CLONE_2&#45;&gt;Subtract_185 -->
<g id="edge7" class="edge">
<title>CLONE_2&#45;&gt;Subtract_185</title>
<path fill="none" stroke="black" d="M1972.99,-685.59C1961.57,-665.52 1946.52,-639.09 1932.21,-613.94"/>
<polygon fill="black" stroke="black" points="1935.18,-612.08 1927.19,-605.12 1929.09,-615.54 1935.18,-612.08"/>
<text text-anchor="middle" x="1967" y="-626.8" font-family="Times New Roman,serif" font-size="14.00"> 0 &#45;&gt; 1 </text>
</g>
<!-- Concat_167 -->
<g id="node9" class="node">
<title>Concat_167</title>
<polygon fill="none" stroke="black" points="1864,-993 1416,-993 1416,-835 1864,-835 1864,-993"/>
<text text-anchor="middle" x="1640" y="-977.8" font-family="Times New Roman,serif" font-size="14.00">friendly_name: concat2</text>
<text text-anchor="middle" x="1640" y="-962.8" font-family="Times New Roman,serif" font-size="14.00">name: Concat_167</text>
<text text-anchor="middle" x="1640" y="-947.8" font-family="Times New Roman,serif" font-size="14.00">type_name: Concat</text>
<text text-anchor="middle" x="1640" y="-932.8" font-family="Times New Roman,serif" font-size="14.00">rt info: &#160;INTERVALS_ALIGNMENT(2588780199328: low: &#45;1.28, high: 1.27)</text>
<text text-anchor="middle" x="1640" y="-917.8" font-family="Times New Roman,serif" font-size="14.00">PRECISION_PRESERVED(value: true)</text>
<text text-anchor="middle" x="1640" y="-902.8" font-family="Times New Roman,serif" font-size="14.00">QUANTIZATION_ALIGNMENT(2588780198176: value: true)</text>
<text text-anchor="middle" x="1640" y="-887.8" font-family="Times New Roman,serif" font-size="14.00">Variant::std::string</text>
<text text-anchor="middle" x="1640" y="-872.8" font-family="Times New Roman,serif" font-size="14.00">in0: {u8}[1,3,9,9]: FakeQuantize_117: out0</text>
<text text-anchor="middle" x="1640" y="-857.8" font-family="Times New Roman,serif" font-size="14.00">in1: {u8}[1,3,9,9]: FakeQuantize_126: out0</text>
<text text-anchor="middle" x="1640" y="-842.8" font-family="Times New Roman,serif" font-size="14.00">out0: {u8}[1,6,9,9]</text>
</g>
<!-- Concat_167&#45;&gt;MaxPool_168 -->
<g id="edge8" class="edge">
<title>Concat_167&#45;&gt;MaxPool_168</title>
<path fill="none" stroke="black" d="M1640,-834.91C1640,-821.42 1640,-807.45 1640,-794.1"/>
<polygon fill="black" stroke="black" points="1643.5,-794.03 1640,-784.03 1636.5,-794.03 1643.5,-794.03"/>
<text text-anchor="middle" x="1661" y="-805.8" font-family="Times New Roman,serif" font-size="14.00"> 0 &#45;&gt; 0 </text>
</g>
<!-- FakeQuantize_117 -->
<g id="node10" class="node">
<title>FakeQuantize_117</title>
<polygon fill="none" stroke="black" points="1597,-1202 1149,-1202 1149,-1044 1597,-1044 1597,-1202"/>
<text text-anchor="middle" x="1373" y="-1186.8" font-family="Times New Roman,serif" font-size="14.00">friendly_name: fakeQuantize2</text>
<text text-anchor="middle" x="1373" y="-1171.8" font-family="Times New Roman,serif" font-size="14.00">name: FakeQuantize_117</text>
<text text-anchor="middle" x="1373" y="-1156.8" font-family="Times New Roman,serif" font-size="14.00">type_name: FakeQuantize</text>
<text text-anchor="middle" x="1373" y="-1141.8" font-family="Times New Roman,serif" font-size="14.00">rt info: &#160;INTERVALS_ALIGNMENT(2588780199328: low: &#45;1.28, high: 1.27)</text>
<text text-anchor="middle" x="1373" y="-1126.8" font-family="Times New Roman,serif" font-size="14.00">in0: {f32}[1,3,9,9]: Parameter_85: out0</text>
<text text-anchor="middle" x="1373" y="-1111.8" font-family="Times New Roman,serif" font-size="14.00">in1: {f32}[]: Constant_86: out0</text>
<text text-anchor="middle" x="1373" y="-1096.8" font-family="Times New Roman,serif" font-size="14.00">in2: {f32}[]: Constant_87: out0</text>
<text text-anchor="middle" x="1373" y="-1081.8" font-family="Times New Roman,serif" font-size="14.00">in3: {f32}[]: Constant_115: out0</text>
<text text-anchor="middle" x="1373" y="-1066.8" font-family="Times New Roman,serif" font-size="14.00">in4: {f32}[]: Constant_116: out0</text>
<text text-anchor="middle" x="1373" y="-1051.8" font-family="Times New Roman,serif" font-size="14.00">out0: {u8}[1,3,9,9]</text>
</g>
<!-- FakeQuantize_117&#45;&gt;Concat_167 -->
<g id="edge9" class="edge">
<title>FakeQuantize_117&#45;&gt;Concat_167</title>
<path fill="none" stroke="black" d="M1473.94,-1043.74C1492.68,-1029.22 1512.33,-1013.98 1531.28,-999.29"/>
<polygon fill="black" stroke="black" points="1533.6,-1001.92 1539.36,-993.03 1529.31,-996.39 1533.6,-1001.92"/>
<text text-anchor="middle" x="1536" y="-1014.8" font-family="Times New Roman,serif" font-size="14.00"> 0 &#45;&gt; 0 </text>
</g>
<!-- Concat_261 -->
<g id="node28" class="node">
<title>Concat_261</title>
<polygon fill="none" stroke="black" points="1329,-993 881,-993 881,-835 1329,-835 1329,-993"/>
<text text-anchor="middle" x="1105" y="-977.8" font-family="Times New Roman,serif" font-size="14.00">friendly_name: concat1_original</text>
<text text-anchor="middle" x="1105" y="-962.8" font-family="Times New Roman,serif" font-size="14.00">name: Concat_261</text>
<text text-anchor="middle" x="1105" y="-947.8" font-family="Times New Roman,serif" font-size="14.00">type_name: Concat</text>
<text text-anchor="middle" x="1105" y="-932.8" font-family="Times New Roman,serif" font-size="14.00">rt info: &#160;INTERVALS_ALIGNMENT(2588780199328: low: &#45;1.28, high: 1.27)</text>
<text text-anchor="middle" x="1105" y="-917.8" font-family="Times New Roman,serif" font-size="14.00">PRECISION_PRESERVED(value: true)</text>
<text text-anchor="middle" x="1105" y="-902.8" font-family="Times New Roman,serif" font-size="14.00">QUANTIZATION_ALIGNMENT(2588780197408: value: false)</text>
<text text-anchor="middle" x="1105" y="-887.8" font-family="Times New Roman,serif" font-size="14.00">Variant::std::string</text>
<text text-anchor="middle" x="1105" y="-872.8" font-family="Times New Roman,serif" font-size="14.00">in0: {u8}[1,3,9,9]: FakeQuantize_224: out0</text>
<text text-anchor="middle" x="1105" y="-857.8" font-family="Times New Roman,serif" font-size="14.00">in1: {u8}[1,3,9,9]: FakeQuantize_117: out0</text>
<text text-anchor="middle" x="1105" y="-842.8" font-family="Times New Roman,serif" font-size="14.00">out0: {u8}[1,6,9,9]</text>
</g>
<!-- FakeQuantize_117&#45;&gt;Concat_261 -->
<g id="edge28" class="edge">
<title>FakeQuantize_117&#45;&gt;Concat_261</title>
<path fill="none" stroke="black" d="M1271.68,-1043.74C1252.87,-1029.22 1233.15,-1013.98 1214.13,-999.29"/>
<polygon fill="black" stroke="black" points="1216.07,-996.37 1206.02,-993.03 1211.79,-1001.91 1216.07,-996.37"/>
<text text-anchor="middle" x="1269" y="-1014.8" font-family="Times New Roman,serif" font-size="14.00"> 0 &#45;&gt; 1 </text>
</g>
<!-- FakeQuantize_126 -->
<g id="node11" class="node">
<title>FakeQuantize_126</title>
<polygon fill="none" stroke="black" points="2438,-1202 1990,-1202 1990,-1044 2438,-1044 2438,-1202"/>
<text text-anchor="middle" x="2214" y="-1186.8" font-family="Times New Roman,serif" font-size="14.00">friendly_name: fakeQuantize3</text>
<text text-anchor="middle" x="2214" y="-1171.8" font-family="Times New Roman,serif" font-size="14.00">name: FakeQuantize_126</text>
<text text-anchor="middle" x="2214" y="-1156.8" font-family="Times New Roman,serif" font-size="14.00">type_name: FakeQuantize</text>
<text text-anchor="middle" x="2214" y="-1141.8" font-family="Times New Roman,serif" font-size="14.00">rt info: &#160;INTERVALS_ALIGNMENT(2588780199328: low: &#45;1.28, high: 1.27)</text>
<text text-anchor="middle" x="2214" y="-1126.8" font-family="Times New Roman,serif" font-size="14.00">in0: {f32}[1,3,9,9]: Parameter_91: out0</text>
<text text-anchor="middle" x="2214" y="-1111.8" font-family="Times New Roman,serif" font-size="14.00">in1: {f32}[]: Constant_92: out0</text>
<text text-anchor="middle" x="2214" y="-1096.8" font-family="Times New Roman,serif" font-size="14.00">in2: {f32}[]: Constant_93: out0</text>
<text text-anchor="middle" x="2214" y="-1081.8" font-family="Times New Roman,serif" font-size="14.00">in3: {f32}[]: Constant_124: out0</text>
<text text-anchor="middle" x="2214" y="-1066.8" font-family="Times New Roman,serif" font-size="14.00">in4: {f32}[]: Constant_125: out0</text>
<text text-anchor="middle" x="2214" y="-1051.8" font-family="Times New Roman,serif" font-size="14.00">out0: {u8}[1,3,9,9]</text>
</g>
<!-- FakeQuantize_126&#45;&gt;Concat_167 -->
<g id="edge10" class="edge">
<title>FakeQuantize_126&#45;&gt;Concat_167</title>
<path fill="none" stroke="black" d="M1997.4,-1043.89C1954.5,-1028.42 1909.35,-1012.13 1866.13,-996.55"/>
<polygon fill="black" stroke="black" points="1867.25,-993.23 1856.65,-993.13 1864.87,-999.82 1867.25,-993.23"/>
<text text-anchor="middle" x="1966" y="-1014.8" font-family="Times New Roman,serif" font-size="14.00"> 0 &#45;&gt; 1 </text>
</g>
<!-- CLONE_3 -->
<g id="node12" class="node">
<title>CLONE_3</title>
<polygon fill="none" stroke="blue" stroke-dasharray="5,2" points="2014,-1321 1874,-1321 1874,-1253 2014,-1253 2014,-1321"/>
<text text-anchor="middle" x="1944" y="-1305.8" font-family="Times New Roman,serif" font-size="14.00">friendly_name: input3</text>
<text text-anchor="middle" x="1944" y="-1290.8" font-family="Times New Roman,serif" font-size="14.00">name: Parameter_91</text>
<text text-anchor="middle" x="1944" y="-1275.8" font-family="Times New Roman,serif" font-size="14.00">type_name: Parameter</text>
<text text-anchor="middle" x="1944" y="-1260.8" font-family="Times New Roman,serif" font-size="14.00">{f32}[1,3,9,9]</text>
</g>
<!-- CLONE_3&#45;&gt;FakeQuantize_126 -->
<g id="edge11" class="edge">
<title>CLONE_3&#45;&gt;FakeQuantize_126</title>
<path fill="none" stroke="black" d="M1999.29,-1252.83C2021.49,-1239.5 2048.18,-1223.49 2075.08,-1207.35"/>
<polygon fill="black" stroke="black" points="2077.04,-1210.26 2083.81,-1202.11 2073.44,-1204.26 2077.04,-1210.26"/>
<text text-anchor="middle" x="2068" y="-1223.8" font-family="Times New Roman,serif" font-size="14.00"> 0 &#45;&gt; 0 </text>
</g>
<!-- CLONE_4 -->
<g id="node13" class="node">
<title>CLONE_4</title>
<polygon fill="none" stroke="black" stroke-dasharray="5,2" points="2205.5,-1321 2032.5,-1321 2032.5,-1253 2205.5,-1253 2205.5,-1321"/>
<text text-anchor="middle" x="2119" y="-1305.8" font-family="Times New Roman,serif" font-size="14.00">friendly_name: Constant_92</text>
<text text-anchor="middle" x="2119" y="-1290.8" font-family="Times New Roman,serif" font-size="14.00">type_name: Constant</text>
<text text-anchor="middle" x="2119" y="-1275.8" font-family="Times New Roman,serif" font-size="14.00">{f32}[]</text>
<text text-anchor="middle" x="2119" y="-1260.8" font-family="Times New Roman,serif" font-size="14.00">value: [&#45;1.28]</text>
</g>
<!-- CLONE_4&#45;&gt;FakeQuantize_126 -->
<g id="edge12" class="edge">
<title>CLONE_4&#45;&gt;FakeQuantize_126</title>
<path fill="none" stroke="black" d="M2138.45,-1252.83C2145.67,-1240.52 2154.23,-1225.92 2162.95,-1211.05"/>
<polygon fill="black" stroke="black" points="2166.05,-1212.68 2168.09,-1202.28 2160.02,-1209.14 2166.05,-1212.68"/>
<text text-anchor="middle" x="2177" y="-1223.8" font-family="Times New Roman,serif" font-size="14.00"> 0 &#45;&gt; 1 </text>
</g>
<!-- CLONE_5 -->
<g id="node14" class="node">
<title>CLONE_5</title>
<polygon fill="none" stroke="black" stroke-dasharray="5,2" points="2396.5,-1321 2223.5,-1321 2223.5,-1253 2396.5,-1253 2396.5,-1321"/>
<text text-anchor="middle" x="2310" y="-1305.8" font-family="Times New Roman,serif" font-size="14.00">friendly_name: Constant_93</text>
<text text-anchor="middle" x="2310" y="-1290.8" font-family="Times New Roman,serif" font-size="14.00">type_name: Constant</text>
<text text-anchor="middle" x="2310" y="-1275.8" font-family="Times New Roman,serif" font-size="14.00">{f32}[]</text>
<text text-anchor="middle" x="2310" y="-1260.8" font-family="Times New Roman,serif" font-size="14.00">value: [1.27]</text>
</g>
<!-- CLONE_5&#45;&gt;FakeQuantize_126 -->
<g id="edge13" class="edge">
<title>CLONE_5&#45;&gt;FakeQuantize_126</title>
<path fill="none" stroke="black" d="M2290.34,-1252.83C2283.05,-1240.52 2274.4,-1225.92 2265.59,-1211.05"/>
<polygon fill="black" stroke="black" points="2268.5,-1209.1 2260.39,-1202.28 2262.48,-1212.67 2268.5,-1209.1"/>
<text text-anchor="middle" x="2300" y="-1223.8" font-family="Times New Roman,serif" font-size="14.00"> 0 &#45;&gt; 2 </text>
</g>
<!-- CLONE_6 -->
<g id="node15" class="node">
<title>CLONE_6</title>
<polygon fill="none" stroke="black" stroke-dasharray="5,2" points="2595,-1321 2415,-1321 2415,-1253 2595,-1253 2595,-1321"/>
<text text-anchor="middle" x="2505" y="-1305.8" font-family="Times New Roman,serif" font-size="14.00">friendly_name: Constant_124</text>
<text text-anchor="middle" x="2505" y="-1290.8" font-family="Times New Roman,serif" font-size="14.00">type_name: Constant</text>
<text text-anchor="middle" x="2505" y="-1275.8" font-family="Times New Roman,serif" font-size="14.00">{f32}[]</text>
<text text-anchor="middle" x="2505" y="-1260.8" font-family="Times New Roman,serif" font-size="14.00">value: [0]</text>
</g>
<!-- CLONE_6&#45;&gt;FakeQuantize_126 -->
<g id="edge14" class="edge">
<title>CLONE_6&#45;&gt;FakeQuantize_126</title>
<path fill="none" stroke="black" d="M2445.41,-1252.83C2421.37,-1239.45 2392.47,-1223.35 2363.35,-1207.14"/>
<polygon fill="black" stroke="black" points="2364.75,-1203.92 2354.31,-1202.11 2361.35,-1210.04 2364.75,-1203.92"/>
<text text-anchor="middle" x="2432" y="-1223.8" font-family="Times New Roman,serif" font-size="14.00"> 0 &#45;&gt; 3 </text>
</g>
<!-- CLONE_7 -->
<g id="node16" class="node">
<title>CLONE_7</title>
<polygon fill="none" stroke="black" stroke-dasharray="5,2" points="2793,-1321 2613,-1321 2613,-1253 2793,-1253 2793,-1321"/>
<text text-anchor="middle" x="2703" y="-1305.8" font-family="Times New Roman,serif" font-size="14.00">friendly_name: Constant_125</text>
<text text-anchor="middle" x="2703" y="-1290.8" font-family="Times New Roman,serif" font-size="14.00">type_name: Constant</text>
<text text-anchor="middle" x="2703" y="-1275.8" font-family="Times New Roman,serif" font-size="14.00">{f32}[]</text>
<text text-anchor="middle" x="2703" y="-1260.8" font-family="Times New Roman,serif" font-size="14.00">value: [255]</text>
</g>
<!-- CLONE_7&#45;&gt;FakeQuantize_126 -->
<g id="edge15" class="edge">
<title>CLONE_7&#45;&gt;FakeQuantize_126</title>
<path fill="none" stroke="black" d="M2612.89,-1255.96C2609.89,-1254.96 2606.92,-1253.97 2604,-1253 2553.42,-1236.21 2499.15,-1218.23 2447.64,-1201.18"/>
<polygon fill="black" stroke="black" points="2448.64,-1197.83 2438.05,-1198.01 2446.45,-1204.47 2448.64,-1197.83"/>
<text text-anchor="middle" x="2561" y="-1223.8" font-family="Times New Roman,serif" font-size="14.00"> 0 &#45;&gt; 4 </text>
</g>
<!-- CLONE_8 -->
<g id="node17" class="node">
<title>CLONE_8</title>
<polygon fill="none" stroke="blue" stroke-dasharray="5,2" points="1077,-1321 937,-1321 937,-1253 1077,-1253 1077,-1321"/>
<text text-anchor="middle" x="1007" y="-1305.8" font-family="Times New Roman,serif" font-size="14.00">friendly_name: input2</text>
<text text-anchor="middle" x="1007" y="-1290.8" font-family="Times New Roman,serif" font-size="14.00">name: Parameter_85</text>
<text text-anchor="middle" x="1007" y="-1275.8" font-family="Times New Roman,serif" font-size="14.00">type_name: Parameter</text>
<text text-anchor="middle" x="1007" y="-1260.8" font-family="Times New Roman,serif" font-size="14.00">{f32}[1,3,9,9]</text>
</g>
<!-- CLONE_8&#45;&gt;FakeQuantize_117 -->
<g id="edge16" class="edge">
<title>CLONE_8&#45;&gt;FakeQuantize_117</title>
<path fill="none" stroke="black" d="M1077.14,-1254.96C1108.84,-1240.92 1147.96,-1223.61 1187.26,-1206.21"/>
<polygon fill="black" stroke="black" points="1188.98,-1209.28 1196.71,-1202.03 1186.14,-1202.88 1188.98,-1209.28"/>
<text text-anchor="middle" x="1168" y="-1223.8" font-family="Times New Roman,serif" font-size="14.00"> 0 &#45;&gt; 0 </text>
</g>
<!-- CLONE_9 -->
<g id="node18" class="node">
<title>CLONE_9</title>
<polygon fill="none" stroke="black" stroke-dasharray="5,2" points="1268.5,-1321 1095.5,-1321 1095.5,-1253 1268.5,-1253 1268.5,-1321"/>
<text text-anchor="middle" x="1182" y="-1305.8" font-family="Times New Roman,serif" font-size="14.00">friendly_name: Constant_86</text>
<text text-anchor="middle" x="1182" y="-1290.8" font-family="Times New Roman,serif" font-size="14.00">type_name: Constant</text>
<text text-anchor="middle" x="1182" y="-1275.8" font-family="Times New Roman,serif" font-size="14.00">{f32}[]</text>
<text text-anchor="middle" x="1182" y="-1260.8" font-family="Times New Roman,serif" font-size="14.00">value: [&#45;0.64]</text>
</g>
<!-- CLONE_9&#45;&gt;FakeQuantize_117 -->
<g id="edge17" class="edge">
<title>CLONE_9&#45;&gt;FakeQuantize_117</title>
<path fill="none" stroke="black" d="M1221.11,-1252.83C1236.3,-1239.95 1254.44,-1224.56 1272.82,-1208.97"/>
<polygon fill="black" stroke="black" points="1275.34,-1211.42 1280.7,-1202.28 1270.81,-1206.08 1275.34,-1211.42"/>
<text text-anchor="middle" x="1276" y="-1223.8" font-family="Times New Roman,serif" font-size="14.00"> 0 &#45;&gt; 1 </text>
</g>
<!-- CLONE_10 -->
<g id="node19" class="node">
<title>CLONE_10</title>
<polygon fill="none" stroke="black" stroke-dasharray="5,2" points="1459.5,-1321 1286.5,-1321 1286.5,-1253 1459.5,-1253 1459.5,-1321"/>
<text text-anchor="middle" x="1373" y="-1305.8" font-family="Times New Roman,serif" font-size="14.00">friendly_name: Constant_87</text>
<text text-anchor="middle" x="1373" y="-1290.8" font-family="Times New Roman,serif" font-size="14.00">type_name: Constant</text>
<text text-anchor="middle" x="1373" y="-1275.8" font-family="Times New Roman,serif" font-size="14.00">{f32}[]</text>
<text text-anchor="middle" x="1373" y="-1260.8" font-family="Times New Roman,serif" font-size="14.00">value: [0.635]</text>
</g>
<!-- CLONE_10&#45;&gt;FakeQuantize_117 -->
<g id="edge18" class="edge">
<title>CLONE_10&#45;&gt;FakeQuantize_117</title>
<path fill="none" stroke="black" d="M1373,-1252.83C1373,-1240.87 1373,-1226.74 1373,-1212.3"/>
<polygon fill="black" stroke="black" points="1376.5,-1212.28 1373,-1202.28 1369.5,-1212.28 1376.5,-1212.28"/>
<text text-anchor="middle" x="1394" y="-1223.8" font-family="Times New Roman,serif" font-size="14.00"> 0 &#45;&gt; 2 </text>
</g>
<!-- CLONE_11 -->
<g id="node20" class="node">
<title>CLONE_11</title>
<polygon fill="none" stroke="black" stroke-dasharray="5,2" points="1658,-1321 1478,-1321 1478,-1253 1658,-1253 1658,-1321"/>
<text text-anchor="middle" x="1568" y="-1305.8" font-family="Times New Roman,serif" font-size="14.00">friendly_name: Constant_115</text>
<text text-anchor="middle" x="1568" y="-1290.8" font-family="Times New Roman,serif" font-size="14.00">type_name: Constant</text>
<text text-anchor="middle" x="1568" y="-1275.8" font-family="Times New Roman,serif" font-size="14.00">{f32}[]</text>
<text text-anchor="middle" x="1568" y="-1260.8" font-family="Times New Roman,serif" font-size="14.00">value: [64]</text>
</g>
<!-- CLONE_11&#45;&gt;FakeQuantize_117 -->
<g id="edge19" class="edge">
<title>CLONE_11&#45;&gt;FakeQuantize_117</title>
<path fill="none" stroke="black" d="M1528.07,-1252.83C1512.5,-1239.89 1493.87,-1224.42 1475.02,-1208.76"/>
<polygon fill="black" stroke="black" points="1477.16,-1205.98 1467.23,-1202.28 1472.68,-1211.36 1477.16,-1205.98"/>
<text text-anchor="middle" x="1526" y="-1223.8" font-family="Times New Roman,serif" font-size="14.00"> 0 &#45;&gt; 3 </text>
</g>
<!-- CLONE_12 -->
<g id="node21" class="node">
<title>CLONE_12</title>
<polygon fill="none" stroke="black" stroke-dasharray="5,2" points="1856,-1321 1676,-1321 1676,-1253 1856,-1253 1856,-1321"/>
<text text-anchor="middle" x="1766" y="-1305.8" font-family="Times New Roman,serif" font-size="14.00">friendly_name: Constant_116</text>
<text text-anchor="middle" x="1766" y="-1290.8" font-family="Times New Roman,serif" font-size="14.00">type_name: Constant</text>
<text text-anchor="middle" x="1766" y="-1275.8" font-family="Times New Roman,serif" font-size="14.00">{f32}[]</text>
<text text-anchor="middle" x="1766" y="-1260.8" font-family="Times New Roman,serif" font-size="14.00">value: [192]</text>
</g>
<!-- CLONE_12&#45;&gt;FakeQuantize_117 -->
<g id="edge20" class="edge">
<title>CLONE_12&#45;&gt;FakeQuantize_117</title>
<path fill="none" stroke="black" d="M1685.52,-1252.83C1652.29,-1239.13 1612.17,-1222.59 1571.91,-1205.99"/>
<polygon fill="black" stroke="black" points="1573.08,-1202.69 1562.5,-1202.11 1570.41,-1209.16 1573.08,-1202.69"/>
<text text-anchor="middle" x="1660" y="-1223.8" font-family="Times New Roman,serif" font-size="14.00"> 0 &#45;&gt; 4 </text>
</g>
<!-- Multiply_260 -->
<g id="node22" class="node">
<title>Multiply_260</title>
<polygon fill="none" stroke="black" points="916.5,-411 681.5,-411 681.5,-283 916.5,-283 916.5,-411"/>
<text text-anchor="middle" x="799" y="-395.8" font-family="Times New Roman,serif" font-size="14.00">friendly_name: concat1</text>
<text text-anchor="middle" x="799" y="-380.8" font-family="Times New Roman,serif" font-size="14.00">name: Multiply_260</text>
<text text-anchor="middle" x="799" y="-365.8" font-family="Times New Roman,serif" font-size="14.00">type_name: Multiply</text>
<text text-anchor="middle" x="799" y="-350.8" font-family="Times New Roman,serif" font-size="14.00">rt info: &#160;DEQUANTIZATION</text>
<text text-anchor="middle" x="799" y="-335.8" font-family="Times New Roman,serif" font-size="14.00">Variant::std::string</text>
<text text-anchor="middle" x="799" y="-320.8" font-family="Times New Roman,serif" font-size="14.00">in0: {f32}[1,6,9,9]: Subtract_256: out0</text>
<text text-anchor="middle" x="799" y="-305.8" font-family="Times New Roman,serif" font-size="14.00">in1: {f32}[1,6,1,1]: Constant_258: out0</text>
<text text-anchor="middle" x="799" y="-290.8" font-family="Times New Roman,serif" font-size="14.00">out0: {f32}[1,6,9,9]</text>
</g>
<!-- Result_107 -->
<g id="node23" class="node">
<title>Result_107</title>
<polygon fill="none" stroke="crimson" stroke-width="1.5" points="914,-209.5 684,-209.5 684,-141.5 914,-141.5 914,-209.5"/>
<text text-anchor="middle" x="799" y="-194.3" font-family="Times New Roman,serif" font-size="14.00">friendly_name: Result_107</text>
<text text-anchor="middle" x="799" y="-179.3" font-family="Times New Roman,serif" font-size="14.00">type_name: Result</text>
<text text-anchor="middle" x="799" y="-164.3" font-family="Times New Roman,serif" font-size="14.00">in0: {f32}[1,6,9,9]: Multiply_260: out0</text>
<text text-anchor="middle" x="799" y="-149.3" font-family="Times New Roman,serif" font-size="14.00">out0: {f32}[1,6,9,9]</text>
</g>
<!-- Multiply_260&#45;&gt;Result_107 -->
<g id="edge21" class="edge">
<title>Multiply_260&#45;&gt;Result_107</title>
<path fill="none" stroke="black" d="M799,-282.88C799,-261.92 799,-239.06 799,-219.92"/>
<polygon fill="black" stroke="black" points="802.5,-219.71 799,-209.71 795.5,-219.71 802.5,-219.71"/>
<text text-anchor="middle" x="820" y="-253.8" font-family="Times New Roman,serif" font-size="14.00"> 0 &#45;&gt; 0 </text>
</g>
<!-- Subtract_256 -->
<g id="node24" class="node">
<title>Subtract_256</title>
<polygon fill="none" stroke="black" points="1072,-597.5 842,-597.5 842,-469.5 1072,-469.5 1072,-597.5"/>
<text text-anchor="middle" x="957" y="-582.3" font-family="Times New Roman,serif" font-size="14.00">friendly_name: concat1</text>
<text text-anchor="middle" x="957" y="-567.3" font-family="Times New Roman,serif" font-size="14.00">name: Subtract_256</text>
<text text-anchor="middle" x="957" y="-552.3" font-family="Times New Roman,serif" font-size="14.00">type_name: Subtract</text>
<text text-anchor="middle" x="957" y="-537.3" font-family="Times New Roman,serif" font-size="14.00">rt info: &#160;DEQUANTIZATION</text>
<text text-anchor="middle" x="957" y="-522.3" font-family="Times New Roman,serif" font-size="14.00">Variant::std::string</text>
<text text-anchor="middle" x="957" y="-507.3" font-family="Times New Roman,serif" font-size="14.00">in0: {f32}[1,6,9,9]: Convert_252: out0</text>
<text text-anchor="middle" x="957" y="-492.3" font-family="Times New Roman,serif" font-size="14.00">in1: {f32}[]: Constant_255: out0</text>
<text text-anchor="middle" x="957" y="-477.3" font-family="Times New Roman,serif" font-size="14.00">out0: {f32}[1,6,9,9]</text>
</g>
<!-- Subtract_256&#45;&gt;Multiply_260 -->
<g id="edge22" class="edge">
<title>Subtract_256&#45;&gt;Multiply_260</title>
<path fill="none" stroke="black" d="M902.85,-469.26C889.03,-453.13 874.08,-435.67 859.95,-419.17"/>
<polygon fill="black" stroke="black" points="862.25,-416.47 853.08,-411.15 856.93,-421.03 862.25,-416.47"/>
<text text-anchor="middle" x="899" y="-432.8" font-family="Times New Roman,serif" font-size="14.00"> 0 &#45;&gt; 0 </text>
</g>
<!-- CLONE_13 -->
<g id="node25" class="node">
<title>CLONE_13</title>
<polygon fill="none" stroke="black" stroke-dasharray="5,2" points="824,-567.5 460,-567.5 460,-499.5 824,-499.5 824,-567.5"/>
<text text-anchor="middle" x="642" y="-552.3" font-family="Times New Roman,serif" font-size="14.00">friendly_name: Constant_258</text>
<text text-anchor="middle" x="642" y="-537.3" font-family="Times New Roman,serif" font-size="14.00">type_name: Constant</text>
<text text-anchor="middle" x="642" y="-522.3" font-family="Times New Roman,serif" font-size="14.00">{f32}[1,6,1,1]</text>
<text text-anchor="middle" x="642" y="-507.3" font-family="Times New Roman,serif" font-size="14.00">value: [0.00333333, 0.00333333, 0.00333333, 0.01, 0.01, 0.01]</text>
</g>
<!-- CLONE_13&#45;&gt;Multiply_260 -->
<g id="edge23" class="edge">
<title>CLONE_13&#45;&gt;Multiply_260</title>
<path fill="none" stroke="black" d="M670.43,-499.09C689.49,-476.69 715.32,-446.34 738.82,-418.72"/>
<polygon fill="black" stroke="black" points="741.56,-420.9 745.38,-411.01 736.23,-416.36 741.56,-420.9"/>
<text text-anchor="middle" x="751" y="-432.8" font-family="Times New Roman,serif" font-size="14.00"> 0 &#45;&gt; 1 </text>
</g>
<!-- Convert_252 -->
<g id="node26" class="node">
<title>Convert_252</title>
<polygon fill="none" stroke="black" points="1215.5,-776.5 994.5,-776.5 994.5,-663.5 1215.5,-663.5 1215.5,-776.5"/>
<text text-anchor="middle" x="1105" y="-761.3" font-family="Times New Roman,serif" font-size="14.00">friendly_name: concat1</text>
<text text-anchor="middle" x="1105" y="-746.3" font-family="Times New Roman,serif" font-size="14.00">name: Convert_252</text>
<text text-anchor="middle" x="1105" y="-731.3" font-family="Times New Roman,serif" font-size="14.00">type_name: Convert</text>
<text text-anchor="middle" x="1105" y="-716.3" font-family="Times New Roman,serif" font-size="14.00">rt info: &#160;DEQUANTIZATION</text>
<text text-anchor="middle" x="1105" y="-701.3" font-family="Times New Roman,serif" font-size="14.00">Variant::std::string</text>
<text text-anchor="middle" x="1105" y="-686.3" font-family="Times New Roman,serif" font-size="14.00">in0: {u8}[1,6,9,9]: Concat_261: out0</text>
<text text-anchor="middle" x="1105" y="-671.3" font-family="Times New Roman,serif" font-size="14.00">out0: {f32}[1,6,9,9]</text>
</g>
<!-- Convert_252&#45;&gt;Subtract_256 -->
<g id="edge24" class="edge">
<title>Convert_252&#45;&gt;Subtract_256</title>
<path fill="none" stroke="black" d="M1060.39,-663.39C1045.81,-645.21 1029.4,-624.76 1014.03,-605.59"/>
<polygon fill="black" stroke="black" points="1016.73,-603.36 1007.74,-597.75 1011.27,-607.74 1016.73,-603.36"/>
<text text-anchor="middle" x="1061" y="-626.8" font-family="Times New Roman,serif" font-size="14.00"> 0 &#45;&gt; 0 </text>
</g>
<!-- CLONE_14 -->
<g id="node27" class="node">
<title>CLONE_14</title>
<polygon fill="none" stroke="black" stroke-dasharray="5,2" points="976,-754 796,-754 796,-686 976,-686 976,-754"/>
<text text-anchor="middle" x="886" y="-738.8" font-family="Times New Roman,serif" font-size="14.00">friendly_name: Constant_255</text>
<text text-anchor="middle" x="886" y="-723.8" font-family="Times New Roman,serif" font-size="14.00">type_name: Constant</text>
<text text-anchor="middle" x="886" y="-708.8" font-family="Times New Roman,serif" font-size="14.00">{f32}[]</text>
<text text-anchor="middle" x="886" y="-693.8" font-family="Times New Roman,serif" font-size="14.00">value: [128]</text>
</g>
<!-- CLONE_14&#45;&gt;Subtract_256 -->
<g id="edge25" class="edge">
<title>CLONE_14&#45;&gt;Subtract_256</title>
<path fill="none" stroke="black" d="M898.86,-685.59C907.29,-663.67 918.66,-634.14 929.1,-607"/>
<polygon fill="black" stroke="black" points="932.43,-608.1 932.75,-597.51 925.89,-605.59 932.43,-608.1"/>
<text text-anchor="middle" x="943" y="-626.8" font-family="Times New Roman,serif" font-size="14.00"> 0 &#45;&gt; 1 </text>
</g>
<!-- Concat_261&#45;&gt;Convert_252 -->
<g id="edge26" class="edge">
<title>Concat_261&#45;&gt;Convert_252</title>
<path fill="none" stroke="black" d="M1105,-834.91C1105,-818.9 1105,-802.2 1105,-786.67"/>
<polygon fill="black" stroke="black" points="1108.5,-786.66 1105,-776.66 1101.5,-786.66 1108.5,-786.66"/>
<text text-anchor="middle" x="1126" y="-805.8" font-family="Times New Roman,serif" font-size="14.00"> 0 &#45;&gt; 0 </text>
</g>
<!-- FakeQuantize_224 -->
<g id="node29" class="node">
<title>FakeQuantize_224</title>
<polygon fill="none" stroke="black" points="758,-1202 310,-1202 310,-1044 758,-1044 758,-1202"/>
<text text-anchor="middle" x="534" y="-1186.8" font-family="Times New Roman,serif" font-size="14.00">friendly_name: fakeQuantize1</text>
<text text-anchor="middle" x="534" y="-1171.8" font-family="Times New Roman,serif" font-size="14.00">name: FakeQuantize_224</text>
<text text-anchor="middle" x="534" y="-1156.8" font-family="Times New Roman,serif" font-size="14.00">type_name: FakeQuantize</text>
<text text-anchor="middle" x="534" y="-1141.8" font-family="Times New Roman,serif" font-size="14.00">rt info: &#160;INTERVALS_ALIGNMENT(2588780199328: low: &#45;1.28, high: 1.27)</text>
<text text-anchor="middle" x="534" y="-1126.8" font-family="Times New Roman,serif" font-size="14.00">in0: {f32}[1,3,9,9]: Parameter_79: out0</text>
<text text-anchor="middle" x="534" y="-1111.8" font-family="Times New Roman,serif" font-size="14.00">in1: {f32}[]: Constant_80: out0</text>
<text text-anchor="middle" x="534" y="-1096.8" font-family="Times New Roman,serif" font-size="14.00">in2: {f32}[]: Constant_81: out0</text>
<text text-anchor="middle" x="534" y="-1081.8" font-family="Times New Roman,serif" font-size="14.00">in3: {f32}[]: Constant_222: out0</text>
<text text-anchor="middle" x="534" y="-1066.8" font-family="Times New Roman,serif" font-size="14.00">in4: {f32}[]: Constant_223: out0</text>
<text text-anchor="middle" x="534" y="-1051.8" font-family="Times New Roman,serif" font-size="14.00">out0: {u8}[1,3,9,9]</text>
</g>
<!-- FakeQuantize_224&#45;&gt;Concat_261 -->
<g id="edge27" class="edge">
<title>FakeQuantize_224&#45;&gt;Concat_261</title>
<path fill="none" stroke="black" d="M749.46,-1043.89C792.15,-1028.42 837.06,-1012.13 880.05,-996.55"/>
<polygon fill="black" stroke="black" points="881.27,-999.83 889.48,-993.13 878.89,-993.25 881.27,-999.83"/>
<text text-anchor="middle" x="858" y="-1014.8" font-family="Times New Roman,serif" font-size="14.00"> 0 &#45;&gt; 0 </text>
</g>
<!-- CLONE_15 -->
<g id="node30" class="node">
<title>CLONE_15</title>
<polygon fill="none" stroke="blue" stroke-dasharray="5,2" points="140,-1321 0,-1321 0,-1253 140,-1253 140,-1321"/>
<text text-anchor="middle" x="70" y="-1305.8" font-family="Times New Roman,serif" font-size="14.00">friendly_name: input1</text>
<text text-anchor="middle" x="70" y="-1290.8" font-family="Times New Roman,serif" font-size="14.00">name: Parameter_79</text>
<text text-anchor="middle" x="70" y="-1275.8" font-family="Times New Roman,serif" font-size="14.00">type_name: Parameter</text>
<text text-anchor="middle" x="70" y="-1260.8" font-family="Times New Roman,serif" font-size="14.00">{f32}[1,3,9,9]</text>
</g>
<!-- CLONE_15&#45;&gt;FakeQuantize_224 -->
<g id="edge29" class="edge">
<title>CLONE_15&#45;&gt;FakeQuantize_224</title>
<path fill="none" stroke="black" d="M140.11,-1256.41C143.1,-1255.24 146.08,-1254.1 149,-1253 197.59,-1234.74 250.07,-1216.31 300.19,-1199.32"/>
<polygon fill="black" stroke="black" points="301.5,-1202.58 309.85,-1196.06 299.26,-1195.95 301.5,-1202.58"/>
<text text-anchor="middle" x="254" y="-1223.8" font-family="Times New Roman,serif" font-size="14.00"> 0 &#45;&gt; 0 </text>
</g>
<!-- CLONE_16 -->
<g id="node31" class="node">
<title>CLONE_16</title>
<polygon fill="none" stroke="black" stroke-dasharray="5,2" points="331.5,-1321 158.5,-1321 158.5,-1253 331.5,-1253 331.5,-1321"/>
<text text-anchor="middle" x="245" y="-1305.8" font-family="Times New Roman,serif" font-size="14.00">friendly_name: Constant_80</text>
<text text-anchor="middle" x="245" y="-1290.8" font-family="Times New Roman,serif" font-size="14.00">type_name: Constant</text>
<text text-anchor="middle" x="245" y="-1275.8" font-family="Times New Roman,serif" font-size="14.00">{f32}[]</text>
<text text-anchor="middle" x="245" y="-1260.8" font-family="Times New Roman,serif" font-size="14.00">value: [&#45;0.426667]</text>
</g>
<!-- CLONE_16&#45;&gt;FakeQuantize_224 -->
<g id="edge30" class="edge">
<title>CLONE_16&#45;&gt;FakeQuantize_224</title>
<path fill="none" stroke="black" d="M304.18,-1252.83C328.05,-1239.45 356.76,-1223.35 385.67,-1207.14"/>
<polygon fill="black" stroke="black" points="387.64,-1210.06 394.65,-1202.11 384.21,-1203.95 387.64,-1210.06"/>
<text text-anchor="middle" x="377" y="-1223.8" font-family="Times New Roman,serif" font-size="14.00"> 0 &#45;&gt; 1 </text>
</g>
<!-- CLONE_17 -->
<g id="node32" class="node">
<title>CLONE_17</title>
<polygon fill="none" stroke="black" stroke-dasharray="5,2" points="522.5,-1321 349.5,-1321 349.5,-1253 522.5,-1253 522.5,-1321"/>
<text text-anchor="middle" x="436" y="-1305.8" font-family="Times New Roman,serif" font-size="14.00">friendly_name: Constant_81</text>
<text text-anchor="middle" x="436" y="-1290.8" font-family="Times New Roman,serif" font-size="14.00">type_name: Constant</text>
<text text-anchor="middle" x="436" y="-1275.8" font-family="Times New Roman,serif" font-size="14.00">{f32}[]</text>
<text text-anchor="middle" x="436" y="-1260.8" font-family="Times New Roman,serif" font-size="14.00">value: [0.423333]</text>
</g>
<!-- CLONE_17&#45;&gt;FakeQuantize_224 -->
<g id="edge31" class="edge">
<title>CLONE_17&#45;&gt;FakeQuantize_224</title>
<path fill="none" stroke="black" d="M456.07,-1252.83C463.51,-1240.52 472.34,-1225.92 481.34,-1211.05"/>
<polygon fill="black" stroke="black" points="484.46,-1212.65 486.64,-1202.28 478.47,-1209.03 484.46,-1212.65"/>
<text text-anchor="middle" x="495" y="-1223.8" font-family="Times New Roman,serif" font-size="14.00"> 0 &#45;&gt; 2 </text>
</g>
<!-- CLONE_18 -->
<g id="node33" class="node">
<title>CLONE_18</title>
<polygon fill="none" stroke="black" stroke-dasharray="5,2" points="721,-1321 541,-1321 541,-1253 721,-1253 721,-1321"/>
<text text-anchor="middle" x="631" y="-1305.8" font-family="Times New Roman,serif" font-size="14.00">friendly_name: Constant_222</text>
<text text-anchor="middle" x="631" y="-1290.8" font-family="Times New Roman,serif" font-size="14.00">type_name: Constant</text>
<text text-anchor="middle" x="631" y="-1275.8" font-family="Times New Roman,serif" font-size="14.00">{f32}[]</text>
<text text-anchor="middle" x="631" y="-1260.8" font-family="Times New Roman,serif" font-size="14.00">value: [0]</text>
</g>
<!-- CLONE_18&#45;&gt;FakeQuantize_224 -->
<g id="edge32" class="edge">
<title>CLONE_18&#45;&gt;FakeQuantize_224</title>
<path fill="none" stroke="black" d="M611.14,-1252.83C603.77,-1240.52 595.03,-1225.92 586.12,-1211.05"/>
<polygon fill="black" stroke="black" points="589.01,-1209.06 580.87,-1202.28 583.01,-1212.66 589.01,-1209.06"/>
<text text-anchor="middle" x="621" y="-1223.8" font-family="Times New Roman,serif" font-size="14.00"> 0 &#45;&gt; 3 </text>
</g>
<!-- CLONE_19 -->
<g id="node34" class="node">
<title>CLONE_19</title>
<polygon fill="none" stroke="black" stroke-dasharray="5,2" points="919,-1321 739,-1321 739,-1253 919,-1253 919,-1321"/>
<text text-anchor="middle" x="829" y="-1305.8" font-family="Times New Roman,serif" font-size="14.00">friendly_name: Constant_223</text>
<text text-anchor="middle" x="829" y="-1290.8" font-family="Times New Roman,serif" font-size="14.00">type_name: Constant</text>
<text text-anchor="middle" x="829" y="-1275.8" font-family="Times New Roman,serif" font-size="14.00">{f32}[]</text>
<text text-anchor="middle" x="829" y="-1260.8" font-family="Times New Roman,serif" font-size="14.00">value: [255]</text>
</g>
<!-- CLONE_19&#45;&gt;FakeQuantize_224 -->
<g id="edge33" class="edge">
<title>CLONE_19&#45;&gt;FakeQuantize_224</title>
<path fill="none" stroke="black" d="M768.59,-1252.83C744.12,-1239.39 714.67,-1223.21 685.02,-1206.93"/>
<polygon fill="black" stroke="black" points="686.69,-1203.86 676.24,-1202.11 683.32,-1209.99 686.69,-1203.86"/>
<text text-anchor="middle" x="755" y="-1223.8" font-family="Times New Roman,serif" font-size="14.00"> 0 &#45;&gt; 4 </text>
</g>
</g>
</svg>
