<?xml version="1.0" encoding="UTF-8" standalone="no"?>
<!DOCTYPE svg PUBLIC "-//W3C//DTD SVG 1.1//EN"
 "http://www.w3.org/Graphics/SVG/1.1/DTD/svg11.dtd">
<!-- Generated by graphviz version 2.43.20200408.0903 (20200408.0903)
 -->
<!-- Title: ngraph Pages: 1 -->
<svg width="2839pt" height="1299pt"
 viewBox="0.00 0.00 2838.50 1299.00" xmlns="http://www.w3.org/2000/svg" xmlns:xlink="http://www.w3.org/1999/xlink">
<g id="graph0" class="graph" transform="scale(1 1) rotate(0) translate(4 1295)">
<title>ngraph</title>
<polygon fill="white" stroke="transparent" points="-4,4 -4,-1295 2834.5,-1295 2834.5,4 -4,4"/>
<!-- Multiply_214 -->
<g id="node1" class="node">
<title>Multiply_214</title>
<polygon fill="none" stroke="black" points="2650,-232 2396,-232 2396,-119 2650,-119 2650,-232"/>
<text text-anchor="middle" x="2523" y="-216.8" font-family="Times New Roman,serif" font-size="14.00">friendly_name: Convolution_211</text>
<text text-anchor="middle" x="2523" y="-201.8" font-family="Times New Roman,serif" font-size="14.00">name: Multiply_214</text>
<text text-anchor="middle" x="2523" y="-186.8" font-family="Times New Roman,serif" font-size="14.00">type_name: Multiply</text>
<text text-anchor="middle" x="2523" y="-171.8" font-family="Times New Roman,serif" font-size="14.00">rt info: &#160;DEQUANTIZATION</text>
<text text-anchor="middle" x="2523" y="-156.8" font-family="Times New Roman,serif" font-size="14.00">in0: {f32}[1,9,7,7]: Convolution_211: out0</text>
<text text-anchor="middle" x="2523" y="-141.8" font-family="Times New Roman,serif" font-size="14.00">in1: {f32}[1,9,1,1]: Constant_217: out0</text>
<text text-anchor="middle" x="2523" y="-126.8" font-family="Times New Roman,serif" font-size="14.00">out0: {f32}[1,9,7,7]</text>
</g>
<!-- Result_108 -->
<g id="node2" class="node">
<title>Result_108</title>
<polygon fill="none" stroke="crimson" stroke-width="1.5" points="2638,-68 2408,-68 2408,0 2638,0 2638,-68"/>
<text text-anchor="middle" x="2523" y="-52.8" font-family="Times New Roman,serif" font-size="14.00">friendly_name: Result_108</text>
<text text-anchor="middle" x="2523" y="-37.8" font-family="Times New Roman,serif" font-size="14.00">type_name: Result</text>
<text text-anchor="middle" x="2523" y="-22.8" font-family="Times New Roman,serif" font-size="14.00">in0: {f32}[1,9,7,7]: Multiply_214: out0</text>
<text text-anchor="middle" x="2523" y="-7.8" font-family="Times New Roman,serif" font-size="14.00">out0: {f32}[1,9,7,7]</text>
</g>
<!-- Multiply_214&#45;&gt;Result_108 -->
<g id="edge1" class="edge">
<title>Multiply_214&#45;&gt;Result_108</title>
<path fill="none" stroke="black" d="M2523,-118.97C2523,-105.55 2523,-91.4 2523,-78.62"/>
<polygon fill="black" stroke="black" points="2526.5,-78.25 2523,-68.25 2519.5,-78.25 2526.5,-78.25"/>
<text text-anchor="middle" x="2544" y="-89.8" font-family="Times New Roman,serif" font-size="14.00"> 0 &#45;&gt; 0 </text>
</g>
<!-- Convolution_211 -->
<g id="node3" class="node">
<title>Convolution_211</title>
<polygon fill="none" stroke="black" points="2403.5,-396 2156.5,-396 2156.5,-298 2403.5,-298 2403.5,-396"/>
<text text-anchor="middle" x="2280" y="-380.8" font-family="Times New Roman,serif" font-size="14.00">friendly_name: Convolution_211_original</text>
<text text-anchor="middle" x="2280" y="-365.8" font-family="Times New Roman,serif" font-size="14.00">name: Convolution_211</text>
<text text-anchor="middle" x="2280" y="-350.8" font-family="Times New Roman,serif" font-size="14.00">type_name: Convolution</text>
<text text-anchor="middle" x="2280" y="-335.8" font-family="Times New Roman,serif" font-size="14.00">in0: {f32}[1,6,7,7]: Subtract_185: out0</text>
<text text-anchor="middle" x="2280" y="-320.8" font-family="Times New Roman,serif" font-size="14.00">in1: {i8}[9,6,1,1]: Constant_199: out0</text>
<text text-anchor="middle" x="2280" y="-305.8" font-family="Times New Roman,serif" font-size="14.00">out0: {f32}[1,9,7,7]</text>
</g>
<!-- Convolution_211&#45;&gt;Multiply_214 -->
<g id="edge2" class="edge">
<title>Convolution_211&#45;&gt;Multiply_214</title>
<path fill="none" stroke="black" d="M2348.98,-297.88C2375.68,-279.26 2406.55,-257.73 2434.82,-238.01"/>
<polygon fill="black" stroke="black" points="2436.91,-240.82 2443.11,-232.22 2432.91,-235.07 2436.91,-240.82"/>
<text text-anchor="middle" x="2438" y="-253.8" font-family="Times New Roman,serif" font-size="14.00"> 0 &#45;&gt; 0 </text>
</g>
<!-- CLONE_0 -->
<g id="node4" class="node">
<title>CLONE_0</title>
<polygon fill="none" stroke="black" stroke-dasharray="5,2" points="2830.5,-388.5 2421.5,-388.5 2421.5,-305.5 2830.5,-305.5 2830.5,-388.5"/>
<text text-anchor="middle" x="2626" y="-373.3" font-family="Times New Roman,serif" font-size="14.00">friendly_name: Constant_217</text>
<text text-anchor="middle" x="2626" y="-358.3" font-family="Times New Roman,serif" font-size="14.00">type_name: Constant</text>
<text text-anchor="middle" x="2626" y="-343.3" font-family="Times New Roman,serif" font-size="14.00">{f32}[1,9,1,1]</text>
<text text-anchor="middle" x="2626" y="-328.3" font-family="Times New Roman,serif" font-size="14.00">value: [0.0001, 0.0001, 0.0001, 0.0001, 0.0001, 0.0001, 0.0001, 0.0001</text>
<text text-anchor="middle" x="2626" y="-313.3" font-family="Times New Roman,serif" font-size="14.00">, 0.0001]</text>
</g>
<!-- CLONE_0&#45;&gt;Multiply_214 -->
<g id="edge3" class="edge">
<title>CLONE_0&#45;&gt;Multiply_214</title>
<path fill="none" stroke="black" d="M2601.33,-305.4C2589.61,-286.12 2575.32,-262.61 2562.18,-240.97"/>
<polygon fill="black" stroke="black" points="2565,-238.88 2556.82,-232.15 2559.02,-242.51 2565,-238.88"/>
<text text-anchor="middle" x="2596" y="-253.8" font-family="Times New Roman,serif" font-size="14.00"> 0 &#45;&gt; 1 </text>
</g>
<!-- Subtract_185 -->
<g id="node5" class="node">
<title>Subtract_185</title>
<polygon fill="none" stroke="black" points="2251,-590 1691,-590 1691,-462 2251,-462 2251,-590"/>
<text text-anchor="middle" x="1971" y="-574.8" font-family="Times New Roman,serif" font-size="14.00">friendly_name: Subtract_170</text>
<text text-anchor="middle" x="1971" y="-559.8" font-family="Times New Roman,serif" font-size="14.00">name: Subtract_185</text>
<text text-anchor="middle" x="1971" y="-544.8" font-family="Times New Roman,serif" font-size="14.00">type_name: Subtract</text>
<text text-anchor="middle" x="1971" y="-529.8" font-family="Times New Roman,serif" font-size="14.00">rt info: &#160;PRECISION_PRESERVED(value: true)</text>
<text text-anchor="middle" x="1971" y="-514.8" font-family="Times New Roman,serif" font-size="14.00">QUANTIZATION_ALIGNMENT(2568398406816: low: &#45;1.28, high: 1.27, hasToBeAligned: true)</text>
<text text-anchor="middle" x="1971" y="-499.8" font-family="Times New Roman,serif" font-size="14.00">in0: {u8}[1,6,7,7]: MaxPool_168: out0</text>
<text text-anchor="middle" x="1971" y="-484.8" font-family="Times New Roman,serif" font-size="14.00">in1: {u8}[1,6,1,1]: Constant_184: out0</text>
<text text-anchor="middle" x="1971" y="-469.8" font-family="Times New Roman,serif" font-size="14.00">out0: {f32}[1,6,7,7]</text>
</g>
<!-- Subtract_185&#45;&gt;Convolution_211 -->
<g id="edge4" class="edge">
<title>Subtract_185&#45;&gt;Convolution_211</title>
<path fill="none" stroke="black" d="M2081.25,-461.85C2115.93,-441.98 2153.87,-420.25 2187.21,-401.15"/>
<polygon fill="black" stroke="black" points="2189.1,-404.1 2196.03,-396.1 2185.62,-398.03 2189.1,-404.1"/>
<text text-anchor="middle" x="2156" y="-432.8" font-family="Times New Roman,serif" font-size="14.00"> 0 &#45;&gt; 0 </text>
</g>
<!-- CLONE_1 -->
<g id="node6" class="node">
<title>CLONE_1</title>
<polygon fill="none" stroke="black" stroke-dasharray="5,2" points="2540.5,-582.5 2269.5,-582.5 2269.5,-469.5 2540.5,-469.5 2540.5,-582.5"/>
<text text-anchor="middle" x="2405" y="-567.3" font-family="Times New Roman,serif" font-size="14.00">friendly_name: Constant_199</text>
<text text-anchor="middle" x="2405" y="-552.3" font-family="Times New Roman,serif" font-size="14.00">type_name: Constant</text>
<text text-anchor="middle" x="2405" y="-537.3" font-family="Times New Roman,serif" font-size="14.00">{i8}[9,6,1,1]</text>
<text text-anchor="middle" x="2405" y="-522.3" font-family="Times New Roman,serif" font-size="14.00">value: [127, 127, 127, 127, 127, 127, 127, 127</text>
<text text-anchor="middle" x="2405" y="-507.3" font-family="Times New Roman,serif" font-size="14.00">, 127, 127, 127, 127, 127, 127, 127, 127</text>
<text text-anchor="middle" x="2405" y="-492.3" font-family="Times New Roman,serif" font-size="14.00">, 127, 127, 127, 127, 127, 127, 127, 127</text>
<text text-anchor="middle" x="2405" y="-477.3" font-family="Times New Roman,serif" font-size="14.00">, 127, 127, 127, 127, 127, 127, 127, 127...]</text>
</g>
<!-- CLONE_1&#45;&gt;Convolution_211 -->
<g id="edge5" class="edge">
<title>CLONE_1&#45;&gt;Convolution_211</title>
<path fill="none" stroke="black" d="M2365.79,-469.48C2351.19,-448.81 2334.61,-425.33 2319.95,-404.57"/>
<polygon fill="black" stroke="black" points="2322.63,-402.3 2314.01,-396.15 2316.92,-406.34 2322.63,-402.3"/>
<text text-anchor="middle" x="2368" y="-432.8" font-family="Times New Roman,serif" font-size="14.00"> 0 &#45;&gt; 1 </text>
</g>
<!-- MaxPool_168 -->
<g id="node7" class="node">
<title>MaxPool_168</title>
<polygon fill="none" stroke="black" points="1961,-761.5 1401,-761.5 1401,-648.5 1961,-648.5 1961,-761.5"/>
<text text-anchor="middle" x="1681" y="-746.3" font-family="Times New Roman,serif" font-size="14.00">friendly_name: MaxPool</text>
<text text-anchor="middle" x="1681" y="-731.3" font-family="Times New Roman,serif" font-size="14.00">name: MaxPool_168</text>
<text text-anchor="middle" x="1681" y="-716.3" font-family="Times New Roman,serif" font-size="14.00">type_name: MaxPool</text>
<text text-anchor="middle" x="1681" y="-701.3" font-family="Times New Roman,serif" font-size="14.00">rt info: &#160;PRECISION_PRESERVED(value: true)</text>
<text text-anchor="middle" x="1681" y="-686.3" font-family="Times New Roman,serif" font-size="14.00">QUANTIZATION_ALIGNMENT(2568398406816: low: &#45;1.28, high: 1.27, hasToBeAligned: true)</text>
<text text-anchor="middle" x="1681" y="-671.3" font-family="Times New Roman,serif" font-size="14.00">in0: {u8}[1,6,9,9]: Concat_167: out0</text>
<text text-anchor="middle" x="1681" y="-656.3" font-family="Times New Roman,serif" font-size="14.00">out0: {u8}[1,6,7,7]</text>
</g>
<!-- MaxPool_168&#45;&gt;Subtract_185 -->
<g id="edge6" class="edge">
<title>MaxPool_168&#45;&gt;Subtract_185</title>
<path fill="none" stroke="black" d="M1771.96,-648.48C1799.51,-631.67 1830.09,-613 1858.86,-595.44"/>
<polygon fill="black" stroke="black" points="1861.01,-598.23 1867.72,-590.04 1857.36,-592.26 1861.01,-598.23"/>
<text text-anchor="middle" x="1856" y="-611.8" font-family="Times New Roman,serif" font-size="14.00"> 0 &#45;&gt; 0 </text>
</g>
<!-- CLONE_2 -->
<g id="node8" class="node">
<title>CLONE_2</title>
<polygon fill="none" stroke="black" stroke-dasharray="5,2" points="2199,-739 1979,-739 1979,-671 2199,-671 2199,-739"/>
<text text-anchor="middle" x="2089" y="-723.8" font-family="Times New Roman,serif" font-size="14.00">friendly_name: Constant_184</text>
<text text-anchor="middle" x="2089" y="-708.8" font-family="Times New Roman,serif" font-size="14.00">type_name: Constant</text>
<text text-anchor="middle" x="2089" y="-693.8" font-family="Times New Roman,serif" font-size="14.00">{u8}[1,6,1,1]</text>
<text text-anchor="middle" x="2089" y="-678.8" font-family="Times New Roman,serif" font-size="14.00">value: [128, 128, 128, 128, 128, 128]</text>
</g>
<!-- CLONE_2&#45;&gt;Subtract_185 -->
<g id="edge7" class="edge">
<title>CLONE_2&#45;&gt;Subtract_185</title>
<path fill="none" stroke="black" d="M2066.81,-670.71C2053.25,-650.37 2035.38,-623.57 2018.75,-598.62"/>
<polygon fill="black" stroke="black" points="2021.62,-596.62 2013.16,-590.24 2015.8,-600.5 2021.62,-596.62"/>
<text text-anchor="middle" x="2055" y="-611.8" font-family="Times New Roman,serif" font-size="14.00"> 0 &#45;&gt; 1 </text>
</g>
<!-- Concat_167 -->
<g id="node9" class="node">
<title>Concat_167</title>
<polygon fill="none" stroke="black" points="1961,-963 1401,-963 1401,-820 1961,-820 1961,-963"/>
<text text-anchor="middle" x="1681" y="-947.8" font-family="Times New Roman,serif" font-size="14.00">friendly_name: concat2</text>
<text text-anchor="middle" x="1681" y="-932.8" font-family="Times New Roman,serif" font-size="14.00">name: Concat_167</text>
<text text-anchor="middle" x="1681" y="-917.8" font-family="Times New Roman,serif" font-size="14.00">type_name: Concat</text>
<text text-anchor="middle" x="1681" y="-902.8" font-family="Times New Roman,serif" font-size="14.00">rt info: &#160;PRECISION_PRESERVED(value: true)</text>
<text text-anchor="middle" x="1681" y="-887.8" font-family="Times New Roman,serif" font-size="14.00">QUANTIZATION_ALIGNMENT(2568398406816: low: &#45;1.28, high: 1.27, hasToBeAligned: true)</text>
<text text-anchor="middle" x="1681" y="-872.8" font-family="Times New Roman,serif" font-size="14.00">Variant::std::string</text>
<text text-anchor="middle" x="1681" y="-857.8" font-family="Times New Roman,serif" font-size="14.00">in0: {u8}[1,3,9,9]: FakeQuantize_117: out0</text>
<text text-anchor="middle" x="1681" y="-842.8" font-family="Times New Roman,serif" font-size="14.00">in1: {u8}[1,3,9,9]: FakeQuantize_126: out0</text>
<text text-anchor="middle" x="1681" y="-827.8" font-family="Times New Roman,serif" font-size="14.00">out0: {u8}[1,6,9,9]</text>
</g>
<!-- Concat_167&#45;&gt;MaxPool_168 -->
<g id="edge8" class="edge">
<title>Concat_167&#45;&gt;MaxPool_168</title>
<path fill="none" stroke="black" d="M1681,-819.96C1681,-804.1 1681,-787.34 1681,-771.69"/>
<polygon fill="black" stroke="black" points="1684.5,-771.59 1681,-761.59 1677.5,-771.59 1684.5,-771.59"/>
<text text-anchor="middle" x="1702" y="-790.8" font-family="Times New Roman,serif" font-size="14.00"> 0 &#45;&gt; 0 </text>
</g>
<!-- FakeQuantize_117 -->
<g id="node10" class="node">
<title>FakeQuantize_117</title>
<polygon fill="none" stroke="black" points="1675,-1172 1071,-1172 1071,-1014 1675,-1014 1675,-1172"/>
<text text-anchor="middle" x="1373" y="-1156.8" font-family="Times New Roman,serif" font-size="14.00">friendly_name: fakeQuantize2</text>
<text text-anchor="middle" x="1373" y="-1141.8" font-family="Times New Roman,serif" font-size="14.00">name: FakeQuantize_117</text>
<text text-anchor="middle" x="1373" y="-1126.8" font-family="Times New Roman,serif" font-size="14.00">type_name: FakeQuantize</text>
<text text-anchor="middle" x="1373" y="-1111.8" font-family="Times New Roman,serif" font-size="14.00">rt info: &#160;QUANTIZATION_ALIGNMENT(2568398406816: low: &#45;1.28, high: 1.27, hasToBeAligned: true)</text>
<text text-anchor="middle" x="1373" y="-1096.8" font-family="Times New Roman,serif" font-size="14.00">in0: {f32}[1,3,9,9]: Parameter_85: out0</text>
<text text-anchor="middle" x="1373" y="-1081.8" font-family="Times New Roman,serif" font-size="14.00">in1: {f32}[]: Constant_86: out0</text>
<text text-anchor="middle" x="1373" y="-1066.8" font-family="Times New Roman,serif" font-size="14.00">in2: {f32}[]: Constant_87: out0</text>
<text text-anchor="middle" x="1373" y="-1051.8" font-family="Times New Roman,serif" font-size="14.00">in3: {f32}[]: Constant_115: out0</text>
<text text-anchor="middle" x="1373" y="-1036.8" font-family="Times New Roman,serif" font-size="14.00">in4: {f32}[]: Constant_116: out0</text>
<text text-anchor="middle" x="1373" y="-1021.8" font-family="Times New Roman,serif" font-size="14.00">out0: {u8}[1,3,9,9]</text>
</g>
<!-- FakeQuantize_117&#45;&gt;Concat_167 -->
<g id="edge9" class="edge">
<title>FakeQuantize_117&#45;&gt;Concat_167</title>
<path fill="none" stroke="black" d="M1493.85,-1013.72C1516.71,-998.92 1540.6,-983.44 1563.36,-968.7"/>
<polygon fill="black" stroke="black" points="1565.54,-971.46 1572.03,-963.09 1561.73,-965.58 1565.54,-971.46"/>
<text text-anchor="middle" x="1558" y="-984.8" font-family="Times New Roman,serif" font-size="14.00"> 0 &#45;&gt; 0 </text>
</g>
<!-- Concat_261 -->
<g id="node28" class="node">
<title>Concat_261</title>
<polygon fill="none" stroke="black" points="1342,-963 782,-963 782,-820 1342,-820 1342,-963"/>
<text text-anchor="middle" x="1062" y="-947.8" font-family="Times New Roman,serif" font-size="14.00">friendly_name: concat1_original</text>
<text text-anchor="middle" x="1062" y="-932.8" font-family="Times New Roman,serif" font-size="14.00">name: Concat_261</text>
<text text-anchor="middle" x="1062" y="-917.8" font-family="Times New Roman,serif" font-size="14.00">type_name: Concat</text>
<text text-anchor="middle" x="1062" y="-902.8" font-family="Times New Roman,serif" font-size="14.00">rt info: &#160;PRECISION_PRESERVED(value: true)</text>
<text text-anchor="middle" x="1062" y="-887.8" font-family="Times New Roman,serif" font-size="14.00">QUANTIZATION_ALIGNMENT(2568398406816: low: &#45;1.28, high: 1.27, hasToBeAligned: true)</text>
<text text-anchor="middle" x="1062" y="-872.8" font-family="Times New Roman,serif" font-size="14.00">Variant::std::string</text>
<text text-anchor="middle" x="1062" y="-857.8" font-family="Times New Roman,serif" font-size="14.00">in0: {u8}[1,3,9,9]: FakeQuantize_220: out0</text>
<text text-anchor="middle" x="1062" y="-842.8" font-family="Times New Roman,serif" font-size="14.00">in1: {u8}[1,3,9,9]: FakeQuantize_117: out0</text>
<text text-anchor="middle" x="1062" y="-827.8" font-family="Times New Roman,serif" font-size="14.00">out0: {u8}[1,6,9,9]</text>
</g>
<!-- FakeQuantize_117&#45;&gt;Concat_261 -->
<g id="edge28" class="edge">
<title>FakeQuantize_117&#45;&gt;Concat_261</title>
<path fill="none" stroke="black" d="M1250.98,-1013.72C1227.79,-998.85 1203.56,-983.31 1180.48,-968.5"/>
<polygon fill="black" stroke="black" points="1182.34,-965.54 1172.04,-963.09 1178.56,-971.43 1182.34,-965.54"/>
<text text-anchor="middle" x="1239" y="-984.8" font-family="Times New Roman,serif" font-size="14.00"> 0 &#45;&gt; 1 </text>
</g>
<!-- FakeQuantize_126 -->
<g id="node11" class="node">
<title>FakeQuantize_126</title>
<polygon fill="none" stroke="black" points="2516,-1172 1912,-1172 1912,-1014 2516,-1014 2516,-1172"/>
<text text-anchor="middle" x="2214" y="-1156.8" font-family="Times New Roman,serif" font-size="14.00">friendly_name: fakeQuantize3</text>
<text text-anchor="middle" x="2214" y="-1141.8" font-family="Times New Roman,serif" font-size="14.00">name: FakeQuantize_126</text>
<text text-anchor="middle" x="2214" y="-1126.8" font-family="Times New Roman,serif" font-size="14.00">type_name: FakeQuantize</text>
<text text-anchor="middle" x="2214" y="-1111.8" font-family="Times New Roman,serif" font-size="14.00">rt info: &#160;QUANTIZATION_ALIGNMENT(2568398406816: low: &#45;1.28, high: 1.27, hasToBeAligned: true)</text>
<text text-anchor="middle" x="2214" y="-1096.8" font-family="Times New Roman,serif" font-size="14.00">in0: {f32}[1,3,9,9]: Parameter_91: out0</text>
<text text-anchor="middle" x="2214" y="-1081.8" font-family="Times New Roman,serif" font-size="14.00">in1: {f32}[]: Constant_92: out0</text>
<text text-anchor="middle" x="2214" y="-1066.8" font-family="Times New Roman,serif" font-size="14.00">in2: {f32}[]: Constant_93: out0</text>
<text text-anchor="middle" x="2214" y="-1051.8" font-family="Times New Roman,serif" font-size="14.00">in3: {f32}[]: Constant_124: out0</text>
<text text-anchor="middle" x="2214" y="-1036.8" font-family="Times New Roman,serif" font-size="14.00">in4: {f32}[]: Constant_125: out0</text>
<text text-anchor="middle" x="2214" y="-1021.8" font-family="Times New Roman,serif" font-size="14.00">out0: {u8}[1,3,9,9]</text>
</g>
<!-- FakeQuantize_126&#45;&gt;Concat_167 -->
<g id="edge10" class="edge">
<title>FakeQuantize_126&#45;&gt;Concat_167</title>
<path fill="none" stroke="black" d="M2005.26,-1013.87C1963.7,-998.31 1920.18,-982.02 1878.99,-966.61"/>
<polygon fill="black" stroke="black" points="1880.01,-963.25 1869.41,-963.02 1877.55,-969.81 1880.01,-963.25"/>
<text text-anchor="middle" x="1969" y="-984.8" font-family="Times New Roman,serif" font-size="14.00"> 0 &#45;&gt; 1 </text>
</g>
<!-- CLONE_3 -->
<g id="node12" class="node">
<title>CLONE_3</title>
<polygon fill="none" stroke="blue" stroke-dasharray="5,2" points="2014,-1291 1874,-1291 1874,-1223 2014,-1223 2014,-1291"/>
<text text-anchor="middle" x="1944" y="-1275.8" font-family="Times New Roman,serif" font-size="14.00">friendly_name: input3</text>
<text text-anchor="middle" x="1944" y="-1260.8" font-family="Times New Roman,serif" font-size="14.00">name: Parameter_91</text>
<text text-anchor="middle" x="1944" y="-1245.8" font-family="Times New Roman,serif" font-size="14.00">type_name: Parameter</text>
<text text-anchor="middle" x="1944" y="-1230.8" font-family="Times New Roman,serif" font-size="14.00">{f32}[1,3,9,9]</text>
</g>
<!-- CLONE_3&#45;&gt;FakeQuantize_126 -->
<g id="edge11" class="edge">
<title>CLONE_3&#45;&gt;FakeQuantize_126</title>
<path fill="none" stroke="black" d="M1999.29,-1222.83C2021.49,-1209.5 2048.18,-1193.49 2075.08,-1177.35"/>
<polygon fill="black" stroke="black" points="2077.04,-1180.26 2083.81,-1172.11 2073.44,-1174.26 2077.04,-1180.26"/>
<text text-anchor="middle" x="2068" y="-1193.8" font-family="Times New Roman,serif" font-size="14.00"> 0 &#45;&gt; 0 </text>
</g>
<!-- CLONE_4 -->
<g id="node13" class="node">
<title>CLONE_4</title>
<polygon fill="none" stroke="black" stroke-dasharray="5,2" points="2205.5,-1291 2032.5,-1291 2032.5,-1223 2205.5,-1223 2205.5,-1291"/>
<text text-anchor="middle" x="2119" y="-1275.8" font-family="Times New Roman,serif" font-size="14.00">friendly_name: Constant_92</text>
<text text-anchor="middle" x="2119" y="-1260.8" font-family="Times New Roman,serif" font-size="14.00">type_name: Constant</text>
<text text-anchor="middle" x="2119" y="-1245.8" font-family="Times New Roman,serif" font-size="14.00">{f32}[]</text>
<text text-anchor="middle" x="2119" y="-1230.8" font-family="Times New Roman,serif" font-size="14.00">value: [&#45;0.426667]</text>
</g>
<!-- CLONE_4&#45;&gt;FakeQuantize_126 -->
<g id="edge12" class="edge">
<title>CLONE_4&#45;&gt;FakeQuantize_126</title>
<path fill="none" stroke="black" d="M2138.45,-1222.83C2145.67,-1210.52 2154.23,-1195.92 2162.95,-1181.05"/>
<polygon fill="black" stroke="black" points="2166.05,-1182.68 2168.09,-1172.28 2160.02,-1179.14 2166.05,-1182.68"/>
<text text-anchor="middle" x="2177" y="-1193.8" font-family="Times New Roman,serif" font-size="14.00"> 0 &#45;&gt; 1 </text>
</g>
<!-- CLONE_5 -->
<g id="node14" class="node">
<title>CLONE_5</title>
<polygon fill="none" stroke="black" stroke-dasharray="5,2" points="2396.5,-1291 2223.5,-1291 2223.5,-1223 2396.5,-1223 2396.5,-1291"/>
<text text-anchor="middle" x="2310" y="-1275.8" font-family="Times New Roman,serif" font-size="14.00">friendly_name: Constant_93</text>
<text text-anchor="middle" x="2310" y="-1260.8" font-family="Times New Roman,serif" font-size="14.00">type_name: Constant</text>
<text text-anchor="middle" x="2310" y="-1245.8" font-family="Times New Roman,serif" font-size="14.00">{f32}[]</text>
<text text-anchor="middle" x="2310" y="-1230.8" font-family="Times New Roman,serif" font-size="14.00">value: [0.423333]</text>
</g>
<!-- CLONE_5&#45;&gt;FakeQuantize_126 -->
<g id="edge13" class="edge">
<title>CLONE_5&#45;&gt;FakeQuantize_126</title>
<path fill="none" stroke="black" d="M2290.34,-1222.83C2283.05,-1210.52 2274.4,-1195.92 2265.59,-1181.05"/>
<polygon fill="black" stroke="black" points="2268.5,-1179.1 2260.39,-1172.28 2262.48,-1182.67 2268.5,-1179.1"/>
<text text-anchor="middle" x="2300" y="-1193.8" font-family="Times New Roman,serif" font-size="14.00"> 0 &#45;&gt; 2 </text>
</g>
<!-- CLONE_6 -->
<g id="node15" class="node">
<title>CLONE_6</title>
<polygon fill="none" stroke="black" stroke-dasharray="5,2" points="2595,-1291 2415,-1291 2415,-1223 2595,-1223 2595,-1291"/>
<text text-anchor="middle" x="2505" y="-1275.8" font-family="Times New Roman,serif" font-size="14.00">friendly_name: Constant_124</text>
<text text-anchor="middle" x="2505" y="-1260.8" font-family="Times New Roman,serif" font-size="14.00">type_name: Constant</text>
<text text-anchor="middle" x="2505" y="-1245.8" font-family="Times New Roman,serif" font-size="14.00">{f32}[]</text>
<text text-anchor="middle" x="2505" y="-1230.8" font-family="Times New Roman,serif" font-size="14.00">value: [85]</text>
</g>
<!-- CLONE_6&#45;&gt;FakeQuantize_126 -->
<g id="edge14" class="edge">
<title>CLONE_6&#45;&gt;FakeQuantize_126</title>
<path fill="none" stroke="black" d="M2445.41,-1222.83C2421.37,-1209.45 2392.47,-1193.35 2363.35,-1177.14"/>
<polygon fill="black" stroke="black" points="2364.75,-1173.92 2354.31,-1172.11 2361.35,-1180.04 2364.75,-1173.92"/>
<text text-anchor="middle" x="2432" y="-1193.8" font-family="Times New Roman,serif" font-size="14.00"> 0 &#45;&gt; 3 </text>
</g>
<!-- CLONE_7 -->
<g id="node16" class="node">
<title>CLONE_7</title>
<polygon fill="none" stroke="black" stroke-dasharray="5,2" points="2793,-1291 2613,-1291 2613,-1223 2793,-1223 2793,-1291"/>
<text text-anchor="middle" x="2703" y="-1275.8" font-family="Times New Roman,serif" font-size="14.00">friendly_name: Constant_125</text>
<text text-anchor="middle" x="2703" y="-1260.8" font-family="Times New Roman,serif" font-size="14.00">type_name: Constant</text>
<text text-anchor="middle" x="2703" y="-1245.8" font-family="Times New Roman,serif" font-size="14.00">{f32}[]</text>
<text text-anchor="middle" x="2703" y="-1230.8" font-family="Times New Roman,serif" font-size="14.00">value: [170]</text>
</g>
<!-- CLONE_7&#45;&gt;FakeQuantize_126 -->
<g id="edge15" class="edge">
<title>CLONE_7&#45;&gt;FakeQuantize_126</title>
<path fill="none" stroke="black" d="M2612.89,-1225.96C2609.89,-1224.96 2606.92,-1223.97 2604,-1223 2557.36,-1207.51 2507.58,-1191.02 2459.71,-1175.18"/>
<polygon fill="black" stroke="black" points="2460.76,-1171.84 2450.17,-1172.02 2458.56,-1178.48 2460.76,-1171.84"/>
<text text-anchor="middle" x="2562" y="-1193.8" font-family="Times New Roman,serif" font-size="14.00"> 0 &#45;&gt; 4 </text>
</g>
<!-- CLONE_8 -->
<g id="node17" class="node">
<title>CLONE_8</title>
<polygon fill="none" stroke="blue" stroke-dasharray="5,2" points="1077,-1291 937,-1291 937,-1223 1077,-1223 1077,-1291"/>
<text text-anchor="middle" x="1007" y="-1275.8" font-family="Times New Roman,serif" font-size="14.00">friendly_name: input2</text>
<text text-anchor="middle" x="1007" y="-1260.8" font-family="Times New Roman,serif" font-size="14.00">name: Parameter_85</text>
<text text-anchor="middle" x="1007" y="-1245.8" font-family="Times New Roman,serif" font-size="14.00">type_name: Parameter</text>
<text text-anchor="middle" x="1007" y="-1230.8" font-family="Times New Roman,serif" font-size="14.00">{f32}[1,3,9,9]</text>
</g>
<!-- CLONE_8&#45;&gt;FakeQuantize_117 -->
<g id="edge16" class="edge">
<title>CLONE_8&#45;&gt;FakeQuantize_117</title>
<path fill="none" stroke="black" d="M1077.14,-1224.96C1108.84,-1210.92 1147.96,-1193.61 1187.26,-1176.21"/>
<polygon fill="black" stroke="black" points="1188.98,-1179.28 1196.71,-1172.03 1186.14,-1172.88 1188.98,-1179.28"/>
<text text-anchor="middle" x="1168" y="-1193.8" font-family="Times New Roman,serif" font-size="14.00"> 0 &#45;&gt; 0 </text>
</g>
<!-- CLONE_9 -->
<g id="node18" class="node">
<title>CLONE_9</title>
<polygon fill="none" stroke="black" stroke-dasharray="5,2" points="1268.5,-1291 1095.5,-1291 1095.5,-1223 1268.5,-1223 1268.5,-1291"/>
<text text-anchor="middle" x="1182" y="-1275.8" font-family="Times New Roman,serif" font-size="14.00">friendly_name: Constant_86</text>
<text text-anchor="middle" x="1182" y="-1260.8" font-family="Times New Roman,serif" font-size="14.00">type_name: Constant</text>
<text text-anchor="middle" x="1182" y="-1245.8" font-family="Times New Roman,serif" font-size="14.00">{f32}[]</text>
<text text-anchor="middle" x="1182" y="-1230.8" font-family="Times New Roman,serif" font-size="14.00">value: [&#45;0.64]</text>
</g>
<!-- CLONE_9&#45;&gt;FakeQuantize_117 -->
<g id="edge17" class="edge">
<title>CLONE_9&#45;&gt;FakeQuantize_117</title>
<path fill="none" stroke="black" d="M1221.11,-1222.83C1236.3,-1209.95 1254.44,-1194.56 1272.82,-1178.97"/>
<polygon fill="black" stroke="black" points="1275.34,-1181.42 1280.7,-1172.28 1270.81,-1176.08 1275.34,-1181.42"/>
<text text-anchor="middle" x="1276" y="-1193.8" font-family="Times New Roman,serif" font-size="14.00"> 0 &#45;&gt; 1 </text>
</g>
<!-- CLONE_10 -->
<g id="node19" class="node">
<title>CLONE_10</title>
<polygon fill="none" stroke="black" stroke-dasharray="5,2" points="1459.5,-1291 1286.5,-1291 1286.5,-1223 1459.5,-1223 1459.5,-1291"/>
<text text-anchor="middle" x="1373" y="-1275.8" font-family="Times New Roman,serif" font-size="14.00">friendly_name: Constant_87</text>
<text text-anchor="middle" x="1373" y="-1260.8" font-family="Times New Roman,serif" font-size="14.00">type_name: Constant</text>
<text text-anchor="middle" x="1373" y="-1245.8" font-family="Times New Roman,serif" font-size="14.00">{f32}[]</text>
<text text-anchor="middle" x="1373" y="-1230.8" font-family="Times New Roman,serif" font-size="14.00">value: [0.635]</text>
</g>
<!-- CLONE_10&#45;&gt;FakeQuantize_117 -->
<g id="edge18" class="edge">
<title>CLONE_10&#45;&gt;FakeQuantize_117</title>
<path fill="none" stroke="black" d="M1373,-1222.83C1373,-1210.87 1373,-1196.74 1373,-1182.3"/>
<polygon fill="black" stroke="black" points="1376.5,-1182.28 1373,-1172.28 1369.5,-1182.28 1376.5,-1182.28"/>
<text text-anchor="middle" x="1394" y="-1193.8" font-family="Times New Roman,serif" font-size="14.00"> 0 &#45;&gt; 2 </text>
</g>
<!-- CLONE_11 -->
<g id="node20" class="node">
<title>CLONE_11</title>
<polygon fill="none" stroke="black" stroke-dasharray="5,2" points="1658,-1291 1478,-1291 1478,-1223 1658,-1223 1658,-1291"/>
<text text-anchor="middle" x="1568" y="-1275.8" font-family="Times New Roman,serif" font-size="14.00">friendly_name: Constant_115</text>
<text text-anchor="middle" x="1568" y="-1260.8" font-family="Times New Roman,serif" font-size="14.00">type_name: Constant</text>
<text text-anchor="middle" x="1568" y="-1245.8" font-family="Times New Roman,serif" font-size="14.00">{f32}[]</text>
<text text-anchor="middle" x="1568" y="-1230.8" font-family="Times New Roman,serif" font-size="14.00">value: [64]</text>
</g>
<!-- CLONE_11&#45;&gt;FakeQuantize_117 -->
<g id="edge19" class="edge">
<title>CLONE_11&#45;&gt;FakeQuantize_117</title>
<path fill="none" stroke="black" d="M1528.07,-1222.83C1512.5,-1209.89 1493.87,-1194.42 1475.02,-1178.76"/>
<polygon fill="black" stroke="black" points="1477.16,-1175.98 1467.23,-1172.28 1472.68,-1181.36 1477.16,-1175.98"/>
<text text-anchor="middle" x="1526" y="-1193.8" font-family="Times New Roman,serif" font-size="14.00"> 0 &#45;&gt; 3 </text>
</g>
<!-- CLONE_12 -->
<g id="node21" class="node">
<title>CLONE_12</title>
<polygon fill="none" stroke="black" stroke-dasharray="5,2" points="1856,-1291 1676,-1291 1676,-1223 1856,-1223 1856,-1291"/>
<text text-anchor="middle" x="1766" y="-1275.8" font-family="Times New Roman,serif" font-size="14.00">friendly_name: Constant_116</text>
<text text-anchor="middle" x="1766" y="-1260.8" font-family="Times New Roman,serif" font-size="14.00">type_name: Constant</text>
<text text-anchor="middle" x="1766" y="-1245.8" font-family="Times New Roman,serif" font-size="14.00">{f32}[]</text>
<text text-anchor="middle" x="1766" y="-1230.8" font-family="Times New Roman,serif" font-size="14.00">value: [192]</text>
</g>
<!-- CLONE_12&#45;&gt;FakeQuantize_117 -->
<g id="edge20" class="edge">
<title>CLONE_12&#45;&gt;FakeQuantize_117</title>
<path fill="none" stroke="black" d="M1685.52,-1222.83C1652.29,-1209.13 1612.17,-1192.59 1571.91,-1175.99"/>
<polygon fill="black" stroke="black" points="1573.08,-1172.69 1562.5,-1172.11 1570.41,-1179.16 1573.08,-1172.69"/>
<text text-anchor="middle" x="1660" y="-1193.8" font-family="Times New Roman,serif" font-size="14.00"> 0 &#45;&gt; 4 </text>
</g>
<!-- Multiply_260 -->
<g id="node22" class="node">
<title>Multiply_260</title>
<polygon fill="none" stroke="black" points="753,-411 521,-411 521,-283 753,-283 753,-411"/>
<text text-anchor="middle" x="637" y="-395.8" font-family="Times New Roman,serif" font-size="14.00">friendly_name: concat1</text>
<text text-anchor="middle" x="637" y="-380.8" font-family="Times New Roman,serif" font-size="14.00">name: Multiply_260</text>
<text text-anchor="middle" x="637" y="-365.8" font-family="Times New Roman,serif" font-size="14.00">type_name: Multiply</text>
<text text-anchor="middle" x="637" y="-350.8" font-family="Times New Roman,serif" font-size="14.00">rt info: &#160;DEQUANTIZATION</text>
<text text-anchor="middle" x="637" y="-335.8" font-family="Times New Roman,serif" font-size="14.00">Variant::std::string</text>
<text text-anchor="middle" x="637" y="-320.8" font-family="Times New Roman,serif" font-size="14.00">in0: {f32}[1,6,9,9]: Subtract_255: out0</text>
<text text-anchor="middle" x="637" y="-305.8" font-family="Times New Roman,serif" font-size="14.00">in1: {f32}[]: Constant_258: out0</text>
<text text-anchor="middle" x="637" y="-290.8" font-family="Times New Roman,serif" font-size="14.00">out0: {f32}[1,6,9,9]</text>
</g>
<!-- Result_107 -->
<g id="node23" class="node">
<title>Result_107</title>
<polygon fill="none" stroke="crimson" stroke-width="1.5" points="752,-209.5 522,-209.5 522,-141.5 752,-141.5 752,-209.5"/>
<text text-anchor="middle" x="637" y="-194.3" font-family="Times New Roman,serif" font-size="14.00">friendly_name: Result_107</text>
<text text-anchor="middle" x="637" y="-179.3" font-family="Times New Roman,serif" font-size="14.00">type_name: Result</text>
<text text-anchor="middle" x="637" y="-164.3" font-family="Times New Roman,serif" font-size="14.00">in0: {f32}[1,6,9,9]: Multiply_260: out0</text>
<text text-anchor="middle" x="637" y="-149.3" font-family="Times New Roman,serif" font-size="14.00">out0: {f32}[1,6,9,9]</text>
</g>
<!-- Multiply_260&#45;&gt;Result_107 -->
<g id="edge21" class="edge">
<title>Multiply_260&#45;&gt;Result_107</title>
<path fill="none" stroke="black" d="M637,-282.88C637,-261.92 637,-239.06 637,-219.92"/>
<polygon fill="black" stroke="black" points="640.5,-219.71 637,-209.71 633.5,-219.71 640.5,-219.71"/>
<text text-anchor="middle" x="658" y="-253.8" font-family="Times New Roman,serif" font-size="14.00"> 0 &#45;&gt; 0 </text>
</g>
<!-- Subtract_255 -->
<g id="node24" class="node">
<title>Subtract_255</title>
<polygon fill="none" stroke="black" points="903,-590 673,-590 673,-462 903,-462 903,-590"/>
<text text-anchor="middle" x="788" y="-574.8" font-family="Times New Roman,serif" font-size="14.00">friendly_name: concat1</text>
<text text-anchor="middle" x="788" y="-559.8" font-family="Times New Roman,serif" font-size="14.00">name: Subtract_255</text>
<text text-anchor="middle" x="788" y="-544.8" font-family="Times New Roman,serif" font-size="14.00">type_name: Subtract</text>
<text text-anchor="middle" x="788" y="-529.8" font-family="Times New Roman,serif" font-size="14.00">rt info: &#160;DEQUANTIZATION</text>
<text text-anchor="middle" x="788" y="-514.8" font-family="Times New Roman,serif" font-size="14.00">Variant::std::string</text>
<text text-anchor="middle" x="788" y="-499.8" font-family="Times New Roman,serif" font-size="14.00">in0: {f32}[1,6,9,9]: Convert_251: out0</text>
<text text-anchor="middle" x="788" y="-484.8" font-family="Times New Roman,serif" font-size="14.00">in1: {f32}[]: Constant_254: out0</text>
<text text-anchor="middle" x="788" y="-469.8" font-family="Times New Roman,serif" font-size="14.00">out0: {f32}[1,6,9,9]</text>
</g>
<!-- Subtract_255&#45;&gt;Multiply_260 -->
<g id="edge22" class="edge">
<title>Subtract_255&#45;&gt;Multiply_260</title>
<path fill="none" stroke="black" d="M733.91,-461.6C722.13,-447.79 709.59,-433.09 697.58,-419.01"/>
<polygon fill="black" stroke="black" points="700.12,-416.59 690.96,-411.26 694.79,-421.14 700.12,-416.59"/>
<text text-anchor="middle" x="739" y="-432.8" font-family="Times New Roman,serif" font-size="14.00"> 0 &#45;&gt; 0 </text>
</g>
<!-- CLONE_13 -->
<g id="node25" class="node">
<title>CLONE_13</title>
<polygon fill="none" stroke="black" stroke-dasharray="5,2" points="655,-560 475,-560 475,-492 655,-492 655,-560"/>
<text text-anchor="middle" x="565" y="-544.8" font-family="Times New Roman,serif" font-size="14.00">friendly_name: Constant_258</text>
<text text-anchor="middle" x="565" y="-529.8" font-family="Times New Roman,serif" font-size="14.00">type_name: Constant</text>
<text text-anchor="middle" x="565" y="-514.8" font-family="Times New Roman,serif" font-size="14.00">{f32}[]</text>
<text text-anchor="middle" x="565" y="-499.8" font-family="Times New Roman,serif" font-size="14.00">value: [0.01]</text>
</g>
<!-- CLONE_13&#45;&gt;Multiply_260 -->
<g id="edge23" class="edge">
<title>CLONE_13&#45;&gt;Multiply_260</title>
<path fill="none" stroke="black" d="M578.54,-491.71C586.71,-471.64 597.43,-445.27 607.47,-420.6"/>
<polygon fill="black" stroke="black" points="610.75,-421.82 611.27,-411.24 604.26,-419.19 610.75,-421.82"/>
<text text-anchor="middle" x="625" y="-432.8" font-family="Times New Roman,serif" font-size="14.00"> 0 &#45;&gt; 1 </text>
</g>
<!-- Convert_251 -->
<g id="node26" class="node">
<title>Convert_251</title>
<polygon fill="none" stroke="black" points="1342,-769 782,-769 782,-641 1342,-641 1342,-769"/>
<text text-anchor="middle" x="1062" y="-753.8" font-family="Times New Roman,serif" font-size="14.00">friendly_name: concat1</text>
<text text-anchor="middle" x="1062" y="-738.8" font-family="Times New Roman,serif" font-size="14.00">name: Convert_251</text>
<text text-anchor="middle" x="1062" y="-723.8" font-family="Times New Roman,serif" font-size="14.00">type_name: Convert</text>
<text text-anchor="middle" x="1062" y="-708.8" font-family="Times New Roman,serif" font-size="14.00">rt info: &#160;PRECISION_PRESERVED(value: true)</text>
<text text-anchor="middle" x="1062" y="-693.8" font-family="Times New Roman,serif" font-size="14.00">QUANTIZATION_ALIGNMENT(2568398406816: low: &#45;1.28, high: 1.27, hasToBeAligned: true)</text>
<text text-anchor="middle" x="1062" y="-678.8" font-family="Times New Roman,serif" font-size="14.00">Variant::std::string</text>
<text text-anchor="middle" x="1062" y="-663.8" font-family="Times New Roman,serif" font-size="14.00">in0: {u8}[1,6,9,9]: Concat_261: out0</text>
<text text-anchor="middle" x="1062" y="-648.8" font-family="Times New Roman,serif" font-size="14.00">out0: {f32}[1,6,9,9]</text>
</g>
<!-- Convert_251&#45;&gt;Subtract_255 -->
<g id="edge24" class="edge">
<title>Convert_251&#45;&gt;Subtract_255</title>
<path fill="none" stroke="black" d="M964.24,-640.85C941.52,-626.17 917.22,-610.48 894.16,-595.58"/>
<polygon fill="black" stroke="black" points="896.02,-592.61 885.72,-590.13 892.22,-598.49 896.02,-592.61"/>
<text text-anchor="middle" x="955" y="-611.8" font-family="Times New Roman,serif" font-size="14.00"> 0 &#45;&gt; 0 </text>
</g>
<!-- CLONE_14 -->
<g id="node27" class="node">
<title>CLONE_14</title>
<polygon fill="none" stroke="black" stroke-dasharray="5,2" points="764,-739 584,-739 584,-671 764,-671 764,-739"/>
<text text-anchor="middle" x="674" y="-723.8" font-family="Times New Roman,serif" font-size="14.00">friendly_name: Constant_254</text>
<text text-anchor="middle" x="674" y="-708.8" font-family="Times New Roman,serif" font-size="14.00">type_name: Constant</text>
<text text-anchor="middle" x="674" y="-693.8" font-family="Times New Roman,serif" font-size="14.00">{f32}[]</text>
<text text-anchor="middle" x="674" y="-678.8" font-family="Times New Roman,serif" font-size="14.00">value: [128]</text>
</g>
<!-- CLONE_14&#45;&gt;Subtract_255 -->
<g id="edge25" class="edge">
<title>CLONE_14&#45;&gt;Subtract_255</title>
<path fill="none" stroke="black" d="M695.44,-670.71C708.48,-650.46 725.65,-623.8 741.66,-598.94"/>
<polygon fill="black" stroke="black" points="744.8,-600.54 747.27,-590.24 738.91,-596.75 744.8,-600.54"/>
<text text-anchor="middle" x="756" y="-611.8" font-family="Times New Roman,serif" font-size="14.00"> 0 &#45;&gt; 1 </text>
</g>
<!-- Concat_261&#45;&gt;Convert_251 -->
<g id="edge26" class="edge">
<title>Concat_261&#45;&gt;Convert_251</title>
<path fill="none" stroke="black" d="M1062,-819.96C1062,-806.66 1062,-792.73 1062,-779.35"/>
<polygon fill="black" stroke="black" points="1065.5,-779.25 1062,-769.25 1058.5,-779.25 1065.5,-779.25"/>
<text text-anchor="middle" x="1083" y="-790.8" font-family="Times New Roman,serif" font-size="14.00"> 0 &#45;&gt; 0 </text>
</g>
<!-- FakeQuantize_220 -->
<g id="node29" class="node">
<title>FakeQuantize_220</title>
<polygon fill="none" stroke="black" points="836,-1172 232,-1172 232,-1014 836,-1014 836,-1172"/>
<text text-anchor="middle" x="534" y="-1156.8" font-family="Times New Roman,serif" font-size="14.00">friendly_name: fakeQuantize1</text>
<text text-anchor="middle" x="534" y="-1141.8" font-family="Times New Roman,serif" font-size="14.00">name: FakeQuantize_220</text>
<text text-anchor="middle" x="534" y="-1126.8" font-family="Times New Roman,serif" font-size="14.00">type_name: FakeQuantize</text>
<text text-anchor="middle" x="534" y="-1111.8" font-family="Times New Roman,serif" font-size="14.00">rt info: &#160;QUANTIZATION_ALIGNMENT(2568398406816: low: &#45;1.28, high: 1.27, hasToBeAligned: true)</text>
<text text-anchor="middle" x="534" y="-1096.8" font-family="Times New Roman,serif" font-size="14.00">in0: {f32}[1,3,9,9]: Parameter_79: out0</text>
<text text-anchor="middle" x="534" y="-1081.8" font-family="Times New Roman,serif" font-size="14.00">in1: {f32}[]: Constant_80: out0</text>
<text text-anchor="middle" x="534" y="-1066.8" font-family="Times New Roman,serif" font-size="14.00">in2: {f32}[]: Constant_81: out0</text>
<text text-anchor="middle" x="534" y="-1051.8" font-family="Times New Roman,serif" font-size="14.00">in3: {f32}[]: Constant_218: out0</text>
<text text-anchor="middle" x="534" y="-1036.8" font-family="Times New Roman,serif" font-size="14.00">in4: {f32}[]: Constant_219: out0</text>
<text text-anchor="middle" x="534" y="-1021.8" font-family="Times New Roman,serif" font-size="14.00">out0: {u8}[1,3,9,9]</text>
</g>
<!-- FakeQuantize_220&#45;&gt;Concat_261 -->
<g id="edge27" class="edge">
<title>FakeQuantize_220&#45;&gt;Concat_261</title>
<path fill="none" stroke="black" d="M740.79,-1013.87C781.95,-998.31 825.07,-982.02 865.86,-966.61"/>
<polygon fill="black" stroke="black" points="867.24,-969.83 875.35,-963.02 864.76,-963.28 867.24,-969.83"/>
<text text-anchor="middle" x="835" y="-984.8" font-family="Times New Roman,serif" font-size="14.00"> 0 &#45;&gt; 0 </text>
</g>
<!-- CLONE_15 -->
<g id="node30" class="node">
<title>CLONE_15</title>
<polygon fill="none" stroke="blue" stroke-dasharray="5,2" points="140,-1291 0,-1291 0,-1223 140,-1223 140,-1291"/>
<text text-anchor="middle" x="70" y="-1275.8" font-family="Times New Roman,serif" font-size="14.00">friendly_name: input1</text>
<text text-anchor="middle" x="70" y="-1260.8" font-family="Times New Roman,serif" font-size="14.00">name: Parameter_79</text>
<text text-anchor="middle" x="70" y="-1245.8" font-family="Times New Roman,serif" font-size="14.00">type_name: Parameter</text>
<text text-anchor="middle" x="70" y="-1230.8" font-family="Times New Roman,serif" font-size="14.00">{f32}[1,3,9,9]</text>
</g>
<!-- CLONE_15&#45;&gt;FakeQuantize_220 -->
<g id="edge29" class="edge">
<title>CLONE_15&#45;&gt;FakeQuantize_220</title>
<path fill="none" stroke="black" d="M140.11,-1226.41C143.1,-1225.24 146.08,-1224.1 149,-1223 191.97,-1206.85 237.99,-1190.57 282.73,-1175.27"/>
<polygon fill="black" stroke="black" points="283.92,-1178.56 292.25,-1172.02 281.66,-1171.94 283.92,-1178.56"/>
<text text-anchor="middle" x="254" y="-1193.8" font-family="Times New Roman,serif" font-size="14.00"> 0 &#45;&gt; 0 </text>
</g>
<!-- CLONE_16 -->
<g id="node31" class="node">
<title>CLONE_16</title>
<polygon fill="none" stroke="black" stroke-dasharray="5,2" points="331.5,-1291 158.5,-1291 158.5,-1223 331.5,-1223 331.5,-1291"/>
<text text-anchor="middle" x="245" y="-1275.8" font-family="Times New Roman,serif" font-size="14.00">friendly_name: Constant_80</text>
<text text-anchor="middle" x="245" y="-1260.8" font-family="Times New Roman,serif" font-size="14.00">type_name: Constant</text>
<text text-anchor="middle" x="245" y="-1245.8" font-family="Times New Roman,serif" font-size="14.00">{f32}[]</text>
<text text-anchor="middle" x="245" y="-1230.8" font-family="Times New Roman,serif" font-size="14.00">value: [&#45;1.28]</text>
</g>
<!-- CLONE_16&#45;&gt;FakeQuantize_220 -->
<g id="edge30" class="edge">
<title>CLONE_16&#45;&gt;FakeQuantize_220</title>
<path fill="none" stroke="black" d="M304.18,-1222.83C328.05,-1209.45 356.76,-1193.35 385.67,-1177.14"/>
<polygon fill="black" stroke="black" points="387.64,-1180.06 394.65,-1172.11 384.21,-1173.95 387.64,-1180.06"/>
<text text-anchor="middle" x="377" y="-1193.8" font-family="Times New Roman,serif" font-size="14.00"> 0 &#45;&gt; 1 </text>
</g>
<!-- CLONE_17 -->
<g id="node32" class="node">
<title>CLONE_17</title>
<polygon fill="none" stroke="black" stroke-dasharray="5,2" points="522.5,-1291 349.5,-1291 349.5,-1223 522.5,-1223 522.5,-1291"/>
<text text-anchor="middle" x="436" y="-1275.8" font-family="Times New Roman,serif" font-size="14.00">friendly_name: Constant_81</text>
<text text-anchor="middle" x="436" y="-1260.8" font-family="Times New Roman,serif" font-size="14.00">type_name: Constant</text>
<text text-anchor="middle" x="436" y="-1245.8" font-family="Times New Roman,serif" font-size="14.00">{f32}[]</text>
<text text-anchor="middle" x="436" y="-1230.8" font-family="Times New Roman,serif" font-size="14.00">value: [1.27]</text>
</g>
<!-- CLONE_17&#45;&gt;FakeQuantize_220 -->
<g id="edge31" class="edge">
<title>CLONE_17&#45;&gt;FakeQuantize_220</title>
<path fill="none" stroke="black" d="M456.07,-1222.83C463.51,-1210.52 472.34,-1195.92 481.34,-1181.05"/>
<polygon fill="black" stroke="black" points="484.46,-1182.65 486.64,-1172.28 478.47,-1179.03 484.46,-1182.65"/>
<text text-anchor="middle" x="495" y="-1193.8" font-family="Times New Roman,serif" font-size="14.00"> 0 &#45;&gt; 2 </text>
</g>
<!-- CLONE_18 -->
<g id="node33" class="node">
<title>CLONE_18</title>
<polygon fill="none" stroke="black" stroke-dasharray="5,2" points="721,-1291 541,-1291 541,-1223 721,-1223 721,-1291"/>
<text text-anchor="middle" x="631" y="-1275.8" font-family="Times New Roman,serif" font-size="14.00">friendly_name: Constant_218</text>
<text text-anchor="middle" x="631" y="-1260.8" font-family="Times New Roman,serif" font-size="14.00">type_name: Constant</text>
<text text-anchor="middle" x="631" y="-1245.8" font-family="Times New Roman,serif" font-size="14.00">{f32}[]</text>
<text text-anchor="middle" x="631" y="-1230.8" font-family="Times New Roman,serif" font-size="14.00">value: [0]</text>
</g>
<!-- CLONE_18&#45;&gt;FakeQuantize_220 -->
<g id="edge32" class="edge">
<title>CLONE_18&#45;&gt;FakeQuantize_220</title>
<path fill="none" stroke="black" d="M611.14,-1222.83C603.77,-1210.52 595.03,-1195.92 586.12,-1181.05"/>
<polygon fill="black" stroke="black" points="589.01,-1179.06 580.87,-1172.28 583.01,-1182.66 589.01,-1179.06"/>
<text text-anchor="middle" x="621" y="-1193.8" font-family="Times New Roman,serif" font-size="14.00"> 0 &#45;&gt; 3 </text>
</g>
<!-- CLONE_19 -->
<g id="node34" class="node">
<title>CLONE_19</title>
<polygon fill="none" stroke="black" stroke-dasharray="5,2" points="919,-1291 739,-1291 739,-1223 919,-1223 919,-1291"/>
<text text-anchor="middle" x="829" y="-1275.8" font-family="Times New Roman,serif" font-size="14.00">friendly_name: Constant_219</text>
<text text-anchor="middle" x="829" y="-1260.8" font-family="Times New Roman,serif" font-size="14.00">type_name: Constant</text>
<text text-anchor="middle" x="829" y="-1245.8" font-family="Times New Roman,serif" font-size="14.00">{f32}[]</text>
<text text-anchor="middle" x="829" y="-1230.8" font-family="Times New Roman,serif" font-size="14.00">value: [255]</text>
</g>
<!-- CLONE_19&#45;&gt;FakeQuantize_220 -->
<g id="edge33" class="edge">
<title>CLONE_19&#45;&gt;FakeQuantize_220</title>
<path fill="none" stroke="black" d="M768.59,-1222.83C744.12,-1209.39 714.67,-1193.21 685.02,-1176.93"/>
<polygon fill="black" stroke="black" points="686.69,-1173.86 676.24,-1172.11 683.32,-1179.99 686.69,-1173.86"/>
<text text-anchor="middle" x="755" y="-1193.8" font-family="Times New Roman,serif" font-size="14.00"> 0 &#45;&gt; 4 </text>
</g>
</g>
</svg>
