<svg width="2993" height="1847" xmlns="http://www.w3.org/2000/svg" xmlns:xlink="http://www.w3.org/1999/xlink" overflow="hidden"><defs><clipPath id="clip0"><rect x="325" y="334" width="2993" height="1847"/></clipPath><linearGradient x1="1606" y1="1262.5" x2="1606" y2="1073.5" gradientUnits="userSpaceOnUse" spreadMethod="reflect" id="fill1"><stop offset="0" stop-color="#D7F3A2" stop-opacity="1"/><stop offset="0.63" stop-color="#B9D6E5" stop-opacity="1"/><stop offset="1" stop-color="#B9D6E5" stop-opacity="1"/></linearGradient><linearGradient x1="1606" y1="1545.5" x2="1606" y2="1406.5" gradientUnits="userSpaceOnUse" spreadMethod="reflect" id="fill2"><stop offset="0" stop-color="#B9D6E5" stop-opacity="1"/><stop offset="0.6" stop-color="#D7F3A2" stop-opacity="1"/><stop offset="1" stop-color="#D7F3A2" stop-opacity="1"/></linearGradient></defs><g clip-path="url(#clip0)" transform="translate(-325 -334)"><rect x="342.5" y="1324.5" width="2973" height="703" stroke="#E9E9E9" stroke-width="4.58333" stroke-linecap="butt" stroke-linejoin="miter" stroke-miterlimit="4" stroke-opacity="1" fill="#E9E9E9" fill-opacity="1"/><text fill="#000000" fill-opacity="1" font-family="Intel Clear,Intel Clear_MSFontService,sans-serif" font-style="normal" font-variant="normal" font-weight="400" font-stretch="normal" font-size="55" text-anchor="start" direction="ltr" writing-mode="lr-tb" unicode-bidi="normal" text-decoration="none" transform="matrix(1 0 0 1 360.556 1397)">Dequantization</text><rect x="342.5" y="515.5" width="2973" height="770" stroke="#E9E9E9" stroke-width="4.58333" stroke-linecap="butt" stroke-linejoin="miter" stroke-miterlimit="4" stroke-opacity="1" fill="#E9E9E9" fill-opacity="1"/><text fill="#000000" fill-opacity="1" font-family="Intel Clear,Intel Clear_MSFontService,sans-serif" font-style="normal" font-variant="normal" font-weight="400" font-stretch="normal" font-size="55" text-anchor="start" direction="ltr" writing-mode="lr-tb" unicode-bidi="normal" text-decoration="none" transform="matrix(1 0 0 1 360.556 588)">Q<tspan fill="#000000" fill-opacity="1" font-family="Intel Clear,Intel Clear_MSFontService,sans-serif" font-style="normal" font-variant="normal" font-weight="400" font-stretch="normal" font-size="55" text-anchor="start" direction="ltr" writing-mode="lr-tb" unicode-bidi="normal" text-decoration="none" x="41.8229" y="0">uantization</tspan></text><path d="M1361.5 1105C1361.5 1087.6 1375.6 1073.5 1393 1073.5L1819 1073.5C1836.4 1073.5 1850.5 1087.6 1850.5 1105L1850.5 1231C1850.5 1248.4 1836.4 1262.5 1819 1262.5L1393 1262.5C1375.6 1262.5 1361.5 1248.4 1361.5 1231Z" stroke="#0068B5" stroke-width="4.58333" stroke-linecap="butt" stroke-linejoin="miter" stroke-miterlimit="4" stroke-opacity="1" fill="url(#fill1)" fill-rule="evenodd"/><text fill="#000000" fill-opacity="1" font-family="Intel Clear,Intel Clear_MSFontService,sans-serif" font-style="normal" font-variant="normal" font-weight="400" font-stretch="normal" font-size="37" text-anchor="start" direction="ltr" writing-mode="lr-tb" unicode-bidi="normal" text-decoration="none" transform="matrix(1 0 0 1 1492.17 1135)">FakeQuantize<tspan fill="#000000" fill-opacity="1" font-family="Intel Clear,Intel Clear_MSFontService,sans-serif" font-style="normal" font-variant="normal" font-weight="400" font-stretch="normal" font-size="37" text-anchor="start" direction="ltr" writing-mode="lr-tb" unicode-bidi="normal" text-decoration="none" x="24.3375" y="44">levels: 256</tspan><tspan fill="#000000" fill-opacity="1" font-family="Intel Clear,Intel Clear_MSFontService,sans-serif" font-style="normal" font-variant="normal" font-weight="400" font-stretch="normal" font-size="37" text-anchor="start" direction="ltr" writing-mode="lr-tb" unicode-bidi="normal" text-decoration="none" x="-53.0062" y="88">{u8} {1, 3, 299, 299}</tspan></text><path d="M1361.5 362.667C1361.5 349.872 1371.87 339.5 1384.67 339.5L1827.33 339.5C1840.13 339.5 1850.5 349.872 1850.5 362.667L1850.5 455.333C1850.5 468.128 1840.13 478.5 1827.33 478.5L1384.67 478.5C1371.87 478.5 1361.5 468.128 1361.5 455.333Z" stroke="#0068B5" stroke-width="4.58333" stroke-linecap="butt" stroke-linejoin="miter" stroke-miterlimit="4" stroke-opacity="1" fill="#B9D6E5" fill-rule="evenodd" fill-opacity="1"/><text fill="#000000" fill-opacity="1" font-family="Intel Clear,Intel Clear_MSFontService,sans-serif" font-style="normal" font-variant="normal" font-weight="400" font-stretch="normal" font-size="37" text-anchor="start" direction="ltr" writing-mode="lr-tb" unicode-bidi="normal" text-decoration="none" transform="matrix(1 0 0 1 1519.94 399)">Parameter<tspan fill="#000000" fill-opacity="1" font-family="Intel Clear,Intel Clear_MSFontService,sans-serif" font-style="normal" font-variant="normal" font-weight="400" font-stretch="normal" font-size="37" text-anchor="start" direction="ltr" writing-mode="lr-tb" unicode-bidi="normal" text-decoration="none" x="-87.0834" y="44">{f32} {1, 3, 299, 299}</tspan></text><path d="M1611.08 478.5 1611.08 1055.07 1601.92 1055.07 1601.92 478.5ZM1606.5 1055.07 1620.25 1045.9 1606.5 1073.4 1592.75 1045.9Z" fill="#808080" fill-rule="nonzero" fill-opacity="1"/><path d="M3.45279-3.01416 287.317 322.159 280.411 328.188-3.45279 3.01416ZM283.864 325.174 288.194 309.226 295.921 338.985 267.478 327.311Z" fill="#808080" fill-rule="nonzero" fill-opacity="1" transform="matrix(-1 0 0 1 1902.42 734.5)"/><path d="M2.04791-4.10037 664.366 326.692 660.27 334.893-2.04791 4.10037ZM662.319 330.793 660.262 314.396 678.721 338.985 647.975 338.998Z" fill="#808080" fill-rule="nonzero" fill-opacity="1" transform="matrix(-1 0 0 1 2285.22 734.5)"/><path d="M1.39427-4.36611 1045.45 329.042 1042.66 337.774-1.39427 4.36611ZM1044.06 333.408 1039.51 317.521 1061.52 338.985 1031.14 343.718Z" fill="#808080" fill-rule="nonzero" fill-opacity="1" transform="matrix(-1 0 0 1 2668.02 734.5)"/><path d="M1.04726-4.46208 1427.53 330.335 1425.43 339.26-1.04726 4.46208ZM1426.47 334.796 1420.69 319.315 1444.32 338.985 1414.41 346.087Z" fill="#808080" fill-rule="nonzero" fill-opacity="1" transform="matrix(-1 0 0 1 3050.82 734.5)"/><path d="M1361.5 1880.67C1361.5 1867.87 1371.87 1857.5 1384.67 1857.5L1827.33 1857.5C1840.13 1857.5 1850.5 1867.87 1850.5 1880.67L1850.5 1973.33C1850.5 1986.13 1840.13 1996.5 1827.33 1996.5L1384.67 1996.5C1371.87 1996.5 1361.5 1986.13 1361.5 1973.33Z" stroke="#0068B5" stroke-width="4.58333" stroke-linecap="butt" stroke-linejoin="miter" stroke-miterlimit="4" stroke-opacity="1" fill="#B9D6E5" fill-rule="evenodd" fill-opacity="1"/><text fill="#000000" fill-opacity="1" font-family="Intel Clear,Intel Clear_MSFontService,sans-serif" font-style="normal" font-variant="normal" font-weight="400" font-stretch="normal" font-size="37" text-anchor="start" direction="ltr" writing-mode="lr-tb" unicode-bidi="normal" text-decoration="none" transform="matrix(1 0 0 1 1538 1916)">Multiply<tspan fill="#000000" fill-opacity="1" font-family="Intel Clear,Intel Clear_MSFontService,sans-serif" font-style="normal" font-variant="normal" font-weight="400" font-stretch="normal" font-size="37" text-anchor="start" direction="ltr" writing-mode="lr-tb" unicode-bidi="normal" text-decoration="none" x="-105.142" y="44">{f32} {1, 3, 299, 299}</tspan></text><path d="M1611.08 1996.5 1611.08 2067.91 1601.92 2067.91 1601.92 1996.5ZM1606.5 2067.91 1620.25 2058.75 1606.5 2086.25 1592.75 2058.75Z" fill="#808080" fill-rule="nonzero" fill-opacity="1"/><path d="M0.641637-4.5382 640.417 85.917 639.134 94.9934-0.641637 4.5382ZM639.776 90.4553 632.624 75.5574 657.928 93.0218 628.774 102.787Z" fill="#808080" fill-rule="nonzero" fill-opacity="1" transform="matrix(-1 0 0 1 2264.43 1764.5)"/><path d="M1721.5 577.834C1721.5 560.529 1735.53 546.5 1752.83 546.5L2051.17 546.5C2068.47 546.5 2082.5 560.529 2082.5 577.834L2082.5 703.166C2082.5 720.471 2068.47 734.5 2051.17 734.5L1752.83 734.5C1735.53 734.5 1721.5 720.471 1721.5 703.166Z" stroke="#0068B5" stroke-width="4.58333" stroke-linecap="butt" stroke-linejoin="miter" stroke-miterlimit="4" stroke-opacity="1" fill="#B9D6E5" fill-rule="evenodd" fill-opacity="1"/><text fill="#000000" fill-opacity="1" font-family="Intel Clear,Intel Clear_MSFontService,sans-serif" font-style="normal" font-variant="normal" font-weight="400" font-stretch="normal" font-size="37" text-anchor="start" direction="ltr" writing-mode="lr-tb" unicode-bidi="normal" text-decoration="none" transform="matrix(1 0 0 1 1826.75 608)">Constant<tspan fill="#000000" fill-opacity="1" font-family="Intel Clear,Intel Clear_MSFontService,sans-serif" font-style="normal" font-variant="normal" font-weight="400" font-stretch="normal" font-size="37" text-anchor="start" direction="ltr" writing-mode="lr-tb" unicode-bidi="normal" text-decoration="none" x="-54.4271" y="44">{f32} {1, 1, 1, 1}</tspan><tspan fill="#000000" fill-opacity="1" font-family="Intel Clear,Intel Clear_MSFontService,sans-serif" font-style="normal" font-variant="normal" font-weight="400" font-stretch="normal" font-size="37" text-anchor="start" direction="ltr" writing-mode="lr-tb" unicode-bidi="normal" text-decoration="none" x="-34.65" y="88">v</tspan><tspan fill="#000000" fill-opacity="1" font-family="Intel Clear,Intel Clear_MSFontService,sans-serif" font-style="normal" font-variant="normal" font-weight="400" font-stretch="normal" font-size="37" text-anchor="start" direction="ltr" writing-mode="lr-tb" unicode-bidi="normal" text-decoration="none" x="-15.7438" y="88">alue:</tspan><tspan fill="#000000" fill-opacity="1" font-family="Intel Clear,Intel Clear_MSFontService,sans-serif" font-style="normal" font-variant="normal" font-weight="400" font-stretch="normal" font-size="37" text-anchor="start" direction="ltr" writing-mode="lr-tb" unicode-bidi="normal" text-decoration="none" x="71.3395" y="88">[</tspan><tspan fill="#000000" fill-opacity="1" font-family="Intel Clear,Intel Clear_MSFontService,sans-serif" font-style="normal" font-variant="normal" font-weight="400" font-stretch="normal" font-size="37" text-anchor="start" direction="ltr" writing-mode="lr-tb" unicode-bidi="normal" text-decoration="none" x="83.9437" y="88">-</tspan><tspan fill="#000000" fill-opacity="1" font-family="Intel Clear,Intel Clear_MSFontService,sans-serif" font-style="normal" font-variant="normal" font-weight="400" font-stretch="normal" font-size="37" text-anchor="start" direction="ltr" writing-mode="lr-tb" unicode-bidi="normal" text-decoration="none" x="98.2666" y="88">12.8]</tspan></text><path d="M2104.5 577.834C2104.5 560.529 2118.53 546.5 2135.83 546.5L2434.17 546.5C2451.47 546.5 2465.5 560.529 2465.5 577.834L2465.5 703.166C2465.5 720.471 2451.47 734.5 2434.17 734.5L2135.83 734.5C2118.53 734.5 2104.5 720.471 2104.5 703.166Z" stroke="#0068B5" stroke-width="4.58333" stroke-linecap="butt" stroke-linejoin="miter" stroke-miterlimit="4" stroke-opacity="1" fill="#B9D6E5" fill-rule="evenodd" fill-opacity="1"/><text fill="#000000" fill-opacity="1" font-family="Intel Clear,Intel Clear_MSFontService,sans-serif" font-style="normal" font-variant="normal" font-weight="400" font-stretch="normal" font-size="37" text-anchor="start" direction="ltr" writing-mode="lr-tb" unicode-bidi="normal" text-decoration="none" transform="matrix(1 0 0 1 2209.55 608)">Constant<tspan fill="#000000" fill-opacity="1" font-family="Intel Clear,Intel Clear_MSFontService,sans-serif" font-style="normal" font-variant="normal" font-weight="400" font-stretch="normal" font-size="37" text-anchor="start" direction="ltr" writing-mode="lr-tb" unicode-bidi="normal" text-decoration="none" x="-54.427" y="44">{f32} {1, 1, 1, 1}</tspan><tspan fill="#000000" fill-opacity="1" font-family="Intel Clear,Intel Clear_MSFontService,sans-serif" font-style="normal" font-variant="normal" font-weight="400" font-stretch="normal" font-size="37" text-anchor="start" direction="ltr" writing-mode="lr-tb" unicode-bidi="normal" text-decoration="none" x="-27.5" y="88">v</tspan><tspan fill="#000000" fill-opacity="1" font-family="Intel Clear,Intel Clear_MSFontService,sans-serif" font-style="normal" font-variant="normal" font-weight="400" font-stretch="normal" font-size="37" text-anchor="start" direction="ltr" writing-mode="lr-tb" unicode-bidi="normal" text-decoration="none" x="-8.59375" y="88">alue:</tspan><tspan fill="#000000" fill-opacity="1" font-family="Intel Clear,Intel Clear_MSFontService,sans-serif" font-style="normal" font-variant="normal" font-weight="400" font-stretch="normal" font-size="37" text-anchor="start" direction="ltr" writing-mode="lr-tb" unicode-bidi="normal" text-decoration="none" x="78.4898" y="88">[12.7]</tspan></text><path d="M2487.5 577.834C2487.5 560.529 2501.53 546.5 2518.83 546.5L2817.17 546.5C2834.47 546.5 2848.5 560.529 2848.5 577.834L2848.5 703.166C2848.5 720.472 2834.47 734.5 2817.17 734.5L2518.83 734.5C2501.53 734.5 2487.5 720.472 2487.5 703.166Z" stroke="#0068B5" stroke-width="4.58333" stroke-linecap="butt" stroke-linejoin="miter" stroke-miterlimit="4" stroke-opacity="1" fill="#B9D6E5" fill-rule="evenodd" fill-opacity="1"/><text fill="#000000" fill-opacity="1" font-family="Intel Clear,Intel Clear_MSFontService,sans-serif" font-style="normal" font-variant="normal" font-weight="400" font-stretch="normal" font-size="37" text-anchor="start" direction="ltr" writing-mode="lr-tb" unicode-bidi="normal" text-decoration="none" transform="matrix(1 0 0 1 2592.35 608)">Constant<tspan fill="#000000" fill-opacity="1" font-family="Intel Clear,Intel Clear_MSFontService,sans-serif" font-style="normal" font-variant="normal" font-weight="400" font-stretch="normal" font-size="37" text-anchor="start" direction="ltr" writing-mode="lr-tb" unicode-bidi="normal" text-decoration="none" x="-54.427" y="44">{f32} {1, 1, 1, 1}</tspan><tspan fill="#000000" fill-opacity="1" font-family="Intel Clear,Intel Clear_MSFontService,sans-serif" font-style="normal" font-variant="normal" font-weight="400" font-stretch="normal" font-size="37" text-anchor="start" direction="ltr" writing-mode="lr-tb" unicode-bidi="normal" text-decoration="none" x="-1.71875" y="88">v</tspan><tspan fill="#000000" fill-opacity="1" font-family="Intel Clear,Intel Clear_MSFontService,sans-serif" font-style="normal" font-variant="normal" font-weight="400" font-stretch="normal" font-size="37" text-anchor="start" direction="ltr" writing-mode="lr-tb" unicode-bidi="normal" text-decoration="none" x="17.1875" y="88">alue:</tspan><tspan fill="#000000" fill-opacity="1" font-family="Intel Clear,Intel Clear_MSFontService,sans-serif" font-style="normal" font-variant="normal" font-weight="400" font-stretch="normal" font-size="37" text-anchor="start" direction="ltr" writing-mode="lr-tb" unicode-bidi="normal" text-decoration="none" x="104.271" y="88">[0</tspan>]</text><path d="M2869.5 577.834C2869.5 560.529 2883.53 546.5 2900.83 546.5L3200.17 546.5C3217.47 546.5 3231.5 560.529 3231.5 577.834L3231.5 703.166C3231.5 720.471 3217.47 734.5 3200.17 734.5L2900.83 734.5C2883.53 734.5 2869.5 720.471 2869.5 703.166Z" stroke="#0068B5" stroke-width="4.58333" stroke-linecap="butt" stroke-linejoin="miter" stroke-miterlimit="4" stroke-opacity="1" fill="#B9D6E5" fill-rule="evenodd" fill-opacity="1"/><text fill="#000000" fill-opacity="1" font-family="Intel Clear,Intel Clear_MSFontService,sans-serif" font-style="normal" font-variant="normal" font-weight="400" font-stretch="normal" font-size="37" text-anchor="start" direction="ltr" writing-mode="lr-tb" unicode-bidi="normal" text-decoration="none" transform="matrix(1 0 0 1 2975.15 608)">Constant<tspan fill="#000000" fill-opacity="1" font-family="Intel Clear,Intel Clear_MSFontService,sans-serif" font-style="normal" font-variant="normal" font-weight="400" font-stretch="normal" font-size="37" text-anchor="start" direction="ltr" writing-mode="lr-tb" unicode-bidi="normal" text-decoration="none" x="-54.427" y="44">{f32} {1, 1, 1, 1}</tspan><tspan fill="#000000" fill-opacity="1" font-family="Intel Clear,Intel Clear_MSFontService,sans-serif" font-style="normal" font-variant="normal" font-weight="400" font-stretch="normal" font-size="37" text-anchor="start" direction="ltr" writing-mode="lr-tb" unicode-bidi="normal" text-decoration="none" x="-23.4895" y="88">v</tspan><tspan fill="#000000" fill-opacity="1" font-family="Intel Clear,Intel Clear_MSFontService,sans-serif" font-style="normal" font-variant="normal" font-weight="400" font-stretch="normal" font-size="37" text-anchor="start" direction="ltr" writing-mode="lr-tb" unicode-bidi="normal" text-decoration="none" x="-4.58325" y="88">alue:</tspan><tspan fill="#000000" fill-opacity="1" font-family="Intel Clear,Intel Clear_MSFontService,sans-serif" font-style="normal" font-variant="normal" font-weight="400" font-stretch="normal" font-size="37" text-anchor="start" direction="ltr" writing-mode="lr-tb" unicode-bidi="normal" text-decoration="none" x="82.5" y="88">[255]</tspan></text><path d="M2019.5 1647.83C2019.5 1634.95 2029.95 1624.5 2042.83 1624.5L2485.17 1624.5C2498.05 1624.5 2508.5 1634.95 2508.5 1647.83L2508.5 1741.17C2508.5 1754.05 2498.05 1764.5 2485.17 1764.5L2042.83 1764.5C2029.95 1764.5 2019.5 1754.05 2019.5 1741.17Z" stroke="#0068B5" stroke-width="4.58333" stroke-linecap="butt" stroke-linejoin="miter" stroke-miterlimit="4" stroke-opacity="1" fill="#B9D6E5" fill-rule="evenodd" fill-opacity="1"/><text fill="#000000" fill-opacity="1" font-family="Intel Clear,Intel Clear_MSFontService,sans-serif" font-style="normal" font-variant="normal" font-weight="400" font-stretch="normal" font-size="37" text-anchor="start" direction="ltr" writing-mode="lr-tb" unicode-bidi="normal" text-decoration="none" transform="matrix(1 0 0 1 2188.75 1684)">Constant<tspan fill="#000000" fill-opacity="1" font-family="Intel Clear,Intel Clear_MSFontService,sans-serif" font-style="normal" font-variant="normal" font-weight="400" font-stretch="normal" font-size="37" text-anchor="start" direction="ltr" writing-mode="lr-tb" unicode-bidi="normal" text-decoration="none" x="14.896" y="44">{f32} {}</tspan></text><path d="M1453.5 2101.5C1453.5 2093.22 1460.22 2086.5 1468.5 2086.5L1743.5 2086.5C1751.78 2086.5 1758.5 2093.22 1758.5 2101.5L1758.5 2161.5C1758.5 2169.78 1751.78 2176.5 1743.5 2176.5L1468.5 2176.5C1460.22 2176.5 1453.5 2169.78 1453.5 2161.5Z" stroke="#0068B5" stroke-width="4.58333" stroke-linecap="butt" stroke-linejoin="miter" stroke-miterlimit="4" stroke-opacity="1" fill="#B9D6E5" fill-rule="evenodd" fill-opacity="1"/><text fill="#000000" fill-opacity="1" font-family="Intel Clear,Intel Clear_MSFontService,sans-serif" font-style="normal" font-variant="normal" font-weight="400" font-stretch="normal" font-size="37" text-anchor="start" direction="ltr" writing-mode="lr-tb" unicode-bidi="normal" text-decoration="none" transform="matrix(1 0 0 1 1554.03 2143)">Result</text><path d="M1361.5 1429.67C1361.5 1416.87 1371.87 1406.5 1384.67 1406.5L1827.33 1406.5C1840.13 1406.5 1850.5 1416.87 1850.5 1429.67L1850.5 1522.33C1850.5 1535.13 1840.13 1545.5 1827.33 1545.5L1384.67 1545.5C1371.87 1545.5 1361.5 1535.13 1361.5 1522.33Z" stroke="#0068B5" stroke-width="4.58333" stroke-linecap="butt" stroke-linejoin="miter" stroke-miterlimit="4" stroke-opacity="1" fill="url(#fill2)" fill-rule="evenodd"/><text fill="#000000" fill-opacity="1" font-family="Intel Clear,Intel Clear_MSFontService,sans-serif" font-style="normal" font-variant="normal" font-weight="400" font-stretch="normal" font-size="37" text-anchor="start" direction="ltr" writing-mode="lr-tb" unicode-bidi="normal" text-decoration="none" transform="matrix(1 0 0 1 1539.99 1466)">Convert<tspan fill="#000000" fill-opacity="1" font-family="Intel Clear,Intel Clear_MSFontService,sans-serif" font-style="normal" font-variant="normal" font-weight="400" font-stretch="normal" font-size="37" text-anchor="start" direction="ltr" writing-mode="lr-tb" unicode-bidi="normal" text-decoration="none" x="-107.136" y="44">{f32} {1, 3, 299, 299}</tspan></text><path d="M4.58333-4.03115e-05 4.58389 63.7321-4.58277 63.7322-4.58333 4.03115e-05ZM0.000560539 63.7322 13.7505 54.5654 0.000721785 82.0655-13.7495 54.5656Z" fill="#808080" fill-rule="nonzero" fill-opacity="1" transform="matrix(-1 0 0 1 1606.5 1545.5)"/><path d="M1611.08 1262.5 1611.08 1388.76 1601.92 1388.76 1601.92 1262.5ZM1606.5 1388.76 1620.25 1379.59 1606.5 1407.09 1592.75 1379.59Z" fill="#808080" fill-rule="nonzero" fill-opacity="1"/><path d="M1361.5 1651.67C1361.5 1638.87 1371.87 1628.5 1384.67 1628.5L1827.33 1628.5C1840.13 1628.5 1850.5 1638.87 1850.5 1651.67L1850.5 1744.33C1850.5 1757.13 1840.13 1767.5 1827.33 1767.5L1384.67 1767.5C1371.87 1767.5 1361.5 1757.13 1361.5 1744.33Z" stroke="#0068B5" stroke-width="4.58333" stroke-linecap="butt" stroke-linejoin="miter" stroke-miterlimit="4" stroke-opacity="1" fill="#B9D6E5" fill-rule="evenodd" fill-opacity="1"/><text fill="#000000" fill-opacity="1" font-family="Intel Clear,Intel Clear_MSFontService,sans-serif" font-style="normal" font-variant="normal" font-weight="400" font-stretch="normal" font-size="37" text-anchor="start" direction="ltr" writing-mode="lr-tb" unicode-bidi="normal" text-decoration="none" transform="matrix(1 0 0 1 1535.13 1687)">Subtrac<tspan fill="#000000" fill-opacity="1" font-family="Intel Clear,Intel Clear_MSFontService,sans-serif" font-style="normal" font-variant="normal" font-weight="400" font-stretch="normal" font-size="37" text-anchor="start" direction="ltr" writing-mode="lr-tb" unicode-bidi="normal" text-decoration="none" x="128.333" y="0">t</tspan><tspan fill="#000000" fill-opacity="1" font-family="Intel Clear,Intel Clear_MSFontService,sans-serif" font-style="normal" font-variant="normal" font-weight="400" font-stretch="normal" font-size="37" text-anchor="start" direction="ltr" writing-mode="lr-tb" unicode-bidi="normal" text-decoration="none" x="-102.277" y="44">{f32} {1, 3, 299, 299}</tspan></text><path d="M1611.08 1767.5 1611.08 1838.91 1601.92 1838.91 1601.92 1767.5ZM1606.5 1838.91 1620.25 1829.75 1606.5 1857.25 1592.75 1829.75Z" fill="#808080" fill-rule="nonzero" fill-opacity="1"/><path d="M0.733343-4.52428 640.563 99.186 639.096 108.235-0.733343 4.52428ZM639.83 103.71 632.982 88.6708 657.927 106.644 628.582 115.816Z" fill="#808080" fill-rule="nonzero" fill-opacity="1" transform="matrix(-1 0 0 1 2264.43 1521.5)"/><path d="M2019.5 1405.67C2019.5 1392.87 2029.87 1382.5 2042.67 1382.5L2485.33 1382.5C2498.13 1382.5 2508.5 1392.87 2508.5 1405.67L2508.5 1498.33C2508.5 1511.13 2498.13 1521.5 2485.33 1521.5L2042.67 1521.5C2029.87 1521.5 2019.5 1511.13 2019.5 1498.33Z" stroke="#515A3D" stroke-width="4.58333" stroke-linecap="butt" stroke-linejoin="miter" stroke-miterlimit="4" stroke-opacity="1" fill="#B9D6E5" fill-rule="evenodd" fill-opacity="1"/><text fill="#000000" fill-opacity="1" font-family="Intel Clear,Intel Clear_MSFontService,sans-serif" font-style="normal" font-variant="normal" font-weight="400" font-stretch="normal" font-size="37" text-anchor="start" direction="ltr" writing-mode="lr-tb" unicode-bidi="normal" text-decoration="none" transform="matrix(1 0 0 1 2188.75 1441)">Constant<tspan fill="#000000" fill-opacity="1" font-family="Intel Clear,Intel Clear_MSFontService,sans-serif" font-style="normal" font-variant="normal" font-weight="400" font-stretch="normal" font-size="37" text-anchor="start" direction="ltr" writing-mode="lr-tb" unicode-bidi="normal" text-decoration="none" x="14.8958" y="44">{f32} {}</tspan></text></g></svg>