<svg width="700" height="120" viewBox="0 0 700 120" fill="none" xmlns="http://www.w3.org/2000/svg">
<rect x="20" y="20" width="164" height="80" fill="#00285A"/>
<path d="M35.7028 54H33.0748V41.58H35.7028V54ZM46.5147 54H43.9587V48.294C43.9587 47.238 43.5327 46.71 42.6807 46.71C42.1407 46.71 41.7147 46.902 41.4027 47.286C41.1027 47.658 40.9527 48.204 40.9527 48.924V54H38.3967V44.91H39.8547C40.4667 44.91 40.7727 45.174 40.7727 45.702V46.332C41.0127 45.792 41.3787 45.384 41.8707 45.108C42.3747 44.82 42.9507 44.676 43.5987 44.676C44.2467 44.676 44.7867 44.82 45.2187 45.108C45.6627 45.384 45.9867 45.792 46.1907 46.332C46.4547 45.804 46.8387 45.396 47.3427 45.108C47.8467 44.82 48.4407 44.676 49.1247 44.676C50.0727 44.676 50.7987 44.97 51.3027 45.558C51.8187 46.134 52.0767 46.968 52.0767 48.06V54H49.5207V48.294C49.5207 47.238 49.0947 46.71 48.2427 46.71C47.7027 46.71 47.2767 46.902 46.9647 47.286C46.6647 47.658 46.5147 48.204 46.5147 48.924V54ZM56.9626 46.458C57.2386 45.846 57.6646 45.396 58.2406 45.108C58.8166 44.82 59.4286 44.676 60.0766 44.676C61.1686 44.676 62.0506 45.066 62.7226 45.846C63.3946 46.614 63.7306 47.748 63.7306 49.248C63.7306 49.98 63.6406 50.652 63.4606 51.264C63.2926 51.876 63.0406 52.404 62.7046 52.848C62.3806 53.28 61.9786 53.622 61.4986 53.874C61.0186 54.114 60.4786 54.234 59.8786 54.234C59.3746 54.234 58.8646 54.138 58.3486 53.946C57.8446 53.742 57.4366 53.394 57.1246 52.902V57.78H54.5686V44.91H56.0446C56.6566 44.91 56.9626 45.18 56.9626 45.72V46.458ZM57.0526 49.572C57.0526 50.412 57.2206 51.072 57.5566 51.552C57.9046 52.02 58.4146 52.254 59.0866 52.254C59.4466 52.254 59.7526 52.182 60.0046 52.038C60.2686 51.894 60.4786 51.696 60.6346 51.444C60.8026 51.18 60.9226 50.874 60.9946 50.526C61.0786 50.178 61.1206 49.806 61.1206 49.41C61.1206 48.522 60.9586 47.844 60.6346 47.376C60.3106 46.896 59.8246 46.656 59.1766 46.656C58.4926 46.656 57.9646 46.92 57.5926 47.448C57.2326 47.964 57.0526 48.672 57.0526 49.572ZM74.6043 49.446C74.6043 50.202 74.4903 50.88 74.2623 51.48C74.0463 52.068 73.7343 52.566 73.3263 52.974C72.9183 53.382 72.4263 53.694 71.8503 53.91C71.2743 54.126 70.6323 54.234 69.9243 54.234C69.2163 54.234 68.5743 54.126 67.9983 53.91C67.4223 53.694 66.9303 53.382 66.5223 52.974C66.1143 52.566 65.7963 52.068 65.5683 51.48C65.3523 50.88 65.2443 50.202 65.2443 49.446C65.2443 48.69 65.3523 48.018 65.5683 47.43C65.7963 46.842 66.1143 46.344 66.5223 45.936C66.9303 45.528 67.4223 45.216 67.9983 45C68.5743 44.784 69.2163 44.676 69.9243 44.676C70.6323 44.676 71.2743 44.784 71.8503 45C72.4263 45.216 72.9183 45.528 73.3263 45.936C73.7343 46.344 74.0463 46.842 74.2623 47.43C74.4903 48.018 74.6043 48.69 74.6043 49.446ZM71.9943 49.446C71.9943 48.522 71.8143 47.826 71.4543 47.358C71.1063 46.89 70.5963 46.656 69.9243 46.656C69.2523 46.656 68.7363 46.89 68.3763 47.358C68.0283 47.826 67.8543 48.522 67.8543 49.446C67.8543 50.382 68.0283 51.084 68.3763 51.552C68.7363 52.02 69.2523 52.254 69.9243 52.254C70.5963 52.254 71.1063 52.02 71.4543 51.552C71.8143 51.084 71.9943 50.382 71.9943 49.446ZM76.6116 44.91H78.0696C78.6816 44.91 78.9876 45.174 78.9876 45.702V46.818C79.1796 46.206 79.4976 45.72 79.9416 45.36C80.3976 44.988 80.9616 44.802 81.6336 44.802C81.9096 44.802 82.1496 44.832 82.3536 44.892V46.98H81.8316C80.9196 46.98 80.2476 47.214 79.8156 47.682C79.3836 48.15 79.1676 48.93 79.1676 50.022V54H76.6116V44.91ZM88.9084 52.038V53.946C88.7164 53.994 88.5064 54.03 88.2784 54.054C88.0504 54.078 87.7804 54.09 87.4684 54.09C86.3884 54.09 85.5964 53.844 85.0924 53.352C84.5884 52.848 84.3364 52.032 84.3364 50.904V46.854H82.9864V44.91H84.3364V42.732H86.8924V44.91H88.9084V46.854H86.8924V50.67C86.8924 51.21 87.0124 51.576 87.2524 51.768C87.4924 51.948 87.9244 52.038 88.5484 52.038H88.9084ZM97.5191 54H94.9631V44.91H97.5191V54ZM94.9451 41.184H97.5371V43.506H94.9451V41.184ZM100.043 44.91H101.501C102.113 44.91 102.419 45.174 102.419 45.702V46.368C102.659 45.852 103.037 45.444 103.553 45.144C104.069 44.832 104.687 44.676 105.407 44.676C106.379 44.676 107.129 44.958 107.657 45.522C108.197 46.086 108.467 46.932 108.467 48.06V54H105.911V48.24C105.911 47.184 105.443 46.656 104.507 46.656C103.919 46.656 103.451 46.866 103.103 47.286C102.767 47.706 102.599 48.288 102.599 49.032V54H100.043V44.91ZM116.125 43.092H115.711C115.039 43.092 114.553 43.194 114.253 43.398C113.965 43.59 113.821 43.992 113.821 44.604V44.91H116.035V46.854H113.821V54H111.265V46.854H109.915V44.91H111.265V44.244C111.265 43.188 111.571 42.39 112.183 41.85C112.795 41.31 113.683 41.04 114.847 41.04C115.051 41.04 115.273 41.052 115.513 41.076C115.753 41.088 115.957 41.118 116.125 41.166V43.092ZM119.285 50.004C119.381 50.796 119.645 51.372 120.077 51.732C120.521 52.08 121.133 52.254 121.913 52.254C122.333 52.254 122.735 52.2 123.119 52.092C123.503 51.984 123.845 51.828 124.145 51.624L125.009 53.136C124.157 53.868 123.035 54.234 121.643 54.234C120.815 54.234 120.095 54.114 119.483 53.874C118.883 53.622 118.379 53.28 117.971 52.848C117.575 52.416 117.281 51.906 117.089 51.318C116.897 50.73 116.801 50.1 116.801 49.428C116.801 48.648 116.921 47.964 117.161 47.376C117.401 46.776 117.725 46.278 118.133 45.882C118.553 45.486 119.039 45.186 119.591 44.982C120.155 44.778 120.749 44.676 121.373 44.676C122.009 44.676 122.573 44.778 123.065 44.982C123.557 45.174 123.965 45.45 124.289 45.81C124.625 46.17 124.877 46.602 125.045 47.106C125.225 47.598 125.315 48.15 125.315 48.762C125.315 48.966 125.303 49.182 125.279 49.41C125.267 49.626 125.237 49.824 125.189 50.004H119.285ZM121.373 46.548C120.797 46.548 120.329 46.722 119.969 47.07C119.609 47.418 119.399 47.898 119.339 48.51H123.011V48.276C123.011 47.724 122.861 47.298 122.561 46.998C122.273 46.698 121.877 46.548 121.373 46.548ZM127.289 44.91H128.747C129.359 44.91 129.665 45.174 129.665 45.702V46.818C129.857 46.206 130.175 45.72 130.619 45.36C131.075 44.988 131.639 44.802 132.311 44.802C132.587 44.802 132.827 44.832 133.031 44.892V46.98H132.509C131.597 46.98 130.925 47.214 130.493 47.682C130.061 48.15 129.845 48.93 129.845 50.022V54H127.289V44.91ZM136.037 50.004C136.133 50.796 136.397 51.372 136.829 51.732C137.273 52.08 137.885 52.254 138.665 52.254C139.085 52.254 139.487 52.2 139.871 52.092C140.255 51.984 140.597 51.828 140.897 51.624L141.761 53.136C140.909 53.868 139.787 54.234 138.395 54.234C137.567 54.234 136.847 54.114 136.235 53.874C135.635 53.622 135.131 53.28 134.723 52.848C134.327 52.416 134.033 51.906 133.841 51.318C133.649 50.73 133.553 50.1 133.553 49.428C133.553 48.648 133.673 47.964 133.913 47.376C134.153 46.776 134.477 46.278 134.885 45.882C135.305 45.486 135.791 45.186 136.343 44.982C136.907 44.778 137.501 44.676 138.125 44.676C138.761 44.676 139.325 44.778 139.817 44.982C140.309 45.174 140.717 45.45 141.041 45.81C141.377 46.17 141.629 46.602 141.797 47.106C141.977 47.598 142.067 48.15 142.067 48.762C142.067 48.966 142.055 49.182 142.031 49.41C142.019 49.626 141.989 49.824 141.941 50.004H136.037ZM138.125 46.548C137.549 46.548 137.081 46.722 136.721 47.07C136.361 47.418 136.151 47.898 136.091 48.51H139.763V48.276C139.763 47.724 139.613 47.298 139.313 46.998C139.025 46.698 138.629 46.548 138.125 46.548ZM144.041 44.91H145.499C146.111 44.91 146.417 45.174 146.417 45.702V46.368C146.657 45.852 147.035 45.444 147.551 45.144C148.067 44.832 148.685 44.676 149.405 44.676C150.377 44.676 151.127 44.958 151.655 45.522C152.195 46.086 152.465 46.932 152.465 48.06V54H149.909V48.24C149.909 47.184 149.441 46.656 148.505 46.656C147.917 46.656 147.449 46.866 147.101 47.286C146.765 47.706 146.597 48.288 146.597 49.032V54H144.041V44.91ZM157.063 49.446C157.063 50.334 157.267 51.012 157.675 51.48C158.095 51.936 158.725 52.164 159.565 52.164C159.913 52.164 160.249 52.122 160.573 52.038C160.909 51.942 161.197 51.81 161.437 51.642L162.193 53.388C161.845 53.64 161.425 53.844 160.933 54C160.441 54.156 159.871 54.234 159.223 54.234C158.479 54.234 157.813 54.126 157.225 53.91C156.637 53.682 156.139 53.364 155.731 52.956C155.323 52.548 155.005 52.05 154.777 51.462C154.561 50.874 154.453 50.208 154.453 49.464C154.453 48.72 154.567 48.054 154.795 47.466C155.023 46.878 155.341 46.38 155.749 45.972C156.169 45.552 156.673 45.234 157.261 45.018C157.861 44.79 158.533 44.676 159.277 44.676C159.877 44.676 160.411 44.748 160.879 44.892C161.347 45.036 161.755 45.228 162.103 45.468L161.329 47.214C161.101 47.058 160.837 46.944 160.537 46.872C160.237 46.788 159.919 46.746 159.583 46.746C158.815 46.746 158.203 46.968 157.747 47.412C157.291 47.844 157.063 48.522 157.063 49.446ZM165.621 50.004C165.717 50.796 165.981 51.372 166.413 51.732C166.857 52.08 167.469 52.254 168.249 52.254C168.669 52.254 169.071 52.2 169.455 52.092C169.839 51.984 170.181 51.828 170.481 51.624L171.345 53.136C170.493 53.868 169.371 54.234 167.979 54.234C167.151 54.234 166.431 54.114 165.819 53.874C165.219 53.622 164.715 53.28 164.307 52.848C163.911 52.416 163.617 51.906 163.425 51.318C163.233 50.73 163.137 50.1 163.137 49.428C163.137 48.648 163.257 47.964 163.497 47.376C163.737 46.776 164.061 46.278 164.469 45.882C164.889 45.486 165.375 45.186 165.927 44.982C166.491 44.778 167.085 44.676 167.709 44.676C168.345 44.676 168.909 44.778 169.401 44.982C169.893 45.174 170.301 45.45 170.625 45.81C170.961 46.17 171.213 46.602 171.381 47.106C171.561 47.598 171.651 48.15 171.651 48.762C171.651 48.966 171.639 49.182 171.615 49.41C171.603 49.626 171.573 49.824 171.525 50.004H165.621ZM167.709 46.548C167.133 46.548 166.665 46.722 166.305 47.07C165.945 47.418 165.735 47.898 165.675 48.51H169.347V48.276C169.347 47.724 169.197 47.298 168.897 46.998C168.609 46.698 168.213 46.548 167.709 46.548ZM79.1749 78H76.6189V72.294C76.6189 71.238 76.1929 70.71 75.3409 70.71C74.8009 70.71 74.3749 70.902 74.0629 71.286C73.7629 71.658 73.6129 72.204 73.6129 72.924V78H71.0569V68.91H72.5149C73.1269 68.91 73.4329 69.174 73.4329 69.702V70.332C73.6729 69.792 74.0389 69.384 74.5309 69.108C75.0349 68.82 75.6109 68.676 76.2589 68.676C76.9069 68.676 77.4469 68.82 77.8789 69.108C78.3229 69.384 78.6469 69.792 78.8509 70.332C79.1149 69.804 79.4989 69.396 80.0029 69.108C80.5069 68.82 81.1009 68.676 81.7849 68.676C82.7329 68.676 83.4589 68.97 83.9629 69.558C84.4789 70.134 84.7369 70.968 84.7369 72.06V78H82.1809V72.294C82.1809 71.238 81.7549 70.71 80.9029 70.71C80.3629 70.71 79.9369 70.902 79.6249 71.286C79.3249 71.658 79.1749 72.204 79.1749 72.924V78ZM96.0848 73.446C96.0848 74.202 95.9708 74.88 95.7428 75.48C95.5268 76.068 95.2148 76.566 94.8068 76.974C94.3988 77.382 93.9068 77.694 93.3308 77.91C92.7548 78.126 92.1128 78.234 91.4048 78.234C90.6968 78.234 90.0548 78.126 89.4788 77.91C88.9028 77.694 88.4108 77.382 88.0028 76.974C87.5948 76.566 87.2768 76.068 87.0488 75.48C86.8328 74.88 86.7248 74.202 86.7248 73.446C86.7248 72.69 86.8328 72.018 87.0488 71.43C87.2768 70.842 87.5948 70.344 88.0028 69.936C88.4108 69.528 88.9028 69.216 89.4788 69C90.0548 68.784 90.6968 68.676 91.4048 68.676C92.1128 68.676 92.7548 68.784 93.3308 69C93.9068 69.216 94.3988 69.528 94.8068 69.936C95.2148 70.344 95.5268 70.842 95.7428 71.43C95.9708 72.018 96.0848 72.69 96.0848 73.446ZM93.4748 73.446C93.4748 72.522 93.2948 71.826 92.9348 71.358C92.5868 70.89 92.0768 70.656 91.4048 70.656C90.7328 70.656 90.2168 70.89 89.8568 71.358C89.5088 71.826 89.3348 72.522 89.3348 73.446C89.3348 74.382 89.5088 75.084 89.8568 75.552C90.2168 76.02 90.7328 76.254 91.4048 76.254C92.0768 76.254 92.5868 76.02 92.9348 75.552C93.2948 75.084 93.4748 74.382 93.4748 73.446ZM106.75 78H105.274C104.662 78 104.356 77.73 104.356 77.19V76.596C104.116 77.1 103.744 77.502 103.24 77.802C102.748 78.09 102.154 78.234 101.458 78.234C100.858 78.234 100.318 78.12 99.838 77.892C99.358 77.664 98.95 77.346 98.614 76.938C98.29 76.518 98.038 76.014 97.858 75.426C97.678 74.838 97.588 74.178 97.588 73.446C97.588 72.69 97.684 72.018 97.876 71.43C98.068 70.83 98.338 70.332 98.686 69.936C99.034 69.528 99.448 69.216 99.928 69C100.42 68.784 100.966 68.676 101.566 68.676C102.142 68.676 102.658 68.79 103.114 69.018C103.57 69.246 103.93 69.57 104.194 69.99V65.094H106.75V78ZM104.266 73.464C104.266 72.588 104.092 71.904 103.744 71.412C103.408 70.908 102.91 70.656 102.25 70.656C101.602 70.656 101.098 70.902 100.738 71.394C100.378 71.886 100.198 72.576 100.198 73.464C100.198 74.364 100.366 75.054 100.702 75.534C101.038 76.014 101.536 76.254 102.196 76.254C102.844 76.254 103.348 76.008 103.708 75.516C104.08 75.012 104.266 74.328 104.266 73.464ZM117.444 78H115.986C115.65 78 115.41 77.928 115.266 77.784C115.122 77.64 115.05 77.418 115.05 77.118V76.614C114.81 77.154 114.438 77.562 113.934 77.838C113.442 78.102 112.872 78.234 112.224 78.234C111.228 78.234 110.472 77.94 109.956 77.352C109.452 76.764 109.2 75.906 109.2 74.778V68.91H111.756V74.616C111.756 75.204 111.87 75.624 112.098 75.876C112.326 76.128 112.662 76.254 113.106 76.254C113.694 76.254 114.138 76.044 114.438 75.624C114.738 75.204 114.888 74.634 114.888 73.914V68.91H117.444V78ZM122.479 65.094V74.904C122.479 75.384 122.551 75.702 122.695 75.858C122.851 76.002 123.157 76.074 123.613 76.074H123.775V78C123.511 78.06 123.127 78.09 122.623 78.09C121.651 78.09 120.955 77.85 120.535 77.37C120.127 76.89 119.923 76.17 119.923 75.21V65.094H122.479ZM127.459 74.004C127.555 74.796 127.819 75.372 128.251 75.732C128.695 76.08 129.307 76.254 130.087 76.254C130.507 76.254 130.909 76.2 131.293 76.092C131.677 75.984 132.019 75.828 132.319 75.624L133.183 77.136C132.331 77.868 131.209 78.234 129.817 78.234C128.989 78.234 128.269 78.114 127.657 77.874C127.057 77.622 126.553 77.28 126.145 76.848C125.749 76.416 125.455 75.906 125.263 75.318C125.071 74.73 124.975 74.1 124.975 73.428C124.975 72.648 125.095 71.964 125.335 71.376C125.575 70.776 125.899 70.278 126.307 69.882C126.727 69.486 127.213 69.186 127.765 68.982C128.329 68.778 128.923 68.676 129.547 68.676C130.183 68.676 130.747 68.778 131.239 68.982C131.731 69.174 132.139 69.45 132.463 69.81C132.799 70.17 133.051 70.602 133.219 71.106C133.399 71.598 133.489 72.15 133.489 72.762C133.489 72.966 133.477 73.182 133.453 73.41C133.441 73.626 133.411 73.824 133.363 74.004H127.459ZM129.547 70.548C128.971 70.548 128.503 70.722 128.143 71.07C127.783 71.418 127.573 71.898 127.513 72.51H131.185V72.276C131.185 71.724 131.035 71.298 130.735 70.998C130.447 70.698 130.051 70.548 129.547 70.548Z" fill="white"/>
<rect x="267" y="20" width="164" height="80" fill="#00285A"/>
<path d="M337.472 54.27C335.744 54.27 334.454 53.82 333.602 52.92C332.75 52.008 332.324 50.676 332.324 48.924V41.58H334.952V49.212C334.952 50.16 335.156 50.88 335.564 51.372C335.984 51.864 336.62 52.11 337.472 52.11C338.312 52.11 338.936 51.864 339.344 51.372C339.764 50.88 339.974 50.16 339.974 49.212V41.58H342.602V48.924C342.602 50.688 342.17 52.02 341.306 52.92C340.454 53.82 339.176 54.27 337.472 54.27ZM348.698 46.62C348.278 46.62 347.948 46.692 347.708 46.836C347.468 46.968 347.348 47.172 347.348 47.448C347.348 47.676 347.42 47.856 347.564 47.988C347.708 48.108 347.9 48.204 348.14 48.276L349.508 48.69C350.348 48.942 350.966 49.272 351.362 49.68C351.77 50.076 351.974 50.616 351.974 51.3C351.974 52.212 351.632 52.932 350.948 53.46C350.276 53.976 349.352 54.234 348.176 54.234C347.432 54.234 346.748 54.132 346.124 53.928C345.5 53.712 344.948 53.412 344.468 53.028L345.422 51.408C345.818 51.684 346.244 51.9 346.7 52.056C347.168 52.212 347.624 52.29 348.068 52.29C348.488 52.29 348.818 52.212 349.058 52.056C349.298 51.9 349.418 51.66 349.418 51.336C349.418 51.12 349.352 50.946 349.22 50.814C349.1 50.67 348.884 50.55 348.572 50.454L347.078 50.022C346.334 49.806 345.764 49.494 345.368 49.086C344.984 48.666 344.792 48.12 344.792 47.448C344.792 46.992 344.882 46.596 345.062 46.26C345.242 45.912 345.488 45.624 345.8 45.396C346.124 45.156 346.508 44.976 346.952 44.856C347.396 44.736 347.882 44.676 348.41 44.676C349.058 44.676 349.688 44.766 350.3 44.946C350.912 45.114 351.428 45.354 351.848 45.666L351.038 47.286C350.294 46.842 349.514 46.62 348.698 46.62ZM355.905 50.004C356.001 50.796 356.265 51.372 356.697 51.732C357.141 52.08 357.753 52.254 358.533 52.254C358.953 52.254 359.355 52.2 359.739 52.092C360.123 51.984 360.465 51.828 360.765 51.624L361.629 53.136C360.777 53.868 359.655 54.234 358.263 54.234C357.435 54.234 356.715 54.114 356.103 53.874C355.503 53.622 354.999 53.28 354.591 52.848C354.195 52.416 353.901 51.906 353.709 51.318C353.517 50.73 353.421 50.1 353.421 49.428C353.421 48.648 353.541 47.964 353.781 47.376C354.021 46.776 354.345 46.278 354.753 45.882C355.173 45.486 355.659 45.186 356.211 44.982C356.775 44.778 357.369 44.676 357.993 44.676C358.629 44.676 359.193 44.778 359.685 44.982C360.177 45.174 360.585 45.45 360.909 45.81C361.245 46.17 361.497 46.602 361.665 47.106C361.845 47.598 361.935 48.15 361.935 48.762C361.935 48.966 361.923 49.182 361.899 49.41C361.887 49.626 361.857 49.824 361.809 50.004H355.905ZM357.993 46.548C357.417 46.548 356.949 46.722 356.589 47.07C356.229 47.418 356.019 47.898 355.959 48.51H359.631V48.276C359.631 47.724 359.481 47.298 359.181 46.998C358.893 46.698 358.497 46.548 357.993 46.548ZM296.882 78H294.326V68.91H296.882V78ZM294.308 65.184H296.9V67.506H294.308V65.184ZM299.406 68.91H300.864C301.476 68.91 301.782 69.174 301.782 69.702V70.368C302.022 69.852 302.4 69.444 302.916 69.144C303.432 68.832 304.05 68.676 304.77 68.676C305.742 68.676 306.492 68.958 307.02 69.522C307.56 70.086 307.83 70.932 307.83 72.06V78H305.274V72.24C305.274 71.184 304.806 70.656 303.87 70.656C303.282 70.656 302.814 70.866 302.466 71.286C302.13 71.706 301.962 72.288 301.962 73.032V78H299.406V68.91ZM315.489 67.092H315.075C314.403 67.092 313.917 67.194 313.617 67.398C313.329 67.59 313.185 67.992 313.185 68.604V68.91H315.399V70.854H313.185V78H310.629V70.854H309.279V68.91H310.629V68.244C310.629 67.188 310.935 66.39 311.547 65.85C312.159 65.31 313.047 65.04 314.211 65.04C314.415 65.04 314.637 65.052 314.877 65.076C315.117 65.088 315.321 65.118 315.489 65.166V67.092ZM318.648 74.004C318.744 74.796 319.008 75.372 319.44 75.732C319.884 76.08 320.496 76.254 321.276 76.254C321.696 76.254 322.098 76.2 322.482 76.092C322.866 75.984 323.208 75.828 323.508 75.624L324.372 77.136C323.52 77.868 322.398 78.234 321.006 78.234C320.178 78.234 319.458 78.114 318.846 77.874C318.246 77.622 317.742 77.28 317.334 76.848C316.938 76.416 316.644 75.906 316.452 75.318C316.26 74.73 316.164 74.1 316.164 73.428C316.164 72.648 316.284 71.964 316.524 71.376C316.764 70.776 317.088 70.278 317.496 69.882C317.916 69.486 318.402 69.186 318.954 68.982C319.518 68.778 320.112 68.676 320.736 68.676C321.372 68.676 321.936 68.778 322.428 68.982C322.92 69.174 323.328 69.45 323.652 69.81C323.988 70.17 324.24 70.602 324.408 71.106C324.588 71.598 324.678 72.15 324.678 72.762C324.678 72.966 324.666 73.182 324.642 73.41C324.63 73.626 324.6 73.824 324.552 74.004H318.648ZM320.736 70.548C320.16 70.548 319.692 70.722 319.332 71.07C318.972 71.418 318.762 71.898 318.702 72.51H322.374V72.276C322.374 71.724 322.224 71.298 321.924 70.998C321.636 70.698 321.24 70.548 320.736 70.548ZM326.653 68.91H328.111C328.723 68.91 329.029 69.174 329.029 69.702V70.818C329.221 70.206 329.539 69.72 329.983 69.36C330.439 68.988 331.003 68.802 331.675 68.802C331.951 68.802 332.191 68.832 332.395 68.892V70.98H331.873C330.961 70.98 330.289 71.214 329.857 71.682C329.425 72.15 329.209 72.93 329.209 74.022V78H326.653V68.91ZM335.4 74.004C335.496 74.796 335.76 75.372 336.192 75.732C336.636 76.08 337.248 76.254 338.028 76.254C338.448 76.254 338.85 76.2 339.234 76.092C339.618 75.984 339.96 75.828 340.26 75.624L341.124 77.136C340.272 77.868 339.15 78.234 337.758 78.234C336.93 78.234 336.21 78.114 335.598 77.874C334.998 77.622 334.494 77.28 334.086 76.848C333.69 76.416 333.396 75.906 333.204 75.318C333.012 74.73 332.916 74.1 332.916 73.428C332.916 72.648 333.036 71.964 333.276 71.376C333.516 70.776 333.84 70.278 334.248 69.882C334.668 69.486 335.154 69.186 335.706 68.982C336.27 68.778 336.864 68.676 337.488 68.676C338.124 68.676 338.688 68.778 339.18 68.982C339.672 69.174 340.08 69.45 340.404 69.81C340.74 70.17 340.992 70.602 341.16 71.106C341.34 71.598 341.43 72.15 341.43 72.762C341.43 72.966 341.418 73.182 341.394 73.41C341.382 73.626 341.352 73.824 341.304 74.004H335.4ZM337.488 70.548C336.912 70.548 336.444 70.722 336.084 71.07C335.724 71.418 335.514 71.898 335.454 72.51H339.126V72.276C339.126 71.724 338.976 71.298 338.676 70.998C338.388 70.698 337.992 70.548 337.488 70.548ZM343.405 68.91H344.863C345.475 68.91 345.781 69.174 345.781 69.702V70.368C346.021 69.852 346.399 69.444 346.915 69.144C347.431 68.832 348.049 68.676 348.769 68.676C349.741 68.676 350.491 68.958 351.019 69.522C351.559 70.086 351.829 70.932 351.829 72.06V78H349.273V72.24C349.273 71.184 348.805 70.656 347.869 70.656C347.281 70.656 346.813 70.866 346.465 71.286C346.129 71.706 345.961 72.288 345.961 73.032V78H343.405V68.91ZM356.427 73.446C356.427 74.334 356.631 75.012 357.039 75.48C357.459 75.936 358.089 76.164 358.929 76.164C359.277 76.164 359.613 76.122 359.937 76.038C360.273 75.942 360.561 75.81 360.801 75.642L361.557 77.388C361.209 77.64 360.789 77.844 360.297 78C359.805 78.156 359.235 78.234 358.587 78.234C357.843 78.234 357.177 78.126 356.589 77.91C356.001 77.682 355.503 77.364 355.095 76.956C354.687 76.548 354.369 76.05 354.141 75.462C353.925 74.874 353.817 74.208 353.817 73.464C353.817 72.72 353.931 72.054 354.159 71.466C354.387 70.878 354.705 70.38 355.113 69.972C355.533 69.552 356.037 69.234 356.625 69.018C357.225 68.79 357.897 68.676 358.641 68.676C359.241 68.676 359.775 68.748 360.243 68.892C360.711 69.036 361.119 69.228 361.467 69.468L360.693 71.214C360.465 71.058 360.201 70.944 359.901 70.872C359.601 70.788 359.283 70.746 358.947 70.746C358.179 70.746 357.567 70.968 357.111 71.412C356.655 71.844 356.427 72.522 356.427 73.446ZM364.984 74.004C365.08 74.796 365.344 75.372 365.776 75.732C366.22 76.08 366.832 76.254 367.612 76.254C368.032 76.254 368.434 76.2 368.818 76.092C369.202 75.984 369.544 75.828 369.844 75.624L370.708 77.136C369.856 77.868 368.734 78.234 367.342 78.234C366.514 78.234 365.794 78.114 365.182 77.874C364.582 77.622 364.078 77.28 363.67 76.848C363.274 76.416 362.98 75.906 362.788 75.318C362.596 74.73 362.5 74.1 362.5 73.428C362.5 72.648 362.62 71.964 362.86 71.376C363.1 70.776 363.424 70.278 363.832 69.882C364.252 69.486 364.738 69.186 365.29 68.982C365.854 68.778 366.448 68.676 367.072 68.676C367.708 68.676 368.272 68.778 368.764 68.982C369.256 69.174 369.664 69.45 369.988 69.81C370.324 70.17 370.576 70.602 370.744 71.106C370.924 71.598 371.014 72.15 371.014 72.762C371.014 72.966 371.002 73.182 370.978 73.41C370.966 73.626 370.936 73.824 370.888 74.004H364.984ZM367.072 70.548C366.496 70.548 366.028 70.722 365.668 71.07C365.308 71.418 365.098 71.898 365.038 72.51H368.71V72.276C368.71 71.724 368.56 71.298 368.26 70.998C367.972 70.698 367.576 70.548 367.072 70.548ZM384.187 74.904H379.903L378.949 78H376.195L380.785 65.58H383.449L388.039 78H385.159L384.187 74.904ZM380.479 73.014H383.593L382.009 68.01L380.479 73.014ZM392.125 73.734V78H389.551V65.58H394.195C395.623 65.58 396.727 65.934 397.507 66.642C398.287 67.338 398.677 68.346 398.677 69.666C398.677 70.938 398.287 71.934 397.507 72.654C396.739 73.374 395.629 73.734 394.177 73.734H392.125ZM392.125 67.506V71.808H393.763C394.531 71.808 395.107 71.64 395.491 71.304C395.875 70.968 396.067 70.422 396.067 69.666C396.067 68.91 395.875 68.364 395.491 68.028C395.119 67.68 394.549 67.506 393.781 67.506H392.125ZM403.5 78H400.872V65.58H403.5V78Z" fill="white"/>
<rect x="514" y="20" width="164" height="80" fill="#00285A"/>
<path d="M587.765 45.216C587.765 46.068 587.525 46.812 587.045 47.448C586.565 48.072 585.917 48.48 585.101 48.672L588.629 54H585.605L582.977 49.68C582.845 49.464 582.719 49.32 582.599 49.248C582.479 49.176 582.293 49.14 582.041 49.14H581.267V54H578.711V41.58H583.481C584.141 41.58 584.735 41.664 585.263 41.832C585.791 42 586.241 42.24 586.613 42.552C586.985 42.864 587.267 43.248 587.459 43.704C587.663 44.148 587.765 44.652 587.765 45.216ZM585.155 45.414C585.155 44.802 584.993 44.352 584.669 44.064C584.345 43.776 583.823 43.632 583.103 43.632H581.267V47.268H583.049C583.733 47.268 584.255 47.112 584.615 46.8C584.975 46.488 585.155 46.026 585.155 45.414ZM598.163 54H596.705C596.369 54 596.129 53.928 595.985 53.784C595.841 53.64 595.769 53.418 595.769 53.118V52.614C595.529 53.154 595.157 53.562 594.653 53.838C594.161 54.102 593.591 54.234 592.943 54.234C591.947 54.234 591.191 53.94 590.675 53.352C590.171 52.764 589.919 51.906 589.919 50.778V44.91H592.475V50.616C592.475 51.204 592.589 51.624 592.817 51.876C593.045 52.128 593.381 52.254 593.825 52.254C594.413 52.254 594.857 52.044 595.157 51.624C595.457 51.204 595.607 50.634 595.607 49.914V44.91H598.163V54ZM600.679 44.91H602.137C602.749 44.91 603.055 45.174 603.055 45.702V46.368C603.295 45.852 603.673 45.444 604.189 45.144C604.705 44.832 605.323 44.676 606.043 44.676C607.015 44.676 607.765 44.958 608.293 45.522C608.833 46.086 609.103 46.932 609.103 48.06V54H606.547V48.24C606.547 47.184 606.079 46.656 605.143 46.656C604.555 46.656 604.087 46.866 603.739 47.286C603.403 47.706 603.235 48.288 603.235 49.032V54H600.679V44.91ZM549.282 75.444C549.282 74.496 549.624 73.776 550.308 73.284C550.992 72.78 551.934 72.528 553.134 72.528H554.61V72.168C554.61 71.64 554.466 71.256 554.178 71.016C553.902 70.764 553.458 70.638 552.846 70.638C552.39 70.638 551.952 70.704 551.532 70.836C551.112 70.968 550.728 71.154 550.38 71.394L549.498 69.9C550.002 69.516 550.572 69.216 551.208 69C551.844 68.784 552.528 68.676 553.26 68.676C554.508 68.676 555.444 68.976 556.068 69.576C556.704 70.176 557.022 71.04 557.022 72.168V75.66C557.022 75.936 557.07 76.122 557.166 76.218C557.262 76.302 557.436 76.344 557.688 76.344H557.886V77.91C557.754 77.958 557.598 78 557.418 78.036C557.238 78.072 557.022 78.09 556.77 78.09C556.242 78.09 555.846 77.982 555.582 77.766C555.318 77.55 555.162 77.232 555.114 76.812C554.898 77.244 554.538 77.586 554.034 77.838C553.53 78.09 552.954 78.216 552.306 78.216C551.394 78.216 550.662 77.97 550.11 77.478C549.558 76.986 549.282 76.308 549.282 75.444ZM552.954 76.38C553.47 76.38 553.872 76.212 554.16 75.876C554.46 75.54 554.61 75.066 554.61 74.454V73.986H553.368C552.84 73.986 552.432 74.094 552.144 74.31C551.868 74.514 551.73 74.826 551.73 75.246C551.73 75.63 551.838 75.918 552.054 76.11C552.282 76.29 552.582 76.38 552.954 76.38ZM561.94 70.458C562.216 69.846 562.642 69.396 563.218 69.108C563.794 68.82 564.406 68.676 565.054 68.676C566.146 68.676 567.028 69.066 567.7 69.846C568.372 70.614 568.708 71.748 568.708 73.248C568.708 73.98 568.618 74.652 568.438 75.264C568.27 75.876 568.018 76.404 567.682 76.848C567.358 77.28 566.956 77.622 566.476 77.874C565.996 78.114 565.456 78.234 564.856 78.234C564.352 78.234 563.842 78.138 563.326 77.946C562.822 77.742 562.414 77.394 562.102 76.902V81.78H559.546V68.91H561.022C561.634 68.91 561.94 69.18 561.94 69.72V70.458ZM562.03 73.572C562.03 74.412 562.198 75.072 562.534 75.552C562.882 76.02 563.392 76.254 564.064 76.254C564.424 76.254 564.73 76.182 564.982 76.038C565.246 75.894 565.456 75.696 565.612 75.444C565.78 75.18 565.9 74.874 565.972 74.526C566.056 74.178 566.098 73.806 566.098 73.41C566.098 72.522 565.936 71.844 565.612 71.376C565.288 70.896 564.802 70.656 564.154 70.656C563.47 70.656 562.942 70.92 562.57 71.448C562.21 71.964 562.03 72.672 562.03 73.572ZM573.12 70.458C573.396 69.846 573.822 69.396 574.398 69.108C574.974 68.82 575.586 68.676 576.234 68.676C577.326 68.676 578.208 69.066 578.88 69.846C579.552 70.614 579.888 71.748 579.888 73.248C579.888 73.98 579.798 74.652 579.618 75.264C579.45 75.876 579.198 76.404 578.862 76.848C578.538 77.28 578.136 77.622 577.656 77.874C577.176 78.114 576.636 78.234 576.036 78.234C575.532 78.234 575.022 78.138 574.506 77.946C574.002 77.742 573.594 77.394 573.282 76.902V81.78H570.726V68.91H572.202C572.814 68.91 573.12 69.18 573.12 69.72V70.458ZM573.21 73.572C573.21 74.412 573.378 75.072 573.714 75.552C574.062 76.02 574.572 76.254 575.244 76.254C575.604 76.254 575.91 76.182 576.162 76.038C576.426 75.894 576.636 75.696 576.792 75.444C576.96 75.18 577.08 74.874 577.152 74.526C577.236 74.178 577.278 73.806 577.278 73.41C577.278 72.522 577.116 71.844 576.792 71.376C576.468 70.896 575.982 70.656 575.334 70.656C574.65 70.656 574.122 70.92 573.75 71.448C573.39 71.964 573.21 72.672 573.21 73.572ZM584.426 65.094V74.904C584.426 75.384 584.498 75.702 584.642 75.858C584.798 76.002 585.104 76.074 585.56 76.074H585.722V78C585.458 78.06 585.074 78.09 584.57 78.09C583.598 78.09 582.902 77.85 582.482 77.37C582.074 76.89 581.87 76.17 581.87 75.21V65.094H584.426ZM590.157 78H587.601V68.91H590.157V78ZM587.583 65.184H590.175V67.506H587.583V65.184ZM594.787 73.446C594.787 74.334 594.991 75.012 595.399 75.48C595.819 75.936 596.449 76.164 597.289 76.164C597.637 76.164 597.973 76.122 598.297 76.038C598.633 75.942 598.921 75.81 599.161 75.642L599.917 77.388C599.569 77.64 599.149 77.844 598.657 78C598.165 78.156 597.595 78.234 596.947 78.234C596.203 78.234 595.537 78.126 594.949 77.91C594.361 77.682 593.863 77.364 593.455 76.956C593.047 76.548 592.729 76.05 592.501 75.462C592.285 74.874 592.177 74.208 592.177 73.464C592.177 72.72 592.291 72.054 592.519 71.466C592.747 70.878 593.065 70.38 593.473 69.972C593.893 69.552 594.397 69.234 594.985 69.018C595.585 68.79 596.257 68.676 597.001 68.676C597.601 68.676 598.135 68.748 598.603 68.892C599.071 69.036 599.479 69.228 599.827 69.468L599.053 71.214C598.825 71.058 598.561 70.944 598.261 70.872C597.961 70.788 597.643 70.746 597.307 70.746C596.539 70.746 595.927 70.968 595.471 71.412C595.015 71.844 594.787 72.522 594.787 73.446ZM600.856 75.444C600.856 74.496 601.198 73.776 601.882 73.284C602.566 72.78 603.508 72.528 604.708 72.528H606.184V72.168C606.184 71.64 606.04 71.256 605.752 71.016C605.476 70.764 605.032 70.638 604.42 70.638C603.964 70.638 603.526 70.704 603.106 70.836C602.686 70.968 602.302 71.154 601.954 71.394L601.072 69.9C601.576 69.516 602.146 69.216 602.782 69C603.418 68.784 604.102 68.676 604.834 68.676C606.082 68.676 607.018 68.976 607.642 69.576C608.278 70.176 608.596 71.04 608.596 72.168V75.66C608.596 75.936 608.644 76.122 608.74 76.218C608.836 76.302 609.01 76.344 609.262 76.344H609.46V77.91C609.328 77.958 609.172 78 608.992 78.036C608.812 78.072 608.596 78.09 608.344 78.09C607.816 78.09 607.42 77.982 607.156 77.766C606.892 77.55 606.736 77.232 606.688 76.812C606.472 77.244 606.112 77.586 605.608 77.838C605.104 78.09 604.528 78.216 603.88 78.216C602.968 78.216 602.236 77.97 601.684 77.478C601.132 76.986 600.856 76.308 600.856 75.444ZM604.528 76.38C605.044 76.38 605.446 76.212 605.734 75.876C606.034 75.54 606.184 75.066 606.184 74.454V73.986H604.942C604.414 73.986 604.006 74.094 603.718 74.31C603.442 74.514 603.304 74.826 603.304 75.246C603.304 75.63 603.412 75.918 603.628 76.11C603.856 76.29 604.156 76.38 604.528 76.38ZM616.034 76.038V77.946C615.842 77.994 615.632 78.03 615.404 78.054C615.176 78.078 614.906 78.09 614.594 78.09C613.514 78.09 612.722 77.844 612.218 77.352C611.714 76.848 611.462 76.032 611.462 74.904V70.854H610.112V68.91H611.462V66.732H614.018V68.91H616.034V70.854H614.018V74.67C614.018 75.21 614.138 75.576 614.378 75.768C614.618 75.948 615.05 76.038 615.674 76.038H616.034ZM620.251 78H617.695V68.91H620.251V78ZM617.677 65.184H620.269V67.506H617.677V65.184ZM631.631 73.446C631.631 74.202 631.517 74.88 631.289 75.48C631.073 76.068 630.761 76.566 630.353 76.974C629.945 77.382 629.453 77.694 628.877 77.91C628.301 78.126 627.659 78.234 626.951 78.234C626.243 78.234 625.601 78.126 625.025 77.91C624.449 77.694 623.957 77.382 623.549 76.974C623.141 76.566 622.823 76.068 622.595 75.48C622.379 74.88 622.271 74.202 622.271 73.446C622.271 72.69 622.379 72.018 622.595 71.43C622.823 70.842 623.141 70.344 623.549 69.936C623.957 69.528 624.449 69.216 625.025 69C625.601 68.784 626.243 68.676 626.951 68.676C627.659 68.676 628.301 68.784 628.877 69C629.453 69.216 629.945 69.528 630.353 69.936C630.761 70.344 631.073 70.842 631.289 71.43C631.517 72.018 631.631 72.69 631.631 73.446ZM629.021 73.446C629.021 72.522 628.841 71.826 628.481 71.358C628.133 70.89 627.623 70.656 626.951 70.656C626.279 70.656 625.763 70.89 625.403 71.358C625.055 71.826 624.881 72.522 624.881 73.446C624.881 74.382 625.055 75.084 625.403 75.552C625.763 76.02 626.279 76.254 626.951 76.254C627.623 76.254 628.133 76.02 628.481 75.552C628.841 75.084 629.021 74.382 629.021 73.446ZM633.638 68.91H635.096C635.708 68.91 636.014 69.174 636.014 69.702V70.368C636.254 69.852 636.632 69.444 637.148 69.144C637.664 68.832 638.282 68.676 639.002 68.676C639.974 68.676 640.724 68.958 641.252 69.522C641.792 70.086 642.062 70.932 642.062 72.06V78H639.506V72.24C639.506 71.184 639.038 70.656 638.102 70.656C637.514 70.656 637.046 70.866 636.698 71.286C636.362 71.706 636.194 72.288 636.194 73.032V78H633.638V68.91Z" fill="white"/>
<path d="M247 65L257 59.5L247 54V59L194 59L194 60L247 60V65Z" fill="#C9CACE"/>
<path d="M494 65L504 59.5L494 54V59L441 59L441 60L494 60V65Z" fill="#C9CACE"/>
</svg>
