<svg width="852" height="222" viewBox="0 0 852 222" fill="none" xmlns="http://www.w3.org/2000/svg">
<path d="M583.5 76.5V176H565" stroke="#C9CACE"/>
<path d="M577.5 61.5V118.5H565" stroke="#C9CACE"/>
<path d="M575 46.5H571.5V60.5H565" stroke="#C9CACE"/>
<path d="M435 118.5H110V107" stroke="#C9CACE"/>
<rect x="20" y="25" width="180" height="72" rx="36" fill="#00285A"/>
<path d="M84.8774 53.32C85.4 53.32 85.8267 53.2827 86.1574 53.208V50.888H84.0454V49.064H88.3334V54.392C88.0347 54.5947 87.56 54.7867 86.9094 54.968C86.2694 55.1493 85.5334 55.24 84.7014 55.24C83.8374 55.24 83.048 55.1227 82.3334 54.888C81.6294 54.6427 81.0214 54.28 80.5094 53.8C80.008 53.32 79.6187 52.7227 79.3414 52.008C79.0747 51.2933 78.9414 50.4613 78.9414 49.512C78.9414 48.6053 79.0747 47.7947 79.3414 47.08C79.608 46.3547 79.992 45.7467 80.4934 45.256C81.0054 44.7547 81.6187 44.376 82.3334 44.12C83.0587 43.8533 83.88 43.72 84.7974 43.72C85.5547 43.72 86.2214 43.8053 86.7974 43.976C87.3734 44.1467 87.8534 44.376 88.2374 44.664L87.3734 46.28C87.0534 46.088 86.696 45.9333 86.3014 45.816C85.9174 45.6987 85.464 45.64 84.9414 45.64C83.7467 45.64 82.8507 45.9653 82.2534 46.616C81.6667 47.256 81.3734 48.2107 81.3734 49.48C81.3734 50.7387 81.6667 51.6933 82.2534 52.344C82.84 52.9947 83.7147 53.32 84.8774 53.32ZM92.1769 51.448C92.2622 52.152 92.4969 52.664 92.8809 52.984C93.2755 53.2933 93.8195 53.448 94.5129 53.448C94.8862 53.448 95.2435 53.4 95.5849 53.304C95.9262 53.208 96.2302 53.0693 96.4969 52.888L97.2649 54.232C96.5075 54.8827 95.5102 55.208 94.2729 55.208C93.5369 55.208 92.8969 55.1013 92.3529 54.888C91.8195 54.664 91.3715 54.36 91.0089 53.976C90.6569 53.592 90.3955 53.1387 90.2249 52.616C90.0542 52.0933 89.9689 51.5333 89.9689 50.936C89.9689 50.2427 90.0755 49.6347 90.2889 49.112C90.5022 48.5787 90.7902 48.136 91.1529 47.784C91.5262 47.432 91.9582 47.1653 92.4489 46.984C92.9502 46.8027 93.4782 46.712 94.0329 46.712C94.5982 46.712 95.0995 46.8027 95.5369 46.984C95.9742 47.1547 96.3369 47.4 96.6249 47.72C96.9235 48.04 97.1475 48.424 97.2969 48.872C97.4569 49.3093 97.5369 49.8 97.5369 50.344C97.5369 50.5253 97.5262 50.7173 97.5049 50.92C97.4942 51.112 97.4675 51.288 97.4249 51.448H92.1769ZM94.0329 48.376C93.5209 48.376 93.1049 48.5307 92.7849 48.84C92.4649 49.1493 92.2782 49.576 92.2249 50.12H95.4889V49.912C95.4889 49.4213 95.3555 49.0427 95.0889 48.776C94.8329 48.5093 94.4809 48.376 94.0329 48.376ZM103.66 53.256V54.952C103.489 54.9947 103.303 55.0267 103.1 55.048C102.897 55.0693 102.657 55.08 102.38 55.08C101.42 55.08 100.716 54.8613 100.268 54.424C99.8199 53.976 99.5959 53.2507 99.5959 52.248V48.648H98.3959V46.92H99.5959V44.984H101.868V46.92H103.66V48.648H101.868V52.04C101.868 52.52 101.975 52.8453 102.188 53.016C102.401 53.176 102.785 53.256 103.34 53.256H103.66ZM114.098 50.792V55H111.762V50.744L108.05 43.96H110.658L112.994 49.016L115.378 43.96H117.874L114.098 50.792ZM125.476 50.952C125.476 51.624 125.375 52.2267 125.172 52.76C124.98 53.2827 124.703 53.7253 124.34 54.088C123.978 54.4507 123.54 54.728 123.028 54.92C122.516 55.112 121.946 55.208 121.316 55.208C120.687 55.208 120.116 55.112 119.604 54.92C119.092 54.728 118.655 54.4507 118.292 54.088C117.93 53.7253 117.647 53.2827 117.444 52.76C117.252 52.2267 117.156 51.624 117.156 50.952C117.156 50.28 117.252 49.6827 117.444 49.16C117.647 48.6373 117.93 48.1947 118.292 47.832C118.655 47.4693 119.092 47.192 119.604 47C120.116 46.808 120.687 46.712 121.316 46.712C121.946 46.712 122.516 46.808 123.028 47C123.54 47.192 123.978 47.4693 124.34 47.832C124.703 48.1947 124.98 48.6373 125.172 49.16C125.375 49.6827 125.476 50.28 125.476 50.952ZM123.156 50.952C123.156 50.1307 122.996 49.512 122.676 49.096C122.367 48.68 121.914 48.472 121.316 48.472C120.719 48.472 120.26 48.68 119.94 49.096C119.631 49.512 119.476 50.1307 119.476 50.952C119.476 51.784 119.631 52.408 119.94 52.824C120.26 53.24 120.719 53.448 121.316 53.448C121.914 53.448 122.367 53.24 122.676 52.824C122.996 52.408 123.156 51.784 123.156 50.952ZM134.525 55H133.229C132.93 55 132.717 54.936 132.589 54.808C132.461 54.68 132.397 54.4827 132.397 54.216V53.768C132.183 54.248 131.853 54.6107 131.405 54.856C130.967 55.0907 130.461 55.208 129.885 55.208C128.999 55.208 128.327 54.9467 127.869 54.424C127.421 53.9013 127.197 53.1387 127.197 52.136V46.92H129.469V51.992C129.469 52.5147 129.57 52.888 129.773 53.112C129.975 53.336 130.274 53.448 130.669 53.448C131.191 53.448 131.586 53.2613 131.853 52.888C132.119 52.5147 132.253 52.008 132.253 51.368V46.92H134.525V55ZM136.761 46.92H138.057C138.601 46.92 138.873 47.1547 138.873 47.624V48.616C139.043 48.072 139.326 47.64 139.721 47.32C140.126 46.9893 140.627 46.824 141.225 46.824C141.47 46.824 141.683 46.8507 141.865 46.904V48.76H141.401C140.59 48.76 139.993 48.968 139.609 49.384C139.225 49.8 139.033 50.4933 139.033 51.464V55H136.761V46.92ZM89.9177 71.448V79H87.7097V67.96H90.2857L93.2777 73.976L96.2857 67.96H98.7657V79H96.5577V71.432L94.1577 76.216H92.3177L89.9177 71.448ZM109.031 74.952C109.031 75.624 108.93 76.2267 108.727 76.76C108.535 77.2827 108.258 77.7253 107.895 78.088C107.532 78.4507 107.095 78.728 106.583 78.92C106.071 79.112 105.5 79.208 104.871 79.208C104.242 79.208 103.671 79.112 103.159 78.92C102.647 78.728 102.21 78.4507 101.847 78.088C101.484 77.7253 101.202 77.2827 100.999 76.76C100.807 76.2267 100.711 75.624 100.711 74.952C100.711 74.28 100.807 73.6827 100.999 73.16C101.202 72.6373 101.484 72.1947 101.847 71.832C102.21 71.4693 102.647 71.192 103.159 71C103.671 70.808 104.242 70.712 104.871 70.712C105.5 70.712 106.071 70.808 106.583 71C107.095 71.192 107.532 71.4693 107.895 71.832C108.258 72.1947 108.535 72.6373 108.727 73.16C108.93 73.6827 109.031 74.28 109.031 74.952ZM106.711 74.952C106.711 74.1307 106.551 73.512 106.231 73.096C105.922 72.68 105.468 72.472 104.871 72.472C104.274 72.472 103.815 72.68 103.495 73.096C103.186 73.512 103.031 74.1307 103.031 74.952C103.031 75.784 103.186 76.408 103.495 76.824C103.815 77.24 104.274 77.448 104.871 77.448C105.468 77.448 105.922 77.24 106.231 76.824C106.551 76.408 106.711 75.784 106.711 74.952ZM118.511 79H117.199C116.655 79 116.383 78.76 116.383 78.28V77.752C116.17 78.2 115.839 78.5573 115.391 78.824C114.954 79.08 114.426 79.208 113.807 79.208C113.274 79.208 112.794 79.1067 112.367 78.904C111.941 78.7013 111.578 78.4187 111.279 78.056C110.991 77.6827 110.767 77.2347 110.607 76.712C110.447 76.1893 110.367 75.6027 110.367 74.952C110.367 74.28 110.453 73.6827 110.623 73.16C110.794 72.6267 111.034 72.184 111.343 71.832C111.653 71.4693 112.021 71.192 112.447 71C112.885 70.808 113.37 70.712 113.903 70.712C114.415 70.712 114.874 70.8133 115.279 71.016C115.685 71.2187 116.005 71.5067 116.239 71.88V67.528H118.511V79ZM116.303 74.968C116.303 74.1893 116.149 73.5813 115.839 73.144C115.541 72.696 115.098 72.472 114.511 72.472C113.935 72.472 113.487 72.6907 113.167 73.128C112.847 73.5653 112.687 74.1787 112.687 74.968C112.687 75.768 112.837 76.3813 113.135 76.808C113.434 77.2347 113.877 77.448 114.463 77.448C115.039 77.448 115.487 77.2293 115.807 76.792C116.138 76.344 116.303 75.736 116.303 74.968ZM122.513 75.448C122.598 76.152 122.833 76.664 123.217 76.984C123.611 77.2933 124.155 77.448 124.849 77.448C125.222 77.448 125.579 77.4 125.921 77.304C126.262 77.208 126.566 77.0693 126.833 76.888L127.601 78.232C126.843 78.8827 125.846 79.208 124.609 79.208C123.873 79.208 123.233 79.1013 122.689 78.888C122.155 78.664 121.707 78.36 121.345 77.976C120.993 77.592 120.731 77.1387 120.561 76.616C120.39 76.0933 120.305 75.5333 120.305 74.936C120.305 74.2427 120.411 73.6347 120.625 73.112C120.838 72.5787 121.126 72.136 121.489 71.784C121.862 71.432 122.294 71.1653 122.785 70.984C123.286 70.8027 123.814 70.712 124.369 70.712C124.934 70.712 125.435 70.8027 125.873 70.984C126.31 71.1547 126.673 71.4 126.961 71.72C127.259 72.04 127.483 72.424 127.633 72.872C127.793 73.3093 127.873 73.8 127.873 74.344C127.873 74.5253 127.862 74.7173 127.841 74.92C127.83 75.112 127.803 75.288 127.761 75.448H122.513ZM124.369 72.376C123.857 72.376 123.441 72.5307 123.121 72.84C122.801 73.1493 122.614 73.576 122.561 74.12H125.825V73.912C125.825 73.4213 125.691 73.0427 125.425 72.776C125.169 72.5093 124.817 72.376 124.369 72.376ZM131.868 67.528V76.248C131.868 76.6747 131.932 76.9573 132.06 77.096C132.198 77.224 132.47 77.288 132.876 77.288H133.02V79C132.785 79.0533 132.444 79.08 131.996 79.08C131.132 79.08 130.513 78.8667 130.14 78.44C129.777 78.0133 129.596 77.3733 129.596 76.52V67.528H131.868Z" fill="white"/>
<rect x="244" y="25" width="180" height="72" rx="36" fill="#76CEFF"/>
<path d="M304.609 47.192C304.609 47.9493 304.396 48.6107 303.969 49.176C303.543 49.7307 302.967 50.0933 302.241 50.264L305.377 55H302.689L300.353 51.16C300.236 50.968 300.124 50.84 300.017 50.776C299.911 50.712 299.745 50.68 299.521 50.68H298.833V55H296.561V43.96H300.801C301.388 43.96 301.916 44.0347 302.385 44.184C302.855 44.3333 303.255 44.5467 303.585 44.824C303.916 45.1013 304.167 45.4427 304.337 45.848C304.519 46.2427 304.609 46.6907 304.609 47.192ZM302.289 47.368C302.289 46.824 302.145 46.424 301.857 46.168C301.569 45.912 301.105 45.784 300.465 45.784H298.833V49.016H300.417C301.025 49.016 301.489 48.8773 301.809 48.6C302.129 48.3227 302.289 47.912 302.289 47.368ZM313.853 55H312.557C312.258 55 312.045 54.936 311.917 54.808C311.789 54.68 311.725 54.4827 311.725 54.216V53.768C311.511 54.248 311.181 54.6107 310.733 54.856C310.295 55.0907 309.789 55.208 309.213 55.208C308.327 55.208 307.655 54.9467 307.197 54.424C306.749 53.9013 306.525 53.1387 306.525 52.136V46.92H308.797V51.992C308.797 52.5147 308.898 52.888 309.101 53.112C309.303 53.336 309.602 53.448 309.997 53.448C310.519 53.448 310.914 53.2613 311.181 52.888C311.447 52.5147 311.581 52.008 311.581 51.368V46.92H313.853V55ZM316.089 46.92H317.385C317.929 46.92 318.201 47.1547 318.201 47.624V48.216C318.414 47.7573 318.75 47.3947 319.209 47.128C319.667 46.8507 320.217 46.712 320.857 46.712C321.721 46.712 322.387 46.9627 322.857 47.464C323.337 47.9653 323.577 48.7173 323.577 49.72V55H321.305V49.88C321.305 48.9413 320.889 48.472 320.057 48.472C319.534 48.472 319.118 48.6587 318.809 49.032C318.51 49.4053 318.361 49.9227 318.361 50.584V55H316.089V46.92ZM332.066 47.448V55H329.858V43.96H332.434L335.426 49.976L338.434 43.96H340.914V55H338.706V47.432L336.306 52.216H334.466L332.066 47.448ZM351.18 50.952C351.18 51.624 351.078 52.2267 350.876 52.76C350.684 53.2827 350.406 53.7253 350.044 54.088C349.681 54.4507 349.244 54.728 348.732 54.92C348.22 55.112 347.649 55.208 347.02 55.208C346.39 55.208 345.82 55.112 345.308 54.92C344.796 54.728 344.358 54.4507 343.996 54.088C343.633 53.7253 343.35 53.2827 343.148 52.76C342.956 52.2267 342.86 51.624 342.86 50.952C342.86 50.28 342.956 49.6827 343.148 49.16C343.35 48.6373 343.633 48.1947 343.996 47.832C344.358 47.4693 344.796 47.192 345.308 47C345.82 46.808 346.39 46.712 347.02 46.712C347.649 46.712 348.22 46.808 348.732 47C349.244 47.192 349.681 47.4693 350.044 47.832C350.406 48.1947 350.684 48.6373 350.876 49.16C351.078 49.6827 351.18 50.28 351.18 50.952ZM348.86 50.952C348.86 50.1307 348.7 49.512 348.38 49.096C348.07 48.68 347.617 48.472 347.02 48.472C346.422 48.472 345.964 48.68 345.644 49.096C345.334 49.512 345.18 50.1307 345.18 50.952C345.18 51.784 345.334 52.408 345.644 52.824C345.964 53.24 346.422 53.448 347.02 53.448C347.617 53.448 348.07 53.24 348.38 52.824C348.7 52.408 348.86 51.784 348.86 50.952ZM360.66 55H359.348C358.804 55 358.532 54.76 358.532 54.28V53.752C358.318 54.2 357.988 54.5573 357.54 54.824C357.102 55.08 356.574 55.208 355.956 55.208C355.422 55.208 354.942 55.1067 354.516 54.904C354.089 54.7013 353.726 54.4187 353.428 54.056C353.14 53.6827 352.916 53.2347 352.756 52.712C352.596 52.1893 352.516 51.6027 352.516 50.952C352.516 50.28 352.601 49.6827 352.772 49.16C352.942 48.6267 353.182 48.184 353.492 47.832C353.801 47.4693 354.169 47.192 354.596 47C355.033 46.808 355.518 46.712 356.052 46.712C356.564 46.712 357.022 46.8133 357.428 47.016C357.833 47.2187 358.153 47.5067 358.388 47.88V43.528H360.66V55ZM358.452 50.968C358.452 50.1893 358.297 49.5813 357.988 49.144C357.689 48.696 357.246 48.472 356.66 48.472C356.084 48.472 355.636 48.6907 355.316 49.128C354.996 49.5653 354.836 50.1787 354.836 50.968C354.836 51.768 354.985 52.3813 355.284 52.808C355.582 53.2347 356.025 53.448 356.612 53.448C357.188 53.448 357.636 53.2293 357.956 52.792C358.286 52.344 358.452 51.736 358.452 50.968ZM364.661 51.448C364.747 52.152 364.981 52.664 365.365 52.984C365.76 53.2933 366.304 53.448 366.997 53.448C367.371 53.448 367.728 53.4 368.069 53.304C368.411 53.208 368.715 53.0693 368.981 52.888L369.749 54.232C368.992 54.8827 367.995 55.208 366.757 55.208C366.021 55.208 365.381 55.1013 364.837 54.888C364.304 54.664 363.856 54.36 363.493 53.976C363.141 53.592 362.88 53.1387 362.709 52.616C362.539 52.0933 362.453 51.5333 362.453 50.936C362.453 50.2427 362.56 49.6347 362.773 49.112C362.987 48.5787 363.275 48.136 363.637 47.784C364.011 47.432 364.443 47.1653 364.933 46.984C365.435 46.8027 365.963 46.712 366.517 46.712C367.083 46.712 367.584 46.8027 368.021 46.984C368.459 47.1547 368.821 47.4 369.109 47.72C369.408 48.04 369.632 48.424 369.781 48.872C369.941 49.3093 370.021 49.8 370.021 50.344C370.021 50.5253 370.011 50.7173 369.989 50.92C369.979 51.112 369.952 51.288 369.909 51.448H364.661ZM366.517 48.376C366.005 48.376 365.589 48.5307 365.269 48.84C364.949 49.1493 364.763 49.576 364.709 50.12H367.973V49.912C367.973 49.4213 367.84 49.0427 367.573 48.776C367.317 48.5093 366.965 48.376 366.517 48.376ZM374.016 43.528V52.248C374.016 52.6747 374.08 52.9573 374.208 53.096C374.347 53.224 374.619 53.288 375.024 53.288H375.168V55C374.934 55.0533 374.592 55.08 374.144 55.08C373.28 55.08 372.662 54.8667 372.288 54.44C371.926 54.0133 371.744 53.3733 371.744 52.52V43.528H374.016ZM304.324 77.32C305.295 77.32 306.031 77 306.532 76.36C307.044 75.72 307.3 74.76 307.3 73.48C307.3 72.2107 307.044 71.256 306.532 70.616C306.031 69.9653 305.295 69.64 304.324 69.64C303.354 69.64 302.612 69.9653 302.1 70.616C301.599 71.256 301.348 72.2107 301.348 73.48C301.348 74.76 301.599 75.72 302.1 76.36C302.612 77 303.354 77.32 304.324 77.32ZM304.324 79.24C303.492 79.24 302.74 79.112 302.068 78.856C301.396 78.5893 300.826 78.2107 300.356 77.72C299.898 77.2187 299.54 76.6107 299.284 75.896C299.039 75.1813 298.916 74.376 298.916 73.48C298.916 72.584 299.039 71.784 299.284 71.08C299.54 70.3653 299.898 69.7627 300.356 69.272C300.826 68.7707 301.396 68.3867 302.068 68.12C302.74 67.8533 303.492 67.72 304.324 67.72C305.156 67.72 305.908 67.8533 306.58 68.12C307.252 68.3867 307.818 68.7707 308.276 69.272C308.746 69.7627 309.103 70.3653 309.348 71.08C309.604 71.784 309.732 72.584 309.732 73.48C309.732 74.376 309.604 75.1813 309.348 75.896C309.103 76.6107 308.746 77.2187 308.276 77.72C307.818 78.2107 307.252 78.5893 306.58 78.856C305.908 79.112 305.156 79.24 304.324 79.24ZM313.756 72.296C314.001 71.752 314.38 71.352 314.892 71.096C315.404 70.84 315.948 70.712 316.524 70.712C317.494 70.712 318.278 71.0587 318.876 71.752C319.473 72.4347 319.772 73.4427 319.772 74.776C319.772 75.4267 319.692 76.024 319.532 76.568C319.382 77.112 319.158 77.5813 318.86 77.976C318.572 78.36 318.214 78.664 317.788 78.888C317.361 79.1013 316.881 79.208 316.348 79.208C315.9 79.208 315.446 79.1227 314.988 78.952C314.54 78.7707 314.177 78.4613 313.9 78.024V82.36H311.628V70.92H312.94C313.484 70.92 313.756 71.16 313.756 71.64V72.296ZM313.836 75.064C313.836 75.8107 313.985 76.3973 314.284 76.824C314.593 77.24 315.046 77.448 315.644 77.448C315.964 77.448 316.236 77.384 316.46 77.256C316.694 77.128 316.881 76.952 317.02 76.728C317.169 76.4933 317.276 76.2213 317.34 75.912C317.414 75.6027 317.452 75.272 317.452 74.92C317.452 74.1307 317.308 73.528 317.02 73.112C316.732 72.6853 316.3 72.472 315.724 72.472C315.116 72.472 314.646 72.7067 314.316 73.176C313.996 73.6347 313.836 74.264 313.836 75.064ZM325.933 77.256V78.952C325.763 78.9947 325.576 79.0267 325.373 79.048C325.171 79.0693 324.931 79.08 324.653 79.08C323.693 79.08 322.989 78.8613 322.541 78.424C322.093 77.976 321.869 77.2507 321.869 76.248V72.648H320.669V70.92H321.869V68.984H324.141V70.92H325.933V72.648H324.141V76.04C324.141 76.52 324.248 76.8453 324.461 77.016C324.675 77.176 325.059 77.256 325.613 77.256H325.933ZM329.681 79H327.409V70.92H329.681V79ZM327.393 67.608H329.697V69.672H327.393V67.608ZM339.141 79H336.869V73.928C336.869 72.9893 336.49 72.52 335.733 72.52C335.253 72.52 334.874 72.6907 334.597 73.032C334.33 73.3627 334.197 73.848 334.197 74.488V79H331.925V70.92H333.221C333.765 70.92 334.037 71.1547 334.037 71.624V72.184C334.25 71.704 334.575 71.3413 335.013 71.096C335.461 70.84 335.973 70.712 336.549 70.712C337.125 70.712 337.605 70.84 337.989 71.096C338.383 71.3413 338.671 71.704 338.853 72.184C339.087 71.7147 339.429 71.352 339.877 71.096C340.325 70.84 340.853 70.712 341.461 70.712C342.303 70.712 342.949 70.9733 343.397 71.496C343.855 72.008 344.085 72.7493 344.085 73.72V79H341.813V73.928C341.813 72.9893 341.434 72.52 340.677 72.52C340.197 72.52 339.818 72.6907 339.541 73.032C339.274 73.3627 339.141 73.848 339.141 74.488V79ZM348.572 79H346.3V70.92H348.572V79ZM346.284 67.608H348.588V69.672H346.284V67.608ZM352.799 77.272H357.279V79H350.143V77.464L354.543 72.648H350.287V70.92H357.231V72.472L352.799 77.272ZM360.607 75.448C360.692 76.152 360.927 76.664 361.311 76.984C361.705 77.2933 362.249 77.448 362.943 77.448C363.316 77.448 363.673 77.4 364.015 77.304C364.356 77.208 364.66 77.0693 364.927 76.888L365.695 78.232C364.937 78.8827 363.94 79.208 362.703 79.208C361.967 79.208 361.327 79.1013 360.783 78.888C360.249 78.664 359.801 78.36 359.439 77.976C359.087 77.592 358.825 77.1387 358.655 76.616C358.484 76.0933 358.399 75.5333 358.399 74.936C358.399 74.2427 358.505 73.6347 358.719 73.112C358.932 72.5787 359.22 72.136 359.583 71.784C359.956 71.432 360.388 71.1653 360.879 70.984C361.38 70.8027 361.908 70.712 362.463 70.712C363.028 70.712 363.529 70.8027 363.967 70.984C364.404 71.1547 364.767 71.4 365.055 71.72C365.353 72.04 365.577 72.424 365.727 72.872C365.887 73.3093 365.967 73.8 365.967 74.344C365.967 74.5253 365.956 74.7173 365.935 74.92C365.924 75.112 365.897 75.288 365.855 75.448H360.607ZM362.463 72.376C361.951 72.376 361.535 72.5307 361.215 72.84C360.895 73.1493 360.708 73.576 360.655 74.12H363.919V73.912C363.919 73.4213 363.785 73.0427 363.519 72.776C363.263 72.5093 362.911 72.376 362.463 72.376ZM367.722 70.92H369.018C369.562 70.92 369.834 71.1547 369.834 71.624V72.616C370.004 72.072 370.287 71.64 370.682 71.32C371.087 70.9893 371.588 70.824 372.186 70.824C372.431 70.824 372.644 70.8507 372.826 70.904V72.76H372.362C371.551 72.76 370.954 72.968 370.57 73.384C370.186 73.8 369.994 74.4933 369.994 75.464V79H367.722V70.92Z" fill="#00285A"/>
<rect x="605" y="25" width="180" height="72" rx="36" fill="#00285A"/>
<path d="M663.468 55H661.132V43.96H663.468V55ZM665.862 46.92H667.158C667.702 46.92 667.974 47.1547 667.974 47.624V48.216C668.188 47.7573 668.524 47.3947 668.982 47.128C669.441 46.8507 669.99 46.712 670.63 46.712C671.494 46.712 672.161 46.9627 672.63 47.464C673.11 47.9653 673.35 48.7173 673.35 49.72V55H671.078V49.88C671.078 48.9413 670.662 48.472 669.83 48.472C669.308 48.472 668.892 48.6587 668.582 49.032C668.284 49.4053 668.134 49.9227 668.134 50.584V55H665.862V46.92ZM680.157 45.304H679.789C679.192 45.304 678.76 45.3947 678.493 45.576C678.237 45.7467 678.109 46.104 678.109 46.648V46.92H680.077V48.648H678.109V55H675.837V48.648H674.637V46.92H675.837V46.328C675.837 45.3893 676.109 44.68 676.653 44.2C677.197 43.72 677.987 43.48 679.021 43.48C679.203 43.48 679.4 43.4907 679.613 43.512C679.827 43.5227 680.008 43.5493 680.157 43.592V45.304ZM682.966 51.448C683.051 52.152 683.286 52.664 683.67 52.984C684.065 53.2933 684.609 53.448 685.302 53.448C685.675 53.448 686.033 53.4 686.374 53.304C686.715 53.208 687.019 53.0693 687.286 52.888L688.054 54.232C687.297 54.8827 686.299 55.208 685.062 55.208C684.326 55.208 683.686 55.1013 683.142 54.888C682.609 54.664 682.161 54.36 681.798 53.976C681.446 53.592 681.185 53.1387 681.014 52.616C680.843 52.0933 680.758 51.5333 680.758 50.936C680.758 50.2427 680.865 49.6347 681.078 49.112C681.291 48.5787 681.579 48.136 681.942 47.784C682.315 47.432 682.747 47.1653 683.238 46.984C683.739 46.8027 684.267 46.712 684.822 46.712C685.387 46.712 685.889 46.8027 686.326 46.984C686.763 47.1547 687.126 47.4 687.414 47.72C687.713 48.04 687.937 48.424 688.086 48.872C688.246 49.3093 688.326 49.8 688.326 50.344C688.326 50.5253 688.315 50.7173 688.294 50.92C688.283 51.112 688.257 51.288 688.214 51.448H682.966ZM684.822 48.376C684.31 48.376 683.894 48.5307 683.574 48.84C683.254 49.1493 683.067 49.576 683.014 50.12H686.278V49.912C686.278 49.4213 686.145 49.0427 685.878 48.776C685.622 48.5093 685.27 48.376 684.822 48.376ZM690.081 46.92H691.377C691.921 46.92 692.193 47.1547 692.193 47.624V48.616C692.364 48.072 692.646 47.64 693.041 47.32C693.446 46.9893 693.948 46.824 694.545 46.824C694.79 46.824 695.004 46.8507 695.185 46.904V48.76H694.721C693.91 48.76 693.313 48.968 692.929 49.384C692.545 49.8 692.353 50.4933 692.353 51.464V55H690.081V46.92ZM697.857 51.448C697.942 52.152 698.177 52.664 698.561 52.984C698.955 53.2933 699.499 53.448 700.193 53.448C700.566 53.448 700.923 53.4 701.265 53.304C701.606 53.208 701.91 53.0693 702.177 52.888L702.945 54.232C702.187 54.8827 701.19 55.208 699.953 55.208C699.217 55.208 698.577 55.1013 698.033 54.888C697.499 54.664 697.051 54.36 696.689 53.976C696.337 53.592 696.075 53.1387 695.905 52.616C695.734 52.0933 695.649 51.5333 695.649 50.936C695.649 50.2427 695.755 49.6347 695.969 49.112C696.182 48.5787 696.47 48.136 696.833 47.784C697.206 47.432 697.638 47.1653 698.129 46.984C698.63 46.8027 699.158 46.712 699.713 46.712C700.278 46.712 700.779 46.8027 701.217 46.984C701.654 47.1547 702.017 47.4 702.305 47.72C702.603 48.04 702.827 48.424 702.977 48.872C703.137 49.3093 703.217 49.8 703.217 50.344C703.217 50.5253 703.206 50.7173 703.185 50.92C703.174 51.112 703.147 51.288 703.105 51.448H697.857ZM699.713 48.376C699.201 48.376 698.785 48.5307 698.465 48.84C698.145 49.1493 697.958 49.576 697.905 50.12H701.169V49.912C701.169 49.4213 701.035 49.0427 700.769 48.776C700.513 48.5093 700.161 48.376 699.713 48.376ZM704.972 46.92H706.268C706.812 46.92 707.084 47.1547 707.084 47.624V48.216C707.297 47.7573 707.633 47.3947 708.092 47.128C708.55 46.8507 709.1 46.712 709.74 46.712C710.604 46.712 711.27 46.9627 711.74 47.464C712.22 47.9653 712.46 48.7173 712.46 49.72V55H710.188V49.88C710.188 48.9413 709.772 48.472 708.94 48.472C708.417 48.472 708.001 48.6587 707.692 49.032C707.393 49.4053 707.244 49.9227 707.244 50.584V55H704.972V46.92ZM716.547 50.952C716.547 51.7413 716.728 52.344 717.091 52.76C717.464 53.1653 718.024 53.368 718.771 53.368C719.08 53.368 719.379 53.3307 719.667 53.256C719.965 53.1707 720.221 53.0533 720.435 52.904L721.107 54.456C720.797 54.68 720.424 54.8613 719.987 55C719.549 55.1387 719.043 55.208 718.467 55.208C717.805 55.208 717.213 55.112 716.691 54.92C716.168 54.7173 715.725 54.4347 715.363 54.072C715 53.7093 714.717 53.2667 714.515 52.744C714.323 52.2213 714.227 51.6293 714.227 50.968C714.227 50.3067 714.328 49.7147 714.531 49.192C714.733 48.6693 715.016 48.2267 715.379 47.864C715.752 47.4907 716.2 47.208 716.723 47.016C717.256 46.8133 717.853 46.712 718.515 46.712C719.048 46.712 719.523 46.776 719.939 46.904C720.355 47.032 720.717 47.2027 721.027 47.416L720.339 48.968C720.136 48.8293 719.901 48.728 719.635 48.664C719.368 48.5893 719.085 48.552 718.787 48.552C718.104 48.552 717.56 48.7493 717.155 49.144C716.749 49.528 716.547 50.1307 716.547 50.952ZM724.153 51.448C724.239 52.152 724.473 52.664 724.857 52.984C725.252 53.2933 725.796 53.448 726.489 53.448C726.863 53.448 727.22 53.4 727.561 53.304C727.903 53.208 728.207 53.0693 728.473 52.888L729.241 54.232C728.484 54.8827 727.487 55.208 726.249 55.208C725.513 55.208 724.873 55.1013 724.329 54.888C723.796 54.664 723.348 54.36 722.985 53.976C722.633 53.592 722.372 53.1387 722.201 52.616C722.031 52.0933 721.945 51.5333 721.945 50.936C721.945 50.2427 722.052 49.6347 722.265 49.112C722.479 48.5787 722.767 48.136 723.129 47.784C723.503 47.432 723.935 47.1653 724.425 46.984C724.927 46.8027 725.455 46.712 726.009 46.712C726.575 46.712 727.076 46.8027 727.513 46.984C727.951 47.1547 728.313 47.4 728.601 47.72C728.9 48.04 729.124 48.424 729.273 48.872C729.433 49.3093 729.513 49.8 729.513 50.344C729.513 50.5253 729.503 50.7173 729.481 50.92C729.471 51.112 729.444 51.288 729.401 51.448H724.153ZM726.009 48.376C725.497 48.376 725.081 48.5307 724.761 48.84C724.441 49.1493 724.255 49.576 724.201 50.12H727.465V49.912C727.465 49.4213 727.332 49.0427 727.065 48.776C726.809 48.5093 726.457 48.376 726.009 48.376ZM672.952 74.312V77.176H678.248V79H670.616V67.96H678.152V69.784H672.952V72.488H677.352V74.312H672.952ZM679.909 70.92H681.205C681.749 70.92 682.021 71.1547 682.021 71.624V72.216C682.234 71.7573 682.57 71.3947 683.029 71.128C683.488 70.8507 684.037 70.712 684.677 70.712C685.541 70.712 686.208 70.9627 686.677 71.464C687.157 71.9653 687.397 72.7173 687.397 73.72V79H685.125V73.88C685.125 72.9413 684.709 72.472 683.877 72.472C683.354 72.472 682.938 72.6587 682.629 73.032C682.33 73.4053 682.181 73.9227 682.181 74.584V79H679.909V70.92ZM688.908 80.152C688.908 79.672 689.036 79.2773 689.292 78.968C689.559 78.6587 689.922 78.4453 690.38 78.328C690.007 78.232 689.73 78.0667 689.548 77.832C689.367 77.5867 689.276 77.304 689.276 76.984C689.276 76.5787 689.399 76.264 689.644 76.04C689.89 75.8053 690.183 75.656 690.524 75.592C690.183 75.3467 689.916 75.0427 689.724 74.68C689.543 74.3173 689.452 73.928 689.452 73.512C689.452 73.096 689.538 72.7173 689.708 72.376C689.89 72.024 690.135 71.7253 690.444 71.48C690.754 71.2347 691.122 71.048 691.548 70.92C691.986 70.7813 692.46 70.712 692.972 70.712C693.655 70.712 694.263 70.824 694.796 71.048H697.308V72.408H696.14C696.428 72.696 696.572 73.1227 696.572 73.688C696.572 74.5093 696.252 75.1547 695.612 75.624C694.972 76.0827 694.119 76.312 693.052 76.312C692.551 76.312 692.135 76.264 691.804 76.168C691.474 76.264 691.308 76.488 691.308 76.84C691.308 77.064 691.394 77.2347 691.564 77.352C691.735 77.4587 691.975 77.512 692.284 77.512H693.98C694.983 77.512 695.756 77.6987 696.3 78.072C696.844 78.4453 697.116 79 697.116 79.736C697.116 80.1733 697.01 80.568 696.796 80.92C696.594 81.272 696.3 81.5707 695.916 81.816C695.532 82.0613 695.068 82.248 694.524 82.376C693.991 82.504 693.388 82.568 692.716 82.568C691.522 82.568 690.588 82.3547 689.916 81.928C689.244 81.5013 688.908 80.9093 688.908 80.152ZM692.428 78.968C691.991 78.968 691.655 79.048 691.42 79.208C691.186 79.368 691.068 79.6187 691.068 79.96C691.068 80.3333 691.228 80.616 691.548 80.808C691.879 81.0107 692.354 81.112 692.972 81.112C693.602 81.112 694.082 81.0053 694.412 80.792C694.754 80.5893 694.924 80.2853 694.924 79.88C694.924 79.5707 694.812 79.3413 694.588 79.192C694.364 79.0427 694.002 78.968 693.5 78.968H692.428ZM694.428 73.512C694.428 73.096 694.3 72.7653 694.044 72.52C693.799 72.2747 693.452 72.152 693.004 72.152C692.556 72.152 692.21 72.2747 691.964 72.52C691.719 72.7653 691.596 73.096 691.596 73.512C691.596 73.928 691.719 74.2587 691.964 74.504C692.21 74.7493 692.556 74.872 693.004 74.872C693.452 74.872 693.799 74.7493 694.044 74.504C694.3 74.2587 694.428 73.928 694.428 73.512ZM700.962 79H698.69V70.92H700.962V79ZM698.674 67.608H700.978V69.672H698.674V67.608ZM703.206 70.92H704.502C705.046 70.92 705.318 71.1547 705.318 71.624V72.216C705.531 71.7573 705.867 71.3947 706.326 71.128C706.785 70.8507 707.334 70.712 707.974 70.712C708.838 70.712 709.505 70.9627 709.974 71.464C710.454 71.9653 710.694 72.7173 710.694 73.72V79H708.422V73.88C708.422 72.9413 708.006 72.472 707.174 72.472C706.651 72.472 706.235 72.6587 705.926 73.032C705.627 73.4053 705.478 73.9227 705.478 74.584V79H703.206V70.92ZM714.669 75.448C714.754 76.152 714.989 76.664 715.373 76.984C715.768 77.2933 716.312 77.448 717.005 77.448C717.378 77.448 717.736 77.4 718.077 77.304C718.418 77.208 718.722 77.0693 718.989 76.888L719.757 78.232C719 78.8827 718.002 79.208 716.765 79.208C716.029 79.208 715.389 79.1013 714.845 78.888C714.312 78.664 713.864 78.36 713.501 77.976C713.149 77.592 712.888 77.1387 712.717 76.616C712.546 76.0933 712.461 75.5333 712.461 74.936C712.461 74.2427 712.568 73.6347 712.781 73.112C712.994 72.5787 713.282 72.136 713.645 71.784C714.018 71.432 714.45 71.1653 714.941 70.984C715.442 70.8027 715.97 70.712 716.525 70.712C717.09 70.712 717.592 70.8027 718.029 70.984C718.466 71.1547 718.829 71.4 719.117 71.72C719.416 72.04 719.64 72.424 719.789 72.872C719.949 73.3093 720.029 73.8 720.029 74.344C720.029 74.5253 720.018 74.7173 719.997 74.92C719.986 75.112 719.96 75.288 719.917 75.448H714.669ZM716.525 72.376C716.013 72.376 715.597 72.5307 715.277 72.84C714.957 73.1493 714.77 73.576 714.717 74.12H717.981V73.912C717.981 73.4213 717.848 73.0427 717.581 72.776C717.325 72.5093 716.973 72.376 716.525 72.376Z" fill="white"/>
<path d="M559 43.875H470V79.125C470 82.3697 489.923 85 514.5 85C539.077 85 559 82.3697 559 79.125V43.875Z" fill="#00285A"/>
<ellipse cx="514.5" cy="43.875" rx="44.5" ry="5.875" fill="#0068B5"/>
<path d="M559 101.875H470V137.125C470 140.37 489.923 143 514.5 143C539.077 143 559 140.37 559 137.125V101.875Z" fill="#00285A"/>
<ellipse cx="514.5" cy="101.875" rx="44.5" ry="5.875" fill="#0068B5"/>
<path d="M559 159.875H470V195.125C470 198.37 489.923 201 514.5 201C539.077 201 559 198.37 559 195.125V159.875Z" fill="#00285A"/>
<ellipse cx="514.5" cy="159.875" rx="44.5" ry="5.875" fill="#0068B5"/>
<path d="M495.616 76V74.746H496.771V76H495.616ZM500.597 73.184L502.632 76H501.499L500.025 73.877L498.54 76H497.473L499.508 73.195L497.605 70.5H498.727L500.08 72.513L501.433 70.5H502.5L500.597 73.184ZM510.6 76V72.568C510.6 72.106 510.519 71.765 510.358 71.545C510.196 71.3177 509.921 71.204 509.533 71.204C509.085 71.204 508.73 71.3653 508.466 71.688C508.202 72.0107 508.07 72.458 508.07 73.03V76H507.091V72.568C507.091 72.106 507.01 71.765 506.849 71.545C506.687 71.3177 506.412 71.204 506.024 71.204C505.576 71.204 505.221 71.3653 504.957 71.688C504.693 72.0107 504.561 72.458 504.561 73.03V76H503.582V70.5H504.088C504.388 70.5 504.539 70.632 504.539 70.896V71.248C504.707 70.9693 504.931 70.753 505.21 70.599C505.496 70.4377 505.822 70.357 506.189 70.357C506.585 70.357 506.922 70.445 507.201 70.621C507.487 70.7897 507.703 71.039 507.85 71.369C508.018 71.039 508.264 70.7897 508.587 70.621C508.909 70.445 509.28 70.357 509.698 70.357C510.292 70.357 510.754 70.544 511.084 70.918C511.414 71.292 511.579 71.8127 511.579 72.48V76H510.6ZM514.228 68.113V74.504C514.228 74.812 514.276 75.0137 514.371 75.109C514.474 75.197 514.657 75.241 514.921 75.241H514.998V76.011C514.932 76.0257 514.862 76.0367 514.789 76.044C514.716 76.0513 514.639 76.055 514.558 76.055C514.118 76.055 513.788 75.9377 513.568 75.703C513.355 75.461 513.249 75.0833 513.249 74.57V68.113H514.228ZM518.765 76V74.746H519.92V76H518.765ZM522.371 68.113V71.347C522.533 71.0463 522.778 70.808 523.108 70.632C523.446 70.4487 523.831 70.357 524.263 70.357C524.645 70.357 524.982 70.423 525.275 70.555C525.576 70.687 525.825 70.8777 526.023 71.127C526.229 71.369 526.383 71.6623 526.485 72.007C526.595 72.3443 526.65 72.722 526.65 73.14C526.65 73.5727 526.595 73.9723 526.485 74.339C526.375 74.7057 526.214 75.0247 526.001 75.296C525.789 75.56 525.525 75.769 525.209 75.923C524.894 76.0697 524.531 76.143 524.12 76.143C523.717 76.143 523.361 76.066 523.053 75.912C522.753 75.7507 522.518 75.5307 522.349 75.252V75.604C522.349 75.868 522.199 76 521.898 76H521.392V68.113H522.371ZM522.349 73.305C522.349 73.9283 522.492 74.416 522.778 74.768C523.072 75.12 523.479 75.296 523.999 75.296C524.527 75.296 524.931 75.1127 525.209 74.746C525.488 74.3793 525.627 73.8623 525.627 73.195C525.627 72.5497 525.495 72.0583 525.231 71.721C524.975 71.3763 524.593 71.204 524.087 71.204C523.537 71.204 523.108 71.3947 522.8 71.776C522.5 72.15 522.349 72.6597 522.349 73.305ZM529.01 76H528.031V70.5H529.01V76ZM528.009 68.3H529.032V69.4H528.009V68.3ZM531.684 71.325C531.853 71.0243 532.095 70.7897 532.41 70.621C532.733 70.445 533.118 70.357 533.565 70.357C534.196 70.357 534.676 70.5367 535.006 70.896C535.343 71.2553 535.512 71.7833 535.512 72.48V76H534.533V72.579C534.533 72.1097 534.434 71.765 534.236 71.545C534.045 71.3177 533.741 71.204 533.323 71.204C532.839 71.204 532.447 71.3653 532.146 71.688C531.853 72.0107 531.706 72.469 531.706 73.063V76H530.727V70.5H531.233C531.534 70.5 531.684 70.632 531.684 70.896V71.325Z" fill="white"/>
<path d="M491.532 181.435H492.585C493.027 181.435 493.248 181.626 493.248 182.007V182.488C493.421 182.115 493.694 181.821 494.067 181.604C494.439 181.379 494.886 181.266 495.406 181.266C496.108 181.266 496.649 181.47 497.031 181.877C497.421 182.284 497.616 182.895 497.616 183.71V188H495.77V183.84C495.77 183.077 495.432 182.696 494.756 182.696C494.331 182.696 493.993 182.848 493.742 183.151C493.499 183.454 493.378 183.875 493.378 184.412V188H491.532V181.435ZM504.004 186.635C504.429 186.635 504.776 186.605 505.044 186.544V184.659H503.328V183.177H506.812V187.506C506.57 187.671 506.184 187.827 505.655 187.974C505.135 188.121 504.537 188.195 503.861 188.195C503.159 188.195 502.518 188.1 501.937 187.909C501.365 187.71 500.871 187.415 500.455 187.025C500.048 186.635 499.732 186.15 499.506 185.569C499.29 184.988 499.181 184.312 499.181 183.541C499.181 182.804 499.29 182.146 499.506 181.565C499.723 180.976 500.035 180.482 500.442 180.083C500.858 179.676 501.357 179.368 501.937 179.16C502.527 178.943 503.194 178.835 503.939 178.835C504.555 178.835 505.096 178.904 505.564 179.043C506.032 179.182 506.422 179.368 506.734 179.602L506.032 180.915C505.772 180.759 505.482 180.633 505.161 180.538C504.849 180.443 504.481 180.395 504.056 180.395C503.086 180.395 502.358 180.659 501.872 181.188C501.396 181.708 501.157 182.484 501.157 183.515C501.157 184.538 501.396 185.313 501.872 185.842C502.349 186.371 503.06 186.635 504.004 186.635ZM508.505 181.435H509.558C510 181.435 510.221 181.626 510.221 182.007V182.813C510.36 182.371 510.59 182.02 510.91 181.76C511.24 181.491 511.647 181.357 512.132 181.357C512.332 181.357 512.505 181.379 512.652 181.422V182.93H512.275C511.617 182.93 511.131 183.099 510.819 183.437C510.507 183.775 510.351 184.338 510.351 185.127V188H508.505V181.435ZM513.089 186.154C513.089 185.469 513.336 184.949 513.83 184.594C514.324 184.23 515.005 184.048 515.871 184.048H516.937V183.788C516.937 183.407 516.833 183.129 516.625 182.956C516.426 182.774 516.105 182.683 515.663 182.683C515.334 182.683 515.018 182.731 514.714 182.826C514.411 182.921 514.134 183.056 513.882 183.229L513.245 182.15C513.609 181.873 514.021 181.656 514.48 181.5C514.94 181.344 515.434 181.266 515.962 181.266C516.864 181.266 517.54 181.483 517.99 181.916C518.45 182.349 518.679 182.973 518.679 183.788V186.31C518.679 186.509 518.714 186.644 518.783 186.713C518.853 186.774 518.978 186.804 519.16 186.804H519.303V187.935C519.208 187.97 519.095 188 518.965 188.026C518.835 188.052 518.679 188.065 518.497 188.065C518.116 188.065 517.83 187.987 517.639 187.831C517.449 187.675 517.336 187.445 517.301 187.142C517.145 187.454 516.885 187.701 516.521 187.883C516.157 188.065 515.741 188.156 515.273 188.156C514.615 188.156 514.086 187.978 513.687 187.623C513.289 187.268 513.089 186.778 513.089 186.154ZM515.741 186.83C516.114 186.83 516.404 186.709 516.612 186.466C516.829 186.223 516.937 185.881 516.937 185.439V185.101H516.04C515.659 185.101 515.364 185.179 515.156 185.335C514.957 185.482 514.857 185.708 514.857 186.011C514.857 186.288 514.935 186.496 515.091 186.635C515.256 186.765 515.473 186.83 515.741 186.83ZM522.231 182.553C522.431 182.111 522.738 181.786 523.154 181.578C523.57 181.37 524.012 181.266 524.48 181.266C525.269 181.266 525.906 181.548 526.391 182.111C526.877 182.666 527.119 183.485 527.119 184.568C527.119 185.097 527.054 185.582 526.924 186.024C526.803 186.466 526.621 186.847 526.378 187.168C526.144 187.48 525.854 187.727 525.507 187.909C525.161 188.082 524.771 188.169 524.337 188.169C523.973 188.169 523.605 188.1 523.232 187.961C522.868 187.814 522.574 187.562 522.348 187.207V190.73H520.502V181.435H521.568C522.01 181.435 522.231 181.63 522.231 182.02V182.553ZM522.296 184.802C522.296 185.409 522.418 185.885 522.66 186.232C522.912 186.57 523.28 186.739 523.765 186.739C524.025 186.739 524.246 186.687 524.428 186.583C524.619 186.479 524.771 186.336 524.883 186.154C525.005 185.963 525.091 185.742 525.143 185.491C525.204 185.24 525.234 184.971 525.234 184.685C525.234 184.044 525.117 183.554 524.883 183.216C524.649 182.869 524.298 182.696 523.83 182.696C523.336 182.696 522.955 182.887 522.686 183.268C522.426 183.641 522.296 184.152 522.296 184.802ZM528.577 178.679H530.423V182.267C530.622 181.955 530.891 181.712 531.229 181.539C531.575 181.357 531.974 181.266 532.425 181.266C533.17 181.266 533.729 181.478 534.102 181.903C534.474 182.319 534.661 182.921 534.661 183.71V188H532.815V183.84C532.815 183.077 532.477 182.696 531.801 182.696C531.385 182.696 531.051 182.848 530.8 183.151C530.548 183.446 530.423 183.862 530.423 184.399V188H528.577V178.679ZM538.598 179.72L538.418 181.136L539.63 180.476L540.062 181.616L538.73 181.988L539.798 183.116L538.79 183.86L537.962 182.516L537.134 183.86L536.126 183.116L537.17 181.976L535.862 181.616L536.294 180.476L537.47 181.124L537.326 179.72H538.598Z" fill="white"/>
<path d="M501.299 127.635C502.087 127.635 502.685 127.375 503.093 126.855C503.509 126.335 503.717 125.555 503.717 124.515C503.717 123.484 503.509 122.708 503.093 122.188C502.685 121.659 502.087 121.395 501.299 121.395C500.51 121.395 499.908 121.659 499.492 122.188C499.084 122.708 498.881 123.484 498.881 124.515C498.881 125.555 499.084 126.335 499.492 126.855C499.908 127.375 500.51 127.635 501.299 127.635ZM501.299 129.195C500.623 129.195 500.012 129.091 499.466 128.883C498.92 128.666 498.456 128.359 498.075 127.96C497.702 127.553 497.412 127.059 497.204 126.478C497.004 125.897 496.905 125.243 496.905 124.515C496.905 123.787 497.004 123.137 497.204 122.565C497.412 121.984 497.702 121.495 498.075 121.096C498.456 120.689 498.92 120.377 499.466 120.16C500.012 119.943 500.623 119.835 501.299 119.835C501.975 119.835 502.586 119.943 503.132 120.16C503.678 120.377 504.137 120.689 504.51 121.096C504.891 121.495 505.181 121.984 505.381 122.565C505.589 123.137 505.693 123.787 505.693 124.515C505.693 125.243 505.589 125.897 505.381 126.478C505.181 127.059 504.891 127.553 504.51 127.96C504.137 128.359 503.678 128.666 503.132 128.883C502.586 129.091 501.975 129.195 501.299 129.195ZM509.456 120.03L512.94 126.465V120.03H514.734V129H512.641L509.157 122.682V129H507.363V120.03H509.456ZM518.901 120.03L522.385 126.465V120.03H524.179V129H522.086L518.602 122.682V129H516.808V120.03H518.901ZM525.291 129L528.346 124.333L525.551 120.03H527.735L529.451 122.994L531.284 120.03H533.377L530.465 124.294L533.637 129H531.44L529.36 125.659L527.384 129H525.291Z" fill="white"/>
<path d="M511.313 66H509.415V57.03H511.313V66ZM519.927 59.656C519.927 60.2713 519.754 60.8087 519.407 61.268C519.06 61.7187 518.592 62.0133 518.003 62.152L520.551 66H518.367L516.469 62.88C516.374 62.724 516.283 62.62 516.196 62.568C516.109 62.516 515.975 62.49 515.793 62.49H515.234V66H513.388V57.03H516.833C517.31 57.03 517.739 57.0907 518.12 57.212C518.501 57.3333 518.826 57.5067 519.095 57.732C519.364 57.9573 519.567 58.2347 519.706 58.564C519.853 58.8847 519.927 59.2487 519.927 59.656ZM518.042 59.799C518.042 59.357 517.925 59.032 517.691 58.824C517.457 58.616 517.08 58.512 516.56 58.512H515.234V61.138H516.521C517.015 61.138 517.392 61.0253 517.652 60.8C517.912 60.5747 518.042 60.241 518.042 59.799Z" fill="white"/>
<rect x="605" y="129" width="180" height="72" rx="36" fill="#00285A"/>
<path d="M683.581 159.24C682.045 159.24 680.898 158.84 680.141 158.04C679.384 157.229 679.005 156.045 679.005 154.488V147.96H681.341V154.744C681.341 155.587 681.522 156.227 681.885 156.664C682.258 157.101 682.824 157.32 683.581 157.32C684.328 157.32 684.882 157.101 685.245 156.664C685.618 156.227 685.805 155.587 685.805 154.744V147.96H688.141V154.488C688.141 156.056 687.757 157.24 686.989 158.04C686.232 158.84 685.096 159.24 683.581 159.24ZM693.56 152.44C693.186 152.44 692.893 152.504 692.68 152.632C692.466 152.749 692.36 152.931 692.36 153.176C692.36 153.379 692.424 153.539 692.552 153.656C692.68 153.763 692.85 153.848 693.064 153.912L694.28 154.28C695.026 154.504 695.576 154.797 695.928 155.16C696.29 155.512 696.472 155.992 696.472 156.6C696.472 157.411 696.168 158.051 695.56 158.52C694.962 158.979 694.141 159.208 693.096 159.208C692.434 159.208 691.826 159.117 691.272 158.936C690.717 158.744 690.226 158.477 689.8 158.136L690.648 156.696C691 156.941 691.378 157.133 691.784 157.272C692.2 157.411 692.605 157.48 693 157.48C693.373 157.48 693.666 157.411 693.88 157.272C694.093 157.133 694.2 156.92 694.2 156.632C694.2 156.44 694.141 156.285 694.024 156.168C693.917 156.04 693.725 155.933 693.448 155.848L692.12 155.464C691.458 155.272 690.952 154.995 690.6 154.632C690.258 154.259 690.088 153.773 690.088 153.176C690.088 152.771 690.168 152.419 690.328 152.12C690.488 151.811 690.706 151.555 690.984 151.352C691.272 151.139 691.613 150.979 692.008 150.872C692.402 150.765 692.834 150.712 693.304 150.712C693.88 150.712 694.44 150.792 694.984 150.952C695.528 151.101 695.986 151.315 696.36 151.592L695.64 153.032C694.978 152.637 694.285 152.44 693.56 152.44ZM699.966 155.448C700.051 156.152 700.286 156.664 700.67 156.984C701.065 157.293 701.609 157.448 702.302 157.448C702.675 157.448 703.033 157.4 703.374 157.304C703.715 157.208 704.019 157.069 704.286 156.888L705.054 158.232C704.297 158.883 703.299 159.208 702.062 159.208C701.326 159.208 700.686 159.101 700.142 158.888C699.609 158.664 699.161 158.36 698.798 157.976C698.446 157.592 698.185 157.139 698.014 156.616C697.843 156.093 697.758 155.533 697.758 154.936C697.758 154.243 697.865 153.635 698.078 153.112C698.291 152.579 698.579 152.136 698.942 151.784C699.315 151.432 699.747 151.165 700.238 150.984C700.739 150.803 701.267 150.712 701.822 150.712C702.387 150.712 702.889 150.803 703.326 150.984C703.763 151.155 704.126 151.4 704.414 151.72C704.713 152.04 704.937 152.424 705.086 152.872C705.246 153.309 705.326 153.8 705.326 154.344C705.326 154.525 705.315 154.717 705.294 154.92C705.283 155.112 705.257 155.288 705.214 155.448H699.966ZM701.822 152.376C701.31 152.376 700.894 152.531 700.574 152.84C700.254 153.149 700.067 153.576 700.014 154.12H703.278V153.912C703.278 153.421 703.145 153.043 702.878 152.776C702.622 152.509 702.27 152.376 701.822 152.376ZM707.081 150.92H708.377C708.921 150.92 709.193 151.155 709.193 151.624V152.616C709.364 152.072 709.646 151.64 710.041 151.32C710.446 150.989 710.948 150.824 711.545 150.824C711.79 150.824 712.004 150.851 712.185 150.904V152.76H711.721C710.91 152.76 710.313 152.968 709.929 153.384C709.545 153.8 709.353 154.493 709.353 155.464V159H707.081V150.92ZM659.059 180.248H655.251L654.403 183H651.955L656.035 171.96H658.403L662.483 183H659.923L659.059 180.248ZM655.763 178.568H658.531L657.123 174.12L655.763 178.568ZM665.795 176.296C666.04 175.752 666.419 175.352 666.931 175.096C667.443 174.84 667.987 174.712 668.563 174.712C669.534 174.712 670.318 175.059 670.915 175.752C671.512 176.435 671.811 177.443 671.811 178.776C671.811 179.427 671.731 180.024 671.571 180.568C671.422 181.112 671.198 181.581 670.899 181.976C670.611 182.36 670.254 182.664 669.827 182.888C669.4 183.101 668.92 183.208 668.387 183.208C667.939 183.208 667.486 183.123 667.027 182.952C666.579 182.771 666.216 182.461 665.939 182.024V186.36H663.667V174.92H664.979C665.523 174.92 665.795 175.16 665.795 175.64V176.296ZM665.875 179.064C665.875 179.811 666.024 180.397 666.323 180.824C666.632 181.24 667.086 181.448 667.683 181.448C668.003 181.448 668.275 181.384 668.499 181.256C668.734 181.128 668.92 180.952 669.059 180.728C669.208 180.493 669.315 180.221 669.379 179.912C669.454 179.603 669.491 179.272 669.491 178.92C669.491 178.131 669.347 177.528 669.059 177.112C668.771 176.685 668.339 176.472 667.763 176.472C667.155 176.472 666.686 176.707 666.355 177.176C666.035 177.635 665.875 178.264 665.875 179.064ZM675.732 176.296C675.978 175.752 676.356 175.352 676.868 175.096C677.38 174.84 677.924 174.712 678.5 174.712C679.471 174.712 680.255 175.059 680.852 175.752C681.45 176.435 681.748 177.443 681.748 178.776C681.748 179.427 681.668 180.024 681.508 180.568C681.359 181.112 681.135 181.581 680.836 181.976C680.548 182.36 680.191 182.664 679.764 182.888C679.338 183.101 678.858 183.208 678.324 183.208C677.876 183.208 677.423 183.123 676.964 182.952C676.516 182.771 676.154 182.461 675.876 182.024V186.36H673.604V174.92H674.916C675.46 174.92 675.732 175.16 675.732 175.64V176.296ZM675.812 179.064C675.812 179.811 675.962 180.397 676.26 180.824C676.57 181.24 677.023 181.448 677.62 181.448C677.94 181.448 678.212 181.384 678.436 181.256C678.671 181.128 678.858 180.952 678.996 180.728C679.146 180.493 679.252 180.221 679.316 179.912C679.391 179.603 679.428 179.272 679.428 178.92C679.428 178.131 679.284 177.528 678.996 177.112C678.708 176.685 678.276 176.472 677.7 176.472C677.092 176.472 676.623 176.707 676.292 177.176C675.972 177.635 675.812 178.264 675.812 179.064ZM685.782 171.528V180.248C685.782 180.675 685.846 180.957 685.974 181.096C686.113 181.224 686.385 181.288 686.79 181.288H686.934V183C686.699 183.053 686.358 183.08 685.91 183.08C685.046 183.08 684.427 182.867 684.054 182.44C683.691 182.013 683.51 181.373 683.51 180.52V171.528H685.782ZM690.876 183H688.604V174.92H690.876V183ZM688.588 171.608H690.892V173.672H688.588V171.608ZM694.992 178.952C694.992 179.741 695.173 180.344 695.536 180.76C695.909 181.165 696.469 181.368 697.216 181.368C697.525 181.368 697.824 181.331 698.112 181.256C698.411 181.171 698.667 181.053 698.88 180.904L699.552 182.456C699.243 182.68 698.869 182.861 698.432 183C697.995 183.139 697.488 183.208 696.912 183.208C696.251 183.208 695.659 183.112 695.136 182.92C694.613 182.717 694.171 182.435 693.808 182.072C693.445 181.709 693.163 181.267 692.96 180.744C692.768 180.221 692.672 179.629 692.672 178.968C692.672 178.307 692.773 177.715 692.976 177.192C693.179 176.669 693.461 176.227 693.824 175.864C694.197 175.491 694.645 175.208 695.168 175.016C695.701 174.813 696.299 174.712 696.96 174.712C697.493 174.712 697.968 174.776 698.384 174.904C698.8 175.032 699.163 175.203 699.472 175.416L698.784 176.968C698.581 176.829 698.347 176.728 698.08 176.664C697.813 176.589 697.531 176.552 697.232 176.552C696.549 176.552 696.005 176.749 695.6 177.144C695.195 177.528 694.992 178.131 694.992 178.952ZM700.387 180.728C700.387 179.885 700.691 179.245 701.299 178.808C701.907 178.36 702.744 178.136 703.811 178.136H705.123V177.816C705.123 177.347 704.995 177.005 704.739 176.792C704.494 176.568 704.099 176.456 703.555 176.456C703.15 176.456 702.76 176.515 702.387 176.632C702.014 176.749 701.672 176.915 701.363 177.128L700.579 175.8C701.027 175.459 701.534 175.192 702.099 175C702.664 174.808 703.272 174.712 703.923 174.712C705.032 174.712 705.864 174.979 706.419 175.512C706.984 176.045 707.267 176.813 707.267 177.816V180.92C707.267 181.165 707.31 181.331 707.395 181.416C707.48 181.491 707.635 181.528 707.859 181.528H708.035V182.92C707.918 182.963 707.779 183 707.619 183.032C707.459 183.064 707.267 183.08 707.043 183.08C706.574 183.08 706.222 182.984 705.987 182.792C705.752 182.6 705.614 182.317 705.571 181.944C705.379 182.328 705.059 182.632 704.611 182.856C704.163 183.08 703.651 183.192 703.075 183.192C702.264 183.192 701.614 182.973 701.123 182.536C700.632 182.099 700.387 181.496 700.387 180.728ZM703.651 181.56C704.11 181.56 704.467 181.411 704.723 181.112C704.99 180.813 705.123 180.392 705.123 179.848V179.432H704.019C703.55 179.432 703.187 179.528 702.931 179.72C702.686 179.901 702.563 180.179 702.563 180.552C702.563 180.893 702.659 181.149 702.851 181.32C703.054 181.48 703.32 181.56 703.651 181.56ZM713.879 181.256V182.952C713.708 182.995 713.521 183.027 713.319 183.048C713.116 183.069 712.876 183.08 712.599 183.08C711.639 183.08 710.935 182.861 710.487 182.424C710.039 181.976 709.815 181.251 709.815 180.248V176.648H708.615V174.92H709.815V172.984H712.087V174.92H713.879V176.648H712.087V180.04C712.087 180.52 712.193 180.845 712.407 181.016C712.62 181.176 713.004 181.256 713.559 181.256H713.879ZM717.626 183H715.354V174.92H717.626V183ZM715.338 171.608H717.642V173.672H715.338V171.608ZM727.742 178.952C727.742 179.624 727.641 180.227 727.438 180.76C727.246 181.283 726.969 181.725 726.606 182.088C726.243 182.451 725.806 182.728 725.294 182.92C724.782 183.112 724.211 183.208 723.582 183.208C722.953 183.208 722.382 183.112 721.87 182.92C721.358 182.728 720.921 182.451 720.558 182.088C720.195 181.725 719.913 181.283 719.71 180.76C719.518 180.227 719.422 179.624 719.422 178.952C719.422 178.28 719.518 177.683 719.71 177.16C719.913 176.637 720.195 176.195 720.558 175.832C720.921 175.469 721.358 175.192 721.87 175C722.382 174.808 722.953 174.712 723.582 174.712C724.211 174.712 724.782 174.808 725.294 175C725.806 175.192 726.243 175.469 726.606 175.832C726.969 176.195 727.246 176.637 727.438 177.16C727.641 177.683 727.742 178.28 727.742 178.952ZM725.422 178.952C725.422 178.131 725.262 177.512 724.942 177.096C724.633 176.68 724.179 176.472 723.582 176.472C722.985 176.472 722.526 176.68 722.206 177.096C721.897 177.512 721.742 178.131 721.742 178.952C721.742 179.784 721.897 180.408 722.206 180.824C722.526 181.24 722.985 181.448 723.582 181.448C724.179 181.448 724.633 181.24 724.942 180.824C725.262 180.408 725.422 179.784 725.422 178.952ZM729.526 174.92H730.822C731.366 174.92 731.638 175.155 731.638 175.624V176.216C731.852 175.757 732.188 175.395 732.646 175.128C733.105 174.851 733.654 174.712 734.294 174.712C735.158 174.712 735.825 174.963 736.294 175.464C736.774 175.965 737.014 176.717 737.014 177.72V183H734.742V177.88C734.742 176.941 734.326 176.472 733.494 176.472C732.972 176.472 732.556 176.659 732.246 177.032C731.948 177.405 731.798 177.923 731.798 178.584V183H729.526V174.92Z" fill="white"/>
<path d="M224 66L234 60.5L224 55V60H210L210 61H224V66Z" fill="#C9CACE"/>
<path d="M448 66L458 60.5L448 55V60H434L434 61H448V66Z" fill="#C9CACE"/>
<path d="M448 124L458 118.5L448 113V118H434L434 119H448V124Z" fill="#C9CACE"/>
<path d="M589 52L599 46.5L589 41V46H575L575 47H589V52Z" fill="#C9CACE"/>
<path d="M589 67L599 61.5L589 56V61H577L577 62H589V67Z" fill="#C9CACE"/>
<path d="M589 82L599 76.5L589 71V76H583L583 77H589V82Z" fill="#C9CACE"/>
<path d="M718 112L712.5 102L707 112L712 112L712 126L713 126L713 112L718 112Z" fill="#C9CACE"/>
<path d="M672 114L677.5 124L683 114L678 114L678 100L677 100L677 114L672 114Z" fill="#C9CACE"/>
</svg>
