<?xml version="1.0" encoding="UTF-8" standalone="no"?>
<!DOCTYPE svg PUBLIC "-//W3C//DTD SVG 1.1//EN"
 "http://www.w3.org/Graphics/SVG/1.1/DTD/svg11.dtd">
<!-- Generated by graphviz version 2.43.20200408.0903 (20200408.0903)
 -->
<!-- Title: ngraph Pages: 1 -->
<svg width="1941pt" height="881pt"
 viewBox="0.00 0.00 1940.50 881.00" xmlns="http://www.w3.org/2000/svg" xmlns:xlink="http://www.w3.org/1999/xlink">
<g id="graph0" class="graph" transform="scale(1 1) rotate(0) translate(4 877)">
<title>ngraph</title>
<polygon fill="white" stroke="transparent" points="-4,4 -4,-877 1936.5,-877 1936.5,4 -4,4"/>
<!-- Convolution_93 -->
<g id="node1" class="node">
<title>Convolution_93</title>
<polygon fill="none" stroke="black" points="931.5,-217 677.5,-217 677.5,-119 931.5,-119 931.5,-217"/>
<text text-anchor="middle" x="804.5" y="-201.8" font-family="Times New Roman,serif" font-size="14.00">friendly_name: output</text>
<text text-anchor="middle" x="804.5" y="-186.8" font-family="Times New Roman,serif" font-size="14.00">name: Convolution_93</text>
<text text-anchor="middle" x="804.5" y="-171.8" font-family="Times New Roman,serif" font-size="14.00">type_name: Convolution</text>
<text text-anchor="middle" x="804.5" y="-156.8" font-family="Times New Roman,serif" font-size="14.00">in0: {f32}[1,3,9,9]: MaxPool_86: out0</text>
<text text-anchor="middle" x="804.5" y="-141.8" font-family="Times New Roman,serif" font-size="14.00">in1: {f32}[6,3,1,1]: FakeQuantize_92: out0</text>
<text text-anchor="middle" x="804.5" y="-126.8" font-family="Times New Roman,serif" font-size="14.00">out0: {f32}[1,6,9,9]</text>
</g>
<!-- Result_94 -->
<g id="node2" class="node">
<title>Result_94</title>
<polygon fill="none" stroke="crimson" stroke-width="1.5" points="928,-68 681,-68 681,0 928,0 928,-68"/>
<text text-anchor="middle" x="804.5" y="-52.8" font-family="Times New Roman,serif" font-size="14.00">friendly_name: Result_94</text>
<text text-anchor="middle" x="804.5" y="-37.8" font-family="Times New Roman,serif" font-size="14.00">type_name: Result</text>
<text text-anchor="middle" x="804.5" y="-22.8" font-family="Times New Roman,serif" font-size="14.00">in0: {f32}[1,6,9,9]: Convolution_93: out0</text>
<text text-anchor="middle" x="804.5" y="-7.8" font-family="Times New Roman,serif" font-size="14.00">out0: {f32}[1,6,9,9]</text>
</g>
<!-- Convolution_93&#45;&gt;Result_94 -->
<g id="edge1" class="edge">
<title>Convolution_93&#45;&gt;Result_94</title>
<path fill="none" stroke="black" d="M804.5,-118.97C804.5,-105.71 804.5,-91.4 804.5,-78.42"/>
<polygon fill="black" stroke="black" points="808,-78.33 804.5,-68.33 801,-78.33 808,-78.33"/>
<text text-anchor="middle" x="825.5" y="-89.8" font-family="Times New Roman,serif" font-size="14.00"> 0 &#45;&gt; 0 </text>
</g>
<!-- MaxPool_86 -->
<g id="node3" class="node">
<title>MaxPool_86</title>
<polygon fill="none" stroke="black" points="794,-381 567,-381 567,-298 794,-298 794,-381"/>
<text text-anchor="middle" x="680.5" y="-365.8" font-family="Times New Roman,serif" font-size="14.00">friendly_name: maxPool</text>
<text text-anchor="middle" x="680.5" y="-350.8" font-family="Times New Roman,serif" font-size="14.00">name: MaxPool_86</text>
<text text-anchor="middle" x="680.5" y="-335.8" font-family="Times New Roman,serif" font-size="14.00">type_name: MaxPool</text>
<text text-anchor="middle" x="680.5" y="-320.8" font-family="Times New Roman,serif" font-size="14.00">in0: {f32}[1,3,9,9]: AvgPool_85: out0</text>
<text text-anchor="middle" x="680.5" y="-305.8" font-family="Times New Roman,serif" font-size="14.00">out0: {f32}[1,3,9,9]</text>
</g>
<!-- MaxPool_86&#45;&gt;Convolution_93 -->
<g id="edge2" class="edge">
<title>MaxPool_86&#45;&gt;Convolution_93</title>
<path fill="none" stroke="black" d="M710.2,-297.9C726.1,-276.17 745.92,-249.07 763.28,-225.34"/>
<polygon fill="black" stroke="black" points="766.23,-227.23 769.31,-217.1 760.58,-223.1 766.23,-227.23"/>
<text text-anchor="middle" x="775.5" y="-238.8" font-family="Times New Roman,serif" font-size="14.00"> 0 &#45;&gt; 0 </text>
</g>
<!-- FakeQuantize_92 -->
<g id="node4" class="node">
<title>FakeQuantize_92</title>
<polygon fill="none" stroke="black" points="1271,-411 1034,-411 1034,-268 1271,-268 1271,-411"/>
<text text-anchor="middle" x="1152.5" y="-395.8" font-family="Times New Roman,serif" font-size="14.00">friendly_name: fakeQuantizeOnWeights</text>
<text text-anchor="middle" x="1152.5" y="-380.8" font-family="Times New Roman,serif" font-size="14.00">name: FakeQuantize_92</text>
<text text-anchor="middle" x="1152.5" y="-365.8" font-family="Times New Roman,serif" font-size="14.00">type_name: FakeQuantize</text>
<text text-anchor="middle" x="1152.5" y="-350.8" font-family="Times New Roman,serif" font-size="14.00">in0: {f32}[6,3,1,1]: Constant_87: out0</text>
<text text-anchor="middle" x="1152.5" y="-335.8" font-family="Times New Roman,serif" font-size="14.00">in1: {f32}[6,1,1,1]: Constant_88: out0</text>
<text text-anchor="middle" x="1152.5" y="-320.8" font-family="Times New Roman,serif" font-size="14.00">in2: {f32}[6,1,1,1]: Constant_89: out0</text>
<text text-anchor="middle" x="1152.5" y="-305.8" font-family="Times New Roman,serif" font-size="14.00">in3: {f32}[6,1,1,1]: Constant_90: out0</text>
<text text-anchor="middle" x="1152.5" y="-290.8" font-family="Times New Roman,serif" font-size="14.00">in4: {f32}[6,1,1,1]: Constant_91: out0</text>
<text text-anchor="middle" x="1152.5" y="-275.8" font-family="Times New Roman,serif" font-size="14.00">out0: {f32}[6,3,1,1]</text>
</g>
<!-- FakeQuantize_92&#45;&gt;Convolution_93 -->
<g id="edge3" class="edge">
<title>FakeQuantize_92&#45;&gt;Convolution_93</title>
<path fill="none" stroke="black" d="M1033.71,-280.64C994.34,-261.46 950.76,-240.24 912.26,-221.49"/>
<polygon fill="black" stroke="black" points="913.63,-218.26 903.1,-217.03 910.56,-224.55 913.63,-218.26"/>
<text text-anchor="middle" x="989.5" y="-238.8" font-family="Times New Roman,serif" font-size="14.00"> 0 &#45;&gt; 1 </text>
</g>
<!-- CLONE_0 -->
<g id="node5" class="node">
<title>CLONE_0</title>
<polygon fill="none" stroke="black" stroke-dasharray="5,2" points="837,-560 620,-560 620,-462 837,-462 837,-560"/>
<text text-anchor="middle" x="728.5" y="-544.8" font-family="Times New Roman,serif" font-size="14.00">friendly_name: Constant_87</text>
<text text-anchor="middle" x="728.5" y="-529.8" font-family="Times New Roman,serif" font-size="14.00">type_name: Constant</text>
<text text-anchor="middle" x="728.5" y="-514.8" font-family="Times New Roman,serif" font-size="14.00">{f32}[6,3,1,1]</text>
<text text-anchor="middle" x="728.5" y="-499.8" font-family="Times New Roman,serif" font-size="14.00">value: [18, 18, 18, 18, 18, 18, 18, 18</text>
<text text-anchor="middle" x="728.5" y="-484.8" font-family="Times New Roman,serif" font-size="14.00">, 18, 18, 18, 18, 18, 18, 18, 18</text>
<text text-anchor="middle" x="728.5" y="-469.8" font-family="Times New Roman,serif" font-size="14.00">, 18, 18]</text>
</g>
<!-- CLONE_0&#45;&gt;FakeQuantize_92 -->
<g id="edge4" class="edge">
<title>CLONE_0&#45;&gt;FakeQuantize_92</title>
<path fill="none" stroke="black" d="M837.16,-465.37C839.97,-464.23 842.75,-463.11 845.5,-462 904.18,-438.35 969.32,-412.51 1024.45,-390.77"/>
<polygon fill="black" stroke="black" points="1025.89,-393.96 1033.91,-387.03 1023.32,-387.45 1025.89,-393.96"/>
<text text-anchor="middle" x="942.5" y="-432.8" font-family="Times New Roman,serif" font-size="14.00"> 0 &#45;&gt; 0 </text>
</g>
<!-- CLONE_1 -->
<g id="node6" class="node">
<title>CLONE_1</title>
<polygon fill="none" stroke="black" stroke-dasharray="5,2" points="1124,-545 855,-545 855,-477 1124,-477 1124,-545"/>
<text text-anchor="middle" x="989.5" y="-529.8" font-family="Times New Roman,serif" font-size="14.00">friendly_name: Constant_88</text>
<text text-anchor="middle" x="989.5" y="-514.8" font-family="Times New Roman,serif" font-size="14.00">type_name: Constant</text>
<text text-anchor="middle" x="989.5" y="-499.8" font-family="Times New Roman,serif" font-size="14.00">{f32}[6,1,1,1]</text>
<text text-anchor="middle" x="989.5" y="-484.8" font-family="Times New Roman,serif" font-size="14.00">value: [&#45;1.27, &#45;1.27, &#45;1.27, &#45;1.27, &#45;1.27, &#45;1.27]</text>
</g>
<!-- CLONE_1&#45;&gt;FakeQuantize_92 -->
<g id="edge5" class="edge">
<title>CLONE_1&#45;&gt;FakeQuantize_92</title>
<path fill="none" stroke="black" d="M1021.31,-476.92C1037.48,-460.11 1057.85,-438.92 1077.69,-418.29"/>
<polygon fill="black" stroke="black" points="1080.27,-420.65 1084.68,-411.02 1075.23,-415.8 1080.27,-420.65"/>
<text text-anchor="middle" x="1087.5" y="-432.8" font-family="Times New Roman,serif" font-size="14.00"> 0 &#45;&gt; 1 </text>
</g>
<!-- CLONE_2 -->
<g id="node7" class="node">
<title>CLONE_2</title>
<polygon fill="none" stroke="black" stroke-dasharray="5,2" points="1384.5,-545 1142.5,-545 1142.5,-477 1384.5,-477 1384.5,-545"/>
<text text-anchor="middle" x="1263.5" y="-529.8" font-family="Times New Roman,serif" font-size="14.00">friendly_name: Constant_89</text>
<text text-anchor="middle" x="1263.5" y="-514.8" font-family="Times New Roman,serif" font-size="14.00">type_name: Constant</text>
<text text-anchor="middle" x="1263.5" y="-499.8" font-family="Times New Roman,serif" font-size="14.00">{f32}[6,1,1,1]</text>
<text text-anchor="middle" x="1263.5" y="-484.8" font-family="Times New Roman,serif" font-size="14.00">value: [1.27, 1.27, 1.27, 1.27, 1.27, 1.27]</text>
</g>
<!-- CLONE_2&#45;&gt;FakeQuantize_92 -->
<g id="edge6" class="edge">
<title>CLONE_2&#45;&gt;FakeQuantize_92</title>
<path fill="none" stroke="black" d="M1241.83,-476.92C1231.07,-460.48 1217.56,-439.85 1204.33,-419.64"/>
<polygon fill="black" stroke="black" points="1207.09,-417.47 1198.68,-411.02 1201.23,-421.3 1207.09,-417.47"/>
<text text-anchor="middle" x="1239.5" y="-432.8" font-family="Times New Roman,serif" font-size="14.00"> 0 &#45;&gt; 2 </text>
</g>
<!-- CLONE_3 -->
<g id="node8" class="node">
<title>CLONE_3</title>
<polygon fill="none" stroke="black" stroke-dasharray="5,2" points="1672,-545 1403,-545 1403,-477 1672,-477 1672,-545"/>
<text text-anchor="middle" x="1537.5" y="-529.8" font-family="Times New Roman,serif" font-size="14.00">friendly_name: Constant_90</text>
<text text-anchor="middle" x="1537.5" y="-514.8" font-family="Times New Roman,serif" font-size="14.00">type_name: Constant</text>
<text text-anchor="middle" x="1537.5" y="-499.8" font-family="Times New Roman,serif" font-size="14.00">{f32}[6,1,1,1]</text>
<text text-anchor="middle" x="1537.5" y="-484.8" font-family="Times New Roman,serif" font-size="14.00">value: [&#45;1.27, &#45;1.27, &#45;1.27, &#45;1.27, &#45;1.27, &#45;1.27]</text>
</g>
<!-- CLONE_3&#45;&gt;FakeQuantize_92 -->
<g id="edge7" class="edge">
<title>CLONE_3&#45;&gt;FakeQuantize_92</title>
<path fill="none" stroke="black" d="M1462.35,-476.92C1410.63,-454.14 1340.63,-423.32 1280.24,-396.74"/>
<polygon fill="black" stroke="black" points="1281.59,-393.51 1271.02,-392.68 1278.77,-399.91 1281.59,-393.51"/>
<text text-anchor="middle" x="1400.5" y="-432.8" font-family="Times New Roman,serif" font-size="14.00"> 0 &#45;&gt; 3 </text>
</g>
<!-- CLONE_4 -->
<g id="node9" class="node">
<title>CLONE_4</title>
<polygon fill="none" stroke="black" stroke-dasharray="5,2" points="1932.5,-545 1690.5,-545 1690.5,-477 1932.5,-477 1932.5,-545"/>
<text text-anchor="middle" x="1811.5" y="-529.8" font-family="Times New Roman,serif" font-size="14.00">friendly_name: Constant_91</text>
<text text-anchor="middle" x="1811.5" y="-514.8" font-family="Times New Roman,serif" font-size="14.00">type_name: Constant</text>
<text text-anchor="middle" x="1811.5" y="-499.8" font-family="Times New Roman,serif" font-size="14.00">{f32}[6,1,1,1]</text>
<text text-anchor="middle" x="1811.5" y="-484.8" font-family="Times New Roman,serif" font-size="14.00">value: [1.27, 1.27, 1.27, 1.27, 1.27, 1.27]</text>
</g>
<!-- CLONE_4&#45;&gt;FakeQuantize_92 -->
<g id="edge8" class="edge">
<title>CLONE_4&#45;&gt;FakeQuantize_92</title>
<path fill="none" stroke="black" d="M1726.05,-476.95C1710.98,-471.62 1695.36,-466.41 1680.5,-462 1545.84,-422.01 1388.61,-387.33 1280.97,-365.37"/>
<polygon fill="black" stroke="black" points="1281.53,-361.92 1271.04,-363.35 1280.14,-368.77 1281.53,-361.92"/>
<text text-anchor="middle" x="1631.5" y="-432.8" font-family="Times New Roman,serif" font-size="14.00"> 0 &#45;&gt; 4 </text>
</g>
<!-- AvgPool_85 -->
<g id="node10" class="node">
<title>AvgPool_85</title>
<polygon fill="none" stroke="black" points="601.5,-552.5 347.5,-552.5 347.5,-469.5 601.5,-469.5 601.5,-552.5"/>
<text text-anchor="middle" x="474.5" y="-537.3" font-family="Times New Roman,serif" font-size="14.00">friendly_name: avgPool</text>
<text text-anchor="middle" x="474.5" y="-522.3" font-family="Times New Roman,serif" font-size="14.00">name: AvgPool_85</text>
<text text-anchor="middle" x="474.5" y="-507.3" font-family="Times New Roman,serif" font-size="14.00">type_name: AvgPool</text>
<text text-anchor="middle" x="474.5" y="-492.3" font-family="Times New Roman,serif" font-size="14.00">in0: {f32}[1,3,9,9]: FakeQuantize_84: out0</text>
<text text-anchor="middle" x="474.5" y="-477.3" font-family="Times New Roman,serif" font-size="14.00">out0: {f32}[1,3,9,9]</text>
</g>
<!-- AvgPool_85&#45;&gt;MaxPool_86 -->
<g id="edge9" class="edge">
<title>AvgPool_85&#45;&gt;MaxPool_86</title>
<path fill="none" stroke="black" d="M523.84,-469.4C553.8,-444.75 592.16,-413.19 623.42,-387.47"/>
<polygon fill="black" stroke="black" points="625.71,-390.12 631.2,-381.06 621.26,-384.71 625.71,-390.12"/>
<text text-anchor="middle" x="592.5" y="-432.8" font-family="Times New Roman,serif" font-size="14.00"> 0 &#45;&gt; 0 </text>
</g>
<!-- FakeQuantize_84 -->
<g id="node11" class="node">
<title>FakeQuantize_84</title>
<polygon fill="none" stroke="black" points="601.5,-754 347.5,-754 347.5,-611 601.5,-611 601.5,-754"/>
<text text-anchor="middle" x="474.5" y="-738.8" font-family="Times New Roman,serif" font-size="14.00">friendly_name: fakeQuantizeOnActivations</text>
<text text-anchor="middle" x="474.5" y="-723.8" font-family="Times New Roman,serif" font-size="14.00">name: FakeQuantize_84</text>
<text text-anchor="middle" x="474.5" y="-708.8" font-family="Times New Roman,serif" font-size="14.00">type_name: FakeQuantize</text>
<text text-anchor="middle" x="474.5" y="-693.8" font-family="Times New Roman,serif" font-size="14.00">in0: {f32}[1,3,9,9]: Parameter_79: out0</text>
<text text-anchor="middle" x="474.5" y="-678.8" font-family="Times New Roman,serif" font-size="14.00">in1: {f32}[]: Constant_80: out0</text>
<text text-anchor="middle" x="474.5" y="-663.8" font-family="Times New Roman,serif" font-size="14.00">in2: {f32}[]: Constant_81: out0</text>
<text text-anchor="middle" x="474.5" y="-648.8" font-family="Times New Roman,serif" font-size="14.00">in3: {f32}[]: Constant_82: out0</text>
<text text-anchor="middle" x="474.5" y="-633.8" font-family="Times New Roman,serif" font-size="14.00">in4: {f32}[]: Constant_83: out0</text>
<text text-anchor="middle" x="474.5" y="-618.8" font-family="Times New Roman,serif" font-size="14.00">out0: {f32}[1,3,9,9]</text>
</g>
<!-- FakeQuantize_84&#45;&gt;AvgPool_85 -->
<g id="edge10" class="edge">
<title>FakeQuantize_84&#45;&gt;AvgPool_85</title>
<path fill="none" stroke="black" d="M474.5,-610.6C474.5,-594.53 474.5,-577.78 474.5,-562.74"/>
<polygon fill="black" stroke="black" points="478,-562.63 474.5,-552.63 471,-562.63 478,-562.63"/>
<text text-anchor="middle" x="495.5" y="-581.8" font-family="Times New Roman,serif" font-size="14.00"> 0 &#45;&gt; 0 </text>
</g>
<!-- CLONE_5 -->
<g id="node12" class="node">
<title>CLONE_5</title>
<polygon fill="none" stroke="blue" stroke-dasharray="5,2" points="179,-865.5 0,-865.5 0,-812.5 179,-812.5 179,-865.5"/>
<text text-anchor="middle" x="89.5" y="-850.3" font-family="Times New Roman,serif" font-size="14.00">friendly_name: Parameter_79</text>
<text text-anchor="middle" x="89.5" y="-835.3" font-family="Times New Roman,serif" font-size="14.00">type_name: Parameter</text>
<text text-anchor="middle" x="89.5" y="-820.3" font-family="Times New Roman,serif" font-size="14.00">{f32}[1,3,9,9]</text>
</g>
<!-- CLONE_5&#45;&gt;FakeQuantize_84 -->
<g id="edge11" class="edge">
<title>CLONE_5&#45;&gt;FakeQuantize_84</title>
<path fill="none" stroke="black" d="M153.07,-812.49C203.15,-792.39 274.77,-763.65 337.7,-738.4"/>
<polygon fill="black" stroke="black" points="339.34,-741.51 347.32,-734.54 336.73,-735.02 339.34,-741.51"/>
<text text-anchor="middle" x="269.5" y="-775.8" font-family="Times New Roman,serif" font-size="14.00"> 0 &#45;&gt; 0 </text>
</g>
<!-- CLONE_6 -->
<g id="node13" class="node">
<title>CLONE_6</title>
<polygon fill="none" stroke="black" stroke-dasharray="5,2" points="370,-873 197,-873 197,-805 370,-805 370,-873"/>
<text text-anchor="middle" x="283.5" y="-857.8" font-family="Times New Roman,serif" font-size="14.00">friendly_name: Constant_80</text>
<text text-anchor="middle" x="283.5" y="-842.8" font-family="Times New Roman,serif" font-size="14.00">type_name: Constant</text>
<text text-anchor="middle" x="283.5" y="-827.8" font-family="Times New Roman,serif" font-size="14.00">{f32}[]</text>
<text text-anchor="middle" x="283.5" y="-812.8" font-family="Times New Roman,serif" font-size="14.00">value: [&#45;1.28]</text>
</g>
<!-- CLONE_6&#45;&gt;FakeQuantize_84 -->
<g id="edge12" class="edge">
<title>CLONE_6&#45;&gt;FakeQuantize_84</title>
<path fill="none" stroke="black" d="M324.47,-804.86C340.66,-791.76 359.99,-776.13 379.3,-760.51"/>
<polygon fill="black" stroke="black" points="381.7,-763.07 387.27,-754.06 377.29,-757.63 381.7,-763.07"/>
<text text-anchor="middle" x="383.5" y="-775.8" font-family="Times New Roman,serif" font-size="14.00"> 0 &#45;&gt; 1 </text>
</g>
<!-- CLONE_7 -->
<g id="node14" class="node">
<title>CLONE_7</title>
<polygon fill="none" stroke="black" stroke-dasharray="5,2" points="561,-873 388,-873 388,-805 561,-805 561,-873"/>
<text text-anchor="middle" x="474.5" y="-857.8" font-family="Times New Roman,serif" font-size="14.00">friendly_name: Constant_81</text>
<text text-anchor="middle" x="474.5" y="-842.8" font-family="Times New Roman,serif" font-size="14.00">type_name: Constant</text>
<text text-anchor="middle" x="474.5" y="-827.8" font-family="Times New Roman,serif" font-size="14.00">{f32}[]</text>
<text text-anchor="middle" x="474.5" y="-812.8" font-family="Times New Roman,serif" font-size="14.00">value: [1.27]</text>
</g>
<!-- CLONE_7&#45;&gt;FakeQuantize_84 -->
<g id="edge13" class="edge">
<title>CLONE_7&#45;&gt;FakeQuantize_84</title>
<path fill="none" stroke="black" d="M474.5,-804.86C474.5,-792.87 474.5,-778.75 474.5,-764.47"/>
<polygon fill="black" stroke="black" points="478,-764.06 474.5,-754.06 471,-764.06 478,-764.06"/>
<text text-anchor="middle" x="495.5" y="-775.8" font-family="Times New Roman,serif" font-size="14.00"> 0 &#45;&gt; 2 </text>
</g>
<!-- CLONE_8 -->
<g id="node15" class="node">
<title>CLONE_8</title>
<polygon fill="none" stroke="black" stroke-dasharray="5,2" points="752,-873 579,-873 579,-805 752,-805 752,-873"/>
<text text-anchor="middle" x="665.5" y="-857.8" font-family="Times New Roman,serif" font-size="14.00">friendly_name: Constant_82</text>
<text text-anchor="middle" x="665.5" y="-842.8" font-family="Times New Roman,serif" font-size="14.00">type_name: Constant</text>
<text text-anchor="middle" x="665.5" y="-827.8" font-family="Times New Roman,serif" font-size="14.00">{f32}[]</text>
<text text-anchor="middle" x="665.5" y="-812.8" font-family="Times New Roman,serif" font-size="14.00">value: [&#45;1.28]</text>
</g>
<!-- CLONE_8&#45;&gt;FakeQuantize_84 -->
<g id="edge14" class="edge">
<title>CLONE_8&#45;&gt;FakeQuantize_84</title>
<path fill="none" stroke="black" d="M624.53,-804.86C608.34,-791.76 589.01,-776.13 569.7,-760.51"/>
<polygon fill="black" stroke="black" points="571.71,-757.63 561.73,-754.06 567.3,-763.07 571.71,-757.63"/>
<text text-anchor="middle" x="619.5" y="-775.8" font-family="Times New Roman,serif" font-size="14.00"> 0 &#45;&gt; 3 </text>
</g>
<!-- CLONE_9 -->
<g id="node16" class="node">
<title>CLONE_9</title>
<polygon fill="none" stroke="black" stroke-dasharray="5,2" points="943,-873 770,-873 770,-805 943,-805 943,-873"/>
<text text-anchor="middle" x="856.5" y="-857.8" font-family="Times New Roman,serif" font-size="14.00">friendly_name: Constant_83</text>
<text text-anchor="middle" x="856.5" y="-842.8" font-family="Times New Roman,serif" font-size="14.00">type_name: Constant</text>
<text text-anchor="middle" x="856.5" y="-827.8" font-family="Times New Roman,serif" font-size="14.00">{f32}[]</text>
<text text-anchor="middle" x="856.5" y="-812.8" font-family="Times New Roman,serif" font-size="14.00">value: [1.27]</text>
</g>
<!-- CLONE_9&#45;&gt;FakeQuantize_84 -->
<g id="edge15" class="edge">
<title>CLONE_9&#45;&gt;FakeQuantize_84</title>
<path fill="none" stroke="black" d="M774.55,-804.86C726.99,-785.62 665.86,-760.9 611.2,-738.79"/>
<polygon fill="black" stroke="black" points="612.37,-735.49 601.79,-734.98 609.74,-741.98 612.37,-735.49"/>
<text text-anchor="middle" x="743.5" y="-775.8" font-family="Times New Roman,serif" font-size="14.00"> 0 &#45;&gt; 4 </text>
</g>
</g>
</svg>
