<svg width="816" height="222" viewBox="0 0 816 222" fill="none" xmlns="http://www.w3.org/2000/svg">
<rect x="20" y="21" width="180" height="72" rx="36" fill="#00285A"/>
<path d="M84.8774 49.32C85.4 49.32 85.8267 49.2827 86.1574 49.208V46.888H84.0454V45.064H88.3334V50.392C88.0347 50.5947 87.56 50.7867 86.9094 50.968C86.2694 51.1493 85.5334 51.24 84.7014 51.24C83.8374 51.24 83.048 51.1227 82.3334 50.888C81.6294 50.6427 81.0214 50.28 80.5094 49.8C80.008 49.32 79.6187 48.7227 79.3414 48.008C79.0747 47.2933 78.9414 46.4613 78.9414 45.512C78.9414 44.6053 79.0747 43.7947 79.3414 43.08C79.608 42.3547 79.992 41.7467 80.4934 41.256C81.0054 40.7547 81.6187 40.376 82.3334 40.12C83.0587 39.8533 83.88 39.72 84.7974 39.72C85.5547 39.72 86.2214 39.8053 86.7974 39.976C87.3734 40.1467 87.8534 40.376 88.2374 40.664L87.3734 42.28C87.0534 42.088 86.696 41.9333 86.3014 41.816C85.9174 41.6987 85.464 41.64 84.9414 41.64C83.7467 41.64 82.8507 41.9653 82.2534 42.616C81.6667 43.256 81.3734 44.2107 81.3734 45.48C81.3734 46.7387 81.6667 47.6933 82.2534 48.344C82.84 48.9947 83.7147 49.32 84.8774 49.32ZM92.1769 47.448C92.2622 48.152 92.4969 48.664 92.8809 48.984C93.2755 49.2933 93.8195 49.448 94.5129 49.448C94.8862 49.448 95.2435 49.4 95.5849 49.304C95.9262 49.208 96.2302 49.0693 96.4969 48.888L97.2649 50.232C96.5075 50.8827 95.5102 51.208 94.2729 51.208C93.5369 51.208 92.8969 51.1013 92.3529 50.888C91.8195 50.664 91.3715 50.36 91.0089 49.976C90.6569 49.592 90.3955 49.1387 90.2249 48.616C90.0542 48.0933 89.9689 47.5333 89.9689 46.936C89.9689 46.2427 90.0755 45.6347 90.2889 45.112C90.5022 44.5787 90.7902 44.136 91.1529 43.784C91.5262 43.432 91.9582 43.1653 92.4489 42.984C92.9502 42.8027 93.4782 42.712 94.0329 42.712C94.5982 42.712 95.0995 42.8027 95.5369 42.984C95.9742 43.1547 96.3369 43.4 96.6249 43.72C96.9235 44.04 97.1475 44.424 97.2969 44.872C97.4569 45.3093 97.5369 45.8 97.5369 46.344C97.5369 46.5253 97.5262 46.7173 97.5049 46.92C97.4942 47.112 97.4675 47.288 97.4249 47.448H92.1769ZM94.0329 44.376C93.5209 44.376 93.1049 44.5307 92.7849 44.84C92.4649 45.1493 92.2782 45.576 92.2249 46.12H95.4889V45.912C95.4889 45.4213 95.3555 45.0427 95.0889 44.776C94.8329 44.5093 94.4809 44.376 94.0329 44.376ZM103.66 49.256V50.952C103.489 50.9947 103.303 51.0267 103.1 51.048C102.897 51.0693 102.657 51.08 102.38 51.08C101.42 51.08 100.716 50.8613 100.268 50.424C99.8199 49.976 99.5959 49.2507 99.5959 48.248V44.648H98.3959V42.92H99.5959V40.984H101.868V42.92H103.66V44.648H101.868V48.04C101.868 48.52 101.975 48.8453 102.188 49.016C102.401 49.176 102.785 49.256 103.34 49.256H103.66ZM114.098 46.792V51H111.762V46.744L108.05 39.96H110.658L112.994 45.016L115.378 39.96H117.874L114.098 46.792ZM125.476 46.952C125.476 47.624 125.375 48.2267 125.172 48.76C124.98 49.2827 124.703 49.7253 124.34 50.088C123.978 50.4507 123.54 50.728 123.028 50.92C122.516 51.112 121.946 51.208 121.316 51.208C120.687 51.208 120.116 51.112 119.604 50.92C119.092 50.728 118.655 50.4507 118.292 50.088C117.93 49.7253 117.647 49.2827 117.444 48.76C117.252 48.2267 117.156 47.624 117.156 46.952C117.156 46.28 117.252 45.6827 117.444 45.16C117.647 44.6373 117.93 44.1947 118.292 43.832C118.655 43.4693 119.092 43.192 119.604 43C120.116 42.808 120.687 42.712 121.316 42.712C121.946 42.712 122.516 42.808 123.028 43C123.54 43.192 123.978 43.4693 124.34 43.832C124.703 44.1947 124.98 44.6373 125.172 45.16C125.375 45.6827 125.476 46.28 125.476 46.952ZM123.156 46.952C123.156 46.1307 122.996 45.512 122.676 45.096C122.367 44.68 121.914 44.472 121.316 44.472C120.719 44.472 120.26 44.68 119.94 45.096C119.631 45.512 119.476 46.1307 119.476 46.952C119.476 47.784 119.631 48.408 119.94 48.824C120.26 49.24 120.719 49.448 121.316 49.448C121.914 49.448 122.367 49.24 122.676 48.824C122.996 48.408 123.156 47.784 123.156 46.952ZM134.525 51H133.229C132.93 51 132.717 50.936 132.589 50.808C132.461 50.68 132.397 50.4827 132.397 50.216V49.768C132.183 50.248 131.853 50.6107 131.405 50.856C130.967 51.0907 130.461 51.208 129.885 51.208C128.999 51.208 128.327 50.9467 127.869 50.424C127.421 49.9013 127.197 49.1387 127.197 48.136V42.92H129.469V47.992C129.469 48.5147 129.57 48.888 129.773 49.112C129.975 49.336 130.274 49.448 130.669 49.448C131.191 49.448 131.586 49.2613 131.853 48.888C132.119 48.5147 132.253 48.008 132.253 47.368V42.92H134.525V51ZM136.761 42.92H138.057C138.601 42.92 138.873 43.1547 138.873 43.624V44.616C139.043 44.072 139.326 43.64 139.721 43.32C140.126 42.9893 140.627 42.824 141.225 42.824C141.47 42.824 141.683 42.8507 141.865 42.904V44.76H141.401C140.59 44.76 139.993 44.968 139.609 45.384C139.225 45.8 139.033 46.4933 139.033 47.464V51H136.761V42.92ZM89.9177 67.448V75H87.7097V63.96H90.2857L93.2777 69.976L96.2857 63.96H98.7657V75H96.5577V67.432L94.1577 72.216H92.3177L89.9177 67.448ZM109.031 70.952C109.031 71.624 108.93 72.2267 108.727 72.76C108.535 73.2827 108.258 73.7253 107.895 74.088C107.532 74.4507 107.095 74.728 106.583 74.92C106.071 75.112 105.5 75.208 104.871 75.208C104.242 75.208 103.671 75.112 103.159 74.92C102.647 74.728 102.21 74.4507 101.847 74.088C101.484 73.7253 101.202 73.2827 100.999 72.76C100.807 72.2267 100.711 71.624 100.711 70.952C100.711 70.28 100.807 69.6827 100.999 69.16C101.202 68.6373 101.484 68.1947 101.847 67.832C102.21 67.4693 102.647 67.192 103.159 67C103.671 66.808 104.242 66.712 104.871 66.712C105.5 66.712 106.071 66.808 106.583 67C107.095 67.192 107.532 67.4693 107.895 67.832C108.258 68.1947 108.535 68.6373 108.727 69.16C108.93 69.6827 109.031 70.28 109.031 70.952ZM106.711 70.952C106.711 70.1307 106.551 69.512 106.231 69.096C105.922 68.68 105.468 68.472 104.871 68.472C104.274 68.472 103.815 68.68 103.495 69.096C103.186 69.512 103.031 70.1307 103.031 70.952C103.031 71.784 103.186 72.408 103.495 72.824C103.815 73.24 104.274 73.448 104.871 73.448C105.468 73.448 105.922 73.24 106.231 72.824C106.551 72.408 106.711 71.784 106.711 70.952ZM118.511 75H117.199C116.655 75 116.383 74.76 116.383 74.28V73.752C116.17 74.2 115.839 74.5573 115.391 74.824C114.954 75.08 114.426 75.208 113.807 75.208C113.274 75.208 112.794 75.1067 112.367 74.904C111.941 74.7013 111.578 74.4187 111.279 74.056C110.991 73.6827 110.767 73.2347 110.607 72.712C110.447 72.1893 110.367 71.6027 110.367 70.952C110.367 70.28 110.453 69.6827 110.623 69.16C110.794 68.6267 111.034 68.184 111.343 67.832C111.653 67.4693 112.021 67.192 112.447 67C112.885 66.808 113.37 66.712 113.903 66.712C114.415 66.712 114.874 66.8133 115.279 67.016C115.685 67.2187 116.005 67.5067 116.239 67.88V63.528H118.511V75ZM116.303 70.968C116.303 70.1893 116.149 69.5813 115.839 69.144C115.541 68.696 115.098 68.472 114.511 68.472C113.935 68.472 113.487 68.6907 113.167 69.128C112.847 69.5653 112.687 70.1787 112.687 70.968C112.687 71.768 112.837 72.3813 113.135 72.808C113.434 73.2347 113.877 73.448 114.463 73.448C115.039 73.448 115.487 73.2293 115.807 72.792C116.138 72.344 116.303 71.736 116.303 70.968ZM122.513 71.448C122.598 72.152 122.833 72.664 123.217 72.984C123.611 73.2933 124.155 73.448 124.849 73.448C125.222 73.448 125.579 73.4 125.921 73.304C126.262 73.208 126.566 73.0693 126.833 72.888L127.601 74.232C126.843 74.8827 125.846 75.208 124.609 75.208C123.873 75.208 123.233 75.1013 122.689 74.888C122.155 74.664 121.707 74.36 121.345 73.976C120.993 73.592 120.731 73.1387 120.561 72.616C120.39 72.0933 120.305 71.5333 120.305 70.936C120.305 70.2427 120.411 69.6347 120.625 69.112C120.838 68.5787 121.126 68.136 121.489 67.784C121.862 67.432 122.294 67.1653 122.785 66.984C123.286 66.8027 123.814 66.712 124.369 66.712C124.934 66.712 125.435 66.8027 125.873 66.984C126.31 67.1547 126.673 67.4 126.961 67.72C127.259 68.04 127.483 68.424 127.633 68.872C127.793 69.3093 127.873 69.8 127.873 70.344C127.873 70.5253 127.862 70.7173 127.841 70.92C127.83 71.112 127.803 71.288 127.761 71.448H122.513ZM124.369 68.376C123.857 68.376 123.441 68.5307 123.121 68.84C122.801 69.1493 122.614 69.576 122.561 70.12H125.825V69.912C125.825 69.4213 125.691 69.0427 125.425 68.776C125.169 68.5093 124.817 68.376 124.369 68.376ZM131.868 63.528V72.248C131.868 72.6747 131.932 72.9573 132.06 73.096C132.198 73.224 132.47 73.288 132.876 73.288H133.02V75C132.785 75.0533 132.444 75.08 131.996 75.08C131.132 75.08 130.513 74.8667 130.14 74.44C129.777 74.0133 129.596 73.3733 129.596 72.52V63.528H131.868Z" fill="white"/>
<rect x="244" y="21" width="180" height="72" rx="36" fill="#76CEFF"/>
<path d="M304.609 43.192C304.609 43.9493 304.396 44.6107 303.969 45.176C303.543 45.7307 302.967 46.0933 302.241 46.264L305.377 51H302.689L300.353 47.16C300.236 46.968 300.124 46.84 300.017 46.776C299.911 46.712 299.745 46.68 299.521 46.68H298.833V51H296.561V39.96H300.801C301.388 39.96 301.916 40.0347 302.385 40.184C302.855 40.3333 303.255 40.5467 303.585 40.824C303.916 41.1013 304.167 41.4427 304.337 41.848C304.519 42.2427 304.609 42.6907 304.609 43.192ZM302.289 43.368C302.289 42.824 302.145 42.424 301.857 42.168C301.569 41.912 301.105 41.784 300.465 41.784H298.833V45.016H300.417C301.025 45.016 301.489 44.8773 301.809 44.6C302.129 44.3227 302.289 43.912 302.289 43.368ZM313.853 51H312.557C312.258 51 312.045 50.936 311.917 50.808C311.789 50.68 311.725 50.4827 311.725 50.216V49.768C311.511 50.248 311.181 50.6107 310.733 50.856C310.295 51.0907 309.789 51.208 309.213 51.208C308.327 51.208 307.655 50.9467 307.197 50.424C306.749 49.9013 306.525 49.1387 306.525 48.136V42.92H308.797V47.992C308.797 48.5147 308.898 48.888 309.101 49.112C309.303 49.336 309.602 49.448 309.997 49.448C310.519 49.448 310.914 49.2613 311.181 48.888C311.447 48.5147 311.581 48.008 311.581 47.368V42.92H313.853V51ZM316.089 42.92H317.385C317.929 42.92 318.201 43.1547 318.201 43.624V44.216C318.414 43.7573 318.75 43.3947 319.209 43.128C319.667 42.8507 320.217 42.712 320.857 42.712C321.721 42.712 322.387 42.9627 322.857 43.464C323.337 43.9653 323.577 44.7173 323.577 45.72V51H321.305V45.88C321.305 44.9413 320.889 44.472 320.057 44.472C319.534 44.472 319.118 44.6587 318.809 45.032C318.51 45.4053 318.361 45.9227 318.361 46.584V51H316.089V42.92ZM332.066 43.448V51H329.858V39.96H332.434L335.426 45.976L338.434 39.96H340.914V51H338.706V43.432L336.306 48.216H334.466L332.066 43.448ZM351.18 46.952C351.18 47.624 351.078 48.2267 350.876 48.76C350.684 49.2827 350.406 49.7253 350.044 50.088C349.681 50.4507 349.244 50.728 348.732 50.92C348.22 51.112 347.649 51.208 347.02 51.208C346.39 51.208 345.82 51.112 345.308 50.92C344.796 50.728 344.358 50.4507 343.996 50.088C343.633 49.7253 343.35 49.2827 343.148 48.76C342.956 48.2267 342.86 47.624 342.86 46.952C342.86 46.28 342.956 45.6827 343.148 45.16C343.35 44.6373 343.633 44.1947 343.996 43.832C344.358 43.4693 344.796 43.192 345.308 43C345.82 42.808 346.39 42.712 347.02 42.712C347.649 42.712 348.22 42.808 348.732 43C349.244 43.192 349.681 43.4693 350.044 43.832C350.406 44.1947 350.684 44.6373 350.876 45.16C351.078 45.6827 351.18 46.28 351.18 46.952ZM348.86 46.952C348.86 46.1307 348.7 45.512 348.38 45.096C348.07 44.68 347.617 44.472 347.02 44.472C346.422 44.472 345.964 44.68 345.644 45.096C345.334 45.512 345.18 46.1307 345.18 46.952C345.18 47.784 345.334 48.408 345.644 48.824C345.964 49.24 346.422 49.448 347.02 49.448C347.617 49.448 348.07 49.24 348.38 48.824C348.7 48.408 348.86 47.784 348.86 46.952ZM360.66 51H359.348C358.804 51 358.532 50.76 358.532 50.28V49.752C358.318 50.2 357.988 50.5573 357.54 50.824C357.102 51.08 356.574 51.208 355.956 51.208C355.422 51.208 354.942 51.1067 354.516 50.904C354.089 50.7013 353.726 50.4187 353.428 50.056C353.14 49.6827 352.916 49.2347 352.756 48.712C352.596 48.1893 352.516 47.6027 352.516 46.952C352.516 46.28 352.601 45.6827 352.772 45.16C352.942 44.6267 353.182 44.184 353.492 43.832C353.801 43.4693 354.169 43.192 354.596 43C355.033 42.808 355.518 42.712 356.052 42.712C356.564 42.712 357.022 42.8133 357.428 43.016C357.833 43.2187 358.153 43.5067 358.388 43.88V39.528H360.66V51ZM358.452 46.968C358.452 46.1893 358.297 45.5813 357.988 45.144C357.689 44.696 357.246 44.472 356.66 44.472C356.084 44.472 355.636 44.6907 355.316 45.128C354.996 45.5653 354.836 46.1787 354.836 46.968C354.836 47.768 354.985 48.3813 355.284 48.808C355.582 49.2347 356.025 49.448 356.612 49.448C357.188 49.448 357.636 49.2293 357.956 48.792C358.286 48.344 358.452 47.736 358.452 46.968ZM364.661 47.448C364.747 48.152 364.981 48.664 365.365 48.984C365.76 49.2933 366.304 49.448 366.997 49.448C367.371 49.448 367.728 49.4 368.069 49.304C368.411 49.208 368.715 49.0693 368.981 48.888L369.749 50.232C368.992 50.8827 367.995 51.208 366.757 51.208C366.021 51.208 365.381 51.1013 364.837 50.888C364.304 50.664 363.856 50.36 363.493 49.976C363.141 49.592 362.88 49.1387 362.709 48.616C362.539 48.0933 362.453 47.5333 362.453 46.936C362.453 46.2427 362.56 45.6347 362.773 45.112C362.987 44.5787 363.275 44.136 363.637 43.784C364.011 43.432 364.443 43.1653 364.933 42.984C365.435 42.8027 365.963 42.712 366.517 42.712C367.083 42.712 367.584 42.8027 368.021 42.984C368.459 43.1547 368.821 43.4 369.109 43.72C369.408 44.04 369.632 44.424 369.781 44.872C369.941 45.3093 370.021 45.8 370.021 46.344C370.021 46.5253 370.011 46.7173 369.989 46.92C369.979 47.112 369.952 47.288 369.909 47.448H364.661ZM366.517 44.376C366.005 44.376 365.589 44.5307 365.269 44.84C364.949 45.1493 364.763 45.576 364.709 46.12H367.973V45.912C367.973 45.4213 367.84 45.0427 367.573 44.776C367.317 44.5093 366.965 44.376 366.517 44.376ZM374.016 39.528V48.248C374.016 48.6747 374.08 48.9573 374.208 49.096C374.347 49.224 374.619 49.288 375.024 49.288H375.168V51C374.934 51.0533 374.592 51.08 374.144 51.08C373.28 51.08 372.662 50.8667 372.288 50.44C371.926 50.0133 371.744 49.3733 371.744 48.52V39.528H374.016ZM304.324 73.32C305.295 73.32 306.031 73 306.532 72.36C307.044 71.72 307.3 70.76 307.3 69.48C307.3 68.2107 307.044 67.256 306.532 66.616C306.031 65.9653 305.295 65.64 304.324 65.64C303.354 65.64 302.612 65.9653 302.1 66.616C301.599 67.256 301.348 68.2107 301.348 69.48C301.348 70.76 301.599 71.72 302.1 72.36C302.612 73 303.354 73.32 304.324 73.32ZM304.324 75.24C303.492 75.24 302.74 75.112 302.068 74.856C301.396 74.5893 300.826 74.2107 300.356 73.72C299.898 73.2187 299.54 72.6107 299.284 71.896C299.039 71.1813 298.916 70.376 298.916 69.48C298.916 68.584 299.039 67.784 299.284 67.08C299.54 66.3653 299.898 65.7627 300.356 65.272C300.826 64.7707 301.396 64.3867 302.068 64.12C302.74 63.8533 303.492 63.72 304.324 63.72C305.156 63.72 305.908 63.8533 306.58 64.12C307.252 64.3867 307.818 64.7707 308.276 65.272C308.746 65.7627 309.103 66.3653 309.348 67.08C309.604 67.784 309.732 68.584 309.732 69.48C309.732 70.376 309.604 71.1813 309.348 71.896C309.103 72.6107 308.746 73.2187 308.276 73.72C307.818 74.2107 307.252 74.5893 306.58 74.856C305.908 75.112 305.156 75.24 304.324 75.24ZM313.756 68.296C314.001 67.752 314.38 67.352 314.892 67.096C315.404 66.84 315.948 66.712 316.524 66.712C317.494 66.712 318.278 67.0587 318.876 67.752C319.473 68.4347 319.772 69.4427 319.772 70.776C319.772 71.4267 319.692 72.024 319.532 72.568C319.382 73.112 319.158 73.5813 318.86 73.976C318.572 74.36 318.214 74.664 317.788 74.888C317.361 75.1013 316.881 75.208 316.348 75.208C315.9 75.208 315.446 75.1227 314.988 74.952C314.54 74.7707 314.177 74.4613 313.9 74.024V78.36H311.628V66.92H312.94C313.484 66.92 313.756 67.16 313.756 67.64V68.296ZM313.836 71.064C313.836 71.8107 313.985 72.3973 314.284 72.824C314.593 73.24 315.046 73.448 315.644 73.448C315.964 73.448 316.236 73.384 316.46 73.256C316.694 73.128 316.881 72.952 317.02 72.728C317.169 72.4933 317.276 72.2213 317.34 71.912C317.414 71.6027 317.452 71.272 317.452 70.92C317.452 70.1307 317.308 69.528 317.02 69.112C316.732 68.6853 316.3 68.472 315.724 68.472C315.116 68.472 314.646 68.7067 314.316 69.176C313.996 69.6347 313.836 70.264 313.836 71.064ZM325.933 73.256V74.952C325.763 74.9947 325.576 75.0267 325.373 75.048C325.171 75.0693 324.931 75.08 324.653 75.08C323.693 75.08 322.989 74.8613 322.541 74.424C322.093 73.976 321.869 73.2507 321.869 72.248V68.648H320.669V66.92H321.869V64.984H324.141V66.92H325.933V68.648H324.141V72.04C324.141 72.52 324.248 72.8453 324.461 73.016C324.675 73.176 325.059 73.256 325.613 73.256H325.933ZM329.681 75H327.409V66.92H329.681V75ZM327.393 63.608H329.697V65.672H327.393V63.608ZM339.141 75H336.869V69.928C336.869 68.9893 336.49 68.52 335.733 68.52C335.253 68.52 334.874 68.6907 334.597 69.032C334.33 69.3627 334.197 69.848 334.197 70.488V75H331.925V66.92H333.221C333.765 66.92 334.037 67.1547 334.037 67.624V68.184C334.25 67.704 334.575 67.3413 335.013 67.096C335.461 66.84 335.973 66.712 336.549 66.712C337.125 66.712 337.605 66.84 337.989 67.096C338.383 67.3413 338.671 67.704 338.853 68.184C339.087 67.7147 339.429 67.352 339.877 67.096C340.325 66.84 340.853 66.712 341.461 66.712C342.303 66.712 342.949 66.9733 343.397 67.496C343.855 68.008 344.085 68.7493 344.085 69.72V75H341.813V69.928C341.813 68.9893 341.434 68.52 340.677 68.52C340.197 68.52 339.818 68.6907 339.541 69.032C339.274 69.3627 339.141 69.848 339.141 70.488V75ZM348.572 75H346.3V66.92H348.572V75ZM346.284 63.608H348.588V65.672H346.284V63.608ZM352.799 73.272H357.279V75H350.143V73.464L354.543 68.648H350.287V66.92H357.231V68.472L352.799 73.272ZM360.607 71.448C360.692 72.152 360.927 72.664 361.311 72.984C361.705 73.2933 362.249 73.448 362.943 73.448C363.316 73.448 363.673 73.4 364.015 73.304C364.356 73.208 364.66 73.0693 364.927 72.888L365.695 74.232C364.937 74.8827 363.94 75.208 362.703 75.208C361.967 75.208 361.327 75.1013 360.783 74.888C360.249 74.664 359.801 74.36 359.439 73.976C359.087 73.592 358.825 73.1387 358.655 72.616C358.484 72.0933 358.399 71.5333 358.399 70.936C358.399 70.2427 358.505 69.6347 358.719 69.112C358.932 68.5787 359.22 68.136 359.583 67.784C359.956 67.432 360.388 67.1653 360.879 66.984C361.38 66.8027 361.908 66.712 362.463 66.712C363.028 66.712 363.529 66.8027 363.967 66.984C364.404 67.1547 364.767 67.4 365.055 67.72C365.353 68.04 365.577 68.424 365.727 68.872C365.887 69.3093 365.967 69.8 365.967 70.344C365.967 70.5253 365.956 70.7173 365.935 70.92C365.924 71.112 365.897 71.288 365.855 71.448H360.607ZM362.463 68.376C361.951 68.376 361.535 68.5307 361.215 68.84C360.895 69.1493 360.708 69.576 360.655 70.12H363.919V69.912C363.919 69.4213 363.785 69.0427 363.519 68.776C363.263 68.5093 362.911 68.376 362.463 68.376ZM367.722 66.92H369.018C369.562 66.92 369.834 67.1547 369.834 67.624V68.616C370.004 68.072 370.287 67.64 370.682 67.32C371.087 66.9893 371.588 66.824 372.186 66.824C372.431 66.824 372.644 66.8507 372.826 66.904V68.76H372.362C371.551 68.76 370.954 68.968 370.57 69.384C370.186 69.8 369.994 70.4933 369.994 71.464V75H367.722V66.92Z" fill="#00285A"/>
<rect x="605" y="21" width="180" height="72" rx="36" fill="#00285A"/>
<path d="M663.468 51H661.132V39.96H663.468V51ZM665.862 42.92H667.158C667.702 42.92 667.974 43.1547 667.974 43.624V44.216C668.188 43.7573 668.524 43.3947 668.982 43.128C669.441 42.8507 669.99 42.712 670.63 42.712C671.494 42.712 672.161 42.9627 672.63 43.464C673.11 43.9653 673.35 44.7173 673.35 45.72V51H671.078V45.88C671.078 44.9413 670.662 44.472 669.83 44.472C669.308 44.472 668.892 44.6587 668.582 45.032C668.284 45.4053 668.134 45.9227 668.134 46.584V51H665.862V42.92ZM680.157 41.304H679.789C679.192 41.304 678.76 41.3947 678.493 41.576C678.237 41.7467 678.109 42.104 678.109 42.648V42.92H680.077V44.648H678.109V51H675.837V44.648H674.637V42.92H675.837V42.328C675.837 41.3893 676.109 40.68 676.653 40.2C677.197 39.72 677.987 39.48 679.021 39.48C679.203 39.48 679.4 39.4907 679.613 39.512C679.827 39.5227 680.008 39.5493 680.157 39.592V41.304ZM682.966 47.448C683.051 48.152 683.286 48.664 683.67 48.984C684.065 49.2933 684.609 49.448 685.302 49.448C685.675 49.448 686.033 49.4 686.374 49.304C686.715 49.208 687.019 49.0693 687.286 48.888L688.054 50.232C687.297 50.8827 686.299 51.208 685.062 51.208C684.326 51.208 683.686 51.1013 683.142 50.888C682.609 50.664 682.161 50.36 681.798 49.976C681.446 49.592 681.185 49.1387 681.014 48.616C680.843 48.0933 680.758 47.5333 680.758 46.936C680.758 46.2427 680.865 45.6347 681.078 45.112C681.291 44.5787 681.579 44.136 681.942 43.784C682.315 43.432 682.747 43.1653 683.238 42.984C683.739 42.8027 684.267 42.712 684.822 42.712C685.387 42.712 685.889 42.8027 686.326 42.984C686.763 43.1547 687.126 43.4 687.414 43.72C687.713 44.04 687.937 44.424 688.086 44.872C688.246 45.3093 688.326 45.8 688.326 46.344C688.326 46.5253 688.315 46.7173 688.294 46.92C688.283 47.112 688.257 47.288 688.214 47.448H682.966ZM684.822 44.376C684.31 44.376 683.894 44.5307 683.574 44.84C683.254 45.1493 683.067 45.576 683.014 46.12H686.278V45.912C686.278 45.4213 686.145 45.0427 685.878 44.776C685.622 44.5093 685.27 44.376 684.822 44.376ZM690.081 42.92H691.377C691.921 42.92 692.193 43.1547 692.193 43.624V44.616C692.364 44.072 692.646 43.64 693.041 43.32C693.446 42.9893 693.948 42.824 694.545 42.824C694.79 42.824 695.004 42.8507 695.185 42.904V44.76H694.721C693.91 44.76 693.313 44.968 692.929 45.384C692.545 45.8 692.353 46.4933 692.353 47.464V51H690.081V42.92ZM697.857 47.448C697.942 48.152 698.177 48.664 698.561 48.984C698.955 49.2933 699.499 49.448 700.193 49.448C700.566 49.448 700.923 49.4 701.265 49.304C701.606 49.208 701.91 49.0693 702.177 48.888L702.945 50.232C702.187 50.8827 701.19 51.208 699.953 51.208C699.217 51.208 698.577 51.1013 698.033 50.888C697.499 50.664 697.051 50.36 696.689 49.976C696.337 49.592 696.075 49.1387 695.905 48.616C695.734 48.0933 695.649 47.5333 695.649 46.936C695.649 46.2427 695.755 45.6347 695.969 45.112C696.182 44.5787 696.47 44.136 696.833 43.784C697.206 43.432 697.638 43.1653 698.129 42.984C698.63 42.8027 699.158 42.712 699.713 42.712C700.278 42.712 700.779 42.8027 701.217 42.984C701.654 43.1547 702.017 43.4 702.305 43.72C702.603 44.04 702.827 44.424 702.977 44.872C703.137 45.3093 703.217 45.8 703.217 46.344C703.217 46.5253 703.206 46.7173 703.185 46.92C703.174 47.112 703.147 47.288 703.105 47.448H697.857ZM699.713 44.376C699.201 44.376 698.785 44.5307 698.465 44.84C698.145 45.1493 697.958 45.576 697.905 46.12H701.169V45.912C701.169 45.4213 701.035 45.0427 700.769 44.776C700.513 44.5093 700.161 44.376 699.713 44.376ZM704.972 42.92H706.268C706.812 42.92 707.084 43.1547 707.084 43.624V44.216C707.297 43.7573 707.633 43.3947 708.092 43.128C708.55 42.8507 709.1 42.712 709.74 42.712C710.604 42.712 711.27 42.9627 711.74 43.464C712.22 43.9653 712.46 44.7173 712.46 45.72V51H710.188V45.88C710.188 44.9413 709.772 44.472 708.94 44.472C708.417 44.472 708.001 44.6587 707.692 45.032C707.393 45.4053 707.244 45.9227 707.244 46.584V51H704.972V42.92ZM716.547 46.952C716.547 47.7413 716.728 48.344 717.091 48.76C717.464 49.1653 718.024 49.368 718.771 49.368C719.08 49.368 719.379 49.3307 719.667 49.256C719.965 49.1707 720.221 49.0533 720.435 48.904L721.107 50.456C720.797 50.68 720.424 50.8613 719.987 51C719.549 51.1387 719.043 51.208 718.467 51.208C717.805 51.208 717.213 51.112 716.691 50.92C716.168 50.7173 715.725 50.4347 715.363 50.072C715 49.7093 714.717 49.2667 714.515 48.744C714.323 48.2213 714.227 47.6293 714.227 46.968C714.227 46.3067 714.328 45.7147 714.531 45.192C714.733 44.6693 715.016 44.2267 715.379 43.864C715.752 43.4907 716.2 43.208 716.723 43.016C717.256 42.8133 717.853 42.712 718.515 42.712C719.048 42.712 719.523 42.776 719.939 42.904C720.355 43.032 720.717 43.2027 721.027 43.416L720.339 44.968C720.136 44.8293 719.901 44.728 719.635 44.664C719.368 44.5893 719.085 44.552 718.787 44.552C718.104 44.552 717.56 44.7493 717.155 45.144C716.749 45.528 716.547 46.1307 716.547 46.952ZM724.153 47.448C724.239 48.152 724.473 48.664 724.857 48.984C725.252 49.2933 725.796 49.448 726.489 49.448C726.863 49.448 727.22 49.4 727.561 49.304C727.903 49.208 728.207 49.0693 728.473 48.888L729.241 50.232C728.484 50.8827 727.487 51.208 726.249 51.208C725.513 51.208 724.873 51.1013 724.329 50.888C723.796 50.664 723.348 50.36 722.985 49.976C722.633 49.592 722.372 49.1387 722.201 48.616C722.031 48.0933 721.945 47.5333 721.945 46.936C721.945 46.2427 722.052 45.6347 722.265 45.112C722.479 44.5787 722.767 44.136 723.129 43.784C723.503 43.432 723.935 43.1653 724.425 42.984C724.927 42.8027 725.455 42.712 726.009 42.712C726.575 42.712 727.076 42.8027 727.513 42.984C727.951 43.1547 728.313 43.4 728.601 43.72C728.9 44.04 729.124 44.424 729.273 44.872C729.433 45.3093 729.513 45.8 729.513 46.344C729.513 46.5253 729.503 46.7173 729.481 46.92C729.471 47.112 729.444 47.288 729.401 47.448H724.153ZM726.009 44.376C725.497 44.376 725.081 44.5307 724.761 44.84C724.441 45.1493 724.255 45.576 724.201 46.12H727.465V45.912C727.465 45.4213 727.332 45.0427 727.065 44.776C726.809 44.5093 726.457 44.376 726.009 44.376ZM672.952 70.312V73.176H678.248V75H670.616V63.96H678.152V65.784H672.952V68.488H677.352V70.312H672.952ZM679.909 66.92H681.205C681.749 66.92 682.021 67.1547 682.021 67.624V68.216C682.234 67.7573 682.57 67.3947 683.029 67.128C683.488 66.8507 684.037 66.712 684.677 66.712C685.541 66.712 686.208 66.9627 686.677 67.464C687.157 67.9653 687.397 68.7173 687.397 69.72V75H685.125V69.88C685.125 68.9413 684.709 68.472 683.877 68.472C683.354 68.472 682.938 68.6587 682.629 69.032C682.33 69.4053 682.181 69.9227 682.181 70.584V75H679.909V66.92ZM688.908 76.152C688.908 75.672 689.036 75.2773 689.292 74.968C689.559 74.6587 689.922 74.4453 690.38 74.328C690.007 74.232 689.73 74.0667 689.548 73.832C689.367 73.5867 689.276 73.304 689.276 72.984C689.276 72.5787 689.399 72.264 689.644 72.04C689.89 71.8053 690.183 71.656 690.524 71.592C690.183 71.3467 689.916 71.0427 689.724 70.68C689.543 70.3173 689.452 69.928 689.452 69.512C689.452 69.096 689.538 68.7173 689.708 68.376C689.89 68.024 690.135 67.7253 690.444 67.48C690.754 67.2347 691.122 67.048 691.548 66.92C691.986 66.7813 692.46 66.712 692.972 66.712C693.655 66.712 694.263 66.824 694.796 67.048H697.308V68.408H696.14C696.428 68.696 696.572 69.1227 696.572 69.688C696.572 70.5093 696.252 71.1547 695.612 71.624C694.972 72.0827 694.119 72.312 693.052 72.312C692.551 72.312 692.135 72.264 691.804 72.168C691.474 72.264 691.308 72.488 691.308 72.84C691.308 73.064 691.394 73.2347 691.564 73.352C691.735 73.4587 691.975 73.512 692.284 73.512H693.98C694.983 73.512 695.756 73.6987 696.3 74.072C696.844 74.4453 697.116 75 697.116 75.736C697.116 76.1733 697.01 76.568 696.796 76.92C696.594 77.272 696.3 77.5707 695.916 77.816C695.532 78.0613 695.068 78.248 694.524 78.376C693.991 78.504 693.388 78.568 692.716 78.568C691.522 78.568 690.588 78.3547 689.916 77.928C689.244 77.5013 688.908 76.9093 688.908 76.152ZM692.428 74.968C691.991 74.968 691.655 75.048 691.42 75.208C691.186 75.368 691.068 75.6187 691.068 75.96C691.068 76.3333 691.228 76.616 691.548 76.808C691.879 77.0107 692.354 77.112 692.972 77.112C693.602 77.112 694.082 77.0053 694.412 76.792C694.754 76.5893 694.924 76.2853 694.924 75.88C694.924 75.5707 694.812 75.3413 694.588 75.192C694.364 75.0427 694.002 74.968 693.5 74.968H692.428ZM694.428 69.512C694.428 69.096 694.3 68.7653 694.044 68.52C693.799 68.2747 693.452 68.152 693.004 68.152C692.556 68.152 692.21 68.2747 691.964 68.52C691.719 68.7653 691.596 69.096 691.596 69.512C691.596 69.928 691.719 70.2587 691.964 70.504C692.21 70.7493 692.556 70.872 693.004 70.872C693.452 70.872 693.799 70.7493 694.044 70.504C694.3 70.2587 694.428 69.928 694.428 69.512ZM700.962 75H698.69V66.92H700.962V75ZM698.674 63.608H700.978V65.672H698.674V63.608ZM703.206 66.92H704.502C705.046 66.92 705.318 67.1547 705.318 67.624V68.216C705.531 67.7573 705.867 67.3947 706.326 67.128C706.785 66.8507 707.334 66.712 707.974 66.712C708.838 66.712 709.505 66.9627 709.974 67.464C710.454 67.9653 710.694 68.7173 710.694 69.72V75H708.422V69.88C708.422 68.9413 708.006 68.472 707.174 68.472C706.651 68.472 706.235 68.6587 705.926 69.032C705.627 69.4053 705.478 69.9227 705.478 70.584V75H703.206V66.92ZM714.669 71.448C714.754 72.152 714.989 72.664 715.373 72.984C715.768 73.2933 716.312 73.448 717.005 73.448C717.378 73.448 717.736 73.4 718.077 73.304C718.418 73.208 718.722 73.0693 718.989 72.888L719.757 74.232C719 74.8827 718.002 75.208 716.765 75.208C716.029 75.208 715.389 75.1013 714.845 74.888C714.312 74.664 713.864 74.36 713.501 73.976C713.149 73.592 712.888 73.1387 712.717 72.616C712.546 72.0933 712.461 71.5333 712.461 70.936C712.461 70.2427 712.568 69.6347 712.781 69.112C712.994 68.5787 713.282 68.136 713.645 67.784C714.018 67.432 714.45 67.1653 714.941 66.984C715.442 66.8027 715.97 66.712 716.525 66.712C717.09 66.712 717.592 66.8027 718.029 66.984C718.466 67.1547 718.829 67.4 719.117 67.72C719.416 68.04 719.64 68.424 719.789 68.872C719.949 69.3093 720.029 69.8 720.029 70.344C720.029 70.5253 720.018 70.7173 719.997 70.92C719.986 71.112 719.96 71.288 719.917 71.448H714.669ZM716.525 68.376C716.013 68.376 715.597 68.5307 715.277 68.84C714.957 69.1493 714.77 69.576 714.717 70.12H717.981V69.912C717.981 69.4213 717.848 69.0427 717.581 68.776C717.325 68.5093 716.973 68.376 716.525 68.376Z" fill="white"/>
<path d="M559 39.875H470V75.125C470 78.3697 489.923 81 514.5 81C539.077 81 559 78.3697 559 75.125V39.875Z" fill="#00285A"/>
<ellipse cx="514.5" cy="39.875" rx="44.5" ry="5.875" fill="#0068B5"/>
<path d="M511.313 62H509.415V53.03H511.313V62ZM519.927 55.656C519.927 56.2713 519.754 56.8087 519.407 57.268C519.06 57.7187 518.592 58.0133 518.003 58.152L520.551 62H518.367L516.469 58.88C516.374 58.724 516.283 58.62 516.196 58.568C516.109 58.516 515.975 58.49 515.793 58.49H515.234V62H513.388V53.03H516.833C517.31 53.03 517.739 53.0907 518.12 53.212C518.501 53.3333 518.826 53.5067 519.095 53.732C519.364 53.9573 519.567 54.2347 519.706 54.564C519.853 54.8847 519.927 55.2487 519.927 55.656ZM518.042 55.799C518.042 55.357 517.925 55.032 517.691 54.824C517.457 54.616 517.08 54.512 516.56 54.512H515.234V57.138H516.521C517.015 57.138 517.392 57.0253 517.652 56.8C517.912 56.5747 518.042 56.241 518.042 55.799Z" fill="white"/>
<rect x="605" y="125" width="180" height="72" rx="36" fill="#00285A"/>
<path d="M683.581 155.24C682.045 155.24 680.898 154.84 680.141 154.04C679.384 153.229 679.005 152.045 679.005 150.488V143.96H681.341V150.744C681.341 151.587 681.522 152.227 681.885 152.664C682.258 153.101 682.824 153.32 683.581 153.32C684.328 153.32 684.882 153.101 685.245 152.664C685.618 152.227 685.805 151.587 685.805 150.744V143.96H688.141V150.488C688.141 152.056 687.757 153.24 686.989 154.04C686.232 154.84 685.096 155.24 683.581 155.24ZM693.56 148.44C693.186 148.44 692.893 148.504 692.68 148.632C692.466 148.749 692.36 148.931 692.36 149.176C692.36 149.379 692.424 149.539 692.552 149.656C692.68 149.763 692.85 149.848 693.064 149.912L694.28 150.28C695.026 150.504 695.576 150.797 695.928 151.16C696.29 151.512 696.472 151.992 696.472 152.6C696.472 153.411 696.168 154.051 695.56 154.52C694.962 154.979 694.141 155.208 693.096 155.208C692.434 155.208 691.826 155.117 691.272 154.936C690.717 154.744 690.226 154.477 689.8 154.136L690.648 152.696C691 152.941 691.378 153.133 691.784 153.272C692.2 153.411 692.605 153.48 693 153.48C693.373 153.48 693.666 153.411 693.88 153.272C694.093 153.133 694.2 152.92 694.2 152.632C694.2 152.44 694.141 152.285 694.024 152.168C693.917 152.04 693.725 151.933 693.448 151.848L692.12 151.464C691.458 151.272 690.952 150.995 690.6 150.632C690.258 150.259 690.088 149.773 690.088 149.176C690.088 148.771 690.168 148.419 690.328 148.12C690.488 147.811 690.706 147.555 690.984 147.352C691.272 147.139 691.613 146.979 692.008 146.872C692.402 146.765 692.834 146.712 693.304 146.712C693.88 146.712 694.44 146.792 694.984 146.952C695.528 147.101 695.986 147.315 696.36 147.592L695.64 149.032C694.978 148.637 694.285 148.44 693.56 148.44ZM699.966 151.448C700.051 152.152 700.286 152.664 700.67 152.984C701.065 153.293 701.609 153.448 702.302 153.448C702.675 153.448 703.033 153.4 703.374 153.304C703.715 153.208 704.019 153.069 704.286 152.888L705.054 154.232C704.297 154.883 703.299 155.208 702.062 155.208C701.326 155.208 700.686 155.101 700.142 154.888C699.609 154.664 699.161 154.36 698.798 153.976C698.446 153.592 698.185 153.139 698.014 152.616C697.843 152.093 697.758 151.533 697.758 150.936C697.758 150.243 697.865 149.635 698.078 149.112C698.291 148.579 698.579 148.136 698.942 147.784C699.315 147.432 699.747 147.165 700.238 146.984C700.739 146.803 701.267 146.712 701.822 146.712C702.387 146.712 702.889 146.803 703.326 146.984C703.763 147.155 704.126 147.4 704.414 147.72C704.713 148.04 704.937 148.424 705.086 148.872C705.246 149.309 705.326 149.8 705.326 150.344C705.326 150.525 705.315 150.717 705.294 150.92C705.283 151.112 705.257 151.288 705.214 151.448H699.966ZM701.822 148.376C701.31 148.376 700.894 148.531 700.574 148.84C700.254 149.149 700.067 149.576 700.014 150.12H703.278V149.912C703.278 149.421 703.145 149.043 702.878 148.776C702.622 148.509 702.27 148.376 701.822 148.376ZM707.081 146.92H708.377C708.921 146.92 709.193 147.155 709.193 147.624V148.616C709.364 148.072 709.646 147.64 710.041 147.32C710.446 146.989 710.948 146.824 711.545 146.824C711.79 146.824 712.004 146.851 712.185 146.904V148.76H711.721C710.91 148.76 710.313 148.968 709.929 149.384C709.545 149.8 709.353 150.493 709.353 151.464V155H707.081V146.92ZM659.059 176.248H655.251L654.403 179H651.955L656.035 167.96H658.403L662.483 179H659.923L659.059 176.248ZM655.763 174.568H658.531L657.123 170.12L655.763 174.568ZM665.795 172.296C666.04 171.752 666.419 171.352 666.931 171.096C667.443 170.84 667.987 170.712 668.563 170.712C669.534 170.712 670.318 171.059 670.915 171.752C671.512 172.435 671.811 173.443 671.811 174.776C671.811 175.427 671.731 176.024 671.571 176.568C671.422 177.112 671.198 177.581 670.899 177.976C670.611 178.36 670.254 178.664 669.827 178.888C669.4 179.101 668.92 179.208 668.387 179.208C667.939 179.208 667.486 179.123 667.027 178.952C666.579 178.771 666.216 178.461 665.939 178.024V182.36H663.667V170.92H664.979C665.523 170.92 665.795 171.16 665.795 171.64V172.296ZM665.875 175.064C665.875 175.811 666.024 176.397 666.323 176.824C666.632 177.24 667.086 177.448 667.683 177.448C668.003 177.448 668.275 177.384 668.499 177.256C668.734 177.128 668.92 176.952 669.059 176.728C669.208 176.493 669.315 176.221 669.379 175.912C669.454 175.603 669.491 175.272 669.491 174.92C669.491 174.131 669.347 173.528 669.059 173.112C668.771 172.685 668.339 172.472 667.763 172.472C667.155 172.472 666.686 172.707 666.355 173.176C666.035 173.635 665.875 174.264 665.875 175.064ZM675.732 172.296C675.978 171.752 676.356 171.352 676.868 171.096C677.38 170.84 677.924 170.712 678.5 170.712C679.471 170.712 680.255 171.059 680.852 171.752C681.45 172.435 681.748 173.443 681.748 174.776C681.748 175.427 681.668 176.024 681.508 176.568C681.359 177.112 681.135 177.581 680.836 177.976C680.548 178.36 680.191 178.664 679.764 178.888C679.338 179.101 678.858 179.208 678.324 179.208C677.876 179.208 677.423 179.123 676.964 178.952C676.516 178.771 676.154 178.461 675.876 178.024V182.36H673.604V170.92H674.916C675.46 170.92 675.732 171.16 675.732 171.64V172.296ZM675.812 175.064C675.812 175.811 675.962 176.397 676.26 176.824C676.57 177.24 677.023 177.448 677.62 177.448C677.94 177.448 678.212 177.384 678.436 177.256C678.671 177.128 678.858 176.952 678.996 176.728C679.146 176.493 679.252 176.221 679.316 175.912C679.391 175.603 679.428 175.272 679.428 174.92C679.428 174.131 679.284 173.528 678.996 173.112C678.708 172.685 678.276 172.472 677.7 172.472C677.092 172.472 676.623 172.707 676.292 173.176C675.972 173.635 675.812 174.264 675.812 175.064ZM685.782 167.528V176.248C685.782 176.675 685.846 176.957 685.974 177.096C686.113 177.224 686.385 177.288 686.79 177.288H686.934V179C686.699 179.053 686.358 179.08 685.91 179.08C685.046 179.08 684.427 178.867 684.054 178.44C683.691 178.013 683.51 177.373 683.51 176.52V167.528H685.782ZM690.876 179H688.604V170.92H690.876V179ZM688.588 167.608H690.892V169.672H688.588V167.608ZM694.992 174.952C694.992 175.741 695.173 176.344 695.536 176.76C695.909 177.165 696.469 177.368 697.216 177.368C697.525 177.368 697.824 177.331 698.112 177.256C698.411 177.171 698.667 177.053 698.88 176.904L699.552 178.456C699.243 178.68 698.869 178.861 698.432 179C697.995 179.139 697.488 179.208 696.912 179.208C696.251 179.208 695.659 179.112 695.136 178.92C694.613 178.717 694.171 178.435 693.808 178.072C693.445 177.709 693.163 177.267 692.96 176.744C692.768 176.221 692.672 175.629 692.672 174.968C692.672 174.307 692.773 173.715 692.976 173.192C693.179 172.669 693.461 172.227 693.824 171.864C694.197 171.491 694.645 171.208 695.168 171.016C695.701 170.813 696.299 170.712 696.96 170.712C697.493 170.712 697.968 170.776 698.384 170.904C698.8 171.032 699.163 171.203 699.472 171.416L698.784 172.968C698.581 172.829 698.347 172.728 698.08 172.664C697.813 172.589 697.531 172.552 697.232 172.552C696.549 172.552 696.005 172.749 695.6 173.144C695.195 173.528 694.992 174.131 694.992 174.952ZM700.387 176.728C700.387 175.885 700.691 175.245 701.299 174.808C701.907 174.36 702.744 174.136 703.811 174.136H705.123V173.816C705.123 173.347 704.995 173.005 704.739 172.792C704.494 172.568 704.099 172.456 703.555 172.456C703.15 172.456 702.76 172.515 702.387 172.632C702.014 172.749 701.672 172.915 701.363 173.128L700.579 171.8C701.027 171.459 701.534 171.192 702.099 171C702.664 170.808 703.272 170.712 703.923 170.712C705.032 170.712 705.864 170.979 706.419 171.512C706.984 172.045 707.267 172.813 707.267 173.816V176.92C707.267 177.165 707.31 177.331 707.395 177.416C707.48 177.491 707.635 177.528 707.859 177.528H708.035V178.92C707.918 178.963 707.779 179 707.619 179.032C707.459 179.064 707.267 179.08 707.043 179.08C706.574 179.08 706.222 178.984 705.987 178.792C705.752 178.6 705.614 178.317 705.571 177.944C705.379 178.328 705.059 178.632 704.611 178.856C704.163 179.08 703.651 179.192 703.075 179.192C702.264 179.192 701.614 178.973 701.123 178.536C700.632 178.099 700.387 177.496 700.387 176.728ZM703.651 177.56C704.11 177.56 704.467 177.411 704.723 177.112C704.99 176.813 705.123 176.392 705.123 175.848V175.432H704.019C703.55 175.432 703.187 175.528 702.931 175.72C702.686 175.901 702.563 176.179 702.563 176.552C702.563 176.893 702.659 177.149 702.851 177.32C703.054 177.48 703.32 177.56 703.651 177.56ZM713.879 177.256V178.952C713.708 178.995 713.521 179.027 713.319 179.048C713.116 179.069 712.876 179.08 712.599 179.08C711.639 179.08 710.935 178.861 710.487 178.424C710.039 177.976 709.815 177.251 709.815 176.248V172.648H708.615V170.92H709.815V168.984H712.087V170.92H713.879V172.648H712.087V176.04C712.087 176.52 712.193 176.845 712.407 177.016C712.62 177.176 713.004 177.256 713.559 177.256H713.879ZM717.626 179H715.354V170.92H717.626V179ZM715.338 167.608H717.642V169.672H715.338V167.608ZM727.742 174.952C727.742 175.624 727.641 176.227 727.438 176.76C727.246 177.283 726.969 177.725 726.606 178.088C726.243 178.451 725.806 178.728 725.294 178.92C724.782 179.112 724.211 179.208 723.582 179.208C722.953 179.208 722.382 179.112 721.87 178.92C721.358 178.728 720.921 178.451 720.558 178.088C720.195 177.725 719.913 177.283 719.71 176.76C719.518 176.227 719.422 175.624 719.422 174.952C719.422 174.28 719.518 173.683 719.71 173.16C719.913 172.637 720.195 172.195 720.558 171.832C720.921 171.469 721.358 171.192 721.87 171C722.382 170.808 722.953 170.712 723.582 170.712C724.211 170.712 724.782 170.808 725.294 171C725.806 171.192 726.243 171.469 726.606 171.832C726.969 172.195 727.246 172.637 727.438 173.16C727.641 173.683 727.742 174.28 727.742 174.952ZM725.422 174.952C725.422 174.131 725.262 173.512 724.942 173.096C724.633 172.68 724.179 172.472 723.582 172.472C722.985 172.472 722.526 172.68 722.206 173.096C721.897 173.512 721.742 174.131 721.742 174.952C721.742 175.784 721.897 176.408 722.206 176.824C722.526 177.24 722.985 177.448 723.582 177.448C724.179 177.448 724.633 177.24 724.942 176.824C725.262 176.408 725.422 175.784 725.422 174.952ZM729.526 170.92H730.822C731.366 170.92 731.638 171.155 731.638 171.624V172.216C731.852 171.757 732.188 171.395 732.646 171.128C733.105 170.851 733.654 170.712 734.294 170.712C735.158 170.712 735.825 170.963 736.294 171.464C736.774 171.965 737.014 172.717 737.014 173.72V179H734.742V173.88C734.742 172.941 734.326 172.472 733.494 172.472C732.972 172.472 732.556 172.659 732.246 173.032C731.948 173.405 731.798 173.923 731.798 174.584V179H729.526V170.92Z" fill="white"/>
<path d="M224 62L234 56.5L224 51V56H210L210 57H224V62Z" fill="#C9CACE"/>
<path d="M448 62L458 56.5L448 51V56H434L434 57H448V62Z" fill="#C9CACE"/>
<path d="M585 62L595 56.5L585 51V56H571L571 57H585V62Z" fill="#C9CACE"/>
<path d="M495.616 72V70.746H496.771V72H495.616ZM500.597 69.184L502.632 72H501.499L500.025 69.877L498.54 72H497.473L499.508 69.195L497.605 66.5H498.727L500.08 68.513L501.433 66.5H502.5L500.597 69.184ZM510.6 72V68.568C510.6 68.106 510.519 67.765 510.358 67.545C510.196 67.3177 509.921 67.204 509.533 67.204C509.085 67.204 508.73 67.3653 508.466 67.688C508.202 68.0107 508.07 68.458 508.07 69.03V72H507.091V68.568C507.091 68.106 507.01 67.765 506.849 67.545C506.687 67.3177 506.412 67.204 506.024 67.204C505.576 67.204 505.221 67.3653 504.957 67.688C504.693 68.0107 504.561 68.458 504.561 69.03V72H503.582V66.5H504.088C504.388 66.5 504.539 66.632 504.539 66.896V67.248C504.707 66.9693 504.931 66.753 505.21 66.599C505.496 66.4377 505.822 66.357 506.189 66.357C506.585 66.357 506.922 66.445 507.201 66.621C507.487 66.7897 507.703 67.039 507.85 67.369C508.018 67.039 508.264 66.7897 508.587 66.621C508.909 66.445 509.28 66.357 509.698 66.357C510.292 66.357 510.754 66.544 511.084 66.918C511.414 67.292 511.579 67.8127 511.579 68.48V72H510.6ZM514.228 64.113V70.504C514.228 70.812 514.276 71.0137 514.371 71.109C514.474 71.197 514.657 71.241 514.921 71.241H514.998V72.011C514.932 72.0257 514.862 72.0367 514.789 72.044C514.716 72.0513 514.639 72.055 514.558 72.055C514.118 72.055 513.788 71.9377 513.568 71.703C513.355 71.461 513.249 71.0833 513.249 70.57V64.113H514.228ZM518.765 72V70.746H519.92V72H518.765ZM522.371 64.113V67.347C522.533 67.0463 522.778 66.808 523.108 66.632C523.446 66.4487 523.831 66.357 524.263 66.357C524.645 66.357 524.982 66.423 525.275 66.555C525.576 66.687 525.825 66.8777 526.023 67.127C526.229 67.369 526.383 67.6623 526.485 68.007C526.595 68.3443 526.65 68.722 526.65 69.14C526.65 69.5727 526.595 69.9723 526.485 70.339C526.375 70.7057 526.214 71.0247 526.001 71.296C525.789 71.56 525.525 71.769 525.209 71.923C524.894 72.0697 524.531 72.143 524.12 72.143C523.717 72.143 523.361 72.066 523.053 71.912C522.753 71.7507 522.518 71.5307 522.349 71.252V71.604C522.349 71.868 522.199 72 521.898 72H521.392V64.113H522.371ZM522.349 69.305C522.349 69.9283 522.492 70.416 522.778 70.768C523.072 71.12 523.479 71.296 523.999 71.296C524.527 71.296 524.931 71.1127 525.209 70.746C525.488 70.3793 525.627 69.8623 525.627 69.195C525.627 68.5497 525.495 68.0583 525.231 67.721C524.975 67.3763 524.593 67.204 524.087 67.204C523.537 67.204 523.108 67.3947 522.8 67.776C522.5 68.15 522.349 68.6597 522.349 69.305ZM529.01 72H528.031V66.5H529.01V72ZM528.009 64.3H529.032V65.4H528.009V64.3ZM531.684 67.325C531.853 67.0243 532.095 66.7897 532.41 66.621C532.733 66.445 533.118 66.357 533.565 66.357C534.196 66.357 534.676 66.5367 535.006 66.896C535.343 67.2553 535.512 67.7833 535.512 68.48V72H534.533V68.579C534.533 68.1097 534.434 67.765 534.236 67.545C534.045 67.3177 533.741 67.204 533.323 67.204C532.839 67.204 532.447 67.3653 532.146 67.688C531.853 68.0107 531.706 68.469 531.706 69.063V72H530.727V66.5H531.233C531.534 66.5 531.684 66.632 531.684 66.896V67.325Z" fill="white"/>
<path d="M718 108L712.5 98L707 108L712 108L712 122L713 122L713 108L718 108Z" fill="#C9CACE"/>
<path d="M672 110L677.5 120L683 110L678 110L678 96L677 96L677 110L672 110Z" fill="#C9CACE"/>
</svg>
