<?xml version="1.0" encoding="UTF-8" standalone="no"?>
<svg
   width="765.34106"
   height="201.43906"
   viewBox="0 0 765.34106 201.43906"
   fill="none"
   version="1.1"
   id="svg203"
   sodipodi:docname="BASIC_FLOW_MO_simplified.svg"
   inkscape:version="1.1.2 (b8e25be833, 2022-02-05)"
   xmlns:inkscape="http://www.inkscape.org/namespaces/inkscape"
   xmlns:sodipodi="http://sodipodi.sourceforge.net/DTD/sodipodi-0.dtd"
   xmlns="http://www.w3.org/2000/svg"
   xmlns:svg="http://www.w3.org/2000/svg">
  <defs
     id="defs207">
    <rect
       x="604.0777"
       y="-126.09709"
       width="101.00971"
       height="71.300972"
       id="rect3151" />
  </defs>
  <sodipodi:namedview
     id="namedview205"
     pagecolor="#ffffff"
     bordercolor="#666666"
     borderopacity="1.0"
     inkscape:pageshadow="2"
     inkscape:pageopacity="0.0"
     inkscape:pagecheckerboard="0"
     showgrid="false"
     showguides="true"
     inkscape:guide-bbox="true"
     inkscape:zoom="2.4015044"
     inkscape:cx="347.28231"
     inkscape:cy="4.9968678"
     inkscape:window-width="2880"
     inkscape:window-height="1706"
     inkscape:window-x="-11"
     inkscape:window-y="-11"
     inkscape:window-maximized="1"
     inkscape:current-layer="svg203">
    <sodipodi:guide
       position="704.08131,171.25464"
       orientation="0,-1"
       id="guide11555" />
  </sodipodi:namedview>
  <rect
     style="fill:#ffffff;stroke-width:1.0001"
     id="rect18650"
     width="765.34106"
     height="201.43906"
     x="0"
     y="0"
     ry="0" />
  <rect
     x="0"
     y="11.737813"
     width="180"
     height="72"
     rx="36"
     fill="#00285a"
     id="rect169" />
  <path
     d="m 64.8774,40.057813 c 0.5226,0 0.9493,-0.0373 1.28,-0.112 v -2.32 h -2.112 v -1.824 h 4.288 v 5.328 c -0.2987,0.2027 -0.7734,0.3947 -1.424,0.576 -0.64,0.1813 -1.376,0.272 -2.208,0.272 -0.864,0 -1.6534,-0.1173 -2.368,-0.352 -0.704,-0.2453 -1.312,-0.608 -1.824,-1.088 -0.5014,-0.48 -0.8907,-1.0773 -1.168,-1.792 -0.2667,-0.7147 -0.4,-1.5467 -0.4,-2.496 0,-0.9067 0.1333,-1.7173 0.4,-2.432 0.2666,-0.7253 0.6506,-1.3333 1.152,-1.824 0.512,-0.5013 1.1253,-0.88 1.84,-1.136 0.7253,-0.2667 1.5466,-0.4 2.464,-0.4 0.7573,0 1.424,0.0853 2,0.256 0.576,0.1707 1.056,0.4 1.44,0.688 l -0.864,1.616 c -0.32,-0.192 -0.6774,-0.3467 -1.072,-0.464 -0.384,-0.1173 -0.8374,-0.176 -1.36,-0.176 -1.1947,0 -2.0907,0.3253 -2.688,0.976 -0.5867,0.64 -0.88,1.5947 -0.88,2.864 0,1.2587 0.2933,2.2133 0.88,2.864 0.5866,0.6507 1.4613,0.976 2.624,0.976 z m 7.2995,-1.872 c 0.0853,0.704 0.32,1.216 0.704,1.536 0.3946,0.3093 0.9386,0.464 1.632,0.464 0.3733,0 0.7306,-0.048 1.072,-0.144 0.3413,-0.096 0.6453,-0.2347 0.912,-0.416 l 0.768,1.344 c -0.7574,0.6507 -1.7547,0.976 -2.992,0.976 -0.736,0 -1.376,-0.1067 -1.92,-0.32 -0.5334,-0.224 -0.9814,-0.528 -1.344,-0.912 -0.352,-0.384 -0.6134,-0.8373 -0.784,-1.36 -0.1707,-0.5227 -0.256,-1.0827 -0.256,-1.68 0,-0.6933 0.1066,-1.3013 0.32,-1.824 0.2133,-0.5333 0.5013,-0.976 0.864,-1.328 0.3733,-0.352 0.8053,-0.6187 1.296,-0.8 0.5013,-0.1813 1.0293,-0.272 1.584,-0.272 0.5653,0 1.0666,0.0907 1.504,0.272 0.4373,0.1707 0.8,0.416 1.088,0.736 0.2986,0.32 0.5226,0.704 0.672,1.152 0.16,0.4373 0.24,0.928 0.24,1.472 0,0.1813 -0.0107,0.3733 -0.032,0.576 -0.0107,0.192 -0.0374,0.368 -0.08,0.528 z m 1.856,-3.072 c -0.512,0 -0.928,0.1547 -1.248,0.464 -0.32,0.3093 -0.5067,0.736 -0.56,1.28 h 3.264 v -0.208 c 0,-0.4907 -0.1334,-0.8693 -0.4,-1.136 -0.256,-0.2667 -0.608,-0.4 -1.056,-0.4 z m 9.6271,4.88 v 1.696 c -0.171,0.0427 -0.357,0.0747 -0.56,0.096 -0.203,0.0213 -0.443,0.032 -0.72,0.032 -0.96,0 -1.664,-0.2187 -2.112,-0.656 -0.4481,-0.448 -0.6721,-1.1733 -0.6721,-2.176 v -3.6 h -1.2 v -1.728 h 1.2 v -1.936 h 2.2721 v 1.936 h 1.792 v 1.728 h -1.792 v 3.392 c 0,0.48 0.107,0.8053 0.32,0.976 0.213,0.16 0.597,0.24 1.152,0.24 z m 10.438,-2.464 v 4.208 h -2.336 v -4.256 l -3.712,-6.784 h 2.608 l 2.336,5.056 2.384,-5.056 h 2.496 z m 11.378,0.16 c 0,0.672 -0.101,1.2747 -0.304,1.808 -0.192,0.5227 -0.469,0.9653 -0.832,1.328 -0.362,0.3627 -0.8,0.64 -1.312,0.832 -0.512,0.192 -1.082,0.288 -1.712,0.288 -0.629,0 -1.2,-0.096 -1.712,-0.288 -0.512,-0.192 -0.949,-0.4693 -1.312,-0.832 -0.362,-0.3627 -0.645,-0.8053 -0.848,-1.328 -0.192,-0.5333 -0.288,-1.136 -0.288,-1.808 0,-0.672 0.096,-1.2693 0.288,-1.792 0.203,-0.5227 0.486,-0.9653 0.848,-1.328 0.363,-0.3627 0.8,-0.64 1.312,-0.832 0.512,-0.192 1.083,-0.288 1.712,-0.288 0.63,0 1.2,0.096 1.712,0.288 0.512,0.192 0.95,0.4693 1.312,0.832 0.363,0.3627 0.64,0.8053 0.832,1.328 0.203,0.5227 0.304,1.12 0.304,1.792 z m -2.32,0 c 0,-0.8213 -0.16,-1.44 -0.48,-1.856 -0.309,-0.416 -0.762,-0.624 -1.36,-0.624 -0.597,0 -1.056,0.208 -1.376,0.624 -0.309,0.416 -0.464,1.0347 -0.464,1.856 0,0.832 0.155,1.456 0.464,1.872 0.32,0.416 0.779,0.624 1.376,0.624 0.598,0 1.051,-0.208 1.36,-0.624 0.32,-0.416 0.48,-1.04 0.48,-1.872 z m 11.369,4.048 h -1.296 c -0.299,0 -0.512,-0.064 -0.64,-0.192 -0.128,-0.128 -0.192,-0.3253 -0.192,-0.592 v -0.448 c -0.214,0.48 -0.544,0.8427 -0.992,1.088 -0.438,0.2347 -0.944,0.352 -1.52,0.352 -0.886,0 -1.558,-0.2613 -2.016,-0.784 -0.448,-0.5227 -0.672,-1.2853 -0.672,-2.288 v -5.216 h 2.272 v 5.072 c 0,0.5227 0.101,0.896 0.304,1.12 0.202,0.224 0.501,0.336 0.896,0.336 0.522,0 0.917,-0.1867 1.184,-0.56 0.266,-0.3733 0.4,-0.88 0.4,-1.52 v -4.448 h 2.272 z m 2.236,-8.08 h 1.296 c 0.544,0 0.816,0.2347 0.816,0.704 v 0.992 c 0.17,-0.544 0.453,-0.976 0.848,-1.296 0.405,-0.3307 0.906,-0.496 1.504,-0.496 0.245,0 0.458,0.0267 0.64,0.08 v 1.856 h -0.464 c -0.811,0 -1.408,0.208 -1.792,0.624 -0.384,0.416 -0.576,1.1093 -0.576,2.08 v 3.536 h -2.272 z m -46.8433,24.528 v 7.552 h -2.208 v -11.04 h 2.576 l 2.992,6.016 3.008,-6.016 h 2.48 v 11.04 h -2.208 v -7.568 l -2.4,4.784 h -1.84 z m 19.1133,3.504 c 0,0.672 -0.101,1.2747 -0.304,1.808 -0.192,0.5227 -0.469,0.9653 -0.832,1.328 -0.363,0.3627 -0.8,0.64 -1.312,0.832 -0.512,0.192 -1.083,0.288 -1.712,0.288 -0.629,0 -1.2,-0.096 -1.712,-0.288 -0.512,-0.192 -0.949,-0.4693 -1.312,-0.832 -0.363,-0.3627 -0.645,-0.8053 -0.848,-1.328 -0.192,-0.5333 -0.288,-1.136 -0.288,-1.808 0,-0.672 0.096,-1.2693 0.288,-1.792 0.203,-0.5227 0.485,-0.9653 0.848,-1.328 0.363,-0.3627 0.8,-0.64 1.312,-0.832 0.512,-0.192 1.083,-0.288 1.712,-0.288 0.629,0 1.2,0.096 1.712,0.288 0.512,0.192 0.949,0.4693 1.312,0.832 0.363,0.3627 0.64,0.8053 0.832,1.328 0.203,0.5227 0.304,1.12 0.304,1.792 z m -2.32,0 c 0,-0.8213 -0.16,-1.44 -0.48,-1.856 -0.309,-0.416 -0.763,-0.624 -1.36,-0.624 -0.597,0 -1.056,0.208 -1.376,0.624 -0.309,0.416 -0.464,1.0347 -0.464,1.856 0,0.832 0.155,1.456 0.464,1.872 0.32,0.416 0.779,0.624 1.376,0.624 0.597,0 1.051,-0.208 1.36,-0.624 0.32,-0.416 0.48,-1.04 0.48,-1.872 z m 11.8,4.048 h -1.312 c -0.544,0 -0.816,-0.24 -0.816,-0.72 v -0.528 c -0.213,0.448 -0.544,0.8053 -0.992,1.072 -0.437,0.256 -0.965,0.384 -1.584,0.384 -0.533,0 -1.013,-0.1013 -1.44,-0.304 -0.426,-0.2027 -0.789,-0.4853 -1.088,-0.848 -0.288,-0.3733 -0.512,-0.8213 -0.672,-1.344 -0.16,-0.5227 -0.24,-1.1093 -0.24,-1.76 0,-0.672 0.086,-1.2693 0.256,-1.792 0.171,-0.5333 0.411,-0.976 0.72,-1.328 0.31,-0.3627 0.678,-0.64 1.104,-0.832 0.438,-0.192 0.923,-0.288 1.456,-0.288 0.512,0 0.971,0.1013 1.376,0.304 0.406,0.2027 0.726,0.4907 0.96,0.864 v -4.352 h 2.272 z m -2.208,-4.032 c 0,-0.7787 -0.154,-1.3867 -0.464,-1.824 -0.298,-0.448 -0.741,-0.672 -1.328,-0.672 -0.576,0 -1.024,0.2187 -1.344,0.656 -0.32,0.4373 -0.48,1.0507 -0.48,1.84 0,0.8 0.15,1.4133 0.448,1.84 0.299,0.4267 0.742,0.64 1.328,0.64 0.576,0 1.024,-0.2187 1.344,-0.656 0.331,-0.448 0.496,-1.056 0.496,-1.824 z m 6.21,0.48 c 0.085,0.704 0.32,1.216 0.704,1.536 0.394,0.3093 0.938,0.464 1.632,0.464 0.373,0 0.73,-0.048 1.072,-0.144 0.341,-0.096 0.645,-0.2347 0.912,-0.416 l 0.768,1.344 c -0.758,0.6507 -1.755,0.976 -2.992,0.976 -0.736,0 -1.376,-0.1067 -1.92,-0.32 -0.534,-0.224 -0.982,-0.528 -1.344,-0.912 -0.352,-0.384 -0.614,-0.8373 -0.784,-1.36 -0.171,-0.5227 -0.256,-1.0827 -0.256,-1.68 0,-0.6933 0.106,-1.3013 0.32,-1.824 0.213,-0.5333 0.501,-0.976 0.864,-1.328 0.373,-0.352 0.805,-0.6187 1.296,-0.8 0.501,-0.1813 1.029,-0.272 1.584,-0.272 0.565,0 1.066,0.0907 1.504,0.272 0.437,0.1707 0.8,0.416 1.088,0.736 0.298,0.32 0.522,0.704 0.672,1.152 0.16,0.4373 0.24,0.928 0.24,1.472 0,0.1813 -0.011,0.3733 -0.032,0.576 -0.011,0.192 -0.038,0.368 -0.08,0.528 z m 1.856,-3.072 c -0.512,0 -0.928,0.1547 -1.248,0.464 -0.32,0.3093 -0.507,0.736 -0.56,1.28 h 3.264 v -0.208 c 0,-0.4907 -0.134,-0.8693 -0.4,-1.136 -0.256,-0.2667 -0.608,-0.4 -1.056,-0.4 z m 7.499,-4.848 v 8.72 c 0,0.4267 0.064,0.7093 0.192,0.848 0.138,0.128 0.41,0.192 0.816,0.192 h 0.144 v 1.712 c -0.235,0.0533 -0.576,0.08 -1.024,0.08 -0.864,0 -1.483,-0.2133 -1.856,-0.64 -0.363,-0.4267 -0.544,-1.0667 -0.544,-1.92 v -8.992 z"
     fill="#ffffff"
     id="path171" />
  <rect
     x="224"
     y="11.737813"
     width="180"
     height="72"
     rx="36"
     fill="#76ceff"
     id="rect173" />
  <path
     d="m 284.609,33.929813 c 0,0.7573 -0.213,1.4187 -0.64,1.984 -0.426,0.5547 -1.002,0.9173 -1.728,1.088 l 3.136,4.736 h -2.688 l -2.336,-3.84 c -0.117,-0.192 -0.229,-0.32 -0.336,-0.384 -0.106,-0.064 -0.272,-0.096 -0.496,-0.096 h -0.688 v 4.32 h -2.272 v -11.04 h 4.24 c 0.587,0 1.115,0.0747 1.584,0.224 0.47,0.1493 0.87,0.3627 1.2,0.64 0.331,0.2773 0.582,0.6187 0.752,1.024 0.182,0.3947 0.272,0.8427 0.272,1.344 z m -2.32,0.176 c 0,-0.544 -0.144,-0.944 -0.432,-1.2 -0.288,-0.256 -0.752,-0.384 -1.392,-0.384 h -1.632 v 3.232 h 1.584 c 0.608,0 1.072,-0.1387 1.392,-0.416 0.32,-0.2773 0.48,-0.688 0.48,-1.232 z m 11.564,7.632 h -1.296 c -0.299,0 -0.512,-0.064 -0.64,-0.192 -0.128,-0.128 -0.192,-0.3253 -0.192,-0.592 v -0.448 c -0.214,0.48 -0.544,0.8427 -0.992,1.088 -0.438,0.2347 -0.944,0.352 -1.52,0.352 -0.886,0 -1.558,-0.2613 -2.016,-0.784 -0.448,-0.5227 -0.672,-1.2853 -0.672,-2.288 v -5.216 h 2.272 v 5.072 c 0,0.5227 0.101,0.896 0.304,1.12 0.202,0.224 0.501,0.336 0.896,0.336 0.522,0 0.917,-0.1867 1.184,-0.56 0.266,-0.3733 0.4,-0.88 0.4,-1.52 v -4.448 h 2.272 z m 2.236,-8.08 h 1.296 c 0.544,0 0.816,0.2347 0.816,0.704 v 0.592 c 0.213,-0.4587 0.549,-0.8213 1.008,-1.088 0.458,-0.2773 1.008,-0.416 1.648,-0.416 0.864,0 1.53,0.2507 2,0.752 0.48,0.5013 0.72,1.2533 0.72,2.256 v 5.28 h -2.272 v -5.12 c 0,-0.9387 -0.416,-1.408 -1.248,-1.408 -0.523,0 -0.939,0.1867 -1.248,0.56 -0.299,0.3733 -0.448,0.8907 -0.448,1.552 v 4.416 h -2.272 z m 15.977,0.528 v 7.552 h -2.208 v -11.04 h 2.576 l 2.992,6.016 3.008,-6.016 h 2.48 v 11.04 h -2.208 v -7.568 l -2.4,4.784 h -1.84 z m 19.114,3.504 c 0,0.672 -0.102,1.2747 -0.304,1.808 -0.192,0.5227 -0.47,0.9653 -0.832,1.328 -0.363,0.3627 -0.8,0.64 -1.312,0.832 -0.512,0.192 -1.083,0.288 -1.712,0.288 -0.63,0 -1.2,-0.096 -1.712,-0.288 -0.512,-0.192 -0.95,-0.4693 -1.312,-0.832 -0.363,-0.3627 -0.646,-0.8053 -0.848,-1.328 -0.192,-0.5333 -0.288,-1.136 -0.288,-1.808 0,-0.672 0.096,-1.2693 0.288,-1.792 0.202,-0.5227 0.485,-0.9653 0.848,-1.328 0.362,-0.3627 0.8,-0.64 1.312,-0.832 0.512,-0.192 1.082,-0.288 1.712,-0.288 0.629,0 1.2,0.096 1.712,0.288 0.512,0.192 0.949,0.4693 1.312,0.832 0.362,0.3627 0.64,0.8053 0.832,1.328 0.202,0.5227 0.304,1.12 0.304,1.792 z m -2.32,0 c 0,-0.8213 -0.16,-1.44 -0.48,-1.856 -0.31,-0.416 -0.763,-0.624 -1.36,-0.624 -0.598,0 -1.056,0.208 -1.376,0.624 -0.31,0.416 -0.464,1.0347 -0.464,1.856 0,0.832 0.154,1.456 0.464,1.872 0.32,0.416 0.778,0.624 1.376,0.624 0.597,0 1.05,-0.208 1.36,-0.624 0.32,-0.416 0.48,-1.04 0.48,-1.872 z m 11.8,4.048 h -1.312 c -0.544,0 -0.816,-0.24 -0.816,-0.72 v -0.528 c -0.214,0.448 -0.544,0.8053 -0.992,1.072 -0.438,0.256 -0.966,0.384 -1.584,0.384 -0.534,0 -1.014,-0.1013 -1.44,-0.304 -0.427,-0.2027 -0.79,-0.4853 -1.088,-0.848 -0.288,-0.3733 -0.512,-0.8213 -0.672,-1.344 -0.16,-0.5227 -0.24,-1.1093 -0.24,-1.76 0,-0.672 0.085,-1.2693 0.256,-1.792 0.17,-0.5333 0.41,-0.976 0.72,-1.328 0.309,-0.3627 0.677,-0.64 1.104,-0.832 0.437,-0.192 0.922,-0.288 1.456,-0.288 0.512,0 0.97,0.1013 1.376,0.304 0.405,0.2027 0.725,0.4907 0.96,0.864 v -4.352 h 2.272 z m -2.208,-4.032 c 0,-0.7787 -0.155,-1.3867 -0.464,-1.824 -0.299,-0.448 -0.742,-0.672 -1.328,-0.672 -0.576,0 -1.024,0.2187 -1.344,0.656 -0.32,0.4373 -0.48,1.0507 -0.48,1.84 0,0.8 0.149,1.4133 0.448,1.84 0.298,0.4267 0.741,0.64 1.328,0.64 0.576,0 1.024,-0.2187 1.344,-0.656 0.33,-0.448 0.496,-1.056 0.496,-1.824 z m 6.209,0.48 c 0.086,0.704 0.32,1.216 0.704,1.536 0.395,0.3093 0.939,0.464 1.632,0.464 0.374,0 0.731,-0.048 1.072,-0.144 0.342,-0.096 0.646,-0.2347 0.912,-0.416 l 0.768,1.344 c -0.757,0.6507 -1.754,0.976 -2.992,0.976 -0.736,0 -1.376,-0.1067 -1.92,-0.32 -0.533,-0.224 -0.981,-0.528 -1.344,-0.912 -0.352,-0.384 -0.613,-0.8373 -0.784,-1.36 -0.17,-0.5227 -0.256,-1.0827 -0.256,-1.68 0,-0.6933 0.107,-1.3013 0.32,-1.824 0.214,-0.5333 0.502,-0.976 0.864,-1.328 0.374,-0.352 0.806,-0.6187 1.296,-0.8 0.502,-0.1813 1.03,-0.272 1.584,-0.272 0.566,0 1.067,0.0907 1.504,0.272 0.438,0.1707 0.8,0.416 1.088,0.736 0.299,0.32 0.523,0.704 0.672,1.152 0.16,0.4373 0.24,0.928 0.24,1.472 0,0.1813 -0.01,0.3733 -0.032,0.576 -0.01,0.192 -0.037,0.368 -0.08,0.528 z m 1.856,-3.072 c -0.512,0 -0.928,0.1547 -1.248,0.464 -0.32,0.3093 -0.506,0.736 -0.56,1.28 h 3.264 v -0.208 c 0,-0.4907 -0.133,-0.8693 -0.4,-1.136 -0.256,-0.2667 -0.608,-0.4 -1.056,-0.4 z m 7.499,-4.848 v 8.72 c 0,0.4267 0.064,0.7093 0.192,0.848 0.139,0.128 0.411,0.192 0.816,0.192 h 0.144 v 1.712 c -0.234,0.0533 -0.576,0.08 -1.024,0.08 -0.864,0 -1.482,-0.2133 -1.856,-0.64 -0.362,-0.4267 -0.544,-1.0667 -0.544,-1.92 v -8.992 z m -69.692,33.792 c 0.971,0 1.707,-0.32 2.208,-0.96 0.512,-0.64 0.768,-1.6 0.768,-2.88 0,-1.2693 -0.256,-2.224 -0.768,-2.864 -0.501,-0.6507 -1.237,-0.976 -2.208,-0.976 -0.97,0 -1.712,0.3253 -2.224,0.976 -0.501,0.64 -0.752,1.5947 -0.752,2.864 0,1.28 0.251,2.24 0.752,2.88 0.512,0.64 1.254,0.96 2.224,0.96 z m 0,1.92 c -0.832,0 -1.584,-0.128 -2.256,-0.384 -0.672,-0.2667 -1.242,-0.6453 -1.712,-1.136 -0.458,-0.5013 -0.816,-1.1093 -1.072,-1.824 -0.245,-0.7147 -0.368,-1.52 -0.368,-2.416 0,-0.896 0.123,-1.696 0.368,-2.4 0.256,-0.7147 0.614,-1.3173 1.072,-1.808 0.47,-0.5013 1.04,-0.8853 1.712,-1.152 0.672,-0.2667 1.424,-0.4 2.256,-0.4 0.832,0 1.584,0.1333 2.256,0.4 0.672,0.2667 1.238,0.6507 1.696,1.152 0.47,0.4907 0.827,1.0933 1.072,1.808 0.256,0.704 0.384,1.504 0.384,2.4 0,0.896 -0.128,1.7013 -0.384,2.416 -0.245,0.7147 -0.602,1.3227 -1.072,1.824 -0.458,0.4907 -1.024,0.8693 -1.696,1.136 -0.672,0.256 -1.424,0.384 -2.256,0.384 z m 9.432,-6.944 c 0.245,-0.544 0.624,-0.944 1.136,-1.2 0.512,-0.256 1.056,-0.384 1.632,-0.384 0.97,0 1.754,0.3467 2.352,1.04 0.597,0.6827 0.896,1.6907 0.896,3.024 0,0.6507 -0.08,1.248 -0.24,1.792 -0.15,0.544 -0.374,1.0133 -0.672,1.408 -0.288,0.384 -0.646,0.688 -1.072,0.912 -0.427,0.2133 -0.907,0.32 -1.44,0.32 -0.448,0 -0.902,-0.0853 -1.36,-0.256 -0.448,-0.1813 -0.811,-0.4907 -1.088,-0.928 v 4.336 h -2.272 v -11.44 h 1.312 c 0.544,0 0.816,0.24 0.816,0.72 z m 0.08,2.768 c 0,0.7467 0.149,1.3333 0.448,1.76 0.309,0.416 0.762,0.624 1.36,0.624 0.32,0 0.592,-0.064 0.816,-0.192 0.234,-0.128 0.421,-0.304 0.56,-0.528 0.149,-0.2347 0.256,-0.5067 0.32,-0.816 0.074,-0.3093 0.112,-0.64 0.112,-0.992 0,-0.7893 -0.144,-1.392 -0.432,-1.808 -0.288,-0.4267 -0.72,-0.64 -1.296,-0.64 -0.608,0 -1.078,0.2347 -1.408,0.704 -0.32,0.4587 -0.48,1.088 -0.48,1.888 z m 12.097,2.192 v 1.696 c -0.17,0.0427 -0.357,0.0747 -0.56,0.096 -0.202,0.0213 -0.442,0.032 -0.72,0.032 -0.96,0 -1.664,-0.2187 -2.112,-0.656 -0.448,-0.448 -0.672,-1.1733 -0.672,-2.176 v -3.6 h -1.2 v -1.728 h 1.2 v -1.936 h 2.272 v 1.936 h 1.792 v 1.728 h -1.792 v 3.392 c 0,0.48 0.107,0.8053 0.32,0.976 0.214,0.16 0.598,0.24 1.152,0.24 z m 3.748,1.744 h -2.272 v -8.08 h 2.272 z m -2.288,-11.392 h 2.304 v 2.064 h -2.304 z m 11.748,11.392 h -2.272 v -5.072 c 0,-0.9387 -0.379,-1.408 -1.136,-1.408 -0.48,0 -0.859,0.1707 -1.136,0.512 -0.267,0.3307 -0.4,0.816 -0.4,1.456 v 4.512 h -2.272 v -8.08 h 1.296 c 0.544,0 0.816,0.2347 0.816,0.704 v 0.56 c 0.213,-0.48 0.538,-0.8427 0.976,-1.088 0.448,-0.256 0.96,-0.384 1.536,-0.384 0.576,0 1.056,0.128 1.44,0.384 0.394,0.2453 0.682,0.608 0.864,1.088 0.234,-0.4693 0.576,-0.832 1.024,-1.088 0.448,-0.256 0.976,-0.384 1.584,-0.384 0.842,0 1.488,0.2613 1.936,0.784 0.458,0.512 0.688,1.2533 0.688,2.224 v 5.28 h -2.272 v -5.072 c 0,-0.9387 -0.379,-1.408 -1.136,-1.408 -0.48,0 -0.859,0.1707 -1.136,0.512 -0.267,0.3307 -0.4,0.816 -0.4,1.456 z m 9.431,0 H 326.3 v -8.08 h 2.272 z m -2.288,-11.392 h 2.304 v 2.064 h -2.304 z m 6.515,9.664 h 4.48 v 1.728 h -7.136 v -1.536 l 4.4,-4.816 h -4.256 v -1.728 h 6.944 v 1.552 z m 7.808,-1.824 c 0.085,0.704 0.32,1.216 0.704,1.536 0.394,0.3093 0.938,0.464 1.632,0.464 0.373,0 0.73,-0.048 1.072,-0.144 0.341,-0.096 0.645,-0.2347 0.912,-0.416 l 0.768,1.344 c -0.758,0.6507 -1.755,0.976 -2.992,0.976 -0.736,0 -1.376,-0.1067 -1.92,-0.32 -0.534,-0.224 -0.982,-0.528 -1.344,-0.912 -0.352,-0.384 -0.614,-0.8373 -0.784,-1.36 -0.171,-0.5227 -0.256,-1.0827 -0.256,-1.68 0,-0.6933 0.106,-1.3013 0.32,-1.824 0.213,-0.5333 0.501,-0.976 0.864,-1.328 0.373,-0.352 0.805,-0.6187 1.296,-0.8 0.501,-0.1813 1.029,-0.272 1.584,-0.272 0.565,0 1.066,0.0907 1.504,0.272 0.437,0.1707 0.8,0.416 1.088,0.736 0.298,0.32 0.522,0.704 0.672,1.152 0.16,0.4373 0.24,0.928 0.24,1.472 0,0.1813 -0.011,0.3733 -0.032,0.576 -0.011,0.192 -0.038,0.368 -0.08,0.528 z m 1.856,-3.072 c -0.512,0 -0.928,0.1547 -1.248,0.464 -0.32,0.3093 -0.507,0.736 -0.56,1.28 h 3.264 v -0.208 c 0,-0.4907 -0.134,-0.8693 -0.4,-1.136 -0.256,-0.2667 -0.608,-0.4 -1.056,-0.4 z m 5.259,-1.456 h 1.296 c 0.544,0 0.816,0.2347 0.816,0.704 v 0.992 c 0.17,-0.544 0.453,-0.976 0.848,-1.296 0.405,-0.3307 0.906,-0.496 1.504,-0.496 0.245,0 0.458,0.0267 0.64,0.08 v 1.856 h -0.464 c -0.811,0 -1.408,0.208 -1.792,0.624 -0.384,0.416 -0.576,1.1093 -0.576,2.08 v 3.536 h -2.272 z"
     fill="#00285a"
     id="path175" />
  <rect
     x="585"
     y="11.737813"
     width="180"
     height="72"
     rx="36"
     fill="#00285a"
     id="rect177" />
  <path
     d="m 539,30.612813 h -89 v 35.25 c 0,3.2447 19.923,5.875 44.5,5.875 24.577,0 44.5,-2.6303 44.5,-5.875 z"
     fill="#00285a"
     id="path181" />
  <ellipse
     cx="494.5"
     cy="30.612812"
     rx="44.5"
     ry="5.875"
     fill="#0068b5"
     id="ellipse183" />
  <path
     d="m 491.313,52.737813 h -1.898 v -8.97 h 1.898 z m 8.614,-6.344 c 0,0.6153 -0.173,1.1527 -0.52,1.612 -0.347,0.4507 -0.815,0.7453 -1.404,0.884 l 2.548,3.848 h -2.184 l -1.898,-3.12 c -0.095,-0.156 -0.186,-0.26 -0.273,-0.312 -0.087,-0.052 -0.221,-0.078 -0.403,-0.078 h -0.559 v 3.51 h -1.846 v -8.97 h 3.445 c 0.477,0 0.906,0.0607 1.287,0.182 0.381,0.1213 0.706,0.2947 0.975,0.52 0.269,0.2253 0.472,0.5027 0.611,0.832 0.147,0.3207 0.221,0.6847 0.221,1.092 z m -1.885,0.143 c 0,-0.442 -0.117,-0.767 -0.351,-0.975 -0.234,-0.208 -0.611,-0.312 -1.131,-0.312 h -1.326 v 2.626 h 1.287 c 0.494,0 0.871,-0.1127 1.131,-0.338 0.26,-0.2253 0.39,-0.559 0.39,-1.001 z"
     fill="#ffffff"
     id="path185" />
  <rect
     x="585"
     y="115.73782"
     width="180"
     height="72"
     rx="36"
     fill="#00285a"
     id="rect187" />
  <path
     d="m 663.581,145.97781 c -1.536,0 -2.683,-0.4 -3.44,-1.2 -0.757,-0.811 -1.136,-1.995 -1.136,-3.552 v -6.528 h 2.336 v 6.784 c 0,0.843 0.181,1.483 0.544,1.92 0.373,0.437 0.939,0.656 1.696,0.656 0.747,0 1.301,-0.219 1.664,-0.656 0.373,-0.437 0.56,-1.077 0.56,-1.92 v -6.784 h 2.336 v 6.528 c 0,1.568 -0.384,2.752 -1.152,3.552 -0.757,0.8 -1.893,1.2 -3.408,1.2 z m 9.979,-6.8 c -0.374,0 -0.667,0.064 -0.88,0.192 -0.214,0.117 -0.32,0.299 -0.32,0.544 0,0.203 0.064,0.363 0.192,0.48 0.128,0.107 0.298,0.192 0.512,0.256 l 1.216,0.368 c 0.746,0.224 1.296,0.517 1.648,0.88 0.362,0.352 0.544,0.832 0.544,1.44 0,0.811 -0.304,1.451 -0.912,1.92 -0.598,0.459 -1.419,0.688 -2.464,0.688 -0.662,0 -1.27,-0.091 -1.824,-0.272 -0.555,-0.192 -1.046,-0.459 -1.472,-0.8 l 0.848,-1.44 c 0.352,0.245 0.73,0.437 1.136,0.576 0.416,0.139 0.821,0.208 1.216,0.208 0.373,0 0.666,-0.069 0.88,-0.208 0.213,-0.139 0.32,-0.352 0.32,-0.64 0,-0.192 -0.059,-0.347 -0.176,-0.464 -0.107,-0.128 -0.299,-0.235 -0.576,-0.32 l -1.328,-0.384 c -0.662,-0.192 -1.168,-0.469 -1.52,-0.832 -0.342,-0.373 -0.512,-0.859 -0.512,-1.456 0,-0.405 0.08,-0.757 0.24,-1.056 0.16,-0.309 0.378,-0.565 0.656,-0.768 0.288,-0.213 0.629,-0.373 1.024,-0.48 0.394,-0.107 0.826,-0.16 1.296,-0.16 0.576,0 1.136,0.08 1.68,0.24 0.544,0.149 1.002,0.363 1.376,0.64 l -0.72,1.44 c -0.662,-0.395 -1.355,-0.592 -2.08,-0.592 z m 6.406,3.008 c 0.085,0.704 0.32,1.216 0.704,1.536 0.395,0.309 0.939,0.464 1.632,0.464 0.373,0 0.731,-0.048 1.072,-0.144 0.341,-0.096 0.645,-0.235 0.912,-0.416 l 0.768,1.344 c -0.757,0.651 -1.755,0.976 -2.992,0.976 -0.736,0 -1.376,-0.107 -1.92,-0.32 -0.533,-0.224 -0.981,-0.528 -1.344,-0.912 -0.352,-0.384 -0.613,-0.837 -0.784,-1.36 -0.171,-0.523 -0.256,-1.083 -0.256,-1.68 0,-0.693 0.107,-1.301 0.32,-1.824 0.213,-0.533 0.501,-0.976 0.864,-1.328 0.373,-0.352 0.805,-0.619 1.296,-0.8 0.501,-0.181 1.029,-0.272 1.584,-0.272 0.565,0 1.067,0.091 1.504,0.272 0.437,0.171 0.8,0.416 1.088,0.736 0.299,0.32 0.523,0.704 0.672,1.152 0.16,0.437 0.24,0.928 0.24,1.472 0,0.181 -0.011,0.373 -0.032,0.576 -0.011,0.192 -0.037,0.368 -0.08,0.528 z m 1.856,-3.072 c -0.512,0 -0.928,0.155 -1.248,0.464 -0.32,0.309 -0.507,0.736 -0.56,1.28 h 3.264 v -0.208 c 0,-0.491 -0.133,-0.869 -0.4,-1.136 -0.256,-0.267 -0.608,-0.4 -1.056,-0.4 z m 5.259,-1.456 h 1.296 c 0.544,0 0.816,0.235 0.816,0.704 v 0.992 c 0.171,-0.544 0.453,-0.976 0.848,-1.296 0.405,-0.331 0.907,-0.496 1.504,-0.496 0.245,0 0.459,0.027 0.64,0.08 v 1.856 h -0.464 c -0.811,0 -1.408,0.208 -1.792,0.624 -0.384,0.416 -0.576,1.109 -0.576,2.08 v 3.536 h -2.272 z m -48.022,29.328 h -3.808 l -0.848,2.752 h -2.448 l 4.08,-11.04 h 2.368 l 4.08,11.04 h -2.56 z m -3.296,-1.68 h 2.768 l -1.408,-4.448 z m 10.032,-2.272 c 0.245,-0.544 0.624,-0.944 1.136,-1.2 0.512,-0.256 1.056,-0.384 1.632,-0.384 0.971,0 1.755,0.347 2.352,1.04 0.597,0.683 0.896,1.691 0.896,3.024 0,0.651 -0.08,1.248 -0.24,1.792 -0.149,0.544 -0.373,1.013 -0.672,1.408 -0.288,0.384 -0.645,0.688 -1.072,0.912 -0.427,0.213 -0.907,0.32 -1.44,0.32 -0.448,0 -0.901,-0.085 -1.36,-0.256 -0.448,-0.181 -0.811,-0.491 -1.088,-0.928 v 4.336 h -2.272 v -11.44 h 1.312 c 0.544,0 0.816,0.24 0.816,0.72 z m 0.08,2.768 c 0,0.747 0.149,1.333 0.448,1.76 0.309,0.416 0.763,0.624 1.36,0.624 0.32,0 0.592,-0.064 0.816,-0.192 0.235,-0.128 0.421,-0.304 0.56,-0.528 0.149,-0.235 0.256,-0.507 0.32,-0.816 0.075,-0.309 0.112,-0.64 0.112,-0.992 0,-0.789 -0.144,-1.392 -0.432,-1.808 -0.288,-0.427 -0.72,-0.64 -1.296,-0.64 -0.608,0 -1.077,0.235 -1.408,0.704 -0.32,0.459 -0.48,1.088 -0.48,1.888 z m 9.857,-2.768 c 0.246,-0.544 0.624,-0.944 1.136,-1.2 0.512,-0.256 1.056,-0.384 1.632,-0.384 0.971,0 1.755,0.347 2.352,1.04 0.598,0.683 0.896,1.691 0.896,3.024 0,0.651 -0.08,1.248 -0.24,1.792 -0.149,0.544 -0.373,1.013 -0.672,1.408 -0.288,0.384 -0.645,0.688 -1.072,0.912 -0.426,0.213 -0.906,0.32 -1.44,0.32 -0.448,0 -0.901,-0.085 -1.36,-0.256 -0.448,-0.181 -0.81,-0.491 -1.088,-0.928 v 4.336 h -2.272 v -11.44 h 1.312 c 0.544,0 0.816,0.24 0.816,0.72 z m 0.08,2.768 c 0,0.747 0.15,1.333 0.448,1.76 0.31,0.416 0.763,0.624 1.36,0.624 0.32,0 0.592,-0.064 0.816,-0.192 0.235,-0.128 0.422,-0.304 0.56,-0.528 0.15,-0.235 0.256,-0.507 0.32,-0.816 0.075,-0.309 0.112,-0.64 0.112,-0.992 0,-0.789 -0.144,-1.392 -0.432,-1.808 -0.288,-0.427 -0.72,-0.64 -1.296,-0.64 -0.608,0 -1.077,0.235 -1.408,0.704 -0.32,0.459 -0.48,1.088 -0.48,1.888 z m 9.97,-7.536 v 8.72 c 0,0.427 0.064,0.709 0.192,0.848 0.139,0.128 0.411,0.192 0.816,0.192 h 0.144 v 1.712 c -0.235,0.053 -0.576,0.08 -1.024,0.08 -0.864,0 -1.483,-0.213 -1.856,-0.64 -0.363,-0.427 -0.544,-1.067 -0.544,-1.92 v -8.992 z m 5.094,11.472 h -2.272 v -8.08 h 2.272 z m -2.288,-11.392 h 2.304 v 2.064 h -2.304 z m 6.404,7.344 c 0,0.789 0.181,1.392 0.544,1.808 0.373,0.405 0.933,0.608 1.68,0.608 0.309,0 0.608,-0.037 0.896,-0.112 0.299,-0.085 0.555,-0.203 0.768,-0.352 l 0.672,1.552 c -0.309,0.224 -0.683,0.405 -1.12,0.544 -0.437,0.139 -0.944,0.208 -1.52,0.208 -0.661,0 -1.253,-0.096 -1.776,-0.288 -0.523,-0.203 -0.965,-0.485 -1.328,-0.848 -0.363,-0.363 -0.645,-0.805 -0.848,-1.328 -0.192,-0.523 -0.288,-1.115 -0.288,-1.776 0,-0.661 0.101,-1.253 0.304,-1.776 0.203,-0.523 0.485,-0.965 0.848,-1.328 0.373,-0.373 0.821,-0.656 1.344,-0.848 0.533,-0.203 1.131,-0.304 1.792,-0.304 0.533,0 1.008,0.064 1.424,0.192 0.416,0.128 0.779,0.299 1.088,0.512 l -0.688,1.552 c -0.203,-0.139 -0.437,-0.24 -0.704,-0.304 -0.267,-0.075 -0.549,-0.112 -0.848,-0.112 -0.683,0 -1.227,0.197 -1.632,0.592 -0.405,0.384 -0.608,0.987 -0.608,1.808 z m 5.395,1.776 c 0,-0.843 0.304,-1.483 0.912,-1.92 0.608,-0.448 1.445,-0.672 2.512,-0.672 h 1.312 v -0.32 c 0,-0.469 -0.128,-0.811 -0.384,-1.024 -0.245,-0.224 -0.64,-0.336 -1.184,-0.336 -0.405,0 -0.795,0.059 -1.168,0.176 -0.373,0.117 -0.715,0.283 -1.024,0.496 l -0.784,-1.328 c 0.448,-0.341 0.955,-0.608 1.52,-0.8 0.565,-0.192 1.173,-0.288 1.824,-0.288 1.109,0 1.941,0.267 2.496,0.8 0.565,0.533 0.848,1.301 0.848,2.304 v 3.104 c 0,0.245 0.043,0.411 0.128,0.496 0.085,0.075 0.24,0.112 0.464,0.112 h 0.176 v 1.392 c -0.117,0.043 -0.256,0.08 -0.416,0.112 -0.16,0.032 -0.352,0.048 -0.576,0.048 -0.469,0 -0.821,-0.096 -1.056,-0.288 -0.235,-0.192 -0.373,-0.475 -0.416,-0.848 -0.192,0.384 -0.512,0.688 -0.96,0.912 -0.448,0.224 -0.96,0.336 -1.536,0.336 -0.811,0 -1.461,-0.219 -1.952,-0.656 -0.491,-0.437 -0.736,-1.04 -0.736,-1.808 z m 3.264,0.832 c 0.459,0 0.816,-0.149 1.072,-0.448 0.267,-0.299 0.4,-0.72 0.4,-1.264 v -0.416 h -1.104 c -0.469,0 -0.832,0.096 -1.088,0.288 -0.245,0.181 -0.368,0.459 -0.368,0.832 0,0.341 0.096,0.597 0.288,0.768 0.203,0.16 0.469,0.24 0.8,0.24 z m 10.228,-0.304 v 1.696 c -0.171,0.043 -0.358,0.075 -0.56,0.096 -0.203,0.021 -0.443,0.032 -0.72,0.032 -0.96,0 -1.664,-0.219 -2.112,-0.656 -0.448,-0.448 -0.672,-1.173 -0.672,-2.176 v -3.6 h -1.2 v -1.728 h 1.2 v -1.936 h 2.272 v 1.936 h 1.792 v 1.728 h -1.792 v 3.392 c 0,0.48 0.106,0.805 0.32,0.976 0.213,0.16 0.597,0.24 1.152,0.24 z m 3.747,1.744 h -2.272 v -8.08 h 2.272 z m -2.288,-11.392 h 2.304 v 2.064 h -2.304 z m 12.404,7.344 c 0,0.672 -0.101,1.275 -0.304,1.808 -0.192,0.523 -0.469,0.965 -0.832,1.328 -0.363,0.363 -0.8,0.64 -1.312,0.832 -0.512,0.192 -1.083,0.288 -1.712,0.288 -0.629,0 -1.2,-0.096 -1.712,-0.288 -0.512,-0.192 -0.949,-0.469 -1.312,-0.832 -0.363,-0.363 -0.645,-0.805 -0.848,-1.328 -0.192,-0.533 -0.288,-1.136 -0.288,-1.808 0,-0.672 0.096,-1.269 0.288,-1.792 0.203,-0.523 0.485,-0.965 0.848,-1.328 0.363,-0.363 0.8,-0.64 1.312,-0.832 0.512,-0.192 1.083,-0.288 1.712,-0.288 0.629,0 1.2,0.096 1.712,0.288 0.512,0.192 0.949,0.469 1.312,0.832 0.363,0.363 0.64,0.805 0.832,1.328 0.203,0.523 0.304,1.12 0.304,1.792 z m -2.32,0 c 0,-0.821 -0.16,-1.44 -0.48,-1.856 -0.309,-0.416 -0.763,-0.624 -1.36,-0.624 -0.597,0 -1.056,0.208 -1.376,0.624 -0.309,0.416 -0.464,1.035 -0.464,1.856 0,0.832 0.155,1.456 0.464,1.872 0.32,0.416 0.779,0.624 1.376,0.624 0.597,0 1.051,-0.208 1.36,-0.624 0.32,-0.416 0.48,-1.04 0.48,-1.872 z m 4.104,-4.032 h 1.296 c 0.544,0 0.816,0.235 0.816,0.704 v 0.592 c 0.214,-0.459 0.55,-0.821 1.008,-1.088 0.459,-0.277 1.008,-0.416 1.648,-0.416 0.864,0 1.531,0.251 2,0.752 0.48,0.501 0.72,1.253 0.72,2.256 v 5.28 h -2.272 v -5.12 c 0,-0.939 -0.416,-1.408 -1.248,-1.408 -0.522,0 -0.938,0.187 -1.248,0.56 -0.298,0.373 -0.448,0.891 -0.448,1.552 v 4.416 h -2.272 z"
     fill="#ffffff"
     id="path189" />
  <path
     d="m 204,52.737813 10,-5.5 -10,-5.5 v 5 h -14 v 1 h 14 z"
     fill="#c9cace"
     id="path191" />
  <path
     d="m 428,52.737813 10,-5.5 -10,-5.5 v 5 h -14 v 1 h 14 z"
     fill="#c9cace"
     id="path193" />
  <path
     d="m 565,52.737813 10,-5.5 -10,-5.5 v 5 h -14 v 1 h 14 z"
     fill="#c9cace"
     id="path195" />
  <path
     d="m 475.616,62.737813 v -1.254 h 1.155 v 1.254 z m 4.981,-2.816 2.035,2.816 h -1.133 l -1.474,-2.123 -1.485,2.123 h -1.067 l 2.035,-2.805 -1.903,-2.695 h 1.122 l 1.353,2.013 1.353,-2.013 h 1.067 z m 10.003,2.816 v -3.432 c 0,-0.462 -0.081,-0.803 -0.242,-1.023 -0.162,-0.2273 -0.437,-0.341 -0.825,-0.341 -0.448,0 -0.803,0.1613 -1.067,0.484 -0.264,0.3227 -0.396,0.77 -0.396,1.342 v 2.97 h -0.979 v -3.432 c 0,-0.462 -0.081,-0.803 -0.242,-1.023 -0.162,-0.2273 -0.437,-0.341 -0.825,-0.341 -0.448,0 -0.803,0.1613 -1.067,0.484 -0.264,0.3227 -0.396,0.77 -0.396,1.342 v 2.97 h -0.979 v -5.5 h 0.506 c 0.3,0 0.451,0.132 0.451,0.396 v 0.352 c 0.168,-0.2787 0.392,-0.495 0.671,-0.649 0.286,-0.1613 0.612,-0.242 0.979,-0.242 0.396,0 0.733,0.088 1.012,0.264 0.286,0.1687 0.502,0.418 0.649,0.748 0.168,-0.33 0.414,-0.5793 0.737,-0.748 0.322,-0.176 0.693,-0.264 1.111,-0.264 0.594,0 1.056,0.187 1.386,0.561 0.33,0.374 0.495,0.8947 0.495,1.562 v 3.52 z m 3.628,-7.887 v 6.391 c 0,0.308 0.048,0.5097 0.143,0.605 0.103,0.088 0.286,0.132 0.55,0.132 h 0.077 v 0.77 c -0.066,0.0147 -0.136,0.0257 -0.209,0.033 -0.073,0.0073 -0.15,0.011 -0.231,0.011 -0.44,0 -0.77,-0.1173 -0.99,-0.352 -0.213,-0.242 -0.319,-0.6197 -0.319,-1.133 v -6.457 z m 4.537,7.887 v -1.254 h 1.155 v 1.254 z m 3.606,-7.887 v 3.234 c 0.162,-0.3007 0.407,-0.539 0.737,-0.715 0.338,-0.1833 0.723,-0.275 1.155,-0.275 0.382,0 0.719,0.066 1.012,0.198 0.301,0.132 0.55,0.3227 0.748,0.572 0.206,0.242 0.36,0.5353 0.462,0.88 0.11,0.3373 0.165,0.715 0.165,1.133 0,0.4327 -0.055,0.8323 -0.165,1.199 -0.11,0.3667 -0.271,0.6857 -0.484,0.957 -0.212,0.264 -0.476,0.473 -0.792,0.627 -0.315,0.1467 -0.678,0.22 -1.089,0.22 -0.403,0 -0.759,-0.077 -1.067,-0.231 -0.3,-0.1613 -0.535,-0.3813 -0.704,-0.66 v 0.352 c 0,0.264 -0.15,0.396 -0.451,0.396 h -0.506 v -7.887 z m -0.022,5.192 c 0,0.6233 0.143,1.111 0.429,1.463 0.294,0.352 0.701,0.528 1.221,0.528 0.528,0 0.932,-0.1833 1.21,-0.55 0.279,-0.3667 0.418,-0.8837 0.418,-1.551 0,-0.6453 -0.132,-1.1367 -0.396,-1.474 -0.256,-0.3447 -0.638,-0.517 -1.144,-0.517 -0.55,0 -0.979,0.1907 -1.287,0.572 -0.3,0.374 -0.451,0.8837 -0.451,1.529 z m 6.661,2.695 h -0.979 v -5.5 h 0.979 z m -1.001,-7.7 h 1.023 v 1.1 h -1.023 z m 3.675,3.025 c 0.169,-0.3007 0.411,-0.5353 0.726,-0.704 0.323,-0.176 0.708,-0.264 1.155,-0.264 0.631,0 1.111,0.1797 1.441,0.539 0.337,0.3593 0.506,0.8873 0.506,1.584 v 3.52 h -0.979 v -3.421 c 0,-0.4693 -0.099,-0.814 -0.297,-1.034 -0.191,-0.2273 -0.495,-0.341 -0.913,-0.341 -0.484,0 -0.876,0.1613 -1.177,0.484 -0.293,0.3227 -0.44,0.781 -0.44,1.375 v 2.937 h -0.979 v -5.5 h 0.506 c 0.301,0 0.451,0.132 0.451,0.396 z"
     fill="#ffffff"
     id="path197" />
  <path
     d="m 698,98.737813 -5.5,-10 -5.5,10 h 5 v 13.999997 h 1 V 98.737813 Z"
     fill="#c9cace"
     id="path199" />
  <path
     d="m 652,100.73781 5.5,10 5.5,-10 h -5 V 86.737813 h -1 v 13.999997 z"
     fill="#c9cace"
     id="path201" />
  <g
     aria-label="OpenVINO™ Runtime "
     transform="translate(19.99711,151.55169)"
     id="text3149"
     style="font-weight:bold;font-size:16px;line-height:1.5;font-family:Arial;-inkscape-font-specification:'Arial, Bold';text-align:center;text-anchor:middle;white-space:pre;shape-inside:url(#rect3151);fill:#ffffff">
    <path
       d="m 607.27441,-115.34184 q 0,-1.75 0.52344,-2.9375 0.39063,-0.875 1.0625,-1.57031 0.67969,-0.69531 1.48438,-1.03125 1.07031,-0.45312 2.46875,-0.45312 2.53125,0 4.04687,1.57031 1.52344,1.57031 1.52344,4.36719 0,2.77343 -1.50781,4.34375 -1.50782,1.5625 -4.03125,1.5625 -2.55469,0 -4.0625,-1.55469 -1.50782,-1.5625 -1.50782,-4.29688 z m 2.38282,-0.0781 q 0,1.94531 0.89843,2.95312 0.89844,1 2.28125,1 1.38282,0 2.26563,-0.99218 0.89062,-1 0.89062,-2.99219 0,-1.96875 -0.86718,-2.9375 -0.85938,-0.96875 -2.28907,-0.96875 -1.42968,0 -2.30468,0.98437 -0.875,0.97657 -0.875,2.95313 z"
       id="path21080" />
    <path
       d="m 620.11035,-117.98246 h 2.04688 v 1.21875 q 0.39843,-0.625 1.07812,-1.01563 0.67969,-0.39062 1.50781,-0.39062 1.44532,0 2.45313,1.13281 1.00781,1.13281 1.00781,3.15625 0,2.07813 -1.01562,3.23438 -1.01563,1.14843 -2.46094,1.14843 -0.6875,0 -1.25,-0.27343 -0.55469,-0.27344 -1.17188,-0.9375 v 4.17968 h -2.19531 z m 2.17188,4.00781 q 0,1.39844 0.55468,2.07031 0.55469,0.66407 1.35157,0.66407 0.76562,0 1.27343,-0.60938 0.50782,-0.61719 0.50782,-2.01562 0,-1.30469 -0.52344,-1.9375 -0.52344,-0.63282 -1.29688,-0.63282 -0.80468,0 -1.33593,0.625 -0.53125,0.61719 -0.53125,1.83594 z"
       id="path21082" />
    <path
       d="m 634.75098,-112.32621 2.1875,0.36719 q -0.42188,1.20312 -1.33594,1.83593 -0.90625,0.625 -2.27344,0.625 -2.16406,0 -3.20312,-1.41406 -0.82032,-1.13281 -0.82032,-2.85937 0,-2.0625 1.07813,-3.22657 1.07812,-1.17187 2.72656,-1.17187 1.85156,0 2.92188,1.22656 1.07031,1.21875 1.02343,3.74219 h -5.5 q 0.0234,0.97656 0.53125,1.52344 0.50782,0.53906 1.26563,0.53906 0.51562,0 0.86719,-0.28125 0.35156,-0.28125 0.53125,-0.90625 z m 0.125,-2.21875 q -0.0234,-0.95313 -0.49219,-1.44531 -0.46875,-0.5 -1.14063,-0.5 -0.71875,0 -1.1875,0.52343 -0.46875,0.52344 -0.46093,1.42188 z"
       id="path21084" />
    <path
       d="m 646.3916,-109.68559 h -2.19531 v -4.23437 q 0,-1.34375 -0.14063,-1.73438 -0.14062,-0.39843 -0.46093,-0.61718 -0.3125,-0.21875 -0.75782,-0.21875 -0.57031,0 -1.02343,0.3125 -0.45313,0.3125 -0.625,0.82812 -0.16407,0.51563 -0.16407,1.90625 v 3.75781 h -2.19531 v -8.29687 h 2.03906 v 1.21875 q 1.08594,-1.40625 2.73438,-1.40625 0.72656,0 1.32812,0.26562 0.60157,0.25782 0.90625,0.66407 0.3125,0.40625 0.42969,0.92187 0.125,0.51563 0.125,1.47656 z"
       id="path21086" />
    <path
       d="m 651.55566,-109.68559 -4.09375,-11.45312 h 2.50782 l 2.89843,8.47656 2.80469,-8.47656 h 2.45313 l -4.10157,11.45312 z"
       id="path21088" />
    <path
       d="m 659.23535,-109.68559 v -11.45312 h 2.3125 v 11.45312 z"
       id="path21090" />
    <path
       d="m 663.77441,-109.68559 v -11.45312 h 2.25 l 4.6875,7.64844 v -7.64844 h 2.14844 v 11.45312 h -2.32031 l -4.61719,-7.46875 v 7.46875 z"
       id="path21092" />
    <path
       d="m 674.83691,-115.34184 q 0,-1.75 0.52344,-2.9375 0.39063,-0.875 1.0625,-1.57031 0.67969,-0.69531 1.48438,-1.03125 1.07031,-0.45312 2.46875,-0.45312 2.53125,0 4.04687,1.57031 1.52344,1.57031 1.52344,4.36719 0,2.77343 -1.50781,4.34375 -1.50782,1.5625 -4.03125,1.5625 -2.55469,0 -4.0625,-1.55469 -1.50782,-1.5625 -1.50782,-4.29688 z m 2.38282,-0.0781 q 0,1.94531 0.89843,2.95312 0.89844,1 2.28125,1 1.38282,0 2.26563,-0.99218 0.89062,-1 0.89062,-2.99219 0,-1.96875 -0.86718,-2.9375 -0.85938,-0.96875 -2.28907,-0.96875 -1.42968,0 -2.30468,0.98437 -0.875,0.97657 -0.875,2.95313 z"
       id="path21094" />
    <path
       d="m 690.25098,-114.74027 v -5.28907 h -1.97657 v -1.10937 h 5.19532 v 1.10937 h -1.92188 v 5.28907 z m 3.99218,0 v -6.39844 h 2.02344 l 1.16406,4.40625 1.17188,-4.40625 h 2.02344 v 6.39844 h -1.23438 v -5.10157 l -1.38281,5.10157 h -1.17188 l -1.375,-5.10157 v 5.10157 z"
       id="path21096" />
    <path
       d="M 623.75488,-85.685585 V -97.13871 h 4.86719 q 1.83594,0 2.66406,0.3125 0.83594,0.304687 1.33594,1.09375 0.5,0.789062 0.5,1.804687 0,1.289063 -0.75781,2.132813 -0.75781,0.835937 -2.26563,1.054687 0.75,0.4375 1.23438,0.960938 0.49219,0.523437 1.32031,1.859375 l 1.39844,2.234375 h -2.76563 l -1.67187,-2.492188 q -0.89063,-1.335937 -1.21875,-1.679687 -0.32813,-0.351563 -0.69531,-0.476563 -0.36719,-0.132812 -1.16407,-0.132812 h -0.46875 v 4.78125 z m 2.3125,-6.609375 h 1.71094 q 1.66406,0 2.07813,-0.140625 0.41406,-0.140625 0.64843,-0.484375 0.23438,-0.34375 0.23438,-0.859375 0,-0.578125 -0.3125,-0.929688 -0.30469,-0.359375 -0.86719,-0.453125 -0.28125,-0.03906 -1.6875,-0.03906 h -1.80469 z"
       id="path21098" />
    <path
       d="m 640.74707,-85.685585 v -1.242188 q -0.45312,0.664063 -1.19531,1.046875 -0.73438,0.382813 -1.55469,0.382813 -0.83594,0 -1.5,-0.367188 -0.66406,-0.367187 -0.96094,-1.03125 -0.29687,-0.664062 -0.29687,-1.835937 v -5.25 h 2.19531 v 3.8125 q 0,1.75 0.11719,2.148437 0.125,0.390625 0.44531,0.625 0.32031,0.226563 0.8125,0.226563 0.5625,0 1.00781,-0.304688 0.44532,-0.3125 0.60938,-0.765625 0.16406,-0.460937 0.16406,-2.242187 v -3.5 h 2.19531 v 8.296875 z"
       id="path21100" />
    <path
       d="m 652.60645,-85.685585 h -2.19532 v -4.234375 q 0,-1.34375 -0.14062,-1.734375 -0.14063,-0.398438 -0.46094,-0.617188 -0.3125,-0.21875 -0.75781,-0.21875 -0.57031,0 -1.02344,0.3125 -0.45312,0.3125 -0.625,0.828125 -0.16406,0.515625 -0.16406,1.90625 v 3.757813 h -2.19531 v -8.296875 h 2.03906 v 1.21875 q 1.08594,-1.40625 2.73437,-1.40625 0.72657,0 1.32813,0.265625 0.60156,0.257812 0.90625,0.664062 0.3125,0.40625 0.42969,0.921875 0.125,0.515625 0.125,1.476563 z"
       id="path21102" />
    <path
       d="m 658.6377,-93.98246 v 1.75 h -1.5 v 3.34375 q 0,1.015625 0.0391,1.1875 0.0469,0.164062 0.19531,0.273437 0.15625,0.109375 0.375,0.109375 0.30469,0 0.88281,-0.210937 l 0.1875,1.703125 q -0.76562,0.328125 -1.73437,0.328125 -0.59375,0 -1.07031,-0.195313 -0.47657,-0.203125 -0.70313,-0.515625 -0.21875,-0.320312 -0.30469,-0.859375 -0.0703,-0.382812 -0.0703,-1.546875 v -3.617187 h -1.00781 v -1.75 h 1.00781 v -1.648438 l 2.20313,-1.28125 v 2.929688 z"
       id="path21104" />
    <path
       d="m 660.16113,-95.10746 v -2.03125 h 2.19532 v 2.03125 z m 0,9.421875 v -8.296875 h 2.19532 v 8.296875 z"
       id="path21106" />
    <path
       d="m 664.44238,-93.98246 h 2.02344 v 1.132812 q 1.08594,-1.320312 2.58594,-1.320312 0.79687,0 1.38281,0.328125 0.58594,0.328125 0.96094,0.992187 0.54687,-0.664062 1.17969,-0.992187 0.63281,-0.328125 1.35156,-0.328125 0.91406,0 1.54687,0.375 0.63282,0.367187 0.94532,1.085937 0.22656,0.53125 0.22656,1.71875 v 5.304688 h -2.19531 v -4.742188 q 0,-1.234375 -0.22657,-1.59375 -0.30468,-0.46875 -0.9375,-0.46875 -0.46093,0 -0.86718,0.28125 -0.40625,0.28125 -0.58594,0.828125 -0.17969,0.539063 -0.17969,1.710938 v 3.984375 h -2.19531 v -4.546875 q 0,-1.210938 -0.11719,-1.5625 -0.11719,-0.351563 -0.36719,-0.523438 -0.24218,-0.171875 -0.66406,-0.171875 -0.50781,0 -0.91406,0.273438 -0.40625,0.273437 -0.58594,0.789062 -0.17187,0.515625 -0.17187,1.710938 v 4.03125 h -2.19532 z"
       id="path21108" />
    <path
       d="m 683.6377,-88.32621 2.1875,0.367187 q -0.42188,1.203125 -1.33594,1.835938 -0.90625,0.625 -2.27344,0.625 -2.16406,0 -3.20312,-1.414063 -0.82032,-1.132812 -0.82032,-2.859375 0,-2.0625 1.07813,-3.226562 1.07812,-1.171875 2.72656,-1.171875 1.85156,0 2.92188,1.226562 1.07031,1.21875 1.02343,3.742188 h -5.5 q 0.0234,0.976562 0.53125,1.523437 0.50782,0.539063 1.26563,0.539063 0.51562,0 0.86719,-0.28125 0.35156,-0.28125 0.53125,-0.90625 z m 0.125,-2.21875 q -0.0234,-0.953125 -0.49219,-1.445313 -0.46875,-0.5 -1.14063,-0.5 -0.71875,0 -1.1875,0.523438 -0.46875,0.523437 -0.46093,1.421875 z"
       id="path21110" />
  </g>
</svg>
