<?xml version="1.0" encoding="UTF-8" standalone="no"?>
<svg
   width="704"
   height="1008"
   overflow="hidden"
   version="1.1"
   id="svg12615"
   sodipodi:docname="FaceNet.svg"
   inkscape:version="1.2.1 (9c6d41e410, 2022-07-14)"
   xmlns:inkscape="http://www.inkscape.org/namespaces/inkscape"
   xmlns:sodipodi="http://sodipodi.sourceforge.net/DTD/sodipodi-0.dtd"
   xmlns="http://www.w3.org/2000/svg"
   xmlns:svg="http://www.w3.org/2000/svg">
  <sodipodi:namedview
     id="namedview12617"
     pagecolor="#ffffff"
     bordercolor="#000000"
     borderopacity="0.25"
     inkscape:showpageshadow="2"
     inkscape:pageopacity="0.0"
     inkscape:pagecheckerboard="0"
     inkscape:deskcolor="#d1d1d1"
     showgrid="false"
     inkscape:zoom="0.88492063"
     inkscape:cx="352.00897"
     inkscape:cy="504"
     inkscape:window-width="1920"
     inkscape:window-height="1137"
     inkscape:window-x="-8"
     inkscape:window-y="-8"
     inkscape:window-maximized="1"
     inkscape:current-layer="svg12615" />
  <defs
     id="defs12545">
    <clipPath
       id="clip0">
      <rect
         x="0"
         y="0"
         width="704"
         height="1008"
         id="rect12542" />
    </clipPath>
  </defs>
  <g
     clip-path="url(#clip0)"
     id="g12613">
    <path
       id="rect12547"
       style="fill:#ffffff"
       d="M 0,0 H 704 V 1008 H 0 Z" />
    <path
       d="M388.101 376.873 377.26 319.736 379.225 319.363 390.066 376.5ZM374.561 321.605 377 313 382.421 320.114Z"
       fill="#AEAEAE"
       id="path12549" />
    <path
       d="M0.982542-0.186041 11.8255 57.0793 9.86045 57.4513-0.982542 0.186041ZM14.5251 55.211 12.0833 63.8155 6.66476 56.6994Z"
       fill="#AEAEAE"
       transform="matrix(1 0 0 -1 309 376.816)"
       id="path12551" />
    <path
       d="M223.5 30.167C223.5 25.9326 226.933 22.5001 231.167 22.5001L474.833 22.5001C479.067 22.5001 482.5 25.9326 482.5 30.167L482.5 60.8331C482.5 65.0675 479.067 68.5 474.833 68.5L231.167 68.5C226.933 68.5 223.5 65.0675 223.5 60.8331Z"
       stroke="#AEAEAE"
       stroke-width="1.33333"
       stroke-miterlimit="8"
       fill="#E9E9E9"
       fill-rule="evenodd"
       id="path12553" />
    <g
       aria-label="embeddings"
       transform="translate(261.058 58)"
       id="text12555"
       style="font-size:34px;font-family:'IntelOne Display Regular', 'IntelOne Display Regular_MSFontService', sans-serif">
      <path
         d="m 9.724,-1.836 q 1.632,0 2.992,-0.68 1.394,-0.714 2.55,-2.142 l 1.666,1.53 Q 15.538,-1.292 13.668,-0.374 11.798,0.51 9.486,0.51 5.78,0.51 3.4,-1.904 1.054,-4.352 1.054,-8.16 q 0,-3.706 2.414,-6.188 2.414,-2.482 5.95,-2.482 3.604,0 5.848,2.346 2.244,2.346 2.244,6.12 0,0.272 -0.034,0.646 -0.034,0.34 -0.068,0.51 H 3.91 q 0.272,2.414 1.87,3.91 1.632,1.462 3.944,1.462 z M 9.452,-14.484 q -2.142,0 -3.672,1.394 -1.53,1.394 -1.87,3.74 h 10.812 q -0.306,-2.38 -1.734,-3.74 -1.428,-1.394 -3.536,-1.394 z"
         id="path12983" />
      <path
         d="m 20.298021,-16.422 h 2.72 v 1.972 q 0.918,-1.19 2.074,-1.768 1.19,-0.612 2.652,-0.612 1.7,0 3.026,0.714 1.326,0.714 2.108,2.074 0.918,-1.36 2.312,-2.074 1.428,-0.714 3.196,-0.714 2.89,0 4.59,1.87 1.734,1.87 1.734,4.862 V 0 h -2.788 v -9.928 q 0,-2.074 -1.054,-3.23 -1.02,-1.19 -2.89,-1.19 -1.836,0 -2.992,1.292 -1.122,1.258 -1.122,3.298 V 0 h -2.754 v -9.928 q 0,-2.074 -1.054,-3.23 -1.02,-1.19 -2.89,-1.19 -1.836,0 -2.992,1.292 -1.122,1.258 -1.122,3.298 V 0 h -2.754 z"
         id="path12985" />
      <path
         d="m 50.830048,0 h -2.72 v -23.8 h 2.754 v 9.928 q 1.088,-1.394 2.652,-2.142 1.598,-0.782 3.366,-0.782 3.468,0 5.78,2.414 2.346,2.38 2.346,6.12 0,3.774 -2.38,6.222 -2.38,2.414 -5.882,2.414 -1.734,0 -3.298,-0.748 -1.53,-0.748 -2.618,-2.074 z m 5.78,-14.348 q -2.448,0 -4.148,1.802 -1.7,1.768 -1.7,4.42 0,2.584 1.666,4.352 1.666,1.734 4.08,1.734 2.516,0 4.08,-1.666 1.598,-1.7 1.598,-4.488 0,-2.754 -1.564,-4.454 -1.53,-1.7 -4.012,-1.7 z"
         id="path12987" />
      <path
         d="m 75.786027,-1.836 q 1.632,0 2.992,-0.68 1.394,-0.714 2.55,-2.142 l 1.666,1.53 q -1.394,1.836 -3.264,2.754 -1.87,0.884 -4.182,0.884 -3.706,0 -6.086,-2.414 -2.346,-2.448 -2.346,-6.256 0,-3.706 2.414,-6.188 2.414,-2.482 5.95,-2.482 3.604,0 5.848,2.346 2.244,2.346 2.244,6.12 0,0.272 -0.034,0.646 -0.034,0.34 -0.068,0.51 h -13.498 q 0.272,2.414 1.87,3.91 1.632,1.462 3.944,1.462 z m -0.272,-12.648 q -2.142,0 -3.672,1.394 -1.53,1.394 -1.87,3.74 h 10.812 q -0.306,-2.38 -1.734,-3.74 -1.428,-1.394 -3.536,-1.394 z"
         id="path12989" />
      <path
         d="m 99.756044,-23.8 h 2.787996 V 0 h -2.753996 v -2.652 q -1.122,1.428 -2.72,2.21 -1.564,0.782 -3.366,0.782 -3.434,0 -5.78,-2.38 -2.312,-2.414 -2.312,-6.12 0,-3.74 2.38,-6.188 2.414,-2.482 5.916,-2.482 1.7,0 3.196,0.714 1.53,0.68 2.652,1.972 z m -5.746,21.726 q 2.482,0 4.148,-1.768 1.7,-1.802 1.7,-4.42 0,-2.652 -1.632,-4.386 -1.632,-1.734 -4.08,-1.734 -2.516,0 -4.114,1.7 -1.598,1.7 -1.598,4.454 0,2.754 1.564,4.454 1.564,1.7 4.012,1.7 z"
         id="path12991" />
      <path
         d="m 119.51003,-23.8 h 2.788 V 0 h -2.754 v -2.652 q -1.122,1.428 -2.72,2.21 -1.564,0.782 -3.366,0.782 -3.434,0 -5.78,-2.38 -2.312,-2.414 -2.312,-6.12 0,-3.74 2.38,-6.188 2.414,-2.482 5.916,-2.482 1.7,0 3.196,0.714 1.53,0.68 2.652,1.972 z m -5.746,21.726 q 2.482,0 4.148,-1.768 1.7,-1.802 1.7,-4.42 0,-2.652 -1.632,-4.386 -1.632,-1.734 -4.08,-1.734 -2.516,0 -4.114,1.7 -1.598,1.7 -1.598,4.454 0,2.754 1.564,4.454 1.564,1.7 4.012,1.7 z"
         id="path12993" />
      <path
         d="m 126.03801,-21.93 h 3.06 v 3.026 h -3.06 z m 0.136,21.93 v -16.422 h 2.788 V 0 Z"
         id="path12995" />
      <path
         d="m 132.87198,-16.422 h 2.72 v 2.55 q 0.986,-1.428 2.482,-2.176 1.53,-0.782 3.4,-0.782 3.264,0 5.1,2.108 1.836,2.108 1.836,5.78 V 0 h -2.754 v -8.772 q 0,-2.584 -1.292,-4.08 -1.258,-1.496 -3.536,-1.496 -2.346,0 -3.774,1.598 -1.428,1.598 -1.428,4.148 V 0 h -2.754 z"
         id="path12997" />
      <path
         d="m 165.23997,-1.938 v -1.156 q -1.122,1.36 -2.72,2.108 -1.564,0.748 -3.366,0.748 -3.468,0 -5.78,-2.312 -2.312,-2.312 -2.312,-5.95 0,-3.604 2.346,-5.95 2.38,-2.38 5.848,-2.38 1.768,0 3.332,0.748 1.564,0.748 2.686,2.108 v -2.448 h 2.754 V -2.04 q 0,4.08 -2.176,6.12 -2.176,2.04 -6.562,2.04 h -4.148 V 3.74 h 4.284 q 2.89,0 4.352,-1.428 1.462,-1.428 1.462,-4.25 z m -5.678,-0.748 q 2.448,0 4.114,-1.666 1.7,-1.7 1.7,-4.148 0,-2.516 -1.7,-4.182 -1.666,-1.7 -4.114,-1.7 -2.55,0 -4.114,1.598 -1.564,1.598 -1.564,4.25 0,2.618 1.564,4.25 1.598,1.598 4.114,1.598 z"
         id="path12999" />
      <path
         d="m 184.82399,-4.794 q 0,2.312 -1.972,3.774 -1.972,1.462 -5.134,1.462 -2.074,0 -3.91,-0.646 -1.802,-0.68 -3.264,-2.006 l 1.428,-2.108 q 1.564,1.292 2.924,1.87 1.36,0.578 2.89,0.578 1.972,0 3.162,-0.748 1.224,-0.782 1.224,-2.006 0,-1.258 -1.02,-1.802 -1.02,-0.578 -3.366,-0.612 -3.434,-0.136 -5.032,-1.258 -1.564,-1.122 -1.564,-3.502 0,-2.176 1.802,-3.604 1.836,-1.462 4.692,-1.462 1.938,0 3.638,0.612 1.7,0.612 3.094,1.802 l -1.326,2.074 q -1.394,-1.122 -2.686,-1.632 -1.292,-0.51 -2.754,-0.51 -1.666,0 -2.754,0.748 -1.054,0.748 -1.054,1.836 0,1.19 0.952,1.734 0.952,0.544 3.026,0.646 3.706,0.102 5.338,1.224 1.666,1.122 1.666,3.536 z"
         id="path13001" />
    </g>
    <path
       d="M223.5 158.501C223.5 141.38 237.38 127.5 254.501 127.5L451.499 127.5C468.621 127.5 482.5 141.38 482.5 158.501L482.5 282.499C482.5 299.621 468.621 313.5 451.499 313.5L254.501 313.5C237.38 313.5 223.5 299.621 223.5 282.499Z"
       stroke="#AEAEAE"
       stroke-width="1.33333"
       stroke-miterlimit="8"
       fill="#E9E9E9"
       fill-rule="evenodd"
       id="path12557" />
    <g
       aria-label="InceptionResent..."
       transform="translate(251.808 229)"
       id="text12559"
       style="font-size:26px;font-family:'IntelOne Display Regular', 'IntelOne Display Regular_MSFontService', sans-serif">
      <path
         d="M 1.872,0 V -18.2 H 4.108 V 0 Z"
         id="path13004" />
      <path
         d="m 7.3579881,-12.558 h 2.08 v 1.95 q 0.7539999,-1.092 1.8979999,-1.664 1.17,-0.598 2.6,-0.598 2.496,0 3.9,1.612 1.404,1.612 1.404,4.42 V 0 h -2.106 v -6.708 q 0,-1.976 -0.988,-3.12 -0.962,-1.144 -2.704,-1.144 -1.794,0 -2.886,1.222 -1.0919999,1.222 -1.0919999,3.172 V 0 h -2.106 z"
         id="path13006" />
      <path
         d="m 27.767967,0.39 q -2.886,0 -4.706,-1.82 -1.794,-1.846 -1.794,-4.81 0,-2.808 1.898,-4.732 1.898,-1.924 4.654,-1.924 2.002,0 3.406,0.936 1.43,0.91 2.158,2.652 l -1.794,0.858 q -0.598,-1.3 -1.56,-1.95 -0.936,-0.65 -2.236,-0.65 -1.846,0 -3.12,1.404 -1.248,1.378 -1.248,3.406 0,2.054 1.248,3.432 1.274,1.352 3.172,1.352 1.222,0 2.262,-0.65 1.066,-0.676 1.716,-1.872 l 1.638,0.884 q -0.754,1.612 -2.262,2.548 -1.508,0.936 -3.432,0.936 z"
         id="path13008" />
      <path
         d="m 41.625964,-1.404 q 1.248,0 2.288,-0.52 1.066,-0.546 1.95,-1.638 l 1.274,1.17 q -1.066,1.404 -2.496,2.106 -1.43,0.676 -3.198,0.676 -2.834,0 -4.654,-1.846 -1.794,-1.872 -1.794,-4.784 0,-2.834 1.846,-4.732 1.846,-1.898 4.55,-1.898 2.756,0 4.472,1.794 1.716,1.794 1.716,4.68 0,0.208 -0.026,0.494 -0.026,0.26 -0.052,0.39 h -10.322 q 0.208,1.846 1.43,2.99 1.248,1.118 3.016,1.118 z m -0.208,-9.672 q -1.638,0 -2.808,1.066 -1.17,1.066 -1.43,2.86 h 8.268 q -0.234,-1.82 -1.326,-2.86 -1.092,-1.066 -2.704,-1.066 z"
         id="path13010" />
      <path
         d="m 51.817981,4.68 h -2.106 v -17.238 h 2.08 v 2.028 q 0.832,-1.092 2.054,-1.69 1.222,-0.624 2.6,-0.624 2.652,0 4.42,1.846 1.768,1.82 1.768,4.68 0,2.886 -1.846,4.758 -1.82,1.846 -4.498,1.846 -1.274,0 -2.47,-0.52 -1.17,-0.546 -2.002,-1.534 z m 4.394,-15.652 q -1.898,0 -3.198,1.378 -1.274,1.352 -1.274,3.38 0,2.002 1.248,3.328 1.274,1.326 3.146,1.326 1.924,0 3.12,-1.274 1.222,-1.3 1.222,-3.432 0,-2.106 -1.196,-3.406 -1.17,-1.3 -3.068,-1.3 z"
         id="path13012" />
      <path
         d="m 65.389986,-3.354 v -7.332 h -1.716 v -1.872 h 1.716 v -3.848 h 2.106 v 3.848 h 2.912 v 1.872 h -2.912 v 7.15 q 0,0.832 0.364,1.248 0.39,0.39 1.17,0.39 h 1.378 V 0 h -1.69 q -1.742,0 -2.548,-0.806 -0.78,-0.806 -0.78,-2.548 z"
         id="path13014" />
      <path
         d="m 72.669987,-16.77 h 2.34 v 2.314 h -2.34 z m 0.104,16.77 v -12.558 h 2.132 V 0 Z"
         id="path13016" />
      <path
         d="m 90.401975,-6.266 q 0,2.834 -1.898,4.758 -1.898,1.898 -4.68,1.898 -2.782,0 -4.654,-1.898 -1.846,-1.898 -1.846,-4.732 0,-2.834 1.898,-4.732 1.898,-1.924 4.68,-1.924 2.782,0 4.628,1.898 1.872,1.898 1.872,4.732 z m -10.92,0.026 q 0,2.028 1.248,3.406 1.274,1.378 3.146,1.378 1.846,0 3.094,-1.378 1.274,-1.378 1.274,-3.432 0,-2.002 -1.274,-3.38 -1.274,-1.404 -3.12,-1.404 -1.846,0 -3.12,1.378 -1.248,1.378 -1.248,3.432 z"
         id="path13018" />
      <path
         d="m 92.585985,-12.558 h 2.08 v 1.95 q 0.754,-1.092 1.898,-1.664 1.17,-0.598 2.6,-0.598 2.495995,0 3.899995,1.612 1.404,1.612 1.404,4.42 V 0 h -2.106 v -6.708 q 0,-1.976 -0.988,-3.12 -0.962,-1.144 -2.703995,-1.144 -1.794,0 -2.886,1.222 -1.092,1.222 -1.092,3.172 V 0 h -2.106 z"
         id="path13020" />
      <path
         d="m 117.12996,-7.67 5.174,7.67 h -2.652 l -4.914,-7.41 h -5.122 V 0 h -2.236 v -18.2 h 8.008 q 3.068,0 4.784,1.43 1.716,1.404 1.716,3.874 0,2.028 -1.248,3.406 -1.248,1.378 -3.51,1.82 z m 2.496,-5.174 q 0,-1.586 -1.144,-2.47 -1.118,-0.91 -3.146,-0.91 h -5.72 v 6.864 h 5.538 q 2.054,0 3.25,-0.936 1.222,-0.962 1.222,-2.548 z"
         id="path13022" />
      <path
         d="m 130.10396,-1.404 q 1.248,0 2.288,-0.52 1.066,-0.546 1.95,-1.638 l 1.274,1.17 q -1.066,1.404 -2.496,2.106 -1.43,0.676 -3.198,0.676 -2.834,0 -4.654,-1.846 -1.794,-1.872 -1.794,-4.784 0,-2.834 1.846,-4.732 1.846,-1.898 4.55,-1.898 2.756,0 4.472,1.794 1.716,1.794 1.716,4.68 0,0.208 -0.026,0.494 -0.026,0.26 -0.052,0.39 h -10.322 q 0.208,1.846 1.43,2.99 1.248,1.118 3.016,1.118 z m -0.208,-9.672 q -1.638,0 -2.808,1.066 -1.17,1.066 -1.43,2.86 h 8.268 q -0.234,-1.82 -1.326,-2.86 -1.092,-1.066 -2.704,-1.066 z"
         id="path13024" />
      <path
         d="m 148.30398,-3.666 q 0,1.768 -1.508,2.886 -1.508,1.118 -3.926,1.118 -1.586,0 -2.99,-0.494 -1.378,-0.52 -2.496,-1.534 l 1.092,-1.612 q 1.196,0.988 2.236,1.43 1.04,0.442 2.21,0.442 1.508,0 2.418,-0.572 0.936,-0.598 0.936,-1.534 0,-0.962 -0.78,-1.378 -0.78,-0.442 -2.574,-0.468 -2.626,-0.104 -3.848,-0.962 -1.196,-0.858 -1.196,-2.678 0,-1.664 1.378,-2.756 1.404,-1.118 3.588,-1.118 1.482,0 2.782,0.468 1.3,0.468 2.366,1.378 l -1.014,1.586 q -1.066,-0.858 -2.054,-1.248 -0.988,-0.39 -2.106,-0.39 -1.274,0 -2.106,0.572 -0.806,0.572 -0.806,1.404 0,0.91 0.728,1.326 0.728,0.416 2.314,0.494 2.834,0.078 4.082,0.936 1.274,0.858 1.274,2.704 z"
         id="path13026" />
      <path
         d="m 156.494,-1.404 q 1.248,0 2.288,-0.52 1.066,-0.546 1.95,-1.638 l 1.274,1.17 q -1.066,1.404 -2.496,2.106 -1.43,0.676 -3.198,0.676 -2.834,0 -4.654,-1.846 -1.794,-1.872 -1.794,-4.784 0,-2.834 1.846,-4.732 1.846,-1.898 4.55,-1.898 2.756,0 4.472,1.794 1.716,1.794 1.716,4.68 0,0.208 -0.026,0.494 -0.026,0.26 -0.052,0.39 h -10.322 q 0.208,1.846 1.43,2.99 1.248,1.118 3.016,1.118 z m -0.208,-9.672 q -1.638,0 -2.808,1.066 -1.17,1.066 -1.43,2.86 h 8.268 q -0.234,-1.82 -1.326,-2.86 -1.092,-1.066 -2.704,-1.066 z"
         id="path13028" />
      <path
         d="m 164.58001,-12.558 h 2.08 v 1.95 q 0.754,-1.092 1.898,-1.664 1.17,-0.598 2.6,-0.598 2.496,0 3.9,1.612 1.404,1.612 1.404,4.42 V 0 h -2.106 v -6.708 q 0,-1.976 -0.988,-3.12 -0.962,-1.144 -2.704,-1.144 -1.794,0 -2.886,1.222 -1.092,1.222 -1.092,3.172 V 0 h -2.106 z"
         id="path13030" />
      <path
         d="m 179.76399,-3.354 v -7.332 h -1.716 v -1.872 h 1.716 v -3.848 h 2.106 v 3.848 h 2.912 v 1.872 h -2.912 v 7.15 q 0,0.832 0.364,1.248 0.39,0.39 1.17,0.39 h 1.378 V 0 h -1.69 q -1.742,0 -2.548,-0.806 -0.78,-0.806 -0.78,-2.548 z"
         id="path13032" />
      <path
         d="m 186.784,-2.626 h 2.626 V 0 h -2.626 z"
         id="path13034" />
      <path
         d="m 191.906,-2.626 h 2.626 V 0 h -2.626 z"
         id="path13036" />
      <path
         d="m 197.02801,-2.626 h 2.626 V 0 h -2.626 z"
         id="path13038" />
    </g>
    <path
       d="M1-1.78222e-06 1.00009 52.2413-0.999907 52.2413-1 1.78222e-06ZM4.00009 50.9079 0.000104987 58.9079-3.99991 50.9079Z"
       fill="#AEAEAE"
       transform="matrix(1 0 0 -1 353 126.908)"
       id="path12561" />
    <g
       aria-label="2 tensors"
       transform="translate(316.822 104)"
       id="text12563"
       style="font-size:17px;font-family:'IntelOne Display Regular', 'IntelOne Display Regular_MSFontService', sans-serif">
      <path
         d="M 9.129,0 H 0.646 V -1.19 L 4.76,-4.964 q 1.462,-1.326 1.989,-2.108 0.527,-0.782 0.527,-1.666 0,-0.935 -0.697,-1.53 -0.68,-0.612 -1.7,-0.612 -1.258,0 -1.989,0.782 -0.714,0.765 -0.765,2.159 H 0.731 q 0.034,-1.938 1.156,-3.077 1.139,-1.156 3.026,-1.156 1.666,0 2.737,0.969 1.088,0.952 1.088,2.431 0,1.19 -0.663,2.21 -0.646,1.003 -2.465,2.601 l -3.009,2.686 h 6.528 z"
         id="path13041" />
      <path
         d="m 14.126991,-2.193 v -4.794 h -1.122 v -1.224 h 1.122 v -2.516 h 1.377 v 2.516 h 1.904 v 1.224 h -1.904 v 4.675 q 0,0.544 0.238,0.816 0.255,0.255 0.765,0.255 h 0.901 V 0 h -1.105 q -1.139,0 -1.666,-0.527 -0.51,-0.527 -0.51,-1.666 z"
         id="path13043" />
      <path
         d="m 22.627001,-0.918 q 0.816,0 1.496,-0.34 0.697,-0.357 1.275,-1.071 l 0.833,0.765 q -0.697,0.918 -1.632,1.377 -0.935,0.442 -2.091,0.442 -1.853,0 -3.043,-1.207 -1.173,-1.224 -1.173,-3.128 0,-1.853 1.207,-3.094 1.207,-1.241 2.975,-1.241 1.802,0 2.924,1.173 1.122,1.173 1.122,3.06 0,0.136 -0.017,0.323 -0.017,0.17 -0.034,0.255 h -6.749 q 0.136,1.207 0.935,1.955 0.816,0.731 1.972,0.731 z m -0.136,-6.324 q -1.071,0 -1.836,0.697 -0.765,0.697 -0.935,1.87 h 5.406 q -0.153,-1.19 -0.867,-1.87 -0.714,-0.697 -1.768,-0.697 z"
         id="path13045" />
      <path
         d="m 27.914012,-8.211 h 1.36 v 1.275 q 0.493,-0.714 1.241,-1.088 0.765,-0.391 1.7,-0.391 1.632,0 2.55,1.054 0.918,1.054 0.918,2.89 V 0 h -1.377 v -4.386 q 0,-1.292 -0.646,-2.04 -0.629,-0.748 -1.768,-0.748 -1.173,0 -1.887,0.799 -0.714,0.799 -0.714,2.074 V 0 h -1.377 z"
         id="path13047" />
      <path
         d="m 43.995998,-2.397 q 0,1.156 -0.986,1.887 -0.986,0.731 -2.567,0.731 -1.037,0 -1.955,-0.323 -0.901,-0.34 -1.632,-1.003 l 0.714,-1.054 q 0.782,0.646 1.462,0.935 0.68,0.289 1.445,0.289 0.986,0 1.581,-0.374 0.612,-0.391 0.612,-1.003 0,-0.629 -0.51,-0.901 -0.51,-0.289 -1.683,-0.306 -1.717,-0.068 -2.516,-0.629 -0.782,-0.561 -0.782,-1.751 0,-1.088 0.901,-1.802 0.918,-0.731 2.346,-0.731 0.969,0 1.819,0.306 0.85,0.306 1.547,0.901 l -0.663,1.037 q -0.697,-0.561 -1.343,-0.816 -0.646,-0.255 -1.377,-0.255 -0.833,0 -1.377,0.374 -0.527,0.374 -0.527,0.918 0,0.595 0.476,0.867 0.476,0.272 1.513,0.323 1.853,0.051 2.669,0.612 0.833,0.561 0.833,1.768 z"
         id="path13049" />
      <path
         d="m 53.56701,-4.097 q 0,1.853 -1.241,3.111 -1.241,1.241 -3.06,1.241 -1.819,0 -3.043,-1.241 -1.207,-1.241 -1.207,-3.094 0,-1.853 1.241,-3.094 1.241,-1.258 3.06,-1.258 1.819,0 3.026,1.241 1.224,1.241 1.224,3.094 z m -7.14,0.017 q 0,1.326 0.816,2.227 0.833,0.901 2.057,0.901 1.207,0 2.023,-0.901 0.833,-0.901 0.833,-2.244 0,-1.309 -0.833,-2.21 -0.833,-0.918 -2.04,-0.918 -1.207,0 -2.04,0.901 -0.816,0.901 -0.816,2.244 z"
         id="path13051" />
      <path
         d="m 54.995017,-8.211 h 1.36 v 1.037 q 0.374,-0.544 0.969,-0.816 0.595,-0.272 1.411,-0.272 h 0.748 v 1.309 h -0.765 q -1.173,0 -1.768,0.612 -0.578,0.612 -0.578,1.853 V 0 h -1.377 z"
         id="path13053" />
      <path
         d="m 67.218018,-2.397 q 0,1.156 -0.986,1.887 -0.986,0.731 -2.567,0.731 -1.037,0 -1.955,-0.323 -0.901,-0.34 -1.632,-1.003 l 0.714,-1.054 q 0.782,0.646 1.462,0.935 0.68,0.289 1.445,0.289 0.986,0 1.581,-0.374 0.612,-0.391 0.612,-1.003 0,-0.629 -0.51,-0.901 -0.51,-0.289 -1.683,-0.306 -1.717,-0.068 -2.516,-0.629 -0.782,-0.561 -0.782,-1.751 0,-1.088 0.901,-1.802 0.918,-0.731 2.346,-0.731 0.969,0 1.819,0.306 0.85,0.306 1.547,0.901 l -0.663,1.037 q -0.697,-0.561 -1.343,-0.816 -0.646,-0.255 -1.377,-0.255 -0.833,0 -1.377,0.374 -0.527,0.374 -0.527,0.918 0,0.595 0.476,0.867 0.476,0.272 1.513,0.323 1.853,0.051 2.669,0.612 0.833,0.561 0.833,1.768 z"
         id="path13055" />
    </g>
    <path
       d="M322.5 985.5C322.5 977.768 335.932 971.5 352.5 971.5 369.069 971.5 382.5 977.768 382.5 985.5 382.5 993.232 369.069 999.5 352.5 999.5 335.932 999.5 322.5 993.232 322.5 985.5Z"
       stroke="#AEAEAE"
       stroke-width="1.33333"
       stroke-miterlimit="8"
       fill="#FFFFFF"
       fill-rule="evenodd"
       id="path12565" />
    <path
       d="M104.5 572.835C104.5 535.094 135.094 504.5 172.835 504.5L532.166 504.5C569.906 504.5 600.5 535.094 600.5 572.835L600.5 846.165C600.5 883.906 569.906 914.5 532.166 914.5L172.835 914.5C135.094 914.5 104.5 883.906 104.5 846.165Z"
       stroke="#AEAEAE"
       stroke-width="1.33333"
       stroke-miterlimit="8"
       fill="#E9E9E9"
       fill-rule="evenodd"
       id="path12567" />
    <path
       d="M279.5 391.5C279.5 383.768 292.932 377.5 309.5 377.5 326.069 377.5 339.5 383.768 339.5 391.5 339.5 399.232 326.069 405.5 309.5 405.5 292.932 405.5 279.5 399.232 279.5 391.5Z"
       stroke="#AEAEAE"
       stroke-width="1.33333"
       stroke-miterlimit="8"
       fill="#FFFFFF"
       fill-rule="evenodd"
       id="path12569" />
    <path
       d="M359.5 391.5C359.5 383.768 373.155 377.5 390 377.5 406.845 377.5 420.5 383.768 420.5 391.5 420.5 399.232 406.845 405.5 390 405.5 373.155 405.5 359.5 399.232 359.5 391.5Z"
       stroke="#AEAEAE"
       stroke-width="1.33333"
       stroke-miterlimit="8"
       fill="#FFFFFF"
       fill-rule="evenodd"
       id="path12571" />
    <path
       d="M232.5 452.5C232.5 444.768 245.932 438.5 262.5 438.5 279.069 438.5 292.5 444.768 292.5 452.5 292.5 460.232 279.069 466.5 262.5 466.5 245.932 466.5 232.5 460.232 232.5 452.5Z"
       stroke="#AEAEAE"
       stroke-width="1.33333"
       stroke-miterlimit="8"
       fill="#FFFFFF"
       fill-rule="evenodd"
       id="path12573" />
    <path
       d="M383.5 452.5C383.5 444.768 396.932 438.5 413.5 438.5 430.069 438.5 443.5 444.768 443.5 452.5 443.5 460.232 430.069 466.5 413.5 466.5 396.932 466.5 383.5 460.232 383.5 452.5Z"
       stroke="#AEAEAE"
       stroke-width="1.33333"
       stroke-miterlimit="8"
       fill="#FFFFFF"
       fill-rule="evenodd"
       id="path12575" />
    <path
       d="M1-1.85532e-06 1.00009 49.9202-0.999907 49.9202-1 1.85532e-06ZM4.00009 48.5869 0.000104987 56.5869-3.99991 48.5869Z"
       fill="#AEAEAE"
       transform="matrix(1 0 0 -1 352 970.587)"
       id="path12577" />
    <path
       d="M321.5 805.5C321.5 797.768 335.155 791.5 352 791.5 368.845 791.5 382.5 797.768 382.5 805.5 382.5 813.232 368.845 819.5 352 819.5 335.155 819.5 321.5 813.232 321.5 805.5Z"
       stroke="#AEAEAE"
       stroke-width="1.33333"
       stroke-miterlimit="8"
       fill="#FFFFFF"
       fill-rule="evenodd"
       id="path12579" />
    <path
       d="M177.5 853.5C177.5 845.768 190.932 839.5 207.5 839.5 224.069 839.5 237.5 845.768 237.5 853.5 237.5 861.232 224.069 867.5 207.5 867.5 190.932 867.5 177.5 861.232 177.5 853.5Z"
       stroke="#AEAEAE"
       stroke-width="1.33333"
       stroke-miterlimit="8"
       fill="#FFFFFF"
       fill-rule="evenodd"
       id="path12581" />
    <path
       d="M227.027 843.185 227.375 841.725 228.341 840.09 229.874 838.696 231.857 837.308 234.26 836.074 237.079 834.857 243.664 832.641 251.494 830.81 260.12 829.424 269.433 828.481 278.967 828.167 288.467 827.854 288.405 827.858 297.593 826.983 297.523 826.992 306.148 825.555 306.083 825.568 313.771 823.756 313.689 823.778 320.189 821.653 320.104 821.686 322.854 820.498 322.65 820.616 324.764 819.03 325.965 820.63 323.755 822.287 320.854 823.54 314.271 825.693 306.51 827.522 297.817 828.971 288.564 829.852 279.033 830.166 269.533 830.478 269.601 830.474 260.351 831.411 260.409 831.404 251.846 832.779 251.915 832.765 244.165 834.578 244.256 834.552 237.756 836.739 237.834 836.709 235.084 837.897 235.144 837.868 232.832 839.056 232.948 838.986 231.073 840.298 231.173 840.219 229.798 841.469 229.986 841.238 229.173 842.613 229.285 842.336 228.973 843.648ZM321.539 818.056 329.938 814.979 327.361 823.544Z"
       fill="#AEAEAE"
       id="path12583" />
    <g
       aria-label="fifo_queue"
       transform="translate(160.443 826)"
       id="text12585"
       style="font-size:17px;font-family:'IntelOne Display Regular', 'IntelOne Display Regular_MSFontService', sans-serif">
      <path
         d="M 1.445,-6.987 H 0.323 v -1.224 h 1.122 v -1.547 q 0,-1.037 0.544,-1.581 Q 2.55,-11.9 3.587,-11.9 h 1.122 v 1.156 H 3.791 q -0.476,0 -0.714,0.255 -0.238,0.255 -0.238,0.765 v 1.513 h 1.87 v 1.224 H 2.839 V 0 H 1.445 Z m 4.437,-3.978 h 1.53 v 1.513 H 5.882 Z M 5.95,0 V -8.211 H 7.344 V 0 Z"
         id="path13058" />
      <path
         d="m 9.8429912,-6.987 h -1.122 v -1.224 h 1.122 v -1.547 q 0,-1.037 0.5439998,-1.581 0.561,-0.561 1.598,-0.561 h 1.122 v 1.156 h -0.918 q -0.476,0 -0.714,0.255 -0.238,0.255 -0.238,0.765 v 1.513 h 1.87 v 1.224 h -1.87 V 0 H 9.8429912 Z"
         id="path13060" />
      <path
         d="m 22.201989,-4.097 q 0,1.853 -1.241,3.111 -1.241,1.241 -3.06,1.241 -1.819,0 -3.043,-1.241 -1.207,-1.241 -1.207,-3.094 0,-1.853 1.241,-3.094 1.241,-1.258 3.06,-1.258 1.819,0 3.026,1.241 1.224,1.241 1.224,3.094 z m -7.14,0.017 q 0,1.326 0.816,2.227 0.833,0.901 2.057,0.901 1.207,0 2.023,-0.901 0.833,-0.901 0.833,-2.244 0,-1.309 -0.833,-2.21 -0.833,-0.918 -2.04,-0.918 -1.207,0 -2.04,0.901 -0.816,0.901 -0.816,2.244 z"
         id="path13062" />
      <path
         d="M 22.694998,2.193 V 0.952 h 8.636 v 1.241 z"
         id="path13064" />
      <path
         d="m 38.912993,-8.211 h 1.377 V 3.06 h -1.394 v -4.318 q -0.544,0.68 -1.343,1.054 -0.782,0.374 -1.666,0.374 -1.734,0 -2.907,-1.19 -1.156,-1.207 -1.156,-3.06 0,-1.887 1.19,-3.111 1.207,-1.224 2.941,-1.224 0.867,0 1.649,0.374 0.782,0.374 1.309,1.037 z m -2.89,7.174 q 1.241,0 2.074,-0.884 0.85,-0.901 0.85,-2.21 0,-1.326 -0.816,-2.193 -0.816,-0.867 -2.04,-0.867 -1.258,0 -2.057,0.85 -0.799,0.85 -0.799,2.227 0,1.377 0.782,2.227 0.782,0.85 2.006,0.85 z"
         id="path13066" />
      <path
         d="m 49.758981,0 h -1.377 v -1.258 q -0.493,0.714 -1.241,1.088 -0.748,0.357 -1.7,0.357 -1.615,0 -2.55,-1.054 -0.918,-1.054 -0.918,-2.873 v -4.471 h 1.394 v 4.386 q 0,1.292 0.629,2.04 0.646,0.748 1.785,0.748 1.156,0 1.87,-0.799 0.714,-0.799 0.714,-2.074 v -4.301 h 1.394 z"
         id="path13068" />
      <path
         d="m 55.504967,-0.918 q 0.816,0 1.496,-0.34 0.697,-0.357 1.275,-1.071 l 0.833,0.765 q -0.697,0.918 -1.632,1.377 -0.935,0.442 -2.091,0.442 -1.853,0 -3.043,-1.207 -1.173,-1.224 -1.173,-3.128 0,-1.853 1.207,-3.094 1.207,-1.241 2.975,-1.241 1.802,0 2.924,1.173 1.122,1.173 1.122,3.06 0,0.136 -0.017,0.323 -0.017,0.17 -0.034,0.255 h -6.749 q 0.136,1.207 0.935,1.955 0.816,0.731 1.972,0.731 z m -0.136,-6.324 q -1.071,0 -1.836,0.697 -0.765,0.697 -0.935,1.87 h 5.406 q -0.153,-1.19 -0.867,-1.87 -0.714,-0.697 -1.768,-0.697 z"
         id="path13070" />
      <path
         d="m 68.47598,0 h -1.377 v -1.258 q -0.493,0.714 -1.241,1.088 -0.748,0.357 -1.7,0.357 -1.615,0 -2.55,-1.054 -0.918,-1.054 -0.918,-2.873 v -4.471 h 1.394 v 4.386 q 0,1.292 0.629,2.04 0.646,0.748 1.785,0.748 1.156,0 1.87,-0.799 0.714,-0.799 0.714,-2.074 v -4.301 h 1.394 z"
         id="path13072" />
      <path
         d="m 74.22197,-0.918 q 0.816,0 1.496,-0.34 0.697,-0.357 1.275,-1.071 l 0.833,0.765 q -0.697,0.918 -1.632,1.377 -0.935,0.442 -2.091,0.442 -1.853,0 -3.043,-1.207 -1.173,-1.224 -1.173,-3.128 0,-1.853 1.207,-3.094 1.207,-1.241 2.975,-1.241 1.802,0 2.924,1.173 1.122,1.173 1.122,3.06 0,0.136 -0.017,0.323 -0.017,0.17 -0.034,0.255 h -6.749 q 0.136,1.207 0.935,1.955 0.816,0.731 1.972,0.731 z m -0.136,-6.324 q -1.071,0 -1.836,0.697 -0.765,0.697 -0.935,1.87 h 5.406 q -0.153,-1.19 -0.867,-1.87 -0.714,-0.697 -1.768,-0.697 z"
         id="path13074" />
    </g>
    <path
       d="M321.288 805.944 318.331 805.484 315.352 804.063 312.459 801.827 309.548 798.787 306.799 795.015 304.007 790.509 301.354 785.267 298.647 779.411 296.068 772.807 293.495 765.654 290.985 757.871 288.603 749.472 286.223 740.58 283.905 731.12 281.714 721.164 279.586 710.775 277.521 699.95 275.518 688.683 273.703 677.043 271.951 665.029 268.761 640.008 266.071 613.923 263.882 586.964 262.256 559.316 261.255 531.23 261.016 509.634 263.016 509.611 263.254 531.195 263.254 531.171 264.254 559.233 264.253 559.21 265.878 586.835 265.876 586.813 268.064 613.75 268.062 613.729 270.749 639.791 270.746 639.767 273.934 664.767 273.932 664.749 275.682 676.749 275.68 676.74 277.493 688.365 277.489 688.344 279.489 699.594 279.487 699.581 281.549 710.394 281.547 710.381 283.672 720.756 283.669 720.741 285.856 730.679 285.851 730.656 288.163 740.093 288.158 740.073 290.533 748.948 290.529 748.933 292.904 757.308 292.894 757.274 295.394 765.024 295.383 764.993 297.945 772.118 297.936 772.093 300.499 778.655 300.475 778.599 303.162 784.412 303.147 784.38 305.772 789.567 305.729 789.492 308.479 793.929 308.438 793.867 311.125 797.555 311.039 797.452 313.852 800.39 313.741 800.29 316.491 802.415 316.31 802.304 319.06 803.616 318.783 803.531 321.596 803.968ZM258.031 511 261.942 502.956 266.03 510.912Z"
       fill="#AEAEAE"
       id="path12587" />
    <path
       d="M0.220261-0.975441 2.34199-0.496342 4.53404 0.988601 6.60594 3.261 8.55084 6.24318 10.5298 10.0096 12.4315 14.5102 14.323 19.7435 16.1467 25.5918 17.9674 32.1214 19.7234 39.2706 21.4778 47.0404 23.1694 55.373 24.7976 64.2652 26.3621 73.6526 27.9263 83.6003 29.4284 93.9274 30.8048 104.751 32.1806 116.008 33.4944 127.582 34.6832 139.594 36.8718 164.483 38.748 190.436 40.2489 217.327 41.3745 244.905 42.0624 272.858 42.2533 294.387 40.2534 294.405 40.0625 272.884 40.0628 272.9 39.3753 244.962 39.3758 244.978 38.2508 217.416 38.2516 217.431 36.7516 190.556 36.7526 190.572 34.8776 164.635 34.8788 164.65 32.6913 139.775 32.6924 139.786 31.5049 127.786 31.5064 127.8 30.1939 116.238 30.1949 116.246 28.8199 104.996 28.8205 105.001 27.4455 94.1887 27.4479 94.2064 25.9479 83.8939 25.9496 83.9053 24.3871 73.9678 24.3886 73.9769 22.8261 64.6019 22.8289 64.6176 21.2039 55.7426 21.2075 55.7614 19.52 47.4489 19.5246 47.4703 17.7746 39.7203 17.7789 39.7385 16.0289 32.6135 16.0367 32.6436 14.2242 26.1436 14.2328 26.1727 12.4203 20.3602 12.4345 20.4024 10.5595 15.2149 10.5789 15.2642 8.70385 10.8267 8.73976 10.9026 6.80226 7.21513 6.84989 7.29627 4.97489 4.42127 5.07354 4.54875 3.13604 2.42375 3.31415 2.57792 1.37665 1.26542 1.71724 1.41294-0.220261 0.975441ZM45.2414 293.027 41.3125 301.062 37.2417 293.098Z"
       fill="#AEAEAE"
       transform="matrix(1 0 0 -1 382 805.039)"
       id="path12589" />
    <path
       d="M261 503.312 261.063 496.437 261.063 496.446 261.063 493.247 261.125 490.422 261.188 488.045 261.188 488.071 261.188 486.232 261.254 484.974 261.323 484.492 261.385 484.055 261.375 484.196 261.375 482.991 261.438 481.162 261.438 481.17 261.5 478.795 261.5 478.821 261.5 476.002 261.544 472.6 263.544 472.626 263.5 476.021 263.5 476.008 263.5 478.834 263.437 481.226 263.374 483.043 263.375 483.008 263.375 484.267 263.303 484.775 263.24 485.212 263.249 485.124 263.186 486.311 263.188 486.258 263.188 488.084 263.125 490.472 263.125 490.468 263.062 493.281 263.063 493.258 263.063 496.451 263 503.33ZM258.541 473.935 262.563 465.946 266.54 473.957Z"
       fill="#AEAEAE"
       id="path12591" />
    <path
       d="M0.82845-0.560062 22.176 31.0174 20.5191 32.1375-0.82845 0.560062ZM23.9146 28.2326 25.0813 37.1005 17.287 32.7131Z"
       fill="#AEAEAE"
       transform="matrix(1 0 0 -1 262 438.1)"
       id="path12593" />
    <g
       aria-label="(batch_jo...batch_sizebatch_joinlabel_bat...Image_b...Inputphase_tr..."
       transform="translate(311.168 781)"
       id="text12605"
       style="font-size:17px;font-family:'IntelOne Display Regular', 'IntelOne Display Regular_MSFontService', sans-serif">
      <path
         d="m 0.697,-5.933 q 0,-2.448 1.258,-4.539 1.258,-2.108 3.604,-3.57 l 0.697,0.986 q -2.006,1.343 -3.077,3.162 -1.054,1.819 -1.054,3.927 0,2.108 1.054,3.927 1.071,1.819 3.077,3.162 L 5.559,2.108 Q 3.213,0.646 1.955,-1.428 0.697,-3.519 0.697,-5.933 Z"
         id="path13077" />
      <path
         d="m 8.8060039,0 h -1.36 v -11.9 h 1.377 v 4.964 q 0.544,-0.697 1.3260001,-1.071 0.799,-0.391 1.683,-0.391 1.734,0 2.89,1.207 1.173,1.19 1.173,3.06 0,1.887 -1.19,3.111 -1.19,1.207 -2.941,1.207 -0.867,0 -1.649,-0.374 -0.7650001,-0.374 -1.3090001,-1.037 z m 2.8900001,-7.174 q -1.224,0 -2.0740001,0.901 -0.85,0.884 -0.85,2.21 0,1.292 0.833,2.176 0.8330001,0.867 2.0400001,0.867 1.258,0 2.04,-0.833 0.799,-0.85 0.799,-2.244 0,-1.377 -0.782,-2.227 -0.765,-0.85 -2.006,-0.85 z"
         id="path13079" />
      <path
         d="m 24.377993,0 h -1.343 v -1.343 q -0.493,0.714 -1.343,1.122 -0.833,0.391 -1.802,0.391 -1.36,0 -2.21,-0.68 -0.85,-0.697 -0.85,-1.819 0,-1.241 0.952,-1.87 0.952,-0.646 2.822,-0.646 h 2.414 q -0.017,-1.156 -0.612,-1.785 -0.578,-0.629 -1.666,-0.629 -0.646,0 -1.275,0.272 -0.629,0.272 -1.241,0.833 l -0.731,-0.918 q 0.714,-0.68 1.564,-1.02 0.85,-0.357 1.819,-0.357 1.649,0 2.567,0.986 0.935,0.969 0.935,2.686 z m -1.36,-3.774 h -2.397 q -1.241,0 -1.836,0.34 -0.595,0.34 -0.595,1.071 0,0.612 0.51,1.02 0.527,0.408 1.343,0.408 1.224,0 2.057,-0.782 0.85,-0.799 0.918,-2.057 z"
         id="path13081" />
      <path
         d="m 26.451997,-2.193 v -4.794 h -1.122 v -1.224 h 1.122 v -2.516 h 1.377 v 2.516 h 1.904 v 1.224 h -1.904 v 4.675 q 0,0.544 0.238,0.816 0.255,0.255 0.765,0.255 h 0.901 V 0 h -1.105 q -1.139,0 -1.666,-0.527 -0.51,-0.527 -0.51,-1.666 z"
         id="path13083" />
      <path
         d="m 34.867008,0.255 q -1.887,0 -3.077,-1.19 -1.173,-1.207 -1.173,-3.145 0,-1.836 1.241,-3.094 1.241,-1.258 3.043,-1.258 1.309,0 2.227,0.612 0.935,0.595 1.411,1.734 l -1.173,0.561 q -0.391,-0.85 -1.02,-1.275 -0.612,-0.425 -1.462,-0.425 -1.207,0 -2.04,0.918 -0.816,0.901 -0.816,2.227 0,1.343 0.816,2.244 0.833,0.884 2.074,0.884 0.799,0 1.479,-0.425 0.697,-0.442 1.122,-1.224 l 1.071,0.578 q -0.493,1.054 -1.479,1.666 -0.986,0.612 -2.244,0.612 z"
         id="path13085" />
      <path
         d="m 39.967006,-11.9 h 1.377 v 4.93 q 0.493,-0.697 1.224,-1.071 0.748,-0.374 1.666,-0.374 1.649,0 2.567,1.054 0.935,1.054 0.935,2.89 V 0 h -1.377 v -4.386 q 0,-1.309 -0.646,-2.04 -0.646,-0.748 -1.802,-0.748 -1.156,0 -1.87,0.799 -0.697,0.799 -0.697,2.074 V 0 h -1.377 z"
         id="path13087" />
      <path
         d="M 48.500992,2.193 V 0.952 h 8.636 v 1.241 z"
         id="path13089" />
      <path
         d="m 58.105989,-10.965 h 1.53 v 1.513 h -1.53 z m 1.462,2.754 V 0.85 q 0,1.071 -0.561,1.632 -0.544,0.578 -1.598,0.578 h -0.986 V 1.904 h 0.799 q 0.476,0 0.714,-0.272 0.238,-0.255 0.238,-0.765 v -9.078 z"
         id="path13091" />
      <path
         d="m 69.700002,-4.097 q 0,1.853 -1.241,3.111 -1.241,1.241 -3.06,1.241 -1.819,0 -3.043,-1.241 -1.207,-1.241 -1.207,-3.094 0,-1.853 1.241,-3.094 1.241,-1.258 3.06,-1.258 1.819,0 3.026,1.241 1.224,1.241 1.224,3.094 z m -7.14,0.017 q 0,1.326 0.816,2.227 0.833,0.901 2.057,0.901 1.207,0 2.023,-0.901 0.833,-0.901 0.833,-2.244 0,-1.309 -0.833,-2.21 -0.833,-0.918 -2.04,-0.918 -1.207,0 -2.04,0.901 -0.816,0.901 -0.816,2.244 z"
         id="path13093" />
      <path
         d="m 70.924009,-1.717 h 1.717 V 0 h -1.717 z"
         id="path13095" />
      <path
         d="m 74.273016,-1.717 h 1.717 V 0 h -1.717 z"
         id="path13097" />
      <path
         d="m 77.62203,-1.717 h 1.717 V 0 h -1.717 z"
         id="path13099" />
      <path
         d="m 52.692,177 h -1.36 v -11.9 h 1.377 v 4.964 q 0.544,-0.697 1.326,-1.071 0.799,-0.391 1.683,-0.391 1.734,0 2.89,1.207 1.173,1.19 1.173,3.06 0,1.887 -1.19,3.111 -1.19,1.207 -2.941,1.207 -0.867,0 -1.649,-0.374 -0.765,-0.374 -1.309,-1.037 z m 2.89,-7.174 q -1.224,0 -2.074,0.901 -0.85,0.884 -0.85,2.21 0,1.292 0.833,2.176 0.833,0.867 2.04,0.867 1.258,0 2.04,-0.833 0.799,-0.85 0.799,-2.244 0,-1.377 -0.782,-2.227 -0.765,-0.85 -2.006,-0.85 z"
         id="path13101" />
      <path
         d="m 68.263989,177 h -1.343 v -1.343 q -0.493,0.714 -1.343,1.122 -0.833,0.391 -1.802,0.391 -1.36,0 -2.21,-0.68 -0.85,-0.697 -0.85,-1.819 0,-1.241 0.952,-1.87 0.952,-0.646 2.822,-0.646 h 2.414 q -0.017,-1.156 -0.612,-1.785 -0.578,-0.629 -1.666,-0.629 -0.646,0 -1.275,0.272 -0.629,0.272 -1.241,0.833 l -0.731,-0.918 q 0.714,-0.68 1.564,-1.02 0.85,-0.357 1.819,-0.357 1.649,0 2.567,0.986 0.935,0.969 0.935,2.686 z m -1.36,-3.774 h -2.397 q -1.241,0 -1.836,0.34 -0.595,0.34 -0.595,1.071 0,0.612 0.51,1.02 0.527,0.408 1.343,0.408 1.224,0 2.057,-0.782 0.85,-0.799 0.918,-2.057 z"
         id="path13103" />
      <path
         d="m 70.337993,174.807 v -4.794 h -1.122 v -1.224 h 1.122 v -2.516 h 1.377 v 2.516 h 1.904 v 1.224 h -1.904 v 4.675 q 0,0.544 0.238,0.816 0.255,0.255 0.765,0.255 h 0.901 V 177 h -1.105 q -1.139,0 -1.666,-0.527 -0.51,-0.527 -0.51,-1.666 z"
         id="path13105" />
      <path
         d="m 78.753004,177.255 q -1.887,0 -3.077,-1.19 -1.173,-1.207 -1.173,-3.145 0,-1.836 1.241,-3.094 1.241,-1.258 3.043,-1.258 1.309,0 2.227,0.612 0.935,0.595 1.411,1.734 l -1.173,0.561 q -0.391,-0.85 -1.02,-1.275 -0.612,-0.425 -1.462,-0.425 -1.207,0 -2.04,0.918 -0.816,0.901 -0.816,2.227 0,1.343 0.816,2.244 0.833,0.884 2.074,0.884 0.799,0 1.479,-0.425 0.697,-0.442 1.122,-1.224 l 1.071,0.578 q -0.493,1.054 -1.479,1.666 -0.986,0.612 -2.244,0.612 z"
         id="path13107" />
      <path
         d="m 83.853003,165.1 h 1.377 v 4.93 q 0.493,-0.697 1.224,-1.071 0.748,-0.374 1.666,-0.374 1.649,0 2.567,1.054 0.935,1.054 0.935,2.89 V 177 h -1.377 v -4.386 q 0,-1.309 -0.646,-2.04 -0.646,-0.748 -1.802,-0.748 -1.156,0 -1.87,0.799 -0.697,0.799 -0.697,2.074 V 177 h -1.377 z"
         id="path13109" />
      <path
         d="m 92.38699,179.193 v -1.241 h 8.636 v 1.241 z"
         id="path13111" />
      <path
         d="m 108.50298,174.603 q 0,1.156 -0.986,1.887 -0.986,0.731 -2.567,0.731 -1.037,0 -1.955,-0.323 -0.901,-0.34 -1.632,-1.003 l 0.714,-1.054 q 0.782,0.646 1.462,0.935 0.68,0.289 1.445,0.289 0.986,0 1.581,-0.374 0.612,-0.391 0.612,-1.003 0,-0.629 -0.51,-0.901 -0.51,-0.289 -1.683,-0.306 -1.717,-0.068 -2.516,-0.629 -0.782,-0.561 -0.782,-1.751 0,-1.088 0.901,-1.802 0.918,-0.731 2.346,-0.731 0.969,0 1.819,0.306 0.85,0.306 1.547,0.901 l -0.663,1.037 q -0.697,-0.561 -1.343,-0.816 -0.646,-0.255 -1.377,-0.255 -0.833,0 -1.377,0.374 -0.527,0.374 -0.527,0.918 0,0.595 0.476,0.867 0.476,0.272 1.513,0.323 1.853,0.051 2.669,0.612 0.833,0.561 0.833,1.768 z"
         id="path13113" />
      <path
         d="m 109.98199,166.035 h 1.53 v 1.513 h -1.53 z m 0.068,10.965 v -8.211 h 1.394 V 177 Z"
         id="path13115" />
      <path
         d="m 120.06299,177 h -7.191 v -1.088 l 5.236,-5.967 h -5.032 v -1.156 h 6.766 v 1.088 l -5.185,5.967 h 5.406 z"
         id="path13117" />
      <path
         d="m 124.993,176.082 q 0.816,0 1.496,-0.34 0.697,-0.357 1.275,-1.071 l 0.833,0.765 q -0.697,0.918 -1.632,1.377 -0.935,0.442 -2.091,0.442 -1.853,0 -3.043,-1.207 -1.173,-1.224 -1.173,-3.128 0,-1.853 1.207,-3.094 1.207,-1.241 2.975,-1.241 1.802,0 2.924,1.173 1.122,1.173 1.122,3.06 0,0.136 -0.017,0.323 -0.017,0.17 -0.034,0.255 h -6.749 q 0.136,1.207 0.935,1.955 0.816,0.731 1.972,0.731 z m -0.136,-6.324 q -1.071,0 -1.836,0.697 -0.765,0.697 -0.935,1.87 h 5.406 q -0.153,-1.19 -0.867,-1.87 -0.714,-0.697 -1.768,-0.697 z"
         id="path13119" />
      <path
         d="m -34.847898,-244 h -2.4 v -21 h 2.43 v 8.76 q 0.96,-1.23 2.34,-1.89 1.41,-0.69 2.97,-0.69 3.06,0 5.1,2.13 2.07,2.1 2.07,5.4 0,3.33 -2.1,5.49 -2.1,2.13 -5.19,2.13 -1.53,0 -2.91,-0.66 -1.35,-0.66 -2.31,-1.83 z m 5.1,-12.66 q -2.16,0 -3.66,1.59 -1.5,1.56 -1.5,3.9 0,2.28 1.47,3.84 1.47,1.53 3.6,1.53 2.22,0 3.6,-1.47 1.41,-1.5 1.41,-3.96 0,-2.43 -1.38,-3.93 -1.35,-1.5 -3.54,-1.5 z"
         style="font-size:30px"
         id="path13121" />
      <path
         d="m -7.367917,-244 h -2.37 v -2.37 q -0.87,1.26 -2.37,1.98 -1.47,0.69 -3.18,0.69 -2.4,0 -3.9,-1.2 -1.5,-1.23 -1.5,-3.21 0,-2.19 1.68,-3.3 1.68,-1.14 4.98,-1.14 h 4.26 q -0.03,-2.04 -1.08,-3.15 -1.02,-1.11 -2.94,-1.11 -1.14,0 -2.25,0.48 -1.11,0.48 -2.19,1.47 l -1.29,-1.62 q 1.26,-1.2 2.76,-1.8 1.5,-0.63 3.21,-0.63 2.91,0 4.53,1.74 1.65,1.71 1.65,4.74 z m -2.4,-6.66 h -4.23 q -2.19,0 -3.24,0.6 -1.05,0.6 -1.05,1.89 0,1.08 0.9,1.8 0.93,0.72 2.37,0.72 2.16,0 3.63,-1.38 1.5,-1.41 1.62,-3.63 z"
         style="font-size:30px"
         id="path13123" />
      <path
         d="m -3.7079102,-247.87 v -8.46 h -1.98 v -2.16 h 1.98 v -4.44 h 2.43 v 4.44 h 3.36 v 2.16 h -3.36 v 8.25 q 0,0.96 0.42000004,1.44 0.45,0.45 1.35,0.45 H 2.0820898 V -244 H 0.13208984 q -2.01000004,0 -2.94000004,-0.93 -0.9,-0.93 -0.9,-2.94 z"
         style="font-size:30px"
         id="path13125" />
      <path
         d="m 11.142109,-243.55 q -3.3300004,0 -5.4300004,-2.1 -2.07,-2.13 -2.07,-5.55 0,-3.24 2.19,-5.46 2.19,-2.22 5.3700004,-2.22 2.31,0 3.93,1.08 1.65,1.05 2.49,3.06 l -2.07,0.99 q -0.69,-1.5 -1.8,-2.25 -1.08,-0.75 -2.58,-0.75 -2.1300004,0 -3.6000004,1.62 -1.44,1.59 -1.44,3.93 0,2.37 1.44,3.96 1.47,1.56 3.6600004,1.56 1.41,0 2.61,-0.75 1.23,-0.78 1.98,-2.16 l 1.89,1.02 q -0.87,1.86 -2.61,2.94 -1.74,1.08 -3.96,1.08 z"
         style="font-size:30px"
         id="path13127" />
      <path
         d="m 20.142105,-265 h 2.43 v 8.7 q 0.87,-1.23 2.16,-1.89 1.32,-0.66 2.94,-0.66 2.91,0 4.53,1.86 1.65,1.86 1.65,5.1 v 7.89 h -2.43 v -7.74 q 0,-2.31 -1.14,-3.6 -1.14,-1.32 -3.18,-1.32 -2.04,0 -3.3,1.41 -1.23,1.41 -1.23,3.66 v 7.59 h -2.43 z"
         style="font-size:30px"
         id="path13129" />
      <path
         d="m 35.202077,-240.13 v -2.19 h 15.24 v 2.19 z"
         style="font-size:30px"
         id="path13131" />
      <path
         d="m 52.152072,-263.35 h 2.7 v 2.67 h -2.7 z m 2.58,4.86 v 15.99 q 0,1.89 -0.99,2.88 -0.96,1.02 -2.82,1.02 h -1.74 v -2.04 h 1.41 q 0.84,0 1.26,-0.48 0.42,-0.45 0.42,-1.35 v -16.02 z"
         style="font-size:30px"
         id="path13133" />
      <path
         d="m 72.612094,-251.23 q 0,3.27 -2.19,5.49 -2.19,2.19 -5.4,2.19 -3.21,0 -5.37,-2.19 -2.13,-2.19 -2.13,-5.46 0,-3.27 2.19,-5.46 2.19,-2.22 5.4,-2.22 3.21,0 5.34,2.19 2.16,2.19 2.16,5.46 z m -12.6,0.03 q 0,2.34 1.44,3.93 1.47,1.59 3.63,1.59 2.13,0 3.57,-1.59 1.47,-1.59 1.47,-3.96 0,-2.31 -1.47,-3.9 -1.47,-1.62 -3.6,-1.62 -2.13,0 -3.6,1.59 -1.44,1.59 -1.44,3.96 z"
         style="font-size:30px"
         id="path13135" />
      <path
         d="m 75.282107,-263.35 h 2.7 v 2.67 h -2.7 z m 0.12,19.35 v -14.49 h 2.46 V -244 Z"
         style="font-size:30px"
         id="path13137" />
      <path
         d="m 81.312092,-258.49 h 2.4 v 2.25 q 0.87,-1.26 2.19,-1.92 1.35,-0.69 3,-0.69 2.88,0 4.5,1.86 1.62,1.86 1.62,5.1 v 7.89 h -2.43 v -7.74 q 0,-2.28 -1.14,-3.6 -1.11,-1.32 -3.12,-1.32 -2.07,0 -3.33,1.41 -1.26,1.41 -1.26,3.66 v 7.59 h -2.43 z"
         style="font-size:30px"
         id="path13139" />
      <path
         d="m 67.570098,-363.9 h 1.394 v 11.9 h -1.394 z"
         id="path13141" />
      <path
         d="m 77.974087,-352 h -1.343 v -1.343 q -0.493,0.714 -1.343,1.122 -0.833,0.391 -1.802,0.391 -1.36,0 -2.21,-0.68 -0.85,-0.697 -0.85,-1.819 0,-1.241 0.952,-1.87 0.952,-0.646 2.822,-0.646 h 2.414 q -0.017,-1.156 -0.612,-1.785 -0.578,-0.629 -1.666,-0.629 -0.646,0 -1.275,0.272 -0.629,0.272 -1.241,0.833 l -0.731,-0.918 q 0.714,-0.68 1.564,-1.02 0.85,-0.357 1.819,-0.357 1.649,0 2.567,0.986 0.935,0.969 0.935,2.686 z m -1.36,-3.774 h -2.397 q -1.241,0 -1.836,0.34 -0.595,0.34 -0.595,1.071 0,0.612 0.51,1.02 0.527,0.408 1.343,0.408 1.224,0 2.057,-0.782 0.85,-0.799 0.918,-2.057 z"
         id="path13143" />
      <path
         d="m 81.034077,-352 h -1.36 v -11.9 h 1.377 v 4.964 q 0.544,-0.697 1.326,-1.071 0.799,-0.391 1.683,-0.391 1.734,0 2.89,1.207 1.173,1.19 1.173,3.06 0,1.887 -1.19,3.111 -1.19,1.207 -2.941,1.207 -0.867,0 -1.649,-0.374 -0.765,-0.374 -1.309,-1.037 z m 2.89,-7.174 q -1.224,0 -2.074,0.901 -0.85,0.884 -0.85,2.21 0,1.292 0.833,2.176 0.833,0.867 2.04,0.867 1.258,0 2.04,-0.833 0.799,-0.85 0.799,-2.244 0,-1.377 -0.782,-2.227 -0.765,-0.85 -2.006,-0.85 z"
         id="path13145" />
      <path
         d="m 93.512066,-352.918 q 0.816,0 1.496,-0.34 0.697,-0.357 1.275,-1.071 l 0.833,0.765 q -0.697,0.918 -1.632,1.377 -0.935,0.442 -2.091,0.442 -1.853,0 -3.043,-1.207 -1.173,-1.224 -1.173,-3.128 0,-1.853 1.207,-3.094 1.207,-1.241 2.975,-1.241 1.802,0 2.924,1.173 1.122,1.173 1.122,3.06 0,0.136 -0.017,0.323 -0.017,0.17 -0.034,0.255 h -6.749 q 0.136,1.207 0.935,1.955 0.816,0.731 1.972,0.731 z m -0.136,-6.324 q -1.071,0 -1.836,0.697 -0.765,0.697 -0.935,1.87 h 5.406 q -0.153,-1.19 -0.867,-1.87 -0.714,-0.697 -1.768,-0.697 z"
         id="path13147" />
      <path
         d="m 98.952077,-363.9 h 1.394003 v 11.9 h -1.394003 z"
         id="path13149" />
      <path
         d="m 101.36607,-349.807 v -1.241 h 8.636 v 1.241 z"
         id="path13151" />
      <path
         d="m 112.22906,-352 h -1.36 v -11.9 h 1.377 v 4.964 q 0.544,-0.697 1.326,-1.071 0.799,-0.391 1.683,-0.391 1.734,0 2.89,1.207 1.173,1.19 1.173,3.06 0,1.887 -1.19,3.111 -1.19,1.207 -2.941,1.207 -0.867,0 -1.649,-0.374 -0.765,-0.374 -1.309,-1.037 z m 2.89,-7.174 q -1.224,0 -2.074,0.901 -0.85,0.884 -0.85,2.21 0,1.292 0.833,2.176 0.833,0.867 2.04,0.867 1.258,0 2.04,-0.833 0.799,-0.85 0.799,-2.244 0,-1.377 -0.782,-2.227 -0.765,-0.85 -2.006,-0.85 z"
         id="path13153" />
      <path
         d="m 127.80105,-352 h -1.343 v -1.343 q -0.493,0.714 -1.343,1.122 -0.833,0.391 -1.802,0.391 -1.36,0 -2.21,-0.68 -0.85,-0.697 -0.85,-1.819 0,-1.241 0.952,-1.87 0.952,-0.646 2.822,-0.646 h 2.414 q -0.017,-1.156 -0.612,-1.785 -0.578,-0.629 -1.666,-0.629 -0.646,0 -1.275,0.272 -0.629,0.272 -1.241,0.833 l -0.731,-0.918 q 0.714,-0.68 1.564,-1.02 0.85,-0.357 1.819,-0.357 1.649,0 2.567,0.986 0.935,0.969 0.935,2.686 z m -1.36,-3.774 h -2.397 q -1.241,0 -1.836,0.34 -0.595,0.34 -0.595,1.071 0,0.612 0.51,1.02 0.527,0.408 1.343,0.408 1.224,0 2.057,-0.782 0.85,-0.799 0.918,-2.057 z"
         id="path13155" />
      <path
         d="m 129.87505,-354.193 v -4.794 h -1.122 v -1.224 h 1.122 v -2.516 h 1.377 v 2.516 h 1.904 v 1.224 h -1.904 v 4.675 q 0,0.544 0.238,0.816 0.255,0.255 0.765,0.255 h 0.901 V -352 h -1.105 q -1.139,0 -1.666,-0.527 -0.51,-0.527 -0.51,-1.666 z"
         id="path13157" />
      <path
         d="m 134.46506,-353.717 h 1.717 V -352 h -1.717 z"
         id="path13159" />
      <path
         d="m 137.81406,-353.717 h 1.717 V -352 h -1.717 z"
         id="path13161" />
      <path
         d="m 141.16308,-353.717 h 1.717 V -352 h -1.717 z"
         id="path13163" />
      <path
         d="m -88.121497,-347 v -11.9 h 1.462 v 11.9 z"
         id="path13165" />
      <path
         d="m -84.534505,-355.211 h 1.36 v 0.986 q 0.459,-0.595 1.037,-0.884 0.595,-0.306 1.326,-0.306 0.85,0 1.513,0.357 0.663,0.357 1.054,1.037 0.459,-0.68 1.156,-1.037 0.714,-0.357 1.598,-0.357 1.445,0 2.295,0.935 0.867,0.935 0.867,2.431 V -347 h -1.394 v -4.964 q 0,-1.037 -0.527,-1.615 -0.51,-0.595 -1.445,-0.595 -0.918,0 -1.496,0.646 -0.561,0.629 -0.561,1.649 V -347 h -1.377 v -4.964 q 0,-1.037 -0.527,-1.615 -0.51,-0.595 -1.445,-0.595 -0.918,0 -1.496,0.646 -0.561,0.629 -0.561,1.649 V -347 h -1.377 z"
         id="path13167" />
      <path
         d="m -63.573491,-347 h -1.343 v -1.343 q -0.493,0.714 -1.343,1.122 -0.833,0.391 -1.802,0.391 -1.36,0 -2.21,-0.68 -0.85,-0.697 -0.85,-1.819 0,-1.241 0.952,-1.87 0.952,-0.646 2.822,-0.646 h 2.414 q -0.017,-1.156 -0.612,-1.785 -0.578,-0.629 -1.666,-0.629 -0.646,0 -1.275,0.272 -0.629,0.272 -1.241,0.833 l -0.731,-0.918 q 0.714,-0.68 1.564,-1.02 0.85,-0.357 1.819,-0.357 1.649,0 2.567,0.986 0.935,0.969 0.935,2.686 z m -1.36,-3.774 h -2.397 q -1.241,0 -1.836,0.34 -0.595,0.34 -0.595,1.071 0,0.612 0.51,1.02 0.527,0.408 1.343,0.408 1.224,0 2.057,-0.782 0.85,-0.799 0.918,-2.057 z"
         id="path13169" />
      <path
         d="m -55.158502,-347.969 v -0.578 q -0.561,0.68 -1.36,1.054 -0.782,0.374 -1.683,0.374 -1.734,0 -2.89,-1.156 -1.156,-1.156 -1.156,-2.975 0,-1.802 1.173,-2.975 1.19,-1.19 2.924,-1.19 0.884,0 1.666,0.374 0.782,0.374 1.343,1.054 v -1.224 h 1.377 v 7.191 q 0,2.04 -1.088,3.06 -1.088,1.02 -3.281,1.02 h -2.074 v -1.19 h 2.142 q 1.445,0 2.176,-0.714 0.731,-0.714 0.731,-2.125 z m -2.839,-0.374 q 1.224,0 2.057,-0.833 0.85,-0.85 0.85,-2.074 0,-1.258 -0.85,-2.091 -0.833,-0.85 -2.057,-0.85 -1.275,0 -2.057,0.799 -0.782,0.799 -0.782,2.125 0,1.309 0.782,2.125 0.799,0.799 2.057,0.799 z"
         id="path13171" />
      <path
         d="m -48.018489,-347.918 q 0.816,0 1.496,-0.34 0.697,-0.357 1.275,-1.071 l 0.833,0.765 q -0.697,0.918 -1.632,1.377 -0.935,0.442 -2.091,0.442 -1.853,0 -3.043,-1.207 -1.173,-1.224 -1.173,-3.128 0,-1.853 1.207,-3.094 1.207,-1.241 2.975,-1.241 1.802,0 2.924,1.173 1.122,1.173 1.122,3.06 0,0.136 -0.017,0.323 -0.017,0.17 -0.034,0.255 h -6.749 q 0.136,1.207 0.935,1.955 0.816,0.731 1.972,0.731 z m -0.136,-6.324 q -1.071,0 -1.836,0.697 -0.765,0.697 -0.935,1.87 h 5.406 q -0.153,-1.19 -0.867,-1.87 -0.714,-0.697 -1.768,-0.697 z"
         id="path13173" />
      <path
         d="m -43.666477,-344.807 v -1.241 h 8.636 v 1.241 z"
         id="path13175" />
      <path
         d="m -32.803484,-347 h -1.36 v -11.9 h 1.377 v 4.964 q 0.544,-0.697 1.326,-1.071 0.799,-0.391 1.683,-0.391 1.734,0 2.89,1.207 1.173,1.19 1.173,3.06 0,1.887 -1.19,3.111 -1.19,1.207 -2.941,1.207 -0.867,0 -1.649,-0.374 -0.765,-0.374 -1.309,-1.037 z m 2.89,-7.174 q -1.224,0 -2.074,0.901 -0.85,0.884 -0.85,2.21 0,1.292 0.833,2.176 0.833,0.867 2.04,0.867 1.258,0 2.04,-0.833 0.799,-0.85 0.799,-2.244 0,-1.377 -0.782,-2.227 -0.765,-0.85 -2.006,-0.85 z"
         id="path13177" />
      <path
         d="m -24.490496,-348.717 h 1.717 V -347 h -1.717 z"
         id="path13179" />
      <path
         d="m -21.141481,-348.717 h 1.717 V -347 h -1.717 z"
         id="path13181" />
      <path
         d="m -17.792475,-348.717 h 1.717 V -347 h -1.717 z"
         id="path13183" />
      <path
         d="m -10.7361,-414 v -10.5 h 1.2899999 v 10.5 z"
         style="font-size:15px"
         id="path13185" />
      <path
         d="m -7.571107,-421.245 h 1.2 v 1.125 q 0.435,-0.63 1.095,-0.96 0.675,-0.345 1.5,-0.345 1.44,0 2.25,0.93 0.81000001,0.93 0.81000001,2.55 V -414 H -1.931107 v -3.87 q 0,-1.14 -0.57,-1.8 -0.555,-0.66 -1.56,-0.66 -1.035,0 -1.665,0.705 -0.63,0.705 -0.63,1.83 V -414 h -1.215 z"
         style="font-size:15px"
         id="path13187" />
      <path
         d="M 1.9988811,-411.3 H 0.78388111 v -9.945 H 1.9838811 v 1.17 q 0.48,-0.63 1.185,-0.975 0.705,-0.36 1.5,-0.36 1.53,0 2.55,1.065 1.02,1.05 1.02,2.7 0,1.665 -1.065,2.745 -1.05,1.065 -2.595,1.065 -0.735,0 -1.425,-0.3 -0.675,-0.315 -1.155,-0.885 z m 2.535,-9.03 q -1.095,0 -1.845,0.795 -0.735,0.78 -0.735,1.95 0,1.155 0.72,1.92 0.735,0.765 1.815,0.765 1.11,0 1.8,-0.735 0.705,-0.75 0.705,-1.98 0,-1.215 -0.69,-1.965 -0.675,-0.75 -1.77,-0.75 z"
         style="font-size:15px"
         id="path13189" />
      <path
         d="m 16.278872,-414 h -1.215 v -1.11 q -0.435,0.63 -1.095,0.96 -0.66,0.315 -1.5,0.315 -1.425,0 -2.25,-0.93 -0.8100003,-0.93 -0.8100003,-2.535 v -3.945 h 1.2300003 v 3.87 q 0,1.14 0.555,1.8 0.57,0.66 1.575,0.66 1.02,0 1.65,-0.705 0.63,-0.705 0.63,-1.83 v -3.795 h 1.23 z"
         style="font-size:15px"
         id="path13191" />
      <path
         d="m 18.25886,-415.935 v -4.23 h -0.99 v -1.08 h 0.99 v -2.22 h 1.215 v 2.22 h 1.68 v 1.08 h -1.68 v 4.125 q 0,0.48 0.21,0.72 0.225,0.225 0.675,0.225 h 0.795 V -414 h -0.975 q -1.005,0 -1.47,-0.465 -0.45,-0.465 -0.45,-1.47 z"
         style="font-size:15px"
         id="path13193" />
      <path
         d="m 23.598861,-411.3 h -1.215 v -9.945 h 1.2 v 1.17 q 0.48,-0.63 1.185,-0.975 0.705,-0.36 1.5,-0.36 1.53,0 2.55,1.065 1.02,1.05 1.02,2.7 0,1.665 -1.065,2.745 -1.05,1.065 -2.595,1.065 -0.735,0 -1.425,-0.3 -0.675,-0.315 -1.155,-0.885 z m 2.535,-9.03 q -1.095,0 -1.845,0.795 -0.735,0.78 -0.735,1.95 0,1.155 0.72,1.92 0.735,0.765 1.815,0.765 1.11,0 1.8,-0.735 0.705,-0.75 0.705,-1.98 0,-1.215 -0.69,-1.965 -0.675,-0.75 -1.77,-0.75 z"
         style="font-size:15px"
         id="path13195" />
      <path
         d="m 31.098849,-424.5 h 1.215 v 4.35 q 0.435,-0.615 1.08,-0.945 0.66,-0.33 1.47,-0.33 1.455,0 2.265,0.93 0.825,0.93 0.825,2.55 V -414 h -1.215 v -3.87 q 0,-1.155 -0.57,-1.8 -0.57,-0.66 -1.59,-0.66 -1.02,0 -1.65,0.705 -0.615,0.705 -0.615,1.83 V -414 h -1.215 z"
         style="font-size:15px"
         id="path13197" />
      <path
         d="m 45.678837,-414 h -1.185 v -1.185 q -0.435,0.63 -1.185,0.99 -0.735,0.345 -1.59,0.345 -1.2,0 -1.95,-0.6 -0.75,-0.615 -0.75,-1.605 0,-1.095 0.84,-1.65 0.84,-0.57 2.49,-0.57 h 2.13 q -0.015,-1.02 -0.54,-1.575 -0.51,-0.555 -1.47,-0.555 -0.57,0 -1.125,0.24 -0.555,0.24 -1.095,0.735 l -0.645,-0.81 q 0.63,-0.6 1.38,-0.9 0.75,-0.315 1.605,-0.315 1.455,0 2.265,0.87 0.825,0.855 0.825,2.37 z m -1.2,-3.33 h -2.115 q -1.095,0 -1.62,0.3 -0.525,0.3 -0.525,0.945 0,0.54 0.45,0.9 0.465,0.36 1.185,0.36 1.08,0 1.815,-0.69 0.75,-0.705 0.81,-1.815 z"
         style="font-size:15px"
         id="path13199" />
      <path
         d="m 53.013828,-416.115 q 0,1.02 -0.87,1.665 -0.87,0.645 -2.265,0.645 -0.915,0 -1.725,-0.285 -0.795,-0.3 -1.44,-0.885 l 0.63,-0.93 q 0.69,0.57 1.29,0.825 0.6,0.255 1.275,0.255 0.87,0 1.395,-0.33 0.54,-0.345 0.54,-0.885 0,-0.555 -0.45,-0.795 -0.45,-0.255 -1.485,-0.27 -1.515,-0.06 -2.22,-0.555 -0.69,-0.495 -0.69,-1.545 0,-0.96 0.795,-1.59 0.81,-0.645 2.07,-0.645 0.855,0 1.605,0.27 0.75,0.27 1.365,0.795 l -0.585,0.915 q -0.615,-0.495 -1.185,-0.72 -0.57,-0.225 -1.215,-0.225 -0.735,0 -1.215,0.33 -0.465,0.33 -0.465,0.81 0,0.525 0.42,0.765 0.42,0.24 1.335,0.285 1.635,0.045 2.355,0.54 0.735,0.495 0.735,1.56 z"
         style="font-size:15px"
         id="path13201" />
      <path
         d="m 57.738838,-414.81 q 0.72,0 1.32,-0.3 0.615,-0.315 1.125,-0.945 l 0.735,0.675 q -0.615,0.81 -1.44,1.215 -0.825,0.39 -1.845,0.39 -1.635,0 -2.685,-1.065 -1.035,-1.08 -1.035,-2.76 0,-1.635 1.065,-2.73 1.065,-1.095 2.625,-1.095 1.59,0 2.58,1.035 0.99,1.035 0.99,2.7 0,0.12 -0.015,0.285 -0.015,0.15 -0.03,0.225 h -5.955 q 0.12,1.065 0.825,1.725 0.72,0.645 1.74,0.645 z m -0.12,-5.58 q -0.945,0 -1.62,0.615 -0.675,0.615 -0.825,1.65 h 4.77 q -0.135,-1.05 -0.765,-1.65 -0.63,-0.615 -1.56,-0.615 z"
         style="font-size:15px"
         id="path13203" />
      <path
         d="m 61.57885,-412.065 v -1.095 h 7.62 v 1.095 z"
         style="font-size:15px"
         id="path13205" />
      <path
         d="m 70.368847,-415.935 v -4.23 h -0.99 v -1.08 h 0.99 v -2.22 h 1.215 v 2.22 h 1.68 v 1.08 h -1.68 v 4.125 q 0,0.48 0.21,0.72 0.225,0.225 0.675,0.225 h 0.795 V -414 h -0.975 q -1.005,0 -1.47,-0.465 -0.45,-0.465 -0.45,-1.47 z"
         style="font-size:15px"
         id="path13207" />
      <path
         d="m 74.493846,-421.245 h 1.2 v 0.915 q 0.33,-0.48 0.855,-0.72 0.525,-0.24 1.245,-0.24 h 0.66 v 1.155 h -0.675 q -1.035,0 -1.56,0.54 -0.51,0.54 -0.51,1.635 v 3.96 h -1.215 z"
         style="font-size:15px"
         id="path13209" />
      <path
         d="m 78.438843,-415.515 h 1.515 V -414 h -1.515 z"
         style="font-size:15px"
         id="path13211" />
      <path
         d="m 81.393844,-415.515 h 1.515 V -414 h -1.515 z"
         style="font-size:15px"
         id="path13213" />
      <path
         d="m 84.348854,-415.515 h 1.515 V -414 h -1.515 z"
         style="font-size:15px"
         id="path13215" />
    </g>
    <path
       d="M350.578 914.595 350.04 825.673 352.04 825.66 352.578 914.583ZM347.048 827.024 351 819 355.048 826.976Z"
       fill="#AEAEAE"
       id="path12607" />
    <g
       aria-label="0 tensors"
       transform="translate(352.246 339)"
       id="text12609"
       style="font-size:15px;font-family:'IntelOne Display Regular', 'IntelOne Display Regular_MSFontService', sans-serif">
      <path
         d="m 0.555,-4.995 v -0.48 q 0,-2.415 1.155,-3.84 1.155,-1.425 3.09,-1.425 1.935,0 3.06,1.41 Q 9,-7.92 9,-5.505 v 0.48 Q 9,-2.61 7.845,-1.185 6.705,0.24 4.77,0.24 2.835,0.24 1.695,-1.17 0.555,-2.58 0.555,-4.995 Z M 4.77,-9.6 q -1.38,0 -2.16,1.08 -0.765,1.08 -0.765,3.015 v 0.48 q 0,1.95 0.78,3.045 0.78,1.08 2.16,1.08 1.38,0 2.145,-1.08 0.78,-1.08 0.78,-3.015 v -0.48 q 0,-1.95 -0.78,-3.03 Q 6.15,-9.6 4.77,-9.6 Z"
         id="path13218" />
      <path
         d="m 13.529979,-1.935 v -4.23 h -0.99 v -1.08 h 0.99 v -2.22 h 1.215 v 2.22 h 1.68 v 1.08 h -1.68 v 4.125 q 0,0.48 0.21,0.72 0.225,0.225 0.675,0.225 h 0.795 V 0 h -0.975 q -1.005,0 -1.47,-0.465 -0.45,-0.465 -0.45,-1.47 z"
         id="path13220" />
      <path
         d="m 21.029988,-0.81 q 0.72,0 1.32,-0.3 0.615,-0.315 1.125,-0.945 l 0.735,0.675 q -0.615,0.81 -1.44,1.215 -0.825,0.39 -1.845,0.39 -1.635,0 -2.685,-1.065 -1.035,-1.08 -1.035,-2.76 0,-1.635 1.065,-2.73 1.065,-1.095 2.625,-1.095 1.59,0 2.58,1.035 0.99,1.035 0.99,2.7 0,0.12 -0.015,0.285 -0.015,0.15 -0.03,0.225 h -5.955 q 0.12,1.065 0.825,1.725 0.72,0.645 1.74,0.645 z m -0.12,-5.58 q -0.945,0 -1.62,0.615 -0.675,0.615 -0.825,1.65 h 4.77 q -0.135,-1.05 -0.765,-1.65 -0.63,-0.615 -1.56,-0.615 z"
         id="path13222" />
      <path
         d="m 25.694998,-7.245 h 1.2 v 1.125 q 0.435,-0.63 1.095,-0.96 0.675,-0.345 1.5,-0.345 1.44,0 2.25,0.93 0.81,0.93 0.81,2.55 V 0 h -1.215 v -3.87 q 0,-1.14 -0.57,-1.8 -0.555,-0.66 -1.56,-0.66 -1.035,0 -1.665,0.705 -0.63,0.705 -0.63,1.83 V 0 h -1.215 z"
         id="path13224" />
      <path
         d="m 39.884986,-2.115 q 0,1.02 -0.87,1.665 -0.87,0.645 -2.265,0.645 -0.915,0 -1.725,-0.285 -0.795,-0.3 -1.44,-0.885 l 0.63,-0.93 q 0.69,0.57 1.29,0.825 0.6,0.255 1.275,0.255 0.87,0 1.395,-0.33 0.54,-0.345 0.54,-0.885 0,-0.555 -0.45,-0.795 -0.45,-0.255 -1.485,-0.27 -1.515,-0.06 -2.22,-0.555 -0.69,-0.495 -0.69,-1.545 0,-0.96 0.795,-1.59 0.81,-0.645 2.07,-0.645 0.855,0 1.605,0.27 0.75,0.27 1.365,0.795 l -0.585,0.915 q -0.615,-0.495 -1.185,-0.72 -0.57,-0.225 -1.215,-0.225 -0.735,0 -1.215,0.33 -0.465,0.33 -0.465,0.81 0,0.525 0.42,0.765 0.42,0.24 1.335,0.285 1.635,0.045 2.355,0.54 0.735,0.495 0.735,1.56 z"
         id="path13226" />
      <path
         d="m 48.329996,-3.615 q 0,1.635 -1.095,2.745 -1.095,1.095 -2.7,1.095 -1.605,0 -2.685,-1.095 -1.065,-1.095 -1.065,-2.73 0,-1.635 1.095,-2.73 1.095,-1.11 2.7,-1.11 1.605,0 2.67,1.095 1.08,1.095 1.08,2.73 z m -6.3,0.015 q 0,1.17 0.72,1.965 0.735,0.795 1.815,0.795 1.065,0 1.785,-0.795 0.735,-0.795 0.735,-1.98 0,-1.155 -0.735,-1.95 -0.735,-0.81 -1.8,-0.81 -1.065,0 -1.8,0.795 -0.72,0.795 -0.72,1.98 z"
         id="path13228" />
      <path
         d="m 49.590006,-7.245 h 1.2 v 0.915 q 0.33,-0.48 0.855,-0.72 0.525,-0.24 1.245,-0.24 h 0.66 v 1.155 h -0.675 q -1.035,0 -1.56,0.54 -0.51,0.54 -0.51,1.635 V 0 h -1.215 z"
         id="path13230" />
      <path
         d="m 60.375003,-2.115 q 0,1.02 -0.87,1.665 -0.87,0.645 -2.265,0.645 -0.915,0 -1.725,-0.285 -0.795,-0.3 -1.44,-0.885 l 0.63,-0.93 q 0.69,0.57 1.29,0.825 0.6,0.255 1.275,0.255 0.87,0 1.395,-0.33 0.54,-0.345 0.54,-0.885 0,-0.555 -0.45,-0.795 -0.45,-0.255 -1.485,-0.27 -1.515,-0.06 -2.22,-0.555 -0.69,-0.495 -0.69,-1.545 0,-0.96 0.795,-1.59 0.81,-0.645 2.07,-0.645 0.855,0 1.605,0.27 0.75,0.27 1.365,0.795 l -0.585,0.915 q -0.615,-0.495 -1.185,-0.72 -0.57,-0.225 -1.215,-0.225 -0.735,0 -1.215,0.33 -0.465,0.33 -0.465,0.81 0,0.525 0.42,0.765 0.42,0.24 1.335,0.285 1.635,0.045 2.355,0.54 0.735,0.495 0.735,1.56 z"
         id="path13232" />
    </g>
    <path
       d="M421.502 504.15 413.646 472.71 415.586 472.225 423.442 503.665ZM411.059 474.731 413 466 418.82 472.792Z"
       fill="#AEAEAE"
       id="path12611" />
  </g>
</svg>
