<svg width="224" height="288" xmlns="http://www.w3.org/2000/svg" xmlns:xlink="http://www.w3.org/1999/xlink" overflow="hidden"><defs><clipPath id="clip0"><rect x="0" y="0" width="224" height="288"/></clipPath></defs><g clip-path="url(#clip0)"><rect x="0" y="0" width="224" height="288" fill="#FFFFFF"/><path d="M30.5001 55.1673C30.5001 40.9917 41.9917 29.5001 56.1673 29.5001L159.833 29.5001C174.008 29.5001 185.5 40.9917 185.5 55.1673L185.5 157.833C185.5 172.008 174.008 183.5 159.833 183.5L56.1673 183.5C41.9917 183.5 30.5001 172.008 30.5001 157.833Z" stroke="#AEAEAE" stroke-width="1.33333" stroke-miterlimit="8" fill="#E9E9E9" fill-rule="evenodd"/><text font-family="IntelOne Display Regular,IntelOne Display Regular_MSFontService,sans-serif" font-weight="400" font-size="21" transform="translate(54.1683 113)">InceptionV1</text><path d="M82.5001 252.5C82.5001 245.32 93.9168 239.5 108 239.5 122.083 239.5 133.5 245.32 133.5 252.5 133.5 259.68 122.083 265.5 108 265.5 93.9168 265.5 82.5001 259.68 82.5001 252.5Z" stroke="#E96115" stroke-width="1.33333" stroke-miterlimit="8" fill="#FFFFFF" fill-rule="evenodd"/><path d="M1-1.87829e-06 1.00009 49.2281-0.999907 49.2281-1 1.87829e-06ZM4.00009 47.8948 0.000104987 55.8948-3.99991 47.8948Z" fill="#AEAEAE" transform="matrix(1 0 0 -1 108 238.895)"/><text font-family="IntelOne Display Regular,IntelOne Display Regular_MSFontService,sans-serif" font-weight="400" font-size="18" transform="translate(87.5787 235)">input</text></g></svg>