<svg width="704" height="528" xmlns="http://www.w3.org/2000/svg" xmlns:xlink="http://www.w3.org/1999/xlink" overflow="hidden"><defs><clipPath id="clip0"><rect x="0" y="0" width="704" height="528"/></clipPath></defs><g clip-path="url(#clip0)"><rect x="0" y="0" width="704" height="528" fill="#FFFFFF"/><path d="M515.574 644.035 412.041 498.017 413.672 496.86 517.206 642.878ZM410.364 500.84 409 492 416.89 496.212Z" fill="#AEAEAE"/><path d="M1.87266-0.702235 72.8024 188.447 69.057 189.852-1.87266 0.702235ZM75.8454 185.17 74.4408 198.513 64.6094 189.383Z" fill="#AEAEAE" transform="matrix(1 0 0 -1 228 690.513)"/><path d="M81 112.002C81 70.0271 115.027 36 157.002 36L546.998 36C588.973 36 623 70.0271 623 112.002L623 415.998C623 457.973 588.973 492 546.998 492L157.002 492C115.027 492 81 457.973 81 415.998Z" stroke="#E96115" stroke-width="6" stroke-miterlimit="8" fill="#E9E9E9" fill-rule="evenodd"/><path d="M354-77 354 25.7768 350 25.7768 350-77ZM358 23.7768 352 35.7768 346 23.7768Z" fill="#AEAEAE"/><path d="M190.5 175C190.5 165.887 207.737 158.5 229 158.5 250.263 158.5 267.5 165.887 267.5 175 267.5 184.113 250.263 191.5 229 191.5 207.737 191.5 190.5 184.113 190.5 175Z" stroke="#AEAEAE" stroke-width="1.33333" stroke-miterlimit="8" fill="#FFFFFF" fill-rule="evenodd"/><path d="M162.5 243.334C162.5 239.007 166.007 235.5 170.334 235.5L286.667 235.5C290.993 235.5 294.5 239.007 294.5 243.334L294.5 274.667C294.5 278.993 290.993 282.5 286.667 282.5L170.334 282.5C166.007 282.5 162.5 278.993 162.5 274.667Z" stroke="#708541" stroke-width="1.33333" stroke-miterlimit="8" fill="#B1D272" fill-rule="evenodd"/><path d="M256.5 346C256.5 336.887 273.737 329.5 295 329.5 316.263 329.5 333.5 336.887 333.5 346 333.5 355.113 316.263 362.5 295 362.5 273.737 362.5 256.5 355.113 256.5 346Z" stroke="#AEAEAE" stroke-width="1.33333" stroke-miterlimit="8" fill="#FFFFFF" fill-rule="evenodd"/><path d="M227.001 157.423 227.377 147.517 228.384 137.637 230.083 127.884 232.347 118.384 235.179 109.261 238.514 100.452 242.29 92.1441 246.449 84.331 251.054 77.1396 255.917 70.697 261.106 65.0024 266.502 60.1141 272.112 56.2251 277.937 53.2806 283.798 51.4774 289.743 50.8381 301.28 50.4619 301.223 50.4653 312.411 49.4653 312.352 49.4724 322.789 47.9099 322.729 47.9209 332.104 45.9209 332.036 45.9379 336.161 44.7504 336.121 44.7627 339.871 43.5127 339.819 43.5317 343.132 42.2192 342.962 42.3058 346.559 40.0114 347.635 41.6975 343.957 44.0434 340.53 45.4013 336.734 46.6666 332.555 47.8696 323.116 49.8833 312.619 51.4548 301.373 52.4599 289.845 52.8358 289.919 52.8306 284.107 53.4556 284.294 53.4172 278.607 55.1672 278.764 55.1038 273.076 57.9788 273.195 57.9082 267.695 61.7207 267.796 61.64 262.484 66.4525 262.552 66.3849 257.427 72.0099 257.486 71.9389 252.673 78.3139 252.717 78.2506 248.155 85.3756 248.195 85.3062 244.07 93.0562 244.098 93.0002 240.348 101.25 240.373 101.19 237.06 109.94 237.08 109.883 234.268 118.945 234.285 118.881 232.035 128.318 232.048 128.258 230.36 137.945 230.37 137.875 229.37 147.688 229.374 147.624 228.999 157.499ZM343.256 39.1163 351.625 35.9614 349.127 44.5498Z" fill="#AEAEAE"/><path d="M1-2.4027e-06 1.00009 37.0288-0.999911 37.0288-1 2.4027e-06ZM4.00009 35.6954 0.000104987 43.6954-3.99991 35.6954Z" fill="#AEAEAE" transform="matrix(1 0 0 -1 228 234.695)"/><path d="M0.0995037-0.995037 4.5675-0.548237 8.98329 0.750524 13.0682 2.69573 16.7663 5.29085 19.8882 8.34774 22.3144 11.7576 23.9097 15.4799 24.4281 19.2384 24.9278 22.7985 24.8566 22.5436 26.3566 26.0436 26.2523 25.8577 28.5648 29.1077 28.4496 28.973 31.4496 31.9105 31.3244 31.8064 34.8869 34.3064 34.7369 34.2195 38.7369 36.0945 38.5334 36.0247 40.5441 36.4802 40.1022 38.4307 37.986 37.9514 33.8093 35.9935 30.1087 33.3966 26.9868 30.3398 24.5606 26.9299 22.9658 23.2087 22.4469 19.5116 21.9469 15.8866 22.0184 16.1439 20.5184 12.6439 20.6227 12.8298 18.3102 9.57975 18.4254 9.71451 15.4254 6.77701 15.5506 6.88106 11.9881 4.38106 12.1326 4.46536 8.19507 2.59036 8.34283 2.64687 4.09283 1.39687 4.2755 1.43254-0.0995037 0.995037ZM39.752 33.2779 46.875 38.6875 38.2736 41.1401Z" fill="#AEAEAE" transform="matrix(-1.83697e-16 -1 -1 1.83697e-16 294.644 328.851)"/><path d="M414.493 501.445 324.808 364.129 326.483 363.035 416.167 500.351ZM323.026 366.885 322 358 329.724 362.511Z" fill="#AEAEAE"/><path d="M299.948 500.063 293.336 368.709 295.334 368.608 301.946 499.963ZM290.407 370.191 294 362 298.397 369.789Z" fill="#AEAEAE"/><path d="M0.058722-0.998274 5.43593-0.681968 10.7955 0.338892 16.0835 1.86798 21.2441 4.03413 26.1989 6.70214 30.9593 9.81222 35.4657 13.3666 39.6506 17.2979 43.5185 21.5462 47.0092 26.1159 50.0556 30.9393 52.6597 35.957 54.7576 41.17 56.3501 46.5207 57.3075 52.0097 57.6233 57.442 57.6207 57.4074 57.8707 60.0949 57.8438 59.9397 58.5313 62.6272 58.4849 62.4889 59.6099 65.1764 59.5468 65.051 61.1093 67.676 61.0454 67.5815 63.0454 70.2065 62.9915 70.1416 65.3665 72.7666 65.3155 72.7141 68.0655 75.3391 67.9997 75.2816 71.1247 77.7816 71.0644 77.737 78.3769 82.737 78.29 82.6839 86.915 87.3714 86.8544 87.341 96.6669 91.841 96.614 91.8186 107.489 96.0686 107.432 96.0483 119.245 99.8608 119.205 99.8488 131.83 103.349 131.786 103.338 145.161 106.4 145.123 106.392 159.06 109.017 159.016 109.01 173.454 111.073 173.418 111.068 188.168 112.631 188.125 112.627 203.187 113.564 203.15 113.563 211.61 113.773 211.561 115.772 203.082 115.562 187.979 114.622 173.189 113.055 158.712 110.987 144.733 108.354 131.317 105.282 118.65 101.771 106.789 97.9424 95.8592 93.6709 85.9898 89.1448 77.2902 84.4168 69.9046 79.3668 66.7162 76.816 63.908 74.1356 61.4801 71.4521 59.4199 68.7481 57.7922 66.0135 56.6118 63.1937 55.8866 60.3588 55.6277 57.5754 55.3142 52.183 55.3274 52.2968 54.3899 46.9218 54.4165 47.0353 52.854 41.7853 52.8848 41.8733 50.8223 36.7483 50.8624 36.8356 48.2999 31.8981 48.342 31.9715 45.342 27.2215 45.3928 27.2945 41.9553 22.7945 42.0106 22.8607 38.1981 18.6732 38.2528 18.7288 34.1278 14.8538 34.1932 14.9102 29.7557 11.4102 29.8281 11.4622 25.1406 8.39967 25.2134 8.44297 20.3384 5.81797 20.4255 5.85956 15.363 3.73456 15.4722 3.77315 10.2847 2.27315 10.3754 2.29484 5.12539 1.29484 5.25378 1.31077-0.058722 0.998274ZM210.352 110.74 218.25 114.937 210.153 118.738Z" fill="#AEAEAE" transform="matrix(-1.83697e-16 -1 -1 1.83697e-16 297.917 500.22)"/><text font-family="IntelOne Display Regular,IntelOne Display Regular_MSFontService,sans-serif" font-weight="400" font-size="24" transform="translate(274.777 85)">Conv2d_1a_7x7<tspan font-size="19" x="-67.0305" y="65">Relu</tspan><tspan font-size="21" x="-101.385" y="181">BatchNorm</tspan><tspan font-size="12" x="-104.165" y="295">3 tensors</tspan><tspan font-family="Calibri,Calibri_MSFontService,sans-serif" font-size="19" x="-16.0572" y="238">convoluti</tspan><tspan font-family="Calibri,Calibri_MSFontService,sans-serif" font-size="19" x="53.9695" y="238">…</tspan></text></g></svg>