<svg width="723" height="480" xmlns="http://www.w3.org/2000/svg" xmlns:xlink="http://www.w3.org/1999/xlink" overflow="hidden"><defs><clipPath id="clip0"><rect x="0" y="0" width="723" height="480"/></clipPath></defs><g clip-path="url(#clip0)"><rect x="0" y="0" width="723" height="480.111" fill="#FFFFFF"/><path d="M28.5 97.1906C28.5 57.6002 60.5869 25.5058 100.168 25.5058L623.832 25.5058C663.413 25.5058 695.5 57.6002 695.5 97.1906L695.5 383.92C695.5 423.511 663.413 455.605 623.832 455.605L100.168 455.605C60.5869 455.605 28.5 423.511 28.5 383.92Z" stroke="#AEAEAE" stroke-width="1.33303" stroke-miterlimit="8" fill="#E9E9E9" fill-rule="evenodd"/><text font-family="IntelOne Display Regular,IntelOne Display Regular_MSFontService,sans-serif" font-weight="400" font-size="24" transform="matrix(1 0 0 1.00023 289.976 57)">Predictions</text><path d="M320 133.531C320 127.178 331.864 122.028 346.5 122.028 361.136 122.028 373 127.178 373 133.531 373 139.883 361.136 145.033 346.5 145.033 331.864 145.033 320 139.883 320 133.531Z" stroke="#E96115" stroke-width="5.99862" stroke-miterlimit="8" fill="#FFFFFF" fill-rule="evenodd"/><path d="M215.5 229.053C215.5 222.7 227.364 217.55 242 217.55 256.636 217.55 268.5 222.7 268.5 229.053 268.5 235.406 256.636 240.555 242 240.555 227.364 240.555 215.5 235.406 215.5 229.053Z" stroke="#AEAEAE" stroke-width="2.99931" stroke-miterlimit="8" fill="#FFFFFF" fill-rule="evenodd"/><path d="M422.5 229.053C422.5 222.7 434.364 217.55 449 217.55 463.636 217.55 475.5 222.7 475.5 229.053 475.5 235.406 463.636 240.555 449 240.555 434.364 240.555 422.5 235.406 422.5 229.053Z" stroke="#AEAEAE" stroke-width="2.99931" stroke-miterlimit="8" fill="#FFFFFF" fill-rule="evenodd"/><path d="M216.5 295.568C216.5 288.939 228.364 283.565 243 283.565 257.636 283.565 269.5 288.939 269.5 295.568 269.5 302.197 257.636 307.571 243 307.571 228.364 307.571 216.5 302.197 216.5 295.568Z" stroke="#AEAEAE" stroke-width="2.99931" stroke-miterlimit="8" fill="#FFFFFF" fill-rule="evenodd"/><path d="M172.5 295.568C172.5 291.149 176.306 287.566 181 287.566 185.694 287.566 189.5 291.149 189.5 295.568 189.5 299.987 185.694 303.57 181 303.57 176.306 303.57 172.5 299.987 172.5 295.568Z" stroke="#AEAEAE" stroke-width="2.99931" stroke-miterlimit="8" fill="#FFFFFF" fill-rule="evenodd"/><path d="M2.8778-0.845066 50.3686 160.881 44.613 162.571-2.8778 0.845066ZM55.2792 156.313 51.7162 176.115 38.0124 161.383Z" fill="#AEAEAE" transform="matrix(1 0 0 -1.00023 310 631.26)"/><path d="M189 294.068 209.793 294.068 209.793 296.068 189 296.068ZM208.46 291.068 216.458 295.068 208.46 299.068Z" fill="#AEAEAE"/><path d="M0.267582-0.963296 1.63018-0.584796 2.94898 0.656429 4.17747 2.43091 5.29426 4.73019 6.31987 7.48652 7.33691 10.7283 8.22228 14.333 9.10517 18.3691 10.6129 27.4153 11.8057 37.5229 12.5588 48.3177 12.8093 59.4012 12.8073 59.3573 12.9948 62.1692 12.9721 62.0141 13.597 64.7635 13.5489 64.6101 15.7984 70.1713 15.699 69.9851 19.3857 75.4213 19.2822 75.293 24.281 80.5418 24.1986 80.4645 30.3222 85.5883 30.2401 85.5265 37.5509 90.4629 37.4804 90.4194 45.7285 95.0433 45.6694 95.0127 54.8548 99.3867 54.7983 99.3619 64.7335 103.361 64.6813 103.342 75.3663 106.966 75.3128 106.949 86.5602 110.074 86.5155 110.062 98.2628 112.749 98.2165 112.74 110.401 114.927 110.354 114.919 122.789 116.544 122.738 116.539 135.422 117.538 135.368 117.536 141.452 117.685 141.403 119.684 135.292 119.534 122.555 118.53 110.071 116.899 97.84 114.704 86.0472 112.006 74.7506 108.868 64.0127 105.226 54.023 101.205 44.7797 96.8037 36.4664 92.1432 29.0785 87.1549 22.8721 81.9617 17.7772 76.6121 13.9846 71.0195 11.665 65.2852 11.0049 62.3806 10.8108 59.4684 10.5603 48.3864 10.5625 48.4334 9.81266 37.6859 9.81713 37.7335 8.6299 27.6733 8.63661 27.7205 7.13696 18.7226 7.14645 18.7719 6.27165 14.7728 6.27742 14.7976 5.40262 11.2359 5.4196 11.2967 4.41983 8.10997 4.43676 8.15935 3.43699 5.47247 3.47469 5.56062 2.41244 3.37363 2.48973 3.5059 1.36499 1.88128 1.50179 2.04023 0.439534 1.04046 0.857159 1.27572-0.267582 0.963296ZM140.193 114.654 148.091 118.848 139.997 122.649Z" fill="#AEAEAE" transform="matrix(-6.12323e-17 -1.00023 -1 6.12465e-17 361.833 455.162)"/><path d="M361.02 454.694 361.304 453.274 362.199 451.781 363.518 450.393 365.19 449.122 367.284 447.879 369.678 446.778 375.324 444.684 382.029 442.976 389.412 441.587 397.359 440.767 405.514 440.454 405.403 440.464 407.465 440.152 407.238 440.214 409.238 439.401 409.042 439.507 411.104 438.07 410.98 438.172 412.98 436.235 412.895 436.328 414.894 433.828 414.841 433.902 416.778 430.965 416.744 431.019 418.744 427.519 418.718 427.568 420.655 423.693 420.63 423.746 422.504 419.371 422.493 419.398 424.368 414.648 424.354 414.685 426.166 409.498 426.156 409.528 427.906 403.965 427.897 403.995 431.334 391.745 431.322 391.79 434.447 378.29 434.44 378.32 437.377 363.57 437.372 363.597 440.059 347.847 440.054 347.878 442.366 331.191 442.363 331.217 444.3 313.842 444.298 313.863 445.922 295.925 445.92 295.954 447.045 277.517 447.044 277.538 447.794 258.85 447.793 258.877 447.954 246.668 449.954 246.695 449.792 258.917 449.041 277.628 447.915 296.091 446.288 314.053 444.348 331.452 442.032 348.168 439.341 363.947 436.398 378.726 433.265 392.263 429.818 404.551 428.059 410.143 426.235 415.364 424.348 420.146 422.456 424.561 420.494 428.487 418.464 432.039 416.484 435.042 414.417 437.627 412.314 439.665 410.094 441.212 407.881 442.111 405.647 442.45 397.468 442.765 397.532 442.76 389.659 443.573 389.741 443.561 382.43 444.936 382.492 444.922 375.869 446.609 375.969 446.578 370.408 448.64 370.478 448.611 368.166 449.674 368.259 449.625 366.26 450.813 366.354 450.749 364.792 451.936 364.912 451.829 363.725 453.079 363.857 452.905 363.107 454.155 363.23 453.836 362.98 455.086ZM444.938 247.962 449.042 240.015 452.935 248.068Z" fill="#AEAEAE"/><path d="M241.198 283.165 240.186 246.747 242.185 246.692 243.197 283.11ZM237.225 248.163 241 240.055 245.22 247.941Z" fill="#AEAEAE"/><path d="M0.0712306-0.997229 3.63338-0.74279 7.19032-0.0314014 10.7428 1.13122 14.1734 2.74943 20.6147 6.95858 26.4296 12.3902 31.2798 18.8996 35.0322 26.0863 36.4461 29.8783 37.4709 33.7853 38.1124 37.7626 38.3025 41.7553 38.49 45.6919 38.4784 45.5803 39.1032 49.4544 39.0793 49.3452 40.1415 53.1568 40.1221 53.0949 41.4343 56.844 41.3769 56.7116 45.0636 63.7725 44.9724 63.6291 49.7838 69.9401 49.6794 69.8234 55.3031 75.1972 55.1593 75.0831 61.4704 79.2071 61.3359 79.1333 64.6476 80.633 64.4946 80.5782 68.2843 81.5963 67.7655 83.5274 63.897 82.4881 60.441 80.9231 53.9884 76.7065 48.2412 71.2148 43.3305 64.7735 39.5709 57.5729 38.2241 53.7248 37.1381 49.828 36.4954 45.8432 36.3053 41.8504 36.1178 37.9138 36.1294 38.0255 35.5046 34.1514 35.5245 34.2458 34.5248 30.4342 34.5551 30.5298 33.1804 26.8432 33.2309 26.9566 29.5442 19.8957 29.6288 20.0304 24.8799 13.6568 24.9991 13.7901 19.3129 8.47883 19.4485 8.58514 13.1374 4.46109 13.2578 4.52839 9.94609 2.96625 10.0616 3.0122 6.62493 1.88746 6.73983 1.91764 3.30312 1.2303 3.42796 1.24717-0.0712306 0.997229ZM67.3347 78.4034 74.6078 83.6057 66.082 86.3028Z" fill="#AEAEAE" transform="matrix(-1.83697e-16 -1.00023 -1 1.83739e-16 448.574 216.65)"/><path d="M240.003 216.94 240.257 213.379 240.97 209.75 242.197 206.196 243.803 202.791 245.79 199.456 248.171 196.238 253.775 190.442 260.408 185.594 267.786 181.84 271.757 180.431 275.784 179.344 279.89 178.702 283.943 178.512 287.942 178.325 287.835 178.336 291.834 177.711 291.728 177.733 295.664 176.671 295.586 176.695 299.397 175.32 299.283 175.37 306.531 171.682 306.39 171.77 312.888 166.957 312.768 167.062 318.267 161.437 318.178 161.541 320.49 158.416 320.435 158.499 322.372 155.249 322.327 155.335 323.889 152.022 323.831 152.178 324.915 148.325 326.839 148.867 325.733 152.8 324.115 156.232 322.127 159.566 319.745 162.786 314.142 168.517 307.512 173.427 300.134 177.181 296.225 178.591 292.196 179.678 288.09 180.32 284.037 180.51 280.038 180.698 280.145 180.687 276.146 181.312 276.252 181.289 272.316 182.352 272.39 182.329 268.516 183.704 268.634 183.653 261.386 187.34 261.523 187.256 255.024 192.006 255.153 191.894 249.654 197.581 249.739 197.481 247.427 200.606 247.482 200.523 245.545 203.773 245.591 203.688 244.029 207 244.069 206.9 242.882 210.338 242.918 210.204 242.231 213.704 242.247 213.582 241.997 217.082ZM321.719 149.289 326.918 142.011 329.619 150.538Z" fill="#AEAEAE"/><text font-family="IntelOne Display Regular,IntelOne Display Regular_MSFontService,sans-serif" font-weight="400" font-size="16" transform="matrix(1 0 0 1.00023 311.46 115)">Reshape_1<tspan font-size="16" x="-97.7244" y="93.9783">Softmax</tspan><tspan font-size="16" x="113.548" y="93.9783">Shape</tspan><tspan font-size="16" x="-101.555" y="158.963">Reshape</tspan><tspan font-size="13" x="-181.888" y="184.957">s</tspan><tspan font-size="13" x="-175.556" y="184.957">hape</tspan></text></g></svg>