<?xml version="1.0" encoding="UTF-8" standalone="no"?>
<svg
   width="224"
   height="288"
   overflow="hidden"
   version="1.1"
   id="svg17402"
   sodipodi:docname="inception_v1_std_input.svg"
   inkscape:version="1.2.1 (9c6d41e410, 2022-07-14)"
   xmlns:inkscape="http://www.inkscape.org/namespaces/inkscape"
   xmlns:sodipodi="http://sodipodi.sourceforge.net/DTD/sodipodi-0.dtd"
   xmlns="http://www.w3.org/2000/svg"
   xmlns:svg="http://www.w3.org/2000/svg">
  <sodipodi:namedview
     id="namedview17404"
     pagecolor="#ffffff"
     bordercolor="#000000"
     borderopacity="0.25"
     inkscape:showpageshadow="2"
     inkscape:pageopacity="0.0"
     inkscape:pagecheckerboard="0"
     inkscape:deskcolor="#d1d1d1"
     showgrid="false"
     inkscape:zoom="3.0972222"
     inkscape:cx="111.87444"
     inkscape:cy="144"
     inkscape:window-width="1920"
     inkscape:window-height="1137"
     inkscape:window-x="-8"
     inkscape:window-y="-8"
     inkscape:window-maximized="1"
     inkscape:current-layer="svg17402" />
  <defs
     id="defs17386">
    <clipPath
       id="clip0">
      <rect
         x="0"
         y="0"
         width="224"
         height="288"
         id="rect17383" />
    </clipPath>
  </defs>
  <g
     clip-path="url(#clip0)"
     id="g17400">
    <path
       id="rect17388"
       style="fill:#ffffff"
       d="M 0,0 H 224 V 288 H 0 Z" />
    <path
       d="M30.5001 55.1673C30.5001 40.9917 41.9917 29.5001 56.1673 29.5001L159.833 29.5001C174.008 29.5001 185.5 40.9917 185.5 55.1673L185.5 157.833C185.5 172.008 174.008 183.5 159.833 183.5L56.1673 183.5C41.9917 183.5 30.5001 172.008 30.5001 157.833Z"
       stroke="#AEAEAE"
       stroke-width="1.33333"
       stroke-miterlimit="8"
       fill="#E9E9E9"
       fill-rule="evenodd"
       id="path17390" />
    <g
       aria-label="InceptionV1"
       transform="translate(54.1683 113)"
       id="text17392"
       style="font-size:21px;font-family:'IntelOne Display Regular', 'IntelOne Display Regular_MSFontService', sans-serif">
      <path
         d="M 1.512,0 V -14.7 H 3.318 V 0 Z"
         id="path17770" />
      <path
         d="m 5.9429904,-10.143 h 1.68 v 1.575 q 0.609,-0.882 1.533,-1.344 0.9449996,-0.483 2.0999996,-0.483 2.016,0 3.15,1.302 1.134,1.302 1.134,3.57 V 0 h -1.701 v -5.418 q 0,-1.596 -0.798,-2.52 -0.777,-0.924 -2.184,-0.924 -1.4489996,0 -2.3309996,0.987 -0.882,0.987 -0.882,2.562 V 0 h -1.701 z"
         id="path17772" />
      <path
         d="m 22.427974,0.315 q -2.331,0 -3.801,-1.47 -1.449,-1.491 -1.449,-3.885 0,-2.268 1.533,-3.822 1.533,-1.554 3.759,-1.554 1.617,0 2.751,0.756 1.155,0.735 1.743,2.142 l -1.449,0.693 q -0.483,-1.05 -1.26,-1.575 -0.756,-0.525 -1.806,-0.525 -1.491,0 -2.52,1.134 -1.008,1.113 -1.008,2.751 0,1.659 1.008,2.772 1.029,1.092 2.562,1.092 0.987,0 1.827,-0.525 0.861,-0.546 1.386,-1.512 l 1.323,0.714 q -0.609,1.302 -1.827,2.058 -1.218,0.756 -2.772,0.756 z"
         id="path17774" />
      <path
         d="m 33.620971,-1.134 q 1.008,0 1.848,-0.42 0.861,-0.441 1.575,-1.323 l 1.029,0.945 q -0.861,1.134 -2.016,1.701 -1.155,0.546 -2.583,0.546 -2.289,0 -3.759,-1.491 -1.449,-1.512 -1.449,-3.864 0,-2.289 1.491,-3.822 1.491,-1.533 3.675,-1.533 2.226,0 3.612,1.449 1.386,1.449 1.386,3.78 0,0.168 -0.021,0.399 -0.021,0.21 -0.042,0.315 h -8.337 q 0.168,1.491 1.155,2.415 1.008,0.903 2.436,0.903 z m -0.168,-7.812 q -1.323,0 -2.268,0.861 -0.945,0.861 -1.155,2.31 h 6.678 q -0.189,-1.47 -1.071,-2.31 -0.882,-0.861 -2.184,-0.861 z"
         id="path17776" />
      <path
         d="m 41.852986,3.78 h -1.701 v -13.923 h 1.68 v 1.638 q 0.672,-0.882 1.659,-1.365 0.987,-0.504 2.1,-0.504 2.142,0 3.57,1.491 1.428,1.47 1.428,3.78 0,2.331 -1.491,3.843 -1.47,1.491 -3.633,1.491 -1.029,0 -1.995,-0.42 -0.945,-0.441 -1.617,-1.239 z m 3.549,-12.642 q -1.533,0 -2.583,1.113 -1.029,1.092 -1.029,2.73 0,1.617 1.008,2.688 1.029,1.071 2.541,1.071 1.554,0 2.52,-1.029 0.987,-1.05 0.987,-2.772 0,-1.701 -0.966,-2.751 -0.945,-1.05 -2.478,-1.05 z"
         id="path17778" />
      <path
         d="m 52.814987,-2.709 v -5.922 h -1.386 v -1.512 h 1.386 v -3.108 h 1.701 v 3.108 h 2.352 v 1.512 h -2.352 v 5.775 q 0,0.672 0.294,1.008 0.315,0.315 0.945,0.315 h 1.113 V 0 h -1.365 q -1.407,0 -2.058,-0.651 -0.63,-0.651 -0.63,-2.058 z"
         id="path17780" />
      <path
         d="m 58.69499,-13.545 h 1.89 v 1.869 h -1.89 z M 58.77899,0 v -10.143 h 1.722 V 0 Z"
         id="path17782" />
      <path
         d="m 73.016979,-5.061 q 0,2.289 -1.533,3.843 -1.533,1.533 -3.78,1.533 -2.247,0 -3.759,-1.533 -1.491,-1.533 -1.491,-3.822 0,-2.289 1.533,-3.822 1.533,-1.554 3.78,-1.554 2.247,0 3.738,1.533 1.512,1.533 1.512,3.822 z m -8.82,0.021 q 0,1.638 1.008,2.751 1.029,1.113 2.541,1.113 1.491,0 2.499,-1.113 1.029,-1.113 1.029,-2.772 0,-1.617 -1.029,-2.73 -1.029,-1.134 -2.52,-1.134 -1.491,0 -2.52,1.113 -1.008,1.113 -1.008,2.772 z"
         id="path17784" />
      <path
         d="m 74.780984,-10.143 h 1.68 v 1.575 q 0.609,-0.882 1.533,-1.344 0.945,-0.483 2.1,-0.483 2.016,0 3.15,1.302 1.134,1.302 1.134,3.57 V 0 h -1.701 v -5.418 q 0,-1.596 -0.798,-2.52 -0.777,-0.924 -2.184,-0.924 -1.449,0 -2.331,0.987 -0.882,0.987 -0.882,2.562 V 0 h -1.701 z"
         id="path17786" />
      <path
         d="m 91.097987,0 -6.51,-14.7 h 1.974 l 5.481,12.39 5.418,-12.39 h 1.932 l -6.51,14.7 z"
         id="path17788" />
      <path
         d="m 102.522,-13.104 h -2.268 V -14.7 h 4.032 V 0 h -1.764 z"
         id="path17790" />
    </g>
    <path
       d="M82.5001 252.5C82.5001 245.32 93.9168 239.5 108 239.5 122.083 239.5 133.5 245.32 133.5 252.5 133.5 259.68 122.083 265.5 108 265.5 93.9168 265.5 82.5001 259.68 82.5001 252.5Z"
       stroke="#E96115"
       stroke-width="1.33333"
       stroke-miterlimit="8"
       fill="#FFFFFF"
       fill-rule="evenodd"
       id="path17394" />
    <path
       d="M1-1.87829e-06 1.00009 49.2281-0.999907 49.2281-1 1.87829e-06ZM4.00009 47.8948 0.000104987 55.8948-3.99991 47.8948Z"
       fill="#AEAEAE"
       transform="matrix(1 0 0 -1 108 238.895)"
       id="path17396" />
    <g
       aria-label="input"
       transform="translate(87.5787 235)"
       id="text17398"
       style="font-size:18px;font-family:'IntelOne Display Regular', 'IntelOne Display Regular_MSFontService', sans-serif">
      <path
         d="m 1.044,-11.61 h 1.62 v 1.602 H 1.044 Z M 1.116,0 V -8.694 H 2.592 V 0 Z"
         id="path17793" />
      <path
         d="m 4.6619887,-8.694 h 1.44 v 1.35 q 0.522,-0.756 1.314,-1.152 0.81,-0.414 1.8,-0.414 1.7280003,0 2.7000003,1.116 0.972,1.116 0.972,3.06 V 0 h -1.458 v -4.644 q 0,-1.368 -0.684,-2.16 -0.666,-0.792 -1.8720003,-0.792 -1.242,0 -1.998,0.846 -0.756,0.846 -0.756,2.196 V 0 h -1.458 z"
         id="path17795" />
      <path
         d="m 16.145974,3.24 h -1.458 V -8.694 h 1.44 v 1.404 q 0.576,-0.756 1.422,-1.17 0.846,-0.432 1.8,-0.432 1.836,0 3.06,1.278 1.224,1.26 1.224,3.24 0,1.998 -1.278,3.294 -1.26,1.278 -3.114,1.278 -0.882,0 -1.71,-0.36 -0.81,-0.378 -1.386,-1.062 z m 3.042,-10.836 q -1.314,0 -2.214,0.954 -0.882,0.936 -0.882,2.34 0,1.386 0.864,2.304 0.882,0.918 2.178,0.918 1.332,0 2.16,-0.882 0.846,-0.9 0.846,-2.376 0,-1.458 -0.828,-2.358 -0.81,-0.9 -2.124,-0.9 z"
         id="path17797" />
      <path
         d="m 33.281963,0 h -1.458 v -1.332 q -0.522,0.756 -1.314,1.152 -0.792,0.378 -1.8,0.378 -1.71,0 -2.7,-1.116 -0.972,-1.116 -0.972,-3.042 v -4.734 h 1.476 v 4.644 q 0,1.368 0.666,2.16 0.684,0.792 1.89,0.792 1.224,0 1.98,-0.846 0.756,-0.846 0.756,-2.196 v -4.554 h 1.476 z"
         id="path17799" />
      <path
         d="m 35.657949,-2.322 v -5.076 h -1.188 v -1.296 h 1.188 v -2.664 h 1.458 v 2.664 h 2.016 v 1.296 h -2.016 v 4.95 q 0,0.576 0.252,0.864 0.27,0.27 0.81,0.27 h 0.954 V 0 h -1.17 q -1.206,0 -1.764,-0.558 -0.54,-0.558 -0.54,-1.764 z"
         id="path17801" />
    </g>
  </g>
</svg>
