<?xml version="1.0" encoding="UTF-8" standalone="no"?>
<svg
   width="992"
   height="1200"
   overflow="hidden"
   version="1.1"
   id="svg21925"
   sodipodi:docname="lm_1b.svg"
   inkscape:version="1.2.1 (9c6d41e410, 2022-07-14)"
   xmlns:inkscape="http://www.inkscape.org/namespaces/inkscape"
   xmlns:sodipodi="http://sodipodi.sourceforge.net/DTD/sodipodi-0.dtd"
   xmlns="http://www.w3.org/2000/svg"
   xmlns:svg="http://www.w3.org/2000/svg">
  <sodipodi:namedview
     id="namedview21927"
     pagecolor="#ffffff"
     bordercolor="#000000"
     borderopacity="0.25"
     inkscape:showpageshadow="2"
     inkscape:pageopacity="0.0"
     inkscape:pagecheckerboard="0"
     inkscape:deskcolor="#d1d1d1"
     showgrid="false"
     inkscape:zoom="0.74333333"
     inkscape:cx="495.73991"
     inkscape:cy="600"
     inkscape:window-width="1920"
     inkscape:window-height="1137"
     inkscape:window-x="-8"
     inkscape:window-y="-8"
     inkscape:window-maximized="1"
     inkscape:current-layer="svg21925" />
  <defs
     id="defs21805">
    <clipPath
       id="clip0">
      <rect
         x="0"
         y="0"
         width="992"
         height="1200"
         id="rect21802" />
    </clipPath>
  </defs>
  <g
     clip-path="url(#clip0)"
     id="g21923">
    <path
       id="rect21807"
       style="fill:#ffffff"
       d="M 0,0 H 992 V 1200 H 0 Z" />
    <path
       d="M0.0128494-0.999917 53.5258-0.31225 106.614 1.75123 158.885 5.06511 184.588 7.19136 209.913 9.56753 234.8 12.2563 259.25 15.1328 283.139 18.3222 306.464 21.7616 329.164 25.3885 351.242 29.2036 372.506 33.269 393.023 37.4598 412.728 41.9013 431.497 46.4684 449.332 51.2244 466.229 56.1684 482.004 61.1762 496.72 66.3114 510.318 71.5751 522.67 76.9671 533.843 82.4281 543.648 88.0224 552.154 93.63 559.225 99.3745 562.22 102.243 564.835 105.176 567.072 108.117 568.935 111.071 570.419 114.039 571.528 117.041 572.117 120.048 572.376 123.03 572.124 134.606 571.371 146.085 570.179 157.378 568.486 168.419 566.478 179.022 564.031 189.251 561.331 198.918 558.314 207.97 554.98 216.273 551.453 223.832 547.723 230.469 543.787 236.12 539.692 240.727 535.377 244.192 533.217 245.009 532.509 243.139 534.521 242.377 534.249 242.533 538.374 239.22 538.253 239.336 542.253 234.836 542.179 234.928 546.054 229.366 546.003 229.448 549.691 222.885 549.656 222.952 553.156 215.452 553.134 215.502 556.447 207.252 556.426 207.309 559.426 198.309 559.412 198.356 562.099 188.731 562.09 188.767 564.527 178.58 564.517 178.626 566.517 168.064 566.512 168.098 568.199 157.098 568.193 157.145 569.38 145.895 569.377 145.935 570.127 134.497 570.125 134.541 570.375 123.041 570.379 123.149 570.129 120.274 570.144 120.38 569.581 117.505 569.624 117.659 568.562 114.784 568.606 114.885 567.168 112.01 567.216 112.096 565.404 109.221 565.454 109.293 563.267 106.418 563.316 106.478 560.753 103.603 560.808 103.66 557.871 100.847 557.932 100.901 550.932 95.2136 551.012 95.2724 542.575 89.7099 542.629 89.7436 532.879 84.1811 532.936 84.2109 521.811 78.7734 521.85 78.7915 509.537 73.4165 509.576 73.4326 496.014 68.1826 496.046 68.1942 481.358 63.0692 481.385 63.0781 465.635 58.0781 465.657 58.0848 448.782 53.1473 448.805 53.1537 430.992 48.4037 431.014 48.4091 412.264 43.8466 412.28 43.8505 392.593 39.413 392.612 39.4173 372.112 35.2298 372.125 35.2322 350.875 31.1697 350.892 31.1729 328.83 27.3604 328.842 27.3625 306.155 23.7375 306.167 23.7393 282.854 20.3018 282.868 20.3037 258.993 17.1162 259.008 17.1182 234.571 14.2432 234.58 14.2442 209.705 11.5567 209.719 11.5581 184.407 9.18313 184.418 9.1841 158.73 7.0591 158.749 7.0605 106.499 3.748 106.524 3.74925 53.4612 1.68675 53.4872 1.68742-0.0128494 0.999917ZM535.329 247.494 526.5 246.062 532.943 239.859Z"
       fill="#AEAEAE"
       transform="matrix(-1.83697e-16 -1 -1 1.83697e-16 917.045 640.491)"
       id="path21809" />
    <path
       d="M119.493 24.1627C182.557 5.55553 242.292 81.0831 253.731 193.89L275.12 192.678 238.33 225.845 197.988 197.048 219.4 195.835C210.213 101.671 167.105 40.7267 122.698 59.1199Z"
       stroke="#EDB200"
       stroke-width="1.33333"
       stroke-miterlimit="8"
       fill="#EDB200"
       fill-rule="evenodd"
       transform="matrix(-1 0 0 1 389.5 412.5)"
       id="path21811" />
    <path
       d="M434.993 436.663C498.057 418.056 557.792 493.583 569.231 606.39L590.62 605.178 553.83 638.345 513.488 609.548 534.901 608.335C525.713 514.171 482.605 453.227 438.198 471.62Z"
       stroke="#EDB200"
       stroke-width="1.33333"
       stroke-miterlimit="8"
       fill="#EDB200"
       fill-rule="evenodd"
       id="path21813" />
    <path
       d="M785.441 565.553 804.145 531.169 838.529 549.873 827.224 553.212 853.097 640.814 822.619 649.816 796.745 562.214Z"
       stroke="#808080"
       stroke-width="1.33333"
       stroke-miterlimit="8"
       fill="#808080"
       fill-rule="evenodd"
       id="path21815" />
    <path
       d="M376.5 1160C376.5 1150.89 392.618 1143.5 412.5 1143.5 432.382 1143.5 448.5 1150.89 448.5 1160 448.5 1169.11 432.382 1176.5 412.5 1176.5 392.618 1176.5 376.5 1169.11 376.5 1160Z"
       stroke="#AEAEAE"
       stroke-width="1.33333"
       stroke-miterlimit="8"
       fill="#FFFFFF"
       fill-rule="evenodd"
       id="path21817" />
    <path
       d="M610.5 53.5001C610.5 44.1112 626.618 36.5001 646.5 36.5001 666.382 36.5001 682.5 44.1112 682.5 53.5001 682.5 62.8889 666.382 70.5001 646.5 70.5001 626.618 70.5001 610.5 62.8889 610.5 53.5001Z"
       stroke="#AEAEAE"
       stroke-width="1.33333"
       stroke-miterlimit="8"
       fill="#FFFFFF"
       fill-rule="evenodd"
       id="path21819" />
    <path
       d="M610.5 126C610.5 116.887 626.618 109.5 646.5 109.5 666.382 109.5 682.5 116.887 682.5 126 682.5 135.113 666.382 142.5 646.5 142.5 626.618 142.5 610.5 135.113 610.5 126Z"
       stroke="#AEAEAE"
       stroke-width="1.33333"
       stroke-miterlimit="8"
       fill="#FFFFFF"
       fill-rule="evenodd"
       id="path21821" />
    <g
       aria-label="softmax_..."
       transform="translate(603.52 24)"
       id="text21823"
       style="font-size:20px;font-family:Calibri, Calibri_MSFontService, sans-serif">
      <path
         d="m 7.0117187,-2.6367188 q 0,0.6738282 -0.2539062,1.2011719 Q 6.5136719,-0.90820313 6.0546875,-0.546875 5.5957031,-0.18554687 4.9609375,0 4.3261719,0.18554687 3.5644531,0.18554687 q -0.46875,0 -0.8984375,-0.078125 Q 2.2460938,0.0390625 1.9042969,-0.06835937 1.5722656,-0.18554687 1.3378906,-0.30273438 1.1035156,-0.4296875 0.99609375,-0.52734375 0.88867188,-0.625 0.83984375,-0.80078125 0.79101562,-0.9765625 0.79101562,-1.2792969 q 0,-0.1855468 0.0195313,-0.3125 Q 0.83007813,-1.71875 0.859375,-1.796875 0.88867188,-1.875 0.9375,-1.9042969 q 0.0585938,-0.039063 0.1269531,-0.039063 0.1074219,0 0.3125,0.1367188 0.2148438,0.1269531 0.5175781,0.2832031 0.3125001,0.15625 0.7324219,0.2929688 0.4199219,0.1269531 0.9667969,0.1269531 0.4101562,0 0.7421875,-0.087891 0.3320312,-0.087891 0.5761719,-0.2539063 0.2441406,-0.1757812 0.3710937,-0.4394531 0.1367188,-0.2636719 0.1367188,-0.625 0,-0.3710938 -0.1953125,-0.625 Q 5.0390625,-3.3886719 4.7265625,-3.5839844 4.4140625,-3.7792969 4.0234375,-3.9257813 3.6328125,-4.0820312 3.2128906,-4.2480469 2.8027344,-4.4140625 2.4023438,-4.6191406 2.0117188,-4.8339844 1.6992187,-5.1367187 1.3867187,-5.4394531 1.1914062,-5.859375 1.0058594,-6.2792969 1.0058594,-6.8652344 q 0,-0.5175781 0.1953125,-0.9863281 0.2050781,-0.4785156 0.6054687,-0.8300781 0.4003907,-0.3613282 0.9960938,-0.5761719 0.6054687,-0.2148438 1.40625,-0.2148438 0.3515625,0 0.703125,0.058594 0.3515625,0.058594 0.6347656,0.1464844 0.2832031,0.087891 0.4785156,0.1953125 0.2050781,0.097656 0.3027344,0.1757812 0.1074219,0.078125 0.1367187,0.1367188 0.039063,0.058594 0.048828,0.1367187 0.019531,0.068359 0.029297,0.1757813 0.019531,0.1074218 0.019531,0.2636718 0,0.1660157 -0.019531,0.2929688 -0.00977,0.1171875 -0.048828,0.1953125 -0.029297,0.078125 -0.078125,0.1171875 -0.048828,0.029297 -0.1074219,0.029297 -0.087891,0 -0.2539062,-0.1074219 Q 5.8886719,-7.7636719 5.625,-7.8808594 5.3613281,-8.0078125 5,-8.1152344 4.6484375,-8.2226563 4.1894531,-8.2226563 q -0.4101562,0 -0.7226562,0.097656 -0.3125,0.087891 -0.5175781,0.2636719 -0.1953125,0.1660156 -0.3027344,0.4003906 -0.097656,0.234375 -0.097656,0.5078125 0,0.3808594 0.1953125,0.6445313 0.1953125,0.2539062 0.5078125,0.4492187 0.3125,0.1953125 0.7128907,0.3515625 0.4003906,0.15625 0.8105468,0.3222656 0.4199219,0.1660157 0.8203125,0.3710938 0.4101563,0.2050781 0.7226563,0.4980469 0.3125,0.2929687 0.4980468,0.7031249 0.1953125,0.4101563 0.1953125,0.9765625 z"
         id="path22293" />
      <path
         d="m 17.490234,-4.7363281 q 0,1.0742187 -0.283203,1.9824218 -0.283203,0.8984376 -0.849609,1.5527344 -0.556641,0.6542969 -1.40625,1.02539065 -0.839844,0.36132812 -1.953125,0.36132812 -1.083984,0 -1.894531,-0.32226562 Q 10.302734,-0.45898438 9.765625,-1.0742187 9.2285156,-1.6894531 8.9648438,-2.5683594 8.7011719,-3.4472656 8.7011719,-4.5605469 q 0,-1.0742187 0.2734375,-1.9726562 0.2832031,-0.9082031 0.8398437,-1.5625 0.5664059,-0.6542969 1.4062499,-1.015625 0.839844,-0.3613282 1.962891,-0.3613282 1.083984,0 1.884765,0.3222657 0.810547,0.3222656 1.347657,0.9375 0.537109,0.6152344 0.800781,1.4941406 0.273437,0.8789063 0.273437,1.9824219 z m -1.699218,0.1074219 q 0,-0.7128907 -0.136719,-1.3476563 Q 15.527344,-6.6113281 15.224609,-7.0898437 14.921875,-7.5683594 14.404297,-7.8417969 13.886719,-8.125 13.115234,-8.125 q -0.71289,0 -1.230468,0.2539063 -0.507813,0.2539062 -0.839844,0.7226562 -0.332031,0.4589844 -0.498047,1.09375 -0.15625,0.6347656 -0.15625,1.3867188 0,0.7226562 0.126953,1.3574218 0.136719,0.6347656 0.439453,1.1132813 0.3125,0.46875 0.830078,0.7519531 0.517579,0.2734375 1.289063,0.2734375 0.703125,0 1.220703,-0.2539062 0.517578,-0.2539063 0.849609,-0.7128907 0.332032,-0.4589844 0.488282,-1.09375 0.15625,-0.6347656 0.15625,-1.3964843 z"
         id="path22295" />
      <path
         d="m 21.904297,-7.9492187 v 7.70507807 q 0,0.078125 -0.03906,0.13671876 -0.03906,0.04882812 -0.136718,0.08789062 -0.08789,0.0390625 -0.244141,0.05859375 -0.15625,0.01953125 -0.390625,0.01953125 -0.234375,0 -0.390625,-0.01953125 -0.15625,-0.01953125 -0.253906,-0.05859375 -0.08789,-0.0390625 -0.126953,-0.08789062 -0.03906,-0.0585938 -0.03906,-0.13671876 V -7.9492187 h -1.240234 q -0.15625,0 -0.234375,-0.1562501 -0.07813,-0.15625 -0.07813,-0.5078125 0,-0.1855468 0.01953,-0.3125 0.01953,-0.1269531 0.05859,-0.2050781 0.03906,-0.087891 0.09766,-0.1171875 0.05859,-0.039063 0.136719,-0.039063 h 1.240234 v -0.9082036 q 0,-0.917968 0.166016,-1.572265 0.175781,-0.664063 0.517578,-1.083985 0.351562,-0.419921 0.878906,-0.615234 0.537109,-0.205078 1.259766,-0.205078 0.361328,0 0.703125,0.07813 0.341797,0.06836 0.488281,0.136719 0.146484,0.05859 0.205078,0.117187 0.05859,0.05859 0.08789,0.15625 0.03906,0.08789 0.04883,0.22461 0.01953,0.126953 0.01953,0.3125 0,0.185546 -0.01953,0.302734 -0.0098,0.107422 -0.03906,0.175781 -0.0293,0.06836 -0.06836,0.09766 -0.03906,0.01953 -0.08789,0.01953 -0.07813,0 -0.175781,-0.03906 -0.09766,-0.04883 -0.244141,-0.09766 -0.146484,-0.05859 -0.351562,-0.09766 -0.195313,-0.04883 -0.458984,-0.04883 -0.361329,0 -0.615235,0.117187 -0.24414,0.117188 -0.40039,0.371094 -0.15625,0.24414 -0.234375,0.644531 -0.06836,0.390625 -0.06836,0.957031 v 0.9570316 h 3.964844 v -2.0898436 q 0,-0.06836 0.03906,-0.126953 0.03906,-0.05859 0.126954,-0.09766 0.08789,-0.04883 0.24414,-0.06836 0.15625,-0.01953 0.400391,-0.01953 0.234375,0 0.390625,0.01953 0.15625,0.01953 0.24414,0.06836 0.08789,0.03906 0.126954,0.09766 0.03906,0.05859 0.03906,0.126953 v 2.0898436 h 2.246094 q 0.07813,0 0.136719,0.039063 0.06836,0.029297 0.107421,0.1171875 0.03906,0.078125 0.05859,0.2050781 0.0293,0.1269532 0.0293,0.3125 0,0.3515625 -0.08789,0.5078125 -0.08789,0.1562501 -0.234375,0.1562501 h -2.255859 v 4.9023437 q 0,0.9082031 0.263672,1.3769531 0.263672,0.4589844 0.966797,0.4589844 0.214844,0 0.390625,-0.039063 0.185547,-0.048828 0.322265,-0.097656 0.136719,-0.048828 0.234375,-0.087891 0.107422,-0.048828 0.175782,-0.048828 0.05859,0 0.09766,0.029297 0.03906,0.019531 0.05859,0.087891 0.0293,0.068359 0.04883,0.1855469 0.01953,0.1171875 0.01953,0.29296872 0,0.28320313 -0.04883,0.44921875 -0.03906,0.16601563 -0.117188,0.24414063 -0.07813,0.078125 -0.224609,0.14648438 -0.146484,0.06835937 -0.351562,0.10742187 -0.195313,0.04882812 -0.429688,0.078125 -0.224609,0.0292969 -0.439453,0.0292969 -0.693359,0 -1.181641,-0.17578125 Q 26.767578,-0.1953125 26.455078,-0.55664062 26.142578,-0.92773438 25.996094,-1.484375 25.859375,-2.0507813 25.859375,-2.8125 v -5.1367187 z"
         id="path22297" />
      <path
         d="m 45.214844,-0.24414063 q 0,0.078125 -0.03906,0.13671876 -0.03906,0.04882812 -0.126953,0.08789062 -0.08789,0.0390625 -0.244141,0.05859375 -0.15625,0.01953125 -0.390625,0.01953125 -0.24414,0 -0.40039,-0.01953125 -0.15625,-0.01953125 -0.253906,-0.05859375 -0.08789,-0.0390625 -0.126954,-0.08789062 -0.03906,-0.0585938 -0.03906,-0.13671876 V -5.5859375 q 0,-0.5566406 -0.09766,-1.015625 -0.09766,-0.4589844 -0.3125,-0.7910156 -0.214844,-0.3320313 -0.546875,-0.5078125 -0.332032,-0.1757813 -0.78125,-0.1757813 -0.556641,0 -1.123047,0.4296875 -0.556641,0.4296875 -1.230469,1.2597657 v 6.14257807 q 0,0.078125 -0.03906,0.13671876 -0.03906,0.04882812 -0.136719,0.08789062 -0.08789,0.0390625 -0.244141,0.05859375 -0.15625,0.01953125 -0.390625,0.01953125 -0.224609,0 -0.390625,-0.01953125 -0.15625,-0.01953125 -0.253906,-0.05859375 -0.08789,-0.0390625 -0.126953,-0.08789062 -0.0293,-0.0585938 -0.0293,-0.13671876 V -5.5859375 q 0,-0.5566406 -0.107422,-1.015625 -0.107422,-0.4589844 -0.322266,-0.7910156 -0.214843,-0.3320313 -0.546875,-0.5078125 -0.322265,-0.1757813 -0.771484,-0.1757813 -0.556641,0 -1.123047,0.4296875 -0.566406,0.4296875 -1.230469,1.2597657 v 6.14257807 q 0,0.078125 -0.03906,0.13671876 -0.03906,0.04882812 -0.126953,0.08789062 -0.08789,0.0390625 -0.244141,0.05859375 -0.15625,0.01953125 -0.40039,0.01953125 -0.234375,0 -0.390625,-0.01953125 -0.15625,-0.01953125 -0.253907,-0.05859375 -0.08789,-0.0390625 -0.126953,-0.08789062 -0.0293,-0.0585938 -0.0293,-0.13671876 V -9.0332031 q 0,-0.078125 0.0293,-0.1269532 0.0293,-0.058594 0.117188,-0.097656 0.08789,-0.048828 0.224609,-0.058594 0.136719,-0.019531 0.361328,-0.019531 0.214844,0 0.351563,0.019531 0.146484,0.00977 0.224609,0.058594 0.07813,0.039063 0.107422,0.097656 0.03906,0.048828 0.03906,0.1269532 v 1.1621094 q 0.742188,-0.8300782 1.435547,-1.2109376 0.703125,-0.390625 1.416016,-0.390625 0.546875,0 0.976562,0.1269532 0.439454,0.1269531 0.771485,0.3613281 0.332031,0.2246094 0.566406,0.546875 0.234375,0.3125 0.390625,0.703125 0.439453,-0.4785156 0.830078,-0.8105469 0.400391,-0.3320312 0.761719,-0.5371094 0.371094,-0.2050781 0.712891,-0.2929687 0.351562,-0.097656 0.703125,-0.097656 0.849609,0 1.425781,0.3027344 0.576172,0.2929688 0.927734,0.7910156 0.361328,0.4980469 0.507813,1.1718751 0.15625,0.6640625 0.15625,1.40625 z"
         id="path22299" />
      <path
         d="m 54.775391,-0.234375 q 0,0.1171875 -0.07813,0.17578125 Q 54.619141,0 54.482422,0.02929688 q -0.136719,0.02929687 -0.400391,0.02929687 -0.253906,0 -0.410156,-0.02929687 Q 53.525391,0 53.457031,-0.05859375 53.388672,-0.1171875 53.388672,-0.234375 V -1.1132812 Q 52.8125,-0.49804688 52.099609,-0.15625 51.396484,0.18554687 50.605469,0.18554687 49.912109,0.18554687 49.345703,0 48.789062,-0.17578125 48.388672,-0.51757812 47.998047,-0.859375 47.773437,-1.3574219 q -0.214843,-0.4980468 -0.214843,-1.1328125 0,-0.7421875 0.302734,-1.2890625 0.302734,-0.546875 0.869141,-0.9082031 0.566406,-0.3613281 1.386718,-0.5371094 0.820313,-0.1855468 1.845704,-0.1855468 h 1.210937 V -6.09375 q 0,-0.5078125 -0.107422,-0.8984375 -0.107422,-0.390625 -0.351562,-0.6445312 -0.234375,-0.2636719 -0.615235,-0.3906251 -0.380859,-0.1367187 -0.9375,-0.1367187 -0.595703,0 -1.074218,0.1464844 -0.46875,0.1367187 -0.830079,0.3125 -0.351562,0.1660156 -0.595703,0.3125 -0.234375,0.1367187 -0.351562,0.1367187 -0.07813,0 -0.136719,-0.039063 -0.05859,-0.039063 -0.107422,-0.1171875 -0.03906,-0.078125 -0.05859,-0.1953125 -0.01953,-0.1269531 -0.01953,-0.2734375 0,-0.2441406 0.0293,-0.3808594 0.03906,-0.1464843 0.166016,-0.2734375 0.136718,-0.1269531 0.458984,-0.2929687 0.322266,-0.1757813 0.742188,-0.3125 0.419921,-0.1464844 0.917968,-0.234375 0.498047,-0.097656 1.00586,-0.097656 0.947265,0 1.611328,0.2148438 0.664062,0.2148437 1.074219,0.6347656 0.410156,0.4101563 0.595703,1.0253907 0.185547,0.6152343 0.185547,1.4355468 z m -1.601563,-4.0136719 h -1.376953 q -0.664063,0 -1.152344,0.1171875 -0.488281,0.1074219 -0.810547,0.3320313 -0.322265,0.2148437 -0.478515,0.5273437 -0.146485,0.3027344 -0.146485,0.703125 0,0.6835938 0.429688,1.09375 0.439453,0.4003907 1.220703,0.4003907 0.634766,0 1.171875,-0.3222657 0.546875,-0.3222656 1.142578,-0.9863281 z"
         id="path22301" />
      <path
         d="m 64.208984,-0.4296875 q 0.07813,0.13671875 0.07813,0.234375 0,0.0878906 -0.09766,0.14648438 -0.08789,0.05859375 -0.283203,0.078125 -0.185547,0.02929687 -0.488281,0.02929687 -0.292969,0 -0.46875,-0.01953125 Q 62.783203,0.02929688 62.675781,0 q -0.09766,-0.0390625 -0.15625,-0.08789062 -0.04883,-0.05859375 -0.08789,-0.12695313 l -2.109375,-3.48632815 -2.09961,3.48632815 Q 58.183594,-0.14648437 58.125,-0.08789062 58.076172,-0.0390625 57.96875,0 q -0.09766,0.02929688 -0.263672,0.0390625 -0.166016,0.01953125 -0.439453,0.01953125 -0.283203,0 -0.46875,-0.02929687 -0.175781,-0.01953125 -0.263672,-0.078125 -0.07813,-0.05859375 -0.07813,-0.14648438 0.0098,-0.0976563 0.09766,-0.234375 l 2.734375,-4.2871094 -2.58789,-4.1308594 q -0.07813,-0.1367187 -0.08789,-0.2246093 0,-0.097656 0.08789,-0.15625 0.09766,-0.068359 0.283203,-0.087891 0.195312,-0.019531 0.507812,-0.019531 0.283203,0 0.449219,0.019531 0.175781,0.00977 0.273438,0.039063 0.09766,0.029297 0.146484,0.078125 0.04883,0.048828 0.08789,0.1171875 l 2.001953,3.2714844 2.03125,-3.2714844 q 0.03906,-0.058594 0.08789,-0.1074218 0.04883,-0.048828 0.126953,-0.078125 0.08789,-0.039063 0.234375,-0.048828 0.15625,-0.019531 0.419922,-0.019531 0.283203,0 0.458985,0.019531 0.185547,0.019531 0.273437,0.078125 0.08789,0.048828 0.07813,0.1464844 -0.0098,0.097656 -0.09766,0.2441406 l -2.568359,4.0820313 z"
         id="path22303" />
      <path
         d="m 74.716797,2.9101563 q 0,0.3417968 -0.07813,0.4980468 -0.07813,0.15625 -0.244141,0.15625 h -9.404297 q -0.166015,0 -0.253906,-0.1464843 -0.08789,-0.1464844 -0.08789,-0.4882813 0,-0.3320312 0.08789,-0.4980469 0.08789,-0.1660156 0.253906,-0.1660156 h 9.404297 q 0.15625,0 0.234375,0.15625 0.08789,0.15625 0.08789,0.4882813 z"
         id="path22305" />
      <path
         d="m 78.251953,-1.0644531 q 0,0.69335935 -0.234375,0.92773435 -0.224609,0.22460937 -0.830078,0.22460937 -0.585938,0 -0.810547,-0.22460937 -0.224609,-0.22460938 -0.224609,-0.89843745 0,-0.6933594 0.224609,-0.9179688 0.234375,-0.234375 0.839844,-0.234375 0.585937,0 0.810547,0.2246094 0.224609,0.2246094 0.224609,0.8984375 z"
         id="path22307" />
      <path
         d="m 83.300781,-1.0644531 q 0,0.69335935 -0.234375,0.92773435 -0.224609,0.22460937 -0.830078,0.22460937 -0.585937,0 -0.810547,-0.22460937 -0.224609,-0.22460938 -0.224609,-0.89843745 0,-0.6933594 0.224609,-0.9179688 0.234375,-0.234375 0.839844,-0.234375 0.585937,0 0.810547,0.2246094 0.224609,0.2246094 0.224609,0.8984375 z"
         id="path22309" />
      <path
         d="m 88.349609,-1.0644531 q 0,0.69335935 -0.234375,0.92773435 -0.224609,0.22460937 -0.830078,0.22460937 -0.585937,0 -0.810547,-0.22460937 Q 86.25,-0.36132813 86.25,-1.0351562 q 0,-0.6933594 0.224609,-0.9179688 0.234375,-0.234375 0.839844,-0.234375 0.585938,0 0.810547,0.2246094 0.224609,0.2246094 0.224609,0.8984375 z"
         id="path22311" />
    </g>
    <path
       d="M645 109.148 645 76.6667 647 76.6667 647 109.148ZM642 78 646 70 650 78Z"
       fill="#AEAEAE"
       id="path21825" />
    <g
       aria-label="BiasAdd"
       transform="translate(609.945 101)"
       id="text21827"
       style="font-size:20px;font-family:'IntelOne Display Regular', 'IntelOne Display Regular_MSFontService', sans-serif">
      <path
         d="m 1.3,0 v -14 h 6.06 q 2.34,0 3.62,0.96 1.28,0.96 1.28,2.72 0,1.12 -0.58,1.94 -0.58,0.8 -1.74,1.24 1.3,0.34 1.94,1.18 0.66,0.82 0.66,2.12 0,1.72 -1.34,2.78 Q 9.86,0 7.66,0 Z m 9.24,-10.24 q 0,-1.1 -0.82,-1.66 -0.82,-0.58 -2.4,-0.58 H 3.04 v 4.66 h 4.54 q 1.3,0 2.12,-0.68 0.84,-0.68 0.84,-1.74 z m 0.28,6.38 q 0,-1.12 -0.76,-1.78 Q 9.3,-6.3 8,-6.3 H 3.04 v 4.78 h 4.74 q 1.38,0 2.2,-0.64 0.84,-0.64 0.84,-1.7 z"
         id="path22314" />
      <path
         d="m 14.420002,-12.9 h 1.8 v 1.78 h -1.8 z m 0.08,12.9 v -9.66 h 1.64 V 0 Z"
         id="path22316" />
      <path
         d="m 26.73999,0 h -1.58 v -1.58 q -0.58,0.84 -1.58,1.32 -0.98,0.46 -2.12,0.46 -1.6,0 -2.6,-0.8 -1,-0.82 -1,-2.14 0,-1.46 1.12,-2.2 1.12,-0.76 3.32,-0.76 h 2.84 q -0.02,-1.36 -0.72,-2.1 -0.68,-0.74 -1.96,-0.74 -0.76,0 -1.5,0.32 -0.74,0.32 -1.46,0.98 l -0.86,-1.08 q 0.84,-0.8 1.84,-1.2 1,-0.42 2.14,-0.42 1.94,0 3.02,1.16 1.1,1.14 1.1,3.16 z m -1.6,-4.44 h -2.82 q -1.46,0 -2.16,0.4 -0.7,0.4 -0.7,1.26 0,0.72 0.6,1.2 0.62,0.48 1.58,0.48 1.44,0 2.42,-0.92 1,-0.94 1.08,-2.42 z"
         id="path22318" />
      <path
         d="m 36.519977,-2.82 q 0,1.36 -1.16,2.22 -1.16,0.86 -3.02,0.86 -1.22,0 -2.3,-0.38 -1.06,-0.4 -1.92,-1.18 l 0.84,-1.24 q 0.92,0.76 1.72,1.1 0.8,0.34 1.7,0.34 1.16,0 1.86,-0.44 0.72,-0.46 0.72,-1.18 0,-0.74 -0.6,-1.06 -0.6,-0.34 -1.98,-0.36 -2.02,-0.08 -2.96,-0.74 -0.92,-0.66 -0.92,-2.06 0,-1.28 1.06,-2.12 1.08,-0.86 2.76,-0.86 1.14,0 2.14,0.36 1,0.36 1.82,1.06 l -0.78,1.22 q -0.82,-0.66 -1.58,-0.96 -0.76,-0.3 -1.62,-0.3 -0.98,0 -1.62,0.44 -0.62,0.44 -0.62,1.08 0,0.7 0.56,1.02 0.56,0.32 1.78,0.38 2.18,0.06 3.14,0.72 0.98,0.66 0.98,2.08 z"
         id="path22320" />
      <path
         d="m 40.999991,-4.22 -1.84,4.22 h -1.8 l 6.22,-14 h 1.68 l 6.2,14 h -1.82 l -1.86,-4.22 z m 3.38,-7.72 -2.7,6.2 h 5.44 z"
         id="path22322" />
      <path
         d="m 60.38001,-14 h 1.64 V 0 h -1.62 v -1.56 q -0.66,0.84 -1.6,1.3 -0.92,0.46 -1.98,0.46 -2.02,0 -3.4,-1.4 -1.36,-1.42 -1.36,-3.6 0,-2.2 1.4,-3.64 1.42,-1.46 3.48,-1.46 1,0 1.88,0.42 0.9,0.4 1.56,1.16 z m -3.38,12.78 q 1.46,0 2.44,-1.04 1,-1.06 1,-2.6 0,-1.56 -0.96,-2.58 -0.96,-1.02 -2.4,-1.02 -1.48,0 -2.42,1 -0.94,1 -0.94,2.62 0,1.62 0.92,2.62 0.92,1 2.36,1 z"
         id="path22324" />
      <path
         d="m 71.999998,-14 h 1.64 V 0 h -1.62 v -1.56 q -0.66,0.84 -1.6,1.3 -0.92,0.46 -1.98,0.46 -2.02,0 -3.4,-1.4 -1.36,-1.42 -1.36,-3.6 0,-2.2 1.4,-3.64 1.42,-1.46 3.48,-1.46 1,0 1.88,0.42 0.9,0.4 1.56,1.16 z m -3.38,12.78 q 1.46,0 2.44,-1.04 1,-1.06 1,-2.6 0,-1.56 -0.96,-2.58 -0.96,-1.02 -2.4,-1.02 -1.48,0 -2.42,1 -0.94,1 -0.94,2.62 0,1.62 0.92,2.62 0.92,1 2.36,1 z"
         id="path22326" />
    </g>
    <path
       d="M503.5 198.5C503.5 189.111 519.394 181.5 539 181.5 558.606 181.5 574.5 189.111 574.5 198.5 574.5 207.889 558.606 215.5 539 215.5 519.394 215.5 503.5 207.889 503.5 198.5Z"
       stroke="#AEAEAE"
       stroke-width="1.33333"
       stroke-miterlimit="8"
       fill="#FFFFFF"
       fill-rule="evenodd"
       id="path21829" />
    <path
       d="M538.003 181.75 538.447 176.43 539.666 171.104 541.65 165.921 544.328 160.82 547.635 155.922 551.507 151.226 555.882 146.787 560.823 142.606 566.137 138.81 571.764 135.396 577.774 132.359 584.033 129.83 590.484 127.743 597.139 126.222 603.91 125.378 604.157 127.363 597.436 128.201 597.535 128.183 590.973 129.683 591.058 129.66 584.683 131.722 584.75 131.698 578.562 134.198 578.638 134.163 572.701 137.163 572.769 137.126 567.206 140.501 567.269 140.46 562.019 144.21 562.083 144.159 557.208 148.284 557.275 148.223 552.962 152.598 553.022 152.532 549.209 157.157 549.266 157.081 546.016 161.893 546.073 161.798 543.448 166.798 543.496 166.691 541.559 171.753 541.6 171.619 540.412 176.807 540.434 176.666 539.997 181.916ZM602.456 122.46 610.688 125.958 602.95 130.445Z"
       fill="#AEAEAE"
       id="path21831" />
    <g
       aria-label="MatMul"
       transform="translate(505.6 171)"
       id="text21833"
       style="font-size:20px;font-family:'IntelOne Display Regular', 'IntelOne Display Regular_MSFontService', sans-serif">
      <path
         d="m 13.04,-14 h 2.28 V 0 H 13.6 v -11.8 l -4.58,8 h -1.4 l -4.6,-7.98 V 0 H 1.3 v -14 h 2.28 l 4.74,8.18 z"
         id="path22329" />
      <path
         d="m 25.979987,0 h -1.58 v -1.58 q -0.58,0.84 -1.58,1.32 -0.98,0.46 -2.12,0.46 -1.6,0 -2.6,-0.8 -1,-0.82 -1,-2.14 0,-1.46 1.12,-2.2 1.12,-0.76 3.32,-0.76 h 2.84 q -0.02,-1.36 -0.72,-2.1 -0.68,-0.74 -1.96,-0.74 -0.76,0 -1.5,0.32 -0.74,0.32 -1.46,0.98 l -0.86,-1.08 q 0.84,-0.8 1.84,-1.2 1,-0.42 2.14,-0.42 1.94,0 3.02,1.16 1.1,1.14 1.1,3.16 z m -1.6,-4.44 h -2.82 q -1.46,0 -2.16,0.4 -0.7,0.4 -0.7,1.26 0,0.72 0.6,1.2 0.62,0.48 1.58,0.48 1.44,0 2.42,-0.92 1,-0.94 1.08,-2.42 z"
         id="path22331" />
      <path
         d="m 28.419992,-2.58 v -5.64 h -1.32 v -1.44 h 1.32 v -2.96 h 1.62 v 2.96 h 2.24 v 1.44 h -2.24 v 5.5 q 0,0.64 0.28,0.96 0.3,0.3 0.9,0.3 h 1.06 V 0 h -1.3 q -1.34,0 -1.96,-0.62 -0.6,-0.62 -0.6,-1.96 z"
         id="path22333" />
      <path
         d="m 45.899993,-14 h 2.28 V 0 h -1.72 v -11.8 l -4.58,8 h -1.4 l -4.6,-7.98 V 0 h -1.72 v -14 h 2.28 l 4.74,8.18 z"
         id="path22335" />
      <path
         d="m 59.57998,0 h -1.62 v -1.48 q -0.58,0.84 -1.46,1.28 -0.88,0.42 -2,0.42 -1.9,0 -3,-1.24 -1.08,-1.24 -1.08,-3.38 v -5.26 h 1.64 v 5.16 q 0,1.52 0.74,2.4 0.76,0.88 2.1,0.88 1.36,0 2.2,-0.94 0.84,-0.94 0.84,-2.44 v -5.06 h 1.64 z"
         id="path22337" />
      <path
         d="m 61.859965,-14 h 1.64 V 0 h -1.64 z"
         id="path22339" />
    </g>
    <path
       d="M754.5 282C754.5 272.887 770.618 265.5 790.5 265.5 810.382 265.5 826.5 272.887 826.5 282 826.5 291.113 810.382 298.5 790.5 298.5 770.618 298.5 754.5 291.113 754.5 282Z"
       stroke="#AEAEAE"
       stroke-width="1.33333"
       stroke-miterlimit="8"
       fill="#FFFFFF"
       fill-rule="evenodd"
       id="path21835" />
    <path
       d="M317.5 272C317.5 262.887 333.618 255.5 353.5 255.5 373.382 255.5 389.5 262.887 389.5 272 389.5 281.113 373.382 288.5 353.5 288.5 333.618 288.5 317.5 281.113 317.5 272Z"
       stroke="#AEAEAE"
       stroke-width="1.33333"
       stroke-miterlimit="8"
       fill="#FFFFFF"
       fill-rule="evenodd"
       id="path21837" />
    <path
       d="M352.002 254.606 352.196 251.826 352.924 249.048 354.032 246.309 355.523 243.588 357.394 240.878 359.653 238.231 365.239 233.09 372.077 228.088 380.091 223.418 389.275 218.952 399.329 214.742 410.319 210.911 422.053 207.46 434.472 204.449 447.388 201.879 460.742 199.81 474.472 198.242 488.393 197.302 495.75 197.138 495.795 199.137 488.46 199.301 488.505 199.299 474.63 200.236 474.676 200.232 460.988 201.795 461.028 201.789 447.716 203.852 447.758 203.844 434.883 206.407 434.923 206.398 422.548 209.398 422.595 209.385 410.907 212.823 410.954 212.808 400.017 216.62 400.074 216.598 390.074 220.786 390.125 220.763 381 225.2 381.066 225.165 373.128 229.79 373.215 229.733 366.465 234.671 366.552 234.599 361.052 239.662 361.135 239.575 358.948 242.138 359.01 242.057 357.198 244.682 357.252 244.594 355.815 247.219 355.864 247.114 354.802 249.739 354.842 249.617 354.155 252.242 354.185 252.058 353.998 254.746ZM494.35 194.168 502.437 197.989 494.529 202.166Z"
       fill="#AEAEAE"
       id="path21839" />
    <path
       d="M0.0738717-0.997268 3.53213-0.7411 6.99691 0.108751 10.4925 1.5329 13.9123 3.40408 17.2438 5.83862 20.5527 8.63848 23.8578 11.9436 27.0901 15.6829 30.2528 19.8577 33.2796 24.3979 36.3 29.3061 39.2617 34.5992 44.9138 46.2174 50.1237 59.0225 54.9526 72.9449 59.3411 87.8657 63.1643 103.597 66.4229 120.078 68.9917 137.057 70.9338 154.473 72.1242 172.142 72.3985 183.311 70.3991 183.36 70.1253 172.212 70.1273 172.255 68.9398 154.63 68.9437 154.673 67.0062 137.298 67.0113 137.337 64.4488 120.4 64.4565 120.444 61.2065 104.006 61.2158 104.049 57.4033 88.3612 57.4156 88.4072 53.0406 73.5322 53.0552 73.5777 48.2427 59.7027 48.2612 59.7519 43.0737 47.0019 43.1008 47.0625 37.4758 35.5 37.5023 35.5508 34.5648 30.3008 34.5858 30.3366 31.5858 25.4616 31.6054 25.4922 28.6054 20.9922 28.6404 21.0414 25.5154 16.9164 25.556 16.9665 22.3685 13.279 22.4179 13.3321 19.1679 10.0821 19.2291 10.1384 15.9791 7.38839 16.035 7.43239 12.785 5.05739 12.895 5.12726 9.58249 3.31476 9.6852 3.36359 6.3102 1.98859 6.44928 2.03371 3.13678 1.22121 3.30113 1.24727-0.0738717 0.997268ZM75.3649 181.904 71.5625 190 67.3673 182.101Z"
       fill="#AEAEAE"
       transform="matrix(-1.83697e-16 -1 -1 1.83697e-16 763.972 269.555)"
       id="path21841" />
    <g
       aria-label="feature_s..."
       transform="translate(311.403 245)"
       id="text21843"
       style="font-size:20px;font-family:'IntelOne Display Regular', 'IntelOne Display Regular_MSFontService', sans-serif">
      <path
         d="M 1.7,-8.22 H 0.38 V -9.66 H 1.7 v -1.82 q 0,-1.22 0.64,-1.86 Q 3,-14 4.22,-14 h 1.32 v 1.36 H 4.46 q -0.56,0 -0.84,0.3 -0.28,0.3 -0.28,0.9 v 1.78 h 2.2 v 1.44 H 3.34 V 0 H 1.7 Z"
         id="path22342" />
      <path
         d="m 11.279998,-1.08 q 0.96,0 1.76,-0.4 0.82,-0.42 1.5,-1.26 l 0.98,0.9 q -0.82,1.08 -1.92,1.62 -1.1,0.52 -2.46,0.52 -2.1800004,0 -3.5800004,-1.42 -1.38,-1.44 -1.38,-3.68 0,-2.18 1.42,-3.64 1.42,-1.46 3.5000004,-1.46 2.12,0 3.44,1.38 1.32,1.38 1.32,3.6 0,0.16 -0.02,0.38 -0.02,0.2 -0.04,0.3 H 7.8599976 q 0.16,1.42 1.1,2.3 0.96,0.86 2.3200004,0.86 z m -0.16,-7.44 q -1.2600004,0 -2.1600004,0.82 -0.9,0.82 -1.1,2.2 h 6.3600004 q -0.18,-1.4 -1.02,-2.2 -0.84,-0.82 -2.08,-0.82 z"
         id="path22344" />
      <path
         d="m 25.80001,0 h -1.58 v -1.58 q -0.58,0.84 -1.58,1.32 -0.98,0.46 -2.12,0.46 -1.6,0 -2.6,-0.8 -1,-0.82 -1,-2.14 0,-1.46 1.12,-2.2 1.12,-0.76 3.32,-0.76 h 2.84 q -0.02,-1.36 -0.72,-2.1 -0.68,-0.74 -1.96,-0.74 -0.76,0 -1.5,0.32 -0.74,0.32 -1.46,0.98 l -0.86,-1.08 q 0.84,-0.8 1.84,-1.2 1,-0.42 2.14,-0.42 1.94,0 3.02,1.16 1.1,1.14 1.1,3.16 z m -1.6,-4.44 h -2.82 q -1.46,0 -2.16,0.4 -0.7,0.4 -0.7,1.26 0,0.72 0.6,1.2 0.62,0.48 1.58,0.48 1.44,0 2.42,-0.92 1,-0.94 1.08,-2.42 z"
         id="path22346" />
      <path
         d="m 28.240015,-2.58 v -5.64 h -1.32 v -1.44 h 1.32 v -2.96 h 1.62 v 2.96 h 2.24 v 1.44 h -2.24 v 5.5 q 0,0.64 0.28,0.96 0.3,0.3 0.9,0.3 h 1.06 V 0 h -1.3 q -1.34,0 -1.96,-0.62 -0.6,-0.62 -0.6,-1.96 z"
         id="path22348" />
      <path
         d="m 42.780016,0 h -1.62 v -1.48 q -0.58,0.84 -1.46,1.28 -0.88,0.42 -2,0.42 -1.9,0 -3,-1.24 -1.08,-1.24 -1.08,-3.38 v -5.26 h 1.64 v 5.16 q 0,1.52 0.74,2.4 0.76,0.88 2.1,0.88 1.36,0 2.2,-0.94 0.84,-0.94 0.84,-2.44 v -5.06 h 1.64 z"
         id="path22350" />
      <path
         d="m 44.88,-9.66 h 1.6 v 1.22 q 0.44,-0.64 1.14,-0.96 0.7,-0.32 1.66,-0.32 h 0.88 v 1.54 h -0.9 q -1.38,0 -2.08,0.72 -0.68,0.72 -0.68,2.18 V 0 h -1.62 z"
         id="path22352" />
      <path
         d="m 55.879988,-1.08 q 0.96,0 1.76,-0.4 0.82,-0.42 1.5,-1.26 l 0.98,0.9 q -0.82,1.08 -1.92,1.62 -1.1,0.52 -2.46,0.52 -2.18,0 -3.58,-1.42 -1.38,-1.44 -1.38,-3.68 0,-2.18 1.42,-3.64 1.42,-1.46 3.5,-1.46 2.12,0 3.44,1.38 1.32,1.38 1.32,3.6 0,0.16 -0.02,0.38 -0.02,0.2 -0.04,0.3 h -7.94 q 0.16,1.42 1.1,2.3 0.96,0.86 2.32,0.86 z m -0.16,-7.44 q -1.26,0 -2.16,0.82 -0.9,0.82 -1.1,2.2 h 6.36 q -0.18,-1.4 -1.02,-2.2 -0.84,-0.82 -2.08,-0.82 z"
         id="path22354" />
      <path
         d="M 61.000001,2.58 V 1.12 h 10.16 v 1.46 z"
         id="path22356" />
      <path
         d="m 79.959995,-2.82 q 0,1.36 -1.16,2.22 -1.16,0.86 -3.02,0.86 -1.22,0 -2.3,-0.38 -1.06,-0.4 -1.92,-1.18 l 0.84,-1.24 q 0.92,0.76 1.72,1.1 0.8,0.34 1.7,0.34 1.16,0 1.86,-0.44 0.72,-0.46 0.72,-1.18 0,-0.74 -0.6,-1.06 -0.6,-0.34 -1.98,-0.36 -2.02,-0.08 -2.96,-0.74 -0.92,-0.66 -0.92,-2.06 0,-1.28 1.06,-2.12 1.08,-0.86 2.76,-0.86 1.14,0 2.14,0.36 1,0.36 1.82,1.06 l -0.78,1.22 q -0.82,-0.66 -1.58,-0.96 -0.76,-0.3 -1.62,-0.3 -0.98,0 -1.62,0.44 -0.62,0.44 -0.62,1.08 0,0.7 0.56,1.02 0.56,0.32 1.78,0.38 2.18,0.06 3.14,0.72 0.98,0.66 0.98,2.08 z"
         id="path22358" />
      <path
         d="m 81.500009,-2.02 h 2.02 V 0 h -2.02 z"
         id="path22360" />
      <path
         d="m 85.440019,-2.02 h 2.02 V 0 h -2.02 z"
         id="path22362" />
      <path
         d="m 89.380029,-2.02 h 2.02 V 0 h -2.02 z"
         id="path22364" />
    </g>
    <path
       d="M759.5 515C759.5 505.887 775.618 498.5 795.5 498.5 815.382 498.5 831.5 505.887 831.5 515 831.5 524.113 815.382 531.5 795.5 531.5 775.618 531.5 759.5 524.113 759.5 515Z"
       stroke="#AEAEAE"
       stroke-width="1.33333"
       stroke-miterlimit="8"
       fill="#FFFFFF"
       fill-rule="evenodd"
       id="path21845" />
    <path
       d="M794.19 497.589 789.174 304.691 791.173 304.639 796.189 497.537ZM786.209 306.101 790 298 794.207 305.893Z"
       fill="#AEAEAE"
       id="path21847" />
    <path
       d="M705.5 282C705.5 278.962 707.963 276.5 711 276.5 714.038 276.5 716.5 278.962 716.5 282 716.5 285.038 714.038 287.5 711 287.5 707.963 287.5 705.5 285.038 705.5 282Z"
       stroke="#AEAEAE"
       stroke-width="1.33333"
       stroke-miterlimit="8"
       fill="#FFFFFF"
       fill-rule="evenodd"
       id="path21849" />
    <path
       d="M0.00498456-0.999988 30.7448-0.846761 30.7348 1.15321-0.00498456 0.999988ZM29.4264-3.85337 37.4064 0.186457 29.3866 4.14653Z"
       fill="#AEAEAE"
       transform="matrix(1 0 0 -1 716 281.186)"
       id="path21851" />
    <g
       aria-label="shape"
       transform="translate(652.441 285)"
       id="text21853"
       style="font-size:18px;font-family:'IntelOne Display Regular', 'IntelOne Display Regular_MSFontService', sans-serif">
      <path
         d="m 7.956,-2.538 q 0,1.224 -1.044,1.998 -1.044,0.774 -2.718,0.774 -1.098,0 -2.07,-0.342 Q 1.17,-0.468 0.396,-1.17 l 0.756,-1.116 q 0.828,0.684 1.548,0.99 0.72,0.306 1.53,0.306 1.044,0 1.674,-0.396 0.648,-0.414 0.648,-1.062 0,-0.666 -0.54,-0.954 Q 5.472,-3.708 4.23,-3.726 2.412,-3.798 1.566,-4.392 0.738,-4.986 0.738,-6.246 q 0,-1.152 0.954,-1.908 0.972,-0.774 2.484,-0.774 1.026,0 1.926,0.324 0.9,0.324 1.638,0.954 L 7.038,-6.552 Q 6.3,-7.146 5.616,-7.416 q -0.684,-0.27 -1.458,-0.27 -0.882,0 -1.458,0.396 -0.558,0.396 -0.558,0.972 0,0.63 0.504,0.918 0.504,0.288 1.602,0.342 1.962,0.054 2.826,0.648 0.882,0.594 0.882,1.872 z"
         id="path22367" />
      <path
         d="m 9.4320121,-12.6 h 1.4579999 v 5.22 q 0.522,-0.738 1.296,-1.134 0.792,-0.396 1.764,-0.396 1.746,0 2.718,1.116 0.99,1.116 0.99,3.06 V 0 h -1.458 v -4.644 q 0,-1.386 -0.684,-2.16 -0.684,-0.792 -1.908,-0.792 -1.224,0 -1.98,0.846 -0.738,0.846 -0.738,2.196 V 0 H 9.4320121 Z"
         id="path22369" />
      <path
         d="m 26.927998,0 h -1.422 v -1.422 q -0.522,0.756 -1.422,1.188 -0.882,0.414 -1.908,0.414 -1.44,0 -2.34,-0.72 -0.9,-0.738 -0.9,-1.926 0,-1.314 1.008,-1.98 1.008,-0.684 2.988,-0.684 h 2.556 q -0.018,-1.224 -0.648,-1.89 -0.612,-0.666 -1.764,-0.666 -0.684,0 -1.35,0.288 -0.666,0.288 -1.314,0.882 l -0.774,-0.972 q 0.756,-0.72 1.656,-1.08 0.9,-0.378 1.926,-0.378 1.746,0 2.718,1.044 0.99,1.026 0.99,2.844 z m -1.44,-3.996 h -2.538 q -1.314,0 -1.944,0.36 -0.63,0.36 -0.63,1.134 0,0.648 0.54,1.08 0.558,0.432 1.422,0.432 1.296,0 2.178,-0.828 0.9,-0.846 0.972,-2.178 z"
         id="path22371" />
      <path
         d="m 30.185987,3.24 h -1.458 V -8.694 h 1.44 v 1.404 q 0.576,-0.756 1.422,-1.17 0.846,-0.432 1.8,-0.432 1.836,0 3.06,1.278 1.224,1.26 1.224,3.24 0,1.998 -1.278,3.294 -1.26,1.278 -3.114,1.278 -0.882,0 -1.71,-0.36 -0.81,-0.378 -1.386,-1.062 z m 3.042,-10.836 q -1.314,0 -2.214,0.954 -0.882,0.936 -0.882,2.34 0,1.386 0.864,2.304 0.882,0.918 2.178,0.918 1.332,0 2.16,-0.882 0.846,-0.9 0.846,-2.376 0,-1.458 -0.828,-2.358 -0.81,-0.9 -2.124,-0.9 z"
         id="path22373" />
      <path
         d="m 43.379976,-0.972 q 0.864,0 1.584,-0.36 0.738,-0.378 1.35,-1.134 l 0.882,0.81 q -0.738,0.972 -1.728,1.458 -0.99,0.468 -2.214,0.468 -1.962,0 -3.222,-1.278 -1.242,-1.296 -1.242,-3.312 0,-1.962 1.278,-3.276 1.278,-1.314 3.15,-1.314 1.908,0 3.096,1.242 1.188,1.242 1.188,3.24 0,0.144 -0.018,0.342 -0.018,0.18 -0.036,0.27 h -7.146 q 0.144,1.278 0.99,2.07 0.864,0.774 2.088,0.774 z m -0.144,-6.696 q -1.134,0 -1.944,0.738 -0.81,0.738 -0.99,1.98 h 5.724 q -0.162,-1.26 -0.918,-1.98 -0.756,-0.738 -1.872,-0.738 z"
         id="path22375" />
    </g>
    <path
       d="M705.5 514.5C705.5 511.186 707.963 508.5 711 508.5 714.038 508.5 716.5 511.186 716.5 514.5 716.5 517.814 714.038 520.5 711 520.5 707.963 520.5 705.5 517.814 705.5 514.5Z"
       stroke="#AEAEAE"
       stroke-width="1.33333"
       stroke-miterlimit="8"
       fill="#FFFFFF"
       fill-rule="evenodd"
       id="path21855" />
    <path
       d="M716 513 751.929 513 751.929 515 716 515ZM750.596 510 758.596 514 750.596 518Z"
       fill="#AEAEAE"
       id="path21857" />
    <g
       aria-label="concat_dim"
       transform="translate(609.945 519)"
       id="text21859"
       style="font-size:18px;font-family:'IntelOne Display Regular', 'IntelOne Display Regular_MSFontService', sans-serif">
      <path
         d="M 5.058,0.27 Q 3.06,0.27 1.8,-0.99 0.558,-2.268 0.558,-4.32 q 0,-1.944 1.314,-3.276 1.314,-1.332 3.222,-1.332 1.386,0 2.358,0.648 0.99,0.63 1.494,1.836 L 7.704,-5.85 Q 7.29,-6.75 6.624,-7.2 5.976,-7.65 5.076,-7.65 q -1.278,0 -2.16,0.972 -0.864,0.954 -0.864,2.358 0,1.422 0.864,2.376 0.882,0.936 2.196,0.936 0.846,0 1.566,-0.45 0.738,-0.468 1.188,-1.296 L 9,-2.142 Q 8.478,-1.026 7.434,-0.378 6.39,0.27 5.058,0.27 Z"
         id="path22378" />
      <path
         d="m 19.115998,-4.338 q 0,1.962 -1.314,3.294 -1.314,1.314 -3.24,1.314 -1.926,0 -3.222,-1.314 -1.278,-1.314 -1.278,-3.276 0,-1.962 1.314,-3.276 1.314,-1.332 3.24,-1.332 1.926,0 3.204,1.314 1.296,1.314 1.296,3.276 z m -7.56,0.018 q 0,1.404 0.864,2.358 0.882,0.954 2.178,0.954 1.278,0 2.142,-0.954 0.882,-0.954 0.882,-2.376 0,-1.386 -0.882,-2.34 -0.882,-0.972 -2.16,-0.972 -1.278,0 -2.16,0.954 -0.864,0.954 -0.864,2.376 z"
         id="path22380" />
      <path
         d="m 20.628007,-8.694 h 1.44 v 1.35 q 0.522,-0.756 1.314,-1.152 0.81,-0.414 1.8,-0.414 1.728,0 2.7,1.116 0.972,1.116 0.972,3.06 V 0 h -1.458 v -4.644 q 0,-1.368 -0.684,-2.16 -0.666,-0.792 -1.872,-0.792 -1.242,0 -1.998,0.846 -0.756,0.846 -0.756,2.196 V 0 h -1.458 z"
         id="path22382" />
      <path
         d="m 34.757993,0.27 q -1.998,0 -3.258,-1.26 -1.242,-1.278 -1.242,-3.33 0,-1.944 1.314,-3.276 1.314,-1.332 3.222,-1.332 1.386,0 2.358,0.648 0.99,0.63 1.494,1.836 l -1.242,0.594 q -0.414,-0.9 -1.08,-1.35 -0.648,-0.45 -1.548,-0.45 -1.278,0 -2.16,0.972 -0.864,0.954 -0.864,2.358 0,1.422 0.864,2.376 0.882,0.936 2.196,0.936 0.846,0 1.566,-0.45 0.738,-0.468 1.188,-1.296 l 1.134,0.612 q -0.522,1.116 -1.566,1.764 -1.044,0.648 -2.376,0.648 z"
         id="path22384" />
      <path
         d="m 47.627991,0 h -1.422 v -1.422 q -0.522,0.756 -1.422,1.188 -0.882,0.414 -1.908,0.414 -1.44,0 -2.34,-0.72 -0.9,-0.738 -0.9,-1.926 0,-1.314 1.008,-1.98 1.008,-0.684 2.988,-0.684 h 2.556 q -0.018,-1.224 -0.648,-1.89 -0.612,-0.666 -1.764,-0.666 -0.684,0 -1.35,0.288 -0.666,0.288 -1.314,0.882 l -0.774,-0.972 q 0.756,-0.72 1.656,-1.08 0.9,-0.378 1.926,-0.378 1.746,0 2.718,1.044 0.99,1.026 0.99,2.844 z m -1.44,-3.996 h -2.538 q -1.314,0 -1.944,0.36 -0.63,0.36 -0.63,1.134 0,0.648 0.54,1.08 0.558,0.432 1.422,0.432 1.296,0 2.178,-0.828 0.9,-0.846 0.972,-2.178 z"
         id="path22386" />
      <path
         d="m 49.823995,-2.322 v -5.076 h -1.188 v -1.296 h 1.188 v -2.664 h 1.458 v 2.664 h 2.016 v 1.296 h -2.016 v 4.95 q 0,0.576 0.252,0.864 0.27,0.27 0.81,0.27 h 0.954 V 0 h -1.17 q -1.206,0 -1.764,-0.558 -0.54,-0.558 -0.54,-1.764 z"
         id="path22388" />
      <path
         d="M 53.783996,2.322 V 1.008 h 9.144 v 1.314 z"
         id="path22390" />
      <path
         d="m 70.937991,-12.6 h 1.476 V 0 h -1.458 v -1.404 q -0.594,0.756 -1.44,1.17 -0.828,0.414 -1.782,0.414 -1.818,0 -3.06,-1.26 -1.224,-1.278 -1.224,-3.24 0,-1.98 1.26,-3.276 1.278,-1.314 3.132,-1.314 0.9,0 1.692,0.378 0.81,0.36 1.404,1.044 z m -3.042,11.502 q 1.314,0 2.196,-0.936 0.9,-0.954 0.9,-2.34 0,-1.404 -0.864,-2.322 -0.864,-0.918 -2.16,-0.918 -1.332,0 -2.178,0.9 -0.846,0.9 -0.846,2.358 0,1.458 0.828,2.358 0.828,0.9 2.124,0.9 z"
         id="path22392" />
      <path
         d="m 74.393976,-11.61 h 1.62 v 1.602 h -1.62 z m 0.072,11.61 v -8.694 h 1.476 V 0 Z"
         id="path22394" />
      <path
         d="m 78.011968,-8.694 h 1.44 v 1.044 q 0.486,-0.63 1.098,-0.936 0.63,-0.324 1.404,-0.324 0.9,0 1.602,0.378 0.702,0.378 1.116,1.098 0.486,-0.72 1.224,-1.098 0.756,-0.378 1.692,-0.378 1.53,0 2.43,0.99 0.918,0.99 0.918,2.574 V 0 h -1.476 v -5.256 q 0,-1.098 -0.558,-1.71 -0.54,-0.63 -1.53,-0.63 -0.972,0 -1.584,0.684 -0.594,0.666 -0.594,1.746 V 0 h -1.458 v -5.256 q 0,-1.098 -0.558,-1.71 -0.54,-0.63 -1.53,-0.63 -0.972,0 -1.584,0.684 -0.594,0.666 -0.594,1.746 V 0 h -1.458 z"
         id="path22396" />
    </g>
    <path
       d="M268.5 422.667C268.5 409.32 279.32 398.5 292.667 398.5L412.333 398.5C425.68 398.5 436.5 409.32 436.5 422.667L436.5 519.333C436.5 532.68 425.68 543.5 412.333 543.5L292.667 543.5C279.32 543.5 268.5 532.68 268.5 519.333Z"
       stroke="#808080"
       stroke-width="1.33333"
       stroke-miterlimit="8"
       fill="#E9E9E9"
       fill-rule="evenodd"
       id="path21861" />
    <g
       aria-label="Istm"
       transform="translate(315.751 485)"
       id="text21863"
       style="font-size:40px;font-family:'IntelOne Display Regular', 'IntelOne Display Regular_MSFontService', sans-serif">
      <path
         d="M 2.88,0 V -28 H 6.32 V 0 Z"
         id="path22399" />
      <path
         d="m 26.879982,-5.64 q 0,2.72 -2.32,4.44 -2.32,1.72 -6.04,1.72 -2.44,0 -4.6,-0.76 -2.12,-0.8 -3.84,-2.36 l 1.68,-2.48 q 1.84,1.52 3.44,2.2 1.6,0.68 3.4,0.68 2.32,0 3.72,-0.88 1.44,-0.92 1.44,-2.36 0,-1.48 -1.2,-2.12 -1.2,-0.68 -3.96,-0.72 -4.04,-0.16 -5.92,-1.48 -1.84,-1.32 -1.84,-4.12 0,-2.56 2.12,-4.24 2.16,-1.72 5.52,-1.72 2.28,0 4.28,0.72 2,0.72 3.64,2.12 l -1.56,2.44 q -1.64,-1.32 -3.16,-1.92 -1.52,-0.6 -3.24,-0.6 -1.96,0 -3.24,0.88 -1.24,0.88 -1.24,2.16 0,1.4 1.12,2.04 1.12,0.64 3.56,0.76 4.36,0.12 6.28,1.44 1.96,1.32 1.96,4.16 z"
         id="path22401" />
      <path
         d="m 31.040042,-5.16 v -11.28 h -2.64 v -2.88 h 2.64 v -5.92 h 3.24 v 5.92 h 4.48 v 2.88 h -4.48 v 11 q 0,1.28 0.56,1.92 0.6,0.6 1.8,0.6 h 2.12 V 0 h -2.6 q -2.68,0 -3.92,-1.24 -1.2,-1.24 -1.2,-3.92 z"
         id="path22403" />
      <path
         d="m 42.040044,-19.32 h 3.2 V -17 q 1.08,-1.4 2.44,-2.08 1.4,-0.72 3.12,-0.72 2,0 3.56,0.84 1.56,0.84 2.48,2.44 1.08,-1.6 2.72,-2.44 1.68,-0.84 3.76,-0.84 3.4,0 5.4,2.2 2.04,2.2 2.04,5.72 V 0 h -3.28 v -11.68 q 0,-2.44 -1.24,-3.8 -1.2,-1.4 -3.4,-1.4 -2.16,0 -3.52,1.52 -1.32,1.48 -1.32,3.88 V 0 h -3.24 v -11.68 q 0,-2.44 -1.24,-3.8 -1.2,-1.4 -3.4,-1.4 -2.16,0 -3.52,1.52 -1.32,1.48 -1.32,3.88 V 0 h -3.24 z"
         id="path22405" />
    </g>
    <path
       d="M328.5 920.667C328.5 907.32 339.32 896.5 352.667 896.5L472.333 896.5C485.68 896.5 496.5 907.32 496.5 920.667L496.5 1017.33C496.5 1030.68 485.68 1041.5 472.333 1041.5L352.667 1041.5C339.32 1041.5 328.5 1030.68 328.5 1017.33Z"
       stroke="#808080"
       stroke-width="1.33333"
       stroke-miterlimit="8"
       fill="#E9E9E9"
       fill-rule="evenodd"
       id="path21865" />
    <g
       aria-label="char_embed..."
       transform="translate(350.917 975)"
       id="text21867"
       style="font-size:20px;font-family:'IntelOne Display Regular', 'IntelOne Display Regular_MSFontService', sans-serif">
      <path
         d="M 5.62,0.3 Q 3.4,0.3 2,-1.1 0.62,-2.52 0.62,-4.8 q 0,-2.16 1.46,-3.64 1.46,-1.48 3.58,-1.48 1.54,0 2.62,0.72 1.1,0.7 1.66,2.04 L 8.56,-6.5 Q 8.1,-7.5 7.36,-8 6.64,-8.5 5.64,-8.5 q -1.42,0 -2.4,1.08 -0.96,1.06 -0.96,2.62 0,1.58 0.96,2.64 0.98,1.04 2.44,1.04 0.94,0 1.74,-0.5 0.82,-0.52 1.32,-1.44 L 10,-2.38 Q 9.42,-1.14 8.26,-0.42 7.1,0.3 5.62,0.3 Z"
         id="path22408" />
      <path
         d="m 11.619998,-14 h 1.62 v 5.8 q 0.58,-0.82 1.44,-1.26 0.88,-0.44 1.96,-0.44 1.94,0 3.02,1.24 1.1,1.24 1.1,3.4 V 0 h -1.62 v -5.16 q 0,-1.54 -0.76,-2.4 -0.76,-0.88 -2.12,-0.88 -1.36,0 -2.2,0.94 -0.82,0.94 -0.82,2.44 V 0 h -1.62 z"
         id="path22410" />
      <path
         d="m 31.059982,0 h -1.58 v -1.58 q -0.58,0.84 -1.58,1.32 -0.98,0.46 -2.12,0.46 -1.6,0 -2.6,-0.8 -1,-0.82 -1,-2.14 0,-1.46 1.12,-2.2 1.12,-0.76 3.32,-0.76 h 2.84 q -0.02,-1.36 -0.72,-2.1 -0.68,-0.74 -1.96,-0.74 -0.76,0 -1.5,0.32 -0.74,0.32 -1.46,0.98 l -0.86,-1.08 q 0.84,-0.8 1.84,-1.2 1,-0.42 2.14,-0.42 1.94,0 3.02,1.16 1.1,1.14 1.1,3.16 z m -1.6,-4.44 h -2.82 q -1.46,0 -2.16,0.4 -0.7,0.4 -0.7,1.26 0,0.72 0.6,1.2 0.62,0.48 1.58,0.48 1.44,0 2.42,-0.92 1,-0.94 1.08,-2.42 z"
         id="path22412" />
      <path
         d="m 33.059969,-9.66 h 1.6 v 1.22 q 0.44,-0.64 1.14,-0.96 0.7,-0.32 1.66,-0.32 h 0.88 v 1.54 h -0.9 q -1.38,0 -2.08,0.72 -0.68,0.72 -0.68,2.18 V 0 h -1.62 z"
         id="path22414" />
      <path
         d="M 38.559968,2.58 V 1.12 h 10.16 v 1.46 z"
         id="path22416" />
      <path
         d="m 54.399962,-1.08 q 0.96,0 1.76,-0.4 0.82,-0.42 1.5,-1.26 l 0.98,0.9 q -0.82,1.08 -1.92,1.62 -1.1,0.52 -2.46,0.52 -2.18,0 -3.58,-1.42 -1.38,-1.44 -1.38,-3.68 0,-2.18 1.42,-3.64 1.42,-1.46 3.5,-1.46 2.12,0 3.44,1.38 1.32,1.38 1.32,3.6 0,0.16 -0.02,0.38 -0.02,0.2 -0.04,0.3 h -7.94 q 0.16,1.42 1.1,2.3 0.96,0.86 2.32,0.86 z m -0.16,-7.44 q -1.26,0 -2.16,0.82 -0.9,0.82 -1.1,2.2 h 6.36 q -0.18,-1.4 -1.02,-2.2 -0.84,-0.82 -2.08,-0.82 z"
         id="path22418" />
      <path
         d="m 60.619975,-9.66 h 1.6 v 1.16 q 0.54,-0.7 1.22,-1.04 0.7,-0.36 1.56,-0.36 1,0 1.78,0.42 0.78,0.42 1.24,1.22 0.54,-0.8 1.36,-1.22 0.84,-0.42 1.88,-0.42 1.7,0 2.7,1.1 1.02,1.1 1.02,2.86 V 0 h -1.64 v -5.84 q 0,-1.22 -0.62,-1.9 -0.6,-0.7 -1.7,-0.7 -1.08,0 -1.76,0.76 -0.66,0.74 -0.66,1.94 V 0 h -1.62 v -5.84 q 0,-1.22 -0.62,-1.9 -0.6,-0.7 -1.7,-0.7 -1.08,0 -1.76,0.76 -0.66,0.74 -0.66,1.94 V 0 h -1.62 z"
         id="path22420" />
      <path
         d="m 78.579991,0 h -1.6 v -14 h 1.62 v 5.84 q 0.64,-0.82 1.56,-1.26 0.94,-0.46 1.98,-0.46 2.04,0 3.4,1.42 1.38,1.4 1.38,3.6 0,2.22 -1.4,3.66 -1.4,1.42 -3.46,1.42 -1.02,0 -1.94,-0.44 -0.9,-0.44 -1.54,-1.22 z m 3.4,-8.44 q -1.44,0 -2.44,1.06 -1,1.04 -1,2.6 0,1.52 0.98,2.56 0.98,1.02 2.4,1.02 1.48,0 2.4,-0.98 0.94,-1 0.94,-2.64 0,-1.62 -0.92,-2.62 -0.9,-1 -2.36,-1 z"
         id="path22422" />
      <path
         d="m 93.259978,-1.08 q 0.96,0 1.76,-0.4 0.82,-0.42 1.5,-1.26 l 0.98,0.9 q -0.82,1.08 -1.92,1.62 -1.1,0.52 -2.46,0.52 -2.18,0 -3.58,-1.42 -1.38,-1.44 -1.38,-3.68 0,-2.18 1.42,-3.64 1.42,-1.46 3.5,-1.46 2.12,0 3.44,1.38 1.32,1.38 1.32,3.6 0,0.16 -0.02,0.38 -0.02,0.2 -0.04,0.3 h -7.94 q 0.16,1.42 1.1,2.3 0.96,0.86 2.32,0.86 z m -0.16,-7.44 q -1.26,0 -2.16,0.82 -0.9,0.82 -1.1,2.2 h 6.36 q -0.18,-1.4 -1.02,-2.2 -0.84,-0.82 -2.08,-0.82 z"
         id="path22424" />
      <path
         d="m 107.35999,-14 h 1.64 V 0 h -1.62 v -1.56 q -0.66,0.84 -1.6,1.3 -0.92,0.46 -1.98,0.46 -2.02,0 -3.4,-1.4 -1.359999,-1.42 -1.359999,-3.6 0,-2.2 1.399999,-3.64 1.42,-1.46 3.48,-1.46 1,0 1.88,0.42 0.9,0.4 1.56,1.16 z m -3.38,12.78 q 1.46,0 2.44,-1.04 1,-1.06 1,-2.6 0,-1.56 -0.96,-2.58 -0.96,-1.02 -2.4,-1.02 -1.48,0 -2.42,1 -0.94,1 -0.94,2.62 0,1.62 0.92,2.62 0.92,1 2.36,1 z"
         id="path22426" />
      <path
         d="m 110.99998,-2.02 h 2.02 V 0 h -2.02 z"
         id="path22428" />
      <path
         d="m 114.93999,-2.02 h 2.02 V 0 h -2.02 z"
         id="path22430" />
      <path
         d="m 118.88,-2.02 h 2.02 V 0 h -2.02 z"
         id="path22432" />
    </g>
    <path
       d="M0.999939-0.0110558 2.14104 103.195 0.141159 103.217-0.999939 0.0110558ZM5.12611 101.829 1.2148 109.873-2.8734 101.917Z"
       fill="#AEAEAE"
       transform="matrix(1 0 0 -1 352 397.873)"
       id="path21869" />
    <path
       d="M30.5001 651.5C30.5001 645.425 35.425 640.5 41.5003 640.5L204.5 640.5C210.575 640.5 215.5 645.425 215.5 651.5L215.5 695.5C215.5 701.575 210.575 706.5 204.5 706.5L41.5003 706.5C35.425 706.5 30.5001 701.575 30.5001 695.5Z"
       stroke="#708541"
       stroke-width="1.33333"
       stroke-miterlimit="8"
       fill="#B1D272"
       fill-rule="evenodd"
       id="path21871" />
    <g
       aria-label="Variable"
       transform="translate(65.9837 684)"
       id="text21873"
       style="font-size:31px;font-family:'IntelOne Display Regular', 'IntelOne Display Regular_MSFontService', sans-serif">
      <path
         d="m 10.013,0 -9.61,-21.7 h 2.914 l 8.091,18.29 7.998,-18.29 h 2.852 L 12.648,0 Z"
         id="path22435" />
      <path
         d="m 35.618992,0 h -2.449 v -2.449 q -0.899,1.302 -2.449,2.046 -1.519,0.713 -3.286,0.713 -2.48,0 -4.03,-1.24 -1.55,-1.271 -1.55,-3.317 0,-2.263 1.736,-3.41 1.736,-1.178 5.146,-1.178 h 4.402 q -0.031,-2.108 -1.116,-3.255 -1.054,-1.147 -3.038,-1.147 -1.178,0 -2.325,0.496 -1.147,0.496 -2.263,1.519 l -1.333,-1.674 q 1.302,-1.24 2.852,-1.86 1.55,-0.651 3.317,-0.651 3.007,0 4.681,1.798 1.705,1.767 1.705,4.898 z m -2.48,-6.882 h -4.371 q -2.263,0 -3.348,0.62 -1.085,0.62 -1.085,1.953 0,1.116 0.93,1.86 0.961,0.744 2.449,0.744 2.232,0 3.751,-1.426 1.55,-1.457 1.674,-3.751 z"
         id="path22437" />
      <path
         d="m 38.718974,-14.973 h 2.48 v 1.891 q 0.682,-0.992 1.767,-1.488 1.085,-0.496 2.573,-0.496 h 1.364 v 2.387 h -1.395 q -2.139,0 -3.224,1.116 -1.054,1.116 -1.054,3.379 V 0 h -2.511 z"
         id="path22439" />
      <path
         d="m 49.103969,-19.995 h 2.79 v 2.759 h -2.79 z M 49.227969,0 v -14.973 h 2.542 V 0 Z"
         id="path22441" />
      <path
         d="m 68.199952,0 h -2.449 v -2.449 q -0.899,1.302 -2.449,2.046 -1.519,0.713 -3.286,0.713 -2.48,0 -4.03,-1.24 -1.55,-1.271 -1.55,-3.317 0,-2.263 1.736,-3.41 1.736,-1.178 5.146,-1.178 h 4.402 q -0.031,-2.108 -1.116,-3.255 -1.054,-1.147 -3.038,-1.147 -1.178,0 -2.325,0.496 -1.147,0.496 -2.263,1.519 l -1.333,-1.674 q 1.302,-1.24 2.852,-1.86 1.55,-0.651 3.317,-0.651 3.007,0 4.681,1.798 1.705,1.767 1.705,4.898 z m -2.48,-6.882 h -4.371 q -2.263,0 -3.348,0.62 -1.085,0.62 -1.085,1.953 0,1.116 0.93,1.86 0.961,0.744 2.449,0.744 2.232,0 3.751,-1.426 1.55,-1.457 1.674,-3.751 z"
         id="path22443" />
      <path
         d="m 73.779937,0 h -2.48 v -21.7 h 2.511 v 9.052 q 0.992,-1.271 2.418,-1.953 1.457,-0.713 3.069,-0.713 3.162,0 5.27,2.201 2.139,2.17 2.139,5.58 0,3.441 -2.17,5.673 -2.17,2.201 -5.363,2.201 -1.581,0 -3.007,-0.682 -1.395,-0.682 -2.387,-1.891 z m 5.27,-13.082 q -2.232,0 -3.782,1.643 -1.55,1.612 -1.55,4.03 0,2.356 1.519,3.968 1.519,1.581 3.72,1.581 2.294,0 3.72,-1.519 1.457,-1.55 1.457,-4.092 0,-2.511 -1.426,-4.061 -1.395,-1.55 -3.658,-1.55 z"
         id="path22445" />
      <path
         d="m 89.589915,-21.7 h 2.542 V 0 h -2.542 z"
         id="path22447" />
      <path
         d="m 102.91989,-1.674 q 1.488,0 2.728,-0.62 1.271,-0.651 2.325,-1.953 l 1.519,1.395 q -1.271,1.674 -2.976,2.511 -1.705,0.806 -3.813,0.806 -3.378996,0 -5.548996,-2.201 -2.139,-2.232 -2.139,-5.704 0,-3.379 2.201,-5.642 2.201,-2.263 5.424996,-2.263 3.286,0 5.332,2.139 2.046,2.139 2.046,5.58 0,0.248 -0.031,0.589 -0.031,0.31 -0.062,0.465 H 97.618894 q 0.248,2.201 1.705,3.565 1.487996,1.333 3.595996,1.333 z m -0.248,-11.532 q -1.953,0 -3.347996,1.271 -1.395,1.271 -1.705,3.41 h 9.857996 q -0.279,-2.17 -1.581,-3.41 -1.302,-1.271 -3.224,-1.271 z"
         id="path22449" />
    </g>
    <path
       d="M490.5 651.5C490.5 645.425 495.425 640.5 501.5 640.5L665.5 640.5C671.575 640.5 676.5 645.425 676.5 651.5L676.5 695.5C676.5 701.575 671.575 706.5 665.5 706.5L501.5 706.5C495.425 706.5 490.5 701.575 490.5 695.5Z"
       stroke="#708541"
       stroke-width="1.33333"
       stroke-miterlimit="8"
       fill="#B1D272"
       fill-rule="evenodd"
       id="path21875" />
    <g
       aria-label="Variable_1"
       transform="translate(514.455 684)"
       id="text21877"
       style="font-size:31px;font-family:'IntelOne Display Regular', 'IntelOne Display Regular_MSFontService', sans-serif">
      <path
         d="m 10.013,0 -9.61,-21.7 h 2.914 l 8.091,18.29 7.998,-18.29 h 2.852 L 12.648,0 Z"
         id="path22452" />
      <path
         d="m 35.618992,0 h -2.449 v -2.449 q -0.899,1.302 -2.449,2.046 -1.519,0.713 -3.286,0.713 -2.48,0 -4.03,-1.24 -1.55,-1.271 -1.55,-3.317 0,-2.263 1.736,-3.41 1.736,-1.178 5.146,-1.178 h 4.402 q -0.031,-2.108 -1.116,-3.255 -1.054,-1.147 -3.038,-1.147 -1.178,0 -2.325,0.496 -1.147,0.496 -2.263,1.519 l -1.333,-1.674 q 1.302,-1.24 2.852,-1.86 1.55,-0.651 3.317,-0.651 3.007,0 4.681,1.798 1.705,1.767 1.705,4.898 z m -2.48,-6.882 h -4.371 q -2.263,0 -3.348,0.62 -1.085,0.62 -1.085,1.953 0,1.116 0.93,1.86 0.961,0.744 2.449,0.744 2.232,0 3.751,-1.426 1.55,-1.457 1.674,-3.751 z"
         id="path22454" />
      <path
         d="m 38.718974,-14.973 h 2.48 v 1.891 q 0.682,-0.992 1.767,-1.488 1.085,-0.496 2.573,-0.496 h 1.364 v 2.387 h -1.395 q -2.139,0 -3.224,1.116 -1.054,1.116 -1.054,3.379 V 0 h -2.511 z"
         id="path22456" />
      <path
         d="m 49.103969,-19.995 h 2.79 v 2.759 h -2.79 z M 49.227969,0 v -14.973 h 2.542 V 0 Z"
         id="path22458" />
      <path
         d="m 68.199952,0 h -2.449 v -2.449 q -0.899,1.302 -2.449,2.046 -1.519,0.713 -3.286,0.713 -2.48,0 -4.03,-1.24 -1.55,-1.271 -1.55,-3.317 0,-2.263 1.736,-3.41 1.736,-1.178 5.146,-1.178 h 4.402 q -0.031,-2.108 -1.116,-3.255 -1.054,-1.147 -3.038,-1.147 -1.178,0 -2.325,0.496 -1.147,0.496 -2.263,1.519 l -1.333,-1.674 q 1.302,-1.24 2.852,-1.86 1.55,-0.651 3.317,-0.651 3.007,0 4.681,1.798 1.705,1.767 1.705,4.898 z m -2.48,-6.882 h -4.371 q -2.263,0 -3.348,0.62 -1.085,0.62 -1.085,1.953 0,1.116 0.93,1.86 0.961,0.744 2.449,0.744 2.232,0 3.751,-1.426 1.55,-1.457 1.674,-3.751 z"
         id="path22460" />
      <path
         d="m 73.779937,0 h -2.48 v -21.7 h 2.511 v 9.052 q 0.992,-1.271 2.418,-1.953 1.457,-0.713 3.069,-0.713 3.162,0 5.27,2.201 2.139,2.17 2.139,5.58 0,3.441 -2.17,5.673 -2.17,2.201 -5.363,2.201 -1.581,0 -3.007,-0.682 -1.395,-0.682 -2.387,-1.891 z m 5.27,-13.082 q -2.232,0 -3.782,1.643 -1.55,1.612 -1.55,4.03 0,2.356 1.519,3.968 1.519,1.581 3.72,1.581 2.294,0 3.72,-1.519 1.457,-1.55 1.457,-4.092 0,-2.511 -1.426,-4.061 -1.395,-1.55 -3.658,-1.55 z"
         id="path22462" />
      <path
         d="m 89.589915,-21.7 h 2.542 V 0 h -2.542 z"
         id="path22464" />
      <path
         d="m 102.91989,-1.674 q 1.488,0 2.728,-0.62 1.271,-0.651 2.325,-1.953 l 1.519,1.395 q -1.271,1.674 -2.976,2.511 -1.705,0.806 -3.813,0.806 -3.378996,0 -5.548996,-2.201 -2.139,-2.232 -2.139,-5.704 0,-3.379 2.201,-5.642 2.201,-2.263 5.424996,-2.263 3.286,0 5.332,2.139 2.046,2.139 2.046,5.58 0,0.248 -0.031,0.589 -0.031,0.31 -0.062,0.465 H 97.618894 q 0.248,2.201 1.705,3.565 1.487996,1.333 3.595996,1.333 z m -0.248,-11.532 q -1.953,0 -3.347996,1.271 -1.395,1.271 -1.705,3.41 h 9.857996 q -0.279,-2.17 -1.581,-3.41 -1.302,-1.271 -3.224,-1.271 z"
         id="path22466" />
      <path
         d="M 110.85592,3.999 V 1.736 h 15.748 v 2.263 z"
         id="path22468" />
      <path
         d="m 130.7269,-19.344 h -3.348 V -21.7 h 5.952 V 0 h -2.604 z"
         id="path22470" />
    </g>
    <path
       d="M377.5 673.5C377.5 664.111 393.618 656.5 413.5 656.5 433.382 656.5 449.5 664.111 449.5 673.5 449.5 682.889 433.382 690.5 413.5 690.5 393.618 690.5 377.5 682.889 377.5 673.5Z"
       stroke="#AEAEAE"
       stroke-width="1.33333"
       stroke-miterlimit="8"
       fill="#FFFFFF"
       fill-rule="evenodd"
       id="path21879" />
    <path
       d="M377.5 804C377.5 794.887 393.618 787.5 413.5 787.5 433.382 787.5 449.5 794.887 449.5 804 449.5 813.113 433.382 820.5 413.5 820.5 393.618 820.5 377.5 813.113 377.5 804Z"
       stroke="#AEAEAE"
       stroke-width="1.33333"
       stroke-miterlimit="8"
       fill="#FFFFFF"
       fill-rule="evenodd"
       id="path21881" />
    <path
       d="M411.989 656.982 375.215 549.631 377.107 548.983 413.881 656.333ZM372.809 551.865 374 543 380.377 549.272Z"
       fill="#AEAEAE"
       id="path21883" />
    <path
       d="M324.5 673.5C324.5 670.186 326.962 667.5 330 667.5 333.038 667.5 335.5 670.186 335.5 673.5 335.5 676.814 333.038 679.5 330 679.5 326.962 679.5 324.5 676.814 324.5 673.5Z"
       stroke="#AEAEAE"
       stroke-width="1.33333"
       stroke-miterlimit="8"
       fill="#FFFFFF"
       fill-rule="evenodd"
       id="path21885" />
    <path
       d="M335 672 370.074 672 370.074 674 335 674ZM368.741 669 376.741 673 368.741 677Z"
       fill="#AEAEAE"
       id="path21887" />
    <path
       d="M324.5 803.5C324.5 800.186 326.962 797.5 330 797.5 333.038 797.5 335.5 800.186 335.5 803.5 335.5 806.814 333.038 809.5 330 809.5 326.962 809.5 324.5 806.814 324.5 803.5Z"
       stroke="#AEAEAE"
       stroke-width="1.33333"
       stroke-miterlimit="8"
       fill="#FFFFFF"
       fill-rule="evenodd"
       id="path21889" />
    <path
       d="M335 802 370.074 802 370.074 804 335 804ZM368.741 799 376.741 803 368.741 807Z"
       fill="#AEAEAE"
       id="path21891" />
    <g
       aria-label="split_dimshape"
       transform="translate(250.246 678)"
       id="text21895"
       style="font-size:18px;font-family:'IntelOne Display Regular', 'IntelOne Display Regular_MSFontService', sans-serif">
      <path
         d="m 7.956,-2.538 q 0,1.224 -1.044,1.998 -1.044,0.774 -2.718,0.774 -1.098,0 -2.07,-0.342 Q 1.17,-0.468 0.396,-1.17 l 0.756,-1.116 q 0.828,0.684 1.548,0.99 0.72,0.306 1.53,0.306 1.044,0 1.674,-0.396 0.648,-0.414 0.648,-1.062 0,-0.666 -0.54,-0.954 Q 5.472,-3.708 4.23,-3.726 2.412,-3.798 1.566,-4.392 0.738,-4.986 0.738,-6.246 q 0,-1.152 0.954,-1.908 0.972,-0.774 2.484,-0.774 1.026,0 1.926,0.324 0.9,0.324 1.638,0.954 L 7.038,-6.552 Q 6.3,-7.146 5.616,-7.416 q -0.684,-0.27 -1.458,-0.27 -0.882,0 -1.458,0.396 -0.558,0.396 -0.558,0.972 0,0.63 0.504,0.918 0.504,0.288 1.602,0.342 1.962,0.054 2.826,0.648 0.882,0.594 0.882,1.872 z"
         id="path22473" />
      <path
         d="M 10.890012,3.24 H 9.4320121 V -8.694 h 1.4399999 v 1.404 q 0.576,-0.756 1.422,-1.17 0.846,-0.432 1.8,-0.432 1.836,0 3.06,1.278 1.224,1.26 1.224,3.24 0,1.998 -1.278,3.294 -1.26,1.278 -3.114,1.278 -0.882,0 -1.71,-0.36 -0.81,-0.378 -1.386,-1.062 z m 3.042,-10.836 q -1.314,0 -2.214,0.954 -0.882,0.936 -0.882,2.34 0,1.386 0.864,2.304 0.882,0.918 2.178,0.918 1.332,0 2.16,-0.882 0.846,-0.9 0.846,-2.376 0,-1.458 -0.828,-2.358 -0.81,-0.9 -2.124,-0.9 z"
         id="path22475" />
      <path
         d="m 20.052001,-12.6 h 1.476 V 0 h -1.476 z"
         id="path22477" />
      <path
         d="m 23.68799,-11.61 h 1.62 v 1.602 h -1.62 z M 23.75999,0 v -8.694 h 1.476 V 0 Z"
         id="path22479" />
      <path
         d="m 27.791978,-2.322 v -5.076 h -1.188 v -1.296 h 1.188 v -2.664 h 1.458 v 2.664 h 2.016 v 1.296 h -2.016 v 4.95 q 0,0.576 0.252,0.864 0.27,0.27 0.81,0.27 h 0.954 V 0 h -1.17 q -1.206,0 -1.764,-0.558 -0.54,-0.558 -0.54,-1.764 z"
         id="path22481" />
      <path
         d="M 31.751979,2.322 V 1.008 h 9.144 v 1.314 z"
         id="path22483" />
      <path
         d="m 48.905974,-12.6 h 1.476 V 0 h -1.458 v -1.404 q -0.594,0.756 -1.44,1.17 -0.828,0.414 -1.782,0.414 -1.818,0 -3.06,-1.26 -1.224,-1.278 -1.224,-3.24 0,-1.98 1.26,-3.276 1.278,-1.314 3.132,-1.314 0.9,0 1.692,0.378 0.81,0.36 1.404,1.044 z m -3.042,11.502 q 1.314,0 2.196,-0.936 0.9,-0.954 0.9,-2.34 0,-1.404 -0.864,-2.322 -0.864,-0.918 -2.16,-0.918 -1.332,0 -2.178,0.9 -0.846,0.9 -0.846,2.358 0,1.458 0.828,2.358 0.828,0.9 2.124,0.9 z"
         id="path22485" />
      <path
         d="m 52.361963,-11.61 h 1.62 v 1.602 h -1.62 z m 0.072,11.61 v -8.694 h 1.476 V 0 Z"
         id="path22487" />
      <path
         d="m 55.979951,-8.694 h 1.44 v 1.044 q 0.486,-0.63 1.098,-0.936 0.63,-0.324 1.404,-0.324 0.9,0 1.602,0.378 0.702,0.378 1.116,1.098 0.486,-0.72 1.224,-1.098 0.756,-0.378 1.692,-0.378 1.53,0 2.43,0.99 0.918,0.99 0.918,2.574 V 0 h -1.476 v -5.256 q 0,-1.098 -0.558,-1.71 -0.54,-0.63 -1.53,-0.63 -0.972,0 -1.584,0.684 -0.594,0.666 -0.594,1.746 V 0 h -1.458 v -5.256 q 0,-1.098 -0.558,-1.71 -0.54,-0.63 -1.53,-0.63 -0.972,0 -1.584,0.684 -0.594,0.666 -0.594,1.746 V 0 h -1.458 z"
         id="path22489" />
      <path
         d="m 28.950699,127.462 q 0,1.224 -1.044,1.998 -1.044,0.774 -2.718,0.774 -1.098,0 -2.07,-0.342 -0.954,-0.36 -1.728,-1.062 l 0.756,-1.116 q 0.828,0.684 1.548,0.99 0.72,0.306 1.53,0.306 1.044,0 1.674,-0.396 0.648,-0.414 0.648,-1.062 0,-0.666 -0.54,-0.954 -0.54,-0.306 -1.782,-0.324 -1.818,-0.072 -2.664,-0.666 -0.828,-0.594 -0.828,-1.854 0,-1.152 0.954,-1.908 0.972,-0.774 2.484,-0.774 1.026,0 1.926,0.324 0.9,0.324 1.638,0.954 l -0.702,1.098 q -0.738,-0.594 -1.422,-0.864 -0.684,-0.27 -1.458,-0.27 -0.882,0 -1.458,0.396 -0.558,0.396 -0.558,0.972 0,0.63 0.504,0.918 0.504,0.288 1.602,0.342 1.962,0.054 2.826,0.648 0.882,0.594 0.882,1.872 z"
         id="path22491" />
      <path
         d="m 30.426712,117.4 h 1.458 v 5.22 q 0.522,-0.738 1.296,-1.134 0.792,-0.396 1.764,-0.396 1.746,0 2.718,1.116 0.99,1.116 0.99,3.06 V 130 h -1.458 v -4.644 q 0,-1.386 -0.684,-2.16 -0.684,-0.792 -1.908,-0.792 -1.224,0 -1.98,0.846 -0.738,0.846 -0.738,2.196 V 130 h -1.458 z"
         id="path22493" />
      <path
         d="m 47.922697,130 h -1.422 v -1.422 q -0.522,0.756 -1.422,1.188 -0.882,0.414 -1.908,0.414 -1.44,0 -2.34,-0.72 -0.9,-0.738 -0.9,-1.926 0,-1.314 1.008,-1.98 1.008,-0.684 2.988,-0.684 h 2.556 q -0.018,-1.224 -0.648,-1.89 -0.612,-0.666 -1.764,-0.666 -0.684,0 -1.35,0.288 -0.666,0.288 -1.314,0.882 l -0.774,-0.972 q 0.756,-0.72 1.656,-1.08 0.9,-0.378 1.926,-0.378 1.746,0 2.718,1.044 0.99,1.026 0.99,2.844 z m -1.44,-3.996 h -2.538 q -1.314,0 -1.944,0.36 -0.63,0.36 -0.63,1.134 0,0.648 0.54,1.08 0.558,0.432 1.422,0.432 1.296,0 2.178,-0.828 0.9,-0.846 0.972,-2.178 z"
         id="path22495" />
      <path
         d="m 51.180686,133.24 h -1.458 v -11.934 h 1.44 v 1.404 q 0.576,-0.756 1.422,-1.17 0.846,-0.432 1.8,-0.432 1.836,0 3.06,1.278 1.224,1.26 1.224,3.24 0,1.998 -1.278,3.294 -1.26,1.278 -3.114,1.278 -0.882,0 -1.71,-0.36 -0.81,-0.378 -1.386,-1.062 z m 3.042,-10.836 q -1.314,0 -2.214,0.954 -0.882,0.936 -0.882,2.34 0,1.386 0.864,2.304 0.882,0.918 2.178,0.918 1.332,0 2.16,-0.882 0.846,-0.9 0.846,-2.376 0,-1.458 -0.828,-2.358 -0.81,-0.9 -2.124,-0.9 z"
         id="path22497" />
      <path
         d="m 64.374675,129.028 q 0.864,0 1.584,-0.36 0.738,-0.378 1.35,-1.134 l 0.882,0.81 q -0.738,0.972 -1.728,1.458 -0.99,0.468 -2.214,0.468 -1.962,0 -3.222,-1.278 -1.242,-1.296 -1.242,-3.312 0,-1.962 1.278,-3.276 1.278,-1.314 3.15,-1.314 1.908,0 3.096,1.242 1.188,1.242 1.188,3.24 0,0.144 -0.018,0.342 -0.018,0.18 -0.036,0.27 h -7.146 q 0.144,1.278 0.99,2.07 0.864,0.774 2.088,0.774 z m -0.144,-6.696 q -1.134,0 -1.944,0.738 -0.81,0.738 -0.99,1.98 h 5.724 q -0.162,-1.26 -0.918,-1.98 -0.756,-0.738 -1.872,-0.738 z"
         id="path22499" />
    </g>
    <path
       d="M1-1.08244e-06 1.0001 90.3242-0.999902 90.3242-1 1.08244e-06ZM4.0001 88.9909 0.000104987 96.9909-3.9999 88.9909Z"
       fill="#AEAEAE"
       transform="matrix(1 0 0 -1 413 786.991)"
       id="path21897" />
    <path
       d="M0.999941-0.0108767 1.74906 68.8582-0.250825 68.8799-0.999941 0.0108767ZM4.73438 67.4923 0.821627 75.5353-3.26515 67.5793Z"
       fill="#AEAEAE"
       transform="matrix(1 0 0 -1 412 895.535)"
       id="path21899" />
    <path
       d="M1-1.02461e-06 1.0001 95.7988-0.999902 95.7988-1 1.02461e-06ZM4.0001 94.4654 0.000104987 102.465-3.9999 94.4654Z"
       fill="#AEAEAE"
       transform="matrix(1 0 0 -1 412 1143.47)"
       id="path21901" />
    <g
       aria-label="all_embs...Reshapechar_inp..."
       transform="translate(371.015 646)"
       id="text21907"
       style="font-size:20px;font-family:'IntelOne Display Regular', 'IntelOne Display Regular_MSFontService', sans-serif">
      <path
         d="M 9.36,0 H 7.78 V -1.58 Q 7.2,-0.74 6.2,-0.26 5.22,0.2 4.08,0.2 q -1.6,0 -2.6,-0.8 -1,-0.82 -1,-2.14 0,-1.46 1.12,-2.2 Q 2.72,-5.7 4.92,-5.7 H 7.76 Q 7.74,-7.06 7.04,-7.8 6.36,-8.54 5.08,-8.54 q -0.76,0 -1.5,0.32 -0.74,0.32 -1.46,0.98 L 1.26,-8.32 q 0.84,-0.8 1.84,-1.2 1,-0.42 2.14,-0.42 1.94,0 3.02,1.16 1.1,1.14 1.1,3.16 z M 7.76,-4.44 H 4.94 q -1.46,0 -2.16,0.4 -0.7,0.4 -0.7,1.26 0,0.72 0.6,1.2 0.62,0.48 1.58,0.48 1.44,0 2.42,-0.92 1,-0.94 1.08,-2.42 z"
         id="path22502" />
      <path
         d="m 11.539988,-14 h 1.64 V 0 h -1.64 z"
         id="path22504" />
      <path
         d="m 15.659975,-14 h 1.64 V 0 h -1.64 z"
         id="path22506" />
      <path
         d="M 18.499963,2.58 V 1.12 h 10.16 v 1.46 z"
         id="path22508" />
      <path
         d="m 34.339957,-1.08 q 0.96,0 1.76,-0.4 0.82,-0.42 1.5,-1.26 l 0.98,0.9 q -0.82,1.08 -1.92,1.62 -1.1,0.52 -2.46,0.52 -2.18,0 -3.58,-1.42 -1.38,-1.44 -1.38,-3.68 0,-2.18 1.42,-3.64 1.42,-1.46 3.5,-1.46 2.12,0 3.44,1.38 1.32,1.38 1.32,3.6 0,0.16 -0.02,0.38 -0.02,0.2 -0.04,0.3 h -7.94 q 0.16,1.42 1.1,2.3 0.96,0.86 2.32,0.86 z m -0.16,-7.44 q -1.26,0 -2.16,0.82 -0.9,0.82 -1.1,2.2 h 6.36 q -0.18,-1.4 -1.02,-2.2 -0.84,-0.82 -2.08,-0.82 z"
         id="path22510" />
      <path
         d="m 40.559969,-9.66 h 1.6 v 1.16 q 0.54,-0.7 1.22,-1.04 0.7,-0.36 1.56,-0.36 1,0 1.78,0.42 0.78,0.42 1.24,1.22 0.54,-0.8 1.36,-1.22 0.84,-0.42 1.88,-0.42 1.7,0 2.7,1.1 1.02,1.1 1.02,2.86 V 0 h -1.64 v -5.84 q 0,-1.22 -0.62,-1.9 -0.6,-0.7 -1.7,-0.7 -1.08,0 -1.76,0.76 -0.66,0.74 -0.66,1.94 V 0 h -1.62 v -5.84 q 0,-1.22 -0.62,-1.9 -0.6,-0.7 -1.7,-0.7 -1.08,0 -1.76,0.76 -0.66,0.74 -0.66,1.94 V 0 h -1.62 z"
         id="path22512" />
      <path
         d="m 58.519985,0 h -1.6 v -14 h 1.62 v 5.84 q 0.64,-0.82 1.56,-1.26 0.94,-0.46 1.98,-0.46 2.04,0 3.4,1.42 1.38,1.4 1.38,3.6 0,2.22 -1.4,3.66 -1.4,1.42 -3.46,1.42 -1.02,0 -1.94,-0.44 -0.9,-0.44 -1.54,-1.22 z m 3.4,-8.44 q -1.44,0 -2.44,1.06 -1,1.04 -1,2.6 0,1.52 0.98,2.56 0.98,1.02 2.4,1.02 1.48,0 2.4,-0.98 0.94,-1 0.94,-2.64 0,-1.62 -0.92,-2.62 -0.9,-1 -2.36,-1 z"
         id="path22514" />
      <path
         d="m 76.319973,-2.82 q 0,1.36 -1.16,2.22 -1.16,0.86 -3.02,0.86 -1.22,0 -2.3,-0.38 -1.06,-0.4 -1.92,-1.18 l 0.84,-1.24 q 0.92,0.76 1.72,1.1 0.8,0.34 1.7,0.34 1.16,0 1.86,-0.44 0.72,-0.46 0.72,-1.18 0,-0.74 -0.6,-1.06 -0.6,-0.34 -1.98,-0.36 -2.02,-0.08 -2.96,-0.74 -0.92,-0.66 -0.92,-2.06 0,-1.28 1.06,-2.12 1.08,-0.86 2.76,-0.86 1.14,0 2.14,0.36 1,0.36 1.82,1.06 l -0.78,1.22 q -0.82,-0.66 -1.58,-0.96 -0.76,-0.3 -1.62,-0.3 -0.98,0 -1.62,0.44 -0.62,0.44 -0.62,1.08 0,0.7 0.56,1.02 0.56,0.32 1.78,0.38 2.18,0.06 3.14,0.72 0.98,0.66 0.98,2.08 z"
         id="path22516" />
      <path
         d="m 77.859986,-2.02 h 2.02 V 0 h -2.02 z"
         id="path22518" />
      <path
         d="m 81.799996,-2.02 h 2.02 V 0 h -2.02 z"
         id="path22520" />
      <path
         d="m 85.740006,-2.02 h 2.02 V 0 h -2.02 z"
         id="path22522" />
      <path
         d="m 12.13102,125.1 3.98,5.9 h -2.04 l -3.78,-5.7 H 6.3510201 v 5.7 h -1.72 V 117 H 10.79102 q 2.36,0 3.68,1.1 1.32,1.08 1.32,2.98 0,1.56 -0.96,2.62 -0.96,1.06 -2.7,1.4 z m 1.92,-3.98 q 0,-1.22 -0.88,-1.9 -0.86,-0.7 -2.42,-0.7 H 6.3510201 v 5.28 H 10.61102 q 1.58,0 2.5,-0.72 0.94,-0.74 0.94,-1.96 z"
         id="path22524" />
      <path
         d="m 22.111018,129.92 q 0.96,0 1.76,-0.4 0.82,-0.42 1.5,-1.26 l 0.98,0.9 q -0.82,1.08 -1.92,1.62 -1.1,0.52 -2.46,0.52 -2.18,0 -3.58,-1.42 -1.38,-1.44 -1.38,-3.68 0,-2.18 1.42,-3.64 1.42,-1.46 3.5,-1.46 2.12,0 3.44,1.38 1.32,1.38 1.32,3.6 0,0.16 -0.02,0.38 -0.02,0.2 -0.04,0.3 h -7.94 q 0.16,1.42 1.1,2.3 0.96,0.86 2.32,0.86 z m -0.16,-7.44 q -1.26,0 -2.16,0.82 -0.9,0.82 -1.1,2.2 h 6.36 q -0.18,-1.4 -1.02,-2.2 -0.84,-0.82 -2.08,-0.82 z"
         id="path22526" />
      <path
         d="m 36.11103,128.18 q 0,1.36 -1.16,2.22 -1.16,0.86 -3.02,0.86 -1.22,0 -2.3,-0.38 -1.06,-0.4 -1.92,-1.18 l 0.84,-1.24 q 0.92,0.76 1.72,1.1 0.8,0.34 1.7,0.34 1.16,0 1.86,-0.44 0.72,-0.46 0.72,-1.18 0,-0.74 -0.6,-1.06 -0.6,-0.34 -1.98,-0.36 -2.02,-0.08 -2.96,-0.74 -0.92,-0.66 -0.92,-2.06 0,-1.28 1.06,-2.12 1.08,-0.86 2.76,-0.86 1.14,0 2.14,0.36 1,0.36 1.82,1.06 l -0.78,1.22 q -0.82,-0.66 -1.58,-0.96 -0.76,-0.3 -1.62,-0.3 -0.98,0 -1.62,0.44 -0.62,0.44 -0.62,1.08 0,0.7 0.56,1.02 0.56,0.32 1.78,0.38 2.18,0.06 3.14,0.72 0.98,0.66 0.98,2.08 z"
         id="path22528" />
      <path
         d="m 37.751044,117 h 1.62 v 5.8 q 0.58,-0.82 1.44,-1.26 0.88,-0.44 1.96,-0.44 1.94,0 3.02,1.24 1.1,1.24 1.1,3.4 V 131 h -1.62 v -5.16 q 0,-1.54 -0.76,-2.4 -0.76,-0.88 -2.12,-0.88 -1.36,0 -2.2,0.94 -0.82,0.94 -0.82,2.44 V 131 h -1.62 z"
         id="path22530" />
      <path
         d="m 57.191028,131 h -1.58 v -1.58 q -0.58,0.84 -1.58,1.32 -0.98,0.46 -2.12,0.46 -1.6,0 -2.6,-0.8 -1,-0.82 -1,-2.14 0,-1.46 1.12,-2.2 1.12,-0.76 3.32,-0.76 h 2.84 q -0.02,-1.36 -0.72,-2.1 -0.68,-0.74 -1.96,-0.74 -0.76,0 -1.5,0.32 -0.74,0.32 -1.46,0.98 l -0.86,-1.08 q 0.84,-0.8 1.84,-1.2 1,-0.42 2.14,-0.42 1.94,0 3.02,1.16 1.1,1.14 1.1,3.16 z m -1.6,-4.44 h -2.82 q -1.46,0 -2.16,0.4 -0.7,0.4 -0.7,1.26 0,0.72 0.6,1.2 0.62,0.48 1.58,0.48 1.44,0 2.42,-0.92 1,-0.94 1.08,-2.42 z"
         id="path22532" />
      <path
         d="m 60.811016,134.6 h -1.62 v -13.26 h 1.6 v 1.56 q 0.64,-0.84 1.58,-1.3 0.94,-0.48 2,-0.48 2.04,0 3.4,1.42 1.36,1.4 1.36,3.6 0,2.22 -1.42,3.66 -1.4,1.42 -3.46,1.42 -0.98,0 -1.9,-0.4 -0.9,-0.42 -1.54,-1.18 z m 3.38,-12.04 q -1.46,0 -2.46,1.06 -0.98,1.04 -0.98,2.6 0,1.54 0.96,2.56 0.98,1.02 2.42,1.02 1.48,0 2.4,-0.98 0.94,-1 0.94,-2.64 0,-1.62 -0.92,-2.62 -0.9,-1 -2.36,-1 z"
         id="path22534" />
      <path
         d="m 75.471003,129.92 q 0.96,0 1.76,-0.4 0.82,-0.42 1.5,-1.26 l 0.98,0.9 q -0.82,1.08 -1.92,1.62 -1.1,0.52 -2.46,0.52 -2.18,0 -3.58,-1.42 -1.38,-1.44 -1.38,-3.68 0,-2.18 1.42,-3.64 1.42,-1.46 3.5,-1.46 2.12,0 3.44,1.38 1.32,1.38 1.32,3.6 0,0.16 -0.02,0.38 -0.02,0.2 -0.04,0.3 h -7.94 q 0.16,1.42 1.1,2.3 0.96,0.86 2.32,0.86 z m -0.16,-7.44 q -1.26,0 -2.16,0.82 -0.9,0.82 -1.1,2.2 h 6.36 q -0.18,-1.4 -1.02,-2.2 -0.84,-0.82 -2.08,-0.82 z"
         id="path22536" />
      <path
         d="m 4.820195,484.3 q -2.22,0 -3.62,-1.4 -1.37999999,-1.42 -1.37999999,-3.7 0,-2.16 1.45999999,-3.64 1.46,-1.48 3.58,-1.48 1.54,0 2.62,0.72 1.1,0.7 1.66,2.04 l -1.38,0.66 q -0.46,-1 -1.2,-1.5 -0.72,-0.5 -1.72,-0.5 -1.42,0 -2.4,1.08 -0.96,1.06 -0.96,2.62 0,1.58 0.96,2.64 0.98,1.04 2.44,1.04 0.94,0 1.74,-0.5 0.82,-0.52 1.32,-1.44 l 1.26,0.68 q -0.58,1.24 -1.74,1.96 -1.16,0.72 -2.64,0.72 z"
         id="path22538" />
      <path
         d="m 10.820193,470 h 1.62 v 5.8 q 0.58,-0.82 1.44,-1.26 0.88,-0.44 1.96,-0.44 1.94,0 3.02,1.24 1.1,1.24 1.1,3.4 V 484 h -1.62 v -5.16 q 0,-1.54 -0.76,-2.4 -0.76,-0.88 -2.12,-0.88 -1.36,0 -2.2,0.94 -0.82,0.94 -0.82,2.44 V 484 h -1.62 z"
         id="path22540" />
      <path
         d="m 30.260177,484 h -1.58 v -1.58 q -0.58,0.84 -1.58,1.32 -0.98,0.46 -2.12,0.46 -1.6,0 -2.6,-0.8 -1,-0.82 -1,-2.14 0,-1.46 1.12,-2.2 1.12,-0.76 3.32,-0.76 h 2.84 q -0.02,-1.36 -0.72,-2.1 -0.68,-0.74 -1.96,-0.74 -0.76,0 -1.5,0.32 -0.74,0.32 -1.46,0.98 l -0.86,-1.08 q 0.84,-0.8 1.84,-1.2 1,-0.42 2.14,-0.42 1.94,0 3.02,1.16 1.1,1.14 1.1,3.16 z m -1.6,-4.44 h -2.82 q -1.46,0 -2.16,0.4 -0.7,0.4 -0.7,1.26 0,0.72 0.6,1.2 0.62,0.48 1.58,0.48 1.44,0 2.42,-0.92 1,-0.94 1.08,-2.42 z"
         id="path22542" />
      <path
         d="m 32.260164,474.34 h 1.6 v 1.22 q 0.44,-0.64 1.14,-0.96 0.7,-0.32 1.66,-0.32 h 0.88 v 1.54 h -0.9 q -1.38,0 -2.08,0.72 -0.68,0.72 -0.68,2.18 V 484 h -1.62 z"
         id="path22544" />
      <path
         d="m 37.760163,486.58 v -1.46 h 10.16 v 1.46 z"
         id="path22546" />
      <path
         d="m 49.040157,471.1 h 1.8 v 1.78 h -1.8 z m 0.08,12.9 v -9.66 h 1.64 V 484 Z"
         id="path22548" />
      <path
         d="m 53.060145,474.34 h 1.6 v 1.5 q 0.58,-0.84 1.46,-1.28 0.9,-0.46 2,-0.46 1.92,0 3,1.24 1.08,1.24 1.08,3.4 V 484 h -1.62 v -5.16 q 0,-1.52 -0.76,-2.4 -0.74,-0.88 -2.08,-0.88 -1.38,0 -2.22,0.94 -0.84,0.94 -0.84,2.44 V 484 h -1.62 z"
         id="path22550" />
      <path
         d="m 65.820129,487.6 h -1.62 v -13.26 h 1.6 v 1.56 q 0.64,-0.84 1.58,-1.3 0.94,-0.48 2,-0.48 2.04,0 3.4,1.42 1.36,1.4 1.36,3.6 0,2.22 -1.42,3.66 -1.4,1.42 -3.46,1.42 -0.98,0 -1.9,-0.4 -0.9,-0.42 -1.54,-1.18 z m 3.38,-12.04 q -1.46,0 -2.46,1.06 -0.98,1.04 -0.98,2.6 0,1.54 0.96,2.56 0.98,1.02 2.42,1.02 1.48,0 2.4,-0.98 0.94,-1 0.94,-2.64 0,-1.62 -0.92,-2.62 -0.9,-1 -2.36,-1 z"
         id="path22552" />
      <path
         d="m 75.580117,481.98 h 2.02 V 484 h -2.02 z"
         id="path22554" />
      <path
         d="m 79.520127,481.98 h 2.02 V 484 h -2.02 z"
         id="path22556" />
      <path
         d="m 83.460137,481.98 h 2.02 V 484 h -2.02 z"
         id="path22558" />
    </g>
    <path
       d="M786.5 651.5C786.5 645.425 791.425 640.5 797.5 640.5L961.5 640.5C967.575 640.5 972.5 645.425 972.5 651.5L972.5 695.5C972.5 701.575 967.575 706.5 961.5 706.5L797.5 706.5C791.425 706.5 786.5 701.575 786.5 695.5Z"
       stroke="#808080"
       stroke-width="1.33333"
       stroke-miterlimit="8"
       fill="#E9E9E9"
       fill-rule="evenodd"
       id="path21909" />
    <g
       aria-label="softmax"
       transform="translate(825.683 684)"
       id="text21911"
       style="font-size:31px;font-family:'IntelOne Display Regular', 'IntelOne Display Regular_MSFontService', sans-serif">
      <path
         d="m 13.702,-4.371 q 0,2.108 -1.798,3.441 -1.798,1.333 -4.681,1.333 -1.891,0 -3.565,-0.589 -1.643,-0.62 -2.976,-1.829 l 1.302,-1.922 q 1.426,1.178 2.666,1.705 1.24,0.527 2.635,0.527 1.798,0 2.883,-0.682 1.116,-0.713 1.116,-1.829 0,-1.147 -0.93,-1.643 -0.93,-0.527 -3.069,-0.558 -3.131,-0.124 -4.588,-1.147 -1.426,-1.023 -1.426,-3.193 0,-1.984 1.643,-3.286 1.674,-1.333 4.278,-1.333 1.767,0 3.317,0.558 1.55,0.558 2.821,1.643 l -1.209,1.891 q -1.271,-1.023 -2.449,-1.488 -1.178,-0.465 -2.511,-0.465 -1.519,0 -2.511,0.682 -0.961,0.682 -0.961,1.674 0,1.085 0.868,1.581 0.868,0.496 2.759,0.589 3.379,0.093 4.867,1.116 1.519,1.023 1.519,3.224 z"
         id="path22561" />
      <path
         d="m 31.155021,-7.471 q 0,3.379 -2.263,5.673 -2.263,2.263 -5.58,2.263 -3.317,0 -5.549,-2.263 -2.201,-2.263 -2.201,-5.642 0,-3.379 2.263,-5.642 2.263,-2.294 5.58,-2.294 3.317,0 5.518,2.263 2.232,2.263 2.232,5.642 z m -13.02,0.031 q 0,2.418 1.488,4.061 1.519,1.643 3.751,1.643 2.201,0 3.689,-1.643 1.519,-1.643 1.519,-4.092 0,-2.387 -1.519,-4.03 -1.519,-1.674 -3.72,-1.674 -2.201,0 -3.72,1.643 -1.488,1.643 -1.488,4.092 z"
         id="path22563" />
      <path
         d="m 34.44103,-12.741 h -2.046 v -2.232 h 2.046 v -2.821 q 0,-1.891 0.992,-2.883 1.023,-1.023 2.914,-1.023 h 2.046 v 2.108 h -1.674 q -0.868,0 -1.302,0.465 -0.434,0.465 -0.434,1.395 v 2.759 h 3.41 v 2.232 h -3.41 V 0 h -2.542 z"
         id="path22565" />
      <path
         d="m 43.214032,-3.999 v -8.742 h -2.046 v -2.232 h 2.046 v -4.588 h 2.511 v 4.588 h 3.472 v 2.232 h -3.472 v 8.525 q 0,0.992 0.434,1.488 0.465,0.465 1.395,0.465 h 1.643 V 0 h -2.015 q -2.077,0 -3.038,-0.961 -0.93,-0.961 -0.93,-3.038 z"
         id="path22567" />
      <path
         d="m 51.739035,-14.973 h 2.48 v 1.798 q 0.837,-1.085 1.891,-1.612 1.085,-0.558 2.418,-0.558 1.55,0 2.759,0.651 1.209,0.651 1.922,1.891 0.837,-1.24 2.108,-1.891 1.302,-0.651 2.914,-0.651 2.635,0 4.185,1.705 1.581,1.705 1.581,4.433 V 0 h -2.542 v -9.052 q 0,-1.891 -0.961,-2.945 -0.93,-1.085 -2.635,-1.085 -1.674,0 -2.728,1.178 -1.023,1.147 -1.023,3.007 V 0 h -2.511 v -9.052 q 0,-1.891 -0.961,-2.945 -0.93,-1.085 -2.635,-1.085 -1.674,0 -2.728,1.178 -1.023,1.147 -1.023,3.007 V 0 h -2.511 z"
         id="path22569" />
      <path
         d="m 89.962056,0 h -2.449 v -2.449 q -0.899,1.302 -2.449,2.046 -1.519,0.713 -3.286,0.713 -2.48,0 -4.03,-1.24 -1.55,-1.271 -1.55,-3.317 0,-2.263 1.736,-3.41 1.736,-1.178 5.146,-1.178 h 4.402 q -0.031,-2.108 -1.116,-3.255 -1.054,-1.147 -3.038,-1.147 -1.178,0 -2.325,0.496 -1.147,0.496 -2.263,1.519 l -1.333,-1.674 q 1.302,-1.24 2.852,-1.86 1.55,-0.651 3.317,-0.651 3.007,0 4.681,1.798 1.705,1.767 1.705,4.898 z m -2.48,-6.882 h -4.371 q -2.263,0 -3.348,0.62 -1.085,0.62 -1.085,1.953 0,1.116 0.93,1.86 0.961,0.744 2.449,0.744 2.232,0 3.751,-1.426 1.55,-1.457 1.674,-3.751 z"
         id="path22571" />
      <path
         d="m 94.519037,0 h -2.821 l 5.828,-7.719 -5.425,-7.254 h 2.976 l 3.937,5.487 3.999003,-5.487 h 2.79 l -5.425,7.223 5.921,7.75 h -2.945 l -4.402003,-6.045 z"
         id="path22573" />
    </g>
    <g
       aria-label="8 tensors"
       transform="matrix(0.284936 0.958547 -0.958547 0.284936 809.068 560)"
       id="text21913"
       style="font-size:13px;font-family:'IntelOne Display Regular', 'IntelOne Display Regular_MSFontService', sans-serif;fill:#ffffff">
      <path
         d="m 7.345,-2.444 q 0,1.17 -0.975,1.911 -0.962,0.728 -2.483,0.728 -1.508,0 -2.47,-0.728 -0.949,-0.728 -0.949,-1.885 0,-0.78 0.455,-1.378 0.468,-0.598 1.3,-0.923 -0.728,-0.299 -1.131,-0.845 -0.39,-0.559 -0.39,-1.248 0,-1.118 0.897,-1.807 0.897,-0.689 2.327,-0.689 1.417,0 2.301,0.689 0.884,0.676 0.884,1.781 0,0.689 -0.403,1.248 -0.39,0.546 -1.118,0.858 0.832,0.312 1.287,0.91 0.468,0.598 0.468,1.378 z M 1.807,-6.773 q 0,0.715 0.585,1.157 0.585,0.442 1.521,0.442 0.936,0 1.508,-0.442 0.585,-0.442 0.585,-1.183 0,-0.689 -0.598,-1.118 -0.585,-0.429 -1.508,-0.429 -0.923,0 -1.508,0.442 -0.585,0.429 -0.585,1.131 z m -0.234,4.316 q 0,0.741 0.65,1.222 0.663,0.468 1.69,0.468 1.027,0 1.677,-0.468 0.65,-0.481 0.65,-1.248 0,-0.78 -0.65,-1.248 -0.65,-0.481 -1.69,-0.481 -1.04,0 -1.69,0.481 -0.637,0.481 -0.637,1.274 z"
         id="path22576" />
      <path
         d="m 11.244998,-1.677 v -3.666 h -0.858 v -0.936 h 0.858 v -1.924 h 1.053 v 1.924 h 1.456 v 0.936 h -1.456 v 3.575 q 0,0.416 0.182,0.624 0.195,0.195 0.585,0.195 h 0.689 V 0 h -0.845 q -0.871,0 -1.274,-0.403 -0.39,-0.403 -0.39,-1.274 z"
         id="path22578" />
      <path
         d="m 17.745006,-0.702 q 0.624,0 1.144,-0.26 0.533,-0.273 0.975,-0.819 l 0.637,0.585 q -0.533,0.702 -1.248,1.053 -0.715,0.338 -1.599,0.338 -1.417,0 -2.327,-0.923 -0.897,-0.936 -0.897,-2.392 0,-1.417 0.923,-2.366 0.923,-0.949 2.275,-0.949 1.378,0 2.236,0.897 0.858,0.897 0.858,2.34 0,0.104 -0.013,0.247 -0.013,0.13 -0.026,0.195 h -5.161 q 0.104,0.923 0.715,1.495 0.624,0.559 1.508,0.559 z m -0.104,-4.836 q -0.819,0 -1.404,0.533 -0.585,0.533 -0.715,1.43 h 4.134 q -0.117,-0.91 -0.663,-1.43 -0.546,-0.533 -1.352,-0.533 z"
         id="path22580" />
      <path
         d="m 21.788014,-6.279 h 1.04 v 0.975 q 0.377,-0.546 0.949,-0.832 0.585,-0.299 1.3,-0.299 1.248,0 1.95,0.806 0.702,0.806 0.702,2.21 V 0 h -1.053 v -3.354 q 0,-0.988 -0.494,-1.56 -0.481,-0.572 -1.352,-0.572 -0.897,0 -1.443,0.611 -0.546,0.611 -0.546,1.586 V 0 h -1.053 z"
         id="path22582" />
      <path
         d="m 34.086004,-1.833 q 0,0.884 -0.754,1.443 -0.754,0.559 -1.963,0.559 -0.793,0 -1.495,-0.247 -0.689,-0.26 -1.248,-0.767 l 0.546,-0.806 q 0.598,0.494 1.118,0.715 0.52,0.221 1.105,0.221 0.754,0 1.209,-0.286 0.468,-0.299 0.468,-0.767 0,-0.481 -0.39,-0.689 -0.39,-0.221 -1.287,-0.234 -1.313,-0.052 -1.924,-0.481 -0.598,-0.429 -0.598,-1.339 0,-0.832 0.689,-1.378 0.702,-0.559 1.794,-0.559 0.741,0 1.391,0.234 0.65,0.234 1.183,0.689 l -0.507,0.793 q -0.533,-0.429 -1.027,-0.624 -0.494,-0.195 -1.053,-0.195 -0.637,0 -1.053,0.286 -0.403,0.286 -0.403,0.702 0,0.455 0.364,0.663 0.364,0.208 1.157,0.247 1.417,0.039 2.041,0.468 0.637,0.429 0.637,1.352 z"
         id="path22584" />
      <path
         d="m 41.405013,-3.133 q 0,1.417 -0.949,2.379 -0.949,0.949 -2.34,0.949 -1.391,0 -2.327,-0.949 -0.923,-0.949 -0.923,-2.366 0,-1.417 0.949,-2.366 0.949,-0.962 2.34,-0.962 1.391,0 2.314,0.949 0.936,0.949 0.936,2.366 z m -5.46,0.013 q 0,1.014 0.624,1.703 0.637,0.689 1.573,0.689 0.923,0 1.547,-0.689 0.637,-0.689 0.637,-1.716 0,-1.001 -0.637,-1.69 -0.637,-0.702 -1.56,-0.702 -0.923,0 -1.56,0.689 -0.624,0.689 -0.624,1.716 z"
         id="path22586" />
      <path
         d="m 42.497022,-6.279 h 1.04 v 0.793 q 0.286,-0.416 0.741,-0.624 0.455,-0.208 1.079,-0.208 h 0.572 v 1.001 h -0.585 q -0.897,0 -1.352,0.468 -0.442,0.468 -0.442,1.417 V 0 h -1.053 z"
         id="path22588" />
      <path
         d="m 51.844019,-1.833 q 0,0.884 -0.754,1.443 -0.754,0.559 -1.963,0.559 -0.793,0 -1.495,-0.247 -0.689,-0.26 -1.248,-0.767 l 0.546,-0.806 q 0.598,0.494 1.118,0.715 0.52,0.221 1.105,0.221 0.754,0 1.209,-0.286 0.468,-0.299 0.468,-0.767 0,-0.481 -0.39,-0.689 -0.39,-0.221 -1.287,-0.234 -1.313,-0.052 -1.924,-0.481 -0.598,-0.429 -0.598,-1.339 0,-0.832 0.689,-1.378 0.702,-0.559 1.794,-0.559 0.741,0 1.391,0.234 0.65,0.234 1.183,0.689 l -0.507,0.793 q -0.533,-0.429 -1.027,-0.624 -0.494,-0.195 -1.053,-0.195 -0.637,0 -1.053,0.286 -0.403,0.286 -0.403,0.702 0,0.455 0.364,0.663 0.364,0.208 1.157,0.247 1.417,0.039 2.041,0.468 0.637,0.429 0.637,1.352 z"
         id="path22590" />
    </g>
    <g
       aria-label="3 tensors"
       transform="matrix(0.652178 0.758066 -0.758066 0.652178 485.038 462)"
       id="text21915"
       style="font-size:13px;font-family:'IntelOne Display Regular', 'IntelOne Display Regular_MSFontService', sans-serif">
      <path
         d="m 3.783,-0.78 q 0.923,0 1.534,-0.507 0.624,-0.52 0.624,-1.287 0,-0.806 -0.637,-1.274 Q 4.68,-4.316 3.562,-4.316 H 2.99 v -0.923 h 0.546 q 1.027,0 1.625,-0.442 0.598,-0.455 0.598,-1.157 0,-0.65 -0.546,-1.066 -0.546,-0.416 -1.43,-0.416 -0.936,0 -1.495,0.507 -0.546,0.494 -0.611,1.365 H 0.611 q 0.039,-1.222 0.923,-2.041 0.897,-0.819 2.301,-0.819 1.339,0 2.184,0.689 0.858,0.676 0.858,1.69 0,0.754 -0.442,1.313 -0.429,0.559 -1.248,0.845 0.936,0.26 1.404,0.819 0.468,0.559 0.468,1.43 0,1.157 -0.936,1.95 -0.936,0.78 -2.366,0.78 -1.521,0 -2.418,-0.819 -0.884,-0.832 -0.897,-2.275 h 1.053 q 0.052,1.014 0.637,1.56 0.598,0.546 1.651,0.546 z"
         id="path22593" />
      <path
         d="m 10.971999,-1.677 v -3.666 h -0.858 v -0.936 h 0.858 v -1.924 h 1.053 v 1.924 h 1.456 v 0.936 h -1.456 v 3.575 q 0,0.416 0.182,0.624 0.195,0.195 0.585,0.195 h 0.689 V 0 h -0.845 q -0.871,0 -1.274,-0.403 -0.39,-0.403 -0.39,-1.274 z"
         id="path22595" />
      <path
         d="m 17.472007,-0.702 q 0.624,0 1.144,-0.26 0.533,-0.273 0.975,-0.819 l 0.637,0.585 q -0.533,0.702 -1.248,1.053 -0.715,0.338 -1.599,0.338 -1.417,0 -2.327,-0.923 -0.897,-0.936 -0.897,-2.392 0,-1.417 0.923,-2.366 0.923,-0.949 2.275,-0.949 1.378,0 2.236,0.897 0.858,0.897 0.858,2.34 0,0.104 -0.013,0.247 -0.013,0.13 -0.026,0.195 h -5.161 q 0.104,0.923 0.715,1.495 0.624,0.559 1.508,0.559 z m -0.104,-4.836 q -0.819,0 -1.404,0.533 -0.585,0.533 -0.715,1.43 h 4.134 q -0.117,-0.91 -0.663,-1.43 -0.546,-0.533 -1.352,-0.533 z"
         id="path22597" />
      <path
         d="m 21.515015,-6.279 h 1.04 v 0.975 q 0.377,-0.546 0.949,-0.832 0.585,-0.299 1.3,-0.299 1.248,0 1.95,0.806 0.702,0.806 0.702,2.21 V 0 h -1.053 v -3.354 q 0,-0.988 -0.494,-1.56 -0.481,-0.572 -1.352,-0.572 -0.897,0 -1.443,0.611 -0.546,0.611 -0.546,1.586 V 0 h -1.053 z"
         id="path22599" />
      <path
         d="m 33.813005,-1.833 q 0,0.884 -0.754,1.443 -0.754,0.559 -1.963,0.559 -0.793,0 -1.495,-0.247 -0.689,-0.26 -1.248,-0.767 l 0.546,-0.806 q 0.598,0.494 1.118,0.715 0.52,0.221 1.105,0.221 0.754,0 1.209,-0.286 0.468,-0.299 0.468,-0.767 0,-0.481 -0.39,-0.689 -0.39,-0.221 -1.287,-0.234 -1.313,-0.052 -1.924,-0.481 -0.598,-0.429 -0.598,-1.339 0,-0.832 0.689,-1.378 0.702,-0.559 1.794,-0.559 0.741,0 1.391,0.234 0.65,0.234 1.183,0.689 l -0.507,0.793 q -0.533,-0.429 -1.027,-0.624 -0.494,-0.195 -1.053,-0.195 -0.637,0 -1.053,0.286 -0.403,0.286 -0.403,0.702 0,0.455 0.364,0.663 0.364,0.208 1.157,0.247 1.417,0.039 2.041,0.468 0.637,0.429 0.637,1.352 z"
         id="path22601" />
      <path
         d="m 41.132014,-3.133 q 0,1.417 -0.949,2.379 -0.949,0.949 -2.34,0.949 -1.391,0 -2.327,-0.949 -0.923,-0.949 -0.923,-2.366 0,-1.417 0.949,-2.366 0.949,-0.962 2.34,-0.962 1.391,0 2.314,0.949 0.936,0.949 0.936,2.366 z m -5.46,0.013 q 0,1.014 0.624,1.703 0.637,0.689 1.573,0.689 0.923,0 1.547,-0.689 0.637,-0.689 0.637,-1.716 0,-1.001 -0.637,-1.69 -0.637,-0.702 -1.56,-0.702 -0.923,0 -1.56,0.689 -0.624,0.689 -0.624,1.716 z"
         id="path22603" />
      <path
         d="m 42.224019,-6.279 h 1.04 v 0.793 q 0.286,-0.416 0.741,-0.624 0.455,-0.208 1.079,-0.208 h 0.572 v 1.001 h -0.585 q -0.897,0 -1.352,0.468 -0.442,0.468 -0.442,1.417 V 0 h -1.053 z"
         id="path22605" />
      <path
         d="m 51.57102,-1.833 q 0,0.884 -0.754,1.443 -0.754,0.559 -1.963,0.559 -0.793,0 -1.495,-0.247 -0.689,-0.26 -1.248,-0.767 l 0.546,-0.806 q 0.598,0.494 1.118,0.715 0.52,0.221 1.105,0.221 0.754,0 1.209,-0.286 0.468,-0.299 0.468,-0.767 0,-0.481 -0.39,-0.689 -0.39,-0.221 -1.287,-0.234 -1.313,-0.052 -1.924,-0.481 -0.598,-0.429 -0.598,-1.339 0,-0.832 0.689,-1.378 0.702,-0.559 1.794,-0.559 0.741,0 1.391,0.234 0.65,0.234 1.183,0.689 l -0.507,0.793 q -0.533,-0.429 -1.027,-0.624 -0.494,-0.195 -1.053,-0.195 -0.637,0 -1.053,0.286 -0.403,0.286 -0.403,0.702 0,0.455 0.364,0.663 0.364,0.208 1.157,0.247 1.417,0.039 2.041,0.468 0.637,0.429 0.637,1.352 z"
         id="path22607" />
    </g>
    <g
       aria-label="3 tensors"
       transform="matrix(0.775552 -0.631284 0.631284 0.775552 178.391 506)"
       id="text21917"
       style="font-size:13px;font-family:'IntelOne Display Regular', 'IntelOne Display Regular_MSFontService', sans-serif">
      <path
         d="m 3.783,-0.78 q 0.923,0 1.534,-0.507 0.624,-0.52 0.624,-1.287 0,-0.806 -0.637,-1.274 Q 4.68,-4.316 3.562,-4.316 H 2.99 v -0.923 h 0.546 q 1.027,0 1.625,-0.442 0.598,-0.455 0.598,-1.157 0,-0.65 -0.546,-1.066 -0.546,-0.416 -1.43,-0.416 -0.936,0 -1.495,0.507 -0.546,0.494 -0.611,1.365 H 0.611 q 0.039,-1.222 0.923,-2.041 0.897,-0.819 2.301,-0.819 1.339,0 2.184,0.689 0.858,0.676 0.858,1.69 0,0.754 -0.442,1.313 -0.429,0.559 -1.248,0.845 0.936,0.26 1.404,0.819 0.468,0.559 0.468,1.43 0,1.157 -0.936,1.95 -0.936,0.78 -2.366,0.78 -1.521,0 -2.418,-0.819 -0.884,-0.832 -0.897,-2.275 h 1.053 q 0.052,1.014 0.637,1.56 0.598,0.546 1.651,0.546 z"
         id="path22610" />
      <path
         d="m 10.971999,-1.677 v -3.666 h -0.858 v -0.936 h 0.858 v -1.924 h 1.053 v 1.924 h 1.456 v 0.936 h -1.456 v 3.575 q 0,0.416 0.182,0.624 0.195,0.195 0.585,0.195 h 0.689 V 0 h -0.845 q -0.871,0 -1.274,-0.403 -0.39,-0.403 -0.39,-1.274 z"
         id="path22612" />
      <path
         d="m 17.472007,-0.702 q 0.624,0 1.144,-0.26 0.533,-0.273 0.975,-0.819 l 0.637,0.585 q -0.533,0.702 -1.248,1.053 -0.715,0.338 -1.599,0.338 -1.417,0 -2.327,-0.923 -0.897,-0.936 -0.897,-2.392 0,-1.417 0.923,-2.366 0.923,-0.949 2.275,-0.949 1.378,0 2.236,0.897 0.858,0.897 0.858,2.34 0,0.104 -0.013,0.247 -0.013,0.13 -0.026,0.195 h -5.161 q 0.104,0.923 0.715,1.495 0.624,0.559 1.508,0.559 z m -0.104,-4.836 q -0.819,0 -1.404,0.533 -0.585,0.533 -0.715,1.43 h 4.134 q -0.117,-0.91 -0.663,-1.43 -0.546,-0.533 -1.352,-0.533 z"
         id="path22614" />
      <path
         d="m 21.515015,-6.279 h 1.04 v 0.975 q 0.377,-0.546 0.949,-0.832 0.585,-0.299 1.3,-0.299 1.248,0 1.95,0.806 0.702,0.806 0.702,2.21 V 0 h -1.053 v -3.354 q 0,-0.988 -0.494,-1.56 -0.481,-0.572 -1.352,-0.572 -0.897,0 -1.443,0.611 -0.546,0.611 -0.546,1.586 V 0 h -1.053 z"
         id="path22616" />
      <path
         d="m 33.813005,-1.833 q 0,0.884 -0.754,1.443 -0.754,0.559 -1.963,0.559 -0.793,0 -1.495,-0.247 -0.689,-0.26 -1.248,-0.767 l 0.546,-0.806 q 0.598,0.494 1.118,0.715 0.52,0.221 1.105,0.221 0.754,0 1.209,-0.286 0.468,-0.299 0.468,-0.767 0,-0.481 -0.39,-0.689 -0.39,-0.221 -1.287,-0.234 -1.313,-0.052 -1.924,-0.481 -0.598,-0.429 -0.598,-1.339 0,-0.832 0.689,-1.378 0.702,-0.559 1.794,-0.559 0.741,0 1.391,0.234 0.65,0.234 1.183,0.689 l -0.507,0.793 q -0.533,-0.429 -1.027,-0.624 -0.494,-0.195 -1.053,-0.195 -0.637,0 -1.053,0.286 -0.403,0.286 -0.403,0.702 0,0.455 0.364,0.663 0.364,0.208 1.157,0.247 1.417,0.039 2.041,0.468 0.637,0.429 0.637,1.352 z"
         id="path22618" />
      <path
         d="m 41.132014,-3.133 q 0,1.417 -0.949,2.379 -0.949,0.949 -2.34,0.949 -1.391,0 -2.327,-0.949 -0.923,-0.949 -0.923,-2.366 0,-1.417 0.949,-2.366 0.949,-0.962 2.34,-0.962 1.391,0 2.314,0.949 0.936,0.949 0.936,2.366 z m -5.46,0.013 q 0,1.014 0.624,1.703 0.637,0.689 1.573,0.689 0.923,0 1.547,-0.689 0.637,-0.689 0.637,-1.716 0,-1.001 -0.637,-1.69 -0.637,-0.702 -1.56,-0.702 -0.923,0 -1.56,0.689 -0.624,0.689 -0.624,1.716 z"
         id="path22620" />
      <path
         d="m 42.224019,-6.279 h 1.04 v 0.793 q 0.286,-0.416 0.741,-0.624 0.455,-0.208 1.079,-0.208 h 0.572 v 1.001 h -0.585 q -0.897,0 -1.352,0.468 -0.442,0.468 -0.442,1.417 V 0 h -1.053 z"
         id="path22622" />
      <path
         d="m 51.57102,-1.833 q 0,0.884 -0.754,1.443 -0.754,0.559 -1.963,0.559 -0.793,0 -1.495,-0.247 -0.689,-0.26 -1.248,-0.767 l 0.546,-0.806 q 0.598,0.494 1.118,0.715 0.52,0.221 1.105,0.221 0.754,0 1.209,-0.286 0.468,-0.299 0.468,-0.767 0,-0.481 -0.39,-0.689 -0.39,-0.221 -1.287,-0.234 -1.313,-0.052 -1.924,-0.481 -0.598,-0.429 -0.598,-1.339 0,-0.832 0.689,-1.378 0.702,-0.559 1.794,-0.559 0.741,0 1.391,0.234 0.65,0.234 1.183,0.689 l -0.507,0.793 q -0.533,-0.429 -1.027,-0.624 -0.494,-0.195 -1.053,-0.195 -0.637,0 -1.053,0.286 -0.403,0.286 -0.403,0.702 0,0.455 0.364,0.663 0.364,0.208 1.157,0.247 1.417,0.039 2.041,0.468 0.637,0.429 0.637,1.352 z"
         id="path22624" />
    </g>
    <g
       aria-label="Reshape_3concat"
       transform="translate(742.754 252)"
       id="text21921"
       style="font-size:20px;font-family:'IntelOne Display Regular', 'IntelOne Display Regular_MSFontService', sans-serif">
      <path
         d="M 8.8,-5.9 12.78,0 H 10.74 L 6.96,-5.7 H 3.02 V 0 H 1.3 v -14 h 6.16 q 2.36,0 3.68,1.1 1.32,1.08 1.32,2.98 0,1.56 -0.96,2.62 -0.96,1.06 -2.7,1.4 z m 1.92,-3.98 q 0,-1.22 -0.88,-1.9 -0.86,-0.7 -2.42,-0.7 h -4.4 v 5.28 h 4.26 q 1.58,0 2.5,-0.72 0.94,-0.74 0.94,-1.96 z"
         id="path22627" />
      <path
         d="m 18.779998,-1.08 q 0.96,0 1.76,-0.4 0.82,-0.42 1.5,-1.26 l 0.98,0.9 q -0.82,1.08 -1.92,1.62 -1.1,0.52 -2.46,0.52 -2.18,0 -3.58,-1.42 -1.38,-1.44 -1.38,-3.68 0,-2.18 1.42,-3.64 1.42,-1.46 3.5,-1.46 2.12,0 3.44,1.38 1.32,1.38 1.32,3.6 0,0.16 -0.02,0.38 -0.02,0.2 -0.04,0.3 h -7.94 q 0.16,1.42 1.1,2.3 0.96,0.86 2.32,0.86 z m -0.16,-7.44 q -1.26,0 -2.16,0.82 -0.9,0.82 -1.1,2.2 h 6.36 q -0.18,-1.4 -1.02,-2.2 -0.84,-0.82 -2.08,-0.82 z"
         id="path22629" />
      <path
         d="m 32.78001,-2.82 q 0,1.36 -1.16,2.22 -1.16,0.86 -3.02,0.86 -1.22,0 -2.3,-0.38 -1.06,-0.4 -1.92,-1.18 l 0.84,-1.24 q 0.92,0.76 1.72,1.1 0.8,0.34 1.7,0.34 1.16,0 1.86,-0.44 0.72,-0.46 0.72,-1.18 0,-0.74 -0.6,-1.06 -0.6,-0.34 -1.98,-0.36 -2.02,-0.08 -2.96,-0.74 -0.92,-0.66 -0.92,-2.06 0,-1.28 1.06,-2.12 1.08,-0.86 2.76,-0.86 1.14,0 2.14,0.36 1,0.36 1.82,1.06 l -0.78,1.22 q -0.82,-0.66 -1.58,-0.96 -0.76,-0.3 -1.62,-0.3 -0.98,0 -1.62,0.44 -0.62,0.44 -0.62,1.08 0,0.7 0.56,1.02 0.56,0.32 1.78,0.38 2.18,0.06 3.14,0.72 0.98,0.66 0.98,2.08 z"
         id="path22631" />
      <path
         d="m 34.420023,-14 h 1.62 v 5.8 q 0.58,-0.82 1.44,-1.26 0.88,-0.44 1.96,-0.44 1.94,0 3.02,1.24 1.1,1.24 1.1,3.4 V 0 h -1.62 v -5.16 q 0,-1.54 -0.76,-2.4 -0.76,-0.88 -2.12,-0.88 -1.36,0 -2.2,0.94 -0.82,0.94 -0.82,2.44 V 0 h -1.62 z"
         id="path22633" />
      <path
         d="m 53.860008,0 h -1.58 v -1.58 q -0.58,0.84 -1.58,1.32 -0.98,0.46 -2.12,0.46 -1.6,0 -2.6,-0.8 -1,-0.82 -1,-2.14 0,-1.46 1.12,-2.2 1.12,-0.76 3.32,-0.76 h 2.84 q -0.02,-1.36 -0.72,-2.1 -0.68,-0.74 -1.96,-0.74 -0.76,0 -1.5,0.32 -0.74,0.32 -1.46,0.98 l -0.86,-1.08 q 0.84,-0.8 1.84,-1.2 1,-0.42 2.14,-0.42 1.94,0 3.02,1.16 1.1,1.14 1.1,3.16 z m -1.6,-4.44 h -2.82 q -1.46,0 -2.16,0.4 -0.7,0.4 -0.7,1.26 0,0.72 0.6,1.2 0.62,0.48 1.58,0.48 1.44,0 2.42,-0.92 1,-0.94 1.08,-2.42 z"
         id="path22635" />
      <path
         d="m 57.479995,3.6 h -1.62 V -9.66 h 1.6 v 1.56 q 0.64,-0.84 1.58,-1.3 0.94,-0.48 2,-0.48 2.04,0 3.4,1.42 1.36,1.4 1.36,3.6 0,2.22 -1.42,3.66 -1.4,1.42 -3.46,1.42 -0.98,0 -1.9,-0.4 -0.9,-0.42 -1.54,-1.18 z m 3.38,-12.04 q -1.46,0 -2.46,1.06 -0.98,1.04 -0.98,2.6 0,1.54 0.96,2.56 0.98,1.02 2.42,1.02 1.48,0 2.4,-0.98 0.94,-1 0.94,-2.64 0,-1.62 -0.92,-2.62 -0.9,-1 -2.36,-1 z"
         id="path22637" />
      <path
         d="m 72.139983,-1.08 q 0.96,0 1.76,-0.4 0.82,-0.42 1.5,-1.26 l 0.98,0.9 q -0.82,1.08 -1.92,1.62 -1.1,0.52 -2.46,0.52 -2.18,0 -3.58,-1.42 -1.38,-1.44 -1.38,-3.68 0,-2.18 1.42,-3.64 1.42,-1.46 3.5,-1.46 2.12,0 3.44,1.38 1.32,1.38 1.32,3.6 0,0.16 -0.02,0.38 -0.02,0.2 -0.04,0.3 h -7.94 q 0.16,1.42 1.1,2.3 0.96,0.86 2.32,0.86 z m -0.16,-7.44 q -1.26,0 -2.16,0.82 -0.9,0.82 -1.1,2.2 h 6.36 q -0.18,-1.4 -1.02,-2.2 -0.84,-0.82 -2.08,-0.82 z"
         id="path22639" />
      <path
         d="M 77.259995,2.58 V 1.12 h 10.16 v 1.46 z"
         id="path22641" />
      <path
         d="m 93.19999,-1.2 q 1.42,0 2.36,-0.78 0.96,-0.8 0.96,-1.98 0,-1.24 -0.98,-1.96 -0.96,-0.72 -2.68,-0.72 h -0.88 v -1.42 h 0.84 q 1.58,0 2.5,-0.68 0.92,-0.7 0.92,-1.78 0,-1 -0.84,-1.64 -0.84,-0.64 -2.2,-0.64 -1.44,0 -2.3,0.78 -0.84,0.76 -0.94,2.1 h -1.64 q 0.06,-1.88 1.42,-3.14 1.38,-1.26 3.54,-1.26 2.06,0 3.36,1.06 1.32,1.04 1.32,2.6 0,1.16 -0.68,2.02 -0.66,0.86 -1.92,1.3 1.44,0.4 2.16,1.26 0.72,0.86 0.72,2.2 0,1.78 -1.44,3 -1.44,1.2 -3.64,1.2 -2.34,0 -3.72,-1.26 -1.36,-1.28 -1.38,-3.5 h 1.62 q 0.08,1.56 0.98,2.4 0.92,0.84 2.54,0.84 z"
         id="path22643" />
      <path
         d="m 27.1359,233.3 q -2.22,0 -3.62,-1.4 -1.38,-1.42 -1.38,-3.7 0,-2.16 1.46,-3.64 1.46,-1.48 3.58,-1.48 1.54,0 2.62,0.72 1.1,0.7 1.66,2.04 l -1.38,0.66 q -0.46,-1 -1.2,-1.5 -0.72,-0.5 -1.72,-0.5 -1.42,0 -2.4,1.08 -0.96,1.06 -0.96,2.62 0,1.58 0.96,2.64 0.98,1.04 2.44,1.04 0.94,0 1.74,-0.5 0.82,-0.52 1.32,-1.44 l 1.26,0.68 q -0.58,1.24 -1.74,1.96 -1.16,0.72 -2.64,0.72 z"
         id="path22645" />
      <path
         d="m 42.755897,228.18 q 0,2.18 -1.46,3.66 -1.46,1.46 -3.6,1.46 -2.14,0 -3.58,-1.46 -1.42,-1.46 -1.42,-3.64 0,-2.18 1.46,-3.64 1.46,-1.48 3.6,-1.48 2.14,0 3.56,1.46 1.44,1.46 1.44,3.64 z m -8.4,0.02 q 0,1.56 0.96,2.62 0.98,1.06 2.42,1.06 1.42,0 2.38,-1.06 0.98,-1.06 0.98,-2.64 0,-1.54 -0.98,-2.6 -0.98,-1.08 -2.4,-1.08 -1.42,0 -2.4,1.06 -0.96,1.06 -0.96,2.64 z"
         id="path22647" />
      <path
         d="m 44.435908,223.34 h 1.6 v 1.5 q 0.58,-0.84 1.46,-1.28 0.9,-0.46 2,-0.46 1.92,0 3,1.24 1.08,1.24 1.08,3.4 V 233 h -1.62 v -5.16 q 0,-1.52 -0.76,-2.4 -0.74,-0.88 -2.08,-0.88 -1.38,0 -2.22,0.94 -0.84,0.94 -0.84,2.44 V 233 h -1.62 z"
         id="path22649" />
      <path
         d="m 60.135892,233.3 q -2.22,0 -3.62,-1.4 -1.38,-1.42 -1.38,-3.7 0,-2.16 1.46,-3.64 1.46,-1.48 3.58,-1.48 1.54,0 2.62,0.72 1.1,0.7 1.66,2.04 l -1.38,0.66 q -0.46,-1 -1.2,-1.5 -0.72,-0.5 -1.72,-0.5 -1.42,0 -2.4,1.08 -0.96,1.06 -0.96,2.62 0,1.58 0.96,2.64 0.98,1.04 2.44,1.04 0.94,0 1.74,-0.5 0.82,-0.52 1.32,-1.44 l 1.26,0.68 q -0.58,1.24 -1.74,1.96 -1.16,0.72 -2.64,0.72 z"
         id="path22651" />
      <path
         d="m 74.43589,233 h -1.58 v -1.58 q -0.58,0.84 -1.58,1.32 -0.98,0.46 -2.12,0.46 -1.6,0 -2.6,-0.8 -1,-0.82 -1,-2.14 0,-1.46 1.12,-2.2 1.12,-0.76 3.32,-0.76 h 2.84 q -0.02,-1.36 -0.72,-2.1 -0.68,-0.74 -1.96,-0.74 -0.76,0 -1.5,0.32 -0.74,0.32 -1.46,0.98 l -0.86,-1.08 q 0.84,-0.8 1.84,-1.2 1,-0.42 2.14,-0.42 1.94,0 3.02,1.16 1.1,1.14 1.1,3.16 z m -1.6,-4.44 h -2.82 q -1.46,0 -2.16,0.4 -0.7,0.4 -0.7,1.26 0,0.72 0.6,1.2 0.62,0.48 1.58,0.48 1.44,0 2.42,-0.92 1,-0.94 1.08,-2.42 z"
         id="path22653" />
      <path
         d="m 76.875894,230.42 v -5.64 h -1.32 v -1.44 h 1.32 v -2.96 h 1.62 v 2.96 h 2.24 v 1.44 h -2.24 v 5.5 q 0,0.64 0.28,0.96 0.3,0.3 0.9,0.3 h 1.06 V 233 h -1.3 q -1.34,0 -1.96,-0.62 -0.6,-0.62 -0.6,-1.96 z"
         id="path22655" />
    </g>
  </g>
</svg>
