<svg width="64" height="64" viewBox="0 0 64 64" fill="none" xmlns="http://www.w3.org/2000/svg">
<path d="M20.0001 40L13.0393 40C12.1484 40 11.7022 41.0771 12.3322 41.7071L23.293 51.6679C23.4882 51.8631 23.7442 52 24.0001 52C24.256 52 24.5119 51.8631 24.7072 51.6679L35.668 41.7071C36.298 41.0771 35.8518 40 34.9609 40L28.0001 40L28.0001 33C28.0001 32.4477 27.5524 32 27.0001 32L21.0001 32C20.4479 32 20.0001 32.4477 20.0001 33L20.0001 40Z" fill="#2D3741"/>
<path d="M36.0002 24L29.0393 24C28.1484 24 27.7022 22.9229 28.3322 22.2929L39.293 12.3321C39.4883 12.1369 39.7442 12 40.0001 12C40.256 12 40.5119 12.1369 40.7072 12.3321L51.668 22.2929C52.298 22.9229 51.8518 24 50.9609 24L44.0002 24L44.0002 31C44.0002 31.5523 43.5524 32 43.0002 32L37.0002 32C36.4479 32 36.0002 31.5523 36.0002 31L36.0002 24Z" fill="#2D3741"/>
</svg>
