<svg width="24" height="24" viewBox="0 0 24 24" fill="none" xmlns="http://www.w3.org/2000/svg">
<path fill-rule="evenodd" clip-rule="evenodd" d="M9.375 15.0009C9.16789 15.0009 9 14.833 9 14.6259L9 10.6559C9 10.5564 9.03951 10.461 9.10984 10.3907L19.2345 0.266085C19.3809 0.119638 19.6183 0.119639 19.7648 0.266085L23.7348 4.23612C23.8813 4.38257 23.8813 4.62 23.7348 4.76645L13.6102 14.8911C13.5399 14.9614 13.4445 15.0009 13.345 15.0009H9.375ZM11.25 11.4325L11.25 12.7509H12.5684L13.317 12.0023L11.9986 10.6839L11.25 11.4325ZM20.818 4.50129L14.908 10.4113L13.5896 9.09292L19.4996 3.1829L20.818 4.50129Z" fill="#0054AE"/>
<path d="M11.625 5.25055C11.8321 5.25055 12 5.08266 12 4.87555V3.37555C12 3.16845 11.8321 3.00055 11.625 3.00055H3.375C3.16789 3.00055 3 3.16845 3 3.37555V20.6256C3 20.8327 3.16789 21.0006 3.375 21.0006H20.625C20.8321 21.0006 21 20.8327 21 20.6256V12.3756C21 12.1684 20.8321 12.0006 20.625 12.0006H19.125C18.9179 12.0006 18.75 12.1684 18.75 12.3756V18.7506H5.25V5.25055H11.625Z" fill="#0054AE"/>
</svg>
