<svg width="16" height="16" id="Layer_1" data-name="Layer 1" xmlns="http://www.w3.org/2000/svg" viewBox="0 0 16 16">
  <defs>
    <style>.cls-1{fill:#2b2c30;}</style>
  </defs>
  <path class="cls-1" d="M8.74,7.22H8.68V3.54h.08a4.26,4.26,0,0,1,2.53,1.3h0a.28.28,0,0,0,.38,0l.38-.38a.28.28,0,0,0,0-.38h0l0,0A5.05,5.05,0,0,0,8.76,2.5H8.68V1.25A.25.25,0,0,0,8.43,1h-.5a.26.26,0,0,0-.26.25V2.48H7.6c-2.1.17-3.5,1.39-3.5,3S5.21,8.08,7.61,8.29h.06v3.93H7.59A5.21,5.21,0,0,1,4.52,10.6h0l0,0h0a.26.26,0,0,0-.36,0L3.74,11a.28.28,0,0,0,0,.38l0,0h0A5.64,5.64,0,0,0,7.6,13.23h.07v1.51a.26.26,0,0,0,.26.25h.5a.25.25,0,0,0,.25-.25V13.24h.08c2.1-.2,3.57-1.49,3.57-3.15C12.33,8.27,11.26,7.42,8.74,7.22ZM7.6,7.2C6,7,5.25,6.5,5.25,5.41s.94-1.76,2.35-1.9h.07v3.7Zm1.16,5H8.68V8.29h.08c1.68.16,2.44.74,2.44,1.89S10.19,12.05,8.76,12.22Z" />
</svg>