<svg width="16" height="16" id="Layer_1" data-name="Layer 1" xmlns="http://www.w3.org/2000/svg" viewBox="0 0 16 16">
  <defs>
    <style>.cls-1{fill:#2b2c30;fill-rule:evenodd;}</style>
  </defs>
  <path class="cls-1" d="M12.75,1a.25.25,0,0,1,.25.25v.5a.25.25,0,0,1-.25.25H12V3A5.93,5.93,0,0,1,9.66,8,5.91,5.91,0,0,1,12,13h0v1h.75a.25.25,0,0,1,.25.25v.5a.25.25,0,0,1-.25.25H3.25A.25.25,0,0,1,3,14.75v-.5A.25.25,0,0,1,3.25,14H4V13A5.91,5.91,0,0,1,6.34,8,5.93,5.93,0,0,1,4,3V2H3.25A.25.25,0,0,1,3,1.75v-.5A.25.25,0,0,1,3.25,1ZM5,13.06A5.68,5.68,0,0,1,6,9.74,2.55,2.55,0,0,1,8,8.53a2.55,2.55,0,0,1,2,1.21,5.68,5.68,0,0,1,1,3.32V14H5ZM5,2V3A5.74,5.74,0,0,0,6,6.33a2.56,2.56,0,0,0,2,1.2,2.56,2.56,0,0,0,2-1.2A5.74,5.74,0,0,0,11,3V2Z" />
</svg>