<svg width="41" height="48" viewBox="0 0 41 48" fill="none" xmlns="http://www.w3.org/2000/svg">
<g clip-path="url(#clip0_5571_85779)">
<path d="M4.7976 0H0V4.7976H4.7976V0Z" fill="#00C7FD"/>
<path d="M31.5442 47.9995H2.3988C1.7626 47.9995 1.15246 47.7467 0.702593 47.2969C0.252731 46.847 0 46.2369 0 45.6007V7.21984H4.7976V43.2018H29.6252L35.982 37.0849V4.82104H7.1964V0.0234375H38.3808C39.017 0.0234375 39.6272 0.276167 40.077 0.72603C40.5269 1.17589 40.7796 1.78604 40.7796 2.42224V39.1479L31.5442 47.9995Z" fill="#0054AE"/>
<path d="M31.75 32.4277H22V35.9992H31.75V32.4277Z" fill="#0054AE"/>
<path d="M18.75 25.2852H9V28.8566H18.75V25.2852Z" fill="#0054AE"/>
<path d="M31.75 25.2852H22V28.8566H31.75V25.2852Z" fill="#0054AE"/>
<path d="M18.75 18.1426H9V21.714H18.75V18.1426Z" fill="#0054AE"/>
<path d="M31.75 18.1426H22V21.714H31.75V18.1426Z" fill="#0054AE"/>
<path d="M18.75 11H9V14.5714H18.75V11Z" fill="#0054AE"/>
<path d="M31.75 11H22V14.5714H31.75V11Z" fill="#0054AE"/>
<path d="M18.75 32.4277H9V35.9992H18.75V32.4277Z" fill="#0054AE"/>
</g>
<defs>
<clipPath id="clip0_5571_85779">
<rect width="40.7796" height="48" fill="white"/>
</clipPath>
</defs>
</svg>
