<svg width="16" height="16" id="Layer_1" data-name="Layer 1" xmlns="http://www.w3.org/2000/svg" viewBox="0 0 16 16">
  <defs>
    <style>.cls-1{fill:#2b2c30;}</style>
  </defs>
  <path class="cls-1" d="M8.5,12.5H1.75a.25.25,0,0,1-.25-.25v-.5a.25.25,0,0,1,.25-.25H8.5V9.75a.26.26,0,0,1,.43-.18l2.49,2.25a.24.24,0,0,1,0,.36L8.93,14.43a.26.26,0,0,1-.43-.18Z" />
  <path class="cls-1" d="M11.5,8.5H1.75a.25.25,0,0,1-.25-.25v-.5a.25.25,0,0,1,.25-.25H11.5V5.75a.26.26,0,0,1,.43-.18l2.49,2.25a.24.24,0,0,1,0,.36l-2.49,2.25a.26.26,0,0,1-.43-.18Z" />
  <path class="cls-1" d="M1.75,4.5H8.5V6.25a.26.26,0,0,0,.43.18l2.49-2.25a.24.24,0,0,0,0-.36L8.93,1.57a.26.26,0,0,0-.43.18V3.5H1.75a.25.25,0,0,0-.25.25v.5A.25.25,0,0,0,1.75,4.5Z" />
</svg>