<svg width="41" height="48" viewBox="0 0 41 48" fill="none" xmlns="http://www.w3.org/2000/svg">
<g clip-path="url(#clip0_5571_85767)">
<path d="M4.7976 0H0V4.7976H4.7976V0Z" fill="#00C7FD"/>
<path d="M31.1844 12.0176H9.59521V15.6158H31.1844V12.0176Z" fill="#0054AE"/>
<path d="M31.1844 32.4082H9.59521V36.0064H31.1844V32.4082Z" fill="#0054AE"/>
<path d="M31.1844 22.2129H9.59521V25.8111H31.1844V22.2129Z" fill="#0054AE"/>
<path d="M31.5442 47.9995H2.3988C1.7626 47.9995 1.15246 47.7467 0.702593 47.2969C0.252731 46.847 0 46.2369 0 45.6007V7.21984H4.7976V43.2018H29.6252L35.982 37.0849V4.82104H7.1964V0.0234375H38.3808C39.017 0.0234375 39.6272 0.276167 40.077 0.72603C40.5269 1.17589 40.7796 1.78604 40.7796 2.42224V39.1479L31.5442 47.9995Z" fill="#0054AE"/>
</g>
<defs>
<clipPath id="clip0_5571_85767">
<rect width="40.7796" height="48" fill="white"/>
</clipPath>
</defs>
</svg>
