<svg width="64" height="64" viewBox="0 0 64 64" fill="none" xmlns="http://www.w3.org/2000/svg">
<path d="M19.039 28H27.9998V5C27.9998 4.44772 28.4475 4 28.9998 4H30.9998C31.5521 4 31.9998 4.44772 31.9998 5V28H40.9606C41.8515 28 42.2977 29.0771 41.6677 29.7071L30.7069 39.707C30.3164 40.0976 29.6832 40.0976 29.2927 39.707L18.3319 29.7071C17.7019 29.0771 18.1481 28 19.039 28Z" fill="#0068B5"/>
<path d="M15.5858 36C15.851 36 16.1054 36.1054 16.2929 36.2929L29.4179 47.7929C29.8084 48.1834 30.4416 48.1834 30.8321 47.7929L43.7071 36.2929C43.8946 36.1054 44.149 36 44.4142 36H52C54.2091 36 56 37.7909 56 40V56C56 58.2091 54.2091 60 52 60H8C5.79086 60 4 58.2091 4 56V40C4 37.7909 5.79086 36 8 36H15.5858Z" fill="#0068B5"/>
</svg>
