<?xml version="1.0" encoding="UTF-8" standalone="no"?>
<!DOCTYPE svg PUBLIC "-//W3C//DTD SVG 1.1//EN" "http://www.w3.org/Graphics/SVG/1.1/DTD/svg11.dtd">
<svg width="100%" height="100%" viewBox="0 0 1300 421" version="1.1" xmlns="http://www.w3.org/2000/svg" xmlns:xlink="http://www.w3.org/1999/xlink" xml:space="preserve" xmlns:serif="http://www.serif.com/" style="fill-rule:evenodd;clip-rule:evenodd;stroke-linejoin:round;stroke-miterlimit:1.5;">
    <g transform="matrix(1,0,0,1,-3564.04,-690.017)">
        <g id="Artboard3" transform="matrix(1,0,0,1,-7.53286e-05,0)">
            <rect x="3400" y="0" width="1650" height="1199.97" style="fill:none;"/>
            <g transform="matrix(1.42952,0,0,0.459279,-1469.37,725.179)">
                <rect x="3521.05" y="45.956" width="255.921" height="255.921" style="fill:rgb(0,104,181);"/>
            </g>
            <g transform="matrix(2.19776,0,0,13.773,3285.16,-3926.44)">
                <g transform="matrix(0.455009,-0,-0,0.0726059,126.894,335.181)">
                    <path d="M429.331,200.779L456.331,209.779L429.331,218.779L429.331,200.779Z" style="fill:rgb(0,104,181);"/>
                    <path d="M376.331,209.779L434.731,209.779" style="fill:none;stroke:rgb(0,104,181);stroke-width:5px;"/>
                </g>
            </g>
            <g transform="matrix(2.19776,0,0,13.773,3751.98,-3926.44)">
                <g transform="matrix(0.455009,-0,-0,0.0726059,-85.5147,335.181)">
                    <path d="M896.153,200.779L923.153,209.779L896.153,218.779L896.153,200.779Z" style="fill:rgb(0,104,181);"/>
                    <path d="M843.153,209.779L901.553,209.779" style="fill:none;stroke:rgb(0,104,181);stroke-width:5px;"/>
                </g>
            </g>
            <g transform="matrix(1.84815,0,0,1.84815,2999.08,208.138)">
                <text x="341.467px" y="329.069px" style="font-family:'ArialMT', 'Arial', sans-serif;font-size:17px;fill:white;">T<tspan x="351.221px 356.882px " y="329.069px 329.069px ">ra</tspan>in your model</text>
            </g>
            <g transform="matrix(1.42952,0,0,0.459279,-1002.55,668.91)">
                <rect x="3521.05" y="45.956" width="255.921" height="255.921" style="fill:rgb(0,104,181);"/>
            </g>
            <g transform="matrix(1.84815,0,0,1.84815,3466.11,151.868)">
                <text x="352.102px" y="320.291px" style="font-family:'ArialMT', 'Arial', sans-serif;font-size:17px;fill:white;">Convert to the</text>
                <text x="334.16px" y="337.847px" style="font-family:'ArialMT', 'Arial', sans-serif;font-size:17px;fill:white;">OpenVINO format*</text>
            </g>
            <g transform="matrix(1.42952,0,0,0.459279,-1002.55,819.919)">
                <rect x="3521.05" y="45.956" width="255.921" height="255.921" style="fill:rgb(0,104,181);"/>
            </g>
            <g transform="matrix(1.84815,0,0,1.84815,3466.11,302.878)">
                <text x="352.098px" y="329.069px" style="font-family:'ArialMT', 'Arial', sans-serif;font-size:17px;fill:white;">Run Inference</text>
            </g>
            <g transform="matrix(1.42952,0,0,0.459279,-535.727,819.919)">
                <rect x="3521.05" y="45.956" width="255.921" height="255.921" style="fill:rgb(0,104,181);"/>
            </g>
            <g transform="matrix(1.84815,0,0,1.84815,3932.93,302.878)">
                <text x="317.135px" y="329.069px" style="font-family:'ArialMT', 'Arial', sans-serif;font-size:17px;fill:white;">Deploy your application</text>
            </g>
            <g transform="matrix(1.42952,0,0,0.459279,-1002.55,971.372)">
                <rect x="3521.05" y="45.956" width="255.921" height="255.921" style="fill:rgb(0,104,181);"/>
            </g>
            <g transform="matrix(1.84815,0,0,1.84815,3466.11,454.331)">
                <text x="333.994px" y="329.069px" style="font-family:'ArialMT', 'Arial', sans-serif;font-size:17px;fill:white;">T<tspan x="343.747px 353.202px " y="329.069px 329.069px ">un</tspan>e and Optimize</text>
            </g>
            <g transform="matrix(1.84815,0,0,1.84815,2999.29,319.809)">
                <text x="392.743px" y="319.908px" style="font-family:'ArialMT', 'Arial', sans-serif;font-size:17px;fill:rgb(0,104,181);">OR</text>
            </g>
            <g transform="matrix(1.42952,0,0,0.459279,-1469.37,914.659)">
                <rect x="3521.05" y="45.956" width="255.921" height="255.921" style="fill:rgb(0,104,181);"/>
            </g>
            <g transform="matrix(1.84815,0,0,1.84815,2999.08,397.618)">
                <text x="381.78px" y="320.291px" style="font-family:'ArialMT', 'Arial', sans-serif;font-size:17px;fill:white;">Pick a</text>
                <text x="338.309px" y="337.847px" style="font-family:'ArialMT', 'Arial', sans-serif;font-size:17px;fill:white;">pre-trained model</text>
            </g>
        </g>
    </g>
</svg>
