<?xml version="1.0" encoding="UTF-8" standalone="no"?>
<!DOCTYPE svg PUBLIC "-//W3C//DTD SVG 1.1//EN" "http://www.w3.org/Graphics/SVG/1.1/DTD/svg11.dtd">
<svg width="100%" height="100%" viewBox="0 0 47 20" version="1.1" xmlns="http://www.w3.org/2000/svg" xmlns:xlink="http://www.w3.org/1999/xlink" xml:space="preserve" xmlns:serif="http://www.serif.com/" style="fill-rule:evenodd;clip-rule:evenodd;stroke-linejoin:round;stroke-miterlimit:2;">
    <g transform="matrix(1,0,0,1,-1943.83,-1476.25)">
        <g transform="matrix(1.2405,0,0,1,-4217.7,1302.18)">
            <g transform="matrix(-0.177785,2.70087e-17,-2.86331e-17,-0.290038,5007.96,231.338)">
                <path d="M71.526,170.644L71.526,194.149C71.526,195.463 70.511,196.654 68.934,197.191C67.357,197.727 65.512,197.509 64.224,196.633C52.154,188.426 28.469,172.322 19.381,166.143C18.447,165.508 17.913,164.601 17.913,163.648C17.913,162.695 18.447,161.787 19.381,161.152C28.469,154.973 52.154,138.87 64.224,130.663C65.512,129.787 67.357,129.569 68.934,130.105C70.511,130.642 71.526,131.833 71.526,133.146L71.526,156.652L226.186,156.652C228.605,156.652 230.567,158.143 230.567,159.983C230.567,162.199 230.567,165.097 230.567,167.312C230.567,169.152 228.605,170.644 226.186,170.644C200.59,170.644 71.526,170.644 71.526,170.644Z" style="fill:rgb(0,104,181);"/>
            </g>
        </g>
    </g>
</svg>
