<?xml version="1.0" encoding="UTF-8" standalone="no"?>
<!DOCTYPE svg PUBLIC "-//W3C//DTD SVG 1.1//EN" "http://www.w3.org/Graphics/SVG/1.1/DTD/svg11.dtd">
<svg width="100%" height="100%" viewBox="0 0 300 500" version="1.1" xmlns="http://www.w3.org/2000/svg" xmlns:xlink="http://www.w3.org/1999/xlink" xml:space="preserve" xmlns:serif="http://www.serif.com/" style="fill-rule:evenodd;clip-rule:evenodd;stroke-linejoin:round;stroke-miterlimit:2;">
    <g transform="matrix(1,0,0,1,-652.044,-1386.47)">
        <g transform="matrix(1.2405,0,0,1,-4217.7,1302.18)">
            <g transform="matrix(0.635579,0,0,2.23727,3845.92,-3971.85)">
                <rect x="125.413" y="1812.98" width="380.444" height="223.486" style="fill:#fff;"/>
            </g>
        </g>
        <g transform="matrix(1.2405,0,0,1,-4217.7,1302.18)">
            <g id="B--btm" serif:id="B -btm" transform="matrix(1.83177,0,0,1,-2847.03,48.5296)">
                <g transform="matrix(0.137935,0,0,0.919528,3659.56,24.2016)">
                    <rect x="273.804" y="280.744" width="12.871" height="4.375" style="fill:#00a3f6;"/>
                </g>
                <g transform="matrix(0.441902,0,0,1,3575.02,-5.12162)">
                    <path d="M282.818,287.475L575.546,287.475L575.546,345.292L276.783,345.292L276.783,293.518L280.783,293.518L280.783,341.292C313.643,341.292 538.687,341.292 571.546,341.292L571.546,291.475L571.546,291.475L282.818,291.475L282.818,287.475Z" style="fill:#0068b5;"/>
                </g>
                <g transform="matrix(0.813335,0,0,1.84815,3445.44,-263.116)">
                    <g transform="matrix(14.0681,0,0,14.0681,319.206,315.715)">
                        <path d="M0.053,-0.483L0.133,-0.483L0.133,-0.422C0.148,-0.443 0.167,-0.459 0.19,-0.47C0.213,-0.481 0.241,-0.486 0.273,-0.486L0.317,-0.486L0.317,-0.409L0.272,-0.409C0.226,-0.409 0.192,-0.397 0.169,-0.373C0.146,-0.349 0.134,-0.313 0.134,-0.264L0.134,-0L0.053,-0L0.053,-0.483Z" style="fill:#0068b5;fill-rule:nonzero;"/>
                    </g>
                    <g transform="matrix(14.0681,0,0,14.0681,323.666,315.715)">
                        <path d="M0.286,-0.054C0.318,-0.054 0.347,-0.061 0.375,-0.075C0.402,-0.088 0.426,-0.109 0.449,-0.137L0.498,-0.092C0.471,-0.056 0.439,-0.029 0.402,-0.012C0.365,0.006 0.324,0.015 0.279,0.015C0.206,0.015 0.147,-0.009 0.101,-0.057C0.054,-0.104 0.031,-0.165 0.031,-0.24C0.031,-0.313 0.055,-0.373 0.102,-0.422C0.149,-0.471 0.208,-0.495 0.277,-0.495C0.348,-0.495 0.405,-0.472 0.449,-0.426C0.493,-0.38 0.515,-0.32 0.515,-0.246C0.515,-0.241 0.515,-0.234 0.514,-0.228C0.513,-0.221 0.513,-0.215 0.512,-0.212L0.115,-0.212C0.12,-0.165 0.139,-0.127 0.171,-0.098C0.202,-0.069 0.241,-0.054 0.286,-0.054ZM0.278,-0.426C0.236,-0.426 0.2,-0.412 0.17,-0.385C0.14,-0.358 0.122,-0.321 0.115,-0.275L0.433,-0.275C0.427,-0.322 0.41,-0.359 0.382,-0.386C0.354,-0.412 0.319,-0.426 0.278,-0.426Z" style="fill:#0068b5;fill-rule:nonzero;"/>
                    </g>
                    <g transform="matrix(14.0681,0,0,14.0681,331.249,315.715)">
                        <path d="M0.08,-0.129L0.08,-0.411L0.014,-0.411L0.014,-0.483L0.08,-0.483L0.08,-0.631L0.161,-0.631L0.161,-0.483L0.273,-0.483L0.273,-0.411L0.161,-0.411L0.161,-0.136C0.161,-0.115 0.166,-0.099 0.175,-0.089C0.185,-0.078 0.2,-0.073 0.22,-0.073L0.273,-0.073L0.273,-0L0.208,-0C0.163,-0 0.131,-0.01 0.111,-0.031C0.09,-0.052 0.08,-0.084 0.08,-0.129Z" style="fill:#0068b5;fill-rule:nonzero;"/>
                    </g>
                    <g transform="matrix(14.0681,0,0,14.0681,335.497,315.715)">
                        <path d="M0.053,-0.483L0.133,-0.483L0.133,-0.422C0.148,-0.443 0.167,-0.459 0.19,-0.47C0.213,-0.481 0.241,-0.486 0.273,-0.486L0.317,-0.486L0.317,-0.409L0.272,-0.409C0.226,-0.409 0.192,-0.397 0.169,-0.373C0.146,-0.349 0.134,-0.313 0.134,-0.264L0.134,-0L0.053,-0L0.053,-0.483Z" style="fill:#0068b5;fill-rule:nonzero;"/>
                    </g>
                    <g transform="matrix(14.0681,0,0,14.0681,339.858,315.715)">
                        <path d="M0.468,-0L0.389,-0L0.389,-0.079C0.37,-0.051 0.344,-0.029 0.311,-0.014C0.278,0.002 0.242,0.01 0.204,0.01C0.151,0.01 0.107,-0.004 0.074,-0.031C0.041,-0.058 0.024,-0.093 0.024,-0.137C0.024,-0.186 0.043,-0.223 0.08,-0.248C0.117,-0.273 0.173,-0.285 0.246,-0.285L0.388,-0.285C0.387,-0.33 0.376,-0.365 0.353,-0.39C0.33,-0.415 0.297,-0.427 0.254,-0.427C0.229,-0.427 0.204,-0.422 0.179,-0.411C0.154,-0.4 0.13,-0.384 0.106,-0.362L0.063,-0.416C0.091,-0.443 0.122,-0.463 0.155,-0.476C0.188,-0.49 0.224,-0.497 0.262,-0.497C0.327,-0.497 0.377,-0.478 0.413,-0.44C0.45,-0.401 0.468,-0.348 0.468,-0.281L0.468,-0ZM0.388,-0.222L0.247,-0.222C0.198,-0.222 0.162,-0.215 0.139,-0.202C0.116,-0.189 0.104,-0.168 0.104,-0.139C0.104,-0.115 0.114,-0.095 0.135,-0.079C0.155,-0.063 0.181,-0.055 0.213,-0.055C0.261,-0.055 0.302,-0.07 0.335,-0.102C0.368,-0.133 0.385,-0.173 0.388,-0.222Z" style="fill:#0068b5;fill-rule:nonzero;"/>
                    </g>
                    <g transform="matrix(14.0681,0,0,14.0681,347.103,315.715)">
                        <path d="M0.058,-0.645L0.148,-0.645L0.148,-0.556L0.058,-0.556L0.058,-0.645ZM0.062,-0L0.062,-0.483L0.144,-0.483L0.144,-0L0.062,-0Z" style="fill:#0068b5;fill-rule:nonzero;"/>
                    </g>
                    <g transform="matrix(14.0681,0,0,14.0681,350.001,315.715)">
                        <path d="M0.053,-0.483L0.133,-0.483L0.133,-0.408C0.152,-0.436 0.177,-0.458 0.206,-0.472C0.236,-0.488 0.269,-0.495 0.306,-0.495C0.37,-0.495 0.42,-0.474 0.456,-0.433C0.492,-0.392 0.51,-0.335 0.51,-0.263L0.51,-0L0.429,-0L0.429,-0.258C0.429,-0.309 0.417,-0.349 0.392,-0.378C0.367,-0.407 0.332,-0.422 0.287,-0.422C0.241,-0.422 0.204,-0.406 0.176,-0.375C0.148,-0.344 0.134,-0.303 0.134,-0.253L0.134,-0L0.053,-0L0.053,-0.483Z" style="fill:#0068b5;fill-rule:nonzero;"/>
                    </g>
                    <g transform="matrix(14.0681,0,0,14.0681,360.44,315.715)">
                        <path d="M0.698,-0.483L0.576,-0L0.497,-0L0.362,-0.371L0.228,-0L0.15,-0L0.028,-0.483L0.11,-0.483L0.196,-0.114L0.327,-0.483L0.399,-0.483L0.529,-0.114L0.616,-0.483L0.698,-0.483Z" style="fill:#0068b5;fill-rule:nonzero;"/>
                    </g>
                    <g transform="matrix(14.0681,0,0,14.0681,370.653,315.715)">
                        <path d="M0.058,-0.645L0.148,-0.645L0.148,-0.556L0.058,-0.556L0.058,-0.645ZM0.062,-0L0.062,-0.483L0.144,-0.483L0.144,-0L0.062,-0Z" style="fill:#0068b5;fill-rule:nonzero;"/>
                    </g>
                    <g transform="matrix(14.0681,0,0,14.0681,373.551,315.715)">
                        <path d="M0.08,-0.129L0.08,-0.411L0.014,-0.411L0.014,-0.483L0.08,-0.483L0.08,-0.631L0.161,-0.631L0.161,-0.483L0.273,-0.483L0.273,-0.411L0.161,-0.411L0.161,-0.136C0.161,-0.115 0.166,-0.099 0.175,-0.089C0.185,-0.078 0.2,-0.073 0.22,-0.073L0.273,-0.073L0.273,-0L0.208,-0C0.163,-0 0.131,-0.01 0.111,-0.031C0.09,-0.052 0.08,-0.084 0.08,-0.129Z" style="fill:#0068b5;fill-rule:nonzero;"/>
                    </g>
                    <g transform="matrix(14.0681,0,0,14.0681,377.8,315.715)">
                        <path d="M0.053,-0.7L0.134,-0.7L0.134,-0.41C0.153,-0.437 0.178,-0.458 0.206,-0.473C0.235,-0.488 0.268,-0.495 0.304,-0.495C0.369,-0.495 0.419,-0.474 0.456,-0.433C0.492,-0.392 0.51,-0.335 0.51,-0.263L0.51,-0L0.429,-0L0.429,-0.258C0.429,-0.309 0.416,-0.349 0.391,-0.379C0.366,-0.407 0.33,-0.422 0.285,-0.422C0.24,-0.422 0.203,-0.406 0.175,-0.375C0.148,-0.344 0.134,-0.303 0.134,-0.253L0.134,-0L0.053,-0L0.053,-0.7Z" style="fill:#0068b5;fill-rule:nonzero;"/>
                    </g>
                    <g transform="matrix(14.0681,0,0,14.0681,388.238,315.715)">
                        <path d="M0.534,-0.241C0.534,-0.168 0.51,-0.108 0.461,-0.059C0.412,-0.01 0.352,0.015 0.281,0.015C0.21,0.015 0.15,-0.009 0.102,-0.058C0.055,-0.107 0.031,-0.167 0.031,-0.24C0.031,-0.313 0.055,-0.374 0.104,-0.423C0.153,-0.471 0.213,-0.496 0.284,-0.496C0.355,-0.496 0.415,-0.472 0.463,-0.423C0.51,-0.374 0.534,-0.314 0.534,-0.241ZM0.114,-0.24C0.114,-0.188 0.13,-0.144 0.163,-0.109C0.195,-0.074 0.235,-0.056 0.283,-0.056C0.33,-0.056 0.37,-0.074 0.403,-0.109C0.435,-0.144 0.451,-0.188 0.451,-0.241C0.451,-0.292 0.435,-0.336 0.402,-0.372C0.369,-0.407 0.329,-0.425 0.282,-0.425C0.235,-0.425 0.195,-0.407 0.163,-0.372C0.13,-0.337 0.114,-0.293 0.114,-0.24Z" style="fill:#0068b5;fill-rule:nonzero;"/>
                    </g>
                    <g transform="matrix(14.0681,0,0,14.0681,396.187,315.715)">
                        <path d="M0.134,0.18L0.053,0.18L0.053,-0.483L0.133,-0.483L0.133,-0.405C0.154,-0.433 0.181,-0.455 0.212,-0.47C0.243,-0.486 0.277,-0.494 0.312,-0.494C0.38,-0.494 0.437,-0.47 0.482,-0.424C0.527,-0.377 0.55,-0.316 0.55,-0.243C0.55,-0.169 0.527,-0.108 0.48,-0.061C0.433,-0.013 0.375,0.011 0.306,0.011C0.273,0.011 0.242,0.004 0.212,-0.01C0.181,-0.023 0.155,-0.043 0.134,-0.068L0.134,0.18ZM0.303,-0.422C0.254,-0.422 0.214,-0.405 0.181,-0.37C0.148,-0.335 0.131,-0.291 0.131,-0.239C0.131,-0.188 0.147,-0.145 0.18,-0.111C0.212,-0.077 0.252,-0.06 0.3,-0.06C0.349,-0.06 0.39,-0.077 0.421,-0.11C0.452,-0.142 0.467,-0.186 0.467,-0.241C0.467,-0.295 0.452,-0.339 0.422,-0.372C0.391,-0.405 0.352,-0.422 0.303,-0.422Z" style="fill:#0068b5;fill-rule:nonzero;"/>
                    </g>
                    <g transform="matrix(14.0681,0,0,14.0681,404.29,315.715)">
                        <path d="M0.08,-0.129L0.08,-0.411L0.014,-0.411L0.014,-0.483L0.08,-0.483L0.08,-0.631L0.161,-0.631L0.161,-0.483L0.273,-0.483L0.273,-0.411L0.161,-0.411L0.161,-0.136C0.161,-0.115 0.166,-0.099 0.175,-0.089C0.185,-0.078 0.2,-0.073 0.22,-0.073L0.273,-0.073L0.273,-0L0.208,-0C0.163,-0 0.131,-0.01 0.111,-0.031C0.09,-0.052 0.08,-0.084 0.08,-0.129Z" style="fill:#0068b5;fill-rule:nonzero;"/>
                    </g>
                    <g transform="matrix(14.0681,0,0,14.0681,408.539,315.715)">
                        <path d="M0.058,-0.645L0.148,-0.645L0.148,-0.556L0.058,-0.556L0.058,-0.645ZM0.062,-0L0.062,-0.483L0.144,-0.483L0.144,-0L0.062,-0Z" style="fill:#0068b5;fill-rule:nonzero;"/>
                    </g>
                    <g transform="matrix(14.0681,0,0,14.0681,411.437,315.715)">
                        <path d="M0.053,-0.483L0.133,-0.483L0.133,-0.425C0.151,-0.448 0.172,-0.466 0.195,-0.477C0.218,-0.489 0.243,-0.495 0.272,-0.495C0.305,-0.495 0.335,-0.488 0.361,-0.474C0.387,-0.46 0.408,-0.44 0.423,-0.413C0.441,-0.44 0.464,-0.46 0.492,-0.474C0.519,-0.488 0.55,-0.495 0.585,-0.495C0.642,-0.495 0.687,-0.477 0.721,-0.44C0.754,-0.403 0.771,-0.356 0.771,-0.297L0.771,-0L0.689,-0L0.689,-0.292C0.689,-0.333 0.679,-0.365 0.659,-0.388C0.638,-0.41 0.61,-0.422 0.573,-0.422C0.537,-0.422 0.508,-0.409 0.486,-0.385C0.463,-0.36 0.452,-0.327 0.452,-0.287L0.452,-0L0.371,-0L0.371,-0.292C0.371,-0.333 0.361,-0.365 0.341,-0.388C0.32,-0.41 0.292,-0.422 0.255,-0.422C0.219,-0.422 0.19,-0.409 0.168,-0.385C0.145,-0.36 0.134,-0.327 0.134,-0.287L0.134,-0L0.053,-0L0.053,-0.483Z" style="fill:#0068b5;fill-rule:nonzero;"/>
                    </g>
                    <g transform="matrix(14.0681,0,0,14.0681,422.944,315.715)">
                        <path d="M0.058,-0.645L0.148,-0.645L0.148,-0.556L0.058,-0.556L0.058,-0.645ZM0.062,-0L0.062,-0.483L0.144,-0.483L0.144,-0L0.062,-0Z" style="fill:#0068b5;fill-rule:nonzero;"/>
                    </g>
                    <g transform="matrix(14.0681,0,0,14.0681,425.842,315.715)">
                        <path d="M0.445,-0L0.022,-0L0.022,-0.064L0.33,-0.415L0.034,-0.415L0.034,-0.483L0.432,-0.483L0.432,-0.419L0.127,-0.068L0.445,-0.068L0.445,-0Z" style="fill:#0068b5;fill-rule:nonzero;"/>
                    </g>
                    <g transform="matrix(14.0681,0,0,14.0681,432.412,315.715)">
                        <path d="M0.468,-0L0.389,-0L0.389,-0.079C0.37,-0.051 0.344,-0.029 0.311,-0.014C0.278,0.002 0.242,0.01 0.204,0.01C0.151,0.01 0.107,-0.004 0.074,-0.031C0.041,-0.058 0.024,-0.093 0.024,-0.137C0.024,-0.186 0.043,-0.223 0.08,-0.248C0.117,-0.273 0.173,-0.285 0.246,-0.285L0.388,-0.285C0.387,-0.33 0.376,-0.365 0.353,-0.39C0.33,-0.415 0.297,-0.427 0.254,-0.427C0.229,-0.427 0.204,-0.422 0.179,-0.411C0.154,-0.4 0.13,-0.384 0.106,-0.362L0.063,-0.416C0.091,-0.443 0.122,-0.463 0.155,-0.476C0.188,-0.49 0.224,-0.497 0.262,-0.497C0.327,-0.497 0.377,-0.478 0.413,-0.44C0.45,-0.401 0.468,-0.348 0.468,-0.281L0.468,-0ZM0.388,-0.222L0.247,-0.222C0.198,-0.222 0.162,-0.215 0.139,-0.202C0.116,-0.189 0.104,-0.168 0.104,-0.139C0.104,-0.115 0.114,-0.095 0.135,-0.079C0.155,-0.063 0.181,-0.055 0.213,-0.055C0.261,-0.055 0.302,-0.07 0.335,-0.102C0.368,-0.133 0.385,-0.173 0.388,-0.222Z" style="fill:#0068b5;fill-rule:nonzero;"/>
                    </g>
                    <g transform="matrix(14.0681,0,0,14.0681,439.587,315.715)">
                        <path d="M0.08,-0.129L0.08,-0.411L0.014,-0.411L0.014,-0.483L0.08,-0.483L0.08,-0.631L0.161,-0.631L0.161,-0.483L0.273,-0.483L0.273,-0.411L0.161,-0.411L0.161,-0.136C0.161,-0.115 0.166,-0.099 0.175,-0.089C0.185,-0.078 0.2,-0.073 0.22,-0.073L0.273,-0.073L0.273,-0L0.208,-0C0.163,-0 0.131,-0.01 0.111,-0.031C0.09,-0.052 0.08,-0.084 0.08,-0.129Z" style="fill:#0068b5;fill-rule:nonzero;"/>
                    </g>
                    <g transform="matrix(14.0681,0,0,14.0681,443.836,315.715)">
                        <path d="M0.058,-0.645L0.148,-0.645L0.148,-0.556L0.058,-0.556L0.058,-0.645ZM0.062,-0L0.062,-0.483L0.144,-0.483L0.144,-0L0.062,-0Z" style="fill:#0068b5;fill-rule:nonzero;"/>
                    </g>
                    <g transform="matrix(14.0681,0,0,14.0681,446.734,315.715)">
                        <path d="M0.534,-0.241C0.534,-0.168 0.51,-0.108 0.461,-0.059C0.412,-0.01 0.352,0.015 0.281,0.015C0.21,0.015 0.15,-0.009 0.102,-0.058C0.055,-0.107 0.031,-0.167 0.031,-0.24C0.031,-0.313 0.055,-0.374 0.104,-0.423C0.153,-0.471 0.213,-0.496 0.284,-0.496C0.355,-0.496 0.415,-0.472 0.463,-0.423C0.51,-0.374 0.534,-0.314 0.534,-0.241ZM0.114,-0.24C0.114,-0.188 0.13,-0.144 0.163,-0.109C0.195,-0.074 0.235,-0.056 0.283,-0.056C0.33,-0.056 0.37,-0.074 0.403,-0.109C0.435,-0.144 0.451,-0.188 0.451,-0.241C0.451,-0.292 0.435,-0.336 0.402,-0.372C0.369,-0.407 0.329,-0.425 0.282,-0.425C0.235,-0.425 0.195,-0.407 0.163,-0.372C0.13,-0.337 0.114,-0.293 0.114,-0.24Z" style="fill:#0068b5;fill-rule:nonzero;"/>
                    </g>
                    <g transform="matrix(14.0681,0,0,14.0681,454.682,315.715)">
                        <path d="M0.053,-0.483L0.133,-0.483L0.133,-0.408C0.152,-0.436 0.177,-0.458 0.206,-0.472C0.236,-0.488 0.269,-0.495 0.306,-0.495C0.37,-0.495 0.42,-0.474 0.456,-0.433C0.492,-0.392 0.51,-0.335 0.51,-0.263L0.51,-0L0.429,-0L0.429,-0.258C0.429,-0.309 0.417,-0.349 0.392,-0.378C0.367,-0.407 0.332,-0.422 0.287,-0.422C0.241,-0.422 0.204,-0.406 0.176,-0.375C0.148,-0.344 0.134,-0.303 0.134,-0.253L0.134,-0L0.053,-0L0.053,-0.483Z" style="fill:#0068b5;fill-rule:nonzero;"/>
                    </g>
                </g>
                <g transform="matrix(0.137935,0,0,0.919528,3659.56,94.8808)">
                    <rect x="273.804" y="280.744" width="12.871" height="4.375" style="fill:#00a3f6;"/>
                </g>
                <g transform="matrix(0.441902,0,0,1,3575.02,65.5576)">
                    <path d="M282.818,287.475L575.546,287.475L575.546,345.292L276.783,345.292L276.783,293.518L280.783,293.518L280.783,341.292C313.643,341.292 538.687,341.292 571.546,341.292L571.546,291.475L571.546,291.475L282.818,291.475L282.818,287.475Z" style="fill:#0068b5;"/>
                </g>
                <g transform="matrix(0.813335,0,0,1.84815,3445.44,-192.437)">
                    <g transform="matrix(14.0681,0,0,14.0681,364.759,315.715)">
                        <path d="M0.448,-0.483L0.529,-0.483L0.529,0.18L0.447,0.18L0.447,-0.074C0.426,-0.047 0.4,-0.027 0.369,-0.012C0.338,0.003 0.305,0.01 0.27,0.01C0.202,0.01 0.145,-0.014 0.1,-0.061C0.054,-0.108 0.031,-0.167 0.031,-0.24C0.031,-0.314 0.055,-0.375 0.102,-0.423C0.149,-0.471 0.206,-0.495 0.274,-0.495C0.308,-0.495 0.34,-0.488 0.371,-0.473C0.402,-0.458 0.427,-0.438 0.448,-0.412L0.448,-0.483ZM0.278,-0.061C0.327,-0.061 0.368,-0.079 0.401,-0.114C0.434,-0.149 0.45,-0.192 0.45,-0.243C0.45,-0.295 0.434,-0.338 0.402,-0.372C0.37,-0.406 0.33,-0.423 0.282,-0.423C0.233,-0.423 0.192,-0.406 0.161,-0.373C0.13,-0.34 0.114,-0.296 0.114,-0.242C0.114,-0.188 0.129,-0.144 0.16,-0.111C0.191,-0.078 0.23,-0.061 0.278,-0.061Z" style="fill:#0068b5;fill-rule:nonzero;"/>
                    </g>
                    <g transform="matrix(14.0681,0,0,14.0681,372.932,315.715)">
                        <path d="M0.505,-0L0.424,-0L0.424,-0.074C0.405,-0.046 0.38,-0.025 0.351,-0.011C0.322,0.004 0.288,0.011 0.251,0.011C0.188,0.011 0.138,-0.01 0.102,-0.051C0.065,-0.092 0.047,-0.149 0.047,-0.22L0.047,-0.483L0.129,-0.483L0.129,-0.225C0.129,-0.174 0.141,-0.134 0.167,-0.105C0.192,-0.076 0.226,-0.061 0.271,-0.061C0.316,-0.061 0.353,-0.077 0.381,-0.108C0.409,-0.139 0.423,-0.18 0.423,-0.23L0.423,-0.483L0.505,-0.483L0.505,-0Z" style="fill:#0068b5;fill-rule:nonzero;"/>
                    </g>
                    <g transform="matrix(14.0681,0,0,14.0681,380.768,315.715)">
                        <path d="M0.468,-0L0.389,-0L0.389,-0.079C0.37,-0.051 0.344,-0.029 0.311,-0.014C0.278,0.002 0.242,0.01 0.204,0.01C0.151,0.01 0.107,-0.004 0.074,-0.031C0.041,-0.058 0.024,-0.093 0.024,-0.137C0.024,-0.186 0.043,-0.223 0.08,-0.248C0.117,-0.273 0.173,-0.285 0.246,-0.285L0.388,-0.285C0.387,-0.33 0.376,-0.365 0.353,-0.39C0.33,-0.415 0.297,-0.427 0.254,-0.427C0.229,-0.427 0.204,-0.422 0.179,-0.411C0.154,-0.4 0.13,-0.384 0.106,-0.362L0.063,-0.416C0.091,-0.443 0.122,-0.463 0.155,-0.476C0.188,-0.49 0.224,-0.497 0.262,-0.497C0.327,-0.497 0.377,-0.478 0.413,-0.44C0.45,-0.401 0.468,-0.348 0.468,-0.281L0.468,-0ZM0.388,-0.222L0.247,-0.222C0.198,-0.222 0.162,-0.215 0.139,-0.202C0.116,-0.189 0.104,-0.168 0.104,-0.139C0.104,-0.115 0.114,-0.095 0.135,-0.079C0.155,-0.063 0.181,-0.055 0.213,-0.055C0.261,-0.055 0.302,-0.07 0.335,-0.102C0.368,-0.133 0.385,-0.173 0.388,-0.222Z" style="fill:#0068b5;fill-rule:nonzero;"/>
                    </g>
                    <g transform="matrix(14.0681,0,0,14.0681,388.013,315.715)">
                        <path d="M0.053,-0.483L0.133,-0.483L0.133,-0.408C0.152,-0.436 0.177,-0.458 0.206,-0.472C0.236,-0.488 0.269,-0.495 0.306,-0.495C0.37,-0.495 0.42,-0.474 0.456,-0.433C0.492,-0.392 0.51,-0.335 0.51,-0.263L0.51,-0L0.429,-0L0.429,-0.258C0.429,-0.309 0.417,-0.349 0.392,-0.378C0.367,-0.407 0.332,-0.422 0.287,-0.422C0.241,-0.422 0.204,-0.406 0.176,-0.375C0.148,-0.344 0.134,-0.303 0.134,-0.253L0.134,-0L0.053,-0L0.053,-0.483Z" style="fill:#0068b5;fill-rule:nonzero;"/>
                    </g>
                    <g transform="matrix(14.0681,0,0,14.0681,395.849,315.715)">
                        <path d="M0.08,-0.129L0.08,-0.411L0.014,-0.411L0.014,-0.483L0.08,-0.483L0.08,-0.631L0.161,-0.631L0.161,-0.483L0.273,-0.483L0.273,-0.411L0.161,-0.411L0.161,-0.136C0.161,-0.115 0.166,-0.099 0.175,-0.089C0.185,-0.078 0.2,-0.073 0.22,-0.073L0.273,-0.073L0.273,-0L0.208,-0C0.163,-0 0.131,-0.01 0.111,-0.031C0.09,-0.052 0.08,-0.084 0.08,-0.129Z" style="fill:#0068b5;fill-rule:nonzero;"/>
                    </g>
                    <g transform="matrix(14.0681,0,0,14.0681,400.098,315.715)">
                        <path d="M0.058,-0.645L0.148,-0.645L0.148,-0.556L0.058,-0.556L0.058,-0.645ZM0.062,-0L0.062,-0.483L0.144,-0.483L0.144,-0L0.062,-0Z" style="fill:#0068b5;fill-rule:nonzero;"/>
                    </g>
                    <g transform="matrix(14.0681,0,0,14.0681,402.996,315.715)">
                        <path d="M0.445,-0L0.022,-0L0.022,-0.064L0.33,-0.415L0.034,-0.415L0.034,-0.483L0.432,-0.483L0.432,-0.419L0.127,-0.068L0.445,-0.068L0.445,-0Z" style="fill:#0068b5;fill-rule:nonzero;"/>
                    </g>
                    <g transform="matrix(14.0681,0,0,14.0681,409.312,315.715)">
                        <path d="M0.286,-0.054C0.318,-0.054 0.347,-0.061 0.375,-0.075C0.402,-0.088 0.426,-0.109 0.449,-0.137L0.498,-0.092C0.471,-0.056 0.439,-0.029 0.402,-0.012C0.365,0.006 0.324,0.015 0.279,0.015C0.206,0.015 0.147,-0.009 0.101,-0.057C0.054,-0.104 0.031,-0.165 0.031,-0.24C0.031,-0.313 0.055,-0.373 0.102,-0.422C0.149,-0.471 0.208,-0.495 0.277,-0.495C0.348,-0.495 0.405,-0.472 0.449,-0.426C0.493,-0.38 0.515,-0.32 0.515,-0.246C0.515,-0.241 0.515,-0.234 0.514,-0.228C0.513,-0.221 0.513,-0.215 0.512,-0.212L0.115,-0.212C0.12,-0.165 0.139,-0.127 0.171,-0.098C0.202,-0.069 0.241,-0.054 0.286,-0.054ZM0.278,-0.426C0.236,-0.426 0.2,-0.412 0.17,-0.385C0.14,-0.358 0.122,-0.321 0.115,-0.275L0.433,-0.275C0.427,-0.322 0.41,-0.359 0.382,-0.386C0.354,-0.412 0.319,-0.426 0.278,-0.426Z" style="fill:#0068b5;fill-rule:nonzero;"/>
                    </g>
                </g>
                <g transform="matrix(0.137935,0,0,0.919528,3659.56,165.56)">
                    <rect x="273.804" y="280.744" width="12.871" height="4.375" style="fill:#00a3f6;"/>
                </g>
                <g transform="matrix(0.441902,0,0,1,3575.02,136.237)">
                    <path d="M282.818,287.475L575.546,287.475L575.546,372.455L276.783,372.455L276.783,293.518L280.783,293.518L280.783,368.455L571.546,368.455L571.546,291.475L571.546,291.475L282.818,291.475L282.818,287.475Z" style="fill:#0068b5;"/>
                </g>
                <g transform="matrix(0.813335,0,0,1.84815,3445.44,-121.758)">
                    <g transform="matrix(14.0681,0,0,14.0681,329.216,316.03)">
                        <path d="M0.281,0.015C0.207,0.015 0.147,-0.009 0.101,-0.056C0.054,-0.102 0.031,-0.164 0.031,-0.24C0.031,-0.312 0.055,-0.373 0.104,-0.422C0.153,-0.471 0.212,-0.496 0.283,-0.496C0.334,-0.496 0.378,-0.484 0.414,-0.461C0.451,-0.437 0.478,-0.403 0.497,-0.358L0.428,-0.325C0.413,-0.358 0.393,-0.383 0.369,-0.4C0.344,-0.417 0.315,-0.425 0.282,-0.425C0.235,-0.425 0.195,-0.407 0.163,-0.372C0.13,-0.336 0.114,-0.292 0.114,-0.24C0.114,-0.187 0.13,-0.143 0.163,-0.109C0.195,-0.074 0.235,-0.056 0.284,-0.056C0.315,-0.056 0.344,-0.065 0.372,-0.082C0.399,-0.099 0.42,-0.122 0.437,-0.153L0.5,-0.119C0.481,-0.078 0.452,-0.045 0.413,-0.021C0.374,0.003 0.33,0.015 0.281,0.015Z" style="fill:#0068b5;fill-rule:nonzero;"/>
                    </g>
                    <g transform="matrix(14.0681,0,0,14.0681,336.644,316.03)">
                        <path d="M0.534,-0.241C0.534,-0.168 0.51,-0.108 0.461,-0.059C0.412,-0.01 0.352,0.015 0.281,0.015C0.21,0.015 0.15,-0.009 0.102,-0.058C0.055,-0.107 0.031,-0.167 0.031,-0.24C0.031,-0.313 0.055,-0.374 0.104,-0.423C0.153,-0.471 0.213,-0.496 0.284,-0.496C0.355,-0.496 0.415,-0.472 0.463,-0.423C0.51,-0.374 0.534,-0.314 0.534,-0.241ZM0.114,-0.24C0.114,-0.188 0.13,-0.144 0.163,-0.109C0.195,-0.074 0.235,-0.056 0.283,-0.056C0.33,-0.056 0.37,-0.074 0.403,-0.109C0.435,-0.144 0.451,-0.188 0.451,-0.241C0.451,-0.292 0.435,-0.336 0.402,-0.372C0.369,-0.407 0.329,-0.425 0.282,-0.425C0.235,-0.425 0.195,-0.407 0.163,-0.372C0.13,-0.337 0.114,-0.293 0.114,-0.24Z" style="fill:#0068b5;fill-rule:nonzero;"/>
                    </g>
                    <g transform="matrix(14.0681,0,0,14.0681,344.592,316.03)">
                        <path d="M0.053,-0.483L0.133,-0.483L0.133,-0.408C0.152,-0.436 0.177,-0.458 0.206,-0.472C0.236,-0.488 0.269,-0.495 0.306,-0.495C0.37,-0.495 0.42,-0.474 0.456,-0.433C0.492,-0.392 0.51,-0.335 0.51,-0.263L0.51,-0L0.429,-0L0.429,-0.258C0.429,-0.309 0.417,-0.349 0.392,-0.378C0.367,-0.407 0.332,-0.422 0.287,-0.422C0.241,-0.422 0.204,-0.406 0.176,-0.375C0.148,-0.344 0.134,-0.303 0.134,-0.253L0.134,-0L0.053,-0L0.053,-0.483Z" style="fill:#0068b5;fill-rule:nonzero;"/>
                    </g>
                    <g transform="matrix(14.0681,0,0,14.0681,352.147,316.03)">
                        <path d="M0.22,-0L0.013,-0.483L0.102,-0.483L0.259,-0.097L0.415,-0.483L0.499,-0.483L0.294,-0L0.22,-0Z" style="fill:#0068b5;fill-rule:nonzero;"/>
                    </g>
                    <g transform="matrix(14.0681,0,0,14.0681,358.928,316.03)">
                        <path d="M0.286,-0.054C0.318,-0.054 0.347,-0.061 0.375,-0.075C0.402,-0.088 0.426,-0.109 0.449,-0.137L0.498,-0.092C0.471,-0.056 0.439,-0.029 0.402,-0.012C0.365,0.006 0.324,0.015 0.279,0.015C0.206,0.015 0.147,-0.009 0.101,-0.057C0.054,-0.104 0.031,-0.165 0.031,-0.24C0.031,-0.313 0.055,-0.373 0.102,-0.422C0.149,-0.471 0.208,-0.495 0.277,-0.495C0.348,-0.495 0.405,-0.472 0.449,-0.426C0.493,-0.38 0.515,-0.32 0.515,-0.246C0.515,-0.241 0.515,-0.234 0.514,-0.228C0.513,-0.221 0.513,-0.215 0.512,-0.212L0.115,-0.212C0.12,-0.165 0.139,-0.127 0.171,-0.098C0.202,-0.069 0.241,-0.054 0.286,-0.054ZM0.278,-0.426C0.236,-0.426 0.2,-0.412 0.17,-0.385C0.14,-0.358 0.122,-0.321 0.115,-0.275L0.433,-0.275C0.427,-0.322 0.41,-0.359 0.382,-0.386C0.354,-0.412 0.319,-0.426 0.278,-0.426Z" style="fill:#0068b5;fill-rule:nonzero;"/>
                    </g>
                    <g transform="matrix(14.0681,0,0,14.0681,366.581,316.03)">
                        <path d="M0.053,-0.483L0.133,-0.483L0.133,-0.422C0.148,-0.443 0.167,-0.459 0.19,-0.47C0.213,-0.481 0.241,-0.486 0.273,-0.486L0.317,-0.486L0.317,-0.409L0.272,-0.409C0.226,-0.409 0.192,-0.397 0.169,-0.373C0.146,-0.349 0.134,-0.313 0.134,-0.264L0.134,-0L0.053,-0L0.053,-0.483Z" style="fill:#0068b5;fill-rule:nonzero;"/>
                    </g>
                    <g transform="matrix(14.0681,0,0,14.0681,371.223,316.03)">
                        <path d="M0.08,-0.129L0.08,-0.411L0.014,-0.411L0.014,-0.483L0.08,-0.483L0.08,-0.631L0.161,-0.631L0.161,-0.483L0.273,-0.483L0.273,-0.411L0.161,-0.411L0.161,-0.136C0.161,-0.115 0.166,-0.099 0.175,-0.089C0.185,-0.078 0.2,-0.073 0.22,-0.073L0.273,-0.073L0.273,-0L0.208,-0C0.163,-0 0.131,-0.01 0.111,-0.031C0.09,-0.052 0.08,-0.084 0.08,-0.129Z" style="fill:#0068b5;fill-rule:nonzero;"/>
                    </g>
                    <g transform="matrix(14.0681,0,0,14.0681,378.074,316.03)">
                        <path d="M0.08,-0.129L0.08,-0.411L0.014,-0.411L0.014,-0.483L0.08,-0.483L0.08,-0.631L0.161,-0.631L0.161,-0.483L0.273,-0.483L0.273,-0.411L0.161,-0.411L0.161,-0.136C0.161,-0.115 0.166,-0.099 0.175,-0.089C0.185,-0.078 0.2,-0.073 0.22,-0.073L0.273,-0.073L0.273,-0L0.208,-0C0.163,-0 0.131,-0.01 0.111,-0.031C0.09,-0.052 0.08,-0.084 0.08,-0.129Z" style="fill:#0068b5;fill-rule:nonzero;"/>
                    </g>
                    <g transform="matrix(14.0681,0,0,14.0681,382.21,316.03)">
                        <path d="M0.534,-0.241C0.534,-0.168 0.51,-0.108 0.461,-0.059C0.412,-0.01 0.352,0.015 0.281,0.015C0.21,0.015 0.15,-0.009 0.102,-0.058C0.055,-0.107 0.031,-0.167 0.031,-0.24C0.031,-0.313 0.055,-0.374 0.104,-0.423C0.153,-0.471 0.213,-0.496 0.284,-0.496C0.355,-0.496 0.415,-0.472 0.463,-0.423C0.51,-0.374 0.534,-0.314 0.534,-0.241ZM0.114,-0.24C0.114,-0.188 0.13,-0.144 0.163,-0.109C0.195,-0.074 0.235,-0.056 0.283,-0.056C0.33,-0.056 0.37,-0.074 0.403,-0.109C0.435,-0.144 0.451,-0.188 0.451,-0.241C0.451,-0.292 0.435,-0.336 0.402,-0.372C0.369,-0.407 0.329,-0.425 0.282,-0.425C0.235,-0.425 0.195,-0.407 0.163,-0.372C0.13,-0.337 0.114,-0.293 0.114,-0.24Z" style="fill:#0068b5;fill-rule:nonzero;"/>
                    </g>
                    <g transform="matrix(14.0681,0,0,14.0681,392.761,316.03)">
                        <path d="M0.534,-0.241C0.534,-0.168 0.51,-0.108 0.461,-0.059C0.412,-0.01 0.352,0.015 0.281,0.015C0.21,0.015 0.15,-0.009 0.102,-0.058C0.055,-0.107 0.031,-0.167 0.031,-0.24C0.031,-0.313 0.055,-0.374 0.104,-0.423C0.153,-0.471 0.213,-0.496 0.284,-0.496C0.355,-0.496 0.415,-0.472 0.463,-0.423C0.51,-0.374 0.534,-0.314 0.534,-0.241ZM0.114,-0.24C0.114,-0.188 0.13,-0.144 0.163,-0.109C0.195,-0.074 0.235,-0.056 0.283,-0.056C0.33,-0.056 0.37,-0.074 0.403,-0.109C0.435,-0.144 0.451,-0.188 0.451,-0.241C0.451,-0.292 0.435,-0.336 0.402,-0.372C0.369,-0.407 0.329,-0.425 0.282,-0.425C0.235,-0.425 0.195,-0.407 0.163,-0.372C0.13,-0.337 0.114,-0.293 0.114,-0.24Z" style="fill:#0068b5;fill-rule:nonzero;"/>
                    </g>
                    <g transform="matrix(14.0681,0,0,14.0681,400.71,316.03)">
                        <path d="M0.134,0.18L0.053,0.18L0.053,-0.483L0.133,-0.483L0.133,-0.405C0.154,-0.433 0.181,-0.455 0.212,-0.47C0.243,-0.486 0.277,-0.494 0.312,-0.494C0.38,-0.494 0.437,-0.47 0.482,-0.424C0.527,-0.377 0.55,-0.316 0.55,-0.243C0.55,-0.169 0.527,-0.108 0.48,-0.061C0.433,-0.013 0.375,0.011 0.306,0.011C0.273,0.011 0.242,0.004 0.212,-0.01C0.181,-0.023 0.155,-0.043 0.134,-0.068L0.134,0.18ZM0.303,-0.422C0.254,-0.422 0.214,-0.405 0.181,-0.37C0.148,-0.335 0.131,-0.291 0.131,-0.239C0.131,-0.188 0.147,-0.145 0.18,-0.111C0.212,-0.077 0.252,-0.06 0.3,-0.06C0.349,-0.06 0.39,-0.077 0.421,-0.11C0.452,-0.142 0.467,-0.186 0.467,-0.241C0.467,-0.295 0.452,-0.339 0.422,-0.372C0.391,-0.405 0.352,-0.422 0.303,-0.422Z" style="fill:#0068b5;fill-rule:nonzero;"/>
                    </g>
                    <g transform="matrix(14.0681,0,0,14.0681,408.813,316.03)">
                        <path d="M0.08,-0.129L0.08,-0.411L0.014,-0.411L0.014,-0.483L0.08,-0.483L0.08,-0.631L0.161,-0.631L0.161,-0.483L0.273,-0.483L0.273,-0.411L0.161,-0.411L0.161,-0.136C0.161,-0.115 0.166,-0.099 0.175,-0.089C0.185,-0.078 0.2,-0.073 0.22,-0.073L0.273,-0.073L0.273,-0L0.208,-0C0.163,-0 0.131,-0.01 0.111,-0.031C0.09,-0.052 0.08,-0.084 0.08,-0.129Z" style="fill:#0068b5;fill-rule:nonzero;"/>
                    </g>
                    <g transform="matrix(14.0681,0,0,14.0681,413.062,316.03)">
                        <path d="M0.058,-0.645L0.148,-0.645L0.148,-0.556L0.058,-0.556L0.058,-0.645ZM0.062,-0L0.062,-0.483L0.144,-0.483L0.144,-0L0.062,-0Z" style="fill:#0068b5;fill-rule:nonzero;"/>
                    </g>
                    <g transform="matrix(14.0681,0,0,14.0681,415.96,316.03)">
                        <path d="M0.053,-0.483L0.133,-0.483L0.133,-0.425C0.151,-0.448 0.172,-0.466 0.195,-0.477C0.218,-0.489 0.243,-0.495 0.272,-0.495C0.305,-0.495 0.335,-0.488 0.361,-0.474C0.387,-0.46 0.408,-0.44 0.423,-0.413C0.441,-0.44 0.464,-0.46 0.492,-0.474C0.519,-0.488 0.55,-0.495 0.585,-0.495C0.642,-0.495 0.687,-0.477 0.721,-0.44C0.754,-0.403 0.771,-0.356 0.771,-0.297L0.771,-0L0.689,-0L0.689,-0.292C0.689,-0.333 0.679,-0.365 0.659,-0.388C0.638,-0.41 0.61,-0.422 0.573,-0.422C0.537,-0.422 0.508,-0.409 0.486,-0.385C0.463,-0.36 0.452,-0.327 0.452,-0.287L0.452,-0L0.371,-0L0.371,-0.292C0.371,-0.333 0.361,-0.365 0.341,-0.388C0.32,-0.41 0.292,-0.422 0.255,-0.422C0.219,-0.422 0.19,-0.409 0.168,-0.385C0.145,-0.36 0.134,-0.327 0.134,-0.287L0.134,-0L0.053,-0L0.053,-0.483Z" style="fill:#0068b5;fill-rule:nonzero;"/>
                    </g>
                    <g transform="matrix(14.0681,0,0,14.0681,427.467,316.03)">
                        <path d="M0.058,-0.645L0.148,-0.645L0.148,-0.556L0.058,-0.556L0.058,-0.645ZM0.062,-0L0.062,-0.483L0.144,-0.483L0.144,-0L0.062,-0Z" style="fill:#0068b5;fill-rule:nonzero;"/>
                    </g>
                    <g transform="matrix(14.0681,0,0,14.0681,430.365,316.03)">
                        <path d="M0.445,-0L0.022,-0L0.022,-0.064L0.33,-0.415L0.034,-0.415L0.034,-0.483L0.432,-0.483L0.432,-0.419L0.127,-0.068L0.445,-0.068L0.445,-0Z" style="fill:#0068b5;fill-rule:nonzero;"/>
                    </g>
                    <g transform="matrix(14.0681,0,0,14.0681,436.682,316.03)">
                        <path d="M0.286,-0.054C0.318,-0.054 0.347,-0.061 0.375,-0.075C0.402,-0.088 0.426,-0.109 0.449,-0.137L0.498,-0.092C0.471,-0.056 0.439,-0.029 0.402,-0.012C0.365,0.006 0.324,0.015 0.279,0.015C0.206,0.015 0.147,-0.009 0.101,-0.057C0.054,-0.104 0.031,-0.165 0.031,-0.24C0.031,-0.313 0.055,-0.373 0.102,-0.422C0.149,-0.471 0.208,-0.495 0.277,-0.495C0.348,-0.495 0.405,-0.472 0.449,-0.426C0.493,-0.38 0.515,-0.32 0.515,-0.246C0.515,-0.241 0.515,-0.234 0.514,-0.228C0.513,-0.221 0.513,-0.215 0.512,-0.212L0.115,-0.212C0.12,-0.165 0.139,-0.127 0.171,-0.098C0.202,-0.069 0.241,-0.054 0.286,-0.054ZM0.278,-0.426C0.236,-0.426 0.2,-0.412 0.17,-0.385C0.14,-0.358 0.122,-0.321 0.115,-0.275L0.433,-0.275C0.427,-0.322 0.41,-0.359 0.382,-0.386C0.354,-0.412 0.319,-0.426 0.278,-0.426Z" style="fill:#0068b5;fill-rule:nonzero;"/>
                    </g>
                    <g transform="matrix(14.0681,0,0,14.0681,444.335,316.03)">
                        <path d="M0.447,-0.7L0.529,-0.7L0.529,-0L0.448,-0L0.448,-0.078C0.426,-0.05 0.4,-0.028 0.369,-0.013C0.338,0.002 0.304,0.01 0.269,0.01C0.202,0.01 0.145,-0.014 0.1,-0.061C0.054,-0.108 0.031,-0.167 0.031,-0.24C0.031,-0.313 0.055,-0.374 0.102,-0.423C0.149,-0.471 0.206,-0.495 0.275,-0.495C0.308,-0.495 0.34,-0.488 0.37,-0.474C0.399,-0.461 0.425,-0.441 0.447,-0.416L0.447,-0.7ZM0.278,-0.061C0.327,-0.061 0.368,-0.079 0.401,-0.114C0.434,-0.149 0.45,-0.192 0.45,-0.243C0.45,-0.295 0.434,-0.338 0.402,-0.372C0.37,-0.406 0.33,-0.423 0.282,-0.423C0.233,-0.423 0.192,-0.406 0.161,-0.373C0.13,-0.34 0.114,-0.296 0.114,-0.242C0.114,-0.188 0.129,-0.144 0.16,-0.111C0.191,-0.078 0.23,-0.061 0.278,-0.061Z" style="fill:#0068b5;fill-rule:nonzero;"/>
                    </g>
                    <g transform="matrix(14.0681,0,0,14.0681,348.714,330.098)">
                        <path d="M0.037,-0.349C0.037,-0.452 0.071,-0.539 0.14,-0.61C0.209,-0.681 0.293,-0.716 0.394,-0.716C0.495,-0.716 0.58,-0.681 0.648,-0.612C0.715,-0.542 0.749,-0.455 0.749,-0.351C0.749,-0.247 0.715,-0.16 0.647,-0.09C0.578,-0.019 0.494,0.016 0.393,0.016C0.292,0.016 0.207,-0.019 0.139,-0.089C0.071,-0.158 0.037,-0.245 0.037,-0.349ZM0.125,-0.351C0.125,-0.269 0.151,-0.2 0.203,-0.145C0.254,-0.089 0.318,-0.061 0.394,-0.061C0.47,-0.061 0.534,-0.089 0.585,-0.143C0.635,-0.199 0.661,-0.267 0.661,-0.349C0.661,-0.431 0.635,-0.5 0.584,-0.556C0.533,-0.611 0.469,-0.639 0.393,-0.639C0.316,-0.639 0.253,-0.612 0.202,-0.557C0.151,-0.501 0.125,-0.433 0.125,-0.351Z" style="fill:#0068b5;fill-rule:nonzero;"/>
                    </g>
                    <g transform="matrix(14.0681,0,0,14.0681,359.772,330.098)">
                        <path d="M0.134,0.18L0.053,0.18L0.053,-0.483L0.133,-0.483L0.133,-0.405C0.154,-0.433 0.181,-0.455 0.212,-0.47C0.243,-0.486 0.277,-0.494 0.312,-0.494C0.38,-0.494 0.437,-0.47 0.482,-0.424C0.527,-0.377 0.55,-0.316 0.55,-0.243C0.55,-0.169 0.527,-0.108 0.48,-0.061C0.433,-0.013 0.375,0.011 0.306,0.011C0.273,0.011 0.242,0.004 0.212,-0.01C0.181,-0.023 0.155,-0.043 0.134,-0.068L0.134,0.18ZM0.303,-0.422C0.254,-0.422 0.214,-0.405 0.181,-0.37C0.148,-0.335 0.131,-0.291 0.131,-0.239C0.131,-0.188 0.147,-0.145 0.18,-0.111C0.212,-0.077 0.252,-0.06 0.3,-0.06C0.349,-0.06 0.39,-0.077 0.421,-0.11C0.452,-0.142 0.467,-0.186 0.467,-0.241C0.467,-0.295 0.452,-0.339 0.422,-0.372C0.391,-0.405 0.352,-0.422 0.303,-0.422Z" style="fill:#0068b5;fill-rule:nonzero;"/>
                    </g>
                    <g transform="matrix(14.0681,0,0,14.0681,367.945,330.098)">
                        <path d="M0.286,-0.054C0.318,-0.054 0.347,-0.061 0.375,-0.075C0.402,-0.088 0.426,-0.109 0.449,-0.137L0.498,-0.092C0.471,-0.056 0.439,-0.029 0.402,-0.012C0.365,0.006 0.324,0.015 0.279,0.015C0.206,0.015 0.147,-0.009 0.101,-0.057C0.054,-0.104 0.031,-0.165 0.031,-0.24C0.031,-0.313 0.055,-0.373 0.102,-0.422C0.149,-0.471 0.208,-0.495 0.277,-0.495C0.348,-0.495 0.405,-0.472 0.449,-0.426C0.493,-0.38 0.515,-0.32 0.515,-0.246C0.515,-0.241 0.515,-0.234 0.514,-0.228C0.513,-0.221 0.513,-0.215 0.512,-0.212L0.115,-0.212C0.12,-0.165 0.139,-0.127 0.171,-0.098C0.202,-0.069 0.241,-0.054 0.286,-0.054ZM0.278,-0.426C0.236,-0.426 0.2,-0.412 0.17,-0.385C0.14,-0.358 0.122,-0.321 0.115,-0.275L0.433,-0.275C0.427,-0.322 0.41,-0.359 0.382,-0.386C0.354,-0.412 0.319,-0.426 0.278,-0.426Z" style="fill:#0068b5;fill-rule:nonzero;"/>
                    </g>
                    <g transform="matrix(14.0681,0,0,14.0681,375.598,330.098)">
                        <path d="M0.053,-0.483L0.133,-0.483L0.133,-0.408C0.152,-0.436 0.177,-0.458 0.206,-0.472C0.236,-0.488 0.269,-0.495 0.306,-0.495C0.37,-0.495 0.42,-0.474 0.456,-0.433C0.492,-0.392 0.51,-0.335 0.51,-0.263L0.51,-0L0.429,-0L0.429,-0.258C0.429,-0.309 0.417,-0.349 0.392,-0.378C0.367,-0.407 0.332,-0.422 0.287,-0.422C0.241,-0.422 0.204,-0.406 0.176,-0.375C0.148,-0.344 0.134,-0.303 0.134,-0.253L0.134,-0L0.053,-0L0.053,-0.483Z" style="fill:#0068b5;fill-rule:nonzero;"/>
                    </g>
                    <g transform="matrix(14.0681,0,0,14.0681,382.731,330.098)">
                        <path d="M0.323,-0L0.013,-0.7L0.107,-0.7L0.368,-0.11L0.626,-0.7L0.718,-0.7L0.408,-0L0.323,-0Z" style="fill:#0068b5;fill-rule:nonzero;"/>
                    </g>
                    <g transform="matrix(14.0681,0,0,14.0681,393.029,330.098)">
                        <rect x="0.072" y="-0.7" width="0.086" height="0.7" style="fill:#0068b5;fill-rule:nonzero;"/>
                    </g>
                    <g transform="matrix(14.0681,0,0,14.0681,396.264,330.098)">
                        <path d="M0.149,-0.575L0.149,-0L0.065,-0L0.065,-0.7L0.157,-0.7L0.594,-0.128L0.594,-0.7L0.678,-0.7L0.678,-0L0.588,-0L0.149,-0.575Z" style="fill:#0068b5;fill-rule:nonzero;"/>
                    </g>
                    <g transform="matrix(14.0681,0,0,14.0681,406.717,330.098)">
                        <path d="M0.037,-0.349C0.037,-0.452 0.071,-0.539 0.14,-0.61C0.209,-0.681 0.293,-0.716 0.394,-0.716C0.495,-0.716 0.58,-0.681 0.648,-0.612C0.715,-0.542 0.749,-0.455 0.749,-0.351C0.749,-0.247 0.715,-0.16 0.647,-0.09C0.578,-0.019 0.494,0.016 0.393,0.016C0.292,0.016 0.207,-0.019 0.139,-0.089C0.071,-0.158 0.037,-0.245 0.037,-0.349ZM0.125,-0.351C0.125,-0.269 0.151,-0.2 0.203,-0.145C0.254,-0.089 0.318,-0.061 0.394,-0.061C0.47,-0.061 0.534,-0.089 0.585,-0.143C0.635,-0.199 0.661,-0.267 0.661,-0.349C0.661,-0.431 0.635,-0.5 0.584,-0.556C0.533,-0.611 0.469,-0.639 0.393,-0.639C0.316,-0.639 0.253,-0.612 0.202,-0.557C0.151,-0.501 0.125,-0.433 0.125,-0.351Z" style="fill:#0068b5;fill-rule:nonzero;"/>
                    </g>
                    <g transform="matrix(14.0681,0,0,14.0681,420.377,330.098)">
                        <rect x="0.072" y="-0.7" width="0.086" height="0.7" style="fill:#0068b5;fill-rule:nonzero;"/>
                    </g>
                    <g transform="matrix(14.0681,0,0,14.0681,423.613,330.098)">
                        <path d="M0.44,-0.295L0.639,-0L0.537,-0L0.348,-0.285L0.151,-0.285L0.151,-0L0.065,-0L0.065,-0.7L0.373,-0.7C0.452,-0.7 0.513,-0.682 0.557,-0.646C0.601,-0.609 0.623,-0.559 0.623,-0.496C0.623,-0.444 0.607,-0.4 0.575,-0.365C0.543,-0.33 0.498,-0.306 0.44,-0.295ZM0.536,-0.494C0.536,-0.535 0.522,-0.567 0.493,-0.59C0.464,-0.613 0.423,-0.624 0.371,-0.624L0.151,-0.624L0.151,-0.36L0.364,-0.36C0.417,-0.36 0.459,-0.372 0.49,-0.397C0.521,-0.421 0.536,-0.453 0.536,-0.494Z" style="fill:#0068b5;fill-rule:nonzero;"/>
                    </g>
                </g>
                <g transform="matrix(5.9676e-18,0.220543,-0.128168,1.77597e-17,3784.31,239.708)">
                    <path d="M71.526,170.644L71.526,194.149C71.526,195.463 70.511,196.654 68.934,197.191C67.357,197.727 65.512,197.509 64.224,196.633C52.154,188.426 28.469,172.322 19.381,166.143C18.447,165.508 17.913,164.601 17.913,163.648C17.913,162.695 18.447,161.787 19.381,161.152C28.469,154.973 52.154,138.87 64.224,130.663C65.512,129.787 67.357,129.569 68.934,130.105C70.511,130.642 71.526,131.833 71.526,133.146L71.526,156.652L149.412,156.652C151.832,156.652 153.794,158.143 153.794,159.983C153.794,162.199 153.794,165.097 153.794,167.312C153.794,169.152 151.832,170.644 149.412,170.644C123.816,170.644 71.526,170.644 71.526,170.644Z" style="fill:#0068b5;"/>
                </g>
            </g>
        </g>
        <g transform="matrix(1.2405,0,0,1,-4217.7,1302.18)">
            <g id="B-norm" serif:id="B norm" transform="matrix(0.809463,0,0,1,-461.298,-592.9)">
                <g transform="matrix(1.1674,0,0,0.77827,1309.06,641.42)">
                    <rect x="3521.05" y="45.956" width="255.921" height="255.921" style="fill:#0068b5;"/>
                </g>
                <g transform="matrix(1.84054,0,0,1.84815,4850.54,132.694)">
                    <g transform="matrix(15.6913,0,0,15.6913,334.417,353.991)">
                        <path d="M0.037,-0.349C0.037,-0.452 0.071,-0.539 0.14,-0.61C0.209,-0.681 0.293,-0.716 0.394,-0.716C0.495,-0.716 0.58,-0.681 0.648,-0.612C0.715,-0.542 0.749,-0.455 0.749,-0.351C0.749,-0.247 0.715,-0.16 0.647,-0.09C0.578,-0.019 0.494,0.016 0.393,0.016C0.292,0.016 0.207,-0.019 0.139,-0.089C0.071,-0.158 0.037,-0.245 0.037,-0.349ZM0.125,-0.351C0.125,-0.269 0.151,-0.2 0.203,-0.145C0.254,-0.089 0.318,-0.061 0.394,-0.061C0.47,-0.061 0.534,-0.089 0.585,-0.143C0.635,-0.199 0.661,-0.267 0.661,-0.349C0.661,-0.431 0.635,-0.5 0.584,-0.556C0.533,-0.611 0.469,-0.639 0.393,-0.639C0.316,-0.639 0.253,-0.612 0.202,-0.557C0.151,-0.501 0.125,-0.433 0.125,-0.351Z" style="fill:#fff;fill-rule:nonzero;"/>
                    </g>
                    <g transform="matrix(15.6913,0,0,15.6913,346.751,353.991)">
                        <path d="M0.065,-0L0.065,-0.7L0.369,-0.7C0.446,-0.7 0.506,-0.681 0.551,-0.643C0.595,-0.604 0.617,-0.552 0.617,-0.487C0.617,-0.421 0.593,-0.368 0.545,-0.329C0.497,-0.289 0.433,-0.269 0.353,-0.269L0.151,-0.269L0.151,-0L0.065,-0ZM0.529,-0.485C0.529,-0.528 0.515,-0.561 0.486,-0.586C0.457,-0.61 0.417,-0.622 0.366,-0.622L0.151,-0.622L0.151,-0.346L0.359,-0.346C0.411,-0.346 0.452,-0.359 0.483,-0.384C0.514,-0.408 0.529,-0.442 0.529,-0.485Z" style="fill:#fff;fill-rule:nonzero;"/>
                    </g>
                    <g transform="matrix(15.6913,0,0,15.6913,356.746,353.991)">
                        <path d="M0.292,-0.622L0.02,-0.622L0.02,-0.7L0.649,-0.7L0.649,-0.622L0.378,-0.622L0.378,-0L0.292,-0L0.292,-0.622Z" style="fill:#fff;fill-rule:nonzero;"/>
                    </g>
                    <g transform="matrix(15.6913,0,0,15.6913,367.244,353.991)">
                        <rect x="0.072" y="-0.7" width="0.086" height="0.7" style="fill:#fff;fill-rule:nonzero;"/>
                    </g>
                    <g transform="matrix(15.6913,0,0,15.6913,370.853,353.991)">
                        <path d="M0.652,-0.7L0.766,-0.7L0.766,-0L0.68,-0L0.68,-0.59L0.451,-0.19L0.381,-0.19L0.151,-0.589L0.151,-0L0.065,-0L0.065,-0.7L0.179,-0.7L0.416,-0.291L0.652,-0.7Z" style="fill:#fff;fill-rule:nonzero;"/>
                    </g>
                    <g transform="matrix(15.6913,0,0,15.6913,383.892,353.991)">
                        <rect x="0.072" y="-0.7" width="0.086" height="0.7" style="fill:#fff;fill-rule:nonzero;"/>
                    </g>
                    <g transform="matrix(15.6913,0,0,15.6913,387.501,353.991)">
                        <path d="M0.657,-0L0.029,-0L0.029,-0.065L0.521,-0.626L0.047,-0.626L0.047,-0.7L0.639,-0.7L0.639,-0.635L0.145,-0.074L0.657,-0.074L0.657,-0Z" style="fill:#fff;fill-rule:nonzero;"/>
                    </g>
                    <g transform="matrix(15.6913,0,0,15.6913,398.281,353.991)">
                        <path d="M0.195,-0.211L0.103,-0L0.013,-0L0.324,-0.7L0.408,-0.7L0.718,-0L0.627,-0L0.534,-0.211L0.195,-0.211ZM0.364,-0.597L0.229,-0.287L0.501,-0.287L0.364,-0.597Z" style="fill:#fff;fill-rule:nonzero;"/>
                    </g>
                    <g transform="matrix(15.6913,0,0,15.6913,408.151,353.991)">
                        <path d="M0.292,-0.622L0.02,-0.622L0.02,-0.7L0.649,-0.7L0.649,-0.622L0.378,-0.622L0.378,-0L0.292,-0L0.292,-0.622Z" style="fill:#fff;fill-rule:nonzero;"/>
                    </g>
                    <g transform="matrix(15.6913,0,0,15.6913,418.648,353.991)">
                        <rect x="0.072" y="-0.7" width="0.086" height="0.7" style="fill:#fff;fill-rule:nonzero;"/>
                    </g>
                    <g transform="matrix(15.6913,0,0,15.6913,422.257,353.991)">
                        <path d="M0.037,-0.349C0.037,-0.452 0.071,-0.539 0.14,-0.61C0.209,-0.681 0.293,-0.716 0.394,-0.716C0.495,-0.716 0.58,-0.681 0.648,-0.612C0.715,-0.542 0.749,-0.455 0.749,-0.351C0.749,-0.247 0.715,-0.16 0.647,-0.09C0.578,-0.019 0.494,0.016 0.393,0.016C0.292,0.016 0.207,-0.019 0.139,-0.089C0.071,-0.158 0.037,-0.245 0.037,-0.349ZM0.125,-0.351C0.125,-0.269 0.151,-0.2 0.203,-0.145C0.254,-0.089 0.318,-0.061 0.394,-0.061C0.47,-0.061 0.534,-0.089 0.585,-0.143C0.635,-0.199 0.661,-0.267 0.661,-0.349C0.661,-0.431 0.635,-0.5 0.584,-0.556C0.533,-0.611 0.469,-0.639 0.393,-0.639C0.316,-0.639 0.253,-0.612 0.202,-0.557C0.151,-0.501 0.125,-0.433 0.125,-0.351Z" style="fill:#fff;fill-rule:nonzero;"/>
                    </g>
                    <g transform="matrix(15.6913,0,0,15.6913,434.591,353.991)">
                        <path d="M0.149,-0.575L0.149,-0L0.065,-0L0.065,-0.7L0.157,-0.7L0.594,-0.128L0.594,-0.7L0.678,-0.7L0.678,-0L0.588,-0L0.149,-0.575Z" style="fill:#fff;fill-rule:nonzero;"/>
                    </g>
                </g>
            </g>
        </g>
    </g>
</svg>
