<?xml version="1.0" encoding="UTF-8" standalone="no"?>
<!DOCTYPE svg PUBLIC "-//W3C//DTD SVG 1.1//EN" "http://www.w3.org/Graphics/SVG/1.1/DTD/svg11.dtd">
<svg width="100%" height="100%" viewBox="0 0 300 500" version="1.1" xmlns="http://www.w3.org/2000/svg" xmlns:xlink="http://www.w3.org/1999/xlink" xml:space="preserve" xmlns:serif="http://www.serif.com/" style="fill-rule:evenodd;clip-rule:evenodd;stroke-linejoin:round;stroke-miterlimit:2;">
    <g transform="matrix(1,0,0,1,1.08002e-12,-1386.47)">
        <g id="Artboard3" transform="matrix(1.2405,0,0,1,-4217.7,1302.18)">
            <rect x="3400" y="0" width="1650" height="1199.97" style="fill:none;"/>
            <clipPath id="_clip1">
                <rect x="3400" y="0" width="1650" height="1199.97"/>
            </clipPath>
            <g clip-path="url(#_clip1)">
                <g transform="matrix(0.633052,0,0,2.23727,3320.61,-3971.85)">
                    <rect x="125.413" y="1812.98" width="380.444" height="223.486" style="fill:white;"/>
                </g>
                <g id="C--btm" serif:id="C -btm">
                </g>
                <g id="C--btm1" serif:id="C -btm">
                </g>
                <g id="C-onhover" serif:id="C onhover">
                </g>
                <g id="C-norm" serif:id="C norm">
                </g>
                <g id="B--btm" serif:id="B -btm">
                </g>
                <g id="B--btm1" serif:id="B -btm">
                </g>
                <g id="B-onhover" serif:id="B onhover">
                </g>
                <g id="B-norm" serif:id="B norm">
                </g>
                <g id="A--btm" serif:id="A -btm" transform="matrix(0.806126,0,0,1,436.05,48.5296)">
                    <g transform="matrix(0.313433,0,0,0.919528,3590.96,24.2016)">
                        <rect x="273.804" y="280.744" width="12.871" height="4.375" style="fill:rgb(0,163,246);"/>
                    </g>
                    <g transform="matrix(1.00414,0,0,1,3398.85,-5.12162)">
                        <path d="M282.818,287.475L575.546,287.475L575.546,345.292L276.783,345.292L276.783,293.518L280.783,293.518L280.783,341.292C313.643,341.292 538.687,341.292 571.546,341.292L571.546,291.475L571.546,291.475L282.818,291.475L282.818,287.475Z" style="fill:rgb(0,104,181);"/>
                    </g>
                    <g transform="matrix(1.84815,0,0,1.84815,3104.42,-263.116)">
                        <text x="320.487px" y="315.715px" style="font-family:'IntelOneDisplay-Regular', 'IntelOne Display', sans-serif;font-size:14.068px;fill:rgb(0,104,181);">tr<tspan x="329.096px " y="315.715px ">a</tspan>in the model y<tspan x="419.582px " y="315.715px ">o</tspan>urself</text>
                    </g>
                    <g transform="matrix(0.313433,0,0,0.919528,3590.96,94.8808)">
                        <rect x="273.804" y="280.744" width="12.871" height="4.375" style="fill:rgb(0,163,246);"/>
                    </g>
                    <g transform="matrix(1.00414,0,0,1,3398.85,65.5576)">
                        <path d="M282.818,287.475L575.546,287.475L575.546,345.292L276.783,345.292L276.783,293.518L280.783,293.518L280.783,341.292C313.643,341.292 538.687,341.292 571.546,341.292L571.546,291.475L571.546,291.475L282.818,291.475L282.818,287.475Z" style="fill:rgb(0,104,181);"/>
                    </g>
                    <g transform="matrix(1.84815,0,0,1.84815,3104.42,-192.437)">
                        <text x="318.032px" y="315.715px" style="font-family:'IntelOneDisplay-Regular', 'IntelOne Display', sans-serif;font-size:14.068px;fill:rgb(0,104,181);">pick a pr<tspan x="368.255px 376.048px " y="315.715px 315.715px ">e-</tspan>tr<tspan x="389.104px " y="315.715px ">a</tspan>ined model</text>
                    </g>
                    <g transform="matrix(0.313433,0,0,0.919528,3590.96,165.56)">
                        <rect x="273.804" y="280.744" width="12.871" height="4.375" style="fill:rgb(0,163,246);"/>
                    </g>
                    <g transform="matrix(1.00414,0,0,1,3398.85,136.237)">
                        <path d="M282.818,287.475L575.546,287.475L575.546,372.455L276.783,372.455L276.783,293.518L280.783,293.518L280.783,368.455C313.643,368.455 538.687,368.455 571.546,368.455L571.546,291.475L571.546,291.475L282.818,291.475L282.818,287.475Z" style="fill:rgb(0,104,181);"/>
                    </g>
                    <g transform="matrix(1.84815,0,0,1.84815,3104.42,-121.758)">
                        <text x="320.205px" y="316.03px" style="font-family:'IntelOneDisplay-Regular', 'IntelOne Display', sans-serif;font-size:14.068px;fill:rgb(0,104,181);">do<tspan x="336.004px " y="316.03px ">w</tspan>nload a model fr<tspan x="442.063px " y="316.03px ">o</tspan>m</text>
                        <text x="338.993px" y="330.098px" style="font-family:'IntelOneDisplay-Regular', 'IntelOne Display', sans-serif;font-size:14.068px;fill:rgb(0,104,181);">Open Model Z<tspan x="426.834px " y="330.098px ">o</tspan>o</text>
                    </g>
                    <g transform="matrix(1.35603e-17,0.220543,-0.291238,1.77597e-17,3875.74,239.708)">
                        <path d="M71.526,170.644L71.526,194.149C71.526,195.463 70.511,196.654 68.934,197.191C67.357,197.727 65.512,197.509 64.224,196.633C52.154,188.426 28.469,172.322 19.381,166.143C18.447,165.508 17.913,164.601 17.913,163.648C17.913,162.695 18.447,161.787 19.381,161.152C28.469,154.973 52.154,138.87 64.224,130.663C65.512,129.787 67.357,129.569 68.934,130.105C70.511,130.642 71.526,131.833 71.526,133.146L71.526,156.652L149.412,156.652C151.832,156.652 153.794,158.143 153.794,159.983C153.794,162.199 153.794,165.097 153.794,167.312C153.794,169.152 151.832,170.644 149.412,170.644C123.816,170.644 71.526,170.644 71.526,170.644Z" style="fill:rgb(0,104,181);"/>
                    </g>
                </g>
                <g id="A--btm1" serif:id="A -btm">
                </g>
                <g id="A-onhover" serif:id="A onhover">
                </g>
                <g id="A-norm" serif:id="A norm" transform="matrix(0.806126,0,0,1,436.05,48.5296)">
                    <g transform="matrix(1.17224,0,0,0.77827,-450.723,-0.00974012)">
                        <rect x="3521.05" y="45.956" width="255.921" height="255.921" style="fill:rgb(0,104,181);"/>
                    </g>
                    <g transform="matrix(1.84815,0,0,1.84815,3105.4,-508.736)">
                        <text x="362.52px" y="353.991px" style="font-family:'IntelOneDisplay-Regular', 'IntelOne Display', sans-serif;font-size:15.691px;fill:white;">MODEL</text>
                    </g>
                </g>
            </g>
        </g>
    </g>
</svg>
