<?xml version="1.0" encoding="UTF-8" standalone="no"?>
<svg
   width="512"
   height="528"
   overflow="hidden"
   version="1.1"
   id="svg325"
   sodipodi:docname="state_network_example (1).svg"
   inkscape:version="1.2.1 (9c6d41e410, 2022-07-14)"
   xmlns:inkscape="http://www.inkscape.org/namespaces/inkscape"
   xmlns:sodipodi="http://sodipodi.sourceforge.net/DTD/sodipodi-0.dtd"
   xmlns="http://www.w3.org/2000/svg"
   xmlns:svg="http://www.w3.org/2000/svg">
  <sodipodi:namedview
     id="namedview327"
     pagecolor="#ffffff"
     bordercolor="#000000"
     borderopacity="0.25"
     inkscape:showpageshadow="2"
     inkscape:pageopacity="0.0"
     inkscape:pagecheckerboard="0"
     inkscape:deskcolor="#d1d1d1"
     showgrid="false"
     inkscape:zoom="1.6742424"
     inkscape:cx="255.93665"
     inkscape:cy="264"
     inkscape:window-width="1920"
     inkscape:window-height="1129"
     inkscape:window-x="-8"
     inkscape:window-y="-8"
     inkscape:window-maximized="1"
     inkscape:current-layer="svg325" />
  <defs
     id="defs283">
    <clipPath
       id="clip0">
      <rect
         x="0"
         y="0"
         width="512"
         height="528"
         id="rect280" />
    </clipPath>
  </defs>
  <g
     clip-path="url(#clip0)"
     id="g323">
    <path
       id="rect285"
       style="fill:#ffffff"
       d="M 0,0 H 512 V 528 H 0 Z" />
    <path
       d="M52.5001 88.8335C52.5001 84.2311 56.2311 80.5001 60.8335 80.5001L180.167 80.5001C184.769 80.5001 188.5 84.2311 188.5 88.8335L188.5 122.167C188.5 126.769 184.769 130.5 180.167 130.5L60.8335 130.5C56.2311 130.5 52.5001 126.769 52.5001 122.167Z"
       stroke="#000000"
       stroke-width="1.33333"
       stroke-miterlimit="8"
       fill="#FFFFFF"
       fill-rule="evenodd"
       id="path287" />
    <g
       aria-label="input"
       transform="translate(93.5833 114)"
       id="text289"
       style="font-size:24px;font-family:'IntelOne Display Regular', 'IntelOne Display Regular_MSFontService', sans-serif">
      <path
         d="m 1.392,-15.48 h 2.16 v 2.136 H 1.392 Z M 1.488,0 V -11.592 H 3.456 V 0 Z"
         id="path434" />
      <path
         d="m 6.215985,-11.592 h 1.92 v 1.8 q 0.696,-1.008 1.752,-1.536 1.08,-0.552 2.4,-0.552 2.304,0 3.6,1.488 1.296,1.488 1.296,4.08 V 0 h -1.944 v -6.192 q 0,-1.824 -0.912,-2.88 -0.888,-1.056 -2.496,-1.056 -1.656,0 -2.664,1.128 -1.008,1.128 -1.008,2.928 V 0 h -1.944 z"
         id="path436" />
      <path
         d="m 21.527966,4.32 h -1.944 v -15.912 h 1.92 v 1.872 q 0.768,-1.008 1.896,-1.56 1.128,-0.576 2.4,-0.576 2.448,0 4.08,1.704 1.632,1.68 1.632,4.32 0,2.664 -1.704,4.392 -1.68,1.704 -4.152,1.704 -1.176,0 -2.28,-0.48 -1.08,-0.504 -1.848,-1.416 z m 4.056,-14.448 q -1.752,0 -2.952,1.272 -1.176,1.248 -1.176,3.12 0,1.848 1.152,3.072 1.176,1.224 2.904,1.224 1.776,0 2.88,-1.176 1.128,-1.2 1.128,-3.168 0,-1.944 -1.104,-3.144 -1.08,-1.2 -2.832,-1.2 z"
         id="path438" />
      <path
         d="m 44.375951,0 h -1.944 v -1.776 q -0.696,1.008 -1.752,1.536 -1.056,0.504 -2.4,0.504 -2.28,0 -3.6,-1.488 -1.296,-1.488 -1.296,-4.056 v -6.312 h 1.968 V -5.4 q 0,1.824 0.888,2.88 0.912,1.056 2.52,1.056 1.632,0 2.64,-1.128 1.008,-1.128 1.008,-2.928 v -6.072 h 1.968 z"
         id="path440" />
      <path
         d="m 47.543932,-3.096 v -6.768 h -1.584 v -1.728 h 1.584 v -3.552 h 1.944 v 3.552 h 2.688 v 1.728 h -2.688 v 6.6 q 0,0.768 0.336,1.152 0.36,0.36 1.08,0.36 h 1.272 V 0 h -1.56 q -1.608,0 -2.352,-0.744 -0.72,-0.744 -0.72,-2.352 z"
         id="path442" />
    </g>
    <path
       d="M308.5 88.8335C308.5 84.2311 312.231 80.5001 316.833 80.5001L436.167 80.5001C440.769 80.5001 444.5 84.2311 444.5 88.8335L444.5 122.167C444.5 126.769 440.769 130.5 436.167 130.5L316.833 130.5C312.231 130.5 308.5 126.769 308.5 122.167Z"
       stroke="#000000"
       stroke-width="1.33333"
       stroke-miterlimit="8"
       fill="#FFFFFF"
       fill-rule="evenodd"
       id="path291" />
    <g
       aria-label="read"
       transform="translate(352.333 114)"
       id="text293"
       style="font-size:24px;font-family:'IntelOne Display Regular', 'IntelOne Display Regular_MSFontService', sans-serif">
      <path
         d="m 1.272,-11.592 h 1.92 v 1.464 q 0.528,-0.768 1.368,-1.152 0.84,-0.384 1.992,-0.384 h 1.056 v 1.848 h -1.08 q -1.656,0 -2.496,0.864 -0.816,0.864 -0.816,2.616 V 0 H 1.272 Z"
         id="path445" />
      <path
         d="m 14.471986,-1.296 q 1.152,0 2.112,-0.48 0.984,-0.504 1.8,-1.512 l 1.176,1.08 q -0.984,1.296 -2.304,1.944 -1.32,0.624 -2.952,0.624 -2.616,0 -4.296,-1.704 -1.6559995,-1.728 -1.6559995,-4.416 0,-2.616 1.7039995,-4.368 1.704,-1.752 4.2,-1.752 2.544,0 4.128,1.656 1.584,1.656 1.584,4.32 0,0.192 -0.024,0.456 -0.024,0.24 -0.048,0.36 h -9.528 q 0.192,1.704 1.32,2.76 1.152,1.032 2.784,1.032 z m -0.192,-8.928 q -1.512,0 -2.592,0.984 -1.08,0.984 -1.32,2.64 h 7.632 q -0.216,-1.68 -1.224,-2.64 -1.008,-0.984 -2.496,-0.984 z"
         id="path447" />
      <path
         d="m 31.896001,0 h -1.896 v -1.896 q -0.696,1.008 -1.896,1.584 -1.176,0.552 -2.544,0.552 -1.92,0 -3.12,-0.96 -1.2,-0.984 -1.2,-2.568 0,-1.752 1.344,-2.64 1.344,-0.912 3.984,-0.912 h 3.408 q -0.024,-1.632 -0.864,-2.52 -0.816,-0.888 -2.352,-0.888 -0.912,0 -1.8,0.384 -0.888,0.384 -1.752,1.176 l -1.032,-1.296 q 1.008,-0.96 2.208,-1.44 1.2,-0.504 2.568,-0.504 2.328,0 3.624,1.392 1.32,1.368 1.32,3.792 z m -1.92,-5.328 h -3.384 q -1.752,0 -2.592,0.48 -0.84,0.48 -0.84,1.512 0,0.864 0.72,1.44 0.744,0.576 1.896,0.576 1.728,0 2.904,-1.104 1.2,-1.128 1.296,-2.904 z"
         id="path449" />
      <path
         d="m 43.751987,-16.8 h 1.968 V 0 h -1.944 v -1.872 q -0.792,1.008 -1.92,1.56 -1.104,0.552 -2.376,0.552 -2.424,0 -4.08,-1.68 -1.632,-1.704 -1.632,-4.32 0,-2.64 1.68,-4.368 1.704,-1.752 4.176,-1.752 1.2,0 2.256,0.504 1.08,0.48 1.872,1.392 z m -4.056,15.336 q 1.752,0 2.928,-1.248 1.2,-1.272 1.2,-3.12 0,-1.872 -1.152,-3.096 -1.152,-1.224 -2.88,-1.224 -1.776,0 -2.904,1.2 -1.128,1.2 -1.128,3.144 0,1.944 1.104,3.144 1.104,1.2 2.832,1.2 z"
         id="path451" />
    </g>
    <path
       d="M173.5 208.833C173.5 204.231 177.231 200.5 181.833 200.5L300.167 200.5C304.769 200.5 308.5 204.231 308.5 208.833L308.5 242.167C308.5 246.769 304.769 250.5 300.167 250.5L181.833 250.5C177.231 250.5 173.5 246.769 173.5 242.167Z"
       stroke="#000000"
       stroke-width="1.33333"
       stroke-miterlimit="8"
       fill="#FFFFFF"
       fill-rule="evenodd"
       id="path295" />
    <g
       aria-label="add"
       transform="translate(220.561 234)"
       id="text297"
       style="font-size:24px;font-family:'IntelOne Display Regular', 'IntelOne Display Regular_MSFontService', sans-serif">
      <path
         d="M 11.232,0 H 9.336 V -1.896 Q 8.64,-0.888 7.44,-0.312 6.264,0.24 4.896,0.24 q -1.92,0 -3.12,-0.96 -1.2,-0.984 -1.2,-2.568 0,-1.752 1.344,-2.64 1.344,-0.912 3.984,-0.912 h 3.408 q -0.024,-1.632 -0.864,-2.52 -0.816,-0.888 -2.352,-0.888 -0.912,0 -1.8,0.384 -0.888,0.384 -1.752,1.176 L 1.512,-9.984 q 1.008,-0.96 2.208,-1.44 1.2,-0.504 2.568,-0.504 2.328,0 3.624,1.392 1.32,1.368 1.32,3.792 z M 9.312,-5.328 H 5.928 q -1.752,0 -2.592,0.48 -0.84,0.48 -0.84,1.512 0,0.864 0.72,1.44 0.744,0.576 1.896,0.576 1.728,0 2.904,-1.104 1.2,-1.128 1.296,-2.904 z"
         id="path454" />
      <path
         d="m 23.087985,-16.8 h 1.968 V 0 h -1.944 v -1.872 q -0.792,1.008 -1.92,1.56 -1.104,0.552 -2.376,0.552 -2.424,0 -4.08,-1.68 -1.632,-1.704 -1.632,-4.32 0,-2.64 1.68,-4.368 1.704,-1.752 4.176,-1.752 1.2,0 2.256,0.504 1.08,0.48 1.872,1.392 z m -4.056,15.336 q 1.752,0 2.928,-1.248 1.2,-1.272 1.2,-3.12 0,-1.872 -1.152,-3.096 -1.152,-1.224 -2.88,-1.224 -1.776,0 -2.904,1.2 -1.128,1.2 -1.128,3.144 0,1.944 1.104,3.144 1.104,1.2 2.832,1.2 z"
         id="path456" />
      <path
         d="m 37.03197,-16.8 h 1.968 V 0 h -1.944 v -1.872 q -0.792,1.008 -1.92,1.56 -1.104,0.552 -2.376,0.552 -2.424,0 -4.08,-1.68 -1.632,-1.704 -1.632,-4.32 0,-2.64 1.68,-4.368 1.704,-1.752 4.176,-1.752 1.2,0 2.256,0.504 1.08,0.48 1.872,1.392 z m -4.056,15.336 q 1.752,0 2.928,-1.248 1.2,-1.272 1.2,-3.12 0,-1.872 -1.152,-3.096 -1.152,-1.224 -2.88,-1.224 -1.776,0 -2.904,1.2 -1.128,1.2 -1.128,3.144 0,1.944 1.104,3.144 1.104,1.2 2.832,1.2 z"
         id="path458" />
    </g>
    <path
       d="M308.5 317.833C308.5 313.231 312.231 309.5 316.833 309.5L436.167 309.5C440.769 309.5 444.5 313.231 444.5 317.833L444.5 351.167C444.5 355.769 440.769 359.5 436.167 359.5L316.833 359.5C312.231 359.5 308.5 355.769 308.5 351.167Z"
       stroke="#000000"
       stroke-width="1.33333"
       stroke-miterlimit="8"
       fill="#FFFFFF"
       fill-rule="evenodd"
       id="path299" />
    <g
       aria-label="add"
       transform="translate(355.833 343)"
       id="text301"
       style="font-size:24px;font-family:'IntelOne Display Regular', 'IntelOne Display Regular_MSFontService', sans-serif">
      <path
         d="M 11.232,0 H 9.336 V -1.896 Q 8.64,-0.888 7.44,-0.312 6.264,0.24 4.896,0.24 q -1.92,0 -3.12,-0.96 -1.2,-0.984 -1.2,-2.568 0,-1.752 1.344,-2.64 1.344,-0.912 3.984,-0.912 h 3.408 q -0.024,-1.632 -0.864,-2.52 -0.816,-0.888 -2.352,-0.888 -0.912,0 -1.8,0.384 -0.888,0.384 -1.752,1.176 L 1.512,-9.984 q 1.008,-0.96 2.208,-1.44 1.2,-0.504 2.568,-0.504 2.328,0 3.624,1.392 1.32,1.368 1.32,3.792 z M 9.312,-5.328 H 5.928 q -1.752,0 -2.592,0.48 -0.84,0.48 -0.84,1.512 0,0.864 0.72,1.44 0.744,0.576 1.896,0.576 1.728,0 2.904,-1.104 1.2,-1.128 1.296,-2.904 z"
         id="path461" />
      <path
         d="m 23.087985,-16.8 h 1.968 V 0 h -1.944 v -1.872 q -0.792,1.008 -1.92,1.56 -1.104,0.552 -2.376,0.552 -2.424,0 -4.08,-1.68 -1.632,-1.704 -1.632,-4.32 0,-2.64 1.68,-4.368 1.704,-1.752 4.176,-1.752 1.2,0 2.256,0.504 1.08,0.48 1.872,1.392 z m -4.056,15.336 q 1.752,0 2.928,-1.248 1.2,-1.272 1.2,-3.12 0,-1.872 -1.152,-3.096 -1.152,-1.224 -2.88,-1.224 -1.776,0 -2.904,1.2 -1.128,1.2 -1.128,3.144 0,1.944 1.104,3.144 1.104,1.2 2.832,1.2 z"
         id="path463" />
      <path
         d="m 37.03197,-16.8 h 1.968 V 0 h -1.944 v -1.872 q -0.792,1.008 -1.92,1.56 -1.104,0.552 -2.376,0.552 -2.424,0 -4.08,-1.68 -1.632,-1.704 -1.632,-4.32 0,-2.64 1.68,-4.368 1.704,-1.752 4.176,-1.752 1.2,0 2.256,0.504 1.08,0.48 1.872,1.392 z m -4.056,15.336 q 1.752,0 2.928,-1.248 1.2,-1.272 1.2,-3.12 0,-1.872 -1.152,-3.096 -1.152,-1.224 -2.88,-1.224 -1.776,0 -2.904,1.2 -1.128,1.2 -1.128,3.144 0,1.944 1.104,3.144 1.104,1.2 2.832,1.2 z"
         id="path465" />
    </g>
    <path
       d="M52.5001 317.833C52.5001 313.231 56.2311 309.5 60.8335 309.5L180.167 309.5C184.769 309.5 188.5 313.231 188.5 317.833L188.5 351.167C188.5 355.769 184.769 359.5 180.167 359.5L60.8335 359.5C56.2311 359.5 52.5001 355.769 52.5001 351.167Z"
       stroke="#000000"
       stroke-width="1.33333"
       stroke-miterlimit="8"
       fill="#FFFFFF"
       fill-rule="evenodd"
       id="path303" />
    <g
       aria-label="save"
       transform="translate(95.5 343)"
       id="text305"
       style="font-size:24px;font-family:'IntelOne Display Regular', 'IntelOne Display Regular_MSFontService', sans-serif">
      <path
         d="m 10.608,-3.384 q 0,1.632 -1.392,2.664 -1.392,1.032 -3.624,1.032 -1.464,0 -2.76,-0.456 Q 1.56,-0.624 0.528,-1.56 l 1.008,-1.488 q 1.104,0.912 2.064,1.32 0.96,0.408 2.04,0.408 1.392,0 2.232,-0.528 0.864,-0.552 0.864,-1.416 0,-0.888 -0.72,-1.272 Q 7.296,-4.944 5.64,-4.968 3.216,-5.064 2.088,-5.856 0.984,-6.648 0.984,-8.328 q 0,-1.536 1.272,-2.544 1.296,-1.032 3.312,-1.032 1.368,0 2.568,0.432 1.2,0.432 2.184,1.272 L 9.384,-8.736 Q 8.4,-9.528 7.488,-9.888 q -0.912,-0.36 -1.944,-0.36 -1.176,0 -1.944,0.528 -0.744,0.528 -0.744,1.296 0,0.84 0.672,1.224 0.672,0.384 2.136,0.456 2.616,0.072 3.768,0.864 1.176,0.792 1.176,2.496 z"
         id="path468" />
      <path
         d="m 22.536016,0 h -1.896 v -1.896 q -0.696,1.008 -1.896,1.584 -1.176,0.552 -2.544,0.552 -1.92,0 -3.12,-0.96 -1.2,-0.984 -1.2,-2.568 0,-1.752 1.344,-2.64 1.344,-0.912 3.984,-0.912 h 3.408 q -0.024,-1.632 -0.864,-2.52 -0.816,-0.888 -2.352,-0.888 -0.912,0 -1.8,0.384 -0.888,0.384 -1.752,1.176 l -1.032,-1.296 q 1.008,-0.96 2.208,-1.44 1.2,-0.504 2.568,-0.504 2.328,0 3.624,1.392 1.32,1.368 1.32,3.792 z m -1.92,-5.328 h -3.384 q -1.752,0 -2.592,0.48 -0.84,0.48 -0.84,1.512 0,0.864 0.72,1.44 0.744,0.576 1.896,0.576 1.728,0 2.904,-1.104 1.2,-1.128 1.296,-2.904 z"
         id="path470" />
      <path
         d="m 28.344011,0 -4.968,-11.592 h 2.136 l 3.768,9.264 3.744,-9.264 h 2.016 L 30.120011,0 Z"
         id="path472" />
      <path
         d="m 41.495973,-1.296 q 1.152,0 2.112,-0.48 0.984,-0.504 1.8,-1.512 l 1.176,1.08 q -0.984,1.296 -2.304,1.944 -1.32,0.624 -2.952,0.624 -2.616,0 -4.296,-1.704 -1.656,-1.728 -1.656,-4.416 0,-2.616 1.704,-4.368 1.704,-1.752 4.2,-1.752 2.544,0 4.128,1.656 1.584,1.656 1.584,4.32 0,0.192 -0.024,0.456 -0.024,0.24 -0.048,0.36 h -9.528 q 0.192,1.704 1.32,2.76 1.152,1.032 2.784,1.032 z m -0.192,-8.928 q -1.512,0 -2.592,0.984 -1.08,0.984 -1.32,2.64 h 7.632 q -0.216,-1.68 -1.224,-2.64 -1.008,-0.984 -2.496,-0.984 z"
         id="path474" />
    </g>
    <path
       d="M367.5 431.833C367.5 427.231 371.231 423.5 375.833 423.5L494.167 423.5C498.769 423.5 502.5 427.231 502.5 431.833L502.5 465.167C502.5 469.769 498.769 473.5 494.167 473.5L375.833 473.5C371.231 473.5 367.5 469.769 367.5 465.167Z"
       stroke="#000000"
       stroke-width="1.33333"
       stroke-miterlimit="8"
       fill="#FFFFFF"
       fill-rule="evenodd"
       id="path307" />
    <g
       aria-label="Result"
       transform="translate(401.265 457)"
       id="text309"
       style="font-size:24px;font-family:'IntelOne Display Regular', 'IntelOne Display Regular_MSFontService', sans-serif">
      <path
         d="M 10.56,-7.08 15.336,0 H 12.888 L 8.352,-6.84 H 3.624 V 0 H 1.56 v -16.8 h 7.392 q 2.832,0 4.416,1.32 1.584,1.296 1.584,3.576 0,1.872 -1.152,3.144 -1.152,1.272 -3.24,1.68 z m 2.304,-4.776 q 0,-1.464 -1.056,-2.28 -1.032,-0.84 -2.904,-0.84 h -5.28 v 6.336 h 5.112 q 1.896,0 3,-0.864 1.128,-0.888 1.128,-2.352 z"
         id="path477" />
      <path
         d="m 22.535997,-1.296 q 1.152,0 2.112,-0.48 0.984,-0.504 1.8,-1.512 l 1.176,1.08 q -0.984,1.296 -2.304,1.944 -1.32,0.624 -2.952,0.624 -2.616,0 -4.296,-1.704 -1.656,-1.728 -1.656,-4.416 0,-2.616 1.704,-4.368 1.704,-1.752 4.2,-1.752 2.544,0 4.128,1.656 1.584,1.656 1.584,4.32 0,0.192 -0.024,0.456 -0.024,0.24 -0.048,0.36 h -9.528 q 0.192,1.704 1.32,2.76 1.152,1.032 2.784,1.032 z m -0.192,-8.928 q -1.512,0 -2.592,0.984 -1.08,0.984 -1.32,2.64 h 7.632 q -0.216,-1.68 -1.224,-2.64 -1.008,-0.984 -2.496,-0.984 z"
         id="path479" />
      <path
         d="m 39.336012,-3.384 q 0,1.632 -1.392,2.664 -1.392,1.032 -3.624,1.032 -1.464,0 -2.76,-0.456 -1.272,-0.48 -2.304,-1.416 l 1.008,-1.488 q 1.104,0.912 2.064,1.32 0.96,0.408 2.04,0.408 1.392,0 2.232,-0.528 0.864,-0.552 0.864,-1.416 0,-0.888 -0.72,-1.272 -0.72,-0.408 -2.376,-0.432 -2.424,-0.096 -3.552,-0.888 -1.104,-0.792 -1.104,-2.472 0,-1.536 1.272,-2.544 1.296,-1.032 3.312,-1.032 1.368,0 2.568,0.432 1.2,0.432 2.184,1.272 l -0.936,1.464 q -0.984,-0.792 -1.896,-1.152 -0.912,-0.36 -1.944,-0.36 -1.176,0 -1.944,0.528 -0.744,0.528 -0.744,1.296 0,0.84 0.672,1.224 0.672,0.384 2.136,0.456 2.616,0.072 3.768,0.864 1.176,0.792 1.176,2.496 z"
         id="path481" />
      <path
         d="m 52.152028,0 h -1.944 v -1.776 q -0.696,1.008 -1.752,1.536 -1.056,0.504 -2.4,0.504 -2.28,0 -3.6,-1.488 -1.296,-1.488 -1.296,-4.056 v -6.312 h 1.968 V -5.4 q 0,1.824 0.888,2.88 0.912,1.056 2.52,1.056 1.632,0 2.64,-1.128 1.008,-1.128 1.008,-2.928 v -6.072 h 1.968 z"
         id="path483" />
      <path
         d="m 54.888009,-16.8 h 1.968 V 0 h -1.968 z"
         id="path485" />
      <path
         d="m 60.263994,-3.096 v -6.768 h -1.584 v -1.728 h 1.584 v -3.552 h 1.944 v 3.552 h 2.688 v 1.728 h -2.688 v 6.6 q 0,0.768 0.336,1.152 0.36,0.36 1.08,0.36 h 1.272 V 0 h -1.56 q -1.608,0 -2.352,-0.744 -0.72,-0.744 -0.72,-2.352 z"
         id="path487" />
    </g>
    <path
       d="M120.753 129.341 177.454 194.143 175.948 195.46 119.247 130.659ZM178.833 191.164 181.091 199.818 172.813 196.432Z"
       id="path311" />
    <path
       d="M0.674769-0.738029 72.1183 64.5817 70.7687 66.0577-0.674769 0.738029ZM73.1585 61.4679 76.3637 69.8182 67.7604 67.3721Z"
       transform="matrix(-1 0 0 1 376.364 130)"
       id="path313" />
    <path
       d="M414 130 414 302.243 412 302.243 412 130ZM417 300.909 413 308.909 409 300.909Z"
       id="path315" />
    <path
       d="M0.694135-0.719844 56.9861 53.5617 55.5978 55.0014-0.694135 0.719844ZM58.1087 50.4766 61.0909 58.9091 52.5556 56.2354Z"
       transform="matrix(-1 0 0 1 181.091 250)"
       id="path317" />
    <path
       d="M300.611 249.208 371.696 304.045 370.474 305.629 299.389 250.792ZM372.473 300.856 376.364 308.909 367.586 307.19Z"
       id="path319" />
    <path
       d="M376.738 358.325 430.421 417.041 428.945 418.391 375.262 359.675ZM431.736 414.033 434.182 422.636 425.832 419.431Z"
       id="path321" />
  </g>
</svg>
