<svg width="2993" height="2342" xmlns="http://www.w3.org/2000/svg" xmlns:xlink="http://www.w3.org/1999/xlink" overflow="hidden"><defs><clipPath id="clip0"><rect x="325" y="82" width="2993" height="2342"/></clipPath><linearGradient x1="2264" y1="1566.5" x2="2264" y2="1427.5" gradientUnits="userSpaceOnUse" spreadMethod="reflect" id="fill1"><stop offset="0" stop-color="#B9D6E5" stop-opacity="1"/><stop offset="0.6" stop-color="#D7F3A2" stop-opacity="1"/><stop offset="1" stop-color="#D7F3A2" stop-opacity="1"/></linearGradient><linearGradient x1="2797.5" y1="1567.5" x2="2797.5" y2="1428.5" gradientUnits="userSpaceOnUse" spreadMethod="reflect" id="fill2"><stop offset="0" stop-color="#B9D6E5" stop-opacity="1"/><stop offset="0.6" stop-color="#D7F3A2" stop-opacity="1"/><stop offset="1" stop-color="#D7F3A2" stop-opacity="1"/></linearGradient></defs><g clip-path="url(#clip0)" transform="translate(-325 -82)"><rect x="342.5" y="912.5" width="2973" height="1370" stroke="#E9E9E9" stroke-width="4.58333" stroke-linecap="butt" stroke-linejoin="miter" stroke-miterlimit="4" stroke-opacity="1" fill="#E9E9E9" fill-opacity="1"/><text fill="#000000" fill-opacity="1" font-family="Intel Clear,Intel Clear_MSFontService,sans-serif" font-style="normal" font-variant="normal" font-weight="400" font-stretch="normal" font-size="55" text-anchor="start" direction="ltr" writing-mode="lr-tb" unicode-bidi="normal" text-decoration="none" transform="matrix(1 0 0 1 360.556 988)">FP32 Convolution with quantized weights</text><rect x="342.5" y="241.5" width="2973" height="637" stroke="#E9E9E9" stroke-width="4.58333" stroke-linecap="butt" stroke-linejoin="miter" stroke-miterlimit="4" stroke-opacity="1" fill="#E9E9E9" fill-opacity="1"/><text fill="#000000" fill-opacity="1" font-family="Intel Clear,Intel Clear_MSFontService,sans-serif" font-style="normal" font-variant="normal" font-weight="400" font-stretch="normal" font-size="55" text-anchor="start" direction="ltr" writing-mode="lr-tb" unicode-bidi="normal" text-decoration="none" transform="matrix(1 0 0 1 360.556 313)">FakeQ<tspan fill="#000000" fill-opacity="1" font-family="Intel Clear,Intel Clear_MSFontService,sans-serif" font-style="normal" font-variant="normal" font-weight="400" font-stretch="normal" font-size="55" text-anchor="start" direction="ltr" writing-mode="lr-tb" unicode-bidi="normal" text-decoration="none" x="158.698" y="0">uantize</tspan></text><path d="M1611.08 834.5 1611.08 2076.99 1601.92 2076.99 1601.92 834.5ZM1606.5 2076.99 1620.25 2067.82 1606.5 2095.32 1592.75 2067.82Z" fill="#808080" fill-rule="nonzero" fill-opacity="1"/><path d="M1361.5 677.001C1361.5 659.603 1375.6 645.5 1393 645.5L1819 645.5C1836.4 645.5 1850.5 659.603 1850.5 677.001L1850.5 803C1850.5 820.397 1836.4 834.5 1819 834.5L1393 834.5C1375.6 834.5 1361.5 820.397 1361.5 803Z" stroke="#0068B5" stroke-width="4.58333" stroke-linecap="butt" stroke-linejoin="miter" stroke-miterlimit="4" stroke-opacity="1" fill="#B9D6E5" fill-rule="evenodd" fill-opacity="1"/><text fill="#000000" fill-opacity="1" font-family="Intel Clear,Intel Clear_MSFontService,sans-serif" font-style="normal" font-variant="normal" font-weight="400" font-stretch="normal" font-size="37" text-anchor="start" direction="ltr" writing-mode="lr-tb" unicode-bidi="normal" text-decoration="none" transform="matrix(1 0 0 1 1492.17 708)">FakeQuantize<tspan fill="#000000" fill-opacity="1" font-family="Intel Clear,Intel Clear_MSFontService,sans-serif" font-style="normal" font-variant="normal" font-weight="400" font-stretch="normal" font-size="37" text-anchor="start" direction="ltr" writing-mode="lr-tb" unicode-bidi="normal" text-decoration="none" x="24.3375" y="44">levels: 256</tspan><tspan fill="#000000" fill-opacity="1" font-family="Intel Clear,Intel Clear_MSFontService,sans-serif" font-style="normal" font-variant="normal" font-weight="400" font-stretch="normal" font-size="37" text-anchor="start" direction="ltr" writing-mode="lr-tb" unicode-bidi="normal" text-decoration="none" x="-59.3084" y="88">{f32} {1, 3, 299, 299}</tspan></text><path d="M1361.5 108.834C1361.5 95.9471 1371.95 85.5001 1384.83 85.5001L1827.17 85.5001C1840.05 85.5001 1850.5 95.9471 1850.5 108.834L1850.5 202.166C1850.5 215.053 1840.05 225.5 1827.17 225.5L1384.83 225.5C1371.95 225.5 1361.5 215.053 1361.5 202.166Z" stroke="#0068B5" stroke-width="4.58333" stroke-linecap="butt" stroke-linejoin="miter" stroke-miterlimit="4" stroke-opacity="1" fill="#B9D6E5" fill-rule="evenodd" fill-opacity="1"/><text fill="#000000" fill-opacity="1" font-family="Intel Clear,Intel Clear_MSFontService,sans-serif" font-style="normal" font-variant="normal" font-weight="400" font-stretch="normal" font-size="37" text-anchor="start" direction="ltr" writing-mode="lr-tb" unicode-bidi="normal" text-decoration="none" transform="matrix(1 0 0 1 1519.94 145)">Parameter<tspan fill="#000000" fill-opacity="1" font-family="Intel Clear,Intel Clear_MSFontService,sans-serif" font-style="normal" font-variant="normal" font-weight="400" font-stretch="normal" font-size="37" text-anchor="start" direction="ltr" writing-mode="lr-tb" unicode-bidi="normal" text-decoration="none" x="-87.0834" y="44">{f32} {1, 3, 299, 299}</tspan></text><path d="M1611.08 225.5 1611.08 627.874 1601.92 627.874 1601.92 225.5ZM1606.5 627.874 1620.25 618.707 1606.5 646.207 1592.75 618.707Z" fill="#808080" fill-rule="nonzero" fill-opacity="1"/><path d="M2.2908-3.96978 282.333 157.631 277.751 165.571-2.2908 3.96978ZM280.042 161.601 278.975 145.11 295.921 170.764 265.23 168.929Z" fill="#808080" fill-rule="nonzero" fill-opacity="1" transform="matrix(-1 0 0 1 1902.42 475.5)"/><path d="M1.1183-4.44481 662.062 161.847 659.825 170.736-1.1183 4.44481ZM660.942 166.291 655.407 150.72 678.721 170.764 648.697 177.389Z" fill="#808080" fill-rule="nonzero" fill-opacity="1" transform="matrix(-1 0 0 1 2285.22 475.5)"/><path d="M0.72795-4.52516 1044.14 163.326 1042.69 172.376-0.72795 4.52516ZM1043.42 167.852 1036.55 152.821 1061.52 170.764 1032.19 179.972Z" fill="#808080" fill-rule="nonzero" fill-opacity="1" transform="matrix(-1 0 0 1 2668.02 475.5)"/><path d="M0.538146-4.55163 1426.66 164.06 1425.58 173.164-0.538146 4.55163ZM1426.11 168.612 1418.63 153.88 1444.32 170.764 1415.4 181.19Z" fill="#808080" fill-rule="nonzero" fill-opacity="1" transform="matrix(-1 0 0 1 3050.82 475.5)"/><path d="M1361.5 2118.67C1361.5 2105.87 1371.87 2095.5 1384.67 2095.5L1827.33 2095.5C1840.13 2095.5 1850.5 2105.87 1850.5 2118.67L1850.5 2211.33C1850.5 2224.13 1840.13 2234.5 1827.33 2234.5L1384.67 2234.5C1371.87 2234.5 1361.5 2224.13 1361.5 2211.33Z" stroke="#0068B5" stroke-width="4.58333" stroke-linecap="butt" stroke-linejoin="miter" stroke-miterlimit="4" stroke-opacity="1" fill="#B9D6E5" fill-rule="evenodd" fill-opacity="1"/><text fill="#000000" fill-opacity="1" font-family="Intel Clear,Intel Clear_MSFontService,sans-serif" font-style="normal" font-variant="normal" font-weight="400" font-stretch="normal" font-size="37" text-anchor="start" direction="ltr" writing-mode="lr-tb" unicode-bidi="normal" text-decoration="none" transform="matrix(1 0 0 1 1503.62 2154)">Convolution<tspan fill="#000000" fill-opacity="1" font-family="Intel Clear,Intel Clear_MSFontService,sans-serif" font-style="normal" font-variant="normal" font-weight="400" font-stretch="normal" font-size="37" text-anchor="start" direction="ltr" writing-mode="lr-tb" unicode-bidi="normal" text-decoration="none" x="-70.7666" y="44">{f32} {1, 6, 299, 299}</tspan></text><path d="M1611.08 2234.5 1611.08 2310.96 1601.92 2310.96 1601.92 2234.5ZM1606.5 2310.96 1620.25 2301.8 1606.5 2329.3 1592.75 2301.8Z" fill="#808080" fill-rule="nonzero" fill-opacity="1"/><path d="M1721.5 318.001C1721.5 300.603 1735.6 286.5 1753 286.5L2051 286.5C2068.4 286.5 2082.5 300.603 2082.5 318.001L2082.5 443.999C2082.5 461.397 2068.4 475.5 2051 475.5L1753 475.5C1735.6 475.5 1721.5 461.397 1721.5 443.999Z" stroke="#0068B5" stroke-width="4.58333" stroke-linecap="butt" stroke-linejoin="miter" stroke-miterlimit="4" stroke-opacity="1" fill="#B9D6E5" fill-rule="evenodd" fill-opacity="1"/><text fill="#000000" fill-opacity="1" font-family="Intel Clear,Intel Clear_MSFontService,sans-serif" font-style="normal" font-variant="normal" font-weight="400" font-stretch="normal" font-size="37" text-anchor="start" direction="ltr" writing-mode="lr-tb" unicode-bidi="normal" text-decoration="none" transform="matrix(1 0 0 1 1826.75 348)">Constant<tspan fill="#000000" fill-opacity="1" font-family="Intel Clear,Intel Clear_MSFontService,sans-serif" font-style="normal" font-variant="normal" font-weight="400" font-stretch="normal" font-size="37" text-anchor="start" direction="ltr" writing-mode="lr-tb" unicode-bidi="normal" text-decoration="none" x="-54.4271" y="44">{f32} {1, 1, 1, 1}</tspan><tspan fill="#000000" fill-opacity="1" font-family="Intel Clear,Intel Clear_MSFontService,sans-serif" font-style="normal" font-variant="normal" font-weight="400" font-stretch="normal" font-size="37" text-anchor="start" direction="ltr" writing-mode="lr-tb" unicode-bidi="normal" text-decoration="none" x="-36.9418" y="88">Value:</tspan><tspan fill="#000000" fill-opacity="1" font-family="Intel Clear,Intel Clear_MSFontService,sans-serif" font-style="normal" font-variant="normal" font-weight="400" font-stretch="normal" font-size="37" text-anchor="start" direction="ltr" writing-mode="lr-tb" unicode-bidi="normal" text-decoration="none" x="73.6312" y="88">[</tspan><tspan fill="#000000" fill-opacity="1" font-family="Intel Clear,Intel Clear_MSFontService,sans-serif" font-style="normal" font-variant="normal" font-weight="400" font-stretch="normal" font-size="37" text-anchor="start" direction="ltr" writing-mode="lr-tb" unicode-bidi="normal" text-decoration="none" x="86.2354" y="88">-</tspan><tspan fill="#000000" fill-opacity="1" font-family="Intel Clear,Intel Clear_MSFontService,sans-serif" font-style="normal" font-variant="normal" font-weight="400" font-stretch="normal" font-size="37" text-anchor="start" direction="ltr" writing-mode="lr-tb" unicode-bidi="normal" text-decoration="none" x="100.558" y="88">12.8]</tspan></text><path d="M2104.5 318.001C2104.5 300.603 2118.6 286.5 2136 286.5L2434 286.5C2451.4 286.5 2465.5 300.603 2465.5 318.001L2465.5 443.999C2465.5 461.397 2451.4 475.5 2434 475.5L2136 475.5C2118.6 475.5 2104.5 461.397 2104.5 443.999Z" stroke="#0068B5" stroke-width="4.58333" stroke-linecap="butt" stroke-linejoin="miter" stroke-miterlimit="4" stroke-opacity="1" fill="#B9D6E5" fill-rule="evenodd" fill-opacity="1"/><text fill="#000000" fill-opacity="1" font-family="Intel Clear,Intel Clear_MSFontService,sans-serif" font-style="normal" font-variant="normal" font-weight="400" font-stretch="normal" font-size="37" text-anchor="start" direction="ltr" writing-mode="lr-tb" unicode-bidi="normal" text-decoration="none" transform="matrix(1 0 0 1 2209.55 348)">Constant<tspan fill="#000000" fill-opacity="1" font-family="Intel Clear,Intel Clear_MSFontService,sans-serif" font-style="normal" font-variant="normal" font-weight="400" font-stretch="normal" font-size="37" text-anchor="start" direction="ltr" writing-mode="lr-tb" unicode-bidi="normal" text-decoration="none" x="-54.427" y="44">{f32} {1, 1, 1, 1}</tspan><tspan fill="#000000" fill-opacity="1" font-family="Intel Clear,Intel Clear_MSFontService,sans-serif" font-style="normal" font-variant="normal" font-weight="400" font-stretch="normal" font-size="37" text-anchor="start" direction="ltr" writing-mode="lr-tb" unicode-bidi="normal" text-decoration="none" x="-29.7915" y="88">Value:</tspan><tspan fill="#000000" fill-opacity="1" font-family="Intel Clear,Intel Clear_MSFontService,sans-serif" font-style="normal" font-variant="normal" font-weight="400" font-stretch="normal" font-size="37" text-anchor="start" direction="ltr" writing-mode="lr-tb" unicode-bidi="normal" text-decoration="none" x="80.7813" y="88">[12.7]</tspan></text><path d="M2487.5 318.001C2487.5 300.603 2501.6 286.5 2519 286.5L2817 286.5C2834.4 286.5 2848.5 300.603 2848.5 318.001L2848.5 444C2848.5 461.397 2834.4 475.5 2817 475.5L2519 475.5C2501.6 475.5 2487.5 461.397 2487.5 444Z" stroke="#0068B5" stroke-width="4.58333" stroke-linecap="butt" stroke-linejoin="miter" stroke-miterlimit="4" stroke-opacity="1" fill="#B9D6E5" fill-rule="evenodd" fill-opacity="1"/><text fill="#000000" fill-opacity="1" font-family="Intel Clear,Intel Clear_MSFontService,sans-serif" font-style="normal" font-variant="normal" font-weight="400" font-stretch="normal" font-size="37" text-anchor="start" direction="ltr" writing-mode="lr-tb" unicode-bidi="normal" text-decoration="none" transform="matrix(1 0 0 1 2592.35 348)">Constant<tspan fill="#000000" fill-opacity="1" font-family="Intel Clear,Intel Clear_MSFontService,sans-serif" font-style="normal" font-variant="normal" font-weight="400" font-stretch="normal" font-size="37" text-anchor="start" direction="ltr" writing-mode="lr-tb" unicode-bidi="normal" text-decoration="none" x="-54.427" y="44">{f32} {1, 1, 1, 1}</tspan><tspan fill="#000000" fill-opacity="1" font-family="Intel Clear,Intel Clear_MSFontService,sans-serif" font-style="normal" font-variant="normal" font-weight="400" font-stretch="normal" font-size="37" text-anchor="start" direction="ltr" writing-mode="lr-tb" unicode-bidi="normal" text-decoration="none" x="-36.9417" y="88">Value:</tspan><tspan fill="#000000" fill-opacity="1" font-family="Intel Clear,Intel Clear_MSFontService,sans-serif" font-style="normal" font-variant="normal" font-weight="400" font-stretch="normal" font-size="37" text-anchor="start" direction="ltr" writing-mode="lr-tb" unicode-bidi="normal" text-decoration="none" x="73.6314" y="88">[</tspan><tspan fill="#000000" fill-opacity="1" font-family="Intel Clear,Intel Clear_MSFontService,sans-serif" font-style="normal" font-variant="normal" font-weight="400" font-stretch="normal" font-size="37" text-anchor="start" direction="ltr" writing-mode="lr-tb" unicode-bidi="normal" text-decoration="none" x="86.2354" y="88">-</tspan><tspan fill="#000000" fill-opacity="1" font-family="Intel Clear,Intel Clear_MSFontService,sans-serif" font-style="normal" font-variant="normal" font-weight="400" font-stretch="normal" font-size="37" text-anchor="start" direction="ltr" writing-mode="lr-tb" unicode-bidi="normal" text-decoration="none" x="100.558" y="88">12.8]</tspan></text><path d="M2869.5 318C2869.5 300.603 2883.6 286.5 2901 286.5L3200 286.5C3217.4 286.5 3231.5 300.603 3231.5 318L3231.5 443.999C3231.5 461.397 3217.4 475.5 3200 475.5L2901 475.5C2883.6 475.5 2869.5 461.397 2869.5 443.999Z" stroke="#0068B5" stroke-width="4.58333" stroke-linecap="butt" stroke-linejoin="miter" stroke-miterlimit="4" stroke-opacity="1" fill="#B9D6E5" fill-rule="evenodd" fill-opacity="1"/><text fill="#000000" fill-opacity="1" font-family="Intel Clear,Intel Clear_MSFontService,sans-serif" font-style="normal" font-variant="normal" font-weight="400" font-stretch="normal" font-size="37" text-anchor="start" direction="ltr" writing-mode="lr-tb" unicode-bidi="normal" text-decoration="none" transform="matrix(1 0 0 1 2975.15 348)">Constant<tspan fill="#000000" fill-opacity="1" font-family="Intel Clear,Intel Clear_MSFontService,sans-serif" font-style="normal" font-variant="normal" font-weight="400" font-stretch="normal" font-size="37" text-anchor="start" direction="ltr" writing-mode="lr-tb" unicode-bidi="normal" text-decoration="none" x="-54.427" y="44">{f32} {1, 1, 1, 1}</tspan><tspan fill="#000000" fill-opacity="1" font-family="Intel Clear,Intel Clear_MSFontService,sans-serif" font-style="normal" font-variant="normal" font-weight="400" font-stretch="normal" font-size="37" text-anchor="start" direction="ltr" writing-mode="lr-tb" unicode-bidi="normal" text-decoration="none" x="-29.7918" y="88">Value:</tspan><tspan fill="#000000" fill-opacity="1" font-family="Intel Clear,Intel Clear_MSFontService,sans-serif" font-style="normal" font-variant="normal" font-weight="400" font-stretch="normal" font-size="37" text-anchor="start" direction="ltr" writing-mode="lr-tb" unicode-bidi="normal" text-decoration="none" x="80.7813" y="88">[12.7]</tspan></text><path d="M1453.5 2344.5C1453.5 2336.22 1460.22 2329.5 1468.5 2329.5L1743.5 2329.5C1751.78 2329.5 1758.5 2336.22 1758.5 2344.5L1758.5 2404.5C1758.5 2412.78 1751.78 2419.5 1743.5 2419.5L1468.5 2419.5C1460.22 2419.5 1453.5 2412.78 1453.5 2404.5Z" stroke="#0068B5" stroke-width="4.58333" stroke-linecap="butt" stroke-linejoin="miter" stroke-miterlimit="4" stroke-opacity="1" fill="#B9D6E5" fill-rule="evenodd" fill-opacity="1"/><text fill="#000000" fill-opacity="1" font-family="Intel Clear,Intel Clear_MSFontService,sans-serif" font-style="normal" font-variant="normal" font-weight="400" font-stretch="normal" font-size="37" text-anchor="start" direction="ltr" writing-mode="lr-tb" unicode-bidi="normal" text-decoration="none" transform="matrix(1 0 0 1 1554.03 2386)">Result</text><path d="M2019.5 967.667C2019.5 954.872 2029.87 944.5 2042.67 944.5L2485.33 944.5C2498.13 944.5 2508.5 954.872 2508.5 967.667L2508.5 1060.33C2508.5 1073.13 2498.13 1083.5 2485.33 1083.5L2042.67 1083.5C2029.87 1083.5 2019.5 1073.13 2019.5 1060.33Z" stroke="#515A3D" stroke-width="4.58333" stroke-linecap="butt" stroke-linejoin="miter" stroke-miterlimit="4" stroke-opacity="1" fill="#D7F3A2" fill-rule="evenodd" fill-opacity="1"/><text fill="#000000" fill-opacity="1" font-family="Intel Clear,Intel Clear_MSFontService,sans-serif" font-style="normal" font-variant="normal" font-weight="400" font-stretch="normal" font-size="37" text-anchor="start" direction="ltr" writing-mode="lr-tb" unicode-bidi="normal" text-decoration="none" transform="matrix(1 0 0 1 2188.74 1003)">Constant<tspan fill="#000000" fill-opacity="1" font-family="Intel Clear,Intel Clear_MSFontService,sans-serif" font-style="normal" font-variant="normal" font-weight="400" font-stretch="normal" font-size="37" text-anchor="start" direction="ltr" writing-mode="lr-tb" unicode-bidi="normal" text-decoration="none" x="-42.0979" y="44">{i8} {6, 3, 1, 1}</tspan></text><rect x="1974.5" y="1111.5" width="1222" height="970" stroke="#AEAEAE" stroke-width="4.58333" stroke-linecap="butt" stroke-linejoin="miter" stroke-miterlimit="4" stroke-opacity="1" fill="#E9E9E9" fill-opacity="1"/><text fill="#000000" fill-opacity="1" font-family="Intel Clear,Intel Clear_MSFontService,sans-serif" font-style="normal" font-variant="normal" font-weight="400" font-stretch="normal" font-size="55" text-anchor="start" direction="ltr" writing-mode="lr-tb" unicode-bidi="normal" text-decoration="none" transform="matrix(1 0 0 1 2511.29 1185)">Dequantization on weights</text><path d="M0.70772-4.52836 640.522 95.4656 639.106 104.522-0.70772 4.52836ZM639.815 99.9942 632.882 84.9937 657.929 102.825 628.635 112.164Z" fill="#808080" fill-rule="nonzero" fill-opacity="1" transform="matrix(-1 0 0 1 2264.43 1992.5)"/><path d="M0.479782-4.55815 524.514 50.6007 523.555 59.717-0.479782 4.55815ZM524.035 55.1589 516.358 40.5249 542.268 57.078 513.479 67.8738Z" fill="#808080" fill-rule="nonzero" fill-opacity="1" transform="matrix(-1 0 0 1 2806.77 1795.5)"/><path d="M2019.5 1876.67C2019.5 1863.87 2029.87 1853.5 2042.67 1853.5L2485.33 1853.5C2498.13 1853.5 2508.5 1863.87 2508.5 1876.67L2508.5 1969.33C2508.5 1982.13 2498.13 1992.5 2485.33 1992.5L2042.67 1992.5C2029.87 1992.5 2019.5 1982.13 2019.5 1969.33Z" stroke="#515A3D" stroke-width="4.58333" stroke-linecap="butt" stroke-linejoin="miter" stroke-miterlimit="4" stroke-opacity="1" fill="#B9D6E5" fill-rule="evenodd" fill-opacity="1"/><text fill="#000000" fill-opacity="1" font-family="Intel Clear,Intel Clear_MSFontService,sans-serif" font-style="normal" font-variant="normal" font-weight="400" font-stretch="normal" font-size="37" text-anchor="start" direction="ltr" writing-mode="lr-tb" unicode-bidi="normal" text-decoration="none" transform="matrix(1 0 0 1 2195.93 1912)">Multiply<tspan fill="#000000" fill-opacity="1" font-family="Intel Clear,Intel Clear_MSFontService,sans-serif" font-style="normal" font-variant="normal" font-weight="400" font-stretch="normal" font-size="37" text-anchor="start" direction="ltr" writing-mode="lr-tb" unicode-bidi="normal" text-decoration="none" x="-61.5999" y="44">{f32} {6, 3, 1, 1}</tspan></text><path d="M2019.5 1450.67C2019.5 1437.87 2029.87 1427.5 2042.67 1427.5L2485.33 1427.5C2498.13 1427.5 2508.5 1437.87 2508.5 1450.67L2508.5 1543.33C2508.5 1556.13 2498.13 1566.5 2485.33 1566.5L2042.67 1566.5C2029.87 1566.5 2019.5 1556.13 2019.5 1543.33Z" stroke="#0068B5" stroke-width="4.58333" stroke-linecap="butt" stroke-linejoin="miter" stroke-miterlimit="4" stroke-opacity="1" fill="url(#fill1)" fill-rule="evenodd"/><text fill="#000000" fill-opacity="1" font-family="Intel Clear,Intel Clear_MSFontService,sans-serif" font-style="normal" font-variant="normal" font-weight="400" font-stretch="normal" font-size="37" text-anchor="start" direction="ltr" writing-mode="lr-tb" unicode-bidi="normal" text-decoration="none" transform="matrix(1 0 0 1 2197.92 1487)">Convert<tspan fill="#000000" fill-opacity="1" font-family="Intel Clear,Intel Clear_MSFontService,sans-serif" font-style="normal" font-variant="normal" font-weight="400" font-stretch="normal" font-size="37" text-anchor="start" direction="ltr" writing-mode="lr-tb" unicode-bidi="normal" text-decoration="none" x="-63.5938" y="44">{f32} {6, 3, 1, 1}</tspan></text><path d="M2269.08 1566.5 2269.08 1616.44 2259.92 1616.44 2259.92 1566.5ZM2264.5 1616.44 2278.25 1607.28 2264.5 1634.78 2250.75 1607.28Z" fill="#808080" fill-rule="nonzero" fill-opacity="1"/><path d="M2562.5 1679.67C2562.5 1666.87 2572.87 1656.5 2585.67 1656.5L3027.33 1656.5C3040.13 1656.5 3050.5 1666.87 3050.5 1679.67L3050.5 1772.33C3050.5 1785.13 3040.13 1795.5 3027.33 1795.5L2585.67 1795.5C2572.87 1795.5 2562.5 1785.13 2562.5 1772.33Z" stroke="#0068B5" stroke-width="4.58333" stroke-linecap="butt" stroke-linejoin="miter" stroke-miterlimit="4" stroke-opacity="1" fill="#B9D6E5" fill-rule="evenodd" fill-opacity="1"/><text fill="#000000" fill-opacity="1" font-family="Intel Clear,Intel Clear_MSFontService,sans-serif" font-style="normal" font-variant="normal" font-weight="400" font-stretch="normal" font-size="37" text-anchor="start" direction="ltr" writing-mode="lr-tb" unicode-bidi="normal" text-decoration="none" transform="matrix(1 0 0 1 2731.02 1716)">Constant<tspan fill="#000000" fill-opacity="1" font-family="Intel Clear,Intel Clear_MSFontService,sans-serif" font-style="normal" font-variant="normal" font-weight="400" font-stretch="normal" font-size="37" text-anchor="start" direction="ltr" writing-mode="lr-tb" unicode-bidi="normal" text-decoration="none" x="-54.427" y="44">{f32} {6, 1, 1, 1}</tspan></text><path d="M2019.5 1658.67C2019.5 1645.87 2029.87 1635.5 2042.67 1635.5L2485.33 1635.5C2498.13 1635.5 2508.5 1645.87 2508.5 1658.67L2508.5 1751.33C2508.5 1764.13 2498.13 1774.5 2485.33 1774.5L2042.67 1774.5C2029.87 1774.5 2019.5 1764.13 2019.5 1751.33Z" stroke="#0068B5" stroke-width="4.58333" stroke-linecap="butt" stroke-linejoin="miter" stroke-miterlimit="4" stroke-opacity="1" fill="#B9D6E5" fill-rule="evenodd" fill-opacity="1"/><text fill="#000000" fill-opacity="1" font-family="Intel Clear,Intel Clear_MSFontService,sans-serif" font-style="normal" font-variant="normal" font-weight="400" font-stretch="normal" font-size="37" text-anchor="start" direction="ltr" writing-mode="lr-tb" unicode-bidi="normal" text-decoration="none" transform="matrix(1 0 0 1 2193.06 1694)">Subtrac<tspan fill="#000000" fill-opacity="1" font-family="Intel Clear,Intel Clear_MSFontService,sans-serif" font-style="normal" font-variant="normal" font-weight="400" font-stretch="normal" font-size="37" text-anchor="start" direction="ltr" writing-mode="lr-tb" unicode-bidi="normal" text-decoration="none" x="128.334" y="0">t</tspan><tspan fill="#000000" fill-opacity="1" font-family="Intel Clear,Intel Clear_MSFontService,sans-serif" font-style="normal" font-variant="normal" font-weight="400" font-stretch="normal" font-size="37" text-anchor="start" direction="ltr" writing-mode="lr-tb" unicode-bidi="normal" text-decoration="none" x="-58.7354" y="44">{f32} {6, 3, 1, 1}</tspan></text><path d="M0.574223-4.54722 516.139 60.5584 514.991 69.6528-0.574223 4.54722ZM515.565 65.1055 508.193 50.3154 533.754 67.4024 504.748 77.5988Z" fill="#808080" fill-rule="nonzero" fill-opacity="1" transform="matrix(-1 0 0 1 2798.25 1567.5)"/><path d="M2553.5 1253.67C2553.5 1240.87 2563.87 1230.5 2576.67 1230.5L3018.33 1230.5C3031.13 1230.5 3041.5 1240.87 3041.5 1253.67L3041.5 1346.33C3041.5 1359.13 3031.13 1369.5 3018.33 1369.5L2576.67 1369.5C2563.87 1369.5 2553.5 1359.13 2553.5 1346.33Z" stroke="#515A3D" stroke-width="4.58333" stroke-linecap="butt" stroke-linejoin="miter" stroke-miterlimit="4" stroke-opacity="1" fill="#D7F3A2" fill-rule="evenodd" fill-opacity="1"/><text fill="#000000" fill-opacity="1" font-family="Intel Clear,Intel Clear_MSFontService,sans-serif" font-style="normal" font-variant="normal" font-weight="400" font-stretch="normal" font-size="37" text-anchor="start" direction="ltr" writing-mode="lr-tb" unicode-bidi="normal" text-decoration="none" transform="matrix(1 0 0 1 2722.5 1290)">Constant<tspan fill="#000000" fill-opacity="1" font-family="Intel Clear,Intel Clear_MSFontService,sans-serif" font-style="normal" font-variant="normal" font-weight="400" font-stretch="normal" font-size="37" text-anchor="start" direction="ltr" writing-mode="lr-tb" unicode-bidi="normal" text-decoration="none" x="-42.0979" y="44">{i8} {6, 1, 1, 1}</tspan></text><path d="M2553.5 1451.67C2553.5 1438.87 2563.87 1428.5 2576.67 1428.5L3018.33 1428.5C3031.13 1428.5 3041.5 1438.87 3041.5 1451.67L3041.5 1544.33C3041.5 1557.13 3031.13 1567.5 3018.33 1567.5L2576.67 1567.5C2563.87 1567.5 2553.5 1557.13 2553.5 1544.33Z" stroke="#0068B5" stroke-width="4.58333" stroke-linecap="butt" stroke-linejoin="miter" stroke-miterlimit="4" stroke-opacity="1" fill="url(#fill2)" fill-rule="evenodd"/><text fill="#000000" fill-opacity="1" font-family="Intel Clear,Intel Clear_MSFontService,sans-serif" font-style="normal" font-variant="normal" font-weight="400" font-stretch="normal" font-size="37" text-anchor="start" direction="ltr" writing-mode="lr-tb" unicode-bidi="normal" text-decoration="none" transform="matrix(1 0 0 1 2731.67 1488)">Convert<tspan fill="#000000" fill-opacity="1" font-family="Intel Clear,Intel Clear_MSFontService,sans-serif" font-style="normal" font-variant="normal" font-weight="400" font-stretch="normal" font-size="37" text-anchor="start" direction="ltr" writing-mode="lr-tb" unicode-bidi="normal" text-decoration="none" x="-63.5938" y="44">{f32} {6, 1, 1, 1}</tspan></text><path d="M2802.08 1369.5 2802.08 1409.7 2792.92 1409.7 2792.92 1369.5ZM2797.5 1409.7 2811.25 1400.53 2797.5 1428.03 2783.75 1400.53Z" fill="#808080" fill-rule="nonzero" fill-opacity="1"/><path d="M2269.08 1774.5 2269.08 1834.86 2259.92 1834.86 2259.92 1774.5ZM2264.5 1834.86 2278.25 1825.69 2264.5 1853.19 2250.75 1825.69Z" fill="#808080" fill-rule="nonzero" fill-opacity="1"/><path d="M2269.08 1083.5 2269.08 1409.13 2259.92 1409.13 2259.92 1083.5ZM2264.5 1409.13 2278.25 1399.96 2264.5 1427.46 2250.75 1399.96Z" fill="#808080" fill-rule="nonzero" fill-opacity="1"/></g></svg>