<?xml version="1.0" encoding="UTF-8" standalone="no"?>
<!DOCTYPE svg PUBLIC "-//W3C//DTD SVG 1.1//EN"
 "http://www.w3.org/Graphics/SVG/1.1/DTD/svg11.dtd">
<!-- Generated by graphviz version 2.43.20200408.0903 (20200408.0903)
 -->
<!-- Title: ngraph Pages: 1 -->
<svg width="2788pt" height="1030pt"
 viewBox="0.00 0.00 2788.00 1030.00" xmlns="http://www.w3.org/2000/svg" xmlns:xlink="http://www.w3.org/1999/xlink">
<g id="graph0" class="graph" transform="scale(1 1) rotate(0) translate(4 1026)">
<title>ngraph</title>
<polygon fill="white" stroke="transparent" points="-4,4 -4,-1026 2784,-1026 2784,4 -4,4"/>
<!-- Convolution_102 -->
<g id="node1" class="node">
<title>Convolution_102</title>
<polygon fill="none" stroke="black" points="1564.5,-217 1304.5,-217 1304.5,-119 1564.5,-119 1564.5,-217"/>
<text text-anchor="middle" x="1434.5" y="-201.8" font-family="Times New Roman,serif" font-size="14.00">friendly_name: output</text>
<text text-anchor="middle" x="1434.5" y="-186.8" font-family="Times New Roman,serif" font-size="14.00">name: Convolution_102</text>
<text text-anchor="middle" x="1434.5" y="-171.8" font-family="Times New Roman,serif" font-size="14.00">type_name: Convolution</text>
<text text-anchor="middle" x="1434.5" y="-156.8" font-family="Times New Roman,serif" font-size="14.00">in0: {f32}[1,6,9,9]: Concat_95: out0</text>
<text text-anchor="middle" x="1434.5" y="-141.8" font-family="Times New Roman,serif" font-size="14.00">in1: {f32}[9,6,1,1]: FakeQuantize_101: out0</text>
<text text-anchor="middle" x="1434.5" y="-126.8" font-family="Times New Roman,serif" font-size="14.00">out0: {f32}[1,9,9,9]</text>
</g>
<!-- Result_103 -->
<g id="node2" class="node">
<title>Result_103</title>
<polygon fill="none" stroke="crimson" stroke-width="1.5" points="1561.5,-68 1307.5,-68 1307.5,0 1561.5,0 1561.5,-68"/>
<text text-anchor="middle" x="1434.5" y="-52.8" font-family="Times New Roman,serif" font-size="14.00">friendly_name: Result_103</text>
<text text-anchor="middle" x="1434.5" y="-37.8" font-family="Times New Roman,serif" font-size="14.00">type_name: Result</text>
<text text-anchor="middle" x="1434.5" y="-22.8" font-family="Times New Roman,serif" font-size="14.00">in0: {f32}[1,9,9,9]: Convolution_102: out0</text>
<text text-anchor="middle" x="1434.5" y="-7.8" font-family="Times New Roman,serif" font-size="14.00">out0: {f32}[1,9,9,9]</text>
</g>
<!-- Convolution_102&#45;&gt;Result_103 -->
<g id="edge1" class="edge">
<title>Convolution_102&#45;&gt;Result_103</title>
<path fill="none" stroke="black" d="M1434.5,-118.97C1434.5,-105.71 1434.5,-91.4 1434.5,-78.42"/>
<polygon fill="black" stroke="black" points="1438,-78.33 1434.5,-68.33 1431,-78.33 1438,-78.33"/>
<text text-anchor="middle" x="1455.5" y="-89.8" font-family="Times New Roman,serif" font-size="14.00"> 0 &#45;&gt; 0 </text>
</g>
<!-- Concat_95 -->
<g id="node3" class="node">
<title>Concat_95</title>
<polygon fill="none" stroke="black" points="1198,-381 969,-381 969,-298 1198,-298 1198,-381"/>
<text text-anchor="middle" x="1083.5" y="-365.8" font-family="Times New Roman,serif" font-size="14.00">friendly_name: Concat_95</text>
<text text-anchor="middle" x="1083.5" y="-350.8" font-family="Times New Roman,serif" font-size="14.00">type_name: Concat</text>
<text text-anchor="middle" x="1083.5" y="-335.8" font-family="Times New Roman,serif" font-size="14.00">in0: {f32}[1,3,9,9]: MaxPool_86: out0</text>
<text text-anchor="middle" x="1083.5" y="-320.8" font-family="Times New Roman,serif" font-size="14.00">in1: {f32}[1,3,9,9]: MaxPool_94: out0</text>
<text text-anchor="middle" x="1083.5" y="-305.8" font-family="Times New Roman,serif" font-size="14.00">out0: {f32}[1,6,9,9]</text>
</g>
<!-- Concat_95&#45;&gt;Convolution_102 -->
<g id="edge2" class="edge">
<title>Concat_95&#45;&gt;Convolution_102</title>
<path fill="none" stroke="black" d="M1167.57,-297.9C1215.02,-274.99 1274.84,-246.1 1325.82,-221.48"/>
<polygon fill="black" stroke="black" points="1327.42,-224.6 1334.9,-217.1 1324.37,-218.29 1327.42,-224.6"/>
<text text-anchor="middle" x="1311.5" y="-238.8" font-family="Times New Roman,serif" font-size="14.00"> 0 &#45;&gt; 0 </text>
</g>
<!-- FakeQuantize_101 -->
<g id="node4" class="node">
<title>FakeQuantize_101</title>
<polygon fill="none" stroke="black" points="1905,-411 1668,-411 1668,-268 1905,-268 1905,-411"/>
<text text-anchor="middle" x="1786.5" y="-395.8" font-family="Times New Roman,serif" font-size="14.00">friendly_name: fakeQuantizeOnWeights</text>
<text text-anchor="middle" x="1786.5" y="-380.8" font-family="Times New Roman,serif" font-size="14.00">name: FakeQuantize_101</text>
<text text-anchor="middle" x="1786.5" y="-365.8" font-family="Times New Roman,serif" font-size="14.00">type_name: FakeQuantize</text>
<text text-anchor="middle" x="1786.5" y="-350.8" font-family="Times New Roman,serif" font-size="14.00">in0: {f32}[9,6,1,1]: Constant_96: out0</text>
<text text-anchor="middle" x="1786.5" y="-335.8" font-family="Times New Roman,serif" font-size="14.00">in1: {f32}[9,1,1,1]: Constant_97: out0</text>
<text text-anchor="middle" x="1786.5" y="-320.8" font-family="Times New Roman,serif" font-size="14.00">in2: {f32}[9,1,1,1]: Constant_98: out0</text>
<text text-anchor="middle" x="1786.5" y="-305.8" font-family="Times New Roman,serif" font-size="14.00">in3: {f32}[9,1,1,1]: Constant_99: out0</text>
<text text-anchor="middle" x="1786.5" y="-290.8" font-family="Times New Roman,serif" font-size="14.00">in4: {f32}[9,1,1,1]: Constant_100: out0</text>
<text text-anchor="middle" x="1786.5" y="-275.8" font-family="Times New Roman,serif" font-size="14.00">out0: {f32}[9,6,1,1]</text>
</g>
<!-- FakeQuantize_101&#45;&gt;Convolution_102 -->
<g id="edge3" class="edge">
<title>FakeQuantize_101&#45;&gt;Convolution_102</title>
<path fill="none" stroke="black" d="M1667.82,-281.35C1627.63,-262 1582.97,-240.49 1543.56,-221.52"/>
<polygon fill="black" stroke="black" points="1544.72,-218.19 1534.19,-217 1541.68,-224.5 1544.72,-218.19"/>
<text text-anchor="middle" x="1621.5" y="-238.8" font-family="Times New Roman,serif" font-size="14.00"> 0 &#45;&gt; 1 </text>
</g>
<!-- CLONE_0 -->
<g id="node5" class="node">
<title>CLONE_0</title>
<polygon fill="none" stroke="black" stroke-dasharray="5,2" points="1432,-575 1215,-575 1215,-462 1432,-462 1432,-575"/>
<text text-anchor="middle" x="1323.5" y="-559.8" font-family="Times New Roman,serif" font-size="14.00">friendly_name: Constant_96</text>
<text text-anchor="middle" x="1323.5" y="-544.8" font-family="Times New Roman,serif" font-size="14.00">type_name: Constant</text>
<text text-anchor="middle" x="1323.5" y="-529.8" font-family="Times New Roman,serif" font-size="14.00">{f32}[9,6,1,1]</text>
<text text-anchor="middle" x="1323.5" y="-514.8" font-family="Times New Roman,serif" font-size="14.00">value: [54, 54, 54, 54, 54, 54, 54, 54</text>
<text text-anchor="middle" x="1323.5" y="-499.8" font-family="Times New Roman,serif" font-size="14.00">, 54, 54, 54, 54, 54, 54, 54, 54</text>
<text text-anchor="middle" x="1323.5" y="-484.8" font-family="Times New Roman,serif" font-size="14.00">, 54, 54, 54, 54, 54, 54, 54, 54</text>
<text text-anchor="middle" x="1323.5" y="-469.8" font-family="Times New Roman,serif" font-size="14.00">, 54, 54, 54, 54, 54, 54, 54, 54...]</text>
</g>
<!-- CLONE_0&#45;&gt;FakeQuantize_101 -->
<g id="edge4" class="edge">
<title>CLONE_0&#45;&gt;FakeQuantize_101</title>
<path fill="none" stroke="black" d="M1432,-465.56C1434.86,-464.34 1437.69,-463.15 1440.5,-462 1511.49,-432.79 1592.36,-404.15 1658.06,-382.01"/>
<polygon fill="black" stroke="black" points="1659.27,-385.3 1667.64,-378.79 1657.04,-378.66 1659.27,-385.3"/>
<text text-anchor="middle" x="1546.5" y="-432.8" font-family="Times New Roman,serif" font-size="14.00"> 0 &#45;&gt; 0 </text>
</g>
<!-- CLONE_1 -->
<g id="node6" class="node">
<title>CLONE_1</title>
<polygon fill="none" stroke="black" stroke-dasharray="5,2" points="1787,-560 1450,-560 1450,-477 1787,-477 1787,-560"/>
<text text-anchor="middle" x="1618.5" y="-544.8" font-family="Times New Roman,serif" font-size="14.00">friendly_name: Constant_97</text>
<text text-anchor="middle" x="1618.5" y="-529.8" font-family="Times New Roman,serif" font-size="14.00">type_name: Constant</text>
<text text-anchor="middle" x="1618.5" y="-514.8" font-family="Times New Roman,serif" font-size="14.00">{f32}[9,1,1,1]</text>
<text text-anchor="middle" x="1618.5" y="-499.8" font-family="Times New Roman,serif" font-size="14.00">value: [&#45;1.27, &#45;1.27, &#45;1.27, &#45;1.27, &#45;1.27, &#45;1.27, &#45;1.27, &#45;1.27</text>
<text text-anchor="middle" x="1618.5" y="-484.8" font-family="Times New Roman,serif" font-size="14.00">, &#45;1.27]</text>
</g>
<!-- CLONE_1&#45;&gt;FakeQuantize_101 -->
<g id="edge5" class="edge">
<title>CLONE_1&#45;&gt;FakeQuantize_101</title>
<path fill="none" stroke="black" d="M1657.04,-476.89C1673.52,-459.53 1693.34,-438.65 1712.46,-418.5"/>
<polygon fill="black" stroke="black" points="1715.12,-420.79 1719.47,-411.12 1710.04,-415.97 1715.12,-420.79"/>
<text text-anchor="middle" x="1723.5" y="-432.8" font-family="Times New Roman,serif" font-size="14.00"> 0 &#45;&gt; 1 </text>
</g>
<!-- CLONE_2 -->
<g id="node7" class="node">
<title>CLONE_2</title>
<polygon fill="none" stroke="black" stroke-dasharray="5,2" points="2106,-560 1805,-560 1805,-477 2106,-477 2106,-560"/>
<text text-anchor="middle" x="1955.5" y="-544.8" font-family="Times New Roman,serif" font-size="14.00">friendly_name: Constant_98</text>
<text text-anchor="middle" x="1955.5" y="-529.8" font-family="Times New Roman,serif" font-size="14.00">type_name: Constant</text>
<text text-anchor="middle" x="1955.5" y="-514.8" font-family="Times New Roman,serif" font-size="14.00">{f32}[9,1,1,1]</text>
<text text-anchor="middle" x="1955.5" y="-499.8" font-family="Times New Roman,serif" font-size="14.00">value: [1.27, 1.27, 1.27, 1.27, 1.27, 1.27, 1.27, 1.27</text>
<text text-anchor="middle" x="1955.5" y="-484.8" font-family="Times New Roman,serif" font-size="14.00">, 1.27]</text>
</g>
<!-- CLONE_2&#45;&gt;FakeQuantize_101 -->
<g id="edge6" class="edge">
<title>CLONE_2&#45;&gt;FakeQuantize_101</title>
<path fill="none" stroke="black" d="M1916.73,-476.89C1900.15,-459.53 1880.21,-438.65 1860.98,-418.5"/>
<polygon fill="black" stroke="black" points="1863.37,-415.94 1853.93,-411.12 1858.31,-420.77 1863.37,-415.94"/>
<text text-anchor="middle" x="1902.5" y="-432.8" font-family="Times New Roman,serif" font-size="14.00"> 0 &#45;&gt; 2 </text>
</g>
<!-- CLONE_3 -->
<g id="node8" class="node">
<title>CLONE_3</title>
<polygon fill="none" stroke="black" stroke-dasharray="5,2" points="2461,-560 2124,-560 2124,-477 2461,-477 2461,-560"/>
<text text-anchor="middle" x="2292.5" y="-544.8" font-family="Times New Roman,serif" font-size="14.00">friendly_name: Constant_99</text>
<text text-anchor="middle" x="2292.5" y="-529.8" font-family="Times New Roman,serif" font-size="14.00">type_name: Constant</text>
<text text-anchor="middle" x="2292.5" y="-514.8" font-family="Times New Roman,serif" font-size="14.00">{f32}[9,1,1,1]</text>
<text text-anchor="middle" x="2292.5" y="-499.8" font-family="Times New Roman,serif" font-size="14.00">value: [&#45;1.27, &#45;1.27, &#45;1.27, &#45;1.27, &#45;1.27, &#45;1.27, &#45;1.27, &#45;1.27</text>
<text text-anchor="middle" x="2292.5" y="-484.8" font-family="Times New Roman,serif" font-size="14.00">, &#45;1.27]</text>
</g>
<!-- CLONE_3&#45;&gt;FakeQuantize_101 -->
<g id="edge7" class="edge">
<title>CLONE_3&#45;&gt;FakeQuantize_101</title>
<path fill="none" stroke="black" d="M2176.41,-476.89C2098.33,-449.58 1995.34,-413.55 1914.82,-385.39"/>
<polygon fill="black" stroke="black" points="1915.71,-381.99 1905.12,-381.99 1913.4,-388.6 1915.71,-381.99"/>
<text text-anchor="middle" x="2091.5" y="-432.8" font-family="Times New Roman,serif" font-size="14.00"> 0 &#45;&gt; 3 </text>
</g>
<!-- CLONE_4 -->
<g id="node9" class="node">
<title>CLONE_4</title>
<polygon fill="none" stroke="black" stroke-dasharray="5,2" points="2780,-560 2479,-560 2479,-477 2780,-477 2780,-560"/>
<text text-anchor="middle" x="2629.5" y="-544.8" font-family="Times New Roman,serif" font-size="14.00">friendly_name: Constant_100</text>
<text text-anchor="middle" x="2629.5" y="-529.8" font-family="Times New Roman,serif" font-size="14.00">type_name: Constant</text>
<text text-anchor="middle" x="2629.5" y="-514.8" font-family="Times New Roman,serif" font-size="14.00">{f32}[9,1,1,1]</text>
<text text-anchor="middle" x="2629.5" y="-499.8" font-family="Times New Roman,serif" font-size="14.00">value: [1.27, 1.27, 1.27, 1.27, 1.27, 1.27, 1.27, 1.27</text>
<text text-anchor="middle" x="2629.5" y="-484.8" font-family="Times New Roman,serif" font-size="14.00">, 1.27]</text>
</g>
<!-- CLONE_4&#45;&gt;FakeQuantize_101 -->
<g id="edge8" class="edge">
<title>CLONE_4&#45;&gt;FakeQuantize_101</title>
<path fill="none" stroke="black" d="M2520.73,-476.96C2504.04,-471.49 2486.91,-466.29 2470.5,-462 2279.83,-412.13 2053.88,-376.42 1915.37,-357.11"/>
<polygon fill="black" stroke="black" points="1915.53,-353.6 1905.14,-355.69 1914.57,-360.53 1915.53,-353.6"/>
<text text-anchor="middle" x="2417.5" y="-432.8" font-family="Times New Roman,serif" font-size="14.00"> 0 &#45;&gt; 4 </text>
</g>
<!-- MaxPool_86 -->
<g id="node10" class="node">
<title>MaxPool_86</title>
<polygon fill="none" stroke="black" points="934,-560 707,-560 707,-477 934,-477 934,-560"/>
<text text-anchor="middle" x="820.5" y="-544.8" font-family="Times New Roman,serif" font-size="14.00">friendly_name: maxPool1</text>
<text text-anchor="middle" x="820.5" y="-529.8" font-family="Times New Roman,serif" font-size="14.00">name: MaxPool_86</text>
<text text-anchor="middle" x="820.5" y="-514.8" font-family="Times New Roman,serif" font-size="14.00">type_name: MaxPool</text>
<text text-anchor="middle" x="820.5" y="-499.8" font-family="Times New Roman,serif" font-size="14.00">in0: {f32}[1,3,9,9]: AvgPool_85: out0</text>
<text text-anchor="middle" x="820.5" y="-484.8" font-family="Times New Roman,serif" font-size="14.00">out0: {f32}[1,3,9,9]</text>
</g>
<!-- MaxPool_86&#45;&gt;Concat_95 -->
<g id="edge9" class="edge">
<title>MaxPool_86&#45;&gt;Concat_95</title>
<path fill="none" stroke="black" d="M880.84,-476.89C920.71,-450.06 973.06,-414.83 1014.57,-386.89"/>
<polygon fill="black" stroke="black" points="1016.65,-389.71 1022.99,-381.22 1012.74,-383.9 1016.65,-389.71"/>
<text text-anchor="middle" x="973.5" y="-432.8" font-family="Times New Roman,serif" font-size="14.00"> 0 &#45;&gt; 0 </text>
</g>
<!-- MaxPool_94 -->
<g id="node11" class="node">
<title>MaxPool_94</title>
<polygon fill="none" stroke="black" points="1197,-560 970,-560 970,-477 1197,-477 1197,-560"/>
<text text-anchor="middle" x="1083.5" y="-544.8" font-family="Times New Roman,serif" font-size="14.00">friendly_name: maxPool2</text>
<text text-anchor="middle" x="1083.5" y="-529.8" font-family="Times New Roman,serif" font-size="14.00">name: MaxPool_94</text>
<text text-anchor="middle" x="1083.5" y="-514.8" font-family="Times New Roman,serif" font-size="14.00">type_name: MaxPool</text>
<text text-anchor="middle" x="1083.5" y="-499.8" font-family="Times New Roman,serif" font-size="14.00">in0: {f32}[1,3,9,9]: AvgPool_93: out0</text>
<text text-anchor="middle" x="1083.5" y="-484.8" font-family="Times New Roman,serif" font-size="14.00">out0: {f32}[1,3,9,9]</text>
</g>
<!-- MaxPool_94&#45;&gt;Concat_95 -->
<g id="edge10" class="edge">
<title>MaxPool_94&#45;&gt;Concat_95</title>
<path fill="none" stroke="black" d="M1083.5,-476.89C1083.5,-451.46 1083.5,-418.48 1083.5,-391.32"/>
<polygon fill="black" stroke="black" points="1087,-391.22 1083.5,-381.22 1080,-391.22 1087,-391.22"/>
<text text-anchor="middle" x="1104.5" y="-432.8" font-family="Times New Roman,serif" font-size="14.00"> 0 &#45;&gt; 1 </text>
</g>
<!-- AvgPool_93 -->
<g id="node12" class="node">
<title>AvgPool_93</title>
<polygon fill="none" stroke="black" points="1266.5,-709 1012.5,-709 1012.5,-626 1266.5,-626 1266.5,-709"/>
<text text-anchor="middle" x="1139.5" y="-693.8" font-family="Times New Roman,serif" font-size="14.00">friendly_name: avgPool2</text>
<text text-anchor="middle" x="1139.5" y="-678.8" font-family="Times New Roman,serif" font-size="14.00">name: AvgPool_93</text>
<text text-anchor="middle" x="1139.5" y="-663.8" font-family="Times New Roman,serif" font-size="14.00">type_name: AvgPool</text>
<text text-anchor="middle" x="1139.5" y="-648.8" font-family="Times New Roman,serif" font-size="14.00">in0: {f32}[1,3,9,9]: FakeQuantize_92: out0</text>
<text text-anchor="middle" x="1139.5" y="-633.8" font-family="Times New Roman,serif" font-size="14.00">out0: {f32}[1,3,9,9]</text>
</g>
<!-- AvgPool_93&#45;&gt;MaxPool_94 -->
<g id="edge11" class="edge">
<title>AvgPool_93&#45;&gt;MaxPool_94</title>
<path fill="none" stroke="black" d="M1124.05,-625.94C1117.41,-608.5 1109.57,-587.94 1102.57,-569.56"/>
<polygon fill="black" stroke="black" points="1105.83,-568.28 1099,-560.18 1099.29,-570.77 1105.83,-568.28"/>
<text text-anchor="middle" x="1138.5" y="-596.8" font-family="Times New Roman,serif" font-size="14.00"> 0 &#45;&gt; 0 </text>
</g>
<!-- FakeQuantize_92 -->
<g id="node13" class="node">
<title>FakeQuantize_92</title>
<polygon fill="none" stroke="black" points="1470,-903 1209,-903 1209,-760 1470,-760 1470,-903"/>
<text text-anchor="middle" x="1339.5" y="-887.8" font-family="Times New Roman,serif" font-size="14.00">friendly_name: fakeQuantizeOnActivations2</text>
<text text-anchor="middle" x="1339.5" y="-872.8" font-family="Times New Roman,serif" font-size="14.00">name: FakeQuantize_92</text>
<text text-anchor="middle" x="1339.5" y="-857.8" font-family="Times New Roman,serif" font-size="14.00">type_name: FakeQuantize</text>
<text text-anchor="middle" x="1339.5" y="-842.8" font-family="Times New Roman,serif" font-size="14.00">in0: {f32}[1,3,9,9]: Parameter_79: out0</text>
<text text-anchor="middle" x="1339.5" y="-827.8" font-family="Times New Roman,serif" font-size="14.00">in1: {f32}[]: Constant_88: out0</text>
<text text-anchor="middle" x="1339.5" y="-812.8" font-family="Times New Roman,serif" font-size="14.00">in2: {f32}[]: Constant_89: out0</text>
<text text-anchor="middle" x="1339.5" y="-797.8" font-family="Times New Roman,serif" font-size="14.00">in3: {f32}[]: Constant_90: out0</text>
<text text-anchor="middle" x="1339.5" y="-782.8" font-family="Times New Roman,serif" font-size="14.00">in4: {f32}[]: Constant_91: out0</text>
<text text-anchor="middle" x="1339.5" y="-767.8" font-family="Times New Roman,serif" font-size="14.00">out0: {f32}[1,3,9,9]</text>
</g>
<!-- FakeQuantize_92&#45;&gt;AvgPool_93 -->
<g id="edge12" class="edge">
<title>FakeQuantize_92&#45;&gt;AvgPool_93</title>
<path fill="none" stroke="black" d="M1252.36,-759.92C1233.9,-744.97 1214.86,-729.54 1197.78,-715.71"/>
<polygon fill="black" stroke="black" points="1199.55,-712.63 1189.57,-709.06 1195.14,-718.07 1199.55,-712.63"/>
<text text-anchor="middle" x="1249.5" y="-730.8" font-family="Times New Roman,serif" font-size="14.00"> 0 &#45;&gt; 0 </text>
</g>
<!-- CLONE_5 -->
<g id="node14" class="node">
<title>CLONE_5</title>
<polygon fill="none" stroke="blue" stroke-dasharray="5,2" points="1140,-1014.5 961,-1014.5 961,-961.5 1140,-961.5 1140,-1014.5"/>
<text text-anchor="middle" x="1050.5" y="-999.3" font-family="Times New Roman,serif" font-size="14.00">friendly_name: Parameter_79</text>
<text text-anchor="middle" x="1050.5" y="-984.3" font-family="Times New Roman,serif" font-size="14.00">type_name: Parameter</text>
<text text-anchor="middle" x="1050.5" y="-969.3" font-family="Times New Roman,serif" font-size="14.00">{f32}[1,3,9,9]</text>
</g>
<!-- CLONE_5&#45;&gt;FakeQuantize_92 -->
<g id="edge13" class="edge">
<title>CLONE_5&#45;&gt;FakeQuantize_92</title>
<path fill="none" stroke="black" d="M1098.22,-961.49C1126.16,-946.55 1163.02,-926.85 1199.5,-907.34"/>
<polygon fill="black" stroke="black" points="1201.59,-910.2 1208.76,-902.39 1198.29,-904.02 1201.59,-910.2"/>
<text text-anchor="middle" x="1190.5" y="-924.8" font-family="Times New Roman,serif" font-size="14.00"> 0 &#45;&gt; 0 </text>
</g>
<!-- CLONE_6 -->
<g id="node15" class="node">
<title>CLONE_6</title>
<polygon fill="none" stroke="black" stroke-dasharray="5,2" points="1331,-1022 1158,-1022 1158,-954 1331,-954 1331,-1022"/>
<text text-anchor="middle" x="1244.5" y="-1006.8" font-family="Times New Roman,serif" font-size="14.00">friendly_name: Constant_88</text>
<text text-anchor="middle" x="1244.5" y="-991.8" font-family="Times New Roman,serif" font-size="14.00">type_name: Constant</text>
<text text-anchor="middle" x="1244.5" y="-976.8" font-family="Times New Roman,serif" font-size="14.00">{f32}[]</text>
<text text-anchor="middle" x="1244.5" y="-961.8" font-family="Times New Roman,serif" font-size="14.00">value: [&#45;0.64]</text>
</g>
<!-- CLONE_6&#45;&gt;FakeQuantize_92 -->
<g id="edge14" class="edge">
<title>CLONE_6&#45;&gt;FakeQuantize_92</title>
<path fill="none" stroke="black" d="M1264.88,-953.86C1272.54,-941.4 1281.61,-926.65 1290.74,-911.8"/>
<polygon fill="black" stroke="black" points="1293.86,-913.41 1296.11,-903.06 1287.89,-909.75 1293.86,-913.41"/>
<text text-anchor="middle" x="1304.5" y="-924.8" font-family="Times New Roman,serif" font-size="14.00"> 0 &#45;&gt; 1 </text>
</g>
<!-- CLONE_7 -->
<g id="node16" class="node">
<title>CLONE_7</title>
<polygon fill="none" stroke="black" stroke-dasharray="5,2" points="1522,-1022 1349,-1022 1349,-954 1522,-954 1522,-1022"/>
<text text-anchor="middle" x="1435.5" y="-1006.8" font-family="Times New Roman,serif" font-size="14.00">friendly_name: Constant_89</text>
<text text-anchor="middle" x="1435.5" y="-991.8" font-family="Times New Roman,serif" font-size="14.00">type_name: Constant</text>
<text text-anchor="middle" x="1435.5" y="-976.8" font-family="Times New Roman,serif" font-size="14.00">{f32}[]</text>
<text text-anchor="middle" x="1435.5" y="-961.8" font-family="Times New Roman,serif" font-size="14.00">value: [0.635]</text>
</g>
<!-- CLONE_7&#45;&gt;FakeQuantize_92 -->
<g id="edge15" class="edge">
<title>CLONE_7&#45;&gt;FakeQuantize_92</title>
<path fill="none" stroke="black" d="M1414.91,-953.86C1407.17,-941.4 1398,-926.65 1388.77,-911.8"/>
<polygon fill="black" stroke="black" points="1391.59,-909.71 1383.34,-903.06 1385.65,-913.4 1391.59,-909.71"/>
<text text-anchor="middle" x="1423.5" y="-924.8" font-family="Times New Roman,serif" font-size="14.00"> 0 &#45;&gt; 2 </text>
</g>
<!-- CLONE_8 -->
<g id="node17" class="node">
<title>CLONE_8</title>
<polygon fill="none" stroke="black" stroke-dasharray="5,2" points="1713,-1022 1540,-1022 1540,-954 1713,-954 1713,-1022"/>
<text text-anchor="middle" x="1626.5" y="-1006.8" font-family="Times New Roman,serif" font-size="14.00">friendly_name: Constant_90</text>
<text text-anchor="middle" x="1626.5" y="-991.8" font-family="Times New Roman,serif" font-size="14.00">type_name: Constant</text>
<text text-anchor="middle" x="1626.5" y="-976.8" font-family="Times New Roman,serif" font-size="14.00">{f32}[]</text>
<text text-anchor="middle" x="1626.5" y="-961.8" font-family="Times New Roman,serif" font-size="14.00">value: [&#45;0.64]</text>
</g>
<!-- CLONE_8&#45;&gt;FakeQuantize_92 -->
<g id="edge16" class="edge">
<title>CLONE_8&#45;&gt;FakeQuantize_92</title>
<path fill="none" stroke="black" d="M1564.93,-953.86C1539.67,-940.26 1509.32,-923.92 1479.19,-907.7"/>
<polygon fill="black" stroke="black" points="1480.74,-904.56 1470.28,-902.9 1477.42,-910.72 1480.74,-904.56"/>
<text text-anchor="middle" x="1546.5" y="-924.8" font-family="Times New Roman,serif" font-size="14.00"> 0 &#45;&gt; 3 </text>
</g>
<!-- CLONE_9 -->
<g id="node18" class="node">
<title>CLONE_9</title>
<polygon fill="none" stroke="black" stroke-dasharray="5,2" points="1904,-1022 1731,-1022 1731,-954 1904,-954 1904,-1022"/>
<text text-anchor="middle" x="1817.5" y="-1006.8" font-family="Times New Roman,serif" font-size="14.00">friendly_name: Constant_91</text>
<text text-anchor="middle" x="1817.5" y="-991.8" font-family="Times New Roman,serif" font-size="14.00">type_name: Constant</text>
<text text-anchor="middle" x="1817.5" y="-976.8" font-family="Times New Roman,serif" font-size="14.00">{f32}[]</text>
<text text-anchor="middle" x="1817.5" y="-961.8" font-family="Times New Roman,serif" font-size="14.00">value: [0.635]</text>
</g>
<!-- CLONE_9&#45;&gt;FakeQuantize_92 -->
<g id="edge17" class="edge">
<title>CLONE_9&#45;&gt;FakeQuantize_92</title>
<path fill="none" stroke="black" d="M1730.92,-957.14C1727.74,-956.07 1724.6,-955.02 1721.5,-954 1641.67,-927.59 1552.1,-899.04 1479.77,-876.26"/>
<polygon fill="black" stroke="black" points="1480.72,-872.89 1470.13,-873.23 1478.62,-879.57 1480.72,-872.89"/>
<text text-anchor="middle" x="1680.5" y="-924.8" font-family="Times New Roman,serif" font-size="14.00"> 0 &#45;&gt; 4 </text>
</g>
<!-- AvgPool_85 -->
<g id="node19" class="node">
<title>AvgPool_85</title>
<polygon fill="none" stroke="black" points="927.5,-709 673.5,-709 673.5,-626 927.5,-626 927.5,-709"/>
<text text-anchor="middle" x="800.5" y="-693.8" font-family="Times New Roman,serif" font-size="14.00">friendly_name: avgPool1</text>
<text text-anchor="middle" x="800.5" y="-678.8" font-family="Times New Roman,serif" font-size="14.00">name: AvgPool_85</text>
<text text-anchor="middle" x="800.5" y="-663.8" font-family="Times New Roman,serif" font-size="14.00">type_name: AvgPool</text>
<text text-anchor="middle" x="800.5" y="-648.8" font-family="Times New Roman,serif" font-size="14.00">in0: {f32}[1,3,9,9]: FakeQuantize_84: out0</text>
<text text-anchor="middle" x="800.5" y="-633.8" font-family="Times New Roman,serif" font-size="14.00">out0: {f32}[1,3,9,9]</text>
</g>
<!-- AvgPool_85&#45;&gt;MaxPool_86 -->
<g id="edge18" class="edge">
<title>AvgPool_85&#45;&gt;MaxPool_86</title>
<path fill="none" stroke="black" d="M806.02,-625.94C808.36,-608.74 811.11,-588.51 813.59,-570.32"/>
<polygon fill="black" stroke="black" points="817.09,-570.56 814.97,-560.18 810.15,-569.62 817.09,-570.56"/>
<text text-anchor="middle" x="831.5" y="-596.8" font-family="Times New Roman,serif" font-size="14.00"> 0 &#45;&gt; 0 </text>
</g>
<!-- FakeQuantize_84 -->
<g id="node20" class="node">
<title>FakeQuantize_84</title>
<polygon fill="none" stroke="black" points="701,-903 440,-903 440,-760 701,-760 701,-903"/>
<text text-anchor="middle" x="570.5" y="-887.8" font-family="Times New Roman,serif" font-size="14.00">friendly_name: fakeQuantizeOnActivations1</text>
<text text-anchor="middle" x="570.5" y="-872.8" font-family="Times New Roman,serif" font-size="14.00">name: FakeQuantize_84</text>
<text text-anchor="middle" x="570.5" y="-857.8" font-family="Times New Roman,serif" font-size="14.00">type_name: FakeQuantize</text>
<text text-anchor="middle" x="570.5" y="-842.8" font-family="Times New Roman,serif" font-size="14.00">in0: {f32}[1,3,9,9]: Parameter_79: out0</text>
<text text-anchor="middle" x="570.5" y="-827.8" font-family="Times New Roman,serif" font-size="14.00">in1: {f32}[]: Constant_80: out0</text>
<text text-anchor="middle" x="570.5" y="-812.8" font-family="Times New Roman,serif" font-size="14.00">in2: {f32}[]: Constant_81: out0</text>
<text text-anchor="middle" x="570.5" y="-797.8" font-family="Times New Roman,serif" font-size="14.00">in3: {f32}[]: Constant_82: out0</text>
<text text-anchor="middle" x="570.5" y="-782.8" font-family="Times New Roman,serif" font-size="14.00">in4: {f32}[]: Constant_83: out0</text>
<text text-anchor="middle" x="570.5" y="-767.8" font-family="Times New Roman,serif" font-size="14.00">out0: {f32}[1,3,9,9]</text>
</g>
<!-- FakeQuantize_84&#45;&gt;AvgPool_85 -->
<g id="edge19" class="edge">
<title>FakeQuantize_84&#45;&gt;AvgPool_85</title>
<path fill="none" stroke="black" d="M670.71,-759.92C692.32,-744.7 714.64,-728.98 734.54,-714.96"/>
<polygon fill="black" stroke="black" points="736.76,-717.68 742.92,-709.06 732.72,-711.96 736.76,-717.68"/>
<text text-anchor="middle" x="734.5" y="-730.8" font-family="Times New Roman,serif" font-size="14.00"> 0 &#45;&gt; 0 </text>
</g>
<!-- CLONE_10 -->
<g id="node21" class="node">
<title>CLONE_10</title>
<polygon fill="none" stroke="blue" stroke-dasharray="5,2" points="179,-1014.5 0,-1014.5 0,-961.5 179,-961.5 179,-1014.5"/>
<text text-anchor="middle" x="89.5" y="-999.3" font-family="Times New Roman,serif" font-size="14.00">friendly_name: Parameter_79</text>
<text text-anchor="middle" x="89.5" y="-984.3" font-family="Times New Roman,serif" font-size="14.00">type_name: Parameter</text>
<text text-anchor="middle" x="89.5" y="-969.3" font-family="Times New Roman,serif" font-size="14.00">{f32}[1,3,9,9]</text>
</g>
<!-- CLONE_10&#45;&gt;FakeQuantize_84 -->
<g id="edge20" class="edge">
<title>CLONE_10&#45;&gt;FakeQuantize_84</title>
<path fill="none" stroke="black" d="M164.9,-961.46C172.53,-958.92 180.16,-956.4 187.5,-954 267.61,-927.81 357.42,-899.27 429.92,-876.44"/>
<polygon fill="black" stroke="black" points="431.1,-879.74 439.58,-873.4 428.99,-873.07 431.1,-879.74"/>
<text text-anchor="middle" x="303.5" y="-924.8" font-family="Times New Roman,serif" font-size="14.00"> 0 &#45;&gt; 0 </text>
</g>
<!-- CLONE_11 -->
<g id="node22" class="node">
<title>CLONE_11</title>
<polygon fill="none" stroke="black" stroke-dasharray="5,2" points="370,-1022 197,-1022 197,-954 370,-954 370,-1022"/>
<text text-anchor="middle" x="283.5" y="-1006.8" font-family="Times New Roman,serif" font-size="14.00">friendly_name: Constant_80</text>
<text text-anchor="middle" x="283.5" y="-991.8" font-family="Times New Roman,serif" font-size="14.00">type_name: Constant</text>
<text text-anchor="middle" x="283.5" y="-976.8" font-family="Times New Roman,serif" font-size="14.00">{f32}[]</text>
<text text-anchor="middle" x="283.5" y="-961.8" font-family="Times New Roman,serif" font-size="14.00">value: [&#45;1.28]</text>
</g>
<!-- CLONE_11&#45;&gt;FakeQuantize_84 -->
<g id="edge21" class="edge">
<title>CLONE_11&#45;&gt;FakeQuantize_84</title>
<path fill="none" stroke="black" d="M345.07,-953.86C370.33,-940.26 400.68,-923.92 430.81,-907.7"/>
<polygon fill="black" stroke="black" points="432.58,-910.72 439.72,-902.9 429.26,-904.56 432.58,-910.72"/>
<text text-anchor="middle" x="422.5" y="-924.8" font-family="Times New Roman,serif" font-size="14.00"> 0 &#45;&gt; 1 </text>
</g>
<!-- CLONE_12 -->
<g id="node23" class="node">
<title>CLONE_12</title>
<polygon fill="none" stroke="black" stroke-dasharray="5,2" points="561,-1022 388,-1022 388,-954 561,-954 561,-1022"/>
<text text-anchor="middle" x="474.5" y="-1006.8" font-family="Times New Roman,serif" font-size="14.00">friendly_name: Constant_81</text>
<text text-anchor="middle" x="474.5" y="-991.8" font-family="Times New Roman,serif" font-size="14.00">type_name: Constant</text>
<text text-anchor="middle" x="474.5" y="-976.8" font-family="Times New Roman,serif" font-size="14.00">{f32}[]</text>
<text text-anchor="middle" x="474.5" y="-961.8" font-family="Times New Roman,serif" font-size="14.00">value: [1.27]</text>
</g>
<!-- CLONE_12&#45;&gt;FakeQuantize_84 -->
<g id="edge22" class="edge">
<title>CLONE_12&#45;&gt;FakeQuantize_84</title>
<path fill="none" stroke="black" d="M495.09,-953.86C502.83,-941.4 512,-926.65 521.23,-911.8"/>
<polygon fill="black" stroke="black" points="524.35,-913.4 526.66,-903.06 518.41,-909.71 524.35,-913.4"/>
<text text-anchor="middle" x="535.5" y="-924.8" font-family="Times New Roman,serif" font-size="14.00"> 0 &#45;&gt; 2 </text>
</g>
<!-- CLONE_13 -->
<g id="node24" class="node">
<title>CLONE_13</title>
<polygon fill="none" stroke="black" stroke-dasharray="5,2" points="752,-1022 579,-1022 579,-954 752,-954 752,-1022"/>
<text text-anchor="middle" x="665.5" y="-1006.8" font-family="Times New Roman,serif" font-size="14.00">friendly_name: Constant_82</text>
<text text-anchor="middle" x="665.5" y="-991.8" font-family="Times New Roman,serif" font-size="14.00">type_name: Constant</text>
<text text-anchor="middle" x="665.5" y="-976.8" font-family="Times New Roman,serif" font-size="14.00">{f32}[]</text>
<text text-anchor="middle" x="665.5" y="-961.8" font-family="Times New Roman,serif" font-size="14.00">value: [&#45;1.28]</text>
</g>
<!-- CLONE_13&#45;&gt;FakeQuantize_84 -->
<g id="edge23" class="edge">
<title>CLONE_13&#45;&gt;FakeQuantize_84</title>
<path fill="none" stroke="black" d="M645.12,-953.86C637.46,-941.4 628.39,-926.65 619.26,-911.8"/>
<polygon fill="black" stroke="black" points="622.11,-909.75 613.89,-903.06 616.14,-913.41 622.11,-909.75"/>
<text text-anchor="middle" x="653.5" y="-924.8" font-family="Times New Roman,serif" font-size="14.00"> 0 &#45;&gt; 3 </text>
</g>
<!-- CLONE_14 -->
<g id="node25" class="node">
<title>CLONE_14</title>
<polygon fill="none" stroke="black" stroke-dasharray="5,2" points="943,-1022 770,-1022 770,-954 943,-954 943,-1022"/>
<text text-anchor="middle" x="856.5" y="-1006.8" font-family="Times New Roman,serif" font-size="14.00">friendly_name: Constant_83</text>
<text text-anchor="middle" x="856.5" y="-991.8" font-family="Times New Roman,serif" font-size="14.00">type_name: Constant</text>
<text text-anchor="middle" x="856.5" y="-976.8" font-family="Times New Roman,serif" font-size="14.00">{f32}[]</text>
<text text-anchor="middle" x="856.5" y="-961.8" font-family="Times New Roman,serif" font-size="14.00">value: [1.27]</text>
</g>
<!-- CLONE_14&#45;&gt;FakeQuantize_84 -->
<g id="edge24" class="edge">
<title>CLONE_14&#45;&gt;FakeQuantize_84</title>
<path fill="none" stroke="black" d="M795.15,-953.86C770.05,-940.3 739.91,-924.01 709.97,-907.84"/>
<polygon fill="black" stroke="black" points="711.58,-904.73 701.12,-903.06 708.25,-910.89 711.58,-904.73"/>
<text text-anchor="middle" x="777.5" y="-924.8" font-family="Times New Roman,serif" font-size="14.00"> 0 &#45;&gt; 4 </text>
</g>
</g>
</svg>
