<?xml version="1.0" encoding="UTF-8" standalone="no"?>
<!DOCTYPE svg PUBLIC "-//W3C//DTD SVG 1.1//EN"
 "http://www.w3.org/Graphics/SVG/1.1/DTD/svg11.dtd">
<!-- Generated by graphviz version 2.43.20200408.0903 (20200408.0903)
 -->
<!-- Title: ngraph Pages: 1 -->
<svg width="2879pt" height="1030pt"
 viewBox="0.00 0.00 2879.00 1030.00" xmlns="http://www.w3.org/2000/svg" xmlns:xlink="http://www.w3.org/1999/xlink">
<g id="graph0" class="graph" transform="scale(1 1) rotate(0) translate(4 1026)">
<title>ngraph</title>
<polygon fill="white" stroke="transparent" points="-4,4 -4,-1026 2875,-1026 2875,4 -4,4"/>
<!-- Convolution_102 -->
<g id="node1" class="node">
<title>Convolution_102</title>
<polygon fill="none" stroke="black" points="1785.5,-217 1403.5,-217 1403.5,-119 1785.5,-119 1785.5,-217"/>
<text text-anchor="middle" x="1594.5" y="-201.8" font-family="Times New Roman,serif" font-size="14.00">friendly_name: output</text>
<text text-anchor="middle" x="1594.5" y="-186.8" font-family="Times New Roman,serif" font-size="14.00">name: Convolution_102</text>
<text text-anchor="middle" x="1594.5" y="-171.8" font-family="Times New Roman,serif" font-size="14.00">type_name: Convolution</text>
<text text-anchor="middle" x="1594.5" y="-156.8" font-family="Times New Roman,serif" font-size="14.00">in0: {f32}[1,6,9,9]: Concat_95: out0 PRECISIONS({u8}) </text>
<text text-anchor="middle" x="1594.5" y="-141.8" font-family="Times New Roman,serif" font-size="14.00">in1: {f32}[9,6,1,1]: FakeQuantize_101: out0 PRECISIONS({i8}) </text>
<text text-anchor="middle" x="1594.5" y="-126.8" font-family="Times New Roman,serif" font-size="14.00">out0: {f32}[1,9,9,9]</text>
</g>
<!-- Result_103 -->
<g id="node2" class="node">
<title>Result_103</title>
<polygon fill="none" stroke="crimson" stroke-width="1.5" points="1721.5,-68 1467.5,-68 1467.5,0 1721.5,0 1721.5,-68"/>
<text text-anchor="middle" x="1594.5" y="-52.8" font-family="Times New Roman,serif" font-size="14.00">friendly_name: Result_103</text>
<text text-anchor="middle" x="1594.5" y="-37.8" font-family="Times New Roman,serif" font-size="14.00">type_name: Result</text>
<text text-anchor="middle" x="1594.5" y="-22.8" font-family="Times New Roman,serif" font-size="14.00">in0: {f32}[1,9,9,9]: Convolution_102: out0</text>
<text text-anchor="middle" x="1594.5" y="-7.8" font-family="Times New Roman,serif" font-size="14.00">out0: {f32}[1,9,9,9]</text>
</g>
<!-- Convolution_102&#45;&gt;Result_103 -->
<g id="edge1" class="edge">
<title>Convolution_102&#45;&gt;Result_103</title>
<path fill="none" stroke="black" d="M1594.5,-118.97C1594.5,-105.71 1594.5,-91.4 1594.5,-78.42"/>
<polygon fill="black" stroke="black" points="1598,-78.33 1594.5,-68.33 1591,-78.33 1598,-78.33"/>
<text text-anchor="middle" x="1615.5" y="-89.8" font-family="Times New Roman,serif" font-size="14.00"> 0 &#45;&gt; 0 </text>
</g>
<!-- Concat_95 -->
<g id="node3" class="node">
<title>Concat_95</title>
<polygon fill="none" stroke="black" points="1288,-388.5 1001,-388.5 1001,-290.5 1288,-290.5 1288,-388.5"/>
<text text-anchor="middle" x="1144.5" y="-373.3" font-family="Times New Roman,serif" font-size="14.00">friendly_name: Concat_95</text>
<text text-anchor="middle" x="1144.5" y="-358.3" font-family="Times New Roman,serif" font-size="14.00">type_name: Concat</text>
<text text-anchor="middle" x="1144.5" y="-343.3" font-family="Times New Roman,serif" font-size="14.00">rt info: &#160;PRECISION_PRESERVED(value: true)</text>
<text text-anchor="middle" x="1144.5" y="-328.3" font-family="Times New Roman,serif" font-size="14.00">in0: {f32}[1,3,9,9]: MaxPool_86: out0</text>
<text text-anchor="middle" x="1144.5" y="-313.3" font-family="Times New Roman,serif" font-size="14.00">in1: {f32}[1,3,9,9]: MaxPool_94: out0</text>
<text text-anchor="middle" x="1144.5" y="-298.3" font-family="Times New Roman,serif" font-size="14.00">out0: {f32}[1,6,9,9]</text>
</g>
<!-- Concat_95&#45;&gt;Convolution_102 -->
<g id="edge2" class="edge">
<title>Concat_95&#45;&gt;Convolution_102</title>
<path fill="none" stroke="black" d="M1271.95,-290.49C1329.92,-268.66 1398.6,-242.79 1457.66,-220.54"/>
<polygon fill="black" stroke="black" points="1458.92,-223.81 1467.05,-217.01 1456.46,-217.26 1458.92,-223.81"/>
<text text-anchor="middle" x="1431.5" y="-238.8" font-family="Times New Roman,serif" font-size="14.00"> 0 &#45;&gt; 0 </text>
</g>
<!-- FakeQuantize_101 -->
<g id="node4" class="node">
<title>FakeQuantize_101</title>
<polygon fill="none" stroke="black" points="2060,-411 1823,-411 1823,-268 2060,-268 2060,-411"/>
<text text-anchor="middle" x="1941.5" y="-395.8" font-family="Times New Roman,serif" font-size="14.00">friendly_name: fakeQuantizeOnWeights</text>
<text text-anchor="middle" x="1941.5" y="-380.8" font-family="Times New Roman,serif" font-size="14.00">name: FakeQuantize_101</text>
<text text-anchor="middle" x="1941.5" y="-365.8" font-family="Times New Roman,serif" font-size="14.00">type_name: FakeQuantize</text>
<text text-anchor="middle" x="1941.5" y="-350.8" font-family="Times New Roman,serif" font-size="14.00">in0: {f32}[9,6,1,1]: Constant_96: out0</text>
<text text-anchor="middle" x="1941.5" y="-335.8" font-family="Times New Roman,serif" font-size="14.00">in1: {f32}[9,1,1,1]: Constant_97: out0</text>
<text text-anchor="middle" x="1941.5" y="-320.8" font-family="Times New Roman,serif" font-size="14.00">in2: {f32}[9,1,1,1]: Constant_98: out0</text>
<text text-anchor="middle" x="1941.5" y="-305.8" font-family="Times New Roman,serif" font-size="14.00">in3: {f32}[9,1,1,1]: Constant_99: out0</text>
<text text-anchor="middle" x="1941.5" y="-290.8" font-family="Times New Roman,serif" font-size="14.00">in4: {f32}[9,1,1,1]: Constant_100: out0</text>
<text text-anchor="middle" x="1941.5" y="-275.8" font-family="Times New Roman,serif" font-size="14.00">out0: {f32}[9,6,1,1]</text>
</g>
<!-- FakeQuantize_101&#45;&gt;Convolution_102 -->
<g id="edge3" class="edge">
<title>FakeQuantize_101&#45;&gt;Convolution_102</title>
<path fill="none" stroke="black" d="M1822.57,-280.4C1783.43,-261.29 1740.16,-240.15 1701.93,-221.47"/>
<polygon fill="black" stroke="black" points="1703.35,-218.28 1692.83,-217.03 1700.28,-224.57 1703.35,-218.28"/>
<text text-anchor="middle" x="1779.5" y="-238.8" font-family="Times New Roman,serif" font-size="14.00"> 0 &#45;&gt; 1 </text>
</g>
<!-- CLONE_0 -->
<g id="node5" class="node">
<title>CLONE_0</title>
<polygon fill="none" stroke="black" stroke-dasharray="5,2" points="1523,-575 1306,-575 1306,-462 1523,-462 1523,-575"/>
<text text-anchor="middle" x="1414.5" y="-559.8" font-family="Times New Roman,serif" font-size="14.00">friendly_name: Constant_96</text>
<text text-anchor="middle" x="1414.5" y="-544.8" font-family="Times New Roman,serif" font-size="14.00">type_name: Constant</text>
<text text-anchor="middle" x="1414.5" y="-529.8" font-family="Times New Roman,serif" font-size="14.00">{f32}[9,6,1,1]</text>
<text text-anchor="middle" x="1414.5" y="-514.8" font-family="Times New Roman,serif" font-size="14.00">value: [54, 54, 54, 54, 54, 54, 54, 54</text>
<text text-anchor="middle" x="1414.5" y="-499.8" font-family="Times New Roman,serif" font-size="14.00">, 54, 54, 54, 54, 54, 54, 54, 54</text>
<text text-anchor="middle" x="1414.5" y="-484.8" font-family="Times New Roman,serif" font-size="14.00">, 54, 54, 54, 54, 54, 54, 54, 54</text>
<text text-anchor="middle" x="1414.5" y="-469.8" font-family="Times New Roman,serif" font-size="14.00">, 54, 54, 54, 54, 54, 54, 54, 54...]</text>
</g>
<!-- CLONE_0&#45;&gt;FakeQuantize_101 -->
<g id="edge4" class="edge">
<title>CLONE_0&#45;&gt;FakeQuantize_101</title>
<path fill="none" stroke="black" d="M1523.25,-465.24C1526.02,-464.13 1528.77,-463.04 1531.5,-462 1623.95,-426.62 1731.31,-395.14 1812.98,-373.09"/>
<polygon fill="black" stroke="black" points="1814.06,-376.42 1822.81,-370.44 1812.24,-369.66 1814.06,-376.42"/>
<text text-anchor="middle" x="1641.5" y="-432.8" font-family="Times New Roman,serif" font-size="14.00"> 0 &#45;&gt; 0 </text>
</g>
<!-- CLONE_1 -->
<g id="node6" class="node">
<title>CLONE_1</title>
<polygon fill="none" stroke="black" stroke-dasharray="5,2" points="1878,-560 1541,-560 1541,-477 1878,-477 1878,-560"/>
<text text-anchor="middle" x="1709.5" y="-544.8" font-family="Times New Roman,serif" font-size="14.00">friendly_name: Constant_97</text>
<text text-anchor="middle" x="1709.5" y="-529.8" font-family="Times New Roman,serif" font-size="14.00">type_name: Constant</text>
<text text-anchor="middle" x="1709.5" y="-514.8" font-family="Times New Roman,serif" font-size="14.00">{f32}[9,1,1,1]</text>
<text text-anchor="middle" x="1709.5" y="-499.8" font-family="Times New Roman,serif" font-size="14.00">value: [&#45;1.27, &#45;1.27, &#45;1.27, &#45;1.27, &#45;1.27, &#45;1.27, &#45;1.27, &#45;1.27</text>
<text text-anchor="middle" x="1709.5" y="-484.8" font-family="Times New Roman,serif" font-size="14.00">, &#45;1.27]</text>
</g>
<!-- CLONE_1&#45;&gt;FakeQuantize_101 -->
<g id="edge5" class="edge">
<title>CLONE_1&#45;&gt;FakeQuantize_101</title>
<path fill="none" stroke="black" d="M1762.73,-476.89C1785.88,-459.23 1813.81,-437.92 1840.65,-417.44"/>
<polygon fill="black" stroke="black" points="1843.1,-419.97 1848.93,-411.12 1838.86,-414.41 1843.1,-419.97"/>
<text text-anchor="middle" x="1846.5" y="-432.8" font-family="Times New Roman,serif" font-size="14.00"> 0 &#45;&gt; 1 </text>
</g>
<!-- CLONE_2 -->
<g id="node7" class="node">
<title>CLONE_2</title>
<polygon fill="none" stroke="black" stroke-dasharray="5,2" points="2197,-560 1896,-560 1896,-477 2197,-477 2197,-560"/>
<text text-anchor="middle" x="2046.5" y="-544.8" font-family="Times New Roman,serif" font-size="14.00">friendly_name: Constant_98</text>
<text text-anchor="middle" x="2046.5" y="-529.8" font-family="Times New Roman,serif" font-size="14.00">type_name: Constant</text>
<text text-anchor="middle" x="2046.5" y="-514.8" font-family="Times New Roman,serif" font-size="14.00">{f32}[9,1,1,1]</text>
<text text-anchor="middle" x="2046.5" y="-499.8" font-family="Times New Roman,serif" font-size="14.00">value: [1.27, 1.27, 1.27, 1.27, 1.27, 1.27, 1.27, 1.27</text>
<text text-anchor="middle" x="2046.5" y="-484.8" font-family="Times New Roman,serif" font-size="14.00">, 1.27]</text>
</g>
<!-- CLONE_2&#45;&gt;FakeQuantize_101 -->
<g id="edge6" class="edge">
<title>CLONE_2&#45;&gt;FakeQuantize_101</title>
<path fill="none" stroke="black" d="M2022.41,-476.89C2012.34,-459.91 2000.27,-439.56 1988.56,-419.83"/>
<polygon fill="black" stroke="black" points="1991.51,-417.94 1983.4,-411.12 1985.49,-421.51 1991.51,-417.94"/>
<text text-anchor="middle" x="2021.5" y="-432.8" font-family="Times New Roman,serif" font-size="14.00"> 0 &#45;&gt; 2 </text>
</g>
<!-- CLONE_3 -->
<g id="node8" class="node">
<title>CLONE_3</title>
<polygon fill="none" stroke="black" stroke-dasharray="5,2" points="2552,-560 2215,-560 2215,-477 2552,-477 2552,-560"/>
<text text-anchor="middle" x="2383.5" y="-544.8" font-family="Times New Roman,serif" font-size="14.00">friendly_name: Constant_99</text>
<text text-anchor="middle" x="2383.5" y="-529.8" font-family="Times New Roman,serif" font-size="14.00">type_name: Constant</text>
<text text-anchor="middle" x="2383.5" y="-514.8" font-family="Times New Roman,serif" font-size="14.00">{f32}[9,1,1,1]</text>
<text text-anchor="middle" x="2383.5" y="-499.8" font-family="Times New Roman,serif" font-size="14.00">value: [&#45;1.27, &#45;1.27, &#45;1.27, &#45;1.27, &#45;1.27, &#45;1.27, &#45;1.27, &#45;1.27</text>
<text text-anchor="middle" x="2383.5" y="-484.8" font-family="Times New Roman,serif" font-size="14.00">, &#45;1.27]</text>
</g>
<!-- CLONE_3&#45;&gt;FakeQuantize_101 -->
<g id="edge7" class="edge">
<title>CLONE_3&#45;&gt;FakeQuantize_101</title>
<path fill="none" stroke="black" d="M2282.1,-476.89C2218.93,-451.6 2137.11,-418.83 2069.49,-391.75"/>
<polygon fill="black" stroke="black" points="2070.63,-388.44 2060.05,-387.97 2068.03,-394.94 2070.63,-388.44"/>
<text text-anchor="middle" x="2210.5" y="-432.8" font-family="Times New Roman,serif" font-size="14.00"> 0 &#45;&gt; 3 </text>
</g>
<!-- CLONE_4 -->
<g id="node9" class="node">
<title>CLONE_4</title>
<polygon fill="none" stroke="black" stroke-dasharray="5,2" points="2871,-560 2570,-560 2570,-477 2871,-477 2871,-560"/>
<text text-anchor="middle" x="2720.5" y="-544.8" font-family="Times New Roman,serif" font-size="14.00">friendly_name: Constant_100</text>
<text text-anchor="middle" x="2720.5" y="-529.8" font-family="Times New Roman,serif" font-size="14.00">type_name: Constant</text>
<text text-anchor="middle" x="2720.5" y="-514.8" font-family="Times New Roman,serif" font-size="14.00">{f32}[9,1,1,1]</text>
<text text-anchor="middle" x="2720.5" y="-499.8" font-family="Times New Roman,serif" font-size="14.00">value: [1.27, 1.27, 1.27, 1.27, 1.27, 1.27, 1.27, 1.27</text>
<text text-anchor="middle" x="2720.5" y="-484.8" font-family="Times New Roman,serif" font-size="14.00">, 1.27]</text>
</g>
<!-- CLONE_4&#45;&gt;FakeQuantize_101 -->
<g id="edge8" class="edge">
<title>CLONE_4&#45;&gt;FakeQuantize_101</title>
<path fill="none" stroke="black" d="M2610.8,-476.93C2594.39,-471.53 2577.59,-466.36 2561.5,-462 2393.87,-416.57 2196.42,-380.86 2070.17,-360.22"/>
<polygon fill="black" stroke="black" points="2070.5,-356.73 2060.07,-358.58 2069.38,-363.64 2070.5,-356.73"/>
<text text-anchor="middle" x="2498.5" y="-432.8" font-family="Times New Roman,serif" font-size="14.00"> 0 &#45;&gt; 4 </text>
</g>
<!-- MaxPool_86 -->
<g id="node10" class="node">
<title>MaxPool_86</title>
<polygon fill="none" stroke="black" points="970,-567.5 683,-567.5 683,-469.5 970,-469.5 970,-567.5"/>
<text text-anchor="middle" x="826.5" y="-552.3" font-family="Times New Roman,serif" font-size="14.00">friendly_name: maxPool1</text>
<text text-anchor="middle" x="826.5" y="-537.3" font-family="Times New Roman,serif" font-size="14.00">name: MaxPool_86</text>
<text text-anchor="middle" x="826.5" y="-522.3" font-family="Times New Roman,serif" font-size="14.00">type_name: MaxPool</text>
<text text-anchor="middle" x="826.5" y="-507.3" font-family="Times New Roman,serif" font-size="14.00">rt info: &#160;PRECISION_PRESERVED(value: true)</text>
<text text-anchor="middle" x="826.5" y="-492.3" font-family="Times New Roman,serif" font-size="14.00">in0: {f32}[1,3,9,9]: AvgPool_85: out0</text>
<text text-anchor="middle" x="826.5" y="-477.3" font-family="Times New Roman,serif" font-size="14.00">out0: {f32}[1,3,9,9]</text>
</g>
<!-- MaxPool_86&#45;&gt;Concat_95 -->
<g id="edge9" class="edge">
<title>MaxPool_86&#45;&gt;Concat_95</title>
<path fill="none" stroke="black" d="M912.97,-469.37C955.13,-445.9 1005.94,-417.62 1049.21,-393.54"/>
<polygon fill="black" stroke="black" points="1051.01,-396.54 1058.04,-388.62 1047.6,-390.43 1051.01,-396.54"/>
<text text-anchor="middle" x="1006.5" y="-432.8" font-family="Times New Roman,serif" font-size="14.00"> 0 &#45;&gt; 0 </text>
</g>
<!-- MaxPool_94 -->
<g id="node11" class="node">
<title>MaxPool_94</title>
<polygon fill="none" stroke="black" points="1288,-567.5 1001,-567.5 1001,-469.5 1288,-469.5 1288,-567.5"/>
<text text-anchor="middle" x="1144.5" y="-552.3" font-family="Times New Roman,serif" font-size="14.00">friendly_name: maxPool2</text>
<text text-anchor="middle" x="1144.5" y="-537.3" font-family="Times New Roman,serif" font-size="14.00">name: MaxPool_94</text>
<text text-anchor="middle" x="1144.5" y="-522.3" font-family="Times New Roman,serif" font-size="14.00">type_name: MaxPool</text>
<text text-anchor="middle" x="1144.5" y="-507.3" font-family="Times New Roman,serif" font-size="14.00">rt info: &#160;PRECISION_PRESERVED(value: true)</text>
<text text-anchor="middle" x="1144.5" y="-492.3" font-family="Times New Roman,serif" font-size="14.00">in0: {f32}[1,3,9,9]: AvgPool_93: out0</text>
<text text-anchor="middle" x="1144.5" y="-477.3" font-family="Times New Roman,serif" font-size="14.00">out0: {f32}[1,3,9,9]</text>
</g>
<!-- MaxPool_94&#45;&gt;Concat_95 -->
<g id="edge10" class="edge">
<title>MaxPool_94&#45;&gt;Concat_95</title>
<path fill="none" stroke="black" d="M1144.5,-469.13C1144.5,-447.39 1144.5,-421.54 1144.5,-398.74"/>
<polygon fill="black" stroke="black" points="1148,-398.5 1144.5,-388.5 1141,-398.5 1148,-398.5"/>
<text text-anchor="middle" x="1165.5" y="-432.8" font-family="Times New Roman,serif" font-size="14.00"> 0 &#45;&gt; 1 </text>
</g>
<!-- AvgPool_93 -->
<g id="node12" class="node">
<title>AvgPool_93</title>
<polygon fill="none" stroke="black" points="1349.5,-709 1095.5,-709 1095.5,-626 1349.5,-626 1349.5,-709"/>
<text text-anchor="middle" x="1222.5" y="-693.8" font-family="Times New Roman,serif" font-size="14.00">friendly_name: avgPool2</text>
<text text-anchor="middle" x="1222.5" y="-678.8" font-family="Times New Roman,serif" font-size="14.00">name: AvgPool_93</text>
<text text-anchor="middle" x="1222.5" y="-663.8" font-family="Times New Roman,serif" font-size="14.00">type_name: AvgPool</text>
<text text-anchor="middle" x="1222.5" y="-648.8" font-family="Times New Roman,serif" font-size="14.00">in0: {f32}[1,3,9,9]: FakeQuantize_92: out0</text>
<text text-anchor="middle" x="1222.5" y="-633.8" font-family="Times New Roman,serif" font-size="14.00">out0: {f32}[1,3,9,9]</text>
</g>
<!-- AvgPool_93&#45;&gt;MaxPool_94 -->
<g id="edge11" class="edge">
<title>AvgPool_93&#45;&gt;MaxPool_94</title>
<path fill="none" stroke="black" d="M1200.98,-625.94C1192.91,-610.74 1183.59,-593.17 1174.87,-576.74"/>
<polygon fill="black" stroke="black" points="1177.88,-574.94 1170.1,-567.75 1171.7,-578.23 1177.88,-574.94"/>
<text text-anchor="middle" x="1211.5" y="-596.8" font-family="Times New Roman,serif" font-size="14.00"> 0 &#45;&gt; 0 </text>
</g>
<!-- FakeQuantize_92 -->
<g id="node13" class="node">
<title>FakeQuantize_92</title>
<polygon fill="none" stroke="black" points="1470,-903 1209,-903 1209,-760 1470,-760 1470,-903"/>
<text text-anchor="middle" x="1339.5" y="-887.8" font-family="Times New Roman,serif" font-size="14.00">friendly_name: fakeQuantizeOnActivations2</text>
<text text-anchor="middle" x="1339.5" y="-872.8" font-family="Times New Roman,serif" font-size="14.00">name: FakeQuantize_92</text>
<text text-anchor="middle" x="1339.5" y="-857.8" font-family="Times New Roman,serif" font-size="14.00">type_name: FakeQuantize</text>
<text text-anchor="middle" x="1339.5" y="-842.8" font-family="Times New Roman,serif" font-size="14.00">in0: {f32}[1,3,9,9]: Parameter_79: out0</text>
<text text-anchor="middle" x="1339.5" y="-827.8" font-family="Times New Roman,serif" font-size="14.00">in1: {f32}[]: Constant_88: out0</text>
<text text-anchor="middle" x="1339.5" y="-812.8" font-family="Times New Roman,serif" font-size="14.00">in2: {f32}[]: Constant_89: out0</text>
<text text-anchor="middle" x="1339.5" y="-797.8" font-family="Times New Roman,serif" font-size="14.00">in3: {f32}[]: Constant_90: out0</text>
<text text-anchor="middle" x="1339.5" y="-782.8" font-family="Times New Roman,serif" font-size="14.00">in4: {f32}[]: Constant_91: out0</text>
<text text-anchor="middle" x="1339.5" y="-767.8" font-family="Times New Roman,serif" font-size="14.00">out0: {f32}[1,3,9,9]</text>
</g>
<!-- FakeQuantize_92&#45;&gt;AvgPool_93 -->
<g id="edge12" class="edge">
<title>FakeQuantize_92&#45;&gt;AvgPool_93</title>
<path fill="none" stroke="black" d="M1288.52,-759.92C1278.12,-745.51 1267.39,-730.66 1257.69,-717.22"/>
<polygon fill="black" stroke="black" points="1260.49,-715.12 1251.79,-709.06 1254.81,-719.22 1260.49,-715.12"/>
<text text-anchor="middle" x="1295.5" y="-730.8" font-family="Times New Roman,serif" font-size="14.00"> 0 &#45;&gt; 0 </text>
</g>
<!-- CLONE_5 -->
<g id="node14" class="node">
<title>CLONE_5</title>
<polygon fill="none" stroke="blue" stroke-dasharray="5,2" points="1140,-1014.5 961,-1014.5 961,-961.5 1140,-961.5 1140,-1014.5"/>
<text text-anchor="middle" x="1050.5" y="-999.3" font-family="Times New Roman,serif" font-size="14.00">friendly_name: Parameter_79</text>
<text text-anchor="middle" x="1050.5" y="-984.3" font-family="Times New Roman,serif" font-size="14.00">type_name: Parameter</text>
<text text-anchor="middle" x="1050.5" y="-969.3" font-family="Times New Roman,serif" font-size="14.00">{f32}[1,3,9,9]</text>
</g>
<!-- CLONE_5&#45;&gt;FakeQuantize_92 -->
<g id="edge13" class="edge">
<title>CLONE_5&#45;&gt;FakeQuantize_92</title>
<path fill="none" stroke="black" d="M1098.22,-961.49C1126.16,-946.55 1163.02,-926.85 1199.5,-907.34"/>
<polygon fill="black" stroke="black" points="1201.59,-910.2 1208.76,-902.39 1198.29,-904.02 1201.59,-910.2"/>
<text text-anchor="middle" x="1190.5" y="-924.8" font-family="Times New Roman,serif" font-size="14.00"> 0 &#45;&gt; 0 </text>
</g>
<!-- CLONE_6 -->
<g id="node15" class="node">
<title>CLONE_6</title>
<polygon fill="none" stroke="black" stroke-dasharray="5,2" points="1331,-1022 1158,-1022 1158,-954 1331,-954 1331,-1022"/>
<text text-anchor="middle" x="1244.5" y="-1006.8" font-family="Times New Roman,serif" font-size="14.00">friendly_name: Constant_88</text>
<text text-anchor="middle" x="1244.5" y="-991.8" font-family="Times New Roman,serif" font-size="14.00">type_name: Constant</text>
<text text-anchor="middle" x="1244.5" y="-976.8" font-family="Times New Roman,serif" font-size="14.00">{f32}[]</text>
<text text-anchor="middle" x="1244.5" y="-961.8" font-family="Times New Roman,serif" font-size="14.00">value: [&#45;0.64]</text>
</g>
<!-- CLONE_6&#45;&gt;FakeQuantize_92 -->
<g id="edge14" class="edge">
<title>CLONE_6&#45;&gt;FakeQuantize_92</title>
<path fill="none" stroke="black" d="M1264.88,-953.86C1272.54,-941.4 1281.61,-926.65 1290.74,-911.8"/>
<polygon fill="black" stroke="black" points="1293.86,-913.41 1296.11,-903.06 1287.89,-909.75 1293.86,-913.41"/>
<text text-anchor="middle" x="1304.5" y="-924.8" font-family="Times New Roman,serif" font-size="14.00"> 0 &#45;&gt; 1 </text>
</g>
<!-- CLONE_7 -->
<g id="node16" class="node">
<title>CLONE_7</title>
<polygon fill="none" stroke="black" stroke-dasharray="5,2" points="1522,-1022 1349,-1022 1349,-954 1522,-954 1522,-1022"/>
<text text-anchor="middle" x="1435.5" y="-1006.8" font-family="Times New Roman,serif" font-size="14.00">friendly_name: Constant_89</text>
<text text-anchor="middle" x="1435.5" y="-991.8" font-family="Times New Roman,serif" font-size="14.00">type_name: Constant</text>
<text text-anchor="middle" x="1435.5" y="-976.8" font-family="Times New Roman,serif" font-size="14.00">{f32}[]</text>
<text text-anchor="middle" x="1435.5" y="-961.8" font-family="Times New Roman,serif" font-size="14.00">value: [0.635]</text>
</g>
<!-- CLONE_7&#45;&gt;FakeQuantize_92 -->
<g id="edge15" class="edge">
<title>CLONE_7&#45;&gt;FakeQuantize_92</title>
<path fill="none" stroke="black" d="M1414.91,-953.86C1407.17,-941.4 1398,-926.65 1388.77,-911.8"/>
<polygon fill="black" stroke="black" points="1391.59,-909.71 1383.34,-903.06 1385.65,-913.4 1391.59,-909.71"/>
<text text-anchor="middle" x="1423.5" y="-924.8" font-family="Times New Roman,serif" font-size="14.00"> 0 &#45;&gt; 2 </text>
</g>
<!-- CLONE_8 -->
<g id="node17" class="node">
<title>CLONE_8</title>
<polygon fill="none" stroke="black" stroke-dasharray="5,2" points="1713,-1022 1540,-1022 1540,-954 1713,-954 1713,-1022"/>
<text text-anchor="middle" x="1626.5" y="-1006.8" font-family="Times New Roman,serif" font-size="14.00">friendly_name: Constant_90</text>
<text text-anchor="middle" x="1626.5" y="-991.8" font-family="Times New Roman,serif" font-size="14.00">type_name: Constant</text>
<text text-anchor="middle" x="1626.5" y="-976.8" font-family="Times New Roman,serif" font-size="14.00">{f32}[]</text>
<text text-anchor="middle" x="1626.5" y="-961.8" font-family="Times New Roman,serif" font-size="14.00">value: [&#45;0.64]</text>
</g>
<!-- CLONE_8&#45;&gt;FakeQuantize_92 -->
<g id="edge16" class="edge">
<title>CLONE_8&#45;&gt;FakeQuantize_92</title>
<path fill="none" stroke="black" d="M1564.93,-953.86C1539.67,-940.26 1509.32,-923.92 1479.19,-907.7"/>
<polygon fill="black" stroke="black" points="1480.74,-904.56 1470.28,-902.9 1477.42,-910.72 1480.74,-904.56"/>
<text text-anchor="middle" x="1546.5" y="-924.8" font-family="Times New Roman,serif" font-size="14.00"> 0 &#45;&gt; 3 </text>
</g>
<!-- CLONE_9 -->
<g id="node18" class="node">
<title>CLONE_9</title>
<polygon fill="none" stroke="black" stroke-dasharray="5,2" points="1904,-1022 1731,-1022 1731,-954 1904,-954 1904,-1022"/>
<text text-anchor="middle" x="1817.5" y="-1006.8" font-family="Times New Roman,serif" font-size="14.00">friendly_name: Constant_91</text>
<text text-anchor="middle" x="1817.5" y="-991.8" font-family="Times New Roman,serif" font-size="14.00">type_name: Constant</text>
<text text-anchor="middle" x="1817.5" y="-976.8" font-family="Times New Roman,serif" font-size="14.00">{f32}[]</text>
<text text-anchor="middle" x="1817.5" y="-961.8" font-family="Times New Roman,serif" font-size="14.00">value: [0.635]</text>
</g>
<!-- CLONE_9&#45;&gt;FakeQuantize_92 -->
<g id="edge17" class="edge">
<title>CLONE_9&#45;&gt;FakeQuantize_92</title>
<path fill="none" stroke="black" d="M1730.92,-957.14C1727.74,-956.07 1724.6,-955.02 1721.5,-954 1641.67,-927.59 1552.1,-899.04 1479.77,-876.26"/>
<polygon fill="black" stroke="black" points="1480.72,-872.89 1470.13,-873.23 1478.62,-879.57 1480.72,-872.89"/>
<text text-anchor="middle" x="1680.5" y="-924.8" font-family="Times New Roman,serif" font-size="14.00"> 0 &#45;&gt; 4 </text>
</g>
<!-- AvgPool_85 -->
<g id="node19" class="node">
<title>AvgPool_85</title>
<polygon fill="none" stroke="black" points="748.5,-709 494.5,-709 494.5,-626 748.5,-626 748.5,-709"/>
<text text-anchor="middle" x="621.5" y="-693.8" font-family="Times New Roman,serif" font-size="14.00">friendly_name: avgPool1</text>
<text text-anchor="middle" x="621.5" y="-678.8" font-family="Times New Roman,serif" font-size="14.00">name: AvgPool_85</text>
<text text-anchor="middle" x="621.5" y="-663.8" font-family="Times New Roman,serif" font-size="14.00">type_name: AvgPool</text>
<text text-anchor="middle" x="621.5" y="-648.8" font-family="Times New Roman,serif" font-size="14.00">in0: {f32}[1,3,9,9]: FakeQuantize_84: out0</text>
<text text-anchor="middle" x="621.5" y="-633.8" font-family="Times New Roman,serif" font-size="14.00">out0: {f32}[1,3,9,9]</text>
</g>
<!-- AvgPool_85&#45;&gt;MaxPool_86 -->
<g id="edge18" class="edge">
<title>AvgPool_85&#45;&gt;MaxPool_86</title>
<path fill="none" stroke="black" d="M678.06,-625.94C700.53,-609.83 726.73,-591.05 750.8,-573.79"/>
<polygon fill="black" stroke="black" points="753.12,-576.42 759.21,-567.75 749.04,-570.73 753.12,-576.42"/>
<text text-anchor="middle" x="745.5" y="-596.8" font-family="Times New Roman,serif" font-size="14.00"> 0 &#45;&gt; 0 </text>
</g>
<!-- FakeQuantize_84 -->
<g id="node20" class="node">
<title>FakeQuantize_84</title>
<polygon fill="none" stroke="black" points="701,-903 440,-903 440,-760 701,-760 701,-903"/>
<text text-anchor="middle" x="570.5" y="-887.8" font-family="Times New Roman,serif" font-size="14.00">friendly_name: fakeQuantizeOnActivations1</text>
<text text-anchor="middle" x="570.5" y="-872.8" font-family="Times New Roman,serif" font-size="14.00">name: FakeQuantize_84</text>
<text text-anchor="middle" x="570.5" y="-857.8" font-family="Times New Roman,serif" font-size="14.00">type_name: FakeQuantize</text>
<text text-anchor="middle" x="570.5" y="-842.8" font-family="Times New Roman,serif" font-size="14.00">in0: {f32}[1,3,9,9]: Parameter_79: out0</text>
<text text-anchor="middle" x="570.5" y="-827.8" font-family="Times New Roman,serif" font-size="14.00">in1: {f32}[]: Constant_80: out0</text>
<text text-anchor="middle" x="570.5" y="-812.8" font-family="Times New Roman,serif" font-size="14.00">in2: {f32}[]: Constant_81: out0</text>
<text text-anchor="middle" x="570.5" y="-797.8" font-family="Times New Roman,serif" font-size="14.00">in3: {f32}[]: Constant_82: out0</text>
<text text-anchor="middle" x="570.5" y="-782.8" font-family="Times New Roman,serif" font-size="14.00">in4: {f32}[]: Constant_83: out0</text>
<text text-anchor="middle" x="570.5" y="-767.8" font-family="Times New Roman,serif" font-size="14.00">out0: {f32}[1,3,9,9]</text>
</g>
<!-- FakeQuantize_84&#45;&gt;AvgPool_85 -->
<g id="edge19" class="edge">
<title>FakeQuantize_84&#45;&gt;AvgPool_85</title>
<path fill="none" stroke="black" d="M592.72,-759.92C597.08,-746.05 601.58,-731.78 605.68,-718.75"/>
<polygon fill="black" stroke="black" points="609.07,-719.65 608.73,-709.06 602.39,-717.55 609.07,-719.65"/>
<text text-anchor="middle" x="623.5" y="-730.8" font-family="Times New Roman,serif" font-size="14.00"> 0 &#45;&gt; 0 </text>
</g>
<!-- CLONE_10 -->
<g id="node21" class="node">
<title>CLONE_10</title>
<polygon fill="none" stroke="blue" stroke-dasharray="5,2" points="179,-1014.5 0,-1014.5 0,-961.5 179,-961.5 179,-1014.5"/>
<text text-anchor="middle" x="89.5" y="-999.3" font-family="Times New Roman,serif" font-size="14.00">friendly_name: Parameter_79</text>
<text text-anchor="middle" x="89.5" y="-984.3" font-family="Times New Roman,serif" font-size="14.00">type_name: Parameter</text>
<text text-anchor="middle" x="89.5" y="-969.3" font-family="Times New Roman,serif" font-size="14.00">{f32}[1,3,9,9]</text>
</g>
<!-- CLONE_10&#45;&gt;FakeQuantize_84 -->
<g id="edge20" class="edge">
<title>CLONE_10&#45;&gt;FakeQuantize_84</title>
<path fill="none" stroke="black" d="M164.9,-961.46C172.53,-958.92 180.16,-956.4 187.5,-954 267.61,-927.81 357.42,-899.27 429.92,-876.44"/>
<polygon fill="black" stroke="black" points="431.1,-879.74 439.58,-873.4 428.99,-873.07 431.1,-879.74"/>
<text text-anchor="middle" x="303.5" y="-924.8" font-family="Times New Roman,serif" font-size="14.00"> 0 &#45;&gt; 0 </text>
</g>
<!-- CLONE_11 -->
<g id="node22" class="node">
<title>CLONE_11</title>
<polygon fill="none" stroke="black" stroke-dasharray="5,2" points="370,-1022 197,-1022 197,-954 370,-954 370,-1022"/>
<text text-anchor="middle" x="283.5" y="-1006.8" font-family="Times New Roman,serif" font-size="14.00">friendly_name: Constant_80</text>
<text text-anchor="middle" x="283.5" y="-991.8" font-family="Times New Roman,serif" font-size="14.00">type_name: Constant</text>
<text text-anchor="middle" x="283.5" y="-976.8" font-family="Times New Roman,serif" font-size="14.00">{f32}[]</text>
<text text-anchor="middle" x="283.5" y="-961.8" font-family="Times New Roman,serif" font-size="14.00">value: [&#45;1.28]</text>
</g>
<!-- CLONE_11&#45;&gt;FakeQuantize_84 -->
<g id="edge21" class="edge">
<title>CLONE_11&#45;&gt;FakeQuantize_84</title>
<path fill="none" stroke="black" d="M345.07,-953.86C370.33,-940.26 400.68,-923.92 430.81,-907.7"/>
<polygon fill="black" stroke="black" points="432.58,-910.72 439.72,-902.9 429.26,-904.56 432.58,-910.72"/>
<text text-anchor="middle" x="422.5" y="-924.8" font-family="Times New Roman,serif" font-size="14.00"> 0 &#45;&gt; 1 </text>
</g>
<!-- CLONE_12 -->
<g id="node23" class="node">
<title>CLONE_12</title>
<polygon fill="none" stroke="black" stroke-dasharray="5,2" points="561,-1022 388,-1022 388,-954 561,-954 561,-1022"/>
<text text-anchor="middle" x="474.5" y="-1006.8" font-family="Times New Roman,serif" font-size="14.00">friendly_name: Constant_81</text>
<text text-anchor="middle" x="474.5" y="-991.8" font-family="Times New Roman,serif" font-size="14.00">type_name: Constant</text>
<text text-anchor="middle" x="474.5" y="-976.8" font-family="Times New Roman,serif" font-size="14.00">{f32}[]</text>
<text text-anchor="middle" x="474.5" y="-961.8" font-family="Times New Roman,serif" font-size="14.00">value: [1.27]</text>
</g>
<!-- CLONE_12&#45;&gt;FakeQuantize_84 -->
<g id="edge22" class="edge">
<title>CLONE_12&#45;&gt;FakeQuantize_84</title>
<path fill="none" stroke="black" d="M495.09,-953.86C502.83,-941.4 512,-926.65 521.23,-911.8"/>
<polygon fill="black" stroke="black" points="524.35,-913.4 526.66,-903.06 518.41,-909.71 524.35,-913.4"/>
<text text-anchor="middle" x="535.5" y="-924.8" font-family="Times New Roman,serif" font-size="14.00"> 0 &#45;&gt; 2 </text>
</g>
<!-- CLONE_13 -->
<g id="node24" class="node">
<title>CLONE_13</title>
<polygon fill="none" stroke="black" stroke-dasharray="5,2" points="752,-1022 579,-1022 579,-954 752,-954 752,-1022"/>
<text text-anchor="middle" x="665.5" y="-1006.8" font-family="Times New Roman,serif" font-size="14.00">friendly_name: Constant_82</text>
<text text-anchor="middle" x="665.5" y="-991.8" font-family="Times New Roman,serif" font-size="14.00">type_name: Constant</text>
<text text-anchor="middle" x="665.5" y="-976.8" font-family="Times New Roman,serif" font-size="14.00">{f32}[]</text>
<text text-anchor="middle" x="665.5" y="-961.8" font-family="Times New Roman,serif" font-size="14.00">value: [&#45;1.28]</text>
</g>
<!-- CLONE_13&#45;&gt;FakeQuantize_84 -->
<g id="edge23" class="edge">
<title>CLONE_13&#45;&gt;FakeQuantize_84</title>
<path fill="none" stroke="black" d="M645.12,-953.86C637.46,-941.4 628.39,-926.65 619.26,-911.8"/>
<polygon fill="black" stroke="black" points="622.11,-909.75 613.89,-903.06 616.14,-913.41 622.11,-909.75"/>
<text text-anchor="middle" x="653.5" y="-924.8" font-family="Times New Roman,serif" font-size="14.00"> 0 &#45;&gt; 3 </text>
</g>
<!-- CLONE_14 -->
<g id="node25" class="node">
<title>CLONE_14</title>
<polygon fill="none" stroke="black" stroke-dasharray="5,2" points="943,-1022 770,-1022 770,-954 943,-954 943,-1022"/>
<text text-anchor="middle" x="856.5" y="-1006.8" font-family="Times New Roman,serif" font-size="14.00">friendly_name: Constant_83</text>
<text text-anchor="middle" x="856.5" y="-991.8" font-family="Times New Roman,serif" font-size="14.00">type_name: Constant</text>
<text text-anchor="middle" x="856.5" y="-976.8" font-family="Times New Roman,serif" font-size="14.00">{f32}[]</text>
<text text-anchor="middle" x="856.5" y="-961.8" font-family="Times New Roman,serif" font-size="14.00">value: [1.27]</text>
</g>
<!-- CLONE_14&#45;&gt;FakeQuantize_84 -->
<g id="edge24" class="edge">
<title>CLONE_14&#45;&gt;FakeQuantize_84</title>
<path fill="none" stroke="black" d="M795.15,-953.86C770.05,-940.3 739.91,-924.01 709.97,-907.84"/>
<polygon fill="black" stroke="black" points="711.58,-904.73 701.12,-903.06 708.25,-910.89 711.58,-904.73"/>
<text text-anchor="middle" x="777.5" y="-924.8" font-family="Times New Roman,serif" font-size="14.00"> 0 &#45;&gt; 4 </text>
</g>
</g>
</svg>
