<?xml version="1.0" encoding="UTF-8" standalone="no"?>
<!DOCTYPE svg PUBLIC "-//W3C//DTD SVG 1.1//EN"
 "http://www.w3.org/Graphics/SVG/1.1/DTD/svg11.dtd">
<!-- Generated by graphviz version 2.43.20200408.0903 (20200408.0903)
 -->
<!-- Title: ngraph Pages: 1 -->
<svg width="1942pt" height="1358pt"
 viewBox="0.00 0.00 1941.50 1358.00" xmlns="http://www.w3.org/2000/svg" xmlns:xlink="http://www.w3.org/1999/xlink">
<g id="graph0" class="graph" transform="scale(1 1) rotate(0) translate(4 1354)">
<title>ngraph</title>
<polygon fill="white" stroke="transparent" points="-4,4 -4,-1354 1937.5,-1354 1937.5,4 -4,4"/>
<!-- Multiply_228 -->
<g id="node1" class="node">
<title>Multiply_228</title>
<polygon fill="none" stroke="black" points="1507.5,-247 1253.5,-247 1253.5,-134 1507.5,-134 1507.5,-247"/>
<text text-anchor="middle" x="1380.5" y="-231.8" font-family="Times New Roman,serif" font-size="14.00">friendly_name: Convolution_225</text>
<text text-anchor="middle" x="1380.5" y="-216.8" font-family="Times New Roman,serif" font-size="14.00">name: Multiply_228</text>
<text text-anchor="middle" x="1380.5" y="-201.8" font-family="Times New Roman,serif" font-size="14.00">type_name: Multiply</text>
<text text-anchor="middle" x="1380.5" y="-186.8" font-family="Times New Roman,serif" font-size="14.00">rt info: DEQUANTIZATION() </text>
<text text-anchor="middle" x="1380.5" y="-171.8" font-family="Times New Roman,serif" font-size="14.00">in0: {f32}[1,9,9,9]: Convolution_225: out0</text>
<text text-anchor="middle" x="1380.5" y="-156.8" font-family="Times New Roman,serif" font-size="14.00">in1: {f32}[1,9,1,1]: Constant_231: out0</text>
<text text-anchor="middle" x="1380.5" y="-141.8" font-family="Times New Roman,serif" font-size="14.00">out0: {f32}[1,9,9,9]</text>
</g>
<!-- Result_103 -->
<g id="node2" class="node">
<title>Result_103</title>
<polygon fill="none" stroke="crimson" stroke-width="1.5" points="1526.5,-83 1234.5,-83 1234.5,0 1526.5,0 1526.5,-83"/>
<text text-anchor="middle" x="1380.5" y="-67.8" font-family="Times New Roman,serif" font-size="14.00">friendly_name: Result_103</text>
<text text-anchor="middle" x="1380.5" y="-52.8" font-family="Times New Roman,serif" font-size="14.00">type_name: Result</text>
<text text-anchor="middle" x="1380.5" y="-37.8" font-family="Times New Roman,serif" font-size="14.00">rt info: PRECISION_PRESERVED(value: false) </text>
<text text-anchor="middle" x="1380.5" y="-22.8" font-family="Times New Roman,serif" font-size="14.00">in0: {f32}[1,9,9,9]: Multiply_228: out0</text>
<text text-anchor="middle" x="1380.5" y="-7.8" font-family="Times New Roman,serif" font-size="14.00">out0: {f32}[1,9,9,9]</text>
</g>
<!-- Multiply_228&#45;&gt;Result_103 -->
<g id="edge1" class="edge">
<title>Multiply_228&#45;&gt;Result_103</title>
<path fill="none" stroke="black" d="M1380.5,-133.93C1380.5,-120.58 1380.5,-106.4 1380.5,-93.28"/>
<polygon fill="black" stroke="black" points="1384,-93.03 1380.5,-83.03 1377,-93.03 1384,-93.03"/>
<text text-anchor="middle" x="1401.5" y="-104.8" font-family="Times New Roman,serif" font-size="14.00"> 0 &#45;&gt; 0 </text>
</g>
<!-- Convolution_225 -->
<g id="node3" class="node">
<title>Convolution_225</title>
<polygon fill="none" stroke="black" points="1331,-396 1084,-396 1084,-298 1331,-298 1331,-396"/>
<text text-anchor="middle" x="1207.5" y="-380.8" font-family="Times New Roman,serif" font-size="14.00">friendly_name: Convolution_225_original</text>
<text text-anchor="middle" x="1207.5" y="-365.8" font-family="Times New Roman,serif" font-size="14.00">name: Convolution_225</text>
<text text-anchor="middle" x="1207.5" y="-350.8" font-family="Times New Roman,serif" font-size="14.00">type_name: Convolution</text>
<text text-anchor="middle" x="1207.5" y="-335.8" font-family="Times New Roman,serif" font-size="14.00">in0: {f32}[1,6,9,9]: Subtract_200: out0</text>
<text text-anchor="middle" x="1207.5" y="-320.8" font-family="Times New Roman,serif" font-size="14.00">in1: {i8}[9,6,1,1]: Constant_213: out0</text>
<text text-anchor="middle" x="1207.5" y="-305.8" font-family="Times New Roman,serif" font-size="14.00">out0: {f32}[1,9,9,9]</text>
</g>
<!-- Convolution_225&#45;&gt;Multiply_228 -->
<g id="edge2" class="edge">
<title>Convolution_225&#45;&gt;Multiply_228</title>
<path fill="none" stroke="black" d="M1261.29,-297.96C1276.94,-283.98 1294.28,-268.5 1310.76,-253.78"/>
<polygon fill="black" stroke="black" points="1313.14,-256.35 1318.27,-247.08 1308.48,-251.13 1313.14,-256.35"/>
<text text-anchor="middle" x="1315.5" y="-268.8" font-family="Times New Roman,serif" font-size="14.00"> 0 &#45;&gt; 0 </text>
</g>
<!-- CLONE_0 -->
<g id="node4" class="node">
<title>CLONE_0</title>
<polygon fill="none" stroke="black" stroke-dasharray="5,2" points="1758,-388.5 1349,-388.5 1349,-305.5 1758,-305.5 1758,-388.5"/>
<text text-anchor="middle" x="1553.5" y="-373.3" font-family="Times New Roman,serif" font-size="14.00">friendly_name: Constant_231</text>
<text text-anchor="middle" x="1553.5" y="-358.3" font-family="Times New Roman,serif" font-size="14.00">type_name: Constant</text>
<text text-anchor="middle" x="1553.5" y="-343.3" font-family="Times New Roman,serif" font-size="14.00">{f32}[1,9,1,1]</text>
<text text-anchor="middle" x="1553.5" y="-328.3" font-family="Times New Roman,serif" font-size="14.00">value: [0.0001, 0.0001, 0.0001, 0.0001, 0.0001, 0.0001, 0.0001, 0.0001</text>
<text text-anchor="middle" x="1553.5" y="-313.3" font-family="Times New Roman,serif" font-size="14.00">, 0.0001]</text>
</g>
<!-- CLONE_0&#45;&gt;Multiply_228 -->
<g id="edge3" class="edge">
<title>CLONE_0&#45;&gt;Multiply_228</title>
<path fill="none" stroke="black" d="M1508.05,-305.41C1490.46,-289.7 1469.92,-271.36 1450.54,-254.05"/>
<polygon fill="black" stroke="black" points="1452.67,-251.26 1442.88,-247.21 1448.01,-256.48 1452.67,-251.26"/>
<text text-anchor="middle" x="1498.5" y="-268.8" font-family="Times New Roman,serif" font-size="14.00"> 0 &#45;&gt; 1 </text>
</g>
<!-- Subtract_200 -->
<g id="node5" class="node">
<title>Subtract_200</title>
<polygon fill="none" stroke="black" points="1238.5,-575 808.5,-575 808.5,-447 1238.5,-447 1238.5,-575"/>
<text text-anchor="middle" x="1023.5" y="-559.8" font-family="Times New Roman,serif" font-size="14.00">friendly_name: Subtract_181</text>
<text text-anchor="middle" x="1023.5" y="-544.8" font-family="Times New Roman,serif" font-size="14.00">name: Subtract_200</text>
<text text-anchor="middle" x="1023.5" y="-529.8" font-family="Times New Roman,serif" font-size="14.00">type_name: Subtract</text>
<text text-anchor="middle" x="1023.5" y="-514.8" font-family="Times New Roman,serif" font-size="14.00">rt info: PRECISION_PRESERVED(value: true, operation: FakeQuantize) </text>
<text text-anchor="middle" x="1023.5" y="-499.8" font-family="Times New Roman,serif" font-size="14.00">QUANTIZATION_ALIGMENT(low: &#45;1.280000, high: 1.270000) </text>
<text text-anchor="middle" x="1023.5" y="-484.8" font-family="Times New Roman,serif" font-size="14.00">in0: {u8}[1,6,9,9]: Concat_187: out0</text>
<text text-anchor="middle" x="1023.5" y="-469.8" font-family="Times New Roman,serif" font-size="14.00">in1: {u8}[1,6,1,1]: Constant_199: out0</text>
<text text-anchor="middle" x="1023.5" y="-454.8" font-family="Times New Roman,serif" font-size="14.00">out0: {f32}[1,6,9,9]</text>
</g>
<!-- Subtract_200&#45;&gt;Convolution_225 -->
<g id="edge4" class="edge">
<title>Subtract_200&#45;&gt;Convolution_225</title>
<path fill="none" stroke="black" d="M1095.17,-446.9C1111.64,-432.4 1129.03,-417.08 1145.08,-402.95"/>
<polygon fill="black" stroke="black" points="1147.65,-405.36 1152.84,-396.12 1143.02,-400.1 1147.65,-405.36"/>
<text text-anchor="middle" x="1153.5" y="-417.8" font-family="Times New Roman,serif" font-size="14.00"> 0 &#45;&gt; 0 </text>
</g>
<!-- CLONE_1 -->
<g id="node6" class="node">
<title>CLONE_1</title>
<polygon fill="none" stroke="black" stroke-dasharray="5,2" points="1528,-567.5 1257,-567.5 1257,-454.5 1528,-454.5 1528,-567.5"/>
<text text-anchor="middle" x="1392.5" y="-552.3" font-family="Times New Roman,serif" font-size="14.00">friendly_name: Constant_213</text>
<text text-anchor="middle" x="1392.5" y="-537.3" font-family="Times New Roman,serif" font-size="14.00">type_name: Constant</text>
<text text-anchor="middle" x="1392.5" y="-522.3" font-family="Times New Roman,serif" font-size="14.00">{i8}[9,6,1,1]</text>
<text text-anchor="middle" x="1392.5" y="-507.3" font-family="Times New Roman,serif" font-size="14.00">value: [127, 127, 127, 127, 127, 127, 127, 127</text>
<text text-anchor="middle" x="1392.5" y="-492.3" font-family="Times New Roman,serif" font-size="14.00">, 127, 127, 127, 127, 127, 127, 127, 127</text>
<text text-anchor="middle" x="1392.5" y="-477.3" font-family="Times New Roman,serif" font-size="14.00">, 127, 127, 127, 127, 127, 127, 127, 127</text>
<text text-anchor="middle" x="1392.5" y="-462.3" font-family="Times New Roman,serif" font-size="14.00">, 127, 127, 127, 127, 127, 127, 127, 127...]</text>
</g>
<!-- CLONE_1&#45;&gt;Convolution_225 -->
<g id="edge5" class="edge">
<title>CLONE_1&#45;&gt;Convolution_225</title>
<path fill="none" stroke="black" d="M1329.09,-454.48C1310.06,-437.81 1289.2,-419.55 1270.22,-402.92"/>
<polygon fill="black" stroke="black" points="1272.32,-400.11 1262.49,-396.15 1267.71,-405.37 1272.32,-400.11"/>
<text text-anchor="middle" x="1321.5" y="-417.8" font-family="Times New Roman,serif" font-size="14.00"> 0 &#45;&gt; 1 </text>
</g>
<!-- Concat_187 -->
<g id="node7" class="node">
<title>Concat_187</title>
<polygon fill="none" stroke="black" points="1017,-709 786,-709 786,-626 1017,-626 1017,-709"/>
<text text-anchor="middle" x="901.5" y="-693.8" font-family="Times New Roman,serif" font-size="14.00">friendly_name: Concat_187</text>
<text text-anchor="middle" x="901.5" y="-678.8" font-family="Times New Roman,serif" font-size="14.00">type_name: Concat</text>
<text text-anchor="middle" x="901.5" y="-663.8" font-family="Times New Roman,serif" font-size="14.00">in0: {u8}[1,3,9,9]: MaxPool_143: out0</text>
<text text-anchor="middle" x="901.5" y="-648.8" font-family="Times New Roman,serif" font-size="14.00">in1: {u8}[1,3,9,9]: MaxPool_148: out0</text>
<text text-anchor="middle" x="901.5" y="-633.8" font-family="Times New Roman,serif" font-size="14.00">out0: {u8}[1,6,9,9]</text>
</g>
<!-- Concat_187&#45;&gt;Subtract_200 -->
<g id="edge6" class="edge">
<title>Concat_187&#45;&gt;Subtract_200</title>
<path fill="none" stroke="black" d="M933.55,-625.91C943.92,-612.78 955.74,-597.82 967.32,-583.15"/>
<polygon fill="black" stroke="black" points="970.27,-585.06 973.72,-575.04 964.77,-580.72 970.27,-585.06"/>
<text text-anchor="middle" x="980.5" y="-596.8" font-family="Times New Roman,serif" font-size="14.00"> 0 &#45;&gt; 0 </text>
</g>
<!-- CLONE_2 -->
<g id="node8" class="node">
<title>CLONE_2</title>
<polygon fill="none" stroke="black" stroke-dasharray="5,2" points="1255.5,-701.5 1035.5,-701.5 1035.5,-633.5 1255.5,-633.5 1255.5,-701.5"/>
<text text-anchor="middle" x="1145.5" y="-686.3" font-family="Times New Roman,serif" font-size="14.00">friendly_name: Constant_199</text>
<text text-anchor="middle" x="1145.5" y="-671.3" font-family="Times New Roman,serif" font-size="14.00">type_name: Constant</text>
<text text-anchor="middle" x="1145.5" y="-656.3" font-family="Times New Roman,serif" font-size="14.00">{u8}[1,6,1,1]</text>
<text text-anchor="middle" x="1145.5" y="-641.3" font-family="Times New Roman,serif" font-size="14.00">value: [128, 128, 128, 128, 128, 128]</text>
</g>
<!-- CLONE_2&#45;&gt;Subtract_200 -->
<g id="edge7" class="edge">
<title>CLONE_2&#45;&gt;Subtract_200</title>
<path fill="none" stroke="black" d="M1119.33,-633.36C1107.67,-618.59 1093.46,-600.6 1079.59,-583.03"/>
<polygon fill="black" stroke="black" points="1082.2,-580.69 1073.25,-575.01 1076.7,-585.03 1082.2,-580.69"/>
<text text-anchor="middle" x="1120.5" y="-596.8" font-family="Times New Roman,serif" font-size="14.00"> 0 &#45;&gt; 1 </text>
</g>
<!-- MaxPool_143 -->
<g id="node9" class="node">
<title>MaxPool_143</title>
<polygon fill="none" stroke="black" points="893.5,-873 463.5,-873 463.5,-760 893.5,-760 893.5,-873"/>
<text text-anchor="middle" x="678.5" y="-857.8" font-family="Times New Roman,serif" font-size="14.00">friendly_name: maxPool1</text>
<text text-anchor="middle" x="678.5" y="-842.8" font-family="Times New Roman,serif" font-size="14.00">name: MaxPool_143</text>
<text text-anchor="middle" x="678.5" y="-827.8" font-family="Times New Roman,serif" font-size="14.00">type_name: MaxPool</text>
<text text-anchor="middle" x="678.5" y="-812.8" font-family="Times New Roman,serif" font-size="14.00">rt info: PRECISION_PRESERVED(value: true, operation: FakeQuantize) </text>
<text text-anchor="middle" x="678.5" y="-797.8" font-family="Times New Roman,serif" font-size="14.00">QUANTIZATION_ALIGMENT(low: &#45;1.280000, high: 1.270000) </text>
<text text-anchor="middle" x="678.5" y="-782.8" font-family="Times New Roman,serif" font-size="14.00">in0: {u8}[1,3,9,9]: AvgPool_133: out0</text>
<text text-anchor="middle" x="678.5" y="-767.8" font-family="Times New Roman,serif" font-size="14.00">out0: {u8}[1,3,9,9]</text>
</g>
<!-- MaxPool_143&#45;&gt;Concat_187 -->
<g id="edge8" class="edge">
<title>MaxPool_143&#45;&gt;Concat_187</title>
<path fill="none" stroke="black" d="M762.81,-759.93C785.45,-745 809.7,-729.02 831.48,-714.66"/>
<polygon fill="black" stroke="black" points="833.59,-717.46 840.01,-709.03 829.74,-711.61 833.59,-717.46"/>
<text text-anchor="middle" x="831.5" y="-730.8" font-family="Times New Roman,serif" font-size="14.00"> 0 &#45;&gt; 0 </text>
</g>
<!-- MaxPool_148 -->
<g id="node10" class="node">
<title>MaxPool_148</title>
<polygon fill="none" stroke="black" points="1374.5,-873 944.5,-873 944.5,-760 1374.5,-760 1374.5,-873"/>
<text text-anchor="middle" x="1159.5" y="-857.8" font-family="Times New Roman,serif" font-size="14.00">friendly_name: maxPool2</text>
<text text-anchor="middle" x="1159.5" y="-842.8" font-family="Times New Roman,serif" font-size="14.00">name: MaxPool_148</text>
<text text-anchor="middle" x="1159.5" y="-827.8" font-family="Times New Roman,serif" font-size="14.00">type_name: MaxPool</text>
<text text-anchor="middle" x="1159.5" y="-812.8" font-family="Times New Roman,serif" font-size="14.00">rt info: PRECISION_PRESERVED(value: true, operation: FakeQuantize) </text>
<text text-anchor="middle" x="1159.5" y="-797.8" font-family="Times New Roman,serif" font-size="14.00">QUANTIZATION_ALIGMENT(low: &#45;1.280000, high: 1.270000) </text>
<text text-anchor="middle" x="1159.5" y="-782.8" font-family="Times New Roman,serif" font-size="14.00">in0: {u8}[1,3,9,9]: AvgPool_138: out0</text>
<text text-anchor="middle" x="1159.5" y="-767.8" font-family="Times New Roman,serif" font-size="14.00">out0: {u8}[1,3,9,9]</text>
</g>
<!-- MaxPool_148&#45;&gt;Concat_187 -->
<g id="edge9" class="edge">
<title>MaxPool_148&#45;&gt;Concat_187</title>
<path fill="none" stroke="black" d="M1061.96,-759.93C1035.41,-744.8 1006.97,-728.59 981.51,-714.09"/>
<polygon fill="black" stroke="black" points="983.06,-710.94 972.64,-709.03 979.6,-717.02 983.06,-710.94"/>
<text text-anchor="middle" x="1051.5" y="-730.8" font-family="Times New Roman,serif" font-size="14.00"> 0 &#45;&gt; 1 </text>
</g>
<!-- AvgPool_138 -->
<g id="node11" class="node">
<title>AvgPool_138</title>
<polygon fill="none" stroke="black" points="1407.5,-1037 977.5,-1037 977.5,-924 1407.5,-924 1407.5,-1037"/>
<text text-anchor="middle" x="1192.5" y="-1021.8" font-family="Times New Roman,serif" font-size="14.00">friendly_name: avgPool2</text>
<text text-anchor="middle" x="1192.5" y="-1006.8" font-family="Times New Roman,serif" font-size="14.00">name: AvgPool_138</text>
<text text-anchor="middle" x="1192.5" y="-991.8" font-family="Times New Roman,serif" font-size="14.00">type_name: AvgPool</text>
<text text-anchor="middle" x="1192.5" y="-976.8" font-family="Times New Roman,serif" font-size="14.00">rt info: PRECISION_PRESERVED(value: true, operation: FakeQuantize) </text>
<text text-anchor="middle" x="1192.5" y="-961.8" font-family="Times New Roman,serif" font-size="14.00">QUANTIZATION_ALIGMENT(low: &#45;1.280000, high: 1.270000) </text>
<text text-anchor="middle" x="1192.5" y="-946.8" font-family="Times New Roman,serif" font-size="14.00">in0: {u8}[1,3,9,9]: FakeQuantize_126: out0</text>
<text text-anchor="middle" x="1192.5" y="-931.8" font-family="Times New Roman,serif" font-size="14.00">out0: {u8}[1,3,9,9]</text>
</g>
<!-- AvgPool_138&#45;&gt;MaxPool_148 -->
<g id="edge10" class="edge">
<title>AvgPool_138&#45;&gt;MaxPool_148</title>
<path fill="none" stroke="black" d="M1181.14,-923.75C1178.48,-910.69 1175.63,-896.67 1172.89,-883.22"/>
<polygon fill="black" stroke="black" points="1176.25,-882.18 1170.82,-873.08 1169.39,-883.58 1176.25,-882.18"/>
<text text-anchor="middle" x="1198.5" y="-894.8" font-family="Times New Roman,serif" font-size="14.00"> 0 &#45;&gt; 0 </text>
</g>
<!-- FakeQuantize_126 -->
<g id="node12" class="node">
<title>FakeQuantize_126</title>
<polygon fill="none" stroke="black" points="1485,-1231 1224,-1231 1224,-1088 1485,-1088 1485,-1231"/>
<text text-anchor="middle" x="1354.5" y="-1215.8" font-family="Times New Roman,serif" font-size="14.00">friendly_name: fakeQuantizeOnActivations2</text>
<text text-anchor="middle" x="1354.5" y="-1200.8" font-family="Times New Roman,serif" font-size="14.00">name: FakeQuantize_126</text>
<text text-anchor="middle" x="1354.5" y="-1185.8" font-family="Times New Roman,serif" font-size="14.00">type_name: FakeQuantize</text>
<text text-anchor="middle" x="1354.5" y="-1170.8" font-family="Times New Roman,serif" font-size="14.00">in0: {f32}[1,3,9,9]: Parameter_79: out0</text>
<text text-anchor="middle" x="1354.5" y="-1155.8" font-family="Times New Roman,serif" font-size="14.00">in1: {f32}[]: Constant_88: out0</text>
<text text-anchor="middle" x="1354.5" y="-1140.8" font-family="Times New Roman,serif" font-size="14.00">in2: {f32}[]: Constant_89: out0</text>
<text text-anchor="middle" x="1354.5" y="-1125.8" font-family="Times New Roman,serif" font-size="14.00">in3: {f32}[]: Constant_124: out0</text>
<text text-anchor="middle" x="1354.5" y="-1110.8" font-family="Times New Roman,serif" font-size="14.00">in4: {f32}[]: Constant_125: out0</text>
<text text-anchor="middle" x="1354.5" y="-1095.8" font-family="Times New Roman,serif" font-size="14.00">out0: {u8}[1,3,9,9]</text>
</g>
<!-- FakeQuantize_126&#45;&gt;AvgPool_138 -->
<g id="edge11" class="edge">
<title>FakeQuantize_126&#45;&gt;AvgPool_138</title>
<path fill="none" stroke="black" d="M1289.77,-1087.78C1276.76,-1073.56 1263.16,-1058.71 1250.4,-1044.76"/>
<polygon fill="black" stroke="black" points="1252.74,-1042.13 1243.41,-1037.12 1247.58,-1046.86 1252.74,-1042.13"/>
<text text-anchor="middle" x="1294.5" y="-1058.8" font-family="Times New Roman,serif" font-size="14.00"> 0 &#45;&gt; 0 </text>
</g>
<!-- CLONE_3 -->
<g id="node13" class="node">
<title>CLONE_3</title>
<polygon fill="none" stroke="blue" stroke-dasharray="5,2" points="1155,-1342.5 976,-1342.5 976,-1289.5 1155,-1289.5 1155,-1342.5"/>
<text text-anchor="middle" x="1065.5" y="-1327.3" font-family="Times New Roman,serif" font-size="14.00">friendly_name: Parameter_79</text>
<text text-anchor="middle" x="1065.5" y="-1312.3" font-family="Times New Roman,serif" font-size="14.00">type_name: Parameter</text>
<text text-anchor="middle" x="1065.5" y="-1297.3" font-family="Times New Roman,serif" font-size="14.00">{f32}[1,3,9,9]</text>
</g>
<!-- CLONE_3&#45;&gt;FakeQuantize_126 -->
<g id="edge12" class="edge">
<title>CLONE_3&#45;&gt;FakeQuantize_126</title>
<path fill="none" stroke="black" d="M1113.22,-1289.49C1141.16,-1274.55 1178.02,-1254.85 1214.5,-1235.34"/>
<polygon fill="black" stroke="black" points="1216.59,-1238.2 1223.76,-1230.39 1213.29,-1232.02 1216.59,-1238.2"/>
<text text-anchor="middle" x="1205.5" y="-1252.8" font-family="Times New Roman,serif" font-size="14.00"> 0 &#45;&gt; 0 </text>
</g>
<!-- CLONE_4 -->
<g id="node14" class="node">
<title>CLONE_4</title>
<polygon fill="none" stroke="black" stroke-dasharray="5,2" points="1346,-1350 1173,-1350 1173,-1282 1346,-1282 1346,-1350"/>
<text text-anchor="middle" x="1259.5" y="-1334.8" font-family="Times New Roman,serif" font-size="14.00">friendly_name: Constant_88</text>
<text text-anchor="middle" x="1259.5" y="-1319.8" font-family="Times New Roman,serif" font-size="14.00">type_name: Constant</text>
<text text-anchor="middle" x="1259.5" y="-1304.8" font-family="Times New Roman,serif" font-size="14.00">{f32}[]</text>
<text text-anchor="middle" x="1259.5" y="-1289.8" font-family="Times New Roman,serif" font-size="14.00">value: [&#45;0.64]</text>
</g>
<!-- CLONE_4&#45;&gt;FakeQuantize_126 -->
<g id="edge13" class="edge">
<title>CLONE_4&#45;&gt;FakeQuantize_126</title>
<path fill="none" stroke="black" d="M1279.88,-1281.86C1287.54,-1269.4 1296.61,-1254.65 1305.74,-1239.8"/>
<polygon fill="black" stroke="black" points="1308.86,-1241.41 1311.11,-1231.06 1302.89,-1237.75 1308.86,-1241.41"/>
<text text-anchor="middle" x="1319.5" y="-1252.8" font-family="Times New Roman,serif" font-size="14.00"> 0 &#45;&gt; 1 </text>
</g>
<!-- CLONE_5 -->
<g id="node15" class="node">
<title>CLONE_5</title>
<polygon fill="none" stroke="black" stroke-dasharray="5,2" points="1537,-1350 1364,-1350 1364,-1282 1537,-1282 1537,-1350"/>
<text text-anchor="middle" x="1450.5" y="-1334.8" font-family="Times New Roman,serif" font-size="14.00">friendly_name: Constant_89</text>
<text text-anchor="middle" x="1450.5" y="-1319.8" font-family="Times New Roman,serif" font-size="14.00">type_name: Constant</text>
<text text-anchor="middle" x="1450.5" y="-1304.8" font-family="Times New Roman,serif" font-size="14.00">{f32}[]</text>
<text text-anchor="middle" x="1450.5" y="-1289.8" font-family="Times New Roman,serif" font-size="14.00">value: [0.635]</text>
</g>
<!-- CLONE_5&#45;&gt;FakeQuantize_126 -->
<g id="edge14" class="edge">
<title>CLONE_5&#45;&gt;FakeQuantize_126</title>
<path fill="none" stroke="black" d="M1429.91,-1281.86C1422.17,-1269.4 1413,-1254.65 1403.77,-1239.8"/>
<polygon fill="black" stroke="black" points="1406.59,-1237.71 1398.34,-1231.06 1400.65,-1241.4 1406.59,-1237.71"/>
<text text-anchor="middle" x="1438.5" y="-1252.8" font-family="Times New Roman,serif" font-size="14.00"> 0 &#45;&gt; 2 </text>
</g>
<!-- CLONE_6 -->
<g id="node16" class="node">
<title>CLONE_6</title>
<polygon fill="none" stroke="black" stroke-dasharray="5,2" points="1735.5,-1350 1555.5,-1350 1555.5,-1282 1735.5,-1282 1735.5,-1350"/>
<text text-anchor="middle" x="1645.5" y="-1334.8" font-family="Times New Roman,serif" font-size="14.00">friendly_name: Constant_124</text>
<text text-anchor="middle" x="1645.5" y="-1319.8" font-family="Times New Roman,serif" font-size="14.00">type_name: Constant</text>
<text text-anchor="middle" x="1645.5" y="-1304.8" font-family="Times New Roman,serif" font-size="14.00">{f32}[]</text>
<text text-anchor="middle" x="1645.5" y="-1289.8" font-family="Times New Roman,serif" font-size="14.00">value: [64]</text>
</g>
<!-- CLONE_6&#45;&gt;FakeQuantize_126 -->
<g id="edge15" class="edge">
<title>CLONE_6&#45;&gt;FakeQuantize_126</title>
<path fill="none" stroke="black" d="M1583.07,-1281.86C1556.93,-1267.98 1525.4,-1251.24 1494.23,-1234.69"/>
<polygon fill="black" stroke="black" points="1495.49,-1231.39 1485.02,-1229.8 1492.21,-1237.58 1495.49,-1231.39"/>
<text text-anchor="middle" x="1563.5" y="-1252.8" font-family="Times New Roman,serif" font-size="14.00"> 0 &#45;&gt; 3 </text>
</g>
<!-- CLONE_7 -->
<g id="node17" class="node">
<title>CLONE_7</title>
<polygon fill="none" stroke="black" stroke-dasharray="5,2" points="1933.5,-1350 1753.5,-1350 1753.5,-1282 1933.5,-1282 1933.5,-1350"/>
<text text-anchor="middle" x="1843.5" y="-1334.8" font-family="Times New Roman,serif" font-size="14.00">friendly_name: Constant_125</text>
<text text-anchor="middle" x="1843.5" y="-1319.8" font-family="Times New Roman,serif" font-size="14.00">type_name: Constant</text>
<text text-anchor="middle" x="1843.5" y="-1304.8" font-family="Times New Roman,serif" font-size="14.00">{f32}[]</text>
<text text-anchor="middle" x="1843.5" y="-1289.8" font-family="Times New Roman,serif" font-size="14.00">value: [192]</text>
</g>
<!-- CLONE_7&#45;&gt;FakeQuantize_126 -->
<g id="edge16" class="edge">
<title>CLONE_7&#45;&gt;FakeQuantize_126</title>
<path fill="none" stroke="black" d="M1753.42,-1284.89C1750.41,-1283.91 1747.43,-1282.95 1744.5,-1282 1661.98,-1255.39 1569.33,-1226.49 1495.04,-1203.55"/>
<polygon fill="black" stroke="black" points="1495.74,-1200.1 1485.15,-1200.5 1493.67,-1206.79 1495.74,-1200.1"/>
<text text-anchor="middle" x="1701.5" y="-1252.8" font-family="Times New Roman,serif" font-size="14.00"> 0 &#45;&gt; 4 </text>
</g>
<!-- AvgPool_133 -->
<g id="node18" class="node">
<title>AvgPool_133</title>
<polygon fill="none" stroke="black" points="893.5,-1037 463.5,-1037 463.5,-924 893.5,-924 893.5,-1037"/>
<text text-anchor="middle" x="678.5" y="-1021.8" font-family="Times New Roman,serif" font-size="14.00">friendly_name: avgPool1</text>
<text text-anchor="middle" x="678.5" y="-1006.8" font-family="Times New Roman,serif" font-size="14.00">name: AvgPool_133</text>
<text text-anchor="middle" x="678.5" y="-991.8" font-family="Times New Roman,serif" font-size="14.00">type_name: AvgPool</text>
<text text-anchor="middle" x="678.5" y="-976.8" font-family="Times New Roman,serif" font-size="14.00">rt info: PRECISION_PRESERVED(value: true, operation: FakeQuantize) </text>
<text text-anchor="middle" x="678.5" y="-961.8" font-family="Times New Roman,serif" font-size="14.00">QUANTIZATION_ALIGMENT(low: &#45;1.280000, high: 1.270000) </text>
<text text-anchor="middle" x="678.5" y="-946.8" font-family="Times New Roman,serif" font-size="14.00">in0: {u8}[1,3,9,9]: FakeQuantize_117: out0</text>
<text text-anchor="middle" x="678.5" y="-931.8" font-family="Times New Roman,serif" font-size="14.00">out0: {u8}[1,3,9,9]</text>
</g>
<!-- AvgPool_133&#45;&gt;MaxPool_143 -->
<g id="edge17" class="edge">
<title>AvgPool_133&#45;&gt;MaxPool_143</title>
<path fill="none" stroke="black" d="M678.5,-923.75C678.5,-910.69 678.5,-896.67 678.5,-883.22"/>
<polygon fill="black" stroke="black" points="682,-883.08 678.5,-873.08 675,-883.08 682,-883.08"/>
<text text-anchor="middle" x="699.5" y="-894.8" font-family="Times New Roman,serif" font-size="14.00"> 0 &#45;&gt; 0 </text>
</g>
<!-- FakeQuantize_117 -->
<g id="node19" class="node">
<title>FakeQuantize_117</title>
<polygon fill="none" stroke="black" points="703,-1231 442,-1231 442,-1088 703,-1088 703,-1231"/>
<text text-anchor="middle" x="572.5" y="-1215.8" font-family="Times New Roman,serif" font-size="14.00">friendly_name: fakeQuantizeOnActivations1</text>
<text text-anchor="middle" x="572.5" y="-1200.8" font-family="Times New Roman,serif" font-size="14.00">name: FakeQuantize_117</text>
<text text-anchor="middle" x="572.5" y="-1185.8" font-family="Times New Roman,serif" font-size="14.00">type_name: FakeQuantize</text>
<text text-anchor="middle" x="572.5" y="-1170.8" font-family="Times New Roman,serif" font-size="14.00">in0: {f32}[1,3,9,9]: Parameter_79: out0</text>
<text text-anchor="middle" x="572.5" y="-1155.8" font-family="Times New Roman,serif" font-size="14.00">in1: {f32}[]: Constant_80: out0</text>
<text text-anchor="middle" x="572.5" y="-1140.8" font-family="Times New Roman,serif" font-size="14.00">in2: {f32}[]: Constant_81: out0</text>
<text text-anchor="middle" x="572.5" y="-1125.8" font-family="Times New Roman,serif" font-size="14.00">in3: {f32}[]: Constant_115: out0</text>
<text text-anchor="middle" x="572.5" y="-1110.8" font-family="Times New Roman,serif" font-size="14.00">in4: {f32}[]: Constant_116: out0</text>
<text text-anchor="middle" x="572.5" y="-1095.8" font-family="Times New Roman,serif" font-size="14.00">out0: {u8}[1,3,9,9]</text>
</g>
<!-- FakeQuantize_117&#45;&gt;AvgPool_133 -->
<g id="edge18" class="edge">
<title>FakeQuantize_117&#45;&gt;AvgPool_133</title>
<path fill="none" stroke="black" d="M614.85,-1087.78C623.13,-1073.96 631.77,-1059.53 639.92,-1045.93"/>
<polygon fill="black" stroke="black" points="643.06,-1047.5 645.19,-1037.12 637.05,-1043.9 643.06,-1047.5"/>
<text text-anchor="middle" x="653.5" y="-1058.8" font-family="Times New Roman,serif" font-size="14.00"> 0 &#45;&gt; 0 </text>
</g>
<!-- CLONE_8 -->
<g id="node20" class="node">
<title>CLONE_8</title>
<polygon fill="none" stroke="blue" stroke-dasharray="5,2" points="179,-1342.5 0,-1342.5 0,-1289.5 179,-1289.5 179,-1342.5"/>
<text text-anchor="middle" x="89.5" y="-1327.3" font-family="Times New Roman,serif" font-size="14.00">friendly_name: Parameter_79</text>
<text text-anchor="middle" x="89.5" y="-1312.3" font-family="Times New Roman,serif" font-size="14.00">type_name: Parameter</text>
<text text-anchor="middle" x="89.5" y="-1297.3" font-family="Times New Roman,serif" font-size="14.00">{f32}[1,3,9,9]</text>
</g>
<!-- CLONE_8&#45;&gt;FakeQuantize_117 -->
<g id="edge19" class="edge">
<title>CLONE_8&#45;&gt;FakeQuantize_117</title>
<path fill="none" stroke="black" d="M164.89,-1289.45C172.52,-1286.91 180.16,-1284.39 187.5,-1282 268.33,-1255.64 359,-1226.98 432.04,-1204.12"/>
<polygon fill="black" stroke="black" points="433.27,-1207.4 441.77,-1201.08 431.18,-1200.72 433.27,-1207.4"/>
<text text-anchor="middle" x="303.5" y="-1252.8" font-family="Times New Roman,serif" font-size="14.00"> 0 &#45;&gt; 0 </text>
</g>
<!-- CLONE_9 -->
<g id="node21" class="node">
<title>CLONE_9</title>
<polygon fill="none" stroke="black" stroke-dasharray="5,2" points="370,-1350 197,-1350 197,-1282 370,-1282 370,-1350"/>
<text text-anchor="middle" x="283.5" y="-1334.8" font-family="Times New Roman,serif" font-size="14.00">friendly_name: Constant_80</text>
<text text-anchor="middle" x="283.5" y="-1319.8" font-family="Times New Roman,serif" font-size="14.00">type_name: Constant</text>
<text text-anchor="middle" x="283.5" y="-1304.8" font-family="Times New Roman,serif" font-size="14.00">{f32}[]</text>
<text text-anchor="middle" x="283.5" y="-1289.8" font-family="Times New Roman,serif" font-size="14.00">value: [&#45;1.28]</text>
</g>
<!-- CLONE_9&#45;&gt;FakeQuantize_117 -->
<g id="edge20" class="edge">
<title>CLONE_9&#45;&gt;FakeQuantize_117</title>
<path fill="none" stroke="black" d="M345.5,-1281.86C371.24,-1268.1 402.22,-1251.53 432.92,-1235.12"/>
<polygon fill="black" stroke="black" points="434.82,-1238.07 441.99,-1230.27 431.52,-1231.9 434.82,-1238.07"/>
<text text-anchor="middle" x="423.5" y="-1252.8" font-family="Times New Roman,serif" font-size="14.00"> 0 &#45;&gt; 1 </text>
</g>
<!-- CLONE_10 -->
<g id="node22" class="node">
<title>CLONE_10</title>
<polygon fill="none" stroke="black" stroke-dasharray="5,2" points="561,-1350 388,-1350 388,-1282 561,-1282 561,-1350"/>
<text text-anchor="middle" x="474.5" y="-1334.8" font-family="Times New Roman,serif" font-size="14.00">friendly_name: Constant_81</text>
<text text-anchor="middle" x="474.5" y="-1319.8" font-family="Times New Roman,serif" font-size="14.00">type_name: Constant</text>
<text text-anchor="middle" x="474.5" y="-1304.8" font-family="Times New Roman,serif" font-size="14.00">{f32}[]</text>
<text text-anchor="middle" x="474.5" y="-1289.8" font-family="Times New Roman,serif" font-size="14.00">value: [1.27]</text>
</g>
<!-- CLONE_10&#45;&gt;FakeQuantize_117 -->
<g id="edge21" class="edge">
<title>CLONE_10&#45;&gt;FakeQuantize_117</title>
<path fill="none" stroke="black" d="M495.52,-1281.86C503.42,-1269.4 512.78,-1254.65 522.2,-1239.8"/>
<polygon fill="black" stroke="black" points="525.34,-1241.38 527.74,-1231.06 519.43,-1237.63 525.34,-1241.38"/>
<text text-anchor="middle" x="536.5" y="-1252.8" font-family="Times New Roman,serif" font-size="14.00"> 0 &#45;&gt; 2 </text>
</g>
<!-- CLONE_11 -->
<g id="node23" class="node">
<title>CLONE_11</title>
<polygon fill="none" stroke="black" stroke-dasharray="5,2" points="759.5,-1350 579.5,-1350 579.5,-1282 759.5,-1282 759.5,-1350"/>
<text text-anchor="middle" x="669.5" y="-1334.8" font-family="Times New Roman,serif" font-size="14.00">friendly_name: Constant_115</text>
<text text-anchor="middle" x="669.5" y="-1319.8" font-family="Times New Roman,serif" font-size="14.00">type_name: Constant</text>
<text text-anchor="middle" x="669.5" y="-1304.8" font-family="Times New Roman,serif" font-size="14.00">{f32}[]</text>
<text text-anchor="middle" x="669.5" y="-1289.8" font-family="Times New Roman,serif" font-size="14.00">value: [0]</text>
</g>
<!-- CLONE_11&#45;&gt;FakeQuantize_117 -->
<g id="edge22" class="edge">
<title>CLONE_11&#45;&gt;FakeQuantize_117</title>
<path fill="none" stroke="black" d="M648.69,-1281.86C640.87,-1269.4 631.61,-1254.65 622.29,-1239.8"/>
<polygon fill="black" stroke="black" points="625.08,-1237.67 616.8,-1231.06 619.15,-1241.39 625.08,-1237.67"/>
<text text-anchor="middle" x="656.5" y="-1252.8" font-family="Times New Roman,serif" font-size="14.00"> 0 &#45;&gt; 3 </text>
</g>
<!-- CLONE_12 -->
<g id="node24" class="node">
<title>CLONE_12</title>
<polygon fill="none" stroke="black" stroke-dasharray="5,2" points="957.5,-1350 777.5,-1350 777.5,-1282 957.5,-1282 957.5,-1350"/>
<text text-anchor="middle" x="867.5" y="-1334.8" font-family="Times New Roman,serif" font-size="14.00">friendly_name: Constant_116</text>
<text text-anchor="middle" x="867.5" y="-1319.8" font-family="Times New Roman,serif" font-size="14.00">type_name: Constant</text>
<text text-anchor="middle" x="867.5" y="-1304.8" font-family="Times New Roman,serif" font-size="14.00">{f32}[]</text>
<text text-anchor="middle" x="867.5" y="-1289.8" font-family="Times New Roman,serif" font-size="14.00">value: [255]</text>
</g>
<!-- CLONE_12&#45;&gt;FakeQuantize_117 -->
<g id="edge23" class="edge">
<title>CLONE_12&#45;&gt;FakeQuantize_117</title>
<path fill="none" stroke="black" d="M804.22,-1281.86C777.13,-1267.67 744.36,-1250.51 712.09,-1233.61"/>
<polygon fill="black" stroke="black" points="713.49,-1230.39 703,-1228.85 710.24,-1236.59 713.49,-1230.39"/>
<text text-anchor="middle" x="785.5" y="-1252.8" font-family="Times New Roman,serif" font-size="14.00"> 0 &#45;&gt; 4 </text>
</g>
</g>
</svg>
