<?xml version="1.0" encoding="UTF-8" standalone="no"?>
<!DOCTYPE svg PUBLIC "-//W3C//DTD SVG 1.1//EN"
 "http://www.w3.org/Graphics/SVG/1.1/DTD/svg11.dtd">
<!-- Generated by graphviz version 2.43.20200408.0903 (20200408.0903)
 -->
<!-- Title: ngraph Pages: 1 -->
<svg width="3170pt" height="1090pt"
 viewBox="0.00 0.00 3170.00 1090.00" xmlns="http://www.w3.org/2000/svg" xmlns:xlink="http://www.w3.org/1999/xlink">
<g id="graph0" class="graph" transform="scale(1 1) rotate(0) translate(4 1086)">
<title>ngraph</title>
<polygon fill="white" stroke="transparent" points="-4,4 -4,-1086 3166,-1086 3166,4 -4,4"/>
<!-- Convolution_102 -->
<g id="node1" class="node">
<title>Convolution_102</title>
<polygon fill="none" stroke="black" points="2018.5,-217 1636.5,-217 1636.5,-119 2018.5,-119 2018.5,-217"/>
<text text-anchor="middle" x="1827.5" y="-201.8" font-family="Times New Roman,serif" font-size="14.00">friendly_name: output</text>
<text text-anchor="middle" x="1827.5" y="-186.8" font-family="Times New Roman,serif" font-size="14.00">name: Convolution_102</text>
<text text-anchor="middle" x="1827.5" y="-171.8" font-family="Times New Roman,serif" font-size="14.00">type_name: Convolution</text>
<text text-anchor="middle" x="1827.5" y="-156.8" font-family="Times New Roman,serif" font-size="14.00">in0: {f32}[1,6,9,9]: Concat_95: out0 PRECISIONS({u8}) </text>
<text text-anchor="middle" x="1827.5" y="-141.8" font-family="Times New Roman,serif" font-size="14.00">in1: {f32}[9,6,1,1]: FakeQuantize_101: out0 PRECISIONS({i8}) </text>
<text text-anchor="middle" x="1827.5" y="-126.8" font-family="Times New Roman,serif" font-size="14.00">out0: {f32}[1,9,9,9]</text>
</g>
<!-- Result_103 -->
<g id="node2" class="node">
<title>Result_103</title>
<polygon fill="none" stroke="crimson" stroke-width="1.5" points="1954.5,-68 1700.5,-68 1700.5,0 1954.5,0 1954.5,-68"/>
<text text-anchor="middle" x="1827.5" y="-52.8" font-family="Times New Roman,serif" font-size="14.00">friendly_name: Result_103</text>
<text text-anchor="middle" x="1827.5" y="-37.8" font-family="Times New Roman,serif" font-size="14.00">type_name: Result</text>
<text text-anchor="middle" x="1827.5" y="-22.8" font-family="Times New Roman,serif" font-size="14.00">in0: {f32}[1,9,9,9]: Convolution_102: out0</text>
<text text-anchor="middle" x="1827.5" y="-7.8" font-family="Times New Roman,serif" font-size="14.00">out0: {f32}[1,9,9,9]</text>
</g>
<!-- Convolution_102&#45;&gt;Result_103 -->
<g id="edge1" class="edge">
<title>Convolution_102&#45;&gt;Result_103</title>
<path fill="none" stroke="black" d="M1827.5,-118.97C1827.5,-105.71 1827.5,-91.4 1827.5,-78.42"/>
<polygon fill="black" stroke="black" points="1831,-78.33 1827.5,-68.33 1824,-78.33 1831,-78.33"/>
<text text-anchor="middle" x="1848.5" y="-89.8" font-family="Times New Roman,serif" font-size="14.00"> 0 &#45;&gt; 0 </text>
</g>
<!-- Concat_95 -->
<g id="node3" class="node">
<title>Concat_95</title>
<polygon fill="none" stroke="black" points="1579,-403.5 1060,-403.5 1060,-290.5 1579,-290.5 1579,-403.5"/>
<text text-anchor="middle" x="1319.5" y="-388.3" font-family="Times New Roman,serif" font-size="14.00">friendly_name: Concat_95</text>
<text text-anchor="middle" x="1319.5" y="-373.3" font-family="Times New Roman,serif" font-size="14.00">type_name: Concat</text>
<text text-anchor="middle" x="1319.5" y="-358.3" font-family="Times New Roman,serif" font-size="14.00">rt info: &#160;PRECISION_PRESERVED(value: true, operation: FakeQuantize)</text>
<text text-anchor="middle" x="1319.5" y="-343.3" font-family="Times New Roman,serif" font-size="14.00">QUANTIZATION_ALIGNMENT(low: &#45;1.280000, high: 1.270000, hasToBeAligned: true)</text>
<text text-anchor="middle" x="1319.5" y="-328.3" font-family="Times New Roman,serif" font-size="14.00">in0: {f32}[1,3,9,9]: MaxPool_86: out0 PRECISIONS({u8}) </text>
<text text-anchor="middle" x="1319.5" y="-313.3" font-family="Times New Roman,serif" font-size="14.00">in1: {f32}[1,3,9,9]: MaxPool_94: out0 PRECISIONS({u8}) </text>
<text text-anchor="middle" x="1319.5" y="-298.3" font-family="Times New Roman,serif" font-size="14.00">out0: {f32}[1,6,9,9]</text>
</g>
<!-- Concat_95&#45;&gt;Convolution_102 -->
<g id="edge2" class="edge">
<title>Concat_95&#45;&gt;Convolution_102</title>
<path fill="none" stroke="black" d="M1478.84,-290.48C1543.19,-268.06 1617,-242.34 1680.09,-220.36"/>
<polygon fill="black" stroke="black" points="1681.42,-223.6 1689.72,-217.01 1679.12,-216.99 1681.42,-223.6"/>
<text text-anchor="middle" x="1655.5" y="-238.8" font-family="Times New Roman,serif" font-size="14.00"> 0 &#45;&gt; 0 </text>
</g>
<!-- FakeQuantize_101 -->
<g id="node4" class="node">
<title>FakeQuantize_101</title>
<polygon fill="none" stroke="black" points="2502.5,-426 1934.5,-426 1934.5,-268 2502.5,-268 2502.5,-426"/>
<text text-anchor="middle" x="2218.5" y="-410.8" font-family="Times New Roman,serif" font-size="14.00">friendly_name: fakeQuantizeOnWeights</text>
<text text-anchor="middle" x="2218.5" y="-395.8" font-family="Times New Roman,serif" font-size="14.00">name: FakeQuantize_101</text>
<text text-anchor="middle" x="2218.5" y="-380.8" font-family="Times New Roman,serif" font-size="14.00">type_name: FakeQuantize</text>
<text text-anchor="middle" x="2218.5" y="-365.8" font-family="Times New Roman,serif" font-size="14.00">rt info: &#160;QUANTIZATION_ALIGNMENT(low: &#45;1.270000, high: 1.270000, hasToBeAligned: false)</text>
<text text-anchor="middle" x="2218.5" y="-350.8" font-family="Times New Roman,serif" font-size="14.00">in0: {f32}[9,6,1,1]: Constant_96: out0</text>
<text text-anchor="middle" x="2218.5" y="-335.8" font-family="Times New Roman,serif" font-size="14.00">in1: {f32}[9,1,1,1]: Constant_97: out0</text>
<text text-anchor="middle" x="2218.5" y="-320.8" font-family="Times New Roman,serif" font-size="14.00">in2: {f32}[9,1,1,1]: Constant_98: out0</text>
<text text-anchor="middle" x="2218.5" y="-305.8" font-family="Times New Roman,serif" font-size="14.00">in3: {f32}[9,1,1,1]: Constant_99: out0</text>
<text text-anchor="middle" x="2218.5" y="-290.8" font-family="Times New Roman,serif" font-size="14.00">in4: {f32}[9,1,1,1]: Constant_100: out0</text>
<text text-anchor="middle" x="2218.5" y="-275.8" font-family="Times New Roman,serif" font-size="14.00">out0: {f32}[9,6,1,1] PRECISIONS({i8}) </text>
</g>
<!-- FakeQuantize_101&#45;&gt;Convolution_102 -->
<g id="edge3" class="edge">
<title>FakeQuantize_101&#45;&gt;Convolution_102</title>
<path fill="none" stroke="black" d="M2046.15,-267.98C2011.3,-252.2 1975.46,-235.98 1943.14,-221.35"/>
<polygon fill="black" stroke="black" points="1944.23,-218 1933.68,-217.06 1941.34,-224.38 1944.23,-218"/>
<text text-anchor="middle" x="2021.5" y="-238.8" font-family="Times New Roman,serif" font-size="14.00"> 0 &#45;&gt; 1 </text>
</g>
<!-- CLONE_0 -->
<g id="node5" class="node">
<title>CLONE_0</title>
<polygon fill="none" stroke="black" stroke-dasharray="5,2" points="1814,-590 1597,-590 1597,-477 1814,-477 1814,-590"/>
<text text-anchor="middle" x="1705.5" y="-574.8" font-family="Times New Roman,serif" font-size="14.00">friendly_name: Constant_96</text>
<text text-anchor="middle" x="1705.5" y="-559.8" font-family="Times New Roman,serif" font-size="14.00">type_name: Constant</text>
<text text-anchor="middle" x="1705.5" y="-544.8" font-family="Times New Roman,serif" font-size="14.00">{f32}[9,6,1,1]</text>
<text text-anchor="middle" x="1705.5" y="-529.8" font-family="Times New Roman,serif" font-size="14.00">value: [54, 54, 54, 54, 54, 54, 54, 54</text>
<text text-anchor="middle" x="1705.5" y="-514.8" font-family="Times New Roman,serif" font-size="14.00">, 54, 54, 54, 54, 54, 54, 54, 54</text>
<text text-anchor="middle" x="1705.5" y="-499.8" font-family="Times New Roman,serif" font-size="14.00">, 54, 54, 54, 54, 54, 54, 54, 54</text>
<text text-anchor="middle" x="1705.5" y="-484.8" font-family="Times New Roman,serif" font-size="14.00">, 54, 54, 54, 54, 54, 54, 54, 54...]</text>
</g>
<!-- CLONE_0&#45;&gt;FakeQuantize_101 -->
<g id="edge4" class="edge">
<title>CLONE_0&#45;&gt;FakeQuantize_101</title>
<path fill="none" stroke="black" d="M1814.29,-480.34C1817.04,-479.2 1819.78,-478.08 1822.5,-477 1864.2,-460.4 1908.95,-444.26 1952.84,-429.34"/>
<polygon fill="black" stroke="black" points="1954.13,-432.6 1962.48,-426.08 1951.89,-425.97 1954.13,-432.6"/>
<text text-anchor="middle" x="1929.5" y="-447.8" font-family="Times New Roman,serif" font-size="14.00"> 0 &#45;&gt; 0 </text>
</g>
<!-- CLONE_1 -->
<g id="node6" class="node">
<title>CLONE_1</title>
<polygon fill="none" stroke="black" stroke-dasharray="5,2" points="2169,-575 1832,-575 1832,-492 2169,-492 2169,-575"/>
<text text-anchor="middle" x="2000.5" y="-559.8" font-family="Times New Roman,serif" font-size="14.00">friendly_name: Constant_97</text>
<text text-anchor="middle" x="2000.5" y="-544.8" font-family="Times New Roman,serif" font-size="14.00">type_name: Constant</text>
<text text-anchor="middle" x="2000.5" y="-529.8" font-family="Times New Roman,serif" font-size="14.00">{f32}[9,1,1,1]</text>
<text text-anchor="middle" x="2000.5" y="-514.8" font-family="Times New Roman,serif" font-size="14.00">value: [&#45;1.27, &#45;1.27, &#45;1.27, &#45;1.27, &#45;1.27, &#45;1.27, &#45;1.27, &#45;1.27</text>
<text text-anchor="middle" x="2000.5" y="-499.8" font-family="Times New Roman,serif" font-size="14.00">, &#45;1.27]</text>
</g>
<!-- CLONE_1&#45;&gt;FakeQuantize_101 -->
<g id="edge5" class="edge">
<title>CLONE_1&#45;&gt;FakeQuantize_101</title>
<path fill="none" stroke="black" d="M2048.61,-491.78C2069.2,-474.35 2094.06,-453.31 2118.34,-432.77"/>
<polygon fill="black" stroke="black" points="2120.82,-435.26 2126.19,-426.12 2116.3,-429.91 2120.82,-435.26"/>
<text text-anchor="middle" x="2124.5" y="-447.8" font-family="Times New Roman,serif" font-size="14.00"> 0 &#45;&gt; 1 </text>
</g>
<!-- CLONE_2 -->
<g id="node7" class="node">
<title>CLONE_2</title>
<polygon fill="none" stroke="black" stroke-dasharray="5,2" points="2488,-575 2187,-575 2187,-492 2488,-492 2488,-575"/>
<text text-anchor="middle" x="2337.5" y="-559.8" font-family="Times New Roman,serif" font-size="14.00">friendly_name: Constant_98</text>
<text text-anchor="middle" x="2337.5" y="-544.8" font-family="Times New Roman,serif" font-size="14.00">type_name: Constant</text>
<text text-anchor="middle" x="2337.5" y="-529.8" font-family="Times New Roman,serif" font-size="14.00">{f32}[9,1,1,1]</text>
<text text-anchor="middle" x="2337.5" y="-514.8" font-family="Times New Roman,serif" font-size="14.00">value: [1.27, 1.27, 1.27, 1.27, 1.27, 1.27, 1.27, 1.27</text>
<text text-anchor="middle" x="2337.5" y="-499.8" font-family="Times New Roman,serif" font-size="14.00">, 1.27]</text>
</g>
<!-- CLONE_2&#45;&gt;FakeQuantize_101 -->
<g id="edge6" class="edge">
<title>CLONE_2&#45;&gt;FakeQuantize_101</title>
<path fill="none" stroke="black" d="M2311.09,-491.55C2300.25,-474.74 2287.25,-454.59 2274.47,-434.78"/>
<polygon fill="black" stroke="black" points="2277.38,-432.83 2269.02,-426.32 2271.5,-436.62 2277.38,-432.83"/>
<text text-anchor="middle" x="2310.5" y="-447.8" font-family="Times New Roman,serif" font-size="14.00"> 0 &#45;&gt; 2 </text>
</g>
<!-- CLONE_3 -->
<g id="node8" class="node">
<title>CLONE_3</title>
<polygon fill="none" stroke="black" stroke-dasharray="5,2" points="2843,-575 2506,-575 2506,-492 2843,-492 2843,-575"/>
<text text-anchor="middle" x="2674.5" y="-559.8" font-family="Times New Roman,serif" font-size="14.00">friendly_name: Constant_99</text>
<text text-anchor="middle" x="2674.5" y="-544.8" font-family="Times New Roman,serif" font-size="14.00">type_name: Constant</text>
<text text-anchor="middle" x="2674.5" y="-529.8" font-family="Times New Roman,serif" font-size="14.00">{f32}[9,1,1,1]</text>
<text text-anchor="middle" x="2674.5" y="-514.8" font-family="Times New Roman,serif" font-size="14.00">value: [&#45;1.27, &#45;1.27, &#45;1.27, &#45;1.27, &#45;1.27, &#45;1.27, &#45;1.27, &#45;1.27</text>
<text text-anchor="middle" x="2674.5" y="-499.8" font-family="Times New Roman,serif" font-size="14.00">, &#45;1.27]</text>
</g>
<!-- CLONE_3&#45;&gt;FakeQuantize_101 -->
<g id="edge7" class="edge">
<title>CLONE_3&#45;&gt;FakeQuantize_101</title>
<path fill="none" stroke="black" d="M2574.15,-491.9C2529,-473.63 2474,-451.38 2420.89,-429.89"/>
<polygon fill="black" stroke="black" points="2421.92,-426.53 2411.34,-426.02 2419.3,-433.02 2421.92,-426.53"/>
<text text-anchor="middle" x="2508.5" y="-447.8" font-family="Times New Roman,serif" font-size="14.00"> 0 &#45;&gt; 3 </text>
</g>
<!-- CLONE_4 -->
<g id="node9" class="node">
<title>CLONE_4</title>
<polygon fill="none" stroke="black" stroke-dasharray="5,2" points="3162,-575 2861,-575 2861,-492 3162,-492 3162,-575"/>
<text text-anchor="middle" x="3011.5" y="-559.8" font-family="Times New Roman,serif" font-size="14.00">friendly_name: Constant_100</text>
<text text-anchor="middle" x="3011.5" y="-544.8" font-family="Times New Roman,serif" font-size="14.00">type_name: Constant</text>
<text text-anchor="middle" x="3011.5" y="-529.8" font-family="Times New Roman,serif" font-size="14.00">{f32}[9,1,1,1]</text>
<text text-anchor="middle" x="3011.5" y="-514.8" font-family="Times New Roman,serif" font-size="14.00">value: [1.27, 1.27, 1.27, 1.27, 1.27, 1.27, 1.27, 1.27</text>
<text text-anchor="middle" x="3011.5" y="-499.8" font-family="Times New Roman,serif" font-size="14.00">, 1.27]</text>
</g>
<!-- CLONE_4&#45;&gt;FakeQuantize_101 -->
<g id="edge8" class="edge">
<title>CLONE_4&#45;&gt;FakeQuantize_101</title>
<path fill="none" stroke="black" d="M2900.63,-491.92C2884.26,-486.55 2867.52,-481.39 2851.5,-477 2742.02,-447 2620.16,-420.56 2512.82,-399.55"/>
<polygon fill="black" stroke="black" points="2513.3,-396.07 2502.81,-397.6 2511.96,-402.94 2513.3,-396.07"/>
<text text-anchor="middle" x="2787.5" y="-447.8" font-family="Times New Roman,serif" font-size="14.00"> 0 &#45;&gt; 4 </text>
</g>
<!-- MaxPool_86 -->
<g id="node10" class="node">
<title>MaxPool_86</title>
<polygon fill="none" stroke="black" points="1004,-590 485,-590 485,-477 1004,-477 1004,-590"/>
<text text-anchor="middle" x="744.5" y="-574.8" font-family="Times New Roman,serif" font-size="14.00">friendly_name: maxPool1</text>
<text text-anchor="middle" x="744.5" y="-559.8" font-family="Times New Roman,serif" font-size="14.00">name: MaxPool_86</text>
<text text-anchor="middle" x="744.5" y="-544.8" font-family="Times New Roman,serif" font-size="14.00">type_name: MaxPool</text>
<text text-anchor="middle" x="744.5" y="-529.8" font-family="Times New Roman,serif" font-size="14.00">rt info: &#160;PRECISION_PRESERVED(value: true, operation: FakeQuantize)</text>
<text text-anchor="middle" x="744.5" y="-514.8" font-family="Times New Roman,serif" font-size="14.00">QUANTIZATION_ALIGNMENT(low: &#45;1.280000, high: 1.270000, hasToBeAligned: true)</text>
<text text-anchor="middle" x="744.5" y="-499.8" font-family="Times New Roman,serif" font-size="14.00">in0: {f32}[1,3,9,9]: AvgPool_85: out0 PRECISIONS({u8}) </text>
<text text-anchor="middle" x="744.5" y="-484.8" font-family="Times New Roman,serif" font-size="14.00">out0: {f32}[1,3,9,9]</text>
</g>
<!-- MaxPool_86&#45;&gt;Concat_95 -->
<g id="edge9" class="edge">
<title>MaxPool_86&#45;&gt;Concat_95</title>
<path fill="none" stroke="black" d="M917.8,-476.89C986.81,-454.75 1066.29,-429.25 1136.25,-406.8"/>
<polygon fill="black" stroke="black" points="1137.61,-410.04 1146.06,-403.65 1135.47,-403.37 1137.61,-410.04"/>
<text text-anchor="middle" x="1036.5" y="-447.8" font-family="Times New Roman,serif" font-size="14.00"> 0 &#45;&gt; 0 </text>
</g>
<!-- MaxPool_94 -->
<g id="node11" class="node">
<title>MaxPool_94</title>
<polygon fill="none" stroke="black" points="1579,-590 1060,-590 1060,-477 1579,-477 1579,-590"/>
<text text-anchor="middle" x="1319.5" y="-574.8" font-family="Times New Roman,serif" font-size="14.00">friendly_name: maxPool2</text>
<text text-anchor="middle" x="1319.5" y="-559.8" font-family="Times New Roman,serif" font-size="14.00">name: MaxPool_94</text>
<text text-anchor="middle" x="1319.5" y="-544.8" font-family="Times New Roman,serif" font-size="14.00">type_name: MaxPool</text>
<text text-anchor="middle" x="1319.5" y="-529.8" font-family="Times New Roman,serif" font-size="14.00">rt info: &#160;PRECISION_PRESERVED(value: true, operation: FakeQuantize)</text>
<text text-anchor="middle" x="1319.5" y="-514.8" font-family="Times New Roman,serif" font-size="14.00">QUANTIZATION_ALIGNMENT(low: &#45;1.280000, high: 1.270000, hasToBeAligned: true)</text>
<text text-anchor="middle" x="1319.5" y="-499.8" font-family="Times New Roman,serif" font-size="14.00">in0: {f32}[1,3,9,9]: AvgPool_93: out0 PRECISIONS({u8}) </text>
<text text-anchor="middle" x="1319.5" y="-484.8" font-family="Times New Roman,serif" font-size="14.00">out0: {f32}[1,3,9,9]</text>
</g>
<!-- MaxPool_94&#45;&gt;Concat_95 -->
<g id="edge10" class="edge">
<title>MaxPool_94&#45;&gt;Concat_95</title>
<path fill="none" stroke="black" d="M1319.5,-476.89C1319.5,-457.11 1319.5,-434.63 1319.5,-414.06"/>
<polygon fill="black" stroke="black" points="1323,-413.81 1319.5,-403.81 1316,-413.81 1323,-413.81"/>
<text text-anchor="middle" x="1340.5" y="-447.8" font-family="Times New Roman,serif" font-size="14.00"> 0 &#45;&gt; 1 </text>
</g>
<!-- AvgPool_93 -->
<g id="node12" class="node">
<title>AvgPool_93</title>
<polygon fill="none" stroke="black" points="1618,-754 1099,-754 1099,-641 1618,-641 1618,-754"/>
<text text-anchor="middle" x="1358.5" y="-738.8" font-family="Times New Roman,serif" font-size="14.00">friendly_name: avgPool2</text>
<text text-anchor="middle" x="1358.5" y="-723.8" font-family="Times New Roman,serif" font-size="14.00">name: AvgPool_93</text>
<text text-anchor="middle" x="1358.5" y="-708.8" font-family="Times New Roman,serif" font-size="14.00">type_name: AvgPool</text>
<text text-anchor="middle" x="1358.5" y="-693.8" font-family="Times New Roman,serif" font-size="14.00">rt info: &#160;PRECISION_PRESERVED(value: true, operation: FakeQuantize)</text>
<text text-anchor="middle" x="1358.5" y="-678.8" font-family="Times New Roman,serif" font-size="14.00">QUANTIZATION_ALIGNMENT(low: &#45;1.280000, high: 1.270000, hasToBeAligned: true)</text>
<text text-anchor="middle" x="1358.5" y="-663.8" font-family="Times New Roman,serif" font-size="14.00">in0: {f32}[1,3,9,9]: FakeQuantize_92: out0 PRECISIONS({u8}) </text>
<text text-anchor="middle" x="1358.5" y="-648.8" font-family="Times New Roman,serif" font-size="14.00">out0: {f32}[1,3,9,9]</text>
</g>
<!-- AvgPool_93&#45;&gt;MaxPool_94 -->
<g id="edge11" class="edge">
<title>AvgPool_93&#45;&gt;MaxPool_94</title>
<path fill="none" stroke="black" d="M1345.08,-640.75C1341.9,-627.57 1338.49,-613.39 1335.23,-599.83"/>
<polygon fill="black" stroke="black" points="1338.62,-598.98 1332.88,-590.08 1331.82,-600.62 1338.62,-598.98"/>
<text text-anchor="middle" x="1361.5" y="-611.8" font-family="Times New Roman,serif" font-size="14.00"> 0 &#45;&gt; 0 </text>
</g>
<!-- FakeQuantize_92 -->
<g id="node13" class="node">
<title>FakeQuantize_92</title>
<polygon fill="none" stroke="black" points="1698,-963 1135,-963 1135,-805 1698,-805 1698,-963"/>
<text text-anchor="middle" x="1416.5" y="-947.8" font-family="Times New Roman,serif" font-size="14.00">friendly_name: fakeQuantizeOnActivations2</text>
<text text-anchor="middle" x="1416.5" y="-932.8" font-family="Times New Roman,serif" font-size="14.00">name: FakeQuantize_92</text>
<text text-anchor="middle" x="1416.5" y="-917.8" font-family="Times New Roman,serif" font-size="14.00">type_name: FakeQuantize</text>
<text text-anchor="middle" x="1416.5" y="-902.8" font-family="Times New Roman,serif" font-size="14.00">rt info: &#160;QUANTIZATION_ALIGNMENT(low: &#45;1.280000, high: 1.270000, hasToBeAligned: true)</text>
<text text-anchor="middle" x="1416.5" y="-887.8" font-family="Times New Roman,serif" font-size="14.00">in0: {f32}[1,3,9,9]: Parameter_79: out0</text>
<text text-anchor="middle" x="1416.5" y="-872.8" font-family="Times New Roman,serif" font-size="14.00">in1: {f32}[]: Constant_88: out0</text>
<text text-anchor="middle" x="1416.5" y="-857.8" font-family="Times New Roman,serif" font-size="14.00">in2: {f32}[]: Constant_89: out0</text>
<text text-anchor="middle" x="1416.5" y="-842.8" font-family="Times New Roman,serif" font-size="14.00">in3: {f32}[]: Constant_90: out0</text>
<text text-anchor="middle" x="1416.5" y="-827.8" font-family="Times New Roman,serif" font-size="14.00">in4: {f32}[]: Constant_91: out0</text>
<text text-anchor="middle" x="1416.5" y="-812.8" font-family="Times New Roman,serif" font-size="14.00">out0: {f32}[1,3,9,9] PRECISIONS({u8}) </text>
</g>
<!-- FakeQuantize_92&#45;&gt;AvgPool_93 -->
<g id="edge12" class="edge">
<title>FakeQuantize_92&#45;&gt;AvgPool_93</title>
<path fill="none" stroke="black" d="M1391.9,-804.76C1387.65,-791.22 1383.26,-777.26 1379.12,-764.1"/>
<polygon fill="black" stroke="black" points="1382.35,-762.7 1376.01,-754.21 1375.67,-764.8 1382.35,-762.7"/>
<text text-anchor="middle" x="1407.5" y="-775.8" font-family="Times New Roman,serif" font-size="14.00"> 0 &#45;&gt; 0 </text>
</g>
<!-- CLONE_5 -->
<g id="node14" class="node">
<title>CLONE_5</title>
<polygon fill="none" stroke="blue" stroke-dasharray="5,2" points="1140,-1074.5 961,-1074.5 961,-1021.5 1140,-1021.5 1140,-1074.5"/>
<text text-anchor="middle" x="1050.5" y="-1059.3" font-family="Times New Roman,serif" font-size="14.00">friendly_name: Parameter_79</text>
<text text-anchor="middle" x="1050.5" y="-1044.3" font-family="Times New Roman,serif" font-size="14.00">type_name: Parameter</text>
<text text-anchor="middle" x="1050.5" y="-1029.3" font-family="Times New Roman,serif" font-size="14.00">{f32}[1,3,9,9]</text>
</g>
<!-- CLONE_5&#45;&gt;FakeQuantize_92 -->
<g id="edge13" class="edge">
<title>CLONE_5&#45;&gt;FakeQuantize_92</title>
<path fill="none" stroke="black" d="M1108.49,-1021.33C1142.06,-1006.47 1186.37,-986.86 1230.89,-967.15"/>
<polygon fill="black" stroke="black" points="1232.37,-970.33 1240.1,-963.08 1229.53,-963.93 1232.37,-970.33"/>
<text text-anchor="middle" x="1211.5" y="-984.8" font-family="Times New Roman,serif" font-size="14.00"> 0 &#45;&gt; 0 </text>
</g>
<!-- CLONE_6 -->
<g id="node15" class="node">
<title>CLONE_6</title>
<polygon fill="none" stroke="black" stroke-dasharray="5,2" points="1331,-1082 1158,-1082 1158,-1014 1331,-1014 1331,-1082"/>
<text text-anchor="middle" x="1244.5" y="-1066.8" font-family="Times New Roman,serif" font-size="14.00">friendly_name: Constant_88</text>
<text text-anchor="middle" x="1244.5" y="-1051.8" font-family="Times New Roman,serif" font-size="14.00">type_name: Constant</text>
<text text-anchor="middle" x="1244.5" y="-1036.8" font-family="Times New Roman,serif" font-size="14.00">{f32}[]</text>
<text text-anchor="middle" x="1244.5" y="-1021.8" font-family="Times New Roman,serif" font-size="14.00">value: [&#45;0.64]</text>
</g>
<!-- CLONE_6&#45;&gt;FakeQuantize_92 -->
<g id="edge14" class="edge">
<title>CLONE_6&#45;&gt;FakeQuantize_92</title>
<path fill="none" stroke="black" d="M1279.72,-1013.83C1293.27,-1001.06 1309.45,-985.83 1325.84,-970.39"/>
<polygon fill="black" stroke="black" points="1328.51,-972.69 1333.39,-963.28 1323.71,-967.59 1328.51,-972.69"/>
<text text-anchor="middle" x="1331.5" y="-984.8" font-family="Times New Roman,serif" font-size="14.00"> 0 &#45;&gt; 1 </text>
</g>
<!-- CLONE_7 -->
<g id="node16" class="node">
<title>CLONE_7</title>
<polygon fill="none" stroke="black" stroke-dasharray="5,2" points="1522,-1082 1349,-1082 1349,-1014 1522,-1014 1522,-1082"/>
<text text-anchor="middle" x="1435.5" y="-1066.8" font-family="Times New Roman,serif" font-size="14.00">friendly_name: Constant_89</text>
<text text-anchor="middle" x="1435.5" y="-1051.8" font-family="Times New Roman,serif" font-size="14.00">type_name: Constant</text>
<text text-anchor="middle" x="1435.5" y="-1036.8" font-family="Times New Roman,serif" font-size="14.00">{f32}[]</text>
<text text-anchor="middle" x="1435.5" y="-1021.8" font-family="Times New Roman,serif" font-size="14.00">value: [0.635]</text>
</g>
<!-- CLONE_7&#45;&gt;FakeQuantize_92 -->
<g id="edge15" class="edge">
<title>CLONE_7&#45;&gt;FakeQuantize_92</title>
<path fill="none" stroke="black" d="M1431.61,-1013.83C1430.21,-1001.87 1428.55,-987.74 1426.86,-973.3"/>
<polygon fill="black" stroke="black" points="1430.32,-972.81 1425.68,-963.28 1423.37,-973.62 1430.32,-972.81"/>
<text text-anchor="middle" x="1450.5" y="-984.8" font-family="Times New Roman,serif" font-size="14.00"> 0 &#45;&gt; 2 </text>
</g>
<!-- CLONE_8 -->
<g id="node17" class="node">
<title>CLONE_8</title>
<polygon fill="none" stroke="black" stroke-dasharray="5,2" points="1713,-1082 1540,-1082 1540,-1014 1713,-1014 1713,-1082"/>
<text text-anchor="middle" x="1626.5" y="-1066.8" font-family="Times New Roman,serif" font-size="14.00">friendly_name: Constant_90</text>
<text text-anchor="middle" x="1626.5" y="-1051.8" font-family="Times New Roman,serif" font-size="14.00">type_name: Constant</text>
<text text-anchor="middle" x="1626.5" y="-1036.8" font-family="Times New Roman,serif" font-size="14.00">{f32}[]</text>
<text text-anchor="middle" x="1626.5" y="-1021.8" font-family="Times New Roman,serif" font-size="14.00">value: [&#45;0.64]</text>
</g>
<!-- CLONE_8&#45;&gt;FakeQuantize_92 -->
<g id="edge16" class="edge">
<title>CLONE_8&#45;&gt;FakeQuantize_92</title>
<path fill="none" stroke="black" d="M1583.5,-1013.83C1566.65,-1000.83 1546.49,-985.28 1526.1,-969.55"/>
<polygon fill="black" stroke="black" points="1528.03,-966.62 1517.98,-963.28 1523.76,-972.16 1528.03,-966.62"/>
<text text-anchor="middle" x="1580.5" y="-984.8" font-family="Times New Roman,serif" font-size="14.00"> 0 &#45;&gt; 3 </text>
</g>
<!-- CLONE_9 -->
<g id="node18" class="node">
<title>CLONE_9</title>
<polygon fill="none" stroke="black" stroke-dasharray="5,2" points="1904,-1082 1731,-1082 1731,-1014 1904,-1014 1904,-1082"/>
<text text-anchor="middle" x="1817.5" y="-1066.8" font-family="Times New Roman,serif" font-size="14.00">friendly_name: Constant_91</text>
<text text-anchor="middle" x="1817.5" y="-1051.8" font-family="Times New Roman,serif" font-size="14.00">type_name: Constant</text>
<text text-anchor="middle" x="1817.5" y="-1036.8" font-family="Times New Roman,serif" font-size="14.00">{f32}[]</text>
<text text-anchor="middle" x="1817.5" y="-1021.8" font-family="Times New Roman,serif" font-size="14.00">value: [0.635]</text>
</g>
<!-- CLONE_9&#45;&gt;FakeQuantize_92 -->
<g id="edge17" class="edge">
<title>CLONE_9&#45;&gt;FakeQuantize_92</title>
<path fill="none" stroke="black" d="M1735.38,-1013.83C1701.41,-1000.1 1660.36,-983.52 1619.19,-966.89"/>
<polygon fill="black" stroke="black" points="1620.44,-963.61 1609.85,-963.11 1617.82,-970.1 1620.44,-963.61"/>
<text text-anchor="middle" x="1709.5" y="-984.8" font-family="Times New Roman,serif" font-size="14.00"> 0 &#45;&gt; 4 </text>
</g>
<!-- AvgPool_85 -->
<g id="node19" class="node">
<title>AvgPool_85</title>
<polygon fill="none" stroke="black" points="1004,-754 485,-754 485,-641 1004,-641 1004,-754"/>
<text text-anchor="middle" x="744.5" y="-738.8" font-family="Times New Roman,serif" font-size="14.00">friendly_name: avgPool1</text>
<text text-anchor="middle" x="744.5" y="-723.8" font-family="Times New Roman,serif" font-size="14.00">name: AvgPool_85</text>
<text text-anchor="middle" x="744.5" y="-708.8" font-family="Times New Roman,serif" font-size="14.00">type_name: AvgPool</text>
<text text-anchor="middle" x="744.5" y="-693.8" font-family="Times New Roman,serif" font-size="14.00">rt info: &#160;PRECISION_PRESERVED(value: true, operation: FakeQuantize)</text>
<text text-anchor="middle" x="744.5" y="-678.8" font-family="Times New Roman,serif" font-size="14.00">QUANTIZATION_ALIGNMENT(low: &#45;1.280000, high: 1.270000, hasToBeAligned: true)</text>
<text text-anchor="middle" x="744.5" y="-663.8" font-family="Times New Roman,serif" font-size="14.00">in0: {f32}[1,3,9,9]: FakeQuantize_84: out0 PRECISIONS({u8}) </text>
<text text-anchor="middle" x="744.5" y="-648.8" font-family="Times New Roman,serif" font-size="14.00">out0: {f32}[1,3,9,9]</text>
</g>
<!-- AvgPool_85&#45;&gt;MaxPool_86 -->
<g id="edge18" class="edge">
<title>AvgPool_85&#45;&gt;MaxPool_86</title>
<path fill="none" stroke="black" d="M744.5,-640.75C744.5,-627.69 744.5,-613.67 744.5,-600.22"/>
<polygon fill="black" stroke="black" points="748,-600.08 744.5,-590.08 741,-600.08 748,-600.08"/>
<text text-anchor="middle" x="765.5" y="-611.8" font-family="Times New Roman,serif" font-size="14.00"> 0 &#45;&gt; 0 </text>
</g>
<!-- FakeQuantize_84 -->
<g id="node20" class="node">
<title>FakeQuantize_84</title>
<polygon fill="none" stroke="black" points="852,-963 289,-963 289,-805 852,-805 852,-963"/>
<text text-anchor="middle" x="570.5" y="-947.8" font-family="Times New Roman,serif" font-size="14.00">friendly_name: fakeQuantizeOnActivations1</text>
<text text-anchor="middle" x="570.5" y="-932.8" font-family="Times New Roman,serif" font-size="14.00">name: FakeQuantize_84</text>
<text text-anchor="middle" x="570.5" y="-917.8" font-family="Times New Roman,serif" font-size="14.00">type_name: FakeQuantize</text>
<text text-anchor="middle" x="570.5" y="-902.8" font-family="Times New Roman,serif" font-size="14.00">rt info: &#160;QUANTIZATION_ALIGNMENT(low: &#45;1.280000, high: 1.270000, hasToBeAligned: true)</text>
<text text-anchor="middle" x="570.5" y="-887.8" font-family="Times New Roman,serif" font-size="14.00">in0: {f32}[1,3,9,9]: Parameter_79: out0</text>
<text text-anchor="middle" x="570.5" y="-872.8" font-family="Times New Roman,serif" font-size="14.00">in1: {f32}[]: Constant_80: out0</text>
<text text-anchor="middle" x="570.5" y="-857.8" font-family="Times New Roman,serif" font-size="14.00">in2: {f32}[]: Constant_81: out0</text>
<text text-anchor="middle" x="570.5" y="-842.8" font-family="Times New Roman,serif" font-size="14.00">in3: {f32}[]: Constant_82: out0</text>
<text text-anchor="middle" x="570.5" y="-827.8" font-family="Times New Roman,serif" font-size="14.00">in4: {f32}[]: Constant_83: out0</text>
<text text-anchor="middle" x="570.5" y="-812.8" font-family="Times New Roman,serif" font-size="14.00">out0: {f32}[1,3,9,9] PRECISIONS({u8}) </text>
</g>
<!-- FakeQuantize_84&#45;&gt;AvgPool_85 -->
<g id="edge19" class="edge">
<title>FakeQuantize_84&#45;&gt;AvgPool_85</title>
<path fill="none" stroke="black" d="M644.29,-804.76C657.81,-790.42 671.77,-775.62 684.81,-761.79"/>
<polygon fill="black" stroke="black" points="687.64,-763.89 691.96,-754.21 682.55,-759.09 687.64,-763.89"/>
<text text-anchor="middle" x="694.5" y="-775.8" font-family="Times New Roman,serif" font-size="14.00"> 0 &#45;&gt; 0 </text>
</g>
<!-- CLONE_10 -->
<g id="node21" class="node">
<title>CLONE_10</title>
<polygon fill="none" stroke="blue" stroke-dasharray="5,2" points="179,-1074.5 0,-1074.5 0,-1021.5 179,-1021.5 179,-1074.5"/>
<text text-anchor="middle" x="89.5" y="-1059.3" font-family="Times New Roman,serif" font-size="14.00">friendly_name: Parameter_79</text>
<text text-anchor="middle" x="89.5" y="-1044.3" font-family="Times New Roman,serif" font-size="14.00">type_name: Parameter</text>
<text text-anchor="middle" x="89.5" y="-1029.3" font-family="Times New Roman,serif" font-size="14.00">{f32}[1,3,9,9]</text>
</g>
<!-- CLONE_10&#45;&gt;FakeQuantize_84 -->
<g id="edge20" class="edge">
<title>CLONE_10&#45;&gt;FakeQuantize_84</title>
<path fill="none" stroke="black" d="M165.45,-1021.42C210.24,-1006.33 269.66,-986.32 329.16,-966.28"/>
<polygon fill="black" stroke="black" points="330.34,-969.58 338.7,-963.07 328.11,-962.94 330.34,-969.58"/>
<text text-anchor="middle" x="294.5" y="-984.8" font-family="Times New Roman,serif" font-size="14.00"> 0 &#45;&gt; 0 </text>
</g>
<!-- CLONE_11 -->
<g id="node22" class="node">
<title>CLONE_11</title>
<polygon fill="none" stroke="black" stroke-dasharray="5,2" points="370,-1082 197,-1082 197,-1014 370,-1014 370,-1082"/>
<text text-anchor="middle" x="283.5" y="-1066.8" font-family="Times New Roman,serif" font-size="14.00">friendly_name: Constant_80</text>
<text text-anchor="middle" x="283.5" y="-1051.8" font-family="Times New Roman,serif" font-size="14.00">type_name: Constant</text>
<text text-anchor="middle" x="283.5" y="-1036.8" font-family="Times New Roman,serif" font-size="14.00">{f32}[]</text>
<text text-anchor="middle" x="283.5" y="-1021.8" font-family="Times New Roman,serif" font-size="14.00">value: [&#45;1.28]</text>
</g>
<!-- CLONE_11&#45;&gt;FakeQuantize_84 -->
<g id="edge21" class="edge">
<title>CLONE_11&#45;&gt;FakeQuantize_84</title>
<path fill="none" stroke="black" d="M342.27,-1013.83C365.98,-1000.45 394.49,-984.35 423.2,-968.14"/>
<polygon fill="black" stroke="black" points="425.13,-971.08 432.11,-963.11 421.68,-964.98 425.13,-971.08"/>
<text text-anchor="middle" x="414.5" y="-984.8" font-family="Times New Roman,serif" font-size="14.00"> 0 &#45;&gt; 1 </text>
</g>
<!-- CLONE_12 -->
<g id="node23" class="node">
<title>CLONE_12</title>
<polygon fill="none" stroke="black" stroke-dasharray="5,2" points="561,-1082 388,-1082 388,-1014 561,-1014 561,-1082"/>
<text text-anchor="middle" x="474.5" y="-1066.8" font-family="Times New Roman,serif" font-size="14.00">friendly_name: Constant_81</text>
<text text-anchor="middle" x="474.5" y="-1051.8" font-family="Times New Roman,serif" font-size="14.00">type_name: Constant</text>
<text text-anchor="middle" x="474.5" y="-1036.8" font-family="Times New Roman,serif" font-size="14.00">{f32}[]</text>
<text text-anchor="middle" x="474.5" y="-1021.8" font-family="Times New Roman,serif" font-size="14.00">value: [1.27]</text>
</g>
<!-- CLONE_12&#45;&gt;FakeQuantize_84 -->
<g id="edge22" class="edge">
<title>CLONE_12&#45;&gt;FakeQuantize_84</title>
<path fill="none" stroke="black" d="M494.16,-1013.83C501.45,-1001.52 510.1,-986.92 518.91,-972.05"/>
<polygon fill="black" stroke="black" points="522.02,-973.67 524.11,-963.28 516,-970.1 522.02,-973.67"/>
<text text-anchor="middle" x="532.5" y="-984.8" font-family="Times New Roman,serif" font-size="14.00"> 0 &#45;&gt; 2 </text>
</g>
<!-- CLONE_13 -->
<g id="node24" class="node">
<title>CLONE_13</title>
<polygon fill="none" stroke="black" stroke-dasharray="5,2" points="752,-1082 579,-1082 579,-1014 752,-1014 752,-1082"/>
<text text-anchor="middle" x="665.5" y="-1066.8" font-family="Times New Roman,serif" font-size="14.00">friendly_name: Constant_82</text>
<text text-anchor="middle" x="665.5" y="-1051.8" font-family="Times New Roman,serif" font-size="14.00">type_name: Constant</text>
<text text-anchor="middle" x="665.5" y="-1036.8" font-family="Times New Roman,serif" font-size="14.00">{f32}[]</text>
<text text-anchor="middle" x="665.5" y="-1021.8" font-family="Times New Roman,serif" font-size="14.00">value: [&#45;1.28]</text>
</g>
<!-- CLONE_13&#45;&gt;FakeQuantize_84 -->
<g id="edge23" class="edge">
<title>CLONE_13&#45;&gt;FakeQuantize_84</title>
<path fill="none" stroke="black" d="M646.05,-1013.83C638.83,-1001.52 630.27,-986.92 621.55,-972.05"/>
<polygon fill="black" stroke="black" points="624.48,-970.14 616.41,-963.28 618.45,-973.68 624.48,-970.14"/>
<text text-anchor="middle" x="656.5" y="-984.8" font-family="Times New Roman,serif" font-size="14.00"> 0 &#45;&gt; 3 </text>
</g>
<!-- CLONE_14 -->
<g id="node25" class="node">
<title>CLONE_14</title>
<polygon fill="none" stroke="black" stroke-dasharray="5,2" points="943,-1082 770,-1082 770,-1014 943,-1014 943,-1082"/>
<text text-anchor="middle" x="856.5" y="-1066.8" font-family="Times New Roman,serif" font-size="14.00">friendly_name: Constant_83</text>
<text text-anchor="middle" x="856.5" y="-1051.8" font-family="Times New Roman,serif" font-size="14.00">type_name: Constant</text>
<text text-anchor="middle" x="856.5" y="-1036.8" font-family="Times New Roman,serif" font-size="14.00">{f32}[]</text>
<text text-anchor="middle" x="856.5" y="-1021.8" font-family="Times New Roman,serif" font-size="14.00">value: [1.27]</text>
</g>
<!-- CLONE_14&#45;&gt;FakeQuantize_84 -->
<g id="edge24" class="edge">
<title>CLONE_14&#45;&gt;FakeQuantize_84</title>
<path fill="none" stroke="black" d="M797.93,-1013.83C774.31,-1000.45 745.9,-984.35 717.29,-968.14"/>
<polygon fill="black" stroke="black" points="718.83,-965 708.4,-963.11 715.38,-971.09 718.83,-965"/>
<text text-anchor="middle" x="785.5" y="-984.8" font-family="Times New Roman,serif" font-size="14.00"> 0 &#45;&gt; 4 </text>
</g>
</g>
</svg>
