<?xml version="1.0" encoding="UTF-8" standalone="no"?>
<!DOCTYPE svg PUBLIC "-//W3C//DTD SVG 1.1//EN"
 "http://www.w3.org/Graphics/SVG/1.1/DTD/svg11.dtd">
<!-- Generated by graphviz version 2.43.20200408.0903 (20200408.0903)
 -->
<!-- Title: ngraph Pages: 1 -->
<svg width="2856pt" height="1105pt"
 viewBox="0.00 0.00 2856.00 1105.00" xmlns="http://www.w3.org/2000/svg" xmlns:xlink="http://www.w3.org/1999/xlink">
<g id="graph0" class="graph" transform="scale(1 1) rotate(0) translate(4 1101)">
<title>ngraph</title>
<polygon fill="white" stroke="transparent" points="-4,4 -4,-1101 2852,-1101 2852,4 -4,4"/>
<!-- Convolution_102 -->
<g id="node1" class="node">
<title>Convolution_102</title>
<polygon fill="none" stroke="black" points="1760.5,-247 1382.5,-247 1382.5,-134 1760.5,-134 1760.5,-247"/>
<text text-anchor="middle" x="1571.5" y="-231.8" font-family="Times New Roman,serif" font-size="14.00">friendly_name: output</text>
<text text-anchor="middle" x="1571.5" y="-216.8" font-family="Times New Roman,serif" font-size="14.00">name: Convolution_102</text>
<text text-anchor="middle" x="1571.5" y="-201.8" font-family="Times New Roman,serif" font-size="14.00">type_name: Convolution</text>
<text text-anchor="middle" x="1571.5" y="-186.8" font-family="Times New Roman,serif" font-size="14.00">rt info: PRECISION_PRESERVED(value: false) </text>
<text text-anchor="middle" x="1571.5" y="-171.8" font-family="Times New Roman,serif" font-size="14.00">in0: {f32}[1,6,9,9]: Concat_95: out0PRECISIONS({u8}) </text>
<text text-anchor="middle" x="1571.5" y="-156.8" font-family="Times New Roman,serif" font-size="14.00">in1: {f32}[9,6,1,1]: FakeQuantize_101: out0PRECISIONS({i8}) </text>
<text text-anchor="middle" x="1571.5" y="-141.8" font-family="Times New Roman,serif" font-size="14.00">out0: {f32}[1,9,9,9]</text>
</g>
<!-- Result_103 -->
<g id="node2" class="node">
<title>Result_103</title>
<polygon fill="none" stroke="crimson" stroke-width="1.5" points="1717.5,-83 1425.5,-83 1425.5,0 1717.5,0 1717.5,-83"/>
<text text-anchor="middle" x="1571.5" y="-67.8" font-family="Times New Roman,serif" font-size="14.00">friendly_name: Result_103</text>
<text text-anchor="middle" x="1571.5" y="-52.8" font-family="Times New Roman,serif" font-size="14.00">type_name: Result</text>
<text text-anchor="middle" x="1571.5" y="-37.8" font-family="Times New Roman,serif" font-size="14.00">rt info: PRECISION_PRESERVED(value: false) </text>
<text text-anchor="middle" x="1571.5" y="-22.8" font-family="Times New Roman,serif" font-size="14.00">in0: {f32}[1,9,9,9]: Convolution_102: out0</text>
<text text-anchor="middle" x="1571.5" y="-7.8" font-family="Times New Roman,serif" font-size="14.00">out0: {f32}[1,9,9,9]</text>
</g>
<!-- Convolution_102&#45;&gt;Result_103 -->
<g id="edge1" class="edge">
<title>Convolution_102&#45;&gt;Result_103</title>
<path fill="none" stroke="black" d="M1571.5,-133.93C1571.5,-120.58 1571.5,-106.4 1571.5,-93.28"/>
<polygon fill="black" stroke="black" points="1575,-93.03 1571.5,-83.03 1568,-93.03 1575,-93.03"/>
<text text-anchor="middle" x="1592.5" y="-104.8" font-family="Times New Roman,serif" font-size="14.00"> 0 &#45;&gt; 0 </text>
</g>
<!-- Concat_95 -->
<g id="node3" class="node">
<title>Concat_95</title>
<polygon fill="none" stroke="black" points="1265,-426 978,-426 978,-328 1265,-328 1265,-426"/>
<text text-anchor="middle" x="1121.5" y="-410.8" font-family="Times New Roman,serif" font-size="14.00">friendly_name: Concat_95</text>
<text text-anchor="middle" x="1121.5" y="-395.8" font-family="Times New Roman,serif" font-size="14.00">type_name: Concat</text>
<text text-anchor="middle" x="1121.5" y="-380.8" font-family="Times New Roman,serif" font-size="14.00">rt info: PRECISION_PRESERVED(value: true) </text>
<text text-anchor="middle" x="1121.5" y="-365.8" font-family="Times New Roman,serif" font-size="14.00">in0: {f32}[1,3,9,9]: MaxPool_86: out0</text>
<text text-anchor="middle" x="1121.5" y="-350.8" font-family="Times New Roman,serif" font-size="14.00">in1: {f32}[1,3,9,9]: MaxPool_94: out0</text>
<text text-anchor="middle" x="1121.5" y="-335.8" font-family="Times New Roman,serif" font-size="14.00">out0: {f32}[1,6,9,9]</text>
</g>
<!-- Concat_95&#45;&gt;Convolution_102 -->
<g id="edge2" class="edge">
<title>Concat_95&#45;&gt;Convolution_102</title>
<path fill="none" stroke="black" d="M1238.85,-327.89C1296.32,-304.33 1366.04,-275.74 1426.78,-250.83"/>
<polygon fill="black" stroke="black" points="1428.14,-254.06 1436.06,-247.03 1425.48,-247.59 1428.14,-254.06"/>
<text text-anchor="middle" x="1408.5" y="-268.8" font-family="Times New Roman,serif" font-size="14.00"> 0 &#45;&gt; 0 </text>
</g>
<!-- FakeQuantize_101 -->
<g id="node4" class="node">
<title>FakeQuantize_101</title>
<polygon fill="none" stroke="black" points="2064.5,-456 1772.5,-456 1772.5,-298 2064.5,-298 2064.5,-456"/>
<text text-anchor="middle" x="1918.5" y="-440.8" font-family="Times New Roman,serif" font-size="14.00">friendly_name: fakeQuantizeOnWeights</text>
<text text-anchor="middle" x="1918.5" y="-425.8" font-family="Times New Roman,serif" font-size="14.00">name: FakeQuantize_101</text>
<text text-anchor="middle" x="1918.5" y="-410.8" font-family="Times New Roman,serif" font-size="14.00">type_name: FakeQuantize</text>
<text text-anchor="middle" x="1918.5" y="-395.8" font-family="Times New Roman,serif" font-size="14.00">rt info: PRECISION_PRESERVED(value: false) </text>
<text text-anchor="middle" x="1918.5" y="-380.8" font-family="Times New Roman,serif" font-size="14.00">in0: {f32}[9,6,1,1]: Constant_96: out0</text>
<text text-anchor="middle" x="1918.5" y="-365.8" font-family="Times New Roman,serif" font-size="14.00">in1: {f32}[9,1,1,1]: Constant_97: out0</text>
<text text-anchor="middle" x="1918.5" y="-350.8" font-family="Times New Roman,serif" font-size="14.00">in2: {f32}[9,1,1,1]: Constant_98: out0</text>
<text text-anchor="middle" x="1918.5" y="-335.8" font-family="Times New Roman,serif" font-size="14.00">in3: {f32}[9,1,1,1]: Constant_99: out0</text>
<text text-anchor="middle" x="1918.5" y="-320.8" font-family="Times New Roman,serif" font-size="14.00">in4: {f32}[9,1,1,1]: Constant_100: out0</text>
<text text-anchor="middle" x="1918.5" y="-305.8" font-family="Times New Roman,serif" font-size="14.00">out0: {f32}[9,6,1,1]</text>
</g>
<!-- FakeQuantize_101&#45;&gt;Convolution_102 -->
<g id="edge3" class="edge">
<title>FakeQuantize_101&#45;&gt;Convolution_102</title>
<path fill="none" stroke="black" d="M1772.35,-298.29C1743.18,-282.78 1712.96,-266.71 1685.09,-251.9"/>
<polygon fill="black" stroke="black" points="1686.6,-248.73 1676.13,-247.13 1683.31,-254.92 1686.6,-248.73"/>
<text text-anchor="middle" x="1756.5" y="-268.8" font-family="Times New Roman,serif" font-size="14.00"> 0 &#45;&gt; 1 </text>
</g>
<!-- CLONE_0 -->
<g id="node5" class="node">
<title>CLONE_0</title>
<polygon fill="none" stroke="black" stroke-dasharray="5,2" points="1500,-620 1283,-620 1283,-507 1500,-507 1500,-620"/>
<text text-anchor="middle" x="1391.5" y="-604.8" font-family="Times New Roman,serif" font-size="14.00">friendly_name: Constant_96</text>
<text text-anchor="middle" x="1391.5" y="-589.8" font-family="Times New Roman,serif" font-size="14.00">type_name: Constant</text>
<text text-anchor="middle" x="1391.5" y="-574.8" font-family="Times New Roman,serif" font-size="14.00">{f32}[9,6,1,1]</text>
<text text-anchor="middle" x="1391.5" y="-559.8" font-family="Times New Roman,serif" font-size="14.00">value: [54, 54, 54, 54, 54, 54, 54, 54</text>
<text text-anchor="middle" x="1391.5" y="-544.8" font-family="Times New Roman,serif" font-size="14.00">, 54, 54, 54, 54, 54, 54, 54, 54</text>
<text text-anchor="middle" x="1391.5" y="-529.8" font-family="Times New Roman,serif" font-size="14.00">, 54, 54, 54, 54, 54, 54, 54, 54</text>
<text text-anchor="middle" x="1391.5" y="-514.8" font-family="Times New Roman,serif" font-size="14.00">, 54, 54, 54, 54, 54, 54, 54, 54...]</text>
</g>
<!-- CLONE_0&#45;&gt;FakeQuantize_101 -->
<g id="edge4" class="edge">
<title>CLONE_0&#45;&gt;FakeQuantize_101</title>
<path fill="none" stroke="black" d="M1500.27,-510.3C1503.03,-509.17 1505.78,-508.07 1508.5,-507 1590.94,-474.66 1685.05,-444.58 1762.3,-421.62"/>
<polygon fill="black" stroke="black" points="1763.52,-424.9 1772.12,-418.71 1761.54,-418.19 1763.52,-424.9"/>
<text text-anchor="middle" x="1618.5" y="-477.8" font-family="Times New Roman,serif" font-size="14.00"> 0 &#45;&gt; 0 </text>
</g>
<!-- CLONE_1 -->
<g id="node6" class="node">
<title>CLONE_1</title>
<polygon fill="none" stroke="black" stroke-dasharray="5,2" points="1855,-605 1518,-605 1518,-522 1855,-522 1855,-605"/>
<text text-anchor="middle" x="1686.5" y="-589.8" font-family="Times New Roman,serif" font-size="14.00">friendly_name: Constant_97</text>
<text text-anchor="middle" x="1686.5" y="-574.8" font-family="Times New Roman,serif" font-size="14.00">type_name: Constant</text>
<text text-anchor="middle" x="1686.5" y="-559.8" font-family="Times New Roman,serif" font-size="14.00">{f32}[9,1,1,1]</text>
<text text-anchor="middle" x="1686.5" y="-544.8" font-family="Times New Roman,serif" font-size="14.00">value: [&#45;1.27, &#45;1.27, &#45;1.27, &#45;1.27, &#45;1.27, &#45;1.27, &#45;1.27, &#45;1.27</text>
<text text-anchor="middle" x="1686.5" y="-529.8" font-family="Times New Roman,serif" font-size="14.00">, &#45;1.27]</text>
</g>
<!-- CLONE_1&#45;&gt;FakeQuantize_101 -->
<g id="edge5" class="edge">
<title>CLONE_1&#45;&gt;FakeQuantize_101</title>
<path fill="none" stroke="black" d="M1737.7,-521.78C1759.71,-504.28 1786.3,-483.13 1812.24,-462.5"/>
<polygon fill="black" stroke="black" points="1814.61,-465.09 1820.26,-456.12 1810.26,-459.61 1814.61,-465.09"/>
<text text-anchor="middle" x="1817.5" y="-477.8" font-family="Times New Roman,serif" font-size="14.00"> 0 &#45;&gt; 1 </text>
</g>
<!-- CLONE_2 -->
<g id="node7" class="node">
<title>CLONE_2</title>
<polygon fill="none" stroke="black" stroke-dasharray="5,2" points="2174,-605 1873,-605 1873,-522 2174,-522 2174,-605"/>
<text text-anchor="middle" x="2023.5" y="-589.8" font-family="Times New Roman,serif" font-size="14.00">friendly_name: Constant_98</text>
<text text-anchor="middle" x="2023.5" y="-574.8" font-family="Times New Roman,serif" font-size="14.00">type_name: Constant</text>
<text text-anchor="middle" x="2023.5" y="-559.8" font-family="Times New Roman,serif" font-size="14.00">{f32}[9,1,1,1]</text>
<text text-anchor="middle" x="2023.5" y="-544.8" font-family="Times New Roman,serif" font-size="14.00">value: [1.27, 1.27, 1.27, 1.27, 1.27, 1.27, 1.27, 1.27</text>
<text text-anchor="middle" x="2023.5" y="-529.8" font-family="Times New Roman,serif" font-size="14.00">, 1.27]</text>
</g>
<!-- CLONE_2&#45;&gt;FakeQuantize_101 -->
<g id="edge6" class="edge">
<title>CLONE_2&#45;&gt;FakeQuantize_101</title>
<path fill="none" stroke="black" d="M2000.2,-521.55C1990.67,-504.82 1979.26,-484.77 1968.04,-465.05"/>
<polygon fill="black" stroke="black" points="1971.06,-463.28 1963.07,-456.32 1964.98,-466.75 1971.06,-463.28"/>
<text text-anchor="middle" x="2001.5" y="-477.8" font-family="Times New Roman,serif" font-size="14.00"> 0 &#45;&gt; 2 </text>
</g>
<!-- CLONE_3 -->
<g id="node8" class="node">
<title>CLONE_3</title>
<polygon fill="none" stroke="black" stroke-dasharray="5,2" points="2529,-605 2192,-605 2192,-522 2529,-522 2529,-605"/>
<text text-anchor="middle" x="2360.5" y="-589.8" font-family="Times New Roman,serif" font-size="14.00">friendly_name: Constant_99</text>
<text text-anchor="middle" x="2360.5" y="-574.8" font-family="Times New Roman,serif" font-size="14.00">type_name: Constant</text>
<text text-anchor="middle" x="2360.5" y="-559.8" font-family="Times New Roman,serif" font-size="14.00">{f32}[9,1,1,1]</text>
<text text-anchor="middle" x="2360.5" y="-544.8" font-family="Times New Roman,serif" font-size="14.00">value: [&#45;1.27, &#45;1.27, &#45;1.27, &#45;1.27, &#45;1.27, &#45;1.27, &#45;1.27, &#45;1.27</text>
<text text-anchor="middle" x="2360.5" y="-529.8" font-family="Times New Roman,serif" font-size="14.00">, &#45;1.27]</text>
</g>
<!-- CLONE_3&#45;&gt;FakeQuantize_101 -->
<g id="edge7" class="edge">
<title>CLONE_3&#45;&gt;FakeQuantize_101</title>
<path fill="none" stroke="black" d="M2263.23,-521.9C2207.75,-498.74 2136.92,-469.18 2073.92,-442.88"/>
<polygon fill="black" stroke="black" points="2075.26,-439.64 2064.68,-439.02 2072.56,-446.1 2075.26,-439.64"/>
<text text-anchor="middle" x="2200.5" y="-477.8" font-family="Times New Roman,serif" font-size="14.00"> 0 &#45;&gt; 3 </text>
</g>
<!-- CLONE_4 -->
<g id="node9" class="node">
<title>CLONE_4</title>
<polygon fill="none" stroke="black" stroke-dasharray="5,2" points="2848,-605 2547,-605 2547,-522 2848,-522 2848,-605"/>
<text text-anchor="middle" x="2697.5" y="-589.8" font-family="Times New Roman,serif" font-size="14.00">friendly_name: Constant_100</text>
<text text-anchor="middle" x="2697.5" y="-574.8" font-family="Times New Roman,serif" font-size="14.00">type_name: Constant</text>
<text text-anchor="middle" x="2697.5" y="-559.8" font-family="Times New Roman,serif" font-size="14.00">{f32}[9,1,1,1]</text>
<text text-anchor="middle" x="2697.5" y="-544.8" font-family="Times New Roman,serif" font-size="14.00">value: [1.27, 1.27, 1.27, 1.27, 1.27, 1.27, 1.27, 1.27</text>
<text text-anchor="middle" x="2697.5" y="-529.8" font-family="Times New Roman,serif" font-size="14.00">, 1.27]</text>
</g>
<!-- CLONE_4&#45;&gt;FakeQuantize_101 -->
<g id="edge8" class="edge">
<title>CLONE_4&#45;&gt;FakeQuantize_101</title>
<path fill="none" stroke="black" d="M2586.61,-521.98C2570.25,-516.6 2553.51,-511.43 2537.5,-507 2381.82,-463.97 2200.6,-427.79 2074.64,-404.8"/>
<polygon fill="black" stroke="black" points="2075,-401.3 2064.53,-402.96 2073.74,-408.19 2075,-401.3"/>
<text text-anchor="middle" x="2475.5" y="-477.8" font-family="Times New Roman,serif" font-size="14.00"> 0 &#45;&gt; 4 </text>
</g>
<!-- MaxPool_86 -->
<g id="node10" class="node">
<title>MaxPool_86</title>
<polygon fill="none" stroke="black" points="919,-612.5 632,-612.5 632,-514.5 919,-514.5 919,-612.5"/>
<text text-anchor="middle" x="775.5" y="-597.3" font-family="Times New Roman,serif" font-size="14.00">friendly_name: maxPool1</text>
<text text-anchor="middle" x="775.5" y="-582.3" font-family="Times New Roman,serif" font-size="14.00">name: MaxPool_86</text>
<text text-anchor="middle" x="775.5" y="-567.3" font-family="Times New Roman,serif" font-size="14.00">type_name: MaxPool</text>
<text text-anchor="middle" x="775.5" y="-552.3" font-family="Times New Roman,serif" font-size="14.00">rt info: PRECISION_PRESERVED(value: true) </text>
<text text-anchor="middle" x="775.5" y="-537.3" font-family="Times New Roman,serif" font-size="14.00">in0: {f32}[1,3,9,9]: AvgPool_85: out0</text>
<text text-anchor="middle" x="775.5" y="-522.3" font-family="Times New Roman,serif" font-size="14.00">out0: {f32}[1,3,9,9]</text>
</g>
<!-- MaxPool_86&#45;&gt;Concat_95 -->
<g id="edge9" class="edge">
<title>MaxPool_86&#45;&gt;Concat_95</title>
<path fill="none" stroke="black" d="M865.96,-514.27C913.93,-488.69 972.96,-457.21 1022.2,-430.95"/>
<polygon fill="black" stroke="black" points="1024.1,-433.91 1031.27,-426.11 1020.8,-427.73 1024.1,-433.91"/>
<text text-anchor="middle" x="959.5" y="-477.8" font-family="Times New Roman,serif" font-size="14.00"> 0 &#45;&gt; 0 </text>
</g>
<!-- MaxPool_94 -->
<g id="node11" class="node">
<title>MaxPool_94</title>
<polygon fill="none" stroke="black" points="1265,-612.5 978,-612.5 978,-514.5 1265,-514.5 1265,-612.5"/>
<text text-anchor="middle" x="1121.5" y="-597.3" font-family="Times New Roman,serif" font-size="14.00">friendly_name: maxPool2</text>
<text text-anchor="middle" x="1121.5" y="-582.3" font-family="Times New Roman,serif" font-size="14.00">name: MaxPool_94</text>
<text text-anchor="middle" x="1121.5" y="-567.3" font-family="Times New Roman,serif" font-size="14.00">type_name: MaxPool</text>
<text text-anchor="middle" x="1121.5" y="-552.3" font-family="Times New Roman,serif" font-size="14.00">rt info: PRECISION_PRESERVED(value: true) </text>
<text text-anchor="middle" x="1121.5" y="-537.3" font-family="Times New Roman,serif" font-size="14.00">in0: {f32}[1,3,9,9]: AvgPool_93: out0</text>
<text text-anchor="middle" x="1121.5" y="-522.3" font-family="Times New Roman,serif" font-size="14.00">out0: {f32}[1,3,9,9]</text>
</g>
<!-- MaxPool_94&#45;&gt;Concat_95 -->
<g id="edge10" class="edge">
<title>MaxPool_94&#45;&gt;Concat_95</title>
<path fill="none" stroke="black" d="M1121.5,-514.02C1121.5,-490.19 1121.5,-461.28 1121.5,-436.25"/>
<polygon fill="black" stroke="black" points="1125,-436.15 1121.5,-426.15 1118,-436.15 1125,-436.15"/>
<text text-anchor="middle" x="1142.5" y="-477.8" font-family="Times New Roman,serif" font-size="14.00"> 0 &#45;&gt; 1 </text>
</g>
<!-- AvgPool_93 -->
<g id="node12" class="node">
<title>AvgPool_93</title>
<polygon fill="none" stroke="black" points="1306,-769 1019,-769 1019,-671 1306,-671 1306,-769"/>
<text text-anchor="middle" x="1162.5" y="-753.8" font-family="Times New Roman,serif" font-size="14.00">friendly_name: avgPool2</text>
<text text-anchor="middle" x="1162.5" y="-738.8" font-family="Times New Roman,serif" font-size="14.00">name: AvgPool_93</text>
<text text-anchor="middle" x="1162.5" y="-723.8" font-family="Times New Roman,serif" font-size="14.00">type_name: AvgPool</text>
<text text-anchor="middle" x="1162.5" y="-708.8" font-family="Times New Roman,serif" font-size="14.00">rt info: PRECISION_PRESERVED(value: true) </text>
<text text-anchor="middle" x="1162.5" y="-693.8" font-family="Times New Roman,serif" font-size="14.00">in0: {f32}[1,3,9,9]: FakeQuantize_92: out0</text>
<text text-anchor="middle" x="1162.5" y="-678.8" font-family="Times New Roman,serif" font-size="14.00">out0: {f32}[1,3,9,9]</text>
</g>
<!-- AvgPool_93&#45;&gt;MaxPool_94 -->
<g id="edge11" class="edge">
<title>AvgPool_93&#45;&gt;MaxPool_94</title>
<path fill="none" stroke="black" d="M1149.75,-670.96C1145.66,-655.56 1141.09,-638.33 1136.84,-622.31"/>
<polygon fill="black" stroke="black" points="1140.19,-621.28 1134.24,-612.51 1133.42,-623.07 1140.19,-621.28"/>
<text text-anchor="middle" x="1165.5" y="-641.8" font-family="Times New Roman,serif" font-size="14.00"> 0 &#45;&gt; 0 </text>
</g>
<!-- FakeQuantize_92 -->
<g id="node13" class="node">
<title>FakeQuantize_92</title>
<polygon fill="none" stroke="black" points="1485.5,-978 1193.5,-978 1193.5,-820 1485.5,-820 1485.5,-978"/>
<text text-anchor="middle" x="1339.5" y="-962.8" font-family="Times New Roman,serif" font-size="14.00">friendly_name: fakeQuantizeOnActivations2</text>
<text text-anchor="middle" x="1339.5" y="-947.8" font-family="Times New Roman,serif" font-size="14.00">name: FakeQuantize_92</text>
<text text-anchor="middle" x="1339.5" y="-932.8" font-family="Times New Roman,serif" font-size="14.00">type_name: FakeQuantize</text>
<text text-anchor="middle" x="1339.5" y="-917.8" font-family="Times New Roman,serif" font-size="14.00">rt info: PRECISION_PRESERVED(value: false) </text>
<text text-anchor="middle" x="1339.5" y="-902.8" font-family="Times New Roman,serif" font-size="14.00">in0: {f32}[1,3,9,9]: Parameter_79: out0</text>
<text text-anchor="middle" x="1339.5" y="-887.8" font-family="Times New Roman,serif" font-size="14.00">in1: {f32}[]: Constant_88: out0</text>
<text text-anchor="middle" x="1339.5" y="-872.8" font-family="Times New Roman,serif" font-size="14.00">in2: {f32}[]: Constant_89: out0</text>
<text text-anchor="middle" x="1339.5" y="-857.8" font-family="Times New Roman,serif" font-size="14.00">in3: {f32}[]: Constant_90: out0</text>
<text text-anchor="middle" x="1339.5" y="-842.8" font-family="Times New Roman,serif" font-size="14.00">in4: {f32}[]: Constant_91: out0</text>
<text text-anchor="middle" x="1339.5" y="-827.8" font-family="Times New Roman,serif" font-size="14.00">out0: {f32}[1,3,9,9]</text>
</g>
<!-- FakeQuantize_92&#45;&gt;AvgPool_93 -->
<g id="edge12" class="edge">
<title>FakeQuantize_92&#45;&gt;AvgPool_93</title>
<path fill="none" stroke="black" d="M1261.35,-819.85C1246.68,-805.18 1231.63,-790.13 1217.83,-776.33"/>
<polygon fill="black" stroke="black" points="1220.29,-773.84 1210.74,-769.24 1215.34,-778.79 1220.29,-773.84"/>
<text text-anchor="middle" x="1261.5" y="-790.8" font-family="Times New Roman,serif" font-size="14.00"> 0 &#45;&gt; 0 </text>
</g>
<!-- CLONE_5 -->
<g id="node14" class="node">
<title>CLONE_5</title>
<polygon fill="none" stroke="blue" stroke-dasharray="5,2" points="1140,-1089.5 961,-1089.5 961,-1036.5 1140,-1036.5 1140,-1089.5"/>
<text text-anchor="middle" x="1050.5" y="-1074.3" font-family="Times New Roman,serif" font-size="14.00">friendly_name: Parameter_79</text>
<text text-anchor="middle" x="1050.5" y="-1059.3" font-family="Times New Roman,serif" font-size="14.00">type_name: Parameter</text>
<text text-anchor="middle" x="1050.5" y="-1044.3" font-family="Times New Roman,serif" font-size="14.00">{f32}[1,3,9,9]</text>
</g>
<!-- CLONE_5&#45;&gt;FakeQuantize_92 -->
<g id="edge13" class="edge">
<title>CLONE_5&#45;&gt;FakeQuantize_92</title>
<path fill="none" stroke="black" d="M1096.29,-1036.33C1122.41,-1021.69 1156.77,-1002.43 1191.4,-983.02"/>
<polygon fill="black" stroke="black" points="1193.2,-986.02 1200.21,-978.08 1189.77,-979.92 1193.2,-986.02"/>
<text text-anchor="middle" x="1182.5" y="-999.8" font-family="Times New Roman,serif" font-size="14.00"> 0 &#45;&gt; 0 </text>
</g>
<!-- CLONE_6 -->
<g id="node15" class="node">
<title>CLONE_6</title>
<polygon fill="none" stroke="black" stroke-dasharray="5,2" points="1331,-1097 1158,-1097 1158,-1029 1331,-1029 1331,-1097"/>
<text text-anchor="middle" x="1244.5" y="-1081.8" font-family="Times New Roman,serif" font-size="14.00">friendly_name: Constant_88</text>
<text text-anchor="middle" x="1244.5" y="-1066.8" font-family="Times New Roman,serif" font-size="14.00">type_name: Constant</text>
<text text-anchor="middle" x="1244.5" y="-1051.8" font-family="Times New Roman,serif" font-size="14.00">{f32}[]</text>
<text text-anchor="middle" x="1244.5" y="-1036.8" font-family="Times New Roman,serif" font-size="14.00">value: [&#45;0.64]</text>
</g>
<!-- CLONE_6&#45;&gt;FakeQuantize_92 -->
<g id="edge14" class="edge">
<title>CLONE_6&#45;&gt;FakeQuantize_92</title>
<path fill="none" stroke="black" d="M1263.95,-1028.83C1271.17,-1016.52 1279.73,-1001.92 1288.45,-987.05"/>
<polygon fill="black" stroke="black" points="1291.55,-988.68 1293.59,-978.28 1285.52,-985.14 1291.55,-988.68"/>
<text text-anchor="middle" x="1302.5" y="-999.8" font-family="Times New Roman,serif" font-size="14.00"> 0 &#45;&gt; 1 </text>
</g>
<!-- CLONE_7 -->
<g id="node16" class="node">
<title>CLONE_7</title>
<polygon fill="none" stroke="black" stroke-dasharray="5,2" points="1522,-1097 1349,-1097 1349,-1029 1522,-1029 1522,-1097"/>
<text text-anchor="middle" x="1435.5" y="-1081.8" font-family="Times New Roman,serif" font-size="14.00">friendly_name: Constant_89</text>
<text text-anchor="middle" x="1435.5" y="-1066.8" font-family="Times New Roman,serif" font-size="14.00">type_name: Constant</text>
<text text-anchor="middle" x="1435.5" y="-1051.8" font-family="Times New Roman,serif" font-size="14.00">{f32}[]</text>
<text text-anchor="middle" x="1435.5" y="-1036.8" font-family="Times New Roman,serif" font-size="14.00">value: [0.635]</text>
</g>
<!-- CLONE_7&#45;&gt;FakeQuantize_92 -->
<g id="edge15" class="edge">
<title>CLONE_7&#45;&gt;FakeQuantize_92</title>
<path fill="none" stroke="black" d="M1415.84,-1028.83C1408.55,-1016.52 1399.9,-1001.92 1391.09,-987.05"/>
<polygon fill="black" stroke="black" points="1394,-985.1 1385.89,-978.28 1387.98,-988.67 1394,-985.1"/>
<text text-anchor="middle" x="1425.5" y="-999.8" font-family="Times New Roman,serif" font-size="14.00"> 0 &#45;&gt; 2 </text>
</g>
<!-- CLONE_8 -->
<g id="node17" class="node">
<title>CLONE_8</title>
<polygon fill="none" stroke="black" stroke-dasharray="5,2" points="1713,-1097 1540,-1097 1540,-1029 1713,-1029 1713,-1097"/>
<text text-anchor="middle" x="1626.5" y="-1081.8" font-family="Times New Roman,serif" font-size="14.00">friendly_name: Constant_90</text>
<text text-anchor="middle" x="1626.5" y="-1066.8" font-family="Times New Roman,serif" font-size="14.00">type_name: Constant</text>
<text text-anchor="middle" x="1626.5" y="-1051.8" font-family="Times New Roman,serif" font-size="14.00">{f32}[]</text>
<text text-anchor="middle" x="1626.5" y="-1036.8" font-family="Times New Roman,serif" font-size="14.00">value: [&#45;0.64]</text>
</g>
<!-- CLONE_8&#45;&gt;FakeQuantize_92 -->
<g id="edge16" class="edge">
<title>CLONE_8&#45;&gt;FakeQuantize_92</title>
<path fill="none" stroke="black" d="M1567.73,-1028.83C1544.02,-1015.45 1515.51,-999.35 1486.8,-983.14"/>
<polygon fill="black" stroke="black" points="1488.32,-979.98 1477.89,-978.11 1484.87,-986.08 1488.32,-979.98"/>
<text text-anchor="middle" x="1555.5" y="-999.8" font-family="Times New Roman,serif" font-size="14.00"> 0 &#45;&gt; 3 </text>
</g>
<!-- CLONE_9 -->
<g id="node18" class="node">
<title>CLONE_9</title>
<polygon fill="none" stroke="black" stroke-dasharray="5,2" points="1904,-1097 1731,-1097 1731,-1029 1904,-1029 1904,-1097"/>
<text text-anchor="middle" x="1817.5" y="-1081.8" font-family="Times New Roman,serif" font-size="14.00">friendly_name: Constant_91</text>
<text text-anchor="middle" x="1817.5" y="-1066.8" font-family="Times New Roman,serif" font-size="14.00">type_name: Constant</text>
<text text-anchor="middle" x="1817.5" y="-1051.8" font-family="Times New Roman,serif" font-size="14.00">{f32}[]</text>
<text text-anchor="middle" x="1817.5" y="-1036.8" font-family="Times New Roman,serif" font-size="14.00">value: [0.635]</text>
</g>
<!-- CLONE_9&#45;&gt;FakeQuantize_92 -->
<g id="edge17" class="edge">
<title>CLONE_9&#45;&gt;FakeQuantize_92</title>
<path fill="none" stroke="black" d="M1730.9,-1032.21C1727.73,-1031.12 1724.59,-1030.05 1721.5,-1029 1647.14,-1003.67 1564.57,-975.75 1495.27,-952.39"/>
<polygon fill="black" stroke="black" points="1496.18,-949 1485.59,-949.13 1493.94,-955.64 1496.18,-949"/>
<text text-anchor="middle" x="1680.5" y="-999.8" font-family="Times New Roman,serif" font-size="14.00"> 0 &#45;&gt; 4 </text>
</g>
<!-- AvgPool_85 -->
<g id="node19" class="node">
<title>AvgPool_85</title>
<polygon fill="none" stroke="black" points="919,-769 632,-769 632,-671 919,-671 919,-769"/>
<text text-anchor="middle" x="775.5" y="-753.8" font-family="Times New Roman,serif" font-size="14.00">friendly_name: avgPool1</text>
<text text-anchor="middle" x="775.5" y="-738.8" font-family="Times New Roman,serif" font-size="14.00">name: AvgPool_85</text>
<text text-anchor="middle" x="775.5" y="-723.8" font-family="Times New Roman,serif" font-size="14.00">type_name: AvgPool</text>
<text text-anchor="middle" x="775.5" y="-708.8" font-family="Times New Roman,serif" font-size="14.00">rt info: PRECISION_PRESERVED(value: true) </text>
<text text-anchor="middle" x="775.5" y="-693.8" font-family="Times New Roman,serif" font-size="14.00">in0: {f32}[1,3,9,9]: FakeQuantize_84: out0</text>
<text text-anchor="middle" x="775.5" y="-678.8" font-family="Times New Roman,serif" font-size="14.00">out0: {f32}[1,3,9,9]</text>
</g>
<!-- AvgPool_85&#45;&gt;MaxPool_86 -->
<g id="edge18" class="edge">
<title>AvgPool_85&#45;&gt;MaxPool_86</title>
<path fill="none" stroke="black" d="M775.5,-670.96C775.5,-655.7 775.5,-638.66 775.5,-622.76"/>
<polygon fill="black" stroke="black" points="779,-622.51 775.5,-612.51 772,-622.51 779,-622.51"/>
<text text-anchor="middle" x="796.5" y="-641.8" font-family="Times New Roman,serif" font-size="14.00"> 0 &#45;&gt; 0 </text>
</g>
<!-- FakeQuantize_84 -->
<g id="node20" class="node">
<title>FakeQuantize_84</title>
<polygon fill="none" stroke="black" points="716.5,-978 424.5,-978 424.5,-820 716.5,-820 716.5,-978"/>
<text text-anchor="middle" x="570.5" y="-962.8" font-family="Times New Roman,serif" font-size="14.00">friendly_name: fakeQuantizeOnActivations1</text>
<text text-anchor="middle" x="570.5" y="-947.8" font-family="Times New Roman,serif" font-size="14.00">name: FakeQuantize_84</text>
<text text-anchor="middle" x="570.5" y="-932.8" font-family="Times New Roman,serif" font-size="14.00">type_name: FakeQuantize</text>
<text text-anchor="middle" x="570.5" y="-917.8" font-family="Times New Roman,serif" font-size="14.00">rt info: PRECISION_PRESERVED(value: false) </text>
<text text-anchor="middle" x="570.5" y="-902.8" font-family="Times New Roman,serif" font-size="14.00">in0: {f32}[1,3,9,9]: Parameter_79: out0</text>
<text text-anchor="middle" x="570.5" y="-887.8" font-family="Times New Roman,serif" font-size="14.00">in1: {f32}[]: Constant_80: out0</text>
<text text-anchor="middle" x="570.5" y="-872.8" font-family="Times New Roman,serif" font-size="14.00">in2: {f32}[]: Constant_81: out0</text>
<text text-anchor="middle" x="570.5" y="-857.8" font-family="Times New Roman,serif" font-size="14.00">in3: {f32}[]: Constant_82: out0</text>
<text text-anchor="middle" x="570.5" y="-842.8" font-family="Times New Roman,serif" font-size="14.00">in4: {f32}[]: Constant_83: out0</text>
<text text-anchor="middle" x="570.5" y="-827.8" font-family="Times New Roman,serif" font-size="14.00">out0: {f32}[1,3,9,9]</text>
</g>
<!-- FakeQuantize_84&#45;&gt;AvgPool_85 -->
<g id="edge19" class="edge">
<title>FakeQuantize_84&#45;&gt;AvgPool_85</title>
<path fill="none" stroke="black" d="M661.01,-819.85C678.16,-805.05 695.76,-789.85 711.85,-775.95"/>
<polygon fill="black" stroke="black" points="714.35,-778.43 719.63,-769.24 709.77,-773.13 714.35,-778.43"/>
<text text-anchor="middle" x="718.5" y="-790.8" font-family="Times New Roman,serif" font-size="14.00"> 0 &#45;&gt; 0 </text>
</g>
<!-- CLONE_10 -->
<g id="node21" class="node">
<title>CLONE_10</title>
<polygon fill="none" stroke="blue" stroke-dasharray="5,2" points="179,-1089.5 0,-1089.5 0,-1036.5 179,-1036.5 179,-1089.5"/>
<text text-anchor="middle" x="89.5" y="-1074.3" font-family="Times New Roman,serif" font-size="14.00">friendly_name: Parameter_79</text>
<text text-anchor="middle" x="89.5" y="-1059.3" font-family="Times New Roman,serif" font-size="14.00">type_name: Parameter</text>
<text text-anchor="middle" x="89.5" y="-1044.3" font-family="Times New Roman,serif" font-size="14.00">{f32}[1,3,9,9]</text>
</g>
<!-- CLONE_10&#45;&gt;FakeQuantize_84 -->
<g id="edge20" class="edge">
<title>CLONE_10&#45;&gt;FakeQuantize_84</title>
<path fill="none" stroke="black" d="M165.45,-1036.42C232.11,-1013.97 331.17,-980.61 414.64,-952.49"/>
<polygon fill="black" stroke="black" points="415.85,-955.78 424.21,-949.27 413.62,-949.14 415.85,-955.78"/>
<text text-anchor="middle" x="294.5" y="-999.8" font-family="Times New Roman,serif" font-size="14.00"> 0 &#45;&gt; 0 </text>
</g>
<!-- CLONE_11 -->
<g id="node22" class="node">
<title>CLONE_11</title>
<polygon fill="none" stroke="black" stroke-dasharray="5,2" points="370,-1097 197,-1097 197,-1029 370,-1029 370,-1097"/>
<text text-anchor="middle" x="283.5" y="-1081.8" font-family="Times New Roman,serif" font-size="14.00">friendly_name: Constant_80</text>
<text text-anchor="middle" x="283.5" y="-1066.8" font-family="Times New Roman,serif" font-size="14.00">type_name: Constant</text>
<text text-anchor="middle" x="283.5" y="-1051.8" font-family="Times New Roman,serif" font-size="14.00">{f32}[]</text>
<text text-anchor="middle" x="283.5" y="-1036.8" font-family="Times New Roman,serif" font-size="14.00">value: [&#45;1.28]</text>
</g>
<!-- CLONE_11&#45;&gt;FakeQuantize_84 -->
<g id="edge21" class="edge">
<title>CLONE_11&#45;&gt;FakeQuantize_84</title>
<path fill="none" stroke="black" d="M342.27,-1028.83C365.98,-1015.45 394.49,-999.35 423.2,-983.14"/>
<polygon fill="black" stroke="black" points="425.13,-986.08 432.11,-978.11 421.68,-979.98 425.13,-986.08"/>
<text text-anchor="middle" x="414.5" y="-999.8" font-family="Times New Roman,serif" font-size="14.00"> 0 &#45;&gt; 1 </text>
</g>
<!-- CLONE_12 -->
<g id="node23" class="node">
<title>CLONE_12</title>
<polygon fill="none" stroke="black" stroke-dasharray="5,2" points="561,-1097 388,-1097 388,-1029 561,-1029 561,-1097"/>
<text text-anchor="middle" x="474.5" y="-1081.8" font-family="Times New Roman,serif" font-size="14.00">friendly_name: Constant_81</text>
<text text-anchor="middle" x="474.5" y="-1066.8" font-family="Times New Roman,serif" font-size="14.00">type_name: Constant</text>
<text text-anchor="middle" x="474.5" y="-1051.8" font-family="Times New Roman,serif" font-size="14.00">{f32}[]</text>
<text text-anchor="middle" x="474.5" y="-1036.8" font-family="Times New Roman,serif" font-size="14.00">value: [1.27]</text>
</g>
<!-- CLONE_12&#45;&gt;FakeQuantize_84 -->
<g id="edge22" class="edge">
<title>CLONE_12&#45;&gt;FakeQuantize_84</title>
<path fill="none" stroke="black" d="M494.16,-1028.83C501.45,-1016.52 510.1,-1001.92 518.91,-987.05"/>
<polygon fill="black" stroke="black" points="522.02,-988.67 524.11,-978.28 516,-985.1 522.02,-988.67"/>
<text text-anchor="middle" x="532.5" y="-999.8" font-family="Times New Roman,serif" font-size="14.00"> 0 &#45;&gt; 2 </text>
</g>
<!-- CLONE_13 -->
<g id="node24" class="node">
<title>CLONE_13</title>
<polygon fill="none" stroke="black" stroke-dasharray="5,2" points="752,-1097 579,-1097 579,-1029 752,-1029 752,-1097"/>
<text text-anchor="middle" x="665.5" y="-1081.8" font-family="Times New Roman,serif" font-size="14.00">friendly_name: Constant_82</text>
<text text-anchor="middle" x="665.5" y="-1066.8" font-family="Times New Roman,serif" font-size="14.00">type_name: Constant</text>
<text text-anchor="middle" x="665.5" y="-1051.8" font-family="Times New Roman,serif" font-size="14.00">{f32}[]</text>
<text text-anchor="middle" x="665.5" y="-1036.8" font-family="Times New Roman,serif" font-size="14.00">value: [&#45;1.28]</text>
</g>
<!-- CLONE_13&#45;&gt;FakeQuantize_84 -->
<g id="edge23" class="edge">
<title>CLONE_13&#45;&gt;FakeQuantize_84</title>
<path fill="none" stroke="black" d="M646.05,-1028.83C638.83,-1016.52 630.27,-1001.92 621.55,-987.05"/>
<polygon fill="black" stroke="black" points="624.48,-985.14 616.41,-978.28 618.45,-988.68 624.48,-985.14"/>
<text text-anchor="middle" x="656.5" y="-999.8" font-family="Times New Roman,serif" font-size="14.00"> 0 &#45;&gt; 3 </text>
</g>
<!-- CLONE_14 -->
<g id="node25" class="node">
<title>CLONE_14</title>
<polygon fill="none" stroke="black" stroke-dasharray="5,2" points="943,-1097 770,-1097 770,-1029 943,-1029 943,-1097"/>
<text text-anchor="middle" x="856.5" y="-1081.8" font-family="Times New Roman,serif" font-size="14.00">friendly_name: Constant_83</text>
<text text-anchor="middle" x="856.5" y="-1066.8" font-family="Times New Roman,serif" font-size="14.00">type_name: Constant</text>
<text text-anchor="middle" x="856.5" y="-1051.8" font-family="Times New Roman,serif" font-size="14.00">{f32}[]</text>
<text text-anchor="middle" x="856.5" y="-1036.8" font-family="Times New Roman,serif" font-size="14.00">value: [1.27]</text>
</g>
<!-- CLONE_14&#45;&gt;FakeQuantize_84 -->
<g id="edge24" class="edge">
<title>CLONE_14&#45;&gt;FakeQuantize_84</title>
<path fill="none" stroke="black" d="M797.93,-1028.83C774.31,-1015.45 745.9,-999.35 717.29,-983.14"/>
<polygon fill="black" stroke="black" points="718.83,-980 708.4,-978.11 715.38,-986.09 718.83,-980"/>
<text text-anchor="middle" x="785.5" y="-999.8" font-family="Times New Roman,serif" font-size="14.00"> 0 &#45;&gt; 4 </text>
</g>
</g>
</svg>
