<?xml version="1.0" encoding="UTF-8" standalone="no"?>
<!DOCTYPE svg PUBLIC "-//W3C//DTD SVG 1.1//EN"
 "http://www.w3.org/Graphics/SVG/1.1/DTD/svg11.dtd">
<!-- Generated by graphviz version 2.43.20200408.0903 (20200408.0903)
 -->
<!-- Title: ngraph Pages: 1 -->
<svg width="2978pt" height="1150pt"
 viewBox="0.00 0.00 2978.00 1150.00" xmlns="http://www.w3.org/2000/svg" xmlns:xlink="http://www.w3.org/1999/xlink">
<g id="graph0" class="graph" transform="scale(1 1) rotate(0) translate(4 1146)">
<title>ngraph</title>
<polygon fill="white" stroke="transparent" points="-4,4 -4,-1146 2974,-1146 2974,4 -4,4"/>
<!-- Convolution_102 -->
<g id="node1" class="node">
<title>Convolution_102</title>
<polygon fill="none" stroke="black" points="1848.5,-247 1466.5,-247 1466.5,-134 1848.5,-134 1848.5,-247"/>
<text text-anchor="middle" x="1657.5" y="-231.8" font-family="Times New Roman,serif" font-size="14.00">friendly_name: output</text>
<text text-anchor="middle" x="1657.5" y="-216.8" font-family="Times New Roman,serif" font-size="14.00">name: Convolution_102</text>
<text text-anchor="middle" x="1657.5" y="-201.8" font-family="Times New Roman,serif" font-size="14.00">type_name: Convolution</text>
<text text-anchor="middle" x="1657.5" y="-186.8" font-family="Times New Roman,serif" font-size="14.00">rt info: PRECISION_PRESERVED(value: false) </text>
<text text-anchor="middle" x="1657.5" y="-171.8" font-family="Times New Roman,serif" font-size="14.00">in0: {f32}[1,6,9,9]: Concat_95: out0 PRECISIONS({u8}) </text>
<text text-anchor="middle" x="1657.5" y="-156.8" font-family="Times New Roman,serif" font-size="14.00">in1: {f32}[9,6,1,1]: FakeQuantize_101: out0 PRECISIONS({i8}) </text>
<text text-anchor="middle" x="1657.5" y="-141.8" font-family="Times New Roman,serif" font-size="14.00">out0: {f32}[1,9,9,9]</text>
</g>
<!-- Result_103 -->
<g id="node2" class="node">
<title>Result_103</title>
<polygon fill="none" stroke="crimson" stroke-width="1.5" points="1803.5,-83 1511.5,-83 1511.5,0 1803.5,0 1803.5,-83"/>
<text text-anchor="middle" x="1657.5" y="-67.8" font-family="Times New Roman,serif" font-size="14.00">friendly_name: Result_103</text>
<text text-anchor="middle" x="1657.5" y="-52.8" font-family="Times New Roman,serif" font-size="14.00">type_name: Result</text>
<text text-anchor="middle" x="1657.5" y="-37.8" font-family="Times New Roman,serif" font-size="14.00">rt info: PRECISION_PRESERVED(value: false) </text>
<text text-anchor="middle" x="1657.5" y="-22.8" font-family="Times New Roman,serif" font-size="14.00">in0: {f32}[1,9,9,9]: Convolution_102: out0</text>
<text text-anchor="middle" x="1657.5" y="-7.8" font-family="Times New Roman,serif" font-size="14.00">out0: {f32}[1,9,9,9]</text>
</g>
<!-- Convolution_102&#45;&gt;Result_103 -->
<g id="edge1" class="edge">
<title>Convolution_102&#45;&gt;Result_103</title>
<path fill="none" stroke="black" d="M1657.5,-133.93C1657.5,-120.58 1657.5,-106.4 1657.5,-93.28"/>
<polygon fill="black" stroke="black" points="1661,-93.03 1657.5,-83.03 1654,-93.03 1661,-93.03"/>
<text text-anchor="middle" x="1678.5" y="-104.8" font-family="Times New Roman,serif" font-size="14.00"> 0 &#45;&gt; 0 </text>
</g>
<!-- Concat_95 -->
<g id="node3" class="node">
<title>Concat_95</title>
<polygon fill="none" stroke="black" points="1386.5,-441 956.5,-441 956.5,-328 1386.5,-328 1386.5,-441"/>
<text text-anchor="middle" x="1171.5" y="-425.8" font-family="Times New Roman,serif" font-size="14.00">friendly_name: Concat_95</text>
<text text-anchor="middle" x="1171.5" y="-410.8" font-family="Times New Roman,serif" font-size="14.00">type_name: Concat</text>
<text text-anchor="middle" x="1171.5" y="-395.8" font-family="Times New Roman,serif" font-size="14.00">rt info: PRECISION_PRESERVED(value: true, operation: FakeQuantize) </text>
<text text-anchor="middle" x="1171.5" y="-380.8" font-family="Times New Roman,serif" font-size="14.00">QUANTIZATION_ALIGNMENT(low: &#45;1.280000, high: 1.270000) </text>
<text text-anchor="middle" x="1171.5" y="-365.8" font-family="Times New Roman,serif" font-size="14.00">in0: {f32}[1,3,9,9]: MaxPool_86: out0 PRECISIONS({u8}) </text>
<text text-anchor="middle" x="1171.5" y="-350.8" font-family="Times New Roman,serif" font-size="14.00">in1: {f32}[1,3,9,9]: MaxPool_94: out0 PRECISIONS({u8}) </text>
<text text-anchor="middle" x="1171.5" y="-335.8" font-family="Times New Roman,serif" font-size="14.00">out0: {f32}[1,6,9,9]</text>
</g>
<!-- Concat_95&#45;&gt;Convolution_102 -->
<g id="edge2" class="edge">
<title>Concat_95&#45;&gt;Convolution_102</title>
<path fill="none" stroke="black" d="M1312.07,-327.97C1373.27,-303.79 1445.07,-275.42 1507.32,-250.83"/>
<polygon fill="black" stroke="black" points="1508.81,-254.01 1516.82,-247.08 1506.24,-247.49 1508.81,-254.01"/>
<text text-anchor="middle" x="1479.5" y="-268.8" font-family="Times New Roman,serif" font-size="14.00"> 0 &#45;&gt; 0 </text>
</g>
<!-- FakeQuantize_101 -->
<g id="node4" class="node">
<title>FakeQuantize_101</title>
<polygon fill="none" stroke="black" points="2229,-471 1834,-471 1834,-298 2229,-298 2229,-471"/>
<text text-anchor="middle" x="2031.5" y="-455.8" font-family="Times New Roman,serif" font-size="14.00">friendly_name: fakeQuantizeOnWeights</text>
<text text-anchor="middle" x="2031.5" y="-440.8" font-family="Times New Roman,serif" font-size="14.00">name: FakeQuantize_101</text>
<text text-anchor="middle" x="2031.5" y="-425.8" font-family="Times New Roman,serif" font-size="14.00">type_name: FakeQuantize</text>
<text text-anchor="middle" x="2031.5" y="-410.8" font-family="Times New Roman,serif" font-size="14.00">rt info: PRECISION_PRESERVED(value: false) </text>
<text text-anchor="middle" x="2031.5" y="-395.8" font-family="Times New Roman,serif" font-size="14.00">QUANTIZATION_ALIGNMENT(low: &#45;1.270000, high: 1.270000) </text>
<text text-anchor="middle" x="2031.5" y="-380.8" font-family="Times New Roman,serif" font-size="14.00">in0: {f32}[9,6,1,1]: Constant_96: out0</text>
<text text-anchor="middle" x="2031.5" y="-365.8" font-family="Times New Roman,serif" font-size="14.00">in1: {f32}[9,1,1,1]: Constant_97: out0</text>
<text text-anchor="middle" x="2031.5" y="-350.8" font-family="Times New Roman,serif" font-size="14.00">in2: {f32}[9,1,1,1]: Constant_98: out0</text>
<text text-anchor="middle" x="2031.5" y="-335.8" font-family="Times New Roman,serif" font-size="14.00">in3: {f32}[9,1,1,1]: Constant_99: out0</text>
<text text-anchor="middle" x="2031.5" y="-320.8" font-family="Times New Roman,serif" font-size="14.00">in4: {f32}[9,1,1,1]: Constant_100: out0</text>
<text text-anchor="middle" x="2031.5" y="-305.8" font-family="Times New Roman,serif" font-size="14.00">out0: {f32}[9,6,1,1] PRECISIONS({i8}) </text>
</g>
<!-- FakeQuantize_101&#45;&gt;Convolution_102 -->
<g id="edge3" class="edge">
<title>FakeQuantize_101&#45;&gt;Convolution_102</title>
<path fill="none" stroke="black" d="M1864.74,-297.89C1834.42,-282.32 1803.38,-266.39 1774.86,-251.75"/>
<polygon fill="black" stroke="black" points="1776.19,-248.5 1765.69,-247.04 1772.99,-254.72 1776.19,-248.5"/>
<text text-anchor="middle" x="1843.5" y="-268.8" font-family="Times New Roman,serif" font-size="14.00"> 0 &#45;&gt; 1 </text>
</g>
<!-- CLONE_0 -->
<g id="node5" class="node">
<title>CLONE_0</title>
<polygon fill="none" stroke="black" stroke-dasharray="5,2" points="1622,-635 1405,-635 1405,-522 1622,-522 1622,-635"/>
<text text-anchor="middle" x="1513.5" y="-619.8" font-family="Times New Roman,serif" font-size="14.00">friendly_name: Constant_96</text>
<text text-anchor="middle" x="1513.5" y="-604.8" font-family="Times New Roman,serif" font-size="14.00">type_name: Constant</text>
<text text-anchor="middle" x="1513.5" y="-589.8" font-family="Times New Roman,serif" font-size="14.00">{f32}[9,6,1,1]</text>
<text text-anchor="middle" x="1513.5" y="-574.8" font-family="Times New Roman,serif" font-size="14.00">value: [54, 54, 54, 54, 54, 54, 54, 54</text>
<text text-anchor="middle" x="1513.5" y="-559.8" font-family="Times New Roman,serif" font-size="14.00">, 54, 54, 54, 54, 54, 54, 54, 54</text>
<text text-anchor="middle" x="1513.5" y="-544.8" font-family="Times New Roman,serif" font-size="14.00">, 54, 54, 54, 54, 54, 54, 54, 54</text>
<text text-anchor="middle" x="1513.5" y="-529.8" font-family="Times New Roman,serif" font-size="14.00">, 54, 54, 54, 54, 54, 54, 54, 54...]</text>
</g>
<!-- CLONE_0&#45;&gt;FakeQuantize_101 -->
<g id="edge4" class="edge">
<title>CLONE_0&#45;&gt;FakeQuantize_101</title>
<path fill="none" stroke="black" d="M1622.31,-525.39C1625.06,-524.23 1627.79,-523.1 1630.5,-522 1692.64,-496.78 1761.4,-472.21 1824.17,-451.02"/>
<polygon fill="black" stroke="black" points="1825.42,-454.29 1833.78,-447.79 1823.19,-447.66 1825.42,-454.29"/>
<text text-anchor="middle" x="1727.5" y="-492.8" font-family="Times New Roman,serif" font-size="14.00"> 0 &#45;&gt; 0 </text>
</g>
<!-- CLONE_1 -->
<g id="node6" class="node">
<title>CLONE_1</title>
<polygon fill="none" stroke="black" stroke-dasharray="5,2" points="1977,-620 1640,-620 1640,-537 1977,-537 1977,-620"/>
<text text-anchor="middle" x="1808.5" y="-604.8" font-family="Times New Roman,serif" font-size="14.00">friendly_name: Constant_97</text>
<text text-anchor="middle" x="1808.5" y="-589.8" font-family="Times New Roman,serif" font-size="14.00">type_name: Constant</text>
<text text-anchor="middle" x="1808.5" y="-574.8" font-family="Times New Roman,serif" font-size="14.00">{f32}[9,1,1,1]</text>
<text text-anchor="middle" x="1808.5" y="-559.8" font-family="Times New Roman,serif" font-size="14.00">value: [&#45;1.27, &#45;1.27, &#45;1.27, &#45;1.27, &#45;1.27, &#45;1.27, &#45;1.27, &#45;1.27</text>
<text text-anchor="middle" x="1808.5" y="-544.8" font-family="Times New Roman,serif" font-size="14.00">, &#45;1.27]</text>
</g>
<!-- CLONE_1&#45;&gt;FakeQuantize_101 -->
<g id="edge5" class="edge">
<title>CLONE_1&#45;&gt;FakeQuantize_101</title>
<path fill="none" stroke="black" d="M1855.79,-536.78C1875.87,-519.5 1900.15,-498.59 1924.18,-477.9"/>
<polygon fill="black" stroke="black" points="1926.67,-480.38 1931.96,-471.2 1922.1,-475.07 1926.67,-480.38"/>
<text text-anchor="middle" x="1928.5" y="-492.8" font-family="Times New Roman,serif" font-size="14.00"> 0 &#45;&gt; 1 </text>
</g>
<!-- CLONE_2 -->
<g id="node7" class="node">
<title>CLONE_2</title>
<polygon fill="none" stroke="black" stroke-dasharray="5,2" points="2296,-620 1995,-620 1995,-537 2296,-537 2296,-620"/>
<text text-anchor="middle" x="2145.5" y="-604.8" font-family="Times New Roman,serif" font-size="14.00">friendly_name: Constant_98</text>
<text text-anchor="middle" x="2145.5" y="-589.8" font-family="Times New Roman,serif" font-size="14.00">type_name: Constant</text>
<text text-anchor="middle" x="2145.5" y="-574.8" font-family="Times New Roman,serif" font-size="14.00">{f32}[9,1,1,1]</text>
<text text-anchor="middle" x="2145.5" y="-559.8" font-family="Times New Roman,serif" font-size="14.00">value: [1.27, 1.27, 1.27, 1.27, 1.27, 1.27, 1.27, 1.27</text>
<text text-anchor="middle" x="2145.5" y="-544.8" font-family="Times New Roman,serif" font-size="14.00">, 1.27]</text>
</g>
<!-- CLONE_2&#45;&gt;FakeQuantize_101 -->
<g id="edge6" class="edge">
<title>CLONE_2&#45;&gt;FakeQuantize_101</title>
<path fill="none" stroke="black" d="M2121.32,-536.78C2111.42,-520.1 2099.5,-500.03 2087.64,-480.05"/>
<polygon fill="black" stroke="black" points="2090.5,-478.01 2082.38,-471.2 2084.48,-481.58 2090.5,-478.01"/>
<text text-anchor="middle" x="2120.5" y="-492.8" font-family="Times New Roman,serif" font-size="14.00"> 0 &#45;&gt; 2 </text>
</g>
<!-- CLONE_3 -->
<g id="node8" class="node">
<title>CLONE_3</title>
<polygon fill="none" stroke="black" stroke-dasharray="5,2" points="2651,-620 2314,-620 2314,-537 2651,-537 2651,-620"/>
<text text-anchor="middle" x="2482.5" y="-604.8" font-family="Times New Roman,serif" font-size="14.00">friendly_name: Constant_99</text>
<text text-anchor="middle" x="2482.5" y="-589.8" font-family="Times New Roman,serif" font-size="14.00">type_name: Constant</text>
<text text-anchor="middle" x="2482.5" y="-574.8" font-family="Times New Roman,serif" font-size="14.00">{f32}[9,1,1,1]</text>
<text text-anchor="middle" x="2482.5" y="-559.8" font-family="Times New Roman,serif" font-size="14.00">value: [&#45;1.27, &#45;1.27, &#45;1.27, &#45;1.27, &#45;1.27, &#45;1.27, &#45;1.27, &#45;1.27</text>
<text text-anchor="middle" x="2482.5" y="-544.8" font-family="Times New Roman,serif" font-size="14.00">, &#45;1.27]</text>
</g>
<!-- CLONE_3&#45;&gt;FakeQuantize_101 -->
<g id="edge7" class="edge">
<title>CLONE_3&#45;&gt;FakeQuantize_101</title>
<path fill="none" stroke="black" d="M2387.13,-536.9C2343.72,-518.42 2290.54,-495.78 2238.65,-473.69"/>
<polygon fill="black" stroke="black" points="2239.9,-470.41 2229.32,-469.72 2237.15,-476.86 2239.9,-470.41"/>
<text text-anchor="middle" x="2318.5" y="-492.8" font-family="Times New Roman,serif" font-size="14.00"> 0 &#45;&gt; 3 </text>
</g>
<!-- CLONE_4 -->
<g id="node9" class="node">
<title>CLONE_4</title>
<polygon fill="none" stroke="black" stroke-dasharray="5,2" points="2970,-620 2669,-620 2669,-537 2970,-537 2970,-620"/>
<text text-anchor="middle" x="2819.5" y="-604.8" font-family="Times New Roman,serif" font-size="14.00">friendly_name: Constant_100</text>
<text text-anchor="middle" x="2819.5" y="-589.8" font-family="Times New Roman,serif" font-size="14.00">type_name: Constant</text>
<text text-anchor="middle" x="2819.5" y="-574.8" font-family="Times New Roman,serif" font-size="14.00">{f32}[9,1,1,1]</text>
<text text-anchor="middle" x="2819.5" y="-559.8" font-family="Times New Roman,serif" font-size="14.00">value: [1.27, 1.27, 1.27, 1.27, 1.27, 1.27, 1.27, 1.27</text>
<text text-anchor="middle" x="2819.5" y="-544.8" font-family="Times New Roman,serif" font-size="14.00">, 1.27]</text>
</g>
<!-- CLONE_4&#45;&gt;FakeQuantize_101 -->
<g id="edge8" class="edge">
<title>CLONE_4&#45;&gt;FakeQuantize_101</title>
<path fill="none" stroke="black" d="M2708.14,-536.96C2691.92,-531.62 2675.35,-526.45 2659.5,-522 2520.8,-483.02 2362.24,-448.64 2239.15,-424.13"/>
<polygon fill="black" stroke="black" points="2239.72,-420.67 2229.23,-422.16 2238.36,-427.54 2239.72,-420.67"/>
<text text-anchor="middle" x="2613.5" y="-492.8" font-family="Times New Roman,serif" font-size="14.00"> 0 &#45;&gt; 4 </text>
</g>
<!-- MaxPool_86 -->
<g id="node10" class="node">
<title>MaxPool_86</title>
<polygon fill="none" stroke="black" points="883.5,-635 453.5,-635 453.5,-522 883.5,-522 883.5,-635"/>
<text text-anchor="middle" x="668.5" y="-619.8" font-family="Times New Roman,serif" font-size="14.00">friendly_name: maxPool1</text>
<text text-anchor="middle" x="668.5" y="-604.8" font-family="Times New Roman,serif" font-size="14.00">name: MaxPool_86</text>
<text text-anchor="middle" x="668.5" y="-589.8" font-family="Times New Roman,serif" font-size="14.00">type_name: MaxPool</text>
<text text-anchor="middle" x="668.5" y="-574.8" font-family="Times New Roman,serif" font-size="14.00">rt info: PRECISION_PRESERVED(value: true, operation: FakeQuantize) </text>
<text text-anchor="middle" x="668.5" y="-559.8" font-family="Times New Roman,serif" font-size="14.00">QUANTIZATION_ALIGNMENT(low: &#45;1.280000, high: 1.270000) </text>
<text text-anchor="middle" x="668.5" y="-544.8" font-family="Times New Roman,serif" font-size="14.00">in0: {f32}[1,3,9,9]: AvgPool_85: out0 PRECISIONS({u8}) </text>
<text text-anchor="middle" x="668.5" y="-529.8" font-family="Times New Roman,serif" font-size="14.00">out0: {f32}[1,3,9,9]</text>
</g>
<!-- MaxPool_86&#45;&gt;Concat_95 -->
<g id="edge9" class="edge">
<title>MaxPool_86&#45;&gt;Concat_95</title>
<path fill="none" stroke="black" d="M813.99,-521.97C877.46,-497.74 951.95,-469.31 1016.46,-444.68"/>
<polygon fill="black" stroke="black" points="1017.81,-447.91 1025.9,-441.08 1015.31,-441.37 1017.81,-447.91"/>
<text text-anchor="middle" x="911.5" y="-492.8" font-family="Times New Roman,serif" font-size="14.00"> 0 &#45;&gt; 0 </text>
</g>
<!-- MaxPool_94 -->
<g id="node11" class="node">
<title>MaxPool_94</title>
<polygon fill="none" stroke="black" points="1386.5,-635 956.5,-635 956.5,-522 1386.5,-522 1386.5,-635"/>
<text text-anchor="middle" x="1171.5" y="-619.8" font-family="Times New Roman,serif" font-size="14.00">friendly_name: maxPool2</text>
<text text-anchor="middle" x="1171.5" y="-604.8" font-family="Times New Roman,serif" font-size="14.00">name: MaxPool_94</text>
<text text-anchor="middle" x="1171.5" y="-589.8" font-family="Times New Roman,serif" font-size="14.00">type_name: MaxPool</text>
<text text-anchor="middle" x="1171.5" y="-574.8" font-family="Times New Roman,serif" font-size="14.00">rt info: PRECISION_PRESERVED(value: true, operation: FakeQuantize) </text>
<text text-anchor="middle" x="1171.5" y="-559.8" font-family="Times New Roman,serif" font-size="14.00">QUANTIZATION_ALIGNMENT(low: &#45;1.280000, high: 1.270000) </text>
<text text-anchor="middle" x="1171.5" y="-544.8" font-family="Times New Roman,serif" font-size="14.00">in0: {f32}[1,3,9,9]: AvgPool_93: out0 PRECISIONS({u8}) </text>
<text text-anchor="middle" x="1171.5" y="-529.8" font-family="Times New Roman,serif" font-size="14.00">out0: {f32}[1,3,9,9]</text>
</g>
<!-- MaxPool_94&#45;&gt;Concat_95 -->
<g id="edge10" class="edge">
<title>MaxPool_94&#45;&gt;Concat_95</title>
<path fill="none" stroke="black" d="M1171.5,-521.97C1171.5,-499.87 1171.5,-474.28 1171.5,-451.27"/>
<polygon fill="black" stroke="black" points="1175,-451.24 1171.5,-441.24 1168,-451.24 1175,-451.24"/>
<text text-anchor="middle" x="1192.5" y="-492.8" font-family="Times New Roman,serif" font-size="14.00"> 0 &#45;&gt; 1 </text>
</g>
<!-- AvgPool_93 -->
<g id="node12" class="node">
<title>AvgPool_93</title>
<polygon fill="none" stroke="black" points="1442.5,-799 1012.5,-799 1012.5,-686 1442.5,-686 1442.5,-799"/>
<text text-anchor="middle" x="1227.5" y="-783.8" font-family="Times New Roman,serif" font-size="14.00">friendly_name: avgPool2</text>
<text text-anchor="middle" x="1227.5" y="-768.8" font-family="Times New Roman,serif" font-size="14.00">name: AvgPool_93</text>
<text text-anchor="middle" x="1227.5" y="-753.8" font-family="Times New Roman,serif" font-size="14.00">type_name: AvgPool</text>
<text text-anchor="middle" x="1227.5" y="-738.8" font-family="Times New Roman,serif" font-size="14.00">rt info: PRECISION_PRESERVED(value: true, operation: FakeQuantize) </text>
<text text-anchor="middle" x="1227.5" y="-723.8" font-family="Times New Roman,serif" font-size="14.00">QUANTIZATION_ALIGNMENT(low: &#45;1.280000, high: 1.270000) </text>
<text text-anchor="middle" x="1227.5" y="-708.8" font-family="Times New Roman,serif" font-size="14.00">in0: {f32}[1,3,9,9]: FakeQuantize_92: out0 PRECISIONS({u8}) </text>
<text text-anchor="middle" x="1227.5" y="-693.8" font-family="Times New Roman,serif" font-size="14.00">out0: {f32}[1,3,9,9]</text>
</g>
<!-- AvgPool_93&#45;&gt;MaxPool_94 -->
<g id="edge11" class="edge">
<title>AvgPool_93&#45;&gt;MaxPool_94</title>
<path fill="none" stroke="black" d="M1208.23,-685.75C1203.67,-672.57 1198.77,-658.39 1194.08,-644.83"/>
<polygon fill="black" stroke="black" points="1197.29,-643.39 1190.71,-635.08 1190.67,-645.67 1197.29,-643.39"/>
<text text-anchor="middle" x="1222.5" y="-656.8" font-family="Times New Roman,serif" font-size="14.00"> 0 &#45;&gt; 0 </text>
</g>
<!-- FakeQuantize_92 -->
<g id="node13" class="node">
<title>FakeQuantize_92</title>
<polygon fill="none" stroke="black" points="1537,-1023 1142,-1023 1142,-850 1537,-850 1537,-1023"/>
<text text-anchor="middle" x="1339.5" y="-1007.8" font-family="Times New Roman,serif" font-size="14.00">friendly_name: fakeQuantizeOnActivations2</text>
<text text-anchor="middle" x="1339.5" y="-992.8" font-family="Times New Roman,serif" font-size="14.00">name: FakeQuantize_92</text>
<text text-anchor="middle" x="1339.5" y="-977.8" font-family="Times New Roman,serif" font-size="14.00">type_name: FakeQuantize</text>
<text text-anchor="middle" x="1339.5" y="-962.8" font-family="Times New Roman,serif" font-size="14.00">rt info: PRECISION_PRESERVED(value: false) </text>
<text text-anchor="middle" x="1339.5" y="-947.8" font-family="Times New Roman,serif" font-size="14.00">QUANTIZATION_ALIGNMENT(low: &#45;1.280000, high: 1.270000) </text>
<text text-anchor="middle" x="1339.5" y="-932.8" font-family="Times New Roman,serif" font-size="14.00">in0: {f32}[1,3,9,9]: Parameter_79: out0</text>
<text text-anchor="middle" x="1339.5" y="-917.8" font-family="Times New Roman,serif" font-size="14.00">in1: {f32}[]: Constant_88: out0</text>
<text text-anchor="middle" x="1339.5" y="-902.8" font-family="Times New Roman,serif" font-size="14.00">in2: {f32}[]: Constant_89: out0</text>
<text text-anchor="middle" x="1339.5" y="-887.8" font-family="Times New Roman,serif" font-size="14.00">in3: {f32}[]: Constant_90: out0</text>
<text text-anchor="middle" x="1339.5" y="-872.8" font-family="Times New Roman,serif" font-size="14.00">in4: {f32}[]: Constant_91: out0</text>
<text text-anchor="middle" x="1339.5" y="-857.8" font-family="Times New Roman,serif" font-size="14.00">out0: {f32}[1,3,9,9] PRECISIONS({u8}) </text>
</g>
<!-- FakeQuantize_92&#45;&gt;AvgPool_93 -->
<g id="edge12" class="edge">
<title>FakeQuantize_92&#45;&gt;AvgPool_93</title>
<path fill="none" stroke="black" d="M1289.56,-849.89C1281.33,-835.78 1272.92,-821.37 1265.06,-807.89"/>
<polygon fill="black" stroke="black" points="1268.04,-806.06 1259.98,-799.18 1262,-809.58 1268.04,-806.06"/>
<text text-anchor="middle" x="1298.5" y="-820.8" font-family="Times New Roman,serif" font-size="14.00"> 0 &#45;&gt; 0 </text>
</g>
<!-- CLONE_5 -->
<g id="node14" class="node">
<title>CLONE_5</title>
<polygon fill="none" stroke="blue" stroke-dasharray="5,2" points="1140,-1134.5 961,-1134.5 961,-1081.5 1140,-1081.5 1140,-1134.5"/>
<text text-anchor="middle" x="1050.5" y="-1119.3" font-family="Times New Roman,serif" font-size="14.00">friendly_name: Parameter_79</text>
<text text-anchor="middle" x="1050.5" y="-1104.3" font-family="Times New Roman,serif" font-size="14.00">type_name: Parameter</text>
<text text-anchor="middle" x="1050.5" y="-1089.3" font-family="Times New Roman,serif" font-size="14.00">{f32}[1,3,9,9]</text>
</g>
<!-- CLONE_5&#45;&gt;FakeQuantize_92 -->
<g id="edge13" class="edge">
<title>CLONE_5&#45;&gt;FakeQuantize_92</title>
<path fill="none" stroke="black" d="M1094.08,-1081.44C1118.76,-1066.97 1151.28,-1047.89 1184.55,-1028.38"/>
<polygon fill="black" stroke="black" points="1186.63,-1031.22 1193.48,-1023.14 1183.09,-1025.18 1186.63,-1031.22"/>
<text text-anchor="middle" x="1182.5" y="-1044.8" font-family="Times New Roman,serif" font-size="14.00"> 0 &#45;&gt; 0 </text>
</g>
<!-- CLONE_6 -->
<g id="node15" class="node">
<title>CLONE_6</title>
<polygon fill="none" stroke="black" stroke-dasharray="5,2" points="1331,-1142 1158,-1142 1158,-1074 1331,-1074 1331,-1142"/>
<text text-anchor="middle" x="1244.5" y="-1126.8" font-family="Times New Roman,serif" font-size="14.00">friendly_name: Constant_88</text>
<text text-anchor="middle" x="1244.5" y="-1111.8" font-family="Times New Roman,serif" font-size="14.00">type_name: Constant</text>
<text text-anchor="middle" x="1244.5" y="-1096.8" font-family="Times New Roman,serif" font-size="14.00">{f32}[]</text>
<text text-anchor="middle" x="1244.5" y="-1081.8" font-family="Times New Roman,serif" font-size="14.00">value: [&#45;0.64]</text>
</g>
<!-- CLONE_6&#45;&gt;FakeQuantize_92 -->
<g id="edge14" class="edge">
<title>CLONE_6&#45;&gt;FakeQuantize_92</title>
<path fill="none" stroke="black" d="M1263.04,-1073.92C1269.9,-1061.67 1278.07,-1047.11 1286.47,-1032.12"/>
<polygon fill="black" stroke="black" points="1289.59,-1033.7 1291.43,-1023.27 1283.49,-1030.28 1289.59,-1033.7"/>
<text text-anchor="middle" x="1302.5" y="-1044.8" font-family="Times New Roman,serif" font-size="14.00"> 0 &#45;&gt; 1 </text>
</g>
<!-- CLONE_7 -->
<g id="node16" class="node">
<title>CLONE_7</title>
<polygon fill="none" stroke="black" stroke-dasharray="5,2" points="1522,-1142 1349,-1142 1349,-1074 1522,-1074 1522,-1142"/>
<text text-anchor="middle" x="1435.5" y="-1126.8" font-family="Times New Roman,serif" font-size="14.00">friendly_name: Constant_89</text>
<text text-anchor="middle" x="1435.5" y="-1111.8" font-family="Times New Roman,serif" font-size="14.00">type_name: Constant</text>
<text text-anchor="middle" x="1435.5" y="-1096.8" font-family="Times New Roman,serif" font-size="14.00">{f32}[]</text>
<text text-anchor="middle" x="1435.5" y="-1081.8" font-family="Times New Roman,serif" font-size="14.00">value: [0.635]</text>
</g>
<!-- CLONE_7&#45;&gt;FakeQuantize_92 -->
<g id="edge15" class="edge">
<title>CLONE_7&#45;&gt;FakeQuantize_92</title>
<path fill="none" stroke="black" d="M1416.76,-1073.92C1409.83,-1061.67 1401.58,-1047.11 1393.09,-1032.12"/>
<polygon fill="black" stroke="black" points="1396.05,-1030.24 1388.08,-1023.27 1389.96,-1033.69 1396.05,-1030.24"/>
<text text-anchor="middle" x="1425.5" y="-1044.8" font-family="Times New Roman,serif" font-size="14.00"> 0 &#45;&gt; 2 </text>
</g>
<!-- CLONE_8 -->
<g id="node17" class="node">
<title>CLONE_8</title>
<polygon fill="none" stroke="black" stroke-dasharray="5,2" points="1713,-1142 1540,-1142 1540,-1074 1713,-1074 1713,-1142"/>
<text text-anchor="middle" x="1626.5" y="-1126.8" font-family="Times New Roman,serif" font-size="14.00">friendly_name: Constant_90</text>
<text text-anchor="middle" x="1626.5" y="-1111.8" font-family="Times New Roman,serif" font-size="14.00">type_name: Constant</text>
<text text-anchor="middle" x="1626.5" y="-1096.8" font-family="Times New Roman,serif" font-size="14.00">{f32}[]</text>
<text text-anchor="middle" x="1626.5" y="-1081.8" font-family="Times New Roman,serif" font-size="14.00">value: [&#45;0.64]</text>
</g>
<!-- CLONE_8&#45;&gt;FakeQuantize_92 -->
<g id="edge16" class="edge">
<title>CLONE_8&#45;&gt;FakeQuantize_92</title>
<path fill="none" stroke="black" d="M1570.48,-1073.92C1548.03,-1060.66 1520.97,-1044.67 1493.39,-1028.38"/>
<polygon fill="black" stroke="black" points="1494.81,-1025.16 1484.42,-1023.09 1491.25,-1031.19 1494.81,-1025.16"/>
<text text-anchor="middle" x="1555.5" y="-1044.8" font-family="Times New Roman,serif" font-size="14.00"> 0 &#45;&gt; 3 </text>
</g>
<!-- CLONE_9 -->
<g id="node18" class="node">
<title>CLONE_9</title>
<polygon fill="none" stroke="black" stroke-dasharray="5,2" points="1904,-1142 1731,-1142 1731,-1074 1904,-1074 1904,-1142"/>
<text text-anchor="middle" x="1817.5" y="-1126.8" font-family="Times New Roman,serif" font-size="14.00">friendly_name: Constant_91</text>
<text text-anchor="middle" x="1817.5" y="-1111.8" font-family="Times New Roman,serif" font-size="14.00">type_name: Constant</text>
<text text-anchor="middle" x="1817.5" y="-1096.8" font-family="Times New Roman,serif" font-size="14.00">{f32}[]</text>
<text text-anchor="middle" x="1817.5" y="-1081.8" font-family="Times New Roman,serif" font-size="14.00">value: [0.635]</text>
</g>
<!-- CLONE_9&#45;&gt;FakeQuantize_92 -->
<g id="edge17" class="edge">
<title>CLONE_9&#45;&gt;FakeQuantize_92</title>
<path fill="none" stroke="black" d="M1730.94,-1076.3C1679.33,-1058.01 1611.45,-1033.94 1546.74,-1010.99"/>
<polygon fill="black" stroke="black" points="1547.81,-1007.65 1537.21,-1007.61 1545.47,-1014.25 1547.81,-1007.65"/>
<text text-anchor="middle" x="1684.5" y="-1044.8" font-family="Times New Roman,serif" font-size="14.00"> 0 &#45;&gt; 4 </text>
</g>
<!-- AvgPool_85 -->
<g id="node19" class="node">
<title>AvgPool_85</title>
<polygon fill="none" stroke="black" points="883.5,-799 453.5,-799 453.5,-686 883.5,-686 883.5,-799"/>
<text text-anchor="middle" x="668.5" y="-783.8" font-family="Times New Roman,serif" font-size="14.00">friendly_name: avgPool1</text>
<text text-anchor="middle" x="668.5" y="-768.8" font-family="Times New Roman,serif" font-size="14.00">name: AvgPool_85</text>
<text text-anchor="middle" x="668.5" y="-753.8" font-family="Times New Roman,serif" font-size="14.00">type_name: AvgPool</text>
<text text-anchor="middle" x="668.5" y="-738.8" font-family="Times New Roman,serif" font-size="14.00">rt info: PRECISION_PRESERVED(value: true, operation: FakeQuantize) </text>
<text text-anchor="middle" x="668.5" y="-723.8" font-family="Times New Roman,serif" font-size="14.00">QUANTIZATION_ALIGNMENT(low: &#45;1.280000, high: 1.270000) </text>
<text text-anchor="middle" x="668.5" y="-708.8" font-family="Times New Roman,serif" font-size="14.00">in0: {f32}[1,3,9,9]: FakeQuantize_84: out0 PRECISIONS({u8}) </text>
<text text-anchor="middle" x="668.5" y="-693.8" font-family="Times New Roman,serif" font-size="14.00">out0: {f32}[1,3,9,9]</text>
</g>
<!-- AvgPool_85&#45;&gt;MaxPool_86 -->
<g id="edge18" class="edge">
<title>AvgPool_85&#45;&gt;MaxPool_86</title>
<path fill="none" stroke="black" d="M668.5,-685.75C668.5,-672.69 668.5,-658.67 668.5,-645.22"/>
<polygon fill="black" stroke="black" points="672,-645.08 668.5,-635.08 665,-645.08 672,-645.08"/>
<text text-anchor="middle" x="689.5" y="-656.8" font-family="Times New Roman,serif" font-size="14.00"> 0 &#45;&gt; 0 </text>
</g>
<!-- FakeQuantize_84 -->
<g id="node20" class="node">
<title>FakeQuantize_84</title>
<polygon fill="none" stroke="black" points="768,-1023 373,-1023 373,-850 768,-850 768,-1023"/>
<text text-anchor="middle" x="570.5" y="-1007.8" font-family="Times New Roman,serif" font-size="14.00">friendly_name: fakeQuantizeOnActivations1</text>
<text text-anchor="middle" x="570.5" y="-992.8" font-family="Times New Roman,serif" font-size="14.00">name: FakeQuantize_84</text>
<text text-anchor="middle" x="570.5" y="-977.8" font-family="Times New Roman,serif" font-size="14.00">type_name: FakeQuantize</text>
<text text-anchor="middle" x="570.5" y="-962.8" font-family="Times New Roman,serif" font-size="14.00">rt info: PRECISION_PRESERVED(value: false) </text>
<text text-anchor="middle" x="570.5" y="-947.8" font-family="Times New Roman,serif" font-size="14.00">QUANTIZATION_ALIGNMENT(low: &#45;1.280000, high: 1.270000) </text>
<text text-anchor="middle" x="570.5" y="-932.8" font-family="Times New Roman,serif" font-size="14.00">in0: {f32}[1,3,9,9]: Parameter_79: out0</text>
<text text-anchor="middle" x="570.5" y="-917.8" font-family="Times New Roman,serif" font-size="14.00">in1: {f32}[]: Constant_80: out0</text>
<text text-anchor="middle" x="570.5" y="-902.8" font-family="Times New Roman,serif" font-size="14.00">in2: {f32}[]: Constant_81: out0</text>
<text text-anchor="middle" x="570.5" y="-887.8" font-family="Times New Roman,serif" font-size="14.00">in3: {f32}[]: Constant_82: out0</text>
<text text-anchor="middle" x="570.5" y="-872.8" font-family="Times New Roman,serif" font-size="14.00">in4: {f32}[]: Constant_83: out0</text>
<text text-anchor="middle" x="570.5" y="-857.8" font-family="Times New Roman,serif" font-size="14.00">out0: {f32}[1,3,9,9] PRECISIONS({u8}) </text>
</g>
<!-- FakeQuantize_84&#45;&gt;AvgPool_85 -->
<g id="edge19" class="edge">
<title>FakeQuantize_84&#45;&gt;AvgPool_85</title>
<path fill="none" stroke="black" d="M614.2,-849.89C621.33,-835.91 628.62,-821.64 635.44,-808.28"/>
<polygon fill="black" stroke="black" points="638.65,-809.68 640.08,-799.18 632.42,-806.5 638.65,-809.68"/>
<text text-anchor="middle" x="649.5" y="-820.8" font-family="Times New Roman,serif" font-size="14.00"> 0 &#45;&gt; 0 </text>
</g>
<!-- CLONE_10 -->
<g id="node21" class="node">
<title>CLONE_10</title>
<polygon fill="none" stroke="blue" stroke-dasharray="5,2" points="179,-1134.5 0,-1134.5 0,-1081.5 179,-1081.5 179,-1134.5"/>
<text text-anchor="middle" x="89.5" y="-1119.3" font-family="Times New Roman,serif" font-size="14.00">friendly_name: Parameter_79</text>
<text text-anchor="middle" x="89.5" y="-1104.3" font-family="Times New Roman,serif" font-size="14.00">type_name: Parameter</text>
<text text-anchor="middle" x="89.5" y="-1089.3" font-family="Times New Roman,serif" font-size="14.00">{f32}[1,3,9,9]</text>
</g>
<!-- CLONE_10&#45;&gt;FakeQuantize_84 -->
<g id="edge20" class="edge">
<title>CLONE_10&#45;&gt;FakeQuantize_84</title>
<path fill="none" stroke="black" d="M162.03,-1081.44C215.59,-1062.57 291.36,-1035.87 363.11,-1010.58"/>
<polygon fill="black" stroke="black" points="364.48,-1013.81 372.75,-1007.19 362.15,-1007.21 364.48,-1013.81"/>
<text text-anchor="middle" x="294.5" y="-1044.8" font-family="Times New Roman,serif" font-size="14.00"> 0 &#45;&gt; 0 </text>
</g>
<!-- CLONE_11 -->
<g id="node22" class="node">
<title>CLONE_11</title>
<polygon fill="none" stroke="black" stroke-dasharray="5,2" points="370,-1142 197,-1142 197,-1074 370,-1074 370,-1142"/>
<text text-anchor="middle" x="283.5" y="-1126.8" font-family="Times New Roman,serif" font-size="14.00">friendly_name: Constant_80</text>
<text text-anchor="middle" x="283.5" y="-1111.8" font-family="Times New Roman,serif" font-size="14.00">type_name: Constant</text>
<text text-anchor="middle" x="283.5" y="-1096.8" font-family="Times New Roman,serif" font-size="14.00">{f32}[]</text>
<text text-anchor="middle" x="283.5" y="-1081.8" font-family="Times New Roman,serif" font-size="14.00">value: [&#45;1.28]</text>
</g>
<!-- CLONE_11&#45;&gt;FakeQuantize_84 -->
<g id="edge21" class="edge">
<title>CLONE_11&#45;&gt;FakeQuantize_84</title>
<path fill="none" stroke="black" d="M339.52,-1073.92C361.97,-1060.66 389.03,-1044.67 416.61,-1028.38"/>
<polygon fill="black" stroke="black" points="418.75,-1031.19 425.58,-1023.09 415.19,-1025.16 418.75,-1031.19"/>
<text text-anchor="middle" x="414.5" y="-1044.8" font-family="Times New Roman,serif" font-size="14.00"> 0 &#45;&gt; 1 </text>
</g>
<!-- CLONE_12 -->
<g id="node23" class="node">
<title>CLONE_12</title>
<polygon fill="none" stroke="black" stroke-dasharray="5,2" points="561,-1142 388,-1142 388,-1074 561,-1074 561,-1142"/>
<text text-anchor="middle" x="474.5" y="-1126.8" font-family="Times New Roman,serif" font-size="14.00">friendly_name: Constant_81</text>
<text text-anchor="middle" x="474.5" y="-1111.8" font-family="Times New Roman,serif" font-size="14.00">type_name: Constant</text>
<text text-anchor="middle" x="474.5" y="-1096.8" font-family="Times New Roman,serif" font-size="14.00">{f32}[]</text>
<text text-anchor="middle" x="474.5" y="-1081.8" font-family="Times New Roman,serif" font-size="14.00">value: [1.27]</text>
</g>
<!-- CLONE_12&#45;&gt;FakeQuantize_84 -->
<g id="edge22" class="edge">
<title>CLONE_12&#45;&gt;FakeQuantize_84</title>
<path fill="none" stroke="black" d="M493.24,-1073.92C500.17,-1061.67 508.42,-1047.11 516.91,-1032.12"/>
<polygon fill="black" stroke="black" points="520.04,-1033.69 521.92,-1023.27 513.95,-1030.24 520.04,-1033.69"/>
<text text-anchor="middle" x="532.5" y="-1044.8" font-family="Times New Roman,serif" font-size="14.00"> 0 &#45;&gt; 2 </text>
</g>
<!-- CLONE_13 -->
<g id="node24" class="node">
<title>CLONE_13</title>
<polygon fill="none" stroke="black" stroke-dasharray="5,2" points="752,-1142 579,-1142 579,-1074 752,-1074 752,-1142"/>
<text text-anchor="middle" x="665.5" y="-1126.8" font-family="Times New Roman,serif" font-size="14.00">friendly_name: Constant_82</text>
<text text-anchor="middle" x="665.5" y="-1111.8" font-family="Times New Roman,serif" font-size="14.00">type_name: Constant</text>
<text text-anchor="middle" x="665.5" y="-1096.8" font-family="Times New Roman,serif" font-size="14.00">{f32}[]</text>
<text text-anchor="middle" x="665.5" y="-1081.8" font-family="Times New Roman,serif" font-size="14.00">value: [&#45;1.28]</text>
</g>
<!-- CLONE_13&#45;&gt;FakeQuantize_84 -->
<g id="edge23" class="edge">
<title>CLONE_13&#45;&gt;FakeQuantize_84</title>
<path fill="none" stroke="black" d="M646.96,-1073.92C640.1,-1061.67 631.93,-1047.11 623.53,-1032.12"/>
<polygon fill="black" stroke="black" points="626.51,-1030.28 618.57,-1023.27 620.41,-1033.7 626.51,-1030.28"/>
<text text-anchor="middle" x="656.5" y="-1044.8" font-family="Times New Roman,serif" font-size="14.00"> 0 &#45;&gt; 3 </text>
</g>
<!-- CLONE_14 -->
<g id="node25" class="node">
<title>CLONE_14</title>
<polygon fill="none" stroke="black" stroke-dasharray="5,2" points="943,-1142 770,-1142 770,-1074 943,-1074 943,-1142"/>
<text text-anchor="middle" x="856.5" y="-1126.8" font-family="Times New Roman,serif" font-size="14.00">friendly_name: Constant_83</text>
<text text-anchor="middle" x="856.5" y="-1111.8" font-family="Times New Roman,serif" font-size="14.00">type_name: Constant</text>
<text text-anchor="middle" x="856.5" y="-1096.8" font-family="Times New Roman,serif" font-size="14.00">{f32}[]</text>
<text text-anchor="middle" x="856.5" y="-1081.8" font-family="Times New Roman,serif" font-size="14.00">value: [1.27]</text>
</g>
<!-- CLONE_14&#45;&gt;FakeQuantize_84 -->
<g id="edge24" class="edge">
<title>CLONE_14&#45;&gt;FakeQuantize_84</title>
<path fill="none" stroke="black" d="M800.68,-1073.92C778.31,-1060.66 751.34,-1044.67 723.85,-1028.38"/>
<polygon fill="black" stroke="black" points="725.3,-1025.18 714.91,-1023.09 721.73,-1031.2 725.3,-1025.18"/>
<text text-anchor="middle" x="785.5" y="-1044.8" font-family="Times New Roman,serif" font-size="14.00"> 0 &#45;&gt; 4 </text>
</g>
</g>
</svg>
