<?xml version="1.0" encoding="UTF-8" standalone="no"?>
<!DOCTYPE svg PUBLIC "-//W3C//DTD SVG 1.1//EN"
 "http://www.w3.org/Graphics/SVG/1.1/DTD/svg11.dtd">
<!-- Generated by graphviz version 2.43.20200408.0903 (20200408.0903)
 -->
<!-- Title: ngraph Pages: 1 -->
<svg width="2955pt" height="1045pt"
 viewBox="0.00 0.00 2955.00 1045.00" xmlns="http://www.w3.org/2000/svg" xmlns:xlink="http://www.w3.org/1999/xlink">
<g id="graph0" class="graph" transform="scale(1 1) rotate(0) translate(4 1041)">
<title>ngraph</title>
<polygon fill="white" stroke="transparent" points="-4,4 -4,-1041 2951,-1041 2951,4 -4,4"/>
<!-- Convolution_102 -->
<g id="node1" class="node">
<title>Convolution_102</title>
<polygon fill="none" stroke="black" points="1825.5,-217 1443.5,-217 1443.5,-119 1825.5,-119 1825.5,-217"/>
<text text-anchor="middle" x="1634.5" y="-201.8" font-family="Times New Roman,serif" font-size="14.00">friendly_name: output</text>
<text text-anchor="middle" x="1634.5" y="-186.8" font-family="Times New Roman,serif" font-size="14.00">name: Convolution_102</text>
<text text-anchor="middle" x="1634.5" y="-171.8" font-family="Times New Roman,serif" font-size="14.00">type_name: Convolution</text>
<text text-anchor="middle" x="1634.5" y="-156.8" font-family="Times New Roman,serif" font-size="14.00">in0: {f32}[1,6,9,9]: Concat_95: out0 PRECISIONS({u8}) </text>
<text text-anchor="middle" x="1634.5" y="-141.8" font-family="Times New Roman,serif" font-size="14.00">in1: {f32}[9,6,1,1]: FakeQuantize_101: out0 PRECISIONS({i8}) </text>
<text text-anchor="middle" x="1634.5" y="-126.8" font-family="Times New Roman,serif" font-size="14.00">out0: {f32}[1,9,9,9]</text>
</g>
<!-- Result_103 -->
<g id="node2" class="node">
<title>Result_103</title>
<polygon fill="none" stroke="crimson" stroke-width="1.5" points="1761.5,-68 1507.5,-68 1507.5,0 1761.5,0 1761.5,-68"/>
<text text-anchor="middle" x="1634.5" y="-52.8" font-family="Times New Roman,serif" font-size="14.00">friendly_name: Result_103</text>
<text text-anchor="middle" x="1634.5" y="-37.8" font-family="Times New Roman,serif" font-size="14.00">type_name: Result</text>
<text text-anchor="middle" x="1634.5" y="-22.8" font-family="Times New Roman,serif" font-size="14.00">in0: {f32}[1,9,9,9]: Convolution_102: out0</text>
<text text-anchor="middle" x="1634.5" y="-7.8" font-family="Times New Roman,serif" font-size="14.00">out0: {f32}[1,9,9,9]</text>
</g>
<!-- Convolution_102&#45;&gt;Result_103 -->
<g id="edge1" class="edge">
<title>Convolution_102&#45;&gt;Result_103</title>
<path fill="none" stroke="black" d="M1634.5,-118.97C1634.5,-105.71 1634.5,-91.4 1634.5,-78.42"/>
<polygon fill="black" stroke="black" points="1638,-78.33 1634.5,-68.33 1631,-78.33 1638,-78.33"/>
<text text-anchor="middle" x="1655.5" y="-89.8" font-family="Times New Roman,serif" font-size="14.00"> 0 &#45;&gt; 0 </text>
</g>
<!-- Concat_95 -->
<g id="node3" class="node">
<title>Concat_95</title>
<polygon fill="none" stroke="black" points="1363.5,-388.5 933.5,-388.5 933.5,-290.5 1363.5,-290.5 1363.5,-388.5"/>
<text text-anchor="middle" x="1148.5" y="-373.3" font-family="Times New Roman,serif" font-size="14.00">friendly_name: Concat_95</text>
<text text-anchor="middle" x="1148.5" y="-358.3" font-family="Times New Roman,serif" font-size="14.00">type_name: Concat</text>
<text text-anchor="middle" x="1148.5" y="-343.3" font-family="Times New Roman,serif" font-size="14.00">rt info: &#160;PRECISION_PRESERVED(value: true, operation: FakeQuantize)</text>
<text text-anchor="middle" x="1148.5" y="-328.3" font-family="Times New Roman,serif" font-size="14.00">in0: {f32}[1,3,9,9]: MaxPool_86: out0 PRECISIONS({u8}) </text>
<text text-anchor="middle" x="1148.5" y="-313.3" font-family="Times New Roman,serif" font-size="14.00">in1: {f32}[1,3,9,9]: MaxPool_94: out0 PRECISIONS({u8}) </text>
<text text-anchor="middle" x="1148.5" y="-298.3" font-family="Times New Roman,serif" font-size="14.00">out0: {f32}[1,6,9,9]</text>
</g>
<!-- Concat_95&#45;&gt;Convolution_102 -->
<g id="edge2" class="edge">
<title>Concat_95&#45;&gt;Convolution_102</title>
<path fill="none" stroke="black" d="M1286.14,-290.49C1348.88,-268.61 1423.23,-242.68 1487.1,-220.41"/>
<polygon fill="black" stroke="black" points="1488.56,-223.6 1496.85,-217.01 1486.26,-216.99 1488.56,-223.6"/>
<text text-anchor="middle" x="1456.5" y="-238.8" font-family="Times New Roman,serif" font-size="14.00"> 0 &#45;&gt; 0 </text>
</g>
<!-- FakeQuantize_101 -->
<g id="node4" class="node">
<title>FakeQuantize_101</title>
<polygon fill="none" stroke="black" points="2132.5,-411 1884.5,-411 1884.5,-268 2132.5,-268 2132.5,-411"/>
<text text-anchor="middle" x="2008.5" y="-395.8" font-family="Times New Roman,serif" font-size="14.00">friendly_name: fakeQuantizeOnWeights</text>
<text text-anchor="middle" x="2008.5" y="-380.8" font-family="Times New Roman,serif" font-size="14.00">name: FakeQuantize_101</text>
<text text-anchor="middle" x="2008.5" y="-365.8" font-family="Times New Roman,serif" font-size="14.00">type_name: FakeQuantize</text>
<text text-anchor="middle" x="2008.5" y="-350.8" font-family="Times New Roman,serif" font-size="14.00">in0: {f32}[9,6,1,1]: Constant_96: out0</text>
<text text-anchor="middle" x="2008.5" y="-335.8" font-family="Times New Roman,serif" font-size="14.00">in1: {f32}[9,1,1,1]: Constant_97: out0</text>
<text text-anchor="middle" x="2008.5" y="-320.8" font-family="Times New Roman,serif" font-size="14.00">in2: {f32}[9,1,1,1]: Constant_98: out0</text>
<text text-anchor="middle" x="2008.5" y="-305.8" font-family="Times New Roman,serif" font-size="14.00">in3: {f32}[9,1,1,1]: Constant_99: out0</text>
<text text-anchor="middle" x="2008.5" y="-290.8" font-family="Times New Roman,serif" font-size="14.00">in4: {f32}[9,1,1,1]: Constant_100: out0</text>
<text text-anchor="middle" x="2008.5" y="-275.8" font-family="Times New Roman,serif" font-size="14.00">out0: {f32}[9,6,1,1] PRECISIONS({i8}) </text>
</g>
<!-- FakeQuantize_101&#45;&gt;Convolution_102 -->
<g id="edge3" class="edge">
<title>FakeQuantize_101&#45;&gt;Convolution_102</title>
<path fill="none" stroke="black" d="M1884.48,-282.29C1841.1,-262.63 1792.6,-240.65 1749.94,-221.32"/>
<polygon fill="black" stroke="black" points="1751.2,-218.05 1740.65,-217.11 1748.31,-224.42 1751.2,-218.05"/>
<text text-anchor="middle" x="1831.5" y="-238.8" font-family="Times New Roman,serif" font-size="14.00"> 0 &#45;&gt; 1 </text>
</g>
<!-- CLONE_0 -->
<g id="node5" class="node">
<title>CLONE_0</title>
<polygon fill="none" stroke="black" stroke-dasharray="5,2" points="1599,-575 1382,-575 1382,-462 1599,-462 1599,-575"/>
<text text-anchor="middle" x="1490.5" y="-559.8" font-family="Times New Roman,serif" font-size="14.00">friendly_name: Constant_96</text>
<text text-anchor="middle" x="1490.5" y="-544.8" font-family="Times New Roman,serif" font-size="14.00">type_name: Constant</text>
<text text-anchor="middle" x="1490.5" y="-529.8" font-family="Times New Roman,serif" font-size="14.00">{f32}[9,6,1,1]</text>
<text text-anchor="middle" x="1490.5" y="-514.8" font-family="Times New Roman,serif" font-size="14.00">value: [54, 54, 54, 54, 54, 54, 54, 54</text>
<text text-anchor="middle" x="1490.5" y="-499.8" font-family="Times New Roman,serif" font-size="14.00">, 54, 54, 54, 54, 54, 54, 54, 54</text>
<text text-anchor="middle" x="1490.5" y="-484.8" font-family="Times New Roman,serif" font-size="14.00">, 54, 54, 54, 54, 54, 54, 54, 54</text>
<text text-anchor="middle" x="1490.5" y="-469.8" font-family="Times New Roman,serif" font-size="14.00">, 54, 54, 54, 54, 54, 54, 54, 54...]</text>
</g>
<!-- CLONE_0&#45;&gt;FakeQuantize_101 -->
<g id="edge4" class="edge">
<title>CLONE_0&#45;&gt;FakeQuantize_101</title>
<path fill="none" stroke="black" d="M1599.26,-465.26C1602.02,-464.14 1604.77,-463.05 1607.5,-462 1694.86,-428.26 1795.77,-397.73 1874.51,-375.71"/>
<polygon fill="black" stroke="black" points="1875.79,-378.98 1884.49,-372.93 1873.92,-372.24 1875.79,-378.98"/>
<text text-anchor="middle" x="1715.5" y="-432.8" font-family="Times New Roman,serif" font-size="14.00"> 0 &#45;&gt; 0 </text>
</g>
<!-- CLONE_1 -->
<g id="node6" class="node">
<title>CLONE_1</title>
<polygon fill="none" stroke="black" stroke-dasharray="5,2" points="1954,-560 1617,-560 1617,-477 1954,-477 1954,-560"/>
<text text-anchor="middle" x="1785.5" y="-544.8" font-family="Times New Roman,serif" font-size="14.00">friendly_name: Constant_97</text>
<text text-anchor="middle" x="1785.5" y="-529.8" font-family="Times New Roman,serif" font-size="14.00">type_name: Constant</text>
<text text-anchor="middle" x="1785.5" y="-514.8" font-family="Times New Roman,serif" font-size="14.00">{f32}[9,1,1,1]</text>
<text text-anchor="middle" x="1785.5" y="-499.8" font-family="Times New Roman,serif" font-size="14.00">value: [&#45;1.27, &#45;1.27, &#45;1.27, &#45;1.27, &#45;1.27, &#45;1.27, &#45;1.27, &#45;1.27</text>
<text text-anchor="middle" x="1785.5" y="-484.8" font-family="Times New Roman,serif" font-size="14.00">, &#45;1.27]</text>
</g>
<!-- CLONE_1&#45;&gt;FakeQuantize_101 -->
<g id="edge5" class="edge">
<title>CLONE_1&#45;&gt;FakeQuantize_101</title>
<path fill="none" stroke="black" d="M1836.66,-476.89C1858.92,-459.23 1885.77,-437.92 1911.56,-417.44"/>
<polygon fill="black" stroke="black" points="1913.87,-420.08 1919.52,-411.12 1909.51,-414.6 1913.87,-420.08"/>
<text text-anchor="middle" x="1918.5" y="-432.8" font-family="Times New Roman,serif" font-size="14.00"> 0 &#45;&gt; 1 </text>
</g>
<!-- CLONE_2 -->
<g id="node7" class="node">
<title>CLONE_2</title>
<polygon fill="none" stroke="black" stroke-dasharray="5,2" points="2273,-560 1972,-560 1972,-477 2273,-477 2273,-560"/>
<text text-anchor="middle" x="2122.5" y="-544.8" font-family="Times New Roman,serif" font-size="14.00">friendly_name: Constant_98</text>
<text text-anchor="middle" x="2122.5" y="-529.8" font-family="Times New Roman,serif" font-size="14.00">type_name: Constant</text>
<text text-anchor="middle" x="2122.5" y="-514.8" font-family="Times New Roman,serif" font-size="14.00">{f32}[9,1,1,1]</text>
<text text-anchor="middle" x="2122.5" y="-499.8" font-family="Times New Roman,serif" font-size="14.00">value: [1.27, 1.27, 1.27, 1.27, 1.27, 1.27, 1.27, 1.27</text>
<text text-anchor="middle" x="2122.5" y="-484.8" font-family="Times New Roman,serif" font-size="14.00">, 1.27]</text>
</g>
<!-- CLONE_2&#45;&gt;FakeQuantize_101 -->
<g id="edge6" class="edge">
<title>CLONE_2&#45;&gt;FakeQuantize_101</title>
<path fill="none" stroke="black" d="M2096.35,-476.89C2085.36,-459.84 2072.19,-439.38 2059.42,-419.57"/>
<polygon fill="black" stroke="black" points="2062.34,-417.64 2053.99,-411.12 2056.46,-421.43 2062.34,-417.64"/>
<text text-anchor="middle" x="2093.5" y="-432.8" font-family="Times New Roman,serif" font-size="14.00"> 0 &#45;&gt; 2 </text>
</g>
<!-- CLONE_3 -->
<g id="node8" class="node">
<title>CLONE_3</title>
<polygon fill="none" stroke="black" stroke-dasharray="5,2" points="2628,-560 2291,-560 2291,-477 2628,-477 2628,-560"/>
<text text-anchor="middle" x="2459.5" y="-544.8" font-family="Times New Roman,serif" font-size="14.00">friendly_name: Constant_99</text>
<text text-anchor="middle" x="2459.5" y="-529.8" font-family="Times New Roman,serif" font-size="14.00">type_name: Constant</text>
<text text-anchor="middle" x="2459.5" y="-514.8" font-family="Times New Roman,serif" font-size="14.00">{f32}[9,1,1,1]</text>
<text text-anchor="middle" x="2459.5" y="-499.8" font-family="Times New Roman,serif" font-size="14.00">value: [&#45;1.27, &#45;1.27, &#45;1.27, &#45;1.27, &#45;1.27, &#45;1.27, &#45;1.27, &#45;1.27</text>
<text text-anchor="middle" x="2459.5" y="-484.8" font-family="Times New Roman,serif" font-size="14.00">, &#45;1.27]</text>
</g>
<!-- CLONE_3&#45;&gt;FakeQuantize_101 -->
<g id="edge7" class="edge">
<title>CLONE_3&#45;&gt;FakeQuantize_101</title>
<path fill="none" stroke="black" d="M2356.03,-476.89C2292.57,-451.99 2210.66,-419.84 2142.3,-393.01"/>
<polygon fill="black" stroke="black" points="2143.33,-389.66 2132.75,-389.26 2140.78,-396.17 2143.33,-389.66"/>
<text text-anchor="middle" x="2282.5" y="-432.8" font-family="Times New Roman,serif" font-size="14.00"> 0 &#45;&gt; 3 </text>
</g>
<!-- CLONE_4 -->
<g id="node9" class="node">
<title>CLONE_4</title>
<polygon fill="none" stroke="black" stroke-dasharray="5,2" points="2947,-560 2646,-560 2646,-477 2947,-477 2947,-560"/>
<text text-anchor="middle" x="2796.5" y="-544.8" font-family="Times New Roman,serif" font-size="14.00">friendly_name: Constant_100</text>
<text text-anchor="middle" x="2796.5" y="-529.8" font-family="Times New Roman,serif" font-size="14.00">type_name: Constant</text>
<text text-anchor="middle" x="2796.5" y="-514.8" font-family="Times New Roman,serif" font-size="14.00">{f32}[9,1,1,1]</text>
<text text-anchor="middle" x="2796.5" y="-499.8" font-family="Times New Roman,serif" font-size="14.00">value: [1.27, 1.27, 1.27, 1.27, 1.27, 1.27, 1.27, 1.27</text>
<text text-anchor="middle" x="2796.5" y="-484.8" font-family="Times New Roman,serif" font-size="14.00">, 1.27]</text>
</g>
<!-- CLONE_4&#45;&gt;FakeQuantize_101 -->
<g id="edge8" class="edge">
<title>CLONE_4&#45;&gt;FakeQuantize_101</title>
<path fill="none" stroke="black" d="M2686.1,-476.91C2669.59,-471.51 2652.68,-466.35 2636.5,-462 2468.52,-416.86 2271,-381.48 2142.97,-360.8"/>
<polygon fill="black" stroke="black" points="2143.15,-357.29 2132.72,-359.16 2142.04,-364.2 2143.15,-357.29"/>
<text text-anchor="middle" x="2573.5" y="-432.8" font-family="Times New Roman,serif" font-size="14.00"> 0 &#45;&gt; 4 </text>
</g>
<!-- MaxPool_86 -->
<g id="node10" class="node">
<title>MaxPool_86</title>
<polygon fill="none" stroke="black" points="883.5,-567.5 453.5,-567.5 453.5,-469.5 883.5,-469.5 883.5,-567.5"/>
<text text-anchor="middle" x="668.5" y="-552.3" font-family="Times New Roman,serif" font-size="14.00">friendly_name: maxPool1</text>
<text text-anchor="middle" x="668.5" y="-537.3" font-family="Times New Roman,serif" font-size="14.00">name: MaxPool_86</text>
<text text-anchor="middle" x="668.5" y="-522.3" font-family="Times New Roman,serif" font-size="14.00">type_name: MaxPool</text>
<text text-anchor="middle" x="668.5" y="-507.3" font-family="Times New Roman,serif" font-size="14.00">rt info: &#160;PRECISION_PRESERVED(value: true, operation: FakeQuantize)</text>
<text text-anchor="middle" x="668.5" y="-492.3" font-family="Times New Roman,serif" font-size="14.00">in0: {f32}[1,3,9,9]: AvgPool_85: out0 PRECISIONS({u8}) </text>
<text text-anchor="middle" x="668.5" y="-477.3" font-family="Times New Roman,serif" font-size="14.00">out0: {f32}[1,3,9,9]</text>
</g>
<!-- MaxPool_86&#45;&gt;Concat_95 -->
<g id="edge9" class="edge">
<title>MaxPool_86&#45;&gt;Concat_95</title>
<path fill="none" stroke="black" d="M798.71,-469.48C863.67,-445.53 942.32,-416.53 1008.57,-392.1"/>
<polygon fill="black" stroke="black" points="1010.08,-395.27 1018.25,-388.53 1007.66,-388.71 1010.08,-395.27"/>
<text text-anchor="middle" x="929.5" y="-432.8" font-family="Times New Roman,serif" font-size="14.00"> 0 &#45;&gt; 0 </text>
</g>
<!-- MaxPool_94 -->
<g id="node11" class="node">
<title>MaxPool_94</title>
<polygon fill="none" stroke="black" points="1363.5,-567.5 933.5,-567.5 933.5,-469.5 1363.5,-469.5 1363.5,-567.5"/>
<text text-anchor="middle" x="1148.5" y="-552.3" font-family="Times New Roman,serif" font-size="14.00">friendly_name: maxPool2</text>
<text text-anchor="middle" x="1148.5" y="-537.3" font-family="Times New Roman,serif" font-size="14.00">name: MaxPool_94</text>
<text text-anchor="middle" x="1148.5" y="-522.3" font-family="Times New Roman,serif" font-size="14.00">type_name: MaxPool</text>
<text text-anchor="middle" x="1148.5" y="-507.3" font-family="Times New Roman,serif" font-size="14.00">rt info: &#160;PRECISION_PRESERVED(value: true, operation: FakeQuantize)</text>
<text text-anchor="middle" x="1148.5" y="-492.3" font-family="Times New Roman,serif" font-size="14.00">in0: {f32}[1,3,9,9]: AvgPool_93: out0 PRECISIONS({u8}) </text>
<text text-anchor="middle" x="1148.5" y="-477.3" font-family="Times New Roman,serif" font-size="14.00">out0: {f32}[1,3,9,9]</text>
</g>
<!-- MaxPool_94&#45;&gt;Concat_95 -->
<g id="edge10" class="edge">
<title>MaxPool_94&#45;&gt;Concat_95</title>
<path fill="none" stroke="black" d="M1148.5,-469.13C1148.5,-447.39 1148.5,-421.54 1148.5,-398.74"/>
<polygon fill="black" stroke="black" points="1152,-398.5 1148.5,-388.5 1145,-398.5 1152,-398.5"/>
<text text-anchor="middle" x="1169.5" y="-432.8" font-family="Times New Roman,serif" font-size="14.00"> 0 &#45;&gt; 1 </text>
</g>
<!-- AvgPool_93 -->
<g id="node12" class="node">
<title>AvgPool_93</title>
<polygon fill="none" stroke="black" points="1395.5,-724 965.5,-724 965.5,-626 1395.5,-626 1395.5,-724"/>
<text text-anchor="middle" x="1180.5" y="-708.8" font-family="Times New Roman,serif" font-size="14.00">friendly_name: avgPool2</text>
<text text-anchor="middle" x="1180.5" y="-693.8" font-family="Times New Roman,serif" font-size="14.00">name: AvgPool_93</text>
<text text-anchor="middle" x="1180.5" y="-678.8" font-family="Times New Roman,serif" font-size="14.00">type_name: AvgPool</text>
<text text-anchor="middle" x="1180.5" y="-663.8" font-family="Times New Roman,serif" font-size="14.00">rt info: &#160;PRECISION_PRESERVED(value: true, operation: FakeQuantize)</text>
<text text-anchor="middle" x="1180.5" y="-648.8" font-family="Times New Roman,serif" font-size="14.00">in0: {f32}[1,3,9,9]: FakeQuantize_92: out0 PRECISIONS({u8}) </text>
<text text-anchor="middle" x="1180.5" y="-633.8" font-family="Times New Roman,serif" font-size="14.00">out0: {f32}[1,3,9,9]</text>
</g>
<!-- AvgPool_93&#45;&gt;MaxPool_94 -->
<g id="edge11" class="edge">
<title>AvgPool_93&#45;&gt;MaxPool_94</title>
<path fill="none" stroke="black" d="M1170.55,-625.96C1167.36,-610.56 1163.79,-593.33 1160.47,-577.31"/>
<polygon fill="black" stroke="black" points="1163.9,-576.59 1158.44,-567.51 1157.04,-578.01 1163.9,-576.59"/>
<text text-anchor="middle" x="1187.5" y="-596.8" font-family="Times New Roman,serif" font-size="14.00"> 0 &#45;&gt; 0 </text>
</g>
<!-- FakeQuantize_92 -->
<g id="node13" class="node">
<title>FakeQuantize_92</title>
<polygon fill="none" stroke="black" points="1470,-918 1209,-918 1209,-775 1470,-775 1470,-918"/>
<text text-anchor="middle" x="1339.5" y="-902.8" font-family="Times New Roman,serif" font-size="14.00">friendly_name: fakeQuantizeOnActivations2</text>
<text text-anchor="middle" x="1339.5" y="-887.8" font-family="Times New Roman,serif" font-size="14.00">name: FakeQuantize_92</text>
<text text-anchor="middle" x="1339.5" y="-872.8" font-family="Times New Roman,serif" font-size="14.00">type_name: FakeQuantize</text>
<text text-anchor="middle" x="1339.5" y="-857.8" font-family="Times New Roman,serif" font-size="14.00">in0: {f32}[1,3,9,9]: Parameter_79: out0</text>
<text text-anchor="middle" x="1339.5" y="-842.8" font-family="Times New Roman,serif" font-size="14.00">in1: {f32}[]: Constant_88: out0</text>
<text text-anchor="middle" x="1339.5" y="-827.8" font-family="Times New Roman,serif" font-size="14.00">in2: {f32}[]: Constant_89: out0</text>
<text text-anchor="middle" x="1339.5" y="-812.8" font-family="Times New Roman,serif" font-size="14.00">in3: {f32}[]: Constant_90: out0</text>
<text text-anchor="middle" x="1339.5" y="-797.8" font-family="Times New Roman,serif" font-size="14.00">in4: {f32}[]: Constant_91: out0</text>
<text text-anchor="middle" x="1339.5" y="-782.8" font-family="Times New Roman,serif" font-size="14.00">out0: {f32}[1,3,9,9] PRECISIONS({u8}) </text>
</g>
<!-- FakeQuantize_92&#45;&gt;AvgPool_93 -->
<g id="edge12" class="edge">
<title>FakeQuantize_92&#45;&gt;AvgPool_93</title>
<path fill="none" stroke="black" d="M1272.99,-774.6C1259.56,-760.29 1245.63,-745.43 1232.77,-731.73"/>
<polygon fill="black" stroke="black" points="1235.15,-729.14 1225.75,-724.24 1230.04,-733.93 1235.15,-729.14"/>
<text text-anchor="middle" x="1276.5" y="-745.8" font-family="Times New Roman,serif" font-size="14.00"> 0 &#45;&gt; 0 </text>
</g>
<!-- CLONE_5 -->
<g id="node14" class="node">
<title>CLONE_5</title>
<polygon fill="none" stroke="blue" stroke-dasharray="5,2" points="1140,-1029.5 961,-1029.5 961,-976.5 1140,-976.5 1140,-1029.5"/>
<text text-anchor="middle" x="1050.5" y="-1014.3" font-family="Times New Roman,serif" font-size="14.00">friendly_name: Parameter_79</text>
<text text-anchor="middle" x="1050.5" y="-999.3" font-family="Times New Roman,serif" font-size="14.00">type_name: Parameter</text>
<text text-anchor="middle" x="1050.5" y="-984.3" font-family="Times New Roman,serif" font-size="14.00">{f32}[1,3,9,9]</text>
</g>
<!-- CLONE_5&#45;&gt;FakeQuantize_92 -->
<g id="edge13" class="edge">
<title>CLONE_5&#45;&gt;FakeQuantize_92</title>
<path fill="none" stroke="black" d="M1098.22,-976.49C1126.16,-961.55 1163.02,-941.85 1199.5,-922.34"/>
<polygon fill="black" stroke="black" points="1201.59,-925.2 1208.76,-917.39 1198.29,-919.02 1201.59,-925.2"/>
<text text-anchor="middle" x="1190.5" y="-939.8" font-family="Times New Roman,serif" font-size="14.00"> 0 &#45;&gt; 0 </text>
</g>
<!-- CLONE_6 -->
<g id="node15" class="node">
<title>CLONE_6</title>
<polygon fill="none" stroke="black" stroke-dasharray="5,2" points="1331,-1037 1158,-1037 1158,-969 1331,-969 1331,-1037"/>
<text text-anchor="middle" x="1244.5" y="-1021.8" font-family="Times New Roman,serif" font-size="14.00">friendly_name: Constant_88</text>
<text text-anchor="middle" x="1244.5" y="-1006.8" font-family="Times New Roman,serif" font-size="14.00">type_name: Constant</text>
<text text-anchor="middle" x="1244.5" y="-991.8" font-family="Times New Roman,serif" font-size="14.00">{f32}[]</text>
<text text-anchor="middle" x="1244.5" y="-976.8" font-family="Times New Roman,serif" font-size="14.00">value: [&#45;0.64]</text>
</g>
<!-- CLONE_6&#45;&gt;FakeQuantize_92 -->
<g id="edge14" class="edge">
<title>CLONE_6&#45;&gt;FakeQuantize_92</title>
<path fill="none" stroke="black" d="M1264.88,-968.86C1272.54,-956.4 1281.61,-941.65 1290.74,-926.8"/>
<polygon fill="black" stroke="black" points="1293.86,-928.41 1296.11,-918.06 1287.89,-924.75 1293.86,-928.41"/>
<text text-anchor="middle" x="1304.5" y="-939.8" font-family="Times New Roman,serif" font-size="14.00"> 0 &#45;&gt; 1 </text>
</g>
<!-- CLONE_7 -->
<g id="node16" class="node">
<title>CLONE_7</title>
<polygon fill="none" stroke="black" stroke-dasharray="5,2" points="1522,-1037 1349,-1037 1349,-969 1522,-969 1522,-1037"/>
<text text-anchor="middle" x="1435.5" y="-1021.8" font-family="Times New Roman,serif" font-size="14.00">friendly_name: Constant_89</text>
<text text-anchor="middle" x="1435.5" y="-1006.8" font-family="Times New Roman,serif" font-size="14.00">type_name: Constant</text>
<text text-anchor="middle" x="1435.5" y="-991.8" font-family="Times New Roman,serif" font-size="14.00">{f32}[]</text>
<text text-anchor="middle" x="1435.5" y="-976.8" font-family="Times New Roman,serif" font-size="14.00">value: [0.635]</text>
</g>
<!-- CLONE_7&#45;&gt;FakeQuantize_92 -->
<g id="edge15" class="edge">
<title>CLONE_7&#45;&gt;FakeQuantize_92</title>
<path fill="none" stroke="black" d="M1414.91,-968.86C1407.17,-956.4 1398,-941.65 1388.77,-926.8"/>
<polygon fill="black" stroke="black" points="1391.59,-924.71 1383.34,-918.06 1385.65,-928.4 1391.59,-924.71"/>
<text text-anchor="middle" x="1423.5" y="-939.8" font-family="Times New Roman,serif" font-size="14.00"> 0 &#45;&gt; 2 </text>
</g>
<!-- CLONE_8 -->
<g id="node17" class="node">
<title>CLONE_8</title>
<polygon fill="none" stroke="black" stroke-dasharray="5,2" points="1713,-1037 1540,-1037 1540,-969 1713,-969 1713,-1037"/>
<text text-anchor="middle" x="1626.5" y="-1021.8" font-family="Times New Roman,serif" font-size="14.00">friendly_name: Constant_90</text>
<text text-anchor="middle" x="1626.5" y="-1006.8" font-family="Times New Roman,serif" font-size="14.00">type_name: Constant</text>
<text text-anchor="middle" x="1626.5" y="-991.8" font-family="Times New Roman,serif" font-size="14.00">{f32}[]</text>
<text text-anchor="middle" x="1626.5" y="-976.8" font-family="Times New Roman,serif" font-size="14.00">value: [&#45;0.64]</text>
</g>
<!-- CLONE_8&#45;&gt;FakeQuantize_92 -->
<g id="edge16" class="edge">
<title>CLONE_8&#45;&gt;FakeQuantize_92</title>
<path fill="none" stroke="black" d="M1564.93,-968.86C1539.67,-955.26 1509.32,-938.92 1479.19,-922.7"/>
<polygon fill="black" stroke="black" points="1480.74,-919.56 1470.28,-917.9 1477.42,-925.72 1480.74,-919.56"/>
<text text-anchor="middle" x="1546.5" y="-939.8" font-family="Times New Roman,serif" font-size="14.00"> 0 &#45;&gt; 3 </text>
</g>
<!-- CLONE_9 -->
<g id="node18" class="node">
<title>CLONE_9</title>
<polygon fill="none" stroke="black" stroke-dasharray="5,2" points="1904,-1037 1731,-1037 1731,-969 1904,-969 1904,-1037"/>
<text text-anchor="middle" x="1817.5" y="-1021.8" font-family="Times New Roman,serif" font-size="14.00">friendly_name: Constant_91</text>
<text text-anchor="middle" x="1817.5" y="-1006.8" font-family="Times New Roman,serif" font-size="14.00">type_name: Constant</text>
<text text-anchor="middle" x="1817.5" y="-991.8" font-family="Times New Roman,serif" font-size="14.00">{f32}[]</text>
<text text-anchor="middle" x="1817.5" y="-976.8" font-family="Times New Roman,serif" font-size="14.00">value: [0.635]</text>
</g>
<!-- CLONE_9&#45;&gt;FakeQuantize_92 -->
<g id="edge17" class="edge">
<title>CLONE_9&#45;&gt;FakeQuantize_92</title>
<path fill="none" stroke="black" d="M1730.92,-972.14C1727.74,-971.07 1724.6,-970.02 1721.5,-969 1641.67,-942.59 1552.1,-914.04 1479.77,-891.26"/>
<polygon fill="black" stroke="black" points="1480.72,-887.89 1470.13,-888.23 1478.62,-894.57 1480.72,-887.89"/>
<text text-anchor="middle" x="1680.5" y="-939.8" font-family="Times New Roman,serif" font-size="14.00"> 0 &#45;&gt; 4 </text>
</g>
<!-- AvgPool_85 -->
<g id="node19" class="node">
<title>AvgPool_85</title>
<polygon fill="none" stroke="black" points="883.5,-724 453.5,-724 453.5,-626 883.5,-626 883.5,-724"/>
<text text-anchor="middle" x="668.5" y="-708.8" font-family="Times New Roman,serif" font-size="14.00">friendly_name: avgPool1</text>
<text text-anchor="middle" x="668.5" y="-693.8" font-family="Times New Roman,serif" font-size="14.00">name: AvgPool_85</text>
<text text-anchor="middle" x="668.5" y="-678.8" font-family="Times New Roman,serif" font-size="14.00">type_name: AvgPool</text>
<text text-anchor="middle" x="668.5" y="-663.8" font-family="Times New Roman,serif" font-size="14.00">rt info: &#160;PRECISION_PRESERVED(value: true, operation: FakeQuantize)</text>
<text text-anchor="middle" x="668.5" y="-648.8" font-family="Times New Roman,serif" font-size="14.00">in0: {f32}[1,3,9,9]: FakeQuantize_84: out0 PRECISIONS({u8}) </text>
<text text-anchor="middle" x="668.5" y="-633.8" font-family="Times New Roman,serif" font-size="14.00">out0: {f32}[1,3,9,9]</text>
</g>
<!-- AvgPool_85&#45;&gt;MaxPool_86 -->
<g id="edge18" class="edge">
<title>AvgPool_85&#45;&gt;MaxPool_86</title>
<path fill="none" stroke="black" d="M668.5,-625.96C668.5,-610.7 668.5,-593.66 668.5,-577.76"/>
<polygon fill="black" stroke="black" points="672,-577.51 668.5,-567.51 665,-577.51 672,-577.51"/>
<text text-anchor="middle" x="689.5" y="-596.8" font-family="Times New Roman,serif" font-size="14.00"> 0 &#45;&gt; 0 </text>
</g>
<!-- FakeQuantize_84 -->
<g id="node20" class="node">
<title>FakeQuantize_84</title>
<polygon fill="none" stroke="black" points="701,-918 440,-918 440,-775 701,-775 701,-918"/>
<text text-anchor="middle" x="570.5" y="-902.8" font-family="Times New Roman,serif" font-size="14.00">friendly_name: fakeQuantizeOnActivations1</text>
<text text-anchor="middle" x="570.5" y="-887.8" font-family="Times New Roman,serif" font-size="14.00">name: FakeQuantize_84</text>
<text text-anchor="middle" x="570.5" y="-872.8" font-family="Times New Roman,serif" font-size="14.00">type_name: FakeQuantize</text>
<text text-anchor="middle" x="570.5" y="-857.8" font-family="Times New Roman,serif" font-size="14.00">in0: {f32}[1,3,9,9]: Parameter_79: out0</text>
<text text-anchor="middle" x="570.5" y="-842.8" font-family="Times New Roman,serif" font-size="14.00">in1: {f32}[]: Constant_80: out0</text>
<text text-anchor="middle" x="570.5" y="-827.8" font-family="Times New Roman,serif" font-size="14.00">in2: {f32}[]: Constant_81: out0</text>
<text text-anchor="middle" x="570.5" y="-812.8" font-family="Times New Roman,serif" font-size="14.00">in3: {f32}[]: Constant_82: out0</text>
<text text-anchor="middle" x="570.5" y="-797.8" font-family="Times New Roman,serif" font-size="14.00">in4: {f32}[]: Constant_83: out0</text>
<text text-anchor="middle" x="570.5" y="-782.8" font-family="Times New Roman,serif" font-size="14.00">out0: {f32}[1,3,9,9] PRECISIONS({u8}) </text>
</g>
<!-- FakeQuantize_84&#45;&gt;AvgPool_85 -->
<g id="edge19" class="edge">
<title>FakeQuantize_84&#45;&gt;AvgPool_85</title>
<path fill="none" stroke="black" d="M611.49,-774.6C619.46,-760.82 627.72,-746.53 635.4,-733.25"/>
<polygon fill="black" stroke="black" points="638.63,-734.65 640.61,-724.24 632.57,-731.15 638.63,-734.65"/>
<text text-anchor="middle" x="649.5" y="-745.8" font-family="Times New Roman,serif" font-size="14.00"> 0 &#45;&gt; 0 </text>
</g>
<!-- CLONE_10 -->
<g id="node21" class="node">
<title>CLONE_10</title>
<polygon fill="none" stroke="blue" stroke-dasharray="5,2" points="179,-1029.5 0,-1029.5 0,-976.5 179,-976.5 179,-1029.5"/>
<text text-anchor="middle" x="89.5" y="-1014.3" font-family="Times New Roman,serif" font-size="14.00">friendly_name: Parameter_79</text>
<text text-anchor="middle" x="89.5" y="-999.3" font-family="Times New Roman,serif" font-size="14.00">type_name: Parameter</text>
<text text-anchor="middle" x="89.5" y="-984.3" font-family="Times New Roman,serif" font-size="14.00">{f32}[1,3,9,9]</text>
</g>
<!-- CLONE_10&#45;&gt;FakeQuantize_84 -->
<g id="edge20" class="edge">
<title>CLONE_10&#45;&gt;FakeQuantize_84</title>
<path fill="none" stroke="black" d="M164.9,-976.46C172.53,-973.92 180.16,-971.4 187.5,-969 267.61,-942.81 357.42,-914.27 429.92,-891.44"/>
<polygon fill="black" stroke="black" points="431.1,-894.74 439.58,-888.4 428.99,-888.07 431.1,-894.74"/>
<text text-anchor="middle" x="303.5" y="-939.8" font-family="Times New Roman,serif" font-size="14.00"> 0 &#45;&gt; 0 </text>
</g>
<!-- CLONE_11 -->
<g id="node22" class="node">
<title>CLONE_11</title>
<polygon fill="none" stroke="black" stroke-dasharray="5,2" points="370,-1037 197,-1037 197,-969 370,-969 370,-1037"/>
<text text-anchor="middle" x="283.5" y="-1021.8" font-family="Times New Roman,serif" font-size="14.00">friendly_name: Constant_80</text>
<text text-anchor="middle" x="283.5" y="-1006.8" font-family="Times New Roman,serif" font-size="14.00">type_name: Constant</text>
<text text-anchor="middle" x="283.5" y="-991.8" font-family="Times New Roman,serif" font-size="14.00">{f32}[]</text>
<text text-anchor="middle" x="283.5" y="-976.8" font-family="Times New Roman,serif" font-size="14.00">value: [&#45;1.28]</text>
</g>
<!-- CLONE_11&#45;&gt;FakeQuantize_84 -->
<g id="edge21" class="edge">
<title>CLONE_11&#45;&gt;FakeQuantize_84</title>
<path fill="none" stroke="black" d="M345.07,-968.86C370.33,-955.26 400.68,-938.92 430.81,-922.7"/>
<polygon fill="black" stroke="black" points="432.58,-925.72 439.72,-917.9 429.26,-919.56 432.58,-925.72"/>
<text text-anchor="middle" x="422.5" y="-939.8" font-family="Times New Roman,serif" font-size="14.00"> 0 &#45;&gt; 1 </text>
</g>
<!-- CLONE_12 -->
<g id="node23" class="node">
<title>CLONE_12</title>
<polygon fill="none" stroke="black" stroke-dasharray="5,2" points="561,-1037 388,-1037 388,-969 561,-969 561,-1037"/>
<text text-anchor="middle" x="474.5" y="-1021.8" font-family="Times New Roman,serif" font-size="14.00">friendly_name: Constant_81</text>
<text text-anchor="middle" x="474.5" y="-1006.8" font-family="Times New Roman,serif" font-size="14.00">type_name: Constant</text>
<text text-anchor="middle" x="474.5" y="-991.8" font-family="Times New Roman,serif" font-size="14.00">{f32}[]</text>
<text text-anchor="middle" x="474.5" y="-976.8" font-family="Times New Roman,serif" font-size="14.00">value: [1.27]</text>
</g>
<!-- CLONE_12&#45;&gt;FakeQuantize_84 -->
<g id="edge22" class="edge">
<title>CLONE_12&#45;&gt;FakeQuantize_84</title>
<path fill="none" stroke="black" d="M495.09,-968.86C502.83,-956.4 512,-941.65 521.23,-926.8"/>
<polygon fill="black" stroke="black" points="524.35,-928.4 526.66,-918.06 518.41,-924.71 524.35,-928.4"/>
<text text-anchor="middle" x="535.5" y="-939.8" font-family="Times New Roman,serif" font-size="14.00"> 0 &#45;&gt; 2 </text>
</g>
<!-- CLONE_13 -->
<g id="node24" class="node">
<title>CLONE_13</title>
<polygon fill="none" stroke="black" stroke-dasharray="5,2" points="752,-1037 579,-1037 579,-969 752,-969 752,-1037"/>
<text text-anchor="middle" x="665.5" y="-1021.8" font-family="Times New Roman,serif" font-size="14.00">friendly_name: Constant_82</text>
<text text-anchor="middle" x="665.5" y="-1006.8" font-family="Times New Roman,serif" font-size="14.00">type_name: Constant</text>
<text text-anchor="middle" x="665.5" y="-991.8" font-family="Times New Roman,serif" font-size="14.00">{f32}[]</text>
<text text-anchor="middle" x="665.5" y="-976.8" font-family="Times New Roman,serif" font-size="14.00">value: [&#45;1.28]</text>
</g>
<!-- CLONE_13&#45;&gt;FakeQuantize_84 -->
<g id="edge23" class="edge">
<title>CLONE_13&#45;&gt;FakeQuantize_84</title>
<path fill="none" stroke="black" d="M645.12,-968.86C637.46,-956.4 628.39,-941.65 619.26,-926.8"/>
<polygon fill="black" stroke="black" points="622.11,-924.75 613.89,-918.06 616.14,-928.41 622.11,-924.75"/>
<text text-anchor="middle" x="653.5" y="-939.8" font-family="Times New Roman,serif" font-size="14.00"> 0 &#45;&gt; 3 </text>
</g>
<!-- CLONE_14 -->
<g id="node25" class="node">
<title>CLONE_14</title>
<polygon fill="none" stroke="black" stroke-dasharray="5,2" points="943,-1037 770,-1037 770,-969 943,-969 943,-1037"/>
<text text-anchor="middle" x="856.5" y="-1021.8" font-family="Times New Roman,serif" font-size="14.00">friendly_name: Constant_83</text>
<text text-anchor="middle" x="856.5" y="-1006.8" font-family="Times New Roman,serif" font-size="14.00">type_name: Constant</text>
<text text-anchor="middle" x="856.5" y="-991.8" font-family="Times New Roman,serif" font-size="14.00">{f32}[]</text>
<text text-anchor="middle" x="856.5" y="-976.8" font-family="Times New Roman,serif" font-size="14.00">value: [1.27]</text>
</g>
<!-- CLONE_14&#45;&gt;FakeQuantize_84 -->
<g id="edge24" class="edge">
<title>CLONE_14&#45;&gt;FakeQuantize_84</title>
<path fill="none" stroke="black" d="M795.15,-968.86C770.05,-955.3 739.91,-939.01 709.97,-922.84"/>
<polygon fill="black" stroke="black" points="711.58,-919.73 701.12,-918.06 708.25,-925.89 711.58,-919.73"/>
<text text-anchor="middle" x="777.5" y="-939.8" font-family="Times New Roman,serif" font-size="14.00"> 0 &#45;&gt; 4 </text>
</g>
</g>
</svg>
