<?xml version="1.0" encoding="UTF-8" standalone="no"?>
<!DOCTYPE svg PUBLIC "-//W3C//DTD SVG 1.1//EN"
 "http://www.w3.org/Graphics/SVG/1.1/DTD/svg11.dtd">
<!-- Generated by graphviz version 2.43.20200408.0903 (20200408.0903)
 -->
<!-- Title: ngraph Pages: 1 -->
<svg width="1942pt" height="1388pt"
 viewBox="0.00 0.00 1941.50 1388.00" xmlns="http://www.w3.org/2000/svg" xmlns:xlink="http://www.w3.org/1999/xlink">
<g id="graph0" class="graph" transform="scale(1 1) rotate(0) translate(4 1384)">
<title>ngraph</title>
<polygon fill="white" stroke="transparent" points="-4,4 -4,-1384 1937.5,-1384 1937.5,4 -4,4"/>
<!-- Multiply_225 -->
<g id="node1" class="node">
<title>Multiply_225</title>
<polygon fill="none" stroke="black" points="1507.5,-247 1253.5,-247 1253.5,-134 1507.5,-134 1507.5,-247"/>
<text text-anchor="middle" x="1380.5" y="-231.8" font-family="Times New Roman,serif" font-size="14.00">friendly_name: Convolution_222</text>
<text text-anchor="middle" x="1380.5" y="-216.8" font-family="Times New Roman,serif" font-size="14.00">name: Multiply_225</text>
<text text-anchor="middle" x="1380.5" y="-201.8" font-family="Times New Roman,serif" font-size="14.00">type_name: Multiply</text>
<text text-anchor="middle" x="1380.5" y="-186.8" font-family="Times New Roman,serif" font-size="14.00">rt info: DEQUANTIZATION() </text>
<text text-anchor="middle" x="1380.5" y="-171.8" font-family="Times New Roman,serif" font-size="14.00">in0: {f32}[1,9,9,9]: Convolution_222: out0</text>
<text text-anchor="middle" x="1380.5" y="-156.8" font-family="Times New Roman,serif" font-size="14.00">in1: {f32}[1,9,1,1]: Constant_228: out0</text>
<text text-anchor="middle" x="1380.5" y="-141.8" font-family="Times New Roman,serif" font-size="14.00">out0: {f32}[1,9,9,9]</text>
</g>
<!-- Result_103 -->
<g id="node2" class="node">
<title>Result_103</title>
<polygon fill="none" stroke="crimson" stroke-width="1.5" points="1526.5,-83 1234.5,-83 1234.5,0 1526.5,0 1526.5,-83"/>
<text text-anchor="middle" x="1380.5" y="-67.8" font-family="Times New Roman,serif" font-size="14.00">friendly_name: Result_103</text>
<text text-anchor="middle" x="1380.5" y="-52.8" font-family="Times New Roman,serif" font-size="14.00">type_name: Result</text>
<text text-anchor="middle" x="1380.5" y="-37.8" font-family="Times New Roman,serif" font-size="14.00">rt info: PRECISION_PRESERVED(value: false) </text>
<text text-anchor="middle" x="1380.5" y="-22.8" font-family="Times New Roman,serif" font-size="14.00">in0: {f32}[1,9,9,9]: Multiply_225: out0</text>
<text text-anchor="middle" x="1380.5" y="-7.8" font-family="Times New Roman,serif" font-size="14.00">out0: {f32}[1,9,9,9]</text>
</g>
<!-- Multiply_225&#45;&gt;Result_103 -->
<g id="edge1" class="edge">
<title>Multiply_225&#45;&gt;Result_103</title>
<path fill="none" stroke="black" d="M1380.5,-133.93C1380.5,-120.58 1380.5,-106.4 1380.5,-93.28"/>
<polygon fill="black" stroke="black" points="1384,-93.03 1380.5,-83.03 1377,-93.03 1384,-93.03"/>
<text text-anchor="middle" x="1401.5" y="-104.8" font-family="Times New Roman,serif" font-size="14.00"> 0 &#45;&gt; 0 </text>
</g>
<!-- Convolution_222 -->
<g id="node3" class="node">
<title>Convolution_222</title>
<polygon fill="none" stroke="black" points="1331,-396 1084,-396 1084,-298 1331,-298 1331,-396"/>
<text text-anchor="middle" x="1207.5" y="-380.8" font-family="Times New Roman,serif" font-size="14.00">friendly_name: Convolution_222_original</text>
<text text-anchor="middle" x="1207.5" y="-365.8" font-family="Times New Roman,serif" font-size="14.00">name: Convolution_222</text>
<text text-anchor="middle" x="1207.5" y="-350.8" font-family="Times New Roman,serif" font-size="14.00">type_name: Convolution</text>
<text text-anchor="middle" x="1207.5" y="-335.8" font-family="Times New Roman,serif" font-size="14.00">in0: {f32}[1,6,9,9]: Subtract_196: out0</text>
<text text-anchor="middle" x="1207.5" y="-320.8" font-family="Times New Roman,serif" font-size="14.00">in1: {i8}[9,6,1,1]: Constant_210: out0</text>
<text text-anchor="middle" x="1207.5" y="-305.8" font-family="Times New Roman,serif" font-size="14.00">out0: {f32}[1,9,9,9]</text>
</g>
<!-- Convolution_222&#45;&gt;Multiply_225 -->
<g id="edge2" class="edge">
<title>Convolution_222&#45;&gt;Multiply_225</title>
<path fill="none" stroke="black" d="M1261.29,-297.96C1276.94,-283.98 1294.28,-268.5 1310.76,-253.78"/>
<polygon fill="black" stroke="black" points="1313.14,-256.35 1318.27,-247.08 1308.48,-251.13 1313.14,-256.35"/>
<text text-anchor="middle" x="1315.5" y="-268.8" font-family="Times New Roman,serif" font-size="14.00"> 0 &#45;&gt; 0 </text>
</g>
<!-- CLONE_0 -->
<g id="node4" class="node">
<title>CLONE_0</title>
<polygon fill="none" stroke="black" stroke-dasharray="5,2" points="1758,-388.5 1349,-388.5 1349,-305.5 1758,-305.5 1758,-388.5"/>
<text text-anchor="middle" x="1553.5" y="-373.3" font-family="Times New Roman,serif" font-size="14.00">friendly_name: Constant_228</text>
<text text-anchor="middle" x="1553.5" y="-358.3" font-family="Times New Roman,serif" font-size="14.00">type_name: Constant</text>
<text text-anchor="middle" x="1553.5" y="-343.3" font-family="Times New Roman,serif" font-size="14.00">{f32}[1,9,1,1]</text>
<text text-anchor="middle" x="1553.5" y="-328.3" font-family="Times New Roman,serif" font-size="14.00">value: [0.0001, 0.0001, 0.0001, 0.0001, 0.0001, 0.0001, 0.0001, 0.0001</text>
<text text-anchor="middle" x="1553.5" y="-313.3" font-family="Times New Roman,serif" font-size="14.00">, 0.0001]</text>
</g>
<!-- CLONE_0&#45;&gt;Multiply_225 -->
<g id="edge3" class="edge">
<title>CLONE_0&#45;&gt;Multiply_225</title>
<path fill="none" stroke="black" d="M1508.05,-305.41C1490.46,-289.7 1469.92,-271.36 1450.54,-254.05"/>
<polygon fill="black" stroke="black" points="1452.67,-251.26 1442.88,-247.21 1448.01,-256.48 1452.67,-251.26"/>
<text text-anchor="middle" x="1498.5" y="-268.8" font-family="Times New Roman,serif" font-size="14.00"> 0 &#45;&gt; 1 </text>
</g>
<!-- Subtract_196 -->
<g id="node5" class="node">
<title>Subtract_196</title>
<polygon fill="none" stroke="black" points="1238.5,-575 808.5,-575 808.5,-447 1238.5,-447 1238.5,-575"/>
<text text-anchor="middle" x="1023.5" y="-559.8" font-family="Times New Roman,serif" font-size="14.00">friendly_name: Subtract_177</text>
<text text-anchor="middle" x="1023.5" y="-544.8" font-family="Times New Roman,serif" font-size="14.00">name: Subtract_196</text>
<text text-anchor="middle" x="1023.5" y="-529.8" font-family="Times New Roman,serif" font-size="14.00">type_name: Subtract</text>
<text text-anchor="middle" x="1023.5" y="-514.8" font-family="Times New Roman,serif" font-size="14.00">rt info: PRECISION_PRESERVED(value: true, operation: FakeQuantize) </text>
<text text-anchor="middle" x="1023.5" y="-499.8" font-family="Times New Roman,serif" font-size="14.00">QUANTIZATION_ALIGNMENT(low: &#45;1.280000, high: 1.270000) </text>
<text text-anchor="middle" x="1023.5" y="-484.8" font-family="Times New Roman,serif" font-size="14.00">in0: {u8}[1,6,9,9]: Concat_183: out0</text>
<text text-anchor="middle" x="1023.5" y="-469.8" font-family="Times New Roman,serif" font-size="14.00">in1: {u8}[1,6,1,1]: Constant_195: out0</text>
<text text-anchor="middle" x="1023.5" y="-454.8" font-family="Times New Roman,serif" font-size="14.00">out0: {f32}[1,6,9,9]</text>
</g>
<!-- Subtract_196&#45;&gt;Convolution_222 -->
<g id="edge4" class="edge">
<title>Subtract_196&#45;&gt;Convolution_222</title>
<path fill="none" stroke="black" d="M1095.17,-446.9C1111.64,-432.4 1129.03,-417.08 1145.08,-402.95"/>
<polygon fill="black" stroke="black" points="1147.65,-405.36 1152.84,-396.12 1143.02,-400.1 1147.65,-405.36"/>
<text text-anchor="middle" x="1153.5" y="-417.8" font-family="Times New Roman,serif" font-size="14.00"> 0 &#45;&gt; 0 </text>
</g>
<!-- CLONE_1 -->
<g id="node6" class="node">
<title>CLONE_1</title>
<polygon fill="none" stroke="black" stroke-dasharray="5,2" points="1528,-567.5 1257,-567.5 1257,-454.5 1528,-454.5 1528,-567.5"/>
<text text-anchor="middle" x="1392.5" y="-552.3" font-family="Times New Roman,serif" font-size="14.00">friendly_name: Constant_210</text>
<text text-anchor="middle" x="1392.5" y="-537.3" font-family="Times New Roman,serif" font-size="14.00">type_name: Constant</text>
<text text-anchor="middle" x="1392.5" y="-522.3" font-family="Times New Roman,serif" font-size="14.00">{i8}[9,6,1,1]</text>
<text text-anchor="middle" x="1392.5" y="-507.3" font-family="Times New Roman,serif" font-size="14.00">value: [127, 127, 127, 127, 127, 127, 127, 127</text>
<text text-anchor="middle" x="1392.5" y="-492.3" font-family="Times New Roman,serif" font-size="14.00">, 127, 127, 127, 127, 127, 127, 127, 127</text>
<text text-anchor="middle" x="1392.5" y="-477.3" font-family="Times New Roman,serif" font-size="14.00">, 127, 127, 127, 127, 127, 127, 127, 127</text>
<text text-anchor="middle" x="1392.5" y="-462.3" font-family="Times New Roman,serif" font-size="14.00">, 127, 127, 127, 127, 127, 127, 127, 127...]</text>
</g>
<!-- CLONE_1&#45;&gt;Convolution_222 -->
<g id="edge5" class="edge">
<title>CLONE_1&#45;&gt;Convolution_222</title>
<path fill="none" stroke="black" d="M1329.09,-454.48C1310.06,-437.81 1289.2,-419.55 1270.22,-402.92"/>
<polygon fill="black" stroke="black" points="1272.32,-400.11 1262.49,-396.15 1267.71,-405.37 1272.32,-400.11"/>
<text text-anchor="middle" x="1321.5" y="-417.8" font-family="Times New Roman,serif" font-size="14.00"> 0 &#45;&gt; 1 </text>
</g>
<!-- Concat_183 -->
<g id="node7" class="node">
<title>Concat_183</title>
<polygon fill="none" stroke="black" points="1017,-709 786,-709 786,-626 1017,-626 1017,-709"/>
<text text-anchor="middle" x="901.5" y="-693.8" font-family="Times New Roman,serif" font-size="14.00">friendly_name: Concat_183</text>
<text text-anchor="middle" x="901.5" y="-678.8" font-family="Times New Roman,serif" font-size="14.00">type_name: Concat</text>
<text text-anchor="middle" x="901.5" y="-663.8" font-family="Times New Roman,serif" font-size="14.00">in0: {u8}[1,3,9,9]: MaxPool_139: out0</text>
<text text-anchor="middle" x="901.5" y="-648.8" font-family="Times New Roman,serif" font-size="14.00">in1: {u8}[1,3,9,9]: MaxPool_144: out0</text>
<text text-anchor="middle" x="901.5" y="-633.8" font-family="Times New Roman,serif" font-size="14.00">out0: {u8}[1,6,9,9]</text>
</g>
<!-- Concat_183&#45;&gt;Subtract_196 -->
<g id="edge6" class="edge">
<title>Concat_183&#45;&gt;Subtract_196</title>
<path fill="none" stroke="black" d="M933.55,-625.91C943.92,-612.78 955.74,-597.82 967.32,-583.15"/>
<polygon fill="black" stroke="black" points="970.27,-585.06 973.72,-575.04 964.77,-580.72 970.27,-585.06"/>
<text text-anchor="middle" x="980.5" y="-596.8" font-family="Times New Roman,serif" font-size="14.00"> 0 &#45;&gt; 0 </text>
</g>
<!-- CLONE_2 -->
<g id="node8" class="node">
<title>CLONE_2</title>
<polygon fill="none" stroke="black" stroke-dasharray="5,2" points="1255.5,-701.5 1035.5,-701.5 1035.5,-633.5 1255.5,-633.5 1255.5,-701.5"/>
<text text-anchor="middle" x="1145.5" y="-686.3" font-family="Times New Roman,serif" font-size="14.00">friendly_name: Constant_195</text>
<text text-anchor="middle" x="1145.5" y="-671.3" font-family="Times New Roman,serif" font-size="14.00">type_name: Constant</text>
<text text-anchor="middle" x="1145.5" y="-656.3" font-family="Times New Roman,serif" font-size="14.00">{u8}[1,6,1,1]</text>
<text text-anchor="middle" x="1145.5" y="-641.3" font-family="Times New Roman,serif" font-size="14.00">value: [128, 128, 128, 128, 128, 128]</text>
</g>
<!-- CLONE_2&#45;&gt;Subtract_196 -->
<g id="edge7" class="edge">
<title>CLONE_2&#45;&gt;Subtract_196</title>
<path fill="none" stroke="black" d="M1119.33,-633.36C1107.67,-618.59 1093.46,-600.6 1079.59,-583.03"/>
<polygon fill="black" stroke="black" points="1082.2,-580.69 1073.25,-575.01 1076.7,-585.03 1082.2,-580.69"/>
<text text-anchor="middle" x="1120.5" y="-596.8" font-family="Times New Roman,serif" font-size="14.00"> 0 &#45;&gt; 1 </text>
</g>
<!-- MaxPool_139 -->
<g id="node9" class="node">
<title>MaxPool_139</title>
<polygon fill="none" stroke="black" points="893.5,-873 463.5,-873 463.5,-760 893.5,-760 893.5,-873"/>
<text text-anchor="middle" x="678.5" y="-857.8" font-family="Times New Roman,serif" font-size="14.00">friendly_name: maxPool1</text>
<text text-anchor="middle" x="678.5" y="-842.8" font-family="Times New Roman,serif" font-size="14.00">name: MaxPool_139</text>
<text text-anchor="middle" x="678.5" y="-827.8" font-family="Times New Roman,serif" font-size="14.00">type_name: MaxPool</text>
<text text-anchor="middle" x="678.5" y="-812.8" font-family="Times New Roman,serif" font-size="14.00">rt info: PRECISION_PRESERVED(value: true, operation: FakeQuantize) </text>
<text text-anchor="middle" x="678.5" y="-797.8" font-family="Times New Roman,serif" font-size="14.00">QUANTIZATION_ALIGNMENT(low: &#45;1.280000, high: 1.270000) </text>
<text text-anchor="middle" x="678.5" y="-782.8" font-family="Times New Roman,serif" font-size="14.00">in0: {u8}[1,3,9,9]: AvgPool_129: out0</text>
<text text-anchor="middle" x="678.5" y="-767.8" font-family="Times New Roman,serif" font-size="14.00">out0: {u8}[1,3,9,9]</text>
</g>
<!-- MaxPool_139&#45;&gt;Concat_183 -->
<g id="edge8" class="edge">
<title>MaxPool_139&#45;&gt;Concat_183</title>
<path fill="none" stroke="black" d="M762.81,-759.93C785.45,-745 809.7,-729.02 831.48,-714.66"/>
<polygon fill="black" stroke="black" points="833.59,-717.46 840.01,-709.03 829.74,-711.61 833.59,-717.46"/>
<text text-anchor="middle" x="831.5" y="-730.8" font-family="Times New Roman,serif" font-size="14.00"> 0 &#45;&gt; 0 </text>
</g>
<!-- MaxPool_144 -->
<g id="node10" class="node">
<title>MaxPool_144</title>
<polygon fill="none" stroke="black" points="1398.5,-873 968.5,-873 968.5,-760 1398.5,-760 1398.5,-873"/>
<text text-anchor="middle" x="1183.5" y="-857.8" font-family="Times New Roman,serif" font-size="14.00">friendly_name: maxPool2</text>
<text text-anchor="middle" x="1183.5" y="-842.8" font-family="Times New Roman,serif" font-size="14.00">name: MaxPool_144</text>
<text text-anchor="middle" x="1183.5" y="-827.8" font-family="Times New Roman,serif" font-size="14.00">type_name: MaxPool</text>
<text text-anchor="middle" x="1183.5" y="-812.8" font-family="Times New Roman,serif" font-size="14.00">rt info: PRECISION_PRESERVED(value: true, operation: FakeQuantize) </text>
<text text-anchor="middle" x="1183.5" y="-797.8" font-family="Times New Roman,serif" font-size="14.00">QUANTIZATION_ALIGNMENT(low: &#45;1.280000, high: 1.270000) </text>
<text text-anchor="middle" x="1183.5" y="-782.8" font-family="Times New Roman,serif" font-size="14.00">in0: {u8}[1,3,9,9]: AvgPool_134: out0</text>
<text text-anchor="middle" x="1183.5" y="-767.8" font-family="Times New Roman,serif" font-size="14.00">out0: {u8}[1,3,9,9]</text>
</g>
<!-- MaxPool_144&#45;&gt;Concat_183 -->
<g id="edge9" class="edge">
<title>MaxPool_144&#45;&gt;Concat_183</title>
<path fill="none" stroke="black" d="M1076.89,-759.93C1047.61,-744.67 1016.23,-728.31 988.23,-713.71"/>
<polygon fill="black" stroke="black" points="989.74,-710.55 979.26,-709.03 986.51,-716.76 989.74,-710.55"/>
<text text-anchor="middle" x="1063.5" y="-730.8" font-family="Times New Roman,serif" font-size="14.00"> 0 &#45;&gt; 1 </text>
</g>
<!-- AvgPool_134 -->
<g id="node11" class="node">
<title>AvgPool_134</title>
<polygon fill="none" stroke="black" points="1455.5,-1037 1025.5,-1037 1025.5,-924 1455.5,-924 1455.5,-1037"/>
<text text-anchor="middle" x="1240.5" y="-1021.8" font-family="Times New Roman,serif" font-size="14.00">friendly_name: avgPool2</text>
<text text-anchor="middle" x="1240.5" y="-1006.8" font-family="Times New Roman,serif" font-size="14.00">name: AvgPool_134</text>
<text text-anchor="middle" x="1240.5" y="-991.8" font-family="Times New Roman,serif" font-size="14.00">type_name: AvgPool</text>
<text text-anchor="middle" x="1240.5" y="-976.8" font-family="Times New Roman,serif" font-size="14.00">rt info: PRECISION_PRESERVED(value: true, operation: FakeQuantize) </text>
<text text-anchor="middle" x="1240.5" y="-961.8" font-family="Times New Roman,serif" font-size="14.00">QUANTIZATION_ALIGNMENT(low: &#45;1.280000, high: 1.270000) </text>
<text text-anchor="middle" x="1240.5" y="-946.8" font-family="Times New Roman,serif" font-size="14.00">in0: {u8}[1,3,9,9]: FakeQuantize_122: out0</text>
<text text-anchor="middle" x="1240.5" y="-931.8" font-family="Times New Roman,serif" font-size="14.00">out0: {u8}[1,3,9,9]</text>
</g>
<!-- AvgPool_134&#45;&gt;MaxPool_144 -->
<g id="edge10" class="edge">
<title>AvgPool_134&#45;&gt;MaxPool_144</title>
<path fill="none" stroke="black" d="M1220.88,-923.75C1216.25,-910.57 1211.26,-896.39 1206.49,-882.83"/>
<polygon fill="black" stroke="black" points="1209.68,-881.35 1203.06,-873.08 1203.07,-883.67 1209.68,-881.35"/>
<text text-anchor="middle" x="1235.5" y="-894.8" font-family="Times New Roman,serif" font-size="14.00"> 0 &#45;&gt; 0 </text>
</g>
<!-- FakeQuantize_122 -->
<g id="node12" class="node">
<title>FakeQuantize_122</title>
<polygon fill="none" stroke="black" points="1552,-1261 1157,-1261 1157,-1088 1552,-1088 1552,-1261"/>
<text text-anchor="middle" x="1354.5" y="-1245.8" font-family="Times New Roman,serif" font-size="14.00">friendly_name: fakeQuantizeOnActivations2</text>
<text text-anchor="middle" x="1354.5" y="-1230.8" font-family="Times New Roman,serif" font-size="14.00">name: FakeQuantize_122</text>
<text text-anchor="middle" x="1354.5" y="-1215.8" font-family="Times New Roman,serif" font-size="14.00">type_name: FakeQuantize</text>
<text text-anchor="middle" x="1354.5" y="-1200.8" font-family="Times New Roman,serif" font-size="14.00">rt info: PRECISION_PRESERVED(value: false) </text>
<text text-anchor="middle" x="1354.5" y="-1185.8" font-family="Times New Roman,serif" font-size="14.00">QUANTIZATION_ALIGNMENT(low: &#45;1.280000, high: 1.270000) </text>
<text text-anchor="middle" x="1354.5" y="-1170.8" font-family="Times New Roman,serif" font-size="14.00">in0: {f32}[1,3,9,9]: Parameter_79: out0</text>
<text text-anchor="middle" x="1354.5" y="-1155.8" font-family="Times New Roman,serif" font-size="14.00">in1: {f32}[]: Constant_88: out0</text>
<text text-anchor="middle" x="1354.5" y="-1140.8" font-family="Times New Roman,serif" font-size="14.00">in2: {f32}[]: Constant_89: out0</text>
<text text-anchor="middle" x="1354.5" y="-1125.8" font-family="Times New Roman,serif" font-size="14.00">in3: {f32}[]: Constant_120: out0</text>
<text text-anchor="middle" x="1354.5" y="-1110.8" font-family="Times New Roman,serif" font-size="14.00">in4: {f32}[]: Constant_121: out0</text>
<text text-anchor="middle" x="1354.5" y="-1095.8" font-family="Times New Roman,serif" font-size="14.00">out0: {u8}[1,3,9,9]</text>
</g>
<!-- FakeQuantize_122&#45;&gt;AvgPool_134 -->
<g id="edge11" class="edge">
<title>FakeQuantize_122&#45;&gt;AvgPool_134</title>
<path fill="none" stroke="black" d="M1303.67,-1087.89C1295.29,-1073.78 1286.73,-1059.37 1278.73,-1045.89"/>
<polygon fill="black" stroke="black" points="1281.68,-1043.99 1273.56,-1037.18 1275.66,-1047.57 1281.68,-1043.99"/>
<text text-anchor="middle" x="1312.5" y="-1058.8" font-family="Times New Roman,serif" font-size="14.00"> 0 &#45;&gt; 0 </text>
</g>
<!-- CLONE_3 -->
<g id="node13" class="node">
<title>CLONE_3</title>
<polygon fill="none" stroke="blue" stroke-dasharray="5,2" points="1155,-1372.5 976,-1372.5 976,-1319.5 1155,-1319.5 1155,-1372.5"/>
<text text-anchor="middle" x="1065.5" y="-1357.3" font-family="Times New Roman,serif" font-size="14.00">friendly_name: Parameter_79</text>
<text text-anchor="middle" x="1065.5" y="-1342.3" font-family="Times New Roman,serif" font-size="14.00">type_name: Parameter</text>
<text text-anchor="middle" x="1065.5" y="-1327.3" font-family="Times New Roman,serif" font-size="14.00">{f32}[1,3,9,9]</text>
</g>
<!-- CLONE_3&#45;&gt;FakeQuantize_122 -->
<g id="edge12" class="edge">
<title>CLONE_3&#45;&gt;FakeQuantize_122</title>
<path fill="none" stroke="black" d="M1109.08,-1319.44C1133.76,-1304.97 1166.28,-1285.89 1199.55,-1266.38"/>
<polygon fill="black" stroke="black" points="1201.63,-1269.22 1208.48,-1261.14 1198.09,-1263.18 1201.63,-1269.22"/>
<text text-anchor="middle" x="1197.5" y="-1282.8" font-family="Times New Roman,serif" font-size="14.00"> 0 &#45;&gt; 0 </text>
</g>
<!-- CLONE_4 -->
<g id="node14" class="node">
<title>CLONE_4</title>
<polygon fill="none" stroke="black" stroke-dasharray="5,2" points="1346,-1380 1173,-1380 1173,-1312 1346,-1312 1346,-1380"/>
<text text-anchor="middle" x="1259.5" y="-1364.8" font-family="Times New Roman,serif" font-size="14.00">friendly_name: Constant_88</text>
<text text-anchor="middle" x="1259.5" y="-1349.8" font-family="Times New Roman,serif" font-size="14.00">type_name: Constant</text>
<text text-anchor="middle" x="1259.5" y="-1334.8" font-family="Times New Roman,serif" font-size="14.00">{f32}[]</text>
<text text-anchor="middle" x="1259.5" y="-1319.8" font-family="Times New Roman,serif" font-size="14.00">value: [&#45;0.64]</text>
</g>
<!-- CLONE_4&#45;&gt;FakeQuantize_122 -->
<g id="edge13" class="edge">
<title>CLONE_4&#45;&gt;FakeQuantize_122</title>
<path fill="none" stroke="black" d="M1278.04,-1311.92C1284.9,-1299.67 1293.07,-1285.11 1301.47,-1270.12"/>
<polygon fill="black" stroke="black" points="1304.59,-1271.7 1306.43,-1261.27 1298.49,-1268.28 1304.59,-1271.7"/>
<text text-anchor="middle" x="1317.5" y="-1282.8" font-family="Times New Roman,serif" font-size="14.00"> 0 &#45;&gt; 1 </text>
</g>
<!-- CLONE_5 -->
<g id="node15" class="node">
<title>CLONE_5</title>
<polygon fill="none" stroke="black" stroke-dasharray="5,2" points="1537,-1380 1364,-1380 1364,-1312 1537,-1312 1537,-1380"/>
<text text-anchor="middle" x="1450.5" y="-1364.8" font-family="Times New Roman,serif" font-size="14.00">friendly_name: Constant_89</text>
<text text-anchor="middle" x="1450.5" y="-1349.8" font-family="Times New Roman,serif" font-size="14.00">type_name: Constant</text>
<text text-anchor="middle" x="1450.5" y="-1334.8" font-family="Times New Roman,serif" font-size="14.00">{f32}[]</text>
<text text-anchor="middle" x="1450.5" y="-1319.8" font-family="Times New Roman,serif" font-size="14.00">value: [0.635]</text>
</g>
<!-- CLONE_5&#45;&gt;FakeQuantize_122 -->
<g id="edge14" class="edge">
<title>CLONE_5&#45;&gt;FakeQuantize_122</title>
<path fill="none" stroke="black" d="M1431.76,-1311.92C1424.83,-1299.67 1416.58,-1285.11 1408.09,-1270.12"/>
<polygon fill="black" stroke="black" points="1411.05,-1268.24 1403.08,-1261.27 1404.96,-1271.69 1411.05,-1268.24"/>
<text text-anchor="middle" x="1440.5" y="-1282.8" font-family="Times New Roman,serif" font-size="14.00"> 0 &#45;&gt; 2 </text>
</g>
<!-- CLONE_6 -->
<g id="node16" class="node">
<title>CLONE_6</title>
<polygon fill="none" stroke="black" stroke-dasharray="5,2" points="1735.5,-1380 1555.5,-1380 1555.5,-1312 1735.5,-1312 1735.5,-1380"/>
<text text-anchor="middle" x="1645.5" y="-1364.8" font-family="Times New Roman,serif" font-size="14.00">friendly_name: Constant_120</text>
<text text-anchor="middle" x="1645.5" y="-1349.8" font-family="Times New Roman,serif" font-size="14.00">type_name: Constant</text>
<text text-anchor="middle" x="1645.5" y="-1334.8" font-family="Times New Roman,serif" font-size="14.00">{f32}[]</text>
<text text-anchor="middle" x="1645.5" y="-1319.8" font-family="Times New Roman,serif" font-size="14.00">value: [64]</text>
</g>
<!-- CLONE_6&#45;&gt;FakeQuantize_122 -->
<g id="edge15" class="edge">
<title>CLONE_6&#45;&gt;FakeQuantize_122</title>
<path fill="none" stroke="black" d="M1588.7,-1311.92C1565.84,-1298.6 1538.26,-1282.54 1510.17,-1266.17"/>
<polygon fill="black" stroke="black" points="1511.84,-1263.1 1501.44,-1261.09 1508.32,-1269.15 1511.84,-1263.1"/>
<text text-anchor="middle" x="1571.5" y="-1282.8" font-family="Times New Roman,serif" font-size="14.00"> 0 &#45;&gt; 3 </text>
</g>
<!-- CLONE_7 -->
<g id="node17" class="node">
<title>CLONE_7</title>
<polygon fill="none" stroke="black" stroke-dasharray="5,2" points="1933.5,-1380 1753.5,-1380 1753.5,-1312 1933.5,-1312 1933.5,-1380"/>
<text text-anchor="middle" x="1843.5" y="-1364.8" font-family="Times New Roman,serif" font-size="14.00">friendly_name: Constant_121</text>
<text text-anchor="middle" x="1843.5" y="-1349.8" font-family="Times New Roman,serif" font-size="14.00">type_name: Constant</text>
<text text-anchor="middle" x="1843.5" y="-1334.8" font-family="Times New Roman,serif" font-size="14.00">{f32}[]</text>
<text text-anchor="middle" x="1843.5" y="-1319.8" font-family="Times New Roman,serif" font-size="14.00">value: [192]</text>
</g>
<!-- CLONE_7&#45;&gt;FakeQuantize_122 -->
<g id="edge16" class="edge">
<title>CLONE_7&#45;&gt;FakeQuantize_122</title>
<path fill="none" stroke="black" d="M1753.24,-1313.71C1699.45,-1295.07 1628.83,-1270.59 1561.98,-1247.42"/>
<polygon fill="black" stroke="black" points="1562.75,-1243.98 1552.15,-1244.01 1560.45,-1250.59 1562.75,-1243.98"/>
<text text-anchor="middle" x="1705.5" y="-1282.8" font-family="Times New Roman,serif" font-size="14.00"> 0 &#45;&gt; 4 </text>
</g>
<!-- AvgPool_129 -->
<g id="node18" class="node">
<title>AvgPool_129</title>
<polygon fill="none" stroke="black" points="893.5,-1037 463.5,-1037 463.5,-924 893.5,-924 893.5,-1037"/>
<text text-anchor="middle" x="678.5" y="-1021.8" font-family="Times New Roman,serif" font-size="14.00">friendly_name: avgPool1</text>
<text text-anchor="middle" x="678.5" y="-1006.8" font-family="Times New Roman,serif" font-size="14.00">name: AvgPool_129</text>
<text text-anchor="middle" x="678.5" y="-991.8" font-family="Times New Roman,serif" font-size="14.00">type_name: AvgPool</text>
<text text-anchor="middle" x="678.5" y="-976.8" font-family="Times New Roman,serif" font-size="14.00">rt info: PRECISION_PRESERVED(value: true, operation: FakeQuantize) </text>
<text text-anchor="middle" x="678.5" y="-961.8" font-family="Times New Roman,serif" font-size="14.00">QUANTIZATION_ALIGNMENT(low: &#45;1.280000, high: 1.270000) </text>
<text text-anchor="middle" x="678.5" y="-946.8" font-family="Times New Roman,serif" font-size="14.00">in0: {u8}[1,3,9,9]: FakeQuantize_113: out0</text>
<text text-anchor="middle" x="678.5" y="-931.8" font-family="Times New Roman,serif" font-size="14.00">out0: {u8}[1,3,9,9]</text>
</g>
<!-- AvgPool_129&#45;&gt;MaxPool_139 -->
<g id="edge17" class="edge">
<title>AvgPool_129&#45;&gt;MaxPool_139</title>
<path fill="none" stroke="black" d="M678.5,-923.75C678.5,-910.69 678.5,-896.67 678.5,-883.22"/>
<polygon fill="black" stroke="black" points="682,-883.08 678.5,-873.08 675,-883.08 682,-883.08"/>
<text text-anchor="middle" x="699.5" y="-894.8" font-family="Times New Roman,serif" font-size="14.00"> 0 &#45;&gt; 0 </text>
</g>
<!-- FakeQuantize_113 -->
<g id="node19" class="node">
<title>FakeQuantize_113</title>
<polygon fill="none" stroke="black" points="770,-1261 375,-1261 375,-1088 770,-1088 770,-1261"/>
<text text-anchor="middle" x="572.5" y="-1245.8" font-family="Times New Roman,serif" font-size="14.00">friendly_name: fakeQuantizeOnActivations1</text>
<text text-anchor="middle" x="572.5" y="-1230.8" font-family="Times New Roman,serif" font-size="14.00">name: FakeQuantize_113</text>
<text text-anchor="middle" x="572.5" y="-1215.8" font-family="Times New Roman,serif" font-size="14.00">type_name: FakeQuantize</text>
<text text-anchor="middle" x="572.5" y="-1200.8" font-family="Times New Roman,serif" font-size="14.00">rt info: PRECISION_PRESERVED(value: false) </text>
<text text-anchor="middle" x="572.5" y="-1185.8" font-family="Times New Roman,serif" font-size="14.00">QUANTIZATION_ALIGNMENT(low: &#45;1.280000, high: 1.270000) </text>
<text text-anchor="middle" x="572.5" y="-1170.8" font-family="Times New Roman,serif" font-size="14.00">in0: {f32}[1,3,9,9]: Parameter_79: out0</text>
<text text-anchor="middle" x="572.5" y="-1155.8" font-family="Times New Roman,serif" font-size="14.00">in1: {f32}[]: Constant_80: out0</text>
<text text-anchor="middle" x="572.5" y="-1140.8" font-family="Times New Roman,serif" font-size="14.00">in2: {f32}[]: Constant_81: out0</text>
<text text-anchor="middle" x="572.5" y="-1125.8" font-family="Times New Roman,serif" font-size="14.00">in3: {f32}[]: Constant_111: out0</text>
<text text-anchor="middle" x="572.5" y="-1110.8" font-family="Times New Roman,serif" font-size="14.00">in4: {f32}[]: Constant_112: out0</text>
<text text-anchor="middle" x="572.5" y="-1095.8" font-family="Times New Roman,serif" font-size="14.00">out0: {u8}[1,3,9,9]</text>
</g>
<!-- FakeQuantize_113&#45;&gt;AvgPool_129 -->
<g id="edge18" class="edge">
<title>FakeQuantize_113&#45;&gt;AvgPool_129</title>
<path fill="none" stroke="black" d="M619.76,-1087.89C627.48,-1073.91 635.36,-1059.64 642.74,-1046.28"/>
<polygon fill="black" stroke="black" points="645.99,-1047.63 647.76,-1037.18 639.86,-1044.24 645.99,-1047.63"/>
<text text-anchor="middle" x="656.5" y="-1058.8" font-family="Times New Roman,serif" font-size="14.00"> 0 &#45;&gt; 0 </text>
</g>
<!-- CLONE_8 -->
<g id="node20" class="node">
<title>CLONE_8</title>
<polygon fill="none" stroke="blue" stroke-dasharray="5,2" points="179,-1372.5 0,-1372.5 0,-1319.5 179,-1319.5 179,-1372.5"/>
<text text-anchor="middle" x="89.5" y="-1357.3" font-family="Times New Roman,serif" font-size="14.00">friendly_name: Parameter_79</text>
<text text-anchor="middle" x="89.5" y="-1342.3" font-family="Times New Roman,serif" font-size="14.00">type_name: Parameter</text>
<text text-anchor="middle" x="89.5" y="-1327.3" font-family="Times New Roman,serif" font-size="14.00">{f32}[1,3,9,9]</text>
</g>
<!-- CLONE_8&#45;&gt;FakeQuantize_113 -->
<g id="edge19" class="edge">
<title>CLONE_8&#45;&gt;FakeQuantize_113</title>
<path fill="none" stroke="black" d="M162.33,-1319.44C216.37,-1300.48 292.91,-1273.62 365.26,-1248.23"/>
<polygon fill="black" stroke="black" points="366.7,-1251.43 374.98,-1244.82 364.38,-1244.83 366.7,-1251.43"/>
<text text-anchor="middle" x="295.5" y="-1282.8" font-family="Times New Roman,serif" font-size="14.00"> 0 &#45;&gt; 0 </text>
</g>
<!-- CLONE_9 -->
<g id="node21" class="node">
<title>CLONE_9</title>
<polygon fill="none" stroke="black" stroke-dasharray="5,2" points="370,-1380 197,-1380 197,-1312 370,-1312 370,-1380"/>
<text text-anchor="middle" x="283.5" y="-1364.8" font-family="Times New Roman,serif" font-size="14.00">friendly_name: Constant_80</text>
<text text-anchor="middle" x="283.5" y="-1349.8" font-family="Times New Roman,serif" font-size="14.00">type_name: Constant</text>
<text text-anchor="middle" x="283.5" y="-1334.8" font-family="Times New Roman,serif" font-size="14.00">{f32}[]</text>
<text text-anchor="middle" x="283.5" y="-1319.8" font-family="Times New Roman,serif" font-size="14.00">value: [&#45;1.28]</text>
</g>
<!-- CLONE_9&#45;&gt;FakeQuantize_113 -->
<g id="edge20" class="edge">
<title>CLONE_9&#45;&gt;FakeQuantize_113</title>
<path fill="none" stroke="black" d="M339.91,-1311.92C362.61,-1298.6 390,-1282.54 417.9,-1266.17"/>
<polygon fill="black" stroke="black" points="419.72,-1269.17 426.57,-1261.09 416.17,-1263.13 419.72,-1269.17"/>
<text text-anchor="middle" x="415.5" y="-1282.8" font-family="Times New Roman,serif" font-size="14.00"> 0 &#45;&gt; 1 </text>
</g>
<!-- CLONE_10 -->
<g id="node22" class="node">
<title>CLONE_10</title>
<polygon fill="none" stroke="black" stroke-dasharray="5,2" points="561,-1380 388,-1380 388,-1312 561,-1312 561,-1380"/>
<text text-anchor="middle" x="474.5" y="-1364.8" font-family="Times New Roman,serif" font-size="14.00">friendly_name: Constant_81</text>
<text text-anchor="middle" x="474.5" y="-1349.8" font-family="Times New Roman,serif" font-size="14.00">type_name: Constant</text>
<text text-anchor="middle" x="474.5" y="-1334.8" font-family="Times New Roman,serif" font-size="14.00">{f32}[]</text>
<text text-anchor="middle" x="474.5" y="-1319.8" font-family="Times New Roman,serif" font-size="14.00">value: [1.27]</text>
</g>
<!-- CLONE_10&#45;&gt;FakeQuantize_113 -->
<g id="edge21" class="edge">
<title>CLONE_10&#45;&gt;FakeQuantize_113</title>
<path fill="none" stroke="black" d="M493.63,-1311.92C500.71,-1299.67 509.13,-1285.11 517.79,-1270.12"/>
<polygon fill="black" stroke="black" points="520.94,-1271.68 522.91,-1261.27 514.88,-1268.17 520.94,-1271.68"/>
<text text-anchor="middle" x="533.5" y="-1282.8" font-family="Times New Roman,serif" font-size="14.00"> 0 &#45;&gt; 2 </text>
</g>
<!-- CLONE_11 -->
<g id="node23" class="node">
<title>CLONE_11</title>
<polygon fill="none" stroke="black" stroke-dasharray="5,2" points="759.5,-1380 579.5,-1380 579.5,-1312 759.5,-1312 759.5,-1380"/>
<text text-anchor="middle" x="669.5" y="-1364.8" font-family="Times New Roman,serif" font-size="14.00">friendly_name: Constant_111</text>
<text text-anchor="middle" x="669.5" y="-1349.8" font-family="Times New Roman,serif" font-size="14.00">type_name: Constant</text>
<text text-anchor="middle" x="669.5" y="-1334.8" font-family="Times New Roman,serif" font-size="14.00">{f32}[]</text>
<text text-anchor="middle" x="669.5" y="-1319.8" font-family="Times New Roman,serif" font-size="14.00">value: [0]</text>
</g>
<!-- CLONE_11&#45;&gt;FakeQuantize_113 -->
<g id="edge22" class="edge">
<title>CLONE_11&#45;&gt;FakeQuantize_113</title>
<path fill="none" stroke="black" d="M650.57,-1311.92C643.56,-1299.67 635.23,-1285.11 626.65,-1270.12"/>
<polygon fill="black" stroke="black" points="629.59,-1268.21 621.58,-1261.27 623.51,-1271.68 629.59,-1268.21"/>
<text text-anchor="middle" x="659.5" y="-1282.8" font-family="Times New Roman,serif" font-size="14.00"> 0 &#45;&gt; 3 </text>
</g>
<!-- CLONE_12 -->
<g id="node24" class="node">
<title>CLONE_12</title>
<polygon fill="none" stroke="black" stroke-dasharray="5,2" points="957.5,-1380 777.5,-1380 777.5,-1312 957.5,-1312 957.5,-1380"/>
<text text-anchor="middle" x="867.5" y="-1364.8" font-family="Times New Roman,serif" font-size="14.00">friendly_name: Constant_112</text>
<text text-anchor="middle" x="867.5" y="-1349.8" font-family="Times New Roman,serif" font-size="14.00">type_name: Constant</text>
<text text-anchor="middle" x="867.5" y="-1334.8" font-family="Times New Roman,serif" font-size="14.00">{f32}[]</text>
<text text-anchor="middle" x="867.5" y="-1319.8" font-family="Times New Roman,serif" font-size="14.00">value: [255]</text>
</g>
<!-- CLONE_12&#45;&gt;FakeQuantize_113 -->
<g id="edge23" class="edge">
<title>CLONE_12&#45;&gt;FakeQuantize_113</title>
<path fill="none" stroke="black" d="M809.92,-1311.92C786.75,-1298.6 758.79,-1282.54 730.31,-1266.17"/>
<polygon fill="black" stroke="black" points="731.87,-1263.04 721.46,-1261.09 728.39,-1269.11 731.87,-1263.04"/>
<text text-anchor="middle" x="793.5" y="-1282.8" font-family="Times New Roman,serif" font-size="14.00"> 0 &#45;&gt; 4 </text>
</g>
</g>
</svg>
