<?xml version="1.0" encoding="UTF-8" standalone="no"?>
<!DOCTYPE svg PUBLIC "-//W3C//DTD SVG 1.1//EN"
 "http://www.w3.org/Graphics/SVG/1.1/DTD/svg11.dtd">
<!-- Generated by graphviz version 2.43.20200408.0903 (20200408.0903)
 -->
<!-- Title: ngraph Pages: 1 -->
<svg width="1982pt" height="1388pt"
 viewBox="0.00 0.00 1982.00 1388.00" xmlns="http://www.w3.org/2000/svg" xmlns:xlink="http://www.w3.org/1999/xlink">
<g id="graph0" class="graph" transform="scale(1 1) rotate(0) translate(4 1384)">
<title>ngraph</title>
<polygon fill="white" stroke="transparent" points="-4,4 -4,-1384 1978,-1384 1978,4 -4,4"/>
<!-- Multiply_225 -->
<g id="node1" class="node">
<title>Multiply_225</title>
<polygon fill="none" stroke="black" points="1723.5,-232 1469.5,-232 1469.5,-119 1723.5,-119 1723.5,-232"/>
<text text-anchor="middle" x="1596.5" y="-216.8" font-family="Times New Roman,serif" font-size="14.00">friendly_name: Convolution_222</text>
<text text-anchor="middle" x="1596.5" y="-201.8" font-family="Times New Roman,serif" font-size="14.00">name: Multiply_225</text>
<text text-anchor="middle" x="1596.5" y="-186.8" font-family="Times New Roman,serif" font-size="14.00">type_name: Multiply</text>
<text text-anchor="middle" x="1596.5" y="-171.8" font-family="Times New Roman,serif" font-size="14.00">rt info: &#160;DEQUANTIZATION</text>
<text text-anchor="middle" x="1596.5" y="-156.8" font-family="Times New Roman,serif" font-size="14.00">in0: {f32}[1,9,9,9]: Convolution_222: out0</text>
<text text-anchor="middle" x="1596.5" y="-141.8" font-family="Times New Roman,serif" font-size="14.00">in1: {f32}[1,9,1,1]: Constant_228: out0</text>
<text text-anchor="middle" x="1596.5" y="-126.8" font-family="Times New Roman,serif" font-size="14.00">out0: {f32}[1,9,9,9]</text>
</g>
<!-- Result_103 -->
<g id="node2" class="node">
<title>Result_103</title>
<polygon fill="none" stroke="crimson" stroke-width="1.5" points="1711.5,-68 1481.5,-68 1481.5,0 1711.5,0 1711.5,-68"/>
<text text-anchor="middle" x="1596.5" y="-52.8" font-family="Times New Roman,serif" font-size="14.00">friendly_name: Result_103</text>
<text text-anchor="middle" x="1596.5" y="-37.8" font-family="Times New Roman,serif" font-size="14.00">type_name: Result</text>
<text text-anchor="middle" x="1596.5" y="-22.8" font-family="Times New Roman,serif" font-size="14.00">in0: {f32}[1,9,9,9]: Multiply_225: out0</text>
<text text-anchor="middle" x="1596.5" y="-7.8" font-family="Times New Roman,serif" font-size="14.00">out0: {f32}[1,9,9,9]</text>
</g>
<!-- Multiply_225&#45;&gt;Result_103 -->
<g id="edge1" class="edge">
<title>Multiply_225&#45;&gt;Result_103</title>
<path fill="none" stroke="black" d="M1596.5,-118.97C1596.5,-105.55 1596.5,-91.4 1596.5,-78.62"/>
<polygon fill="black" stroke="black" points="1600,-78.25 1596.5,-68.25 1593,-78.25 1600,-78.25"/>
<text text-anchor="middle" x="1617.5" y="-89.8" font-family="Times New Roman,serif" font-size="14.00"> 0 &#45;&gt; 0 </text>
</g>
<!-- Convolution_222 -->
<g id="node3" class="node">
<title>Convolution_222</title>
<polygon fill="none" stroke="black" points="1547,-381 1300,-381 1300,-283 1547,-283 1547,-381"/>
<text text-anchor="middle" x="1423.5" y="-365.8" font-family="Times New Roman,serif" font-size="14.00">friendly_name: Convolution_222_original</text>
<text text-anchor="middle" x="1423.5" y="-350.8" font-family="Times New Roman,serif" font-size="14.00">name: Convolution_222</text>
<text text-anchor="middle" x="1423.5" y="-335.8" font-family="Times New Roman,serif" font-size="14.00">type_name: Convolution</text>
<text text-anchor="middle" x="1423.5" y="-320.8" font-family="Times New Roman,serif" font-size="14.00">in0: {f32}[1,6,9,9]: Subtract_196: out0</text>
<text text-anchor="middle" x="1423.5" y="-305.8" font-family="Times New Roman,serif" font-size="14.00">in1: {i8}[9,6,1,1]: Constant_210: out0</text>
<text text-anchor="middle" x="1423.5" y="-290.8" font-family="Times New Roman,serif" font-size="14.00">out0: {f32}[1,9,9,9]</text>
</g>
<!-- Convolution_222&#45;&gt;Multiply_225 -->
<g id="edge2" class="edge">
<title>Convolution_222&#45;&gt;Multiply_225</title>
<path fill="none" stroke="black" d="M1477.29,-282.96C1492.94,-268.98 1510.28,-253.5 1526.76,-238.78"/>
<polygon fill="black" stroke="black" points="1529.14,-241.35 1534.27,-232.08 1524.48,-236.13 1529.14,-241.35"/>
<text text-anchor="middle" x="1531.5" y="-253.8" font-family="Times New Roman,serif" font-size="14.00"> 0 &#45;&gt; 0 </text>
</g>
<!-- CLONE_0 -->
<g id="node4" class="node">
<title>CLONE_0</title>
<polygon fill="none" stroke="black" stroke-dasharray="5,2" points="1974,-373.5 1565,-373.5 1565,-290.5 1974,-290.5 1974,-373.5"/>
<text text-anchor="middle" x="1769.5" y="-358.3" font-family="Times New Roman,serif" font-size="14.00">friendly_name: Constant_228</text>
<text text-anchor="middle" x="1769.5" y="-343.3" font-family="Times New Roman,serif" font-size="14.00">type_name: Constant</text>
<text text-anchor="middle" x="1769.5" y="-328.3" font-family="Times New Roman,serif" font-size="14.00">{f32}[1,9,1,1]</text>
<text text-anchor="middle" x="1769.5" y="-313.3" font-family="Times New Roman,serif" font-size="14.00">value: [0.0001, 0.0001, 0.0001, 0.0001, 0.0001, 0.0001, 0.0001, 0.0001</text>
<text text-anchor="middle" x="1769.5" y="-298.3" font-family="Times New Roman,serif" font-size="14.00">, 0.0001]</text>
</g>
<!-- CLONE_0&#45;&gt;Multiply_225 -->
<g id="edge3" class="edge">
<title>CLONE_0&#45;&gt;Multiply_225</title>
<path fill="none" stroke="black" d="M1724.05,-290.41C1706.46,-274.7 1685.92,-256.36 1666.54,-239.05"/>
<polygon fill="black" stroke="black" points="1668.67,-236.26 1658.88,-232.21 1664.01,-241.48 1668.67,-236.26"/>
<text text-anchor="middle" x="1714.5" y="-253.8" font-family="Times New Roman,serif" font-size="14.00"> 0 &#45;&gt; 1 </text>
</g>
<!-- Subtract_196 -->
<g id="node5" class="node">
<title>Subtract_196</title>
<polygon fill="none" stroke="black" points="1477,-560 958,-560 958,-432 1477,-432 1477,-560"/>
<text text-anchor="middle" x="1217.5" y="-544.8" font-family="Times New Roman,serif" font-size="14.00">friendly_name: Subtract_177</text>
<text text-anchor="middle" x="1217.5" y="-529.8" font-family="Times New Roman,serif" font-size="14.00">name: Subtract_196</text>
<text text-anchor="middle" x="1217.5" y="-514.8" font-family="Times New Roman,serif" font-size="14.00">type_name: Subtract</text>
<text text-anchor="middle" x="1217.5" y="-499.8" font-family="Times New Roman,serif" font-size="14.00">rt info: &#160;PRECISION_PRESERVED(value: true, operation: FakeQuantize)</text>
<text text-anchor="middle" x="1217.5" y="-484.8" font-family="Times New Roman,serif" font-size="14.00">QUANTIZATION_ALIGNMENT(low: &#45;1.280000, high: 1.270000, hasToBeAligned: true)</text>
<text text-anchor="middle" x="1217.5" y="-469.8" font-family="Times New Roman,serif" font-size="14.00">in0: {u8}[1,6,9,9]: Concat_183: out0</text>
<text text-anchor="middle" x="1217.5" y="-454.8" font-family="Times New Roman,serif" font-size="14.00">in1: {u8}[1,6,1,1]: Constant_195: out0</text>
<text text-anchor="middle" x="1217.5" y="-439.8" font-family="Times New Roman,serif" font-size="14.00">out0: {f32}[1,6,9,9]</text>
</g>
<!-- Subtract_196&#45;&gt;Convolution_222 -->
<g id="edge4" class="edge">
<title>Subtract_196&#45;&gt;Convolution_222</title>
<path fill="none" stroke="black" d="M1297.73,-431.9C1316.35,-417.26 1336.01,-401.81 1354.11,-387.57"/>
<polygon fill="black" stroke="black" points="1356.61,-390.06 1362.31,-381.12 1352.28,-384.55 1356.61,-390.06"/>
<text text-anchor="middle" x="1360.5" y="-402.8" font-family="Times New Roman,serif" font-size="14.00"> 0 &#45;&gt; 0 </text>
</g>
<!-- CLONE_1 -->
<g id="node6" class="node">
<title>CLONE_1</title>
<polygon fill="none" stroke="black" stroke-dasharray="5,2" points="1766,-552.5 1495,-552.5 1495,-439.5 1766,-439.5 1766,-552.5"/>
<text text-anchor="middle" x="1630.5" y="-537.3" font-family="Times New Roman,serif" font-size="14.00">friendly_name: Constant_210</text>
<text text-anchor="middle" x="1630.5" y="-522.3" font-family="Times New Roman,serif" font-size="14.00">type_name: Constant</text>
<text text-anchor="middle" x="1630.5" y="-507.3" font-family="Times New Roman,serif" font-size="14.00">{i8}[9,6,1,1]</text>
<text text-anchor="middle" x="1630.5" y="-492.3" font-family="Times New Roman,serif" font-size="14.00">value: [127, 127, 127, 127, 127, 127, 127, 127</text>
<text text-anchor="middle" x="1630.5" y="-477.3" font-family="Times New Roman,serif" font-size="14.00">, 127, 127, 127, 127, 127, 127, 127, 127</text>
<text text-anchor="middle" x="1630.5" y="-462.3" font-family="Times New Roman,serif" font-size="14.00">, 127, 127, 127, 127, 127, 127, 127, 127</text>
<text text-anchor="middle" x="1630.5" y="-447.3" font-family="Times New Roman,serif" font-size="14.00">, 127, 127, 127, 127, 127, 127, 127, 127...]</text>
</g>
<!-- CLONE_1&#45;&gt;Convolution_222 -->
<g id="edge5" class="edge">
<title>CLONE_1&#45;&gt;Convolution_222</title>
<path fill="none" stroke="black" d="M1559.55,-439.48C1538.07,-422.66 1514.5,-404.22 1493.11,-387.48"/>
<polygon fill="black" stroke="black" points="1495.06,-384.56 1485.03,-381.15 1490.75,-390.07 1495.06,-384.56"/>
<text text-anchor="middle" x="1548.5" y="-402.8" font-family="Times New Roman,serif" font-size="14.00"> 0 &#45;&gt; 1 </text>
</g>
<!-- Concat_183 -->
<g id="node7" class="node">
<title>Concat_183</title>
<polygon fill="none" stroke="black" points="1283,-724 764,-724 764,-611 1283,-611 1283,-724"/>
<text text-anchor="middle" x="1023.5" y="-708.8" font-family="Times New Roman,serif" font-size="14.00">friendly_name: Concat_183</text>
<text text-anchor="middle" x="1023.5" y="-693.8" font-family="Times New Roman,serif" font-size="14.00">type_name: Concat</text>
<text text-anchor="middle" x="1023.5" y="-678.8" font-family="Times New Roman,serif" font-size="14.00">rt info: &#160;PRECISION_PRESERVED(value: true, operation: FakeQuantize)</text>
<text text-anchor="middle" x="1023.5" y="-663.8" font-family="Times New Roman,serif" font-size="14.00">QUANTIZATION_ALIGNMENT(low: &#45;1.280000, high: 1.270000, hasToBeAligned: true)</text>
<text text-anchor="middle" x="1023.5" y="-648.8" font-family="Times New Roman,serif" font-size="14.00">in0: {u8}[1,3,9,9]: MaxPool_139: out0</text>
<text text-anchor="middle" x="1023.5" y="-633.8" font-family="Times New Roman,serif" font-size="14.00">in1: {u8}[1,3,9,9]: MaxPool_144: out0</text>
<text text-anchor="middle" x="1023.5" y="-618.8" font-family="Times New Roman,serif" font-size="14.00">out0: {u8}[1,6,9,9]</text>
</g>
<!-- Concat_183&#45;&gt;Subtract_196 -->
<g id="edge6" class="edge">
<title>Concat_183&#45;&gt;Subtract_196</title>
<path fill="none" stroke="black" d="M1087.02,-611C1103.12,-596.93 1120.62,-581.64 1137.43,-566.96"/>
<polygon fill="black" stroke="black" points="1139.86,-569.48 1145.09,-560.27 1135.26,-564.21 1139.86,-569.48"/>
<text text-anchor="middle" x="1141.5" y="-581.8" font-family="Times New Roman,serif" font-size="14.00"> 0 &#45;&gt; 0 </text>
</g>
<!-- CLONE_2 -->
<g id="node8" class="node">
<title>CLONE_2</title>
<polygon fill="none" stroke="black" stroke-dasharray="5,2" points="1521.5,-701.5 1301.5,-701.5 1301.5,-633.5 1521.5,-633.5 1521.5,-701.5"/>
<text text-anchor="middle" x="1411.5" y="-686.3" font-family="Times New Roman,serif" font-size="14.00">friendly_name: Constant_195</text>
<text text-anchor="middle" x="1411.5" y="-671.3" font-family="Times New Roman,serif" font-size="14.00">type_name: Constant</text>
<text text-anchor="middle" x="1411.5" y="-656.3" font-family="Times New Roman,serif" font-size="14.00">{u8}[1,6,1,1]</text>
<text text-anchor="middle" x="1411.5" y="-641.3" font-family="Times New Roman,serif" font-size="14.00">value: [128, 128, 128, 128, 128, 128]</text>
</g>
<!-- CLONE_2&#45;&gt;Subtract_196 -->
<g id="edge7" class="edge">
<title>CLONE_2&#45;&gt;Subtract_196</title>
<path fill="none" stroke="black" d="M1373.63,-633.42C1351.96,-614.48 1323.91,-589.97 1297.57,-566.96"/>
<polygon fill="black" stroke="black" points="1299.67,-564.14 1289.83,-560.2 1295.06,-569.41 1299.67,-564.14"/>
<text text-anchor="middle" x="1347.5" y="-581.8" font-family="Times New Roman,serif" font-size="14.00"> 0 &#45;&gt; 1 </text>
</g>
<!-- MaxPool_139 -->
<g id="node9" class="node">
<title>MaxPool_139</title>
<polygon fill="none" stroke="black" points="1015,-888 496,-888 496,-775 1015,-775 1015,-888"/>
<text text-anchor="middle" x="755.5" y="-872.8" font-family="Times New Roman,serif" font-size="14.00">friendly_name: maxPool1</text>
<text text-anchor="middle" x="755.5" y="-857.8" font-family="Times New Roman,serif" font-size="14.00">name: MaxPool_139</text>
<text text-anchor="middle" x="755.5" y="-842.8" font-family="Times New Roman,serif" font-size="14.00">type_name: MaxPool</text>
<text text-anchor="middle" x="755.5" y="-827.8" font-family="Times New Roman,serif" font-size="14.00">rt info: &#160;PRECISION_PRESERVED(value: true, operation: FakeQuantize)</text>
<text text-anchor="middle" x="755.5" y="-812.8" font-family="Times New Roman,serif" font-size="14.00">QUANTIZATION_ALIGNMENT(low: &#45;1.280000, high: 1.270000, hasToBeAligned: true)</text>
<text text-anchor="middle" x="755.5" y="-797.8" font-family="Times New Roman,serif" font-size="14.00">in0: {u8}[1,3,9,9]: AvgPool_129: out0</text>
<text text-anchor="middle" x="755.5" y="-782.8" font-family="Times New Roman,serif" font-size="14.00">out0: {u8}[1,3,9,9]</text>
</g>
<!-- MaxPool_139&#45;&gt;Concat_183 -->
<g id="edge8" class="edge">
<title>MaxPool_139&#45;&gt;Concat_183</title>
<path fill="none" stroke="black" d="M847.36,-774.98C871.62,-760.31 897.93,-744.4 922.64,-729.47"/>
<polygon fill="black" stroke="black" points="924.56,-732.4 931.31,-724.23 920.94,-726.4 924.56,-732.4"/>
<text text-anchor="middle" x="919.5" y="-745.8" font-family="Times New Roman,serif" font-size="14.00"> 0 &#45;&gt; 0 </text>
</g>
<!-- MaxPool_144 -->
<g id="node10" class="node">
<title>MaxPool_144</title>
<polygon fill="none" stroke="black" points="1591,-888 1072,-888 1072,-775 1591,-775 1591,-888"/>
<text text-anchor="middle" x="1331.5" y="-872.8" font-family="Times New Roman,serif" font-size="14.00">friendly_name: maxPool2</text>
<text text-anchor="middle" x="1331.5" y="-857.8" font-family="Times New Roman,serif" font-size="14.00">name: MaxPool_144</text>
<text text-anchor="middle" x="1331.5" y="-842.8" font-family="Times New Roman,serif" font-size="14.00">type_name: MaxPool</text>
<text text-anchor="middle" x="1331.5" y="-827.8" font-family="Times New Roman,serif" font-size="14.00">rt info: &#160;PRECISION_PRESERVED(value: true, operation: FakeQuantize)</text>
<text text-anchor="middle" x="1331.5" y="-812.8" font-family="Times New Roman,serif" font-size="14.00">QUANTIZATION_ALIGNMENT(low: &#45;1.280000, high: 1.270000, hasToBeAligned: true)</text>
<text text-anchor="middle" x="1331.5" y="-797.8" font-family="Times New Roman,serif" font-size="14.00">in0: {u8}[1,3,9,9]: AvgPool_134: out0</text>
<text text-anchor="middle" x="1331.5" y="-782.8" font-family="Times New Roman,serif" font-size="14.00">out0: {u8}[1,3,9,9]</text>
</g>
<!-- MaxPool_144&#45;&gt;Concat_183 -->
<g id="edge9" class="edge">
<title>MaxPool_144&#45;&gt;Concat_183</title>
<path fill="none" stroke="black" d="M1225.93,-774.98C1197.61,-760.08 1166.85,-743.9 1138.06,-728.75"/>
<polygon fill="black" stroke="black" points="1139.67,-725.65 1129.19,-724.09 1136.41,-731.84 1139.67,-725.65"/>
<text text-anchor="middle" x="1208.5" y="-745.8" font-family="Times New Roman,serif" font-size="14.00"> 0 &#45;&gt; 1 </text>
</g>
<!-- AvgPool_134 -->
<g id="node11" class="node">
<title>AvgPool_134</title>
<polygon fill="none" stroke="black" points="1631,-1052 1112,-1052 1112,-939 1631,-939 1631,-1052"/>
<text text-anchor="middle" x="1371.5" y="-1036.8" font-family="Times New Roman,serif" font-size="14.00">friendly_name: avgPool2</text>
<text text-anchor="middle" x="1371.5" y="-1021.8" font-family="Times New Roman,serif" font-size="14.00">name: AvgPool_134</text>
<text text-anchor="middle" x="1371.5" y="-1006.8" font-family="Times New Roman,serif" font-size="14.00">type_name: AvgPool</text>
<text text-anchor="middle" x="1371.5" y="-991.8" font-family="Times New Roman,serif" font-size="14.00">rt info: &#160;PRECISION_PRESERVED(value: true, operation: FakeQuantize)</text>
<text text-anchor="middle" x="1371.5" y="-976.8" font-family="Times New Roman,serif" font-size="14.00">QUANTIZATION_ALIGNMENT(low: &#45;1.280000, high: 1.270000, hasToBeAligned: true)</text>
<text text-anchor="middle" x="1371.5" y="-961.8" font-family="Times New Roman,serif" font-size="14.00">in0: {u8}[1,3,9,9]: FakeQuantize_122: out0</text>
<text text-anchor="middle" x="1371.5" y="-946.8" font-family="Times New Roman,serif" font-size="14.00">out0: {u8}[1,3,9,9]</text>
</g>
<!-- AvgPool_134&#45;&gt;MaxPool_144 -->
<g id="edge10" class="edge">
<title>AvgPool_134&#45;&gt;MaxPool_144</title>
<path fill="none" stroke="black" d="M1357.73,-938.75C1354.48,-925.57 1350.98,-911.39 1347.63,-897.83"/>
<polygon fill="black" stroke="black" points="1351.02,-896.95 1345.22,-888.08 1344.22,-898.63 1351.02,-896.95"/>
<text text-anchor="middle" x="1374.5" y="-909.8" font-family="Times New Roman,serif" font-size="14.00"> 0 &#45;&gt; 0 </text>
</g>
<!-- FakeQuantize_122 -->
<g id="node12" class="node">
<title>FakeQuantize_122</title>
<polygon fill="none" stroke="black" points="1712,-1261 1149,-1261 1149,-1103 1712,-1103 1712,-1261"/>
<text text-anchor="middle" x="1430.5" y="-1245.8" font-family="Times New Roman,serif" font-size="14.00">friendly_name: fakeQuantizeOnActivations2</text>
<text text-anchor="middle" x="1430.5" y="-1230.8" font-family="Times New Roman,serif" font-size="14.00">name: FakeQuantize_122</text>
<text text-anchor="middle" x="1430.5" y="-1215.8" font-family="Times New Roman,serif" font-size="14.00">type_name: FakeQuantize</text>
<text text-anchor="middle" x="1430.5" y="-1200.8" font-family="Times New Roman,serif" font-size="14.00">rt info: &#160;QUANTIZATION_ALIGNMENT(low: &#45;1.280000, high: 1.270000, hasToBeAligned: true)</text>
<text text-anchor="middle" x="1430.5" y="-1185.8" font-family="Times New Roman,serif" font-size="14.00">in0: {f32}[1,3,9,9]: Parameter_79: out0</text>
<text text-anchor="middle" x="1430.5" y="-1170.8" font-family="Times New Roman,serif" font-size="14.00">in1: {f32}[]: Constant_88: out0</text>
<text text-anchor="middle" x="1430.5" y="-1155.8" font-family="Times New Roman,serif" font-size="14.00">in2: {f32}[]: Constant_89: out0</text>
<text text-anchor="middle" x="1430.5" y="-1140.8" font-family="Times New Roman,serif" font-size="14.00">in3: {f32}[]: Constant_120: out0</text>
<text text-anchor="middle" x="1430.5" y="-1125.8" font-family="Times New Roman,serif" font-size="14.00">in4: {f32}[]: Constant_121: out0</text>
<text text-anchor="middle" x="1430.5" y="-1110.8" font-family="Times New Roman,serif" font-size="14.00">out0: {u8}[1,3,9,9]</text>
</g>
<!-- FakeQuantize_122&#45;&gt;AvgPool_134 -->
<g id="edge11" class="edge">
<title>FakeQuantize_122&#45;&gt;AvgPool_134</title>
<path fill="none" stroke="black" d="M1405.48,-1102.76C1401.15,-1089.22 1396.69,-1075.26 1392.48,-1062.1"/>
<polygon fill="black" stroke="black" points="1395.7,-1060.67 1389.32,-1052.21 1389.03,-1062.8 1395.7,-1060.67"/>
<text text-anchor="middle" x="1420.5" y="-1073.8" font-family="Times New Roman,serif" font-size="14.00"> 0 &#45;&gt; 0 </text>
</g>
<!-- CLONE_3 -->
<g id="node13" class="node">
<title>CLONE_3</title>
<polygon fill="none" stroke="blue" stroke-dasharray="5,2" points="1155,-1372.5 976,-1372.5 976,-1319.5 1155,-1319.5 1155,-1372.5"/>
<text text-anchor="middle" x="1065.5" y="-1357.3" font-family="Times New Roman,serif" font-size="14.00">friendly_name: Parameter_79</text>
<text text-anchor="middle" x="1065.5" y="-1342.3" font-family="Times New Roman,serif" font-size="14.00">type_name: Parameter</text>
<text text-anchor="middle" x="1065.5" y="-1327.3" font-family="Times New Roman,serif" font-size="14.00">{f32}[1,3,9,9]</text>
</g>
<!-- CLONE_3&#45;&gt;FakeQuantize_122 -->
<g id="edge12" class="edge">
<title>CLONE_3&#45;&gt;FakeQuantize_122</title>
<path fill="none" stroke="black" d="M1123.34,-1319.33C1156.81,-1304.47 1201,-1284.86 1245.4,-1265.15"/>
<polygon fill="black" stroke="black" points="1246.86,-1268.34 1254.58,-1261.08 1244.02,-1261.94 1246.86,-1268.34"/>
<text text-anchor="middle" x="1226.5" y="-1282.8" font-family="Times New Roman,serif" font-size="14.00"> 0 &#45;&gt; 0 </text>
</g>
<!-- CLONE_4 -->
<g id="node14" class="node">
<title>CLONE_4</title>
<polygon fill="none" stroke="black" stroke-dasharray="5,2" points="1346,-1380 1173,-1380 1173,-1312 1346,-1312 1346,-1380"/>
<text text-anchor="middle" x="1259.5" y="-1364.8" font-family="Times New Roman,serif" font-size="14.00">friendly_name: Constant_88</text>
<text text-anchor="middle" x="1259.5" y="-1349.8" font-family="Times New Roman,serif" font-size="14.00">type_name: Constant</text>
<text text-anchor="middle" x="1259.5" y="-1334.8" font-family="Times New Roman,serif" font-size="14.00">{f32}[]</text>
<text text-anchor="middle" x="1259.5" y="-1319.8" font-family="Times New Roman,serif" font-size="14.00">value: [&#45;0.64]</text>
</g>
<!-- CLONE_4&#45;&gt;FakeQuantize_122 -->
<g id="edge13" class="edge">
<title>CLONE_4&#45;&gt;FakeQuantize_122</title>
<path fill="none" stroke="black" d="M1294.52,-1311.83C1307.99,-1299.06 1324.07,-1283.83 1340.37,-1268.39"/>
<polygon fill="black" stroke="black" points="1343.02,-1270.7 1347.87,-1261.28 1338.2,-1265.62 1343.02,-1270.7"/>
<text text-anchor="middle" x="1346.5" y="-1282.8" font-family="Times New Roman,serif" font-size="14.00"> 0 &#45;&gt; 1 </text>
</g>
<!-- CLONE_5 -->
<g id="node15" class="node">
<title>CLONE_5</title>
<polygon fill="none" stroke="black" stroke-dasharray="5,2" points="1537,-1380 1364,-1380 1364,-1312 1537,-1312 1537,-1380"/>
<text text-anchor="middle" x="1450.5" y="-1364.8" font-family="Times New Roman,serif" font-size="14.00">friendly_name: Constant_89</text>
<text text-anchor="middle" x="1450.5" y="-1349.8" font-family="Times New Roman,serif" font-size="14.00">type_name: Constant</text>
<text text-anchor="middle" x="1450.5" y="-1334.8" font-family="Times New Roman,serif" font-size="14.00">{f32}[]</text>
<text text-anchor="middle" x="1450.5" y="-1319.8" font-family="Times New Roman,serif" font-size="14.00">value: [0.635]</text>
</g>
<!-- CLONE_5&#45;&gt;FakeQuantize_122 -->
<g id="edge14" class="edge">
<title>CLONE_5&#45;&gt;FakeQuantize_122</title>
<path fill="none" stroke="black" d="M1446.4,-1311.83C1444.93,-1299.87 1443.18,-1285.74 1441.4,-1271.3"/>
<polygon fill="black" stroke="black" points="1444.86,-1270.78 1440.16,-1261.28 1437.92,-1271.64 1444.86,-1270.78"/>
<text text-anchor="middle" x="1465.5" y="-1282.8" font-family="Times New Roman,serif" font-size="14.00"> 0 &#45;&gt; 2 </text>
</g>
<!-- CLONE_6 -->
<g id="node16" class="node">
<title>CLONE_6</title>
<polygon fill="none" stroke="black" stroke-dasharray="5,2" points="1735.5,-1380 1555.5,-1380 1555.5,-1312 1735.5,-1312 1735.5,-1380"/>
<text text-anchor="middle" x="1645.5" y="-1364.8" font-family="Times New Roman,serif" font-size="14.00">friendly_name: Constant_120</text>
<text text-anchor="middle" x="1645.5" y="-1349.8" font-family="Times New Roman,serif" font-size="14.00">type_name: Constant</text>
<text text-anchor="middle" x="1645.5" y="-1334.8" font-family="Times New Roman,serif" font-size="14.00">{f32}[]</text>
<text text-anchor="middle" x="1645.5" y="-1319.8" font-family="Times New Roman,serif" font-size="14.00">value: [64]</text>
</g>
<!-- CLONE_6&#45;&gt;FakeQuantize_122 -->
<g id="edge15" class="edge">
<title>CLONE_6&#45;&gt;FakeQuantize_122</title>
<path fill="none" stroke="black" d="M1601.47,-1311.83C1584.15,-1298.77 1563.41,-1283.14 1542.43,-1267.34"/>
<polygon fill="black" stroke="black" points="1544.49,-1264.5 1534.39,-1261.28 1540.27,-1270.09 1544.49,-1264.5"/>
<text text-anchor="middle" x="1597.5" y="-1282.8" font-family="Times New Roman,serif" font-size="14.00"> 0 &#45;&gt; 3 </text>
</g>
<!-- CLONE_7 -->
<g id="node17" class="node">
<title>CLONE_7</title>
<polygon fill="none" stroke="black" stroke-dasharray="5,2" points="1933.5,-1380 1753.5,-1380 1753.5,-1312 1933.5,-1312 1933.5,-1380"/>
<text text-anchor="middle" x="1843.5" y="-1364.8" font-family="Times New Roman,serif" font-size="14.00">friendly_name: Constant_121</text>
<text text-anchor="middle" x="1843.5" y="-1349.8" font-family="Times New Roman,serif" font-size="14.00">type_name: Constant</text>
<text text-anchor="middle" x="1843.5" y="-1334.8" font-family="Times New Roman,serif" font-size="14.00">{f32}[]</text>
<text text-anchor="middle" x="1843.5" y="-1319.8" font-family="Times New Roman,serif" font-size="14.00">value: [192]</text>
</g>
<!-- CLONE_7&#45;&gt;FakeQuantize_122 -->
<g id="edge16" class="edge">
<title>CLONE_7&#45;&gt;FakeQuantize_122</title>
<path fill="none" stroke="black" d="M1758.93,-1311.83C1723.86,-1298.07 1681.48,-1281.45 1638.99,-1264.78"/>
<polygon fill="black" stroke="black" points="1640.23,-1261.51 1629.64,-1261.11 1637.67,-1268.02 1640.23,-1261.51"/>
<text text-anchor="middle" x="1730.5" y="-1282.8" font-family="Times New Roman,serif" font-size="14.00"> 0 &#45;&gt; 4 </text>
</g>
<!-- AvgPool_129 -->
<g id="node18" class="node">
<title>AvgPool_129</title>
<polygon fill="none" stroke="black" points="1015,-1052 496,-1052 496,-939 1015,-939 1015,-1052"/>
<text text-anchor="middle" x="755.5" y="-1036.8" font-family="Times New Roman,serif" font-size="14.00">friendly_name: avgPool1</text>
<text text-anchor="middle" x="755.5" y="-1021.8" font-family="Times New Roman,serif" font-size="14.00">name: AvgPool_129</text>
<text text-anchor="middle" x="755.5" y="-1006.8" font-family="Times New Roman,serif" font-size="14.00">type_name: AvgPool</text>
<text text-anchor="middle" x="755.5" y="-991.8" font-family="Times New Roman,serif" font-size="14.00">rt info: &#160;PRECISION_PRESERVED(value: true, operation: FakeQuantize)</text>
<text text-anchor="middle" x="755.5" y="-976.8" font-family="Times New Roman,serif" font-size="14.00">QUANTIZATION_ALIGNMENT(low: &#45;1.280000, high: 1.270000, hasToBeAligned: true)</text>
<text text-anchor="middle" x="755.5" y="-961.8" font-family="Times New Roman,serif" font-size="14.00">in0: {u8}[1,3,9,9]: FakeQuantize_113: out0</text>
<text text-anchor="middle" x="755.5" y="-946.8" font-family="Times New Roman,serif" font-size="14.00">out0: {u8}[1,3,9,9]</text>
</g>
<!-- AvgPool_129&#45;&gt;MaxPool_139 -->
<g id="edge17" class="edge">
<title>AvgPool_129&#45;&gt;MaxPool_139</title>
<path fill="none" stroke="black" d="M755.5,-938.75C755.5,-925.69 755.5,-911.67 755.5,-898.22"/>
<polygon fill="black" stroke="black" points="759,-898.08 755.5,-888.08 752,-898.08 759,-898.08"/>
<text text-anchor="middle" x="776.5" y="-909.8" font-family="Times New Roman,serif" font-size="14.00"> 0 &#45;&gt; 0 </text>
</g>
<!-- FakeQuantize_113 -->
<g id="node19" class="node">
<title>FakeQuantize_113</title>
<polygon fill="none" stroke="black" points="854,-1261 291,-1261 291,-1103 854,-1103 854,-1261"/>
<text text-anchor="middle" x="572.5" y="-1245.8" font-family="Times New Roman,serif" font-size="14.00">friendly_name: fakeQuantizeOnActivations1</text>
<text text-anchor="middle" x="572.5" y="-1230.8" font-family="Times New Roman,serif" font-size="14.00">name: FakeQuantize_113</text>
<text text-anchor="middle" x="572.5" y="-1215.8" font-family="Times New Roman,serif" font-size="14.00">type_name: FakeQuantize</text>
<text text-anchor="middle" x="572.5" y="-1200.8" font-family="Times New Roman,serif" font-size="14.00">rt info: &#160;QUANTIZATION_ALIGNMENT(low: &#45;1.280000, high: 1.270000, hasToBeAligned: true)</text>
<text text-anchor="middle" x="572.5" y="-1185.8" font-family="Times New Roman,serif" font-size="14.00">in0: {f32}[1,3,9,9]: Parameter_79: out0</text>
<text text-anchor="middle" x="572.5" y="-1170.8" font-family="Times New Roman,serif" font-size="14.00">in1: {f32}[]: Constant_80: out0</text>
<text text-anchor="middle" x="572.5" y="-1155.8" font-family="Times New Roman,serif" font-size="14.00">in2: {f32}[]: Constant_81: out0</text>
<text text-anchor="middle" x="572.5" y="-1140.8" font-family="Times New Roman,serif" font-size="14.00">in3: {f32}[]: Constant_111: out0</text>
<text text-anchor="middle" x="572.5" y="-1125.8" font-family="Times New Roman,serif" font-size="14.00">in4: {f32}[]: Constant_112: out0</text>
<text text-anchor="middle" x="572.5" y="-1110.8" font-family="Times New Roman,serif" font-size="14.00">out0: {u8}[1,3,9,9]</text>
</g>
<!-- FakeQuantize_113&#45;&gt;AvgPool_129 -->
<g id="edge18" class="edge">
<title>FakeQuantize_113&#45;&gt;AvgPool_129</title>
<path fill="none" stroke="black" d="M650.11,-1102.76C664.46,-1088.29 679.28,-1073.35 693.11,-1059.41"/>
<polygon fill="black" stroke="black" points="695.68,-1061.78 700.24,-1052.21 690.71,-1056.85 695.68,-1061.78"/>
<text text-anchor="middle" x="701.5" y="-1073.8" font-family="Times New Roman,serif" font-size="14.00"> 0 &#45;&gt; 0 </text>
</g>
<!-- CLONE_8 -->
<g id="node20" class="node">
<title>CLONE_8</title>
<polygon fill="none" stroke="blue" stroke-dasharray="5,2" points="179,-1372.5 0,-1372.5 0,-1319.5 179,-1319.5 179,-1372.5"/>
<text text-anchor="middle" x="89.5" y="-1357.3" font-family="Times New Roman,serif" font-size="14.00">friendly_name: Parameter_79</text>
<text text-anchor="middle" x="89.5" y="-1342.3" font-family="Times New Roman,serif" font-size="14.00">type_name: Parameter</text>
<text text-anchor="middle" x="89.5" y="-1327.3" font-family="Times New Roman,serif" font-size="14.00">{f32}[1,3,9,9]</text>
</g>
<!-- CLONE_8&#45;&gt;FakeQuantize_113 -->
<g id="edge19" class="edge">
<title>CLONE_8&#45;&gt;FakeQuantize_113</title>
<path fill="none" stroke="black" d="M165.2,-1319.5C172.74,-1316.96 180.27,-1314.43 187.5,-1312 233.45,-1296.57 282.49,-1280.12 329.65,-1264.31"/>
<polygon fill="black" stroke="black" points="331,-1267.55 339.37,-1261.05 328.77,-1260.91 331,-1267.55"/>
<text text-anchor="middle" x="304.5" y="-1282.8" font-family="Times New Roman,serif" font-size="14.00"> 0 &#45;&gt; 0 </text>
</g>
<!-- CLONE_9 -->
<g id="node21" class="node">
<title>CLONE_9</title>
<polygon fill="none" stroke="black" stroke-dasharray="5,2" points="370,-1380 197,-1380 197,-1312 370,-1312 370,-1380"/>
<text text-anchor="middle" x="283.5" y="-1364.8" font-family="Times New Roman,serif" font-size="14.00">friendly_name: Constant_80</text>
<text text-anchor="middle" x="283.5" y="-1349.8" font-family="Times New Roman,serif" font-size="14.00">type_name: Constant</text>
<text text-anchor="middle" x="283.5" y="-1334.8" font-family="Times New Roman,serif" font-size="14.00">{f32}[]</text>
<text text-anchor="middle" x="283.5" y="-1319.8" font-family="Times New Roman,serif" font-size="14.00">value: [&#45;1.28]</text>
</g>
<!-- CLONE_9&#45;&gt;FakeQuantize_113 -->
<g id="edge20" class="edge">
<title>CLONE_9&#45;&gt;FakeQuantize_113</title>
<path fill="none" stroke="black" d="M342.68,-1311.83C366.55,-1298.45 395.26,-1282.35 424.17,-1266.14"/>
<polygon fill="black" stroke="black" points="426.14,-1269.06 433.15,-1261.11 422.71,-1262.95 426.14,-1269.06"/>
<text text-anchor="middle" x="415.5" y="-1282.8" font-family="Times New Roman,serif" font-size="14.00"> 0 &#45;&gt; 1 </text>
</g>
<!-- CLONE_10 -->
<g id="node22" class="node">
<title>CLONE_10</title>
<polygon fill="none" stroke="black" stroke-dasharray="5,2" points="561,-1380 388,-1380 388,-1312 561,-1312 561,-1380"/>
<text text-anchor="middle" x="474.5" y="-1364.8" font-family="Times New Roman,serif" font-size="14.00">friendly_name: Constant_81</text>
<text text-anchor="middle" x="474.5" y="-1349.8" font-family="Times New Roman,serif" font-size="14.00">type_name: Constant</text>
<text text-anchor="middle" x="474.5" y="-1334.8" font-family="Times New Roman,serif" font-size="14.00">{f32}[]</text>
<text text-anchor="middle" x="474.5" y="-1319.8" font-family="Times New Roman,serif" font-size="14.00">value: [1.27]</text>
</g>
<!-- CLONE_10&#45;&gt;FakeQuantize_113 -->
<g id="edge21" class="edge">
<title>CLONE_10&#45;&gt;FakeQuantize_113</title>
<path fill="none" stroke="black" d="M494.57,-1311.83C502.01,-1299.52 510.84,-1284.92 519.84,-1270.05"/>
<polygon fill="black" stroke="black" points="522.96,-1271.65 525.14,-1261.28 516.97,-1268.03 522.96,-1271.65"/>
<text text-anchor="middle" x="533.5" y="-1282.8" font-family="Times New Roman,serif" font-size="14.00"> 0 &#45;&gt; 2 </text>
</g>
<!-- CLONE_11 -->
<g id="node23" class="node">
<title>CLONE_11</title>
<polygon fill="none" stroke="black" stroke-dasharray="5,2" points="759.5,-1380 579.5,-1380 579.5,-1312 759.5,-1312 759.5,-1380"/>
<text text-anchor="middle" x="669.5" y="-1364.8" font-family="Times New Roman,serif" font-size="14.00">friendly_name: Constant_111</text>
<text text-anchor="middle" x="669.5" y="-1349.8" font-family="Times New Roman,serif" font-size="14.00">type_name: Constant</text>
<text text-anchor="middle" x="669.5" y="-1334.8" font-family="Times New Roman,serif" font-size="14.00">{f32}[]</text>
<text text-anchor="middle" x="669.5" y="-1319.8" font-family="Times New Roman,serif" font-size="14.00">value: [0]</text>
</g>
<!-- CLONE_11&#45;&gt;FakeQuantize_113 -->
<g id="edge22" class="edge">
<title>CLONE_11&#45;&gt;FakeQuantize_113</title>
<path fill="none" stroke="black" d="M649.64,-1311.83C642.27,-1299.52 633.53,-1284.92 624.62,-1270.05"/>
<polygon fill="black" stroke="black" points="627.51,-1268.06 619.37,-1261.28 621.51,-1271.66 627.51,-1268.06"/>
<text text-anchor="middle" x="659.5" y="-1282.8" font-family="Times New Roman,serif" font-size="14.00"> 0 &#45;&gt; 3 </text>
</g>
<!-- CLONE_12 -->
<g id="node24" class="node">
<title>CLONE_12</title>
<polygon fill="none" stroke="black" stroke-dasharray="5,2" points="957.5,-1380 777.5,-1380 777.5,-1312 957.5,-1312 957.5,-1380"/>
<text text-anchor="middle" x="867.5" y="-1364.8" font-family="Times New Roman,serif" font-size="14.00">friendly_name: Constant_112</text>
<text text-anchor="middle" x="867.5" y="-1349.8" font-family="Times New Roman,serif" font-size="14.00">type_name: Constant</text>
<text text-anchor="middle" x="867.5" y="-1334.8" font-family="Times New Roman,serif" font-size="14.00">{f32}[]</text>
<text text-anchor="middle" x="867.5" y="-1319.8" font-family="Times New Roman,serif" font-size="14.00">value: [255]</text>
</g>
<!-- CLONE_12&#45;&gt;FakeQuantize_113 -->
<g id="edge23" class="edge">
<title>CLONE_12&#45;&gt;FakeQuantize_113</title>
<path fill="none" stroke="black" d="M807.09,-1311.83C782.62,-1298.39 753.17,-1282.21 723.52,-1265.93"/>
<polygon fill="black" stroke="black" points="725.19,-1262.86 714.74,-1261.11 721.82,-1268.99 725.19,-1262.86"/>
<text text-anchor="middle" x="793.5" y="-1282.8" font-family="Times New Roman,serif" font-size="14.00"> 0 &#45;&gt; 4 </text>
</g>
</g>
</svg>
