<?xml version="1.0" encoding="UTF-8"?>
<svg width="1834" height="672" overflow="hidden" version="1.1" xmlns="http://www.w3.org/2000/svg"><defs><clipPath id="clip0"><rect width="1834" height="672"/></clipPath></defs><g clip-path="url(#clip0)"><path d="m0 0h1834v671.88h-1834z" fill="#fff"/><g fill="none" fill-rule="evenodd" stroke="#0071C5" stroke-miterlimit="8" stroke-width="2.0004"><path d="m558 46.992v578.87"/><path d="m773 45.992v578.87"/><path d="m1349 46.992v578.87"/></g><g transform="matrix(1 0 0 .99982 64.642 104)" aria-label="APPOVBATCH DEVICEACTUAL DEVICE"><path d="m10.335-11.183-4.876 11.183h-4.77l16.483-37.1h4.452l16.43 37.1h-4.823l-4.929-11.183zm8.957-20.458-7.155 16.43h14.416z"/><path d="m42.241 0v-37.1h16.112q6.095 0 9.593 3.074 3.551 3.021 3.551 8.215 0 5.247-3.816 8.427-3.816 3.127-10.176 3.127h-10.706v14.257zm24.592-25.705q0-3.392-2.279-5.3-2.279-1.961-6.36-1.961h-11.395v14.628h11.024q4.134 0 6.572-1.961 2.438-2.014 2.438-5.406z"/><path d="m76.002 0v-37.1h16.112q6.095 0 9.593 3.074 3.551 3.021 3.551 8.215 0 5.247-3.816 8.427-3.816 3.127-10.176 3.127h-10.706v14.257zm24.592-25.705q0-3.392-2.279-5.3-2.279-1.961-6.36-1.961h-11.395v14.628h11.024q4.134 0 6.572-1.961 2.438-2.014 2.438-5.406z"/><path d="m513.54-19.497q0-8.215 5.459-13.833t13.462-5.618q8.056 0 13.409 5.565 5.406 5.512 5.406 13.78t-5.459 13.886q-5.406 5.565-13.409 5.565-8.056 0-13.462-5.512-5.406-5.565-5.406-13.833zm4.664-0.106q0 6.519 4.081 10.971 4.134 4.399 10.176 4.399t10.07-4.346q4.081-4.399 4.081-10.918t-4.081-10.918q-4.081-4.452-10.123-4.452-6.095 0-10.176 4.399-4.028 4.346-4.028 10.865z"/><path d="m568.07-1.0002-16.43-37.1h4.982l13.833 31.27 13.674-31.27h4.876l-16.43 37.1z"/><path d="m731.09 0v-37.1h16.059q6.201 0 9.593 2.544t3.392 7.208q0 2.968-1.537 5.141-1.537 2.12-4.611 3.286 3.445 0.901 5.141 3.127 1.749 2.173 1.749 5.618 0 4.558-3.551 7.367t-9.381 2.809zm24.486-27.136q0-2.915-2.173-4.399-2.173-1.537-6.36-1.537h-11.342v12.349h12.031q3.445 0 5.618-1.802 2.226-1.802 2.226-4.611zm0.742 16.907q0-2.968-2.014-4.717t-5.459-1.749h-13.144v12.667h12.561q3.657 0 5.83-1.696 2.226-1.696 2.226-4.505z"/><path d="m772.85-11.183-4.876 11.183h-4.77l16.483-37.1h4.452l16.43 37.1h-4.823l-4.929-11.183zm8.957-20.458-7.155 16.43h14.416z"/><path d="m811.33-32.966h-14.416v-4.134h33.337v4.134h-14.363v32.966h-4.558z"/><path d="m836.24-18.603q0 6.625 3.975 11.024 3.975 4.346 9.964 4.346 4.028 0 7.049-1.855 3.074-1.855 5.247-5.565l3.498 2.014q-2.385 4.558-6.519 7.049-4.081 2.438-9.381 2.438-8.056 0-13.303-5.459-5.194-5.459-5.194-13.886 0-8.268 5.406-13.833 5.459-5.618 13.568-5.618 5.141 0 9.063 2.438 3.975 2.385 6.201 6.837l-3.657 2.173q-2.067-3.763-4.929-5.565t-6.784-1.802q-6.095 0-10.176 4.346-4.028 4.346-4.028 10.918z"/><path d="m871.32 0v-37.1h4.558v16.324h23.214v-16.324h4.558v37.1h-4.558v-16.642h-23.214v16.642z"/><path d="m920.4 0v-37.1h13.939q8.692 0 13.992 5.141 5.353 5.141 5.353 13.356 0 8.162-5.406 13.409-5.406 5.194-14.045 5.194zm28.673-18.497q0-6.36-4.134-10.388-4.081-4.081-10.653-4.081h-9.328v28.832h9.328q6.572 0 10.653-4.028 4.134-4.028 4.134-10.335z"/><path d="m959.15 0v-37.1h26.924v4.028h-22.366v12.349h20.882v4.028h-20.882v12.667h22.366v4.028z"/><path d="m1005.8 0-16.43-37.1h4.982l13.833 31.27 13.674-31.27h4.876l-16.43 37.1z"/><path d="m1031.3 0v-37.1h4.558v37.1z"/><path d="m1046.3-18.603q0 6.625 3.975 11.024 3.975 4.346 9.964 4.346 4.028 0 7.049-1.855 3.074-1.855 5.247-5.565l3.498 2.014q-2.385 4.558-6.519 7.049-4.081 2.438-9.381 2.438-8.056 0-13.303-5.459-5.194-5.459-5.194-13.886 0-8.268 5.406-13.833 5.459-5.618 13.568-5.618 5.141 0 9.063 2.438 3.975 2.385 6.201 6.837l-3.657 2.173q-2.067-3.763-4.929-5.565t-6.784-1.802q-6.095 0-10.176 4.346-4.028 4.346-4.028 10.918z"/><path d="m1081.4 0v-37.1h26.924v4.028h-22.366v12.349h20.882v4.028h-20.882v12.667h22.366v4.028z"/><path d="m1316-12.183-4.876 11.183h-4.77l16.483-37.1h4.452l16.43 37.1h-4.823l-4.929-11.183zm8.957-20.458-7.155 16.43h14.416z"/><path d="m1348.7-19.603q0 6.625 3.975 11.024 3.975 4.346 9.964 4.346 4.028 0 7.049-1.855 3.074-1.855 5.247-5.565l3.498 2.014q-2.385 4.558-6.519 7.049-4.081 2.438-9.381 2.438-8.056 0-13.303-5.459-5.194-5.459-5.194-13.886 0-8.268 5.406-13.833 5.459-5.618 13.568-5.618 5.141 0 9.063 2.438 3.975 2.385 6.201 6.837l-3.657 2.173q-2.067-3.763-4.929-5.565t-6.784-1.802q-6.095 0-10.176 4.346-4.028 4.346-4.028 10.918z"/><path d="m1395.6-33.966h-14.416v-4.134h33.337v4.134h-14.363v32.966h-4.558z"/><path d="m1435.5-4.2332q5.512 0 8.904-3.71 3.445-3.763 3.445-9.752v-20.405h4.505v20.511q0 7.844-4.664 12.667-4.664 4.77-12.296 4.77t-12.243-4.77q-4.611-4.823-4.611-12.667v-20.511h4.558v20.405q0 5.989 3.445 9.752 3.445 3.71 8.957 3.71z"/><path d="m1463.4-12.183-4.876 11.183h-4.77l16.483-37.1h4.452l16.43 37.1h-4.823l-4.929-11.183zm8.957-20.458-7.155 16.43h14.416z"/><path d="m1495.3-1.0002v-37.1h4.558v33.019h21.412v4.081z"/><path d="m1535.1-1.0002v-37.1h13.939q8.692 0 13.992 5.141 5.353 5.141 5.353 13.356 0 8.162-5.406 13.409-5.406 5.194-14.045 5.194zm28.673-18.497q0-6.36-4.134-10.388-4.081-4.081-10.653-4.081h-9.328v28.832h9.328q6.572 0 10.653-4.028 4.134-4.028 4.134-10.335z"/><path d="m1573.8-1.0002v-37.1h26.924v4.028h-22.366v12.349h20.882v4.028h-20.882v12.667h22.366v4.028z"/><path d="m1620.5-1.0002-16.43-37.1h4.982l13.833 31.27 13.674-31.27h4.876l-16.43 37.1z"/><path d="m1646-1.0002v-37.1h4.558v37.1z"/><path d="m1660.9-19.603q0 6.625 3.975 11.024 3.975 4.346 9.964 4.346 4.028 0 7.049-1.855 3.074-1.855 5.247-5.565l3.498 2.014q-2.385 4.558-6.519 7.049-4.081 2.438-9.381 2.438-8.056 0-13.303-5.459-5.194-5.459-5.194-13.886 0-8.268 5.406-13.833 5.459-5.618 13.568-5.618 5.141 0 9.063 2.438 3.975 2.385 6.201 6.837l-3.657 2.173q-2.067-3.763-4.929-5.565t-6.784-1.802q-6.095 0-10.176 4.346-4.028 4.346-4.028 10.918z"/><path d="m1696-1.0002v-37.1h26.924v4.028h-22.366v12.349h20.882v4.028h-20.882v12.667h22.366v4.028z"/></g><path d="m100 204.13c0-6.718 5.447-12.165 12.167-12.165h408.67c6.72 0 12.167 5.447 12.167 12.165v48.657c0 6.718-5.447 12.165-12.167 12.165h-408.67c-6.72 0-12.167-5.447-12.167-12.165z" fill="#00AEEF" fill-rule="evenodd" stroke="#0071C5" stroke-dasharray="16.0029 12.0022" stroke-miterlimit="8" stroke-width="4.0007"/><g transform="matrix(1 0 0 .99982 120.04 240)" fill="#fff" aria-label="Single batch infer request"><path d="m15.264-6.592q0-0.928-0.928-1.312-0.896-0.416-3.456-0.672-5.28-0.544-7.392-2.048t-2.112-4.832q0-3.296 2.656-5.344t7.136-2.048q2.656 0 4.96 0.832t4.352 2.528l-3.008 4.32q-1.472-1.184-3.232-1.856-1.728-0.672-3.328-0.672-1.76 0-2.752 0.48-0.96 0.48-0.96 1.312 0 0.896 0.96 1.28t3.648 0.64q5.024 0.48 7.136 2.048 2.144 1.568 2.144 4.928 0 3.328-2.72 5.408-2.688 2.048-7.264 2.048-3.136 0-5.824-0.896-2.688-0.928-4.928-2.752l2.912-4.384q2.016 1.44 4.064 2.176 2.048 0.704 4.032 0.704 1.888 0 2.88-0.48 1.024-0.512 1.024-1.408z"/><path d="m22.976-22.4h5.856v4.64h-5.856zm0.128 22.4v-16.32h5.6v16.32z"/><path d="m30.944-16.32h5.408v1.376q0.896-0.864 2.048-1.312t2.56-0.448q3.168 0 4.864 1.856 1.696 1.824 1.696 5.248v9.6h-5.6v-8.96q0-1.408-0.672-2.176-0.672-0.8-1.888-0.8-1.28 0-2.048 0.864t-0.768 2.336v8.736h-5.6z"/><path d="m61.44-1.696v-0.416q-1.024 0.768-2.24 1.152t-2.592 0.384q-3.36 0-5.504-2.208-2.112-2.208-2.112-5.792 0-3.52 2.272-5.824 2.304-2.304 5.792-2.304 1.344 0 2.464 0.416 1.152 0.384 2.08 1.184v-1.216h5.408v14.528q0 3.936-2.208 5.728-2.208 1.824-6.976 1.824h-4.832v-4.48h4.96q1.76 0 2.624-0.736t0.864-2.24zm-3.36-3.584q1.472 0 2.464-0.96 1.024-0.992 1.024-2.4t-1.024-2.368q-0.992-0.992-2.464-0.992-1.504 0-2.464 0.928t-0.96 2.432 0.96 2.432 2.464 0.928z"/><path d="m69.248-22.4h5.6v22.4h-5.6z"/><path d="m86.336-3.872q0.992 0 2.048-0.416 1.056-0.448 1.92-1.216l2.656 3.2q-1.344 1.344-3.232 2.08-1.856 0.736-3.904 0.736-4.192 0-6.72-2.336-2.496-2.336-2.496-6.304 0-3.712 2.528-6.208t6.336-2.496q3.712 0 5.92 2.336 2.24 2.336 2.24 6.208 0 0.48-0.064 0.992-0.032 0.512-0.128 0.96h-11.04q0.416 1.216 1.408 1.856 1.024 0.608 2.528 0.608zm-0.96-8.64q-1.12 0-1.92 0.672t-1.12 1.92h5.824q-0.224-1.248-0.96-1.92t-1.824-0.672z"/><path d="m106.11 0h-5.408v-22.4h5.6v7.104q0.928-0.704 2.048-1.056 1.152-0.352 2.432-0.352 3.424 0 5.696 2.4 2.272 2.368 2.272 6.08 0 3.744-2.336 6.176-2.304 2.432-5.76 2.432-1.344 0-2.496-0.384-1.12-0.416-2.048-1.216zm3.552-12q-1.504 0-2.496 1.088t-0.992 2.752 0.992 2.752 2.496 1.088q1.536 0 2.464-1.056 0.96-1.056 0.96-2.784t-0.96-2.784q-0.928-1.056-2.464-1.056z"/><path d="m136.06 0h-5.248v-1.344q-0.928 0.864-2.144 1.28-1.184 0.416-2.848 0.416-2.816 0-4.448-1.408t-1.632-3.744q0-2.528 2.016-3.84 2.048-1.344 5.92-1.344h2.976q-0.032-1.216-0.704-1.824-0.64-0.608-1.984-0.608-1.152 0-2.336 0.416-1.152 0.416-2.4 1.248l-2.336-3.552q1.76-1.28 3.616-1.888 1.888-0.608 4-0.608 3.648 0 5.6 1.888t1.952 5.408zm-5.408-6.4h-3.136q-1.248 0-1.856 0.384-0.608 0.352-0.608 1.12 0 0.672 0.544 1.056t1.536 0.384q1.504 0 2.432-0.768 0.96-0.768 1.088-2.176z"/><path d="m139.2-6.176v-5.28h-2.112v-4.864h2.112v-4.128h5.6v4.128h3.488v4.864h-3.488v4.608q0 1.056 0.416 1.536 0.416 0.448 1.408 0.448h1.664v4.864h-2.624q-3.488 0-4.992-1.44-1.472-1.44-1.472-4.736z"/><path d="m158.21 0.512q-4.128 0-6.528-2.336-2.4-2.368-2.4-6.304 0-3.712 2.592-6.208t6.4-2.496q2.72 0 4.64 1.184 1.952 1.184 2.816 3.36l-4.448 2.4q-0.544-1.152-1.28-1.696-0.704-0.544-1.728-0.544-1.504 0-2.432 1.088-0.896 1.056-0.896 2.848 0 1.856 0.96 2.944 0.96 1.056 2.56 1.056 1.024 0 1.792-0.512 0.8-0.544 1.408-1.664l4.32 2.336q-0.8 1.984-2.976 3.264-2.144 1.28-4.8 1.28z"/><path d="m167.3-22.4h5.6v7.264q0.864-0.768 1.984-1.152 1.12-0.416 2.432-0.416 3.168 0 4.864 1.856 1.696 1.824 1.696 5.248v9.6h-5.6v-8.96q0-1.408-0.672-2.176-0.672-0.8-1.888-0.8-1.28 0-2.048 0.864t-0.768 2.336v8.736h-5.6z"/><path d="m191.2-22.4h5.856v4.64h-5.856zm0.128 22.4v-16.32h5.6v16.32z"/><path d="m199.17-16.32h5.408v1.376q0.896-0.864 2.048-1.312t2.56-0.448q3.168 0 4.864 1.856 1.696 1.824 1.696 5.248v9.6h-5.6v-8.96q0-1.408-0.672-2.176-0.672-0.8-1.888-0.8-1.28 0-2.048 0.864t-0.768 2.336v8.736h-5.6z"/><path d="m219.23-11.456h-2.144v-4.864h2.144v-0.48q0-2.752 1.504-4.16 1.536-1.44 4.512-1.44h2.848v4.224h-1.888q-0.704 0-1.056 0.352-0.32 0.352-0.32 1.056v0.448h3.264v4.864h-3.264v11.456h-5.6z"/><path d="m238.5-3.872q0.992 0 2.048-0.416 1.056-0.448 1.92-1.216l2.656 3.2q-1.344 1.344-3.232 2.08-1.856 0.736-3.904 0.736-4.192 0-6.72-2.336-2.496-2.336-2.496-6.304 0-3.712 2.528-6.208t6.336-2.496q3.712 0 5.92 2.336 2.24 2.336 2.24 6.208 0 0.48-0.064 0.992-0.032 0.512-0.128 0.96h-11.04q0.416 1.216 1.408 1.856 1.024 0.608 2.528 0.608zm-0.96-8.64q-1.12 0-1.92 0.672t-1.12 1.92h5.824q-0.224-1.248-0.96-1.92t-1.824-0.672z"/><path d="m247.52-16.32h5.408v1.664q0.736-0.896 1.76-1.312 1.056-0.448 2.432-0.448h1.6v5.184h-2.08q-1.888 0-2.72 0.864-0.8 0.832-0.8 2.688v7.68h-5.6z"/><path d="m265.47-16.32h5.408v1.664q0.736-0.896 1.76-1.312 1.056-0.448 2.432-0.448h1.6v5.184h-2.08q-1.888 0-2.72 0.864-0.8 0.832-0.8 2.688v7.68h-5.6z"/><path d="m287.01-3.872q0.992 0 2.048-0.416 1.056-0.448 1.92-1.216l2.656 3.2q-1.344 1.344-3.232 2.08-1.856 0.736-3.904 0.736-4.192 0-6.72-2.336-2.496-2.336-2.496-6.304 0-3.712 2.528-6.208t6.336-2.496q3.712 0 5.92 2.336 2.24 2.336 2.24 6.208 0 0.48-0.064 0.992-0.032 0.512-0.128 0.96h-11.04q0.416 1.216 1.408 1.856 1.024 0.608 2.528 0.608zm-0.96-8.64q-1.12 0-1.92 0.672t-1.12 1.92h5.824q-0.224-1.248-0.96-1.92t-1.824-0.672z"/><path d="m308.19-16.32h5.408v22.08h-5.6v-6.784q-0.928 0.704-2.08 1.056-1.12 0.352-2.4 0.352-3.424 0-5.696-2.368-2.272-2.4-2.272-6.112 0-3.744 2.304-6.176 2.336-2.432 5.792-2.432 1.344 0 2.464 0.416 1.152 0.384 2.08 1.184zm-3.552 12q1.504 0 2.496-1.088t0.992-2.752-0.992-2.752-2.496-1.088q-1.536 0-2.496 1.056-0.928 1.056-0.928 2.784t0.928 2.784q0.96 1.056 2.496 1.056z"/><path d="m332.16 0h-5.408v-1.376q-0.896 0.864-2.048 1.312t-2.56 0.448q-3.168 0-4.864-1.824-1.696-1.856-1.696-5.28v-9.6h5.6v8.96q0 1.408 0.672 2.208 0.672 0.768 1.888 0.768 1.28 0 2.048-0.864t0.768-2.336v-8.736h5.6z"/><path d="m343.52-3.872q0.992 0 2.048-0.416 1.056-0.448 1.92-1.216l2.656 3.2q-1.344 1.344-3.232 2.08-1.856 0.736-3.904 0.736-4.192 0-6.72-2.336-2.496-2.336-2.496-6.304 0-3.712 2.528-6.208t6.336-2.496q3.712 0 5.92 2.336 2.24 2.336 2.24 6.208 0 0.48-0.064 0.992-0.032 0.512-0.128 0.96h-11.04q0.416 1.216 1.408 1.856 1.024 0.608 2.528 0.608zm-0.96-8.64q-1.12 0-1.92 0.672t-1.12 1.92h5.824q-0.224-1.248-0.96-1.92t-1.824-0.672z"/><path d="m366.94-5.088q0 2.528-2.048 4.064-2.016 1.504-5.536 1.504-2.048 0-4.128-0.544-2.048-0.576-3.488-1.536l1.888-4.032q1.792 0.896 3.2 1.312 1.44 0.416 2.72 0.416 1.152 0 1.728-0.224t0.576-0.704-0.448-0.672q-0.448-0.224-1.632-0.32-4.032-0.32-5.76-1.536-1.696-1.216-1.696-3.872 0-2.528 1.92-4 1.952-1.504 5.344-1.504 1.824 0 3.744 0.512t3.136 1.28l-1.728 4q-1.472-0.704-2.848-1.056-1.344-0.352-2.464-0.352-0.992 0-1.504 0.224t-0.512 0.64q0 0.448 0.448 0.64 0.48 0.192 1.632 0.288 4.096 0.32 5.76 1.536 1.696 1.216 1.696 3.936z"/><path d="m369.66-6.176v-5.28h-2.112v-4.864h2.112v-4.128h5.6v4.128h3.488v4.864h-3.488v4.608q0 1.056 0.416 1.536 0.416 0.448 1.408 0.448h1.664v4.864h-2.624q-3.488 0-4.992-1.44-1.472-1.44-1.472-4.736z"/></g><path d="m115 325.11c0-6.719 5.447-12.165 12.167-12.165h407.67c6.72 0 12.167 5.446 12.167 12.165v48.657c0 6.719-5.447 12.165-12.167 12.165h-407.67c-6.72 0-12.167-5.446-12.167-12.165z" fill="#00AEEF" fill-rule="evenodd" stroke="#0071C5" stroke-dasharray="16.0029 12.0022" stroke-miterlimit="8" stroke-width="4.0007"/><g transform="matrix(1 0 0 .99982 134.79 361)" fill="#fff" aria-label="Single batch infer request"><path d="m15.264-6.592q0-0.928-0.928-1.312-0.896-0.416-3.456-0.672-5.28-0.544-7.392-2.048t-2.112-4.832q0-3.296 2.656-5.344t7.136-2.048q2.656 0 4.96 0.832t4.352 2.528l-3.008 4.32q-1.472-1.184-3.232-1.856-1.728-0.672-3.328-0.672-1.76 0-2.752 0.48-0.96 0.48-0.96 1.312 0 0.896 0.96 1.28t3.648 0.64q5.024 0.48 7.136 2.048 2.144 1.568 2.144 4.928 0 3.328-2.72 5.408-2.688 2.048-7.264 2.048-3.136 0-5.824-0.896-2.688-0.928-4.928-2.752l2.912-4.384q2.016 1.44 4.064 2.176 2.048 0.704 4.032 0.704 1.888 0 2.88-0.48 1.024-0.512 1.024-1.408z"/><path d="m22.976-22.4h5.856v4.64h-5.856zm0.128 22.4v-16.32h5.6v16.32z"/><path d="m30.944-16.32h5.408v1.376q0.896-0.864 2.048-1.312t2.56-0.448q3.168 0 4.864 1.856 1.696 1.824 1.696 5.248v9.6h-5.6v-8.96q0-1.408-0.672-2.176-0.672-0.8-1.888-0.8-1.28 0-2.048 0.864t-0.768 2.336v8.736h-5.6z"/><path d="m61.44-1.696v-0.416q-1.024 0.768-2.24 1.152t-2.592 0.384q-3.36 0-5.504-2.208-2.112-2.208-2.112-5.792 0-3.52 2.272-5.824 2.304-2.304 5.792-2.304 1.344 0 2.464 0.416 1.152 0.384 2.08 1.184v-1.216h5.408v14.528q0 3.936-2.208 5.728-2.208 1.824-6.976 1.824h-4.832v-4.48h4.96q1.76 0 2.624-0.736t0.864-2.24zm-3.36-3.584q1.472 0 2.464-0.96 1.024-0.992 1.024-2.4t-1.024-2.368q-0.992-0.992-2.464-0.992-1.504 0-2.464 0.928t-0.96 2.432 0.96 2.432 2.464 0.928z"/><path d="m69.248-22.4h5.6v22.4h-5.6z"/><path d="m86.336-3.872q0.992 0 2.048-0.416 1.056-0.448 1.92-1.216l2.656 3.2q-1.344 1.344-3.232 2.08-1.856 0.736-3.904 0.736-4.192 0-6.72-2.336-2.496-2.336-2.496-6.304 0-3.712 2.528-6.208t6.336-2.496q3.712 0 5.92 2.336 2.24 2.336 2.24 6.208 0 0.48-0.064 0.992-0.032 0.512-0.128 0.96h-11.04q0.416 1.216 1.408 1.856 1.024 0.608 2.528 0.608zm-0.96-8.64q-1.12 0-1.92 0.672t-1.12 1.92h5.824q-0.224-1.248-0.96-1.92t-1.824-0.672z"/><path d="m106.11 0h-5.408v-22.4h5.6v7.104q0.928-0.704 2.048-1.056 1.152-0.352 2.432-0.352 3.424 0 5.696 2.4 2.272 2.368 2.272 6.08 0 3.744-2.336 6.176-2.304 2.432-5.76 2.432-1.344 0-2.496-0.384-1.12-0.416-2.048-1.216zm3.552-12q-1.504 0-2.496 1.088t-0.992 2.752 0.992 2.752 2.496 1.088q1.536 0 2.464-1.056 0.96-1.056 0.96-2.784t-0.96-2.784q-0.928-1.056-2.464-1.056z"/><path d="m136.06 0h-5.248v-1.344q-0.928 0.864-2.144 1.28-1.184 0.416-2.848 0.416-2.816 0-4.448-1.408t-1.632-3.744q0-2.528 2.016-3.84 2.048-1.344 5.92-1.344h2.976q-0.032-1.216-0.704-1.824-0.64-0.608-1.984-0.608-1.152 0-2.336 0.416-1.152 0.416-2.4 1.248l-2.336-3.552q1.76-1.28 3.616-1.888 1.888-0.608 4-0.608 3.648 0 5.6 1.888t1.952 5.408zm-5.408-6.4h-3.136q-1.248 0-1.856 0.384-0.608 0.352-0.608 1.12 0 0.672 0.544 1.056t1.536 0.384q1.504 0 2.432-0.768 0.96-0.768 1.088-2.176z"/><path d="m139.2-6.176v-5.28h-2.112v-4.864h2.112v-4.128h5.6v4.128h3.488v4.864h-3.488v4.608q0 1.056 0.416 1.536 0.416 0.448 1.408 0.448h1.664v4.864h-2.624q-3.488 0-4.992-1.44-1.472-1.44-1.472-4.736z"/><path d="m158.21 0.512q-4.128 0-6.528-2.336-2.4-2.368-2.4-6.304 0-3.712 2.592-6.208t6.4-2.496q2.72 0 4.64 1.184 1.952 1.184 2.816 3.36l-4.448 2.4q-0.544-1.152-1.28-1.696-0.704-0.544-1.728-0.544-1.504 0-2.432 1.088-0.896 1.056-0.896 2.848 0 1.856 0.96 2.944 0.96 1.056 2.56 1.056 1.024 0 1.792-0.512 0.8-0.544 1.408-1.664l4.32 2.336q-0.8 1.984-2.976 3.264-2.144 1.28-4.8 1.28z"/><path d="m167.3-22.4h5.6v7.264q0.864-0.768 1.984-1.152 1.12-0.416 2.432-0.416 3.168 0 4.864 1.856 1.696 1.824 1.696 5.248v9.6h-5.6v-8.96q0-1.408-0.672-2.176-0.672-0.8-1.888-0.8-1.28 0-2.048 0.864t-0.768 2.336v8.736h-5.6z"/><path d="m191.2-22.4h5.856v4.64h-5.856zm0.128 22.4v-16.32h5.6v16.32z"/><path d="m199.17-16.32h5.408v1.376q0.896-0.864 2.048-1.312t2.56-0.448q3.168 0 4.864 1.856 1.696 1.824 1.696 5.248v9.6h-5.6v-8.96q0-1.408-0.672-2.176-0.672-0.8-1.888-0.8-1.28 0-2.048 0.864t-0.768 2.336v8.736h-5.6z"/><path d="m219.23-11.456h-2.144v-4.864h2.144v-0.48q0-2.752 1.504-4.16 1.536-1.44 4.512-1.44h2.848v4.224h-1.888q-0.704 0-1.056 0.352-0.32 0.352-0.32 1.056v0.448h3.264v4.864h-3.264v11.456h-5.6z"/><path d="m238.5-3.872q0.992 0 2.048-0.416 1.056-0.448 1.92-1.216l2.656 3.2q-1.344 1.344-3.232 2.08-1.856 0.736-3.904 0.736-4.192 0-6.72-2.336-2.496-2.336-2.496-6.304 0-3.712 2.528-6.208t6.336-2.496q3.712 0 5.92 2.336 2.24 2.336 2.24 6.208 0 0.48-0.064 0.992-0.032 0.512-0.128 0.96h-11.04q0.416 1.216 1.408 1.856 1.024 0.608 2.528 0.608zm-0.96-8.64q-1.12 0-1.92 0.672t-1.12 1.92h5.824q-0.224-1.248-0.96-1.92t-1.824-0.672z"/><path d="m247.52-16.32h5.408v1.664q0.736-0.896 1.76-1.312 1.056-0.448 2.432-0.448h1.6v5.184h-2.08q-1.888 0-2.72 0.864-0.8 0.832-0.8 2.688v7.68h-5.6z"/><path d="m265.47-16.32h5.408v1.664q0.736-0.896 1.76-1.312 1.056-0.448 2.432-0.448h1.6v5.184h-2.08q-1.888 0-2.72 0.864-0.8 0.832-0.8 2.688v7.68h-5.6z"/><path d="m287.01-3.872q0.992 0 2.048-0.416 1.056-0.448 1.92-1.216l2.656 3.2q-1.344 1.344-3.232 2.08-1.856 0.736-3.904 0.736-4.192 0-6.72-2.336-2.496-2.336-2.496-6.304 0-3.712 2.528-6.208t6.336-2.496q3.712 0 5.92 2.336 2.24 2.336 2.24 6.208 0 0.48-0.064 0.992-0.032 0.512-0.128 0.96h-11.04q0.416 1.216 1.408 1.856 1.024 0.608 2.528 0.608zm-0.96-8.64q-1.12 0-1.92 0.672t-1.12 1.92h5.824q-0.224-1.248-0.96-1.92t-1.824-0.672z"/><path d="m308.19-16.32h5.408v22.08h-5.6v-6.784q-0.928 0.704-2.08 1.056-1.12 0.352-2.4 0.352-3.424 0-5.696-2.368-2.272-2.4-2.272-6.112 0-3.744 2.304-6.176 2.336-2.432 5.792-2.432 1.344 0 2.464 0.416 1.152 0.384 2.08 1.184zm-3.552 12q1.504 0 2.496-1.088t0.992-2.752-0.992-2.752-2.496-1.088q-1.536 0-2.496 1.056-0.928 1.056-0.928 2.784t0.928 2.784q0.96 1.056 2.496 1.056z"/><path d="m332.16 0h-5.408v-1.376q-0.896 0.864-2.048 1.312t-2.56 0.448q-3.168 0-4.864-1.824-1.696-1.856-1.696-5.28v-9.6h5.6v8.96q0 1.408 0.672 2.208 0.672 0.768 1.888 0.768 1.28 0 2.048-0.864t0.768-2.336v-8.736h5.6z"/><path d="m343.52-3.872q0.992 0 2.048-0.416 1.056-0.448 1.92-1.216l2.656 3.2q-1.344 1.344-3.232 2.08-1.856 0.736-3.904 0.736-4.192 0-6.72-2.336-2.496-2.336-2.496-6.304 0-3.712 2.528-6.208t6.336-2.496q3.712 0 5.92 2.336 2.24 2.336 2.24 6.208 0 0.48-0.064 0.992-0.032 0.512-0.128 0.96h-11.04q0.416 1.216 1.408 1.856 1.024 0.608 2.528 0.608zm-0.96-8.64q-1.12 0-1.92 0.672t-1.12 1.92h5.824q-0.224-1.248-0.96-1.92t-1.824-0.672z"/><path d="m366.94-5.088q0 2.528-2.048 4.064-2.016 1.504-5.536 1.504-2.048 0-4.128-0.544-2.048-0.576-3.488-1.536l1.888-4.032q1.792 0.896 3.2 1.312 1.44 0.416 2.72 0.416 1.152 0 1.728-0.224t0.576-0.704-0.448-0.672q-0.448-0.224-1.632-0.32-4.032-0.32-5.76-1.536-1.696-1.216-1.696-3.872 0-2.528 1.92-4 1.952-1.504 5.344-1.504 1.824 0 3.744 0.512t3.136 1.28l-1.728 4q-1.472-0.704-2.848-1.056-1.344-0.352-2.464-0.352-0.992 0-1.504 0.224t-0.512 0.64q0 0.448 0.448 0.64 0.48 0.192 1.632 0.288 4.096 0.32 5.76 1.536 1.696 1.216 1.696 3.936z"/><path d="m369.66-6.176v-5.28h-2.112v-4.864h2.112v-4.128h5.6v4.128h3.488v4.864h-3.488v4.608q0 1.056 0.416 1.536 0.416 0.448 1.408 0.448h1.664v4.864h-2.624q-3.488 0-4.992-1.44-1.472-1.44-1.472-4.736z"/></g><path d="m52 446.09c0-6.718 5.4474-12.165 12.167-12.165h408.67c6.72 0 12.167 5.447 12.167 12.165v48.657c0 6.718-5.447 12.165-12.167 12.165h-408.67c-6.7196 0-12.167-5.447-12.167-12.165z" fill="#00AEEF" fill-rule="evenodd" stroke="#0071C5" stroke-dasharray="16.0029 12.0022" stroke-miterlimit="8" stroke-width="4.0007"/><g transform="matrix(1 0 0 .99982 72.157 482)" fill="#fff" aria-label="Single batch infer request"><path d="m15.264-6.592q0-0.928-0.928-1.312-0.896-0.416-3.456-0.672-5.28-0.544-7.392-2.048t-2.112-4.832q0-3.296 2.656-5.344t7.136-2.048q2.656 0 4.96 0.832t4.352 2.528l-3.008 4.32q-1.472-1.184-3.232-1.856-1.728-0.672-3.328-0.672-1.76 0-2.752 0.48-0.96 0.48-0.96 1.312 0 0.896 0.96 1.28t3.648 0.64q5.024 0.48 7.136 2.048 2.144 1.568 2.144 4.928 0 3.328-2.72 5.408-2.688 2.048-7.264 2.048-3.136 0-5.824-0.896-2.688-0.928-4.928-2.752l2.912-4.384q2.016 1.44 4.064 2.176 2.048 0.704 4.032 0.704 1.888 0 2.88-0.48 1.024-0.512 1.024-1.408z"/><path d="m22.976-22.4h5.856v4.64h-5.856zm0.128 22.4v-16.32h5.6v16.32z"/><path d="m30.944-16.32h5.408v1.376q0.896-0.864 2.048-1.312t2.56-0.448q3.168 0 4.864 1.856 1.696 1.824 1.696 5.248v9.6h-5.6v-8.96q0-1.408-0.672-2.176-0.672-0.8-1.888-0.8-1.28 0-2.048 0.864t-0.768 2.336v8.736h-5.6z"/><path d="m61.44-1.696v-0.416q-1.024 0.768-2.24 1.152t-2.592 0.384q-3.36 0-5.504-2.208-2.112-2.208-2.112-5.792 0-3.52 2.272-5.824 2.304-2.304 5.792-2.304 1.344 0 2.464 0.416 1.152 0.384 2.08 1.184v-1.216h5.408v14.528q0 3.936-2.208 5.728-2.208 1.824-6.976 1.824h-4.832v-4.48h4.96q1.76 0 2.624-0.736t0.864-2.24zm-3.36-3.584q1.472 0 2.464-0.96 1.024-0.992 1.024-2.4t-1.024-2.368q-0.992-0.992-2.464-0.992-1.504 0-2.464 0.928t-0.96 2.432 0.96 2.432 2.464 0.928z"/><path d="m69.248-22.4h5.6v22.4h-5.6z"/><path d="m86.336-3.872q0.992 0 2.048-0.416 1.056-0.448 1.92-1.216l2.656 3.2q-1.344 1.344-3.232 2.08-1.856 0.736-3.904 0.736-4.192 0-6.72-2.336-2.496-2.336-2.496-6.304 0-3.712 2.528-6.208t6.336-2.496q3.712 0 5.92 2.336 2.24 2.336 2.24 6.208 0 0.48-0.064 0.992-0.032 0.512-0.128 0.96h-11.04q0.416 1.216 1.408 1.856 1.024 0.608 2.528 0.608zm-0.96-8.64q-1.12 0-1.92 0.672t-1.12 1.92h5.824q-0.224-1.248-0.96-1.92t-1.824-0.672z"/><path d="m106.11 0h-5.408v-22.4h5.6v7.104q0.928-0.704 2.048-1.056 1.152-0.352 2.432-0.352 3.424 0 5.696 2.4 2.272 2.368 2.272 6.08 0 3.744-2.336 6.176-2.304 2.432-5.76 2.432-1.344 0-2.496-0.384-1.12-0.416-2.048-1.216zm3.552-12q-1.504 0-2.496 1.088t-0.992 2.752 0.992 2.752 2.496 1.088q1.536 0 2.464-1.056 0.96-1.056 0.96-2.784t-0.96-2.784q-0.928-1.056-2.464-1.056z"/><path d="m136.06 0h-5.248v-1.344q-0.928 0.864-2.144 1.28-1.184 0.416-2.848 0.416-2.816 0-4.448-1.408t-1.632-3.744q0-2.528 2.016-3.84 2.048-1.344 5.92-1.344h2.976q-0.032-1.216-0.704-1.824-0.64-0.608-1.984-0.608-1.152 0-2.336 0.416-1.152 0.416-2.4 1.248l-2.336-3.552q1.76-1.28 3.616-1.888 1.888-0.608 4-0.608 3.648 0 5.6 1.888t1.952 5.408zm-5.408-6.4h-3.136q-1.248 0-1.856 0.384-0.608 0.352-0.608 1.12 0 0.672 0.544 1.056t1.536 0.384q1.504 0 2.432-0.768 0.96-0.768 1.088-2.176z"/><path d="m139.2-6.176v-5.28h-2.112v-4.864h2.112v-4.128h5.6v4.128h3.488v4.864h-3.488v4.608q0 1.056 0.416 1.536 0.416 0.448 1.408 0.448h1.664v4.864h-2.624q-3.488 0-4.992-1.44-1.472-1.44-1.472-4.736z"/><path d="m158.21 0.512q-4.128 0-6.528-2.336-2.4-2.368-2.4-6.304 0-3.712 2.592-6.208t6.4-2.496q2.72 0 4.64 1.184 1.952 1.184 2.816 3.36l-4.448 2.4q-0.544-1.152-1.28-1.696-0.704-0.544-1.728-0.544-1.504 0-2.432 1.088-0.896 1.056-0.896 2.848 0 1.856 0.96 2.944 0.96 1.056 2.56 1.056 1.024 0 1.792-0.512 0.8-0.544 1.408-1.664l4.32 2.336q-0.8 1.984-2.976 3.264-2.144 1.28-4.8 1.28z"/><path d="m167.3-22.4h5.6v7.264q0.864-0.768 1.984-1.152 1.12-0.416 2.432-0.416 3.168 0 4.864 1.856 1.696 1.824 1.696 5.248v9.6h-5.6v-8.96q0-1.408-0.672-2.176-0.672-0.8-1.888-0.8-1.28 0-2.048 0.864t-0.768 2.336v8.736h-5.6z"/><path d="m191.2-22.4h5.856v4.64h-5.856zm0.128 22.4v-16.32h5.6v16.32z"/><path d="m199.17-16.32h5.408v1.376q0.896-0.864 2.048-1.312t2.56-0.448q3.168 0 4.864 1.856 1.696 1.824 1.696 5.248v9.6h-5.6v-8.96q0-1.408-0.672-2.176-0.672-0.8-1.888-0.8-1.28 0-2.048 0.864t-0.768 2.336v8.736h-5.6z"/><path d="m219.23-11.456h-2.144v-4.864h2.144v-0.48q0-2.752 1.504-4.16 1.536-1.44 4.512-1.44h2.848v4.224h-1.888q-0.704 0-1.056 0.352-0.32 0.352-0.32 1.056v0.448h3.264v4.864h-3.264v11.456h-5.6z"/><path d="m238.5-3.872q0.992 0 2.048-0.416 1.056-0.448 1.92-1.216l2.656 3.2q-1.344 1.344-3.232 2.08-1.856 0.736-3.904 0.736-4.192 0-6.72-2.336-2.496-2.336-2.496-6.304 0-3.712 2.528-6.208t6.336-2.496q3.712 0 5.92 2.336 2.24 2.336 2.24 6.208 0 0.48-0.064 0.992-0.032 0.512-0.128 0.96h-11.04q0.416 1.216 1.408 1.856 1.024 0.608 2.528 0.608zm-0.96-8.64q-1.12 0-1.92 0.672t-1.12 1.92h5.824q-0.224-1.248-0.96-1.92t-1.824-0.672z"/><path d="m247.52-16.32h5.408v1.664q0.736-0.896 1.76-1.312 1.056-0.448 2.432-0.448h1.6v5.184h-2.08q-1.888 0-2.72 0.864-0.8 0.832-0.8 2.688v7.68h-5.6z"/><path d="m265.47-16.32h5.408v1.664q0.736-0.896 1.76-1.312 1.056-0.448 2.432-0.448h1.6v5.184h-2.08q-1.888 0-2.72 0.864-0.8 0.832-0.8 2.688v7.68h-5.6z"/><path d="m287.01-3.872q0.992 0 2.048-0.416 1.056-0.448 1.92-1.216l2.656 3.2q-1.344 1.344-3.232 2.08-1.856 0.736-3.904 0.736-4.192 0-6.72-2.336-2.496-2.336-2.496-6.304 0-3.712 2.528-6.208t6.336-2.496q3.712 0 5.92 2.336 2.24 2.336 2.24 6.208 0 0.48-0.064 0.992-0.032 0.512-0.128 0.96h-11.04q0.416 1.216 1.408 1.856 1.024 0.608 2.528 0.608zm-0.96-8.64q-1.12 0-1.92 0.672t-1.12 1.92h5.824q-0.224-1.248-0.96-1.92t-1.824-0.672z"/><path d="m308.19-16.32h5.408v22.08h-5.6v-6.784q-0.928 0.704-2.08 1.056-1.12 0.352-2.4 0.352-3.424 0-5.696-2.368-2.272-2.4-2.272-6.112 0-3.744 2.304-6.176 2.336-2.432 5.792-2.432 1.344 0 2.464 0.416 1.152 0.384 2.08 1.184zm-3.552 12q1.504 0 2.496-1.088t0.992-2.752-0.992-2.752-2.496-1.088q-1.536 0-2.496 1.056-0.928 1.056-0.928 2.784t0.928 2.784q0.96 1.056 2.496 1.056z"/><path d="m332.16 0h-5.408v-1.376q-0.896 0.864-2.048 1.312t-2.56 0.448q-3.168 0-4.864-1.824-1.696-1.856-1.696-5.28v-9.6h5.6v8.96q0 1.408 0.672 2.208 0.672 0.768 1.888 0.768 1.28 0 2.048-0.864t0.768-2.336v-8.736h5.6z"/><path d="m343.52-3.872q0.992 0 2.048-0.416 1.056-0.448 1.92-1.216l2.656 3.2q-1.344 1.344-3.232 2.08-1.856 0.736-3.904 0.736-4.192 0-6.72-2.336-2.496-2.336-2.496-6.304 0-3.712 2.528-6.208t6.336-2.496q3.712 0 5.92 2.336 2.24 2.336 2.24 6.208 0 0.48-0.064 0.992-0.032 0.512-0.128 0.96h-11.04q0.416 1.216 1.408 1.856 1.024 0.608 2.528 0.608zm-0.96-8.64q-1.12 0-1.92 0.672t-1.12 1.92h5.824q-0.224-1.248-0.96-1.92t-1.824-0.672z"/><path d="m366.94-5.088q0 2.528-2.048 4.064-2.016 1.504-5.536 1.504-2.048 0-4.128-0.544-2.048-0.576-3.488-1.536l1.888-4.032q1.792 0.896 3.2 1.312 1.44 0.416 2.72 0.416 1.152 0 1.728-0.224t0.576-0.704-0.448-0.672q-0.448-0.224-1.632-0.32-4.032-0.32-5.76-1.536-1.696-1.216-1.696-3.872 0-2.528 1.92-4 1.952-1.504 5.344-1.504 1.824 0 3.744 0.512t3.136 1.28l-1.728 4q-1.472-0.704-2.848-1.056-1.344-0.352-2.464-0.352-0.992 0-1.504 0.224t-0.512 0.64q0 0.448 0.448 0.64 0.48 0.192 1.632 0.288 4.096 0.32 5.76 1.536 1.696 1.216 1.696 3.936z"/><path d="m369.66-6.176v-5.28h-2.112v-4.864h2.112v-4.128h5.6v4.128h3.488v4.864h-3.488v4.608q0 1.056 0.416 1.536 0.416 0.448 1.408 0.448h1.664v4.864h-2.624q-3.488 0-4.992-1.44-1.472-1.44-1.472-4.736z"/></g><path d="m76 564.06c0-6.718 5.4472-12.164 12.167-12.164h407.67c6.72 0 12.167 5.446 12.167 12.164v48.658c0 6.718-5.447 12.164-12.167 12.164h-407.67c-6.7195 0-12.167-5.446-12.167-12.164z" fill="#00AEEF" fill-rule="evenodd" stroke="#0071C5" stroke-dasharray="16.0029 12.0022" stroke-miterlimit="8" stroke-width="4.0007"/><g transform="matrix(1 0 0 .99982 95.325 600)" fill="#fff" aria-label="Single batch infer request"><path d="m15.264-6.592q0-0.928-0.928-1.312-0.896-0.416-3.456-0.672-5.28-0.544-7.392-2.048t-2.112-4.832q0-3.296 2.656-5.344t7.136-2.048q2.656 0 4.96 0.832t4.352 2.528l-3.008 4.32q-1.472-1.184-3.232-1.856-1.728-0.672-3.328-0.672-1.76 0-2.752 0.48-0.96 0.48-0.96 1.312 0 0.896 0.96 1.28t3.648 0.64q5.024 0.48 7.136 2.048 2.144 1.568 2.144 4.928 0 3.328-2.72 5.408-2.688 2.048-7.264 2.048-3.136 0-5.824-0.896-2.688-0.928-4.928-2.752l2.912-4.384q2.016 1.44 4.064 2.176 2.048 0.704 4.032 0.704 1.888 0 2.88-0.48 1.024-0.512 1.024-1.408z"/><path d="m22.976-22.4h5.856v4.64h-5.856zm0.128 22.4v-16.32h5.6v16.32z"/><path d="m30.944-16.32h5.408v1.376q0.896-0.864 2.048-1.312t2.56-0.448q3.168 0 4.864 1.856 1.696 1.824 1.696 5.248v9.6h-5.6v-8.96q0-1.408-0.672-2.176-0.672-0.8-1.888-0.8-1.28 0-2.048 0.864t-0.768 2.336v8.736h-5.6z"/><path d="m61.44-1.696v-0.416q-1.024 0.768-2.24 1.152t-2.592 0.384q-3.36 0-5.504-2.208-2.112-2.208-2.112-5.792 0-3.52 2.272-5.824 2.304-2.304 5.792-2.304 1.344 0 2.464 0.416 1.152 0.384 2.08 1.184v-1.216h5.408v14.528q0 3.936-2.208 5.728-2.208 1.824-6.976 1.824h-4.832v-4.48h4.96q1.76 0 2.624-0.736t0.864-2.24zm-3.36-3.584q1.472 0 2.464-0.96 1.024-0.992 1.024-2.4t-1.024-2.368q-0.992-0.992-2.464-0.992-1.504 0-2.464 0.928t-0.96 2.432 0.96 2.432 2.464 0.928z"/><path d="m69.248-22.4h5.6v22.4h-5.6z"/><path d="m86.336-3.872q0.992 0 2.048-0.416 1.056-0.448 1.92-1.216l2.656 3.2q-1.344 1.344-3.232 2.08-1.856 0.736-3.904 0.736-4.192 0-6.72-2.336-2.496-2.336-2.496-6.304 0-3.712 2.528-6.208t6.336-2.496q3.712 0 5.92 2.336 2.24 2.336 2.24 6.208 0 0.48-0.064 0.992-0.032 0.512-0.128 0.96h-11.04q0.416 1.216 1.408 1.856 1.024 0.608 2.528 0.608zm-0.96-8.64q-1.12 0-1.92 0.672t-1.12 1.92h5.824q-0.224-1.248-0.96-1.92t-1.824-0.672z"/><path d="m106.11 0h-5.408v-22.4h5.6v7.104q0.928-0.704 2.048-1.056 1.152-0.352 2.432-0.352 3.424 0 5.696 2.4 2.272 2.368 2.272 6.08 0 3.744-2.336 6.176-2.304 2.432-5.76 2.432-1.344 0-2.496-0.384-1.12-0.416-2.048-1.216zm3.552-12q-1.504 0-2.496 1.088t-0.992 2.752 0.992 2.752 2.496 1.088q1.536 0 2.464-1.056 0.96-1.056 0.96-2.784t-0.96-2.784q-0.928-1.056-2.464-1.056z"/><path d="m136.06 0h-5.248v-1.344q-0.928 0.864-2.144 1.28-1.184 0.416-2.848 0.416-2.816 0-4.448-1.408t-1.632-3.744q0-2.528 2.016-3.84 2.048-1.344 5.92-1.344h2.976q-0.032-1.216-0.704-1.824-0.64-0.608-1.984-0.608-1.152 0-2.336 0.416-1.152 0.416-2.4 1.248l-2.336-3.552q1.76-1.28 3.616-1.888 1.888-0.608 4-0.608 3.648 0 5.6 1.888t1.952 5.408zm-5.408-6.4h-3.136q-1.248 0-1.856 0.384-0.608 0.352-0.608 1.12 0 0.672 0.544 1.056t1.536 0.384q1.504 0 2.432-0.768 0.96-0.768 1.088-2.176z"/><path d="m139.2-6.176v-5.28h-2.112v-4.864h2.112v-4.128h5.6v4.128h3.488v4.864h-3.488v4.608q0 1.056 0.416 1.536 0.416 0.448 1.408 0.448h1.664v4.864h-2.624q-3.488 0-4.992-1.44-1.472-1.44-1.472-4.736z"/><path d="m158.21 0.512q-4.128 0-6.528-2.336-2.4-2.368-2.4-6.304 0-3.712 2.592-6.208t6.4-2.496q2.72 0 4.64 1.184 1.952 1.184 2.816 3.36l-4.448 2.4q-0.544-1.152-1.28-1.696-0.704-0.544-1.728-0.544-1.504 0-2.432 1.088-0.896 1.056-0.896 2.848 0 1.856 0.96 2.944 0.96 1.056 2.56 1.056 1.024 0 1.792-0.512 0.8-0.544 1.408-1.664l4.32 2.336q-0.8 1.984-2.976 3.264-2.144 1.28-4.8 1.28z"/><path d="m167.3-22.4h5.6v7.264q0.864-0.768 1.984-1.152 1.12-0.416 2.432-0.416 3.168 0 4.864 1.856 1.696 1.824 1.696 5.248v9.6h-5.6v-8.96q0-1.408-0.672-2.176-0.672-0.8-1.888-0.8-1.28 0-2.048 0.864t-0.768 2.336v8.736h-5.6z"/><path d="m191.2-22.4h5.856v4.64h-5.856zm0.128 22.4v-16.32h5.6v16.32z"/><path d="m199.17-16.32h5.408v1.376q0.896-0.864 2.048-1.312t2.56-0.448q3.168 0 4.864 1.856 1.696 1.824 1.696 5.248v9.6h-5.6v-8.96q0-1.408-0.672-2.176-0.672-0.8-1.888-0.8-1.28 0-2.048 0.864t-0.768 2.336v8.736h-5.6z"/><path d="m219.23-11.456h-2.144v-4.864h2.144v-0.48q0-2.752 1.504-4.16 1.536-1.44 4.512-1.44h2.848v4.224h-1.888q-0.704 0-1.056 0.352-0.32 0.352-0.32 1.056v0.448h3.264v4.864h-3.264v11.456h-5.6z"/><path d="m238.5-3.872q0.992 0 2.048-0.416 1.056-0.448 1.92-1.216l2.656 3.2q-1.344 1.344-3.232 2.08-1.856 0.736-3.904 0.736-4.192 0-6.72-2.336-2.496-2.336-2.496-6.304 0-3.712 2.528-6.208t6.336-2.496q3.712 0 5.92 2.336 2.24 2.336 2.24 6.208 0 0.48-0.064 0.992-0.032 0.512-0.128 0.96h-11.04q0.416 1.216 1.408 1.856 1.024 0.608 2.528 0.608zm-0.96-8.64q-1.12 0-1.92 0.672t-1.12 1.92h5.824q-0.224-1.248-0.96-1.92t-1.824-0.672z"/><path d="m247.52-16.32h5.408v1.664q0.736-0.896 1.76-1.312 1.056-0.448 2.432-0.448h1.6v5.184h-2.08q-1.888 0-2.72 0.864-0.8 0.832-0.8 2.688v7.68h-5.6z"/><path d="m265.47-16.32h5.408v1.664q0.736-0.896 1.76-1.312 1.056-0.448 2.432-0.448h1.6v5.184h-2.08q-1.888 0-2.72 0.864-0.8 0.832-0.8 2.688v7.68h-5.6z"/><path d="m287.01-3.872q0.992 0 2.048-0.416 1.056-0.448 1.92-1.216l2.656 3.2q-1.344 1.344-3.232 2.08-1.856 0.736-3.904 0.736-4.192 0-6.72-2.336-2.496-2.336-2.496-6.304 0-3.712 2.528-6.208t6.336-2.496q3.712 0 5.92 2.336 2.24 2.336 2.24 6.208 0 0.48-0.064 0.992-0.032 0.512-0.128 0.96h-11.04q0.416 1.216 1.408 1.856 1.024 0.608 2.528 0.608zm-0.96-8.64q-1.12 0-1.92 0.672t-1.12 1.92h5.824q-0.224-1.248-0.96-1.92t-1.824-0.672z"/><path d="m308.19-16.32h5.408v22.08h-5.6v-6.784q-0.928 0.704-2.08 1.056-1.12 0.352-2.4 0.352-3.424 0-5.696-2.368-2.272-2.4-2.272-6.112 0-3.744 2.304-6.176 2.336-2.432 5.792-2.432 1.344 0 2.464 0.416 1.152 0.384 2.08 1.184zm-3.552 12q1.504 0 2.496-1.088t0.992-2.752-0.992-2.752-2.496-1.088q-1.536 0-2.496 1.056-0.928 1.056-0.928 2.784t0.928 2.784q0.96 1.056 2.496 1.056z"/><path d="m332.16 0h-5.408v-1.376q-0.896 0.864-2.048 1.312t-2.56 0.448q-3.168 0-4.864-1.824-1.696-1.856-1.696-5.28v-9.6h5.6v8.96q0 1.408 0.672 2.208 0.672 0.768 1.888 0.768 1.28 0 2.048-0.864t0.768-2.336v-8.736h5.6z"/><path d="m343.52-3.872q0.992 0 2.048-0.416 1.056-0.448 1.92-1.216l2.656 3.2q-1.344 1.344-3.232 2.08-1.856 0.736-3.904 0.736-4.192 0-6.72-2.336-2.496-2.336-2.496-6.304 0-3.712 2.528-6.208t6.336-2.496q3.712 0 5.92 2.336 2.24 2.336 2.24 6.208 0 0.48-0.064 0.992-0.032 0.512-0.128 0.96h-11.04q0.416 1.216 1.408 1.856 1.024 0.608 2.528 0.608zm-0.96-8.64q-1.12 0-1.92 0.672t-1.12 1.92h5.824q-0.224-1.248-0.96-1.92t-1.824-0.672z"/><path d="m366.94-5.088q0 2.528-2.048 4.064-2.016 1.504-5.536 1.504-2.048 0-4.128-0.544-2.048-0.576-3.488-1.536l1.888-4.032q1.792 0.896 3.2 1.312 1.44 0.416 2.72 0.416 1.152 0 1.728-0.224t0.576-0.704-0.448-0.672q-0.448-0.224-1.632-0.32-4.032-0.32-5.76-1.536-1.696-1.216-1.696-3.872 0-2.528 1.92-4 1.952-1.504 5.344-1.504 1.824 0 3.744 0.512t3.136 1.28l-1.728 4q-1.472-0.704-2.848-1.056-1.344-0.352-2.464-0.352-0.992 0-1.504 0.224t-0.512 0.64q0 0.448 0.448 0.64 0.48 0.192 1.632 0.288 4.096 0.32 5.76 1.536 1.696 1.216 1.696 3.936z"/><path d="m369.66-6.176v-5.28h-2.112v-4.864h2.112v-4.128h5.6v4.128h3.488v4.864h-3.488v4.608q0 1.056 0.416 1.536 0.416 0.448 1.408 0.448h1.664v4.864h-2.624q-3.488 0-4.992-1.44-1.472-1.44-1.472-4.736z"/></g><g fill="#00AEEF" fill-rule="evenodd" stroke="#0071C5" stroke-miterlimit="8" stroke-width="4.0007"><path d="m843 305.11c0-6.719 5.447-12.165 12.167-12.165h408.66c6.72 0 12.17 5.446 12.17 12.165v48.657c0 6.718-5.45 12.164-12.17 12.164h-408.66c-6.72 0-12.167-5.446-12.167-12.164z"/><path d="m842 378.1c0-6.718 5.447-12.165 12.167-12.165h407.66c6.72 0 12.17 5.447 12.17 12.165v48.658c0 6.718-5.45 12.164-12.17 12.164h-407.66c-6.72 0-12.167-5.446-12.167-12.164z"/><path d="m843 451.08c0-6.719 5.447-12.165 12.167-12.165h407.66c6.72 0 12.17 5.446 12.17 12.165v48.657c0 6.719-5.45 12.165-12.17 12.165h-407.66c-6.72 0-12.167-5.446-12.167-12.165z"/><path d="m843 524.07c0-6.719 5.447-12.165 12.167-12.165h407.66c6.72 0 12.17 5.446 12.17 12.165v48.657c0 6.718-5.45 12.165-12.17 12.165h-407.66c-6.72 0-12.167-5.447-12.167-12.165z"/></g><path d="m803 264.29c0-39.942 32.385-72.322 72.335-72.322h370.34c39.94 0 72.33 32.38 72.33 72.322v289.28c0 39.943-32.39 72.322-72.33 72.322h-370.34c-39.95 0-72.335-32.379-72.335-72.322z" fill="none" fill-rule="evenodd" stroke="#0071C5" stroke-miterlimit="8" stroke-width="4.0007"/><g transform="matrix(1 0 0 .99982 849.64 262)" fill="#0071c5" aria-label="Batch “worker” request"><path d="m1.628 0v-25.9h13.283q4.736 0 7.289 1.776t2.553 4.995q0 2.22-0.999 3.589-0.962 1.369-3.034 2.109 2.405 0.703 3.552 2.22 1.147 1.48 1.147 3.996 0 3.404-2.812 5.328-2.812 1.887-7.955 1.887zm16.243-18.13q0-0.962-0.777-1.443-0.74-0.481-2.257-0.481h-6.327v4.07h5.994q1.665 0 2.516-0.555t0.851-1.591zm0.703 10.101q0-1.11-0.851-1.591-0.814-0.518-2.627-0.518h-6.586v4.292h6.253q1.961 0 2.886-0.518t0.925-1.665z"/><path d="m45.843 0h-6.068v-1.554q-1.073 0.999-2.479 1.48-1.369 0.481-3.293 0.481-3.256 0-5.143-1.628t-1.887-4.329q0-2.923 2.331-4.44 2.368-1.554 6.845-1.554h3.441q-0.037-1.406-0.814-2.109-0.74-0.703-2.294-0.703-1.332 0-2.701 0.481-1.332 0.481-2.775 1.443l-2.701-4.107q2.035-1.48 4.181-2.183 2.183-0.703 4.625-0.703 4.218 0 6.475 2.183t2.257 6.253zm-6.253-7.4h-3.626q-1.443 0-2.146 0.444-0.703 0.407-0.703 1.295 0 0.777 0.629 1.221t1.776 0.444q1.739 0 2.812-0.888 1.11-0.888 1.258-2.516z"/><path d="m49.469-7.141v-6.105h-2.442v-5.624h2.442v-4.773h6.475v4.773h4.033v5.624h-4.033v5.328q0 1.221 0.481 1.776 0.481 0.518 1.628 0.518h1.924v5.624h-3.034q-4.033 0-5.772-1.665-1.702-1.665-1.702-5.476z"/><path d="m71.447 0.592q-4.773 0-7.548-2.701-2.775-2.738-2.775-7.289 0-4.292 2.997-7.178t7.4-2.886q3.145 0 5.365 1.369 2.257 1.369 3.256 3.885l-5.143 2.775q-0.629-1.332-1.48-1.961-0.814-0.629-1.998-0.629-1.739 0-2.812 1.258-1.036 1.221-1.036 3.293 0 2.146 1.11 3.404 1.11 1.221 2.96 1.221 1.184 0 2.072-0.592 0.925-0.629 1.628-1.924l4.995 2.701q-0.925 2.294-3.441 3.774-2.479 1.48-5.55 1.48z"/><path d="m81.955-25.9h6.475v8.399q0.999-0.888 2.294-1.332 1.295-0.481 2.812-0.481 3.663 0 5.624 2.146 1.961 2.109 1.961 6.068v11.1h-6.475v-10.36q0-1.628-0.777-2.516-0.777-0.925-2.183-0.925-1.48 0-2.368 0.999t-0.888 2.701v10.101h-6.475z"/><path d="m112.63-25.9h5.476l-2.59 10.027h-6.882zm8.029 0h5.476l-2.59 10.027h-6.882z"/><path d="m155.92-18.87-3.959 18.87h-7.474l-3.33-10.323-3.367 10.323h-7.363l-3.922-18.87h6.623l1.628 10.545 3.256-10.545h6.364l3.219 10.545 1.702-10.545z"/><path d="m177.53-9.472q0 4.329-2.997 7.215-2.96 2.849-7.548 2.849-4.514 0-7.474-2.812-2.923-2.849-2.923-7.178t2.96-7.178q2.997-2.886 7.585-2.886 4.514 0 7.437 2.849 2.96 2.812 2.96 7.141zm-14.393 0q0 2.035 1.073 3.33 1.11 1.295 2.849 1.295t2.812-1.258q1.11-1.258 1.11-3.293t-1.11-3.33q-1.073-1.295-2.812-1.295t-2.849 1.258q-1.073 1.258-1.073 3.293z"/><path d="m179.41-18.87h6.253v1.924q0.851-1.036 2.035-1.517 1.221-0.518 2.812-0.518h1.85v5.994h-2.405q-2.183 0-3.145 0.999-0.925 0.962-0.925 3.108v8.88h-6.475z"/><path d="m193.99-25.9h6.475v13.653l5.661-6.623h8.066v0.074l-8.473 9.176 8.584 9.546v0.074h-8.288l-5.55-6.808v6.808h-6.475z"/><path d="m224.18-4.477q1.147 0 2.368-0.481 1.221-0.518 2.22-1.406l3.071 3.7q-1.554 1.554-3.737 2.405-2.146 0.851-4.514 0.851-4.847 0-7.77-2.701-2.886-2.701-2.886-7.289 0-4.292 2.923-7.178t7.326-2.886q4.292 0 6.845 2.701 2.59 2.701 2.59 7.178 0 0.555-0.074 1.147-0.037 0.592-0.148 1.11h-12.765q0.481 1.406 1.628 2.146 1.184 0.703 2.923 0.703zm-1.11-9.99q-1.295 0-2.22 0.777t-1.295 2.22h6.734q-0.259-1.443-1.11-2.22t-2.109-0.777z"/><path d="m234.62-18.87h6.253v1.924q0.851-1.036 2.035-1.517 1.221-0.518 2.812-0.518h1.85v5.994h-2.405q-2.183 0-3.145 0.999-0.925 0.962-0.925 3.108v8.88h-6.475z"/><path d="m262.77-15.873h-5.476l2.59-10.027h6.882zm-8.029 0h-5.476l2.59-10.027h6.882z"/><path d="m274.43-18.87h6.253v1.924q0.851-1.036 2.035-1.517 1.221-0.518 2.812-0.518h1.85v5.994h-2.405q-2.183 0-3.145 0.999-0.925 0.962-0.925 3.108v8.88h-6.475z"/><path d="m299.33-4.477q1.147 0 2.368-0.481 1.221-0.518 2.22-1.406l3.071 3.7q-1.554 1.554-3.737 2.405-2.146 0.851-4.514 0.851-4.847 0-7.77-2.701-2.886-2.701-2.886-7.289 0-4.292 2.923-7.178t7.326-2.886q4.292 0 6.845 2.701 2.59 2.701 2.59 7.178 0 0.555-0.074 1.147-0.037 0.592-0.148 1.11h-12.765q0.481 1.406 1.628 2.146 1.184 0.703 2.923 0.703zm-1.11-9.99q-1.295 0-2.22 0.777t-1.295 2.22h6.734q-0.259-1.443-1.11-2.22t-2.109-0.777z"/><path d="m323.82-18.87h6.253v25.53h-6.475v-7.844q-1.073 0.814-2.405 1.221-1.295 0.407-2.775 0.407-3.959 0-6.586-2.738-2.627-2.775-2.627-7.067 0-4.329 2.664-7.141 2.701-2.812 6.697-2.812 1.554 0 2.849 0.481 1.332 0.444 2.405 1.369zm-4.107 13.875q1.739 0 2.886-1.258t1.147-3.182-1.147-3.182-2.886-1.258q-1.776 0-2.886 1.221-1.073 1.221-1.073 3.219t1.073 3.219q1.11 1.221 2.886 1.221z"/><path d="m351.54 0h-6.253v-1.591q-1.036 0.999-2.368 1.517t-2.96 0.518q-3.663 0-5.624-2.109-1.961-2.146-1.961-6.105v-11.1h6.475v10.36q0 1.628 0.777 2.553 0.777 0.888 2.183 0.888 1.48 0 2.368-0.999t0.888-2.701v-10.101h6.475z"/><path d="m364.67-4.477q1.147 0 2.368-0.481 1.221-0.518 2.22-1.406l3.071 3.7q-1.554 1.554-3.737 2.405-2.146 0.851-4.514 0.851-4.847 0-7.77-2.701-2.886-2.701-2.886-7.289 0-4.292 2.923-7.178t7.326-2.886q4.292 0 6.845 2.701 2.59 2.701 2.59 7.178 0 0.555-0.074 1.147-0.037 0.592-0.148 1.11h-12.765q0.481 1.406 1.628 2.146 1.184 0.703 2.923 0.703zm-1.11-9.99q-1.295 0-2.22 0.777t-1.295 2.22h6.734q-0.259-1.443-1.11-2.22t-2.109-0.777z"/><path d="m391.76-5.883q0 2.923-2.368 4.699-2.331 1.739-6.401 1.739-2.368 0-4.773-0.629-2.368-0.666-4.033-1.776l2.183-4.662q2.072 1.036 3.7 1.517 1.665 0.481 3.145 0.481 1.332 0 1.998-0.259t0.666-0.814-0.518-0.777q-0.518-0.259-1.887-0.37-4.662-0.37-6.66-1.776-1.961-1.406-1.961-4.477 0-2.923 2.22-4.625 2.257-1.739 6.179-1.739 2.109 0 4.329 0.592t3.626 1.48l-1.998 4.625q-1.702-0.814-3.293-1.221-1.554-0.407-2.849-0.407-1.147 0-1.739 0.259t-0.592 0.74q0 0.518 0.518 0.74 0.555 0.222 1.887 0.333 4.736 0.37 6.66 1.776 1.961 1.406 1.961 4.551z"/><path d="m394.9-7.141v-6.105h-2.442v-5.624h2.442v-4.773h6.475v4.773h4.033v5.624h-4.033v5.328q0 1.221 0.481 1.776 0.481 0.518 1.628 0.518h1.924v5.624h-3.034q-4.033 0-5.772-1.665-1.702-1.665-1.702-5.476z"/></g><g fill="#0071C5"><path d="m533.62 227.06 301.4 97.561-1.232 3.806-301.4-97.562zm300.73 93.14 9.57 9.404-13.267 2.012z"/><path d="m547.35 347.97 285.18 51.037-0.705 3.937-285.18-51.037zm283.92 46.747 10.757 8.02-12.871 3.792z"/><path d="m485.03 467.92 347.96 4.818-0.056 3.999-347.96-4.818zm346.01 0.79 11.918 6.166-12.084 5.833z"/><path transform="matrix(1.0002 0 0 -1 508 588.6)" d="m0.23536-1.9861 325.09 38.524-0.471 3.9722-325.09-38.524zm323.57 34.316 11.21 7.3705-12.623 4.5461z"/><path d="m1328 406.93h113.56v4h-113.56zm2 8-12-6 12-6zm109.56-12 12 6-12 6z"/></g><path d="m1440 316.49c0-28.465 23.12-51.541 51.64-51.541h226.53c28.52 0 51.64 23.076 51.64 51.541 13.02 90.874 14.15 92.471 0 187.86 0 28.465-23.12 51.541-51.64 51.541h-226.53c-28.52 0-51.64-23.076-51.64-51.541 13.02-94.829 13.59-96.426 0-187.86z" fill="none" fill-rule="evenodd" stroke="#0071C5" stroke-dasharray="16.0029 12.0022" stroke-miterlimit="8" stroke-width="4.0007"/></g></svg>
