<?xml version="1.0" encoding="UTF-8"?>
<svg width="1834" height="672" overflow="hidden" version="1.1" xmlns="http://www.w3.org/2000/svg"><defs><clipPath id="clip0"><rect width="1834" height="672"/></clipPath></defs><g clip-path="url(#clip0)"><path d="m0 0h1834v671.88h-1834z" fill="#fff"/><g fill="none" fill-rule="evenodd" stroke="#2B66AF" stroke-miterlimit="8" stroke-width="2.0004"><path d="m558 46.992v578.87"/><path d="m773 45.992v578.87"/><path d="m1349 46.992v578.87"/></g><g transform="matrix(1 0 0 .99982 64.642 104)" aria-label="APPOVBATCH DEVICEACTUAL DEVICE"><path d="m10.335-11.183-4.876 11.183h-4.77l16.483-37.1h4.452l16.43 37.1h-4.823l-4.929-11.183zm8.957-20.458-7.155 16.43h14.416z"/><path d="m42.241 0v-37.1h16.112q6.095 0 9.593 3.074 3.551 3.021 3.551 8.215 0 5.247-3.816 8.427-3.816 3.127-10.176 3.127h-10.706v14.257zm24.592-25.705q0-3.392-2.279-5.3-2.279-1.961-6.36-1.961h-11.395v14.628h11.024q4.134 0 6.572-1.961 2.438-2.014 2.438-5.406z"/><path d="m76.002 0v-37.1h16.112q6.095 0 9.593 3.074 3.551 3.021 3.551 8.215 0 5.247-3.816 8.427-3.816 3.127-10.176 3.127h-10.706v14.257zm24.592-25.705q0-3.392-2.279-5.3-2.279-1.961-6.36-1.961h-11.395v14.628h11.024q4.134 0 6.572-1.961 2.438-2.014 2.438-5.406z"/><path d="m513.54-19.497q0-8.215 5.459-13.833t13.462-5.618q8.056 0 13.409 5.565 5.406 5.512 5.406 13.78t-5.459 13.886q-5.406 5.565-13.409 5.565-8.056 0-13.462-5.512-5.406-5.565-5.406-13.833zm4.664-0.106q0 6.519 4.081 10.971 4.134 4.399 10.176 4.399t10.07-4.346q4.081-4.399 4.081-10.918t-4.081-10.918q-4.081-4.452-10.123-4.452-6.095 0-10.176 4.399-4.028 4.346-4.028 10.865z"/><path d="m568.07-1.0002-16.43-37.1h4.982l13.833 31.27 13.674-31.27h4.876l-16.43 37.1z"/><path d="m731.09 0v-37.1h16.059q6.201 0 9.593 2.544t3.392 7.208q0 2.968-1.537 5.141-1.537 2.12-4.611 3.286 3.445 0.901 5.141 3.127 1.749 2.173 1.749 5.618 0 4.558-3.551 7.367t-9.381 2.809zm24.486-27.136q0-2.915-2.173-4.399-2.173-1.537-6.36-1.537h-11.342v12.349h12.031q3.445 0 5.618-1.802 2.226-1.802 2.226-4.611zm0.742 16.907q0-2.968-2.014-4.717t-5.459-1.749h-13.144v12.667h12.561q3.657 0 5.83-1.696 2.226-1.696 2.226-4.505z"/><path d="m772.85-11.183-4.876 11.183h-4.77l16.483-37.1h4.452l16.43 37.1h-4.823l-4.929-11.183zm8.957-20.458-7.155 16.43h14.416z"/><path d="m811.33-32.966h-14.416v-4.134h33.337v4.134h-14.363v32.966h-4.558z"/><path d="m836.24-18.603q0 6.625 3.975 11.024 3.975 4.346 9.964 4.346 4.028 0 7.049-1.855 3.074-1.855 5.247-5.565l3.498 2.014q-2.385 4.558-6.519 7.049-4.081 2.438-9.381 2.438-8.056 0-13.303-5.459-5.194-5.459-5.194-13.886 0-8.268 5.406-13.833 5.459-5.618 13.568-5.618 5.141 0 9.063 2.438 3.975 2.385 6.201 6.837l-3.657 2.173q-2.067-3.763-4.929-5.565t-6.784-1.802q-6.095 0-10.176 4.346-4.028 4.346-4.028 10.918z"/><path d="m871.32 0v-37.1h4.558v16.324h23.214v-16.324h4.558v37.1h-4.558v-16.642h-23.214v16.642z"/><path d="m920.4 0v-37.1h13.939q8.692 0 13.992 5.141 5.353 5.141 5.353 13.356 0 8.162-5.406 13.409-5.406 5.194-14.045 5.194zm28.673-18.497q0-6.36-4.134-10.388-4.081-4.081-10.653-4.081h-9.328v28.832h9.328q6.572 0 10.653-4.028 4.134-4.028 4.134-10.335z"/><path d="m959.15 0v-37.1h26.924v4.028h-22.366v12.349h20.882v4.028h-20.882v12.667h22.366v4.028z"/><path d="m1005.8 0-16.43-37.1h4.982l13.833 31.27 13.674-31.27h4.876l-16.43 37.1z"/><path d="m1031.3 0v-37.1h4.558v37.1z"/><path d="m1046.3-18.603q0 6.625 3.975 11.024 3.975 4.346 9.964 4.346 4.028 0 7.049-1.855 3.074-1.855 5.247-5.565l3.498 2.014q-2.385 4.558-6.519 7.049-4.081 2.438-9.381 2.438-8.056 0-13.303-5.459-5.194-5.459-5.194-13.886 0-8.268 5.406-13.833 5.459-5.618 13.568-5.618 5.141 0 9.063 2.438 3.975 2.385 6.201 6.837l-3.657 2.173q-2.067-3.763-4.929-5.565t-6.784-1.802q-6.095 0-10.176 4.346-4.028 4.346-4.028 10.918z"/><path d="m1081.4 0v-37.1h26.924v4.028h-22.366v12.349h20.882v4.028h-20.882v12.667h22.366v4.028z"/><path d="m1316-12.183-4.876 11.183h-4.77l16.483-37.1h4.452l16.43 37.1h-4.823l-4.929-11.183zm8.957-20.458-7.155 16.43h14.416z"/><path d="m1348.7-19.603q0 6.625 3.975 11.024 3.975 4.346 9.964 4.346 4.028 0 7.049-1.855 3.074-1.855 5.247-5.565l3.498 2.014q-2.385 4.558-6.519 7.049-4.081 2.438-9.381 2.438-8.056 0-13.303-5.459-5.194-5.459-5.194-13.886 0-8.268 5.406-13.833 5.459-5.618 13.568-5.618 5.141 0 9.063 2.438 3.975 2.385 6.201 6.837l-3.657 2.173q-2.067-3.763-4.929-5.565t-6.784-1.802q-6.095 0-10.176 4.346-4.028 4.346-4.028 10.918z"/><path d="m1395.6-33.966h-14.416v-4.134h33.337v4.134h-14.363v32.966h-4.558z"/><path d="m1435.5-4.2332q5.512 0 8.904-3.71 3.445-3.763 3.445-9.752v-20.405h4.505v20.511q0 7.844-4.664 12.667-4.664 4.77-12.296 4.77t-12.243-4.77q-4.611-4.823-4.611-12.667v-20.511h4.558v20.405q0 5.989 3.445 9.752 3.445 3.71 8.957 3.71z"/><path d="m1463.4-12.183-4.876 11.183h-4.77l16.483-37.1h4.452l16.43 37.1h-4.823l-4.929-11.183zm8.957-20.458-7.155 16.43h14.416z"/><path d="m1495.3-1.0002v-37.1h4.558v33.019h21.412v4.081z"/><path d="m1535.1-1.0002v-37.1h13.939q8.692 0 13.992 5.141 5.353 5.141 5.353 13.356 0 8.162-5.406 13.409-5.406 5.194-14.045 5.194zm28.673-18.497q0-6.36-4.134-10.388-4.081-4.081-10.653-4.081h-9.328v28.832h9.328q6.572 0 10.653-4.028 4.134-4.028 4.134-10.335z"/><path d="m1573.8-1.0002v-37.1h26.924v4.028h-22.366v12.349h20.882v4.028h-20.882v12.667h22.366v4.028z"/><path d="m1620.5-1.0002-16.43-37.1h4.982l13.833 31.27 13.674-31.27h4.876l-16.43 37.1z"/><path d="m1646-1.0002v-37.1h4.558v37.1z"/><path d="m1660.9-19.603q0 6.625 3.975 11.024 3.975 4.346 9.964 4.346 4.028 0 7.049-1.855 3.074-1.855 5.247-5.565l3.498 2.014q-2.385 4.558-6.519 7.049-4.081 2.438-9.381 2.438-8.056 0-13.303-5.459-5.194-5.459-5.194-13.886 0-8.268 5.406-13.833 5.459-5.618 13.568-5.618 5.141 0 9.063 2.438 3.975 2.385 6.201 6.837l-3.657 2.173q-2.067-3.763-4.929-5.565t-6.784-1.802q-6.095 0-10.176 4.346-4.028 4.346-4.028 10.918z"/><path d="m1696-1.0002v-37.1h26.924v4.028h-22.366v12.349h20.882v4.028h-20.882v12.667h22.366v4.028z"/></g><path d="m100 204.13c0-6.718 5.447-12.165 12.167-12.165h408.67c6.72 0 12.167 5.447 12.167 12.165v48.657c0 6.718-5.447 12.165-12.167 12.165h-408.67c-6.72 0-12.167-5.447-12.167-12.165z" fill="#49A1EF" fill-rule="evenodd" stroke="#2B66AF" stroke-dasharray="16.0029 12.0022" stroke-miterlimit="8" stroke-width="4.0007"/><g transform="matrix(1 0 0 .99982 139.63 240)" fill="#fff" aria-label="Single batch infer request"><path d="m16.896-6.304q0-1.952-1.536-2.848-1.504-0.896-4.864-0.992-4.608-0.224-6.656-1.6-2.048-1.408-2.048-4.32 0-2.88 2.432-4.832 2.464-1.952 6.176-1.952 2.72 0 4.896 0.928t3.84 2.816l-1.728 1.824q-1.344-1.504-3.168-2.304t-3.84-0.8q-2.56 0-4.224 1.184t-1.664 2.912q0 1.824 1.472 2.656 1.504 0.8 4.832 0.896 4.576 0.192 6.688 1.696 2.112 1.472 2.112 4.512 0 3.008-2.528 4.992t-6.464 1.984q-3.2 0-5.536-1.024-2.304-1.024-4.096-3.264l1.696-1.824q1.632 1.888 3.552 2.784 1.92 0.864 4.384 0.864 2.752 0 4.512-1.216 1.76-1.248 1.76-3.072z"/><path d="m22.848-20.64h2.88v2.848h-2.88zm0.128 20.64v-15.456h2.624v15.456z"/><path d="m29.28-15.456h2.56v2.4q0.928-1.344 2.336-2.048 1.44-0.736 3.2-0.736 3.072 0 4.8 1.984t1.728 5.44v8.416h-2.592v-8.256q0-2.432-1.216-3.84-1.184-1.408-3.328-1.408-2.208 0-3.552 1.504t-1.344 3.904v8.096h-2.592z"/><path d="m59.744-1.824v-1.088q-1.056 1.28-2.56 1.984-1.472 0.704-3.168 0.704-3.264 0-5.44-2.176t-2.176-5.6q0-3.392 2.208-5.6 2.24-2.24 5.504-2.24 1.664 0 3.136 0.704t2.528 1.984v-2.304h2.592v13.536q0 3.84-2.048 5.76t-6.176 1.92h-3.904v-2.24h4.032q2.72 0 4.096-1.344t1.376-4zm-5.344-0.704q2.304 0 3.872-1.568 1.6-1.6 1.6-3.904 0-2.368-1.6-3.936-1.568-1.6-3.872-1.6-2.4 0-3.872 1.504t-1.472 4q0 2.464 1.472 4 1.504 1.504 3.872 1.504z"/><path d="m66.016-22.4h2.624v22.4h-2.624z"/><path d="m79.776-1.728q1.536 0 2.816-0.64 1.312-0.672 2.4-2.016l1.568 1.44q-1.312 1.728-3.072 2.592-1.76 0.832-3.936 0.832-3.488 0-5.728-2.272-2.208-2.304-2.208-5.888 0-3.488 2.272-5.824t5.6-2.336q3.392 0 5.504 2.208t2.112 5.76q0 0.256-0.032 0.608-0.032 0.32-0.064 0.48h-12.704q0.256 2.272 1.76 3.68 1.536 1.376 3.712 1.376zm-0.256-11.904q-2.016 0-3.456 1.312t-1.76 3.52h10.176q-0.288-2.24-1.632-3.52-1.344-1.312-3.328-1.312z"/><path d="m98.208 0h-2.56v-22.4h2.592v9.344q1.024-1.312 2.496-2.016 1.504-0.736 3.168-0.736 3.264 0 5.44 2.272 2.208 2.24 2.208 5.76 0 3.552-2.24 5.856-2.24 2.272-5.536 2.272-1.632 0-3.104-0.704-1.44-0.704-2.464-1.952zm5.44-13.504q-2.304 0-3.904 1.696-1.6 1.664-1.6 4.16 0 2.432 1.568 4.096 1.568 1.632 3.84 1.632 2.368 0 3.84-1.568 1.504-1.6 1.504-4.224 0-2.592-1.472-4.192-1.44-1.6-3.776-1.6z"/><path d="m127.52 0h-2.528v-2.528q-0.928 1.344-2.528 2.112-1.568 0.736-3.392 0.736-2.56 0-4.16-1.28-1.6-1.312-1.6-3.424 0-2.336 1.792-3.52 1.792-1.216 5.312-1.216h4.544q-0.032-2.176-1.152-3.36-1.088-1.184-3.136-1.184-1.216 0-2.4 0.512t-2.336 1.568l-1.376-1.728q1.344-1.28 2.944-1.92 1.6-0.672 3.424-0.672 3.104 0 4.832 1.856 1.76 1.824 1.76 5.056zm-2.56-7.104h-4.512q-2.336 0-3.456 0.64t-1.12 2.016q0 1.152 0.96 1.92 0.992 0.768 2.528 0.768 2.304 0 3.872-1.472 1.6-1.504 1.728-3.872z"/><path d="m131.42-4.128v-9.024h-2.112v-2.304h2.112v-4.736h2.592v4.736h3.584v2.304h-3.584v8.8q0 1.024 0.448 1.536 0.48 0.48 1.44 0.48h1.696v2.336h-2.08q-2.144 0-3.136-0.992-0.96-0.992-0.96-3.136z"/><path d="m147.26 0.48q-3.552 0-5.792-2.24-2.208-2.272-2.208-5.92 0-3.456 2.336-5.824t5.728-2.368q2.464 0 4.192 1.152 1.76 1.12 2.656 3.264l-2.208 1.056q-0.736-1.6-1.92-2.4-1.152-0.8-2.752-0.8-2.272 0-3.84 1.728-1.536 1.696-1.536 4.192 0 2.528 1.536 4.224 1.568 1.664 3.904 1.664 1.504 0 2.784-0.8 1.312-0.832 2.112-2.304l2.016 1.088q-0.928 1.984-2.784 3.136t-4.224 1.152z"/><path d="m156.86-22.4h2.592v9.28q0.928-1.312 2.304-2.016 1.408-0.704 3.136-0.704 3.104 0 4.832 1.984 1.76 1.984 1.76 5.44v8.416h-2.592v-8.256q0-2.464-1.216-3.84-1.216-1.408-3.392-1.408t-3.52 1.504q-1.312 1.504-1.312 3.904v8.096h-2.592z"/><path d="m180.77-20.64h2.88v2.848h-2.88zm0.128 20.64v-15.456h2.624v15.456z"/><path d="m187.2-15.456h2.56v2.4q0.928-1.344 2.336-2.048 1.44-0.736 3.2-0.736 3.072 0 4.8 1.984t1.728 5.44v8.416h-2.592v-8.256q0-2.432-1.216-3.84-1.184-1.408-3.328-1.408-2.208 0-3.552 1.504t-1.344 3.904v8.096h-2.592z"/><path d="m206.05-13.152h-2.112v-2.304h2.112v-2.912q0-1.952 1.024-2.976 1.056-1.056 3.008-1.056h2.112v2.176h-1.728q-0.896 0-1.344 0.48t-0.448 1.44v2.848h3.52v2.304h-3.52v13.152h-2.624z"/><path d="m221.38-1.728q1.536 0 2.816-0.64 1.312-0.672 2.4-2.016l1.568 1.44q-1.312 1.728-3.072 2.592-1.76 0.832-3.936 0.832-3.488 0-5.728-2.272-2.208-2.304-2.208-5.888 0-3.488 2.272-5.824t5.6-2.336q3.392 0 5.504 2.208t2.112 5.76q0 0.256-0.032 0.608-0.032 0.32-0.064 0.48h-12.704q0.256 2.272 1.76 3.68 1.536 1.376 3.712 1.376zm-0.256-11.904q-2.016 0-3.456 1.312t-1.76 3.52h10.176q-0.288-2.24-1.632-3.52-1.344-1.312-3.328-1.312z"/><path d="m231.33-15.456h2.56v1.952q0.704-1.024 1.824-1.536t2.656-0.512h1.408v2.464h-1.44q-2.208 0-3.328 1.152-1.088 1.152-1.088 3.488v8.448h-2.592z"/><path d="m247.81-15.456h2.56v1.952q0.704-1.024 1.824-1.536t2.656-0.512h1.408v2.464h-1.44q-2.208 0-3.328 1.152-1.088 1.152-1.088 3.488v8.448h-2.592z"/><path d="m265.41-1.728q1.536 0 2.816-0.64 1.312-0.672 2.4-2.016l1.568 1.44q-1.312 1.728-3.072 2.592-1.76 0.832-3.936 0.832-3.488 0-5.728-2.272-2.208-2.304-2.208-5.888 0-3.488 2.272-5.824t5.6-2.336q3.392 0 5.504 2.208t2.112 5.76q0 0.256-0.032 0.608-0.032 0.32-0.064 0.48h-12.704q0.256 2.272 1.76 3.68 1.536 1.376 3.712 1.376zm-0.256-11.904q-2.016 0-3.456 1.312t-1.76 3.52h10.176q-0.288-2.24-1.632-3.52-1.344-1.312-3.328-1.312z"/><path d="m288-15.456h2.592v21.216h-2.624v-8.128q-1.024 1.28-2.528 1.984-1.472 0.704-3.136 0.704-3.264 0-5.472-2.24-2.176-2.272-2.176-5.76 0-3.552 2.24-5.856 2.272-2.304 5.536-2.304 1.632 0 3.104 0.704t2.464 1.952zm-5.44 13.504q2.336 0 3.904-1.664 1.6-1.696 1.6-4.16 0-2.496-1.536-4.128t-3.84-1.632q-2.368 0-3.872 1.6t-1.504 4.192 1.472 4.192 3.776 1.6z"/><path d="m308.42 0h-2.592v-2.368q-0.928 1.344-2.336 2.048-1.408 0.672-3.2 0.672-3.04 0-4.8-1.984-1.728-1.984-1.728-5.408v-8.416h2.624v8.256q0 2.432 1.184 3.84 1.216 1.408 3.36 1.408 2.176 0 3.52-1.504t1.344-3.904v-8.096h2.624z"/><path d="m319.23-1.728q1.536 0 2.816-0.64 1.312-0.672 2.4-2.016l1.568 1.44q-1.312 1.728-3.072 2.592-1.76 0.832-3.936 0.832-3.488 0-5.728-2.272-2.208-2.304-2.208-5.888 0-3.488 2.272-5.824t5.6-2.336q3.392 0 5.504 2.208t2.112 5.76q0 0.256-0.032 0.608-0.032 0.32-0.064 0.48h-12.704q0.256 2.272 1.76 3.68 1.536 1.376 3.712 1.376zm-0.256-11.904q-2.016 0-3.456 1.312t-1.76 3.52h10.176q-0.288-2.24-1.632-3.52-1.344-1.312-3.328-1.312z"/><path d="m341.63-4.512q0 2.176-1.856 3.552t-4.832 1.376q-1.952 0-3.68-0.608-1.696-0.64-3.072-1.888l1.344-1.984q1.472 1.216 2.752 1.76t2.72 0.544q1.856 0 2.976-0.704 1.152-0.736 1.152-1.888 0-1.184-0.96-1.696-0.96-0.544-3.168-0.576-3.232-0.128-4.736-1.184-1.472-1.056-1.472-3.296 0-2.048 1.696-3.392 1.728-1.376 4.416-1.376 1.824 0 3.424 0.576t2.912 1.696l-1.248 1.952q-1.312-1.056-2.528-1.536t-2.592-0.48q-1.568 0-2.592 0.704-0.992 0.704-0.992 1.728 0 1.12 0.896 1.632t2.848 0.608q3.488 0.096 5.024 1.152 1.568 1.056 1.568 3.328z"/><path d="m344.96-4.128v-9.024h-2.112v-2.304h2.112v-4.736h2.592v4.736h3.584v2.304h-3.584v8.8q0 1.024 0.448 1.536 0.48 0.48 1.44 0.48h1.696v2.336h-2.08q-2.144 0-3.136-0.992-0.96-0.992-0.96-3.136z"/></g><path d="m115 325.11c0-6.719 5.447-12.165 12.167-12.165h407.67c6.72 0 12.167 5.446 12.167 12.165v48.657c0 6.719-5.447 12.165-12.167 12.165h-407.67c-6.72 0-12.167-5.446-12.167-12.165z" fill="#49A1EF" fill-rule="evenodd" stroke="#2B66AF" stroke-dasharray="16.0029 12.0022" stroke-miterlimit="8" stroke-width="4.0007"/><g transform="matrix(1 0 0 .99982 154.38 361)" fill="#fff" aria-label="Single batch infer request"><path d="m16.896-6.304q0-1.952-1.536-2.848-1.504-0.896-4.864-0.992-4.608-0.224-6.656-1.6-2.048-1.408-2.048-4.32 0-2.88 2.432-4.832 2.464-1.952 6.176-1.952 2.72 0 4.896 0.928t3.84 2.816l-1.728 1.824q-1.344-1.504-3.168-2.304t-3.84-0.8q-2.56 0-4.224 1.184t-1.664 2.912q0 1.824 1.472 2.656 1.504 0.8 4.832 0.896 4.576 0.192 6.688 1.696 2.112 1.472 2.112 4.512 0 3.008-2.528 4.992t-6.464 1.984q-3.2 0-5.536-1.024-2.304-1.024-4.096-3.264l1.696-1.824q1.632 1.888 3.552 2.784 1.92 0.864 4.384 0.864 2.752 0 4.512-1.216 1.76-1.248 1.76-3.072z"/><path d="m22.848-20.64h2.88v2.848h-2.88zm0.128 20.64v-15.456h2.624v15.456z"/><path d="m29.28-15.456h2.56v2.4q0.928-1.344 2.336-2.048 1.44-0.736 3.2-0.736 3.072 0 4.8 1.984t1.728 5.44v8.416h-2.592v-8.256q0-2.432-1.216-3.84-1.184-1.408-3.328-1.408-2.208 0-3.552 1.504t-1.344 3.904v8.096h-2.592z"/><path d="m59.744-1.824v-1.088q-1.056 1.28-2.56 1.984-1.472 0.704-3.168 0.704-3.264 0-5.44-2.176t-2.176-5.6q0-3.392 2.208-5.6 2.24-2.24 5.504-2.24 1.664 0 3.136 0.704t2.528 1.984v-2.304h2.592v13.536q0 3.84-2.048 5.76t-6.176 1.92h-3.904v-2.24h4.032q2.72 0 4.096-1.344t1.376-4zm-5.344-0.704q2.304 0 3.872-1.568 1.6-1.6 1.6-3.904 0-2.368-1.6-3.936-1.568-1.6-3.872-1.6-2.4 0-3.872 1.504t-1.472 4q0 2.464 1.472 4 1.504 1.504 3.872 1.504z"/><path d="m66.016-22.4h2.624v22.4h-2.624z"/><path d="m79.776-1.728q1.536 0 2.816-0.64 1.312-0.672 2.4-2.016l1.568 1.44q-1.312 1.728-3.072 2.592-1.76 0.832-3.936 0.832-3.488 0-5.728-2.272-2.208-2.304-2.208-5.888 0-3.488 2.272-5.824t5.6-2.336q3.392 0 5.504 2.208t2.112 5.76q0 0.256-0.032 0.608-0.032 0.32-0.064 0.48h-12.704q0.256 2.272 1.76 3.68 1.536 1.376 3.712 1.376zm-0.256-11.904q-2.016 0-3.456 1.312t-1.76 3.52h10.176q-0.288-2.24-1.632-3.52-1.344-1.312-3.328-1.312z"/><path d="m98.208 0h-2.56v-22.4h2.592v9.344q1.024-1.312 2.496-2.016 1.504-0.736 3.168-0.736 3.264 0 5.44 2.272 2.208 2.24 2.208 5.76 0 3.552-2.24 5.856-2.24 2.272-5.536 2.272-1.632 0-3.104-0.704-1.44-0.704-2.464-1.952zm5.44-13.504q-2.304 0-3.904 1.696-1.6 1.664-1.6 4.16 0 2.432 1.568 4.096 1.568 1.632 3.84 1.632 2.368 0 3.84-1.568 1.504-1.6 1.504-4.224 0-2.592-1.472-4.192-1.44-1.6-3.776-1.6z"/><path d="m127.52 0h-2.528v-2.528q-0.928 1.344-2.528 2.112-1.568 0.736-3.392 0.736-2.56 0-4.16-1.28-1.6-1.312-1.6-3.424 0-2.336 1.792-3.52 1.792-1.216 5.312-1.216h4.544q-0.032-2.176-1.152-3.36-1.088-1.184-3.136-1.184-1.216 0-2.4 0.512t-2.336 1.568l-1.376-1.728q1.344-1.28 2.944-1.92 1.6-0.672 3.424-0.672 3.104 0 4.832 1.856 1.76 1.824 1.76 5.056zm-2.56-7.104h-4.512q-2.336 0-3.456 0.64t-1.12 2.016q0 1.152 0.96 1.92 0.992 0.768 2.528 0.768 2.304 0 3.872-1.472 1.6-1.504 1.728-3.872z"/><path d="m131.42-4.128v-9.024h-2.112v-2.304h2.112v-4.736h2.592v4.736h3.584v2.304h-3.584v8.8q0 1.024 0.448 1.536 0.48 0.48 1.44 0.48h1.696v2.336h-2.08q-2.144 0-3.136-0.992-0.96-0.992-0.96-3.136z"/><path d="m147.26 0.48q-3.552 0-5.792-2.24-2.208-2.272-2.208-5.92 0-3.456 2.336-5.824t5.728-2.368q2.464 0 4.192 1.152 1.76 1.12 2.656 3.264l-2.208 1.056q-0.736-1.6-1.92-2.4-1.152-0.8-2.752-0.8-2.272 0-3.84 1.728-1.536 1.696-1.536 4.192 0 2.528 1.536 4.224 1.568 1.664 3.904 1.664 1.504 0 2.784-0.8 1.312-0.832 2.112-2.304l2.016 1.088q-0.928 1.984-2.784 3.136t-4.224 1.152z"/><path d="m156.86-22.4h2.592v9.28q0.928-1.312 2.304-2.016 1.408-0.704 3.136-0.704 3.104 0 4.832 1.984 1.76 1.984 1.76 5.44v8.416h-2.592v-8.256q0-2.464-1.216-3.84-1.216-1.408-3.392-1.408t-3.52 1.504q-1.312 1.504-1.312 3.904v8.096h-2.592z"/><path d="m180.77-20.64h2.88v2.848h-2.88zm0.128 20.64v-15.456h2.624v15.456z"/><path d="m187.2-15.456h2.56v2.4q0.928-1.344 2.336-2.048 1.44-0.736 3.2-0.736 3.072 0 4.8 1.984t1.728 5.44v8.416h-2.592v-8.256q0-2.432-1.216-3.84-1.184-1.408-3.328-1.408-2.208 0-3.552 1.504t-1.344 3.904v8.096h-2.592z"/><path d="m206.05-13.152h-2.112v-2.304h2.112v-2.912q0-1.952 1.024-2.976 1.056-1.056 3.008-1.056h2.112v2.176h-1.728q-0.896 0-1.344 0.48t-0.448 1.44v2.848h3.52v2.304h-3.52v13.152h-2.624z"/><path d="m221.38-1.728q1.536 0 2.816-0.64 1.312-0.672 2.4-2.016l1.568 1.44q-1.312 1.728-3.072 2.592-1.76 0.832-3.936 0.832-3.488 0-5.728-2.272-2.208-2.304-2.208-5.888 0-3.488 2.272-5.824t5.6-2.336q3.392 0 5.504 2.208t2.112 5.76q0 0.256-0.032 0.608-0.032 0.32-0.064 0.48h-12.704q0.256 2.272 1.76 3.68 1.536 1.376 3.712 1.376zm-0.256-11.904q-2.016 0-3.456 1.312t-1.76 3.52h10.176q-0.288-2.24-1.632-3.52-1.344-1.312-3.328-1.312z"/><path d="m231.33-15.456h2.56v1.952q0.704-1.024 1.824-1.536t2.656-0.512h1.408v2.464h-1.44q-2.208 0-3.328 1.152-1.088 1.152-1.088 3.488v8.448h-2.592z"/><path d="m247.81-15.456h2.56v1.952q0.704-1.024 1.824-1.536t2.656-0.512h1.408v2.464h-1.44q-2.208 0-3.328 1.152-1.088 1.152-1.088 3.488v8.448h-2.592z"/><path d="m265.41-1.728q1.536 0 2.816-0.64 1.312-0.672 2.4-2.016l1.568 1.44q-1.312 1.728-3.072 2.592-1.76 0.832-3.936 0.832-3.488 0-5.728-2.272-2.208-2.304-2.208-5.888 0-3.488 2.272-5.824t5.6-2.336q3.392 0 5.504 2.208t2.112 5.76q0 0.256-0.032 0.608-0.032 0.32-0.064 0.48h-12.704q0.256 2.272 1.76 3.68 1.536 1.376 3.712 1.376zm-0.256-11.904q-2.016 0-3.456 1.312t-1.76 3.52h10.176q-0.288-2.24-1.632-3.52-1.344-1.312-3.328-1.312z"/><path d="m288-15.456h2.592v21.216h-2.624v-8.128q-1.024 1.28-2.528 1.984-1.472 0.704-3.136 0.704-3.264 0-5.472-2.24-2.176-2.272-2.176-5.76 0-3.552 2.24-5.856 2.272-2.304 5.536-2.304 1.632 0 3.104 0.704t2.464 1.952zm-5.44 13.504q2.336 0 3.904-1.664 1.6-1.696 1.6-4.16 0-2.496-1.536-4.128t-3.84-1.632q-2.368 0-3.872 1.6t-1.504 4.192 1.472 4.192 3.776 1.6z"/><path d="m308.42 0h-2.592v-2.368q-0.928 1.344-2.336 2.048-1.408 0.672-3.2 0.672-3.04 0-4.8-1.984-1.728-1.984-1.728-5.408v-8.416h2.624v8.256q0 2.432 1.184 3.84 1.216 1.408 3.36 1.408 2.176 0 3.52-1.504t1.344-3.904v-8.096h2.624z"/><path d="m319.23-1.728q1.536 0 2.816-0.64 1.312-0.672 2.4-2.016l1.568 1.44q-1.312 1.728-3.072 2.592-1.76 0.832-3.936 0.832-3.488 0-5.728-2.272-2.208-2.304-2.208-5.888 0-3.488 2.272-5.824t5.6-2.336q3.392 0 5.504 2.208t2.112 5.76q0 0.256-0.032 0.608-0.032 0.32-0.064 0.48h-12.704q0.256 2.272 1.76 3.68 1.536 1.376 3.712 1.376zm-0.256-11.904q-2.016 0-3.456 1.312t-1.76 3.52h10.176q-0.288-2.24-1.632-3.52-1.344-1.312-3.328-1.312z"/><path d="m341.63-4.512q0 2.176-1.856 3.552t-4.832 1.376q-1.952 0-3.68-0.608-1.696-0.64-3.072-1.888l1.344-1.984q1.472 1.216 2.752 1.76t2.72 0.544q1.856 0 2.976-0.704 1.152-0.736 1.152-1.888 0-1.184-0.96-1.696-0.96-0.544-3.168-0.576-3.232-0.128-4.736-1.184-1.472-1.056-1.472-3.296 0-2.048 1.696-3.392 1.728-1.376 4.416-1.376 1.824 0 3.424 0.576t2.912 1.696l-1.248 1.952q-1.312-1.056-2.528-1.536t-2.592-0.48q-1.568 0-2.592 0.704-0.992 0.704-0.992 1.728 0 1.12 0.896 1.632t2.848 0.608q3.488 0.096 5.024 1.152 1.568 1.056 1.568 3.328z"/><path d="m344.96-4.128v-9.024h-2.112v-2.304h2.112v-4.736h2.592v4.736h3.584v2.304h-3.584v8.8q0 1.024 0.448 1.536 0.48 0.48 1.44 0.48h1.696v2.336h-2.08q-2.144 0-3.136-0.992-0.96-0.992-0.96-3.136z"/></g><path d="m52 446.09c0-6.718 5.4474-12.165 12.167-12.165h408.67c6.72 0 12.167 5.447 12.167 12.165v48.657c0 6.718-5.447 12.165-12.167 12.165h-408.67c-6.7196 0-12.167-5.447-12.167-12.165z" fill="#49A1EF" fill-rule="evenodd" stroke="#2B66AF" stroke-dasharray="16.0029 12.0022" stroke-miterlimit="8" stroke-width="4.0007"/><g transform="matrix(1 0 0 .99982 91.744 482)" fill="#fff" aria-label="Single batch infer request"><path d="m16.896-6.304q0-1.952-1.536-2.848-1.504-0.896-4.864-0.992-4.608-0.224-6.656-1.6-2.048-1.408-2.048-4.32 0-2.88 2.432-4.832 2.464-1.952 6.176-1.952 2.72 0 4.896 0.928t3.84 2.816l-1.728 1.824q-1.344-1.504-3.168-2.304t-3.84-0.8q-2.56 0-4.224 1.184t-1.664 2.912q0 1.824 1.472 2.656 1.504 0.8 4.832 0.896 4.576 0.192 6.688 1.696 2.112 1.472 2.112 4.512 0 3.008-2.528 4.992t-6.464 1.984q-3.2 0-5.536-1.024-2.304-1.024-4.096-3.264l1.696-1.824q1.632 1.888 3.552 2.784 1.92 0.864 4.384 0.864 2.752 0 4.512-1.216 1.76-1.248 1.76-3.072z"/><path d="m22.848-20.64h2.88v2.848h-2.88zm0.128 20.64v-15.456h2.624v15.456z"/><path d="m29.28-15.456h2.56v2.4q0.928-1.344 2.336-2.048 1.44-0.736 3.2-0.736 3.072 0 4.8 1.984t1.728 5.44v8.416h-2.592v-8.256q0-2.432-1.216-3.84-1.184-1.408-3.328-1.408-2.208 0-3.552 1.504t-1.344 3.904v8.096h-2.592z"/><path d="m59.744-1.824v-1.088q-1.056 1.28-2.56 1.984-1.472 0.704-3.168 0.704-3.264 0-5.44-2.176t-2.176-5.6q0-3.392 2.208-5.6 2.24-2.24 5.504-2.24 1.664 0 3.136 0.704t2.528 1.984v-2.304h2.592v13.536q0 3.84-2.048 5.76t-6.176 1.92h-3.904v-2.24h4.032q2.72 0 4.096-1.344t1.376-4zm-5.344-0.704q2.304 0 3.872-1.568 1.6-1.6 1.6-3.904 0-2.368-1.6-3.936-1.568-1.6-3.872-1.6-2.4 0-3.872 1.504t-1.472 4q0 2.464 1.472 4 1.504 1.504 3.872 1.504z"/><path d="m66.016-22.4h2.624v22.4h-2.624z"/><path d="m79.776-1.728q1.536 0 2.816-0.64 1.312-0.672 2.4-2.016l1.568 1.44q-1.312 1.728-3.072 2.592-1.76 0.832-3.936 0.832-3.488 0-5.728-2.272-2.208-2.304-2.208-5.888 0-3.488 2.272-5.824t5.6-2.336q3.392 0 5.504 2.208t2.112 5.76q0 0.256-0.032 0.608-0.032 0.32-0.064 0.48h-12.704q0.256 2.272 1.76 3.68 1.536 1.376 3.712 1.376zm-0.256-11.904q-2.016 0-3.456 1.312t-1.76 3.52h10.176q-0.288-2.24-1.632-3.52-1.344-1.312-3.328-1.312z"/><path d="m98.208 0h-2.56v-22.4h2.592v9.344q1.024-1.312 2.496-2.016 1.504-0.736 3.168-0.736 3.264 0 5.44 2.272 2.208 2.24 2.208 5.76 0 3.552-2.24 5.856-2.24 2.272-5.536 2.272-1.632 0-3.104-0.704-1.44-0.704-2.464-1.952zm5.44-13.504q-2.304 0-3.904 1.696-1.6 1.664-1.6 4.16 0 2.432 1.568 4.096 1.568 1.632 3.84 1.632 2.368 0 3.84-1.568 1.504-1.6 1.504-4.224 0-2.592-1.472-4.192-1.44-1.6-3.776-1.6z"/><path d="m127.52 0h-2.528v-2.528q-0.928 1.344-2.528 2.112-1.568 0.736-3.392 0.736-2.56 0-4.16-1.28-1.6-1.312-1.6-3.424 0-2.336 1.792-3.52 1.792-1.216 5.312-1.216h4.544q-0.032-2.176-1.152-3.36-1.088-1.184-3.136-1.184-1.216 0-2.4 0.512t-2.336 1.568l-1.376-1.728q1.344-1.28 2.944-1.92 1.6-0.672 3.424-0.672 3.104 0 4.832 1.856 1.76 1.824 1.76 5.056zm-2.56-7.104h-4.512q-2.336 0-3.456 0.64t-1.12 2.016q0 1.152 0.96 1.92 0.992 0.768 2.528 0.768 2.304 0 3.872-1.472 1.6-1.504 1.728-3.872z"/><path d="m131.42-4.128v-9.024h-2.112v-2.304h2.112v-4.736h2.592v4.736h3.584v2.304h-3.584v8.8q0 1.024 0.448 1.536 0.48 0.48 1.44 0.48h1.696v2.336h-2.08q-2.144 0-3.136-0.992-0.96-0.992-0.96-3.136z"/><path d="m147.26 0.48q-3.552 0-5.792-2.24-2.208-2.272-2.208-5.92 0-3.456 2.336-5.824t5.728-2.368q2.464 0 4.192 1.152 1.76 1.12 2.656 3.264l-2.208 1.056q-0.736-1.6-1.92-2.4-1.152-0.8-2.752-0.8-2.272 0-3.84 1.728-1.536 1.696-1.536 4.192 0 2.528 1.536 4.224 1.568 1.664 3.904 1.664 1.504 0 2.784-0.8 1.312-0.832 2.112-2.304l2.016 1.088q-0.928 1.984-2.784 3.136t-4.224 1.152z"/><path d="m156.86-22.4h2.592v9.28q0.928-1.312 2.304-2.016 1.408-0.704 3.136-0.704 3.104 0 4.832 1.984 1.76 1.984 1.76 5.44v8.416h-2.592v-8.256q0-2.464-1.216-3.84-1.216-1.408-3.392-1.408t-3.52 1.504q-1.312 1.504-1.312 3.904v8.096h-2.592z"/><path d="m180.77-20.64h2.88v2.848h-2.88zm0.128 20.64v-15.456h2.624v15.456z"/><path d="m187.2-15.456h2.56v2.4q0.928-1.344 2.336-2.048 1.44-0.736 3.2-0.736 3.072 0 4.8 1.984t1.728 5.44v8.416h-2.592v-8.256q0-2.432-1.216-3.84-1.184-1.408-3.328-1.408-2.208 0-3.552 1.504t-1.344 3.904v8.096h-2.592z"/><path d="m206.05-13.152h-2.112v-2.304h2.112v-2.912q0-1.952 1.024-2.976 1.056-1.056 3.008-1.056h2.112v2.176h-1.728q-0.896 0-1.344 0.48t-0.448 1.44v2.848h3.52v2.304h-3.52v13.152h-2.624z"/><path d="m221.38-1.728q1.536 0 2.816-0.64 1.312-0.672 2.4-2.016l1.568 1.44q-1.312 1.728-3.072 2.592-1.76 0.832-3.936 0.832-3.488 0-5.728-2.272-2.208-2.304-2.208-5.888 0-3.488 2.272-5.824t5.6-2.336q3.392 0 5.504 2.208t2.112 5.76q0 0.256-0.032 0.608-0.032 0.32-0.064 0.48h-12.704q0.256 2.272 1.76 3.68 1.536 1.376 3.712 1.376zm-0.256-11.904q-2.016 0-3.456 1.312t-1.76 3.52h10.176q-0.288-2.24-1.632-3.52-1.344-1.312-3.328-1.312z"/><path d="m231.33-15.456h2.56v1.952q0.704-1.024 1.824-1.536t2.656-0.512h1.408v2.464h-1.44q-2.208 0-3.328 1.152-1.088 1.152-1.088 3.488v8.448h-2.592z"/><path d="m247.81-15.456h2.56v1.952q0.704-1.024 1.824-1.536t2.656-0.512h1.408v2.464h-1.44q-2.208 0-3.328 1.152-1.088 1.152-1.088 3.488v8.448h-2.592z"/><path d="m265.41-1.728q1.536 0 2.816-0.64 1.312-0.672 2.4-2.016l1.568 1.44q-1.312 1.728-3.072 2.592-1.76 0.832-3.936 0.832-3.488 0-5.728-2.272-2.208-2.304-2.208-5.888 0-3.488 2.272-5.824t5.6-2.336q3.392 0 5.504 2.208t2.112 5.76q0 0.256-0.032 0.608-0.032 0.32-0.064 0.48h-12.704q0.256 2.272 1.76 3.68 1.536 1.376 3.712 1.376zm-0.256-11.904q-2.016 0-3.456 1.312t-1.76 3.52h10.176q-0.288-2.24-1.632-3.52-1.344-1.312-3.328-1.312z"/><path d="m288-15.456h2.592v21.216h-2.624v-8.128q-1.024 1.28-2.528 1.984-1.472 0.704-3.136 0.704-3.264 0-5.472-2.24-2.176-2.272-2.176-5.76 0-3.552 2.24-5.856 2.272-2.304 5.536-2.304 1.632 0 3.104 0.704t2.464 1.952zm-5.44 13.504q2.336 0 3.904-1.664 1.6-1.696 1.6-4.16 0-2.496-1.536-4.128t-3.84-1.632q-2.368 0-3.872 1.6t-1.504 4.192 1.472 4.192 3.776 1.6z"/><path d="m308.42 0h-2.592v-2.368q-0.928 1.344-2.336 2.048-1.408 0.672-3.2 0.672-3.04 0-4.8-1.984-1.728-1.984-1.728-5.408v-8.416h2.624v8.256q0 2.432 1.184 3.84 1.216 1.408 3.36 1.408 2.176 0 3.52-1.504t1.344-3.904v-8.096h2.624z"/><path d="m319.23-1.728q1.536 0 2.816-0.64 1.312-0.672 2.4-2.016l1.568 1.44q-1.312 1.728-3.072 2.592-1.76 0.832-3.936 0.832-3.488 0-5.728-2.272-2.208-2.304-2.208-5.888 0-3.488 2.272-5.824t5.6-2.336q3.392 0 5.504 2.208t2.112 5.76q0 0.256-0.032 0.608-0.032 0.32-0.064 0.48h-12.704q0.256 2.272 1.76 3.68 1.536 1.376 3.712 1.376zm-0.256-11.904q-2.016 0-3.456 1.312t-1.76 3.52h10.176q-0.288-2.24-1.632-3.52-1.344-1.312-3.328-1.312z"/><path d="m341.63-4.512q0 2.176-1.856 3.552t-4.832 1.376q-1.952 0-3.68-0.608-1.696-0.64-3.072-1.888l1.344-1.984q1.472 1.216 2.752 1.76t2.72 0.544q1.856 0 2.976-0.704 1.152-0.736 1.152-1.888 0-1.184-0.96-1.696-0.96-0.544-3.168-0.576-3.232-0.128-4.736-1.184-1.472-1.056-1.472-3.296 0-2.048 1.696-3.392 1.728-1.376 4.416-1.376 1.824 0 3.424 0.576t2.912 1.696l-1.248 1.952q-1.312-1.056-2.528-1.536t-2.592-0.48q-1.568 0-2.592 0.704-0.992 0.704-0.992 1.728 0 1.12 0.896 1.632t2.848 0.608q3.488 0.096 5.024 1.152 1.568 1.056 1.568 3.328z"/><path d="m344.96-4.128v-9.024h-2.112v-2.304h2.112v-4.736h2.592v4.736h3.584v2.304h-3.584v8.8q0 1.024 0.448 1.536 0.48 0.48 1.44 0.48h1.696v2.336h-2.08q-2.144 0-3.136-0.992-0.96-0.992-0.96-3.136z"/></g><path d="m76 564.06c0-6.718 5.4472-12.164 12.167-12.164h407.67c6.72 0 12.167 5.446 12.167 12.164v48.658c0 6.718-5.447 12.164-12.167 12.164h-407.67c-6.7195 0-12.167-5.446-12.167-12.164z" fill="#49A1EF" fill-rule="evenodd" stroke="#2B66AF" stroke-dasharray="16.0029 12.0022" stroke-miterlimit="8" stroke-width="4.0007"/><g transform="matrix(1 0 0 .99982 114.91 600)" fill="#fff" aria-label="Single batch infer request"><path d="m16.896-6.304q0-1.952-1.536-2.848-1.504-0.896-4.864-0.992-4.608-0.224-6.656-1.6-2.048-1.408-2.048-4.32 0-2.88 2.432-4.832 2.464-1.952 6.176-1.952 2.72 0 4.896 0.928t3.84 2.816l-1.728 1.824q-1.344-1.504-3.168-2.304t-3.84-0.8q-2.56 0-4.224 1.184t-1.664 2.912q0 1.824 1.472 2.656 1.504 0.8 4.832 0.896 4.576 0.192 6.688 1.696 2.112 1.472 2.112 4.512 0 3.008-2.528 4.992t-6.464 1.984q-3.2 0-5.536-1.024-2.304-1.024-4.096-3.264l1.696-1.824q1.632 1.888 3.552 2.784 1.92 0.864 4.384 0.864 2.752 0 4.512-1.216 1.76-1.248 1.76-3.072z"/><path d="m22.848-20.64h2.88v2.848h-2.88zm0.128 20.64v-15.456h2.624v15.456z"/><path d="m29.28-15.456h2.56v2.4q0.928-1.344 2.336-2.048 1.44-0.736 3.2-0.736 3.072 0 4.8 1.984t1.728 5.44v8.416h-2.592v-8.256q0-2.432-1.216-3.84-1.184-1.408-3.328-1.408-2.208 0-3.552 1.504t-1.344 3.904v8.096h-2.592z"/><path d="m59.744-1.824v-1.088q-1.056 1.28-2.56 1.984-1.472 0.704-3.168 0.704-3.264 0-5.44-2.176t-2.176-5.6q0-3.392 2.208-5.6 2.24-2.24 5.504-2.24 1.664 0 3.136 0.704t2.528 1.984v-2.304h2.592v13.536q0 3.84-2.048 5.76t-6.176 1.92h-3.904v-2.24h4.032q2.72 0 4.096-1.344t1.376-4zm-5.344-0.704q2.304 0 3.872-1.568 1.6-1.6 1.6-3.904 0-2.368-1.6-3.936-1.568-1.6-3.872-1.6-2.4 0-3.872 1.504t-1.472 4q0 2.464 1.472 4 1.504 1.504 3.872 1.504z"/><path d="m66.016-22.4h2.624v22.4h-2.624z"/><path d="m79.776-1.728q1.536 0 2.816-0.64 1.312-0.672 2.4-2.016l1.568 1.44q-1.312 1.728-3.072 2.592-1.76 0.832-3.936 0.832-3.488 0-5.728-2.272-2.208-2.304-2.208-5.888 0-3.488 2.272-5.824t5.6-2.336q3.392 0 5.504 2.208t2.112 5.76q0 0.256-0.032 0.608-0.032 0.32-0.064 0.48h-12.704q0.256 2.272 1.76 3.68 1.536 1.376 3.712 1.376zm-0.256-11.904q-2.016 0-3.456 1.312t-1.76 3.52h10.176q-0.288-2.24-1.632-3.52-1.344-1.312-3.328-1.312z"/><path d="m98.208 0h-2.56v-22.4h2.592v9.344q1.024-1.312 2.496-2.016 1.504-0.736 3.168-0.736 3.264 0 5.44 2.272 2.208 2.24 2.208 5.76 0 3.552-2.24 5.856-2.24 2.272-5.536 2.272-1.632 0-3.104-0.704-1.44-0.704-2.464-1.952zm5.44-13.504q-2.304 0-3.904 1.696-1.6 1.664-1.6 4.16 0 2.432 1.568 4.096 1.568 1.632 3.84 1.632 2.368 0 3.84-1.568 1.504-1.6 1.504-4.224 0-2.592-1.472-4.192-1.44-1.6-3.776-1.6z"/><path d="m127.52 0h-2.528v-2.528q-0.928 1.344-2.528 2.112-1.568 0.736-3.392 0.736-2.56 0-4.16-1.28-1.6-1.312-1.6-3.424 0-2.336 1.792-3.52 1.792-1.216 5.312-1.216h4.544q-0.032-2.176-1.152-3.36-1.088-1.184-3.136-1.184-1.216 0-2.4 0.512t-2.336 1.568l-1.376-1.728q1.344-1.28 2.944-1.92 1.6-0.672 3.424-0.672 3.104 0 4.832 1.856 1.76 1.824 1.76 5.056zm-2.56-7.104h-4.512q-2.336 0-3.456 0.64t-1.12 2.016q0 1.152 0.96 1.92 0.992 0.768 2.528 0.768 2.304 0 3.872-1.472 1.6-1.504 1.728-3.872z"/><path d="m131.42-4.128v-9.024h-2.112v-2.304h2.112v-4.736h2.592v4.736h3.584v2.304h-3.584v8.8q0 1.024 0.448 1.536 0.48 0.48 1.44 0.48h1.696v2.336h-2.08q-2.144 0-3.136-0.992-0.96-0.992-0.96-3.136z"/><path d="m147.26 0.48q-3.552 0-5.792-2.24-2.208-2.272-2.208-5.92 0-3.456 2.336-5.824t5.728-2.368q2.464 0 4.192 1.152 1.76 1.12 2.656 3.264l-2.208 1.056q-0.736-1.6-1.92-2.4-1.152-0.8-2.752-0.8-2.272 0-3.84 1.728-1.536 1.696-1.536 4.192 0 2.528 1.536 4.224 1.568 1.664 3.904 1.664 1.504 0 2.784-0.8 1.312-0.832 2.112-2.304l2.016 1.088q-0.928 1.984-2.784 3.136t-4.224 1.152z"/><path d="m156.86-22.4h2.592v9.28q0.928-1.312 2.304-2.016 1.408-0.704 3.136-0.704 3.104 0 4.832 1.984 1.76 1.984 1.76 5.44v8.416h-2.592v-8.256q0-2.464-1.216-3.84-1.216-1.408-3.392-1.408t-3.52 1.504q-1.312 1.504-1.312 3.904v8.096h-2.592z"/><path d="m180.77-20.64h2.88v2.848h-2.88zm0.128 20.64v-15.456h2.624v15.456z"/><path d="m187.2-15.456h2.56v2.4q0.928-1.344 2.336-2.048 1.44-0.736 3.2-0.736 3.072 0 4.8 1.984t1.728 5.44v8.416h-2.592v-8.256q0-2.432-1.216-3.84-1.184-1.408-3.328-1.408-2.208 0-3.552 1.504t-1.344 3.904v8.096h-2.592z"/><path d="m206.05-13.152h-2.112v-2.304h2.112v-2.912q0-1.952 1.024-2.976 1.056-1.056 3.008-1.056h2.112v2.176h-1.728q-0.896 0-1.344 0.48t-0.448 1.44v2.848h3.52v2.304h-3.52v13.152h-2.624z"/><path d="m221.38-1.728q1.536 0 2.816-0.64 1.312-0.672 2.4-2.016l1.568 1.44q-1.312 1.728-3.072 2.592-1.76 0.832-3.936 0.832-3.488 0-5.728-2.272-2.208-2.304-2.208-5.888 0-3.488 2.272-5.824t5.6-2.336q3.392 0 5.504 2.208t2.112 5.76q0 0.256-0.032 0.608-0.032 0.32-0.064 0.48h-12.704q0.256 2.272 1.76 3.68 1.536 1.376 3.712 1.376zm-0.256-11.904q-2.016 0-3.456 1.312t-1.76 3.52h10.176q-0.288-2.24-1.632-3.52-1.344-1.312-3.328-1.312z"/><path d="m231.33-15.456h2.56v1.952q0.704-1.024 1.824-1.536t2.656-0.512h1.408v2.464h-1.44q-2.208 0-3.328 1.152-1.088 1.152-1.088 3.488v8.448h-2.592z"/><path d="m247.81-15.456h2.56v1.952q0.704-1.024 1.824-1.536t2.656-0.512h1.408v2.464h-1.44q-2.208 0-3.328 1.152-1.088 1.152-1.088 3.488v8.448h-2.592z"/><path d="m265.41-1.728q1.536 0 2.816-0.64 1.312-0.672 2.4-2.016l1.568 1.44q-1.312 1.728-3.072 2.592-1.76 0.832-3.936 0.832-3.488 0-5.728-2.272-2.208-2.304-2.208-5.888 0-3.488 2.272-5.824t5.6-2.336q3.392 0 5.504 2.208t2.112 5.76q0 0.256-0.032 0.608-0.032 0.32-0.064 0.48h-12.704q0.256 2.272 1.76 3.68 1.536 1.376 3.712 1.376zm-0.256-11.904q-2.016 0-3.456 1.312t-1.76 3.52h10.176q-0.288-2.24-1.632-3.52-1.344-1.312-3.328-1.312z"/><path d="m288-15.456h2.592v21.216h-2.624v-8.128q-1.024 1.28-2.528 1.984-1.472 0.704-3.136 0.704-3.264 0-5.472-2.24-2.176-2.272-2.176-5.76 0-3.552 2.24-5.856 2.272-2.304 5.536-2.304 1.632 0 3.104 0.704t2.464 1.952zm-5.44 13.504q2.336 0 3.904-1.664 1.6-1.696 1.6-4.16 0-2.496-1.536-4.128t-3.84-1.632q-2.368 0-3.872 1.6t-1.504 4.192 1.472 4.192 3.776 1.6z"/><path d="m308.42 0h-2.592v-2.368q-0.928 1.344-2.336 2.048-1.408 0.672-3.2 0.672-3.04 0-4.8-1.984-1.728-1.984-1.728-5.408v-8.416h2.624v8.256q0 2.432 1.184 3.84 1.216 1.408 3.36 1.408 2.176 0 3.52-1.504t1.344-3.904v-8.096h2.624z"/><path d="m319.23-1.728q1.536 0 2.816-0.64 1.312-0.672 2.4-2.016l1.568 1.44q-1.312 1.728-3.072 2.592-1.76 0.832-3.936 0.832-3.488 0-5.728-2.272-2.208-2.304-2.208-5.888 0-3.488 2.272-5.824t5.6-2.336q3.392 0 5.504 2.208t2.112 5.76q0 0.256-0.032 0.608-0.032 0.32-0.064 0.48h-12.704q0.256 2.272 1.76 3.68 1.536 1.376 3.712 1.376zm-0.256-11.904q-2.016 0-3.456 1.312t-1.76 3.52h10.176q-0.288-2.24-1.632-3.52-1.344-1.312-3.328-1.312z"/><path d="m341.63-4.512q0 2.176-1.856 3.552t-4.832 1.376q-1.952 0-3.68-0.608-1.696-0.64-3.072-1.888l1.344-1.984q1.472 1.216 2.752 1.76t2.72 0.544q1.856 0 2.976-0.704 1.152-0.736 1.152-1.888 0-1.184-0.96-1.696-0.96-0.544-3.168-0.576-3.232-0.128-4.736-1.184-1.472-1.056-1.472-3.296 0-2.048 1.696-3.392 1.728-1.376 4.416-1.376 1.824 0 3.424 0.576t2.912 1.696l-1.248 1.952q-1.312-1.056-2.528-1.536t-2.592-0.48q-1.568 0-2.592 0.704-0.992 0.704-0.992 1.728 0 1.12 0.896 1.632t2.848 0.608q3.488 0.096 5.024 1.152 1.568 1.056 1.568 3.328z"/><path d="m344.96-4.128v-9.024h-2.112v-2.304h2.112v-4.736h2.592v4.736h3.584v2.304h-3.584v8.8q0 1.024 0.448 1.536 0.48 0.48 1.44 0.48h1.696v2.336h-2.08q-2.144 0-3.136-0.992-0.96-0.992-0.96-3.136z"/></g><g fill="#49A1EF" fill-rule="evenodd" stroke="#2B66AF" stroke-miterlimit="8" stroke-width="4.0007"><path d="m843 305.11c0-6.719 5.447-12.165 12.167-12.165h408.66c6.72 0 12.17 5.446 12.17 12.165v48.657c0 6.718-5.45 12.164-12.17 12.164h-408.66c-6.72 0-12.167-5.446-12.167-12.164z"/><path d="m842 378.1c0-6.718 5.447-12.165 12.167-12.165h407.66c6.72 0 12.17 5.447 12.17 12.165v48.658c0 6.718-5.45 12.164-12.17 12.164h-407.66c-6.72 0-12.167-5.446-12.167-12.164z"/><path d="m843 451.08c0-6.719 5.447-12.165 12.167-12.165h407.66c6.72 0 12.17 5.446 12.17 12.165v48.657c0 6.719-5.45 12.165-12.17 12.165h-407.66c-6.72 0-12.167-5.446-12.167-12.165z"/><path d="m843 524.07c0-6.719 5.447-12.165 12.167-12.165h407.66c6.72 0 12.17 5.446 12.17 12.165v48.657c0 6.718-5.45 12.165-12.17 12.165h-407.66c-6.72 0-12.167-5.447-12.167-12.165z"/></g><path d="m803 264.29c0-39.942 32.385-72.322 72.335-72.322h370.34c39.94 0 72.33 32.38 72.33 72.322v289.28c0 39.943-32.39 72.322-72.33 72.322h-370.34c-39.95 0-72.335-32.379-72.335-72.322z" fill="none" fill-rule="evenodd" stroke="#2B66AF" stroke-miterlimit="8" stroke-width="4.0007"/><g transform="matrix(1 0 0 .99982 874.61 262)" fill="#2b66af" aria-label="Batch “worker” request"><path d="m2.405 0v-25.9h11.211q4.329 0 6.697 1.776t2.368 5.032q0 2.072-1.073 3.589-1.073 1.48-3.219 2.294 2.405 0.629 3.589 2.183 1.221 1.517 1.221 3.922 0 3.182-2.479 5.143t-6.549 1.961zm17.094-18.944q0-2.035-1.517-3.071-1.517-1.073-4.44-1.073h-7.918v8.621h8.399q2.405 0 3.922-1.258 1.554-1.258 1.554-3.219zm0.518 11.803q0-2.072-1.406-3.293t-3.811-1.221h-9.176v8.843h8.769q2.553 0 4.07-1.184 1.554-1.184 1.554-3.145z"/><path d="m42.217 0h-2.923v-2.923q-1.073 1.554-2.923 2.442-1.813 0.851-3.922 0.851-2.96 0-4.81-1.48-1.85-1.517-1.85-3.959 0-2.701 2.072-4.07 2.072-1.406 6.142-1.406h5.254q-0.037-2.516-1.332-3.885-1.258-1.369-3.626-1.369-1.406 0-2.775 0.592t-2.701 1.813l-1.591-1.998q1.554-1.48 3.404-2.22 1.85-0.777 3.959-0.777 3.589 0 5.587 2.146 2.035 2.109 2.035 5.846zm-2.96-8.214h-5.217q-2.701 0-3.996 0.74t-1.295 2.331q0 1.332 1.11 2.22 1.147 0.888 2.923 0.888 2.664 0 4.477-1.702 1.85-1.739 1.998-4.477z"/><path d="m46.731-4.773v-10.434h-2.442v-2.664h2.442v-5.476h2.997v5.476h4.144v2.664h-4.144v10.175q0 1.184 0.518 1.776 0.555 0.555 1.665 0.555h1.961v2.701h-2.405q-2.479 0-3.626-1.147-1.11-1.147-1.11-3.626z"/><path d="m65.046 0.555q-4.107 0-6.697-2.59-2.553-2.627-2.553-6.845 0-3.996 2.701-6.734t6.623-2.738q2.849 0 4.847 1.332 2.035 1.295 3.071 3.774l-2.553 1.221q-0.851-1.85-2.22-2.775-1.332-0.925-3.182-0.925-2.627 0-4.44 1.998-1.776 1.961-1.776 4.847 0 2.923 1.776 4.884 1.813 1.924 4.514 1.924 1.739 0 3.219-0.925 1.517-0.962 2.442-2.664l2.331 1.258q-1.073 2.294-3.219 3.626t-4.884 1.332z"/><path d="m76.146-25.9h2.997v10.73q1.073-1.517 2.664-2.331 1.628-0.814 3.626-0.814 3.589 0 5.587 2.294 2.035 2.294 2.035 6.29v9.731h-2.997v-9.546q0-2.849-1.406-4.44-1.406-1.628-3.922-1.628t-4.07 1.739q-1.517 1.739-1.517 4.514v9.361h-2.997z"/><path d="m106-25.9h2.294l-2.331 7.696h-3.589zm5.291 0h2.257l-2.331 7.696h-3.552z"/><path d="m139.3-17.871-4.514 17.871h-2.923l-4.995-13.727-4.958 13.727h-2.886l-4.514-17.871h3.034l3.182 13.653 4.847-13.653h2.664l4.81 13.653 3.219-13.653z"/><path d="m159.25-8.917q0 4.033-2.701 6.771-2.701 2.701-6.66 2.701t-6.623-2.701q-2.627-2.701-2.627-6.734t2.701-6.734q2.701-2.738 6.66-2.738t6.586 2.701q2.664 2.701 2.664 6.734zm-15.54 0.037q0 2.886 1.776 4.847 1.813 1.961 4.477 1.961 2.627 0 4.403-1.961 1.813-1.961 1.813-4.884 0-2.849-1.813-4.81-1.813-1.998-4.44-1.998t-4.44 1.961q-1.776 1.961-1.776 4.884z"/><path d="m162.36-17.871h2.96v2.257q0.814-1.184 2.109-1.776t3.071-0.592h1.628v2.849h-1.665q-2.553 0-3.848 1.332-1.258 1.332-1.258 4.033v9.768h-2.997z"/><path d="m174.57-25.9h2.997v15.614l8.362-7.585h3.996v0.074l-9.583 8.436 9.62 9.287v0.074h-3.996l-8.399-8.288v8.288h-2.997z"/><path d="m199.43-1.998q1.776 0 3.256-0.74 1.517-0.777 2.775-2.331l1.813 1.665q-1.517 1.998-3.552 2.997-2.035 0.962-4.551 0.962-4.033 0-6.623-2.627-2.553-2.664-2.553-6.808 0-4.033 2.627-6.734t6.475-2.701q3.922 0 6.364 2.553t2.442 6.66q0 0.296-0.037 0.703-0.037 0.37-0.074 0.555h-14.689q0.296 2.627 2.035 4.255 1.776 1.591 4.292 1.591zm-0.296-13.764q-2.331 0-3.996 1.517t-2.035 4.07h11.766q-0.333-2.59-1.887-4.07-1.554-1.517-3.848-1.517z"/><path d="m210.94-17.871h2.96v2.257q0.814-1.184 2.109-1.776t3.071-0.592h1.628v2.849h-1.665q-2.553 0-3.848 1.332-1.258 1.332-1.258 4.033v9.768h-2.997z"/><path d="m230.58-18.204h-2.294l2.331-7.696h3.589zm-5.254 0h-2.294l2.331-7.696h3.552z"/><path d="m243.76-17.871h2.96v2.257q0.814-1.184 2.109-1.776t3.071-0.592h1.628v2.849h-1.665q-2.553 0-3.848 1.332-1.258 1.332-1.258 4.033v9.768h-2.997z"/><path d="m264.11-1.998q1.776 0 3.256-0.74 1.517-0.777 2.775-2.331l1.813 1.665q-1.517 1.998-3.552 2.997-2.035 0.962-4.551 0.962-4.033 0-6.623-2.627-2.553-2.664-2.553-6.808 0-4.033 2.627-6.734t6.475-2.701q3.922 0 6.364 2.553t2.442 6.66q0 0.296-0.037 0.703-0.037 0.37-0.074 0.555h-14.689q0.296 2.627 2.035 4.255 1.776 1.591 4.292 1.591zm-0.296-13.764q-2.331 0-3.996 1.517t-2.035 4.07h11.766q-0.333-2.59-1.887-4.07-1.554-1.517-3.848-1.517z"/><path d="m290.23-17.871h2.997v24.531h-3.034v-9.398q-1.184 1.48-2.923 2.294-1.702 0.814-3.626 0.814-3.774 0-6.327-2.59-2.516-2.627-2.516-6.66 0-4.107 2.59-6.771 2.627-2.664 6.401-2.664 1.887 0 3.589 0.814t2.849 2.257zm-6.29 15.614q2.701 0 4.514-1.924 1.85-1.961 1.85-4.81 0-2.886-1.776-4.773t-4.44-1.887q-2.738 0-4.477 1.85t-1.739 4.847 1.702 4.847 4.366 1.85z"/><path d="m313.83 0h-2.997v-2.738q-1.073 1.554-2.701 2.368-1.628 0.777-3.7 0.777-3.515 0-5.55-2.294-1.998-2.294-1.998-6.253v-9.731h3.034v9.546q0 2.812 1.369 4.44 1.406 1.628 3.885 1.628 2.516 0 4.07-1.739t1.554-4.514v-9.361h3.034z"/><path d="m326.34-1.998q1.776 0 3.256-0.74 1.517-0.777 2.775-2.331l1.813 1.665q-1.517 1.998-3.552 2.997-2.035 0.962-4.551 0.962-4.033 0-6.623-2.627-2.553-2.664-2.553-6.808 0-4.033 2.627-6.734t6.475-2.701q3.922 0 6.364 2.553t2.442 6.66q0 0.296-0.037 0.703-0.037 0.37-0.074 0.555h-14.689q0.296 2.627 2.035 4.255 1.776 1.591 4.292 1.591zm-0.296-13.764q-2.331 0-3.996 1.517t-2.035 4.07h11.766q-0.333-2.59-1.887-4.07-1.554-1.517-3.848-1.517z"/><path d="m352.24-5.217q0 2.516-2.146 4.107t-5.587 1.591q-2.257 0-4.255-0.703-1.961-0.74-3.552-2.183l1.554-2.294q1.702 1.406 3.182 2.035t3.145 0.629q2.146 0 3.441-0.814 1.332-0.851 1.332-2.183 0-1.369-1.11-1.961-1.11-0.629-3.663-0.666-3.737-0.148-5.476-1.369-1.702-1.221-1.702-3.811 0-2.368 1.961-3.922 1.998-1.591 5.106-1.591 2.109 0 3.959 0.666t3.367 1.961l-1.443 2.257q-1.517-1.221-2.923-1.776t-2.997-0.555q-1.813 0-2.997 0.814-1.147 0.814-1.147 1.998 0 1.295 1.036 1.887t3.293 0.703q4.033 0.111 5.809 1.332 1.813 1.221 1.813 3.848z"/><path d="m356.09-4.773v-10.434h-2.442v-2.664h2.442v-5.476h2.997v5.476h4.144v2.664h-4.144v10.175q0 1.184 0.518 1.776 0.555 0.555 1.665 0.555h1.961v2.701h-2.405q-2.479 0-3.626-1.147-1.11-1.147-1.11-3.626z"/></g><g fill="#2B66AF"><path d="m533.62 227.06 301.4 97.561-1.232 3.806-301.4-97.562zm300.73 93.14 9.57 9.404-13.267 2.012z"/><path d="m547.35 347.97 285.18 51.037-0.705 3.937-285.18-51.037zm283.92 46.747 10.757 8.02-12.871 3.792z"/><path d="m485.03 467.92 347.96 4.818-0.056 3.999-347.96-4.818zm346.01 0.79 11.918 6.166-12.084 5.833z"/><path transform="matrix(1.0002 0 0 -1 508 588.6)" d="m0.23536-1.9861 325.09 38.524-0.471 3.9722-325.09-38.524zm323.57 34.316 11.21 7.3705-12.623 4.5461z"/><path d="m1328 406.93h113.56v4h-113.56zm2 8-12-6 12-6zm109.56-12 12 6-12 6z"/></g><path d="m1440 316.49c0-28.465 23.12-51.541 51.64-51.541h226.53c28.52 0 51.64 23.076 51.64 51.541 13.02 90.874 14.15 92.471 0 187.86 0 28.465-23.12 51.541-51.64 51.541h-226.53c-28.52 0-51.64-23.076-51.64-51.541 13.02-94.829 13.59-96.426 0-187.86z" fill="none" fill-rule="evenodd" stroke="#2B66AF" stroke-dasharray="16.0029 12.0022" stroke-miterlimit="8" stroke-width="4.0007"/></g></svg>
