<svg width="1834" height="672" xmlns="http://www.w3.org/2000/svg" xmlns:xlink="http://www.w3.org/1999/xlink" overflow="hidden"><defs><clipPath id="clip0"><rect x="0" y="0" width="1834" height="672"/></clipPath></defs><g clip-path="url(#clip0)"><rect x="0" y="0" width="1834" height="671.878" fill="#FFFFFF"/><path d="M558 46.9915 558 625.857" stroke="#0071C5" stroke-width="2.00036" stroke-miterlimit="8" fill="none" fill-rule="evenodd"/><path d="M773 45.9916 773 624.857" stroke="#0071C5" stroke-width="2.00036" stroke-miterlimit="8" fill="none" fill-rule="evenodd"/><path d="M1349 46.9915 1349 625.857" stroke="#0071C5" stroke-width="2.00036" stroke-miterlimit="8" fill="none" fill-rule="evenodd"/><text font-family="Arial,Arial_MSFontService,sans-serif" font-weight="400" font-size="53" transform="matrix(1 0 0 0.999818 64.6418 104)">APP<tspan font-size="53" x="511.575" y="-1.00018">OV</tspan><tspan font-size="53" x="727.641" y="0">BATCH DEVICE</tspan><tspan font-size="53" x="1305.69" y="-1.00018">ACTUAL DEVICE</tspan></text><path d="M100 204.13C100 197.412 105.447 191.965 112.167 191.965L520.833 191.965C527.553 191.965 533 197.412 533 204.13L533 252.787C533 259.505 527.553 264.952 520.833 264.952L112.167 264.952C105.447 264.952 100 259.505 100 252.787Z" stroke="#0071C5" stroke-width="4.00073" stroke-miterlimit="8" stroke-dasharray="16.0029 12.0022" fill="#00AEEF" fill-rule="evenodd"/><text fill="#FFFFFF" font-family="Arial,Arial_MSFontService,sans-serif" font-weight="700" font-size="32" transform="matrix(1 0 0 0.999818 120.044 240)">Single batch infer request</text><path d="M115 325.108C115 318.389 120.447 312.943 127.167 312.943L534.833 312.943C541.553 312.943 547 318.389 547 325.108L547 373.765C547 380.484 541.553 385.93 534.833 385.93L127.167 385.93C120.447 385.93 115 380.484 115 373.765Z" stroke="#0071C5" stroke-width="4.00073" stroke-miterlimit="8" stroke-dasharray="16.0029 12.0022" fill="#00AEEF" fill-rule="evenodd"/><text fill="#FFFFFF" font-family="Arial,Arial_MSFontService,sans-serif" font-weight="700" font-size="32" transform="matrix(1 0 0 0.999818 134.794 361)">Single batch infer request</text><path d="M52 446.086C52 439.368 57.4474 433.921 64.167 433.921L472.833 433.921C479.553 433.921 485 439.368 485 446.086L485 494.743C485 501.461 479.553 506.908 472.833 506.908L64.167 506.908C57.4474 506.908 52 501.461 52 494.743Z" stroke="#0071C5" stroke-width="4.00073" stroke-miterlimit="8" stroke-dasharray="16.0029 12.0022" fill="#00AEEF" fill-rule="evenodd"/><text fill="#FFFFFF" font-family="Arial,Arial_MSFontService,sans-serif" font-weight="700" font-size="32" transform="matrix(1 0 0 0.999818 72.1567 482)">Single batch infer request</text><path d="M76 564.064C76 557.346 81.4472 551.9 88.1667 551.9L495.833 551.9C502.553 551.9 508 557.346 508 564.064L508 612.722C508 619.44 502.553 624.886 495.833 624.886L88.1667 624.886C81.4472 624.886 76 619.44 76 612.722Z" stroke="#0071C5" stroke-width="4.00073" stroke-miterlimit="8" stroke-dasharray="16.0029 12.0022" fill="#00AEEF" fill-rule="evenodd"/><text fill="#FFFFFF" font-family="Arial,Arial_MSFontService,sans-serif" font-weight="700" font-size="32" transform="matrix(1 0 0 0.999818 95.3252 600)">Single batch infer request</text><path d="M843 305.112C843 298.393 848.447 292.947 855.167 292.947L1263.83 292.947C1270.55 292.947 1276 298.393 1276 305.112L1276 353.769C1276 360.487 1270.55 365.933 1263.83 365.933L855.167 365.933C848.447 365.933 843 360.487 843 353.769Z" stroke="#0071C5" stroke-width="4.00073" stroke-miterlimit="8" fill="#00AEEF" fill-rule="evenodd"/><path d="M842 378.098C842 371.38 847.447 365.933 854.167 365.933L1261.83 365.933C1268.55 365.933 1274 371.38 1274 378.098L1274 426.756C1274 433.474 1268.55 438.92 1261.83 438.92L854.167 438.92C847.447 438.92 842 433.474 842 426.756Z" stroke="#0071C5" stroke-width="4.00073" stroke-miterlimit="8" fill="#00AEEF" fill-rule="evenodd"/><path d="M843 451.085C843 444.366 848.447 438.92 855.167 438.92L1262.83 438.92C1269.55 438.92 1275 444.366 1275 451.085L1275 499.742C1275 506.461 1269.55 511.907 1262.83 511.907L855.167 511.907C848.447 511.907 843 506.461 843 499.742Z" stroke="#0071C5" stroke-width="4.00073" stroke-miterlimit="8" fill="#00AEEF" fill-rule="evenodd"/><path d="M843 524.072C843 517.353 848.447 511.907 855.167 511.907L1262.83 511.907C1269.55 511.907 1275 517.353 1275 524.072L1275 572.729C1275 579.447 1269.55 584.894 1262.83 584.894L855.167 584.894C848.447 584.894 843 579.447 843 572.729Z" stroke="#0071C5" stroke-width="4.00073" stroke-miterlimit="8" fill="#00AEEF" fill-rule="evenodd"/><path d="M803 264.287C803 224.345 835.385 191.965 875.335 191.965L1245.67 191.965C1285.61 191.965 1318 224.345 1318 264.287L1318 553.564C1318 593.507 1285.61 625.886 1245.67 625.886L875.335 625.886C835.385 625.886 803 593.507 803 553.564Z" stroke="#0071C5" stroke-width="4.00073" stroke-miterlimit="8" fill="none" fill-rule="evenodd"/><text fill="#0071C5" font-family="Arial,Arial_MSFontService,sans-serif" font-weight="700" font-size="37" transform="matrix(1 0 0 0.999818 849.641 262)">Batch “worker” request</text><path d="M533.616 227.056 835.021 324.617 833.789 328.423 532.384 230.861ZM834.35 320.196 843.92 329.6 830.653 331.612Z" fill="#0071C5"/><path d="M547.352 347.968 832.535 399.005 831.83 402.942 546.648 351.905ZM831.27 394.715 842.027 402.735 829.156 406.527Z" fill="#0071C5"/><path d="M485.028 467.915 832.983 472.733 832.927 476.732 484.972 471.914ZM831.037 468.705 842.955 474.871 830.871 480.704Z" fill="#0071C5"/><path d="M0.235361-1.9861 325.321 36.5379 324.85 40.5101-0.235361 1.9861ZM323.806 32.3303 335.016 39.7008 322.393 44.2469Z" fill="#0071C5" transform="matrix(1.00018 0 0 -1 508 588.601)"/><path d="M1328 406.926 1441.56 406.926 1441.56 410.926 1328 410.926ZM1330 414.926 1318 408.926 1330 402.926ZM1439.56 402.926 1451.56 408.926 1439.56 414.926Z" fill="#0071C5"/><path d="M1440 316.493C1440 288.028 1463.12 264.952 1491.64 264.952L1718.17 264.952C1746.69 264.952 1769.81 288.028 1769.81 316.493 1782.83 407.367 1783.96 408.964 1769.81 504.358 1769.81 532.823 1746.69 555.899 1718.17 555.899L1491.64 555.899C1463.12 555.899 1440 532.823 1440 504.358 1453.02 409.529 1453.59 407.932 1440 316.493Z" stroke="#0071C5" stroke-width="4.00073" stroke-miterlimit="8" stroke-dasharray="16.0029 12.0022" fill="none" fill-rule="evenodd"/></g></svg>