<svg width="917" height="672" xmlns="http://www.w3.org/2000/svg" xmlns:xlink="http://www.w3.org/1999/xlink" overflow="hidden"><defs><clipPath id="clip0"><rect x="0" y="0" width="917" height="672"/></clipPath></defs><g clip-path="url(#clip0)"><rect x="0" y="0" width="917" height="671.878" fill="#FFFFFF"/><rect x="31.5" y="24.4955" width="134" height="572.896" stroke="#0071C5" stroke-width="3.00055" stroke-miterlimit="8" fill="#00AEEF"/><text fill="#0071C5" font-family="IntelOneDisplay-Regular,IntelOne Display,sans-serif" font-weight="700" font-size="21" transform="matrix(1 0 0 0.999818 38.9705 625)">INFERENCE <tspan font-size="21" x="9.83512" y="25.0045">REQUEST</tspan></text><text fill="#FFFFFF" font-family="IntelOneDisplay-Regular,IntelOne Display,sans-serif" font-weight="900" font-size="25" transform="matrix(1.00018 0 0 0.999636 91.0597 64)">I<tspan font-size="25" x="-6" y="42.0153">N</tspan><tspan font-size="25" x="-4.00001" y="83.0302">P</tspan><tspan font-size="25" x="-6" y="125.045">U</tspan><tspan font-size="25" x="-4.00001" y="167.061">T</tspan><tspan font-size="25" x="0" y="228.083">I</tspan><tspan font-size="25" x="-7" y="270.098">M</tspan><tspan font-size="25" x="-5.00001" y="311.113">A</tspan><tspan font-size="25" x="-6" y="353.128">G</tspan><tspan font-size="25" x="-4.00001" y="394.143">E</tspan></text><rect x="17" y="9.99822" width="164" height="652.881" stroke="#0068B5" stroke-width="4.00073" stroke-miterlimit="8" fill="none"/><rect x="210.5" y="24.4955" width="135" height="572.896" stroke="#0071C5" stroke-width="3.00055" stroke-miterlimit="8" fill="#00AEEF"/><text fill="#0071C5" font-family="IntelOneDisplay-Regular,IntelOne Display,sans-serif" font-weight="700" font-size="21" transform="matrix(1 0 0 0.999818 218.523 625)">INFERENCE <tspan font-size="21" x="9.83513" y="25.0045">REQUEST</tspan></text><text fill="#FFFFFF" font-family="IntelOneDisplay-Regular,IntelOne Display,sans-serif" font-weight="900" font-size="25" transform="matrix(1.00018 0 0 0.999636 270.612 64)">I<tspan font-size="25" x="-6.00001" y="42.0153">N</tspan><tspan font-size="25" x="-4.00001" y="83.0302">P</tspan><tspan font-size="25" x="-6.00001" y="125.045">U</tspan><tspan font-size="25" x="-4.00001" y="167.061">T</tspan><tspan font-size="25" x="0" y="228.083">I</tspan><tspan font-size="25" x="-7.00001" y="270.098">M</tspan><tspan font-size="25" x="-5.00001" y="311.113">A</tspan><tspan font-size="25" x="-6.00001" y="353.128">G</tspan><tspan font-size="25" x="-4.00001" y="394.143">E</tspan></text><rect x="197" y="9.99822" width="163" height="652.881" stroke="#0068B5" stroke-width="4.00073" stroke-miterlimit="8" fill="none"/><rect x="391.5" y="24.4955" width="134" height="572.896" stroke="#0071C5" stroke-width="3.00055" stroke-miterlimit="8" fill="#00AEEF"/><text fill="#0071C5" font-family="IntelOneDisplay-Regular,IntelOne Display,sans-serif" font-weight="700" font-size="21" transform="matrix(1 0 0 0.999818 399.036 625)">INFERENCE <tspan font-size="21" x="9.83511" y="25.0045">REQUEST</tspan></text><text fill="#FFFFFF" font-family="IntelOneDisplay-Regular,IntelOne Display,sans-serif" font-weight="900" font-size="25" transform="matrix(1.00018 0 0 0.999636 451.125 64)">I<tspan font-size="25" x="-5.99998" y="42.0153">N</tspan><tspan font-size="25" x="-4.00001" y="83.0302">P</tspan><tspan font-size="25" x="-5.99998" y="125.045">U</tspan><tspan font-size="25" x="-4.00001" y="167.061">T</tspan><tspan font-size="25" x="0" y="228.083">I</tspan><tspan font-size="25" x="-6.99998" y="270.098">M</tspan><tspan font-size="25" x="-5.00001" y="311.113">A</tspan><tspan font-size="25" x="-5.99998" y="353.128">G</tspan><tspan font-size="25" x="-4.00001" y="394.143">E</tspan></text><rect x="377" y="9.99822" width="164" height="652.881" stroke="#0068B5" stroke-width="4.00073" stroke-miterlimit="8" fill="none"/><rect x="571.5" y="24.4955" width="134" height="572.896" stroke="#0071C5" stroke-width="3.00055" stroke-miterlimit="8" fill="#00AEEF"/><text fill="#0071C5" font-family="IntelOneDisplay-Regular,IntelOne Display,sans-serif" font-weight="700" font-size="21" transform="matrix(1 0 0 0.999818 578.877 625)">INFERENCE <tspan font-size="21" x="9.83514" y="25.0045">REQUEST</tspan></text><text fill="#FFFFFF" font-family="IntelOneDisplay-Regular,IntelOne Display,sans-serif" font-weight="900" font-size="25" transform="matrix(1.00018 0 0 0.999636 630.966 64)">I<tspan font-size="25" x="-6.00001" y="42.0153">N</tspan><tspan font-size="25" x="-4.00001" y="83.0302">P</tspan><tspan font-size="25" x="-6.00001" y="125.045">U</tspan><tspan font-size="25" x="-4.00001" y="167.061">T</tspan><tspan font-size="25" x="0" y="228.083">I</tspan><tspan font-size="25" x="-7.00001" y="270.098">M</tspan><tspan font-size="25" x="-5.00001" y="311.113">A</tspan><tspan font-size="25" x="-6.00001" y="353.128">G</tspan><tspan font-size="25" x="-4.00001" y="394.143">E</tspan></text><rect x="557" y="9.99822" width="163" height="652.881" stroke="#0068B5" stroke-width="4.00073" stroke-miterlimit="8" fill="none"/><rect x="751.5" y="24.4955" width="134" height="572.896" stroke="#0071C5" stroke-width="3.00055" stroke-miterlimit="8" fill="#00AEEF"/><text fill="#0071C5" font-family="IntelOneDisplay-Regular,IntelOne Display,sans-serif" font-weight="700" font-size="21" transform="matrix(1 0 0 0.999818 759.101 625)">INFERENCE <tspan font-size="21" x="9.83508" y="25.0045">REQUEST</tspan></text><text fill="#FFFFFF" font-family="IntelOneDisplay-Regular,IntelOne Display,sans-serif" font-weight="900" font-size="25" transform="matrix(1.00018 0 0 0.999636 811.191 64)">I<tspan font-size="25" x="-6.00001" y="42.0153">N</tspan><tspan font-size="25" x="-4.00001" y="83.0302">P</tspan><tspan font-size="25" x="-6.00001" y="125.045">U</tspan><tspan font-size="25" x="-4.00001" y="167.061">T</tspan><tspan font-size="25" x="0" y="228.083">I</tspan><tspan font-size="25" x="-7.00001" y="270.098">M</tspan><tspan font-size="25" x="-5.00001" y="311.113">A</tspan><tspan font-size="25" x="-6.00001" y="353.128">G</tspan><tspan font-size="25" x="-4.00001" y="394.143">E</tspan></text><rect x="737" y="9.99822" width="164" height="652.881" stroke="#0068B5" stroke-width="4.00073" stroke-miterlimit="8" fill="none"/><path d="M62.5 498.917 74 475.414 85.4999 498.917 79.75 498.917 79.75 588.393 68.25 588.393 68.25 498.917Z" stroke="#FFFFFF" stroke-width="3.00055" stroke-miterlimit="8" fill="#FC4C02" fill-rule="evenodd"/><path d="M106.5 499.939 118.5 475.414 130.5 499.939 124.5 499.939 124.5 588.393 112.5 588.393 112.5 499.939Z" stroke="#FFFFFF" stroke-width="3.00055" stroke-miterlimit="8" fill="#FC4C02" fill-rule="evenodd"/><path d="M245.5 498.917 257 475.414 268.5 498.917 262.75 498.917 262.75 588.393 251.25 588.393 251.25 498.917Z" stroke="#FFFFFF" stroke-width="3.00055" stroke-miterlimit="8" fill="#FC4C02" fill-rule="evenodd"/><path d="M289.5 498.917 301 475.414 312.5 498.917 306.75 498.917 306.75 588.393 295.25 588.393 295.25 498.917Z" stroke="#FFFFFF" stroke-width="3.00055" stroke-miterlimit="8" fill="#FC4C02" fill-rule="evenodd"/><path d="M422.5 499.939 434.5 475.414 446.5 499.939 440.5 499.939 440.5 588.393 428.5 588.393 428.5 499.939Z" stroke="#FFFFFF" stroke-width="3.00055" stroke-miterlimit="8" fill="#FC4C02" fill-rule="evenodd"/><path d="M466.5 499.939 478.5 475.414 490.5 499.939 484.5 499.939 484.5 588.393 472.5 588.393 472.5 499.939Z" stroke="#FFFFFF" stroke-width="3.00055" stroke-miterlimit="8" fill="#FC4C02" fill-rule="evenodd"/><path d="M604.5 499.939 616.5 475.414 628.5 499.939 622.5 499.939 622.5 588.393 610.5 588.393 610.5 499.939Z" stroke="#FFFFFF" stroke-width="3.00055" stroke-miterlimit="8" fill="#FC4C02" fill-rule="evenodd"/><path d="M649.5 498.917 661 475.414 672.5 498.917 666.75 498.917 666.75 588.393 655.25 588.393 655.25 498.917Z" stroke="#FFFFFF" stroke-width="3.00055" stroke-miterlimit="8" fill="#FC4C02" fill-rule="evenodd"/><path d="M784.5 498.917 796 475.414 807.5 498.917 801.75 498.917 801.75 588.393 790.25 588.393 790.25 498.917Z" stroke="#FFFFFF" stroke-width="3.00055" stroke-miterlimit="8" fill="#FC4C02" fill-rule="evenodd"/><path d="M828.5 498.917 840 475.414 851.5 498.917 845.75 498.917 845.75 588.393 834.25 588.393 834.25 498.917Z" stroke="#FFFFFF" stroke-width="3.00055" stroke-miterlimit="8" fill="#FC4C02" fill-rule="evenodd"/></g></svg>