<?xml version="1.0" encoding="UTF-8"?>
<svg width="922" height="673" overflow="hidden" version="1.1" xmlns="http://www.w3.org/2000/svg"><defs><clipPath id="clip0"><rect width="922" height="673"/></clipPath></defs><g clip-path="url(#clip0)"><path d="m0 0h922v673.29h-922z" fill="#fff"/><g transform="matrix(1 0 0 1.0004 262.09 640)" fill="#0071c5" aria-label="USER’S INFERENCE REQUEST"><path d="m10.233-3.915q1.89 0 2.997-1.188t1.107-3.213v-10.584h5.076v10.638q0 3.969-2.538 6.345-2.538 2.349-6.777 2.349-4.131 0-6.615-2.349-2.457-2.376-2.457-6.345v-10.638h5.076v10.584q0 2.025 1.134 3.213t2.997 1.188z"/><path d="m33.183-5.562q0-0.783-0.783-1.107-0.756-0.351-2.916-0.567-4.455-0.459-6.237-1.728t-1.782-4.077q0-2.781 2.241-4.509t6.021-1.728q2.241 0 4.185 0.702t3.672 2.133l-2.538 3.645q-1.242-0.999-2.727-1.566-1.458-0.567-2.808-0.567-1.485 0-2.322 0.405-0.81 0.405-0.81 1.107 0 0.756 0.81 1.08t3.078 0.54q4.239 0.405 6.021 1.728 1.809 1.323 1.809 4.158 0 2.808-2.295 4.563-2.268 1.728-6.129 1.728-2.646 0-4.914-0.756-2.268-0.783-4.158-2.322l2.457-3.699q1.701 1.215 3.429 1.836 1.728 0.594 3.402 0.594 1.593 0 2.43-0.405 0.864-0.432 0.864-1.188z"/><path d="m39.987 0v-18.9h14.796v4.266h-9.72v2.97h8.964v4.266h-8.964v3.132h9.72v4.266z"/><path d="m69.741-7.425 4.509 7.425h-5.913l-3.672-6.453h-2.862v6.453h-5.022v-18.9h9.234q3.726 0 5.697 1.566 1.998 1.539 1.998 4.455 0 1.998-0.999 3.375t-2.97 2.079zm-1.161-5.265q0-0.972-0.648-1.458t-1.971-0.486h-4.158v3.969h4.158q1.269 0 1.944-0.513 0.675-0.54 0.675-1.512z"/><path d="m78.975-11.583h-3.996l1.89-7.317h5.022z"/><path d="m93.879-5.562q0-0.783-0.783-1.107-0.756-0.351-2.916-0.567-4.455-0.459-6.237-1.728t-1.782-4.077q0-2.781 2.241-4.509t6.021-1.728q2.241 0 4.185 0.702t3.672 2.133l-2.538 3.645q-1.242-0.999-2.727-1.566-1.458-0.567-2.808-0.567-1.485 0-2.322 0.405-0.81 0.405-0.81 1.107 0 0.756 0.81 1.08t3.078 0.54q4.239 0.405 6.021 1.728 1.809 1.323 1.809 4.158 0 2.808-2.295 4.563-2.268 1.728-6.129 1.728-2.646 0-4.914-0.756-2.268-0.783-4.158-2.322l2.457-3.699q1.701 1.215 3.429 1.836 1.728 0.594 3.402 0.594 1.593 0 2.43-0.405 0.864-0.432 0.864-1.188z"/><path d="m105.27 0v-18.9h5.076v18.9z"/><path d="m117.69-11.313v11.313h-4.887v-18.9h5.13l8.289 11.313v-11.313h4.887v18.9h-5.13z"/><path d="m133.49 0v-18.9h14.553v4.266h-9.477v3.375h8.694v4.266h-8.694v6.993z"/><path d="m149.71 0v-18.9h14.796v4.266h-9.72v2.97h8.964v4.266h-8.964v3.132h9.72v4.266z"/><path d="m179.47-7.425 4.509 7.425h-5.913l-3.672-6.453h-2.862v6.453h-5.022v-18.9h9.234q3.726 0 5.697 1.566 1.998 1.539 1.998 4.455 0 1.998-0.999 3.375t-2.97 2.079zm-1.161-5.265q0-0.972-0.648-1.458t-1.971-0.486h-4.158v3.969h4.158q1.269 0 1.944-0.513 0.675-0.54 0.675-1.512z"/><path d="m185.49 0v-18.9h14.796v4.266h-9.72v2.97h8.964v4.266h-8.964v3.132h9.72v4.266z"/><path d="m207.17-11.313v11.313h-4.887v-18.9h5.13l8.289 11.313v-11.313h4.887v18.9h-5.13z"/><path d="m227.47-9.477q0 2.376 1.431 3.969 1.458 1.593 3.645 1.593 1.404 0 2.592-0.729 1.215-0.756 2.052-2.133l3.699 2.322q-1.161 2.214-3.456 3.564-2.268 1.323-5.022 1.323-4.455 0-7.263-2.754-2.808-2.781-2.808-7.101 0-4.239 2.916-7.074 2.943-2.835 7.371-2.835 2.835 0 4.941 1.215t3.321 3.591l-3.888 2.43q-0.918-1.539-1.944-2.214t-2.511-0.675q-2.268 0-3.672 1.539t-1.404 3.969z"/><path d="m242.59 0v-18.9h14.796v4.266h-9.72v2.97h8.964v4.266h-8.964v3.132h9.72v4.266z"/><path d="m276.86-7.425 4.509 7.425h-5.913l-3.672-6.453h-2.862v6.453h-5.022v-18.9h9.234q3.726 0 5.697 1.566 1.998 1.539 1.998 4.455 0 1.998-0.999 3.375t-2.97 2.079zm-1.161-5.265q0-0.972-0.648-1.458t-1.971-0.486h-4.158v3.969h4.158q1.269 0 1.944-0.513 0.675-0.54 0.675-1.512z"/><path d="m282.88 0v-18.9h14.796v4.266h-9.72v2.97h8.964v4.266h-8.964v3.132h9.72v4.266z"/><path d="m298.92-9.423q0-4.266 2.862-7.074 2.889-2.835 7.263-2.835t7.209 2.808q2.862 2.808 2.862 7.047 0 3.645-2.187 6.318-2.16 2.673-5.697 3.375 0.054 0.594 0.432 0.864t1.161 0.27h1.62v3.51h-1.89q-2.943 0-4.347-1.134-1.377-1.107-1.377-3.483-3.564-0.702-5.751-3.348-2.16-2.673-2.16-6.318zm5.13-0.054q0 2.403 1.404 3.996 1.431 1.566 3.591 1.566t3.537-1.539q1.404-1.566 1.404-3.969t-1.431-3.969q-1.404-1.593-3.564-1.593t-3.564 1.566q-1.377 1.539-1.377 3.942z"/><path d="m329.91-3.915q1.89 0 2.997-1.188t1.107-3.213v-10.584h5.076v10.638q0 3.969-2.538 6.345-2.538 2.349-6.777 2.349-4.131 0-6.615-2.349-2.457-2.376-2.457-6.345v-10.638h5.076v10.584q0 2.025 1.134 3.213t2.997 1.188z"/><path d="m341.31 0v-18.9h14.796v4.266h-9.72v2.97h8.964v4.266h-8.964v3.132h9.72v4.266z"/><path d="m369.79-5.562q0-0.783-0.783-1.107-0.756-0.351-2.916-0.567-4.455-0.459-6.237-1.728t-1.782-4.077q0-2.781 2.241-4.509t6.021-1.728q2.241 0 4.185 0.702t3.672 2.133l-2.538 3.645q-1.242-0.999-2.727-1.566-1.458-0.567-2.808-0.567-1.485 0-2.322 0.405-0.81 0.405-0.81 1.107 0 0.756 0.81 1.08t3.078 0.54q4.239 0.405 6.021 1.728 1.809 1.323 1.809 4.158 0 2.808-2.295 4.563-2.268 1.728-6.129 1.728-2.646 0-4.914-0.756-2.268-0.783-4.158-2.322l2.457-3.699q1.701 1.215 3.429 1.836 1.728 0.594 3.402 0.594 1.593 0 2.43-0.405 0.864-0.432 0.864-1.188z"/><path d="m381.62-14.472h-6.264v-4.428h17.604v4.428h-6.264v14.472h-5.076z"/></g><g fill="#FC4C02"><path transform="matrix(1 0 0 -1.0004 324 588.22)" d="m1.9996-3.8188e-6 8e-5 44.967h-3.9993l-9e-5 -44.966zm3.9994 42.967-5.9989 11.998-5.9989-11.998z"/><path transform="matrix(1 0 0 -1.0004 302 588.22)" d="m1.9996-3.8188e-6 8e-5 44.967h-3.9993l-9e-5 -44.966zm3.9994 42.967-5.9989 11.998-5.9989-11.998z"/><path transform="matrix(1 0 0 -1.0004 280 588.22)" d="m1.9996-3.8188e-6 8e-5 44.967h-3.9993l-9e-5 -44.966zm3.9994 42.967-5.9989 11.998-5.9989-11.998z"/><path transform="matrix(1 0 0 -1.0004 258 588.22)" d="m1.9996-3.8188e-6 8e-5 44.967h-3.9993l-9e-5 -44.966zm3.9994 42.967-5.9989 11.998-5.9989-11.998z"/><path transform="matrix(1 0 0 -1.0004 236 588.22)" d="m1.9996-3.8188e-6 8e-5 44.966h-3.9993l-9e-5 -44.966zm3.9994 42.967-5.9989 11.998-5.9989-11.998z"/><path transform="matrix(1 0 0 -1.0004 214 588.22)" d="m1.9996-3.8188e-6 8e-5 44.966h-3.9993l-9e-5 -44.966zm3.9994 42.967-5.9989 11.998-5.9989-11.998z"/><path transform="matrix(1 0 0 -1.0004 192 588.22)" d="m1.9996-3.8188e-6 8e-5 44.966h-3.9993l-9e-5 -44.966zm3.9994 42.967-5.9989 11.998-5.9989-11.998z"/><path transform="matrix(1 0 0 -1.0004 171 588.22)" d="m1.9996-3.8188e-6 8e-5 44.966h-3.9993l-9e-5 -44.966zm3.9994 42.967-5.9989 11.998-5.9989-11.998z"/><path transform="matrix(1 0 0 -1.0004 149 588.22)" d="m1.9996-3.8188e-6 8e-5 44.967h-3.9993l-9e-5 -44.966zm3.9994 42.967-5.9989 11.998-5.9989-11.998z"/><path transform="matrix(1 0 0 -1.0004 127 588.22)" d="m1.9996-3.8188e-6 8e-5 44.967h-3.9993l-9e-5 -44.966zm3.9994 42.967-5.9989 11.998-5.9989-11.998z"/><path transform="matrix(1 0 0 -1.0004 105 588.22)" d="m1.9996-3.8188e-6 8e-5 44.967h-3.9993l-9e-5 -44.966zm3.9994 42.967-5.9989 11.998-5.9989-11.998z"/><path transform="matrix(1 0 0 -1.0004 83 588.22)" d="m1.9996-3.8188e-6 8e-5 44.967h-3.9993l-9e-5 -44.966zm3.9994 42.967-5.9989 11.998-5.9989-11.998z"/><path transform="matrix(1 0 0 -1.0004 837 588.22)" d="m1.9996-3.8188e-6 8e-5 44.967h-3.9993l-9e-5 -44.966zm3.9994 42.967-5.9989 11.998-5.9989-11.998z"/><path transform="matrix(1 0 0 -1.0004 815 588.22)" d="m1.9996-3.8188e-6 8e-5 44.967h-3.9993l-9e-5 -44.966zm3.9994 42.967-5.9989 11.998-5.9989-11.998z"/><path transform="matrix(1 0 0 -1.0004 793 588.22)" d="m1.9996-3.8188e-6 8e-5 44.967h-3.9993l-9e-5 -44.966zm3.9994 42.967-5.9989 11.998-5.9989-11.998z"/><path transform="matrix(1 0 0 -1.0004 771 588.22)" d="m1.9996-3.8188e-6 8e-5 44.967h-3.9993l-9e-5 -44.966zm3.9994 42.967-5.9989 11.998-5.9989-11.998z"/><path transform="matrix(1 0 0 -1.0004 749 588.22)" d="m1.9996-3.8188e-6 8e-5 44.966h-3.9993l-9e-5 -44.966zm3.9994 42.967-5.9989 11.998-5.9989-11.998z"/><path transform="matrix(1 0 0 -1.0004 728 588.22)" d="m1.9996-3.8188e-6 8e-5 44.966h-3.9993l-9e-5 -44.966zm3.9994 42.967-5.9989 11.998-5.9989-11.998z"/><path transform="matrix(1 0 0 -1.0004 705 588.22)" d="m1.9996-3.8188e-6 8e-5 44.966h-3.9993l-9e-5 -44.966zm3.9994 42.967-5.9989 11.998-5.9989-11.998z"/><path transform="matrix(1 0 0 -1.0004 684 588.22)" d="m1.9996-3.8188e-6 8e-5 44.966h-3.9993l-9e-5 -44.966zm3.9994 42.967-5.9989 11.998-5.9989-11.998z"/><path transform="matrix(1 0 0 -1.0004 662 588.22)" d="m1.9996-3.8188e-6 8e-5 44.967h-3.9993l-9e-5 -44.966zm3.9994 42.967-5.9989 11.998-5.9989-11.998z"/><path transform="matrix(1 0 0 -1.0004 640 588.22)" d="m1.9996-3.8188e-6 8e-5 44.967h-3.9993l-9e-5 -44.966zm3.9994 42.967-5.9989 11.998-5.9989-11.998z"/><path transform="matrix(1 0 0 -1.0004 618 588.22)" d="m1.9996-3.8188e-6 8e-5 44.967h-3.9993l-9e-5 -44.966zm3.9994 42.967-5.9989 11.998-5.9989-11.998z"/><path transform="matrix(1 0 0 -1.0004 596 588.22)" d="m1.9996-3.8188e-6 8e-5 44.967h-3.9993l-9e-5 -44.966zm3.9994 42.967-5.9989 11.998-5.9989-11.998z"/><path transform="matrix(1 0 0 -1.0004 324 234.06)" d="m1.9996-3.8188e-6 8e-5 44.967h-3.9993l-9e-5 -44.966zm3.9994 42.967-5.9989 11.998-5.9989-11.998z"/><path transform="matrix(1 0 0 -1.0004 302 234.06)" d="m1.9996-3.8188e-6 8e-5 44.967h-3.9993l-9e-5 -44.966zm3.9994 42.967-5.9989 11.998-5.9989-11.998z"/><path transform="matrix(1 0 0 -1.0004 280 234.06)" d="m1.9996-3.8188e-6 8e-5 44.967h-3.9993l-9e-5 -44.966zm3.9994 42.967-5.9989 11.998-5.9989-11.998z"/><path transform="matrix(1 0 0 -1.0004 258 234.06)" d="m1.9996-3.8188e-6 8e-5 44.967h-3.9993l-9e-5 -44.966zm3.9994 42.967-5.9989 11.998-5.9989-11.998z"/><path transform="matrix(1 0 0 -1.0004 236 234.06)" d="m1.9996-3.8188e-6 8e-5 44.966h-3.9993l-9e-5 -44.966zm3.9994 42.967-5.9989 11.998-5.9989-11.998z"/><path transform="matrix(1 0 0 -1.0004 214 234.06)" d="m1.9996-3.8188e-6 8e-5 44.966h-3.9993l-9e-5 -44.966zm3.9994 42.967-5.9989 11.998-5.9989-11.998z"/><path transform="matrix(1 0 0 -1.0004 192 234.06)" d="m1.9996-3.8188e-6 8e-5 44.966h-3.9993l-9e-5 -44.966zm3.9994 42.967-5.9989 11.998-5.9989-11.998z"/><path transform="matrix(1 0 0 -1.0004 171 234.06)" d="m1.9996-3.8188e-6 8e-5 44.966h-3.9993l-9e-5 -44.966zm3.9994 42.967-5.9989 11.998-5.9989-11.998z"/><path transform="matrix(1 0 0 -1.0004 149 234.06)" d="m1.9996-3.8188e-6 8e-5 44.967h-3.9993l-9e-5 -44.966zm3.9994 42.967-5.9989 11.998-5.9989-11.998z"/><path transform="matrix(1 0 0 -1.0004 127 234.06)" d="m1.9996-3.8188e-6 8e-5 44.967h-3.9993l-9e-5 -44.966zm3.9994 42.967-5.9989 11.998-5.9989-11.998z"/><path transform="matrix(1 0 0 -1.0004 105 234.06)" d="m1.9996-3.8188e-6 8e-5 44.967h-3.9993l-9e-5 -44.966zm3.9994 42.967-5.9989 11.998-5.9989-11.998z"/><path transform="matrix(1 0 0 -1.0004 83 234.06)" d="m1.9996-3.8188e-6 8e-5 44.967h-3.9993l-9e-5 -44.966zm3.9994 42.967-5.9989 11.998-5.9989-11.998z"/><path transform="matrix(1 0 0 -1.0004 837 234.06)" d="m1.9996-3.8188e-6 8e-5 44.967h-3.9993l-9e-5 -44.966zm3.9994 42.967-5.9989 11.998-5.9989-11.998z"/><path transform="matrix(1 0 0 -1.0004 815 234.06)" d="m1.9996-3.8188e-6 8e-5 44.967h-3.9993l-9e-5 -44.966zm3.9994 42.967-5.9989 11.998-5.9989-11.998z"/><path transform="matrix(1 0 0 -1.0004 793 234.06)" d="m1.9996-3.8188e-6 8e-5 44.967h-3.9993l-9e-5 -44.966zm3.9994 42.967-5.9989 11.998-5.9989-11.998z"/><path transform="matrix(1 0 0 -1.0004 771 234.06)" d="m1.9996-3.8188e-6 8e-5 44.967h-3.9993l-9e-5 -44.966zm3.9994 42.967-5.9989 11.998-5.9989-11.998z"/><path transform="matrix(1 0 0 -1.0004 749 234.06)" d="m1.9996-3.8188e-6 8e-5 44.966h-3.9993l-9e-5 -44.966zm3.9994 42.967-5.9989 11.998-5.9989-11.998z"/><path transform="matrix(1 0 0 -1.0004 728 234.06)" d="m1.9996-3.8188e-6 8e-5 44.966h-3.9993l-9e-5 -44.966zm3.9994 42.967-5.9989 11.998-5.9989-11.998z"/><path transform="matrix(1 0 0 -1.0004 705 234.06)" d="m1.9996-3.8188e-6 8e-5 44.966h-3.9993l-9e-5 -44.966zm3.9994 42.967-5.9989 11.998-5.9989-11.998z"/><path transform="matrix(1 0 0 -1.0004 684 234.06)" d="m1.9996-3.8188e-6 8e-5 44.966h-3.9993l-9e-5 -44.966zm3.9994 42.967-5.9989 11.998-5.9989-11.998z"/><path transform="matrix(1 0 0 -1.0004 662 234.06)" d="m1.9996-3.8188e-6 8e-5 44.967h-3.9993l-9e-5 -44.966zm3.9994 42.967-5.9989 11.998-5.9989-11.998z"/><path transform="matrix(1 0 0 -1.0004 640 234.06)" d="m1.9996-3.8188e-6 8e-5 44.967h-3.9993l-9e-5 -44.966zm3.9994 42.967-5.9989 11.998-5.9989-11.998z"/><path transform="matrix(1 0 0 -1.0004 618 234.06)" d="m1.9996-3.8188e-6 8e-5 44.967h-3.9993l-9e-5 -44.966zm3.9994 42.967-5.9989 11.998-5.9989-11.998z"/><path transform="matrix(1 0 0 -1.0004 596 234.06)" d="m1.9996-3.8188e-6 8e-5 44.967h-3.9993l-9e-5 -44.966zm3.9994 42.967-5.9989 11.998-5.9989-11.998z"/></g><path d="m67 530.23h786v60.026h-786z" fill="none" stroke="#0071c5" stroke-miterlimit="8" stroke-width="3.9993"/><g transform="matrix(1 0 0 1.0004 397.95 580)" fill="#0071c5" aria-label="LAYER"><path d="m1.672 0v-26.6h7.144v20.52h12.35v6.08z"/><path d="m30.856-4.75-1.862 4.75h-7.258l10.944-26.6h7.79l10.982 26.6h-7.486l-1.862-4.75zm5.624-14.364-3.268 8.36h6.536z"/><path d="m66.804-26.6h8.018l-10.412 15.39v11.21h-7.144v-11.21l-10.412-15.39h8.208l5.89 9.424z"/><path d="m76.418 0v-26.6h20.824v6.004h-13.68v4.18h12.616v6.004h-12.616v4.408h13.68v6.004z"/><path d="m118.29-10.45 6.346 10.45h-8.322l-5.168-9.082h-4.028v9.082h-7.068v-26.6h12.996q5.244 0 8.018 2.204 2.812 2.166 2.812 6.27 0 2.812-1.406 4.75t-4.18 2.926zm-1.634-7.41q0-1.368-0.912-2.052t-2.774-0.684h-5.852v5.586h5.852q1.786 0 2.736-0.722 0.95-0.76 0.95-2.128z"/></g><path transform="matrix(1 0 0 -1.0004 460 530.19)" d="m3.9993-7.6376e-6 6e-5 34.968h-7.9986l-7e-5 -34.968zm7.9986 30.969-11.998 23.996-11.998-23.996z" fill="#0071C5"/><path d="m67 412.18h786v61.026h-786z" fill="none" stroke="#0071c5" stroke-miterlimit="8" stroke-width="3.9993"/><g transform="matrix(1 0 0 1.0004 397.95 462)" fill="#0071c5" aria-label="LAYER"><path d="m1.672 0v-26.6h7.144v20.52h12.35v6.08z"/><path d="m30.856-4.75-1.862 4.75h-7.258l10.944-26.6h7.79l10.982 26.6h-7.486l-1.862-4.75zm5.624-14.364-3.268 8.36h6.536z"/><path d="m66.804-26.6h8.018l-10.412 15.39v11.21h-7.144v-11.21l-10.412-15.39h8.208l5.89 9.424z"/><path d="m76.418 0v-26.6h20.824v6.004h-13.68v4.18h12.616v6.004h-12.616v4.408h13.68v6.004z"/><path d="m118.29-10.45 6.346 10.45h-8.322l-5.168-9.082h-4.028v9.082h-7.068v-26.6h12.996q5.244 0 8.018 2.204 2.812 2.166 2.812 6.27 0 2.812-1.406 4.75t-4.18 2.926zm-1.634-7.41q0-1.368-0.912-2.052t-2.774-0.684h-5.852v5.586h5.852q1.786 0 2.736-0.722 0.95-0.76 0.95-2.128z"/></g><path transform="matrix(1 0 0 -1.0004 460 412.14)" d="m3.9993-7.6376e-6 6e-5 34.968h-7.9986l-7e-5 -34.968zm7.9986 30.969-11.998 23.996-11.998-23.996z" fill="#0071C5"/><path d="m67 295.13h786v60.026h-786z" fill="none" stroke="#0071c5" stroke-miterlimit="8" stroke-width="3.9993"/><g transform="matrix(1 0 0 1.0004 397.95 344)" fill="#0071c5" aria-label="LAYER"><path d="m1.672 0v-26.6h7.144v20.52h12.35v6.08z"/><path d="m30.856-4.75-1.862 4.75h-7.258l10.944-26.6h7.79l10.982 26.6h-7.486l-1.862-4.75zm5.624-14.364-3.268 8.36h6.536z"/><path d="m66.804-26.6h8.018l-10.412 15.39v11.21h-7.144v-11.21l-10.412-15.39h8.208l5.89 9.424z"/><path d="m76.418 0v-26.6h20.824v6.004h-13.68v4.18h12.616v6.004h-12.616v4.408h13.68v6.004z"/><path d="m118.29-10.45 6.346 10.45h-8.322l-5.168-9.082h-4.028v9.082h-7.068v-26.6h12.996q5.244 0 8.018 2.204 2.812 2.166 2.812 6.27 0 2.812-1.406 4.75t-4.18 2.926zm-1.634-7.41q0-1.368-0.912-2.052t-2.774-0.684h-5.852v5.586h5.852q1.786 0 2.736-0.722 0.95-0.76 0.95-2.128z"/></g><path transform="matrix(1 0 0 -1.0004 460 294.09)" d="m3.9993-7.6376e-6 6e-5 34.968h-7.9986l-7e-5 -34.968zm7.9986 30.969-11.998 23.996-11.998-23.996z" fill="#0071C5"/><path d="m67 177.08h786v60.026h-786z" fill="none" stroke="#0071c5" stroke-miterlimit="8" stroke-width="3.9993"/><g transform="matrix(1 0 0 1.0004 397.95 226)" fill="#0071c5" aria-label="LAYER"><path d="m1.672 0v-26.6h7.144v20.52h12.35v6.08z"/><path d="m30.856-4.75-1.862 4.75h-7.258l10.944-26.6h7.79l10.982 26.6h-7.486l-1.862-4.75zm5.624-14.364-3.268 8.36h6.536z"/><path d="m66.804-26.6h8.018l-10.412 15.39v11.21h-7.144v-11.21l-10.412-15.39h8.208l5.89 9.424z"/><path d="m76.418 0v-26.6h20.824v6.004h-13.68v4.18h12.616v6.004h-12.616v4.408h13.68v6.004z"/><path d="m118.29-10.45 6.346 10.45h-8.322l-5.168-9.082h-4.028v9.082h-7.068v-26.6h12.996q5.244 0 8.018 2.204 2.812 2.166 2.812 6.27 0 2.812-1.406 4.75t-4.18 2.926zm-1.634-7.41q0-1.368-0.912-2.052t-2.774-0.684h-5.852v5.586h5.852q1.786 0 2.736-0.722 0.95-0.76 0.95-2.128z"/></g><path transform="matrix(1 0 0 -1.0004 460 177.04)" d="m3.9993-7.6376e-6 6e-5 34.968h-7.9986l-7e-5 -34.968zm7.9986 30.969-11.998 23.996-11.998-23.996z" fill="#0071C5"/><path d="m67 59.025h786v60.026h-786z" fill="none" stroke="#0071c5" stroke-miterlimit="8" stroke-width="3.9993"/><g transform="matrix(1 0 0 1.0004 397.95 108)" fill="#0071c5" aria-label="LAYER"><path d="m1.672 0v-26.6h7.144v20.52h12.35v6.08z"/><path d="m30.856-4.75-1.862 4.75h-7.258l10.944-26.6h7.79l10.982 26.6h-7.486l-1.862-4.75zm5.624-14.364-3.268 8.36h6.536z"/><path d="m66.804-26.6h8.018l-10.412 15.39v11.21h-7.144v-11.21l-10.412-15.39h8.208l5.89 9.424z"/><path d="m76.418 0v-26.6h20.824v6.004h-13.68v4.18h12.616v6.004h-12.616v4.408h13.68v6.004z"/><path d="m118.29-10.45 6.346 10.45h-8.322l-5.168-9.082h-4.028v9.082h-7.068v-26.6h12.996q5.244 0 8.018 2.204 2.812 2.166 2.812 6.27 0 2.812-1.406 4.75t-4.18 2.926zm-1.634-7.41q0-1.368-0.912-2.052t-2.774-0.684h-5.852v5.586h5.852q1.786 0 2.736-0.722 0.95-0.76 0.95-2.128z"/></g><g fill="#FC4C02"><path transform="matrix(1 0 0 -1.0004 324 353.12)" d="m1.9996-3.8188e-6 8e-5 44.967h-3.9993l-9e-5 -44.966zm3.9994 42.967-5.9989 11.998-5.9989-11.998z"/><path transform="matrix(1 0 0 -1.0004 302 353.12)" d="m1.9996-3.8188e-6 8e-5 44.967h-3.9993l-9e-5 -44.966zm3.9994 42.967-5.9989 11.998-5.9989-11.998z"/><path transform="matrix(1 0 0 -1.0004 280 353.12)" d="m1.9996-3.8188e-6 8e-5 44.967h-3.9993l-9e-5 -44.966zm3.9994 42.967-5.9989 11.998-5.9989-11.998z"/><path transform="matrix(1 0 0 -1.0004 258 353.12)" d="m1.9996-3.8188e-6 8e-5 44.967h-3.9993l-9e-5 -44.966zm3.9994 42.967-5.9989 11.998-5.9989-11.998z"/><path transform="matrix(1 0 0 -1.0004 236 353.12)" d="m1.9996-3.8188e-6 8e-5 44.966h-3.9993l-9e-5 -44.966zm3.9994 42.967-5.9989 11.998-5.9989-11.998z"/><path transform="matrix(1 0 0 -1.0004 214 353.12)" d="m1.9996-3.8188e-6 8e-5 44.966h-3.9993l-9e-5 -44.966zm3.9994 42.967-5.9989 11.998-5.9989-11.998z"/><path transform="matrix(1 0 0 -1.0004 192 353.12)" d="m1.9996-3.8188e-6 8e-5 44.966h-3.9993l-9e-5 -44.966zm3.9994 42.967-5.9989 11.998-5.9989-11.998z"/><path transform="matrix(1 0 0 -1.0004 171 353.12)" d="m1.9996-3.8188e-6 8e-5 44.966h-3.9993l-9e-5 -44.966zm3.9994 42.967-5.9989 11.998-5.9989-11.998z"/><path transform="matrix(1 0 0 -1.0004 149 353.12)" d="m1.9996-3.8188e-6 8e-5 44.967h-3.9993l-9e-5 -44.966zm3.9994 42.967-5.9989 11.998-5.9989-11.998z"/><path transform="matrix(1 0 0 -1.0004 127 353.12)" d="m1.9996-3.8188e-6 8e-5 44.967h-3.9993l-9e-5 -44.966zm3.9994 42.967-5.9989 11.998-5.9989-11.998z"/><path transform="matrix(1 0 0 -1.0004 105 353.12)" d="m1.9996-3.8188e-6 8e-5 44.967h-3.9993l-9e-5 -44.966zm3.9994 42.967-5.9989 11.998-5.9989-11.998z"/><path transform="matrix(1 0 0 -1.0004 83 353.12)" d="m1.9996-3.8188e-6 8e-5 44.967h-3.9993l-9e-5 -44.966zm3.9994 42.967-5.9989 11.998-5.9989-11.998z"/><path transform="matrix(1 0 0 -1.0004 837 353.12)" d="m1.9996-3.8188e-6 8e-5 44.967h-3.9993l-9e-5 -44.966zm3.9994 42.967-5.9989 11.998-5.9989-11.998z"/><path transform="matrix(1 0 0 -1.0004 815 353.12)" d="m1.9996-3.8188e-6 8e-5 44.967h-3.9993l-9e-5 -44.966zm3.9994 42.967-5.9989 11.998-5.9989-11.998z"/><path transform="matrix(1 0 0 -1.0004 793 353.12)" d="m1.9996-3.8188e-6 8e-5 44.967h-3.9993l-9e-5 -44.966zm3.9994 42.967-5.9989 11.998-5.9989-11.998z"/><path transform="matrix(1 0 0 -1.0004 771 353.12)" d="m1.9996-3.8188e-6 8e-5 44.967h-3.9993l-9e-5 -44.966zm3.9994 42.967-5.9989 11.998-5.9989-11.998z"/><path transform="matrix(1 0 0 -1.0004 749 353.12)" d="m1.9996-3.8188e-6 8e-5 44.966h-3.9993l-9e-5 -44.966zm3.9994 42.967-5.9989 11.998-5.9989-11.998z"/><path transform="matrix(1 0 0 -1.0004 728 353.12)" d="m1.9996-3.8188e-6 8e-5 44.966h-3.9993l-9e-5 -44.966zm3.9994 42.967-5.9989 11.998-5.9989-11.998z"/><path transform="matrix(1 0 0 -1.0004 705 353.12)" d="m1.9996-3.8188e-6 8e-5 44.966h-3.9993l-9e-5 -44.966zm3.9994 42.967-5.9989 11.998-5.9989-11.998z"/><path transform="matrix(1 0 0 -1.0004 684 353.12)" d="m1.9996-3.8188e-6 8e-5 44.966h-3.9993l-9e-5 -44.966zm3.9994 42.967-5.9989 11.998-5.9989-11.998z"/><path transform="matrix(1 0 0 -1.0004 662 353.12)" d="m1.9996-3.8188e-6 8e-5 44.967h-3.9993l-9e-5 -44.966zm3.9994 42.967-5.9989 11.998-5.9989-11.998z"/><path transform="matrix(1 0 0 -1.0004 640 353.12)" d="m1.9996-3.8188e-6 8e-5 44.967h-3.9993l-9e-5 -44.966zm3.9994 42.967-5.9989 11.998-5.9989-11.998z"/><path transform="matrix(1 0 0 -1.0004 618 353.12)" d="m1.9996-3.8188e-6 8e-5 44.967h-3.9993l-9e-5 -44.966zm3.9994 42.967-5.9989 11.998-5.9989-11.998z"/><path transform="matrix(1 0 0 -1.0004 596 353.12)" d="m1.9996-3.8188e-6 8e-5 44.967h-3.9993l-9e-5 -44.966zm3.9994 42.967-5.9989 11.998-5.9989-11.998z"/><path transform="matrix(1 0 0 -1.0004 837 470.17)" d="m1.9996-3.8188e-6 8e-5 44.967h-3.9993l-9e-5 -44.966zm3.9994 42.967-5.9989 11.998-5.9989-11.998z"/><path transform="matrix(1 0 0 -1.0004 815 470.17)" d="m1.9996-3.8188e-6 8e-5 44.967h-3.9993l-9e-5 -44.966zm3.9994 42.967-5.9989 11.998-5.9989-11.998z"/><path transform="matrix(1 0 0 -1.0004 793 470.17)" d="m1.9996-3.8188e-6 8e-5 44.967h-3.9993l-9e-5 -44.966zm3.9994 42.967-5.9989 11.998-5.9989-11.998z"/><path transform="matrix(1 0 0 -1.0004 771 470.17)" d="m1.9996-3.8188e-6 8e-5 44.967h-3.9993l-9e-5 -44.966zm3.9994 42.967-5.9989 11.998-5.9989-11.998z"/><path transform="matrix(1 0 0 -1.0004 749 470.17)" d="m1.9996-3.8188e-6 8e-5 44.966h-3.9993l-9e-5 -44.966zm3.9994 42.967-5.9989 11.998-5.9989-11.998z"/><path transform="matrix(1 0 0 -1.0004 728 470.17)" d="m1.9996-3.8188e-6 8e-5 44.966h-3.9993l-9e-5 -44.966zm3.9994 42.967-5.9989 11.998-5.9989-11.998z"/><path transform="matrix(1 0 0 -1.0004 705 470.17)" d="m1.9996-3.8188e-6 8e-5 44.966h-3.9993l-9e-5 -44.966zm3.9994 42.967-5.9989 11.998-5.9989-11.998z"/><path transform="matrix(1 0 0 -1.0004 684 470.17)" d="m1.9996-3.8188e-6 8e-5 44.966h-3.9993l-9e-5 -44.966zm3.9994 42.967-5.9989 11.998-5.9989-11.998z"/><path transform="matrix(1 0 0 -1.0004 662 470.17)" d="m1.9996-3.8188e-6 8e-5 44.967h-3.9993l-9e-5 -44.966zm3.9994 42.967-5.9989 11.998-5.9989-11.998z"/><path transform="matrix(1 0 0 -1.0004 640 470.17)" d="m1.9996-3.8188e-6 8e-5 44.967h-3.9993l-9e-5 -44.966zm3.9994 42.967-5.9989 11.998-5.9989-11.998z"/><path transform="matrix(1 0 0 -1.0004 618 470.17)" d="m1.9996-3.8188e-6 8e-5 44.967h-3.9993l-9e-5 -44.966zm3.9994 42.967-5.9989 11.998-5.9989-11.998z"/><path transform="matrix(1 0 0 -1.0004 596 470.17)" d="m1.9996-3.8188e-6 8e-5 44.967h-3.9993l-9e-5 -44.966zm3.9994 42.967-5.9989 11.998-5.9989-11.998z"/><path transform="matrix(1 0 0 -1.0004 324 470.17)" d="m1.9996-3.8188e-6 8e-5 44.967h-3.9993l-9e-5 -44.966zm3.9994 42.967-5.9989 11.998-5.9989-11.998z"/><path transform="matrix(1 0 0 -1.0004 302 470.17)" d="m1.9996-3.8188e-6 8e-5 44.967h-3.9993l-9e-5 -44.966zm3.9994 42.967-5.9989 11.998-5.9989-11.998z"/><path transform="matrix(1 0 0 -1.0004 280 470.17)" d="m1.9996-3.8188e-6 8e-5 44.967h-3.9993l-9e-5 -44.966zm3.9994 42.967-5.9989 11.998-5.9989-11.998z"/><path transform="matrix(1 0 0 -1.0004 258 470.17)" d="m1.9996-3.8188e-6 8e-5 44.967h-3.9993l-9e-5 -44.966zm3.9994 42.967-5.9989 11.998-5.9989-11.998z"/><path transform="matrix(1 0 0 -1.0004 236 470.17)" d="m1.9996-3.8188e-6 8e-5 44.966h-3.9993l-9e-5 -44.966zm3.9994 42.967-5.9989 11.998-5.9989-11.998z"/><path transform="matrix(1 0 0 -1.0004 214 470.17)" d="m1.9996-3.8188e-6 8e-5 44.966h-3.9993l-9e-5 -44.966zm3.9994 42.967-5.9989 11.998-5.9989-11.998z"/><path transform="matrix(1 0 0 -1.0004 192 470.17)" d="m1.9996-3.8188e-6 8e-5 44.966h-3.9993l-9e-5 -44.966zm3.9994 42.967-5.9989 11.998-5.9989-11.998z"/><path transform="matrix(1 0 0 -1.0004 171 470.17)" d="m1.9996-3.8188e-6 8e-5 44.966h-3.9993l-9e-5 -44.966zm3.9994 42.967-5.9989 11.998-5.9989-11.998z"/><path transform="matrix(1 0 0 -1.0004 149 470.17)" d="m1.9996-3.8188e-6 8e-5 44.967h-3.9993l-9e-5 -44.966zm3.9994 42.967-5.9989 11.998-5.9989-11.998z"/><path transform="matrix(1 0 0 -1.0004 127 470.17)" d="m1.9996-3.8188e-6 8e-5 44.967h-3.9993l-9e-5 -44.966zm3.9994 42.967-5.9989 11.998-5.9989-11.998z"/><path transform="matrix(1 0 0 -1.0004 105 470.17)" d="m1.9996-3.8188e-6 8e-5 44.967h-3.9993l-9e-5 -44.966zm3.9994 42.967-5.9989 11.998-5.9989-11.998z"/><path transform="matrix(1 0 0 -1.0004 83 470.17)" d="m1.9996-3.8188e-6 8e-5 44.967h-3.9993l-9e-5 -44.966zm3.9994 42.967-5.9989 11.998-5.9989-11.998z"/><path transform="matrix(1 0 0 -1.0004 324 116.01)" d="m1.9996-3.8188e-6 8e-5 44.967h-3.9993l-9e-5 -44.966zm3.9994 42.967-5.9989 11.998-5.9989-11.998z"/><path transform="matrix(1 0 0 -1.0004 302 116.01)" d="m1.9996-3.8188e-6 8e-5 44.967h-3.9993l-9e-5 -44.966zm3.9994 42.967-5.9989 11.998-5.9989-11.998z"/><path transform="matrix(1 0 0 -1.0004 280 116.01)" d="m1.9996-3.8188e-6 8e-5 44.967h-3.9993l-9e-5 -44.966zm3.9994 42.967-5.9989 11.998-5.9989-11.998z"/><path transform="matrix(1 0 0 -1.0004 258 116.01)" d="m1.9996-3.8188e-6 8e-5 44.967h-3.9993l-9e-5 -44.966zm3.9994 42.967-5.9989 11.998-5.9989-11.998z"/><path transform="matrix(1 0 0 -1.0004 236 116.01)" d="m1.9996-3.8188e-6 8e-5 44.966h-3.9993l-9e-5 -44.966zm3.9994 42.967-5.9989 11.998-5.9989-11.998z"/><path transform="matrix(1 0 0 -1.0004 214 116.01)" d="m1.9996-3.8188e-6 8e-5 44.966h-3.9993l-9e-5 -44.966zm3.9994 42.967-5.9989 11.998-5.9989-11.998z"/><path transform="matrix(1 0 0 -1.0004 192 116.01)" d="m1.9996-3.8188e-6 8e-5 44.966h-3.9993l-9e-5 -44.966zm3.9994 42.967-5.9989 11.998-5.9989-11.998z"/><path transform="matrix(1 0 0 -1.0004 171 116.01)" d="m1.9996-3.8188e-6 8e-5 44.966h-3.9993l-9e-5 -44.966zm3.9994 42.967-5.9989 11.998-5.9989-11.998z"/><path transform="matrix(1 0 0 -1.0004 149 116.01)" d="m1.9996-3.8188e-6 8e-5 44.967h-3.9993l-9e-5 -44.966zm3.9994 42.967-5.9989 11.998-5.9989-11.998z"/><path transform="matrix(1 0 0 -1.0004 127 116.01)" d="m1.9996-3.8188e-6 8e-5 44.967h-3.9993l-9e-5 -44.966zm3.9994 42.967-5.9989 11.998-5.9989-11.998z"/><path transform="matrix(1 0 0 -1.0004 105 116.01)" d="m1.9996-3.8188e-6 8e-5 44.967h-3.9993l-9e-5 -44.966zm3.9994 42.967-5.9989 11.998-5.9989-11.998z"/><path transform="matrix(1 0 0 -1.0004 83 116.01)" d="m1.9996-3.8188e-6 8e-5 44.967h-3.9993l-9e-5 -44.966zm3.9994 42.967-5.9989 11.998-5.9989-11.998z"/><path transform="matrix(1 0 0 -1.0004 837 116.01)" d="m1.9996-3.8188e-6 8e-5 44.967h-3.9993l-9e-5 -44.966zm3.9994 42.967-5.9989 11.998-5.9989-11.998z"/><path transform="matrix(1 0 0 -1.0004 815 116.01)" d="m1.9996-3.8188e-6 8e-5 44.967h-3.9993l-9e-5 -44.966zm3.9994 42.967-5.9989 11.998-5.9989-11.998z"/><path transform="matrix(1 0 0 -1.0004 793 116.01)" d="m1.9996-3.8188e-6 8e-5 44.967h-3.9993l-9e-5 -44.966zm3.9994 42.967-5.9989 11.998-5.9989-11.998z"/><path transform="matrix(1 0 0 -1.0004 771 116.01)" d="m1.9996-3.8188e-6 8e-5 44.967h-3.9993l-9e-5 -44.966zm3.9994 42.967-5.9989 11.998-5.9989-11.998z"/><path transform="matrix(1 0 0 -1.0004 749 116.01)" d="m1.9996-3.8188e-6 8e-5 44.966h-3.9993l-9e-5 -44.966zm3.9994 42.967-5.9989 11.998-5.9989-11.998z"/><path transform="matrix(1 0 0 -1.0004 728 116.01)" d="m1.9996-3.8188e-6 8e-5 44.966h-3.9993l-9e-5 -44.966zm3.9994 42.967-5.9989 11.998-5.9989-11.998z"/><path transform="matrix(1 0 0 -1.0004 705 116.01)" d="m1.9996-3.8188e-6 8e-5 44.966h-3.9993l-9e-5 -44.966zm3.9994 42.967-5.9989 11.998-5.9989-11.998z"/><path transform="matrix(1 0 0 -1.0004 684 117.02)" d="m1.9996-3.8188e-6 8e-5 44.966h-3.9993l-9e-5 -44.966zm3.9994 42.967-5.9989 11.998-5.9989-11.998z"/><path transform="matrix(1 0 0 -1.0004 662 116.01)" d="m1.9996-3.8188e-6 8e-5 44.967h-3.9993l-9e-5 -44.966zm3.9994 42.967-5.9989 11.998-5.9989-11.998z"/><path transform="matrix(1 0 0 -1.0004 640 116.01)" d="m1.9996-3.8188e-6 8e-5 44.967h-3.9993l-9e-5 -44.966zm3.9994 42.967-5.9989 11.998-5.9989-11.998z"/><path transform="matrix(1 0 0 -1.0004 618 116.01)" d="m1.9996-3.8188e-6 8e-5 44.967h-3.9993l-9e-5 -44.966zm3.9994 42.967-5.9989 11.998-5.9989-11.998z"/><path transform="matrix(1 0 0 -1.0004 596 116.01)" d="m1.9996-3.8188e-6 8e-5 44.967h-3.9993l-9e-5 -44.966zm3.9994 42.967-5.9989 11.998-5.9989-11.998z"/></g><path d="m4 4.0017h914v665.28h-914z" fill="none" stroke="#0071c5" stroke-miterlimit="8" stroke-width="3.9993"/><path d="m135 552.24h111v26.011h-111z" fill="#fff"/><g transform="matrix(1 0 0 1.0004 138.48 573)" fill="#fc4c02" aria-label="THREADS"><path d="m5.25-11.256h-4.872v-3.444h13.692v3.444h-4.872v11.256h-3.948z"/><path d="m15.372 0v-14.7h3.948v5.565h6.321v-5.565h3.948v14.7h-3.948v-5.691h-6.321v5.691z"/><path d="m41.517-5.775 3.507 5.775h-4.599l-2.856-5.019h-2.226v5.019h-3.906v-14.7h7.182q2.898 0 4.431 1.218 1.554 1.197 1.554 3.465 0 1.554-0.777 2.625t-2.31 1.617zm-0.903-4.095q0-0.756-0.504-1.134t-1.533-0.378h-3.234v3.087h3.234q0.987 0 1.512-0.399 0.525-0.42 0.525-1.176z"/><path d="m46.2 0v-14.7h11.508v3.318h-7.56v2.31h6.972v3.318h-6.972v2.436h7.56v3.318z"/><path d="m63.294-2.625-1.029 2.625h-4.011l6.048-14.7h4.305l6.069 14.7h-4.137l-1.029-2.625zm3.108-7.938-1.806 4.62h3.612z"/><path d="m75.516 0v-14.7h5.922q3.906 0 6.132 1.953t2.226 5.376q0 3.318-2.31 5.355-2.289 2.016-6.09 2.016zm10.29-7.329q0-1.806-1.176-2.856-1.176-1.071-3.213-1.071h-1.953v7.812h1.953q2.037 0 3.213-1.029 1.176-1.05 1.176-2.856z"/><path d="m100.04-4.326q0-0.609-0.609-0.861-0.588-0.273-2.268-0.441-3.465-0.357-4.851-1.344t-1.386-3.171q0-2.163 1.743-3.507t4.683-1.344q1.743 0 3.255 0.546 1.512 0.546 2.856 1.659l-1.974 2.835q-0.966-0.777-2.121-1.218-1.134-0.441-2.184-0.441-1.155 0-1.806 0.315-0.63 0.315-0.63 0.861 0 0.588 0.63 0.84t2.394 0.42q3.297 0.315 4.683 1.344 1.407 1.029 1.407 3.234 0 2.184-1.785 3.549-1.764 1.344-4.767 1.344-2.058 0-3.822-0.588-1.764-0.609-3.234-1.806l1.911-2.877q1.323 0.945 2.667 1.428 1.344 0.462 2.646 0.462 1.239 0 1.89-0.315 0.672-0.336 0.672-0.924z"/></g><path d="m673 552.24h111v26.011h-111z" fill="#fff"/><g transform="matrix(1 0 0 1.0004 676.69 573)" fill="#fc4c02" aria-label="THREADS"><path d="m5.25-11.256h-4.872v-3.444h13.692v3.444h-4.872v11.256h-3.948z"/><path d="m15.372 0v-14.7h3.948v5.565h6.321v-5.565h3.948v14.7h-3.948v-5.691h-6.321v5.691z"/><path d="m41.517-5.775 3.507 5.775h-4.599l-2.856-5.019h-2.226v5.019h-3.906v-14.7h7.182q2.898 0 4.431 1.218 1.554 1.197 1.554 3.465 0 1.554-0.777 2.625t-2.31 1.617zm-0.903-4.095q0-0.756-0.504-1.134t-1.533-0.378h-3.234v3.087h3.234q0.987 0 1.512-0.399 0.525-0.42 0.525-1.176z"/><path d="m46.2 0v-14.7h11.508v3.318h-7.56v2.31h6.972v3.318h-6.972v2.436h7.56v3.318z"/><path d="m63.294-2.625-1.029 2.625h-4.011l6.048-14.7h4.305l6.069 14.7h-4.137l-1.029-2.625zm3.108-7.938-1.806 4.62h3.612z"/><path d="m75.516 0v-14.7h5.922q3.906 0 6.132 1.953t2.226 5.376q0 3.318-2.31 5.355-2.289 2.016-6.09 2.016zm10.29-7.329q0-1.806-1.176-2.856-1.176-1.071-3.213-1.071h-1.953v7.812h1.953q2.037 0 3.213-1.029 1.176-1.05 1.176-2.856z"/><path d="m100.04-4.326q0-0.609-0.609-0.861-0.588-0.273-2.268-0.441-3.465-0.357-4.851-1.344t-1.386-3.171q0-2.163 1.743-3.507t4.683-1.344q1.743 0 3.255 0.546 1.512 0.546 2.856 1.659l-1.974 2.835q-0.966-0.777-2.121-1.218-1.134-0.441-2.184-0.441-1.155 0-1.806 0.315-0.63 0.315-0.63 0.861 0 0.588 0.63 0.84t2.394 0.42q3.297 0.315 4.683 1.344 1.407 1.029 1.407 3.234 0 2.184-1.785 3.549-1.764 1.344-4.767 1.344-2.058 0-3.822-0.588-1.764-0.609-3.234-1.806l1.911-2.877q1.323 0.945 2.667 1.428 1.344 0.462 2.646 0.462 1.239 0 1.89-0.315 0.672-0.336 0.672-0.924z"/></g></g></svg>
