<?xml version="1.0" encoding="UTF-8"?>
<svg width="917" height="672" overflow="hidden" version="1.1" xmlns="http://www.w3.org/2000/svg"><defs><clipPath id="clip0"><rect width="917" height="672"/></clipPath></defs><g clip-path="url(#clip0)"><path d="m0 0h917v671.88h-917z" fill="#fff"/><path d="m31.5 24.496h134v572.9h-134z" fill="#00aeef" stroke="#0071c5" stroke-miterlimit="8" stroke-width="3.0006"/><g transform="matrix(1 0 0 .99982 38.97 625)" fill="#0071c5" aria-label="INFERENCE REQUEST"><path d="m0.987 0v-14.7h3.948v14.7z"/><path d="m10.647-8.799v8.799h-3.801v-14.7h3.99l6.447 8.799v-8.799h3.801v14.7h-3.99z"/><path d="m22.932 0v-14.7h11.319v3.318h-7.371v2.625h6.762v3.318h-6.762v5.439z"/><path d="m35.553 0v-14.7h11.508v3.318h-7.56v2.31h6.972v3.318h-6.972v2.436h7.56v3.318z"/><path d="m58.695-5.775 3.507 5.775h-4.599l-2.856-5.019h-2.226v5.019h-3.906v-14.7h7.182q2.898 0 4.431 1.218 1.554 1.197 1.554 3.465 0 1.554-0.777 2.625t-2.31 1.617zm-0.903-4.095q0-0.756-0.504-1.134t-1.533-0.378h-3.234v3.087h3.234q0.987 0 1.512-0.399 0.525-0.42 0.525-1.176z"/><path d="m63.378 0v-14.7h11.508v3.318h-7.56v2.31h6.972v3.318h-6.972v2.436h7.56v3.318z"/><path d="m80.241-8.799v8.799h-3.801v-14.7h3.99l6.447 8.799v-8.799h3.801v14.7h-3.99z"/><path d="m96.033-7.371q0 1.848 1.113 3.087 1.134 1.239 2.835 1.239 1.092 0 2.016-0.567 0.945-0.588 1.596-1.659l2.877 1.806q-0.903 1.722-2.688 2.772-1.764 1.029-3.906 1.029-3.465 0-5.649-2.142-2.184-2.163-2.184-5.523 0-3.297 2.268-5.502 2.289-2.205 5.733-2.205 2.205 0 3.843 0.945t2.583 2.793l-3.024 1.89q-0.714-1.197-1.512-1.722t-1.953-0.525q-1.764 0-2.856 1.197t-1.092 3.087z"/><path d="m107.79 0v-14.7h11.508v3.318h-7.56v2.31h6.972v3.318h-6.972v2.436h7.56v3.318z"/><path d="m20.839 19.229 3.507 5.775h-4.599l-2.856-5.019h-2.226v5.019h-3.906v-14.7h7.182q2.898 0 4.431 1.218 1.554 1.197 1.554 3.465 0 1.554-0.777 2.625t-2.31 1.617zm-0.903-4.095q0-0.756-0.504-1.134t-1.533-0.378h-3.234v3.087h3.234q0.987 0 1.512-0.399 0.525-0.42 0.525-1.176z"/><path d="m25.522 25.004v-14.7h11.508v3.318h-7.56v2.31h6.972v3.318h-6.972v2.436h7.56v3.318z"/><path d="m37.996 17.675q0-3.318 2.226-5.502 2.247-2.205 5.649-2.205t5.607 2.184q2.226 2.184 2.226 5.481 0 2.835-1.701 4.914-1.68 2.079-4.431 2.625 0.042 0.462 0.336 0.672t0.903 0.21h1.26v2.73h-1.47q-2.289 0-3.381-0.882-1.071-0.861-1.071-2.709-2.772-0.546-4.473-2.604-1.68-2.079-1.68-4.914zm3.99-0.042q0 1.869 1.092 3.108 1.113 1.218 2.793 1.218t2.751-1.197q1.092-1.218 1.092-3.087t-1.113-3.087q-1.092-1.239-2.772-1.239t-2.772 1.218q-1.071 1.197-1.071 3.066z"/><path d="m62.104 21.959q1.47 0 2.331-0.924t0.861-2.499v-8.232h3.948v8.274q0 3.087-1.974 4.935-1.974 1.827-5.271 1.827-3.213 0-5.145-1.827-1.911-1.848-1.911-4.935v-8.274h3.948v8.232q0 1.575 0.882 2.499t2.331 0.924z"/><path d="m70.966 25.004v-14.7h11.508v3.318h-7.56v2.31h6.972v3.318h-6.972v2.436h7.56v3.318z"/><path d="m93.121 20.678q0-0.609-0.609-0.861-0.588-0.273-2.268-0.441-3.465-0.357-4.851-1.344t-1.386-3.171q0-2.163 1.743-3.507t4.683-1.344q1.743 0 3.255 0.546t2.856 1.659l-1.974 2.835q-0.966-0.777-2.121-1.218-1.134-0.441-2.184-0.441-1.155 0-1.806 0.315-0.63 0.315-0.63 0.861 0 0.588 0.63 0.84t2.394 0.42q3.297 0.315 4.683 1.344 1.407 1.029 1.407 3.234 0 2.184-1.785 3.549-1.764 1.344-4.767 1.344-2.058 0-3.822-0.588-1.764-0.609-3.234-1.806l1.911-2.877q1.323 0.945 2.667 1.428 1.344 0.462 2.646 0.462 1.239 0 1.89-0.315 0.672-0.336 0.672-0.924z"/><path d="m102.32 13.748h-4.872v-3.444h13.692v3.444h-4.872v11.256h-3.948z"/></g><g transform="matrix(1.0002 0 0 .99964 91.06 64)" fill="#fff" aria-label="INPUTIMAGE"><path d="m1.175 0v-17.5h4.7v17.5z"/><path d="m-0.375 31.54v10.475h-4.525v-17.5h4.75l7.675 10.475v-10.475h4.525v17.5h-4.75z"/><path d="m-2.9 83.03v-17.5h8.6q3.2 0 5.075 1.625t1.875 4.375q0 2.725-2.025 4.425-2 1.675-5.2 1.675h-3.625v5.4zm10.8-11.45q0-0.925-0.6-1.425-0.6-0.525-1.675-0.525h-3.825v3.95h3.725q1.1 0 1.725-0.525 0.65-0.55 0.65-1.475z"/><path d="m3.475 121.42q1.75 0 2.775-1.1t1.025-2.975v-9.8h4.7v9.85q0 3.675-2.35 5.875-2.35 2.175-6.275 2.175-3.825 0-6.125-2.175-2.275-2.2-2.275-5.875v-9.85h4.7v9.8q0 1.875 1.05 2.975t2.775 1.1z"/><path d="m2.25 153.66h-5.8v-4.1h16.3v4.1h-5.8v13.4h-4.7z"/><path d="m1.175 228.08v-17.5h4.7v17.5z"/><path d="m7.675 252.6h6.975v17.5h-4.65v-12.425l-3.775 8.175h-3.875l-3.6-8.025v12.275h-4.65v-17.5h6.975l3.225 7.525z"/><path d="m0.89999 307.99-1.225 3.125h-4.775l7.2-17.5h5.125l7.225 17.5h-4.925l-1.225-3.125zm3.7-9.45-2.15 5.5h4.3z"/><path d="m4.05 339.23q-2 0-3.4 1.475-1.375 1.475-1.375 3.65 0 2.3 1.325 3.75 1.325 1.425 3.425 1.425 1.625 0 2.65-0.675t1.45-2h-4.9v-3.7h9.425q0.05 0.3 0.075 0.725 0.05 0.425 0.05 0.8 0 4.075-2.4 6.475-2.4 2.375-6.55 2.375-4.05 0-6.675-2.575t-2.625-6.55q0-3.95 2.725-6.55 2.75-2.625 6.825-2.625 2.45 0 4.45 1 2.025 1 3.125 2.725l-3.2 2.625q-0.85-1.2-1.95-1.775-1.075-0.575-2.45-0.575z"/><path d="m-2.9 394.14v-17.5h13.7v3.95h-9v2.75h8.3v3.95h-8.3v2.9h9v3.95z"/></g><path d="m17 9.9982h164v652.88h-164z" fill="none" stroke="#0068b5" stroke-miterlimit="8" stroke-width="4.0007"/><path d="m210.5 24.496h135v572.9h-135z" fill="#00aeef" stroke="#0071c5" stroke-miterlimit="8" stroke-width="3.0006"/><g transform="matrix(1 0 0 .99982 218.52 625)" fill="#0071c5" aria-label="INFERENCE REQUEST"><path d="m0.987 0v-14.7h3.948v14.7z"/><path d="m10.647-8.799v8.799h-3.801v-14.7h3.99l6.447 8.799v-8.799h3.801v14.7h-3.99z"/><path d="m22.932 0v-14.7h11.319v3.318h-7.371v2.625h6.762v3.318h-6.762v5.439z"/><path d="m35.553 0v-14.7h11.508v3.318h-7.56v2.31h6.972v3.318h-6.972v2.436h7.56v3.318z"/><path d="m58.695-5.775 3.507 5.775h-4.599l-2.856-5.019h-2.226v5.019h-3.906v-14.7h7.182q2.898 0 4.431 1.218 1.554 1.197 1.554 3.465 0 1.554-0.777 2.625t-2.31 1.617zm-0.903-4.095q0-0.756-0.504-1.134t-1.533-0.378h-3.234v3.087h3.234q0.987 0 1.512-0.399 0.525-0.42 0.525-1.176z"/><path d="m63.378 0v-14.7h11.508v3.318h-7.56v2.31h6.972v3.318h-6.972v2.436h7.56v3.318z"/><path d="m80.241-8.799v8.799h-3.801v-14.7h3.99l6.447 8.799v-8.799h3.801v14.7h-3.99z"/><path d="m96.033-7.371q0 1.848 1.113 3.087 1.134 1.239 2.835 1.239 1.092 0 2.016-0.567 0.945-0.588 1.596-1.659l2.877 1.806q-0.903 1.722-2.688 2.772-1.764 1.029-3.906 1.029-3.465 0-5.649-2.142-2.184-2.163-2.184-5.523 0-3.297 2.268-5.502 2.289-2.205 5.733-2.205 2.205 0 3.843 0.945t2.583 2.793l-3.024 1.89q-0.714-1.197-1.512-1.722t-1.953-0.525q-1.764 0-2.856 1.197t-1.092 3.087z"/><path d="m107.79 0v-14.7h11.508v3.318h-7.56v2.31h6.972v3.318h-6.972v2.436h7.56v3.318z"/><path d="m20.839 19.229 3.507 5.775h-4.599l-2.856-5.019h-2.226v5.019h-3.906v-14.7h7.182q2.898 0 4.431 1.218 1.554 1.197 1.554 3.465 0 1.554-0.777 2.625t-2.31 1.617zm-0.903-4.095q0-0.756-0.504-1.134t-1.533-0.378h-3.234v3.087h3.234q0.987 0 1.512-0.399 0.525-0.42 0.525-1.176z"/><path d="m25.522 25.004v-14.7h11.508v3.318h-7.56v2.31h6.972v3.318h-6.972v2.436h7.56v3.318z"/><path d="m37.996 17.675q0-3.318 2.226-5.502 2.247-2.205 5.649-2.205t5.607 2.184q2.226 2.184 2.226 5.481 0 2.835-1.701 4.914-1.68 2.079-4.431 2.625 0.042 0.462 0.336 0.672t0.903 0.21h1.26v2.73h-1.47q-2.289 0-3.381-0.882-1.071-0.861-1.071-2.709-2.772-0.546-4.473-2.604-1.68-2.079-1.68-4.914zm3.99-0.042q0 1.869 1.092 3.108 1.113 1.218 2.793 1.218t2.751-1.197q1.092-1.218 1.092-3.087t-1.113-3.087q-1.092-1.239-2.772-1.239t-2.772 1.218q-1.071 1.197-1.071 3.066z"/><path d="m62.104 21.959q1.47 0 2.331-0.924t0.861-2.499v-8.232h3.948v8.274q0 3.087-1.974 4.935-1.974 1.827-5.271 1.827-3.213 0-5.145-1.827-1.911-1.848-1.911-4.935v-8.274h3.948v8.232q0 1.575 0.882 2.499t2.331 0.924z"/><path d="m70.966 25.004v-14.7h11.508v3.318h-7.56v2.31h6.972v3.318h-6.972v2.436h7.56v3.318z"/><path d="m93.121 20.678q0-0.609-0.609-0.861-0.588-0.273-2.268-0.441-3.465-0.357-4.851-1.344t-1.386-3.171q0-2.163 1.743-3.507t4.683-1.344q1.743 0 3.255 0.546t2.856 1.659l-1.974 2.835q-0.966-0.777-2.121-1.218-1.134-0.441-2.184-0.441-1.155 0-1.806 0.315-0.63 0.315-0.63 0.861 0 0.588 0.63 0.84t2.394 0.42q3.297 0.315 4.683 1.344 1.407 1.029 1.407 3.234 0 2.184-1.785 3.549-1.764 1.344-4.767 1.344-2.058 0-3.822-0.588-1.764-0.609-3.234-1.806l1.911-2.877q1.323 0.945 2.667 1.428 1.344 0.462 2.646 0.462 1.239 0 1.89-0.315 0.672-0.336 0.672-0.924z"/><path d="m102.32 13.748h-4.872v-3.444h13.692v3.444h-4.872v11.256h-3.948z"/></g><g transform="matrix(1.0002 0 0 .99964 270.61 64)" fill="#fff" aria-label="INPUTIMAGE"><path d="m1.175 0v-17.5h4.7v17.5z"/><path d="m-0.37501 31.54v10.475h-4.525v-17.5h4.75l7.675 10.475v-10.475h4.525v17.5h-4.75z"/><path d="m-2.9 83.03v-17.5h8.6q3.2 0 5.075 1.625t1.875 4.375q0 2.725-2.025 4.425-2 1.675-5.2 1.675h-3.625v5.4zm10.8-11.45q0-0.925-0.6-1.425-0.6-0.525-1.675-0.525h-3.825v3.95h3.725q1.1 0 1.725-0.525 0.65-0.55 0.65-1.475z"/><path d="m3.475 121.42q1.75 0 2.775-1.1t1.025-2.975v-9.8h4.7v9.85q0 3.675-2.35 5.875-2.35 2.175-6.275 2.175-3.825 0-6.125-2.175-2.275-2.2-2.275-5.875v-9.85h4.7v9.8q0 1.875 1.05 2.975 1.05 1.1 2.775 1.1z"/><path d="m2.25 153.66h-5.8v-4.1h16.3v4.1h-5.8v13.4h-4.7z"/><path d="m1.175 228.08v-17.5h4.7v17.5z"/><path d="m7.675 252.6h6.975v17.5h-4.65v-12.425l-3.775 8.175h-3.875l-3.6-8.025v12.275h-4.65v-17.5h6.975l3.225 7.525z"/><path d="m0.89999 307.99-1.225 3.125h-4.775l7.2-17.5h5.125l7.225 17.5h-4.925l-1.225-3.125zm3.7-9.45-2.15 5.5h4.3z"/><path d="m4.05 339.23q-2 0-3.4 1.475-1.375 1.475-1.375 3.65 0 2.3 1.325 3.75 1.325 1.425 3.425 1.425 1.625 0 2.65-0.675t1.45-2h-4.9v-3.7h9.425q0.05 0.3 0.075 0.725 0.05 0.425 0.05 0.8 0 4.075-2.4 6.475-2.4 2.375-6.55 2.375-4.05 0-6.675-2.575-2.625-2.575-2.625-6.55 0-3.95 2.725-6.55 2.75-2.625 6.825-2.625 2.45 0 4.45 1 2.025 1 3.125 2.725l-3.2 2.625q-0.85-1.2-1.95-1.775-1.075-0.575-2.45-0.575z"/><path d="m-2.9 394.14v-17.5h13.7v3.95h-9v2.75h8.3v3.95h-8.3v2.9h9v3.95z"/></g><path d="m197 9.9982h163v652.88h-163z" fill="none" stroke="#0068b5" stroke-miterlimit="8" stroke-width="4.0007"/><path d="m391.5 24.496h134v572.9h-134z" fill="#00aeef" stroke="#0071c5" stroke-miterlimit="8" stroke-width="3.0006"/><g transform="matrix(1 0 0 .99982 399.04 625)" fill="#0071c5" aria-label="INFERENCE REQUEST"><path d="m0.987 0v-14.7h3.948v14.7z"/><path d="m10.647-8.799v8.799h-3.801v-14.7h3.99l6.447 8.799v-8.799h3.801v14.7h-3.99z"/><path d="m22.932 0v-14.7h11.319v3.318h-7.371v2.625h6.762v3.318h-6.762v5.439z"/><path d="m35.553 0v-14.7h11.508v3.318h-7.56v2.31h6.972v3.318h-6.972v2.436h7.56v3.318z"/><path d="m58.695-5.775 3.507 5.775h-4.599l-2.856-5.019h-2.226v5.019h-3.906v-14.7h7.182q2.898 0 4.431 1.218 1.554 1.197 1.554 3.465 0 1.554-0.777 2.625t-2.31 1.617zm-0.903-4.095q0-0.756-0.504-1.134t-1.533-0.378h-3.234v3.087h3.234q0.987 0 1.512-0.399 0.525-0.42 0.525-1.176z"/><path d="m63.378 0v-14.7h11.508v3.318h-7.56v2.31h6.972v3.318h-6.972v2.436h7.56v3.318z"/><path d="m80.241-8.799v8.799h-3.801v-14.7h3.99l6.447 8.799v-8.799h3.801v14.7h-3.99z"/><path d="m96.033-7.371q0 1.848 1.113 3.087 1.134 1.239 2.835 1.239 1.092 0 2.016-0.567 0.945-0.588 1.596-1.659l2.877 1.806q-0.903 1.722-2.688 2.772-1.764 1.029-3.906 1.029-3.465 0-5.649-2.142-2.184-2.163-2.184-5.523 0-3.297 2.268-5.502 2.289-2.205 5.733-2.205 2.205 0 3.843 0.945t2.583 2.793l-3.024 1.89q-0.714-1.197-1.512-1.722t-1.953-0.525q-1.764 0-2.856 1.197t-1.092 3.087z"/><path d="m107.79 0v-14.7h11.508v3.318h-7.56v2.31h6.972v3.318h-6.972v2.436h7.56v3.318z"/><path d="m20.839 19.229 3.507 5.775h-4.599l-2.856-5.019h-2.226v5.019h-3.906v-14.7h7.182q2.898 0 4.431 1.218 1.554 1.197 1.554 3.465 0 1.554-0.777 2.625t-2.31 1.617zm-0.903-4.095q0-0.756-0.504-1.134t-1.533-0.378h-3.234v3.087h3.234q0.987 0 1.512-0.399 0.525-0.42 0.525-1.176z"/><path d="m25.522 25.004v-14.7h11.508v3.318h-7.56v2.31h6.972v3.318h-6.972v2.436h7.56v3.318z"/><path d="m37.996 17.675q0-3.318 2.226-5.502 2.247-2.205 5.649-2.205t5.607 2.184q2.226 2.184 2.226 5.481 0 2.835-1.701 4.914-1.68 2.079-4.431 2.625 0.042 0.462 0.336 0.672t0.903 0.21h1.26v2.73h-1.47q-2.289 0-3.381-0.882-1.071-0.861-1.071-2.709-2.772-0.546-4.473-2.604-1.68-2.079-1.68-4.914zm3.99-0.042q0 1.869 1.092 3.108 1.113 1.218 2.793 1.218t2.751-1.197q1.092-1.218 1.092-3.087t-1.113-3.087q-1.092-1.239-2.772-1.239t-2.772 1.218q-1.071 1.197-1.071 3.066z"/><path d="m62.104 21.959q1.47 0 2.331-0.924t0.861-2.499v-8.232h3.948v8.274q0 3.087-1.974 4.935-1.974 1.827-5.271 1.827-3.213 0-5.145-1.827-1.911-1.848-1.911-4.935v-8.274h3.948v8.232q0 1.575 0.882 2.499t2.331 0.924z"/><path d="m70.966 25.004v-14.7h11.508v3.318h-7.56v2.31h6.972v3.318h-6.972v2.436h7.56v3.318z"/><path d="m93.121 20.678q0-0.609-0.609-0.861-0.588-0.273-2.268-0.441-3.465-0.357-4.851-1.344t-1.386-3.171q0-2.163 1.743-3.507t4.683-1.344q1.743 0 3.255 0.546t2.856 1.659l-1.974 2.835q-0.966-0.777-2.121-1.218-1.134-0.441-2.184-0.441-1.155 0-1.806 0.315-0.63 0.315-0.63 0.861 0 0.588 0.63 0.84t2.394 0.42q3.297 0.315 4.683 1.344 1.407 1.029 1.407 3.234 0 2.184-1.785 3.549-1.764 1.344-4.767 1.344-2.058 0-3.822-0.588-1.764-0.609-3.234-1.806l1.911-2.877q1.323 0.945 2.667 1.428 1.344 0.462 2.646 0.462 1.239 0 1.89-0.315 0.672-0.336 0.672-0.924z"/><path d="m102.32 13.748h-4.872v-3.444h13.692v3.444h-4.872v11.256h-3.948z"/></g><g transform="matrix(1.0002 0 0 .99964 451.12 64)" fill="#fff" aria-label="INPUTIMAGE"><path d="m1.175 0v-17.5h4.7v17.5z"/><path d="m-0.37498 31.54v10.475h-4.525v-17.5h4.75l7.675 10.475v-10.475h4.525v17.5h-4.75z"/><path d="m-2.9 83.03v-17.5h8.6q3.2 0 5.075 1.625t1.875 4.375q0 2.725-2.025 4.425-2 1.675-5.2 1.675h-3.625v5.4zm10.8-11.45q0-0.925-0.6-1.425-0.6-0.525-1.675-0.525h-3.825v3.95h3.725q1.1 0 1.725-0.525 0.65-0.55 0.65-1.475z"/><path d="m3.475 121.42q1.75 0 2.775-1.1t1.025-2.975v-9.8h4.7v9.85q0 3.675-2.35 5.875-2.35 2.175-6.275 2.175-3.825 0-6.125-2.175-2.275-2.2-2.275-5.875v-9.85h4.7v9.8q0 1.875 1.05 2.975 1.05 1.1 2.775 1.1z"/><path d="m2.25 153.66h-5.8v-4.1h16.3v4.1h-5.8v13.4h-4.7z"/><path d="m1.175 228.08v-17.5h4.7v17.5z"/><path d="m7.675 252.6h6.975v17.5h-4.65v-12.425l-3.775 8.175h-3.875l-3.6-8.025v12.275h-4.65v-17.5h6.975l3.225 7.525z"/><path d="m0.89999 307.99-1.225 3.125h-4.775l7.2-17.5h5.125l7.225 17.5h-4.925l-1.225-3.125zm3.7-9.45-2.15 5.5h4.3z"/><path d="m4.05 339.23q-2 0-3.4 1.475-1.375 1.475-1.375 3.65 0 2.3 1.325 3.75 1.325 1.425 3.425 1.425 1.625 0 2.65-0.675t1.45-2h-4.9v-3.7h9.425q0.05 0.3 0.075 0.725 0.05 0.425 0.05 0.8 0 4.075-2.4 6.475-2.4 2.375-6.55 2.375-4.05 0-6.675-2.575-2.625-2.575-2.625-6.55 0-3.95 2.725-6.55 2.75-2.625 6.825-2.625 2.45 0 4.45 1 2.025 1 3.125 2.725l-3.2 2.625q-0.85-1.2-1.95-1.775-1.075-0.575-2.45-0.575z"/><path d="m-2.9 394.14v-17.5h13.7v3.95h-9v2.75h8.3v3.95h-8.3v2.9h9v3.95z"/></g><path d="m377 9.9982h164v652.88h-164z" fill="none" stroke="#0068b5" stroke-miterlimit="8" stroke-width="4.0007"/><path d="m571.5 24.496h134v572.9h-134z" fill="#00aeef" stroke="#0071c5" stroke-miterlimit="8" stroke-width="3.0006"/><g transform="matrix(1 0 0 .99982 578.88 625)" fill="#0071c5" aria-label="INFERENCE REQUEST"><path d="m0.987 0v-14.7h3.948v14.7z"/><path d="m10.647-8.799v8.799h-3.801v-14.7h3.99l6.447 8.799v-8.799h3.801v14.7h-3.99z"/><path d="m22.932 0v-14.7h11.319v3.318h-7.371v2.625h6.762v3.318h-6.762v5.439z"/><path d="m35.553 0v-14.7h11.508v3.318h-7.56v2.31h6.972v3.318h-6.972v2.436h7.56v3.318z"/><path d="m58.695-5.775 3.507 5.775h-4.599l-2.856-5.019h-2.226v5.019h-3.906v-14.7h7.182q2.898 0 4.431 1.218 1.554 1.197 1.554 3.465 0 1.554-0.777 2.625t-2.31 1.617zm-0.903-4.095q0-0.756-0.504-1.134t-1.533-0.378h-3.234v3.087h3.234q0.987 0 1.512-0.399 0.525-0.42 0.525-1.176z"/><path d="m63.378 0v-14.7h11.508v3.318h-7.56v2.31h6.972v3.318h-6.972v2.436h7.56v3.318z"/><path d="m80.241-8.799v8.799h-3.801v-14.7h3.99l6.447 8.799v-8.799h3.801v14.7h-3.99z"/><path d="m96.033-7.371q0 1.848 1.113 3.087 1.134 1.239 2.835 1.239 1.092 0 2.016-0.567 0.945-0.588 1.596-1.659l2.877 1.806q-0.903 1.722-2.688 2.772-1.764 1.029-3.906 1.029-3.465 0-5.649-2.142-2.184-2.163-2.184-5.523 0-3.297 2.268-5.502 2.289-2.205 5.733-2.205 2.205 0 3.843 0.945t2.583 2.793l-3.024 1.89q-0.714-1.197-1.512-1.722t-1.953-0.525q-1.764 0-2.856 1.197t-1.092 3.087z"/><path d="m107.79 0v-14.7h11.508v3.318h-7.56v2.31h6.972v3.318h-6.972v2.436h7.56v3.318z"/><path d="m20.839 19.229 3.507 5.775h-4.599l-2.856-5.019h-2.226v5.019h-3.906v-14.7h7.182q2.898 0 4.431 1.218 1.554 1.197 1.554 3.465 0 1.554-0.777 2.625t-2.31 1.617zm-0.903-4.095q0-0.756-0.504-1.134t-1.533-0.378h-3.234v3.087h3.234q0.987 0 1.512-0.399 0.525-0.42 0.525-1.176z"/><path d="m25.522 25.004v-14.7h11.508v3.318h-7.56v2.31h6.972v3.318h-6.972v2.436h7.56v3.318z"/><path d="m37.996 17.675q0-3.318 2.226-5.502 2.247-2.205 5.649-2.205t5.607 2.184q2.226 2.184 2.226 5.481 0 2.835-1.701 4.914-1.68 2.079-4.431 2.625 0.042 0.462 0.336 0.672t0.903 0.21h1.26v2.73h-1.47q-2.289 0-3.381-0.882-1.071-0.861-1.071-2.709-2.772-0.546-4.473-2.604-1.68-2.079-1.68-4.914zm3.99-0.042q0 1.869 1.092 3.108 1.113 1.218 2.793 1.218t2.751-1.197q1.092-1.218 1.092-3.087t-1.113-3.087q-1.092-1.239-2.772-1.239t-2.772 1.218q-1.071 1.197-1.071 3.066z"/><path d="m62.104 21.959q1.47 0 2.331-0.924t0.861-2.499v-8.232h3.948v8.274q0 3.087-1.974 4.935-1.974 1.827-5.271 1.827-3.213 0-5.145-1.827-1.911-1.848-1.911-4.935v-8.274h3.948v8.232q0 1.575 0.882 2.499t2.331 0.924z"/><path d="m70.966 25.004v-14.7h11.508v3.318h-7.56v2.31h6.972v3.318h-6.972v2.436h7.56v3.318z"/><path d="m93.121 20.678q0-0.609-0.609-0.861-0.588-0.273-2.268-0.441-3.465-0.357-4.851-1.344t-1.386-3.171q0-2.163 1.743-3.507t4.683-1.344q1.743 0 3.255 0.546t2.856 1.659l-1.974 2.835q-0.966-0.777-2.121-1.218-1.134-0.441-2.184-0.441-1.155 0-1.806 0.315-0.63 0.315-0.63 0.861 0 0.588 0.63 0.84t2.394 0.42q3.297 0.315 4.683 1.344 1.407 1.029 1.407 3.234 0 2.184-1.785 3.549-1.764 1.344-4.767 1.344-2.058 0-3.822-0.588-1.764-0.609-3.234-1.806l1.911-2.877q1.323 0.945 2.667 1.428 1.344 0.462 2.646 0.462 1.239 0 1.89-0.315 0.672-0.336 0.672-0.924z"/><path d="m102.32 13.748h-4.872v-3.444h13.692v3.444h-4.872v11.256h-3.948z"/></g><g transform="matrix(1.0002 0 0 .99964 630.97 64)" fill="#fff" aria-label="INPUTIMAGE"><path d="m1.175 0v-17.5h4.7v17.5z"/><path d="m-0.37501 31.54v10.475h-4.525v-17.5h4.75l7.675 10.475v-10.475h4.525v17.5h-4.75z"/><path d="m-2.9 83.03v-17.5h8.6q3.2 0 5.075 1.625t1.875 4.375q0 2.725-2.025 4.425-2 1.675-5.2 1.675h-3.625v5.4zm10.8-11.45q0-0.925-0.6-1.425-0.6-0.525-1.675-0.525h-3.825v3.95h3.725q1.1 0 1.725-0.525 0.65-0.55 0.65-1.475z"/><path d="m3.475 121.42q1.75 0 2.775-1.1t1.025-2.975v-9.8h4.7v9.85q0 3.675-2.35 5.875-2.35 2.175-6.275 2.175-3.825 0-6.125-2.175-2.275-2.2-2.275-5.875v-9.85h4.7v9.8q0 1.875 1.05 2.975 1.05 1.1 2.775 1.1z"/><path d="m2.25 153.66h-5.8v-4.1h16.3v4.1h-5.8v13.4h-4.7z"/><path d="m1.175 228.08v-17.5h4.7v17.5z"/><path d="m7.675 252.6h6.975v17.5h-4.65v-12.425l-3.775 8.175h-3.875l-3.6-8.025v12.275h-4.65v-17.5h6.975l3.225 7.525z"/><path d="m0.89999 307.99-1.225 3.125h-4.775l7.2-17.5h5.125l7.225 17.5h-4.925l-1.225-3.125zm3.7-9.45-2.15 5.5h4.3z"/><path d="m4.05 339.23q-2 0-3.4 1.475-1.375 1.475-1.375 3.65 0 2.3 1.325 3.75 1.325 1.425 3.425 1.425 1.625 0 2.65-0.675t1.45-2h-4.9v-3.7h9.425q0.05 0.3 0.075 0.725 0.05 0.425 0.05 0.8 0 4.075-2.4 6.475-2.4 2.375-6.55 2.375-4.05 0-6.675-2.575-2.625-2.575-2.625-6.55 0-3.95 2.725-6.55 2.75-2.625 6.825-2.625 2.45 0 4.45 1 2.025 1 3.125 2.725l-3.2 2.625q-0.85-1.2-1.95-1.775-1.075-0.575-2.45-0.575z"/><path d="m-2.9 394.14v-17.5h13.7v3.95h-9v2.75h8.3v3.95h-8.3v2.9h9v3.95z"/></g><path d="m557 9.9982h163v652.88h-163z" fill="none" stroke="#0068b5" stroke-miterlimit="8" stroke-width="4.0007"/><path d="m751.5 24.496h134v572.9h-134z" fill="#00aeef" stroke="#0071c5" stroke-miterlimit="8" stroke-width="3.0006"/><g transform="matrix(1 0 0 .99982 759.1 625)" fill="#0071c5" aria-label="INFERENCE REQUEST"><path d="m0.987 0v-14.7h3.948v14.7z"/><path d="m10.647-8.799v8.799h-3.801v-14.7h3.99l6.447 8.799v-8.799h3.801v14.7h-3.99z"/><path d="m22.932 0v-14.7h11.319v3.318h-7.371v2.625h6.762v3.318h-6.762v5.439z"/><path d="m35.553 0v-14.7h11.508v3.318h-7.56v2.31h6.972v3.318h-6.972v2.436h7.56v3.318z"/><path d="m58.695-5.775 3.507 5.775h-4.599l-2.856-5.019h-2.226v5.019h-3.906v-14.7h7.182q2.898 0 4.431 1.218 1.554 1.197 1.554 3.465 0 1.554-0.777 2.625t-2.31 1.617zm-0.903-4.095q0-0.756-0.504-1.134t-1.533-0.378h-3.234v3.087h3.234q0.987 0 1.512-0.399 0.525-0.42 0.525-1.176z"/><path d="m63.378 0v-14.7h11.508v3.318h-7.56v2.31h6.972v3.318h-6.972v2.436h7.56v3.318z"/><path d="m80.241-8.799v8.799h-3.801v-14.7h3.99l6.447 8.799v-8.799h3.801v14.7h-3.99z"/><path d="m96.033-7.371q0 1.848 1.113 3.087 1.134 1.239 2.835 1.239 1.092 0 2.016-0.567 0.945-0.588 1.596-1.659l2.877 1.806q-0.903 1.722-2.688 2.772-1.764 1.029-3.906 1.029-3.465 0-5.649-2.142-2.184-2.163-2.184-5.523 0-3.297 2.268-5.502 2.289-2.205 5.733-2.205 2.205 0 3.843 0.945t2.583 2.793l-3.024 1.89q-0.714-1.197-1.512-1.722t-1.953-0.525q-1.764 0-2.856 1.197t-1.092 3.087z"/><path d="m107.79 0v-14.7h11.508v3.318h-7.56v2.31h6.972v3.318h-6.972v2.436h7.56v3.318z"/><path d="m20.839 19.229 3.507 5.775h-4.599l-2.856-5.019h-2.226v5.019h-3.906v-14.7h7.182q2.898 0 4.431 1.218 1.554 1.197 1.554 3.465 0 1.554-0.777 2.625t-2.31 1.617zm-0.903-4.095q0-0.756-0.504-1.134t-1.533-0.378h-3.234v3.087h3.234q0.987 0 1.512-0.399 0.525-0.42 0.525-1.176z"/><path d="m25.522 25.004v-14.7h11.508v3.318h-7.56v2.31h6.972v3.318h-6.972v2.436h7.56v3.318z"/><path d="m37.996 17.675q0-3.318 2.226-5.502 2.247-2.205 5.649-2.205t5.607 2.184q2.226 2.184 2.226 5.481 0 2.835-1.701 4.914-1.68 2.079-4.431 2.625 0.042 0.462 0.336 0.672t0.903 0.21h1.26v2.73h-1.47q-2.289 0-3.381-0.882-1.071-0.861-1.071-2.709-2.772-0.546-4.473-2.604-1.68-2.079-1.68-4.914zm3.99-0.042q0 1.869 1.092 3.108 1.113 1.218 2.793 1.218t2.751-1.197q1.092-1.218 1.092-3.087t-1.113-3.087q-1.092-1.239-2.772-1.239t-2.772 1.218q-1.071 1.197-1.071 3.066z"/><path d="m62.104 21.959q1.47 0 2.331-0.924t0.861-2.499v-8.232h3.948v8.274q0 3.087-1.974 4.935-1.974 1.827-5.271 1.827-3.213 0-5.145-1.827-1.911-1.848-1.911-4.935v-8.274h3.948v8.232q0 1.575 0.882 2.499t2.331 0.924z"/><path d="m70.966 25.004v-14.7h11.508v3.318h-7.56v2.31h6.972v3.318h-6.972v2.436h7.56v3.318z"/><path d="m93.121 20.678q0-0.609-0.609-0.861-0.588-0.273-2.268-0.441-3.465-0.357-4.851-1.344t-1.386-3.171q0-2.163 1.743-3.507t4.683-1.344q1.743 0 3.255 0.546t2.856 1.659l-1.974 2.835q-0.966-0.777-2.121-1.218-1.134-0.441-2.184-0.441-1.155 0-1.806 0.315-0.63 0.315-0.63 0.861 0 0.588 0.63 0.84t2.394 0.42q3.297 0.315 4.683 1.344 1.407 1.029 1.407 3.234 0 2.184-1.785 3.549-1.764 1.344-4.767 1.344-2.058 0-3.822-0.588-1.764-0.609-3.234-1.806l1.911-2.877q1.323 0.945 2.667 1.428 1.344 0.462 2.646 0.462 1.239 0 1.89-0.315 0.672-0.336 0.672-0.924z"/><path d="m102.32 13.748h-4.872v-3.444h13.692v3.444h-4.872v11.256h-3.948z"/></g><g transform="matrix(1.0002 0 0 .99964 811.19 64)" fill="#fff" aria-label="INPUTIMAGE"><path d="m1.175 0v-17.5h4.7v17.5z"/><path d="m-0.37501 31.54v10.475h-4.525v-17.5h4.75l7.675 10.475v-10.475h4.525v17.5h-4.75z"/><path d="m-2.9 83.03v-17.5h8.6q3.2 0 5.075 1.625t1.875 4.375q0 2.725-2.025 4.425-2 1.675-5.2 1.675h-3.625v5.4zm10.8-11.45q0-0.925-0.6-1.425-0.6-0.525-1.675-0.525h-3.825v3.95h3.725q1.1 0 1.725-0.525 0.65-0.55 0.65-1.475z"/><path d="m3.475 121.42q1.75 0 2.775-1.1t1.025-2.975v-9.8h4.7v9.85q0 3.675-2.35 5.875-2.35 2.175-6.275 2.175-3.825 0-6.125-2.175-2.275-2.2-2.275-5.875v-9.85h4.7v9.8q0 1.875 1.05 2.975 1.05 1.1 2.775 1.1z"/><path d="m2.25 153.66h-5.8v-4.1h16.3v4.1h-5.8v13.4h-4.7z"/><path d="m1.175 228.08v-17.5h4.7v17.5z"/><path d="m7.675 252.6h6.975v17.5h-4.65v-12.425l-3.775 8.175h-3.875l-3.6-8.025v12.275h-4.65v-17.5h6.975l3.225 7.525z"/><path d="m0.89999 307.99-1.225 3.125h-4.775l7.2-17.5h5.125l7.225 17.5h-4.925l-1.225-3.125zm3.7-9.45-2.15 5.5h4.3z"/><path d="m4.05 339.23q-2 0-3.4 1.475-1.375 1.475-1.375 3.65 0 2.3 1.325 3.75 1.325 1.425 3.425 1.425 1.625 0 2.65-0.675t1.45-2h-4.9v-3.7h9.425q0.05 0.3 0.075 0.725 0.05 0.425 0.05 0.8 0 4.075-2.4 6.475-2.4 2.375-6.55 2.375-4.05 0-6.675-2.575-2.625-2.575-2.625-6.55 0-3.95 2.725-6.55 2.75-2.625 6.825-2.625 2.45 0 4.45 1 2.025 1 3.125 2.725l-3.2 2.625q-0.85-1.2-1.95-1.775-1.075-0.575-2.45-0.575z"/><path d="m-2.9 394.14v-17.5h13.7v3.95h-9v2.75h8.3v3.95h-8.3v2.9h9v3.95z"/></g><path d="m737 9.9982h164v652.88h-164z" fill="none" stroke="#0068b5" stroke-miterlimit="8" stroke-width="4.0007"/><g fill="#FC4C02" fill-rule="evenodd" stroke="#fff" stroke-miterlimit="8" stroke-width="3.0006"><path d="m62.5 498.92 11.5-23.503 11.5 23.503h-5.7499v89.476h-11.5v-89.476z"/><path d="m106.5 499.94 12-24.525 12 24.525h-6v88.454h-12v-88.454z"/><path d="m245.5 498.92 11.5-23.503 11.5 23.503h-5.75v89.476h-11.5v-89.476z"/><path d="m289.5 498.92 11.5-23.503 11.5 23.503h-5.75v89.476h-11.5v-89.476z"/><path d="m422.5 499.94 12-24.525 12 24.525h-6v88.454h-12v-88.454z"/><path d="m466.5 499.94 12-24.525 12 24.525h-6v88.454h-12v-88.454z"/><path d="m604.5 499.94 12-24.525 12 24.525h-6v88.454h-12v-88.454z"/><path d="m649.5 498.92 11.5-23.503 11.5 23.503h-5.75v89.476h-11.5v-89.476z"/><path d="m784.5 498.92 11.5-23.503 11.5 23.503h-5.75v89.476h-11.5v-89.476z"/><path d="m828.5 498.92 11.5-23.503 11.5 23.503h-5.75v89.476h-11.5v-89.476z"/></g></g></svg>
