<svg width="922" height="673" xmlns="http://www.w3.org/2000/svg" xmlns:xlink="http://www.w3.org/1999/xlink" overflow="hidden"><defs><clipPath id="clip0"><rect x="0" y="0" width="922" height="673"/></clipPath></defs><g clip-path="url(#clip0)"><rect x="0" y="0" width="922" height="673.288" fill="#FFFFFF"/><rect x="4.00001" y="4.00173" width="914" height="665.285" stroke="#0071C5" stroke-width="3.99928" stroke-miterlimit="8" fill="none"/><path d="M1.99964-3.57669e-06 1.99973 48.6868-1.99955 48.6868-1.99964 3.57669e-06ZM5.999 46.6872 0.000104968 58.685-5.99883 46.6872Z" fill="#FC4C02" transform="matrix(1 0 0 -1.00043 96 612.948)"/><path d="M1.99964-3.57669e-06 1.99973 48.6868-1.99955 48.6868-1.99964 3.57669e-06ZM5.999 46.6872 0.000104968 58.685-5.99883 46.6872Z" fill="#FC4C02" transform="matrix(1 0 0 -1.00043 70.0001 612.948)"/><path d="M1.99964-3.57669e-06 1.99973 48.6868-1.99955 48.6868-1.99964 3.57669e-06ZM5.999 46.6872 0.000104968 58.685-5.99883 46.6872Z" fill="#FC4C02" transform="matrix(1 0 0 -1.00043 96 488.894)"/><path d="M1.99964-3.57669e-06 1.99973 48.6868-1.99955 48.6868-1.99964 3.57669e-06ZM5.999 46.6872 0.000104968 58.685-5.99883 46.6872Z" fill="#FC4C02" transform="matrix(1 0 0 -1.00043 70.0001 488.894)"/><path d="M1.99964-3.57669e-06 1.99973 48.6868-1.99955 48.6868-1.99964 3.57669e-06ZM5.999 46.6872 0.000104968 58.685-5.99883 46.6872Z" fill="#FC4C02" transform="matrix(1 0 0 -1.00043 96 362.84)"/><path d="M1.99964-3.57669e-06 1.99973 48.6868-1.99955 48.6868-1.99964 3.57669e-06ZM5.999 46.6872 0.000104968 58.685-5.99883 46.6872Z" fill="#FC4C02" transform="matrix(1 0 0 -1.00043 70.0001 362.84)"/><path d="M1.99964-3.57669e-06 1.99973 48.6868-1.99955 48.6868-1.99964 3.57669e-06ZM5.999 46.6872 0.000104968 58.685-5.99883 46.6872Z" fill="#FC4C02" transform="matrix(1 0 0 -1.00043 96 236.786)"/><path d="M1.99964-3.57669e-06 1.99973 48.6868-1.99955 48.6868-1.99964 3.57669e-06ZM5.999 46.6872 0.000104968 58.685-5.99883 46.6872Z" fill="#FC4C02" transform="matrix(1 0 0 -1.00043 70.0001 236.786)"/><path d="M1.99964-3.57669e-06 1.99973 48.6868-1.99955 48.6868-1.99964 3.57669e-06ZM5.999 46.6872 0.000104968 58.685-5.99883 46.6872Z" fill="#FC4C02" transform="matrix(1 0 0 -1.00043 96 109.732)"/><path d="M1.99964-3.57669e-06 1.99973 48.6868-1.99955 48.6868-1.99964 3.57669e-06ZM5.999 46.6872 0.000104968 58.685-5.99883 46.6872Z" fill="#FC4C02" transform="matrix(1 0 0 -1.00043 70.0001 109.732)"/><path d="M1.99964-3.57669e-06 1.99973 48.6868-1.99955 48.6868-1.99964 3.57669e-06ZM5.999 46.6872 0.000104968 58.685-5.99883 46.6872Z" fill="#FC4C02" transform="matrix(1 0 0 -1.00043 285 612.948)"/><path d="M1.99964-3.57669e-06 1.99973 48.6868-1.99955 48.6868-1.99964 3.57669e-06ZM5.999 46.6872 0.000104968 58.685-5.99883 46.6872Z" fill="#FC4C02" transform="matrix(1 0 0 -1.00043 259 612.948)"/><path d="M1.99964-3.57669e-06 1.99973 48.6868-1.99955 48.6868-1.99964 3.57669e-06ZM5.999 46.6872 0.000104968 58.685-5.99883 46.6872Z" fill="#FC4C02" transform="matrix(1 0 0 -1.00043 285 488.894)"/><path d="M1.99964-3.57669e-06 1.99973 48.6868-1.99955 48.6868-1.99964 3.57669e-06ZM5.999 46.6872 0.000104968 58.685-5.99883 46.6872Z" fill="#FC4C02" transform="matrix(1 0 0 -1.00043 259 488.894)"/><path d="M1.99964-3.57669e-06 1.99973 48.6868-1.99955 48.6868-1.99964 3.57669e-06ZM5.999 46.6872 0.000104968 58.685-5.99883 46.6872Z" fill="#FC4C02" transform="matrix(1 0 0 -1.00043 285 362.84)"/><path d="M1.99964-3.57669e-06 1.99973 48.6868-1.99955 48.6868-1.99964 3.57669e-06ZM5.999 46.6872 0.000104968 58.685-5.99883 46.6872Z" fill="#FC4C02" transform="matrix(1 0 0 -1.00043 259 362.84)"/><path d="M1.99964-3.57669e-06 1.99973 48.6868-1.99955 48.6868-1.99964 3.57669e-06ZM5.999 46.6872 0.000104968 58.685-5.99883 46.6872Z" fill="#FC4C02" transform="matrix(1 0 0 -1.00043 285 237.787)"/><path d="M1.99964-3.57669e-06 1.99973 48.6868-1.99955 48.6868-1.99964 3.57669e-06ZM5.999 46.6872 0.000104968 58.685-5.99883 46.6872Z" fill="#FC4C02" transform="matrix(1 0 0 -1.00043 260 236.786)"/><path d="M1.99964-3.57669e-06 1.99973 48.6868-1.99955 48.6868-1.99964 3.57669e-06ZM5.999 46.6872 0.000104968 58.685-5.99883 46.6872Z" fill="#FC4C02" transform="matrix(1 0 0 -1.00043 286 110.733)"/><path d="M1.99964-3.57669e-06 1.99973 48.6868-1.99955 48.6868-1.99964 3.57669e-06ZM5.999 46.6872 0.000104968 58.685-5.99883 46.6872Z" fill="#FC4C02" transform="matrix(1 0 0 -1.00043 260 109.732)"/><rect x="54" y="552.237" width="247" height="64.0275" stroke="#0071C5" stroke-width="3.99928" stroke-miterlimit="8" fill="none"/><path d="M3.99928-7.15337e-06 3.99935 38.6886-3.99921 38.6887-3.99928 7.15337e-06ZM11.9979 34.6894 0.000104968 58.685-11.9978 34.6894Z" fill="#0071C5" transform="matrix(1 0 0 -1.00043 177 551.921)"/><rect x="54" y="428.183" width="247" height="64.0274" stroke="#0071C5" stroke-width="3.99928" stroke-miterlimit="8" fill="none"/><rect x="54" y="302.129" width="247" height="65.0279" stroke="#0071C5" stroke-width="3.99928" stroke-miterlimit="8" fill="none"/><text fill="#0071C5" font-family="Arial,Arial_MSFontService,sans-serif" font-weight="700" font-size="37" transform="matrix(1 0 0 1.00043 116.182 346)">LAYER</text><rect x="54" y="176.075" width="247" height="65.0279" stroke="#0071C5" stroke-width="3.99928" stroke-miterlimit="8" fill="none"/><rect x="54" y="50.0214" width="247" height="64.0274" stroke="#0071C5" stroke-width="3.99928" stroke-miterlimit="8" fill="none"/><text fill="#0071C5" font-family="Arial,Arial_MSFontService,sans-serif" font-weight="700" font-size="37" transform="matrix(1 0 0 1.00043 115.936 471)">LAYER<tspan font-size="37" x="-1.08474" y="124.946">LAYER</tspan></text><path d="M3.99928-7.15337e-06 3.99935 38.6886-3.99921 38.6887-3.99928 7.15337e-06ZM11.9979 34.6894 0.000104968 58.685-11.9978 34.6894Z" fill="#0071C5" transform="matrix(1 0 0 -1.00043 177 426.868)"/><path d="M3.99928-7.15337e-06 3.99935 38.6886-3.99921 38.6887-3.99928 7.15337e-06ZM11.9979 34.6894 0.000104968 58.685-11.9978 34.6894Z" fill="#0071C5" transform="matrix(1 0 0 -1.00043 177 300.814)"/><path d="M3.99928-7.15337e-06 3.99935 38.6886-3.99921 38.6887-3.99928 7.15337e-06ZM11.9979 34.6894 0.000104968 58.685-11.9978 34.6894Z" fill="#0071C5" transform="matrix(1 0 0 -1.00043 177 174.76)"/><text fill="#0071C5" font-family="Arial,Arial_MSFontService,sans-serif" font-weight="700" font-size="19" transform="matrix(1 0 0 1.00043 85.947 640)">USER’S INFERENCE <tspan font-size="19" x="46.2383" y="22.9901">REQUEST</tspan></text><rect x="567.5" y="608.761" width="4" height="5.0022" stroke="#0068B5" stroke-width="1.33309" stroke-miterlimit="8" fill="#0068B5"/><rect x="608.5" y="608.761" width="4" height="5.0022" stroke="#0068B5" stroke-width="1.33309" stroke-miterlimit="8" fill="#0068B5"/><rect x="588.5" y="608.761" width="4" height="5.0022" stroke="#0068B5" stroke-width="1.33309" stroke-miterlimit="8" fill="#0068B5"/><path d="M1.99964-3.57669e-06 1.99973 48.6868-1.99955 48.6868-1.99964 3.57669e-06ZM5.999 46.6872 0.000104968 58.685-5.99883 46.6872Z" fill="#FC4C02" transform="matrix(1 0 0 -1.00043 354 612.948)"/><path d="M1.99964-3.57669e-06 1.99973 48.6868-1.99955 48.6868-1.99964 3.57669e-06ZM5.999 46.6872 0.000104968 58.685-5.99883 46.6872Z" fill="#FC4C02" transform="matrix(1 0 0 -1.00043 328 612.948)"/><path d="M1.99964-3.57669e-06 1.99973 48.6868-1.99955 48.6868-1.99964 3.57669e-06ZM5.999 46.6872 0.000104968 58.685-5.99883 46.6872Z" fill="#FC4C02" transform="matrix(1 0 0 -1.00043 354 488.894)"/><path d="M1.99964-3.57669e-06 1.99973 48.6868-1.99955 48.6868-1.99964 3.57669e-06ZM5.999 46.6872 0.000104968 58.685-5.99883 46.6872Z" fill="#FC4C02" transform="matrix(1 0 0 -1.00043 328 488.894)"/><path d="M1.99964-3.57669e-06 1.99973 48.6868-1.99955 48.6868-1.99964 3.57669e-06ZM5.999 46.6872 0.000104968 58.685-5.99883 46.6872Z" fill="#FC4C02" transform="matrix(1 0 0 -1.00043 354 363.841)"/><path d="M1.99964-3.57669e-06 1.99973 48.6868-1.99955 48.6868-1.99964 3.57669e-06ZM5.999 46.6872 0.000104968 58.685-5.99883 46.6872Z" fill="#FC4C02" transform="matrix(1 0 0 -1.00043 328 363.841)"/><path d="M1.99964-3.57669e-06 1.99973 48.6868-1.99955 48.6868-1.99964 3.57669e-06ZM5.999 46.6872 0.000104968 58.685-5.99883 46.6872Z" fill="#FC4C02" transform="matrix(1 0 0 -1.00043 354 237.787)"/><path d="M1.99964-3.57669e-06 1.99973 48.6868-1.99955 48.6868-1.99964 3.57669e-06ZM5.999 46.6872 0.000104968 58.685-5.99883 46.6872Z" fill="#FC4C02" transform="matrix(1 0 0 -1.00043 328 237.787)"/><path d="M1.99964-3.57669e-06 1.99973 48.6868-1.99955 48.6868-1.99964 3.57669e-06ZM5.999 46.6872 0.000104968 58.685-5.99883 46.6872Z" fill="#FC4C02" transform="matrix(1 0 0 -1.00043 355 110.733)"/><path d="M1.99964-3.57669e-06 1.99973 48.6868-1.99955 48.6868-1.99964 3.57669e-06ZM5.999 46.6872 0.000104968 58.685-5.99883 46.6872Z" fill="#FC4C02" transform="matrix(1 0 0 -1.00043 329 110.733)"/><path d="M1.99964-3.57669e-06 1.99973 48.6868-1.99955 48.6868-1.99964 3.57669e-06ZM5.999 46.6872 0.000104968 58.685-5.99883 46.6872Z" fill="#FC4C02" transform="matrix(1 0 0 -1.00043 543 612.948)"/><path d="M1.99964-3.57669e-06 1.99973 48.6868-1.99955 48.6868-1.99964 3.57669e-06ZM5.999 46.6872 0.000104968 58.685-5.99883 46.6872Z" fill="#FC4C02" transform="matrix(1 0 0 -1.00043 517 612.948)"/><path d="M1.99964-3.57669e-06 1.99973 48.6868-1.99955 48.6868-1.99964 3.57669e-06ZM5.999 46.6872 0.000104968 58.685-5.99883 46.6872Z" fill="#FC4C02" transform="matrix(1 0 0 -1.00043 543 488.894)"/><path d="M1.99964-3.57669e-06 1.99973 48.6868-1.99955 48.6868-1.99964 3.57669e-06ZM5.999 46.6872 0.000104968 58.685-5.99883 46.6872Z" fill="#FC4C02" transform="matrix(1 0 0 -1.00043 517 488.894)"/><path d="M1.99964-3.57669e-06 1.99973 48.6868-1.99955 48.6868-1.99964 3.57669e-06ZM5.999 46.6872 0.000104968 58.685-5.99883 46.6872Z" fill="#FC4C02" transform="matrix(1 0 0 -1.00043 543 363.841)"/><path d="M1.99964-3.57669e-06 1.99973 48.6868-1.99955 48.6868-1.99964 3.57669e-06ZM5.999 46.6872 0.000104968 58.685-5.99883 46.6872Z" fill="#FC4C02" transform="matrix(1 0 0 -1.00043 518 363.841)"/><path d="M1.99964-3.57669e-06 1.99973 48.6868-1.99955 48.6868-1.99964 3.57669e-06ZM5.999 46.6872 0.000104968 58.685-5.99883 46.6872Z" fill="#FC4C02" transform="matrix(1 0 0 -1.00043 544 237.787)"/><path d="M1.99964-3.57669e-06 1.99973 48.6868-1.99955 48.6868-1.99964 3.57669e-06ZM5.999 46.6872 0.000104968 58.685-5.99883 46.6872Z" fill="#FC4C02" transform="matrix(1 0 0 -1.00043 518 237.787)"/><path d="M1.99964-3.57669e-06 1.99973 48.6868-1.99955 48.6868-1.99964 3.57669e-06ZM5.999 46.6872 0.000104968 58.685-5.99883 46.6872Z" fill="#FC4C02" transform="matrix(1 0 0 -1.00043 544 110.733)"/><path d="M1.99964-3.57669e-06 1.99973 48.6868-1.99955 48.6868-1.99964 3.57669e-06ZM5.999 46.6872 0.000104968 58.685-5.99883 46.6872Z" fill="#FC4C02" transform="matrix(1 0 0 -1.00043 518 110.733)"/><rect x="312" y="552.237" width="248" height="65.0279" stroke="#0071C5" stroke-width="3.99928" stroke-miterlimit="8" fill="none"/><path d="M3.99928-7.15337e-06 3.99935 38.6886-3.99921 38.6887-3.99928 7.15337e-06ZM11.9979 34.6894 0.000104968 58.685-11.9978 34.6894Z" fill="#0071C5" transform="matrix(1 0 0 -1.00043 435 552.922)"/><rect x="312" y="428.183" width="248" height="64.0274" stroke="#0071C5" stroke-width="3.99928" stroke-miterlimit="8" fill="none"/><rect x="312" y="303.13" width="248" height="64.0274" stroke="#0071C5" stroke-width="3.99928" stroke-miterlimit="8" fill="none"/><rect x="312" y="177.076" width="248" height="64.0274" stroke="#0071C5" stroke-width="3.99928" stroke-miterlimit="8" fill="none"/><rect x="312" y="50.0214" width="248" height="64.0274" stroke="#0071C5" stroke-width="3.99928" stroke-miterlimit="8" fill="none"/><path d="M3.99928-7.15337e-06 3.99935 38.6886-3.99921 38.6887-3.99928 7.15337e-06ZM11.9979 34.6894 0.000104968 58.685-11.9978 34.6894Z" fill="#0071C5" transform="matrix(1 0 0 -1.00043 435 426.868)"/><path d="M3.99928-7.15337e-06 3.99935 38.6886-3.99921 38.6887-3.99928 7.15337e-06ZM11.9979 34.6894 0.000104968 58.685-11.9978 34.6894Z" fill="#0071C5" transform="matrix(1 0 0 -1.00043 435 301.814)"/><path d="M3.99928-7.15337e-06 3.99935 38.6886-3.99921 38.6887-3.99928 7.15337e-06ZM11.9979 34.6894 0.000104968 58.685-11.9978 34.6894Z" fill="#0071C5" transform="matrix(1 0 0 -1.00043 435 174.76)"/><text fill="#0071C5" font-family="Arial,Arial_MSFontService,sans-serif" font-weight="700" font-size="19" transform="matrix(1 0 0 1.00043 344.218 641)">USER’S INFERENCE <tspan font-size="19" x="46.2383" y="22.9901">REQUEST</tspan></text><path d="M1.99964-3.57669e-06 1.99973 48.6868-1.99955 48.6868-1.99964 3.57669e-06ZM5.999 46.6872 0.000104968 58.685-5.99883 46.6872Z" fill="#FC4C02" transform="matrix(1 0 0 -1.00043 663 612.948)"/><path d="M1.99964-3.57669e-06 1.99973 48.6868-1.99955 48.6868-1.99964 3.57669e-06ZM5.999 46.6872 0.000104968 58.685-5.99883 46.6872Z" fill="#FC4C02" transform="matrix(1 0 0 -1.00043 637 612.948)"/><path d="M1.99964-3.57669e-06 1.99973 48.6868-1.99955 48.6868-1.99964 3.57669e-06ZM5.999 46.6872 0.000104968 58.685-5.99883 46.6872Z" fill="#FC4C02" transform="matrix(1 0 0 -1.00043 663 488.894)"/><path d="M1.99964-3.57669e-06 1.99973 48.6868-1.99955 48.6868-1.99964 3.57669e-06ZM5.999 46.6872 0.000104968 58.685-5.99883 46.6872Z" fill="#FC4C02" transform="matrix(1 0 0 -1.00043 637 488.894)"/><path d="M1.99964-3.57669e-06 1.99973 48.6868-1.99955 48.6868-1.99964 3.57669e-06ZM5.999 46.6872 0.000104968 58.685-5.99883 46.6872Z" fill="#FC4C02" transform="matrix(1 0 0 -1.00043 663 362.84)"/><path d="M1.99964-3.57669e-06 1.99973 48.6868-1.99955 48.6868-1.99964 3.57669e-06ZM5.999 46.6872 0.000104968 58.685-5.99883 46.6872Z" fill="#FC4C02" transform="matrix(1 0 0 -1.00043 637 362.84)"/><path d="M1.99964-3.57669e-06 1.99973 48.6868-1.99955 48.6868-1.99964 3.57669e-06ZM5.999 46.6872 0.000104968 58.685-5.99883 46.6872Z" fill="#FC4C02" transform="matrix(1 0 0 -1.00043 663 236.786)"/><path d="M1.99964-3.57669e-06 1.99973 48.6868-1.99955 48.6868-1.99964 3.57669e-06ZM5.999 46.6872 0.000104968 58.685-5.99883 46.6872Z" fill="#FC4C02" transform="matrix(1 0 0 -1.00043 637 236.786)"/><path d="M1.99964-3.57669e-06 1.99973 48.6868-1.99955 48.6868-1.99964 3.57669e-06ZM5.999 46.6872 0.000104968 58.685-5.99883 46.6872Z" fill="#FC4C02" transform="matrix(1 0 0 -1.00043 664 109.732)"/><path d="M1.99964-3.57669e-06 1.99973 48.6868-1.99955 48.6868-1.99964 3.57669e-06ZM5.999 46.6872 0.000104968 58.685-5.99883 46.6872Z" fill="#FC4C02" transform="matrix(1 0 0 -1.00043 638 109.732)"/><path d="M1.99964-3.57669e-06 1.99973 48.6868-1.99955 48.6868-1.99964 3.57669e-06ZM5.999 46.6872 0.000104968 58.685-5.99883 46.6872Z" fill="#FC4C02" transform="matrix(1 0 0 -1.00043 852 612.948)"/><path d="M1.99964-3.57669e-06 1.99973 48.6868-1.99955 48.6868-1.99964 3.57669e-06ZM5.999 46.6872 0.000104968 58.685-5.99883 46.6872Z" fill="#FC4C02" transform="matrix(1 0 0 -1.00043 826 612.948)"/><path d="M1.99964-3.57669e-06 1.99973 48.6868-1.99955 48.6868-1.99964 3.57669e-06ZM5.999 46.6872 0.000104968 58.685-5.99883 46.6872Z" fill="#FC4C02" transform="matrix(1 0 0 -1.00043 852 488.894)"/><path d="M1.99964-3.57669e-06 1.99973 48.6868-1.99955 48.6868-1.99964 3.57669e-06ZM5.999 46.6872 0.000104968 58.685-5.99883 46.6872Z" fill="#FC4C02" transform="matrix(1 0 0 -1.00043 826 488.894)"/><path d="M1.99964-3.57669e-06 1.99973 48.6868-1.99955 48.6868-1.99964 3.57669e-06ZM5.999 46.6872 0.000104968 58.685-5.99883 46.6872Z" fill="#FC4C02" transform="matrix(1 0 0 -1.00043 853 362.84)"/><path d="M1.99964-3.57669e-06 1.99973 48.6868-1.99955 48.6868-1.99964 3.57669e-06ZM5.999 46.6872 0.000104968 58.685-5.99883 46.6872Z" fill="#FC4C02" transform="matrix(1 0 0 -1.00043 827 362.84)"/><path d="M1.99964-3.57669e-06 1.99973 48.6868-1.99955 48.6868-1.99964 3.57669e-06ZM5.999 46.6872 0.000104968 58.685-5.99883 46.6872Z" fill="#FC4C02" transform="matrix(1 0 0 -1.00043 853 237.787)"/><path d="M1.99964-3.57669e-06 1.99973 48.6868-1.99955 48.6868-1.99964 3.57669e-06ZM5.999 46.6872 0.000104968 58.685-5.99883 46.6872Z" fill="#FC4C02" transform="matrix(1 0 0 -1.00043 827 236.786)"/><path d="M1.99964-3.57669e-06 1.99973 48.6868-1.99955 48.6868-1.99964 3.57669e-06ZM5.999 46.6872 0.000104968 58.685-5.99883 46.6872Z" fill="#FC4C02" transform="matrix(1 0 0 -1.00043 853 110.733)"/><path d="M1.99964-3.57669e-06 1.99973 48.6868-1.99955 48.6868-1.99964 3.57669e-06ZM5.999 46.6872 0.000104968 58.685-5.99883 46.6872Z" fill="#FC4C02" transform="matrix(1 0 0 -1.00043 827 109.732)"/><rect x="621" y="552.237" width="248" height="64.0275" stroke="#0071C5" stroke-width="3.99928" stroke-miterlimit="8" fill="none"/><path d="M3.99928-7.15337e-06 3.99935 38.6886-3.99921 38.6887-3.99928 7.15337e-06ZM11.9979 34.6894 0.000104968 58.685-11.9978 34.6894Z" fill="#0071C5" transform="matrix(1 0 0 -1.00043 745 551.921)"/><rect x="621" y="428.183" width="248" height="64.0274" stroke="#0071C5" stroke-width="3.99928" stroke-miterlimit="8" fill="none"/><rect x="621" y="302.129" width="248" height="65.0279" stroke="#0071C5" stroke-width="3.99928" stroke-miterlimit="8" fill="none"/><rect x="621" y="176.075" width="248" height="65.0279" stroke="#0071C5" stroke-width="3.99928" stroke-miterlimit="8" fill="none"/><rect x="621" y="50.0214" width="248" height="64.0274" stroke="#0071C5" stroke-width="3.99928" stroke-miterlimit="8" fill="none"/><path d="M3.99928-7.15337e-06 3.99935 38.6886-3.99921 38.6887-3.99928 7.15337e-06ZM11.9979 34.6894 0.000104968 58.685-11.9978 34.6894Z" fill="#0071C5" transform="matrix(1 0 0 -1.00043 744 426.868)"/><path d="M3.99928-7.15337e-06 3.99935 38.6886-3.99921 38.6887-3.99928 7.15337e-06ZM11.9979 34.6894 0.000104968 58.685-11.9978 34.6894Z" fill="#0071C5" transform="matrix(1 0 0 -1.00043 744 300.814)"/><path d="M3.99928-7.15337e-06 3.99935 38.6886-3.99921 38.6887-3.99928 7.15337e-06ZM11.9979 34.6894 0.000104968 58.685-11.9978 34.6894Z" fill="#0071C5" transform="matrix(1 0 0 -1.00043 745 174.76)"/><text fill="#0071C5" font-family="Arial,Arial_MSFontService,sans-serif" font-weight="700" font-size="19" transform="matrix(1 0 0 1.00043 653.253 640)">USER’S INFERENCE <tspan font-size="19" x="46.2383" y="22.9901">REQUEST</tspan><tspan font-size="37" x="-537.071" y="-418.82">LAYER</tspan><tspan font-size="37" x="-537.071" y="-545.766">LAYER</tspan><tspan font-size="37" x="-278.655" y="-545.766">LAYER</tspan><tspan font-size="37" x="-279.79" y="-418.82">LAYER</tspan><tspan font-size="37" x="-280.925" y="-292.874">LAYER</tspan><tspan font-size="37" x="-282.06" y="-167.928">LAYER</tspan><tspan font-size="37" x="-283.195" y="-43.9812">LAYER</tspan><tspan font-size="37" x="29.384" y="-545.766">LAYER</tspan><tspan font-size="37" x="30.2231" y="-418.82">LAYER</tspan><tspan font-size="37" x="31.0622" y="-292.874">LAYER</tspan><tspan font-size="37" x="31.9013" y="-167.928">LAYER</tspan><tspan font-size="37" x="32.7404" y="-43.9812">LAYER</tspan></text></g></svg>