<svg width="922" height="673" xmlns="http://www.w3.org/2000/svg" xmlns:xlink="http://www.w3.org/1999/xlink" overflow="hidden"><defs><clipPath id="clip0"><rect x="0" y="0" width="922" height="673"/></clipPath></defs><g clip-path="url(#clip0)"><rect x="0" y="0" width="922" height="673.288" fill="#FFFFFF"/><text fill="#0071C5" font-family="Arial,Arial_MSFontService,sans-serif" font-weight="700" font-size="27" transform="matrix(1 0 0 1.00043 262.091 640)">USER’S INFERENCE REQUEST</text><path d="M1.99964-3.81878e-06 1.99972 44.9665-1.99955 44.9665-1.99964 3.81878e-06ZM5.999 42.9668 0.000104968 54.9647-5.99883 42.9668Z" fill="#FC4C02" transform="matrix(1 0 0 -1.00043 324 588.217)"/><path d="M1.99964-3.81878e-06 1.99972 44.9665-1.99955 44.9665-1.99964 3.81878e-06ZM5.999 42.9668 0.000104968 54.9647-5.99883 42.9668Z" fill="#FC4C02" transform="matrix(1 0 0 -1.00043 302 588.217)"/><path d="M1.99964-3.81878e-06 1.99972 44.9665-1.99955 44.9665-1.99964 3.81878e-06ZM5.999 42.9668 0.000104968 54.9647-5.99883 42.9668Z" fill="#FC4C02" transform="matrix(1 0 0 -1.00043 280 588.217)"/><path d="M1.99964-3.81878e-06 1.99972 44.9665-1.99955 44.9665-1.99964 3.81878e-06ZM5.999 42.9668 0.000104968 54.9647-5.99883 42.9668Z" fill="#FC4C02" transform="matrix(1 0 0 -1.00043 258 588.217)"/><path d="M1.99964-3.81879e-06 1.99972 44.9664-1.99955 44.9664-1.99964 3.81879e-06ZM5.999 42.9667 0.000104968 54.9646-5.99883 42.9667Z" fill="#FC4C02" transform="matrix(1 0 0 -1.00043 236 588.217)"/><path d="M1.99964-3.81879e-06 1.99972 44.9664-1.99955 44.9664-1.99964 3.81879e-06ZM5.999 42.9667 0.000104968 54.9646-5.99883 42.9667Z" fill="#FC4C02" transform="matrix(1 0 0 -1.00043 214 588.217)"/><path d="M1.99964-3.81879e-06 1.99972 44.9664-1.99955 44.9664-1.99964 3.81879e-06ZM5.999 42.9667 0.000104968 54.9646-5.99883 42.9667Z" fill="#FC4C02" transform="matrix(1 0 0 -1.00043 192 588.217)"/><path d="M1.99964-3.81879e-06 1.99972 44.9664-1.99955 44.9664-1.99964 3.81879e-06ZM5.999 42.9667 0.000104968 54.9646-5.99883 42.9667Z" fill="#FC4C02" transform="matrix(1 0 0 -1.00043 171 588.217)"/><path d="M1.99964-3.81878e-06 1.99972 44.9665-1.99955 44.9665-1.99964 3.81878e-06ZM5.999 42.9668 0.000104968 54.9647-5.99883 42.9668Z" fill="#FC4C02" transform="matrix(1 0 0 -1.00043 149 588.217)"/><path d="M1.99964-3.81878e-06 1.99972 44.9665-1.99955 44.9665-1.99964 3.81878e-06ZM5.999 42.9668 0.000104968 54.9647-5.99883 42.9668Z" fill="#FC4C02" transform="matrix(1 0 0 -1.00043 127 588.217)"/><path d="M1.99964-3.81878e-06 1.99972 44.9665-1.99955 44.9665-1.99964 3.81878e-06ZM5.999 42.9668 0.000104968 54.9647-5.99883 42.9668Z" fill="#FC4C02" transform="matrix(1 0 0 -1.00043 105 588.217)"/><path d="M1.99964-3.81878e-06 1.99972 44.9665-1.99955 44.9665-1.99964 3.81878e-06ZM5.999 42.9668 0.000104968 54.9647-5.99883 42.9668Z" fill="#FC4C02" transform="matrix(1 0 0 -1.00043 83 588.217)"/><path d="M1.99964-3.81878e-06 1.99972 44.9665-1.99955 44.9665-1.99964 3.81878e-06ZM5.999 42.9668 0.000104968 54.9647-5.99883 42.9668Z" fill="#FC4C02" transform="matrix(1 0 0 -1.00043 837 588.217)"/><path d="M1.99964-3.81878e-06 1.99972 44.9665-1.99955 44.9665-1.99964 3.81878e-06ZM5.999 42.9668 0.000104968 54.9647-5.99883 42.9668Z" fill="#FC4C02" transform="matrix(1 0 0 -1.00043 815 588.217)"/><path d="M1.99964-3.81878e-06 1.99972 44.9665-1.99955 44.9665-1.99964 3.81878e-06ZM5.999 42.9668 0.000104968 54.9647-5.99883 42.9668Z" fill="#FC4C02" transform="matrix(1 0 0 -1.00043 793 588.217)"/><path d="M1.99964-3.81878e-06 1.99972 44.9665-1.99955 44.9665-1.99964 3.81878e-06ZM5.999 42.9668 0.000104968 54.9647-5.99883 42.9668Z" fill="#FC4C02" transform="matrix(1 0 0 -1.00043 771 588.217)"/><path d="M1.99964-3.81879e-06 1.99972 44.9664-1.99955 44.9664-1.99964 3.81879e-06ZM5.999 42.9667 0.000104968 54.9646-5.99883 42.9667Z" fill="#FC4C02" transform="matrix(1 0 0 -1.00043 749 588.217)"/><path d="M1.99964-3.81879e-06 1.99972 44.9664-1.99955 44.9664-1.99964 3.81879e-06ZM5.999 42.9667 0.000104968 54.9646-5.99883 42.9667Z" fill="#FC4C02" transform="matrix(1 0 0 -1.00043 728 588.217)"/><path d="M1.99964-3.81879e-06 1.99972 44.9664-1.99955 44.9664-1.99964 3.81879e-06ZM5.999 42.9667 0.000104968 54.9646-5.99883 42.9667Z" fill="#FC4C02" transform="matrix(1 0 0 -1.00043 705 588.217)"/><path d="M1.99964-3.81879e-06 1.99972 44.9664-1.99955 44.9664-1.99964 3.81879e-06ZM5.999 42.9667 0.000104968 54.9646-5.99883 42.9667Z" fill="#FC4C02" transform="matrix(1 0 0 -1.00043 684 588.217)"/><path d="M1.99964-3.81878e-06 1.99972 44.9665-1.99955 44.9665-1.99964 3.81878e-06ZM5.999 42.9668 0.000104968 54.9647-5.99883 42.9668Z" fill="#FC4C02" transform="matrix(1 0 0 -1.00043 662 588.217)"/><path d="M1.99964-3.81878e-06 1.99972 44.9665-1.99955 44.9665-1.99964 3.81878e-06ZM5.999 42.9668 0.000104968 54.9647-5.99883 42.9668Z" fill="#FC4C02" transform="matrix(1 0 0 -1.00043 640 588.217)"/><path d="M1.99964-3.81878e-06 1.99972 44.9665-1.99955 44.9665-1.99964 3.81878e-06ZM5.999 42.9668 0.000104968 54.9647-5.99883 42.9668Z" fill="#FC4C02" transform="matrix(1 0 0 -1.00043 618 588.217)"/><path d="M1.99964-3.81878e-06 1.99972 44.9665-1.99955 44.9665-1.99964 3.81878e-06ZM5.999 42.9668 0.000104968 54.9647-5.99883 42.9668Z" fill="#FC4C02" transform="matrix(1 0 0 -1.00043 596 588.217)"/><path d="M1.99964-3.81878e-06 1.99972 44.9665-1.99955 44.9665-1.99964 3.81878e-06ZM5.999 42.9668 0.000104968 54.9647-5.99883 42.9668Z" fill="#FC4C02" transform="matrix(1 0 0 -1.00043 324 234.065)"/><path d="M1.99964-3.81878e-06 1.99972 44.9665-1.99955 44.9665-1.99964 3.81878e-06ZM5.999 42.9668 0.000104968 54.9647-5.99883 42.9668Z" fill="#FC4C02" transform="matrix(1 0 0 -1.00043 302 234.065)"/><path d="M1.99964-3.81878e-06 1.99972 44.9665-1.99955 44.9665-1.99964 3.81878e-06ZM5.999 42.9668 0.000104968 54.9647-5.99883 42.9668Z" fill="#FC4C02" transform="matrix(1 0 0 -1.00043 280 234.065)"/><path d="M1.99964-3.81878e-06 1.99972 44.9665-1.99955 44.9665-1.99964 3.81878e-06ZM5.999 42.9668 0.000104968 54.9647-5.99883 42.9668Z" fill="#FC4C02" transform="matrix(1 0 0 -1.00043 258 234.065)"/><path d="M1.99964-3.81879e-06 1.99972 44.9664-1.99955 44.9664-1.99964 3.81879e-06ZM5.999 42.9667 0.000104968 54.9646-5.99883 42.9667Z" fill="#FC4C02" transform="matrix(1 0 0 -1.00043 236 234.065)"/><path d="M1.99964-3.81879e-06 1.99972 44.9664-1.99955 44.9664-1.99964 3.81879e-06ZM5.999 42.9667 0.000104968 54.9646-5.99883 42.9667Z" fill="#FC4C02" transform="matrix(1 0 0 -1.00043 214 234.065)"/><path d="M1.99964-3.81879e-06 1.99972 44.9664-1.99955 44.9664-1.99964 3.81879e-06ZM5.999 42.9667 0.000104968 54.9646-5.99883 42.9667Z" fill="#FC4C02" transform="matrix(1 0 0 -1.00043 192 234.065)"/><path d="M1.99964-3.81879e-06 1.99972 44.9664-1.99955 44.9664-1.99964 3.81879e-06ZM5.999 42.9667 0.000104968 54.9646-5.99883 42.9667Z" fill="#FC4C02" transform="matrix(1 0 0 -1.00043 171 234.065)"/><path d="M1.99964-3.81878e-06 1.99972 44.9665-1.99955 44.9665-1.99964 3.81878e-06ZM5.999 42.9668 0.000104968 54.9647-5.99883 42.9668Z" fill="#FC4C02" transform="matrix(1 0 0 -1.00043 149 234.065)"/><path d="M1.99964-3.81878e-06 1.99972 44.9665-1.99955 44.9665-1.99964 3.81878e-06ZM5.999 42.9668 0.000104968 54.9647-5.99883 42.9668Z" fill="#FC4C02" transform="matrix(1 0 0 -1.00043 127 234.065)"/><path d="M1.99964-3.81878e-06 1.99972 44.9665-1.99955 44.9665-1.99964 3.81878e-06ZM5.999 42.9668 0.000104968 54.9647-5.99883 42.9668Z" fill="#FC4C02" transform="matrix(1 0 0 -1.00043 105 234.065)"/><path d="M1.99964-3.81878e-06 1.99972 44.9665-1.99955 44.9665-1.99964 3.81878e-06ZM5.999 42.9668 0.000104968 54.9647-5.99883 42.9668Z" fill="#FC4C02" transform="matrix(1 0 0 -1.00043 83 234.065)"/><path d="M1.99964-3.81878e-06 1.99972 44.9665-1.99955 44.9665-1.99964 3.81878e-06ZM5.999 42.9668 0.000104968 54.9647-5.99883 42.9668Z" fill="#FC4C02" transform="matrix(1 0 0 -1.00043 837 234.065)"/><path d="M1.99964-3.81878e-06 1.99972 44.9665-1.99955 44.9665-1.99964 3.81878e-06ZM5.999 42.9668 0.000104968 54.9647-5.99883 42.9668Z" fill="#FC4C02" transform="matrix(1 0 0 -1.00043 815 234.065)"/><path d="M1.99964-3.81878e-06 1.99972 44.9665-1.99955 44.9665-1.99964 3.81878e-06ZM5.999 42.9668 0.000104968 54.9647-5.99883 42.9668Z" fill="#FC4C02" transform="matrix(1 0 0 -1.00043 793 234.065)"/><path d="M1.99964-3.81878e-06 1.99972 44.9665-1.99955 44.9665-1.99964 3.81878e-06ZM5.999 42.9668 0.000104968 54.9647-5.99883 42.9668Z" fill="#FC4C02" transform="matrix(1 0 0 -1.00043 771 234.065)"/><path d="M1.99964-3.81879e-06 1.99972 44.9664-1.99955 44.9664-1.99964 3.81879e-06ZM5.999 42.9667 0.000104968 54.9646-5.99883 42.9667Z" fill="#FC4C02" transform="matrix(1 0 0 -1.00043 749 234.065)"/><path d="M1.99964-3.81879e-06 1.99972 44.9664-1.99955 44.9664-1.99964 3.81879e-06ZM5.999 42.9667 0.000104968 54.9646-5.99883 42.9667Z" fill="#FC4C02" transform="matrix(1 0 0 -1.00043 728 234.065)"/><path d="M1.99964-3.81879e-06 1.99972 44.9664-1.99955 44.9664-1.99964 3.81879e-06ZM5.999 42.9667 0.000104968 54.9646-5.99883 42.9667Z" fill="#FC4C02" transform="matrix(1 0 0 -1.00043 705 234.065)"/><path d="M1.99964-3.81879e-06 1.99972 44.9664-1.99955 44.9664-1.99964 3.81879e-06ZM5.999 42.9667 0.000104968 54.9646-5.99883 42.9667Z" fill="#FC4C02" transform="matrix(1 0 0 -1.00043 684 234.065)"/><path d="M1.99964-3.81878e-06 1.99972 44.9665-1.99955 44.9665-1.99964 3.81878e-06ZM5.999 42.9668 0.000104968 54.9647-5.99883 42.9668Z" fill="#FC4C02" transform="matrix(1 0 0 -1.00043 662 234.065)"/><path d="M1.99964-3.81878e-06 1.99972 44.9665-1.99955 44.9665-1.99964 3.81878e-06ZM5.999 42.9668 0.000104968 54.9647-5.99883 42.9668Z" fill="#FC4C02" transform="matrix(1 0 0 -1.00043 640 234.065)"/><path d="M1.99964-3.81878e-06 1.99972 44.9665-1.99955 44.9665-1.99964 3.81878e-06ZM5.999 42.9668 0.000104968 54.9647-5.99883 42.9668Z" fill="#FC4C02" transform="matrix(1 0 0 -1.00043 618 234.065)"/><path d="M1.99964-3.81878e-06 1.99972 44.9665-1.99955 44.9665-1.99964 3.81878e-06ZM5.999 42.9668 0.000104968 54.9647-5.99883 42.9668Z" fill="#FC4C02" transform="matrix(1 0 0 -1.00043 596 234.065)"/><rect x="67" y="530.227" width="786" height="60.0257" stroke="#0071C5" stroke-width="3.99928" stroke-miterlimit="8" fill="none"/><text fill="#0071C5" font-family="Arial,Arial_MSFontService,sans-serif" font-weight="700" font-size="38" transform="matrix(1 0 0 1.00043 397.949 580)">LAYER</text><path d="M3.99928-7.63756e-06 3.99934 34.9683-3.99921 34.9683-3.99928 7.63756e-06ZM11.9979 30.969 0.000104968 54.9647-11.9978 30.969Z" fill="#0071C5" transform="matrix(1 0 0 -1.00043 460 530.192)"/><rect x="67" y="412.177" width="786" height="61.0261" stroke="#0071C5" stroke-width="3.99928" stroke-miterlimit="8" fill="none"/><text fill="#0071C5" font-family="Arial,Arial_MSFontService,sans-serif" font-weight="700" font-size="38" transform="matrix(1 0 0 1.00043 397.949 462)">LAYER</text><path d="M3.99928-7.63756e-06 3.99934 34.9683-3.99921 34.9683-3.99928 7.63756e-06ZM11.9979 30.969 0.000104968 54.9647-11.9978 30.969Z" fill="#0071C5" transform="matrix(1 0 0 -1.00043 460 412.141)"/><rect x="67" y="295.126" width="786" height="60.0257" stroke="#0071C5" stroke-width="3.99928" stroke-miterlimit="8" fill="none"/><text fill="#0071C5" font-family="Arial,Arial_MSFontService,sans-serif" font-weight="700" font-size="38" transform="matrix(1 0 0 1.00043 397.949 344)">LAYER</text><path d="M3.99928-7.63756e-06 3.99934 34.9683-3.99921 34.9683-3.99928 7.63756e-06ZM11.9979 30.969 0.000104968 54.9647-11.9978 30.969Z" fill="#0071C5" transform="matrix(1 0 0 -1.00043 460 294.091)"/><rect x="67" y="177.076" width="786" height="60.0257" stroke="#0071C5" stroke-width="3.99928" stroke-miterlimit="8" fill="none"/><text fill="#0071C5" font-family="Arial,Arial_MSFontService,sans-serif" font-weight="700" font-size="38" transform="matrix(1 0 0 1.00043 397.949 226)">LAYER</text><path d="M3.99928-7.63756e-06 3.99934 34.9683-3.99921 34.9683-3.99928 7.63756e-06ZM11.9979 30.969 0.000104968 54.9647-11.9978 30.969Z" fill="#0071C5" transform="matrix(1 0 0 -1.00043 460 177.04)"/><rect x="67" y="59.0253" width="786" height="60.0257" stroke="#0071C5" stroke-width="3.99928" stroke-miterlimit="8" fill="none"/><text fill="#0071C5" font-family="Arial,Arial_MSFontService,sans-serif" font-weight="700" font-size="38" transform="matrix(1 0 0 1.00043 397.949 108)">LAYER</text><path d="M1.99964-3.81878e-06 1.99972 44.9665-1.99955 44.9665-1.99964 3.81878e-06ZM5.999 42.9668 0.000104968 54.9647-5.99883 42.9668Z" fill="#FC4C02" transform="matrix(1 0 0 -1.00043 324 353.116)"/><path d="M1.99964-3.81878e-06 1.99972 44.9665-1.99955 44.9665-1.99964 3.81878e-06ZM5.999 42.9668 0.000104968 54.9647-5.99883 42.9668Z" fill="#FC4C02" transform="matrix(1 0 0 -1.00043 302 353.116)"/><path d="M1.99964-3.81878e-06 1.99972 44.9665-1.99955 44.9665-1.99964 3.81878e-06ZM5.999 42.9668 0.000104968 54.9647-5.99883 42.9668Z" fill="#FC4C02" transform="matrix(1 0 0 -1.00043 280 353.116)"/><path d="M1.99964-3.81878e-06 1.99972 44.9665-1.99955 44.9665-1.99964 3.81878e-06ZM5.999 42.9668 0.000104968 54.9647-5.99883 42.9668Z" fill="#FC4C02" transform="matrix(1 0 0 -1.00043 258 353.116)"/><path d="M1.99964-3.81879e-06 1.99972 44.9664-1.99955 44.9664-1.99964 3.81879e-06ZM5.999 42.9667 0.000104968 54.9646-5.99883 42.9667Z" fill="#FC4C02" transform="matrix(1 0 0 -1.00043 236 353.116)"/><path d="M1.99964-3.81879e-06 1.99972 44.9664-1.99955 44.9664-1.99964 3.81879e-06ZM5.999 42.9667 0.000104968 54.9646-5.99883 42.9667Z" fill="#FC4C02" transform="matrix(1 0 0 -1.00043 214 353.116)"/><path d="M1.99964-3.81879e-06 1.99972 44.9664-1.99955 44.9664-1.99964 3.81879e-06ZM5.999 42.9667 0.000104968 54.9646-5.99883 42.9667Z" fill="#FC4C02" transform="matrix(1 0 0 -1.00043 192 353.116)"/><path d="M1.99964-3.81879e-06 1.99972 44.9664-1.99955 44.9664-1.99964 3.81879e-06ZM5.999 42.9667 0.000104968 54.9646-5.99883 42.9667Z" fill="#FC4C02" transform="matrix(1 0 0 -1.00043 171 353.116)"/><path d="M1.99964-3.81878e-06 1.99972 44.9665-1.99955 44.9665-1.99964 3.81878e-06ZM5.999 42.9668 0.000104968 54.9647-5.99883 42.9668Z" fill="#FC4C02" transform="matrix(1 0 0 -1.00043 149 353.116)"/><path d="M1.99964-3.81878e-06 1.99972 44.9665-1.99955 44.9665-1.99964 3.81878e-06ZM5.999 42.9668 0.000104968 54.9647-5.99883 42.9668Z" fill="#FC4C02" transform="matrix(1 0 0 -1.00043 127 353.116)"/><path d="M1.99964-3.81878e-06 1.99972 44.9665-1.99955 44.9665-1.99964 3.81878e-06ZM5.999 42.9668 0.000104968 54.9647-5.99883 42.9668Z" fill="#FC4C02" transform="matrix(1 0 0 -1.00043 105 353.116)"/><path d="M1.99964-3.81878e-06 1.99972 44.9665-1.99955 44.9665-1.99964 3.81878e-06ZM5.999 42.9668 0.000104968 54.9647-5.99883 42.9668Z" fill="#FC4C02" transform="matrix(1 0 0 -1.00043 83 353.116)"/><path d="M1.99964-3.81878e-06 1.99972 44.9665-1.99955 44.9665-1.99964 3.81878e-06ZM5.999 42.9668 0.000104968 54.9647-5.99883 42.9668Z" fill="#FC4C02" transform="matrix(1 0 0 -1.00043 837 353.116)"/><path d="M1.99964-3.81878e-06 1.99972 44.9665-1.99955 44.9665-1.99964 3.81878e-06ZM5.999 42.9668 0.000104968 54.9647-5.99883 42.9668Z" fill="#FC4C02" transform="matrix(1 0 0 -1.00043 815 353.116)"/><path d="M1.99964-3.81878e-06 1.99972 44.9665-1.99955 44.9665-1.99964 3.81878e-06ZM5.999 42.9668 0.000104968 54.9647-5.99883 42.9668Z" fill="#FC4C02" transform="matrix(1 0 0 -1.00043 793 353.116)"/><path d="M1.99964-3.81878e-06 1.99972 44.9665-1.99955 44.9665-1.99964 3.81878e-06ZM5.999 42.9668 0.000104968 54.9647-5.99883 42.9668Z" fill="#FC4C02" transform="matrix(1 0 0 -1.00043 771 353.116)"/><path d="M1.99964-3.81879e-06 1.99972 44.9664-1.99955 44.9664-1.99964 3.81879e-06ZM5.999 42.9667 0.000104968 54.9646-5.99883 42.9667Z" fill="#FC4C02" transform="matrix(1 0 0 -1.00043 749 353.116)"/><path d="M1.99964-3.81879e-06 1.99972 44.9664-1.99955 44.9664-1.99964 3.81879e-06ZM5.999 42.9667 0.000104968 54.9646-5.99883 42.9667Z" fill="#FC4C02" transform="matrix(1 0 0 -1.00043 728 353.116)"/><path d="M1.99964-3.81879e-06 1.99972 44.9664-1.99955 44.9664-1.99964 3.81879e-06ZM5.999 42.9667 0.000104968 54.9646-5.99883 42.9667Z" fill="#FC4C02" transform="matrix(1 0 0 -1.00043 705 353.116)"/><path d="M1.99964-3.81879e-06 1.99972 44.9664-1.99955 44.9664-1.99964 3.81879e-06ZM5.999 42.9667 0.000104968 54.9646-5.99883 42.9667Z" fill="#FC4C02" transform="matrix(1 0 0 -1.00043 684 353.116)"/><path d="M1.99964-3.81878e-06 1.99972 44.9665-1.99955 44.9665-1.99964 3.81878e-06ZM5.999 42.9668 0.000104968 54.9647-5.99883 42.9668Z" fill="#FC4C02" transform="matrix(1 0 0 -1.00043 662 353.116)"/><path d="M1.99964-3.81878e-06 1.99972 44.9665-1.99955 44.9665-1.99964 3.81878e-06ZM5.999 42.9668 0.000104968 54.9647-5.99883 42.9668Z" fill="#FC4C02" transform="matrix(1 0 0 -1.00043 640 353.116)"/><path d="M1.99964-3.81878e-06 1.99972 44.9665-1.99955 44.9665-1.99964 3.81878e-06ZM5.999 42.9668 0.000104968 54.9647-5.99883 42.9668Z" fill="#FC4C02" transform="matrix(1 0 0 -1.00043 618 353.116)"/><path d="M1.99964-3.81878e-06 1.99972 44.9665-1.99955 44.9665-1.99964 3.81878e-06ZM5.999 42.9668 0.000104968 54.9647-5.99883 42.9668Z" fill="#FC4C02" transform="matrix(1 0 0 -1.00043 596 353.116)"/><path d="M1.99964-3.81878e-06 1.99972 44.9665-1.99955 44.9665-1.99964 3.81878e-06ZM5.999 42.9668 0.000104968 54.9647-5.99883 42.9668Z" fill="#FC4C02" transform="matrix(1 0 0 -1.00043 837 470.166)"/><path d="M1.99964-3.81878e-06 1.99972 44.9665-1.99955 44.9665-1.99964 3.81878e-06ZM5.999 42.9668 0.000104968 54.9647-5.99883 42.9668Z" fill="#FC4C02" transform="matrix(1 0 0 -1.00043 815 470.166)"/><path d="M1.99964-3.81878e-06 1.99972 44.9665-1.99955 44.9665-1.99964 3.81878e-06ZM5.999 42.9668 0.000104968 54.9647-5.99883 42.9668Z" fill="#FC4C02" transform="matrix(1 0 0 -1.00043 793 470.166)"/><path d="M1.99964-3.81878e-06 1.99972 44.9665-1.99955 44.9665-1.99964 3.81878e-06ZM5.999 42.9668 0.000104968 54.9647-5.99883 42.9668Z" fill="#FC4C02" transform="matrix(1 0 0 -1.00043 771 470.166)"/><path d="M1.99964-3.81879e-06 1.99972 44.9664-1.99955 44.9664-1.99964 3.81879e-06ZM5.999 42.9667 0.000104968 54.9646-5.99883 42.9667Z" fill="#FC4C02" transform="matrix(1 0 0 -1.00043 749 470.166)"/><path d="M1.99964-3.81879e-06 1.99972 44.9664-1.99955 44.9664-1.99964 3.81879e-06ZM5.999 42.9667 0.000104968 54.9646-5.99883 42.9667Z" fill="#FC4C02" transform="matrix(1 0 0 -1.00043 728 470.166)"/><path d="M1.99964-3.81879e-06 1.99972 44.9664-1.99955 44.9664-1.99964 3.81879e-06ZM5.999 42.9667 0.000104968 54.9646-5.99883 42.9667Z" fill="#FC4C02" transform="matrix(1 0 0 -1.00043 705 470.166)"/><path d="M1.99964-3.81879e-06 1.99972 44.9664-1.99955 44.9664-1.99964 3.81879e-06ZM5.999 42.9667 0.000104968 54.9646-5.99883 42.9667Z" fill="#FC4C02" transform="matrix(1 0 0 -1.00043 684 470.166)"/><path d="M1.99964-3.81878e-06 1.99972 44.9665-1.99955 44.9665-1.99964 3.81878e-06ZM5.999 42.9668 0.000104968 54.9647-5.99883 42.9668Z" fill="#FC4C02" transform="matrix(1 0 0 -1.00043 662 470.166)"/><path d="M1.99964-3.81878e-06 1.99972 44.9665-1.99955 44.9665-1.99964 3.81878e-06ZM5.999 42.9668 0.000104968 54.9647-5.99883 42.9668Z" fill="#FC4C02" transform="matrix(1 0 0 -1.00043 640 470.166)"/><path d="M1.99964-3.81878e-06 1.99972 44.9665-1.99955 44.9665-1.99964 3.81878e-06ZM5.999 42.9668 0.000104968 54.9647-5.99883 42.9668Z" fill="#FC4C02" transform="matrix(1 0 0 -1.00043 618 470.166)"/><path d="M1.99964-3.81878e-06 1.99972 44.9665-1.99955 44.9665-1.99964 3.81878e-06ZM5.999 42.9668 0.000104968 54.9647-5.99883 42.9668Z" fill="#FC4C02" transform="matrix(1 0 0 -1.00043 596 470.166)"/><path d="M1.99964-3.81878e-06 1.99972 44.9665-1.99955 44.9665-1.99964 3.81878e-06ZM5.999 42.9668 0.000104968 54.9647-5.99883 42.9668Z" fill="#FC4C02" transform="matrix(1 0 0 -1.00043 324 470.166)"/><path d="M1.99964-3.81878e-06 1.99972 44.9665-1.99955 44.9665-1.99964 3.81878e-06ZM5.999 42.9668 0.000104968 54.9647-5.99883 42.9668Z" fill="#FC4C02" transform="matrix(1 0 0 -1.00043 302 470.166)"/><path d="M1.99964-3.81878e-06 1.99972 44.9665-1.99955 44.9665-1.99964 3.81878e-06ZM5.999 42.9668 0.000104968 54.9647-5.99883 42.9668Z" fill="#FC4C02" transform="matrix(1 0 0 -1.00043 280 470.166)"/><path d="M1.99964-3.81878e-06 1.99972 44.9665-1.99955 44.9665-1.99964 3.81878e-06ZM5.999 42.9668 0.000104968 54.9647-5.99883 42.9668Z" fill="#FC4C02" transform="matrix(1 0 0 -1.00043 258 470.166)"/><path d="M1.99964-3.81879e-06 1.99972 44.9664-1.99955 44.9664-1.99964 3.81879e-06ZM5.999 42.9667 0.000104968 54.9646-5.99883 42.9667Z" fill="#FC4C02" transform="matrix(1 0 0 -1.00043 236 470.166)"/><path d="M1.99964-3.81879e-06 1.99972 44.9664-1.99955 44.9664-1.99964 3.81879e-06ZM5.999 42.9667 0.000104968 54.9646-5.99883 42.9667Z" fill="#FC4C02" transform="matrix(1 0 0 -1.00043 214 470.166)"/><path d="M1.99964-3.81879e-06 1.99972 44.9664-1.99955 44.9664-1.99964 3.81879e-06ZM5.999 42.9667 0.000104968 54.9646-5.99883 42.9667Z" fill="#FC4C02" transform="matrix(1 0 0 -1.00043 192 470.166)"/><path d="M1.99964-3.81879e-06 1.99972 44.9664-1.99955 44.9664-1.99964 3.81879e-06ZM5.999 42.9667 0.000104968 54.9646-5.99883 42.9667Z" fill="#FC4C02" transform="matrix(1 0 0 -1.00043 171 470.166)"/><path d="M1.99964-3.81878e-06 1.99972 44.9665-1.99955 44.9665-1.99964 3.81878e-06ZM5.999 42.9668 0.000104968 54.9647-5.99883 42.9668Z" fill="#FC4C02" transform="matrix(1 0 0 -1.00043 149 470.166)"/><path d="M1.99964-3.81878e-06 1.99972 44.9665-1.99955 44.9665-1.99964 3.81878e-06ZM5.999 42.9668 0.000104968 54.9647-5.99883 42.9668Z" fill="#FC4C02" transform="matrix(1 0 0 -1.00043 127 470.166)"/><path d="M1.99964-3.81878e-06 1.99972 44.9665-1.99955 44.9665-1.99964 3.81878e-06ZM5.999 42.9668 0.000104968 54.9647-5.99883 42.9668Z" fill="#FC4C02" transform="matrix(1 0 0 -1.00043 105 470.166)"/><path d="M1.99964-3.81878e-06 1.99972 44.9665-1.99955 44.9665-1.99964 3.81878e-06ZM5.999 42.9668 0.000104968 54.9647-5.99883 42.9668Z" fill="#FC4C02" transform="matrix(1 0 0 -1.00043 83 470.166)"/><path d="M1.99964-3.81878e-06 1.99972 44.9665-1.99955 44.9665-1.99964 3.81878e-06ZM5.999 42.9668 0.000104968 54.9647-5.99883 42.9668Z" fill="#FC4C02" transform="matrix(1 0 0 -1.00043 324 116.014)"/><path d="M1.99964-3.81878e-06 1.99972 44.9665-1.99955 44.9665-1.99964 3.81878e-06ZM5.999 42.9668 0.000104968 54.9647-5.99883 42.9668Z" fill="#FC4C02" transform="matrix(1 0 0 -1.00043 302 116.014)"/><path d="M1.99964-3.81878e-06 1.99972 44.9665-1.99955 44.9665-1.99964 3.81878e-06ZM5.999 42.9668 0.000104968 54.9647-5.99883 42.9668Z" fill="#FC4C02" transform="matrix(1 0 0 -1.00043 280 116.014)"/><path d="M1.99964-3.81878e-06 1.99972 44.9665-1.99955 44.9665-1.99964 3.81878e-06ZM5.999 42.9668 0.000104968 54.9647-5.99883 42.9668Z" fill="#FC4C02" transform="matrix(1 0 0 -1.00043 258 116.014)"/><path d="M1.99964-3.81879e-06 1.99972 44.9664-1.99955 44.9664-1.99964 3.81879e-06ZM5.999 42.9667 0.000104968 54.9646-5.99883 42.9667Z" fill="#FC4C02" transform="matrix(1 0 0 -1.00043 236 116.014)"/><path d="M1.99964-3.81879e-06 1.99972 44.9664-1.99955 44.9664-1.99964 3.81879e-06ZM5.999 42.9667 0.000104968 54.9646-5.99883 42.9667Z" fill="#FC4C02" transform="matrix(1 0 0 -1.00043 214 116.014)"/><path d="M1.99964-3.81879e-06 1.99972 44.9664-1.99955 44.9664-1.99964 3.81879e-06ZM5.999 42.9667 0.000104968 54.9646-5.99883 42.9667Z" fill="#FC4C02" transform="matrix(1 0 0 -1.00043 192 116.014)"/><path d="M1.99964-3.81879e-06 1.99972 44.9664-1.99955 44.9664-1.99964 3.81879e-06ZM5.999 42.9667 0.000104968 54.9646-5.99883 42.9667Z" fill="#FC4C02" transform="matrix(1 0 0 -1.00043 171 116.014)"/><path d="M1.99964-3.81878e-06 1.99972 44.9665-1.99955 44.9665-1.99964 3.81878e-06ZM5.999 42.9668 0.000104968 54.9647-5.99883 42.9668Z" fill="#FC4C02" transform="matrix(1 0 0 -1.00043 149 116.014)"/><path d="M1.99964-3.81878e-06 1.99972 44.9665-1.99955 44.9665-1.99964 3.81878e-06ZM5.999 42.9668 0.000104968 54.9647-5.99883 42.9668Z" fill="#FC4C02" transform="matrix(1 0 0 -1.00043 127 116.014)"/><path d="M1.99964-3.81878e-06 1.99972 44.9665-1.99955 44.9665-1.99964 3.81878e-06ZM5.999 42.9668 0.000104968 54.9647-5.99883 42.9668Z" fill="#FC4C02" transform="matrix(1 0 0 -1.00043 105 116.014)"/><path d="M1.99964-3.81878e-06 1.99972 44.9665-1.99955 44.9665-1.99964 3.81878e-06ZM5.999 42.9668 0.000104968 54.9647-5.99883 42.9668Z" fill="#FC4C02" transform="matrix(1 0 0 -1.00043 83 116.014)"/><path d="M1.99964-3.81878e-06 1.99972 44.9665-1.99955 44.9665-1.99964 3.81878e-06ZM5.999 42.9668 0.000104968 54.9647-5.99883 42.9668Z" fill="#FC4C02" transform="matrix(1 0 0 -1.00043 837 116.014)"/><path d="M1.99964-3.81878e-06 1.99972 44.9665-1.99955 44.9665-1.99964 3.81878e-06ZM5.999 42.9668 0.000104968 54.9647-5.99883 42.9668Z" fill="#FC4C02" transform="matrix(1 0 0 -1.00043 815 116.014)"/><path d="M1.99964-3.81878e-06 1.99972 44.9665-1.99955 44.9665-1.99964 3.81878e-06ZM5.999 42.9668 0.000104968 54.9647-5.99883 42.9668Z" fill="#FC4C02" transform="matrix(1 0 0 -1.00043 793 116.014)"/><path d="M1.99964-3.81878e-06 1.99972 44.9665-1.99955 44.9665-1.99964 3.81878e-06ZM5.999 42.9668 0.000104968 54.9647-5.99883 42.9668Z" fill="#FC4C02" transform="matrix(1 0 0 -1.00043 771 116.014)"/><path d="M1.99964-3.81879e-06 1.99972 44.9664-1.99955 44.9664-1.99964 3.81879e-06ZM5.999 42.9667 0.000104968 54.9646-5.99883 42.9667Z" fill="#FC4C02" transform="matrix(1 0 0 -1.00043 749 116.014)"/><path d="M1.99964-3.81879e-06 1.99972 44.9664-1.99955 44.9664-1.99964 3.81879e-06ZM5.999 42.9667 0.000104968 54.9646-5.99883 42.9667Z" fill="#FC4C02" transform="matrix(1 0 0 -1.00043 728 116.014)"/><path d="M1.99964-3.81879e-06 1.99972 44.9664-1.99955 44.9664-1.99964 3.81879e-06ZM5.999 42.9667 0.000104968 54.9646-5.99883 42.9667Z" fill="#FC4C02" transform="matrix(1 0 0 -1.00043 705 116.014)"/><path d="M1.99964-3.81879e-06 1.99972 44.9664-1.99955 44.9664-1.99964 3.81879e-06ZM5.999 42.9667 0.000104968 54.9646-5.99883 42.9667Z" fill="#FC4C02" transform="matrix(1 0 0 -1.00043 684 117.015)"/><path d="M1.99964-3.81878e-06 1.99972 44.9665-1.99955 44.9665-1.99964 3.81878e-06ZM5.999 42.9668 0.000104968 54.9647-5.99883 42.9668Z" fill="#FC4C02" transform="matrix(1 0 0 -1.00043 662 116.014)"/><path d="M1.99964-3.81878e-06 1.99972 44.9665-1.99955 44.9665-1.99964 3.81878e-06ZM5.999 42.9668 0.000104968 54.9647-5.99883 42.9668Z" fill="#FC4C02" transform="matrix(1 0 0 -1.00043 640 116.014)"/><path d="M1.99964-3.81878e-06 1.99972 44.9665-1.99955 44.9665-1.99964 3.81878e-06ZM5.999 42.9668 0.000104968 54.9647-5.99883 42.9668Z" fill="#FC4C02" transform="matrix(1 0 0 -1.00043 618 116.014)"/><path d="M1.99964-3.81878e-06 1.99972 44.9665-1.99955 44.9665-1.99964 3.81878e-06ZM5.999 42.9668 0.000104968 54.9647-5.99883 42.9668Z" fill="#FC4C02" transform="matrix(1 0 0 -1.00043 596 116.014)"/><rect x="4.00001" y="4.00173" width="914" height="665.285" stroke="#0071C5" stroke-width="3.99928" stroke-miterlimit="8" fill="none"/><rect x="135" y="552.237" width="111" height="26.0112" fill="#FFFFFF"/><text fill="#FC4C02" font-family="Arial,Arial_MSFontService,sans-serif" font-weight="700" font-size="21" transform="matrix(1 0 0 1.00043 138.483 573)">THREADS</text><rect x="673" y="552.237" width="111" height="26.0112" fill="#FFFFFF"/><text fill="#FC4C02" font-family="Arial,Arial_MSFontService,sans-serif" font-weight="700" font-size="21" transform="matrix(1 0 0 1.00043 676.693 573)">THREADS</text></g></svg>