<?xml version="1.0" encoding="UTF-8"?>
<svg width="917" height="672" overflow="hidden" version="1.1" xmlns="http://www.w3.org/2000/svg"><defs><clipPath id="clip0"><rect width="917" height="672"/></clipPath></defs><g clip-path="url(#clip0)"><path d="m0 0h917v671.88h-917z" fill="#fff"/><g stroke="#2b66af" stroke-miterlimit="8"><path d="m31.5 24.496h134v572.9h-134z" fill="#49a1ef" stroke-width="3.0006"/><path d="m17 9.9982h164v652.88h-164z" fill="none" stroke-width="4.0007"/><path d="m210.5 24.496h135v572.9h-135z" fill="#49a1ef" stroke-width="3.0006"/><path d="m197 9.9982h163v652.88h-163z" fill="none" stroke-width="4.0007"/><path d="m391.5 24.496h134v572.9h-134z" fill="#49a1ef" stroke-width="3.0006"/><path d="m377 9.9982h164v652.88h-164z" fill="none" stroke-width="4.0007"/><path d="m571.5 24.496h134v572.9h-134z" fill="#49a1ef" stroke-width="3.0006"/><path d="m557 9.9982h163v652.88h-163z" fill="none" stroke-width="4.0007"/><path d="m751.5 24.496h134v572.9h-134z" fill="#49a1ef" stroke-width="3.0006"/></g><g transform="matrix(1 0 0 .99982 41.304 625)" fill="#2b66af" aria-label="INFERENCE REQUESTINFERENCEREQUESTINFERENCEREQUESTINFERENCEREQUESTINFERENCEREQUEST"><path d="m1.512 0v-14.7h1.806v14.7z"/><path d="m7.959-12.075v12.075h-1.764v-14.7h1.932l9.177 12.012v-12.012h1.764v14.7h-1.89z"/><path d="m21.798 0v-14.7h10.542v1.596h-8.736v4.998h8.148v1.596h-8.148v6.51z"/><path d="m34.398 0v-14.7h10.668v1.596h-8.862v4.893h8.274v1.596h-8.274v5.019h8.862v1.596z"/><path d="m55.335-6.195 4.179 6.195h-2.142l-3.969-5.985h-4.137v5.985h-1.806v-14.7h6.468q2.478 0 3.864 1.155 1.386 1.134 1.386 3.129 0 1.638-1.008 2.751t-2.835 1.47zm2.016-4.179q0-1.281-0.924-1.995-0.903-0.735-2.541-0.735h-4.62v5.544h4.473q1.659 0 2.625-0.756 0.987-0.777 0.987-2.058z"/><path d="m61.488 0v-14.7h10.668v1.596h-8.862v4.893h8.274v1.596h-8.274v5.019h8.862v1.596z"/><path d="m76.314-12.075v12.075h-1.764v-14.7h1.932l9.177 12.012v-12.012h1.764v14.7h-1.89z"/><path d="m91.413-7.371q0 2.625 1.575 4.368 1.575 1.722 3.948 1.722 1.596 0 2.793-0.735 1.218-0.735 2.079-2.205l1.386 0.798q-0.945 1.806-2.583 2.793-1.617 0.966-3.717 0.966-3.192 0-5.271-2.163-2.058-2.163-2.058-5.502 0-3.276 2.142-5.481 2.163-2.226 5.376-2.226 2.037 0 3.591 0.966 1.575 0.945 2.457 2.709l-1.449 0.861q-0.819-1.491-1.953-2.205-1.134-0.714-2.688-0.714-2.415 0-4.032 1.722-1.596 1.722-1.596 4.326z"/><path d="m105.31 0v-14.7h10.668v1.596h-8.862v4.893h8.274v1.596h-8.274v5.019h8.862v1.596z"/><path d="m17.575 18.809 4.179 6.195h-2.142l-3.969-5.985h-4.137v5.985h-1.806v-14.7h6.468q2.478 0 3.864 1.155 1.386 1.134 1.386 3.129 0 1.638-1.008 2.751t-2.835 1.47zm2.016-4.179q0-1.281-0.924-1.995-0.903-0.735-2.541-0.735h-4.62v5.544h4.473q1.659 0 2.625-0.756 0.987-0.777 0.987-2.058z"/><path d="m23.728 25.004v-14.7h10.668v1.596h-8.862v4.893h8.274v1.596h-8.274v5.019h8.862v1.596z"/><path d="m42.691 25.319v-0.063q-2.898-0.294-4.788-2.415-1.869-2.142-1.869-5.166 0-3.255 2.163-5.481 2.163-2.226 5.334-2.226 3.192 0 5.313 2.205 2.142 2.184 2.142 5.46 0 3.003-1.869 5.166-1.869 2.142-4.746 2.457 0.021 0.966 0.441 1.365 0.42 0.42 1.407 0.42h1.323v1.407h-1.533q-1.68 0-2.499-0.777t-0.819-2.352zm-4.809-7.686q0 2.583 1.617 4.347 1.638 1.743 4.032 1.743t3.99-1.722q1.617-1.743 1.617-4.326t-1.617-4.326q-1.617-1.764-4.011-1.764-2.415 0-4.032 1.743-1.596 1.722-1.596 4.305z"/><path d="m59.659 23.723q2.184 0 3.528-1.47 1.365-1.491 1.365-3.864v-8.085h1.785v8.127q0 3.108-1.848 5.019-1.848 1.89-4.872 1.89t-4.851-1.89q-1.827-1.911-1.827-5.019v-8.127h1.806v8.085q0 2.373 1.365 3.864 1.365 1.47 3.549 1.47z"/><path d="m68.899 25.004v-14.7h10.668v1.596h-8.862v4.893h8.274v1.596h-8.274v5.019h8.862v1.596z"/><path d="m91.537 20.867q0-1.281-1.008-1.869-0.987-0.588-3.192-0.651-3.024-0.147-4.368-1.05-1.344-0.924-1.344-2.835 0-1.89 1.596-3.171 1.617-1.281 4.053-1.281 1.785 0 3.213 0.609t2.52 1.848l-1.134 1.197q-0.882-0.987-2.079-1.512t-2.52-0.525q-1.68 0-2.772 0.777t-1.092 1.911q0 1.197 0.966 1.743 0.987 0.525 3.171 0.588 3.003 0.126 4.389 1.113 1.386 0.966 1.386 2.961 0 1.974-1.659 3.276t-4.242 1.302q-2.1 0-3.633-0.672-1.512-0.672-2.688-2.142l1.113-1.197q1.071 1.239 2.331 1.827 1.26 0.567 2.877 0.567 1.806 0 2.961-0.798 1.155-0.819 1.155-2.016z"/><path d="m99.937 11.942h-5.712v-1.638h13.209v1.638h-5.691v13.062h-1.806z"/><path d="m181.06 0v-14.7h1.806v14.7z"/><path d="m187.51-12.075v12.075h-1.764v-14.7h1.932l9.177 12.012v-12.012h1.764v14.7h-1.89z"/><path d="m201.35 0v-14.7h10.542v1.596h-8.736v4.998h8.148v1.596h-8.148v6.51z"/><path d="m213.95 0v-14.7h10.668v1.596h-8.862v4.893h8.274v1.596h-8.274v5.019h8.862v1.596z"/><path d="m234.89-6.195 4.179 6.195h-2.142l-3.969-5.985h-4.137v5.985h-1.806v-14.7h6.468q2.478 0 3.864 1.155 1.386 1.134 1.386 3.129 0 1.638-1.008 2.751t-2.835 1.47zm2.016-4.179q0-1.281-0.924-1.995-0.903-0.735-2.541-0.735h-4.62v5.544h4.473q1.659 0 2.625-0.756 0.987-0.777 0.987-2.058z"/><path d="m241.04 0v-14.7h10.668v1.596h-8.862v4.893h8.274v1.596h-8.274v5.019h8.862v1.596z"/><path d="m255.87-12.075v12.075h-1.764v-14.7h1.932l9.177 12.012v-12.012h1.764v14.7h-1.89z"/><path d="m270.97-7.371q0 2.625 1.575 4.368 1.575 1.722 3.948 1.722 1.596 0 2.793-0.735 1.218-0.735 2.079-2.205l1.386 0.798q-0.945 1.806-2.583 2.793-1.617 0.966-3.717 0.966-3.192 0-5.271-2.163-2.058-2.163-2.058-5.502 0-3.276 2.142-5.481 2.163-2.226 5.376-2.226 2.037 0 3.591 0.966 1.575 0.945 2.457 2.709l-1.449 0.861q-0.819-1.491-1.953-2.205t-2.688-0.714q-2.415 0-4.032 1.722-1.596 1.722-1.596 4.326z"/><path d="m284.87 0v-14.7h10.668v1.596h-8.862v4.893h8.274v1.596h-8.274v5.019h8.862v1.596z"/><path d="m197.13 18.809 4.179 6.195h-2.142l-3.969-5.985h-4.137v5.985h-1.806v-14.7h6.468q2.478 0 3.864 1.155 1.386 1.134 1.386 3.129 0 1.638-1.008 2.751t-2.835 1.47zm2.016-4.179q0-1.281-0.924-1.995-0.903-0.735-2.541-0.735h-4.62v5.544h4.473q1.659 0 2.625-0.756 0.987-0.777 0.987-2.058z"/><path d="m203.28 25.004v-14.7h10.668v1.596h-8.862v4.893h8.274v1.596h-8.274v5.019h8.862v1.596z"/><path d="m222.24 25.319v-0.063q-2.898-0.294-4.788-2.415-1.869-2.142-1.869-5.166 0-3.255 2.163-5.481 2.163-2.226 5.334-2.226 3.192 0 5.313 2.205 2.142 2.184 2.142 5.46 0 3.003-1.869 5.166-1.869 2.142-4.746 2.457 0.021 0.966 0.441 1.365 0.42 0.42 1.407 0.42h1.323v1.407h-1.533q-1.68 0-2.499-0.777t-0.819-2.352zm-4.809-7.686q0 2.583 1.617 4.347 1.638 1.743 4.032 1.743t3.99-1.722q1.617-1.743 1.617-4.326t-1.617-4.326q-1.617-1.764-4.011-1.764-2.415 0-4.032 1.743-1.596 1.722-1.596 4.305z"/><path d="m239.21 23.723q2.184 0 3.528-1.47 1.365-1.491 1.365-3.864v-8.085h1.785v8.127q0 3.108-1.848 5.019-1.848 1.89-4.872 1.89t-4.851-1.89q-1.827-1.911-1.827-5.019v-8.127h1.806v8.085q0 2.373 1.365 3.864 1.365 1.47 3.549 1.47z"/><path d="m248.45 25.004v-14.7h10.668v1.596h-8.862v4.893h8.274v1.596h-8.274v5.019h8.862v1.596z"/><path d="m271.09 20.867q0-1.281-1.008-1.869-0.987-0.588-3.192-0.651-3.024-0.147-4.368-1.05-1.344-0.924-1.344-2.835 0-1.89 1.596-3.171 1.617-1.281 4.053-1.281 1.785 0 3.213 0.609t2.52 1.848l-1.134 1.197q-0.882-0.987-2.079-1.512t-2.52-0.525q-1.68 0-2.772 0.777t-1.092 1.911q0 1.197 0.966 1.743 0.987 0.525 3.171 0.588 3.003 0.126 4.389 1.113 1.386 0.966 1.386 2.961 0 1.974-1.659 3.276t-4.242 1.302q-2.1 0-3.633-0.672-1.512-0.672-2.688-2.142l1.113-1.197q1.071 1.239 2.331 1.827 1.26 0.567 2.877 0.567 1.806 0 2.961-0.798 1.155-0.819 1.155-2.016z"/><path d="m279.49 11.942h-5.712v-1.638h13.209v1.638h-5.691v13.062h-1.806z"/><path d="m361.58 0v-14.7h1.806v14.7z"/><path d="m368.02-12.075v12.075h-1.764v-14.7h1.932l9.177 12.012v-12.012h1.764v14.7h-1.89z"/><path d="m381.86 0v-14.7h10.542v1.596h-8.736v4.998h8.148v1.596h-8.148v6.51z"/><path d="m394.46 0v-14.7h10.668v1.596h-8.862v4.893h8.274v1.596h-8.274v5.019h8.862v1.596z"/><path d="m415.4-6.195 4.179 6.195h-2.142l-3.969-5.985h-4.137v5.985h-1.806v-14.7h6.468q2.478 0 3.864 1.155 1.386 1.134 1.386 3.129 0 1.638-1.008 2.751t-2.835 1.47zm2.016-4.179q0-1.281-0.924-1.995-0.903-0.735-2.541-0.735h-4.62v5.544h4.473q1.659 0 2.625-0.756 0.987-0.777 0.987-2.058z"/><path d="m421.55 0v-14.7h10.668v1.596h-8.862v4.893h8.274v1.596h-8.274v5.019h8.862v1.596z"/><path d="m436.38-12.075v12.075h-1.764v-14.7h1.932l9.177 12.012v-12.012h1.764v14.7h-1.89z"/><path d="m451.48-7.371q0 2.625 1.575 4.368 1.575 1.722 3.948 1.722 1.596 0 2.793-0.735 1.218-0.735 2.079-2.205l1.386 0.798q-0.945 1.806-2.583 2.793-1.617 0.966-3.717 0.966-3.192 0-5.271-2.163-2.058-2.163-2.058-5.502 0-3.276 2.142-5.481 2.163-2.226 5.376-2.226 2.037 0 3.591 0.966 1.575 0.945 2.457 2.709l-1.449 0.861q-0.819-1.491-1.953-2.205t-2.688-0.714q-2.415 0-4.032 1.722-1.596 1.722-1.596 4.326z"/><path d="m465.38 0v-14.7h10.668v1.596h-8.862v4.893h8.274v1.596h-8.274v5.019h8.862v1.596z"/><path d="m377.64 18.809 4.179 6.195h-2.142l-3.969-5.985h-4.137v5.985h-1.806v-14.7h6.468q2.478 0 3.864 1.155 1.386 1.134 1.386 3.129 0 1.638-1.008 2.751t-2.835 1.47zm2.016-4.179q0-1.281-0.924-1.995-0.903-0.735-2.541-0.735h-4.62v5.544h4.473q1.659 0 2.625-0.756 0.987-0.777 0.987-2.058z"/><path d="m383.79 25.004v-14.7h10.668v1.596h-8.862v4.893h8.274v1.596h-8.274v5.019h8.862v1.596z"/><path d="m402.76 25.319v-0.063q-2.898-0.294-4.788-2.415-1.869-2.142-1.869-5.166 0-3.255 2.163-5.481 2.163-2.226 5.334-2.226 3.192 0 5.313 2.205 2.142 2.184 2.142 5.46 0 3.003-1.869 5.166-1.869 2.142-4.746 2.457 0.021 0.966 0.441 1.365 0.42 0.42 1.407 0.42h1.323v1.407h-1.533q-1.68 0-2.499-0.777t-0.819-2.352zm-4.809-7.686q0 2.583 1.617 4.347 1.638 1.743 4.032 1.743t3.99-1.722q1.617-1.743 1.617-4.326t-1.617-4.326q-1.617-1.764-4.011-1.764-2.415 0-4.032 1.743-1.596 1.722-1.596 4.305z"/><path d="m419.72 23.723q2.184 0 3.528-1.47 1.365-1.491 1.365-3.864v-8.085h1.785v8.127q0 3.108-1.848 5.019-1.848 1.89-4.872 1.89t-4.851-1.89q-1.827-1.911-1.827-5.019v-8.127h1.806v8.085q0 2.373 1.365 3.864 1.365 1.47 3.549 1.47z"/><path d="m428.96 25.004v-14.7h10.668v1.596h-8.862v4.893h8.274v1.596h-8.274v5.019h8.862v1.596z"/><path d="m451.6 20.867q0-1.281-1.008-1.869-0.987-0.588-3.192-0.651-3.024-0.147-4.368-1.05-1.344-0.924-1.344-2.835 0-1.89 1.596-3.171 1.617-1.281 4.053-1.281 1.785 0 3.213 0.609t2.52 1.848l-1.134 1.197q-0.882-0.987-2.079-1.512t-2.52-0.525q-1.68 0-2.772 0.777t-1.092 1.911q0 1.197 0.966 1.743 0.987 0.525 3.171 0.588 3.003 0.126 4.389 1.113 1.386 0.966 1.386 2.961 0 1.974-1.659 3.276t-4.242 1.302q-2.1 0-3.633-0.672-1.512-0.672-2.688-2.142l1.113-1.197q1.071 1.239 2.331 1.827 1.26 0.567 2.877 0.567 1.806 0 2.961-0.798 1.155-0.819 1.155-2.016z"/><path d="m460 11.942h-5.712v-1.638h13.209v1.638h-5.691v13.062h-1.806z"/><path d="m541.42 0v-14.7h1.806v14.7z"/><path d="m547.86-12.075v12.075h-1.764v-14.7h1.932l9.177 12.012v-12.012h1.764v14.7h-1.89z"/><path d="m561.7 0v-14.7h10.542v1.596h-8.736v4.998h8.148v1.596h-8.148v6.51z"/><path d="m574.3 0v-14.7h10.668v1.596h-8.862v4.893h8.274v1.596h-8.274v5.019h8.862v1.596z"/><path d="m595.24-6.195 4.179 6.195h-2.142l-3.969-5.985h-4.137v5.985h-1.806v-14.7h6.468q2.478 0 3.864 1.155 1.386 1.134 1.386 3.129 0 1.638-1.008 2.751t-2.835 1.47zm2.016-4.179q0-1.281-0.924-1.995-0.903-0.735-2.541-0.735h-4.62v5.544h4.473q1.659 0 2.625-0.756 0.987-0.777 0.987-2.058z"/><path d="m601.39 0v-14.7h10.668v1.596h-8.862v4.893h8.274v1.596h-8.274v5.019h8.862v1.596z"/><path d="m616.22-12.075v12.075h-1.764v-14.7h1.932l9.177 12.012v-12.012h1.764v14.7h-1.89z"/><path d="m631.32-7.371q0 2.625 1.575 4.368 1.575 1.722 3.948 1.722 1.596 0 2.793-0.735 1.218-0.735 2.079-2.205l1.386 0.798q-0.945 1.806-2.583 2.793-1.617 0.966-3.717 0.966-3.192 0-5.271-2.163-2.058-2.163-2.058-5.502 0-3.276 2.142-5.481 2.163-2.226 5.376-2.226 2.037 0 3.591 0.966 1.575 0.945 2.457 2.709l-1.449 0.861q-0.819-1.491-1.953-2.205t-2.688-0.714q-2.415 0-4.032 1.722-1.596 1.722-1.596 4.326z"/><path d="m645.22 0v-14.7h10.668v1.596h-8.862v4.893h8.274v1.596h-8.274v5.019h8.862v1.596z"/><path d="m557.48 18.809 4.179 6.195h-2.142l-3.969-5.985h-4.137v5.985h-1.806v-14.7h6.468q2.478 0 3.864 1.155 1.386 1.134 1.386 3.129 0 1.638-1.008 2.751t-2.835 1.47zm2.016-4.179q0-1.281-0.924-1.995-0.903-0.735-2.541-0.735h-4.62v5.544h4.473q1.659 0 2.625-0.756 0.987-0.777 0.987-2.058z"/><path d="m563.63 25.004v-14.7h10.668v1.596h-8.862v4.893h8.274v1.596h-8.274v5.019h8.862v1.596z"/><path d="m582.6 25.319v-0.063q-2.898-0.294-4.788-2.415-1.869-2.142-1.869-5.166 0-3.255 2.163-5.481 2.163-2.226 5.334-2.226 3.192 0 5.313 2.205 2.142 2.184 2.142 5.46 0 3.003-1.869 5.166-1.869 2.142-4.746 2.457 0.021 0.966 0.441 1.365 0.42 0.42 1.407 0.42h1.323v1.407h-1.533q-1.68 0-2.499-0.777t-0.819-2.352zm-4.809-7.686q0 2.583 1.617 4.347 1.638 1.743 4.032 1.743t3.99-1.722q1.617-1.743 1.617-4.326t-1.617-4.326q-1.617-1.764-4.011-1.764-2.415 0-4.032 1.743-1.596 1.722-1.596 4.305z"/><path d="m599.57 23.723q2.184 0 3.528-1.47 1.365-1.491 1.365-3.864v-8.085h1.785v8.127q0 3.108-1.848 5.019-1.848 1.89-4.872 1.89t-4.851-1.89q-1.827-1.911-1.827-5.019v-8.127h1.806v8.085q0 2.373 1.365 3.864 1.365 1.47 3.549 1.47z"/><path d="m608.8 25.004v-14.7h10.668v1.596h-8.862v4.893h8.274v1.596h-8.274v5.019h8.862v1.596z"/><path d="m631.44 20.867q0-1.281-1.008-1.869-0.987-0.588-3.192-0.651-3.024-0.147-4.368-1.05-1.344-0.924-1.344-2.835 0-1.89 1.596-3.171 1.617-1.281 4.053-1.281 1.785 0 3.213 0.609t2.52 1.848l-1.134 1.197q-0.882-0.987-2.079-1.512t-2.52-0.525q-1.68 0-2.772 0.777t-1.092 1.911q0 1.197 0.966 1.743 0.987 0.525 3.171 0.588 3.003 0.126 4.389 1.113 1.386 0.966 1.386 2.961 0 1.974-1.659 3.276t-4.242 1.302q-2.1 0-3.633-0.672-1.512-0.672-2.688-2.142l1.113-1.197q1.071 1.239 2.331 1.827 1.26 0.567 2.877 0.567 1.806 0 2.961-0.798 1.155-0.819 1.155-2.016z"/><path d="m639.84 11.942h-5.712v-1.638h13.209v1.638h-5.691v13.062h-1.806z"/><path d="m721.64 0v-14.7h1.806v14.7z"/><path d="m728.09-12.075v12.075h-1.764v-14.7h1.932l9.177 12.012v-12.012h1.764v14.7h-1.89z"/><path d="m741.93 0v-14.7h10.542v1.596h-8.736v4.998h8.148v1.596h-8.148v6.51z"/><path d="m754.53 0v-14.7h10.668v1.596h-8.862v4.893h8.274v1.596h-8.274v5.019h8.862v1.596z"/><path d="m775.47-6.195 4.179 6.195h-2.142l-3.969-5.985h-4.137v5.985h-1.806v-14.7h6.468q2.478 0 3.864 1.155 1.386 1.134 1.386 3.129 0 1.638-1.008 2.751t-2.835 1.47zm2.016-4.179q0-1.281-0.924-1.995-0.903-0.735-2.541-0.735h-4.62v5.544h4.473q1.659 0 2.625-0.756 0.987-0.777 0.987-2.058z"/><path d="m781.62 0v-14.7h10.668v1.596h-8.862v4.893h8.274v1.596h-8.274v5.019h8.862v1.596z"/><path d="m796.44-12.075v12.075h-1.764v-14.7h1.932l9.177 12.012v-12.012h1.764v14.7h-1.89z"/><path d="m811.54-7.371q0 2.625 1.575 4.368 1.575 1.722 3.948 1.722 1.596 0 2.793-0.735 1.218-0.735 2.079-2.205l1.386 0.798q-0.945 1.806-2.583 2.793-1.617 0.966-3.717 0.966-3.192 0-5.271-2.163-2.058-2.163-2.058-5.502 0-3.276 2.142-5.481 2.163-2.226 5.376-2.226 2.037 0 3.591 0.966 1.575 0.945 2.457 2.709l-1.449 0.861q-0.819-1.491-1.953-2.205t-2.688-0.714q-2.415 0-4.032 1.722-1.596 1.722-1.596 4.326z"/><path d="m825.45 0v-14.7h10.668v1.596h-8.862v4.893h8.274v1.596h-8.274v5.019h8.862v1.596z"/><path d="m737.71 18.809 4.179 6.195h-2.142l-3.969-5.985h-4.137v5.985h-1.806v-14.7h6.468q2.478 0 3.864 1.155 1.386 1.134 1.386 3.129 0 1.638-1.008 2.751t-2.835 1.47zm2.016-4.179q0-1.281-0.924-1.995-0.903-0.735-2.541-0.735h-4.62v5.544h4.473q1.659 0 2.625-0.756 0.987-0.777 0.987-2.058z"/><path d="m743.86 25.004v-14.7h10.668v1.596h-8.862v4.893h8.274v1.596h-8.274v5.019h8.862v1.596z"/><path d="m762.82 25.319v-0.063q-2.898-0.294-4.788-2.415-1.869-2.142-1.869-5.166 0-3.255 2.163-5.481 2.163-2.226 5.334-2.226 3.192 0 5.313 2.205 2.142 2.184 2.142 5.46 0 3.003-1.869 5.166-1.869 2.142-4.746 2.457 0.021 0.966 0.441 1.365 0.42 0.42 1.407 0.42h1.323v1.407h-1.533q-1.68 0-2.499-0.777t-0.819-2.352zm-4.809-7.686q0 2.583 1.617 4.347 1.638 1.743 4.032 1.743t3.99-1.722q1.617-1.743 1.617-4.326t-1.617-4.326q-1.617-1.764-4.011-1.764-2.415 0-4.032 1.743-1.596 1.722-1.596 4.305z"/><path d="m779.79 23.723q2.184 0 3.528-1.47 1.365-1.491 1.365-3.864v-8.085h1.785v8.127q0 3.108-1.848 5.019-1.848 1.89-4.872 1.89t-4.851-1.89q-1.827-1.911-1.827-5.019v-8.127h1.806v8.085q0 2.373 1.365 3.864 1.365 1.47 3.549 1.47z"/><path d="m789.03 25.004v-14.7h10.668v1.596h-8.862v4.893h8.274v1.596h-8.274v5.019h8.862v1.596z"/><path d="m811.67 20.867q0-1.281-1.008-1.869-0.987-0.588-3.192-0.651-3.024-0.147-4.368-1.05-1.344-0.924-1.344-2.835 0-1.89 1.596-3.171 1.617-1.281 4.053-1.281 1.785 0 3.213 0.609t2.52 1.848l-1.134 1.197q-0.882-0.987-2.079-1.512t-2.52-0.525q-1.68 0-2.772 0.777t-1.092 1.911q0 1.197 0.966 1.743 0.987 0.525 3.171 0.588 3.003 0.126 4.389 1.113 1.386 0.966 1.386 2.961 0 1.974-1.659 3.276t-4.242 1.302q-2.1 0-3.633-0.672-1.512-0.672-2.688-2.142l1.113-1.197q1.071 1.239 2.331 1.827 1.26 0.567 2.877 0.567 1.806 0 2.961-0.798 1.155-0.819 1.155-2.016z"/><path d="m820.07 11.942h-5.712v-1.638h13.209v1.638h-5.691v13.062h-1.806z"/></g><g transform="matrix(1.0002 0 0 .99964 91.81 59)" fill="#fff" aria-label="INPUTIMAGEINPUTIMAGEINPUTIMAGEINPUTIMAGEINPUTIMAGE"><path d="m1.175 0v-17.5h4.7v17.5z"/><path d="m-0.375 31.54v10.475h-4.525v-17.5h4.75l7.675 10.475v-10.475h4.525v17.5h-4.75z"/><path d="m-3.9 84.031v-17.5h8.6q3.2 0 5.075 1.625t1.875 4.375q0 2.725-2.025 4.425-2 1.675-5.2 1.675h-3.625v5.4zm10.8-11.45q0-0.925-0.6-1.425-0.6-0.525-1.675-0.525h-3.825v3.95h3.725q1.1 0 1.725-0.525 0.65-0.55 0.65-1.475z"/><path d="m3.475 123.42q1.75 0 2.775-1.1t1.025-2.975v-9.8h4.7v9.85q0 3.675-2.35 5.875-2.35 2.175-6.275 2.175-3.825 0-6.125-2.175-2.275-2.2-2.275-5.875v-9.85h4.7v9.8q0 1.875 1.05 2.975t2.775 1.1z"/><path d="m1.25 155.66h-5.8v-4.1h16.3v4.1h-5.8v13.4h-4.7z"/><path d="m1.175 231.08v-17.5h4.7v17.5z"/><path d="m6.675 255.6h6.975v17.5h-4.65v-12.425l-3.775 8.175h-3.875l-3.6-8.025v12.275h-4.65v-17.5h6.975l3.225 7.525z"/><path d="m-0.1 311.99-1.225 3.125h-4.775l7.2-17.5h5.125l7.225 17.5h-4.925l-1.225-3.125zm3.7-9.45-2.15 5.5h4.3z"/><path d="m4.05 343.23q-2 0-3.4 1.475-1.375 1.475-1.375 3.65 0 2.3 1.325 3.75 1.325 1.425 3.425 1.425 1.625 0 2.65-0.675t1.45-2h-4.9v-3.7h9.425q0.05 0.3 0.075 0.725 0.05 0.425 0.05 0.8 0 4.075-2.4 6.475-2.4 2.375-6.55 2.375-4.05 0-6.675-2.575t-2.625-6.55q0-3.95 2.725-6.55 2.75-2.625 6.825-2.625 2.45 0 4.45 1 2.025 1 3.125 2.725l-3.2 2.625q-0.85-1.2-1.95-1.775-1.075-0.575-2.45-0.575z"/><path d="m-2.9 400.14v-17.5h13.7v3.95h-9v2.75h8.3v3.95h-8.3v2.9h9v3.95z"/><path d="m180.7 0v-17.5h4.7v17.5z"/><path d="m179.14 31.54v10.475h-4.525v-17.5h4.75l7.675 10.475v-10.475h4.525v17.5h-4.75z"/><path d="m175.62 84.031v-17.5h8.6q3.2 0 5.075 1.625t1.875 4.375q0 2.725-2.025 4.425-2 1.675-5.2 1.675h-3.625v5.4zm10.8-11.45q0-0.925-0.6-1.425-0.6-0.525-1.675-0.525h-3.825v3.95h3.725q1.1 0 1.725-0.525 0.65-0.55 0.65-1.475z"/><path d="m183 123.42q1.75 0 2.775-1.1t1.025-2.975v-9.8h4.7v9.85q0 3.675-2.35 5.875-2.35 2.175-6.275 2.175-3.825 0-6.125-2.175-2.275-2.2-2.275-5.875v-9.85h4.7v9.8q0 1.875 1.05 2.975t2.775 1.1z"/><path d="m180.77 155.66h-5.8v-4.1h16.3v4.1h-5.8v13.4h-4.7z"/><path d="m180.7 231.08v-17.5h4.7v17.5z"/><path d="m186.2 255.6h6.975v17.5h-4.65v-12.425l-3.775 8.175h-3.875l-3.6-8.025v12.275h-4.65v-17.5h6.975l3.225 7.525z"/><path d="m179.42 311.99-1.225 3.125h-4.775l7.2-17.5h5.125l7.225 17.5h-4.925l-1.225-3.125zm3.7-9.45-2.15 5.5h4.3z"/><path d="m183.57 343.23q-2 0-3.4 1.475-1.375 1.475-1.375 3.65 0 2.3 1.325 3.75 1.325 1.425 3.425 1.425 1.625 0 2.65-0.675t1.45-2h-4.9v-3.7h9.425q0.05 0.3 0.075 0.725 0.05 0.425 0.05 0.8 0 4.075-2.4 6.475-2.4 2.375-6.55 2.375-4.05 0-6.675-2.575t-2.625-6.55q0-3.95 2.725-6.55 2.75-2.625 6.825-2.625 2.45 0 4.45 1 2.025 1 3.125 2.725l-3.2 2.625q-0.85-1.2-1.95-1.775-1.075-0.575-2.45-0.575z"/><path d="m176.62 400.14v-17.5h13.7v3.95h-9v2.75h8.3v3.95h-8.3v2.9h9v3.95z"/><path d="m361.18 0v-17.5h4.7v17.5z"/><path d="m359.62 31.54v10.475h-4.525v-17.5h4.75l7.675 10.475v-10.475h4.525v17.5h-4.75z"/><path d="m356.1 84.031v-17.5h8.6q3.2 0 5.075 1.625t1.875 4.375q0 2.725-2.025 4.425-2 1.675-5.2 1.675h-3.625v5.4zm10.8-11.45q0-0.925-0.6-1.425-0.6-0.525-1.675-0.525h-3.825v3.95h3.725q1.1 0 1.725-0.525 0.65-0.55 0.65-1.475z"/><path d="m363.48 123.42q1.75 0 2.775-1.1t1.025-2.975v-9.8h4.7v9.85q0 3.675-2.35 5.875-2.35 2.175-6.275 2.175-3.825 0-6.125-2.175-2.275-2.2-2.275-5.875v-9.85h4.7v9.8q0 1.875 1.05 2.975t2.775 1.1z"/><path d="m361.25 155.66h-5.8v-4.1h16.3v4.1h-5.8v13.4h-4.7z"/><path d="m361.18 231.08v-17.5h4.7v17.5z"/><path d="m366.68 255.6h6.975v17.5h-4.65v-12.425l-3.775 8.175h-3.875l-3.6-8.025v12.275h-4.65v-17.5h6.975l3.225 7.525z"/><path d="m359.9 311.99-1.225 3.125h-4.775l7.2-17.5h5.125l7.225 17.5h-4.925l-1.225-3.125zm3.7-9.45-2.15 5.5h4.3z"/><path d="m364.05 343.23q-2 0-3.4 1.475-1.375 1.475-1.375 3.65 0 2.3 1.325 3.75 1.325 1.425 3.425 1.425 1.625 0 2.65-0.675t1.45-2h-4.9v-3.7h9.425q0.05 0.3 0.075 0.725 0.05 0.425 0.05 0.8 0 4.075-2.4 6.475-2.4 2.375-6.55 2.375-4.05 0-6.675-2.575t-2.625-6.55q0-3.95 2.725-6.55 2.75-2.625 6.825-2.625 2.45 0 4.45 1 2.025 1 3.125 2.725l-3.2 2.625q-0.85-1.2-1.95-1.775-1.075-0.575-2.45-0.575z"/><path d="m357.1 400.14v-17.5h13.7v3.95h-9v2.75h8.3v3.95h-8.3v2.9h9v3.95z"/><path d="m540.98 0v-17.5h4.7v17.5z"/><path d="m539.43 31.54v10.475h-4.525v-17.5h4.75l7.675 10.475v-10.475h4.525v17.5h-4.75z"/><path d="m535.91 84.031v-17.5h8.6q3.2 0 5.075 1.625t1.875 4.375q0 2.725-2.025 4.425-2 1.675-5.2 1.675h-3.625v5.4zm10.8-11.45q0-0.925-0.6-1.425-0.6-0.525-1.675-0.525h-3.825v3.95h3.725q1.1 0 1.725-0.525 0.65-0.55 0.65-1.475z"/><path d="m543.28 123.42q1.75 0 2.775-1.1t1.025-2.975v-9.8h4.7v9.85q0 3.675-2.35 5.875-2.35 2.175-6.275 2.175-3.825 0-6.125-2.175-2.275-2.2-2.275-5.875v-9.85h4.7v9.8q0 1.875 1.05 2.975t2.775 1.1z"/><path d="m541.06 155.66h-5.8v-4.1h16.3v4.1h-5.8v13.4h-4.7z"/><path d="m540.98 231.08v-17.5h4.7v17.5z"/><path d="m546.48 255.6h6.975v17.5h-4.65v-12.425l-3.775 8.175h-3.875l-3.6-8.025v12.275h-4.65v-17.5h6.975l3.225 7.525z"/><path d="m539.71 311.99-1.225 3.125h-4.775l7.2-17.5h5.125l7.225 17.5h-4.925l-1.225-3.125zm3.7-9.45-2.15 5.5h4.3z"/><path d="m543.86 343.23q-2 0-3.4 1.475-1.375 1.475-1.375 3.65 0 2.3 1.325 3.75 1.325 1.425 3.425 1.425 1.625 0 2.65-0.675t1.45-2h-4.9v-3.7h9.425q0.05 0.3 0.075 0.725 0.05 0.425 0.05 0.8 0 4.075-2.4 6.475-2.4 2.375-6.55 2.375-4.05 0-6.675-2.575t-2.625-6.55q0-3.95 2.725-6.55 2.75-2.625 6.825-2.625 2.45 0 4.45 1 2.025 1 3.125 2.725l-3.2 2.625q-0.85-1.2-1.95-1.775-1.075-0.575-2.45-0.575z"/><path d="m536.91 400.14v-17.5h13.7v3.95h-9v2.75h8.3v3.95h-8.3v2.9h9v3.95z"/><path d="m721.18 0v-17.5h4.7v17.5z"/><path d="m719.62 31.54v10.475h-4.525v-17.5h4.75l7.675 10.475v-10.475h4.525v17.5h-4.75z"/><path d="m716.1 84.031v-17.5h8.6q3.2 0 5.075 1.625t1.875 4.375q0 2.725-2.025 4.425-2 1.675-5.2 1.675h-3.625v5.4zm10.8-11.45q0-0.925-0.6-1.425-0.6-0.525-1.675-0.525h-3.825v3.95h3.725q1.1 0 1.725-0.525 0.65-0.55 0.65-1.475z"/><path d="m723.48 123.42q1.75 0 2.775-1.1t1.025-2.975v-9.8h4.7v9.85q0 3.675-2.35 5.875-2.35 2.175-6.275 2.175-3.825 0-6.125-2.175-2.275-2.2-2.275-5.875v-9.85h4.7v9.8q0 1.875 1.05 2.975t2.775 1.1z"/><path d="m721.25 155.66h-5.8v-4.1h16.3v4.1h-5.8v13.4h-4.7z"/><path d="m721.18 231.08v-17.5h4.7v17.5z"/><path d="m726.68 255.6h6.975v17.5h-4.65v-12.425l-3.775 8.175h-3.875l-3.6-8.025v12.275h-4.65v-17.5h6.975l3.225 7.525z"/><path d="m719.9 311.99-1.225 3.125h-4.775l7.2-17.5h5.125l7.225 17.5h-4.925l-1.225-3.125zm3.7-9.45-2.15 5.5h4.3z"/><path d="m724.05 343.23q-2 0-3.4 1.475-1.375 1.475-1.375 3.65 0 2.3 1.325 3.75 1.325 1.425 3.425 1.425 1.625 0 2.65-0.675t1.45-2h-4.9v-3.7h9.425q0.05 0.3 0.075 0.725 0.05 0.425 0.05 0.8 0 4.075-2.4 6.475-2.4 2.375-6.55 2.375-4.05 0-6.675-2.575t-2.625-6.55q0-3.95 2.725-6.55 2.75-2.625 6.825-2.625 2.45 0 4.45 1 2.025 1 3.125 2.725l-3.2 2.625q-0.85-1.2-1.95-1.775-1.075-0.575-2.45-0.575z"/><path d="m717.1 400.14v-17.5h13.7v3.95h-9v2.75h8.3v3.95h-8.3v2.9h9v3.95z"/></g><path d="m737 9.9982h164v652.88h-164z" fill="none" stroke="#2b66af" stroke-miterlimit="8" stroke-width="4.0007"/><g fill="#F0955E" fill-rule="evenodd" stroke="#fff" stroke-miterlimit="8" stroke-width="2.0004"><path d="m62 498.42 11.5-23.503 11.5 23.503h-5.75v89.476h-11.5v-89.476z"/><path d="m106 499.44 12-24.525 12 24.525h-6v88.454h-12v-88.454z"/><path d="m245 498.42 11.5-23.503 11.5 23.503h-5.75v89.476h-11.5v-89.476z"/><path d="m289 498.42 11.5-23.503 11.5 23.503h-5.75v89.476h-11.5v-89.476z"/><path d="m422 499.44 12-24.525 12 24.525h-6v88.454h-12v-88.454z"/><path d="m466 499.44 12-24.525 12 24.525h-6v88.454h-12v-88.454z"/><path d="m604 499.44 12-24.525 12 24.525h-6v88.454h-12v-88.454z"/><path d="m649 498.42 11.5-23.503 11.5 23.503h-5.75v89.476h-11.5v-89.476z"/><path d="m784 498.42 11.5-23.503 11.5 23.503h-5.75v89.476h-11.5v-89.476z"/><path d="m828 498.42 11.5-23.503 11.5 23.503h-5.75v89.476h-11.5v-89.476z"/></g></g></svg>
