<?xml version="1.0" encoding="UTF-8"?>
<svg width="922" height="673" overflow="hidden" version="1.1" xmlns="http://www.w3.org/2000/svg"><defs><clipPath id="clip0"><rect width="922" height="673"/></clipPath></defs><g clip-path="url(#clip0)"><path d="m0 0h922v673.29h-922z" fill="#fff"/><g transform="matrix(1 0 0 1.0004 270.17 640)" fill="#2b66af" aria-label="USER’S INFERENCE REQUEST"><path d="m10.152-1.647q2.808 0 4.536-1.89 1.755-1.917 1.755-4.968v-10.395h2.295v10.449q0 3.996-2.376 6.453-2.376 2.43-6.264 2.43t-6.237-2.43q-2.349-2.457-2.349-6.453v-10.449h2.322v10.395q0 3.051 1.755 4.968 1.755 1.89 4.563 1.89z"/><path d="m34.398-5.319q0-1.647-1.296-2.403-1.269-0.756-4.104-0.837-3.888-0.189-5.616-1.35-1.728-1.188-1.728-3.645 0-2.43 2.052-4.077 2.079-1.647 5.211-1.647 2.295 0 4.131 0.783t3.24 2.376l-1.458 1.539q-1.134-1.269-2.673-1.944t-3.24-0.675q-2.16 0-3.564 0.999t-1.404 2.457q0 1.539 1.242 2.241 1.269 0.675 4.077 0.756 3.861 0.162 5.643 1.431 1.782 1.242 1.782 3.807 0 2.538-2.133 4.212t-5.454 1.674q-2.7 0-4.671-0.864-1.944-0.864-3.456-2.754l1.431-1.539q1.377 1.593 2.997 2.349 1.62 0.729 3.699 0.729 2.322 0 3.807-1.026 1.485-1.053 1.485-2.592z"/><path d="m39.609 0v-18.9h13.716v2.052h-11.394v6.291h10.638v2.052h-10.638v6.453h11.394v2.052z"/><path d="m66.528-7.965 5.373 7.965h-2.754l-5.103-7.695h-5.319v7.695h-2.322v-18.9h8.316q3.186 0 4.968 1.485 1.782 1.458 1.782 4.023 0 2.106-1.296 3.537t-3.645 1.89zm2.592-5.373q0-1.647-1.188-2.565-1.161-0.945-3.267-0.945h-5.94v7.128h5.751q2.133 0 3.375-0.972 1.269-0.999 1.269-2.646z"/><path d="m75.168-13.284h-1.674l1.701-5.616h2.592z"/><path d="m91.53-5.319q0-1.647-1.296-2.403-1.269-0.756-4.104-0.837-3.888-0.189-5.616-1.35-1.728-1.188-1.728-3.645 0-2.43 2.052-4.077 2.079-1.647 5.211-1.647 2.295 0 4.131 0.783t3.24 2.376l-1.458 1.539q-1.134-1.269-2.673-1.944t-3.24-0.675q-2.16 0-3.564 0.999t-1.404 2.457q0 1.539 1.242 2.241 1.269 0.675 4.077 0.756 3.861 0.162 5.643 1.431 1.782 1.242 1.782 3.807 0 2.538-2.133 4.212t-5.454 1.674q-2.7 0-4.671-0.864-1.944-0.864-3.456-2.754l1.431-1.539q1.377 1.593 2.997 2.349 1.62 0.729 3.699 0.729 2.322 0 3.807-1.026 1.485-1.053 1.485-2.592z"/><path d="m101.92 0v-18.9h2.322v18.9z"/><path d="m110.21-15.525v15.525h-2.268v-18.9h2.484l11.799 15.444v-15.444h2.268v18.9h-2.43z"/><path d="m128.01 0v-18.9h13.554v2.052h-11.232v6.426h10.476v2.052h-10.476v8.37z"/><path d="m144.21 0v-18.9h13.716v2.052h-11.394v6.291h10.638v2.052h-10.638v6.453h11.394v2.052z"/><path d="m171.13-7.965 5.373 7.965h-2.754l-5.103-7.695h-5.319v7.695h-2.322v-18.9h8.316q3.186 0 4.968 1.485 1.782 1.458 1.782 4.023 0 2.106-1.296 3.537t-3.645 1.89zm2.592-5.373q0-1.647-1.188-2.565-1.161-0.945-3.267-0.945h-5.94v7.128h5.751q2.133 0 3.375-0.972 1.269-0.999 1.269-2.646z"/><path d="m179.04 0v-18.9h13.716v2.052h-11.394v6.291h10.638v2.052h-10.638v6.453h11.394v2.052z"/><path d="m198.1-15.525v15.525h-2.268v-18.9h2.484l11.799 15.444v-15.444h2.268v18.9h-2.43z"/><path d="m217.51-9.477q0 3.375 2.025 5.616 2.025 2.214 5.076 2.214 2.052 0 3.591-0.945 1.566-0.945 2.673-2.835l1.782 1.026q-1.215 2.322-3.321 3.591-2.079 1.242-4.779 1.242-4.104 0-6.777-2.781-2.646-2.781-2.646-7.074 0-4.212 2.754-7.047 2.781-2.862 6.912-2.862 2.619 0 4.617 1.242 2.025 1.215 3.159 3.483l-1.863 1.107q-1.053-1.917-2.511-2.835t-3.456-0.918q-3.105 0-5.184 2.214-2.052 2.214-2.052 5.562z"/><path d="m235.39 0v-18.9h13.716v2.052h-11.394v6.291h10.638v2.052h-10.638v6.453h11.394v2.052z"/><path d="m267.3-7.965 5.373 7.965h-2.754l-5.103-7.695h-5.319v7.695h-2.322v-18.9h8.316q3.186 0 4.968 1.485 1.782 1.458 1.782 4.023 0 2.106-1.296 3.537t-3.645 1.89zm2.592-5.373q0-1.647-1.188-2.565-1.161-0.945-3.267-0.945h-5.94v7.128h5.751q2.133 0 3.375-0.972 1.269-0.999 1.269-2.646z"/><path d="m275.21 0v-18.9h13.716v2.052h-11.394v6.291h10.638v2.052h-10.638v6.453h11.394v2.052z"/><path d="m299.59 0.405v-0.081q-3.726-0.378-6.156-3.105-2.403-2.754-2.403-6.642 0-4.185 2.781-7.047t6.858-2.862q4.104 0 6.831 2.835 2.754 2.808 2.754 7.02 0 3.861-2.403 6.642-2.403 2.754-6.102 3.159 0.027 1.242 0.567 1.755 0.54 0.54 1.809 0.54h1.701v1.809h-1.971q-2.16 0-3.213-0.999t-1.053-3.024zm-6.183-9.882q0 3.321 2.079 5.589 2.106 2.241 5.184 2.241t5.13-2.214q2.079-2.241 2.079-5.562t-2.079-5.562q-2.079-2.268-5.157-2.268-3.105 0-5.184 2.241-2.052 2.214-2.052 5.535z"/><path d="m321.41-1.647q2.808 0 4.536-1.89 1.755-1.917 1.755-4.968v-10.395h2.295v10.449q0 3.996-2.376 6.453-2.376 2.43-6.264 2.43t-6.237-2.43q-2.349-2.457-2.349-6.453v-10.449h2.322v10.395q0 3.051 1.755 4.968 1.755 1.89 4.563 1.89z"/><path d="m333.29 0v-18.9h13.716v2.052h-11.394v6.291h10.638v2.052h-10.638v6.453h11.394v2.052z"/><path d="m362.39-5.319q0-1.647-1.296-2.403-1.269-0.756-4.104-0.837-3.888-0.189-5.616-1.35-1.728-1.188-1.728-3.645 0-2.43 2.052-4.077 2.079-1.647 5.211-1.647 2.295 0 4.131 0.783t3.24 2.376l-1.458 1.539q-1.134-1.269-2.673-1.944t-3.24-0.675q-2.16 0-3.564 0.999t-1.404 2.457q0 1.539 1.242 2.241 1.269 0.675 4.077 0.756 3.861 0.162 5.643 1.431 1.782 1.242 1.782 3.807 0 2.538-2.133 4.212t-5.454 1.674q-2.7 0-4.671-0.864-1.944-0.864-3.456-2.754l1.431-1.539q1.377 1.593 2.997 2.349 1.62 0.729 3.699 0.729 2.322 0 3.807-1.026 1.485-1.053 1.485-2.592z"/><path d="m373.19-16.794h-7.344v-2.106h16.983v2.106h-7.317v16.794h-2.322z"/></g><path d="m67 530.23h786v60.026h-786z" fill="none" stroke="#2b66af" stroke-miterlimit="8" stroke-width="3.9993"/><g transform="matrix(1 0 0 1.0004 395.81 580)" fill="#2b66af" aria-label="LAYER"><path d="m1.672 0v-26.6h7.144v20.52h12.35v6.08z"/><path d="m30.856-4.75-1.862 4.75h-7.258l10.944-26.6h7.79l10.982 26.6h-7.486l-1.862-4.75zm5.624-14.364-3.268 8.36h6.536z"/><path d="m66.804-26.6h8.018l-10.412 15.39v11.21h-7.144v-11.21l-10.412-15.39h8.208l5.89 9.424z"/><path d="m76.418 0v-26.6h20.824v6.004h-13.68v4.18h12.616v6.004h-12.616v4.408h13.68v6.004z"/><path d="m118.29-10.45 6.346 10.45h-8.322l-5.168-9.082h-4.028v9.082h-7.068v-26.6h12.996q5.244 0 8.018 2.204 2.812 2.166 2.812 6.27 0 2.812-1.406 4.75t-4.18 2.926zm-1.634-7.41q0-1.368-0.912-2.052t-2.774-0.684h-5.852v5.586h5.852q1.786 0 2.736-0.722 0.95-0.76 0.95-2.128z"/></g><path transform="matrix(1 0 0 -1.0004 460 530.19)" d="m3.9993-7.6376e-6 6e-5 34.968h-7.9986l-7e-5 -34.968zm7.9986 30.969-11.998 23.996-11.998-23.996z" fill="#2B66AF"/><path d="m67 412.18h786v61.026h-786z" fill="none" stroke="#2b66af" stroke-miterlimit="8" stroke-width="3.9993"/><g transform="matrix(1 0 0 1.0004 395.81 462)" fill="#2b66af" aria-label="LAYER"><path d="m1.672 0v-26.6h7.144v20.52h12.35v6.08z"/><path d="m30.856-4.75-1.862 4.75h-7.258l10.944-26.6h7.79l10.982 26.6h-7.486l-1.862-4.75zm5.624-14.364-3.268 8.36h6.536z"/><path d="m66.804-26.6h8.018l-10.412 15.39v11.21h-7.144v-11.21l-10.412-15.39h8.208l5.89 9.424z"/><path d="m76.418 0v-26.6h20.824v6.004h-13.68v4.18h12.616v6.004h-12.616v4.408h13.68v6.004z"/><path d="m118.29-10.45 6.346 10.45h-8.322l-5.168-9.082h-4.028v9.082h-7.068v-26.6h12.996q5.244 0 8.018 2.204 2.812 2.166 2.812 6.27 0 2.812-1.406 4.75t-4.18 2.926zm-1.634-7.41q0-1.368-0.912-2.052t-2.774-0.684h-5.852v5.586h5.852q1.786 0 2.736-0.722 0.95-0.76 0.95-2.128z"/></g><path transform="matrix(1 0 0 -1.0004 460 412.14)" d="m3.9993-7.6376e-6 6e-5 34.968h-7.9986l-7e-5 -34.968zm7.9986 30.969-11.998 23.996-11.998-23.996z" fill="#2B66AF"/><path d="m67 295.13h786v60.026h-786z" fill="none" stroke="#2b66af" stroke-miterlimit="8" stroke-width="3.9993"/><g transform="matrix(1 0 0 1.0004 395.81 344)" fill="#2b66af" aria-label="LAYER"><path d="m1.672 0v-26.6h7.144v20.52h12.35v6.08z"/><path d="m30.856-4.75-1.862 4.75h-7.258l10.944-26.6h7.79l10.982 26.6h-7.486l-1.862-4.75zm5.624-14.364-3.268 8.36h6.536z"/><path d="m66.804-26.6h8.018l-10.412 15.39v11.21h-7.144v-11.21l-10.412-15.39h8.208l5.89 9.424z"/><path d="m76.418 0v-26.6h20.824v6.004h-13.68v4.18h12.616v6.004h-12.616v4.408h13.68v6.004z"/><path d="m118.29-10.45 6.346 10.45h-8.322l-5.168-9.082h-4.028v9.082h-7.068v-26.6h12.996q5.244 0 8.018 2.204 2.812 2.166 2.812 6.27 0 2.812-1.406 4.75t-4.18 2.926zm-1.634-7.41q0-1.368-0.912-2.052t-2.774-0.684h-5.852v5.586h5.852q1.786 0 2.736-0.722 0.95-0.76 0.95-2.128z"/></g><path transform="matrix(1 0 0 -1.0004 460 294.09)" d="m3.9993-7.6376e-6 6e-5 34.968h-7.9986l-7e-5 -34.968zm7.9986 30.969-11.998 23.996-11.998-23.996z" fill="#2B66AF"/><path d="m67 177.08h786v60.026h-786z" fill="none" stroke="#2b66af" stroke-miterlimit="8" stroke-width="3.9993"/><g transform="matrix(1 0 0 1.0004 395.81 226)" fill="#2b66af" aria-label="LAYER"><path d="m1.672 0v-26.6h7.144v20.52h12.35v6.08z"/><path d="m30.856-4.75-1.862 4.75h-7.258l10.944-26.6h7.79l10.982 26.6h-7.486l-1.862-4.75zm5.624-14.364-3.268 8.36h6.536z"/><path d="m66.804-26.6h8.018l-10.412 15.39v11.21h-7.144v-11.21l-10.412-15.39h8.208l5.89 9.424z"/><path d="m76.418 0v-26.6h20.824v6.004h-13.68v4.18h12.616v6.004h-12.616v4.408h13.68v6.004z"/><path d="m118.29-10.45 6.346 10.45h-8.322l-5.168-9.082h-4.028v9.082h-7.068v-26.6h12.996q5.244 0 8.018 2.204 2.812 2.166 2.812 6.27 0 2.812-1.406 4.75t-4.18 2.926zm-1.634-7.41q0-1.368-0.912-2.052t-2.774-0.684h-5.852v5.586h5.852q1.786 0 2.736-0.722 0.95-0.76 0.95-2.128z"/></g><path transform="matrix(1 0 0 -1.0004 460 177.04)" d="m3.9993-7.6376e-6 6e-5 34.968h-7.9986l-7e-5 -34.968zm7.9986 30.969-11.998 23.996-11.998-23.996z" fill="#2B66AF"/><path d="m67 59.025h786v60.026h-786z" fill="none" stroke="#2b66af" stroke-miterlimit="8" stroke-width="3.9993"/><g transform="matrix(1 0 0 1.0004 395.81 108)" fill="#2b66af" aria-label="LAYER"><path d="m1.672 0v-26.6h7.144v20.52h12.35v6.08z"/><path d="m30.856-4.75-1.862 4.75h-7.258l10.944-26.6h7.79l10.982 26.6h-7.486l-1.862-4.75zm5.624-14.364-3.268 8.36h6.536z"/><path d="m66.804-26.6h8.018l-10.412 15.39v11.21h-7.144v-11.21l-10.412-15.39h8.208l5.89 9.424z"/><path d="m76.418 0v-26.6h20.824v6.004h-13.68v4.18h12.616v6.004h-12.616v4.408h13.68v6.004z"/><path d="m118.29-10.45 6.346 10.45h-8.322l-5.168-9.082h-4.028v9.082h-7.068v-26.6h12.996q5.244 0 8.018 2.204 2.812 2.166 2.812 6.27 0 2.812-1.406 4.75t-4.18 2.926zm-1.634-7.41q0-1.368-0.912-2.052t-2.774-0.684h-5.852v5.586h5.852q1.786 0 2.736-0.722 0.95-0.76 0.95-2.128z"/></g><g fill="#F0955E"><path transform="matrix(1 0 0 -1.0004 324 588.22)" d="m1.9996-3.8188e-6 8e-5 44.967h-3.9993l-9e-5 -44.966zm3.9994 42.967-5.9989 11.998-5.9989-11.998z"/><path transform="matrix(1 0 0 -1.0004 302 588.22)" d="m1.9996-3.8188e-6 8e-5 44.967h-3.9993l-9e-5 -44.966zm3.9994 42.967-5.9989 11.998-5.9989-11.998z"/><path transform="matrix(1 0 0 -1.0004 280 588.22)" d="m1.9996-3.8188e-6 8e-5 44.967h-3.9993l-9e-5 -44.966zm3.9994 42.967-5.9989 11.998-5.9989-11.998z"/><path transform="matrix(1 0 0 -1.0004 258 588.22)" d="m1.9996-3.8188e-6 8e-5 44.967h-3.9993l-9e-5 -44.966zm3.9994 42.967-5.9989 11.998-5.9989-11.998z"/><path transform="matrix(1 0 0 -1.0004 236 588.22)" d="m1.9996-3.8188e-6 8e-5 44.966h-3.9993l-9e-5 -44.966zm3.9994 42.967-5.9989 11.998-5.9989-11.998z"/><path transform="matrix(1 0 0 -1.0004 214 588.22)" d="m1.9996-3.8188e-6 8e-5 44.966h-3.9993l-9e-5 -44.966zm3.9994 42.967-5.9989 11.998-5.9989-11.998z"/><path transform="matrix(1 0 0 -1.0004 192 588.22)" d="m1.9996-3.8188e-6 8e-5 44.966h-3.9993l-9e-5 -44.966zm3.9994 42.967-5.9989 11.998-5.9989-11.998z"/><path transform="matrix(1 0 0 -1.0004 171 588.22)" d="m1.9996-3.8188e-6 8e-5 44.966h-3.9993l-9e-5 -44.966zm3.9994 42.967-5.9989 11.998-5.9989-11.998z"/><path transform="matrix(1 0 0 -1.0004 149 588.22)" d="m1.9996-3.8188e-6 8e-5 44.967h-3.9993l-9e-5 -44.966zm3.9994 42.967-5.9989 11.998-5.9989-11.998z"/><path transform="matrix(1 0 0 -1.0004 127 588.22)" d="m1.9996-3.8188e-6 8e-5 44.967h-3.9993l-9e-5 -44.966zm3.9994 42.967-5.9989 11.998-5.9989-11.998z"/><path transform="matrix(1 0 0 -1.0004 105 588.22)" d="m1.9996-3.8188e-6 8e-5 44.967h-3.9993l-9e-5 -44.966zm3.9994 42.967-5.9989 11.998-5.9989-11.998z"/><path transform="matrix(1 0 0 -1.0004 83 588.22)" d="m1.9996-3.8188e-6 8e-5 44.967h-3.9993l-9e-5 -44.966zm3.9994 42.967-5.9989 11.998-5.9989-11.998z"/><path transform="matrix(1 0 0 -1.0004 837 588.22)" d="m1.9996-3.8188e-6 8e-5 44.967h-3.9993l-9e-5 -44.966zm3.9994 42.967-5.9989 11.998-5.9989-11.998z"/><path transform="matrix(1 0 0 -1.0004 815 588.22)" d="m1.9996-3.8188e-6 8e-5 44.967h-3.9993l-9e-5 -44.966zm3.9994 42.967-5.9989 11.998-5.9989-11.998z"/><path transform="matrix(1 0 0 -1.0004 793 588.22)" d="m1.9996-3.8188e-6 8e-5 44.967h-3.9993l-9e-5 -44.966zm3.9994 42.967-5.9989 11.998-5.9989-11.998z"/><path transform="matrix(1 0 0 -1.0004 771 588.22)" d="m1.9996-3.8188e-6 8e-5 44.967h-3.9993l-9e-5 -44.966zm3.9994 42.967-5.9989 11.998-5.9989-11.998z"/><path transform="matrix(1 0 0 -1.0004 749 588.22)" d="m1.9996-3.8188e-6 8e-5 44.966h-3.9993l-9e-5 -44.966zm3.9994 42.967-5.9989 11.998-5.9989-11.998z"/><path transform="matrix(1 0 0 -1.0004 728 588.22)" d="m1.9996-3.8188e-6 8e-5 44.966h-3.9993l-9e-5 -44.966zm3.9994 42.967-5.9989 11.998-5.9989-11.998z"/><path transform="matrix(1 0 0 -1.0004 705 588.22)" d="m1.9996-3.8188e-6 8e-5 44.966h-3.9993l-9e-5 -44.966zm3.9994 42.967-5.9989 11.998-5.9989-11.998z"/><path transform="matrix(1 0 0 -1.0004 684 588.22)" d="m1.9996-3.8188e-6 8e-5 44.966h-3.9993l-9e-5 -44.966zm3.9994 42.967-5.9989 11.998-5.9989-11.998z"/><path transform="matrix(1 0 0 -1.0004 662 588.22)" d="m1.9996-3.8188e-6 8e-5 44.967h-3.9993l-9e-5 -44.966zm3.9994 42.967-5.9989 11.998-5.9989-11.998z"/><path transform="matrix(1 0 0 -1.0004 640 588.22)" d="m1.9996-3.8188e-6 8e-5 44.967h-3.9993l-9e-5 -44.966zm3.9994 42.967-5.9989 11.998-5.9989-11.998z"/><path transform="matrix(1 0 0 -1.0004 618 588.22)" d="m1.9996-3.8188e-6 8e-5 44.967h-3.9993l-9e-5 -44.966zm3.9994 42.967-5.9989 11.998-5.9989-11.998z"/><path transform="matrix(1 0 0 -1.0004 596 588.22)" d="m1.9996-3.8188e-6 8e-5 44.967h-3.9993l-9e-5 -44.966zm3.9994 42.967-5.9989 11.998-5.9989-11.998z"/><path transform="matrix(1 0 0 -1.0004 324 234.06)" d="m1.9996-3.8188e-6 8e-5 44.967h-3.9993l-9e-5 -44.966zm3.9994 42.967-5.9989 11.998-5.9989-11.998z"/><path transform="matrix(1 0 0 -1.0004 302 234.06)" d="m1.9996-3.8188e-6 8e-5 44.967h-3.9993l-9e-5 -44.966zm3.9994 42.967-5.9989 11.998-5.9989-11.998z"/><path transform="matrix(1 0 0 -1.0004 280 234.06)" d="m1.9996-3.8188e-6 8e-5 44.967h-3.9993l-9e-5 -44.966zm3.9994 42.967-5.9989 11.998-5.9989-11.998z"/><path transform="matrix(1 0 0 -1.0004 258 234.06)" d="m1.9996-3.8188e-6 8e-5 44.967h-3.9993l-9e-5 -44.966zm3.9994 42.967-5.9989 11.998-5.9989-11.998z"/><path transform="matrix(1 0 0 -1.0004 236 234.06)" d="m1.9996-3.8188e-6 8e-5 44.966h-3.9993l-9e-5 -44.966zm3.9994 42.967-5.9989 11.998-5.9989-11.998z"/><path transform="matrix(1 0 0 -1.0004 214 234.06)" d="m1.9996-3.8188e-6 8e-5 44.966h-3.9993l-9e-5 -44.966zm3.9994 42.967-5.9989 11.998-5.9989-11.998z"/><path transform="matrix(1 0 0 -1.0004 192 234.06)" d="m1.9996-3.8188e-6 8e-5 44.966h-3.9993l-9e-5 -44.966zm3.9994 42.967-5.9989 11.998-5.9989-11.998z"/><path transform="matrix(1 0 0 -1.0004 171 234.06)" d="m1.9996-3.8188e-6 8e-5 44.966h-3.9993l-9e-5 -44.966zm3.9994 42.967-5.9989 11.998-5.9989-11.998z"/><path transform="matrix(1 0 0 -1.0004 149 234.06)" d="m1.9996-3.8188e-6 8e-5 44.967h-3.9993l-9e-5 -44.966zm3.9994 42.967-5.9989 11.998-5.9989-11.998z"/><path transform="matrix(1 0 0 -1.0004 127 234.06)" d="m1.9996-3.8188e-6 8e-5 44.967h-3.9993l-9e-5 -44.966zm3.9994 42.967-5.9989 11.998-5.9989-11.998z"/><path transform="matrix(1 0 0 -1.0004 105 234.06)" d="m1.9996-3.8188e-6 8e-5 44.967h-3.9993l-9e-5 -44.966zm3.9994 42.967-5.9989 11.998-5.9989-11.998z"/><path transform="matrix(1 0 0 -1.0004 83 234.06)" d="m1.9996-3.8188e-6 8e-5 44.967h-3.9993l-9e-5 -44.966zm3.9994 42.967-5.9989 11.998-5.9989-11.998z"/><path transform="matrix(1 0 0 -1.0004 837 234.06)" d="m1.9996-3.8188e-6 8e-5 44.967h-3.9993l-9e-5 -44.966zm3.9994 42.967-5.9989 11.998-5.9989-11.998z"/><path transform="matrix(1 0 0 -1.0004 815 234.06)" d="m1.9996-3.8188e-6 8e-5 44.967h-3.9993l-9e-5 -44.966zm3.9994 42.967-5.9989 11.998-5.9989-11.998z"/><path transform="matrix(1 0 0 -1.0004 793 234.06)" d="m1.9996-3.8188e-6 8e-5 44.967h-3.9993l-9e-5 -44.966zm3.9994 42.967-5.9989 11.998-5.9989-11.998z"/><path transform="matrix(1 0 0 -1.0004 771 234.06)" d="m1.9996-3.8188e-6 8e-5 44.967h-3.9993l-9e-5 -44.966zm3.9994 42.967-5.9989 11.998-5.9989-11.998z"/><path transform="matrix(1 0 0 -1.0004 749 234.06)" d="m1.9996-3.8188e-6 8e-5 44.966h-3.9993l-9e-5 -44.966zm3.9994 42.967-5.9989 11.998-5.9989-11.998z"/><path transform="matrix(1 0 0 -1.0004 728 234.06)" d="m1.9996-3.8188e-6 8e-5 44.966h-3.9993l-9e-5 -44.966zm3.9994 42.967-5.9989 11.998-5.9989-11.998z"/><path transform="matrix(1 0 0 -1.0004 705 234.06)" d="m1.9996-3.8188e-6 8e-5 44.966h-3.9993l-9e-5 -44.966zm3.9994 42.967-5.9989 11.998-5.9989-11.998z"/><path transform="matrix(1 0 0 -1.0004 684 234.06)" d="m1.9996-3.8188e-6 8e-5 44.966h-3.9993l-9e-5 -44.966zm3.9994 42.967-5.9989 11.998-5.9989-11.998z"/><path transform="matrix(1 0 0 -1.0004 662 234.06)" d="m1.9996-3.8188e-6 8e-5 44.967h-3.9993l-9e-5 -44.966zm3.9994 42.967-5.9989 11.998-5.9989-11.998z"/><path transform="matrix(1 0 0 -1.0004 640 234.06)" d="m1.9996-3.8188e-6 8e-5 44.967h-3.9993l-9e-5 -44.966zm3.9994 42.967-5.9989 11.998-5.9989-11.998z"/><path transform="matrix(1 0 0 -1.0004 618 234.06)" d="m1.9996-3.8188e-6 8e-5 44.967h-3.9993l-9e-5 -44.966zm3.9994 42.967-5.9989 11.998-5.9989-11.998z"/><path transform="matrix(1 0 0 -1.0004 596 234.06)" d="m1.9996-3.8188e-6 8e-5 44.967h-3.9993l-9e-5 -44.966zm3.9994 42.967-5.9989 11.998-5.9989-11.998z"/><path transform="matrix(1 0 0 -1.0004 324 353.12)" d="m1.9996-3.8188e-6 8e-5 44.967h-3.9993l-9e-5 -44.966zm3.9994 42.967-5.9989 11.998-5.9989-11.998z"/><path transform="matrix(1 0 0 -1.0004 302 353.12)" d="m1.9996-3.8188e-6 8e-5 44.967h-3.9993l-9e-5 -44.966zm3.9994 42.967-5.9989 11.998-5.9989-11.998z"/><path transform="matrix(1 0 0 -1.0004 280 353.12)" d="m1.9996-3.8188e-6 8e-5 44.967h-3.9993l-9e-5 -44.966zm3.9994 42.967-5.9989 11.998-5.9989-11.998z"/><path transform="matrix(1 0 0 -1.0004 258 353.12)" d="m1.9996-3.8188e-6 8e-5 44.967h-3.9993l-9e-5 -44.966zm3.9994 42.967-5.9989 11.998-5.9989-11.998z"/><path transform="matrix(1 0 0 -1.0004 236 353.12)" d="m1.9996-3.8188e-6 8e-5 44.966h-3.9993l-9e-5 -44.966zm3.9994 42.967-5.9989 11.998-5.9989-11.998z"/><path transform="matrix(1 0 0 -1.0004 214 353.12)" d="m1.9996-3.8188e-6 8e-5 44.966h-3.9993l-9e-5 -44.966zm3.9994 42.967-5.9989 11.998-5.9989-11.998z"/><path transform="matrix(1 0 0 -1.0004 192 353.12)" d="m1.9996-3.8188e-6 8e-5 44.966h-3.9993l-9e-5 -44.966zm3.9994 42.967-5.9989 11.998-5.9989-11.998z"/><path transform="matrix(1 0 0 -1.0004 171 353.12)" d="m1.9996-3.8188e-6 8e-5 44.966h-3.9993l-9e-5 -44.966zm3.9994 42.967-5.9989 11.998-5.9989-11.998z"/><path transform="matrix(1 0 0 -1.0004 149 353.12)" d="m1.9996-3.8188e-6 8e-5 44.967h-3.9993l-9e-5 -44.966zm3.9994 42.967-5.9989 11.998-5.9989-11.998z"/><path transform="matrix(1 0 0 -1.0004 127 353.12)" d="m1.9996-3.8188e-6 8e-5 44.967h-3.9993l-9e-5 -44.966zm3.9994 42.967-5.9989 11.998-5.9989-11.998z"/><path transform="matrix(1 0 0 -1.0004 105 353.12)" d="m1.9996-3.8188e-6 8e-5 44.967h-3.9993l-9e-5 -44.966zm3.9994 42.967-5.9989 11.998-5.9989-11.998z"/><path transform="matrix(1 0 0 -1.0004 83 353.12)" d="m1.9996-3.8188e-6 8e-5 44.967h-3.9993l-9e-5 -44.966zm3.9994 42.967-5.9989 11.998-5.9989-11.998z"/><path transform="matrix(1 0 0 -1.0004 837 353.12)" d="m1.9996-3.8188e-6 8e-5 44.967h-3.9993l-9e-5 -44.966zm3.9994 42.967-5.9989 11.998-5.9989-11.998z"/><path transform="matrix(1 0 0 -1.0004 815 353.12)" d="m1.9996-3.8188e-6 8e-5 44.967h-3.9993l-9e-5 -44.966zm3.9994 42.967-5.9989 11.998-5.9989-11.998z"/><path transform="matrix(1 0 0 -1.0004 793 353.12)" d="m1.9996-3.8188e-6 8e-5 44.967h-3.9993l-9e-5 -44.966zm3.9994 42.967-5.9989 11.998-5.9989-11.998z"/><path transform="matrix(1 0 0 -1.0004 771 353.12)" d="m1.9996-3.8188e-6 8e-5 44.967h-3.9993l-9e-5 -44.966zm3.9994 42.967-5.9989 11.998-5.9989-11.998z"/><path transform="matrix(1 0 0 -1.0004 749 353.12)" d="m1.9996-3.8188e-6 8e-5 44.966h-3.9993l-9e-5 -44.966zm3.9994 42.967-5.9989 11.998-5.9989-11.998z"/><path transform="matrix(1 0 0 -1.0004 728 353.12)" d="m1.9996-3.8188e-6 8e-5 44.966h-3.9993l-9e-5 -44.966zm3.9994 42.967-5.9989 11.998-5.9989-11.998z"/><path transform="matrix(1 0 0 -1.0004 705 353.12)" d="m1.9996-3.8188e-6 8e-5 44.966h-3.9993l-9e-5 -44.966zm3.9994 42.967-5.9989 11.998-5.9989-11.998z"/><path transform="matrix(1 0 0 -1.0004 684 353.12)" d="m1.9996-3.8188e-6 8e-5 44.966h-3.9993l-9e-5 -44.966zm3.9994 42.967-5.9989 11.998-5.9989-11.998z"/><path transform="matrix(1 0 0 -1.0004 662 353.12)" d="m1.9996-3.8188e-6 8e-5 44.967h-3.9993l-9e-5 -44.966zm3.9994 42.967-5.9989 11.998-5.9989-11.998z"/><path transform="matrix(1 0 0 -1.0004 640 353.12)" d="m1.9996-3.8188e-6 8e-5 44.967h-3.9993l-9e-5 -44.966zm3.9994 42.967-5.9989 11.998-5.9989-11.998z"/><path transform="matrix(1 0 0 -1.0004 618 353.12)" d="m1.9996-3.8188e-6 8e-5 44.967h-3.9993l-9e-5 -44.966zm3.9994 42.967-5.9989 11.998-5.9989-11.998z"/><path transform="matrix(1 0 0 -1.0004 596 353.12)" d="m1.9996-3.8188e-6 8e-5 44.967h-3.9993l-9e-5 -44.966zm3.9994 42.967-5.9989 11.998-5.9989-11.998z"/><path transform="matrix(1 0 0 -1.0004 837 470.17)" d="m1.9996-3.8188e-6 8e-5 44.967h-3.9993l-9e-5 -44.966zm3.9994 42.967-5.9989 11.998-5.9989-11.998z"/><path transform="matrix(1 0 0 -1.0004 815 470.17)" d="m1.9996-3.8188e-6 8e-5 44.967h-3.9993l-9e-5 -44.966zm3.9994 42.967-5.9989 11.998-5.9989-11.998z"/><path transform="matrix(1 0 0 -1.0004 793 470.17)" d="m1.9996-3.8188e-6 8e-5 44.967h-3.9993l-9e-5 -44.966zm3.9994 42.967-5.9989 11.998-5.9989-11.998z"/><path transform="matrix(1 0 0 -1.0004 771 470.17)" d="m1.9996-3.8188e-6 8e-5 44.967h-3.9993l-9e-5 -44.966zm3.9994 42.967-5.9989 11.998-5.9989-11.998z"/><path transform="matrix(1 0 0 -1.0004 749 470.17)" d="m1.9996-3.8188e-6 8e-5 44.966h-3.9993l-9e-5 -44.966zm3.9994 42.967-5.9989 11.998-5.9989-11.998z"/><path transform="matrix(1 0 0 -1.0004 728 470.17)" d="m1.9996-3.8188e-6 8e-5 44.966h-3.9993l-9e-5 -44.966zm3.9994 42.967-5.9989 11.998-5.9989-11.998z"/><path transform="matrix(1 0 0 -1.0004 705 470.17)" d="m1.9996-3.8188e-6 8e-5 44.966h-3.9993l-9e-5 -44.966zm3.9994 42.967-5.9989 11.998-5.9989-11.998z"/><path transform="matrix(1 0 0 -1.0004 684 470.17)" d="m1.9996-3.8188e-6 8e-5 44.966h-3.9993l-9e-5 -44.966zm3.9994 42.967-5.9989 11.998-5.9989-11.998z"/><path transform="matrix(1 0 0 -1.0004 662 470.17)" d="m1.9996-3.8188e-6 8e-5 44.967h-3.9993l-9e-5 -44.966zm3.9994 42.967-5.9989 11.998-5.9989-11.998z"/><path transform="matrix(1 0 0 -1.0004 640 470.17)" d="m1.9996-3.8188e-6 8e-5 44.967h-3.9993l-9e-5 -44.966zm3.9994 42.967-5.9989 11.998-5.9989-11.998z"/><path transform="matrix(1 0 0 -1.0004 618 470.17)" d="m1.9996-3.8188e-6 8e-5 44.967h-3.9993l-9e-5 -44.966zm3.9994 42.967-5.9989 11.998-5.9989-11.998z"/><path transform="matrix(1 0 0 -1.0004 596 470.17)" d="m1.9996-3.8188e-6 8e-5 44.967h-3.9993l-9e-5 -44.966zm3.9994 42.967-5.9989 11.998-5.9989-11.998z"/><path transform="matrix(1 0 0 -1.0004 324 470.17)" d="m1.9996-3.8188e-6 8e-5 44.967h-3.9993l-9e-5 -44.966zm3.9994 42.967-5.9989 11.998-5.9989-11.998z"/><path transform="matrix(1 0 0 -1.0004 302 470.17)" d="m1.9996-3.8188e-6 8e-5 44.967h-3.9993l-9e-5 -44.966zm3.9994 42.967-5.9989 11.998-5.9989-11.998z"/><path transform="matrix(1 0 0 -1.0004 280 470.17)" d="m1.9996-3.8188e-6 8e-5 44.967h-3.9993l-9e-5 -44.966zm3.9994 42.967-5.9989 11.998-5.9989-11.998z"/><path transform="matrix(1 0 0 -1.0004 258 470.17)" d="m1.9996-3.8188e-6 8e-5 44.967h-3.9993l-9e-5 -44.966zm3.9994 42.967-5.9989 11.998-5.9989-11.998z"/><path transform="matrix(1 0 0 -1.0004 236 470.17)" d="m1.9996-3.8188e-6 8e-5 44.966h-3.9993l-9e-5 -44.966zm3.9994 42.967-5.9989 11.998-5.9989-11.998z"/><path transform="matrix(1 0 0 -1.0004 214 470.17)" d="m1.9996-3.8188e-6 8e-5 44.966h-3.9993l-9e-5 -44.966zm3.9994 42.967-5.9989 11.998-5.9989-11.998z"/><path transform="matrix(1 0 0 -1.0004 192 470.17)" d="m1.9996-3.8188e-6 8e-5 44.966h-3.9993l-9e-5 -44.966zm3.9994 42.967-5.9989 11.998-5.9989-11.998z"/><path transform="matrix(1 0 0 -1.0004 171 470.17)" d="m1.9996-3.8188e-6 8e-5 44.966h-3.9993l-9e-5 -44.966zm3.9994 42.967-5.9989 11.998-5.9989-11.998z"/><path transform="matrix(1 0 0 -1.0004 149 470.17)" d="m1.9996-3.8188e-6 8e-5 44.967h-3.9993l-9e-5 -44.966zm3.9994 42.967-5.9989 11.998-5.9989-11.998z"/><path transform="matrix(1 0 0 -1.0004 127 470.17)" d="m1.9996-3.8188e-6 8e-5 44.967h-3.9993l-9e-5 -44.966zm3.9994 42.967-5.9989 11.998-5.9989-11.998z"/><path transform="matrix(1 0 0 -1.0004 105 470.17)" d="m1.9996-3.8188e-6 8e-5 44.967h-3.9993l-9e-5 -44.966zm3.9994 42.967-5.9989 11.998-5.9989-11.998z"/><path transform="matrix(1 0 0 -1.0004 83 470.17)" d="m1.9996-3.8188e-6 8e-5 44.967h-3.9993l-9e-5 -44.966zm3.9994 42.967-5.9989 11.998-5.9989-11.998z"/><path transform="matrix(1 0 0 -1.0004 324 116.01)" d="m1.9996-3.8188e-6 8e-5 44.967h-3.9993l-9e-5 -44.966zm3.9994 42.967-5.9989 11.998-5.9989-11.998z"/><path transform="matrix(1 0 0 -1.0004 302 116.01)" d="m1.9996-3.8188e-6 8e-5 44.967h-3.9993l-9e-5 -44.966zm3.9994 42.967-5.9989 11.998-5.9989-11.998z"/><path transform="matrix(1 0 0 -1.0004 280 116.01)" d="m1.9996-3.8188e-6 8e-5 44.967h-3.9993l-9e-5 -44.966zm3.9994 42.967-5.9989 11.998-5.9989-11.998z"/><path transform="matrix(1 0 0 -1.0004 258 116.01)" d="m1.9996-3.8188e-6 8e-5 44.967h-3.9993l-9e-5 -44.966zm3.9994 42.967-5.9989 11.998-5.9989-11.998z"/><path transform="matrix(1 0 0 -1.0004 236 116.01)" d="m1.9996-3.8188e-6 8e-5 44.966h-3.9993l-9e-5 -44.966zm3.9994 42.967-5.9989 11.998-5.9989-11.998z"/><path transform="matrix(1 0 0 -1.0004 214 116.01)" d="m1.9996-3.8188e-6 8e-5 44.966h-3.9993l-9e-5 -44.966zm3.9994 42.967-5.9989 11.998-5.9989-11.998z"/><path transform="matrix(1 0 0 -1.0004 192 116.01)" d="m1.9996-3.8188e-6 8e-5 44.966h-3.9993l-9e-5 -44.966zm3.9994 42.967-5.9989 11.998-5.9989-11.998z"/><path transform="matrix(1 0 0 -1.0004 171 116.01)" d="m1.9996-3.8188e-6 8e-5 44.966h-3.9993l-9e-5 -44.966zm3.9994 42.967-5.9989 11.998-5.9989-11.998z"/><path transform="matrix(1 0 0 -1.0004 149 116.01)" d="m1.9996-3.8188e-6 8e-5 44.967h-3.9993l-9e-5 -44.966zm3.9994 42.967-5.9989 11.998-5.9989-11.998z"/><path transform="matrix(1 0 0 -1.0004 127 116.01)" d="m1.9996-3.8188e-6 8e-5 44.967h-3.9993l-9e-5 -44.966zm3.9994 42.967-5.9989 11.998-5.9989-11.998z"/><path transform="matrix(1 0 0 -1.0004 105 116.01)" d="m1.9996-3.8188e-6 8e-5 44.967h-3.9993l-9e-5 -44.966zm3.9994 42.967-5.9989 11.998-5.9989-11.998z"/><path transform="matrix(1 0 0 -1.0004 83 116.01)" d="m1.9996-3.8188e-6 8e-5 44.967h-3.9993l-9e-5 -44.966zm3.9994 42.967-5.9989 11.998-5.9989-11.998z"/><path transform="matrix(1 0 0 -1.0004 837 116.01)" d="m1.9996-3.8188e-6 8e-5 44.967h-3.9993l-9e-5 -44.966zm3.9994 42.967-5.9989 11.998-5.9989-11.998z"/><path transform="matrix(1 0 0 -1.0004 815 116.01)" d="m1.9996-3.8188e-6 8e-5 44.967h-3.9993l-9e-5 -44.966zm3.9994 42.967-5.9989 11.998-5.9989-11.998z"/><path transform="matrix(1 0 0 -1.0004 793 116.01)" d="m1.9996-3.8188e-6 8e-5 44.967h-3.9993l-9e-5 -44.966zm3.9994 42.967-5.9989 11.998-5.9989-11.998z"/><path transform="matrix(1 0 0 -1.0004 771 116.01)" d="m1.9996-3.8188e-6 8e-5 44.967h-3.9993l-9e-5 -44.966zm3.9994 42.967-5.9989 11.998-5.9989-11.998z"/><path transform="matrix(1 0 0 -1.0004 749 116.01)" d="m1.9996-3.8188e-6 8e-5 44.966h-3.9993l-9e-5 -44.966zm3.9994 42.967-5.9989 11.998-5.9989-11.998z"/><path transform="matrix(1 0 0 -1.0004 728 116.01)" d="m1.9996-3.8188e-6 8e-5 44.966h-3.9993l-9e-5 -44.966zm3.9994 42.967-5.9989 11.998-5.9989-11.998z"/><path transform="matrix(1 0 0 -1.0004 705 116.01)" d="m1.9996-3.8188e-6 8e-5 44.966h-3.9993l-9e-5 -44.966zm3.9994 42.967-5.9989 11.998-5.9989-11.998z"/><path transform="matrix(1 0 0 -1.0004 684 117.02)" d="m1.9996-3.8188e-6 8e-5 44.966h-3.9993l-9e-5 -44.966zm3.9994 42.967-5.9989 11.998-5.9989-11.998z"/><path transform="matrix(1 0 0 -1.0004 662 116.01)" d="m1.9996-3.8188e-6 8e-5 44.967h-3.9993l-9e-5 -44.966zm3.9994 42.967-5.9989 11.998-5.9989-11.998z"/><path transform="matrix(1 0 0 -1.0004 640 116.01)" d="m1.9996-3.8188e-6 8e-5 44.967h-3.9993l-9e-5 -44.966zm3.9994 42.967-5.9989 11.998-5.9989-11.998z"/><path transform="matrix(1 0 0 -1.0004 618 116.01)" d="m1.9996-3.8188e-6 8e-5 44.967h-3.9993l-9e-5 -44.966zm3.9994 42.967-5.9989 11.998-5.9989-11.998z"/><path transform="matrix(1 0 0 -1.0004 596 116.01)" d="m1.9996-3.8188e-6 8e-5 44.967h-3.9993l-9e-5 -44.966zm3.9994 42.967-5.9989 11.998-5.9989-11.998z"/></g><path d="m4 4.0017h914v665.28h-914z" fill="none" stroke="#2b66af" stroke-miterlimit="8" stroke-width="3.9993"/><path d="m135 552.24h111v26.011h-111z" fill="#fff"/><g transform="matrix(1 0 0 1.0004 136.82 573)" fill="#f0955e" aria-label="THREADS"><path d="m5.25-11.256h-4.872v-3.444h13.692v3.444h-4.872v11.256h-3.948z"/><path d="m15.372 0v-14.7h3.948v5.565h6.321v-5.565h3.948v14.7h-3.948v-5.691h-6.321v5.691z"/><path d="m41.517-5.775 3.507 5.775h-4.599l-2.856-5.019h-2.226v5.019h-3.906v-14.7h7.182q2.898 0 4.431 1.218 1.554 1.197 1.554 3.465 0 1.554-0.777 2.625t-2.31 1.617zm-0.903-4.095q0-0.756-0.504-1.134t-1.533-0.378h-3.234v3.087h3.234q0.987 0 1.512-0.399 0.525-0.42 0.525-1.176z"/><path d="m46.2 0v-14.7h11.508v3.318h-7.56v2.31h6.972v3.318h-6.972v2.436h7.56v3.318z"/><path d="m63.294-2.625-1.029 2.625h-4.011l6.048-14.7h4.305l6.069 14.7h-4.137l-1.029-2.625zm3.108-7.938-1.806 4.62h3.612z"/><path d="m75.516 0v-14.7h5.922q3.906 0 6.132 1.953t2.226 5.376q0 3.318-2.31 5.355-2.289 2.016-6.09 2.016zm10.29-7.329q0-1.806-1.176-2.856-1.176-1.071-3.213-1.071h-1.953v7.812h1.953q2.037 0 3.213-1.029 1.176-1.05 1.176-2.856z"/><path d="m100.04-4.326q0-0.609-0.609-0.861-0.588-0.273-2.268-0.441-3.465-0.357-4.851-1.344t-1.386-3.171q0-2.163 1.743-3.507t4.683-1.344q1.743 0 3.255 0.546 1.512 0.546 2.856 1.659l-1.974 2.835q-0.966-0.777-2.121-1.218-1.134-0.441-2.184-0.441-1.155 0-1.806 0.315-0.63 0.315-0.63 0.861 0 0.588 0.63 0.84t2.394 0.42q3.297 0.315 4.683 1.344 1.407 1.029 1.407 3.234 0 2.184-1.785 3.549-1.764 1.344-4.767 1.344-2.058 0-3.822-0.588-1.764-0.609-3.234-1.806l1.911-2.877q1.323 0.945 2.667 1.428 1.344 0.462 2.646 0.462 1.239 0 1.89-0.315 0.672-0.336 0.672-0.924z"/></g><path d="m673 552.24h111v26.011h-111z" fill="#fff"/><g transform="matrix(1 0 0 1.0004 675.03 573)" fill="#f0955e" aria-label="THREADS"><path d="m5.25-11.256h-4.872v-3.444h13.692v3.444h-4.872v11.256h-3.948z"/><path d="m15.372 0v-14.7h3.948v5.565h6.321v-5.565h3.948v14.7h-3.948v-5.691h-6.321v5.691z"/><path d="m41.517-5.775 3.507 5.775h-4.599l-2.856-5.019h-2.226v5.019h-3.906v-14.7h7.182q2.898 0 4.431 1.218 1.554 1.197 1.554 3.465 0 1.554-0.777 2.625t-2.31 1.617zm-0.903-4.095q0-0.756-0.504-1.134t-1.533-0.378h-3.234v3.087h3.234q0.987 0 1.512-0.399 0.525-0.42 0.525-1.176z"/><path d="m46.2 0v-14.7h11.508v3.318h-7.56v2.31h6.972v3.318h-6.972v2.436h7.56v3.318z"/><path d="m63.294-2.625-1.029 2.625h-4.011l6.048-14.7h4.305l6.069 14.7h-4.137l-1.029-2.625zm3.108-7.938-1.806 4.62h3.612z"/><path d="m75.516 0v-14.7h5.922q3.906 0 6.132 1.953t2.226 5.376q0 3.318-2.31 5.355-2.289 2.016-6.09 2.016zm10.29-7.329q0-1.806-1.176-2.856-1.176-1.071-3.213-1.071h-1.953v7.812h1.953q2.037 0 3.213-1.029 1.176-1.05 1.176-2.856z"/><path d="m100.04-4.326q0-0.609-0.609-0.861-0.588-0.273-2.268-0.441-3.465-0.357-4.851-1.344t-1.386-3.171q0-2.163 1.743-3.507t4.683-1.344q1.743 0 3.255 0.546 1.512 0.546 2.856 1.659l-1.974 2.835q-0.966-0.777-2.121-1.218-1.134-0.441-2.184-0.441-1.155 0-1.806 0.315-0.63 0.315-0.63 0.861 0 0.588 0.63 0.84t2.394 0.42q3.297 0.315 4.683 1.344 1.407 1.029 1.407 3.234 0 2.184-1.785 3.549-1.764 1.344-4.767 1.344-2.058 0-3.822-0.588-1.764-0.609-3.234-1.806l1.911-2.877q1.323 0.945 2.667 1.428 1.344 0.462 2.646 0.462 1.239 0 1.89-0.315 0.672-0.336 0.672-0.924z"/></g></g></svg>
