<svg width="1134" height="756" xmlns="http://www.w3.org/2000/svg" xmlns:xlink="http://www.w3.org/1999/xlink" overflow="hidden"><defs><clipPath id="clip0"><rect x="0" y="0" width="1134" height="756"/></clipPath></defs><g clip-path="url(#clip0)"><rect x="0" y="0" width="1134" height="756.056" fill="#FFFFFF"/><rect x="474" y="27.002" width="651" height="45.0033" stroke="#0071C5" stroke-width="4.00059" stroke-miterlimit="8" fill="none"/><text fill="#0071C5" font-family="IntelOne Display Regular,IntelOne Display Regular_MSFontService,sans-serif" font-weight="400" font-size="27" transform="matrix(1 0 0 1.00007 662.131 59)">Developer Environment</text><rect x="474" y="72.0053" width="651" height="245.018" stroke="#0071C5" stroke-width="4.00059" stroke-miterlimit="8" stroke-opacity="0.2" fill="none"/><rect x="15" y="479.035" width="1110" height="250.018" stroke="#0071C5" stroke-width="4.00059" stroke-miterlimit="8" stroke-opacity="0.2" fill="none"/><rect x="15" y="435.032" width="1110" height="44.0032" stroke="#0071C5" stroke-width="4.00059" stroke-miterlimit="8" fill="none"/><text fill="#0071C5" font-family="IntelOne Display Regular,IntelOne Display Regular_MSFontService,sans-serif" font-weight="400" font-size="27" transform="matrix(1 0 0 1.00007 495.401 467)">Edge Device<tspan font-weight="700" font-size="32" x="-258.506" y="-302.978">Deep Learning</tspan><tspan font-weight="700" font-size="32" x="-199.998" y="-244.982">Model</tspan></text><path d="M480 135.01C480 121.754 490.745 111.008 504 111.008L639.999 111.008C653.255 111.008 664 121.754 664 135.01L664 231.016C664 244.273 653.255 255.019 639.999 255.019L504 255.019C490.745 255.019 480 244.273 480 231.016Z" stroke="#0071C5" stroke-width="4.00059" stroke-miterlimit="8" fill="#0071C5" fill-rule="evenodd"/><text fill="#FFFFFF" font-family="IntelOne Display Regular,IntelOne Display Regular_MSFontService,sans-serif" font-weight="700" font-size="32" transform="matrix(1 0 0 1.00007 529.298 176)">Model<tspan font-size="32" x="-23.6701" y="38.9971">Optimizer</tspan></text><path d="M107 228.017C107 219.732 113.716 213.016 122 213.016 130.284 213.016 137 219.732 137 228.017 137 236.302 130.284 243.018 122 243.018 113.716 243.018 107 236.302 107 228.017Z" stroke="#0071C5" stroke-width="8.00118" stroke-miterlimit="8" fill="none" fill-rule="evenodd"/><path d="M0 10.4398 58.794 10.4398 58.794 0 77.9999 11.5001 58.794 23 58.794 12.5603 0 12.5603Z" stroke="#0071C5" stroke-width="1.33353" stroke-miterlimit="8" fill="#0071C5" fill-rule="evenodd" transform="matrix(6.12323e-17 1.00007 1 -6.12368e-17 110.5 128.509)"/><path d="M107 109.008C107 100.723 113.716 94.0069 122 94.0069 130.284 94.0069 137 100.723 137 109.008 137 117.293 130.284 124.009 122 124.009 113.716 124.009 107 117.293 107 109.008Z" stroke="#0071C5" stroke-width="8.00118" stroke-miterlimit="8" fill="none" fill-rule="evenodd"/><path d="M33.815 125.399C29.6785 118.234 32.1333 109.072 39.2979 104.935 46.4624 100.799 55.6237 103.254 59.7602 110.419 63.8967 117.584 61.4419 126.746 54.2773 130.882 47.1128 135.019 37.9515 132.564 33.815 125.399Z" stroke="#0071C5" stroke-width="8.00132" stroke-miterlimit="8" fill="none" fill-rule="evenodd"/><path d="M0 10.3349 81.6509 10.3349 81.6509 0 100.664 11.3846 81.6509 22.7692 81.6509 12.4343 0 12.4343Z" stroke="#0071C5" stroke-width="1.33355" stroke-miterlimit="8" fill="#0071C5" fill-rule="evenodd" transform="matrix(0.499991 0.866073 0.866009 -0.500028 44.4187 136.575)"/><path d="M184.525 110.419C188.661 103.253 197.822 100.799 204.987 104.935 212.151 109.072 214.606 118.234 210.47 125.399 206.333 132.564 197.172 135.019 190.007 130.882 182.843 126.746 180.388 117.584 184.525 110.419Z" stroke="#0071C5" stroke-width="8.00132" stroke-miterlimit="8" fill="none" fill-rule="evenodd"/><path d="M0 10.3349 81.6509 10.3349 81.6509 0 100.664 11.3846 81.6509 22.7692 81.6509 12.4343 0 12.4343Z" stroke="#0071C5" stroke-width="1.33355" stroke-miterlimit="8" fill="#0071C5" fill-rule="evenodd" transform="matrix(-0.499991 0.866073 0.866009 0.500028 180.148 125.19)"/><path d="M0 10.4397 246.794 10.4397 246.794 0 266 11.5 246.794 23 246.794 12.5604 0 12.5604Z" stroke="#0071C5" stroke-width="1.33353" stroke-miterlimit="8" fill="#0071C5" fill-rule="evenodd" transform="matrix(1 0 0 -1.00007 667.5 193.514)"/><path d="M0 10.4397 234.794 10.4397 234.794 0 254 11.5 234.794 23 234.794 12.5603 0 12.5603Z" stroke="#0071C5" stroke-width="1.33353" stroke-miterlimit="8" fill="#0071C5" fill-rule="evenodd" transform="matrix(1 0 0 -1.00007 223.5 195.514)"/><path d="M936 135.01C936 121.754 946.745 111.008 960.001 111.008L1095 111.008C1108.25 111.008 1119 121.754 1119 135.01L1119 231.016C1119 244.272 1108.25 255.019 1095 255.019L960.001 255.019C946.745 255.019 936 244.272 936 231.016Z" stroke="#FFA300" stroke-width="4.00059" stroke-miterlimit="8" fill="#FFA300" fill-rule="evenodd"/><text fill="#FFFFFF" font-family="IntelOne Display Regular,IntelOne Display Regular_MSFontService,sans-serif" font-weight="700" font-size="32" transform="matrix(1 0 0 1.00007 952.645 195)">Encryption<tspan fill="#0071C5" font-size="32" x="-224.976" y="-29.9978">Model IR</tspan></text><path d="M124.001 397.029 124.001 521.687 115.999 521.687 115.999 397.029ZM140.003 517.686 120 557.694 99.9971 517.686Z" fill="#C4D600"/><path d="M0 0 0.000105002 143.645" stroke="#C4D600" stroke-width="8.00118" stroke-miterlimit="8" fill="none" fill-rule="evenodd" transform="matrix(1 0 0 -1.00007 1029 401.675)"/><text fill="#0071C5" font-family="IntelOne Display Regular,IntelOne Display Regular_MSFontService,sans-serif" font-weight="700" font-size="32" transform="matrix(1 0 0 1.00007 62.7688 705)">Storage</text><path d="M117 401.03 1033.29 401.03" stroke="#C4D600" stroke-width="8.00118" stroke-miterlimit="8" fill="none" fill-rule="evenodd"/><text fill="#C4D600" font-family="IntelOne Display Regular,IntelOne Display Regular_MSFontService,sans-serif" font-weight="700" font-size="32" transform="matrix(1 0 0 1.00007 457.118 386)">Encrypted Model</text><path d="M481 576.209C481 562.861 491.82 552.041 505.167 552.041L639.833 552.041C653.18 552.041 664 562.861 664 576.209L664 672.882C664 686.23 653.18 697.051 639.833 697.051L505.167 697.051C491.82 697.051 481 686.23 481 672.882Z" stroke="#FFA300" stroke-width="4.00059" stroke-miterlimit="8" fill="#FFA300" fill-rule="evenodd"/><text fill="#FFFFFF" font-family="IntelOne Display Regular,IntelOne Display Regular_MSFontService,sans-serif" font-weight="700" font-size="32" transform="matrix(1 0 0 1.00007 495.971 636)">Decryption</text><path d="M0 9.98566 246.629 9.98566 246.629 0 265 11 246.629 22 246.629 12.0143 0 12.0143Z" stroke="#C4D600" stroke-width="1.33353" stroke-miterlimit="8" fill="#C4D600" fill-rule="evenodd" transform="matrix(1 0 0 -1.00007 212.5 636.547)"/><text fill="#C4D600" font-family="IntelOne Display Regular,IntelOne Display Regular_MSFontService,sans-serif" font-weight="700" font-size="32" transform="matrix(1 0 0 1.00007 268.885 607)">Encrypted <tspan font-size="32" x="31.6713" y="57.9957">Model</tspan></text><path d="M936 575.043C936 561.787 946.745 551.041 960.001 551.041L1095 551.041C1108.25 551.041 1119 561.787 1119 575.043L1119 671.049C1119 684.305 1108.25 695.051 1095 695.051L960.001 695.051C946.745 695.051 936 684.305 936 671.049Z" stroke="#0071C5" stroke-width="4.00059" stroke-miterlimit="8" fill="#0071C5" fill-rule="evenodd"/><text fill="#FFFFFF" font-family="IntelOne Display Regular,IntelOne Display Regular_MSFontService,sans-serif" font-weight="700" font-size="32" transform="matrix(1 0 0 1.00007 949.415 615)">OpenVINO<tspan font-size="32" x="20.5897" y="38.9971">Runtime</tspan></text><path d="M0 10.4396 246.794 10.4396 246.794 0 266 11.5 246.794 22.9999 246.794 12.5603 0 12.5603Z" stroke="#0071C5" stroke-width="1.33353" stroke-miterlimit="8" fill="#0071C5" fill-rule="evenodd" transform="matrix(1 0 0 -1.00007 667.5 636.547)"/><text fill="#0071C5" font-family="IntelOne Display Regular,IntelOne Display Regular_MSFontService,sans-serif" font-weight="700" font-size="32" transform="matrix(1 0 0 1.00007 727.808 607)">Model IR</text><path d="M29.5 621.546 142.258 621.546" stroke="#0071C5" stroke-width="6.66765" stroke-miterlimit="8" fill="none" fill-rule="evenodd"/><path d="M29.5 641.547 142.258 641.547" stroke="#0071C5" stroke-width="6.66765" stroke-miterlimit="8" fill="none" fill-rule="evenodd"/><rect x="184.5" y="629.546" width="14.0001" height="14.0011" stroke="#0071C5" stroke-width="1.33353" stroke-miterlimit="8" fill="#0071C5"/><path d="M58.0907 562.041 170.909 562.041 207 598.141 207 654.048 22 654.048 22 598.141Z" stroke="#0071C5" stroke-width="8.00118" stroke-miterlimit="8" fill="none" fill-rule="evenodd"/><rect x="20.5" y="597.544" width="188" height="6.00049" stroke="#0071C5" stroke-width="1.33353" stroke-miterlimit="8" fill="#0071C5"/></g></svg>