<?xml version="1.0" encoding="UTF-8" standalone="no"?>
<svg
   width="896"
   height="624"
   overflow="hidden"
   version="1.1"
   id="svg278"
   sodipodi:docname="deployment_full.svg"
   inkscape:version="1.2.1 (9c6d41e410, 2022-07-14)"
   xmlns:inkscape="http://www.inkscape.org/namespaces/inkscape"
   xmlns:sodipodi="http://sodipodi.sourceforge.net/DTD/sodipodi-0.dtd"
   xmlns="http://www.w3.org/2000/svg"
   xmlns:svg="http://www.w3.org/2000/svg">
  <sodipodi:namedview
     id="namedview280"
     pagecolor="#ffffff"
     bordercolor="#000000"
     borderopacity="0.25"
     inkscape:showpageshadow="2"
     inkscape:pageopacity="0.0"
     inkscape:pagecheckerboard="0"
     inkscape:deskcolor="#d1d1d1"
     showgrid="false"
     inkscape:zoom="1.4166667"
     inkscape:cx="447.88235"
     inkscape:cy="312"
     inkscape:window-width="1920"
     inkscape:window-height="1129"
     inkscape:window-x="-8"
     inkscape:window-y="-8"
     inkscape:window-maximized="1"
     inkscape:current-layer="svg278" />
  <defs
     id="defs210">
    <clipPath
       id="clip0">
      <rect
         x="0"
         y="0"
         width="896"
         height="624"
         id="rect207" />
    </clipPath>
  </defs>
  <g
     clip-path="url(#clip0)"
     id="g276">
    <path
       id="rect212"
       style="fill:#ffffff"
       d="M 0,0 H 896 V 624 H 0 Z" />
    <path
       d="M307.5 89.0001C307.5 63.3188 365.479 42.5001 437 42.5001 508.521 42.5001 566.5 63.3188 566.5 89.0001 566.5 114.681 508.521 135.5 437 135.5 365.479 135.5 307.5 114.681 307.5 89.0001Z"
       stroke="#7BDEFF"
       stroke-width="1.33333"
       stroke-miterlimit="8"
       fill="#B4F0FF"
       fill-rule="evenodd"
       id="path214" />
    <g
       aria-label="G-APIPreprocessingplugin"
       transform="translate(411.757 73)"
       id="text224"
       style="font-size:19px;font-family:'IntelOne Display Regular', 'IntelOne Display Regular_MSFontService', sans-serif">
      <path
         d="m 7.676,-12.141 q -2.261,0 -3.781,1.577 -1.52,1.558 -1.52,3.895 0,2.375 1.482,3.952 1.482,1.558 3.667,1.558 2.071,0 3.363,-1.178 1.292,-1.197 1.444,-3.23 H 7.258 v -1.406 h 6.593 q 0.019,0.19 0.038,0.418 0.019,0.209 0.019,0.399 0,2.907 -1.786,4.693 -1.767,1.767 -4.674,1.767 -2.907,0 -4.826,-1.976 -1.919,-1.976 -1.919,-4.959 0,-2.983 1.995,-4.978 2.014,-1.995 4.997,-1.995 1.786,0 3.249,0.817 1.482,0.798 2.356,2.261 l -1.216,0.874 q -0.798,-1.235 -1.919,-1.862 -1.102,-0.627 -2.489,-0.627 z"
         id="path387" />
      <path
         d="m 14.8653,-4.731 v -1.482 h 4.959 v 1.482 z"
         id="path389" />
      <path
         d="M 23.8717,-4.009 22.1237,0 h -1.71 l 5.909,-13.3 h 1.596 l 5.89,13.3 h -1.729 l -1.767,-4.009 z m 3.211,-7.334 -2.565,5.89 h 5.168 z"
         id="path391" />
      <path
         d="m 35.309707,0 v -13.3 h 5.776 q 2.185,0 3.439,1.102 1.273,1.083 1.273,2.945 0,1.881 -1.368,3.021 -1.368,1.121 -3.648,1.121 h -3.838 V 0 Z m 8.816,-9.215 q 0,-1.216 -0.817,-1.9 -0.817,-0.703 -2.28,-0.703 h -4.085 v 5.244 h 3.952 q 1.482,0 2.356,-0.703 0.874,-0.722 0.874,-1.938 z"
         id="path393" />
      <path
         d="m 47.545691,0 v -13.3 h 1.634 V 0 Z"
         id="path395" />
      <path
         d="M -32.931698,23 V 9.7 h 5.776 q 2.185,0 3.439,1.102 1.273,1.083 1.273,2.945 0,1.881 -1.368,3.021 -1.368,1.121 -3.648,1.121 h -3.838 V 23 Z m 8.816,-9.215 q 0,-1.216 -0.817,-1.9 -0.817,-0.703 -2.28,-0.703 h -4.085 v 5.244 h 3.952 q 1.482,0 2.356,-0.703 0.874,-0.722 0.874,-1.938 z"
         id="path397" />
      <path
         d="m -21.056715,13.823 h 1.52 v 1.159 q 0.418,-0.608 1.083,-0.912 0.665,-0.304 1.577,-0.304 h 0.836 v 1.463 h -0.855 q -1.311,0 -1.976,0.684 -0.646,0.684 -0.646,2.071 V 23 h -1.539 z"
         id="path399" />
      <path
         d="m -10.606726,21.974 q 0.9120003,0 1.6720003,-0.38 0.779,-0.399 1.425,-1.197 l 0.931,0.855 q -0.779,1.026 -1.824,1.539 -1.045,0.494 -2.3370003,0.494 -2.071,0 -3.401,-1.349 -1.311,-1.368 -1.311,-3.496 0,-2.071 1.349,-3.458 1.349,-1.387 3.325,-1.387 2.0140003,0 3.2680003,1.311 1.254,1.311 1.254,3.42 0,0.152 -0.019,0.361 -0.019,0.19 -0.038,0.285 h -7.5430003 q 0.152,1.349 1.045,2.185 0.912,0.817 2.204,0.817 z m -0.152,-7.068 q -1.197,0 -2.052,0.779 -0.855,0.779 -1.045,2.09 h 6.0420003 q -0.171,-1.33 -0.969,-2.09 -0.798,-0.779 -1.9760003,-0.779 z"
         id="path401" />
      <path
         d="m -3.1587138,26.42 h -1.539 V 13.823 h 1.52 v 1.482 q 0.608,-0.798 1.501,-1.235 0.89299998,-0.456 1.89999998,-0.456 1.93800002,0 3.23000002,1.349 1.292,1.33 1.292,3.42 0,2.109 -1.349,3.477 -1.33,1.349 -3.28700002,1.349 -0.931,0 -1.80499998,-0.38 -0.855,-0.399 -1.463,-1.121 z M 0.05228618,14.982 q -1.38699998,0 -2.33699998,1.007 -0.931,0.988 -0.931,2.47 0,1.463 0.912,2.432 0.931,0.969 2.29899998,0.969 1.40600002,0 2.28000002,-0.931 0.893,-0.95 0.893,-2.508 0,-1.539 -0.874,-2.489 -0.855,-0.95 -2.24200002,-0.95 z"
         id="path403" />
      <path
         d="m 6.3412743,13.823 h 1.52 v 1.159 q 0.418,-0.608 1.083,-0.912 0.665,-0.304 1.5769997,-0.304 h 0.836 v 1.463 h -0.855 q -1.3109997,0 -1.9759997,0.684 -0.646,0.684 -0.646,2.071 V 23 h -1.539 z"
         id="path405" />
      <path
         d="m 21.503265,18.421 q 0,2.071 -1.387,3.477 -1.387,1.387 -3.42,1.387 -2.033,0 -3.401,-1.387 -1.349,-1.387 -1.349,-3.458 0,-2.071 1.387,-3.458 1.387,-1.406 3.42,-1.406 2.033,0 3.382,1.387 1.368,1.387 1.368,3.458 z m -7.98,0.019 q 0,1.482 0.912,2.489 0.931,1.007 2.299,1.007 1.349,0 2.261,-1.007 0.931,-1.007 0.931,-2.508 0,-1.463 -0.931,-2.47 -0.931,-1.026 -2.28,-1.026 -1.349,0 -2.28,1.007 -0.912,1.007 -0.912,2.508 z"
         id="path407" />
      <path
         d="m 27.431274,23.285 q -2.109,0 -3.439,-1.33 -1.311,-1.349 -1.311,-3.515 0,-2.052 1.387,-3.458 1.387,-1.406 3.401,-1.406 1.463,0 2.489,0.684 1.045,0.665 1.577,1.938 l -1.311,0.627 q -0.437,-0.95 -1.14,-1.425 -0.684,-0.475 -1.634,-0.475 -1.349,0 -2.28,1.026 -0.912,1.007 -0.912,2.489 0,1.501 0.912,2.508 0.931,0.988 2.318,0.988 0.893,0 1.653,-0.475 0.779,-0.494 1.254,-1.368 l 1.197,0.646 q -0.551,1.178 -1.653,1.862 -1.102,0.684 -2.508,0.684 z"
         id="path409" />
      <path
         d="m 37.558271,21.974 q 0.912,0 1.672,-0.38 0.779,-0.399 1.425,-1.197 l 0.931,0.855 q -0.779,1.026 -1.824,1.539 -1.045,0.494 -2.337,0.494 -2.071,0 -3.401,-1.349 -1.311,-1.368 -1.311,-3.496 0,-2.071 1.349,-3.458 1.349,-1.387 3.325,-1.387 2.014,0 3.268,1.311 1.254,1.311 1.254,3.42 0,0.152 -0.019,0.361 -0.019,0.19 -0.038,0.285 h -7.543 q 0.152,1.349 1.045,2.185 0.912,0.817 2.204,0.817 z m -0.152,-7.068 q -1.197,0 -2.052,0.779 -0.855,0.779 -1.045,2.09 h 6.042 q -0.171,-1.33 -0.969,-2.09 -0.798,-0.779 -1.976,-0.779 z"
         id="path411" />
      <path
         d="m 50.858285,20.321 q 0,1.292 -1.102,2.109 -1.102,0.817 -2.869,0.817 -1.159,0 -2.185,-0.361 -1.007,-0.38 -1.824,-1.121 l 0.798,-1.178 q 0.874,0.722 1.634,1.045 0.76,0.323 1.615,0.323 1.102,0 1.767,-0.418 0.684,-0.437 0.684,-1.121 0,-0.703 -0.57,-1.007 -0.57,-0.323 -1.881,-0.342 -1.919,-0.076 -2.812,-0.703 -0.874,-0.627 -0.874,-1.957 0,-1.216 1.007,-2.014 1.026,-0.817 2.622,-0.817 1.083,0 2.033,0.342 0.95,0.342 1.729,1.007 l -0.741,1.159 q -0.779,-0.627 -1.501,-0.912 -0.722,-0.285 -1.539,-0.285 -0.931,0 -1.539,0.418 -0.589,0.418 -0.589,1.026 0,0.665 0.532,0.969 0.532,0.304 1.691,0.361 2.071,0.057 2.983,0.684 0.931,0.627 0.931,1.976 z"
         id="path413" />
      <path
         d="m 59.807298,20.321 q 0,1.292 -1.102,2.109 -1.102,0.817 -2.869,0.817 -1.159,0 -2.185,-0.361 -1.007,-0.38 -1.824,-1.121 l 0.798,-1.178 q 0.874,0.722 1.634,1.045 0.76,0.323 1.615,0.323 1.102,0 1.767,-0.418 0.684,-0.437 0.684,-1.121 0,-0.703 -0.57,-1.007 -0.57,-0.323 -1.881,-0.342 -1.919,-0.076 -2.812,-0.703 -0.874,-0.627 -0.874,-1.957 0,-1.216 1.007,-2.014 1.026,-0.817 2.622,-0.817 1.083,0 2.033,0.342 0.95,0.342 1.729,1.007 l -0.741,1.159 q -0.779,-0.627 -1.501,-0.912 -0.722,-0.285 -1.539,-0.285 -0.931,0 -1.539,0.418 -0.589,0.418 -0.589,1.026 0,0.665 0.532,0.969 0.532,0.304 1.691,0.361 2.071,0.057 2.983,0.684 0.931,0.627 0.931,1.976 z"
         id="path415" />
      <path
         d="m 61.460311,10.745 h 1.71 v 1.691 h -1.71 z m 0.076,12.255 v -9.177 h 1.558 V 23 Z"
         id="path417" />
      <path
         d="m 65.279297,13.823 h 1.52 v 1.425 q 0.551,-0.798 1.387,-1.216 0.855,-0.437 1.9,-0.437 1.824,0 2.85,1.178 1.026,1.178 1.026,3.23 V 23 h -1.539 v -4.902 q 0,-1.444 -0.722,-2.28 -0.703,-0.836 -1.976,-0.836 -1.311,0 -2.109,0.893 -0.798,0.893 -0.798,2.318 V 23 h -1.539 z"
         id="path419" />
      <path
         d="m 83.367282,21.917 v -0.646 q -0.627,0.76 -1.52,1.178 -0.874,0.418 -1.881,0.418 -1.938,0 -3.23,-1.292 -1.292,-1.292 -1.292,-3.325 0,-2.014 1.311,-3.325 1.33,-1.33 3.268,-1.33 0.988,0 1.862,0.418 0.874,0.418 1.501,1.178 v -1.368 h 1.539 v 8.037 q 0,2.28 -1.216,3.42 -1.216,1.14 -3.667,1.14 h -2.318 v -1.33 h 2.394 q 1.615,0 2.432,-0.798 0.817,-0.798 0.817,-2.375 z m -3.173,-0.418 q 1.368,0 2.299,-0.931 0.95,-0.95 0.95,-2.318 0,-1.406 -0.95,-2.337 -0.931,-0.95 -2.299,-0.95 -1.425,0 -2.299,0.893 -0.874,0.893 -0.874,2.375 0,1.463 0.874,2.375 0.893,0.893 2.299,0.893 z"
         id="path421" />
      <path
         d="M 2.546,48.42 H 1.007 V 35.823 h 1.52 v 1.482 q 0.608,-0.798 1.501,-1.235 0.893,-0.456 1.9,-0.456 1.938,0 3.23,1.349 1.292,1.33 1.292,3.42 0,2.109 -1.349,3.477 -1.33,1.349 -3.287,1.349 -0.931,0 -1.805,-0.38 Q 3.154,44.43 2.546,43.708 Z M 5.757,36.982 q -1.387,0 -2.337,1.007 -0.931,0.988 -0.931,2.47 0,1.463 0.912,2.432 0.931,0.969 2.299,0.969 1.406,0 2.28,-0.931 0.893,-0.95 0.893,-2.508 0,-1.539 -0.874,-2.489 -0.855,-0.95 -2.242,-0.95 z"
         id="path423" />
      <path
         d="m 12.216988,31.7 h 1.558 V 45 h -1.558 z"
         id="path425" />
      <path
         d="m 24.547976,45 h -1.539 v -1.406 q -0.551,0.798 -1.387,1.216 -0.836,0.399 -1.9,0.399 -1.805,0 -2.85,-1.178 -1.026,-1.178 -1.026,-3.211 v -4.997 h 1.558 v 4.902 q 0,1.444 0.703,2.28 0.722,0.836 1.995,0.836 1.292,0 2.09,-0.893 0.798,-0.893 0.798,-2.318 v -4.807 h 1.558 z"
         id="path427" />
      <path
         d="m 34.047961,43.917 v -0.646 q -0.627,0.76 -1.52,1.178 -0.874,0.418 -1.881,0.418 -1.938,0 -3.23,-1.292 -1.292,-1.292 -1.292,-3.325 0,-2.014 1.311,-3.325 1.33,-1.33 3.268,-1.33 0.988,0 1.862,0.418 0.874,0.418 1.501,1.178 v -1.368 h 1.539 v 8.037 q 0,2.28 -1.216,3.42 -1.216,1.14 -3.667,1.14 h -2.318 v -1.33 h 2.394 q 1.615,0 2.432,-0.798 0.817,-0.798 0.817,-2.375 z m -3.173,-0.418 q 1.368,0 2.299,-0.931 0.95,-0.95 0.95,-2.318 0,-1.406 -0.95,-2.337 -0.931,-0.95 -2.299,-0.95 -1.425,0 -2.299,0.893 -0.874,0.893 -0.874,2.375 0,1.463 0.874,2.375 0.893,0.893 2.299,0.893 z"
         id="path429" />
      <path
         d="m 37.695975,32.745 h 1.71 v 1.691 h -1.71 z m 0.076,12.255 v -9.177 h 1.558 V 45 Z"
         id="path431" />
      <path
         d="m 41.514965,35.823 h 1.52 v 1.425 q 0.551,-0.798 1.387,-1.216 0.855,-0.437 1.9,-0.437 1.824,0 2.85,1.178 1.026,1.178 1.026,3.23 V 45 h -1.539 v -4.902 q 0,-1.444 -0.722,-2.28 -0.703,-0.836 -1.976,-0.836 -1.311,0 -2.109,0.893 -0.798,0.893 -0.798,2.318 V 45 h -1.539 z"
         id="path433" />
    </g>
    <path
       d="M307.5 243.5C307.5 217.543 365.479 196.5 437 196.5 508.521 196.5 566.5 217.543 566.5 243.5 566.5 269.457 508.521 290.5 437 290.5 365.479 290.5 307.5 269.457 307.5 243.5Z"
       stroke="#7BDEFF"
       stroke-width="1.33333"
       stroke-miterlimit="8"
       fill="#B4F0FF"
       fill-rule="evenodd"
       id="path226" />
    <g
       aria-label="Compute devices plugins"
       transform="translate(365.257 238)"
       id="text230"
       style="font-size:19px;font-family:'IntelOne Display Regular', 'IntelOne Display Regular_MSFontService', sans-serif">
      <path
         d="m 2.375,-6.669 q 0,2.375 1.425,3.952 1.425,1.558 3.572,1.558 1.444,0 2.527,-0.665 1.102,-0.665 1.881,-1.995 l 1.254,0.722 q -0.855,1.634 -2.337,2.527 -1.463,0.874 -3.363,0.874 -2.888,0 -4.769,-1.957 -1.862,-1.957 -1.862,-4.978 0,-2.964 1.938,-4.959 1.957,-2.014 4.864,-2.014 1.843,0 3.249,0.874 1.425,0.855 2.223,2.451 L 11.666,-9.5 q -0.741,-1.349 -1.767,-1.995 -1.026,-0.646 -2.432,-0.646 -2.185,0 -3.648,1.558 -1.444,1.558 -1.444,3.914 z"
         id="path436" />
      <path
         d="m 23.864002,-4.579 q 0,2.071 -1.387,3.477 -1.387,1.387 -3.42,1.387 -2.033,0 -3.401,-1.387 -1.349,-1.387 -1.349,-3.458 0,-2.071 1.387,-3.458 1.387,-1.406 3.42,-1.406 2.033,0 3.382,1.387 1.368,1.387 1.368,3.458 z m -7.98,0.019 q 0,1.482 0.912,2.489 0.931,1.007 2.299,1.007 1.349,0 2.261,-1.007 0.931,-1.007 0.931,-2.508 0,-1.463 -0.931,-2.47 -0.931,-1.026 -2.28,-1.026 -1.349,0 -2.28,1.007 -0.912,1.007 -0.912,2.508 z"
         id="path438" />
      <path
         d="m 25.460012,-9.177 h 1.52 v 1.102 q 0.513,-0.665 1.159,-0.988 0.665,-0.342 1.482,-0.342 0.95,0 1.691,0.399 0.741,0.399 1.178,1.159 0.513,-0.76 1.292,-1.159 0.798,-0.399 1.786,-0.399 1.615,0 2.565,1.045 0.969,1.045 0.969,2.717 V 0 h -1.558 v -5.548 q 0,-1.159 -0.589,-1.805 -0.57,-0.665 -1.615,-0.665 -1.026,0 -1.672,0.722 -0.627,0.703 -0.627,1.843 V 0 h -1.539 v -5.548 q 0,-1.159 -0.589,-1.805 -0.57,-0.665 -1.615,-0.665 -1.026,0 -1.672,0.722 -0.627,0.703 -0.627,1.843 V 0 h -1.539 z"
         id="path440" />
      <path
         d="m 42.541026,3.42 h -1.539 V -9.177 h 1.52 v 1.482 q 0.608,-0.798 1.501,-1.235 0.893,-0.456 1.9,-0.456 1.938,0 3.23,1.349 1.292,1.33 1.292,3.42 0,2.109 -1.349,3.477 -1.33,1.349 -3.287,1.349 -0.931,0 -1.805,-0.38 -0.855,-0.399 -1.463,-1.121 z m 3.211,-11.438 q -1.387,0 -2.337,1.007 -0.931,0.988 -0.931,2.47 0,1.463 0.912,2.432 0.931,0.969 2.299,0.969 1.406,0 2.28,-0.931 0.893,-0.95 0.893,-2.508 0,-1.539 -0.874,-2.489 -0.855,-0.95 -2.242,-0.95 z"
         id="path442" />
      <path
         d="m 60.629016,0 h -1.539 v -1.406 q -0.551,0.798 -1.387,1.216 -0.836,0.399 -1.9,0.399 -1.805,0 -2.85,-1.178 -1.026,-1.178 -1.026,-3.211 v -4.997 h 1.558 v 4.902 q 0,1.444 0.703,2.28 0.722,0.836 1.995,0.836 1.292,0 2.09,-0.893 0.798,-0.893 0.798,-2.318 v -4.807 h 1.558 z"
         id="path444" />
      <path
         d="m 63.137001,-2.451 v -5.358 h -1.254 v -1.368 h 1.254 v -2.812 h 1.539 v 2.812 h 2.128 v 1.368 h -2.128 v 5.225 q 0,0.608 0.266,0.912 0.285,0.285 0.855,0.285 h 1.007 V 0 h -1.235 q -1.273,0 -1.862,-0.589 -0.57,-0.589 -0.57,-1.862 z"
         id="path446" />
      <path
         d="m 72.637011,-1.026 q 0.912,0 1.672,-0.38 0.779,-0.399 1.425,-1.197 l 0.931,0.855 q -0.779,1.026 -1.824,1.539 -1.045,0.494 -2.337,0.494 -2.071,0 -3.401,-1.349 -1.311,-1.368 -1.311,-3.496 0,-2.071 1.349,-3.458 1.349,-1.387 3.325,-1.387 2.014,0 3.268,1.311 1.254,1.311 1.254,3.42 0,0.152 -0.019,0.361 -0.019,0.19 -0.038,0.285 h -7.543 q 0.152,1.349 1.045,2.185 0.912,0.817 2.204,0.817 z m -0.152,-7.068 q -1.197,0 -2.052,0.779 -0.855,0.779 -1.045,2.09 h 6.042 q -0.171,-1.33 -0.969,-2.09 -0.798,-0.779 -1.976,-0.779 z"
         id="path448" />
      <path
         d="m 89.547016,-13.3 h 1.558 V 0 h -1.539 v -1.482 q -0.627,0.798 -1.52,1.235 -0.874,0.437 -1.881,0.437 -1.919,0 -3.23,-1.33 -1.292,-1.349 -1.292,-3.42 0,-2.09 1.33,-3.458 1.349,-1.387 3.306,-1.387 0.95,0 1.786,0.399 0.855,0.38 1.482,1.102 z m -3.211,12.141 q 1.387,0 2.318,-0.988 0.95,-1.007 0.95,-2.47 0,-1.482 -0.912,-2.451 -0.912,-0.969 -2.28,-0.969 -1.406,0 -2.299,0.95 -0.893,0.95 -0.893,2.489 0,1.539 0.874,2.489 0.874,0.95 2.242,0.95 z"
         id="path450" />
      <path
         d="m 97.527002,-1.026 q 0.912,0 1.672,-0.38 0.779,-0.399 1.424998,-1.197 l 0.931,0.855 q -0.779,1.026 -1.823998,1.539 -1.045,0.494 -2.337,0.494 -2.071,0 -3.401,-1.349 -1.311,-1.368 -1.311,-3.496 0,-2.071 1.349,-3.458 1.349,-1.387 3.325,-1.387 2.014,0 3.267998,1.311 1.254,1.311 1.254,3.42 0,0.152 -0.019,0.361 -0.019,0.19 -0.038,0.285 h -7.542998 q 0.152,1.349 1.045,2.185 0.912,0.817 2.204,0.817 z m -0.152,-7.068 q -1.197,0 -2.052,0.779 -0.855,0.779 -1.045,2.09 H 100.32 q -0.171,-1.33 -0.968998,-2.09 -0.798,-0.779 -1.976,-0.779 z"
         id="path452" />
      <path
         d="m 106.229,0 -3.933,-9.177 h 1.691 l 2.983,7.334 2.964,-7.334 h 1.596 L 107.635,0 Z"
         id="path454" />
      <path
         d="m 112.87899,-12.255 h 1.71 v 1.691 h -1.71 z M 112.95499,0 v -9.177 h 1.558 V 0 Z"
         id="path456" />
      <path
         d="m 121.02998,0.285 q -2.109,0 -3.439,-1.33 -1.311,-1.349 -1.311,-3.515 0,-2.052 1.387,-3.458 1.387,-1.406 3.401,-1.406 1.463,0 2.489,0.684 1.045,0.665 1.577,1.938 l -1.311,0.627 q -0.437,-0.95 -1.14,-1.425 -0.684,-0.475 -1.634,-0.475 -1.349,0 -2.28,1.026 -0.912,1.007 -0.912,2.489 0,1.501 0.912,2.508 0.931,0.988 2.318,0.988 0.893,0 1.653,-0.475 0.779,-0.494 1.254,-1.368 l 1.197,0.646 q -0.551,1.178 -1.653,1.862 -1.102,0.684 -2.508,0.684 z"
         id="path458" />
      <path
         d="m 131.15698,-1.026 q 0.912,0 1.672,-0.38 0.779,-0.399 1.425,-1.197 l 0.931,0.855 q -0.779,1.026 -1.824,1.539 -1.045,0.494 -2.337,0.494 -2.071,0 -3.401,-1.349 -1.311,-1.368 -1.311,-3.496 0,-2.071 1.349,-3.458 1.349,-1.387 3.325,-1.387 2.014,0 3.268,1.311 1.254,1.311 1.254,3.42 0,0.152 -0.019,0.361 -0.019,0.19 -0.038,0.285 h -7.543 q 0.152,1.349 1.045,2.185 0.912,0.817 2.204,0.817 z m -0.152,-7.068 q -1.197,0 -2.052,0.779 -0.855,0.779 -1.045,2.09 h 6.042 q -0.171,-1.33 -0.969,-2.09 -0.798,-0.779 -1.976,-0.779 z"
         id="path460" />
      <path
         d="m 144.45699,-2.679 q 0,1.292 -1.102,2.109 -1.102,0.817 -2.869,0.817 -1.159,0 -2.185,-0.361 -1.007,-0.38 -1.824,-1.121 l 0.798,-1.178 q 0.874,0.722 1.634,1.045 0.76,0.323 1.615,0.323 1.102,0 1.767,-0.418 0.684,-0.437 0.684,-1.121 0,-0.703 -0.57,-1.007 -0.57,-0.323 -1.881,-0.342 -1.919,-0.076 -2.812,-0.703 -0.874,-0.627 -0.874,-1.957 0,-1.216 1.007,-2.014 1.026,-0.817 2.622,-0.817 1.083,0 2.033,0.342 0.95,0.342 1.729,1.007 l -0.741,1.159 q -0.779,-0.627 -1.501,-0.912 -0.722,-0.285 -1.539,-0.285 -0.931,0 -1.539,0.418 -0.589,0.418 -0.589,1.026 0,0.665 0.532,0.969 0.532,0.304 1.691,0.361 2.071,0.057 2.983,0.684 0.931,0.627 0.931,1.976 z"
         id="path462" />
      <path
         d="m 44.6327,26.42 h -1.539 V 13.823 h 1.52 v 1.482 q 0.608,-0.798 1.501,-1.235 0.893,-0.456 1.9,-0.456 1.938,0 3.23,1.349 1.292,1.33 1.292,3.42 0,2.109 -1.349,3.477 -1.33,1.349 -3.287,1.349 -0.931,0 -1.805,-0.38 -0.855,-0.399 -1.463,-1.121 z m 3.211,-11.438 q -1.387,0 -2.337,1.007 -0.931,0.988 -0.931,2.47 0,1.463 0.912,2.432 0.931,0.969 2.299,0.969 1.406,0 2.28,-0.931 0.893,-0.95 0.893,-2.508 0,-1.539 -0.874,-2.489 -0.855,-0.95 -2.242,-0.95 z"
         id="path464" />
      <path
         d="m 54.303689,9.7 h 1.558 V 23 h -1.558 z"
         id="path466" />
      <path
         d="m 66.634677,23 h -1.539 v -1.406 q -0.551,0.798 -1.387,1.216 -0.836,0.399 -1.9,0.399 -1.805,0 -2.85,-1.178 -1.026,-1.178 -1.026,-3.211 v -4.997 h 1.558 v 4.902 q 0,1.444 0.703,2.28 0.722,0.836 1.995,0.836 1.292,0 2.09,-0.893 0.798,-0.893 0.798,-2.318 v -4.807 h 1.558 z"
         id="path468" />
      <path
         d="m 76.134662,21.917 v -0.646 q -0.627,0.76 -1.52,1.178 -0.874,0.418 -1.881,0.418 -1.938,0 -3.23,-1.292 -1.292,-1.292 -1.292,-3.325 0,-2.014 1.311,-3.325 1.33,-1.33 3.268,-1.33 0.988,0 1.862,0.418 0.874,0.418 1.501,1.178 v -1.368 h 1.539 v 8.037 q 0,2.28 -1.216,3.42 -1.216,1.14 -3.667,1.14 h -2.318 v -1.33 h 2.394 q 1.615,0 2.432,-0.798 0.817,-0.798 0.817,-2.375 z m -3.173,-0.418 q 1.368,0 2.299,-0.931 0.95,-0.95 0.95,-2.318 0,-1.406 -0.95,-2.337 -0.931,-0.95 -2.299,-0.95 -1.425,0 -2.299,0.893 -0.874,0.893 -0.874,2.375 0,1.463 0.874,2.375 0.893,0.893 2.299,0.893 z"
         id="path470" />
      <path
         d="m 79.782676,10.745 h 1.71 v 1.691 h -1.71 z m 0.076,12.255 v -9.177 h 1.558 V 23 Z"
         id="path472" />
      <path
         d="m 83.601666,13.823 h 1.52 v 1.425 q 0.551,-0.798 1.387,-1.216 0.855,-0.437 1.9,-0.437 1.824,0 2.85,1.178 1.026,1.178 1.026,3.23 V 23 h -1.539 v -4.902 q 0,-1.444 -0.722,-2.28 -0.703,-0.836 -1.976,-0.836 -1.311,0 -2.109,0.893 -0.798,0.893 -0.798,2.318 V 23 h -1.539 z"
         id="path474" />
      <path
         d="m 101.57565,20.321 q 0,1.292 -1.102,2.109 -1.102,0.817 -2.869,0.817 -1.159,0 -2.185,-0.361 -1.007,-0.38 -1.824,-1.121 l 0.798,-1.178 q 0.874,0.722 1.634,1.045 0.76,0.323 1.615,0.323 1.102,0 1.767,-0.418 0.684,-0.437 0.684,-1.121 0,-0.703 -0.57,-1.007 -0.57,-0.323 -1.881,-0.342 -1.919,-0.076 -2.812,-0.703 -0.874,-0.627 -0.874,-1.957 0,-1.216 1.007,-2.014 1.026,-0.817 2.622,-0.817 1.083,0 2.033,0.342 0.95,0.342 1.729,1.007 l -0.741,1.159 q -0.779,-0.627 -1.501,-0.912 -0.722,-0.285 -1.539,-0.285 -0.931,0 -1.539,0.418 -0.589,0.418 -0.589,1.026 0,0.665 0.532,0.969 0.532,0.304 1.691,0.361 2.071,0.057 2.983,0.684 0.931,0.627 0.931,1.976 z"
         id="path476" />
    </g>
    <path
       d="M307.5 398C307.5 372.319 365.479 351.5 437 351.5 508.521 351.5 566.5 372.319 566.5 398 566.5 423.681 508.521 444.5 437 444.5 365.479 444.5 307.5 423.681 307.5 398Z"
       stroke="#004A86"
       stroke-width="1.33333"
       stroke-miterlimit="8"
       fill="#76CEFF"
       fill-rule="evenodd"
       id="path232" />
    <g
       aria-label="openvino"
       transform="translate(398.757 404)"
       id="text234"
       style="font-size:19px;font-family:'IntelOne Display Regular', 'IntelOne Display Regular_MSFontService', sans-serif">
      <path
         d="m 10.146,-4.579 q 0,2.071 -1.387,3.477 -1.387,1.387 -3.42,1.387 -2.033,0 -3.401,-1.387 -1.349,-1.387 -1.349,-3.458 0,-2.071 1.387,-3.458 1.387,-1.406 3.42,-1.406 2.033,0 3.382,1.387 1.368,1.387 1.368,3.458 z m -7.98,0.019 q 0,1.482 0.912,2.489 0.931,1.007 2.299,1.007 1.349,0 2.261,-1.007 0.931,-1.007 0.931,-2.508 0,-1.463 -0.931,-2.47 -0.931,-1.026 -2.28,-1.026 -1.349,0 -2.28,1.007 -0.912,1.007 -0.912,2.508 z"
         id="path479" />
      <path
         d="m 13.28101,3.42 h -1.539 V -9.177 h 1.52 v 1.482 q 0.608,-0.798 1.501,-1.235 0.893,-0.456 1.9,-0.456 1.938,0 3.23,1.349 1.292,1.33 1.292,3.42 0,2.109 -1.349,3.477 -1.33,1.349 -3.287,1.349 -0.931,0 -1.805,-0.38 -0.855,-0.399 -1.463,-1.121 z m 3.211,-11.438 q -1.387,0 -2.337,1.007 -0.931,0.988 -0.931,2.47 0,1.463 0.912,2.432 0.931,0.969 2.299,0.969 1.406,0 2.28,-0.931 0.893,-0.95 0.893,-2.508 0,-1.539 -0.874,-2.489 -0.855,-0.95 -2.242,-0.95 z"
         id="path481" />
      <path
         d="m 27.207998,-1.026 q 0.912,0 1.672,-0.38 0.779,-0.399 1.425,-1.197 l 0.931,0.855 q -0.779,1.026 -1.824,1.539 -1.045,0.494 -2.337,0.494 -2.071,0 -3.401,-1.349 -1.311,-1.368 -1.311,-3.496 0,-2.071 1.349,-3.458 1.349,-1.387 3.325,-1.387 2.014,0 3.268,1.311 1.254,1.311 1.254,3.42 0,0.152 -0.019,0.361 -0.019,0.19 -0.038,0.285 h -7.543 q 0.152,1.349 1.045,2.185 0.912,0.817 2.204,0.817 z m -0.152,-7.068 q -1.197,0 -2.052,0.779 -0.855,0.779 -1.045,2.09 h 6.042 q -0.171,-1.33 -0.969,-2.09 -0.798,-0.779 -1.976,-0.779 z"
         id="path483" />
      <path
         d="m 33.117008,-9.177 h 1.52 v 1.425 q 0.551,-0.798 1.387,-1.216 0.855,-0.437 1.9,-0.437 1.824,0 2.85,1.178 1.026,1.178 1.026,3.23 V 0 h -1.539 v -4.902 q 0,-1.444 -0.722,-2.28 -0.703,-0.836 -1.976,-0.836 -1.311,0 -2.109,0.893 -0.798,0.893 -0.798,2.318 V 0 h -1.539 z"
         id="path485" />
      <path
         d="m 46.492988,0 -3.933,-9.177 h 1.691 l 2.983,7.334 2.964,-7.334 h 1.596 L 47.898988,0 Z"
         id="path487" />
      <path
         d="m 53.14297,-12.255 h 1.71 v 1.691 h -1.71 z M 53.21897,0 v -9.177 h 1.558 V 0 Z"
         id="path489" />
      <path
         d="m 56.961956,-9.177 h 1.52 v 1.425 q 0.551,-0.798 1.387,-1.216 0.855,-0.437 1.9,-0.437 1.824,0 2.85,1.178 1.026,1.178 1.026,3.23 V 0 h -1.539 v -4.902 q 0,-1.444 -0.722,-2.28 -0.703,-0.836 -1.976,-0.836 -1.311,0 -2.109,0.893 -0.798,0.893 -0.798,2.318 V 0 h -1.539 z"
         id="path491" />
      <path
         d="m 76.683941,-4.579 q 0,2.071 -1.387,3.477 -1.387,1.387 -3.42,1.387 -2.033,0 -3.401,-1.387 -1.349,-1.387 -1.349,-3.458 0,-2.071 1.387,-3.458 1.387,-1.406 3.42,-1.406 2.033,0 3.382,1.387 1.368,1.387 1.368,3.458 z m -7.98,0.019 q 0,1.482 0.912,2.489 0.931,1.007 2.299,1.007 1.349,0 2.261,-1.007 0.931,-1.007 0.931,-2.508 0,-1.463 -0.931,-2.47 -0.931,-1.026 -2.28,-1.026 -1.349,0 -2.28,1.007 -0.912,1.007 -0.912,2.508 z"
         id="path493" />
    </g>
    <path
       d="M307.5 552.5C307.5 526.543 365.479 505.5 437 505.5 508.521 505.5 566.5 526.543 566.5 552.5 566.5 578.457 508.521 599.5 437 599.5 365.479 599.5 307.5 578.457 307.5 552.5Z"
       stroke="#004A86"
       stroke-width="1.33333"
       stroke-miterlimit="8"
       fill="#76CEFF"
       fill-rule="evenodd"
       id="path236" />
    <g
       aria-label="openvino_c"
       transform="translate(389.173 559)"
       id="text238"
       style="font-size:19px;font-family:'IntelOne Display Regular', 'IntelOne Display Regular_MSFontService', sans-serif">
      <path
         d="m 10.146,-4.579 q 0,2.071 -1.387,3.477 -1.387,1.387 -3.42,1.387 -2.033,0 -3.401,-1.387 -1.349,-1.387 -1.349,-3.458 0,-2.071 1.387,-3.458 1.387,-1.406 3.42,-1.406 2.033,0 3.382,1.387 1.368,1.387 1.368,3.458 z m -7.98,0.019 q 0,1.482 0.912,2.489 0.931,1.007 2.299,1.007 1.349,0 2.261,-1.007 0.931,-1.007 0.931,-2.508 0,-1.463 -0.931,-2.47 -0.931,-1.026 -2.28,-1.026 -1.349,0 -2.28,1.007 -0.912,1.007 -0.912,2.508 z"
         id="path496" />
      <path
         d="m 13.28101,3.42 h -1.539 V -9.177 h 1.52 v 1.482 q 0.608,-0.798 1.501,-1.235 0.893,-0.456 1.9,-0.456 1.938,0 3.23,1.349 1.292,1.33 1.292,3.42 0,2.109 -1.349,3.477 -1.33,1.349 -3.287,1.349 -0.931,0 -1.805,-0.38 -0.855,-0.399 -1.463,-1.121 z m 3.211,-11.438 q -1.387,0 -2.337,1.007 -0.931,0.988 -0.931,2.47 0,1.463 0.912,2.432 0.931,0.969 2.299,0.969 1.406,0 2.28,-0.931 0.893,-0.95 0.893,-2.508 0,-1.539 -0.874,-2.489 -0.855,-0.95 -2.242,-0.95 z"
         id="path498" />
      <path
         d="m 27.207998,-1.026 q 0.912,0 1.672,-0.38 0.779,-0.399 1.425,-1.197 l 0.931,0.855 q -0.779,1.026 -1.824,1.539 -1.045,0.494 -2.337,0.494 -2.071,0 -3.401,-1.349 -1.311,-1.368 -1.311,-3.496 0,-2.071 1.349,-3.458 1.349,-1.387 3.325,-1.387 2.014,0 3.268,1.311 1.254,1.311 1.254,3.42 0,0.152 -0.019,0.361 -0.019,0.19 -0.038,0.285 h -7.543 q 0.152,1.349 1.045,2.185 0.912,0.817 2.204,0.817 z m -0.152,-7.068 q -1.197,0 -2.052,0.779 -0.855,0.779 -1.045,2.09 h 6.042 q -0.171,-1.33 -0.969,-2.09 -0.798,-0.779 -1.976,-0.779 z"
         id="path500" />
      <path
         d="m 33.117008,-9.177 h 1.52 v 1.425 q 0.551,-0.798 1.387,-1.216 0.855,-0.437 1.9,-0.437 1.824,0 2.85,1.178 1.026,1.178 1.026,3.23 V 0 h -1.539 v -4.902 q 0,-1.444 -0.722,-2.28 -0.703,-0.836 -1.976,-0.836 -1.311,0 -2.109,0.893 -0.798,0.893 -0.798,2.318 V 0 h -1.539 z"
         id="path502" />
      <path
         d="m 46.492988,0 -3.933,-9.177 h 1.691 l 2.983,7.334 2.964,-7.334 h 1.596 L 47.898988,0 Z"
         id="path504" />
      <path
         d="m 53.14297,-12.255 h 1.71 v 1.691 h -1.71 z M 53.21897,0 v -9.177 h 1.558 V 0 Z"
         id="path506" />
      <path
         d="m 56.961956,-9.177 h 1.52 v 1.425 q 0.551,-0.798 1.387,-1.216 0.855,-0.437 1.9,-0.437 1.824,0 2.85,1.178 1.026,1.178 1.026,3.23 V 0 h -1.539 v -4.902 q 0,-1.444 -0.722,-2.28 -0.703,-0.836 -1.976,-0.836 -1.311,0 -2.109,0.893 -0.798,0.893 -0.798,2.318 V 0 h -1.539 z"
         id="path508" />
      <path
         d="m 76.683941,-4.579 q 0,2.071 -1.387,3.477 -1.387,1.387 -3.42,1.387 -2.033,0 -3.401,-1.387 -1.349,-1.387 -1.349,-3.458 0,-2.071 1.387,-3.458 1.387,-1.406 3.42,-1.406 2.033,0 3.382,1.387 1.368,1.387 1.368,3.458 z m -7.98,0.019 q 0,1.482 0.912,2.489 0.931,1.007 2.299,1.007 1.349,0 2.261,-1.007 0.931,-1.007 0.931,-2.508 0,-1.463 -0.931,-2.47 -0.931,-1.026 -2.28,-1.026 -1.349,0 -2.28,1.007 -0.912,1.007 -0.912,2.508 z"
         id="path510" />
      <path
         d="M 77.234949,2.451 V 1.064 h 9.652 v 1.387 z"
         id="path512" />
      <path
         d="m 92.187946,0.285 q -2.109,0 -3.439,-1.33 -1.311,-1.349 -1.311,-3.515 0,-2.052 1.387,-3.458 1.387,-1.406 3.401,-1.406 1.463,0 2.489,0.684 1.045,0.665 1.577,1.938 l -1.311,0.627 q -0.437,-0.95 -1.14,-1.425 -0.684,-0.475 -1.634,-0.475 -1.349,0 -2.28,1.026 -0.912,1.007 -0.912,2.489 0,1.501 0.912,2.508 0.931,0.988 2.318,0.988 0.893,0 1.653,-0.475 0.779,-0.494 1.254,-1.368 l 1.197,0.646 q -0.551,1.178 -1.653,1.862 -1.102,0.684 -2.508,0.684 z"
         id="path514" />
    </g>
    <path
       d="M604.5 398C604.5 372.319 662.479 351.5 734 351.5 805.521 351.5 863.5 372.319 863.5 398 863.5 423.681 805.521 444.5 734 444.5 662.479 444.5 604.5 423.681 604.5 398Z"
       stroke="#7BDEFF"
       stroke-width="1.33333"
       stroke-miterlimit="8"
       fill="#B4F0FF"
       fill-rule="evenodd"
       id="path240" />
    <g
       aria-label="Frontend plugins"
       transform="translate(664.655 404)"
       id="text242"
       style="font-size:19px;font-family:'IntelOne Display Regular', 'IntelOne Display Regular_MSFontService', sans-serif">
      <path
         d="m 1.235,0 v -13.3 h 9.538 v 1.444 H 2.869 v 4.522 h 7.372 V -5.89 H 2.869 V 0 Z"
         id="path517" />
      <path
         d="m 12.312023,-9.177 h 1.52 v 1.159 q 0.418,-0.608 1.083,-0.912 0.665,-0.304 1.577,-0.304 h 0.836 v 1.463 h -0.855 q -1.311,0 -1.976,0.684 -0.646,0.684 -0.646,2.071 V 0 h -1.539 z"
         id="path519" />
      <path
         d="m 27.474012,-4.579 q 0,2.071 -1.387,3.477 -1.387,1.387 -3.42,1.387 -2.033,0 -3.401,-1.387 -1.349,-1.387 -1.349,-3.458 0,-2.071 1.387,-3.458 1.387,-1.406 3.42,-1.406 2.033,0 3.382,1.387 1.368,1.387 1.368,3.458 z m -7.98,0.019 q 0,1.482 0.912,2.489 0.931,1.007 2.299,1.007 1.349,0 2.261,-1.007 0.931,-1.007 0.931,-2.508 0,-1.463 -0.931,-2.47 -0.931,-1.026 -2.28,-1.026 -1.349,0 -2.28,1.007 -0.912,1.007 -0.912,2.508 z"
         id="path521" />
      <path
         d="m 29.070023,-9.177 h 1.52 v 1.425 q 0.551,-0.798 1.387,-1.216 0.855,-0.437 1.9,-0.437 1.824,0 2.85,1.178 1.026,1.178 1.026,3.23 V 0 h -1.539 v -4.902 q 0,-1.444 -0.722,-2.28 -0.703,-0.836 -1.976,-0.836 -1.311,0 -2.109,0.893 -0.798,0.893 -0.798,2.318 V 0 h -1.539 z"
         id="path523" />
      <path
         d="m 40.166008,-2.451 v -5.358 h -1.254 v -1.368 h 1.254 v -2.812 h 1.539 v 2.812 h 2.128 v 1.368 h -2.128 v 5.225 q 0,0.608 0.266,0.912 0.285,0.285 0.855,0.285 h 1.007 V 0 h -1.235 q -1.273,0 -1.862,-0.589 -0.57,-0.589 -0.57,-1.862 z"
         id="path525" />
      <path
         d="m 49.666018,-1.026 q 0.912,0 1.672,-0.38 0.779,-0.399 1.425,-1.197 l 0.931,0.855 q -0.779,1.026 -1.824,1.539 -1.045,0.494 -2.337,0.494 -2.071,0 -3.401,-1.349 -1.311,-1.368 -1.311,-3.496 0,-2.071 1.349,-3.458 1.349,-1.387 3.325,-1.387 2.014,0 3.268,1.311 1.254,1.311 1.254,3.42 0,0.152 -0.019,0.361 -0.019,0.19 -0.038,0.285 h -7.543 q 0.152,1.349 1.045,2.185 0.912,0.817 2.204,0.817 z m -0.152,-7.068 q -1.197,0 -2.052,0.779 -0.855,0.779 -1.045,2.09 h 6.042 q -0.171,-1.33 -0.969,-2.09 -0.798,-0.779 -1.976,-0.779 z"
         id="path527" />
      <path
         d="m 55.575031,-9.177 h 1.52 v 1.425 q 0.551,-0.798 1.387,-1.216 0.855,-0.437 1.9,-0.437 1.824,0 2.85,1.178 1.026,1.178 1.026,3.23 V 0 h -1.539 v -4.902 q 0,-1.444 -0.722,-2.28 -0.703,-0.836 -1.976,-0.836 -1.311,0 -2.109,0.893 -0.798,0.893 -0.798,2.318 V 0 h -1.539 z"
         id="path529" />
      <path
         d="m 73.644016,-13.3 h 1.558 V 0 h -1.539 v -1.482 q -0.627,0.798 -1.52,1.235 -0.874,0.437 -1.881,0.437 -1.919,0 -3.23,-1.33 -1.292,-1.349 -1.292,-3.42 0,-2.09 1.33,-3.458 1.349,-1.387 3.306,-1.387 0.95,0 1.786,0.399 0.855,0.38 1.482,1.102 z m -3.211,12.141 q 1.387,0 2.318,-0.988 0.95,-1.007 0.95,-2.47 0,-1.482 -0.912,-2.451 -0.912,-0.969 -2.28,-0.969 -1.406,0 -2.299,0.95 -0.893,0.95 -0.893,2.489 0,1.539 0.874,2.489 0.874,0.95 2.242,0.95 z"
         id="path531" />
      <path
         d="m 82.250994,3.42 h -1.539 V -9.177 h 1.52 v 1.482 q 0.608,-0.798 1.501,-1.235 0.893,-0.456 1.9,-0.456 1.938,0 3.23,1.349 1.292,1.33 1.292,3.42 0,2.109 -1.349,3.477 -1.33,1.349 -3.287,1.349 -0.931,0 -1.805,-0.38 -0.855,-0.399 -1.463,-1.121 z m 3.211,-11.438 q -1.387,0 -2.337,1.007 -0.931,0.988 -0.931,2.47 0,1.463 0.912,2.432 0.931,0.969 2.299,0.969 1.406,0 2.28,-0.931 0.893,-0.95 0.893,-2.508 0,-1.539 -0.874,-2.489 -0.855,-0.95 -2.242,-0.95 z"
         id="path533" />
      <path
         d="m 91.92198,-13.3 h 1.558 V 0 h -1.558 z"
         id="path535" />
      <path
         d="m 104.25297,0 h -1.539 v -1.406 q -0.551,0.798 -1.387,1.216 -0.836,0.399 -1.899996,0.399 -1.805,0 -2.85,-1.178 -1.026,-1.178 -1.026,-3.211 v -4.997 h 1.558 v 4.902 q 0,1.444 0.703,2.28 0.722,0.836 1.995,0.836 1.291996,0 2.089996,-0.893 0.798,-0.893 0.798,-2.318 v -4.807 h 1.558 z"
         id="path537" />
      <path
         d="m 113.75295,-1.083 v -0.646 q -0.627,0.76 -1.52,1.178 -0.874,0.418 -1.881,0.418 -1.938,0 -3.23,-1.292 -1.292,-1.292 -1.292,-3.325 0,-2.014 1.311,-3.325 1.33,-1.33 3.268,-1.33 0.988,0 1.862,0.418 0.874,0.418 1.501,1.178 v -1.368 h 1.539 v 8.037 q 0,2.28 -1.216,3.42 -1.216,1.14 -3.667,1.14 h -2.318 V 2.09 h 2.394 q 1.615,0 2.432,-0.798 0.817,-0.798 0.817,-2.375 z m -3.173,-0.418 q 1.368,0 2.299,-0.931 0.95,-0.95 0.95,-2.318 0,-1.406 -0.95,-2.337 -0.931,-0.95 -2.299,-0.95 -1.425,0 -2.299,0.893 -0.874,0.893 -0.874,2.375 0,1.463 0.874,2.375 0.893,0.893 2.299,0.893 z"
         id="path539" />
      <path
         d="m 117.40097,-12.255 h 1.71 v 1.691 h -1.71 z M 117.47697,0 v -9.177 h 1.558 V 0 Z"
         id="path541" />
      <path
         d="m 121.21996,-9.177 h 1.52 v 1.425 q 0.551,-0.798 1.387,-1.216 0.855,-0.437 1.9,-0.437 1.824,0 2.85,1.178 1.026,1.178 1.026,3.23 V 0 h -1.539 v -4.902 q 0,-1.444 -0.722,-2.28 -0.703,-0.836 -1.976,-0.836 -1.311,0 -2.109,0.893 -0.798,0.893 -0.798,2.318 V 0 h -1.539 z"
         id="path543" />
      <path
         d="m 139.19394,-2.679 q 0,1.292 -1.102,2.109 -1.102,0.817 -2.869,0.817 -1.159,0 -2.185,-0.361 -1.007,-0.38 -1.824,-1.121 l 0.798,-1.178 q 0.874,0.722 1.634,1.045 0.76,0.323 1.615,0.323 1.102,0 1.767,-0.418 0.684,-0.437 0.684,-1.121 0,-0.703 -0.57,-1.007 -0.57,-0.323 -1.881,-0.342 -1.919,-0.076 -2.812,-0.703 -0.874,-0.627 -0.874,-1.957 0,-1.216 1.007,-2.014 1.026,-0.817 2.622,-0.817 1.083,0 2.033,0.342 0.95,0.342 1.729,1.007 l -0.741,1.159 q -0.779,-0.627 -1.501,-0.912 -0.722,-0.285 -1.539,-0.285 -0.931,0 -1.539,0.418 -0.589,0.418 -0.589,1.026 0,0.665 0.532,0.969 0.532,0.304 1.691,0.361 2.071,0.057 2.983,0.684 0.931,0.627 0.931,1.976 z"
         id="path545" />
    </g>
    <path
       d="M11.5001 398C11.5001 372.319 69.2553 351.5 140.5 351.5 211.745 351.5 269.5 372.319 269.5 398 269.5 423.681 211.745 444.5 140.5 444.5 69.2553 444.5 11.5001 423.681 11.5001 398Z"
       stroke="#004A86"
       stroke-width="1.33333"
       stroke-miterlimit="8"
       fill="#76CEFF"
       fill-rule="evenodd"
       id="path244" />
    <g
       aria-label="TBB"
       transform="translate(121.525 404)"
       id="text246"
       style="font-size:19px;font-family:'IntelOne Display Regular', 'IntelOne Display Regular_MSFontService', sans-serif">
      <path
         d="M 5.548,-11.818 H 0.38 V -13.3 h 11.951 v 1.482 H 7.182 V 0 H 5.548 Z"
         id="path548" />
      <path
         d="m 13.946012,0 v -13.3 h 5.757 q 2.223,0 3.439,0.912 1.216,0.912 1.216,2.584 0,1.064 -0.551,1.843 -0.551,0.76 -1.653,1.178 1.235,0.323 1.843,1.121 0.627,0.779 0.627,2.014 0,1.634 -1.273,2.641 -1.273,1.007 -3.363,1.007 z m 8.778,-9.728 q 0,-1.045 -0.779,-1.577 -0.779,-0.551 -2.28,-0.551 h -4.066 v 4.427 h 4.313 q 1.235,0 2.014,-0.646 0.798,-0.646 0.798,-1.653 z m 0.266,6.061 q 0,-1.064 -0.722,-1.691 -0.722,-0.627 -1.957,-0.627 h -4.712 v 4.541 h 4.503 q 1.311,0 2.09,-0.608 0.798,-0.608 0.798,-1.615 z"
         id="path550" />
      <path
         d="m 26.543014,0 v -13.3 h 5.757 q 2.223,0 3.439,0.912 1.216,0.912 1.216,2.584 0,1.064 -0.551,1.843 -0.551,0.76 -1.653,1.178 1.235,0.323 1.843,1.121 0.627,0.779 0.627,2.014 0,1.634 -1.273,2.641 -1.273,1.007 -3.363,1.007 z m 8.778,-9.728 q 0,-1.045 -0.779,-1.577 -0.779,-0.551 -2.28,-0.551 h -4.066 v 4.427 h 4.313 q 1.235,0 2.014,-0.646 0.798,-0.646 0.798,-1.653 z m 0.266,6.061 q 0,-1.064 -0.722,-1.691 -0.722,-0.627 -1.957,-0.627 h -4.712 v 4.541 h 4.503 q 1.311,0 2.09,-0.608 0.798,-0.608 0.798,-1.615 z"
         id="path552" />
    </g>
    <path
       d="M611.5 243.5C611.5 217.543 669.255 196.5 740.5 196.5 811.745 196.5 869.5 217.543 869.5 243.5 869.5 269.457 811.745 290.5 740.5 290.5 669.255 290.5 611.5 269.457 611.5 243.5Z"
       stroke="#004A86"
       stroke-width="1.33333"
       stroke-miterlimit="8"
       fill="#76CEFF"
       fill-rule="evenodd"
       id="path248" />
    <g
       aria-label="Plugin specific dependency"
       transform="translate(681.392 238)"
       id="text252"
       style="font-size:19px;font-family:'IntelOne Display Regular', 'IntelOne Display Regular_MSFontService', sans-serif">
      <path
         d="m 1.235,0 v -13.3 h 5.776 q 2.185,0 3.439,1.102 1.273,1.083 1.273,2.945 0,1.881 -1.368,3.021 -1.368,1.121 -3.648,1.121 H 2.869 V 0 Z m 8.816,-9.215 q 0,-1.216 -0.817,-1.9 -0.817,-0.703 -2.28,-0.703 H 2.869 v 5.244 h 3.952 q 1.482,0 2.356,-0.703 0.874,-0.722 0.874,-1.938 z"
         id="path555" />
      <path
         d="m 13.280983,-13.3 h 1.558 V 0 h -1.558 z"
         id="path557" />
      <path
         d="m 25.611972,0 h -1.539 v -1.406 q -0.551,0.798 -1.387,1.216 -0.836,0.399 -1.9,0.399 -1.805,0 -2.85,-1.178 -1.026,-1.178 -1.026,-3.211 v -4.997 h 1.558 v 4.902 q 0,1.444 0.703,2.28 0.722,0.836 1.995,0.836 1.292,0 2.09,-0.893 0.798,-0.893 0.798,-2.318 v -4.807 h 1.558 z"
         id="path559" />
      <path
         d="m 35.111957,-1.083 v -0.646 q -0.627,0.76 -1.52,1.178 -0.874,0.418 -1.881,0.418 -1.938,0 -3.23,-1.292 -1.292,-1.292 -1.292,-3.325 0,-2.014 1.311,-3.325 1.33,-1.33 3.268,-1.33 0.988,0 1.862,0.418 0.874,0.418 1.501,1.178 v -1.368 h 1.539 v 8.037 q 0,2.28 -1.216,3.42 -1.216,1.14 -3.667,1.14 h -2.318 V 2.09 h 2.394 q 1.615,0 2.432,-0.798 0.817,-0.798 0.817,-2.375 z m -3.173,-0.418 q 1.368,0 2.299,-0.931 0.95,-0.95 0.95,-2.318 0,-1.406 -0.95,-2.337 -0.931,-0.95 -2.299,-0.95 -1.425,0 -2.299,0.893 -0.874,0.893 -0.874,2.375 0,1.463 0.874,2.375 0.893,0.893 2.299,0.893 z"
         id="path561" />
      <path
         d="m 38.75997,-12.255 h 1.71 v 1.691 h -1.71 z M 38.83597,0 v -9.177 h 1.558 V 0 Z"
         id="path563" />
      <path
         d="m 42.57896,-9.177 h 1.52 v 1.425 q 0.551,-0.798 1.387,-1.216 0.855,-0.437 1.9,-0.437 1.824,0 2.85,1.178 1.026,1.178 1.026,3.23 V 0 h -1.539 v -4.902 q 0,-1.444 -0.722,-2.28 -0.703,-0.836 -1.976,-0.836 -1.311,0 -2.109,0.893 -0.798,0.893 -0.798,2.318 V 0 h -1.539 z"
         id="path565" />
      <path
         d="m 64.067933,-2.679 q 0,1.292 -1.102,2.109 -1.102,0.817 -2.869,0.817 -1.159,0 -2.185,-0.361 -1.007,-0.38 -1.824,-1.121 l 0.798,-1.178 q 0.874,0.722 1.634,1.045 0.76,0.323 1.615,0.323 1.102,0 1.767,-0.418 0.684,-0.437 0.684,-1.121 0,-0.703 -0.57,-1.007 -0.57,-0.323 -1.881,-0.342 -1.919,-0.076 -2.812,-0.703 -0.874,-0.627 -0.874,-1.957 0,-1.216 1.007,-2.014 1.026,-0.817 2.622,-0.817 1.083,0 2.033,0.342 0.95,0.342 1.729,1.007 l -0.741,1.159 q -0.779,-0.627 -1.501,-0.912 -0.722,-0.285 -1.539,-0.285 -0.931,0 -1.539,0.418 -0.589,0.418 -0.589,1.026 0,0.665 0.532,0.969 0.532,0.304 1.691,0.361 2.071,0.057 2.983,0.684 0.931,0.627 0.931,1.976 z"
         id="path567" />
      <path
         d="m 67.164942,3.42 h -1.539 V -9.177 h 1.52 v 1.482 q 0.608,-0.798 1.501,-1.235 0.893,-0.456 1.9,-0.456 1.938,0 3.23,1.349 1.292,1.33 1.292,3.42 0,2.109 -1.349,3.477 -1.33,1.349 -3.287,1.349 -0.931,0 -1.805,-0.38 -0.855,-0.399 -1.463,-1.121 z m 3.211,-11.438 q -1.387,0 -2.337,1.007 -0.931,0.988 -0.931,2.47 0,1.463 0.912,2.432 0.931,0.969 2.299,0.969 1.406,0 2.28,-0.931 0.893,-0.95 0.893,-2.508 0,-1.539 -0.874,-2.489 -0.855,-0.95 -2.242,-0.95 z"
         id="path569" />
      <path
         d="m 81.091936,-1.026 q 0.912,0 1.672,-0.38 0.779,-0.399 1.425,-1.197 l 0.931,0.855 q -0.779,1.026 -1.824,1.539 -1.045,0.494 -2.337,0.494 -2.071,0 -3.401,-1.349 -1.311,-1.368 -1.311,-3.496 0,-2.071 1.349,-3.458 1.349,-1.387 3.325,-1.387 2.014,0 3.268,1.311 1.254,1.311 1.254,3.42 0,0.152 -0.019,0.361 -0.019,0.19 -0.038,0.285 h -7.543 q 0.152,1.349 1.045,2.185 0.912,0.817 2.204,0.817 z m -0.152,-7.068 q -1.197,0 -2.052,0.779 -0.855,0.779 -1.045,2.09 h 6.042 q -0.171,-1.33 -0.969,-2.09 -0.798,-0.779 -1.976,-0.779 z"
         id="path571" />
      <path
         d="m 91.332942,0.285 q -2.109,0 -3.439,-1.33 -1.311,-1.349 -1.311,-3.515 0,-2.052 1.387,-3.458 1.387,-1.406 3.401,-1.406 1.463,0 2.489,0.684 1.045,0.665 1.577,1.938 l -1.311,0.627 q -0.437,-0.95 -1.14,-1.425 -0.684,-0.475 -1.634,-0.475 -1.349,0 -2.28,1.026 -0.912,1.007 -0.912,2.489 0,1.501 0.912,2.508 0.931,0.988 2.318,0.988 0.893,0 1.653,-0.475 0.779,-0.494 1.254,-1.368 l 1.197,0.646 q -0.551,1.178 -1.653,1.862 -1.102,0.684 -2.508,0.684 z"
         id="path573" />
      <path
         d="m 97.12794,-12.255 h 1.71 v 1.691 h -1.71 z M 97.20394,0 v -9.177 h 1.558 V 0 Z"
         id="path575" />
      <path
         d="m 101.55493,-7.809 h -1.254 v -1.368 h 1.254 v -1.729 q 0,-1.159 0.608,-1.767 0.627,-0.627 1.786,-0.627 h 1.254 v 1.292 h -1.026 q -0.532,0 -0.798,0.285 -0.266,0.285 -0.266,0.855 v 1.691 h 2.09 v 1.368 h -2.09 V 0 h -1.558 z m 4.959,-4.446 h 1.71 v 1.691 h -1.71 z M 106.58993,0 v -9.177 h 1.558 V 0 Z"
         id="path577" />
      <path
         d="m 114.66492,0.285 q -2.109,0 -3.439,-1.33 -1.311,-1.349 -1.311,-3.515 0,-2.052 1.387,-3.458 1.387,-1.406 3.401,-1.406 1.463,0 2.489,0.684 1.045,0.665 1.577,1.938 l -1.311,0.627 q -0.437,-0.95 -1.14,-1.425 -0.684,-0.475 -1.634,-0.475 -1.349,0 -2.28,1.026 -0.912,1.007 -0.912,2.489 0,1.501 0.912,2.508 0.931,0.988 2.318,0.988 0.893,0 1.653,-0.475 0.779,-0.494 1.254,-1.368 l 1.197,0.646 q -0.551,1.178 -1.653,1.862 -1.102,0.684 -2.508,0.684 z"
         id="path579" />
      <path
         d="m 15.493,9.7 h 1.558 V 23 h -1.539 v -1.482 q -0.627,0.798 -1.52,1.235 -0.874,0.437 -1.881,0.437 -1.919,0 -3.23,-1.33 -1.292,-1.349 -1.292,-3.42 0,-2.09 1.33,-3.458 1.349,-1.387 3.306,-1.387 0.95,0 1.786,0.399 0.855,0.38 1.482,1.102 z m -3.211,12.141 q 1.387,0 2.318,-0.988 0.95,-1.007 0.95,-2.47 0,-1.482 -0.912,-2.451 -0.912,-0.969 -2.28,-0.969 -1.406,0 -2.299,0.95 -0.893,0.95 -0.893,2.489 0,1.539 0.874,2.489 0.874,0.95 2.242,0.95 z"
         id="path581" />
      <path
         d="m 23.472988,21.974 q 0.912,0 1.672,-0.38 0.779,-0.399 1.425,-1.197 l 0.931,0.855 q -0.779,1.026 -1.824,1.539 -1.045,0.494 -2.337,0.494 -2.071,0 -3.401,-1.349 -1.311,-1.368 -1.311,-3.496 0,-2.071 1.349,-3.458 1.349,-1.387 3.325,-1.387 2.014,0 3.268,1.311 1.254,1.311 1.254,3.42 0,0.152 -0.019,0.361 -0.019,0.19 -0.038,0.285 h -7.543 q 0.152,1.349 1.045,2.185 0.912,0.817 2.204,0.817 z m -0.152,-7.068 q -1.197,0 -2.052,0.779 -0.855,0.779 -1.045,2.09 h 6.042 q -0.171,-1.33 -0.969,-2.09 -0.798,-0.779 -1.976,-0.779 z"
         id="path583" />
      <path
         d="M 30.921,26.42 H 29.382 V 13.823 h 1.52 v 1.482 q 0.608,-0.798 1.501,-1.235 0.893,-0.456 1.9,-0.456 1.938,0 3.23,1.349 1.292,1.33 1.292,3.42 0,2.109 -1.349,3.477 -1.33,1.349 -3.287,1.349 -0.931,0 -1.805,-0.38 -0.855,-0.399 -1.463,-1.121 z m 3.211,-11.438 q -1.387,0 -2.337,1.007 -0.931,0.988 -0.931,2.47 0,1.463 0.912,2.432 0.931,0.969 2.299,0.969 1.406,0 2.28,-0.931 0.893,-0.95 0.893,-2.508 0,-1.539 -0.874,-2.489 -0.855,-0.95 -2.242,-0.95 z"
         id="path585" />
      <path
         d="m 44.847986,21.974 q 0.912,0 1.672,-0.38 0.779,-0.399 1.425,-1.197 l 0.931,0.855 q -0.779,1.026 -1.824,1.539 -1.045,0.494 -2.337,0.494 -2.071,0 -3.401,-1.349 -1.311,-1.368 -1.311,-3.496 0,-2.071 1.349,-3.458 1.349,-1.387 3.325,-1.387 2.014,0 3.268,1.311 1.254,1.311 1.254,3.42 0,0.152 -0.019,0.361 -0.019,0.19 -0.038,0.285 h -7.543 q 0.152,1.349 1.045,2.185 0.912,0.817 2.204,0.817 z m -0.152,-7.068 q -1.197,0 -2.052,0.779 -0.855,0.779 -1.045,2.09 h 6.042 q -0.171,-1.33 -0.969,-2.09 -0.798,-0.779 -1.976,-0.779 z"
         id="path587" />
      <path
         d="m 50.757,13.823 h 1.52 v 1.425 q 0.551,-0.798 1.387,-1.216 0.855,-0.437 1.9,-0.437 1.824,0 2.85,1.178 1.026,1.178 1.026,3.23 V 23 h -1.539 v -4.902 q 0,-1.444 -0.722,-2.28 -0.703,-0.836 -1.976,-0.836 -1.311,0 -2.109,0.893 -0.798,0.893 -0.798,2.318 V 23 h -1.539 z"
         id="path589" />
      <path
         d="m 68.825985,9.7 h 1.558 V 23 h -1.539 v -1.482 q -0.627,0.798 -1.52,1.235 -0.874,0.437 -1.881,0.437 -1.919,0 -3.23,-1.33 -1.292,-1.349 -1.292,-3.42 0,-2.09 1.33,-3.458 1.349,-1.387 3.306,-1.387 0.95,0 1.786,0.399 0.855,0.38 1.482,1.102 z m -3.211,12.141 q 1.387,0 2.318,-0.988 0.95,-1.007 0.95,-2.47 0,-1.482 -0.912,-2.451 -0.912,-0.969 -2.28,-0.969 -1.406,0 -2.299,0.95 -0.893,0.95 -0.893,2.489 0,1.539 0.874,2.489 0.874,0.95 2.242,0.95 z"
         id="path591" />
      <path
         d="m 76.805971,21.974 q 0.912,0 1.672,-0.38 0.779,-0.399 1.425,-1.197 l 0.931,0.855 q -0.779,1.026 -1.824,1.539 -1.045,0.494 -2.337,0.494 -2.071,0 -3.401,-1.349 -1.311,-1.368 -1.311,-3.496 0,-2.071 1.349,-3.458 1.349,-1.387 3.325,-1.387 2.014,0 3.268,1.311 1.254,1.311 1.254,3.42 0,0.152 -0.019,0.361 -0.019,0.19 -0.038,0.285 h -7.543 q 0.152,1.349 1.045,2.185 0.912,0.817 2.204,0.817 z m -0.152,-7.068 q -1.197,0 -2.052,0.779 -0.855,0.779 -1.045,2.09 h 6.042 q -0.171,-1.33 -0.969,-2.09 -0.798,-0.779 -1.976,-0.779 z"
         id="path593" />
      <path
         d="m 82.714985,13.823 h 1.52 v 1.425 q 0.551,-0.798 1.387,-1.216 0.855,-0.437 1.9,-0.437 1.824,0 2.85,1.178 1.026,1.178 1.026,3.23 V 23 h -1.539 v -4.902 q 0,-1.444 -0.722,-2.28 -0.703,-0.836 -1.976,-0.836 -1.311,0 -2.109,0.893 -0.798,0.893 -0.798,2.318 V 23 h -1.539 z"
         id="path595" />
      <path
         d="m 97.62997,23.285 q -2.109,0 -3.439,-1.33 -1.311,-1.349 -1.311,-3.515 0,-2.052 1.387,-3.458 1.387,-1.406 3.401,-1.406 1.463,0 2.489,0.684 1.045,0.665 1.577,1.938 l -1.311,0.627 q -0.437,-0.95 -1.14,-1.425 -0.684,-0.475 -1.634,-0.475 -1.349,0 -2.28,1.026 -0.912,1.007 -0.912,2.489 0,1.501 0.912,2.508 0.931,0.988 2.318,0.988 0.893,0 1.653,-0.475 0.779,-0.494 1.254,-1.368 l 1.197,0.646 q -0.551,1.178 -1.653,1.862 -1.102,0.684 -2.508,0.684 z"
         id="path597" />
      <path
         d="m 106.16098,22.924 -3.876,-9.101 h 1.691 l 2.964,7.296 2.964,-7.296 h 1.615 l -5.339,12.597 h -1.596 z"
         id="path599" />
    </g>
    <path
       d="M11.5001 161.5C11.5001 135.543 69.2553 114.5 140.5 114.5 211.745 114.5 269.5 135.543 269.5 161.5 269.5 187.457 211.745 208.5 140.5 208.5 69.2553 208.5 11.5001 187.457 11.5001 161.5Z"
       stroke="#7BDEFF"
       stroke-width="1.33333"
       stroke-miterlimit="8"
       fill="#B4F0FF"
       fill-rule="evenodd"
       id="path254" />
    <g
       aria-label="Execution capability plugins"
       transform="translate(58.8581 156)"
       id="text258"
       style="font-size:19px;font-family:'IntelOne Display Regular', 'IntelOne Display Regular_MSFontService', sans-serif">
      <path
         d="m 1.235,0 v -13.3 h 9.652 v 1.444 H 2.869 v 4.427 h 7.486 v 1.444 H 2.869 v 4.541 h 8.018 V 0 Z"
         id="path602" />
      <path
         d="m 13.717995,0 h -1.729 l 3.572,-4.731 -3.325,-4.446 h 1.824 l 2.413,3.363 2.451,-3.363 h 1.71 l -3.325,4.427 3.629,4.75 h -1.805 l -2.698,-3.705 z"
         id="path604" />
      <path
         d="m 25.915983,-1.026 q 0.912,0 1.672,-0.38 0.779,-0.399 1.425,-1.197 l 0.931,0.855 q -0.779,1.026 -1.824,1.539 -1.045,0.494 -2.337,0.494 -2.071,0 -3.401,-1.349 -1.311,-1.368 -1.311,-3.496 0,-2.071 1.349,-3.458 1.349,-1.387 3.325,-1.387 2.014,0 3.268,1.311 1.254,1.311 1.254,3.42 0,0.152 -0.019,0.361 -0.019,0.19 -0.038,0.285 h -7.543 q 0.152,1.349 1.045,2.185 0.912,0.817 2.204,0.817 z m -0.152,-7.068 q -1.197,0 -2.052,0.779 -0.855,0.779 -1.045,2.09 h 6.042 q -0.171,-1.33 -0.969,-2.09 -0.798,-0.779 -1.976,-0.779 z"
         id="path606" />
      <path
         d="m 36.156995,0.285 q -2.109,0 -3.439,-1.33 -1.311,-1.349 -1.311,-3.515 0,-2.052 1.387,-3.458 1.387,-1.406 3.401,-1.406 1.463,0 2.489,0.684 1.045,0.665 1.577,1.938 l -1.311,0.627 q -0.437,-0.95 -1.14,-1.425 -0.684,-0.475 -1.634,-0.475 -1.349,0 -2.28,1.026 -0.912,1.007 -0.912,2.489 0,1.501 0.912,2.508 0.931,0.988 2.318,0.988 0.893,0 1.653,-0.475 0.779,-0.494 1.254,-1.368 l 1.197,0.646 q -0.551,1.178 -1.653,1.862 -1.102,0.684 -2.508,0.684 z"
         id="path608" />
      <path
         d="m 50.444991,0 h -1.539 v -1.406 q -0.551,0.798 -1.387,1.216 -0.836,0.399 -1.9,0.399 -1.805,0 -2.85,-1.178 -1.026,-1.178 -1.026,-3.211 v -4.997 h 1.558 v 4.902 q 0,1.444 0.703,2.28 0.722,0.836 1.995,0.836 1.292,0 2.09,-0.893 0.798,-0.893 0.798,-2.318 v -4.807 h 1.558 z"
         id="path610" />
      <path
         d="m 52.952976,-2.451 v -5.358 h -1.254 v -1.368 h 1.254 v -2.812 h 1.539 v 2.812 h 2.128 v 1.368 h -2.128 v 5.225 q 0,0.608 0.266,0.912 0.285,0.285 0.855,0.285 h 1.007 V 0 h -1.235 q -1.273,0 -1.862,-0.589 -0.57,-0.589 -0.57,-1.862 z"
         id="path612" />
      <path
         d="m 58.272979,-12.255 h 1.71 v 1.691 h -1.71 z M 58.348979,0 v -9.177 h 1.558 V 0 Z"
         id="path614" />
      <path
         d="m 71.230969,-4.579 q 0,2.071 -1.387,3.477 -1.387,1.387 -3.42,1.387 -2.033,0 -3.401,-1.387 -1.349,-1.387 -1.349,-3.458 0,-2.071 1.387,-3.458 1.387,-1.406 3.42,-1.406 2.033,0 3.382,1.387 1.368,1.387 1.368,3.458 z m -7.98,0.019 q 0,1.482 0.912,2.489 0.931,1.007 2.299,1.007 1.349,0 2.261,-1.007 0.931,-1.007 0.931,-2.508 0,-1.463 -0.931,-2.47 -0.931,-1.026 -2.28,-1.026 -1.349,0 -2.28,1.007 -0.912,1.007 -0.912,2.508 z"
         id="path616" />
      <path
         d="m 72.826977,-9.177 h 1.52 v 1.425 q 0.551,-0.798 1.387,-1.216 0.855,-0.437 1.9,-0.437 1.824,0 2.85,1.178 1.026,1.178 1.026,3.23 V 0 h -1.539 v -4.902 q 0,-1.444 -0.722,-2.28 -0.703,-0.836 -1.976,-0.836 -1.311,0 -2.109,0.893 -0.798,0.893 -0.798,2.318 V 0 h -1.539 z"
         id="path618" />
      <path
         d="m 91.256953,0.285 q -2.109,0 -3.439,-1.33 -1.311,-1.349 -1.311,-3.515 0,-2.052 1.387,-3.458 1.387,-1.406 3.401,-1.406 1.463,0 2.489,0.684 1.045,0.665 1.577,1.938 l -1.311,0.627 q -0.437,-0.95 -1.14,-1.425 -0.684,-0.475 -1.634,-0.475 -1.349,0 -2.28,1.026 -0.912,1.007 -0.912,2.489 0,1.501 0.912,2.508 0.931,0.988 2.318,0.988 0.893,0 1.653,-0.475 0.779,-0.494 1.254,-1.368 l 1.197,0.646 q -0.551,1.178 -1.653,1.862 -1.102,0.684 -2.508,0.684 z"
         id="path620" />
      <path
         d="m 104.84195,0 h -1.501 v -1.501 q -0.551,0.798 -1.501,1.254 -0.931,0.437 -2.013999,0.437 -1.52,0 -2.47,-0.76 -0.95,-0.779 -0.95,-2.033 0,-1.387 1.064,-2.09 1.064,-0.722 3.153999,-0.722 h 2.698 q -0.019,-1.292 -0.684,-1.995 -0.646,-0.703 -1.862,-0.703 -0.722,0 -1.424999,0.304 -0.703,0.304 -1.387,0.931 l -0.817,-1.026 q 0.798,-0.76 1.748,-1.14 0.95,-0.399 2.032999,-0.399 1.843,0 2.869,1.102 1.045,1.083 1.045,3.002 z m -1.52,-4.218 h -2.679 q -1.386999,0 -2.051999,0.38 -0.665,0.38 -0.665,1.197 0,0.684 0.57,1.14 0.589,0.456 1.501,0.456 1.367999,0 2.298999,-0.874 0.95,-0.893 1.026,-2.299 z"
         id="path622" />
      <path
         d="m 108.28094,3.42 h -1.539 V -9.177 h 1.52 v 1.482 q 0.608,-0.798 1.501,-1.235 0.893,-0.456 1.9,-0.456 1.938,0 3.23,1.349 1.292,1.33 1.292,3.42 0,2.109 -1.349,3.477 -1.33,1.349 -3.287,1.349 -0.931,0 -1.805,-0.38 -0.855,-0.399 -1.463,-1.121 z m 3.211,-11.438 q -1.387,0 -2.337,1.007 -0.931,0.988 -0.931,2.47 0,1.463 0.912,2.432 0.931,0.969 2.299,0.969 1.406,0 2.28,-0.931 0.893,-0.95 0.893,-2.508 0,-1.539 -0.874,-2.489 -0.855,-0.95 -2.242,-0.95 z"
         id="path624" />
      <path
         d="m 125.66593,0 h -1.501 v -1.501 q -0.551,0.798 -1.501,1.254 -0.931,0.437 -2.014,0.437 -1.52,0 -2.47,-0.76 -0.95,-0.779 -0.95,-2.033 0,-1.387 1.064,-2.09 1.064,-0.722 3.154,-0.722 h 2.698 q -0.019,-1.292 -0.684,-1.995 -0.646,-0.703 -1.862,-0.703 -0.722,0 -1.425,0.304 -0.703,0.304 -1.387,0.931 l -0.817,-1.026 q 0.798,-0.76 1.748,-1.14 0.95,-0.399 2.033,-0.399 1.843,0 2.869,1.102 1.045,1.083 1.045,3.002 z m -1.52,-4.218 h -2.679 q -1.387,0 -2.052,0.38 -0.665,0.38 -0.665,1.197 0,0.684 0.57,1.14 0.589,0.456 1.501,0.456 1.368,0 2.299,-0.874 0.95,-0.893 1.026,-2.299 z"
         id="path626" />
      <path
         d="m 129.08591,0 h -1.52 v -13.3 h 1.539 v 5.548 q 0.608,-0.779 1.482,-1.197 0.893,-0.437 1.881,-0.437 1.938,0 3.23,1.349 1.311,1.33 1.311,3.42 0,2.109 -1.33,3.477 -1.33,1.349 -3.287,1.349 -0.969,0 -1.843,-0.418 -0.855,-0.418 -1.463,-1.159 z m 3.23,-8.018 q -1.368,0 -2.318,1.007 -0.95,0.988 -0.95,2.47 0,1.444 0.931,2.432 0.931,0.969 2.28,0.969 1.406,0 2.28,-0.931 0.893,-0.95 0.893,-2.508 0,-1.539 -0.874,-2.489 -0.855,-0.95 -2.242,-0.95 z"
         id="path628" />
      <path
         d="m 138.6999,-12.255 h 1.71 v 1.691 h -1.71 z M 138.7759,0 v -9.177 h 1.558 V 0 Z"
         id="path630" />
      <path
         d="m 142.68989,-13.3 h 1.558 V 0 h -1.558 z"
         id="path632" />
      <path
         d="m 146.52787,-12.255 h 1.71 v 1.691 h -1.71 z M 146.60387,0 v -9.177 h 1.558 V 0 Z"
         id="path634" />
      <path
         d="m 150.85987,-2.451 v -5.358 h -1.254 v -1.368 h 1.254 v -2.812 h 1.539 v 2.812 h 2.128 v 1.368 h -2.128 v 5.225 q 0,0.608 0.266,0.912 0.285,0.285 0.855,0.285 h 1.007 V 0 h -1.235 q -1.273,0 -1.862,-0.589 -0.57,-0.589 -0.57,-1.862 z"
         id="path636" />
      <path
         d="m 159.20087,-0.076 -3.876,-9.101 h 1.691 l 2.964,7.296 2.964,-7.296 h 1.615 l -5.339,12.597 h -1.596 z"
         id="path638" />
      <path
         d="m 54.379302,26.42 h -1.539 V 13.823 h 1.52 v 1.482 q 0.608,-0.798 1.501,-1.235 0.893,-0.456 1.9,-0.456 1.938,0 3.23,1.349 1.292,1.33 1.292,3.42 0,2.109 -1.349,3.477 -1.33,1.349 -3.287,1.349 -0.931,0 -1.805,-0.38 -0.855,-0.399 -1.463,-1.121 z m 3.211,-11.438 q -1.387,0 -2.337,1.007 -0.931,0.988 -0.931,2.47 0,1.463 0.912,2.432 0.931,0.969 2.299,0.969 1.406,0 2.28,-0.931 0.893,-0.95 0.893,-2.508 0,-1.539 -0.874,-2.489 -0.855,-0.95 -2.242,-0.95 z"
         id="path640" />
      <path
         d="m 64.05029,9.7 h 1.558 V 23 h -1.558 z"
         id="path642" />
      <path
         d="m 76.381278,23 h -1.539 v -1.406 q -0.551,0.798 -1.387,1.216 -0.836,0.399 -1.9,0.399 -1.805,0 -2.85,-1.178 -1.026,-1.178 -1.026,-3.211 v -4.997 h 1.558 v 4.902 q 0,1.444 0.703,2.28 0.722,0.836 1.995,0.836 1.292,0 2.09,-0.893 0.798,-0.893 0.798,-2.318 v -4.807 h 1.558 z"
         id="path644" />
      <path
         d="m 85.881263,21.917 v -0.646 q -0.627,0.76 -1.52,1.178 -0.874,0.418 -1.881,0.418 -1.938,0 -3.23,-1.292 -1.292,-1.292 -1.292,-3.325 0,-2.014 1.311,-3.325 1.33,-1.33 3.268,-1.33 0.988,0 1.862,0.418 0.874,0.418 1.501,1.178 v -1.368 h 1.539 v 8.037 q 0,2.28 -1.216,3.42 -1.216,1.14 -3.667,1.14 h -2.318 v -1.33 h 2.394 q 1.615,0 2.432,-0.798 0.817,-0.798 0.817,-2.375 z m -3.173,-0.418 q 1.368,0 2.299,-0.931 0.95,-0.95 0.95,-2.318 0,-1.406 -0.95,-2.337 -0.931,-0.95 -2.299,-0.95 -1.425,0 -2.299,0.893 -0.874,0.893 -0.874,2.375 0,1.463 0.874,2.375 0.893,0.893 2.299,0.893 z"
         id="path646" />
      <path
         d="m 89.529277,10.745 h 1.71 v 1.691 h -1.71 z m 0.076,12.255 v -9.177 h 1.558 V 23 Z"
         id="path648" />
      <path
         d="m 93.348267,13.823 h 1.52 v 1.425 q 0.551,-0.798 1.387,-1.216 0.855,-0.437 1.9,-0.437 1.824,0 2.850003,1.178 1.026,1.178 1.026,3.23 V 23 h -1.539 v -4.902 q 0,-1.444 -0.722003,-2.28 -0.703,-0.836 -1.976,-0.836 -1.311,0 -2.109,0.893 -0.798,0.893 -0.798,2.318 V 23 h -1.539 z"
         id="path650" />
      <path
         d="m 111.32225,20.321 q 0,1.292 -1.102,2.109 -1.102,0.817 -2.869,0.817 -1.159,0 -2.185,-0.361 -1.007,-0.38 -1.824,-1.121 l 0.798,-1.178 q 0.874,0.722 1.634,1.045 0.76,0.323 1.615,0.323 1.102,0 1.767,-0.418 0.684,-0.437 0.684,-1.121 0,-0.703 -0.57,-1.007 -0.57,-0.323 -1.881,-0.342 -1.919,-0.076 -2.812,-0.703 -0.874,-0.627 -0.874,-1.957 0,-1.216 1.007,-2.014 1.026,-0.817 2.622,-0.817 1.083,0 2.033,0.342 0.95,0.342 1.729,1.007 l -0.741,1.159 q -0.779,-0.627 -1.501,-0.912 -0.722,-0.285 -1.539,-0.285 -0.931,0 -1.539,0.418 -0.589,0.418 -0.589,1.026 0,0.665 0.532,0.969 0.532,0.304 1.691,0.361 2.071,0.057 2.983,0.684 0.931,0.627 0.931,1.976 z"
         id="path652" />
    </g>
    <path
       d="M1-1.71577e-06 1.00009 54.5226-0.999906 54.5226-1 1.71577e-06ZM4.00009 53.1893 0.000104987 61.1893-3.99991 53.1893Z"
       fill="#0068B5"
       transform="matrix(1 0 0 -1 437 505.189)"
       id="path260" />
    <path
       d="M2.75889e-06-1 31.3873-0.999913 31.3873 1.00009-2.75889e-06 1ZM30.054-3.99992 38.054 0.000104987 30.054 4.00008Z"
       fill="#0068B5"
       transform="matrix(-1 0 0 1 307.054 397)"
       id="path262" />
    <path
       d="M566 242 603.874 242 603.874 244 566 244ZM602.54 239 610.54 243 602.54 247Z"
       fill="#0068B5"
       id="path264" />
    <path
       d="M344.963 365.048 341.632 360.057 343.296 358.947 346.626 363.938ZM340.522 358.394 337.191 353.403 338.854 352.293 342.185 357.284ZM336.081 351.74 332.75 346.749 334.413 345.639 337.744 350.63ZM331.639 345.086 328.308 340.095 329.972 338.985 333.303 343.976ZM327.198 338.432 323.867 333.441 325.531 332.331 328.862 337.322ZM322.757 331.778 319.426 326.787 321.09 325.677 324.42 330.668ZM318.316 325.124 314.985 320.133 316.648 319.023 319.979 324.014ZM313.875 318.47 310.544 313.479 312.207 312.369 315.538 317.36ZM309.433 311.816 306.103 306.825 307.766 305.715 311.097 310.706ZM304.992 305.162 301.661 300.171 303.325 299.061 306.656 304.052ZM300.551 298.508 297.22 293.517 298.884 292.407 302.215 297.398ZM296.11 291.854 292.779 286.863 294.442 285.753 297.773 290.744ZM291.669 285.2 288.338 280.209 290.001 279.099 293.332 284.09ZM287.227 278.546 283.897 273.555 285.56 272.445 288.891 277.436ZM282.786 271.892 279.455 266.901 281.119 265.791 284.45 270.782ZM278.345 265.238 275.014 260.247 276.678 259.137 280.009 264.128ZM273.904 258.584 270.573 253.593 272.237 252.483 275.567 257.474ZM269.463 251.93 266.132 246.939 267.795 245.829 271.126 250.819ZM265.022 245.276 261.691 240.285 263.354 239.175 266.685 244.165ZM260.58 238.622 257.249 233.631 258.913 232.521 262.244 237.511ZM256.139 231.968 252.808 226.977 254.472 225.867 257.803 230.857ZM251.698 225.314 248.367 220.323 250.031 219.213 253.361 224.203ZM247.257 218.66 243.926 213.669 245.589 212.559 248.92 217.549ZM242.816 212.006 239.485 207.015 241.148 205.905 244.479 210.895ZM238.374 205.352 235.043 200.361 236.707 199.251 240.038 204.241ZM233.114 202.875 232 194 239.768 198.433Z"
       id="path266" />
    <path
       d="M1-1.71577e-06 1.00001 6-0.99999 6-1 1.71577e-06ZM1.00001 8 1.00002 14-0.999976 14-0.999986 8ZM1.00003 16 1.00004 22-0.999962 22-0.999972 16ZM1.00004 24 1.00005 30-0.999949 30-0.999959 24ZM1.00005 32 1.00007 38-0.999935 38-0.999945 32ZM1.00007 40 1.00008 46-0.999921 46-0.999931 40ZM1.00008 48 1.00009 54-0.999907 54-0.999918 48ZM4.00009 53.1893 0.000104987 61.1893-3.99991 53.1893Z"
       transform="matrix(1 0 0 -1 437 351.189)"
       id="path268" />
    <path
       d="M566 396 572 396 572 398 566 398ZM574 396 580 396 580 398 574 398ZM582 396 588 396 588 398 582 398ZM590 396 596 396 596 398 590 398ZM596.054 393 604.054 397 596.054 401Z"
       id="path270" />
    <path
       d="M269.542 160.159 274.585 163.409 273.502 165.09 268.458 161.841ZM276.267 164.493 281.31 167.742 280.227 169.424 275.183 166.174ZM282.991 168.826 288.035 172.076 286.952 173.757 281.908 170.507ZM289.716 173.159 294.76 176.409 293.677 178.09 288.633 174.84ZM296.441 177.492 301.485 180.742 300.401 182.423 295.358 179.173ZM303.166 181.825 308.21 185.075 307.126 186.756 302.083 183.506ZM309.891 186.158 314.934 189.408 313.851 191.09 308.807 187.84ZM316.616 190.492 321.659 193.741 320.576 195.423 315.532 192.173ZM323.34 194.825 328.384 198.075 327.301 199.756 322.257 196.506ZM330.065 199.158 335.109 202.408 334.026 204.089 328.982 200.839ZM336.79 203.491 339.862 205.47 338.779 207.152 335.707 205.172ZM340.366 202.226 344.924 209.922 336.033 208.951Z"
       id="path272" />
    <path
       d="M1-1.71577e-06 1.00001 6-0.99999 6-1 1.71577e-06ZM1.00001 8 1.00002 14-0.999976 14-0.999986 8ZM1.00003 16 1.00004 22-0.999962 22-0.999972 16ZM1.00004 24 1.00005 30-0.999949 30-0.999959 24ZM1.00005 32 1.00007 38-0.999935 38-0.999945 32ZM1.00007 40 1.00008 46-0.999921 46-0.999931 40ZM1.00008 48 1.00009 54-0.999907 54-0.999918 48ZM4.00009 53.1892 0.000104987 61.1892-3.99991 53.1892Z"
       transform="matrix(1 0 0 -1 437 196.189)"
       id="path274" />
  </g>
</svg>
