<?xml version="1.0" encoding="UTF-8" standalone="no"?>
<svg
   width="800"
   height="624"
   overflow="hidden"
   version="1.1"
   id="svg12894"
   sodipodi:docname="deployment_simplified.svg"
   inkscape:version="1.2.1 (9c6d41e410, 2022-07-14)"
   xmlns:inkscape="http://www.inkscape.org/namespaces/inkscape"
   xmlns:sodipodi="http://sodipodi.sourceforge.net/DTD/sodipodi-0.dtd"
   xmlns="http://www.w3.org/2000/svg"
   xmlns:svg="http://www.w3.org/2000/svg">
  <sodipodi:namedview
     id="namedview12896"
     pagecolor="#ffffff"
     bordercolor="#000000"
     borderopacity="0.25"
     inkscape:showpageshadow="2"
     inkscape:pageopacity="0.0"
     inkscape:pagecheckerboard="0"
     inkscape:deskcolor="#d1d1d1"
     showgrid="false"
     inkscape:zoom="1.4166667"
     inkscape:cx="399.88235"
     inkscape:cy="312"
     inkscape:window-width="1920"
     inkscape:window-height="1129"
     inkscape:window-x="-8"
     inkscape:window-y="-8"
     inkscape:window-maximized="1"
     inkscape:current-layer="svg12894" />
  <defs
     id="defs12866">
    <clipPath
       id="clip0">
      <rect
         x="0"
         y="0"
         width="800"
         height="624"
         id="rect12863" />
    </clipPath>
  </defs>
  <g
     clip-path="url(#clip0)"
     id="g12892">
    <path
       id="rect12868"
       style="fill:#ffffff"
       d="M 0,0 H 800 V 624 H 0 Z" />
    <path
       d="M102.5 114C102.5 87.2142 165.18 65.5001 242.5 65.5001 319.82 65.5001 382.5 87.2142 382.5 114 382.5 140.786 319.82 162.5 242.5 162.5 165.18 162.5 102.5 140.786 102.5 114Z"
       stroke="#C98F00"
       stroke-width="1.33333"
       stroke-miterlimit="8"
       fill="#EDB200"
       fill-rule="evenodd"
       id="path12870" />
    <g
       aria-label="Device plugins"
       transform="translate(173.829 121)"
       id="text12872"
       style="font-size:21px;font-family:'IntelOne Display Regular', 'IntelOne Display Regular_MSFontService', sans-serif;fill:#ffffff">
      <path
         d="m 1.365,0 v -14.7 h 5.523 q 3.444,0 5.544,2.037 2.121,2.037 2.121,5.292 0,3.234 -2.142,5.313 Q 10.269,0 6.846,0 Z m 11.361,-7.329 q 0,-2.52 -1.638,-4.116 -1.617,-1.617 -4.221,-1.617 H 3.171 v 11.424 h 3.696 q 2.604,0 4.221,-1.596 1.638,-1.596 1.638,-4.095 z"
         id="path12899" />
      <path
         d="m 21.357019,-1.134 q 1.008,0 1.848,-0.42 0.861,-0.441 1.575,-1.323 l 1.029,0.945 q -0.861,1.134 -2.016,1.701 -1.155,0.546 -2.583,0.546 -2.289,0 -3.759,-1.491 -1.449,-1.512 -1.449,-3.864 0,-2.289 1.491,-3.822 1.491,-1.533 3.675,-1.533 2.226,0 3.612,1.449 1.386,1.449 1.386,3.78 0,0.168 -0.021,0.399 -0.021,0.21 -0.042,0.315 h -8.337 q 0.168,1.491 1.155,2.415 1.008,0.903 2.436,0.903 z m -0.168,-7.812 q -1.323,0 -2.268,0.861 -0.945,0.861 -1.155,2.31 h 6.678 q -0.189,-1.47 -1.071,-2.31 -0.882,-0.861 -2.184,-0.861 z"
         id="path12901" />
      <path
         d="m 30.975022,0 -4.347,-10.143 h 1.869 l 3.297,8.106 3.276,-8.106 h 1.764 L 32.529022,0 Z"
         id="path12903" />
      <path
         d="m 38.325002,-13.545 h 1.89 v 1.869 h -1.89 z M 38.409002,0 v -10.143 h 1.722 V 0 Z"
         id="path12905" />
      <path
         d="m 47.333991,0.315 q -2.331,0 -3.801,-1.47 -1.449,-1.491 -1.449,-3.885 0,-2.268 1.533,-3.822 1.533,-1.554 3.759,-1.554 1.617,0 2.751,0.756 1.155,0.735 1.743,2.142 l -1.449,0.693 q -0.483,-1.05 -1.26,-1.575 -0.756,-0.525 -1.806,-0.525 -1.491,0 -2.52,1.134 -1.008,1.113 -1.008,2.751 0,1.659 1.008,2.772 1.029,1.092 2.562,1.092 0.987,0 1.827,-0.525 0.861,-0.546 1.386,-1.512 l 1.323,0.714 q -0.609,1.302 -1.827,2.058 -1.218,0.756 -2.772,0.756 z"
         id="path12907" />
      <path
         d="m 58.526988,-1.134 q 1.008,0 1.848,-0.42 0.861,-0.441 1.575,-1.323 l 1.029,0.945 q -0.861,1.134 -2.016,1.701 -1.155,0.546 -2.583,0.546 -2.289,0 -3.759,-1.491 -1.449,-1.512 -1.449,-3.864 0,-2.289 1.491,-3.822 1.491,-1.533 3.675,-1.533 2.226,0 3.612,1.449 1.386,1.449 1.386,3.78 0,0.168 -0.021,0.399 -0.021,0.21 -0.042,0.315 h -8.337 q 0.168,1.491 1.155,2.415 1.008,0.903 2.436,0.903 z m -0.168,-7.812 q -1.323,0 -2.268,0.861 -0.945,0.861 -1.155,2.31 h 6.678 q -0.189,-1.47 -1.071,-2.31 -0.882,-0.861 -2.184,-0.861 z"
         id="path12909" />
      <path
         d="m 70.643987,3.78 h -1.701 v -13.923 h 1.68 v 1.638 q 0.672,-0.882 1.659,-1.365 0.987,-0.504 2.1,-0.504 2.142,0 3.57,1.491 1.428,1.47 1.428,3.78 0,2.331 -1.491,3.843 -1.47,1.491 -3.633,1.491 -1.029,0 -1.995,-0.42 -0.945,-0.441 -1.617,-1.239 z m 3.549,-12.642 q -1.533,0 -2.583,1.113 -1.029,1.092 -1.029,2.73 0,1.617 1.008,2.688 1.029,1.071 2.541,1.071 1.554,0 2.52,-1.029 0.987,-1.05 0.987,-2.772 0,-1.701 -0.966,-2.751 -0.945,-1.05 -2.478,-1.05 z"
         id="path12911" />
      <path
         d="m 81.332975,-14.7 h 1.722 V 0 h -1.722 z"
         id="path12913" />
      <path
         d="m 94.961964,0 h -1.701 v -1.554 q -0.609,0.882 -1.533,1.344 -0.924,0.441 -2.1,0.441 -1.995,0 -3.15,-1.302 -1.134,-1.302 -1.134,-3.549 v -5.523 h 1.722 v 5.418 q 0,1.596 0.777,2.52 0.798,0.924 2.205,0.924 1.428,0 2.31,-0.987 0.882,-0.987 0.882,-2.562 v -5.313 h 1.722 z"
         id="path12915" />
      <path
         d="m 105.46195,-1.197 v -0.714 q -0.693,0.84 -1.68,1.302 -0.966,0.462 -2.079,0.462 -2.142003,0 -3.570003,-1.428 -1.428,-1.428 -1.428,-3.675 0,-2.226 1.449,-3.675 1.47,-1.47 3.612003,-1.47 1.092,0 2.058,0.462 0.966,0.462 1.659,1.302 v -1.512 h 1.701 v 8.883 q 0,2.52 -1.344,3.78 -1.344,1.26 -4.053,1.26 H 99.224947 V 2.31 h 2.646003 q 1.785,0 2.688,-0.882 0.903,-0.882 0.903,-2.625 z m -3.507,-0.462 q 1.512,0 2.541,-1.029 1.05,-1.05 1.05,-2.562 0,-1.554 -1.05,-2.583 -1.029,-1.05 -2.541,-1.05 -1.575,0 -2.541003,0.987 -0.966,0.987 -0.966,2.625 0,1.617 0.966,2.625 0.987003,0.987 2.541003,0.987 z"
         id="path12917" />
      <path
         d="m 109.49396,-13.545 h 1.89 v 1.869 h -1.89 z M 109.57796,0 v -10.143 h 1.722 V 0 Z"
         id="path12919" />
      <path
         d="m 113.71495,-10.143 h 1.68 v 1.575 q 0.609,-0.882 1.533,-1.344 0.945,-0.483 2.1,-0.483 2.016,0 3.15,1.302 1.134,1.302 1.134,3.57 V 0 h -1.701 v -5.418 q 0,-1.596 -0.798,-2.52 -0.777,-0.924 -2.184,-0.924 -1.449,0 -2.331,0.987 -0.882,0.987 -0.882,2.562 V 0 h -1.701 z"
         id="path12921" />
      <path
         d="m 133.58093,-2.961 q 0,1.428 -1.218,2.331 -1.218,0.903 -3.171,0.903 -1.281,0 -2.415,-0.399 -1.113,-0.42 -2.016,-1.239 l 0.882,-1.302 q 0.966,0.798 1.806,1.155 0.84,0.357 1.785,0.357 1.218,0 1.953,-0.462 0.756,-0.483 0.756,-1.239 0,-0.777 -0.63,-1.113 -0.63,-0.357 -2.079,-0.378 -2.121,-0.084 -3.108,-0.777 -0.966,-0.693 -0.966,-2.163 0,-1.344 1.113,-2.226 1.134,-0.903 2.898,-0.903 1.197,0 2.247,0.378 1.05,0.378 1.911,1.113 l -0.819,1.281 q -0.861,-0.693 -1.659,-1.008 -0.798,-0.315 -1.701,-0.315 -1.029,0 -1.701,0.462 -0.651,0.462 -0.651,1.134 0,0.735 0.588,1.071 0.588,0.336 1.869,0.399 2.289,0.063 3.297,0.756 1.029,0.693 1.029,2.184 z"
         id="path12923" />
    </g>
    <path
       d="M102.5 305C102.5 278.214 165.18 256.5 242.5 256.5 319.82 256.5 382.5 278.214 382.5 305 382.5 331.786 319.82 353.5 242.5 353.5 165.18 353.5 102.5 331.786 102.5 305Z"
       stroke="#004A86"
       stroke-width="1.33333"
       stroke-miterlimit="8"
       fill="#0068B5"
       fill-rule="evenodd"
       id="path12874" />
    <g
       aria-label="openvino"
       transform="translate(198.662 313)"
       id="text12876"
       style="font-size:21px;font-family:'IntelOne Display Regular', 'IntelOne Display Regular_MSFontService', sans-serif;fill:#ffffff">
      <path
         d="m 11.214,-5.061 q 0,2.289 -1.533,3.843 -1.533,1.533 -3.78,1.533 -2.247,0 -3.759,-1.533 -1.491,-1.533 -1.491,-3.822 0,-2.289 1.533,-3.822 1.533,-1.554 3.78,-1.554 2.247,0 3.738,1.533 1.512,1.533 1.512,3.822 z m -8.82,0.021 q 0,1.638 1.008,2.751 1.029,1.113 2.541,1.113 1.491,0 2.499,-1.113 1.029,-1.113 1.029,-2.772 0,-1.617 -1.029,-2.73 -1.029,-1.134 -2.52,-1.134 -1.491,0 -2.52,1.113 -1.008,1.113 -1.008,2.772 z"
         id="path12926" />
      <path
         d="m 14.679011,3.78 h -1.701 v -13.923 h 1.68 v 1.638 q 0.672,-0.882 1.659,-1.365 0.987,-0.504 2.1,-0.504 2.142,0 3.57,1.491 1.428,1.47 1.428,3.78 0,2.331 -1.491,3.843 -1.47,1.491 -3.633,1.491 -1.029,0 -1.995,-0.42 -0.945,-0.441 -1.617,-1.239 z m 3.549,-12.642 q -1.533,0 -2.583,1.113 -1.029,1.092 -1.029,2.73 0,1.617 1.008,2.688 1.029,1.071 2.541,1.071 1.554,0 2.52,-1.029 0.987,-1.05 0.987,-2.772 0,-1.701 -0.966,-2.751 -0.945,-1.05 -2.478,-1.05 z"
         id="path12928" />
      <path
         d="m 30.071998,-1.134 q 1.008,0 1.848,-0.42 0.861,-0.441 1.575,-1.323 l 1.029,0.945 q -0.861,1.134 -2.016,1.701 -1.155,0.546 -2.583,0.546 -2.289,0 -3.759,-1.491 -1.449,-1.512 -1.449,-3.864 0,-2.289 1.491,-3.822 1.491,-1.533 3.675,-1.533 2.226,0 3.612,1.449 1.386,1.449 1.386,3.78 0,0.168 -0.021,0.399 -0.021,0.21 -0.042,0.315 h -8.337 q 0.168,1.491 1.155,2.415 1.008,0.903 2.436,0.903 z m -0.168,-7.812 q -1.323,0 -2.268,0.861 -0.945,0.861 -1.155,2.31 h 6.678 q -0.189,-1.47 -1.071,-2.31 -0.882,-0.861 -2.184,-0.861 z"
         id="path12930" />
      <path
         d="m 36.603013,-10.143 h 1.68 v 1.575 q 0.609,-0.882 1.533,-1.344 0.945,-0.483 2.1,-0.483 2.016,0 3.15,1.302 1.134,1.302 1.134,3.57 V 0 h -1.701 v -5.418 q 0,-1.596 -0.798,-2.52 -0.777,-0.924 -2.184,-0.924 -1.449,0 -2.331,0.987 -0.882,0.987 -0.882,2.562 V 0 h -1.701 z"
         id="path12932" />
      <path
         d="m 51.386983,0 -4.347,-10.143 h 1.869 l 3.297,8.106 3.276,-8.106 h 1.764 L 52.940983,0 Z"
         id="path12934" />
      <path
         d="m 58.736967,-13.545 h 1.89 v 1.869 h -1.89 z M 58.820967,0 v -10.143 h 1.722 V 0 Z"
         id="path12936" />
      <path
         d="m 62.957955,-10.143 h 1.68 v 1.575 q 0.609,-0.882 1.533,-1.344 0.945,-0.483 2.1,-0.483 2.016,0 3.15,1.302 1.134,1.302 1.134,3.57 V 0 h -1.701 v -5.418 q 0,-1.596 -0.798,-2.52 -0.777,-0.924 -2.184,-0.924 -1.449,0 -2.331,0.987 -0.882,0.987 -0.882,2.562 V 0 h -1.701 z"
         id="path12938" />
      <path
         d="m 84.755939,-5.061 q 0,2.289 -1.533,3.843 -1.533,1.533 -3.78,1.533 -2.247,0 -3.759,-1.533 -1.491,-1.533 -1.491,-3.822 0,-2.289 1.533,-3.822 1.533,-1.554 3.78,-1.554 2.247,0 3.738,1.533 1.512,1.533 1.512,3.822 z m -8.82,0.021 q 0,1.638 1.008,2.751 1.029,1.113 2.541,1.113 1.491,0 2.499,-1.113 1.029,-1.113 1.029,-2.772 0,-1.617 -1.029,-2.73 -1.029,-1.134 -2.52,-1.134 -1.491,0 -2.52,1.113 -1.008,1.113 -1.008,2.772 z"
         id="path12940" />
    </g>
    <path
       d="M102.5 497C102.5 470.214 165.18 448.5 242.5 448.5 319.82 448.5 382.5 470.214 382.5 497 382.5 523.786 319.82 545.5 242.5 545.5 165.18 545.5 102.5 523.786 102.5 497Z"
       stroke="#004A86"
       stroke-width="1.33333"
       stroke-miterlimit="8"
       fill="#0068B5"
       fill-rule="evenodd"
       id="path12878" />
    <g
       aria-label="openvino_c"
       transform="translate(187.579 505)"
       id="text12880"
       style="font-size:21px;font-family:'IntelOne Display Regular', 'IntelOne Display Regular_MSFontService', sans-serif;fill:#ffffff">
      <path
         d="m 11.214,-5.061 q 0,2.289 -1.533,3.843 -1.533,1.533 -3.78,1.533 -2.247,0 -3.759,-1.533 -1.491,-1.533 -1.491,-3.822 0,-2.289 1.533,-3.822 1.533,-1.554 3.78,-1.554 2.247,0 3.738,1.533 1.512,1.533 1.512,3.822 z m -8.82,0.021 q 0,1.638 1.008,2.751 1.029,1.113 2.541,1.113 1.491,0 2.499,-1.113 1.029,-1.113 1.029,-2.772 0,-1.617 -1.029,-2.73 -1.029,-1.134 -2.52,-1.134 -1.491,0 -2.52,1.113 -1.008,1.113 -1.008,2.772 z"
         id="path12943" />
      <path
         d="m 14.679011,3.78 h -1.701 v -13.923 h 1.68 v 1.638 q 0.672,-0.882 1.659,-1.365 0.987,-0.504 2.1,-0.504 2.142,0 3.57,1.491 1.428,1.47 1.428,3.78 0,2.331 -1.491,3.843 -1.47,1.491 -3.633,1.491 -1.029,0 -1.995,-0.42 -0.945,-0.441 -1.617,-1.239 z m 3.549,-12.642 q -1.533,0 -2.583,1.113 -1.029,1.092 -1.029,2.73 0,1.617 1.008,2.688 1.029,1.071 2.541,1.071 1.554,0 2.52,-1.029 0.987,-1.05 0.987,-2.772 0,-1.701 -0.966,-2.751 -0.945,-1.05 -2.478,-1.05 z"
         id="path12945" />
      <path
         d="m 30.071998,-1.134 q 1.008,0 1.848,-0.42 0.861,-0.441 1.575,-1.323 l 1.029,0.945 q -0.861,1.134 -2.016,1.701 -1.155,0.546 -2.583,0.546 -2.289,0 -3.759,-1.491 -1.449,-1.512 -1.449,-3.864 0,-2.289 1.491,-3.822 1.491,-1.533 3.675,-1.533 2.226,0 3.612,1.449 1.386,1.449 1.386,3.78 0,0.168 -0.021,0.399 -0.021,0.21 -0.042,0.315 h -8.337 q 0.168,1.491 1.155,2.415 1.008,0.903 2.436,0.903 z m -0.168,-7.812 q -1.323,0 -2.268,0.861 -0.945,0.861 -1.155,2.31 h 6.678 q -0.189,-1.47 -1.071,-2.31 -0.882,-0.861 -2.184,-0.861 z"
         id="path12947" />
      <path
         d="m 36.603013,-10.143 h 1.68 v 1.575 q 0.609,-0.882 1.533,-1.344 0.945,-0.483 2.1,-0.483 2.016,0 3.15,1.302 1.134,1.302 1.134,3.57 V 0 h -1.701 v -5.418 q 0,-1.596 -0.798,-2.52 -0.777,-0.924 -2.184,-0.924 -1.449,0 -2.331,0.987 -0.882,0.987 -0.882,2.562 V 0 h -1.701 z"
         id="path12949" />
      <path
         d="m 51.386983,0 -4.347,-10.143 h 1.869 l 3.297,8.106 3.276,-8.106 h 1.764 L 52.940983,0 Z"
         id="path12951" />
      <path
         d="m 58.736967,-13.545 h 1.89 v 1.869 h -1.89 z M 58.820967,0 v -10.143 h 1.722 V 0 Z"
         id="path12953" />
      <path
         d="m 62.957955,-10.143 h 1.68 v 1.575 q 0.609,-0.882 1.533,-1.344 0.945,-0.483 2.1,-0.483 2.016,0 3.15,1.302 1.134,1.302 1.134,3.57 V 0 h -1.701 v -5.418 q 0,-1.596 -0.798,-2.52 -0.777,-0.924 -2.184,-0.924 -1.449,0 -2.331,0.987 -0.882,0.987 -0.882,2.562 V 0 h -1.701 z"
         id="path12955" />
      <path
         d="m 84.755939,-5.061 q 0,2.289 -1.533,3.843 -1.533,1.533 -3.78,1.533 -2.247,0 -3.759,-1.533 -1.491,-1.533 -1.491,-3.822 0,-2.289 1.533,-3.822 1.533,-1.554 3.78,-1.554 2.247,0 3.738,1.533 1.512,1.533 1.512,3.822 z m -8.82,0.021 q 0,1.638 1.008,2.751 1.029,1.113 2.541,1.113 1.491,0 2.499,-1.113 1.029,-1.113 1.029,-2.772 0,-1.617 -1.029,-2.73 -1.029,-1.134 -2.52,-1.134 -1.491,0 -2.52,1.113 -1.008,1.113 -1.008,2.772 z"
         id="path12957" />
      <path
         d="M 85.364952,2.709 V 1.176 h 10.668 v 1.533 z"
         id="path12959" />
      <path
         d="m 101.89194,0.315 q -2.330996,0 -3.800996,-1.47 -1.449,-1.491 -1.449,-3.885 0,-2.268 1.533,-3.822 1.533,-1.554 3.758996,-1.554 1.617,0 2.751,0.756 1.155,0.735 1.743,2.142 l -1.449,0.693 q -0.483,-1.05 -1.26,-1.575 -0.756,-0.525 -1.806,-0.525 -1.491,0 -2.519996,1.134 -1.008,1.113 -1.008,2.751 0,1.659 1.008,2.772 1.028996,1.092 2.561996,1.092 0.987,0 1.827,-0.525 0.861,-0.546 1.386,-1.512 l 1.323,0.714 q -0.609,1.302 -1.827,2.058 -1.218,0.756 -2.772,0.756 z"
         id="path12961" />
    </g>
    <path
       d="M490.5 305C490.5 278.214 553.18 256.5 630.5 256.5 707.82 256.5 770.5 278.214 770.5 305 770.5 331.786 707.82 353.5 630.5 353.5 553.18 353.5 490.5 331.786 490.5 305Z"
       stroke="#C98F00"
       stroke-width="1.33333"
       stroke-miterlimit="8"
       fill="#EDB200"
       fill-rule="evenodd"
       id="path12882" />
    <g
       aria-label="Frontend plugins"
       transform="translate(551.554 313)"
       id="text12884"
       style="font-size:21px;font-family:'IntelOne Display Regular', 'IntelOne Display Regular_MSFontService', sans-serif;fill:#ffffff">
      <path
         d="m 1.365,0 v -14.7 h 10.542 v 1.596 H 3.171 v 4.998 h 8.148 V -6.51 H 3.171 V 0 Z"
         id="path12964" />
      <path
         d="m 13.608026,-10.143 h 1.68 v 1.281 q 0.462,-0.672 1.197,-1.008 0.735,-0.336 1.743,-0.336 h 0.924 v 1.617 h -0.945 q -1.449,0 -2.184,0.756 -0.714,0.756 -0.714,2.289 V 0 h -1.701 z"
         id="path12966" />
      <path
         d="m 30.366014,-5.061 q 0,2.289 -1.533,3.843 -1.533,1.533 -3.78,1.533 -2.247,0 -3.759,-1.533 -1.491,-1.533 -1.491,-3.822 0,-2.289 1.533,-3.822 1.533,-1.554 3.78,-1.554 2.247,0 3.738,1.533 1.512,1.533 1.512,3.822 z m -8.82,0.021 q 0,1.638 1.008,2.751 1.029,1.113 2.541,1.113 1.491,0 2.499,-1.113 1.029,-1.113 1.029,-2.772 0,-1.617 -1.029,-2.73 -1.029,-1.134 -2.52,-1.134 -1.491,0 -2.52,1.113 -1.008,1.113 -1.008,2.772 z"
         id="path12968" />
      <path
         d="m 32.130025,-10.143 h 1.68 v 1.575 q 0.609,-0.882 1.533,-1.344 0.945,-0.483 2.1,-0.483 2.016,0 3.15,1.302 1.134,1.302 1.134,3.57 V 0 h -1.701 v -5.418 q 0,-1.596 -0.798,-2.52 -0.777,-0.924 -2.184,-0.924 -1.449,0 -2.331,0.987 -0.882,0.987 -0.882,2.562 V 0 h -1.701 z"
         id="path12970" />
      <path
         d="m 44.394008,-2.709 v -5.922 h -1.386 v -1.512 h 1.386 v -3.108 h 1.701 v 3.108 h 2.352 v 1.512 h -2.352 v 5.775 q 0,0.672 0.294,1.008 0.315,0.315 0.945,0.315 h 1.113 V 0 h -1.365 q -1.407,0 -2.058,-0.651 -0.63,-0.651 -0.63,-2.058 z"
         id="path12972" />
      <path
         d="m 54.894023,-1.134 q 1.008,0 1.848,-0.42 0.861,-0.441 1.575,-1.323 l 1.029,0.945 q -0.861,1.134 -2.016,1.701 -1.155,0.546 -2.583,0.546 -2.289,0 -3.759,-1.491 -1.449,-1.512 -1.449,-3.864 0,-2.289 1.491,-3.822 1.491,-1.533 3.675,-1.533 2.226,0 3.612,1.449 1.386,1.449 1.386,3.78 0,0.168 -0.021,0.399 -0.021,0.21 -0.042,0.315 h -8.337 q 0.168,1.491 1.155,2.415 1.008,0.903 2.436,0.903 z m -0.168,-7.812 q -1.323,0 -2.268,0.861 -0.945,0.861 -1.155,2.31 h 6.678 q -0.189,-1.47 -1.071,-2.31 -0.882,-0.861 -2.184,-0.861 z"
         id="path12974" />
      <path
         d="m 61.425035,-10.143 h 1.68 v 1.575 q 0.609,-0.882 1.533,-1.344 0.945,-0.483 2.1,-0.483 2.016,0 3.15,1.302 1.134,1.302 1.134,3.57 V 0 h -1.701 v -5.418 q 0,-1.596 -0.798,-2.52 -0.777,-0.924 -2.184,-0.924 -1.449,0 -2.331,0.987 -0.882,0.987 -0.882,2.562 V 0 h -1.701 z"
         id="path12976" />
      <path
         d="m 81.396018,-14.7 h 1.722 V 0 h -1.701 v -1.638 q -0.693,0.882 -1.68,1.365 -0.966,0.483 -2.079,0.483 -2.121,0 -3.57,-1.47 -1.428,-1.491 -1.428,-3.78 0,-2.31 1.47,-3.822 1.491,-1.533 3.654,-1.533 1.05,0 1.974,0.441 0.945,0.42 1.638,1.218 z m -3.549,13.419 q 1.533,0 2.562,-1.092 1.05,-1.113 1.05,-2.73 0,-1.638 -1.008,-2.709 -1.008,-1.071 -2.52,-1.071 -1.554,0 -2.541,1.05 -0.987,1.05 -0.987,2.751 0,1.701 0.966,2.751 0.966,1.05 2.478,1.05 z"
         id="path12978" />
      <path
         d="m 90.908994,3.78 h -1.701 v -13.923 h 1.68 v 1.638 q 0.672,-0.882 1.659,-1.365 0.987,-0.504 2.1,-0.504 2.142,0 3.57,1.491 1.428,1.47 1.428,3.78 0,2.331 -1.491,3.843 -1.47,1.491 -3.633,1.491 -1.029,0 -1.995,-0.42 -0.945,-0.441 -1.617,-1.239 z m 3.549,-12.642 q -1.533,0 -2.583,1.113 -1.029,1.092 -1.029,2.73 0,1.617 1.008,2.688 1.029,1.071 2.541,1.071 1.554,0 2.52,-1.029 0.987,-1.05 0.987,-2.772 0,-1.701 -0.966,-2.751 -0.945,-1.05 -2.478,-1.05 z"
         id="path12980" />
      <path
         d="m 101.59798,-14.7 h 1.722 V 0 h -1.722 z"
         id="path12982" />
      <path
         d="m 115.22696,0 h -1.701 v -1.554 q -0.609,0.882 -1.533,1.344 -0.924,0.441 -2.1,0.441 -1.995,0 -3.15,-1.302 -1.134,-1.302 -1.134,-3.549 v -5.523 h 1.722 v 5.418 q 0,1.596 0.777,2.52 0.798,0.924 2.205,0.924 1.428,0 2.31,-0.987 0.882,-0.987 0.882,-2.562 v -5.313 h 1.722 z"
         id="path12984" />
      <path
         d="m 125.72695,-1.197 v -0.714 q -0.693,0.84 -1.68,1.302 -0.966,0.462 -2.079,0.462 -2.142,0 -3.57,-1.428 -1.428,-1.428 -1.428,-3.675 0,-2.226 1.449,-3.675 1.47,-1.47 3.612,-1.47 1.092,0 2.058,0.462 0.966,0.462 1.659,1.302 v -1.512 h 1.701 v 8.883 q 0,2.52 -1.344,3.78 -1.344,1.26 -4.053,1.26 h -2.562 V 2.31 h 2.646 q 1.785,0 2.688,-0.882 0.903,-0.882 0.903,-2.625 z m -3.507,-0.462 q 1.512,0 2.541,-1.029 1.05,-1.05 1.05,-2.562 0,-1.554 -1.05,-2.583 -1.029,-1.05 -2.541,-1.05 -1.575,0 -2.541,0.987 -0.966,0.987 -0.966,2.625 0,1.617 0.966,2.625 0.987,0.987 2.541,0.987 z"
         id="path12986" />
      <path
         d="m 129.75897,-13.545 h 1.89 v 1.869 h -1.89 z M 129.84297,0 v -10.143 h 1.722 V 0 Z"
         id="path12988" />
      <path
         d="m 133.97996,-10.143 h 1.68 v 1.575 q 0.609,-0.882 1.533,-1.344 0.945,-0.483 2.1,-0.483 2.016,0 3.15,1.302 1.134,1.302 1.134,3.57 V 0 h -1.701 v -5.418 q 0,-1.596 -0.798,-2.52 -0.777,-0.924 -2.184,-0.924 -1.449,0 -2.331,0.987 -0.882,0.987 -0.882,2.562 V 0 h -1.701 z"
         id="path12990" />
      <path
         d="m 153.84593,-2.961 q 0,1.428 -1.218,2.331 -1.218,0.903 -3.171,0.903 -1.281,0 -2.415,-0.399 -1.113,-0.42 -2.016,-1.239 l 0.882,-1.302 q 0.966,0.798 1.806,1.155 0.84,0.357 1.785,0.357 1.218,0 1.953,-0.462 0.756,-0.483 0.756,-1.239 0,-0.777 -0.63,-1.113 -0.63,-0.357 -2.079,-0.378 -2.121,-0.084 -3.108,-0.777 -0.966,-0.693 -0.966,-2.163 0,-1.344 1.113,-2.226 1.134,-0.903 2.898,-0.903 1.197,0 2.247,0.378 1.05,0.378 1.911,1.113 l -0.819,1.281 q -0.861,-0.693 -1.659,-1.008 -0.798,-0.315 -1.701,-0.315 -1.029,0 -1.701,0.462 -0.651,0.462 -0.651,1.134 0,0.735 0.588,1.071 0.588,0.336 1.869,0.399 2.289,0.063 3.297,0.756 1.029,0.693 1.029,2.184 z"
         id="path12992" />
    </g>
    <path
       d="M1-1.10859e-06 1.0001 88.036-0.999902 88.036-1 1.10859e-06ZM4.0001 86.7027 0.000104987 94.7027-3.9999 86.7027Z"
       transform="matrix(1 0 0 -1 242 447.703)"
       id="path12886" />
    <path
       d="M1-1.10859e-06 1.00001 6-0.999993 6-1 1.10859e-06ZM1.00001 8 1.00002 14-0.999985 14-0.999991 8ZM1.00002 16 1.00002 22-0.999976 22-0.999982 16ZM1.00003 24 1.00003 30-0.999967 30-0.999973 24ZM1.00004 32 1.00004 38-0.999958 38-0.999964 32ZM1.00004 40 1.00005 46-0.999949 46-0.999956 40ZM1.00005 48 1.00006 54-0.99994 54-0.999947 48ZM1.00006 56 1.00007 62-0.999931 62-0.999938 56ZM1.00007 64 1.00008 70-0.999922 70-0.999929 64ZM1.00008 72 1.00009 78-0.999914 78-0.99992 72ZM1.00009 80 1.0001 86-0.999905 86-0.999911 80ZM1.0001 88 1.0001 88.036-0.999902 88.036-0.999902 88ZM4.0001 86.7027 0.000104987 94.7027-3.9999 86.7027Z"
       transform="matrix(1 0 0 -1 242 256.703)"
       id="path12888" />
    <path
       d="M382 304 388 304 388 306 382 306ZM390 304 396 304 396 306 390 306ZM398 304 404 304 404 306 398 306ZM406 304 412 304 412 306 406 306ZM414 304 420 304 420 306 414 306ZM422 304 428 304 428 306 422 306ZM430 304 436 304 436 306 430 306ZM438 304 444 304 444 306 438 306ZM446 304 452 304 452 306 446 306ZM454 304 460 304 460 306 454 306ZM462 304 468 304 468 306 462 306ZM470 304 476 304 476 306 470 306ZM478 304 483.009 304 483.009 306 478 306ZM481.676 301 489.676 305 481.676 309Z"
       id="path12890" />
  </g>
</svg>
