<svg width="742" height="463" viewBox="0 0 742 463" fill="none" xmlns="http://www.w3.org/2000/svg">
<rect x="20" y="177" width="164" height="80" fill="#00285A"/>
<path d="M58.644 211V201.442L55.89 202.828L54.864 200.83L58.95 198.814H61.218V211H58.644ZM65.2995 211V208.264H68.0715V211H65.2995ZM77.3981 211H74.7701V198.58H77.3981V211ZM80.092 201.91H81.55C82.162 201.91 82.468 202.174 82.468 202.702V203.368C82.708 202.852 83.086 202.444 83.602 202.144C84.118 201.832 84.736 201.676 85.456 201.676C86.428 201.676 87.178 201.958 87.706 202.522C88.246 203.086 88.516 203.932 88.516 205.06V211H85.96V205.24C85.96 204.184 85.492 203.656 84.556 203.656C83.968 203.656 83.5 203.866 83.152 204.286C82.816 204.706 82.648 205.288 82.648 206.032V211H80.092V201.91ZM93.564 211H91.008V201.91H93.564V211ZM90.99 198.184H93.582V200.506H90.99V198.184ZM101.002 209.038V210.946C100.81 210.994 100.6 211.03 100.372 211.054C100.144 211.078 99.8741 211.09 99.5621 211.09C98.4821 211.09 97.6901 210.844 97.1861 210.352C96.6821 209.848 96.4301 209.032 96.4301 207.904V203.854H95.0801V201.91H96.4301V199.732H98.9861V201.91H101.002V203.854H98.9861V207.67C98.9861 208.21 99.1061 208.576 99.3461 208.768C99.5861 208.948 100.018 209.038 100.642 209.038H101.002ZM105.218 211H102.662V201.91H105.218V211ZM102.644 198.184H105.236V200.506H102.644V198.184ZM107.058 208.444C107.058 207.496 107.4 206.776 108.084 206.284C108.768 205.78 109.71 205.528 110.91 205.528H112.386V205.168C112.386 204.64 112.242 204.256 111.954 204.016C111.678 203.764 111.234 203.638 110.622 203.638C110.166 203.638 109.728 203.704 109.308 203.836C108.888 203.968 108.504 204.154 108.156 204.394L107.274 202.9C107.778 202.516 108.348 202.216 108.984 202C109.62 201.784 110.304 201.676 111.036 201.676C112.284 201.676 113.22 201.976 113.844 202.576C114.48 203.176 114.798 204.04 114.798 205.168V208.66C114.798 208.936 114.846 209.122 114.942 209.218C115.038 209.302 115.212 209.344 115.464 209.344H115.662V210.91C115.53 210.958 115.374 211 115.194 211.036C115.014 211.072 114.798 211.09 114.546 211.09C114.018 211.09 113.622 210.982 113.358 210.766C113.094 210.55 112.938 210.232 112.89 209.812C112.674 210.244 112.314 210.586 111.81 210.838C111.306 211.09 110.73 211.216 110.082 211.216C109.17 211.216 108.438 210.97 107.886 210.478C107.334 209.986 107.058 209.308 107.058 208.444ZM110.73 209.38C111.246 209.38 111.648 209.212 111.936 208.876C112.236 208.54 112.386 208.066 112.386 207.454V206.986H111.144C110.616 206.986 110.208 207.094 109.92 207.31C109.644 207.514 109.506 207.826 109.506 208.246C109.506 208.63 109.614 208.918 109.83 209.11C110.058 209.29 110.358 209.38 110.73 209.38ZM119.843 198.094V207.904C119.843 208.384 119.915 208.702 120.059 208.858C120.215 209.002 120.521 209.074 120.977 209.074H121.139V211C120.875 211.06 120.491 211.09 119.987 211.09C119.015 211.09 118.319 210.85 117.899 210.37C117.491 209.89 117.287 209.17 117.287 208.21V198.094H119.843ZM125.574 211H123.018V201.91H125.574V211ZM123 198.184H125.592V200.506H123V198.184ZM130.33 209.056H135.37V211H127.342V209.272L132.292 203.854H127.504V201.91H135.316V203.656L130.33 209.056ZM139.113 207.004C139.209 207.796 139.473 208.372 139.905 208.732C140.349 209.08 140.961 209.254 141.741 209.254C142.161 209.254 142.563 209.2 142.947 209.092C143.331 208.984 143.673 208.828 143.973 208.624L144.837 210.136C143.985 210.868 142.863 211.234 141.471 211.234C140.643 211.234 139.923 211.114 139.311 210.874C138.711 210.622 138.207 210.28 137.799 209.848C137.403 209.416 137.109 208.906 136.917 208.318C136.725 207.73 136.629 207.1 136.629 206.428C136.629 205.648 136.749 204.964 136.989 204.376C137.229 203.776 137.553 203.278 137.961 202.882C138.381 202.486 138.867 202.186 139.419 201.982C139.983 201.778 140.577 201.676 141.201 201.676C141.837 201.676 142.401 201.778 142.893 201.982C143.385 202.174 143.793 202.45 144.117 202.81C144.453 203.17 144.705 203.602 144.873 204.106C145.053 204.598 145.143 205.15 145.143 205.762C145.143 205.966 145.131 206.182 145.107 206.41C145.095 206.626 145.065 206.824 145.017 207.004H139.113ZM141.201 203.548C140.625 203.548 140.157 203.722 139.797 204.07C139.437 204.418 139.227 204.898 139.167 205.51H142.839V205.276C142.839 204.724 142.689 204.298 142.389 203.998C142.101 203.698 141.705 203.548 141.201 203.548ZM93.7249 234.136C93.2569 234.484 92.6929 234.76 92.0329 234.964C91.3849 235.168 90.6469 235.27 89.8189 235.27C88.8229 235.27 87.9409 235.12 87.1729 234.82C86.4049 234.508 85.7569 234.076 85.2289 233.524C84.7009 232.96 84.2989 232.282 84.0229 231.49C83.7469 230.686 83.6089 229.792 83.6089 228.808C83.6089 227.776 83.7589 226.858 84.0589 226.054C84.3589 225.238 84.7849 224.554 85.3369 224.002C85.8889 223.45 86.5489 223.03 87.3169 222.742C88.0969 222.454 88.9669 222.31 89.9269 222.31C91.4389 222.31 92.6569 222.664 93.5809 223.372L92.6089 225.19C92.2369 224.938 91.8409 224.758 91.4209 224.65C91.0129 224.53 90.5809 224.47 90.1249 224.47C88.8889 224.47 87.9469 224.842 87.2989 225.586C86.6629 226.33 86.3449 227.404 86.3449 228.808C86.3449 230.2 86.6629 231.262 87.2989 231.994C87.9469 232.726 88.8889 233.092 90.1249 233.092C90.6649 233.092 91.1509 233.026 91.5829 232.894C92.0149 232.75 92.4049 232.558 92.7529 232.318L93.7249 234.136ZM103.828 230.446C103.828 231.202 103.714 231.88 103.486 232.48C103.27 233.068 102.958 233.566 102.55 233.974C102.142 234.382 101.65 234.694 101.074 234.91C100.498 235.126 99.8559 235.234 99.1479 235.234C98.4399 235.234 97.7979 235.126 97.2219 234.91C96.6459 234.694 96.1539 234.382 95.7459 233.974C95.3379 233.566 95.0199 233.068 94.7919 232.48C94.5759 231.88 94.4679 231.202 94.4679 230.446C94.4679 229.69 94.5759 229.018 94.7919 228.43C95.0199 227.842 95.3379 227.344 95.7459 226.936C96.1539 226.528 96.6459 226.216 97.2219 226C97.7979 225.784 98.4399 225.676 99.1479 225.676C99.8559 225.676 100.498 225.784 101.074 226C101.65 226.216 102.142 226.528 102.55 226.936C102.958 227.344 103.27 227.842 103.486 228.43C103.714 229.018 103.828 229.69 103.828 230.446ZM101.218 230.446C101.218 229.522 101.038 228.826 100.678 228.358C100.33 227.89 99.8199 227.656 99.1479 227.656C98.4759 227.656 97.9599 227.89 97.5999 228.358C97.2519 228.826 97.0779 229.522 97.0779 230.446C97.0779 231.382 97.2519 232.084 97.5999 232.552C97.9599 233.02 98.4759 233.254 99.1479 233.254C99.8199 233.254 100.33 233.02 100.678 232.552C101.038 232.084 101.218 231.382 101.218 230.446ZM105.835 225.91H107.293C107.905 225.91 108.211 226.174 108.211 226.702V227.818C108.403 227.206 108.721 226.72 109.165 226.36C109.621 225.988 110.185 225.802 110.857 225.802C111.133 225.802 111.373 225.832 111.577 225.892V227.98H111.055C110.143 227.98 109.471 228.214 109.039 228.682C108.607 229.15 108.391 229.93 108.391 231.022V235H105.835V225.91ZM114.583 231.004C114.679 231.796 114.943 232.372 115.375 232.732C115.819 233.08 116.431 233.254 117.211 233.254C117.631 233.254 118.033 233.2 118.417 233.092C118.801 232.984 119.143 232.828 119.443 232.624L120.307 234.136C119.455 234.868 118.333 235.234 116.941 235.234C116.113 235.234 115.393 235.114 114.781 234.874C114.181 234.622 113.677 234.28 113.269 233.848C112.873 233.416 112.579 232.906 112.387 232.318C112.195 231.73 112.099 231.1 112.099 230.428C112.099 229.648 112.219 228.964 112.459 228.376C112.699 227.776 113.023 227.278 113.431 226.882C113.851 226.486 114.337 226.186 114.889 225.982C115.453 225.778 116.047 225.676 116.671 225.676C117.307 225.676 117.871 225.778 118.363 225.982C118.855 226.174 119.263 226.45 119.587 226.81C119.923 227.17 120.175 227.602 120.343 228.106C120.523 228.598 120.613 229.15 120.613 229.762C120.613 229.966 120.601 230.182 120.577 230.41C120.565 230.626 120.535 230.824 120.487 231.004H114.583ZM116.671 227.548C116.095 227.548 115.627 227.722 115.267 228.07C114.907 228.418 114.697 228.898 114.637 229.51H118.309V229.276C118.309 228.724 118.159 228.298 117.859 227.998C117.571 227.698 117.175 227.548 116.671 227.548Z" fill="white"/>
<rect x="267" y="177" width="164" height="80" fill="#00285A"/>
<path d="M298.787 213.946C298.787 214.594 298.649 215.152 298.373 215.62C298.097 216.076 297.695 216.442 297.167 216.718C298.595 217.162 299.309 218.11 299.309 219.562C299.309 220.126 299.201 220.636 298.985 221.092C298.769 221.548 298.457 221.938 298.049 222.262C297.641 222.574 297.149 222.814 296.573 222.982C295.997 223.15 295.349 223.234 294.629 223.234C293.765 223.234 292.979 223.108 292.271 222.856C291.575 222.604 290.975 222.256 290.471 221.812L291.569 220.174C292.025 220.498 292.487 220.744 292.955 220.912C293.423 221.068 293.927 221.146 294.467 221.146C295.187 221.146 295.733 220.996 296.105 220.696C296.489 220.384 296.681 219.94 296.681 219.364C296.681 218.356 295.985 217.852 294.593 217.852H292.775V215.872H294.431C295.031 215.872 295.469 215.716 295.745 215.404C296.021 215.092 296.159 214.708 296.159 214.252C296.159 213.748 296.009 213.358 295.709 213.082C295.409 212.806 294.947 212.668 294.323 212.668C293.903 212.668 293.477 212.74 293.045 212.884C292.613 213.028 292.205 213.238 291.821 213.514L290.741 211.912C291.293 211.48 291.899 211.15 292.559 210.922C293.219 210.694 293.921 210.58 294.665 210.58C295.277 210.58 295.835 210.658 296.339 210.814C296.855 210.958 297.293 211.174 297.653 211.462C298.013 211.738 298.289 212.086 298.481 212.506C298.685 212.926 298.787 213.406 298.787 213.946ZM301.392 223V220.264H304.164V223H301.392ZM313.491 220.948H319.071V223H310.863V210.58H313.491V220.948ZM329.224 218.446C329.224 219.202 329.11 219.88 328.882 220.48C328.666 221.068 328.354 221.566 327.946 221.974C327.538 222.382 327.046 222.694 326.47 222.91C325.894 223.126 325.252 223.234 324.544 223.234C323.836 223.234 323.194 223.126 322.618 222.91C322.042 222.694 321.55 222.382 321.142 221.974C320.734 221.566 320.416 221.068 320.188 220.48C319.972 219.88 319.864 219.202 319.864 218.446C319.864 217.69 319.972 217.018 320.188 216.43C320.416 215.842 320.734 215.344 321.142 214.936C321.55 214.528 322.042 214.216 322.618 214C323.194 213.784 323.836 213.676 324.544 213.676C325.252 213.676 325.894 213.784 326.47 214C327.046 214.216 327.538 214.528 327.946 214.936C328.354 215.344 328.666 215.842 328.882 216.43C329.11 217.018 329.224 217.69 329.224 218.446ZM326.614 218.446C326.614 217.522 326.434 216.826 326.074 216.358C325.726 215.89 325.216 215.656 324.544 215.656C323.872 215.656 323.356 215.89 322.996 216.358C322.648 216.826 322.474 217.522 322.474 218.446C322.474 219.382 322.648 220.084 322.996 220.552C323.356 221.02 323.872 221.254 324.544 221.254C325.216 221.254 325.726 221.02 326.074 220.552C326.434 220.084 326.614 219.382 326.614 218.446ZM330.548 220.444C330.548 219.496 330.89 218.776 331.574 218.284C332.258 217.78 333.2 217.528 334.4 217.528H335.876V217.168C335.876 216.64 335.732 216.256 335.444 216.016C335.168 215.764 334.724 215.638 334.112 215.638C333.656 215.638 333.218 215.704 332.798 215.836C332.378 215.968 331.994 216.154 331.646 216.394L330.764 214.9C331.268 214.516 331.838 214.216 332.474 214C333.11 213.784 333.794 213.676 334.526 213.676C335.774 213.676 336.71 213.976 337.334 214.576C337.97 215.176 338.288 216.04 338.288 217.168V220.66C338.288 220.936 338.336 221.122 338.432 221.218C338.528 221.302 338.702 221.344 338.954 221.344H339.152V222.91C339.02 222.958 338.864 223 338.684 223.036C338.504 223.072 338.288 223.09 338.036 223.09C337.508 223.09 337.112 222.982 336.848 222.766C336.584 222.55 336.428 222.232 336.38 221.812C336.164 222.244 335.804 222.586 335.3 222.838C334.796 223.09 334.22 223.216 333.572 223.216C332.66 223.216 331.928 222.97 331.376 222.478C330.824 221.986 330.548 221.308 330.548 220.444ZM334.22 221.38C334.736 221.38 335.138 221.212 335.426 220.876C335.726 220.54 335.876 220.066 335.876 219.454V218.986H334.634C334.106 218.986 333.698 219.094 333.41 219.31C333.134 219.514 332.996 219.826 332.996 220.246C332.996 220.63 333.104 220.918 333.32 221.11C333.548 221.29 333.848 221.38 334.22 221.38ZM349.47 223H347.994C347.382 223 347.076 222.73 347.076 222.19V221.596C346.836 222.1 346.464 222.502 345.96 222.802C345.468 223.09 344.874 223.234 344.178 223.234C343.578 223.234 343.038 223.12 342.558 222.892C342.078 222.664 341.67 222.346 341.334 221.938C341.01 221.518 340.758 221.014 340.578 220.426C340.398 219.838 340.308 219.178 340.308 218.446C340.308 217.69 340.404 217.018 340.596 216.43C340.788 215.83 341.058 215.332 341.406 214.936C341.754 214.528 342.168 214.216 342.648 214C343.14 213.784 343.686 213.676 344.286 213.676C344.862 213.676 345.378 213.79 345.834 214.018C346.29 214.246 346.65 214.57 346.914 214.99V210.094H349.47V223ZM346.986 218.464C346.986 217.588 346.812 216.904 346.464 216.412C346.128 215.908 345.63 215.656 344.97 215.656C344.322 215.656 343.818 215.902 343.458 216.394C343.098 216.886 342.918 217.576 342.918 218.464C342.918 219.364 343.086 220.054 343.422 220.534C343.758 221.014 344.256 221.254 344.916 221.254C345.564 221.254 346.068 221.008 346.428 220.516C346.8 220.012 346.986 219.328 346.986 218.464ZM359.05 214.504V223H356.566V210.58H359.464L362.83 217.348L366.214 210.58H369.004V223H366.52V214.486L363.82 219.868H361.75L359.05 214.504ZM380.553 218.446C380.553 219.202 380.439 219.88 380.211 220.48C379.995 221.068 379.683 221.566 379.275 221.974C378.867 222.382 378.375 222.694 377.799 222.91C377.223 223.126 376.581 223.234 375.873 223.234C375.165 223.234 374.523 223.126 373.947 222.91C373.371 222.694 372.879 222.382 372.471 221.974C372.063 221.566 371.745 221.068 371.517 220.48C371.301 219.88 371.193 219.202 371.193 218.446C371.193 217.69 371.301 217.018 371.517 216.43C371.745 215.842 372.063 215.344 372.471 214.936C372.879 214.528 373.371 214.216 373.947 214C374.523 213.784 375.165 213.676 375.873 213.676C376.581 213.676 377.223 213.784 377.799 214C378.375 214.216 378.867 214.528 379.275 214.936C379.683 215.344 379.995 215.842 380.211 216.43C380.439 217.018 380.553 217.69 380.553 218.446ZM377.943 218.446C377.943 217.522 377.763 216.826 377.403 216.358C377.055 215.89 376.545 215.656 375.873 215.656C375.201 215.656 374.685 215.89 374.325 216.358C373.977 216.826 373.803 217.522 373.803 218.446C373.803 219.382 373.977 220.084 374.325 220.552C374.685 221.02 375.201 221.254 375.873 221.254C376.545 221.254 377.055 221.02 377.403 220.552C377.763 220.084 377.943 219.382 377.943 218.446ZM391.218 223H389.742C389.13 223 388.824 222.73 388.824 222.19V221.596C388.584 222.1 388.212 222.502 387.708 222.802C387.216 223.09 386.622 223.234 385.926 223.234C385.326 223.234 384.786 223.12 384.306 222.892C383.826 222.664 383.418 222.346 383.082 221.938C382.758 221.518 382.506 221.014 382.326 220.426C382.146 219.838 382.056 219.178 382.056 218.446C382.056 217.69 382.152 217.018 382.344 216.43C382.536 215.83 382.806 215.332 383.154 214.936C383.502 214.528 383.916 214.216 384.396 214C384.888 213.784 385.434 213.676 386.034 213.676C386.61 213.676 387.126 213.79 387.582 214.018C388.038 214.246 388.398 214.57 388.662 214.99V210.094H391.218V223ZM388.734 218.464C388.734 217.588 388.56 216.904 388.212 216.412C387.876 215.908 387.378 215.656 386.718 215.656C386.07 215.656 385.566 215.902 385.206 216.394C384.846 216.886 384.666 217.576 384.666 218.464C384.666 219.364 384.834 220.054 385.17 220.534C385.506 221.014 386.004 221.254 386.664 221.254C387.312 221.254 387.816 221.008 388.176 220.516C388.548 220.012 388.734 219.328 388.734 218.464ZM395.719 219.004C395.815 219.796 396.079 220.372 396.511 220.732C396.955 221.08 397.567 221.254 398.347 221.254C398.767 221.254 399.169 221.2 399.553 221.092C399.937 220.984 400.279 220.828 400.579 220.624L401.443 222.136C400.591 222.868 399.469 223.234 398.077 223.234C397.249 223.234 396.529 223.114 395.917 222.874C395.317 222.622 394.813 222.28 394.405 221.848C394.009 221.416 393.715 220.906 393.523 220.318C393.331 219.73 393.235 219.1 393.235 218.428C393.235 217.648 393.355 216.964 393.595 216.376C393.835 215.776 394.159 215.278 394.567 214.882C394.987 214.486 395.473 214.186 396.025 213.982C396.589 213.778 397.183 213.676 397.807 213.676C398.443 213.676 399.007 213.778 399.499 213.982C399.991 214.174 400.399 214.45 400.723 214.81C401.059 215.17 401.311 215.602 401.479 216.106C401.659 216.598 401.749 217.15 401.749 217.762C401.749 217.966 401.737 218.182 401.713 218.41C401.701 218.626 401.671 218.824 401.623 219.004H395.719ZM397.807 215.548C397.231 215.548 396.763 215.722 396.403 216.07C396.043 216.418 395.833 216.898 395.773 217.51H399.445V217.276C399.445 216.724 399.295 216.298 398.995 215.998C398.707 215.698 398.311 215.548 397.807 215.548ZM406.244 210.094V219.904C406.244 220.384 406.316 220.702 406.46 220.858C406.616 221.002 406.922 221.074 407.378 221.074H407.54V223C407.276 223.06 406.892 223.09 406.388 223.09C405.416 223.09 404.72 222.85 404.3 222.37C403.892 221.89 403.688 221.17 403.688 220.21V210.094H406.244Z" fill="white"/>
<rect x="267" y="310" width="164" height="80" fill="#00285A"/>
<path d="M316.018 334.298C315.418 333.878 314.68 333.668 313.804 333.668C312.784 333.668 311.992 333.992 311.428 334.64C310.876 335.276 310.564 336.248 310.492 337.556C310.648 337.28 310.846 337.046 311.086 336.854C311.326 336.65 311.584 336.488 311.86 336.368C312.148 336.236 312.442 336.146 312.742 336.098C313.054 336.038 313.354 336.008 313.642 336.008C314.194 336.008 314.692 336.098 315.136 336.278C315.592 336.446 315.982 336.692 316.306 337.016C316.63 337.328 316.876 337.718 317.044 338.186C317.224 338.642 317.314 339.158 317.314 339.734C317.314 340.418 317.212 341.042 317.008 341.606C316.804 342.158 316.51 342.632 316.126 343.028C315.754 343.412 315.292 343.712 314.74 343.928C314.2 344.132 313.594 344.234 312.922 344.234C312.178 344.234 311.506 344.102 310.906 343.838C310.306 343.574 309.79 343.19 309.358 342.686C308.938 342.17 308.614 341.54 308.386 340.796C308.158 340.04 308.044 339.17 308.044 338.186C308.044 337.13 308.176 336.194 308.44 335.378C308.704 334.562 309.076 333.872 309.556 333.308C310.048 332.744 310.636 332.318 311.32 332.03C312.004 331.73 312.772 331.58 313.624 331.58C314.26 331.58 314.86 331.658 315.424 331.814C316 331.97 316.498 332.204 316.918 332.516L316.018 334.298ZM314.794 340.04C314.794 339.344 314.632 338.828 314.308 338.492C313.984 338.156 313.516 337.988 312.904 337.988C312.256 337.988 311.752 338.168 311.392 338.528C311.044 338.876 310.87 339.392 310.87 340.076C310.87 340.796 311.044 341.342 311.392 341.714C311.752 342.074 312.238 342.254 312.85 342.254C313.474 342.254 313.954 342.062 314.29 341.678C314.626 341.282 314.794 340.736 314.794 340.04ZM318.75 344V341.264H321.522V344H318.75ZM330.794 339.734V344H328.22V331.58H332.864C334.292 331.58 335.396 331.934 336.176 332.642C336.956 333.338 337.346 334.346 337.346 335.666C337.346 336.938 336.956 337.934 336.176 338.654C335.408 339.374 334.298 339.734 332.846 339.734H330.794ZM330.794 333.506V337.808H332.432C333.2 337.808 333.776 337.64 334.16 337.304C334.544 336.968 334.736 336.422 334.736 335.666C334.736 334.91 334.544 334.364 334.16 334.028C333.788 333.68 333.218 333.506 332.45 333.506H330.794ZM339.361 334.91H340.819C341.431 334.91 341.737 335.174 341.737 335.702V336.818C341.929 336.206 342.247 335.72 342.691 335.36C343.147 334.988 343.711 334.802 344.383 334.802C344.659 334.802 344.899 334.832 345.103 334.892V336.98H344.581C343.669 336.98 342.997 337.214 342.565 337.682C342.133 338.15 341.917 338.93 341.917 340.022V344H339.361V334.91ZM354.984 339.446C354.984 340.202 354.87 340.88 354.642 341.48C354.426 342.068 354.114 342.566 353.706 342.974C353.298 343.382 352.806 343.694 352.23 343.91C351.654 344.126 351.012 344.234 350.304 344.234C349.596 344.234 348.954 344.126 348.378 343.91C347.802 343.694 347.31 343.382 346.902 342.974C346.494 342.566 346.176 342.068 345.948 341.48C345.732 340.88 345.624 340.202 345.624 339.446C345.624 338.69 345.732 338.018 345.948 337.43C346.176 336.842 346.494 336.344 346.902 335.936C347.31 335.528 347.802 335.216 348.378 335C348.954 334.784 349.596 334.676 350.304 334.676C351.012 334.676 351.654 334.784 352.23 335C352.806 335.216 353.298 335.528 353.706 335.936C354.114 336.344 354.426 336.842 354.642 337.43C354.87 338.018 354.984 338.69 354.984 339.446ZM352.374 339.446C352.374 338.522 352.194 337.826 351.834 337.358C351.486 336.89 350.976 336.656 350.304 336.656C349.632 336.656 349.116 336.89 348.756 337.358C348.408 337.826 348.234 338.522 348.234 339.446C348.234 340.382 348.408 341.084 348.756 341.552C349.116 342.02 349.632 342.254 350.304 342.254C350.976 342.254 351.486 342.02 351.834 341.552C352.194 341.084 352.374 340.382 352.374 339.446ZM359.097 339.446C359.097 340.334 359.301 341.012 359.709 341.48C360.129 341.936 360.759 342.164 361.599 342.164C361.947 342.164 362.283 342.122 362.607 342.038C362.943 341.942 363.231 341.81 363.471 341.642L364.227 343.388C363.879 343.64 363.459 343.844 362.967 344C362.475 344.156 361.905 344.234 361.257 344.234C360.513 344.234 359.847 344.126 359.259 343.91C358.671 343.682 358.173 343.364 357.765 342.956C357.357 342.548 357.039 342.05 356.811 341.462C356.595 340.874 356.487 340.208 356.487 339.464C356.487 338.72 356.601 338.054 356.829 337.466C357.057 336.878 357.375 336.38 357.783 335.972C358.203 335.552 358.707 335.234 359.295 335.018C359.895 334.79 360.567 334.676 361.311 334.676C361.911 334.676 362.445 334.748 362.913 334.892C363.381 335.036 363.789 335.228 364.137 335.468L363.363 337.214C363.135 337.058 362.871 336.944 362.571 336.872C362.271 336.788 361.953 336.746 361.617 336.746C360.849 336.746 360.237 336.968 359.781 337.412C359.325 337.844 359.097 338.522 359.097 339.446ZM367.655 340.004C367.751 340.796 368.015 341.372 368.447 341.732C368.891 342.08 369.503 342.254 370.283 342.254C370.703 342.254 371.105 342.2 371.489 342.092C371.873 341.984 372.215 341.828 372.515 341.624L373.379 343.136C372.527 343.868 371.405 344.234 370.013 344.234C369.185 344.234 368.465 344.114 367.853 343.874C367.253 343.622 366.749 343.28 366.341 342.848C365.945 342.416 365.651 341.906 365.459 341.318C365.267 340.73 365.171 340.1 365.171 339.428C365.171 338.648 365.291 337.964 365.531 337.376C365.771 336.776 366.095 336.278 366.503 335.882C366.923 335.486 367.409 335.186 367.961 334.982C368.525 334.778 369.119 334.676 369.743 334.676C370.379 334.676 370.943 334.778 371.435 334.982C371.927 335.174 372.335 335.45 372.659 335.81C372.995 336.17 373.247 336.602 373.415 337.106C373.595 337.598 373.685 338.15 373.685 338.762C373.685 338.966 373.673 339.182 373.649 339.41C373.637 339.626 373.607 339.824 373.559 340.004H367.655ZM369.743 336.548C369.167 336.548 368.699 336.722 368.339 337.07C367.979 337.418 367.769 337.898 367.709 338.51H371.381V338.276C371.381 337.724 371.231 337.298 370.931 336.998C370.643 336.698 370.247 336.548 369.743 336.548ZM379.133 336.62C378.713 336.62 378.383 336.692 378.143 336.836C377.903 336.968 377.783 337.172 377.783 337.448C377.783 337.676 377.855 337.856 377.999 337.988C378.143 338.108 378.335 338.204 378.575 338.276L379.943 338.69C380.783 338.942 381.401 339.272 381.797 339.68C382.205 340.076 382.409 340.616 382.409 341.3C382.409 342.212 382.067 342.932 381.383 343.46C380.711 343.976 379.787 344.234 378.611 344.234C377.867 344.234 377.183 344.132 376.559 343.928C375.935 343.712 375.383 343.412 374.903 343.028L375.857 341.408C376.253 341.684 376.679 341.9 377.135 342.056C377.603 342.212 378.059 342.29 378.503 342.29C378.923 342.29 379.253 342.212 379.493 342.056C379.733 341.9 379.853 341.66 379.853 341.336C379.853 341.12 379.787 340.946 379.655 340.814C379.535 340.67 379.319 340.55 379.007 340.454L377.513 340.022C376.769 339.806 376.199 339.494 375.803 339.086C375.419 338.666 375.227 338.12 375.227 337.448C375.227 336.992 375.317 336.596 375.497 336.26C375.677 335.912 375.923 335.624 376.235 335.396C376.559 335.156 376.943 334.976 377.387 334.856C377.831 334.736 378.317 334.676 378.845 334.676C379.493 334.676 380.123 334.766 380.735 334.946C381.347 335.114 381.863 335.354 382.283 335.666L381.473 337.286C380.729 336.842 379.949 336.62 379.133 336.62ZM387.835 336.62C387.415 336.62 387.085 336.692 386.845 336.836C386.605 336.968 386.485 337.172 386.485 337.448C386.485 337.676 386.557 337.856 386.701 337.988C386.845 338.108 387.037 338.204 387.277 338.276L388.645 338.69C389.485 338.942 390.103 339.272 390.499 339.68C390.907 340.076 391.111 340.616 391.111 341.3C391.111 342.212 390.769 342.932 390.085 343.46C389.413 343.976 388.489 344.234 387.313 344.234C386.569 344.234 385.885 344.132 385.261 343.928C384.637 343.712 384.085 343.412 383.605 343.028L384.559 341.408C384.955 341.684 385.381 341.9 385.837 342.056C386.305 342.212 386.761 342.29 387.205 342.29C387.625 342.29 387.955 342.212 388.195 342.056C388.435 341.9 388.555 341.66 388.555 341.336C388.555 341.12 388.489 340.946 388.357 340.814C388.237 340.67 388.021 340.55 387.709 340.454L386.215 340.022C385.471 339.806 384.901 339.494 384.505 339.086C384.121 338.666 383.929 338.12 383.929 337.448C383.929 336.992 384.019 336.596 384.199 336.26C384.379 335.912 384.625 335.624 384.937 335.396C385.261 335.156 385.645 334.976 386.089 334.856C386.533 334.736 387.019 334.676 387.547 334.676C388.195 334.676 388.825 334.766 389.437 334.946C390.049 335.114 390.565 335.354 390.985 335.666L390.175 337.286C389.431 336.842 388.651 336.62 387.835 336.62ZM333.53 363.446C333.53 364.202 333.416 364.88 333.188 365.48C332.972 366.068 332.66 366.566 332.252 366.974C331.844 367.382 331.352 367.694 330.776 367.91C330.2 368.126 329.558 368.234 328.85 368.234C328.142 368.234 327.5 368.126 326.924 367.91C326.348 367.694 325.856 367.382 325.448 366.974C325.04 366.566 324.722 366.068 324.494 365.48C324.278 364.88 324.17 364.202 324.17 363.446C324.17 362.69 324.278 362.018 324.494 361.43C324.722 360.842 325.04 360.344 325.448 359.936C325.856 359.528 326.348 359.216 326.924 359C327.5 358.784 328.142 358.676 328.85 358.676C329.558 358.676 330.2 358.784 330.776 359C331.352 359.216 331.844 359.528 332.252 359.936C332.66 360.344 332.972 360.842 333.188 361.43C333.416 362.018 333.53 362.69 333.53 363.446ZM330.92 363.446C330.92 362.522 330.74 361.826 330.38 361.358C330.032 360.89 329.522 360.656 328.85 360.656C328.178 360.656 327.662 360.89 327.302 361.358C326.954 361.826 326.78 362.522 326.78 363.446C326.78 364.382 326.954 365.084 327.302 365.552C327.662 366.02 328.178 366.254 328.85 366.254C329.522 366.254 330.032 366.02 330.38 365.552C330.74 365.084 330.92 364.382 330.92 363.446ZM343.709 368H342.251C341.915 368 341.675 367.928 341.531 367.784C341.387 367.64 341.315 367.418 341.315 367.118V366.614C341.075 367.154 340.703 367.562 340.199 367.838C339.707 368.102 339.137 368.234 338.489 368.234C337.493 368.234 336.737 367.94 336.221 367.352C335.717 366.764 335.465 365.906 335.465 364.778V358.91H338.021V364.616C338.021 365.204 338.135 365.624 338.363 365.876C338.591 366.128 338.927 366.254 339.371 366.254C339.959 366.254 340.403 366.044 340.703 365.624C341.003 365.204 341.153 364.634 341.153 363.914V358.91H343.709V368ZM351.139 366.038V367.946C350.947 367.994 350.737 368.03 350.509 368.054C350.281 368.078 350.011 368.09 349.699 368.09C348.619 368.09 347.827 367.844 347.323 367.352C346.819 366.848 346.567 366.032 346.567 364.904V360.854H345.217V358.91H346.567V356.732H349.123V358.91H351.139V360.854H349.123V364.67C349.123 365.21 349.243 365.576 349.483 365.768C349.723 365.948 350.155 366.038 350.779 366.038H351.139ZM355.193 360.458C355.469 359.846 355.895 359.396 356.471 359.108C357.047 358.82 357.659 358.676 358.307 358.676C359.399 358.676 360.281 359.066 360.953 359.846C361.625 360.614 361.961 361.748 361.961 363.248C361.961 363.98 361.871 364.652 361.691 365.264C361.523 365.876 361.271 366.404 360.935 366.848C360.611 367.28 360.209 367.622 359.729 367.874C359.249 368.114 358.709 368.234 358.109 368.234C357.605 368.234 357.095 368.138 356.579 367.946C356.075 367.742 355.667 367.394 355.355 366.902V371.78H352.799V358.91H354.275C354.887 358.91 355.193 359.18 355.193 359.72V360.458ZM355.283 363.572C355.283 364.412 355.451 365.072 355.787 365.552C356.135 366.02 356.645 366.254 357.317 366.254C357.677 366.254 357.983 366.182 358.235 366.038C358.499 365.894 358.709 365.696 358.865 365.444C359.033 365.18 359.153 364.874 359.225 364.526C359.309 364.178 359.351 363.806 359.351 363.41C359.351 362.522 359.189 361.844 358.865 361.376C358.541 360.896 358.055 360.656 357.407 360.656C356.723 360.656 356.195 360.92 355.823 361.448C355.463 361.964 355.283 362.672 355.283 363.572ZM372.151 368H370.693C370.357 368 370.117 367.928 369.973 367.784C369.829 367.64 369.757 367.418 369.757 367.118V366.614C369.517 367.154 369.145 367.562 368.641 367.838C368.149 368.102 367.579 368.234 366.931 368.234C365.935 368.234 365.179 367.94 364.663 367.352C364.159 366.764 363.907 365.906 363.907 364.778V358.91H366.463V364.616C366.463 365.204 366.577 365.624 366.805 365.876C367.033 366.128 367.369 366.254 367.813 366.254C368.401 366.254 368.845 366.044 369.145 365.624C369.445 365.204 369.595 364.634 369.595 363.914V358.91H372.151V368ZM379.58 366.038V367.946C379.388 367.994 379.178 368.03 378.95 368.054C378.722 368.078 378.452 368.09 378.14 368.09C377.06 368.09 376.268 367.844 375.764 367.352C375.26 366.848 375.008 366.032 375.008 364.904V360.854H373.658V358.91H375.008V356.732H377.564V358.91H379.58V360.854H377.564V364.67C377.564 365.21 377.684 365.576 377.924 365.768C378.164 365.948 378.596 366.038 379.22 366.038H379.58Z" fill="white"/>
<path d="M477.533 428H474.905V415.58H477.533V428ZM480.227 418.91H481.685C482.297 418.91 482.603 419.174 482.603 419.702V420.368C482.843 419.852 483.221 419.444 483.737 419.144C484.253 418.832 484.871 418.676 485.591 418.676C486.563 418.676 487.313 418.958 487.841 419.522C488.381 420.086 488.651 420.932 488.651 422.06V428H486.095V422.24C486.095 421.184 485.627 420.656 484.691 420.656C484.103 420.656 483.635 420.866 483.287 421.286C482.951 421.706 482.783 422.288 482.783 423.032V428H480.227V418.91ZM496.309 417.092H495.895C495.223 417.092 494.737 417.194 494.437 417.398C494.149 417.59 494.005 417.992 494.005 418.604V418.91H496.219V420.854H494.005V428H491.449V420.854H490.099V418.91H491.449V418.244C491.449 417.188 491.755 416.39 492.367 415.85C492.979 415.31 493.867 415.04 495.031 415.04C495.235 415.04 495.457 415.052 495.697 415.076C495.937 415.088 496.141 415.118 496.309 415.166V417.092ZM499.469 424.004C499.565 424.796 499.829 425.372 500.261 425.732C500.705 426.08 501.317 426.254 502.097 426.254C502.517 426.254 502.919 426.2 503.303 426.092C503.687 425.984 504.029 425.828 504.329 425.624L505.193 427.136C504.341 427.868 503.219 428.234 501.827 428.234C500.999 428.234 500.279 428.114 499.667 427.874C499.067 427.622 498.563 427.28 498.155 426.848C497.759 426.416 497.465 425.906 497.273 425.318C497.081 424.73 496.985 424.1 496.985 423.428C496.985 422.648 497.105 421.964 497.345 421.376C497.585 420.776 497.909 420.278 498.317 419.882C498.737 419.486 499.223 419.186 499.775 418.982C500.339 418.778 500.933 418.676 501.557 418.676C502.193 418.676 502.757 418.778 503.249 418.982C503.741 419.174 504.149 419.45 504.473 419.81C504.809 420.17 505.061 420.602 505.229 421.106C505.409 421.598 505.499 422.15 505.499 422.762C505.499 422.966 505.487 423.182 505.463 423.41C505.451 423.626 505.421 423.824 505.373 424.004H499.469ZM501.557 420.548C500.981 420.548 500.513 420.722 500.153 421.07C499.793 421.418 499.583 421.898 499.523 422.51H503.195V422.276C503.195 421.724 503.045 421.298 502.745 420.998C502.457 420.698 502.061 420.548 501.557 420.548ZM507.473 418.91H508.931C509.543 418.91 509.849 419.174 509.849 419.702V420.818C510.041 420.206 510.359 419.72 510.803 419.36C511.259 418.988 511.823 418.802 512.495 418.802C512.771 418.802 513.011 418.832 513.215 418.892V420.98H512.693C511.781 420.98 511.109 421.214 510.677 421.682C510.245 422.15 510.029 422.93 510.029 424.022V428H507.473V418.91ZM516.22 424.004C516.316 424.796 516.58 425.372 517.012 425.732C517.456 426.08 518.068 426.254 518.848 426.254C519.268 426.254 519.67 426.2 520.054 426.092C520.438 425.984 520.78 425.828 521.08 425.624L521.944 427.136C521.092 427.868 519.97 428.234 518.578 428.234C517.75 428.234 517.03 428.114 516.418 427.874C515.818 427.622 515.314 427.28 514.906 426.848C514.51 426.416 514.216 425.906 514.024 425.318C513.832 424.73 513.736 424.1 513.736 423.428C513.736 422.648 513.856 421.964 514.096 421.376C514.336 420.776 514.66 420.278 515.068 419.882C515.488 419.486 515.974 419.186 516.526 418.982C517.09 418.778 517.684 418.676 518.308 418.676C518.944 418.676 519.508 418.778 520 418.982C520.492 419.174 520.9 419.45 521.224 419.81C521.56 420.17 521.812 420.602 521.98 421.106C522.16 421.598 522.25 422.15 522.25 422.762C522.25 422.966 522.238 423.182 522.214 423.41C522.202 423.626 522.172 423.824 522.124 424.004H516.22ZM518.308 420.548C517.732 420.548 517.264 420.722 516.904 421.07C516.544 421.418 516.334 421.898 516.274 422.51H519.946V422.276C519.946 421.724 519.796 421.298 519.496 420.998C519.208 420.698 518.812 420.548 518.308 420.548ZM524.225 418.91H525.683C526.295 418.91 526.601 419.174 526.601 419.702V420.368C526.841 419.852 527.219 419.444 527.735 419.144C528.251 418.832 528.869 418.676 529.589 418.676C530.561 418.676 531.311 418.958 531.839 419.522C532.379 420.086 532.649 420.932 532.649 422.06V428H530.093V422.24C530.093 421.184 529.625 420.656 528.689 420.656C528.101 420.656 527.633 420.866 527.285 421.286C526.949 421.706 526.781 422.288 526.781 423.032V428H524.225V418.91ZM537.247 423.446C537.247 424.334 537.451 425.012 537.859 425.48C538.279 425.936 538.909 426.164 539.749 426.164C540.097 426.164 540.433 426.122 540.757 426.038C541.093 425.942 541.381 425.81 541.621 425.642L542.377 427.388C542.029 427.64 541.609 427.844 541.117 428C540.625 428.156 540.055 428.234 539.407 428.234C538.663 428.234 537.997 428.126 537.409 427.91C536.821 427.682 536.323 427.364 535.915 426.956C535.507 426.548 535.189 426.05 534.961 425.462C534.745 424.874 534.637 424.208 534.637 423.464C534.637 422.72 534.751 422.054 534.979 421.466C535.207 420.878 535.525 420.38 535.933 419.972C536.353 419.552 536.857 419.234 537.445 419.018C538.045 418.79 538.717 418.676 539.461 418.676C540.061 418.676 540.595 418.748 541.063 418.892C541.531 419.036 541.939 419.228 542.287 419.468L541.513 421.214C541.285 421.058 541.021 420.944 540.721 420.872C540.421 420.788 540.103 420.746 539.767 420.746C538.999 420.746 538.387 420.968 537.931 421.412C537.475 421.844 537.247 422.522 537.247 423.446ZM545.804 424.004C545.9 424.796 546.164 425.372 546.596 425.732C547.04 426.08 547.652 426.254 548.432 426.254C548.852 426.254 549.254 426.2 549.638 426.092C550.022 425.984 550.364 425.828 550.664 425.624L551.528 427.136C550.676 427.868 549.554 428.234 548.162 428.234C547.334 428.234 546.614 428.114 546.002 427.874C545.402 427.622 544.898 427.28 544.49 426.848C544.094 426.416 543.8 425.906 543.608 425.318C543.416 424.73 543.32 424.1 543.32 423.428C543.32 422.648 543.44 421.964 543.68 421.376C543.92 420.776 544.244 420.278 544.652 419.882C545.072 419.486 545.558 419.186 546.11 418.982C546.674 418.778 547.268 418.676 547.892 418.676C548.528 418.676 549.092 418.778 549.584 418.982C550.076 419.174 550.484 419.45 550.808 419.81C551.144 420.17 551.396 420.602 551.564 421.106C551.744 421.598 551.834 422.15 551.834 422.762C551.834 422.966 551.822 423.182 551.798 423.41C551.786 423.626 551.756 423.824 551.708 424.004H545.804ZM547.892 420.548C547.316 420.548 546.848 420.722 546.488 421.07C546.128 421.418 545.918 421.898 545.858 422.51H549.53V422.276C549.53 421.724 549.38 421.298 549.08 420.998C548.792 420.698 548.396 420.548 547.892 420.548ZM561.011 425.948H566.591V428H558.383V415.58H561.011V425.948ZM576.745 423.446C576.745 424.202 576.631 424.88 576.403 425.48C576.187 426.068 575.875 426.566 575.467 426.974C575.059 427.382 574.567 427.694 573.991 427.91C573.415 428.126 572.773 428.234 572.065 428.234C571.357 428.234 570.715 428.126 570.139 427.91C569.563 427.694 569.071 427.382 568.663 426.974C568.255 426.566 567.937 426.068 567.709 425.48C567.493 424.88 567.385 424.202 567.385 423.446C567.385 422.69 567.493 422.018 567.709 421.43C567.937 420.842 568.255 420.344 568.663 419.936C569.071 419.528 569.563 419.216 570.139 419C570.715 418.784 571.357 418.676 572.065 418.676C572.773 418.676 573.415 418.784 573.991 419C574.567 419.216 575.059 419.528 575.467 419.936C575.875 420.344 576.187 420.842 576.403 421.43C576.631 422.018 576.745 422.69 576.745 423.446ZM574.135 423.446C574.135 422.522 573.955 421.826 573.595 421.358C573.247 420.89 572.737 420.656 572.065 420.656C571.393 420.656 570.877 420.89 570.517 421.358C570.169 421.826 569.995 422.522 569.995 423.446C569.995 424.382 570.169 425.084 570.517 425.552C570.877 426.02 571.393 426.254 572.065 426.254C572.737 426.254 573.247 426.02 573.595 425.552C573.955 425.084 574.135 424.382 574.135 423.446ZM587.608 423.446C587.608 424.202 587.494 424.88 587.266 425.48C587.05 426.068 586.738 426.566 586.33 426.974C585.922 427.382 585.43 427.694 584.854 427.91C584.278 428.126 583.636 428.234 582.928 428.234C582.22 428.234 581.578 428.126 581.002 427.91C580.426 427.694 579.934 427.382 579.526 426.974C579.118 426.566 578.8 426.068 578.572 425.48C578.356 424.88 578.248 424.202 578.248 423.446C578.248 422.69 578.356 422.018 578.572 421.43C578.8 420.842 579.118 420.344 579.526 419.936C579.934 419.528 580.426 419.216 581.002 419C581.578 418.784 582.22 418.676 582.928 418.676C583.636 418.676 584.278 418.784 584.854 419C585.43 419.216 585.922 419.528 586.33 419.936C586.738 420.344 587.05 420.842 587.266 421.43C587.494 422.018 587.608 422.69 587.608 423.446ZM584.998 423.446C584.998 422.522 584.818 421.826 584.458 421.358C584.11 420.89 583.6 420.656 582.928 420.656C582.256 420.656 581.74 420.89 581.38 421.358C581.032 421.826 580.858 422.522 580.858 423.446C580.858 424.382 581.032 425.084 581.38 425.552C581.74 426.02 582.256 426.254 582.928 426.254C583.6 426.254 584.11 426.02 584.458 425.552C584.818 425.084 584.998 424.382 584.998 423.446ZM592.009 420.458C592.285 419.846 592.711 419.396 593.287 419.108C593.863 418.82 594.475 418.676 595.123 418.676C596.215 418.676 597.097 419.066 597.769 419.846C598.441 420.614 598.777 421.748 598.777 423.248C598.777 423.98 598.687 424.652 598.507 425.264C598.339 425.876 598.087 426.404 597.751 426.848C597.427 427.28 597.025 427.622 596.545 427.874C596.065 428.114 595.525 428.234 594.925 428.234C594.421 428.234 593.911 428.138 593.395 427.946C592.891 427.742 592.483 427.394 592.171 426.902V431.78H589.615V418.91H591.091C591.703 418.91 592.009 419.18 592.009 419.72V420.458ZM592.099 423.572C592.099 424.412 592.267 425.072 592.603 425.552C592.951 426.02 593.461 426.254 594.133 426.254C594.493 426.254 594.799 426.182 595.051 426.038C595.315 425.894 595.525 425.696 595.681 425.444C595.849 425.18 595.969 424.874 596.041 424.526C596.125 424.178 596.167 423.806 596.167 423.41C596.167 422.522 596.005 421.844 595.681 421.376C595.357 420.896 594.871 420.656 594.223 420.656C593.539 420.656 593.011 420.92 592.639 421.448C592.279 421.964 592.099 422.672 592.099 423.572Z" fill="#00285A"/>
<rect x="514" y="177" width="164" height="80" fill="#00285A"/>
<path d="M559.717 211V208.516H554.029V206.626L559.717 198.814H562.057V206.536H563.623V208.516H562.057V211H559.717ZM559.717 206.536V202.216L556.621 206.536H559.717ZM564.968 211V208.264H567.74V211H564.968ZM577.013 206.734V211H574.439V198.58H579.083C580.511 198.58 581.615 198.934 582.395 199.642C583.175 200.338 583.565 201.346 583.565 202.666C583.565 203.938 583.175 204.934 582.395 205.654C581.627 206.374 580.517 206.734 579.065 206.734H577.013ZM577.013 200.506V204.808H578.651C579.419 204.808 579.995 204.64 580.379 204.304C580.763 203.968 580.955 203.422 580.955 202.666C580.955 201.91 580.763 201.364 580.379 201.028C580.007 200.68 579.437 200.506 578.669 200.506H577.013ZM585.579 201.91H587.037C587.649 201.91 587.955 202.174 587.955 202.702V203.818C588.147 203.206 588.465 202.72 588.909 202.36C589.365 201.988 589.929 201.802 590.601 201.802C590.877 201.802 591.117 201.832 591.321 201.892V203.98H590.799C589.887 203.98 589.215 204.214 588.783 204.682C588.351 205.15 588.135 205.93 588.135 207.022V211H585.579V201.91ZM594.327 207.004C594.423 207.796 594.687 208.372 595.119 208.732C595.563 209.08 596.175 209.254 596.955 209.254C597.375 209.254 597.777 209.2 598.161 209.092C598.545 208.984 598.887 208.828 599.187 208.624L600.051 210.136C599.199 210.868 598.077 211.234 596.685 211.234C595.857 211.234 595.137 211.114 594.525 210.874C593.925 210.622 593.421 210.28 593.013 209.848C592.617 209.416 592.323 208.906 592.131 208.318C591.939 207.73 591.843 207.1 591.843 206.428C591.843 205.648 591.963 204.964 592.203 204.376C592.443 203.776 592.767 203.278 593.175 202.882C593.595 202.486 594.081 202.186 594.633 201.982C595.197 201.778 595.791 201.676 596.415 201.676C597.051 201.676 597.615 201.778 598.107 201.982C598.599 202.174 599.007 202.45 599.331 202.81C599.667 203.17 599.919 203.602 600.087 204.106C600.267 204.598 600.357 205.15 600.357 205.762C600.357 205.966 600.345 206.182 600.321 206.41C600.309 206.626 600.279 206.824 600.231 207.004H594.327ZM596.415 203.548C595.839 203.548 595.371 203.722 595.011 204.07C594.651 204.418 594.441 204.898 594.381 205.51H598.053V205.276C598.053 204.724 597.903 204.298 597.603 203.998C597.315 203.698 596.919 203.548 596.415 203.548ZM604.725 203.458C605.001 202.846 605.427 202.396 606.003 202.108C606.579 201.82 607.191 201.676 607.839 201.676C608.931 201.676 609.813 202.066 610.485 202.846C611.157 203.614 611.493 204.748 611.493 206.248C611.493 206.98 611.403 207.652 611.223 208.264C611.055 208.876 610.803 209.404 610.467 209.848C610.143 210.28 609.741 210.622 609.261 210.874C608.781 211.114 608.241 211.234 607.641 211.234C607.137 211.234 606.627 211.138 606.111 210.946C605.607 210.742 605.199 210.394 604.887 209.902V214.78H602.331V201.91H603.807C604.419 201.91 604.725 202.18 604.725 202.72V203.458ZM604.815 206.572C604.815 207.412 604.983 208.072 605.319 208.552C605.667 209.02 606.177 209.254 606.849 209.254C607.209 209.254 607.515 209.182 607.767 209.038C608.031 208.894 608.241 208.696 608.397 208.444C608.565 208.18 608.685 207.874 608.757 207.526C608.841 207.178 608.883 206.806 608.883 206.41C608.883 205.522 608.721 204.844 608.397 204.376C608.073 203.896 607.587 203.656 606.939 203.656C606.255 203.656 605.727 203.92 605.355 204.448C604.995 204.964 604.815 205.672 604.815 206.572ZM612.827 208.444C612.827 207.496 613.169 206.776 613.853 206.284C614.537 205.78 615.479 205.528 616.679 205.528H618.155V205.168C618.155 204.64 618.011 204.256 617.723 204.016C617.447 203.764 617.003 203.638 616.391 203.638C615.935 203.638 615.497 203.704 615.077 203.836C614.657 203.968 614.273 204.154 613.925 204.394L613.043 202.9C613.547 202.516 614.117 202.216 614.753 202C615.389 201.784 616.073 201.676 616.805 201.676C618.053 201.676 618.989 201.976 619.613 202.576C620.249 203.176 620.567 204.04 620.567 205.168V208.66C620.567 208.936 620.615 209.122 620.711 209.218C620.807 209.302 620.981 209.344 621.233 209.344H621.431V210.91C621.299 210.958 621.143 211 620.963 211.036C620.783 211.072 620.567 211.09 620.315 211.09C619.787 211.09 619.391 210.982 619.127 210.766C618.863 210.55 618.707 210.232 618.659 209.812C618.443 210.244 618.083 210.586 617.579 210.838C617.075 211.09 616.499 211.216 615.851 211.216C614.939 211.216 614.207 210.97 613.655 210.478C613.103 209.986 612.827 209.308 612.827 208.444ZM616.499 209.38C617.015 209.38 617.417 209.212 617.705 208.876C618.005 208.54 618.155 208.066 618.155 207.454V206.986H616.913C616.385 206.986 615.977 207.094 615.689 207.31C615.413 207.514 615.275 207.826 615.275 208.246C615.275 208.63 615.383 208.918 615.599 209.11C615.827 209.29 616.127 209.38 616.499 209.38ZM623.091 201.91H624.549C625.161 201.91 625.467 202.174 625.467 202.702V203.818C625.659 203.206 625.977 202.72 626.421 202.36C626.877 201.988 627.441 201.802 628.113 201.802C628.389 201.802 628.629 201.832 628.833 201.892V203.98H628.311C627.399 203.98 626.727 204.214 626.295 204.682C625.863 205.15 625.647 205.93 625.647 207.022V211H623.091V201.91ZM631.839 207.004C631.935 207.796 632.199 208.372 632.631 208.732C633.075 209.08 633.687 209.254 634.467 209.254C634.887 209.254 635.289 209.2 635.673 209.092C636.057 208.984 636.399 208.828 636.699 208.624L637.563 210.136C636.711 210.868 635.589 211.234 634.197 211.234C633.369 211.234 632.649 211.114 632.037 210.874C631.437 210.622 630.933 210.28 630.525 209.848C630.129 209.416 629.835 208.906 629.643 208.318C629.451 207.73 629.355 207.1 629.355 206.428C629.355 205.648 629.475 204.964 629.715 204.376C629.955 203.776 630.279 203.278 630.687 202.882C631.107 202.486 631.593 202.186 632.145 201.982C632.709 201.778 633.303 201.676 633.927 201.676C634.563 201.676 635.127 201.778 635.619 201.982C636.111 202.174 636.519 202.45 636.843 202.81C637.179 203.17 637.431 203.602 637.599 204.106C637.779 204.598 637.869 205.15 637.869 205.762C637.869 205.966 637.857 206.182 637.833 206.41C637.821 206.626 637.791 206.824 637.743 207.004H631.839ZM633.927 203.548C633.351 203.548 632.883 203.722 632.523 204.07C632.163 204.418 631.953 204.898 631.893 205.51H635.565V205.276C635.565 204.724 635.415 204.298 635.115 203.998C634.827 203.698 634.431 203.548 633.927 203.548ZM579.795 235H577.239V225.91H579.795V235ZM577.221 222.184H579.813V224.506H577.221V222.184ZM582.319 225.91H583.777C584.389 225.91 584.695 226.174 584.695 226.702V227.368C584.935 226.852 585.313 226.444 585.829 226.144C586.345 225.832 586.963 225.676 587.683 225.676C588.655 225.676 589.405 225.958 589.933 226.522C590.473 227.086 590.743 227.932 590.743 229.06V235H588.187V229.24C588.187 228.184 587.719 227.656 586.783 227.656C586.195 227.656 585.727 227.866 585.379 228.286C585.043 228.706 584.875 229.288 584.875 230.032V235H582.319V225.91ZM595.629 227.458C595.905 226.846 596.331 226.396 596.907 226.108C597.483 225.82 598.095 225.676 598.743 225.676C599.835 225.676 600.717 226.066 601.389 226.846C602.061 227.614 602.397 228.748 602.397 230.248C602.397 230.98 602.307 231.652 602.127 232.264C601.959 232.876 601.707 233.404 601.371 233.848C601.047 234.28 600.645 234.622 600.165 234.874C599.685 235.114 599.145 235.234 598.545 235.234C598.041 235.234 597.531 235.138 597.015 234.946C596.511 234.742 596.103 234.394 595.791 233.902V238.78H593.235V225.91H594.711C595.323 225.91 595.629 226.18 595.629 226.72V227.458ZM595.719 230.572C595.719 231.412 595.887 232.072 596.223 232.552C596.571 233.02 597.081 233.254 597.753 233.254C598.113 233.254 598.419 233.182 598.671 233.038C598.935 232.894 599.145 232.696 599.301 232.444C599.469 232.18 599.589 231.874 599.661 231.526C599.745 231.178 599.787 230.806 599.787 230.41C599.787 229.522 599.625 228.844 599.301 228.376C598.977 227.896 598.491 227.656 597.843 227.656C597.159 227.656 596.631 227.92 596.259 228.448C595.899 228.964 595.719 229.672 595.719 230.572ZM612.586 235H611.128C610.792 235 610.552 234.928 610.408 234.784C610.264 234.64 610.192 234.418 610.192 234.118V233.614C609.952 234.154 609.58 234.562 609.076 234.838C608.584 235.102 608.014 235.234 607.366 235.234C606.37 235.234 605.614 234.94 605.098 234.352C604.594 233.764 604.342 232.906 604.342 231.778V225.91H606.898V231.616C606.898 232.204 607.012 232.624 607.24 232.876C607.468 233.128 607.804 233.254 608.248 233.254C608.836 233.254 609.28 233.044 609.58 232.624C609.88 232.204 610.03 231.634 610.03 230.914V225.91H612.586V235ZM620.016 233.038V234.946C619.824 234.994 619.614 235.03 619.386 235.054C619.158 235.078 618.888 235.09 618.576 235.09C617.496 235.09 616.704 234.844 616.2 234.352C615.696 233.848 615.444 233.032 615.444 231.904V227.854H614.094V225.91H615.444V223.732H618V225.91H620.016V227.854H618V231.67C618 232.21 618.12 232.576 618.36 232.768C618.6 232.948 619.032 233.038 619.656 233.038H620.016Z" fill="white"/>
<rect x="267" y="20" width="164" height="80" fill="#8B8E97"/>
<path d="M289.829 31.668C289.385 31.668 288.935 31.752 288.479 31.92C288.023 32.088 287.621 32.31 287.273 32.586L286.157 30.984C287.345 30.048 288.707 29.58 290.243 29.58C291.527 29.58 292.517 29.874 293.213 30.462C293.921 31.038 294.275 31.872 294.275 32.964C294.275 33.756 294.083 34.458 293.699 35.07C293.327 35.682 292.733 36.3 291.917 36.924L290.027 38.4C289.715 38.64 289.451 38.88 289.235 39.12C289.031 39.348 288.875 39.618 288.767 39.93H294.221V42H286.103V40.866C286.103 40.098 286.289 39.396 286.661 38.76C287.045 38.112 287.579 37.524 288.263 36.996L290.297 35.43C290.753 35.082 291.089 34.734 291.305 34.386C291.521 34.026 291.629 33.63 291.629 33.198C291.629 32.178 291.029 31.668 289.829 31.668ZM296.629 42V39.264H299.401V42H296.629ZM319.548 33.216C319.548 34.068 319.308 34.812 318.828 35.448C318.348 36.072 317.7 36.48 316.884 36.672L320.412 42H317.388L314.76 37.68C314.628 37.464 314.502 37.32 314.382 37.248C314.262 37.176 314.076 37.14 313.824 37.14H313.05V42H310.494V29.58H315.264C315.924 29.58 316.518 29.664 317.046 29.832C317.574 30 318.024 30.24 318.396 30.552C318.768 30.864 319.05 31.248 319.242 31.704C319.446 32.148 319.548 32.652 319.548 33.216ZM316.938 33.414C316.938 32.802 316.776 32.352 316.452 32.064C316.128 31.776 315.606 31.632 314.886 31.632H313.05V35.268H314.832C315.516 35.268 316.038 35.112 316.398 34.8C316.758 34.488 316.938 34.026 316.938 33.414ZM323.491 38.004C323.587 38.796 323.851 39.372 324.283 39.732C324.727 40.08 325.339 40.254 326.119 40.254C326.539 40.254 326.941 40.2 327.325 40.092C327.709 39.984 328.051 39.828 328.351 39.624L329.215 41.136C328.363 41.868 327.241 42.234 325.849 42.234C325.021 42.234 324.301 42.114 323.689 41.874C323.089 41.622 322.585 41.28 322.177 40.848C321.781 40.416 321.487 39.906 321.295 39.318C321.103 38.73 321.007 38.1 321.007 37.428C321.007 36.648 321.127 35.964 321.367 35.376C321.607 34.776 321.931 34.278 322.339 33.882C322.759 33.486 323.245 33.186 323.797 32.982C324.361 32.778 324.955 32.676 325.579 32.676C326.215 32.676 326.779 32.778 327.271 32.982C327.763 33.174 328.171 33.45 328.495 33.81C328.831 34.17 329.083 34.602 329.251 35.106C329.431 35.598 329.521 36.15 329.521 36.762C329.521 36.966 329.509 37.182 329.485 37.41C329.473 37.626 329.443 37.824 329.395 38.004H323.491ZM325.579 34.548C325.003 34.548 324.535 34.722 324.175 35.07C323.815 35.418 323.605 35.898 323.545 36.51H327.217V36.276C327.217 35.724 327.067 35.298 326.767 34.998C326.479 34.698 326.083 34.548 325.579 34.548ZM330.811 39.444C330.811 38.496 331.153 37.776 331.837 37.284C332.521 36.78 333.463 36.528 334.663 36.528H336.139V36.168C336.139 35.64 335.995 35.256 335.707 35.016C335.431 34.764 334.987 34.638 334.375 34.638C333.919 34.638 333.481 34.704 333.061 34.836C332.641 34.968 332.257 35.154 331.909 35.394L331.027 33.9C331.531 33.516 332.101 33.216 332.737 33C333.373 32.784 334.057 32.676 334.789 32.676C336.037 32.676 336.973 32.976 337.597 33.576C338.233 34.176 338.551 35.04 338.551 36.168V39.66C338.551 39.936 338.599 40.122 338.695 40.218C338.791 40.302 338.965 40.344 339.217 40.344H339.415V41.91C339.283 41.958 339.127 42 338.947 42.036C338.767 42.072 338.551 42.09 338.299 42.09C337.771 42.09 337.375 41.982 337.111 41.766C336.847 41.55 336.691 41.232 336.643 40.812C336.427 41.244 336.067 41.586 335.563 41.838C335.059 42.09 334.483 42.216 333.835 42.216C332.923 42.216 332.191 41.97 331.639 41.478C331.087 40.986 330.811 40.308 330.811 39.444ZM334.483 40.38C334.999 40.38 335.401 40.212 335.689 39.876C335.989 39.54 336.139 39.066 336.139 38.454V37.986H334.897C334.369 37.986 333.961 38.094 333.673 38.31C333.397 38.514 333.259 38.826 333.259 39.246C333.259 39.63 333.367 39.918 333.583 40.11C333.811 40.29 334.111 40.38 334.483 40.38ZM349.733 42H348.257C347.645 42 347.339 41.73 347.339 41.19V40.596C347.099 41.1 346.727 41.502 346.223 41.802C345.731 42.09 345.137 42.234 344.441 42.234C343.841 42.234 343.301 42.12 342.821 41.892C342.341 41.664 341.933 41.346 341.597 40.938C341.273 40.518 341.021 40.014 340.841 39.426C340.661 38.838 340.571 38.178 340.571 37.446C340.571 36.69 340.667 36.018 340.859 35.43C341.051 34.83 341.321 34.332 341.669 33.936C342.017 33.528 342.431 33.216 342.911 33C343.403 32.784 343.949 32.676 344.549 32.676C345.125 32.676 345.641 32.79 346.097 33.018C346.553 33.246 346.913 33.57 347.177 33.99V29.094H349.733V42ZM347.249 37.464C347.249 36.588 347.075 35.904 346.727 35.412C346.391 34.908 345.893 34.656 345.233 34.656C344.585 34.656 344.081 34.902 343.721 35.394C343.361 35.886 343.181 36.576 343.181 37.464C343.181 38.364 343.349 39.054 343.685 39.534C344.021 40.014 344.519 40.254 345.179 40.254C345.827 40.254 346.331 40.008 346.691 39.516C347.063 39.012 347.249 38.328 347.249 37.464ZM359.314 33.504V42H356.83V29.58H359.728L363.094 36.348L366.478 29.58H369.268V42H366.784V33.486L364.084 38.868H362.014L359.314 33.504ZM380.816 37.446C380.816 38.202 380.702 38.88 380.474 39.48C380.258 40.068 379.946 40.566 379.538 40.974C379.13 41.382 378.638 41.694 378.062 41.91C377.486 42.126 376.844 42.234 376.136 42.234C375.428 42.234 374.786 42.126 374.21 41.91C373.634 41.694 373.142 41.382 372.734 40.974C372.326 40.566 372.008 40.068 371.78 39.48C371.564 38.88 371.456 38.202 371.456 37.446C371.456 36.69 371.564 36.018 371.78 35.43C372.008 34.842 372.326 34.344 372.734 33.936C373.142 33.528 373.634 33.216 374.21 33C374.786 32.784 375.428 32.676 376.136 32.676C376.844 32.676 377.486 32.784 378.062 33C378.638 33.216 379.13 33.528 379.538 33.936C379.946 34.344 380.258 34.842 380.474 35.43C380.702 36.018 380.816 36.69 380.816 37.446ZM378.206 37.446C378.206 36.522 378.026 35.826 377.666 35.358C377.318 34.89 376.808 34.656 376.136 34.656C375.464 34.656 374.948 34.89 374.588 35.358C374.24 35.826 374.066 36.522 374.066 37.446C374.066 38.382 374.24 39.084 374.588 39.552C374.948 40.02 375.464 40.254 376.136 40.254C376.808 40.254 377.318 40.02 377.666 39.552C378.026 39.084 378.206 38.382 378.206 37.446ZM391.481 42H390.005C389.393 42 389.087 41.73 389.087 41.19V40.596C388.847 41.1 388.475 41.502 387.971 41.802C387.479 42.09 386.885 42.234 386.189 42.234C385.589 42.234 385.049 42.12 384.569 41.892C384.089 41.664 383.681 41.346 383.345 40.938C383.021 40.518 382.769 40.014 382.589 39.426C382.409 38.838 382.319 38.178 382.319 37.446C382.319 36.69 382.415 36.018 382.607 35.43C382.799 34.83 383.069 34.332 383.417 33.936C383.765 33.528 384.179 33.216 384.659 33C385.151 32.784 385.697 32.676 386.297 32.676C386.873 32.676 387.389 32.79 387.845 33.018C388.301 33.246 388.661 33.57 388.925 33.99V29.094H391.481V42ZM388.997 37.464C388.997 36.588 388.823 35.904 388.475 35.412C388.139 34.908 387.641 34.656 386.981 34.656C386.333 34.656 385.829 34.902 385.469 35.394C385.109 35.886 384.929 36.576 384.929 37.464C384.929 38.364 385.097 39.054 385.433 39.534C385.769 40.014 386.267 40.254 386.927 40.254C387.575 40.254 388.079 40.008 388.439 39.516C388.811 39.012 388.997 38.328 388.997 37.464ZM395.983 38.004C396.079 38.796 396.343 39.372 396.775 39.732C397.219 40.08 397.831 40.254 398.611 40.254C399.031 40.254 399.433 40.2 399.817 40.092C400.201 39.984 400.543 39.828 400.843 39.624L401.707 41.136C400.855 41.868 399.733 42.234 398.341 42.234C397.513 42.234 396.793 42.114 396.181 41.874C395.581 41.622 395.077 41.28 394.669 40.848C394.273 40.416 393.979 39.906 393.787 39.318C393.595 38.73 393.499 38.1 393.499 37.428C393.499 36.648 393.619 35.964 393.859 35.376C394.099 34.776 394.423 34.278 394.831 33.882C395.251 33.486 395.737 33.186 396.289 32.982C396.853 32.778 397.447 32.676 398.071 32.676C398.707 32.676 399.271 32.778 399.763 32.982C400.255 33.174 400.663 33.45 400.987 33.81C401.323 34.17 401.575 34.602 401.743 35.106C401.923 35.598 402.013 36.15 402.013 36.762C402.013 36.966 402.001 37.182 401.977 37.41C401.965 37.626 401.935 37.824 401.887 38.004H395.983ZM398.071 34.548C397.495 34.548 397.027 34.722 396.667 35.07C396.307 35.418 396.097 35.898 396.037 36.51H399.709V36.276C399.709 35.724 399.559 35.298 399.259 34.998C398.971 34.698 398.575 34.548 398.071 34.548ZM406.508 29.094V38.904C406.508 39.384 406.58 39.702 406.724 39.858C406.88 40.002 407.186 40.074 407.642 40.074H407.804V42C407.54 42.06 407.156 42.09 406.652 42.09C405.68 42.09 404.984 41.85 404.564 41.37C404.156 40.89 403.952 40.17 403.952 39.21V29.094H406.508ZM409.503 44.718C409.707 44.334 409.881 43.914 410.025 43.458C410.169 43.002 410.241 42.516 410.241 42H409.287V39.264H412.059V40.794C412.059 41.646 411.981 42.462 411.825 43.242C411.681 44.034 411.429 44.754 411.069 45.402L409.503 44.718ZM294.477 65.136C294.009 65.484 293.445 65.76 292.785 65.964C292.137 66.168 291.399 66.27 290.571 66.27C289.575 66.27 288.693 66.12 287.925 65.82C287.157 65.508 286.509 65.076 285.981 64.524C285.453 63.96 285.051 63.282 284.775 62.49C284.499 61.686 284.361 60.792 284.361 59.808C284.361 58.776 284.511 57.858 284.811 57.054C285.111 56.238 285.537 55.554 286.089 55.002C286.641 54.45 287.301 54.03 288.069 53.742C288.849 53.454 289.719 53.31 290.679 53.31C292.191 53.31 293.409 53.664 294.333 54.372L293.361 56.19C292.989 55.938 292.593 55.758 292.173 55.65C291.765 55.53 291.333 55.47 290.877 55.47C289.641 55.47 288.699 55.842 288.051 56.586C287.415 57.33 287.097 58.404 287.097 59.808C287.097 61.2 287.415 62.262 288.051 62.994C288.699 63.726 289.641 64.092 290.877 64.092C291.417 64.092 291.903 64.026 292.335 63.894C292.767 63.75 293.157 63.558 293.505 63.318L294.477 65.136ZM304.58 61.446C304.58 62.202 304.466 62.88 304.238 63.48C304.022 64.068 303.71 64.566 303.302 64.974C302.894 65.382 302.402 65.694 301.826 65.91C301.25 66.126 300.608 66.234 299.9 66.234C299.192 66.234 298.55 66.126 297.974 65.91C297.398 65.694 296.906 65.382 296.498 64.974C296.09 64.566 295.772 64.068 295.544 63.48C295.328 62.88 295.22 62.202 295.22 61.446C295.22 60.69 295.328 60.018 295.544 59.43C295.772 58.842 296.09 58.344 296.498 57.936C296.906 57.528 297.398 57.216 297.974 57C298.55 56.784 299.192 56.676 299.9 56.676C300.608 56.676 301.25 56.784 301.826 57C302.402 57.216 302.894 57.528 303.302 57.936C303.71 58.344 304.022 58.842 304.238 59.43C304.466 60.018 304.58 60.69 304.58 61.446ZM301.97 61.446C301.97 60.522 301.79 59.826 301.43 59.358C301.082 58.89 300.572 58.656 299.9 58.656C299.228 58.656 298.712 58.89 298.352 59.358C298.004 59.826 297.83 60.522 297.83 61.446C297.83 62.382 298.004 63.084 298.352 63.552C298.712 64.02 299.228 64.254 299.9 64.254C300.572 64.254 301.082 64.02 301.43 63.552C301.79 63.084 301.97 62.382 301.97 61.446ZM306.587 56.91H308.045C308.657 56.91 308.963 57.174 308.963 57.702V58.368C309.203 57.852 309.581 57.444 310.097 57.144C310.613 56.832 311.231 56.676 311.951 56.676C312.923 56.676 313.673 56.958 314.201 57.522C314.741 58.086 315.011 58.932 315.011 60.06V66H312.455V60.24C312.455 59.184 311.987 58.656 311.051 58.656C310.463 58.656 309.995 58.866 309.647 59.286C309.311 59.706 309.143 60.288 309.143 61.032V66H306.587V56.91ZM322.669 55.092H322.255C321.583 55.092 321.097 55.194 320.797 55.398C320.509 55.59 320.365 55.992 320.365 56.604V56.91H322.579V58.854H320.365V66H317.809V58.854H316.459V56.91H317.809V56.244C317.809 55.188 318.115 54.39 318.727 53.85C319.339 53.31 320.227 53.04 321.391 53.04C321.595 53.04 321.817 53.052 322.057 53.076C322.297 53.088 322.501 53.118 322.669 53.166V55.092ZM326.405 66H323.849V56.91H326.405V66ZM323.831 53.184H326.423V55.506H323.831V53.184ZM328.137 67.296C328.137 66.756 328.281 66.312 328.569 65.964C328.869 65.616 329.277 65.376 329.793 65.244C329.373 65.136 329.061 64.95 328.857 64.686C328.653 64.41 328.551 64.092 328.551 63.732C328.551 63.276 328.689 62.922 328.965 62.67C329.241 62.406 329.571 62.238 329.955 62.166C329.571 61.89 329.271 61.548 329.055 61.14C328.851 60.732 328.749 60.294 328.749 59.826C328.749 59.358 328.845 58.932 329.037 58.548C329.241 58.152 329.517 57.816 329.865 57.54C330.213 57.264 330.627 57.054 331.107 56.91C331.599 56.754 332.133 56.676 332.709 56.676C333.477 56.676 334.161 56.802 334.761 57.054H337.587V58.584H336.273C336.597 58.908 336.759 59.388 336.759 60.024C336.759 60.948 336.399 61.674 335.679 62.202C334.959 62.718 333.999 62.976 332.799 62.976C332.235 62.976 331.767 62.922 331.395 62.814C331.023 62.922 330.837 63.174 330.837 63.57C330.837 63.822 330.933 64.014 331.125 64.146C331.317 64.266 331.587 64.326 331.935 64.326H333.843C334.971 64.326 335.841 64.536 336.453 64.956C337.065 65.376 337.371 66 337.371 66.828C337.371 67.32 337.251 67.764 337.011 68.16C336.783 68.556 336.453 68.892 336.021 69.168C335.589 69.444 335.067 69.654 334.455 69.798C333.855 69.942 333.177 70.014 332.421 70.014C331.077 70.014 330.027 69.774 329.271 69.294C328.515 68.814 328.137 68.148 328.137 67.296ZM332.097 65.964C331.605 65.964 331.227 66.054 330.963 66.234C330.699 66.414 330.567 66.696 330.567 67.08C330.567 67.5 330.747 67.818 331.107 68.034C331.479 68.262 332.013 68.376 332.709 68.376C333.417 68.376 333.957 68.256 334.329 68.016C334.713 67.788 334.905 67.446 334.905 66.99C334.905 66.642 334.779 66.384 334.527 66.216C334.275 66.048 333.867 65.964 333.303 65.964H332.097ZM334.347 59.826C334.347 59.358 334.203 58.986 333.915 58.71C333.639 58.434 333.249 58.296 332.745 58.296C332.241 58.296 331.851 58.434 331.575 58.71C331.299 58.986 331.161 59.358 331.161 59.826C331.161 60.294 331.299 60.666 331.575 60.942C331.851 61.218 332.241 61.356 332.745 61.356C333.249 61.356 333.639 61.218 333.915 60.942C334.203 60.666 334.347 60.294 334.347 59.826ZM347.314 66H345.856C345.52 66 345.28 65.928 345.136 65.784C344.992 65.64 344.92 65.418 344.92 65.118V64.614C344.68 65.154 344.308 65.562 343.804 65.838C343.312 66.102 342.742 66.234 342.094 66.234C341.098 66.234 340.342 65.94 339.826 65.352C339.322 64.764 339.07 63.906 339.07 62.778V56.91H341.626V62.616C341.626 63.204 341.74 63.624 341.968 63.876C342.196 64.128 342.532 64.254 342.976 64.254C343.564 64.254 344.008 64.044 344.308 63.624C344.608 63.204 344.758 62.634 344.758 61.914V56.91H347.314V66ZM349.829 56.91H351.287C351.899 56.91 352.205 57.174 352.205 57.702V58.818C352.397 58.206 352.715 57.72 353.159 57.36C353.615 56.988 354.179 56.802 354.851 56.802C355.127 56.802 355.367 56.832 355.571 56.892V58.98H355.049C354.137 58.98 353.465 59.214 353.033 59.682C352.601 60.15 352.385 60.93 352.385 62.022V66H349.829V56.91ZM358.577 62.004C358.673 62.796 358.937 63.372 359.369 63.732C359.813 64.08 360.425 64.254 361.205 64.254C361.625 64.254 362.027 64.2 362.411 64.092C362.795 63.984 363.137 63.828 363.437 63.624L364.301 65.136C363.449 65.868 362.327 66.234 360.935 66.234C360.107 66.234 359.387 66.114 358.775 65.874C358.175 65.622 357.671 65.28 357.263 64.848C356.867 64.416 356.573 63.906 356.381 63.318C356.189 62.73 356.093 62.1 356.093 61.428C356.093 60.648 356.213 59.964 356.453 59.376C356.693 58.776 357.017 58.278 357.425 57.882C357.845 57.486 358.331 57.186 358.883 56.982C359.447 56.778 360.041 56.676 360.665 56.676C361.301 56.676 361.865 56.778 362.357 56.982C362.849 57.174 363.257 57.45 363.581 57.81C363.917 58.17 364.169 58.602 364.337 59.106C364.517 59.598 364.607 60.15 364.607 60.762C364.607 60.966 364.595 61.182 364.571 61.41C364.559 61.626 364.529 61.824 364.481 62.004H358.577ZM360.665 58.548C360.089 58.548 359.621 58.722 359.261 59.07C358.901 59.418 358.691 59.898 358.631 60.51H362.303V60.276C362.303 59.724 362.153 59.298 361.853 58.998C361.565 58.698 361.169 58.548 360.665 58.548ZM373.784 66H371.156V53.58H373.784V66ZM376.478 56.91H377.936C378.548 56.91 378.854 57.174 378.854 57.702V58.368C379.094 57.852 379.472 57.444 379.988 57.144C380.504 56.832 381.122 56.676 381.842 56.676C382.814 56.676 383.564 56.958 384.092 57.522C384.632 58.086 384.902 58.932 384.902 60.06V66H382.346V60.24C382.346 59.184 381.878 58.656 380.942 58.656C380.354 58.656 379.886 58.866 379.538 59.286C379.202 59.706 379.034 60.288 379.034 61.032V66H376.478V56.91ZM389.788 58.458C390.064 57.846 390.49 57.396 391.066 57.108C391.642 56.82 392.254 56.676 392.902 56.676C393.994 56.676 394.876 57.066 395.548 57.846C396.22 58.614 396.556 59.748 396.556 61.248C396.556 61.98 396.466 62.652 396.286 63.264C396.118 63.876 395.866 64.404 395.53 64.848C395.206 65.28 394.804 65.622 394.324 65.874C393.844 66.114 393.304 66.234 392.704 66.234C392.2 66.234 391.69 66.138 391.174 65.946C390.67 65.742 390.262 65.394 389.95 64.902V69.78H387.394V56.91H388.87C389.482 56.91 389.788 57.18 389.788 57.72V58.458ZM389.878 61.572C389.878 62.412 390.046 63.072 390.382 63.552C390.73 64.02 391.24 64.254 391.912 64.254C392.272 64.254 392.578 64.182 392.83 64.038C393.094 63.894 393.304 63.696 393.46 63.444C393.628 63.18 393.748 62.874 393.82 62.526C393.904 62.178 393.946 61.806 393.946 61.41C393.946 60.522 393.784 59.844 393.46 59.376C393.136 58.896 392.65 58.656 392.002 58.656C391.318 58.656 390.79 58.92 390.418 59.448C390.058 59.964 389.878 60.672 389.878 61.572ZM406.745 66H405.287C404.951 66 404.711 65.928 404.567 65.784C404.423 65.64 404.351 65.418 404.351 65.118V64.614C404.111 65.154 403.739 65.562 403.235 65.838C402.743 66.102 402.173 66.234 401.525 66.234C400.529 66.234 399.773 65.94 399.257 65.352C398.753 64.764 398.501 63.906 398.501 62.778V56.91H401.057V62.616C401.057 63.204 401.171 63.624 401.399 63.876C401.627 64.128 401.963 64.254 402.407 64.254C402.995 64.254 403.439 64.044 403.739 63.624C404.039 63.204 404.189 62.634 404.189 61.914V56.91H406.745V66ZM414.175 64.038V65.946C413.983 65.994 413.773 66.03 413.545 66.054C413.317 66.078 413.047 66.09 412.735 66.09C411.655 66.09 410.863 65.844 410.359 65.352C409.855 64.848 409.603 64.032 409.603 62.904V58.854H408.253V56.91H409.603V54.732H412.159V56.91H414.175V58.854H412.159V62.67C412.159 63.21 412.279 63.576 412.519 63.768C412.759 63.948 413.191 64.038 413.815 64.038H414.175ZM322.583 90L321.719 89.1C320.795 89.856 319.565 90.234 318.029 90.234C317.405 90.234 316.823 90.162 316.283 90.018C315.755 89.886 315.293 89.682 314.897 89.406C314.513 89.13 314.207 88.776 313.979 88.344C313.763 87.912 313.655 87.408 313.655 86.832C313.655 86.064 313.871 85.404 314.303 84.852C314.735 84.3 315.425 83.79 316.373 83.322C315.845 82.782 315.467 82.272 315.239 81.792C315.011 81.312 314.897 80.82 314.897 80.316C314.897 79.848 314.981 79.434 315.149 79.074C315.329 78.702 315.575 78.39 315.887 78.138C316.199 77.886 316.571 77.694 317.003 77.562C317.435 77.418 317.909 77.346 318.425 77.346C318.929 77.346 319.385 77.412 319.793 77.544C320.201 77.676 320.555 77.868 320.855 78.12C321.155 78.372 321.383 78.684 321.539 79.056C321.707 79.416 321.791 79.836 321.791 80.316C321.791 81.012 321.599 81.63 321.215 82.17C320.831 82.71 320.225 83.208 319.397 83.664L321.737 86.202C321.917 85.866 322.079 85.47 322.223 85.014C322.379 84.546 322.523 84.024 322.655 83.448L324.581 83.898C324.425 84.618 324.215 85.308 323.951 85.968C323.699 86.628 323.411 87.198 323.087 87.678L325.247 90H322.583ZM318.353 88.272C318.749 88.272 319.133 88.224 319.505 88.128C319.877 88.032 320.189 87.894 320.441 87.714L317.579 84.618C317.099 84.894 316.727 85.2 316.463 85.536C316.199 85.872 316.067 86.256 316.067 86.688C316.067 87.192 316.259 87.582 316.643 87.858C317.027 88.134 317.597 88.272 318.353 88.272ZM317.129 80.406C317.129 80.694 317.207 80.988 317.363 81.288C317.531 81.588 317.813 81.96 318.209 82.404C318.689 82.128 319.037 81.828 319.253 81.504C319.481 81.168 319.595 80.79 319.595 80.37C319.595 79.962 319.487 79.65 319.271 79.434C319.067 79.218 318.773 79.11 318.389 79.11C318.017 79.11 317.711 79.224 317.471 79.452C317.243 79.668 317.129 79.986 317.129 80.406ZM336.656 88.11C337.748 88.11 338.576 87.75 339.14 87.03C339.716 86.31 340.004 85.23 340.004 83.79C340.004 82.362 339.716 81.288 339.14 80.568C338.576 79.836 337.748 79.47 336.656 79.47C335.564 79.47 334.73 79.836 334.154 80.568C333.59 81.288 333.308 82.362 333.308 83.79C333.308 85.23 333.59 86.31 334.154 87.03C334.73 87.75 335.564 88.11 336.656 88.11ZM336.656 90.27C335.72 90.27 334.874 90.126 334.118 89.838C333.362 89.538 332.72 89.112 332.192 88.56C331.676 87.996 331.274 87.312 330.986 86.508C330.71 85.704 330.572 84.798 330.572 83.79C330.572 82.782 330.71 81.882 330.986 81.09C331.274 80.286 331.676 79.608 332.192 79.056C332.72 78.492 333.362 78.06 334.118 77.76C334.874 77.46 335.72 77.31 336.656 77.31C337.592 77.31 338.438 77.46 339.194 77.76C339.95 78.06 340.586 78.492 341.102 79.056C341.63 79.608 342.032 80.286 342.308 81.09C342.596 81.882 342.74 82.782 342.74 83.79C342.74 84.798 342.596 85.704 342.308 86.508C342.032 87.312 341.63 87.996 341.102 88.56C340.586 89.112 339.95 89.538 339.194 89.838C338.438 90.126 337.592 90.27 336.656 90.27ZM353.044 90H351.586C351.25 90 351.01 89.928 350.866 89.784C350.722 89.64 350.65 89.418 350.65 89.118V88.614C350.41 89.154 350.038 89.562 349.534 89.838C349.042 90.102 348.472 90.234 347.824 90.234C346.828 90.234 346.072 89.94 345.556 89.352C345.052 88.764 344.8 87.906 344.8 86.778V80.91H347.356V86.616C347.356 87.204 347.47 87.624 347.698 87.876C347.926 88.128 348.262 88.254 348.706 88.254C349.294 88.254 349.738 88.044 350.038 87.624C350.338 87.204 350.488 86.634 350.488 85.914V80.91H353.044V90ZM360.474 88.038V89.946C360.282 89.994 360.072 90.03 359.844 90.054C359.616 90.078 359.346 90.09 359.034 90.09C357.954 90.09 357.162 89.844 356.658 89.352C356.154 88.848 355.902 88.032 355.902 86.904V82.854H354.552V80.91H355.902V78.732H358.458V80.91H360.474V82.854H358.458V86.67C358.458 87.21 358.578 87.576 358.818 87.768C359.058 87.948 359.49 88.038 360.114 88.038H360.474ZM364.528 82.458C364.804 81.846 365.23 81.396 365.806 81.108C366.382 80.82 366.994 80.676 367.642 80.676C368.734 80.676 369.616 81.066 370.288 81.846C370.96 82.614 371.296 83.748 371.296 85.248C371.296 85.98 371.206 86.652 371.026 87.264C370.858 87.876 370.606 88.404 370.27 88.848C369.946 89.28 369.544 89.622 369.064 89.874C368.584 90.114 368.044 90.234 367.444 90.234C366.94 90.234 366.43 90.138 365.914 89.946C365.41 89.742 365.002 89.394 364.69 88.902V93.78H362.134V80.91H363.61C364.222 80.91 364.528 81.18 364.528 81.72V82.458ZM364.618 85.572C364.618 86.412 364.786 87.072 365.122 87.552C365.47 88.02 365.98 88.254 366.652 88.254C367.012 88.254 367.318 88.182 367.57 88.038C367.834 87.894 368.044 87.696 368.2 87.444C368.368 87.18 368.488 86.874 368.56 86.526C368.644 86.178 368.686 85.806 368.686 85.41C368.686 84.522 368.524 83.844 368.2 83.376C367.876 82.896 367.39 82.656 366.742 82.656C366.058 82.656 365.53 82.92 365.158 83.448C364.798 83.964 364.618 84.672 364.618 85.572ZM381.486 90H380.028C379.692 90 379.452 89.928 379.308 89.784C379.164 89.64 379.092 89.418 379.092 89.118V88.614C378.852 89.154 378.48 89.562 377.976 89.838C377.484 90.102 376.914 90.234 376.266 90.234C375.27 90.234 374.514 89.94 373.998 89.352C373.494 88.764 373.242 87.906 373.242 86.778V80.91H375.798V86.616C375.798 87.204 375.912 87.624 376.14 87.876C376.368 88.128 376.704 88.254 377.148 88.254C377.736 88.254 378.18 88.044 378.48 87.624C378.78 87.204 378.93 86.634 378.93 85.914V80.91H381.486V90ZM388.915 88.038V89.946C388.723 89.994 388.513 90.03 388.285 90.054C388.057 90.078 387.787 90.09 387.475 90.09C386.395 90.09 385.603 89.844 385.099 89.352C384.595 88.848 384.343 88.032 384.343 86.904V82.854H382.993V80.91H384.343V78.732H386.899V80.91H388.915V82.854H386.899V86.67C386.899 87.21 387.019 87.576 387.259 87.768C387.499 87.948 387.931 88.038 388.555 88.038H388.915Z" fill="white"/>
<rect x="514" y="310" width="164" height="80" fill="#00285A"/>
<path d="M570.333 345.884L570.081 348.764C570.321 348.548 570.621 348.386 570.981 348.278C571.353 348.17 571.767 348.116 572.223 348.116C573.375 348.116 574.293 348.446 574.977 349.106C575.673 349.766 576.021 350.702 576.021 351.914C576.021 352.562 575.913 353.156 575.697 353.696C575.493 354.224 575.187 354.68 574.779 355.064C574.371 355.436 573.873 355.724 573.285 355.928C572.697 356.132 572.025 356.234 571.269 356.234C569.673 356.234 568.299 355.748 567.147 354.776L568.245 353.138C569.193 353.81 570.135 354.146 571.071 354.146C571.371 354.146 571.659 354.11 571.935 354.038C572.223 353.954 572.475 353.828 572.691 353.66C572.907 353.492 573.075 353.276 573.195 353.012C573.327 352.748 573.393 352.43 573.393 352.058C573.393 351.41 573.213 350.942 572.853 350.654C572.493 350.354 572.007 350.204 571.395 350.204C571.011 350.204 570.645 350.264 570.297 350.384C569.949 350.492 569.643 350.648 569.379 350.852L567.741 350.078L568.299 343.814H575.301V345.884H570.333ZM577.871 356V353.264H580.643V356H577.871ZM589.969 356H587.341V343.58H589.969V356ZM592.663 346.91H594.121C594.733 346.91 595.039 347.174 595.039 347.702V348.368C595.279 347.852 595.657 347.444 596.173 347.144C596.689 346.832 597.307 346.676 598.027 346.676C598.999 346.676 599.749 346.958 600.277 347.522C600.817 348.086 601.087 348.932 601.087 350.06V356H598.531V350.24C598.531 349.184 598.063 348.656 597.127 348.656C596.539 348.656 596.071 348.866 595.723 349.286C595.387 349.706 595.219 350.288 595.219 351.032V356H592.663V346.91ZM608.745 345.092H608.331C607.659 345.092 607.173 345.194 606.873 345.398C606.585 345.59 606.441 345.992 606.441 346.604V346.91H608.655V348.854H606.441V356H603.885V348.854H602.535V346.91H603.885V346.244C603.885 345.188 604.191 344.39 604.803 343.85C605.415 343.31 606.303 343.04 607.467 343.04C607.671 343.04 607.893 343.052 608.133 343.076C608.373 343.088 608.577 343.118 608.745 343.166V345.092ZM611.905 352.004C612.001 352.796 612.265 353.372 612.697 353.732C613.141 354.08 613.753 354.254 614.533 354.254C614.953 354.254 615.355 354.2 615.739 354.092C616.123 353.984 616.465 353.828 616.765 353.624L617.629 355.136C616.777 355.868 615.655 356.234 614.263 356.234C613.435 356.234 612.715 356.114 612.103 355.874C611.503 355.622 610.999 355.28 610.591 354.848C610.195 354.416 609.901 353.906 609.709 353.318C609.517 352.73 609.421 352.1 609.421 351.428C609.421 350.648 609.541 349.964 609.781 349.376C610.021 348.776 610.345 348.278 610.753 347.882C611.173 347.486 611.659 347.186 612.211 346.982C612.775 346.778 613.369 346.676 613.993 346.676C614.629 346.676 615.193 346.778 615.685 346.982C616.177 347.174 616.585 347.45 616.909 347.81C617.245 348.17 617.497 348.602 617.665 349.106C617.845 349.598 617.935 350.15 617.935 350.762C617.935 350.966 617.923 351.182 617.899 351.41C617.887 351.626 617.857 351.824 617.809 352.004H611.905ZM613.993 348.548C613.417 348.548 612.949 348.722 612.589 349.07C612.229 349.418 612.019 349.898 611.959 350.51H615.631V350.276C615.631 349.724 615.481 349.298 615.181 348.998C614.893 348.698 614.497 348.548 613.993 348.548ZM619.909 346.91H621.367C621.979 346.91 622.285 347.174 622.285 347.702V348.818C622.477 348.206 622.795 347.72 623.239 347.36C623.695 346.988 624.259 346.802 624.931 346.802C625.207 346.802 625.447 346.832 625.651 346.892V348.98H625.129C624.217 348.98 623.545 349.214 623.113 349.682C622.681 350.15 622.465 350.93 622.465 352.022V356H619.909V346.91Z" fill="white"/>
<path d="M150.052 56.11C151.144 56.11 151.972 55.75 152.536 55.03C153.112 54.31 153.4 53.23 153.4 51.79C153.4 50.362 153.112 49.288 152.536 48.568C151.972 47.836 151.144 47.47 150.052 47.47C148.96 47.47 148.126 47.836 147.55 48.568C146.986 49.288 146.704 50.362 146.704 51.79C146.704 53.23 146.986 54.31 147.55 55.03C148.126 55.75 148.96 56.11 150.052 56.11ZM150.052 58.27C149.116 58.27 148.27 58.126 147.514 57.838C146.758 57.538 146.116 57.112 145.588 56.56C145.072 55.996 144.67 55.312 144.382 54.508C144.106 53.704 143.968 52.798 143.968 51.79C143.968 50.782 144.106 49.882 144.382 49.09C144.67 48.286 145.072 47.608 145.588 47.056C146.116 46.492 146.758 46.06 147.514 45.76C148.27 45.46 149.116 45.31 150.052 45.31C150.988 45.31 151.834 45.46 152.59 45.76C153.346 46.06 153.982 46.492 154.498 47.056C155.026 47.608 155.428 48.286 155.704 49.09C155.992 49.882 156.136 50.782 156.136 51.79C156.136 52.798 155.992 53.704 155.704 54.508C155.428 55.312 155.026 55.996 154.498 56.56C153.982 57.112 153.346 57.538 152.59 57.838C151.834 58.126 150.988 58.27 150.052 58.27ZM160.662 50.458C160.938 49.846 161.364 49.396 161.94 49.108C162.516 48.82 163.128 48.676 163.776 48.676C164.868 48.676 165.75 49.066 166.422 49.846C167.094 50.614 167.43 51.748 167.43 53.248C167.43 53.98 167.34 54.652 167.16 55.264C166.992 55.876 166.74 56.404 166.404 56.848C166.08 57.28 165.678 57.622 165.198 57.874C164.718 58.114 164.178 58.234 163.578 58.234C163.074 58.234 162.564 58.138 162.048 57.946C161.544 57.742 161.136 57.394 160.824 56.902V61.78H158.268V48.91H159.744C160.356 48.91 160.662 49.18 160.662 49.72V50.458ZM160.752 53.572C160.752 54.412 160.92 55.072 161.256 55.552C161.604 56.02 162.114 56.254 162.786 56.254C163.146 56.254 163.452 56.182 163.704 56.038C163.968 55.894 164.178 55.696 164.334 55.444C164.502 55.18 164.622 54.874 164.694 54.526C164.778 54.178 164.82 53.806 164.82 53.41C164.82 52.522 164.658 51.844 164.334 51.376C164.01 50.896 163.524 50.656 162.876 50.656C162.192 50.656 161.664 50.92 161.292 51.448C160.932 51.964 160.752 52.672 160.752 53.572ZM174.362 56.038V57.946C174.17 57.994 173.96 58.03 173.732 58.054C173.504 58.078 173.234 58.09 172.922 58.09C171.842 58.09 171.05 57.844 170.546 57.352C170.042 56.848 169.79 56.032 169.79 54.904V50.854H168.44V48.91H169.79V46.732H172.346V48.91H174.362V50.854H172.346V54.67C172.346 55.21 172.466 55.576 172.706 55.768C172.946 55.948 173.378 56.038 174.002 56.038H174.362ZM178.578 58H176.022V48.91H178.578V58ZM176.004 45.184H178.596V47.506H176.004V45.184ZM189.958 53.446C189.958 54.202 189.844 54.88 189.616 55.48C189.4 56.068 189.088 56.566 188.68 56.974C188.272 57.382 187.78 57.694 187.204 57.91C186.628 58.126 185.986 58.234 185.278 58.234C184.57 58.234 183.928 58.126 183.352 57.91C182.776 57.694 182.284 57.382 181.876 56.974C181.468 56.566 181.15 56.068 180.922 55.48C180.706 54.88 180.598 54.202 180.598 53.446C180.598 52.69 180.706 52.018 180.922 51.43C181.15 50.842 181.468 50.344 181.876 49.936C182.284 49.528 182.776 49.216 183.352 49C183.928 48.784 184.57 48.676 185.278 48.676C185.986 48.676 186.628 48.784 187.204 49C187.78 49.216 188.272 49.528 188.68 49.936C189.088 50.344 189.4 50.842 189.616 51.43C189.844 52.018 189.958 52.69 189.958 53.446ZM187.348 53.446C187.348 52.522 187.168 51.826 186.808 51.358C186.46 50.89 185.95 50.656 185.278 50.656C184.606 50.656 184.09 50.89 183.73 51.358C183.382 51.826 183.208 52.522 183.208 53.446C183.208 54.382 183.382 55.084 183.73 55.552C184.09 56.02 184.606 56.254 185.278 56.254C185.95 56.254 186.46 56.02 186.808 55.552C187.168 55.084 187.348 54.382 187.348 53.446ZM191.965 48.91H193.423C194.035 48.91 194.341 49.174 194.341 49.702V50.368C194.581 49.852 194.959 49.444 195.475 49.144C195.991 48.832 196.609 48.676 197.329 48.676C198.301 48.676 199.051 48.958 199.579 49.522C200.119 50.086 200.389 50.932 200.389 52.06V58H197.833V52.24C197.833 51.184 197.365 50.656 196.429 50.656C195.841 50.656 195.373 50.866 195.025 51.286C194.689 51.706 194.521 52.288 194.521 53.032V58H191.965V48.91ZM202.197 55.444C202.197 54.496 202.539 53.776 203.223 53.284C203.907 52.78 204.849 52.528 206.049 52.528H207.525V52.168C207.525 51.64 207.381 51.256 207.093 51.016C206.817 50.764 206.373 50.638 205.761 50.638C205.305 50.638 204.867 50.704 204.447 50.836C204.027 50.968 203.643 51.154 203.295 51.394L202.413 49.9C202.917 49.516 203.487 49.216 204.123 49C204.759 48.784 205.443 48.676 206.175 48.676C207.423 48.676 208.359 48.976 208.983 49.576C209.619 50.176 209.937 51.04 209.937 52.168V55.66C209.937 55.936 209.985 56.122 210.081 56.218C210.177 56.302 210.351 56.344 210.603 56.344H210.801V57.91C210.669 57.958 210.513 58 210.333 58.036C210.153 58.072 209.937 58.09 209.685 58.09C209.157 58.09 208.761 57.982 208.497 57.766C208.233 57.55 208.077 57.232 208.029 56.812C207.813 57.244 207.453 57.586 206.949 57.838C206.445 58.09 205.869 58.216 205.221 58.216C204.309 58.216 203.577 57.97 203.025 57.478C202.473 56.986 202.197 56.308 202.197 55.444ZM205.869 56.38C206.385 56.38 206.787 56.212 207.075 55.876C207.375 55.54 207.525 55.066 207.525 54.454V53.986H206.283C205.755 53.986 205.347 54.094 205.059 54.31C204.783 54.514 204.645 54.826 204.645 55.246C204.645 55.63 204.753 55.918 204.969 56.11C205.197 56.29 205.497 56.38 205.869 56.38ZM214.981 45.094V54.904C214.981 55.384 215.053 55.702 215.197 55.858C215.353 56.002 215.659 56.074 216.115 56.074H216.277V58C216.013 58.06 215.629 58.09 215.125 58.09C214.153 58.09 213.457 57.85 213.037 57.37C212.629 56.89 212.425 56.17 212.425 55.21V45.094H214.981Z" fill="#8B8E97"/>
<path d="M353 407V435.5H711.5V216.5H698" stroke="#C9CACE"/>
<path d="M247 222L257 216.5L247 211V216H194L194 217H247V222Z" fill="#C9CACE"/>
<path d="M698 211L688 216.5L698 222L698 217L712 217L712 216L698 216L698 211Z" fill="#C9CACE"/>
<path d="M591 290L596.5 300L602 290L597 290L597 267L596 267L596 290L591 290Z" fill="#C9CACE"/>
<path d="M494 222L504 216.5L494 211V216H441L441 217H494V222Z" fill="#C9CACE"/>
<path d="M349.5 162L349.5 110" stroke="#C9CACE" stroke-width="2" stroke-dasharray="2 2"/>
<path d="M344 156.999L349.5 166.999L355 156.999L350 156.999L349 156.999L344 156.999Z" fill="#C9CACE"/>
<path d="M248 65.4999L102.999 65.4999L102.999 167" stroke="#C9CACE" stroke-width="2" stroke-dasharray="2 2"/>
<path d="M246.999 71L256.999 65.5L246.999 60V65V66V71Z" fill="#C9CACE"/>
<path d="M451 344L441 349.5L451 355L451 350L504 350L504 349L451 349L451 344Z" fill="#C9CACE"/>
</svg>
