<svg width="742" height="463" viewBox="0 0 742 463" fill="none" xmlns="http://www.w3.org/2000/svg">
<rect x="20" y="177" width="164" height="80" fill="#00285A"/>
<path d="M58.644 211V201.442L55.89 202.828L54.864 200.83L58.95 198.814H61.218V211H58.644ZM65.2995 211V208.264H68.0715V211H65.2995ZM77.3981 211H74.7701V198.58H77.3981V211ZM80.092 201.91H81.55C82.162 201.91 82.468 202.174 82.468 202.702V203.368C82.708 202.852 83.086 202.444 83.602 202.144C84.118 201.832 84.736 201.676 85.456 201.676C86.428 201.676 87.178 201.958 87.706 202.522C88.246 203.086 88.516 203.932 88.516 205.06V211H85.96V205.24C85.96 204.184 85.492 203.656 84.556 203.656C83.968 203.656 83.5 203.866 83.152 204.286C82.816 204.706 82.648 205.288 82.648 206.032V211H80.092V201.91ZM93.564 211H91.008V201.91H93.564V211ZM90.99 198.184H93.582V200.506H90.99V198.184ZM101.002 209.038V210.946C100.81 210.994 100.6 211.03 100.372 211.054C100.144 211.078 99.8741 211.09 99.5621 211.09C98.4821 211.09 97.6901 210.844 97.1861 210.352C96.6821 209.848 96.4301 209.032 96.4301 207.904V203.854H95.0801V201.91H96.4301V199.732H98.9861V201.91H101.002V203.854H98.9861V207.67C98.9861 208.21 99.1061 208.576 99.3461 208.768C99.5861 208.948 100.018 209.038 100.642 209.038H101.002ZM105.218 211H102.662V201.91H105.218V211ZM102.644 198.184H105.236V200.506H102.644V198.184ZM107.058 208.444C107.058 207.496 107.4 206.776 108.084 206.284C108.768 205.78 109.71 205.528 110.91 205.528H112.386V205.168C112.386 204.64 112.242 204.256 111.954 204.016C111.678 203.764 111.234 203.638 110.622 203.638C110.166 203.638 109.728 203.704 109.308 203.836C108.888 203.968 108.504 204.154 108.156 204.394L107.274 202.9C107.778 202.516 108.348 202.216 108.984 202C109.62 201.784 110.304 201.676 111.036 201.676C112.284 201.676 113.22 201.976 113.844 202.576C114.48 203.176 114.798 204.04 114.798 205.168V208.66C114.798 208.936 114.846 209.122 114.942 209.218C115.038 209.302 115.212 209.344 115.464 209.344H115.662V210.91C115.53 210.958 115.374 211 115.194 211.036C115.014 211.072 114.798 211.09 114.546 211.09C114.018 211.09 113.622 210.982 113.358 210.766C113.094 210.55 112.938 210.232 112.89 209.812C112.674 210.244 112.314 210.586 111.81 210.838C111.306 211.09 110.73 211.216 110.082 211.216C109.17 211.216 108.438 210.97 107.886 210.478C107.334 209.986 107.058 209.308 107.058 208.444ZM110.73 209.38C111.246 209.38 111.648 209.212 111.936 208.876C112.236 208.54 112.386 208.066 112.386 207.454V206.986H111.144C110.616 206.986 110.208 207.094 109.92 207.31C109.644 207.514 109.506 207.826 109.506 208.246C109.506 208.63 109.614 208.918 109.83 209.11C110.058 209.29 110.358 209.38 110.73 209.38ZM119.843 198.094V207.904C119.843 208.384 119.915 208.702 120.059 208.858C120.215 209.002 120.521 209.074 120.977 209.074H121.139V211C120.875 211.06 120.491 211.09 119.987 211.09C119.015 211.09 118.319 210.85 117.899 210.37C117.491 209.89 117.287 209.17 117.287 208.21V198.094H119.843ZM125.574 211H123.018V201.91H125.574V211ZM123 198.184H125.592V200.506H123V198.184ZM130.33 209.056H135.37V211H127.342V209.272L132.292 203.854H127.504V201.91H135.316V203.656L130.33 209.056ZM139.113 207.004C139.209 207.796 139.473 208.372 139.905 208.732C140.349 209.08 140.961 209.254 141.741 209.254C142.161 209.254 142.563 209.2 142.947 209.092C143.331 208.984 143.673 208.828 143.973 208.624L144.837 210.136C143.985 210.868 142.863 211.234 141.471 211.234C140.643 211.234 139.923 211.114 139.311 210.874C138.711 210.622 138.207 210.28 137.799 209.848C137.403 209.416 137.109 208.906 136.917 208.318C136.725 207.73 136.629 207.1 136.629 206.428C136.629 205.648 136.749 204.964 136.989 204.376C137.229 203.776 137.553 203.278 137.961 202.882C138.381 202.486 138.867 202.186 139.419 201.982C139.983 201.778 140.577 201.676 141.201 201.676C141.837 201.676 142.401 201.778 142.893 201.982C143.385 202.174 143.793 202.45 144.117 202.81C144.453 203.17 144.705 203.602 144.873 204.106C145.053 204.598 145.143 205.15 145.143 205.762C145.143 205.966 145.131 206.182 145.107 206.41C145.095 206.626 145.065 206.824 145.017 207.004H139.113ZM141.201 203.548C140.625 203.548 140.157 203.722 139.797 204.07C139.437 204.418 139.227 204.898 139.167 205.51H142.839V205.276C142.839 204.724 142.689 204.298 142.389 203.998C142.101 203.698 141.705 203.548 141.201 203.548ZM93.7249 234.136C93.2569 234.484 92.6929 234.76 92.0329 234.964C91.3849 235.168 90.6469 235.27 89.8189 235.27C88.8229 235.27 87.9409 235.12 87.1729 234.82C86.4049 234.508 85.7569 234.076 85.2289 233.524C84.7009 232.96 84.2989 232.282 84.0229 231.49C83.7469 230.686 83.6089 229.792 83.6089 228.808C83.6089 227.776 83.7589 226.858 84.0589 226.054C84.3589 225.238 84.7849 224.554 85.3369 224.002C85.8889 223.45 86.5489 223.03 87.3169 222.742C88.0969 222.454 88.9669 222.31 89.9269 222.31C91.4389 222.31 92.6569 222.664 93.5809 223.372L92.6089 225.19C92.2369 224.938 91.8409 224.758 91.4209 224.65C91.0129 224.53 90.5809 224.47 90.1249 224.47C88.8889 224.47 87.9469 224.842 87.2989 225.586C86.6629 226.33 86.3449 227.404 86.3449 228.808C86.3449 230.2 86.6629 231.262 87.2989 231.994C87.9469 232.726 88.8889 233.092 90.1249 233.092C90.6649 233.092 91.1509 233.026 91.5829 232.894C92.0149 232.75 92.4049 232.558 92.7529 232.318L93.7249 234.136ZM103.828 230.446C103.828 231.202 103.714 231.88 103.486 232.48C103.27 233.068 102.958 233.566 102.55 233.974C102.142 234.382 101.65 234.694 101.074 234.91C100.498 235.126 99.8559 235.234 99.1479 235.234C98.4399 235.234 97.7979 235.126 97.2219 234.91C96.6459 234.694 96.1539 234.382 95.7459 233.974C95.3379 233.566 95.0199 233.068 94.7919 232.48C94.5759 231.88 94.4679 231.202 94.4679 230.446C94.4679 229.69 94.5759 229.018 94.7919 228.43C95.0199 227.842 95.3379 227.344 95.7459 226.936C96.1539 226.528 96.6459 226.216 97.2219 226C97.7979 225.784 98.4399 225.676 99.1479 225.676C99.8559 225.676 100.498 225.784 101.074 226C101.65 226.216 102.142 226.528 102.55 226.936C102.958 227.344 103.27 227.842 103.486 228.43C103.714 229.018 103.828 229.69 103.828 230.446ZM101.218 230.446C101.218 229.522 101.038 228.826 100.678 228.358C100.33 227.89 99.8199 227.656 99.1479 227.656C98.4759 227.656 97.9599 227.89 97.5999 228.358C97.2519 228.826 97.0779 229.522 97.0779 230.446C97.0779 231.382 97.2519 232.084 97.5999 232.552C97.9599 233.02 98.4759 233.254 99.1479 233.254C99.8199 233.254 100.33 233.02 100.678 232.552C101.038 232.084 101.218 231.382 101.218 230.446ZM105.835 225.91H107.293C107.905 225.91 108.211 226.174 108.211 226.702V227.818C108.403 227.206 108.721 226.72 109.165 226.36C109.621 225.988 110.185 225.802 110.857 225.802C111.133 225.802 111.373 225.832 111.577 225.892V227.98H111.055C110.143 227.98 109.471 228.214 109.039 228.682C108.607 229.15 108.391 229.93 108.391 231.022V235H105.835V225.91ZM114.583 231.004C114.679 231.796 114.943 232.372 115.375 232.732C115.819 233.08 116.431 233.254 117.211 233.254C117.631 233.254 118.033 233.2 118.417 233.092C118.801 232.984 119.143 232.828 119.443 232.624L120.307 234.136C119.455 234.868 118.333 235.234 116.941 235.234C116.113 235.234 115.393 235.114 114.781 234.874C114.181 234.622 113.677 234.28 113.269 233.848C112.873 233.416 112.579 232.906 112.387 232.318C112.195 231.73 112.099 231.1 112.099 230.428C112.099 229.648 112.219 228.964 112.459 228.376C112.699 227.776 113.023 227.278 113.431 226.882C113.851 226.486 114.337 226.186 114.889 225.982C115.453 225.778 116.047 225.676 116.671 225.676C117.307 225.676 117.871 225.778 118.363 225.982C118.855 226.174 119.263 226.45 119.587 226.81C119.923 227.17 120.175 227.602 120.343 228.106C120.523 228.598 120.613 229.15 120.613 229.762C120.613 229.966 120.601 230.182 120.577 230.41C120.565 230.626 120.535 230.824 120.487 231.004H114.583ZM116.671 227.548C116.095 227.548 115.627 227.722 115.267 228.07C114.907 228.418 114.697 228.898 114.637 229.51H118.309V229.276C118.309 228.724 118.159 228.298 117.859 227.998C117.571 227.698 117.175 227.548 116.671 227.548Z" fill="white"/>
<rect x="267" y="177" width="164" height="80" fill="#00285A"/>
<path d="M298.787 213.946C298.787 214.594 298.649 215.152 298.373 215.62C298.097 216.076 297.695 216.442 297.167 216.718C298.595 217.162 299.309 218.11 299.309 219.562C299.309 220.126 299.201 220.636 298.985 221.092C298.769 221.548 298.457 221.938 298.049 222.262C297.641 222.574 297.149 222.814 296.573 222.982C295.997 223.15 295.349 223.234 294.629 223.234C293.765 223.234 292.979 223.108 292.271 222.856C291.575 222.604 290.975 222.256 290.471 221.812L291.569 220.174C292.025 220.498 292.487 220.744 292.955 220.912C293.423 221.068 293.927 221.146 294.467 221.146C295.187 221.146 295.733 220.996 296.105 220.696C296.489 220.384 296.681 219.94 296.681 219.364C296.681 218.356 295.985 217.852 294.593 217.852H292.775V215.872H294.431C295.031 215.872 295.469 215.716 295.745 215.404C296.021 215.092 296.159 214.708 296.159 214.252C296.159 213.748 296.009 213.358 295.709 213.082C295.409 212.806 294.947 212.668 294.323 212.668C293.903 212.668 293.477 212.74 293.045 212.884C292.613 213.028 292.205 213.238 291.821 213.514L290.741 211.912C291.293 211.48 291.899 211.15 292.559 210.922C293.219 210.694 293.921 210.58 294.665 210.58C295.277 210.58 295.835 210.658 296.339 210.814C296.855 210.958 297.293 211.174 297.653 211.462C298.013 211.738 298.289 212.086 298.481 212.506C298.685 212.926 298.787 213.406 298.787 213.946ZM301.392 223V220.264H304.164V223H301.392ZM313.491 220.948H319.071V223H310.863V210.58H313.491V220.948ZM329.224 218.446C329.224 219.202 329.11 219.88 328.882 220.48C328.666 221.068 328.354 221.566 327.946 221.974C327.538 222.382 327.046 222.694 326.47 222.91C325.894 223.126 325.252 223.234 324.544 223.234C323.836 223.234 323.194 223.126 322.618 222.91C322.042 222.694 321.55 222.382 321.142 221.974C320.734 221.566 320.416 221.068 320.188 220.48C319.972 219.88 319.864 219.202 319.864 218.446C319.864 217.69 319.972 217.018 320.188 216.43C320.416 215.842 320.734 215.344 321.142 214.936C321.55 214.528 322.042 214.216 322.618 214C323.194 213.784 323.836 213.676 324.544 213.676C325.252 213.676 325.894 213.784 326.47 214C327.046 214.216 327.538 214.528 327.946 214.936C328.354 215.344 328.666 215.842 328.882 216.43C329.11 217.018 329.224 217.69 329.224 218.446ZM326.614 218.446C326.614 217.522 326.434 216.826 326.074 216.358C325.726 215.89 325.216 215.656 324.544 215.656C323.872 215.656 323.356 215.89 322.996 216.358C322.648 216.826 322.474 217.522 322.474 218.446C322.474 219.382 322.648 220.084 322.996 220.552C323.356 221.02 323.872 221.254 324.544 221.254C325.216 221.254 325.726 221.02 326.074 220.552C326.434 220.084 326.614 219.382 326.614 218.446ZM330.548 220.444C330.548 219.496 330.89 218.776 331.574 218.284C332.258 217.78 333.2 217.528 334.4 217.528H335.876V217.168C335.876 216.64 335.732 216.256 335.444 216.016C335.168 215.764 334.724 215.638 334.112 215.638C333.656 215.638 333.218 215.704 332.798 215.836C332.378 215.968 331.994 216.154 331.646 216.394L330.764 214.9C331.268 214.516 331.838 214.216 332.474 214C333.11 213.784 333.794 213.676 334.526 213.676C335.774 213.676 336.71 213.976 337.334 214.576C337.97 215.176 338.288 216.04 338.288 217.168V220.66C338.288 220.936 338.336 221.122 338.432 221.218C338.528 221.302 338.702 221.344 338.954 221.344H339.152V222.91C339.02 222.958 338.864 223 338.684 223.036C338.504 223.072 338.288 223.09 338.036 223.09C337.508 223.09 337.112 222.982 336.848 222.766C336.584 222.55 336.428 222.232 336.38 221.812C336.164 222.244 335.804 222.586 335.3 222.838C334.796 223.09 334.22 223.216 333.572 223.216C332.66 223.216 331.928 222.97 331.376 222.478C330.824 221.986 330.548 221.308 330.548 220.444ZM334.22 221.38C334.736 221.38 335.138 221.212 335.426 220.876C335.726 220.54 335.876 220.066 335.876 219.454V218.986H334.634C334.106 218.986 333.698 219.094 333.41 219.31C333.134 219.514 332.996 219.826 332.996 220.246C332.996 220.63 333.104 220.918 333.32 221.11C333.548 221.29 333.848 221.38 334.22 221.38ZM349.47 223H347.994C347.382 223 347.076 222.73 347.076 222.19V221.596C346.836 222.1 346.464 222.502 345.96 222.802C345.468 223.09 344.874 223.234 344.178 223.234C343.578 223.234 343.038 223.12 342.558 222.892C342.078 222.664 341.67 222.346 341.334 221.938C341.01 221.518 340.758 221.014 340.578 220.426C340.398 219.838 340.308 219.178 340.308 218.446C340.308 217.69 340.404 217.018 340.596 216.43C340.788 215.83 341.058 215.332 341.406 214.936C341.754 214.528 342.168 214.216 342.648 214C343.14 213.784 343.686 213.676 344.286 213.676C344.862 213.676 345.378 213.79 345.834 214.018C346.29 214.246 346.65 214.57 346.914 214.99V210.094H349.47V223ZM346.986 218.464C346.986 217.588 346.812 216.904 346.464 216.412C346.128 215.908 345.63 215.656 344.97 215.656C344.322 215.656 343.818 215.902 343.458 216.394C343.098 216.886 342.918 217.576 342.918 218.464C342.918 219.364 343.086 220.054 343.422 220.534C343.758 221.014 344.256 221.254 344.916 221.254C345.564 221.254 346.068 221.008 346.428 220.516C346.8 220.012 346.986 219.328 346.986 218.464ZM359.05 214.504V223H356.566V210.58H359.464L362.83 217.348L366.214 210.58H369.004V223H366.52V214.486L363.82 219.868H361.75L359.05 214.504ZM380.553 218.446C380.553 219.202 380.439 219.88 380.211 220.48C379.995 221.068 379.683 221.566 379.275 221.974C378.867 222.382 378.375 222.694 377.799 222.91C377.223 223.126 376.581 223.234 375.873 223.234C375.165 223.234 374.523 223.126 373.947 222.91C373.371 222.694 372.879 222.382 372.471 221.974C372.063 221.566 371.745 221.068 371.517 220.48C371.301 219.88 371.193 219.202 371.193 218.446C371.193 217.69 371.301 217.018 371.517 216.43C371.745 215.842 372.063 215.344 372.471 214.936C372.879 214.528 373.371 214.216 373.947 214C374.523 213.784 375.165 213.676 375.873 213.676C376.581 213.676 377.223 213.784 377.799 214C378.375 214.216 378.867 214.528 379.275 214.936C379.683 215.344 379.995 215.842 380.211 216.43C380.439 217.018 380.553 217.69 380.553 218.446ZM377.943 218.446C377.943 217.522 377.763 216.826 377.403 216.358C377.055 215.89 376.545 215.656 375.873 215.656C375.201 215.656 374.685 215.89 374.325 216.358C373.977 216.826 373.803 217.522 373.803 218.446C373.803 219.382 373.977 220.084 374.325 220.552C374.685 221.02 375.201 221.254 375.873 221.254C376.545 221.254 377.055 221.02 377.403 220.552C377.763 220.084 377.943 219.382 377.943 218.446ZM391.218 223H389.742C389.13 223 388.824 222.73 388.824 222.19V221.596C388.584 222.1 388.212 222.502 387.708 222.802C387.216 223.09 386.622 223.234 385.926 223.234C385.326 223.234 384.786 223.12 384.306 222.892C383.826 222.664 383.418 222.346 383.082 221.938C382.758 221.518 382.506 221.014 382.326 220.426C382.146 219.838 382.056 219.178 382.056 218.446C382.056 217.69 382.152 217.018 382.344 216.43C382.536 215.83 382.806 215.332 383.154 214.936C383.502 214.528 383.916 214.216 384.396 214C384.888 213.784 385.434 213.676 386.034 213.676C386.61 213.676 387.126 213.79 387.582 214.018C388.038 214.246 388.398 214.57 388.662 214.99V210.094H391.218V223ZM388.734 218.464C388.734 217.588 388.56 216.904 388.212 216.412C387.876 215.908 387.378 215.656 386.718 215.656C386.07 215.656 385.566 215.902 385.206 216.394C384.846 216.886 384.666 217.576 384.666 218.464C384.666 219.364 384.834 220.054 385.17 220.534C385.506 221.014 386.004 221.254 386.664 221.254C387.312 221.254 387.816 221.008 388.176 220.516C388.548 220.012 388.734 219.328 388.734 218.464ZM395.719 219.004C395.815 219.796 396.079 220.372 396.511 220.732C396.955 221.08 397.567 221.254 398.347 221.254C398.767 221.254 399.169 221.2 399.553 221.092C399.937 220.984 400.279 220.828 400.579 220.624L401.443 222.136C400.591 222.868 399.469 223.234 398.077 223.234C397.249 223.234 396.529 223.114 395.917 222.874C395.317 222.622 394.813 222.28 394.405 221.848C394.009 221.416 393.715 220.906 393.523 220.318C393.331 219.73 393.235 219.1 393.235 218.428C393.235 217.648 393.355 216.964 393.595 216.376C393.835 215.776 394.159 215.278 394.567 214.882C394.987 214.486 395.473 214.186 396.025 213.982C396.589 213.778 397.183 213.676 397.807 213.676C398.443 213.676 399.007 213.778 399.499 213.982C399.991 214.174 400.399 214.45 400.723 214.81C401.059 215.17 401.311 215.602 401.479 216.106C401.659 216.598 401.749 217.15 401.749 217.762C401.749 217.966 401.737 218.182 401.713 218.41C401.701 218.626 401.671 218.824 401.623 219.004H395.719ZM397.807 215.548C397.231 215.548 396.763 215.722 396.403 216.07C396.043 216.418 395.833 216.898 395.773 217.51H399.445V217.276C399.445 216.724 399.295 216.298 398.995 215.998C398.707 215.698 398.311 215.548 397.807 215.548ZM406.244 210.094V219.904C406.244 220.384 406.316 220.702 406.46 220.858C406.616 221.002 406.922 221.074 407.378 221.074H407.54V223C407.276 223.06 406.892 223.09 406.388 223.09C405.416 223.09 404.72 222.85 404.3 222.37C403.892 221.89 403.688 221.17 403.688 220.21V210.094H406.244Z" fill="white"/>
<rect x="267" y="310" width="164" height="80" fill="#00285A"/>
<path d="M328.639 346.298C328.039 345.878 327.301 345.668 326.425 345.668C325.405 345.668 324.613 345.992 324.049 346.64C323.497 347.276 323.185 348.248 323.113 349.556C323.269 349.28 323.467 349.046 323.707 348.854C323.947 348.65 324.205 348.488 324.481 348.368C324.769 348.236 325.063 348.146 325.363 348.098C325.675 348.038 325.975 348.008 326.263 348.008C326.815 348.008 327.313 348.098 327.757 348.278C328.213 348.446 328.603 348.692 328.927 349.016C329.251 349.328 329.497 349.718 329.665 350.186C329.845 350.642 329.935 351.158 329.935 351.734C329.935 352.418 329.833 353.042 329.629 353.606C329.425 354.158 329.131 354.632 328.747 355.028C328.375 355.412 327.913 355.712 327.361 355.928C326.821 356.132 326.215 356.234 325.543 356.234C324.799 356.234 324.127 356.102 323.527 355.838C322.927 355.574 322.411 355.19 321.979 354.686C321.559 354.17 321.235 353.54 321.007 352.796C320.779 352.04 320.665 351.17 320.665 350.186C320.665 349.13 320.797 348.194 321.061 347.378C321.325 346.562 321.697 345.872 322.177 345.308C322.669 344.744 323.257 344.318 323.941 344.03C324.625 343.73 325.393 343.58 326.245 343.58C326.881 343.58 327.481 343.658 328.045 343.814C328.621 343.97 329.119 344.204 329.539 344.516L328.639 346.298ZM327.415 352.04C327.415 351.344 327.253 350.828 326.929 350.492C326.605 350.156 326.137 349.988 325.525 349.988C324.877 349.988 324.373 350.168 324.013 350.528C323.665 350.876 323.491 351.392 323.491 352.076C323.491 352.796 323.665 353.342 324.013 353.714C324.373 354.074 324.859 354.254 325.471 354.254C326.095 354.254 326.575 354.062 326.911 353.678C327.247 353.282 327.415 352.736 327.415 352.04ZM331.371 356V353.264H334.143V356H331.371ZM343.469 356H340.841V343.58H343.469V356ZM346.163 346.91H347.621C348.233 346.91 348.539 347.174 348.539 347.702V348.368C348.779 347.852 349.157 347.444 349.673 347.144C350.189 346.832 350.807 346.676 351.527 346.676C352.499 346.676 353.249 346.958 353.777 347.522C354.317 348.086 354.587 348.932 354.587 350.06V356H352.031V350.24C352.031 349.184 351.563 348.656 350.627 348.656C350.039 348.656 349.571 348.866 349.223 349.286C348.887 349.706 348.719 350.288 348.719 351.032V356H346.163V346.91ZM362.245 345.092H361.831C361.159 345.092 360.673 345.194 360.373 345.398C360.085 345.59 359.941 345.992 359.941 346.604V346.91H362.155V348.854H359.941V356H357.385V348.854H356.035V346.91H357.385V346.244C357.385 345.188 357.691 344.39 358.303 343.85C358.915 343.31 359.803 343.04 360.967 343.04C361.171 343.04 361.393 343.052 361.633 343.076C361.873 343.088 362.077 343.118 362.245 343.166V345.092ZM365.405 352.004C365.501 352.796 365.765 353.372 366.197 353.732C366.641 354.08 367.253 354.254 368.033 354.254C368.453 354.254 368.855 354.2 369.239 354.092C369.623 353.984 369.965 353.828 370.265 353.624L371.129 355.136C370.277 355.868 369.155 356.234 367.763 356.234C366.935 356.234 366.215 356.114 365.603 355.874C365.003 355.622 364.499 355.28 364.091 354.848C363.695 354.416 363.401 353.906 363.209 353.318C363.017 352.73 362.921 352.1 362.921 351.428C362.921 350.648 363.041 349.964 363.281 349.376C363.521 348.776 363.845 348.278 364.253 347.882C364.673 347.486 365.159 347.186 365.711 346.982C366.275 346.778 366.869 346.676 367.493 346.676C368.129 346.676 368.693 346.778 369.185 346.982C369.677 347.174 370.085 347.45 370.409 347.81C370.745 348.17 370.997 348.602 371.165 349.106C371.345 349.598 371.435 350.15 371.435 350.762C371.435 350.966 371.423 351.182 371.399 351.41C371.387 351.626 371.357 351.824 371.309 352.004H365.405ZM367.493 348.548C366.917 348.548 366.449 348.722 366.089 349.07C365.729 349.418 365.519 349.898 365.459 350.51H369.131V350.276C369.131 349.724 368.981 349.298 368.681 348.998C368.393 348.698 367.997 348.548 367.493 348.548ZM373.409 346.91H374.867C375.479 346.91 375.785 347.174 375.785 347.702V348.818C375.977 348.206 376.295 347.72 376.739 347.36C377.195 346.988 377.759 346.802 378.431 346.802C378.707 346.802 378.947 346.832 379.151 346.892V348.98H378.629C377.717 348.98 377.045 349.214 376.613 349.682C376.181 350.15 375.965 350.93 375.965 352.022V356H373.409V346.91Z" fill="white"/>
<rect x="20" y="310" width="164" height="80" fill="#00285A"/>
<path d="M30.8433 356L35.3073 345.884H28.8633V343.814H37.8273V345.74L33.3453 356H30.8433ZM39.7488 356V353.264H42.5208V356H39.7488ZM51.7933 351.734V356H49.2193V343.58H53.8633C55.2913 343.58 56.3953 343.934 57.1753 344.642C57.9553 345.338 58.3453 346.346 58.3453 347.666C58.3453 348.938 57.9553 349.934 57.1753 350.654C56.4073 351.374 55.2973 351.734 53.8453 351.734H51.7933ZM51.7933 345.506V349.808H53.4313C54.1993 349.808 54.7753 349.64 55.1593 349.304C55.5433 348.968 55.7353 348.422 55.7353 347.666C55.7353 346.91 55.5433 346.364 55.1593 346.028C54.7873 345.68 54.2173 345.506 53.4493 345.506H51.7933ZM60.3596 346.91H61.8176C62.4296 346.91 62.7356 347.174 62.7356 347.702V348.818C62.9276 348.206 63.2456 347.72 63.6896 347.36C64.1456 346.988 64.7096 346.802 65.3816 346.802C65.6576 346.802 65.8976 346.832 66.1016 346.892V348.98H65.5796C64.6676 348.98 63.9956 349.214 63.5636 349.682C63.1316 350.15 62.9156 350.93 62.9156 352.022V356H60.3596V346.91ZM75.9832 351.446C75.9832 352.202 75.8692 352.88 75.6412 353.48C75.4252 354.068 75.1132 354.566 74.7052 354.974C74.2972 355.382 73.8052 355.694 73.2292 355.91C72.6532 356.126 72.0112 356.234 71.3032 356.234C70.5952 356.234 69.9532 356.126 69.3772 355.91C68.8012 355.694 68.3092 355.382 67.9012 354.974C67.4932 354.566 67.1752 354.068 66.9472 353.48C66.7312 352.88 66.6232 352.202 66.6232 351.446C66.6232 350.69 66.7312 350.018 66.9472 349.43C67.1752 348.842 67.4932 348.344 67.9012 347.936C68.3092 347.528 68.8012 347.216 69.3772 347C69.9532 346.784 70.5952 346.676 71.3032 346.676C72.0112 346.676 72.6532 346.784 73.2292 347C73.8052 347.216 74.2972 347.528 74.7052 347.936C75.1132 348.344 75.4252 348.842 75.6412 349.43C75.8692 350.018 75.9832 350.69 75.9832 351.446ZM73.3732 351.446C73.3732 350.522 73.1932 349.826 72.8332 349.358C72.4852 348.89 71.9752 348.656 71.3032 348.656C70.6312 348.656 70.1152 348.89 69.7552 349.358C69.4072 349.826 69.2332 350.522 69.2332 351.446C69.2332 352.382 69.4072 353.084 69.7552 353.552C70.1152 354.02 70.6312 354.254 71.3032 354.254C71.9752 354.254 72.4852 354.02 72.8332 353.552C73.1932 353.084 73.3732 352.382 73.3732 351.446ZM80.0965 351.446C80.0965 352.334 80.3005 353.012 80.7085 353.48C81.1285 353.936 81.7585 354.164 82.5985 354.164C82.9465 354.164 83.2825 354.122 83.6065 354.038C83.9425 353.942 84.2305 353.81 84.4705 353.642L85.2265 355.388C84.8785 355.64 84.4585 355.844 83.9665 356C83.4745 356.156 82.9045 356.234 82.2565 356.234C81.5125 356.234 80.8465 356.126 80.2585 355.91C79.6705 355.682 79.1725 355.364 78.7645 354.956C78.3565 354.548 78.0385 354.05 77.8105 353.462C77.5945 352.874 77.4865 352.208 77.4865 351.464C77.4865 350.72 77.6005 350.054 77.8285 349.466C78.0565 348.878 78.3745 348.38 78.7825 347.972C79.2025 347.552 79.7065 347.234 80.2945 347.018C80.8945 346.79 81.5665 346.676 82.3105 346.676C82.9105 346.676 83.4445 346.748 83.9125 346.892C84.3805 347.036 84.7885 347.228 85.1365 347.468L84.3625 349.214C84.1345 349.058 83.8705 348.944 83.5705 348.872C83.2705 348.788 82.9525 348.746 82.6165 348.746C81.8485 348.746 81.2365 348.968 80.7805 349.412C80.3245 349.844 80.0965 350.522 80.0965 351.446ZM88.6541 352.004C88.7501 352.796 89.0141 353.372 89.4461 353.732C89.8901 354.08 90.5021 354.254 91.2821 354.254C91.7021 354.254 92.1041 354.2 92.4881 354.092C92.8721 353.984 93.2141 353.828 93.5141 353.624L94.3781 355.136C93.5261 355.868 92.4041 356.234 91.0121 356.234C90.1841 356.234 89.4641 356.114 88.8521 355.874C88.2521 355.622 87.7481 355.28 87.3401 354.848C86.9441 354.416 86.6501 353.906 86.4581 353.318C86.2661 352.73 86.1701 352.1 86.1701 351.428C86.1701 350.648 86.2901 349.964 86.5301 349.376C86.7701 348.776 87.0941 348.278 87.5021 347.882C87.9221 347.486 88.4081 347.186 88.9601 346.982C89.5241 346.778 90.1181 346.676 90.7421 346.676C91.3781 346.676 91.9421 346.778 92.4341 346.982C92.9261 347.174 93.3341 347.45 93.6581 347.81C93.9941 348.17 94.2461 348.602 94.4141 349.106C94.5941 349.598 94.6841 350.15 94.6841 350.762C94.6841 350.966 94.6721 351.182 94.6481 351.41C94.6361 351.626 94.6061 351.824 94.5581 352.004H88.6541ZM90.7421 348.548C90.1661 348.548 89.6981 348.722 89.3381 349.07C88.9781 349.418 88.7681 349.898 88.7081 350.51H92.3801V350.276C92.3801 349.724 92.2301 349.298 91.9301 348.998C91.6421 348.698 91.2461 348.548 90.7421 348.548ZM100.132 348.62C99.7124 348.62 99.3824 348.692 99.1424 348.836C98.9024 348.968 98.7824 349.172 98.7824 349.448C98.7824 349.676 98.8544 349.856 98.9984 349.988C99.1424 350.108 99.3344 350.204 99.5744 350.276L100.942 350.69C101.782 350.942 102.4 351.272 102.796 351.68C103.204 352.076 103.408 352.616 103.408 353.3C103.408 354.212 103.066 354.932 102.382 355.46C101.71 355.976 100.786 356.234 99.6104 356.234C98.8664 356.234 98.1824 356.132 97.5584 355.928C96.9344 355.712 96.3824 355.412 95.9024 355.028L96.8564 353.408C97.2524 353.684 97.6784 353.9 98.1344 354.056C98.6024 354.212 99.0584 354.29 99.5024 354.29C99.9224 354.29 100.252 354.212 100.492 354.056C100.732 353.9 100.852 353.66 100.852 353.336C100.852 353.12 100.786 352.946 100.654 352.814C100.534 352.67 100.318 352.55 100.006 352.454L98.5124 352.022C97.7684 351.806 97.1984 351.494 96.8024 351.086C96.4184 350.666 96.2264 350.12 96.2264 349.448C96.2264 348.992 96.3164 348.596 96.4964 348.26C96.6764 347.912 96.9224 347.624 97.2344 347.396C97.5584 347.156 97.9424 346.976 98.3864 346.856C98.8304 346.736 99.3164 346.676 99.8444 346.676C100.492 346.676 101.122 346.766 101.734 346.946C102.346 347.114 102.862 347.354 103.282 347.666L102.472 349.286C101.728 348.842 100.948 348.62 100.132 348.62ZM108.834 348.62C108.414 348.62 108.084 348.692 107.844 348.836C107.604 348.968 107.484 349.172 107.484 349.448C107.484 349.676 107.556 349.856 107.7 349.988C107.844 350.108 108.036 350.204 108.276 350.276L109.644 350.69C110.484 350.942 111.102 351.272 111.498 351.68C111.906 352.076 112.11 352.616 112.11 353.3C112.11 354.212 111.768 354.932 111.084 355.46C110.412 355.976 109.488 356.234 108.312 356.234C107.568 356.234 106.884 356.132 106.26 355.928C105.636 355.712 105.084 355.412 104.604 355.028L105.558 353.408C105.954 353.684 106.38 353.9 106.836 354.056C107.304 354.212 107.76 354.29 108.204 354.29C108.624 354.29 108.954 354.212 109.194 354.056C109.434 353.9 109.554 353.66 109.554 353.336C109.554 353.12 109.488 352.946 109.356 352.814C109.236 352.67 109.02 352.55 108.708 352.454L107.214 352.022C106.47 351.806 105.9 351.494 105.504 351.086C105.12 350.666 104.928 350.12 104.928 349.448C104.928 348.992 105.018 348.596 105.198 348.26C105.378 347.912 105.624 347.624 105.936 347.396C106.26 347.156 106.644 346.976 107.088 346.856C107.532 346.736 108.018 346.676 108.546 346.676C109.194 346.676 109.824 346.766 110.436 346.946C111.048 347.114 111.564 347.354 111.984 347.666L111.174 349.286C110.43 348.842 109.65 348.62 108.834 348.62ZM124.143 354.11C125.235 354.11 126.063 353.75 126.627 353.03C127.203 352.31 127.491 351.23 127.491 349.79C127.491 348.362 127.203 347.288 126.627 346.568C126.063 345.836 125.235 345.47 124.143 345.47C123.051 345.47 122.217 345.836 121.641 346.568C121.077 347.288 120.795 348.362 120.795 349.79C120.795 351.23 121.077 352.31 121.641 353.03C122.217 353.75 123.051 354.11 124.143 354.11ZM124.143 356.27C123.207 356.27 122.361 356.126 121.605 355.838C120.849 355.538 120.207 355.112 119.679 354.56C119.163 353.996 118.761 353.312 118.473 352.508C118.197 351.704 118.059 350.798 118.059 349.79C118.059 348.782 118.197 347.882 118.473 347.09C118.761 346.286 119.163 345.608 119.679 345.056C120.207 344.492 120.849 344.06 121.605 343.76C122.361 343.46 123.207 343.31 124.143 343.31C125.079 343.31 125.925 343.46 126.681 343.76C127.437 344.06 128.073 344.492 128.589 345.056C129.117 345.608 129.519 346.286 129.795 347.09C130.083 347.882 130.227 348.782 130.227 349.79C130.227 350.798 130.083 351.704 129.795 352.508C129.519 353.312 129.117 353.996 128.589 354.56C128.073 355.112 127.437 355.538 126.681 355.838C125.925 356.126 125.079 356.27 124.143 356.27ZM140.532 356H139.074C138.738 356 138.498 355.928 138.354 355.784C138.21 355.64 138.138 355.418 138.138 355.118V354.614C137.898 355.154 137.526 355.562 137.022 355.838C136.53 356.102 135.96 356.234 135.312 356.234C134.316 356.234 133.56 355.94 133.044 355.352C132.54 354.764 132.288 353.906 132.288 352.778V346.91H134.844V352.616C134.844 353.204 134.958 353.624 135.186 353.876C135.414 354.128 135.75 354.254 136.194 354.254C136.782 354.254 137.226 354.044 137.526 353.624C137.826 353.204 137.976 352.634 137.976 351.914V346.91H140.532V356ZM147.961 354.038V355.946C147.769 355.994 147.559 356.03 147.331 356.054C147.103 356.078 146.833 356.09 146.521 356.09C145.441 356.09 144.649 355.844 144.145 355.352C143.641 354.848 143.389 354.032 143.389 352.904V348.854H142.039V346.91H143.389V344.732H145.945V346.91H147.961V348.854H145.945V352.67C145.945 353.21 146.065 353.576 146.305 353.768C146.545 353.948 146.977 354.038 147.601 354.038H147.961ZM152.015 348.458C152.291 347.846 152.717 347.396 153.293 347.108C153.869 346.82 154.481 346.676 155.129 346.676C156.221 346.676 157.103 347.066 157.775 347.846C158.447 348.614 158.783 349.748 158.783 351.248C158.783 351.98 158.693 352.652 158.513 353.264C158.345 353.876 158.093 354.404 157.757 354.848C157.433 355.28 157.031 355.622 156.551 355.874C156.071 356.114 155.531 356.234 154.931 356.234C154.427 356.234 153.917 356.138 153.401 355.946C152.897 355.742 152.489 355.394 152.177 354.902V359.78H149.621V346.91H151.097C151.709 346.91 152.015 347.18 152.015 347.72V348.458ZM152.105 351.572C152.105 352.412 152.273 353.072 152.609 353.552C152.957 354.02 153.467 354.254 154.139 354.254C154.499 354.254 154.805 354.182 155.057 354.038C155.321 353.894 155.531 353.696 155.687 353.444C155.855 353.18 155.975 352.874 156.047 352.526C156.131 352.178 156.173 351.806 156.173 351.41C156.173 350.522 156.011 349.844 155.687 349.376C155.363 348.896 154.877 348.656 154.229 348.656C153.545 348.656 153.017 348.92 152.645 349.448C152.285 349.964 152.105 350.672 152.105 351.572ZM168.973 356H167.515C167.179 356 166.939 355.928 166.795 355.784C166.651 355.64 166.579 355.418 166.579 355.118V354.614C166.339 355.154 165.967 355.562 165.463 355.838C164.971 356.102 164.401 356.234 163.753 356.234C162.757 356.234 162.001 355.94 161.485 355.352C160.981 354.764 160.729 353.906 160.729 352.778V346.91H163.285V352.616C163.285 353.204 163.399 353.624 163.627 353.876C163.855 354.128 164.191 354.254 164.635 354.254C165.223 354.254 165.667 354.044 165.967 353.624C166.267 353.204 166.417 352.634 166.417 351.914V346.91H168.973V356ZM176.403 354.038V355.946C176.211 355.994 176.001 356.03 175.773 356.054C175.545 356.078 175.275 356.09 174.963 356.09C173.883 356.09 173.091 355.844 172.587 355.352C172.083 354.848 171.831 354.032 171.831 352.904V348.854H170.481V346.91H171.831V344.732H174.387V346.91H176.403V348.854H174.387V352.67C174.387 353.21 174.507 353.576 174.747 353.768C174.987 353.948 175.419 354.038 176.043 354.038H176.403Z" fill="white"/>
<path d="M290.533 428H287.905V415.58H290.533V428ZM293.227 418.91H294.685C295.297 418.91 295.603 419.174 295.603 419.702V420.368C295.843 419.852 296.221 419.444 296.737 419.144C297.253 418.832 297.871 418.676 298.591 418.676C299.563 418.676 300.313 418.958 300.841 419.522C301.381 420.086 301.651 420.932 301.651 422.06V428H299.095V422.24C299.095 421.184 298.627 420.656 297.691 420.656C297.103 420.656 296.635 420.866 296.287 421.286C295.951 421.706 295.783 422.288 295.783 423.032V428H293.227V418.91ZM309.309 417.092H308.895C308.223 417.092 307.737 417.194 307.437 417.398C307.149 417.59 307.005 417.992 307.005 418.604V418.91H309.219V420.854H307.005V428H304.449V420.854H303.099V418.91H304.449V418.244C304.449 417.188 304.755 416.39 305.367 415.85C305.979 415.31 306.867 415.04 308.031 415.04C308.235 415.04 308.457 415.052 308.697 415.076C308.937 415.088 309.141 415.118 309.309 415.166V417.092ZM312.469 424.004C312.565 424.796 312.829 425.372 313.261 425.732C313.705 426.08 314.317 426.254 315.097 426.254C315.517 426.254 315.919 426.2 316.303 426.092C316.687 425.984 317.029 425.828 317.329 425.624L318.193 427.136C317.341 427.868 316.219 428.234 314.827 428.234C313.999 428.234 313.279 428.114 312.667 427.874C312.067 427.622 311.563 427.28 311.155 426.848C310.759 426.416 310.465 425.906 310.273 425.318C310.081 424.73 309.985 424.1 309.985 423.428C309.985 422.648 310.105 421.964 310.345 421.376C310.585 420.776 310.909 420.278 311.317 419.882C311.737 419.486 312.223 419.186 312.775 418.982C313.339 418.778 313.933 418.676 314.557 418.676C315.193 418.676 315.757 418.778 316.249 418.982C316.741 419.174 317.149 419.45 317.473 419.81C317.809 420.17 318.061 420.602 318.229 421.106C318.409 421.598 318.499 422.15 318.499 422.762C318.499 422.966 318.487 423.182 318.463 423.41C318.451 423.626 318.421 423.824 318.373 424.004H312.469ZM314.557 420.548C313.981 420.548 313.513 420.722 313.153 421.07C312.793 421.418 312.583 421.898 312.523 422.51H316.195V422.276C316.195 421.724 316.045 421.298 315.745 420.998C315.457 420.698 315.061 420.548 314.557 420.548ZM320.473 418.91H321.931C322.543 418.91 322.849 419.174 322.849 419.702V420.818C323.041 420.206 323.359 419.72 323.803 419.36C324.259 418.988 324.823 418.802 325.495 418.802C325.771 418.802 326.011 418.832 326.215 418.892V420.98H325.693C324.781 420.98 324.109 421.214 323.677 421.682C323.245 422.15 323.029 422.93 323.029 424.022V428H320.473V418.91ZM329.22 424.004C329.316 424.796 329.58 425.372 330.012 425.732C330.456 426.08 331.068 426.254 331.848 426.254C332.268 426.254 332.67 426.2 333.054 426.092C333.438 425.984 333.78 425.828 334.08 425.624L334.944 427.136C334.092 427.868 332.97 428.234 331.578 428.234C330.75 428.234 330.03 428.114 329.418 427.874C328.818 427.622 328.314 427.28 327.906 426.848C327.51 426.416 327.216 425.906 327.024 425.318C326.832 424.73 326.736 424.1 326.736 423.428C326.736 422.648 326.856 421.964 327.096 421.376C327.336 420.776 327.66 420.278 328.068 419.882C328.488 419.486 328.974 419.186 329.526 418.982C330.09 418.778 330.684 418.676 331.308 418.676C331.944 418.676 332.508 418.778 333 418.982C333.492 419.174 333.9 419.45 334.224 419.81C334.56 420.17 334.812 420.602 334.98 421.106C335.16 421.598 335.25 422.15 335.25 422.762C335.25 422.966 335.238 423.182 335.214 423.41C335.202 423.626 335.172 423.824 335.124 424.004H329.22ZM331.308 420.548C330.732 420.548 330.264 420.722 329.904 421.07C329.544 421.418 329.334 421.898 329.274 422.51H332.946V422.276C332.946 421.724 332.796 421.298 332.496 420.998C332.208 420.698 331.812 420.548 331.308 420.548ZM337.225 418.91H338.683C339.295 418.91 339.601 419.174 339.601 419.702V420.368C339.841 419.852 340.219 419.444 340.735 419.144C341.251 418.832 341.869 418.676 342.589 418.676C343.561 418.676 344.311 418.958 344.839 419.522C345.379 420.086 345.649 420.932 345.649 422.06V428H343.093V422.24C343.093 421.184 342.625 420.656 341.689 420.656C341.101 420.656 340.633 420.866 340.285 421.286C339.949 421.706 339.781 422.288 339.781 423.032V428H337.225V418.91ZM350.247 423.446C350.247 424.334 350.451 425.012 350.859 425.48C351.279 425.936 351.909 426.164 352.749 426.164C353.097 426.164 353.433 426.122 353.757 426.038C354.093 425.942 354.381 425.81 354.621 425.642L355.377 427.388C355.029 427.64 354.609 427.844 354.117 428C353.625 428.156 353.055 428.234 352.407 428.234C351.663 428.234 350.997 428.126 350.409 427.91C349.821 427.682 349.323 427.364 348.915 426.956C348.507 426.548 348.189 426.05 347.961 425.462C347.745 424.874 347.637 424.208 347.637 423.464C347.637 422.72 347.751 422.054 347.979 421.466C348.207 420.878 348.525 420.38 348.933 419.972C349.353 419.552 349.857 419.234 350.445 419.018C351.045 418.79 351.717 418.676 352.461 418.676C353.061 418.676 353.595 418.748 354.063 418.892C354.531 419.036 354.939 419.228 355.287 419.468L354.513 421.214C354.285 421.058 354.021 420.944 353.721 420.872C353.421 420.788 353.103 420.746 352.767 420.746C351.999 420.746 351.387 420.968 350.931 421.412C350.475 421.844 350.247 422.522 350.247 423.446ZM358.804 424.004C358.9 424.796 359.164 425.372 359.596 425.732C360.04 426.08 360.652 426.254 361.432 426.254C361.852 426.254 362.254 426.2 362.638 426.092C363.022 425.984 363.364 425.828 363.664 425.624L364.528 427.136C363.676 427.868 362.554 428.234 361.162 428.234C360.334 428.234 359.614 428.114 359.002 427.874C358.402 427.622 357.898 427.28 357.49 426.848C357.094 426.416 356.8 425.906 356.608 425.318C356.416 424.73 356.32 424.1 356.32 423.428C356.32 422.648 356.44 421.964 356.68 421.376C356.92 420.776 357.244 420.278 357.652 419.882C358.072 419.486 358.558 419.186 359.11 418.982C359.674 418.778 360.268 418.676 360.892 418.676C361.528 418.676 362.092 418.778 362.584 418.982C363.076 419.174 363.484 419.45 363.808 419.81C364.144 420.17 364.396 420.602 364.564 421.106C364.744 421.598 364.834 422.15 364.834 422.762C364.834 422.966 364.822 423.182 364.798 423.41C364.786 423.626 364.756 423.824 364.708 424.004H358.804ZM360.892 420.548C360.316 420.548 359.848 420.722 359.488 421.07C359.128 421.418 358.918 421.898 358.858 422.51H362.53V422.276C362.53 421.724 362.38 421.298 362.08 420.998C361.792 420.698 361.396 420.548 360.892 420.548ZM374.011 425.948H379.591V428H371.383V415.58H374.011V425.948ZM389.745 423.446C389.745 424.202 389.631 424.88 389.403 425.48C389.187 426.068 388.875 426.566 388.467 426.974C388.059 427.382 387.567 427.694 386.991 427.91C386.415 428.126 385.773 428.234 385.065 428.234C384.357 428.234 383.715 428.126 383.139 427.91C382.563 427.694 382.071 427.382 381.663 426.974C381.255 426.566 380.937 426.068 380.709 425.48C380.493 424.88 380.385 424.202 380.385 423.446C380.385 422.69 380.493 422.018 380.709 421.43C380.937 420.842 381.255 420.344 381.663 419.936C382.071 419.528 382.563 419.216 383.139 419C383.715 418.784 384.357 418.676 385.065 418.676C385.773 418.676 386.415 418.784 386.991 419C387.567 419.216 388.059 419.528 388.467 419.936C388.875 420.344 389.187 420.842 389.403 421.43C389.631 422.018 389.745 422.69 389.745 423.446ZM387.135 423.446C387.135 422.522 386.955 421.826 386.595 421.358C386.247 420.89 385.737 420.656 385.065 420.656C384.393 420.656 383.877 420.89 383.517 421.358C383.169 421.826 382.995 422.522 382.995 423.446C382.995 424.382 383.169 425.084 383.517 425.552C383.877 426.02 384.393 426.254 385.065 426.254C385.737 426.254 386.247 426.02 386.595 425.552C386.955 425.084 387.135 424.382 387.135 423.446ZM400.608 423.446C400.608 424.202 400.494 424.88 400.266 425.48C400.05 426.068 399.738 426.566 399.33 426.974C398.922 427.382 398.43 427.694 397.854 427.91C397.278 428.126 396.636 428.234 395.928 428.234C395.22 428.234 394.578 428.126 394.002 427.91C393.426 427.694 392.934 427.382 392.526 426.974C392.118 426.566 391.8 426.068 391.572 425.48C391.356 424.88 391.248 424.202 391.248 423.446C391.248 422.69 391.356 422.018 391.572 421.43C391.8 420.842 392.118 420.344 392.526 419.936C392.934 419.528 393.426 419.216 394.002 419C394.578 418.784 395.22 418.676 395.928 418.676C396.636 418.676 397.278 418.784 397.854 419C398.43 419.216 398.922 419.528 399.33 419.936C399.738 420.344 400.05 420.842 400.266 421.43C400.494 422.018 400.608 422.69 400.608 423.446ZM397.998 423.446C397.998 422.522 397.818 421.826 397.458 421.358C397.11 420.89 396.6 420.656 395.928 420.656C395.256 420.656 394.74 420.89 394.38 421.358C394.032 421.826 393.858 422.522 393.858 423.446C393.858 424.382 394.032 425.084 394.38 425.552C394.74 426.02 395.256 426.254 395.928 426.254C396.6 426.254 397.11 426.02 397.458 425.552C397.818 425.084 397.998 424.382 397.998 423.446ZM405.009 420.458C405.285 419.846 405.711 419.396 406.287 419.108C406.863 418.82 407.475 418.676 408.123 418.676C409.215 418.676 410.097 419.066 410.769 419.846C411.441 420.614 411.777 421.748 411.777 423.248C411.777 423.98 411.687 424.652 411.507 425.264C411.339 425.876 411.087 426.404 410.751 426.848C410.427 427.28 410.025 427.622 409.545 427.874C409.065 428.114 408.525 428.234 407.925 428.234C407.421 428.234 406.911 428.138 406.395 427.946C405.891 427.742 405.483 427.394 405.171 426.902V431.78H402.615V418.91H404.091C404.703 418.91 405.009 419.18 405.009 419.72V420.458ZM405.099 423.572C405.099 424.412 405.267 425.072 405.603 425.552C405.951 426.02 406.461 426.254 407.133 426.254C407.493 426.254 407.799 426.182 408.051 426.038C408.315 425.894 408.525 425.696 408.681 425.444C408.849 425.18 408.969 424.874 409.041 424.526C409.125 424.178 409.167 423.806 409.167 423.41C409.167 422.522 409.005 421.844 408.681 421.376C408.357 420.896 407.871 420.656 407.223 420.656C406.539 420.656 406.011 420.92 405.639 421.448C405.279 421.964 405.099 422.672 405.099 423.572Z" fill="#00285A"/>
<rect x="514" y="177" width="164" height="80" fill="#00285A"/>
<path d="M565.368 199V196.516H559.68V194.626L565.368 186.814H567.708V194.536H569.274V196.516H567.708V199H565.368ZM565.368 194.536V190.216L562.272 194.536H565.368ZM570.62 199V196.264H573.392V199H570.62ZM589.702 198.136C589.234 198.484 588.67 198.76 588.01 198.964C587.362 199.168 586.624 199.27 585.796 199.27C584.8 199.27 583.918 199.12 583.15 198.82C582.382 198.508 581.734 198.076 581.206 197.524C580.678 196.96 580.276 196.282 580 195.49C579.724 194.686 579.586 193.792 579.586 192.808C579.586 191.776 579.736 190.858 580.036 190.054C580.336 189.238 580.762 188.554 581.314 188.002C581.866 187.45 582.526 187.03 583.294 186.742C584.074 186.454 584.944 186.31 585.904 186.31C587.416 186.31 588.634 186.664 589.558 187.372L588.586 189.19C588.214 188.938 587.818 188.758 587.398 188.65C586.99 188.53 586.558 188.47 586.102 188.47C584.866 188.47 583.924 188.842 583.276 189.586C582.64 190.33 582.322 191.404 582.322 192.808C582.322 194.2 582.64 195.262 583.276 195.994C583.924 196.726 584.866 197.092 586.102 197.092C586.642 197.092 587.128 197.026 587.56 196.894C587.992 196.75 588.382 196.558 588.73 196.318L589.702 198.136ZM591.301 189.91H592.759C593.371 189.91 593.677 190.174 593.677 190.702V191.818C593.869 191.206 594.187 190.72 594.631 190.36C595.087 189.988 595.651 189.802 596.323 189.802C596.599 189.802 596.839 189.832 597.043 189.892V191.98H596.521C595.609 191.98 594.937 192.214 594.505 192.682C594.073 193.15 593.857 193.93 593.857 195.022V199H591.301V189.91ZM600.049 195.004C600.145 195.796 600.409 196.372 600.841 196.732C601.285 197.08 601.897 197.254 602.677 197.254C603.097 197.254 603.499 197.2 603.883 197.092C604.267 196.984 604.609 196.828 604.909 196.624L605.773 198.136C604.921 198.868 603.799 199.234 602.407 199.234C601.579 199.234 600.859 199.114 600.247 198.874C599.647 198.622 599.143 198.28 598.735 197.848C598.339 197.416 598.045 196.906 597.853 196.318C597.661 195.73 597.565 195.1 597.565 194.428C597.565 193.648 597.685 192.964 597.925 192.376C598.165 191.776 598.489 191.278 598.897 190.882C599.317 190.486 599.803 190.186 600.355 189.982C600.919 189.778 601.513 189.676 602.137 189.676C602.773 189.676 603.337 189.778 603.829 189.982C604.321 190.174 604.729 190.45 605.053 190.81C605.389 191.17 605.641 191.602 605.809 192.106C605.989 192.598 606.079 193.15 606.079 193.762C606.079 193.966 606.067 194.182 606.043 194.41C606.031 194.626 606.001 194.824 605.953 195.004H600.049ZM602.137 191.548C601.561 191.548 601.093 191.722 600.733 192.07C600.373 192.418 600.163 192.898 600.103 193.51H603.775V193.276C603.775 192.724 603.625 192.298 603.325 191.998C603.037 191.698 602.641 191.548 602.137 191.548ZM607.369 196.444C607.369 195.496 607.711 194.776 608.395 194.284C609.079 193.78 610.021 193.528 611.221 193.528H612.697V193.168C612.697 192.64 612.553 192.256 612.265 192.016C611.989 191.764 611.545 191.638 610.933 191.638C610.477 191.638 610.039 191.704 609.619 191.836C609.199 191.968 608.815 192.154 608.467 192.394L607.585 190.9C608.089 190.516 608.659 190.216 609.295 190C609.931 189.784 610.615 189.676 611.347 189.676C612.595 189.676 613.531 189.976 614.155 190.576C614.791 191.176 615.109 192.04 615.109 193.168V196.66C615.109 196.936 615.157 197.122 615.253 197.218C615.349 197.302 615.523 197.344 615.775 197.344H615.973V198.91C615.841 198.958 615.685 199 615.505 199.036C615.325 199.072 615.109 199.09 614.857 199.09C614.329 199.09 613.933 198.982 613.669 198.766C613.405 198.55 613.249 198.232 613.201 197.812C612.985 198.244 612.625 198.586 612.121 198.838C611.617 199.09 611.041 199.216 610.393 199.216C609.481 199.216 608.749 198.97 608.197 198.478C607.645 197.986 607.369 197.308 607.369 196.444ZM611.041 197.38C611.557 197.38 611.959 197.212 612.247 196.876C612.547 196.54 612.697 196.066 612.697 195.454V194.986H611.455C610.927 194.986 610.519 195.094 610.231 195.31C609.955 195.514 609.817 195.826 609.817 196.246C609.817 196.63 609.925 196.918 610.141 197.11C610.369 197.29 610.669 197.38 611.041 197.38ZM622.547 197.038V198.946C622.355 198.994 622.145 199.03 621.917 199.054C621.689 199.078 621.419 199.09 621.107 199.09C620.027 199.09 619.235 198.844 618.731 198.352C618.227 197.848 617.975 197.032 617.975 195.904V191.854H616.625V189.91H617.975V187.732H620.531V189.91H622.547V191.854H620.531V195.67C620.531 196.21 620.651 196.576 620.891 196.768C621.131 196.948 621.563 197.038 622.187 197.038H622.547ZM626.187 195.004C626.283 195.796 626.547 196.372 626.979 196.732C627.423 197.08 628.035 197.254 628.815 197.254C629.235 197.254 629.637 197.2 630.021 197.092C630.405 196.984 630.747 196.828 631.047 196.624L631.911 198.136C631.059 198.868 629.937 199.234 628.545 199.234C627.717 199.234 626.997 199.114 626.385 198.874C625.785 198.622 625.281 198.28 624.873 197.848C624.477 197.416 624.183 196.906 623.991 196.318C623.799 195.73 623.703 195.1 623.703 194.428C623.703 193.648 623.823 192.964 624.063 192.376C624.303 191.776 624.627 191.278 625.035 190.882C625.455 190.486 625.941 190.186 626.493 189.982C627.057 189.778 627.651 189.676 628.275 189.676C628.911 189.676 629.475 189.778 629.967 189.982C630.459 190.174 630.867 190.45 631.191 190.81C631.527 191.17 631.779 191.602 631.947 192.106C632.127 192.598 632.217 193.15 632.217 193.762C632.217 193.966 632.205 194.182 632.181 194.41C632.169 194.626 632.139 194.824 632.091 195.004H626.187ZM628.275 191.548C627.699 191.548 627.231 191.722 626.871 192.07C626.511 192.418 626.301 192.898 626.241 193.51H629.913V193.276C629.913 192.724 629.763 192.298 629.463 191.998C629.175 191.698 628.779 191.548 628.275 191.548ZM560.526 223H557.898V210.58H560.526V223ZM563.22 213.91H564.678C565.29 213.91 565.596 214.174 565.596 214.702V215.368C565.836 214.852 566.214 214.444 566.73 214.144C567.246 213.832 567.864 213.676 568.584 213.676C569.556 213.676 570.306 213.958 570.834 214.522C571.374 215.086 571.644 215.932 571.644 217.06V223H569.088V217.24C569.088 216.184 568.62 215.656 567.684 215.656C567.096 215.656 566.628 215.866 566.28 216.286C565.944 216.706 565.776 217.288 565.776 218.032V223H563.22V213.91ZM579.302 212.092H578.888C578.216 212.092 577.73 212.194 577.43 212.398C577.142 212.59 576.998 212.992 576.998 213.604V213.91H579.212V215.854H576.998V223H574.442V215.854H573.092V213.91H574.442V213.244C574.442 212.188 574.748 211.39 575.36 210.85C575.972 210.31 576.86 210.04 578.024 210.04C578.228 210.04 578.45 210.052 578.69 210.076C578.93 210.088 579.134 210.118 579.302 210.166V212.092ZM582.462 219.004C582.558 219.796 582.822 220.372 583.254 220.732C583.698 221.08 584.31 221.254 585.09 221.254C585.51 221.254 585.912 221.2 586.296 221.092C586.68 220.984 587.022 220.828 587.322 220.624L588.186 222.136C587.334 222.868 586.212 223.234 584.82 223.234C583.992 223.234 583.272 223.114 582.66 222.874C582.06 222.622 581.556 222.28 581.148 221.848C580.752 221.416 580.458 220.906 580.266 220.318C580.074 219.73 579.978 219.1 579.978 218.428C579.978 217.648 580.098 216.964 580.338 216.376C580.578 215.776 580.902 215.278 581.31 214.882C581.73 214.486 582.216 214.186 582.768 213.982C583.332 213.778 583.926 213.676 584.55 213.676C585.186 213.676 585.75 213.778 586.242 213.982C586.734 214.174 587.142 214.45 587.466 214.81C587.802 215.17 588.054 215.602 588.222 216.106C588.402 216.598 588.492 217.15 588.492 217.762C588.492 217.966 588.48 218.182 588.456 218.41C588.444 218.626 588.414 218.824 588.366 219.004H582.462ZM584.55 215.548C583.974 215.548 583.506 215.722 583.146 216.07C582.786 216.418 582.576 216.898 582.516 217.51H586.188V217.276C586.188 216.724 586.038 216.298 585.738 215.998C585.45 215.698 585.054 215.548 584.55 215.548ZM590.466 213.91H591.924C592.536 213.91 592.842 214.174 592.842 214.702V215.818C593.034 215.206 593.352 214.72 593.796 214.36C594.252 213.988 594.816 213.802 595.488 213.802C595.764 213.802 596.004 213.832 596.208 213.892V215.98H595.686C594.774 215.98 594.102 216.214 593.67 216.682C593.238 217.15 593.022 217.93 593.022 219.022V223H590.466V213.91ZM599.214 219.004C599.31 219.796 599.574 220.372 600.006 220.732C600.45 221.08 601.062 221.254 601.842 221.254C602.262 221.254 602.664 221.2 603.048 221.092C603.432 220.984 603.774 220.828 604.074 220.624L604.938 222.136C604.086 222.868 602.964 223.234 601.572 223.234C600.744 223.234 600.024 223.114 599.412 222.874C598.812 222.622 598.308 222.28 597.9 221.848C597.504 221.416 597.21 220.906 597.018 220.318C596.826 219.73 596.73 219.1 596.73 218.428C596.73 217.648 596.85 216.964 597.09 216.376C597.33 215.776 597.654 215.278 598.062 214.882C598.482 214.486 598.968 214.186 599.52 213.982C600.084 213.778 600.678 213.676 601.302 213.676C601.938 213.676 602.502 213.778 602.994 213.982C603.486 214.174 603.894 214.45 604.218 214.81C604.554 215.17 604.806 215.602 604.974 216.106C605.154 216.598 605.244 217.15 605.244 217.762C605.244 217.966 605.232 218.182 605.208 218.41C605.196 218.626 605.166 218.824 605.118 219.004H599.214ZM601.302 215.548C600.726 215.548 600.258 215.722 599.898 216.07C599.538 216.418 599.328 216.898 599.268 217.51H602.94V217.276C602.94 216.724 602.79 216.298 602.49 215.998C602.202 215.698 601.806 215.548 601.302 215.548ZM607.218 213.91H608.676C609.288 213.91 609.594 214.174 609.594 214.702V215.368C609.834 214.852 610.212 214.444 610.728 214.144C611.244 213.832 611.862 213.676 612.582 213.676C613.554 213.676 614.304 213.958 614.832 214.522C615.372 215.086 615.642 215.932 615.642 217.06V223H613.086V217.24C613.086 216.184 612.618 215.656 611.682 215.656C611.094 215.656 610.626 215.866 610.278 216.286C609.942 216.706 609.774 217.288 609.774 218.032V223H607.218V213.91ZM620.24 218.446C620.24 219.334 620.444 220.012 620.852 220.48C621.272 220.936 621.902 221.164 622.742 221.164C623.09 221.164 623.426 221.122 623.75 221.038C624.086 220.942 624.374 220.81 624.614 220.642L625.37 222.388C625.022 222.64 624.602 222.844 624.11 223C623.618 223.156 623.048 223.234 622.4 223.234C621.656 223.234 620.99 223.126 620.402 222.91C619.814 222.682 619.316 222.364 618.908 221.956C618.5 221.548 618.182 221.05 617.954 220.462C617.738 219.874 617.63 219.208 617.63 218.464C617.63 217.72 617.744 217.054 617.972 216.466C618.2 215.878 618.518 215.38 618.926 214.972C619.346 214.552 619.85 214.234 620.438 214.018C621.038 213.79 621.71 213.676 622.454 213.676C623.054 213.676 623.588 213.748 624.056 213.892C624.524 214.036 624.932 214.228 625.28 214.468L624.506 216.214C624.278 216.058 624.014 215.944 623.714 215.872C623.414 215.788 623.096 215.746 622.76 215.746C621.992 215.746 621.38 215.968 620.924 216.412C620.468 216.844 620.24 217.522 620.24 218.446ZM628.798 219.004C628.894 219.796 629.158 220.372 629.59 220.732C630.034 221.08 630.646 221.254 631.426 221.254C631.846 221.254 632.248 221.2 632.632 221.092C633.016 220.984 633.358 220.828 633.658 220.624L634.522 222.136C633.67 222.868 632.548 223.234 631.156 223.234C630.328 223.234 629.608 223.114 628.996 222.874C628.396 222.622 627.892 222.28 627.484 221.848C627.088 221.416 626.794 220.906 626.602 220.318C626.41 219.73 626.314 219.1 626.314 218.428C626.314 217.648 626.434 216.964 626.674 216.376C626.914 215.776 627.238 215.278 627.646 214.882C628.066 214.486 628.552 214.186 629.104 213.982C629.668 213.778 630.262 213.676 630.886 213.676C631.522 213.676 632.086 213.778 632.578 213.982C633.07 214.174 633.478 214.45 633.802 214.81C634.138 215.17 634.39 215.602 634.558 216.106C634.738 216.598 634.828 217.15 634.828 217.762C634.828 217.966 634.816 218.182 634.792 218.41C634.78 218.626 634.75 218.824 634.702 219.004H628.798ZM630.886 215.548C630.31 215.548 629.842 215.722 629.482 216.07C629.122 216.418 628.912 216.898 628.852 217.51H632.524V217.276C632.524 216.724 632.374 216.298 632.074 215.998C631.786 215.698 631.39 215.548 630.886 215.548ZM572.34 238.216C572.34 239.068 572.1 239.812 571.62 240.448C571.14 241.072 570.492 241.48 569.676 241.672L573.204 247H570.18L567.552 242.68C567.42 242.464 567.294 242.32 567.174 242.248C567.054 242.176 566.868 242.14 566.616 242.14H565.842V247H563.286V234.58H568.056C568.716 234.58 569.31 234.664 569.838 234.832C570.366 235 570.816 235.24 571.188 235.552C571.56 235.864 571.842 236.248 572.034 236.704C572.238 237.148 572.34 237.652 572.34 238.216ZM569.73 238.414C569.73 237.802 569.568 237.352 569.244 237.064C568.92 236.776 568.398 236.632 567.678 236.632H565.842V240.268H567.624C568.308 240.268 568.83 240.112 569.19 239.8C569.55 239.488 569.73 239.026 569.73 238.414ZM576.283 243.004C576.379 243.796 576.643 244.372 577.075 244.732C577.519 245.08 578.131 245.254 578.911 245.254C579.331 245.254 579.733 245.2 580.117 245.092C580.501 244.984 580.843 244.828 581.143 244.624L582.007 246.136C581.155 246.868 580.033 247.234 578.641 247.234C577.813 247.234 577.093 247.114 576.481 246.874C575.881 246.622 575.377 246.28 574.969 245.848C574.573 245.416 574.279 244.906 574.087 244.318C573.895 243.73 573.799 243.1 573.799 242.428C573.799 241.648 573.919 240.964 574.159 240.376C574.399 239.776 574.723 239.278 575.131 238.882C575.551 238.486 576.037 238.186 576.589 237.982C577.153 237.778 577.747 237.676 578.371 237.676C579.007 237.676 579.571 237.778 580.063 237.982C580.555 238.174 580.963 238.45 581.287 238.81C581.623 239.17 581.875 239.602 582.043 240.106C582.223 240.598 582.313 241.15 582.313 241.762C582.313 241.966 582.301 242.182 582.277 242.41C582.265 242.626 582.235 242.824 582.187 243.004H576.283ZM578.371 239.548C577.795 239.548 577.327 239.722 576.967 240.07C576.607 240.418 576.397 240.898 576.337 241.51H580.009V241.276C580.009 240.724 579.859 240.298 579.559 239.998C579.271 239.698 578.875 239.548 578.371 239.548ZM587.761 237.676C588.433 237.676 589.003 237.814 589.471 238.09C589.951 238.366 590.311 238.75 590.551 239.242V238.702C590.551 238.174 590.857 237.91 591.469 237.91H592.945V250.78H590.389V245.794C590.137 246.238 589.783 246.592 589.327 246.856C588.871 247.108 588.313 247.234 587.653 247.234C587.041 247.234 586.495 247.12 586.015 246.892C585.547 246.664 585.145 246.34 584.809 245.92C584.473 245.5 584.215 244.996 584.035 244.408C583.867 243.82 583.783 243.166 583.783 242.446C583.783 241.714 583.873 241.054 584.053 240.466C584.245 239.866 584.509 239.362 584.845 238.954C585.193 238.546 585.613 238.234 586.105 238.018C586.597 237.79 587.149 237.676 587.761 237.676ZM590.461 242.464C590.461 241.576 590.287 240.886 589.939 240.394C589.591 239.902 589.093 239.656 588.445 239.656C587.797 239.656 587.293 239.902 586.933 240.394C586.573 240.886 586.393 241.576 586.393 242.464C586.393 243.364 586.561 244.054 586.897 244.534C587.245 245.014 587.743 245.254 588.391 245.254C589.039 245.254 589.543 245.008 589.903 244.516C590.275 244.012 590.461 243.328 590.461 242.464ZM603.639 247H602.181C601.845 247 601.605 246.928 601.461 246.784C601.317 246.64 601.245 246.418 601.245 246.118V245.614C601.005 246.154 600.633 246.562 600.129 246.838C599.637 247.102 599.067 247.234 598.419 247.234C597.423 247.234 596.667 246.94 596.151 246.352C595.647 245.764 595.395 244.906 595.395 243.778V237.91H597.951V243.616C597.951 244.204 598.065 244.624 598.293 244.876C598.521 245.128 598.857 245.254 599.301 245.254C599.889 245.254 600.333 245.044 600.633 244.624C600.933 244.204 601.083 243.634 601.083 242.914V237.91H603.639V247ZM608.135 243.004C608.231 243.796 608.495 244.372 608.927 244.732C609.371 245.08 609.983 245.254 610.763 245.254C611.183 245.254 611.585 245.2 611.969 245.092C612.353 244.984 612.695 244.828 612.995 244.624L613.859 246.136C613.007 246.868 611.885 247.234 610.493 247.234C609.665 247.234 608.945 247.114 608.333 246.874C607.733 246.622 607.229 246.28 606.821 245.848C606.425 245.416 606.131 244.906 605.939 244.318C605.747 243.73 605.651 243.1 605.651 242.428C605.651 241.648 605.771 240.964 606.011 240.376C606.251 239.776 606.575 239.278 606.983 238.882C607.403 238.486 607.889 238.186 608.441 237.982C609.005 237.778 609.599 237.676 610.223 237.676C610.859 237.676 611.423 237.778 611.915 237.982C612.407 238.174 612.815 238.45 613.139 238.81C613.475 239.17 613.727 239.602 613.895 240.106C614.075 240.598 614.165 241.15 614.165 241.762C614.165 241.966 614.153 242.182 614.129 242.41C614.117 242.626 614.087 242.824 614.039 243.004H608.135ZM610.223 239.548C609.647 239.548 609.179 239.722 608.819 240.07C608.459 240.418 608.249 240.898 608.189 241.51H611.861V241.276C611.861 240.724 611.711 240.298 611.411 239.998C611.123 239.698 610.727 239.548 610.223 239.548ZM619.613 239.62C619.193 239.62 618.863 239.692 618.623 239.836C618.383 239.968 618.263 240.172 618.263 240.448C618.263 240.676 618.335 240.856 618.479 240.988C618.623 241.108 618.815 241.204 619.055 241.276L620.423 241.69C621.263 241.942 621.881 242.272 622.277 242.68C622.685 243.076 622.889 243.616 622.889 244.3C622.889 245.212 622.547 245.932 621.863 246.46C621.191 246.976 620.267 247.234 619.091 247.234C618.347 247.234 617.663 247.132 617.039 246.928C616.415 246.712 615.863 246.412 615.383 246.028L616.337 244.408C616.733 244.684 617.159 244.9 617.615 245.056C618.083 245.212 618.539 245.29 618.983 245.29C619.403 245.29 619.733 245.212 619.973 245.056C620.213 244.9 620.333 244.66 620.333 244.336C620.333 244.12 620.267 243.946 620.135 243.814C620.015 243.67 619.799 243.55 619.487 243.454L617.993 243.022C617.249 242.806 616.679 242.494 616.283 242.086C615.899 241.666 615.707 241.12 615.707 240.448C615.707 239.992 615.797 239.596 615.977 239.26C616.157 238.912 616.403 238.624 616.715 238.396C617.039 238.156 617.423 237.976 617.867 237.856C618.311 237.736 618.797 237.676 619.325 237.676C619.973 237.676 620.603 237.766 621.215 237.946C621.827 238.114 622.343 238.354 622.763 238.666L621.953 240.286C621.209 239.842 620.429 239.62 619.613 239.62ZM629.754 245.038V246.946C629.562 246.994 629.352 247.03 629.124 247.054C628.896 247.078 628.626 247.09 628.314 247.09C627.234 247.09 626.442 246.844 625.938 246.352C625.434 245.848 625.182 245.032 625.182 243.904V239.854H623.832V237.91H625.182V235.732H627.738V237.91H629.754V239.854H627.738V243.67C627.738 244.21 627.858 244.576 628.098 244.768C628.338 244.948 628.77 245.038 629.394 245.038H629.754Z" fill="white"/>
<rect x="267" y="20" width="164" height="80" fill="#8B8E97"/>
<path d="M289.829 31.668C289.385 31.668 288.935 31.752 288.479 31.92C288.023 32.088 287.621 32.31 287.273 32.586L286.157 30.984C287.345 30.048 288.707 29.58 290.243 29.58C291.527 29.58 292.517 29.874 293.213 30.462C293.921 31.038 294.275 31.872 294.275 32.964C294.275 33.756 294.083 34.458 293.699 35.07C293.327 35.682 292.733 36.3 291.917 36.924L290.027 38.4C289.715 38.64 289.451 38.88 289.235 39.12C289.031 39.348 288.875 39.618 288.767 39.93H294.221V42H286.103V40.866C286.103 40.098 286.289 39.396 286.661 38.76C287.045 38.112 287.579 37.524 288.263 36.996L290.297 35.43C290.753 35.082 291.089 34.734 291.305 34.386C291.521 34.026 291.629 33.63 291.629 33.198C291.629 32.178 291.029 31.668 289.829 31.668ZM296.629 42V39.264H299.401V42H296.629ZM319.548 33.216C319.548 34.068 319.308 34.812 318.828 35.448C318.348 36.072 317.7 36.48 316.884 36.672L320.412 42H317.388L314.76 37.68C314.628 37.464 314.502 37.32 314.382 37.248C314.262 37.176 314.076 37.14 313.824 37.14H313.05V42H310.494V29.58H315.264C315.924 29.58 316.518 29.664 317.046 29.832C317.574 30 318.024 30.24 318.396 30.552C318.768 30.864 319.05 31.248 319.242 31.704C319.446 32.148 319.548 32.652 319.548 33.216ZM316.938 33.414C316.938 32.802 316.776 32.352 316.452 32.064C316.128 31.776 315.606 31.632 314.886 31.632H313.05V35.268H314.832C315.516 35.268 316.038 35.112 316.398 34.8C316.758 34.488 316.938 34.026 316.938 33.414ZM323.491 38.004C323.587 38.796 323.851 39.372 324.283 39.732C324.727 40.08 325.339 40.254 326.119 40.254C326.539 40.254 326.941 40.2 327.325 40.092C327.709 39.984 328.051 39.828 328.351 39.624L329.215 41.136C328.363 41.868 327.241 42.234 325.849 42.234C325.021 42.234 324.301 42.114 323.689 41.874C323.089 41.622 322.585 41.28 322.177 40.848C321.781 40.416 321.487 39.906 321.295 39.318C321.103 38.73 321.007 38.1 321.007 37.428C321.007 36.648 321.127 35.964 321.367 35.376C321.607 34.776 321.931 34.278 322.339 33.882C322.759 33.486 323.245 33.186 323.797 32.982C324.361 32.778 324.955 32.676 325.579 32.676C326.215 32.676 326.779 32.778 327.271 32.982C327.763 33.174 328.171 33.45 328.495 33.81C328.831 34.17 329.083 34.602 329.251 35.106C329.431 35.598 329.521 36.15 329.521 36.762C329.521 36.966 329.509 37.182 329.485 37.41C329.473 37.626 329.443 37.824 329.395 38.004H323.491ZM325.579 34.548C325.003 34.548 324.535 34.722 324.175 35.07C323.815 35.418 323.605 35.898 323.545 36.51H327.217V36.276C327.217 35.724 327.067 35.298 326.767 34.998C326.479 34.698 326.083 34.548 325.579 34.548ZM330.811 39.444C330.811 38.496 331.153 37.776 331.837 37.284C332.521 36.78 333.463 36.528 334.663 36.528H336.139V36.168C336.139 35.64 335.995 35.256 335.707 35.016C335.431 34.764 334.987 34.638 334.375 34.638C333.919 34.638 333.481 34.704 333.061 34.836C332.641 34.968 332.257 35.154 331.909 35.394L331.027 33.9C331.531 33.516 332.101 33.216 332.737 33C333.373 32.784 334.057 32.676 334.789 32.676C336.037 32.676 336.973 32.976 337.597 33.576C338.233 34.176 338.551 35.04 338.551 36.168V39.66C338.551 39.936 338.599 40.122 338.695 40.218C338.791 40.302 338.965 40.344 339.217 40.344H339.415V41.91C339.283 41.958 339.127 42 338.947 42.036C338.767 42.072 338.551 42.09 338.299 42.09C337.771 42.09 337.375 41.982 337.111 41.766C336.847 41.55 336.691 41.232 336.643 40.812C336.427 41.244 336.067 41.586 335.563 41.838C335.059 42.09 334.483 42.216 333.835 42.216C332.923 42.216 332.191 41.97 331.639 41.478C331.087 40.986 330.811 40.308 330.811 39.444ZM334.483 40.38C334.999 40.38 335.401 40.212 335.689 39.876C335.989 39.54 336.139 39.066 336.139 38.454V37.986H334.897C334.369 37.986 333.961 38.094 333.673 38.31C333.397 38.514 333.259 38.826 333.259 39.246C333.259 39.63 333.367 39.918 333.583 40.11C333.811 40.29 334.111 40.38 334.483 40.38ZM349.733 42H348.257C347.645 42 347.339 41.73 347.339 41.19V40.596C347.099 41.1 346.727 41.502 346.223 41.802C345.731 42.09 345.137 42.234 344.441 42.234C343.841 42.234 343.301 42.12 342.821 41.892C342.341 41.664 341.933 41.346 341.597 40.938C341.273 40.518 341.021 40.014 340.841 39.426C340.661 38.838 340.571 38.178 340.571 37.446C340.571 36.69 340.667 36.018 340.859 35.43C341.051 34.83 341.321 34.332 341.669 33.936C342.017 33.528 342.431 33.216 342.911 33C343.403 32.784 343.949 32.676 344.549 32.676C345.125 32.676 345.641 32.79 346.097 33.018C346.553 33.246 346.913 33.57 347.177 33.99V29.094H349.733V42ZM347.249 37.464C347.249 36.588 347.075 35.904 346.727 35.412C346.391 34.908 345.893 34.656 345.233 34.656C344.585 34.656 344.081 34.902 343.721 35.394C343.361 35.886 343.181 36.576 343.181 37.464C343.181 38.364 343.349 39.054 343.685 39.534C344.021 40.014 344.519 40.254 345.179 40.254C345.827 40.254 346.331 40.008 346.691 39.516C347.063 39.012 347.249 38.328 347.249 37.464ZM359.314 33.504V42H356.83V29.58H359.728L363.094 36.348L366.478 29.58H369.268V42H366.784V33.486L364.084 38.868H362.014L359.314 33.504ZM380.816 37.446C380.816 38.202 380.702 38.88 380.474 39.48C380.258 40.068 379.946 40.566 379.538 40.974C379.13 41.382 378.638 41.694 378.062 41.91C377.486 42.126 376.844 42.234 376.136 42.234C375.428 42.234 374.786 42.126 374.21 41.91C373.634 41.694 373.142 41.382 372.734 40.974C372.326 40.566 372.008 40.068 371.78 39.48C371.564 38.88 371.456 38.202 371.456 37.446C371.456 36.69 371.564 36.018 371.78 35.43C372.008 34.842 372.326 34.344 372.734 33.936C373.142 33.528 373.634 33.216 374.21 33C374.786 32.784 375.428 32.676 376.136 32.676C376.844 32.676 377.486 32.784 378.062 33C378.638 33.216 379.13 33.528 379.538 33.936C379.946 34.344 380.258 34.842 380.474 35.43C380.702 36.018 380.816 36.69 380.816 37.446ZM378.206 37.446C378.206 36.522 378.026 35.826 377.666 35.358C377.318 34.89 376.808 34.656 376.136 34.656C375.464 34.656 374.948 34.89 374.588 35.358C374.24 35.826 374.066 36.522 374.066 37.446C374.066 38.382 374.24 39.084 374.588 39.552C374.948 40.02 375.464 40.254 376.136 40.254C376.808 40.254 377.318 40.02 377.666 39.552C378.026 39.084 378.206 38.382 378.206 37.446ZM391.481 42H390.005C389.393 42 389.087 41.73 389.087 41.19V40.596C388.847 41.1 388.475 41.502 387.971 41.802C387.479 42.09 386.885 42.234 386.189 42.234C385.589 42.234 385.049 42.12 384.569 41.892C384.089 41.664 383.681 41.346 383.345 40.938C383.021 40.518 382.769 40.014 382.589 39.426C382.409 38.838 382.319 38.178 382.319 37.446C382.319 36.69 382.415 36.018 382.607 35.43C382.799 34.83 383.069 34.332 383.417 33.936C383.765 33.528 384.179 33.216 384.659 33C385.151 32.784 385.697 32.676 386.297 32.676C386.873 32.676 387.389 32.79 387.845 33.018C388.301 33.246 388.661 33.57 388.925 33.99V29.094H391.481V42ZM388.997 37.464C388.997 36.588 388.823 35.904 388.475 35.412C388.139 34.908 387.641 34.656 386.981 34.656C386.333 34.656 385.829 34.902 385.469 35.394C385.109 35.886 384.929 36.576 384.929 37.464C384.929 38.364 385.097 39.054 385.433 39.534C385.769 40.014 386.267 40.254 386.927 40.254C387.575 40.254 388.079 40.008 388.439 39.516C388.811 39.012 388.997 38.328 388.997 37.464ZM395.983 38.004C396.079 38.796 396.343 39.372 396.775 39.732C397.219 40.08 397.831 40.254 398.611 40.254C399.031 40.254 399.433 40.2 399.817 40.092C400.201 39.984 400.543 39.828 400.843 39.624L401.707 41.136C400.855 41.868 399.733 42.234 398.341 42.234C397.513 42.234 396.793 42.114 396.181 41.874C395.581 41.622 395.077 41.28 394.669 40.848C394.273 40.416 393.979 39.906 393.787 39.318C393.595 38.73 393.499 38.1 393.499 37.428C393.499 36.648 393.619 35.964 393.859 35.376C394.099 34.776 394.423 34.278 394.831 33.882C395.251 33.486 395.737 33.186 396.289 32.982C396.853 32.778 397.447 32.676 398.071 32.676C398.707 32.676 399.271 32.778 399.763 32.982C400.255 33.174 400.663 33.45 400.987 33.81C401.323 34.17 401.575 34.602 401.743 35.106C401.923 35.598 402.013 36.15 402.013 36.762C402.013 36.966 402.001 37.182 401.977 37.41C401.965 37.626 401.935 37.824 401.887 38.004H395.983ZM398.071 34.548C397.495 34.548 397.027 34.722 396.667 35.07C396.307 35.418 396.097 35.898 396.037 36.51H399.709V36.276C399.709 35.724 399.559 35.298 399.259 34.998C398.971 34.698 398.575 34.548 398.071 34.548ZM406.508 29.094V38.904C406.508 39.384 406.58 39.702 406.724 39.858C406.88 40.002 407.186 40.074 407.642 40.074H407.804V42C407.54 42.06 407.156 42.09 406.652 42.09C405.68 42.09 404.984 41.85 404.564 41.37C404.156 40.89 403.952 40.17 403.952 39.21V29.094H406.508ZM409.503 44.718C409.707 44.334 409.881 43.914 410.025 43.458C410.169 43.002 410.241 42.516 410.241 42H409.287V39.264H412.059V40.794C412.059 41.646 411.981 42.462 411.825 43.242C411.681 44.034 411.429 44.754 411.069 45.402L409.503 44.718ZM294.477 65.136C294.009 65.484 293.445 65.76 292.785 65.964C292.137 66.168 291.399 66.27 290.571 66.27C289.575 66.27 288.693 66.12 287.925 65.82C287.157 65.508 286.509 65.076 285.981 64.524C285.453 63.96 285.051 63.282 284.775 62.49C284.499 61.686 284.361 60.792 284.361 59.808C284.361 58.776 284.511 57.858 284.811 57.054C285.111 56.238 285.537 55.554 286.089 55.002C286.641 54.45 287.301 54.03 288.069 53.742C288.849 53.454 289.719 53.31 290.679 53.31C292.191 53.31 293.409 53.664 294.333 54.372L293.361 56.19C292.989 55.938 292.593 55.758 292.173 55.65C291.765 55.53 291.333 55.47 290.877 55.47C289.641 55.47 288.699 55.842 288.051 56.586C287.415 57.33 287.097 58.404 287.097 59.808C287.097 61.2 287.415 62.262 288.051 62.994C288.699 63.726 289.641 64.092 290.877 64.092C291.417 64.092 291.903 64.026 292.335 63.894C292.767 63.75 293.157 63.558 293.505 63.318L294.477 65.136ZM304.58 61.446C304.58 62.202 304.466 62.88 304.238 63.48C304.022 64.068 303.71 64.566 303.302 64.974C302.894 65.382 302.402 65.694 301.826 65.91C301.25 66.126 300.608 66.234 299.9 66.234C299.192 66.234 298.55 66.126 297.974 65.91C297.398 65.694 296.906 65.382 296.498 64.974C296.09 64.566 295.772 64.068 295.544 63.48C295.328 62.88 295.22 62.202 295.22 61.446C295.22 60.69 295.328 60.018 295.544 59.43C295.772 58.842 296.09 58.344 296.498 57.936C296.906 57.528 297.398 57.216 297.974 57C298.55 56.784 299.192 56.676 299.9 56.676C300.608 56.676 301.25 56.784 301.826 57C302.402 57.216 302.894 57.528 303.302 57.936C303.71 58.344 304.022 58.842 304.238 59.43C304.466 60.018 304.58 60.69 304.58 61.446ZM301.97 61.446C301.97 60.522 301.79 59.826 301.43 59.358C301.082 58.89 300.572 58.656 299.9 58.656C299.228 58.656 298.712 58.89 298.352 59.358C298.004 59.826 297.83 60.522 297.83 61.446C297.83 62.382 298.004 63.084 298.352 63.552C298.712 64.02 299.228 64.254 299.9 64.254C300.572 64.254 301.082 64.02 301.43 63.552C301.79 63.084 301.97 62.382 301.97 61.446ZM306.587 56.91H308.045C308.657 56.91 308.963 57.174 308.963 57.702V58.368C309.203 57.852 309.581 57.444 310.097 57.144C310.613 56.832 311.231 56.676 311.951 56.676C312.923 56.676 313.673 56.958 314.201 57.522C314.741 58.086 315.011 58.932 315.011 60.06V66H312.455V60.24C312.455 59.184 311.987 58.656 311.051 58.656C310.463 58.656 309.995 58.866 309.647 59.286C309.311 59.706 309.143 60.288 309.143 61.032V66H306.587V56.91ZM322.669 55.092H322.255C321.583 55.092 321.097 55.194 320.797 55.398C320.509 55.59 320.365 55.992 320.365 56.604V56.91H322.579V58.854H320.365V66H317.809V58.854H316.459V56.91H317.809V56.244C317.809 55.188 318.115 54.39 318.727 53.85C319.339 53.31 320.227 53.04 321.391 53.04C321.595 53.04 321.817 53.052 322.057 53.076C322.297 53.088 322.501 53.118 322.669 53.166V55.092ZM326.405 66H323.849V56.91H326.405V66ZM323.831 53.184H326.423V55.506H323.831V53.184ZM328.137 67.296C328.137 66.756 328.281 66.312 328.569 65.964C328.869 65.616 329.277 65.376 329.793 65.244C329.373 65.136 329.061 64.95 328.857 64.686C328.653 64.41 328.551 64.092 328.551 63.732C328.551 63.276 328.689 62.922 328.965 62.67C329.241 62.406 329.571 62.238 329.955 62.166C329.571 61.89 329.271 61.548 329.055 61.14C328.851 60.732 328.749 60.294 328.749 59.826C328.749 59.358 328.845 58.932 329.037 58.548C329.241 58.152 329.517 57.816 329.865 57.54C330.213 57.264 330.627 57.054 331.107 56.91C331.599 56.754 332.133 56.676 332.709 56.676C333.477 56.676 334.161 56.802 334.761 57.054H337.587V58.584H336.273C336.597 58.908 336.759 59.388 336.759 60.024C336.759 60.948 336.399 61.674 335.679 62.202C334.959 62.718 333.999 62.976 332.799 62.976C332.235 62.976 331.767 62.922 331.395 62.814C331.023 62.922 330.837 63.174 330.837 63.57C330.837 63.822 330.933 64.014 331.125 64.146C331.317 64.266 331.587 64.326 331.935 64.326H333.843C334.971 64.326 335.841 64.536 336.453 64.956C337.065 65.376 337.371 66 337.371 66.828C337.371 67.32 337.251 67.764 337.011 68.16C336.783 68.556 336.453 68.892 336.021 69.168C335.589 69.444 335.067 69.654 334.455 69.798C333.855 69.942 333.177 70.014 332.421 70.014C331.077 70.014 330.027 69.774 329.271 69.294C328.515 68.814 328.137 68.148 328.137 67.296ZM332.097 65.964C331.605 65.964 331.227 66.054 330.963 66.234C330.699 66.414 330.567 66.696 330.567 67.08C330.567 67.5 330.747 67.818 331.107 68.034C331.479 68.262 332.013 68.376 332.709 68.376C333.417 68.376 333.957 68.256 334.329 68.016C334.713 67.788 334.905 67.446 334.905 66.99C334.905 66.642 334.779 66.384 334.527 66.216C334.275 66.048 333.867 65.964 333.303 65.964H332.097ZM334.347 59.826C334.347 59.358 334.203 58.986 333.915 58.71C333.639 58.434 333.249 58.296 332.745 58.296C332.241 58.296 331.851 58.434 331.575 58.71C331.299 58.986 331.161 59.358 331.161 59.826C331.161 60.294 331.299 60.666 331.575 60.942C331.851 61.218 332.241 61.356 332.745 61.356C333.249 61.356 333.639 61.218 333.915 60.942C334.203 60.666 334.347 60.294 334.347 59.826ZM347.314 66H345.856C345.52 66 345.28 65.928 345.136 65.784C344.992 65.64 344.92 65.418 344.92 65.118V64.614C344.68 65.154 344.308 65.562 343.804 65.838C343.312 66.102 342.742 66.234 342.094 66.234C341.098 66.234 340.342 65.94 339.826 65.352C339.322 64.764 339.07 63.906 339.07 62.778V56.91H341.626V62.616C341.626 63.204 341.74 63.624 341.968 63.876C342.196 64.128 342.532 64.254 342.976 64.254C343.564 64.254 344.008 64.044 344.308 63.624C344.608 63.204 344.758 62.634 344.758 61.914V56.91H347.314V66ZM349.829 56.91H351.287C351.899 56.91 352.205 57.174 352.205 57.702V58.818C352.397 58.206 352.715 57.72 353.159 57.36C353.615 56.988 354.179 56.802 354.851 56.802C355.127 56.802 355.367 56.832 355.571 56.892V58.98H355.049C354.137 58.98 353.465 59.214 353.033 59.682C352.601 60.15 352.385 60.93 352.385 62.022V66H349.829V56.91ZM358.577 62.004C358.673 62.796 358.937 63.372 359.369 63.732C359.813 64.08 360.425 64.254 361.205 64.254C361.625 64.254 362.027 64.2 362.411 64.092C362.795 63.984 363.137 63.828 363.437 63.624L364.301 65.136C363.449 65.868 362.327 66.234 360.935 66.234C360.107 66.234 359.387 66.114 358.775 65.874C358.175 65.622 357.671 65.28 357.263 64.848C356.867 64.416 356.573 63.906 356.381 63.318C356.189 62.73 356.093 62.1 356.093 61.428C356.093 60.648 356.213 59.964 356.453 59.376C356.693 58.776 357.017 58.278 357.425 57.882C357.845 57.486 358.331 57.186 358.883 56.982C359.447 56.778 360.041 56.676 360.665 56.676C361.301 56.676 361.865 56.778 362.357 56.982C362.849 57.174 363.257 57.45 363.581 57.81C363.917 58.17 364.169 58.602 364.337 59.106C364.517 59.598 364.607 60.15 364.607 60.762C364.607 60.966 364.595 61.182 364.571 61.41C364.559 61.626 364.529 61.824 364.481 62.004H358.577ZM360.665 58.548C360.089 58.548 359.621 58.722 359.261 59.07C358.901 59.418 358.691 59.898 358.631 60.51H362.303V60.276C362.303 59.724 362.153 59.298 361.853 58.998C361.565 58.698 361.169 58.548 360.665 58.548ZM373.784 66H371.156V53.58H373.784V66ZM376.478 56.91H377.936C378.548 56.91 378.854 57.174 378.854 57.702V58.368C379.094 57.852 379.472 57.444 379.988 57.144C380.504 56.832 381.122 56.676 381.842 56.676C382.814 56.676 383.564 56.958 384.092 57.522C384.632 58.086 384.902 58.932 384.902 60.06V66H382.346V60.24C382.346 59.184 381.878 58.656 380.942 58.656C380.354 58.656 379.886 58.866 379.538 59.286C379.202 59.706 379.034 60.288 379.034 61.032V66H376.478V56.91ZM389.788 58.458C390.064 57.846 390.49 57.396 391.066 57.108C391.642 56.82 392.254 56.676 392.902 56.676C393.994 56.676 394.876 57.066 395.548 57.846C396.22 58.614 396.556 59.748 396.556 61.248C396.556 61.98 396.466 62.652 396.286 63.264C396.118 63.876 395.866 64.404 395.53 64.848C395.206 65.28 394.804 65.622 394.324 65.874C393.844 66.114 393.304 66.234 392.704 66.234C392.2 66.234 391.69 66.138 391.174 65.946C390.67 65.742 390.262 65.394 389.95 64.902V69.78H387.394V56.91H388.87C389.482 56.91 389.788 57.18 389.788 57.72V58.458ZM389.878 61.572C389.878 62.412 390.046 63.072 390.382 63.552C390.73 64.02 391.24 64.254 391.912 64.254C392.272 64.254 392.578 64.182 392.83 64.038C393.094 63.894 393.304 63.696 393.46 63.444C393.628 63.18 393.748 62.874 393.82 62.526C393.904 62.178 393.946 61.806 393.946 61.41C393.946 60.522 393.784 59.844 393.46 59.376C393.136 58.896 392.65 58.656 392.002 58.656C391.318 58.656 390.79 58.92 390.418 59.448C390.058 59.964 389.878 60.672 389.878 61.572ZM406.745 66H405.287C404.951 66 404.711 65.928 404.567 65.784C404.423 65.64 404.351 65.418 404.351 65.118V64.614C404.111 65.154 403.739 65.562 403.235 65.838C402.743 66.102 402.173 66.234 401.525 66.234C400.529 66.234 399.773 65.94 399.257 65.352C398.753 64.764 398.501 63.906 398.501 62.778V56.91H401.057V62.616C401.057 63.204 401.171 63.624 401.399 63.876C401.627 64.128 401.963 64.254 402.407 64.254C402.995 64.254 403.439 64.044 403.739 63.624C404.039 63.204 404.189 62.634 404.189 61.914V56.91H406.745V66ZM414.175 64.038V65.946C413.983 65.994 413.773 66.03 413.545 66.054C413.317 66.078 413.047 66.09 412.735 66.09C411.655 66.09 410.863 65.844 410.359 65.352C409.855 64.848 409.603 64.032 409.603 62.904V58.854H408.253V56.91H409.603V54.732H412.159V56.91H414.175V58.854H412.159V62.67C412.159 63.21 412.279 63.576 412.519 63.768C412.759 63.948 413.191 64.038 413.815 64.038H414.175ZM322.583 90L321.719 89.1C320.795 89.856 319.565 90.234 318.029 90.234C317.405 90.234 316.823 90.162 316.283 90.018C315.755 89.886 315.293 89.682 314.897 89.406C314.513 89.13 314.207 88.776 313.979 88.344C313.763 87.912 313.655 87.408 313.655 86.832C313.655 86.064 313.871 85.404 314.303 84.852C314.735 84.3 315.425 83.79 316.373 83.322C315.845 82.782 315.467 82.272 315.239 81.792C315.011 81.312 314.897 80.82 314.897 80.316C314.897 79.848 314.981 79.434 315.149 79.074C315.329 78.702 315.575 78.39 315.887 78.138C316.199 77.886 316.571 77.694 317.003 77.562C317.435 77.418 317.909 77.346 318.425 77.346C318.929 77.346 319.385 77.412 319.793 77.544C320.201 77.676 320.555 77.868 320.855 78.12C321.155 78.372 321.383 78.684 321.539 79.056C321.707 79.416 321.791 79.836 321.791 80.316C321.791 81.012 321.599 81.63 321.215 82.17C320.831 82.71 320.225 83.208 319.397 83.664L321.737 86.202C321.917 85.866 322.079 85.47 322.223 85.014C322.379 84.546 322.523 84.024 322.655 83.448L324.581 83.898C324.425 84.618 324.215 85.308 323.951 85.968C323.699 86.628 323.411 87.198 323.087 87.678L325.247 90H322.583ZM318.353 88.272C318.749 88.272 319.133 88.224 319.505 88.128C319.877 88.032 320.189 87.894 320.441 87.714L317.579 84.618C317.099 84.894 316.727 85.2 316.463 85.536C316.199 85.872 316.067 86.256 316.067 86.688C316.067 87.192 316.259 87.582 316.643 87.858C317.027 88.134 317.597 88.272 318.353 88.272ZM317.129 80.406C317.129 80.694 317.207 80.988 317.363 81.288C317.531 81.588 317.813 81.96 318.209 82.404C318.689 82.128 319.037 81.828 319.253 81.504C319.481 81.168 319.595 80.79 319.595 80.37C319.595 79.962 319.487 79.65 319.271 79.434C319.067 79.218 318.773 79.11 318.389 79.11C318.017 79.11 317.711 79.224 317.471 79.452C317.243 79.668 317.129 79.986 317.129 80.406ZM336.656 88.11C337.748 88.11 338.576 87.75 339.14 87.03C339.716 86.31 340.004 85.23 340.004 83.79C340.004 82.362 339.716 81.288 339.14 80.568C338.576 79.836 337.748 79.47 336.656 79.47C335.564 79.47 334.73 79.836 334.154 80.568C333.59 81.288 333.308 82.362 333.308 83.79C333.308 85.23 333.59 86.31 334.154 87.03C334.73 87.75 335.564 88.11 336.656 88.11ZM336.656 90.27C335.72 90.27 334.874 90.126 334.118 89.838C333.362 89.538 332.72 89.112 332.192 88.56C331.676 87.996 331.274 87.312 330.986 86.508C330.71 85.704 330.572 84.798 330.572 83.79C330.572 82.782 330.71 81.882 330.986 81.09C331.274 80.286 331.676 79.608 332.192 79.056C332.72 78.492 333.362 78.06 334.118 77.76C334.874 77.46 335.72 77.31 336.656 77.31C337.592 77.31 338.438 77.46 339.194 77.76C339.95 78.06 340.586 78.492 341.102 79.056C341.63 79.608 342.032 80.286 342.308 81.09C342.596 81.882 342.74 82.782 342.74 83.79C342.74 84.798 342.596 85.704 342.308 86.508C342.032 87.312 341.63 87.996 341.102 88.56C340.586 89.112 339.95 89.538 339.194 89.838C338.438 90.126 337.592 90.27 336.656 90.27ZM353.044 90H351.586C351.25 90 351.01 89.928 350.866 89.784C350.722 89.64 350.65 89.418 350.65 89.118V88.614C350.41 89.154 350.038 89.562 349.534 89.838C349.042 90.102 348.472 90.234 347.824 90.234C346.828 90.234 346.072 89.94 345.556 89.352C345.052 88.764 344.8 87.906 344.8 86.778V80.91H347.356V86.616C347.356 87.204 347.47 87.624 347.698 87.876C347.926 88.128 348.262 88.254 348.706 88.254C349.294 88.254 349.738 88.044 350.038 87.624C350.338 87.204 350.488 86.634 350.488 85.914V80.91H353.044V90ZM360.474 88.038V89.946C360.282 89.994 360.072 90.03 359.844 90.054C359.616 90.078 359.346 90.09 359.034 90.09C357.954 90.09 357.162 89.844 356.658 89.352C356.154 88.848 355.902 88.032 355.902 86.904V82.854H354.552V80.91H355.902V78.732H358.458V80.91H360.474V82.854H358.458V86.67C358.458 87.21 358.578 87.576 358.818 87.768C359.058 87.948 359.49 88.038 360.114 88.038H360.474ZM364.528 82.458C364.804 81.846 365.23 81.396 365.806 81.108C366.382 80.82 366.994 80.676 367.642 80.676C368.734 80.676 369.616 81.066 370.288 81.846C370.96 82.614 371.296 83.748 371.296 85.248C371.296 85.98 371.206 86.652 371.026 87.264C370.858 87.876 370.606 88.404 370.27 88.848C369.946 89.28 369.544 89.622 369.064 89.874C368.584 90.114 368.044 90.234 367.444 90.234C366.94 90.234 366.43 90.138 365.914 89.946C365.41 89.742 365.002 89.394 364.69 88.902V93.78H362.134V80.91H363.61C364.222 80.91 364.528 81.18 364.528 81.72V82.458ZM364.618 85.572C364.618 86.412 364.786 87.072 365.122 87.552C365.47 88.02 365.98 88.254 366.652 88.254C367.012 88.254 367.318 88.182 367.57 88.038C367.834 87.894 368.044 87.696 368.2 87.444C368.368 87.18 368.488 86.874 368.56 86.526C368.644 86.178 368.686 85.806 368.686 85.41C368.686 84.522 368.524 83.844 368.2 83.376C367.876 82.896 367.39 82.656 366.742 82.656C366.058 82.656 365.53 82.92 365.158 83.448C364.798 83.964 364.618 84.672 364.618 85.572ZM381.486 90H380.028C379.692 90 379.452 89.928 379.308 89.784C379.164 89.64 379.092 89.418 379.092 89.118V88.614C378.852 89.154 378.48 89.562 377.976 89.838C377.484 90.102 376.914 90.234 376.266 90.234C375.27 90.234 374.514 89.94 373.998 89.352C373.494 88.764 373.242 87.906 373.242 86.778V80.91H375.798V86.616C375.798 87.204 375.912 87.624 376.14 87.876C376.368 88.128 376.704 88.254 377.148 88.254C377.736 88.254 378.18 88.044 378.48 87.624C378.78 87.204 378.93 86.634 378.93 85.914V80.91H381.486V90ZM388.915 88.038V89.946C388.723 89.994 388.513 90.03 388.285 90.054C388.057 90.078 387.787 90.09 387.475 90.09C386.395 90.09 385.603 89.844 385.099 89.352C384.595 88.848 384.343 88.032 384.343 86.904V82.854H382.993V80.91H384.343V78.732H386.899V80.91H388.915V82.854H386.899V86.67C386.899 87.21 387.019 87.576 387.259 87.768C387.499 87.948 387.931 88.038 388.555 88.038H388.915Z" fill="white"/>
<rect x="514" y="310" width="164" height="80" fill="#00285A"/>
<path d="M532.804 345.884L532.552 348.764C532.792 348.548 533.092 348.386 533.452 348.278C533.824 348.17 534.238 348.116 534.694 348.116C535.846 348.116 536.764 348.446 537.448 349.106C538.144 349.766 538.492 350.702 538.492 351.914C538.492 352.562 538.384 353.156 538.168 353.696C537.964 354.224 537.658 354.68 537.25 355.064C536.842 355.436 536.344 355.724 535.756 355.928C535.168 356.132 534.496 356.234 533.74 356.234C532.144 356.234 530.77 355.748 529.618 354.776L530.716 353.138C531.664 353.81 532.606 354.146 533.542 354.146C533.842 354.146 534.13 354.11 534.406 354.038C534.694 353.954 534.946 353.828 535.162 353.66C535.378 353.492 535.546 353.276 535.666 353.012C535.798 352.748 535.864 352.43 535.864 352.058C535.864 351.41 535.684 350.942 535.324 350.654C534.964 350.354 534.478 350.204 533.866 350.204C533.482 350.204 533.116 350.264 532.768 350.384C532.42 350.492 532.114 350.648 531.85 350.852L530.212 350.078L530.77 343.814H537.772V345.884H532.804ZM540.342 356V353.264H543.114V356H540.342ZM552.386 351.734V356H549.812V343.58H554.456C555.884 343.58 556.988 343.934 557.768 344.642C558.548 345.338 558.938 346.346 558.938 347.666C558.938 348.938 558.548 349.934 557.768 350.654C557 351.374 555.89 351.734 554.438 351.734H552.386ZM552.386 345.506V349.808H554.024C554.792 349.808 555.368 349.64 555.752 349.304C556.136 348.968 556.328 348.422 556.328 347.666C556.328 346.91 556.136 346.364 555.752 346.028C555.38 345.68 554.81 345.506 554.042 345.506H552.386ZM560.952 346.91H562.41C563.022 346.91 563.328 347.174 563.328 347.702V348.818C563.52 348.206 563.838 347.72 564.282 347.36C564.738 346.988 565.302 346.802 565.974 346.802C566.25 346.802 566.49 346.832 566.694 346.892V348.98H566.172C565.26 348.98 564.588 349.214 564.156 349.682C563.724 350.15 563.508 350.93 563.508 352.022V356H560.952V346.91ZM569.7 352.004C569.796 352.796 570.06 353.372 570.492 353.732C570.936 354.08 571.548 354.254 572.328 354.254C572.748 354.254 573.15 354.2 573.534 354.092C573.918 353.984 574.26 353.828 574.56 353.624L575.424 355.136C574.572 355.868 573.45 356.234 572.058 356.234C571.23 356.234 570.51 356.114 569.898 355.874C569.298 355.622 568.794 355.28 568.386 354.848C567.99 354.416 567.696 353.906 567.504 353.318C567.312 352.73 567.216 352.1 567.216 351.428C567.216 350.648 567.336 349.964 567.576 349.376C567.816 348.776 568.14 348.278 568.548 347.882C568.968 347.486 569.454 347.186 570.006 346.982C570.57 346.778 571.164 346.676 571.788 346.676C572.424 346.676 572.988 346.778 573.48 346.982C573.972 347.174 574.38 347.45 574.704 347.81C575.04 348.17 575.292 348.602 575.46 349.106C575.64 349.598 575.73 350.15 575.73 350.762C575.73 350.966 575.718 351.182 575.694 351.41C575.682 351.626 575.652 351.824 575.604 352.004H569.7ZM571.788 348.548C571.212 348.548 570.744 348.722 570.384 349.07C570.024 349.418 569.814 349.898 569.754 350.51H573.426V350.276C573.426 349.724 573.276 349.298 572.976 348.998C572.688 348.698 572.292 348.548 571.788 348.548ZM580.098 348.458C580.374 347.846 580.8 347.396 581.376 347.108C581.952 346.82 582.564 346.676 583.212 346.676C584.304 346.676 585.186 347.066 585.858 347.846C586.53 348.614 586.866 349.748 586.866 351.248C586.866 351.98 586.776 352.652 586.596 353.264C586.428 353.876 586.176 354.404 585.84 354.848C585.516 355.28 585.114 355.622 584.634 355.874C584.154 356.114 583.614 356.234 583.014 356.234C582.51 356.234 582 356.138 581.484 355.946C580.98 355.742 580.572 355.394 580.26 354.902V359.78H577.704V346.91H579.18C579.792 346.91 580.098 347.18 580.098 347.72V348.458ZM580.188 351.572C580.188 352.412 580.356 353.072 580.692 353.552C581.04 354.02 581.55 354.254 582.222 354.254C582.582 354.254 582.888 354.182 583.14 354.038C583.404 353.894 583.614 353.696 583.77 353.444C583.938 353.18 584.058 352.874 584.13 352.526C584.214 352.178 584.256 351.806 584.256 351.41C584.256 350.522 584.094 349.844 583.77 349.376C583.446 348.896 582.96 348.656 582.312 348.656C581.628 348.656 581.1 348.92 580.728 349.448C580.368 349.964 580.188 350.672 580.188 351.572ZM588.2 353.444C588.2 352.496 588.542 351.776 589.226 351.284C589.91 350.78 590.852 350.528 592.052 350.528H593.528V350.168C593.528 349.64 593.384 349.256 593.096 349.016C592.82 348.764 592.376 348.638 591.764 348.638C591.308 348.638 590.87 348.704 590.45 348.836C590.03 348.968 589.646 349.154 589.298 349.394L588.416 347.9C588.92 347.516 589.49 347.216 590.126 347C590.762 346.784 591.446 346.676 592.178 346.676C593.426 346.676 594.362 346.976 594.986 347.576C595.622 348.176 595.94 349.04 595.94 350.168V353.66C595.94 353.936 595.988 354.122 596.084 354.218C596.18 354.302 596.354 354.344 596.606 354.344H596.804V355.91C596.672 355.958 596.516 356 596.336 356.036C596.156 356.072 595.94 356.09 595.688 356.09C595.16 356.09 594.764 355.982 594.5 355.766C594.236 355.55 594.08 355.232 594.032 354.812C593.816 355.244 593.456 355.586 592.952 355.838C592.448 356.09 591.872 356.216 591.224 356.216C590.312 356.216 589.58 355.97 589.028 355.478C588.476 354.986 588.2 354.308 588.2 353.444ZM591.872 354.38C592.388 354.38 592.79 354.212 593.078 353.876C593.378 353.54 593.528 353.066 593.528 352.454V351.986H592.286C591.758 351.986 591.35 352.094 591.062 352.31C590.786 352.514 590.648 352.826 590.648 353.246C590.648 353.63 590.756 353.918 590.972 354.11C591.2 354.29 591.5 354.38 591.872 354.38ZM598.464 346.91H599.922C600.534 346.91 600.84 347.174 600.84 347.702V348.818C601.032 348.206 601.35 347.72 601.794 347.36C602.25 346.988 602.814 346.802 603.486 346.802C603.762 346.802 604.002 346.832 604.206 346.892V348.98H603.684C602.772 348.98 602.1 349.214 601.668 349.682C601.236 350.15 601.02 350.93 601.02 352.022V356H598.464V346.91ZM607.212 352.004C607.308 352.796 607.572 353.372 608.004 353.732C608.448 354.08 609.06 354.254 609.84 354.254C610.26 354.254 610.662 354.2 611.046 354.092C611.43 353.984 611.772 353.828 612.072 353.624L612.936 355.136C612.084 355.868 610.962 356.234 609.57 356.234C608.742 356.234 608.022 356.114 607.41 355.874C606.81 355.622 606.306 355.28 605.898 354.848C605.502 354.416 605.208 353.906 605.016 353.318C604.824 352.73 604.728 352.1 604.728 351.428C604.728 350.648 604.848 349.964 605.088 349.376C605.328 348.776 605.652 348.278 606.06 347.882C606.48 347.486 606.966 347.186 607.518 346.982C608.082 346.778 608.676 346.676 609.3 346.676C609.936 346.676 610.5 346.778 610.992 346.982C611.484 347.174 611.892 347.45 612.216 347.81C612.552 348.17 612.804 348.602 612.972 349.106C613.152 349.598 613.242 350.15 613.242 350.762C613.242 350.966 613.23 351.182 613.206 351.41C613.194 351.626 613.164 351.824 613.116 352.004H607.212ZM609.3 348.548C608.724 348.548 608.256 348.722 607.896 349.07C607.536 349.418 607.326 349.898 607.266 350.51H610.938V350.276C610.938 349.724 610.788 349.298 610.488 348.998C610.2 348.698 609.804 348.548 609.3 348.548ZM622.419 356H619.791V343.58H622.419V356ZM625.113 346.91H626.571C627.183 346.91 627.489 347.174 627.489 347.702V348.368C627.729 347.852 628.107 347.444 628.623 347.144C629.139 346.832 629.757 346.676 630.477 346.676C631.449 346.676 632.199 346.958 632.727 347.522C633.267 348.086 633.537 348.932 633.537 350.06V356H630.981V350.24C630.981 349.184 630.513 348.656 629.577 348.656C628.989 348.656 628.521 348.866 628.173 349.286C627.837 349.706 627.669 350.288 627.669 351.032V356H625.113V346.91ZM638.423 348.458C638.699 347.846 639.125 347.396 639.701 347.108C640.277 346.82 640.889 346.676 641.537 346.676C642.629 346.676 643.511 347.066 644.183 347.846C644.855 348.614 645.191 349.748 645.191 351.248C645.191 351.98 645.101 352.652 644.921 353.264C644.753 353.876 644.501 354.404 644.165 354.848C643.841 355.28 643.439 355.622 642.959 355.874C642.479 356.114 641.939 356.234 641.339 356.234C640.835 356.234 640.325 356.138 639.809 355.946C639.305 355.742 638.897 355.394 638.585 354.902V359.78H636.029V346.91H637.505C638.117 346.91 638.423 347.18 638.423 347.72V348.458ZM638.513 351.572C638.513 352.412 638.681 353.072 639.017 353.552C639.365 354.02 639.875 354.254 640.547 354.254C640.907 354.254 641.213 354.182 641.465 354.038C641.729 353.894 641.939 353.696 642.095 353.444C642.263 353.18 642.383 352.874 642.455 352.526C642.539 352.178 642.581 351.806 642.581 351.41C642.581 350.522 642.419 349.844 642.095 349.376C641.771 348.896 641.285 348.656 640.637 348.656C639.953 348.656 639.425 348.92 639.053 349.448C638.693 349.964 638.513 350.672 638.513 351.572ZM655.38 356H653.922C653.586 356 653.346 355.928 653.202 355.784C653.058 355.64 652.986 355.418 652.986 355.118V354.614C652.746 355.154 652.374 355.562 651.87 355.838C651.378 356.102 650.808 356.234 650.16 356.234C649.164 356.234 648.408 355.94 647.892 355.352C647.388 354.764 647.136 353.906 647.136 352.778V346.91H649.692V352.616C649.692 353.204 649.806 353.624 650.034 353.876C650.262 354.128 650.598 354.254 651.042 354.254C651.63 354.254 652.074 354.044 652.374 353.624C652.674 353.204 652.824 352.634 652.824 351.914V346.91H655.38V356ZM662.81 354.038V355.946C662.618 355.994 662.408 356.03 662.18 356.054C661.952 356.078 661.682 356.09 661.37 356.09C660.29 356.09 659.498 355.844 658.994 355.352C658.49 354.848 658.238 354.032 658.238 352.904V348.854H656.888V346.91H658.238V344.732H660.794V346.91H662.81V348.854H660.794V352.67C660.794 353.21 660.914 353.576 661.154 353.768C661.394 353.948 661.826 354.038 662.45 354.038H662.81Z" fill="white"/>
<path d="M150.052 56.11C151.144 56.11 151.972 55.75 152.536 55.03C153.112 54.31 153.4 53.23 153.4 51.79C153.4 50.362 153.112 49.288 152.536 48.568C151.972 47.836 151.144 47.47 150.052 47.47C148.96 47.47 148.126 47.836 147.55 48.568C146.986 49.288 146.704 50.362 146.704 51.79C146.704 53.23 146.986 54.31 147.55 55.03C148.126 55.75 148.96 56.11 150.052 56.11ZM150.052 58.27C149.116 58.27 148.27 58.126 147.514 57.838C146.758 57.538 146.116 57.112 145.588 56.56C145.072 55.996 144.67 55.312 144.382 54.508C144.106 53.704 143.968 52.798 143.968 51.79C143.968 50.782 144.106 49.882 144.382 49.09C144.67 48.286 145.072 47.608 145.588 47.056C146.116 46.492 146.758 46.06 147.514 45.76C148.27 45.46 149.116 45.31 150.052 45.31C150.988 45.31 151.834 45.46 152.59 45.76C153.346 46.06 153.982 46.492 154.498 47.056C155.026 47.608 155.428 48.286 155.704 49.09C155.992 49.882 156.136 50.782 156.136 51.79C156.136 52.798 155.992 53.704 155.704 54.508C155.428 55.312 155.026 55.996 154.498 56.56C153.982 57.112 153.346 57.538 152.59 57.838C151.834 58.126 150.988 58.27 150.052 58.27ZM160.662 50.458C160.938 49.846 161.364 49.396 161.94 49.108C162.516 48.82 163.128 48.676 163.776 48.676C164.868 48.676 165.75 49.066 166.422 49.846C167.094 50.614 167.43 51.748 167.43 53.248C167.43 53.98 167.34 54.652 167.16 55.264C166.992 55.876 166.74 56.404 166.404 56.848C166.08 57.28 165.678 57.622 165.198 57.874C164.718 58.114 164.178 58.234 163.578 58.234C163.074 58.234 162.564 58.138 162.048 57.946C161.544 57.742 161.136 57.394 160.824 56.902V61.78H158.268V48.91H159.744C160.356 48.91 160.662 49.18 160.662 49.72V50.458ZM160.752 53.572C160.752 54.412 160.92 55.072 161.256 55.552C161.604 56.02 162.114 56.254 162.786 56.254C163.146 56.254 163.452 56.182 163.704 56.038C163.968 55.894 164.178 55.696 164.334 55.444C164.502 55.18 164.622 54.874 164.694 54.526C164.778 54.178 164.82 53.806 164.82 53.41C164.82 52.522 164.658 51.844 164.334 51.376C164.01 50.896 163.524 50.656 162.876 50.656C162.192 50.656 161.664 50.92 161.292 51.448C160.932 51.964 160.752 52.672 160.752 53.572ZM174.362 56.038V57.946C174.17 57.994 173.96 58.03 173.732 58.054C173.504 58.078 173.234 58.09 172.922 58.09C171.842 58.09 171.05 57.844 170.546 57.352C170.042 56.848 169.79 56.032 169.79 54.904V50.854H168.44V48.91H169.79V46.732H172.346V48.91H174.362V50.854H172.346V54.67C172.346 55.21 172.466 55.576 172.706 55.768C172.946 55.948 173.378 56.038 174.002 56.038H174.362ZM178.578 58H176.022V48.91H178.578V58ZM176.004 45.184H178.596V47.506H176.004V45.184ZM189.958 53.446C189.958 54.202 189.844 54.88 189.616 55.48C189.4 56.068 189.088 56.566 188.68 56.974C188.272 57.382 187.78 57.694 187.204 57.91C186.628 58.126 185.986 58.234 185.278 58.234C184.57 58.234 183.928 58.126 183.352 57.91C182.776 57.694 182.284 57.382 181.876 56.974C181.468 56.566 181.15 56.068 180.922 55.48C180.706 54.88 180.598 54.202 180.598 53.446C180.598 52.69 180.706 52.018 180.922 51.43C181.15 50.842 181.468 50.344 181.876 49.936C182.284 49.528 182.776 49.216 183.352 49C183.928 48.784 184.57 48.676 185.278 48.676C185.986 48.676 186.628 48.784 187.204 49C187.78 49.216 188.272 49.528 188.68 49.936C189.088 50.344 189.4 50.842 189.616 51.43C189.844 52.018 189.958 52.69 189.958 53.446ZM187.348 53.446C187.348 52.522 187.168 51.826 186.808 51.358C186.46 50.89 185.95 50.656 185.278 50.656C184.606 50.656 184.09 50.89 183.73 51.358C183.382 51.826 183.208 52.522 183.208 53.446C183.208 54.382 183.382 55.084 183.73 55.552C184.09 56.02 184.606 56.254 185.278 56.254C185.95 56.254 186.46 56.02 186.808 55.552C187.168 55.084 187.348 54.382 187.348 53.446ZM191.965 48.91H193.423C194.035 48.91 194.341 49.174 194.341 49.702V50.368C194.581 49.852 194.959 49.444 195.475 49.144C195.991 48.832 196.609 48.676 197.329 48.676C198.301 48.676 199.051 48.958 199.579 49.522C200.119 50.086 200.389 50.932 200.389 52.06V58H197.833V52.24C197.833 51.184 197.365 50.656 196.429 50.656C195.841 50.656 195.373 50.866 195.025 51.286C194.689 51.706 194.521 52.288 194.521 53.032V58H191.965V48.91ZM202.197 55.444C202.197 54.496 202.539 53.776 203.223 53.284C203.907 52.78 204.849 52.528 206.049 52.528H207.525V52.168C207.525 51.64 207.381 51.256 207.093 51.016C206.817 50.764 206.373 50.638 205.761 50.638C205.305 50.638 204.867 50.704 204.447 50.836C204.027 50.968 203.643 51.154 203.295 51.394L202.413 49.9C202.917 49.516 203.487 49.216 204.123 49C204.759 48.784 205.443 48.676 206.175 48.676C207.423 48.676 208.359 48.976 208.983 49.576C209.619 50.176 209.937 51.04 209.937 52.168V55.66C209.937 55.936 209.985 56.122 210.081 56.218C210.177 56.302 210.351 56.344 210.603 56.344H210.801V57.91C210.669 57.958 210.513 58 210.333 58.036C210.153 58.072 209.937 58.09 209.685 58.09C209.157 58.09 208.761 57.982 208.497 57.766C208.233 57.55 208.077 57.232 208.029 56.812C207.813 57.244 207.453 57.586 206.949 57.838C206.445 58.09 205.869 58.216 205.221 58.216C204.309 58.216 203.577 57.97 203.025 57.478C202.473 56.986 202.197 56.308 202.197 55.444ZM205.869 56.38C206.385 56.38 206.787 56.212 207.075 55.876C207.375 55.54 207.525 55.066 207.525 54.454V53.986H206.283C205.755 53.986 205.347 54.094 205.059 54.31C204.783 54.514 204.645 54.826 204.645 55.246C204.645 55.63 204.753 55.918 204.969 56.11C205.197 56.29 205.497 56.38 205.869 56.38ZM214.981 45.094V54.904C214.981 55.384 215.053 55.702 215.197 55.858C215.353 56.002 215.659 56.074 216.115 56.074H216.277V58C216.013 58.06 215.629 58.09 215.125 58.09C214.153 58.09 213.457 57.85 213.037 57.37C212.629 56.89 212.425 56.17 212.425 55.21V45.094H214.981Z" fill="#8B8E97"/>
<path d="M103 407V435.501H597V407" stroke="#C9CACE"/>
<path d="M247 222L257 216.5L247 211V216H194L194 217H247V222Z" fill="#C9CACE"/>
<path d="M602.5 410L597 400L591.5 410L596.5 410L596.5 424L597.5 424L597.5 410L602.5 410Z" fill="#C9CACE"/>
<path d="M591 290L596.5 300L602 290L597 290L597 267L596 267L596 290L591 290Z" fill="#C9CACE"/>
<path d="M494 222L504 216.5L494 211V216H441L441 217H494V222Z" fill="#C9CACE"/>
<path d="M349.5 162L349.5 110" stroke="#C9CACE" stroke-width="2" stroke-dasharray="2 2"/>
<path d="M344 156.999L349.5 166.999L355 156.999L350 156.999L349 156.999L344 156.999Z" fill="#C9CACE"/>
<path d="M248 65.4999L102.999 65.4999L102.999 167" stroke="#C9CACE" stroke-width="2" stroke-dasharray="2 2"/>
<path d="M246.999 71L256.999 65.5L246.999 60V65V66V71Z" fill="#C9CACE"/>
<path d="M451 344L441 349.5L451 355L451 350L504 350L504 349L451 349L451 344Z" fill="#C9CACE"/>
<path d="M204 344L194 349.5L204 355L204 350L257 350L257 349L204 349L204 344Z" fill="#C9CACE"/>
</svg>
