<?xml version="1.0" encoding="UTF-8"?>
<svg width="917" height="672" overflow="hidden" version="1.1" xmlns="http://www.w3.org/2000/svg"><defs><clipPath id="clip0"><rect width="917" height="672"/></clipPath></defs><g clip-path="url(#clip0)"><path d="m0 0h917v671.88h-917z" fill="#fff"/><g transform="matrix(1 0 0 .99982 320.28 533)" fill="#0071c5" aria-label="INFERENCE REQUEST"><path d="m1.504 0v-22.4h6.016v22.4z"/><path d="m16.224-13.408v13.408h-5.792v-22.4h6.08l9.824 13.408v-13.408h5.792v22.4h-6.08z"/><path d="m34.944 0v-22.4h17.248v5.056h-11.232v4h10.304v5.056h-10.304v8.288z"/><path d="m54.176 0v-22.4h17.536v5.056h-11.52v3.52h10.624v5.056h-10.624v3.712h11.52v5.056z"/><path d="m89.44-8.8 5.344 8.8h-7.008l-4.352-7.648h-3.392v7.648h-5.952v-22.4h10.944q4.416 0 6.752 1.856 2.368 1.824 2.368 5.28 0 2.368-1.184 4t-3.52 2.464zm-1.376-6.24q0-1.152-0.768-1.728t-2.336-0.576h-4.928v4.704h4.928q1.504 0 2.304-0.608 0.8-0.64 0.8-1.792z"/><path d="m96.576 0v-22.4h17.536v5.056h-11.52v3.52h10.624v5.056h-10.624v3.712h11.52v5.056z"/><path d="m122.27-13.408v13.408h-5.792v-22.4h6.08l9.824 13.408v-13.408h5.792v22.4h-6.08z"/><path d="m146.34-11.232q0 2.816 1.696 4.704 1.728 1.888 4.32 1.888 1.664 0 3.072-0.864 1.44-0.896 2.432-2.528l4.384 2.752q-1.376 2.624-4.096 4.224-2.688 1.568-5.952 1.568-5.28 0-8.608-3.264-3.328-3.296-3.328-8.416 0-5.024 3.456-8.384 3.488-3.36 8.736-3.36 3.36 0 5.856 1.44t3.936 4.256l-4.608 2.88q-1.088-1.824-2.304-2.624t-2.976-0.8q-2.688 0-4.352 1.824t-1.664 4.704z"/><path d="m164.26 0v-22.4h17.536v5.056h-11.52v3.52h10.624v5.056h-10.624v3.712h11.52v5.056z"/><path d="m204.86-8.8 5.344 8.8h-7.008l-4.352-7.648h-3.392v7.648h-5.952v-22.4h10.944q4.416 0 6.752 1.856 2.368 1.824 2.368 5.28 0 2.368-1.184 4t-3.52 2.464zm-1.376-6.24q0-1.152-0.768-1.728t-2.336-0.576h-4.928v4.704h4.928q1.504 0 2.304-0.608 0.8-0.64 0.8-1.792z"/><path d="m212 0v-22.4h17.536v5.056h-11.52v3.52h10.624v5.056h-10.624v3.712h11.52v5.056z"/><path d="m231.01-11.168q0-5.056 3.392-8.384 3.424-3.36 8.608-3.36t8.544 3.328q3.392 3.328 3.392 8.352 0 4.32-2.592 7.488-2.56 3.168-6.752 4 0.064 0.704 0.512 1.024t1.376 0.32h1.92v4.16h-2.24q-3.488 0-5.152-1.344-1.632-1.312-1.632-4.128-4.224-0.832-6.816-3.968-2.56-3.168-2.56-7.488zm6.08-0.064q0 2.848 1.664 4.736 1.696 1.856 4.256 1.856t4.192-1.824q1.664-1.856 1.664-4.704t-1.696-4.704q-1.664-1.888-4.224-1.888t-4.224 1.856q-1.632 1.824-1.632 4.672z"/><path d="m267.74-4.64q2.24 0 3.552-1.408t1.312-3.808v-12.544h6.016v12.608q0 4.704-3.008 7.52-3.008 2.784-8.032 2.784-4.896 0-7.84-2.784-2.912-2.816-2.912-7.52v-12.608h6.016v12.544q0 2.4 1.344 3.808t3.552 1.408z"/><path d="m281.25 0v-22.4h17.536v5.056h-11.52v3.52h10.624v5.056h-10.624v3.712h11.52v5.056z"/><path d="m315.01-6.592q0-0.928-0.928-1.312-0.896-0.416-3.456-0.672-5.28-0.544-7.392-2.048t-2.112-4.832q0-3.296 2.656-5.344t7.136-2.048q2.656 0 4.96 0.832t4.352 2.528l-3.008 4.32q-1.472-1.184-3.232-1.856-1.728-0.672-3.328-0.672-1.76 0-2.752 0.48-0.96 0.48-0.96 1.312 0 0.896 0.96 1.28t3.648 0.64q5.024 0.48 7.136 2.048 2.144 1.568 2.144 4.928 0 3.328-2.72 5.408-2.688 2.048-7.264 2.048-3.136 0-5.824-0.896-2.688-0.928-4.928-2.752l2.912-4.384q2.016 1.44 4.064 2.176 2.048 0.704 4.032 0.704 1.888 0 2.88-0.48 1.024-0.512 1.024-1.408z"/><path d="m329.02-17.152h-7.424v-5.248h20.864v5.248h-7.424v17.152h-6.016z"/></g><path d="m4.6649 56.862c0-47.02-0.27896-46.863 83.578-46.863l740.51 0.96869c83.857 0 85.243-3.9256 85.243 43.094l-1.665 446.77c0 47.02 5.274 44.961-78.583 44.961l-747.17 0.969c-83.857 0-83.578 4.824-83.578-42.196 0-122.16 1.6648-325.54 1.6648-447.7z" fill="#fff" fill-rule="evenodd" stroke="#0071C5" stroke-miterlimit="8" stroke-width="4.0007"/><g fill="#FC4C02"><path transform="matrix(1.0002 0 0 -1 301 662.76)" d="m2-2.3899e-6 9e-5 77.86h-4l-9e-5 -77.86zm4.0001 75.86-6 12-6-12z"/><path transform="matrix(1.0002 0 0 -1 277 662.76)" d="m2-2.3899e-6 9e-5 77.86h-4l-9e-5 -77.86zm4.0001 75.86-6 12-6-12z"/><path transform="matrix(1.0002 0 0 -1 253 662.76)" d="m2-2.3899e-6 9e-5 77.86h-4l-9e-5 -77.86zm4.0001 75.86-6 12-6-12z"/><path transform="matrix(1.0002 0 0 -1 228 662.76)" d="m2-2.3899e-6 9e-5 77.86h-4l-9e-5 -77.86zm4.0001 75.86-6 12-6-12z"/><path transform="matrix(1.0002 0 0 -1 204 662.76)" d="m2-2.3899e-6 9e-5 77.86h-4l-9e-5 -77.86zm4.0001 75.86-6 12-6-12z"/><path transform="matrix(1.0002 0 0 -1 180 662.76)" d="m2-2.3899e-6 9e-5 77.86h-4l-9e-5 -77.86zm4.0001 75.86-6 12-6-12z"/><path transform="matrix(1.0002 0 0 -1 156 662.76)" d="m2-2.3899e-6 9e-5 77.86h-4l-9e-5 -77.86zm4.0001 75.86-6 12-6-12z"/><path transform="matrix(1.0002 0 0 -1 132 662.76)" d="m2-2.3899e-6 9e-5 77.86h-4l-9e-5 -77.86zm4.0001 75.86-6 12-6-12z"/><path transform="matrix(1.0002 0 0 -1 108 662.76)" d="m2-2.3899e-6 9e-5 77.86h-4l-9e-5 -77.86zm4.0001 75.86-6 12-6-12z"/><path transform="matrix(1.0002 0 0 -1 84 662.76)" d="m2-2.3899e-6 9e-5 77.86h-4l-9e-5 -77.86zm4.0001 75.86-6 12-6-12z"/><path transform="matrix(1.0002 0 0 -1 59 662.76)" d="m2-2.3899e-6 9e-5 77.86h-4l-9e-5 -77.86zm4.0001 75.86-6 12-6-12z"/><path transform="matrix(1.0002 0 0 -1 35 662.76)" d="m2-2.3899e-6 9e-5 77.86h-4l-9e-5 -77.86zm4.0001 75.86-6 12-6-12z"/><path transform="matrix(1.0002 0 0 -1 592 662.76)" d="m2-2.3899e-6 9e-5 77.86h-4l-9e-5 -77.86zm4.0001 75.86-6 12-6-12z"/><path transform="matrix(1.0002 0 0 -1 567 662.76)" d="m2-2.3899e-6 9e-5 77.86h-4l-9e-5 -77.86zm4.0001 75.86-6 12-6-12z"/><path transform="matrix(1.0002 0 0 -1 543 662.76)" d="m2-2.3899e-6 9e-5 77.86h-4l-9e-5 -77.86zm4.0001 75.86-6 12-6-12z"/><path transform="matrix(1.0002 0 0 -1 519 662.76)" d="m2-2.3899e-6 9e-5 77.86h-4l-9e-5 -77.86zm4.0001 75.86-6 12-6-12z"/><path transform="matrix(1.0002 0 0 -1 495 662.76)" d="m2-2.3899e-6 9e-5 77.86h-4l-9e-5 -77.86zm4.0001 75.86-6 12-6-12z"/><path transform="matrix(1.0002 0 0 -1 471 662.76)" d="m2-2.3899e-6 9e-5 77.86h-4l-9e-5 -77.86zm4.0001 75.86-6 12-6-12z"/><path transform="matrix(1.0002 0 0 -1 446 662.76)" d="m2-2.3899e-6 9e-5 77.86h-4l-9e-5 -77.86zm4.0001 75.86-6 12-6-12z"/><path transform="matrix(1.0002 0 0 -1 422 662.76)" d="m2-2.3899e-6 9e-5 77.86h-4l-9e-5 -77.86zm4.0001 75.86-6 12-6-12z"/><path transform="matrix(1.0002 0 0 -1 398 662.76)" d="m2-2.3899e-6 9e-5 77.86h-4l-9e-5 -77.86zm4.0001 75.86-6 12-6-12z"/><path transform="matrix(1.0002 0 0 -1 374 662.76)" d="m2-2.3899e-6 9e-5 77.86h-4l-9e-5 -77.86zm4.0001 75.86-6 12-6-12z"/><path transform="matrix(1.0002 0 0 -1 350 662.76)" d="m2-2.3899e-6 9e-5 77.86h-4l-9e-5 -77.86zm4.0001 75.86-6 12-6-12z"/><path transform="matrix(1.0002 0 0 -1 325 662.76)" d="m2-2.3899e-6 9e-5 77.86h-4l-9e-5 -77.86zm4.0001 75.86-6 12-6-12z"/><path transform="matrix(1.0002 0 0 -1 882 662.76)" d="m2-2.3899e-6 9e-5 77.86h-4l-9e-5 -77.86zm4.0001 75.86-6 12-6-12z"/><path transform="matrix(1.0002 0 0 -1 858 662.76)" d="m2-2.3899e-6 9e-5 77.86h-4l-9e-5 -77.86zm4.0001 75.86-6 12-6-12z"/><path transform="matrix(1.0002 0 0 -1 834 662.76)" d="m2-2.3899e-6 9e-5 77.86h-4l-9e-5 -77.86zm4.0001 75.86-6 12-6-12z"/><path transform="matrix(1.0002 0 0 -1 809 662.76)" d="m2-2.3899e-6 9e-5 77.86h-4l-9e-5 -77.86zm4.0001 75.86-6 12-6-12z"/><path transform="matrix(1.0002 0 0 -1 785 662.76)" d="m2-2.3899e-6 9e-5 77.86h-4l-9e-5 -77.86zm4.0001 75.86-6 12-6-12z"/><path transform="matrix(1.0002 0 0 -1 761 662.76)" d="m2-2.3899e-6 9e-5 77.86h-4l-9e-5 -77.86zm4.0001 75.86-6 12-6-12z"/><path transform="matrix(1.0002 0 0 -1 737 662.76)" d="m2-2.3899e-6 9e-5 77.86h-4l-9e-5 -77.86zm4.0001 75.86-6 12-6-12z"/><path transform="matrix(1.0002 0 0 -1 713 662.76)" d="m2-2.3899e-6 9e-5 77.86h-4l-9e-5 -77.86zm4.0001 75.86-6 12-6-12z"/><path transform="matrix(1.0002 0 0 -1 689 662.76)" d="m2-2.3899e-6 9e-5 77.86h-4l-9e-5 -77.86zm4.0001 75.86-6 12-6-12z"/><path transform="matrix(1.0002 0 0 -1 665 662.76)" d="m2-2.3899e-6 9e-5 77.86h-4l-9e-5 -77.86zm4.0001 75.86-6 12-6-12z"/><path transform="matrix(1.0002 0 0 -1 640 662.76)" d="m2-2.3899e-6 9e-5 77.86h-4l-9e-5 -77.86zm4.0001 75.86-6 12-6-12z"/><path transform="matrix(1.0002 0 0 -1 616 662.76)" d="m2-2.3899e-6 9e-5 77.86h-4l-9e-5 -77.86zm4.0001 75.86-6 12-6-12z"/></g><path d="m356 604.89h205v41h-205z" fill="#fff"/><g transform="matrix(1 0 0 .99982 359.48 637)" fill="#fc4c02" aria-label="THREADS"><path d="m9.1216 0v-23.194h-8.2837v-4.7227h22.185v4.7227h-8.2646v23.194z"/><path d="m26.679 0v-27.917h5.6367v10.988h11.045v-10.988h5.6367v27.917h-5.6367v-12.207h-11.045v12.207z"/><path d="m54.844 0v-27.917h11.864q4.4751 0 6.4937 0.76172 2.0376 0.74268 3.2563 2.666t1.2188 4.3989q0 3.1421-1.8472 5.1987-1.8472 2.0376-5.5225 2.5708 1.8281 1.0664 3.0088 2.3423 1.1997 1.2759 3.2183 4.5322l3.4087 5.4463h-6.7412l-4.0752-6.0747q-2.1709-3.2563-2.9707-4.0942-0.7998-0.85693-1.6948-1.1616-0.89502-0.32373-2.8374-0.32373h-1.1426v11.654zm5.6367-16.11h4.1704q4.0562 0 5.0654-0.34277 1.0093-0.34277 1.5806-1.1807t0.57129-2.0947q0-1.4092-0.76172-2.2661-0.74268-0.87598-2.1138-1.1045-0.68555-0.09521-4.1133-0.09521h-4.3989z"/><path d="m82.989 0v-27.917h20.7v4.7227h-15.063v6.189h14.016v4.7036h-14.016v7.5981h15.596v4.7036z"/><path d="m134.18 0h-6.1318l-2.4375-6.3413h-11.159l-2.3042 6.3413h-5.9795l10.874-27.917h5.9604zm-10.378-11.045-3.8467-10.359-3.7705 10.359z"/><path d="m137.15-27.917h10.302q3.4849 0 5.313 0.5332 2.4565 0.72363 4.2085 2.5708t2.666 4.5322q0.91406 2.666 0.91406 6.5889 0 3.4468-0.85693 5.9414-1.0474 3.0469-2.9898 4.9321-1.4663 1.4282-3.9609 2.228-1.8662 0.59033-4.9893 0.59033h-10.607zm5.6367 4.7227v18.491h4.2085q2.3613 0 3.4087-0.2666 1.3711-0.34277 2.2661-1.1616 0.91406-0.81885 1.4854-2.6851 0.57129-1.8853 0.57129-5.1226t-0.57129-4.9702-1.5996-2.7041q-1.0283-0.97119-2.6089-1.314-1.1807-0.2666-4.6274-0.2666z"/><path d="m163.9-9.0835 5.4844-0.5332q0.49511 2.7612 1.9995 4.0562 1.5234 1.2949 4.0942 1.2949 2.7231 0 4.0942-1.1426 1.3901-1.1616 1.3901-2.7041 0-0.99023-0.59033-1.6758-0.57129-0.70459-2.0186-1.2188-0.99024-0.34277-4.5132-1.2188-4.5322-1.1235-6.3604-2.7612-2.5708-2.3042-2.5708-5.6177 0-2.1328 1.1997-3.98 1.2188-1.8662 3.4849-2.8374 2.2852-0.97119 5.5034-0.97119 5.2559 0 7.9028 2.3042 2.666 2.3042 2.7993 6.1509l-5.6367 0.24756q-0.36182-2.1519-1.5615-3.085-1.1807-0.95215-3.561-0.95215-2.4565 0-3.8467 1.0093-0.89502 0.64746-0.89502 1.7329 0 0.99024 0.83789 1.6948 1.0664 0.89502 5.1797 1.8662 4.1133 0.97119 6.0747 2.0186 1.9805 1.0283 3.085 2.8374 1.1235 1.79 1.1235 4.437 0 2.3994-1.333 4.4941-1.333 2.0947-3.7705 3.123-2.4375 1.0093-6.0747 1.0093-5.294 0-8.1314-2.4375-2.8374-2.4565-3.3896-7.1411z"/></g><path d="m73 270.95h771v60.989h-771z" fill="#00aeef" stroke="#0071c5" stroke-miterlimit="8" stroke-width="4.0007"/><g transform="matrix(1 0 0 .99982 336.27 317)" fill="#fff" aria-label="INPUT IMAGE"><path d="m1.739 0v-25.9h6.956v25.9z"/><path d="m18.759-15.503v15.503h-6.697v-25.9h7.03l11.359 15.503v-15.503h6.697v25.9h-7.03z"/><path d="m40.404 0v-25.9h12.728q4.736 0 7.511 2.405t2.775 6.475q0 4.033-2.997 6.549-2.96 2.479-7.696 2.479h-5.365v7.992zm15.984-16.946q0-1.369-0.888-2.109-0.888-0.777-2.479-0.777h-5.661v5.846h5.513q1.628 0 2.553-0.777 0.962-0.814 0.962-2.183z"/><path d="m77.922-5.365q2.59 0 4.107-1.628t1.517-4.403v-14.504h6.956v14.578q0 5.439-3.478 8.695-3.478 3.219-9.287 3.219-5.661 0-9.065-3.219-3.367-3.256-3.367-8.695v-14.578h6.956v14.504q0 2.775 1.554 4.403t4.107 1.628z"/><path d="m101.16-19.832h-8.584v-6.068h24.124v6.068h-8.584v19.832h-6.956z"/><path d="m124.91 0v-25.9h6.956v25.9z"/><path d="m155.33-25.9h10.323v25.9h-6.882v-18.389l-5.587 12.099h-5.735l-5.328-11.877v18.167h-6.882v-25.9h10.323l4.773 11.137z"/><path d="m175.82-4.625-1.813 4.625h-7.067l10.656-25.9h7.585l10.693 25.9h-7.289l-1.813-4.625zm5.476-13.986-3.182 8.14h6.364z"/><path d="m208.94-20.572q-2.96 0-5.032 2.183-2.035 2.183-2.035 5.402 0 3.404 1.961 5.55 1.961 2.109 5.069 2.109 2.405 0 3.922-0.999t2.146-2.96h-7.252v-5.476h13.949q0.074 0.444 0.111 1.073 0.074 0.629 0.074 1.184 0 6.031-3.552 9.583-3.552 3.515-9.694 3.515-5.994 0-9.879-3.811t-3.885-9.694q0-5.846 4.033-9.694 4.07-3.885 10.101-3.885 3.626 0 6.586 1.48 2.997 1.48 4.625 4.033l-4.736 3.885q-1.258-1.776-2.886-2.627-1.591-0.851-3.626-0.851z"/><path d="m224.44 0v-25.9h20.276v5.846h-13.32v4.07h12.284v5.846h-12.284v4.292h13.32v5.846z"/></g><path d="m73 202.96h771v60.989h-771z" fill="#00aeef" stroke="#0071c5" stroke-miterlimit="8" stroke-width="4.0007"/><g transform="matrix(1 0 0 .99982 336.27 250)" fill="#fff" aria-label="INPUT IMAGE"><path d="m1.739 0v-25.9h6.956v25.9z"/><path d="m18.759-15.503v15.503h-6.697v-25.9h7.03l11.359 15.503v-15.503h6.697v25.9h-7.03z"/><path d="m40.404 0v-25.9h12.728q4.736 0 7.511 2.405t2.775 6.475q0 4.033-2.997 6.549-2.96 2.479-7.696 2.479h-5.365v7.992zm15.984-16.946q0-1.369-0.888-2.109-0.888-0.777-2.479-0.777h-5.661v5.846h5.513q1.628 0 2.553-0.777 0.962-0.814 0.962-2.183z"/><path d="m77.922-5.365q2.59 0 4.107-1.628t1.517-4.403v-14.504h6.956v14.578q0 5.439-3.478 8.695-3.478 3.219-9.287 3.219-5.661 0-9.065-3.219-3.367-3.256-3.367-8.695v-14.578h6.956v14.504q0 2.775 1.554 4.403t4.107 1.628z"/><path d="m101.16-19.832h-8.584v-6.068h24.124v6.068h-8.584v19.832h-6.956z"/><path d="m124.91 0v-25.9h6.956v25.9z"/><path d="m155.33-25.9h10.323v25.9h-6.882v-18.389l-5.587 12.099h-5.735l-5.328-11.877v18.167h-6.882v-25.9h10.323l4.773 11.137z"/><path d="m175.82-4.625-1.813 4.625h-7.067l10.656-25.9h7.585l10.693 25.9h-7.289l-1.813-4.625zm5.476-13.986-3.182 8.14h6.364z"/><path d="m208.94-20.572q-2.96 0-5.032 2.183-2.035 2.183-2.035 5.402 0 3.404 1.961 5.55 1.961 2.109 5.069 2.109 2.405 0 3.922-0.999t2.146-2.96h-7.252v-5.476h13.949q0.074 0.444 0.111 1.073 0.074 0.629 0.074 1.184 0 6.031-3.552 9.583-3.552 3.515-9.694 3.515-5.994 0-9.879-3.811t-3.885-9.694q0-5.846 4.033-9.694 4.07-3.885 10.101-3.885 3.626 0 6.586 1.48 2.997 1.48 4.625 4.033l-4.736 3.885q-1.258-1.776-2.886-2.627-1.591-0.851-3.626-0.851z"/><path d="m224.44 0v-25.9h20.276v5.846h-13.32v4.07h12.284v5.846h-12.284v4.292h13.32v5.846z"/></g><path d="m73 134.98h771v61.989h-771z" fill="#00aeef" stroke="#0071c5" stroke-miterlimit="8" stroke-width="4.0007"/><g transform="matrix(1 0 0 .99982 336.27 183)" fill="#fff" aria-label="INPUT IMAGE"><path d="m1.739 0v-25.9h6.956v25.9z"/><path d="m18.759-15.503v15.503h-6.697v-25.9h7.03l11.359 15.503v-15.503h6.697v25.9h-7.03z"/><path d="m40.404 0v-25.9h12.728q4.736 0 7.511 2.405t2.775 6.475q0 4.033-2.997 6.549-2.96 2.479-7.696 2.479h-5.365v7.992zm15.984-16.946q0-1.369-0.888-2.109-0.888-0.777-2.479-0.777h-5.661v5.846h5.513q1.628 0 2.553-0.777 0.962-0.814 0.962-2.183z"/><path d="m77.922-5.365q2.59 0 4.107-1.628t1.517-4.403v-14.504h6.956v14.578q0 5.439-3.478 8.695-3.478 3.219-9.287 3.219-5.661 0-9.065-3.219-3.367-3.256-3.367-8.695v-14.578h6.956v14.504q0 2.775 1.554 4.403t4.107 1.628z"/><path d="m101.16-19.832h-8.584v-6.068h24.124v6.068h-8.584v19.832h-6.956z"/><path d="m124.91 0v-25.9h6.956v25.9z"/><path d="m155.33-25.9h10.323v25.9h-6.882v-18.389l-5.587 12.099h-5.735l-5.328-11.877v18.167h-6.882v-25.9h10.323l4.773 11.137z"/><path d="m175.82-4.625-1.813 4.625h-7.067l10.656-25.9h7.585l10.693 25.9h-7.289l-1.813-4.625zm5.476-13.986-3.182 8.14h6.364z"/><path d="m208.94-20.572q-2.96 0-5.032 2.183-2.035 2.183-2.035 5.402 0 3.404 1.961 5.55 1.961 2.109 5.069 2.109 2.405 0 3.922-0.999t2.146-2.96h-7.252v-5.476h13.949q0.074 0.444 0.111 1.073 0.074 0.629 0.074 1.184 0 6.031-3.552 9.583-3.552 3.515-9.694 3.515-5.994 0-9.879-3.811t-3.885-9.694q0-5.846 4.033-9.694 4.07-3.885 10.101-3.885 3.626 0 6.586 1.48 2.997 1.48 4.625 4.033l-4.736 3.885q-1.258-1.776-2.886-2.627-1.591-0.851-3.626-0.851z"/><path d="m224.44 0v-25.9h20.276v5.846h-13.32v4.07h12.284v5.846h-12.284v4.292h13.32v5.846z"/></g><path d="m73 67.988h771v60.989h-771z" fill="#00aeef" stroke="#0071c5" stroke-miterlimit="8" stroke-width="4.0007"/><g transform="matrix(1 0 0 .99982 336.9 115)" fill="#fff" aria-label="INPUT IMAGE"><path d="m1.739 0v-25.9h6.956v25.9z"/><path d="m18.759-15.503v15.503h-6.697v-25.9h7.03l11.359 15.503v-15.503h6.697v25.9h-7.03z"/><path d="m40.404 0v-25.9h12.728q4.736 0 7.511 2.405t2.775 6.475q0 4.033-2.997 6.549-2.96 2.479-7.696 2.479h-5.365v7.992zm15.984-16.946q0-1.369-0.888-2.109-0.888-0.777-2.479-0.777h-5.661v5.846h5.513q1.628 0 2.553-0.777 0.962-0.814 0.962-2.183z"/><path d="m77.922-5.365q2.59 0 4.107-1.628t1.517-4.403v-14.504h6.956v14.578q0 5.439-3.478 8.695-3.478 3.219-9.287 3.219-5.661 0-9.065-3.219-3.367-3.256-3.367-8.695v-14.578h6.956v14.504q0 2.775 1.554 4.403t4.107 1.628z"/><path d="m101.16-19.832h-8.584v-6.068h24.124v6.068h-8.584v19.832h-6.956z"/><path d="m124.91 0v-25.9h6.956v25.9z"/><path d="m155.33-25.9h10.323v25.9h-6.882v-18.389l-5.587 12.099h-5.735l-5.328-11.877v18.167h-6.882v-25.9h10.323l4.773 11.137z"/><path d="m175.82-4.625-1.813 4.625h-7.067l10.656-25.9h7.585l10.693 25.9h-7.289l-1.813-4.625zm5.476-13.986-3.182 8.14h6.364z"/><path d="m208.94-20.572q-2.96 0-5.032 2.183-2.035 2.183-2.035 5.402 0 3.404 1.961 5.55 1.961 2.109 5.069 2.109 2.405 0 3.922-0.999t2.146-2.96h-7.252v-5.476h13.949q0.074 0.444 0.111 1.073 0.074 0.629 0.074 1.184 0 6.031-3.552 9.583-3.552 3.515-9.694 3.515-5.994 0-9.879-3.811t-3.885-9.694q0-5.846 4.033-9.694 4.07-3.885 10.101-3.885 3.626 0 6.586 1.48 2.997 1.48 4.625 4.033l-4.736 3.885q-1.258-1.776-2.886-2.627-1.591-0.851-3.626-0.851z"/><path d="m224.44 0v-25.9h20.276v5.846h-13.32v4.07h12.284v5.846h-12.284v4.292h13.32v5.846z"/></g><path d="m73 345.94h771v61.989h-771z" fill="#00aeef" stroke="#0071c5" stroke-miterlimit="8" stroke-width="4.0007"/><g transform="matrix(1 0 0 .99982 443.12 392)" fill="#fff" aria-label="..."><path d="m1.11-7.178h7.178v7.178h-7.178z"/><path d="m10.508-7.178h7.178v7.178h-7.178z"/><path d="m19.906-7.178h7.178v7.178h-7.178z"/></g><path d="m73 420.92h771v61.989h-771z" fill="#00aeef" stroke="#0071c5" stroke-miterlimit="8" stroke-width="4.0007"/><g transform="matrix(1 0 0 .99982 336.27 469)" fill="#fff" aria-label="INPUT IMAGEINFERENCE REQUEST"><path d="m1.739 0v-25.9h6.956v25.9z"/><path d="m18.759-15.503v15.503h-6.697v-25.9h7.03l11.359 15.503v-15.503h6.697v25.9h-7.03z"/><path d="m40.404 0v-25.9h12.728q4.736 0 7.511 2.405t2.775 6.475q0 4.033-2.997 6.549-2.96 2.479-7.696 2.479h-5.365v7.992zm15.984-16.946q0-1.369-0.888-2.109-0.888-0.777-2.479-0.777h-5.661v5.846h5.513q1.628 0 2.553-0.777 0.962-0.814 0.962-2.183z"/><path d="m77.922-5.365q2.59 0 4.107-1.628t1.517-4.403v-14.504h6.956v14.578q0 5.439-3.478 8.695-3.478 3.219-9.287 3.219-5.661 0-9.065-3.219-3.367-3.256-3.367-8.695v-14.578h6.956v14.504q0 2.775 1.554 4.403t4.107 1.628z"/><path d="m101.16-19.832h-8.584v-6.068h24.124v6.068h-8.584v19.832h-6.956z"/><path d="m124.91 0v-25.9h6.956v25.9z"/><path d="m155.33-25.9h10.323v25.9h-6.882v-18.389l-5.587 12.099h-5.735l-5.328-11.877v18.167h-6.882v-25.9h10.323l4.773 11.137z"/><path d="m175.82-4.625-1.813 4.625h-7.067l10.656-25.9h7.585l10.693 25.9h-7.289l-1.813-4.625zm5.476-13.986-3.182 8.14h6.364z"/><path d="m208.94-20.572q-2.96 0-5.032 2.183-2.035 2.183-2.035 5.402 0 3.404 1.961 5.55 1.961 2.109 5.069 2.109 2.405 0 3.922-0.999t2.146-2.96h-7.252v-5.476h13.949q0.074 0.444 0.111 1.073 0.074 0.629 0.074 1.184 0 6.031-3.552 9.583-3.552 3.515-9.694 3.515-5.994 0-9.879-3.811t-3.885-9.694q0-5.846 4.033-9.694 4.07-3.885 10.101-3.885 3.626 0 6.586 1.48 2.997 1.48 4.625 4.033l-4.736 3.885q-1.258-1.776-2.886-2.627-1.591-0.851-3.626-0.851z"/><path d="m224.44 0v-25.9h20.276v5.846h-13.32v4.07h12.284v5.846h-12.284v4.292h13.32v5.846z"/><g fill="#0071c5"><path d="m-22.027 58.011v-18.9h5.076v18.9z"/><path d="m-9.6071 46.698v11.313h-4.887v-18.9h5.13l8.289 11.313v-11.313h4.887v18.9h-5.13z"/><path d="m6.1879 58.011v-18.9h14.553v4.266h-9.477v3.375h8.694v4.266h-8.694v6.993z"/><path d="m22.415 58.011v-18.9h14.796v4.266h-9.72v2.97h8.964v4.266h-8.964v3.132h9.72v4.266z"/><path d="m52.169 50.586 4.509 7.425h-5.913l-3.672-6.453h-2.862v6.453h-5.022v-18.9h9.234q3.726 0 5.697 1.566 1.998 1.539 1.998 4.455 0 1.998-0.999 3.375t-2.97 2.079zm-1.161-5.265q0-0.972-0.648-1.458t-1.971-0.486h-4.158v3.969h4.158q1.269 0 1.944-0.513 0.675-0.54 0.675-1.512z"/><path d="m58.19 58.011v-18.9h14.796v4.266h-9.72v2.97h8.964v4.266h-8.964v3.132h9.72v4.266z"/><path d="m79.871 46.698v11.313h-4.887v-18.9h5.13l8.289 11.313v-11.313h4.887v18.9h-5.13z"/><path d="m100.17 48.534q0 2.376 1.431 3.969 1.458 1.593 3.645 1.593 1.404 0 2.592-0.729 1.215-0.756 2.052-2.133l3.699 2.322q-1.161 2.214-3.456 3.564-2.268 1.323-5.022 1.323-4.455 0-7.263-2.754-2.808-2.781-2.808-7.101 0-4.239 2.916-7.074 2.943-2.835 7.371-2.835 2.835 0 4.941 1.215t3.321 3.591l-3.888 2.43q-0.918-1.539-1.944-2.214t-2.511-0.675q-2.268 0-3.672 1.539t-1.404 3.969z"/><path d="m115.29 58.011v-18.9h14.796v4.266h-9.72v2.97h8.964v4.266h-8.964v3.132h9.72v4.266z"/><path d="m149.56 50.586 4.509 7.425h-5.913l-3.672-6.453h-2.862v6.453h-5.022v-18.9h9.234q3.726 0 5.697 1.566 1.998 1.539 1.998 4.455 0 1.998-0.999 3.375t-2.97 2.079zm-1.161-5.265q0-0.972-0.648-1.458t-1.971-0.486h-4.158v3.969h4.158q1.269 0 1.944-0.513 0.675-0.54 0.675-1.512z"/><path d="m155.58 58.011v-18.9h14.796v4.266h-9.72v2.97h8.964v4.266h-8.964v3.132h9.72v4.266z"/><path d="m171.62 48.588q0-4.266 2.862-7.074 2.889-2.835 7.263-2.835t7.209 2.808q2.862 2.808 2.862 7.047 0 3.645-2.187 6.318-2.16 2.673-5.697 3.375 0.054 0.594 0.432 0.864t1.161 0.27h1.62v3.51h-1.89q-2.943 0-4.347-1.134-1.377-1.107-1.377-3.483-3.564-0.702-5.751-3.348-2.16-2.673-2.16-6.318zm5.13-0.054q0 2.403 1.404 3.996 1.431 1.566 3.591 1.566t3.537-1.539q1.404-1.566 1.404-3.969t-1.431-3.969q-1.404-1.593-3.564-1.593t-3.564 1.566q-1.377 1.539-1.377 3.942z"/><path d="m202.61 54.096q1.89 0 2.997-1.188t1.107-3.213v-10.584h5.076v10.638q0 3.969-2.538 6.345-2.538 2.349-6.777 2.349-4.131 0-6.615-2.349-2.457-2.376-2.457-6.345v-10.638h5.076v10.584q0 2.025 1.134 3.213t2.997 1.188z"/><path d="m214.01 58.011v-18.9h14.796v4.266h-9.72v2.97h8.964v4.266h-8.964v3.132h9.72v4.266z"/><path d="m242.49 52.449q0-0.783-0.783-1.107-0.756-0.351-2.916-0.567-4.455-0.459-6.237-1.728t-1.782-4.077q0-2.781 2.241-4.509t6.021-1.728q2.241 0 4.185 0.702t3.672 2.133l-2.538 3.645q-1.242-0.999-2.727-1.566-1.458-0.567-2.808-0.567-1.485 0-2.322 0.405-0.81 0.405-0.81 1.107 0 0.756 0.81 1.08t3.078 0.54q4.239 0.405 6.021 1.728 1.809 1.323 1.809 4.158 0 2.808-2.295 4.563-2.268 1.728-6.129 1.728-2.646 0-4.914-0.756-2.268-0.783-4.158-2.322l2.457-3.699q1.701 1.215 3.429 1.836 1.728 0.594 3.402 0.594 1.593 0 2.43-0.405 0.864-0.432 0.864-1.188z"/><path d="m254.32 43.539h-6.264v-4.428h17.604v4.428h-6.264v14.472h-5.076z"/></g></g></g></svg>
