<?xml version="1.0" encoding="UTF-8" standalone="no"?>
<svg
   width="917"
   height="672"
   overflow="hidden"
   version="1.1"
   id="svg1457"
   sodipodi:docname="large_batch_approach.svg"
   inkscape:version="1.2.1 (9c6d41e410, 2022-07-14)"
   xmlns:inkscape="http://www.inkscape.org/namespaces/inkscape"
   xmlns:sodipodi="http://sodipodi.sourceforge.net/DTD/sodipodi-0.dtd"
   xmlns="http://www.w3.org/2000/svg"
   xmlns:svg="http://www.w3.org/2000/svg">
  <sodipodi:namedview
     id="namedview1459"
     pagecolor="#ffffff"
     bordercolor="#000000"
     borderopacity="0.25"
     inkscape:showpageshadow="2"
     inkscape:pageopacity="0.0"
     inkscape:pagecheckerboard="0"
     inkscape:deskcolor="#d1d1d1"
     showgrid="false"
     inkscape:zoom="1.2455357"
     inkscape:cx="458.83871"
     inkscape:cy="336"
     inkscape:window-width="1920"
     inkscape:window-height="1040"
     inkscape:window-x="0"
     inkscape:window-y="0"
     inkscape:window-maximized="1"
     inkscape:current-layer="g1455" />
  <defs
     id="defs1129">
    <clipPath
       id="clip0">
      <rect
         width="917"
         height="672"
         id="rect1126" />
    </clipPath>
  </defs>
  <g
     clip-path="url(#clip0)"
     id="g1455">
    <path
       d="m0 0h917v671.88h-917z"
       fill="#fff"
       id="path1131" />
    <g
       transform="matrix(1 0 0 .99982 320.28 533)"
       fill="#0071c5"
       aria-label="INFERENCE REQUEST"
       id="g1165">
      <path
         d="m6.3281-0.5625q0 0.15625-0.10938 0.28125-0.09375 0.125-0.32812 0.20312t-0.625 0.125-1 0.046875q-0.59375 0-1-0.046875-0.39062-0.046875-0.625-0.125t-0.34375-0.20312q-0.09375-0.125-0.09375-0.28125v-19.094q0-0.15625 0.09375-0.28125 0.10938-0.125 0.34375-0.20312 0.25-0.07813 0.64062-0.125t0.98438-0.04687q0.60938 0 1 0.04687t0.625 0.125 0.32812 0.20312q0.10938 0.125 0.10938 0.28125z"
         id="path1133" />
      <path
         d="m27.406-1.4375q0 0.35938-0.125 0.64062t-0.34375 0.46875q-0.20312 0.1875-0.5 0.28125-0.28125 0.078125-0.57812 0.078125h-1.75q-0.54688 0-0.95312-0.10938-0.39062-0.10938-0.73438-0.39062-0.32812-0.29688-0.64062-0.78125-0.3125-0.5-0.70312-1.2812l-5.0312-9.4531q-0.4375-0.84375-0.89062-1.8125-0.45312-0.98438-0.8125-1.9062h-0.03125q0.0625 1.125 0.09375 2.25 0.03125 1.1094 0.03125 2.2969v10.578q0 0.15625-0.09375 0.28125-0.07813 0.125-0.29688 0.21875-0.20312 0.078125-0.5625 0.125t-0.92188 0.046875q-0.54688 0-0.90625-0.046875t-0.5625-0.125q-0.20312-0.09375-0.28125-0.21875-0.07813-0.125-0.07813-0.28125v-18.172q0-0.73438 0.42188-1.0938 0.4375-0.375 1.0625-0.375h2.2031q0.59375 0 1 0.10938 0.40625 0.09375 0.71875 0.32812 0.32812 0.23438 0.60938 0.65625 0.28125 0.40625 0.57812 1.0156l3.9375 7.3906q0.34375 0.67188 0.67188 1.3281 0.34375 0.64062 0.65625 1.2969 0.3125 0.64062 0.60938 1.2656t0.57812 1.25h0.01563q-0.04687-1.0938-0.07813-2.2812-0.01563-1.1875-0.01563-2.2656v-9.4844q0-0.15625 0.09375-0.28125t0.3125-0.21875 0.57812-0.125q0.35938-0.04687 0.92188-0.04687 0.53125 0 0.89062 0.04687 0.35938 0.03125 0.54688 0.125 0.20312 0.09375 0.28125 0.21875 0.07813 0.125 0.07813 0.28125z"
         id="path1135" />
      <path
         d="m43.156-18.531q0 0.46875-0.04687 0.79688-0.03125 0.3125-0.125 0.5-0.07813 0.1875-0.1875 0.28125-0.10938 0.09375-0.25 0.09375h-6.6094v5.4375h6.2031q0.14062 0 0.25 0.07813t0.1875 0.26562q0.09375 0.1875 0.125 0.5 0.04687 0.3125 0.04687 0.78125t-0.04687 0.78125q-0.03125 0.3125-0.125 0.51562-0.07813 0.20312-0.1875 0.29688-0.10938 0.078125-0.25 0.078125h-6.2031v7.5312q0 0.17188-0.09375 0.29688-0.09375 0.125-0.34375 0.21874-0.23438 0.078125-0.625 0.125t-1 0.046875q-0.59375 0-1-0.046875-0.39062-0.046875-0.625-0.125-0.23438-0.09375-0.34375-0.21875-0.09375-0.125-0.09375-0.29688v-18.328q0-0.6875 0.34375-0.98438 0.35938-0.3125 0.875-0.3125h9.5156q0.14062 0 0.25 0.09375 0.10938 0.07813 0.1875 0.28125 0.09375 0.1875 0.125 0.51562 0.04687 0.32812 0.04687 0.79688z"
         id="path1137" />
      <path
         d="m58.484-1.6094q0 0.45312-0.04687 0.76562-0.03125 0.29688-0.10938 0.48438-0.07813 0.1875-0.20313 0.28125-0.10938 0.078125-0.25 0.078125h-10.156q-0.51562 0-0.875-0.29688-0.34375-0.3125-0.34375-1v-17.625q0-0.6875 0.34375-0.98438 0.35938-0.3125 0.875-0.3125h10.094q0.14062 0 0.25 0.07813t0.1875 0.28125q0.07813 0.1875 0.10938 0.5 0.04687 0.29688 0.04687 0.76562 0 0.4375-0.04687 0.75-0.03125 0.29688-0.10938 0.48438-0.07813 0.1875-0.1875 0.28125-0.10938 0.07812-0.25 0.07812h-7.2188v4.9375h6.1094q0.14062 0 0.25 0.09375 0.125 0.07813 0.20312 0.26562 0.07813 0.17188 0.10938 0.48438 0.04687 0.29688 0.04687 0.73438 0 0.45312-0.04687 0.75-0.03125 0.29688-0.10938 0.48438-0.07813 0.17188-0.20312 0.25-0.10938 0.078125-0.25 0.078125h-6.1094v5.7031h7.2812q0.14062 0 0.25 0.09375 0.125 0.078125 0.20312 0.26562 0.07813 0.1875 0.10938 0.5 0.04687 0.29688 0.04687 0.75z"
         id="path1139" />
      <path
         d="m77.109-0.53125q0 0.17188-0.0625 0.29688-0.0625 0.10938-0.29688 0.1875t-0.6875 0.10938-1.2344 0.03125q-0.65625 0-1.0469-0.03125t-0.625-0.10938q-0.21875-0.09375-0.3125-0.21875-0.09375-0.14062-0.15625-0.32812l-1.8125-4.5156q-0.32812-0.76562-0.64062-1.3594t-0.70312-0.98438q-0.375-0.40625-0.875-0.60938t-1.1562-0.20312h-1.2812v7.7031q0 0.15625-0.10938 0.28125-0.09375 0.125-0.32812 0.20312t-0.625 0.125-1 0.046875q-0.59375 0-1-0.046875-0.39062-0.046875-0.625-0.125t-0.32812-0.20312-0.09375-0.28125v-18.359q0-0.6875 0.34375-0.98438 0.35938-0.3125 0.875-0.3125h5.2344q0.79688 0 1.3125 0.03125t0.9375 0.07813q1.2188 0.17188 2.1875 0.59375 0.98438 0.42188 1.6562 1.1094 0.6875 0.67188 1.0469 1.6094 0.35938 0.92188 0.35938 2.125 0 1.0156-0.26562 1.8594-0.25 0.82812-0.75 1.4844t-1.2344 1.1406-1.6719 0.78125q0.45312 0.21875 0.84375 0.53125 0.40625 0.3125 0.75 0.76562 0.35938 0.4375 0.67188 1.0156 0.3125 0.5625 0.60938 1.2812l1.7031 3.9844q0.23438 0.59375 0.3125 0.875 0.07813 0.26562 0.07813 0.42188zm-5.2969-13.719q0-1-0.45312-1.6875t-1.4844-0.96875q-0.3125-0.07813-0.71875-0.125-0.39062-0.04687-1.0938-0.04687h-1.8438v5.7344h2.0938q0.875 0 1.5312-0.20312 0.65625-0.21875 1.0938-0.59375 0.4375-0.39062 0.65625-0.92188t0.21875-1.1875z"
         id="path1141" />
      <path
         d="m92.109-1.6094q0 0.45312-0.04687 0.76562-0.03125 0.29688-0.10938 0.48438-0.07813 0.1875-0.20313 0.28125-0.10938 0.078125-0.25 0.078125h-10.156q-0.51562 0-0.875-0.29688-0.34375-0.3125-0.34375-1v-17.625q0-0.6875 0.34375-0.98438 0.35938-0.3125 0.875-0.3125h10.094q0.14062 0 0.25 0.07813t0.1875 0.28125q0.07813 0.1875 0.10938 0.5 0.04687 0.29688 0.04687 0.76562 0 0.4375-0.04687 0.75-0.03125 0.29688-0.10938 0.48438-0.07813 0.1875-0.1875 0.28125-0.10938 0.07812-0.25 0.07812h-7.2188v4.9375h6.1094q0.14062 0 0.25 0.09375 0.125 0.07813 0.20312 0.26562 0.07813 0.17188 0.10938 0.48438 0.04687 0.29688 0.04687 0.73438 0 0.45312-0.04687 0.75-0.03125 0.29688-0.10938 0.48438-0.07813 0.17188-0.20312 0.25-0.10938 0.078125-0.25 0.078125h-6.1094v5.7031h7.2812q0.14062 0 0.25 0.09375 0.125 0.078125 0.20312 0.26562 0.07813 0.1875 0.10938 0.5 0.04687 0.29688 0.04687 0.75z"
         id="path1143" />
      <path
         d="m112.41-1.4375q0 0.35938-0.125 0.64062t-0.34375 0.46875q-0.20312 0.1875-0.5 0.28125-0.28125 0.078125-0.57812 0.078125h-1.75q-0.54688 0-0.95313-0.10938-0.39062-0.10938-0.73437-0.39062-0.32813-0.29688-0.64063-0.78125-0.3125-0.5-0.70312-1.2812l-5.0312-9.4531q-0.4375-0.84375-0.89063-1.8125-0.45312-0.98438-0.8125-1.9062h-0.03125q0.0625 1.125 0.09375 2.25 0.03125 1.1094 0.03125 2.2969v10.578q0 0.15625-0.09375 0.28125-0.07813 0.125-0.29688 0.21875-0.20312 0.078125-0.5625 0.125t-0.92188 0.046875q-0.54688 0-0.90625-0.046875t-0.5625-0.125q-0.20312-0.09375-0.28125-0.21875-0.07813-0.125-0.07813-0.28125v-18.172q0-0.73438 0.42188-1.0938 0.4375-0.375 1.0625-0.375h2.2031q0.59376 0 1 0.10938 0.40625 0.09375 0.71875 0.32812 0.32812 0.23438 0.60937 0.65625 0.28125 0.40625 0.57813 1.0156l3.9375 7.3906q0.34375 0.67188 0.67187 1.3281 0.34375 0.64062 0.65625 1.2969 0.3125 0.64062 0.60938 1.2656 0.29687 0.625 0.57812 1.25h0.0156q-0.0469-1.0938-0.0781-2.2812-0.0156-1.1875-0.0156-2.2656v-9.4844q0-0.15625 0.0937-0.28125t0.3125-0.21875q0.21875-0.09375 0.57812-0.125 0.35938-0.04687 0.92188-0.04687 0.53125 0 0.89062 0.04687 0.35938 0.03125 0.54688 0.125 0.20312 0.09375 0.28125 0.21875 0.0781 0.125 0.0781 0.28125z"
         id="path1145" />
      <path
         d="m130.8-3.0625q0 0.39062-0.0312 0.67188-0.0156 0.26562-0.0625 0.46875-0.0469 0.1875-0.125 0.32812t-0.25 0.32812q-0.17187 0.17188-0.67187 0.45312-0.48438 0.28125-1.2031 0.54688-0.70312 0.25-1.625 0.42188-0.90625 0.17188-1.9688 0.17188-2.0781 0-3.75-0.64062-1.6719-0.64062-2.8438-1.9062-1.1719-1.2812-1.7969-3.1875t-0.625-4.4375q0-2.5781 0.6875-4.5781t1.9219-3.3594q1.2344-1.3594 2.9531-2.0625 1.7344-0.70312 3.8125-0.70312 0.84375 0 1.625 0.14062t1.4375 0.375q0.67187 0.21875 1.2031 0.51562t0.73438 0.51562q0.21875 0.20312 0.29687 0.34375 0.0781 0.14062 0.125 0.35938t0.0625 0.51562q0.0312 0.29688 0.0312 0.73438 0 0.46875-0.0312 0.79688t-0.10937 0.53125q-0.0781 0.20312-0.1875 0.29688-0.10938 0.09375-0.25 0.09375-0.23438 0-0.59375-0.26562-0.35938-0.28125-0.9375-0.60938-0.5625-0.34375-1.3594-0.60938-0.78125-0.28125-1.875-0.28125-1.2031 0-2.1562 0.5-0.9375 0.48438-1.6094 1.4062-0.65625 0.90625-1 2.2031t-0.34375 2.9219q0 1.7812 0.35938 3.0938 0.375 1.2969 1.0469 2.1406 0.6875 0.84375 1.6406 1.2656 0.96875 0.40625 2.1719 0.40625 1.0938 0 1.8906-0.25 0.79687-0.26562 1.3594-0.57812 0.57812-0.3125 0.9375-0.5625 0.375-0.25 0.57812-0.25 0.15625 0 0.25 0.0625 0.0937 0.0625 0.15625 0.25 0.0625 0.1875 0.0937 0.53125 0.0312 0.32812 0.0312 0.89062z"
         id="path1147" />
      <path
         d="m145.73-1.6094q0 0.45312-0.0469 0.76562-0.0312 0.29688-0.10938 0.48438-0.0781 0.1875-0.20312 0.28125-0.10935 0.078125-0.24997 0.078125h-10.156q-0.51563 0-0.875-0.29688-0.34375-0.3125-0.34375-1v-17.625q0-0.6875 0.34375-0.98438 0.35937-0.3125 0.875-0.3125h10.094q0.14062 0 0.25 0.07813 0.10937 0.07813 0.1875 0.28125 0.0781 0.1875 0.10937 0.5 0.0469 0.29688 0.0469 0.76562 0 0.4375-0.0469 0.75-0.0312 0.29688-0.10937 0.48438-0.0781 0.1875-0.1875 0.28125-0.10938 0.07812-0.25 0.07812h-7.2188v4.9375h6.1094q0.14063 0 0.25 0.09375 0.125 0.07813 0.20313 0.26562 0.0781 0.17188 0.10937 0.48438 0.0469 0.29688 0.0469 0.73438 0 0.45312-0.0469 0.75-0.0312 0.29688-0.10937 0.48438-0.0781 0.17188-0.20313 0.25-0.10937 0.078125-0.25 0.078125h-6.1094v5.7031h7.2812q0.14062 0 0.25 0.09375 0.125 0.078125 0.20312 0.26562 0.0781 0.1875 0.10938 0.5 0.0469 0.29688 0.0469 0.75z"
         id="path1149" />
      <path
         d="m171.59-0.53125q0 0.17188-0.0625 0.29688-0.0625 0.10938-0.29688 0.1875-0.23437 0.078125-0.6875 0.10938-0.45312 0.03125-1.2344 0.03125-0.65625 0-1.0469-0.03125-0.39062-0.03125-0.625-0.10938-0.21875-0.09375-0.3125-0.21875-0.0937-0.14062-0.15625-0.32812l-1.8125-4.5156q-0.32812-0.76562-0.64062-1.3594t-0.70313-0.98438q-0.375-0.40625-0.875-0.60938t-1.1562-0.20312h-1.2812v7.7031q0 0.15625-0.10937 0.28125-0.0937 0.125-0.32813 0.20312-0.23437 0.078125-0.625 0.125-0.39062 0.046875-1 0.046875-0.59375 0-1-0.046875-0.39062-0.046875-0.625-0.125-0.23437-0.078125-0.32812-0.20312-0.0937-0.125-0.0937-0.28125v-18.359q0-0.6875 0.34375-0.98438 0.35937-0.3125 0.875-0.3125h5.2344q0.79688 0 1.3125 0.03125 0.51563 0.03125 0.9375 0.07813 1.2188 0.17188 2.1875 0.59375 0.98438 0.42188 1.6562 1.1094 0.6875 0.67188 1.0469 1.6094 0.35937 0.92188 0.35937 2.125 0 1.0156-0.26562 1.8594-0.25 0.82812-0.75 1.4844t-1.2344 1.1406q-0.73437 0.48438-1.6719 0.78125 0.45312 0.21875 0.84375 0.53125 0.40625 0.3125 0.75 0.76562 0.35937 0.4375 0.67187 1.0156 0.3125 0.5625 0.60938 1.2812l1.7031 3.9844q0.23438 0.59375 0.3125 0.875 0.0781 0.26562 0.0781 0.42188zm-5.2969-13.719q0-1-0.45312-1.6875-0.45313-0.6875-1.4844-0.96875-0.3125-0.07813-0.71875-0.125-0.39062-0.04687-1.0938-0.04687h-1.8438v5.7344h2.0938q0.875 0 1.5312-0.20312 0.65625-0.21875 1.0938-0.59375 0.4375-0.39062 0.65625-0.92188t0.21875-1.1875z"
         id="path1151" />
      <path
         d="m186.59-1.6094q0 0.45312-0.0469 0.76562-0.0312 0.29688-0.10937 0.48438-0.0781 0.1875-0.20313 0.28125-0.10935 0.078125-0.24998 0.078125h-10.156q-0.51562 0-0.875-0.29688-0.34375-0.3125-0.34375-1v-17.625q0-0.6875 0.34375-0.98438 0.35938-0.3125 0.875-0.3125h10.094q0.14063 0 0.25 0.07813 0.10938 0.07813 0.1875 0.28125 0.0781 0.1875 0.10938 0.5 0.0469 0.29688 0.0469 0.76562 0 0.4375-0.0469 0.75-0.0312 0.29688-0.10938 0.48438-0.0781 0.1875-0.1875 0.28125-0.10937 0.07812-0.25 0.07812h-7.2188v4.9375h6.1094q0.14062 0 0.25 0.09375 0.125 0.07813 0.20312 0.26562 0.0781 0.17188 0.10938 0.48438 0.0469 0.29688 0.0469 0.73438 0 0.45312-0.0469 0.75-0.0312 0.29688-0.10938 0.48438-0.0781 0.17188-0.20312 0.25-0.10938 0.078125-0.25 0.078125h-6.1094v5.7031h7.2812q0.14063 0 0.25 0.09375 0.125 0.078125 0.20313 0.26562 0.0781 0.1875 0.10937 0.5 0.0469 0.29688 0.0469 0.75z"
         id="path1153" />
      <path
         d="m209.77 1.9219q0 0.5625-0.0625 0.90625-0.0469 0.34375-0.14062 0.53125-0.0937 0.1875-0.20313 0.23438-0.10937 0.0625-0.23437 0.0625-0.51563 0-1.3594-0.28125-0.82812-0.28125-1.7969-0.8125-0.96875-0.51562-1.9844-1.2812-1-0.75-1.8594-1.7344-0.71875 0.32812-1.75 0.5625-1.0156 0.25-2.2656 0.25-2.3594 0-4.125-0.59375-1.75-0.60938-2.9219-1.875-1.1719-1.2656-1.7656-3.2188-0.57812-1.9688-0.57812-4.6719 0-2.4531 0.625-4.4062 0.625-1.9688 1.8594-3.3281 1.2344-1.375 3.0469-2.1094 1.8281-0.73438 4.2344-0.73438 2.2656 0 4 0.60938 1.75 0.60938 2.9375 1.875 1.2031 1.25 1.8125 3.1719 0.625 1.9219 0.625 4.5469 0 1.3594-0.1875 2.5625-0.17187 1.1875-0.51562 2.2031t-0.84375 1.8594-1.1406 1.4844q0.96875 0.84375 1.7188 1.2812t1.25 0.65625q0.51563 0.21875 0.8125 0.32812 0.3125 0.09375 0.48438 0.25 0.17187 0.17188 0.25 0.5625 0.0781 0.40625 0.0781 1.1094zm-6.2188-12.078q0-1.5781-0.25-2.875t-0.85937-2.2188q-0.59375-0.9375-1.5938-1.4375-1-0.51562-2.5-0.51562-1.5156 0-2.5312 0.5625-1.0156 0.5625-1.6406 1.5156t-0.89062 2.2344q-0.25 1.2656-0.25 2.6719 0 1.6719 0.25 3t0.84375 2.2656 1.5938 1.4375q1 0.48438 2.5156 0.48438 1.5156 0 2.5312-0.5625 1.0156-0.5625 1.6406-1.5312t0.875-2.2656q0.26562-1.2969 0.26562-2.7656z"
         id="path1155" />
      <path
         d="m228.12-7.5312q0 1.8594-0.54688 3.3281-0.54687 1.4688-1.6094 2.4844t-2.625 1.5469-3.5938 0.53125q-1.9062 0-3.4219-0.46875-1.5156-0.48438-2.5625-1.4531-1.0469-0.96875-1.6094-2.4062-0.54688-1.4531-0.54688-3.3906v-12.297q0-0.15625 0.0937-0.28125t0.32813-0.20312q0.25-0.07813 0.64062-0.125 0.39063-0.04687 1-0.04687 0.59375 0 0.98438 0.04687 0.39062 0.04687 0.625 0.125 0.23437 0.07813 0.32812 0.20312 0.10938 0.125 0.10938 0.28125v11.938q0 1.2031 0.29687 2.0938 0.29688 0.875 0.84375 1.4531 0.5625 0.57812 1.3281 0.875 0.78125 0.28125 1.7344 0.28125 0.96875 0 1.7344-0.29688 0.76562-0.29688 1.2969-0.85938 0.53125-0.57812 0.8125-1.4062 0.29688-0.84375 0.29688-1.9062v-12.172q0-0.15625 0.0937-0.28125t0.32812-0.20312q0.23438-0.07813 0.625-0.125 0.40625-0.04687 1-0.04687t0.96875 0.04687q0.39063 0.04687 0.625 0.125 0.23438 0.07813 0.32813 0.20312 0.0937 0.125 0.0937 0.28125z"
         id="path1157" />
      <path
         d="m244.5-1.6094q0 0.45312-0.0469 0.76562-0.0312 0.29688-0.10937 0.48438-0.0781 0.1875-0.20313 0.28125-0.10935 0.078125-0.24998 0.078125h-10.156q-0.51562 0-0.875-0.29688-0.34375-0.3125-0.34375-1v-17.625q0-0.6875 0.34375-0.98438 0.35938-0.3125 0.875-0.3125h10.094q0.14063 0 0.25 0.07813 0.10938 0.07813 0.1875 0.28125 0.0781 0.1875 0.10938 0.5 0.0469 0.29688 0.0469 0.76562 0 0.4375-0.0469 0.75-0.0312 0.29688-0.10938 0.48438-0.0781 0.1875-0.1875 0.28125-0.10937 0.07812-0.25 0.07812h-7.2188v4.9375h6.1094q0.14062 0 0.25 0.09375 0.125 0.07813 0.20312 0.26562 0.0781 0.17188 0.10938 0.48438 0.0469 0.29688 0.0469 0.73438 0 0.45312-0.0469 0.75-0.0312 0.29688-0.10938 0.48438-0.0781 0.17188-0.20312 0.25-0.10938 0.078125-0.25 0.078125h-6.1094v5.7031h7.2812q0.14063 0 0.25 0.09375 0.125 0.078125 0.20313 0.26562 0.0781 0.1875 0.10937 0.5 0.0469 0.29688 0.0469 0.75z"
         id="path1159" />
      <path
         d="m259.8-6.0625q0 1.5938-0.59375 2.7969t-1.6094 2.0156q-1.0156 0.79688-2.375 1.2031-1.3594 0.40625-2.9062 0.40625-1.0469 0-1.9531-0.17188-0.89062-0.17188-1.5781-0.40625-0.6875-0.25-1.1562-0.51562-0.45313-0.26562-0.65625-0.46875-0.20313-0.20312-0.29688-0.57812-0.0781-0.39062-0.0781-1.1094 0-0.48438 0.0312-0.8125t0.0937-0.53125q0.0781-0.20312 0.1875-0.28125 0.125-0.09375 0.28125-0.09375 0.21875 0 0.60937 0.26562 0.40625 0.25 1.0312 0.5625t1.4844 0.57812q0.875 0.25 2.0156 0.25 0.75 0 1.3438-0.17188 0.59375-0.1875 1-0.51562 0.42188-0.32812 0.64063-0.8125t0.21875-1.0781q0-0.6875-0.375-1.1719-0.375-0.5-0.98438-0.875-0.59375-0.39062-1.3594-0.71875-0.76563-0.34375-1.5781-0.71875t-1.5781-0.84375q-0.76563-0.48438-1.375-1.1406-0.59375-0.67188-0.96875-1.5781t-0.375-2.1719q0-1.4531 0.53125-2.5469 0.54687-1.1094 1.4531-1.8281 0.92188-0.73438 2.1562-1.0938 1.25-0.35938 2.6406-0.35938 0.71875 0 1.4375 0.10938t1.3438 0.29688 1.1094 0.42188q0.48438 0.23438 0.64063 0.39062t0.20312 0.26562q0.0625 0.10938 0.0937 0.29688 0.0469 0.17188 0.0625 0.45312 0.0156 0.26562 0.0156 0.67188 0 0.45312-0.0312 0.76562-0.0156 0.3125-0.0781 0.51562-0.0469 0.20312-0.15625 0.29688-0.09367 0.09375-0.26554 0.09375-0.17188 0-0.54688-0.21875t-0.92187-0.46875q-0.54688-0.26562-1.2656-0.46875-0.71875-0.21875-1.5781-0.21875-0.67188 0-1.1719 0.17188-0.5 0.15625-0.84375 0.45312-0.32812 0.28125-0.5 0.6875-0.15625 0.40625-0.15625 0.85938 0 0.67188 0.35938 1.1719 0.375 0.48438 0.98437 0.875 0.625 0.375 1.4062 0.71875 0.78125 0.32812 1.5938 0.70312t1.5938 0.85938q0.78125 0.46875 1.3906 1.1406 0.60937 0.65625 0.98437 1.5625 0.375 0.89062 0.375 2.1094z"
         id="path1161" />
      <path
         d="m276.08-18.531q0 0.45312-0.0469 0.78125-0.0312 0.3125-0.10938 0.51562-0.0781 0.1875-0.20312 0.28125-0.10938 0.09375-0.25 0.09375h-5.0625v16.297q0 0.15625-0.10938 0.28125-0.0937 0.125-0.32812 0.20312-0.23438 0.078125-0.64063 0.125-0.39062 0.046875-0.98437 0.046875t-1-0.046875q-0.39063-0.046875-0.625-0.125-0.23438-0.078125-0.34375-0.20312-0.0937-0.125-0.0937-0.28125v-16.297h-5.0625q-0.15625 0-0.26563-0.09375-0.10937-0.09375-0.1875-0.28125-0.0781-0.20312-0.125-0.51562-0.0312-0.32812-0.0312-0.78125 0-0.46875 0.0312-0.79688 0.0469-0.32812 0.125-0.51562 0.0781-0.20312 0.1875-0.28125 0.10938-0.09375 0.26563-0.09375h14.25q0.14062 0 0.25 0.09375 0.125 0.07813 0.20312 0.28125 0.0781 0.1875 0.10938 0.51562 0.0469 0.32812 0.0469 0.79688z"
         id="path1163" />
    </g>
    <path
       d="m4.6649 56.862c0-47.02-0.27896-46.863 83.578-46.863l740.51 0.96869c83.857 0 85.243-3.9256 85.243 43.094l-1.665 446.77c0 47.02 5.274 44.961-78.583 44.961l-747.17 0.969c-83.857 0-83.578 4.824-83.578-42.196 0-122.16 1.6648-325.54 1.6648-447.7z"
       fill="#fff"
       fill-rule="evenodd"
       stroke="#2B66AF"
       stroke-miterlimit="8"
       stroke-width="4.0007"
       id="path1167" />
    <g
       fill="#F0955E"
       id="g1241">
      <path
         transform="matrix(1.0002 0 0 -1 301 662.76)"
         d="m2-2.3899e-6 9e-5 77.86h-4l-9e-5 -77.86zm4.0001 75.86-6 12-6-12z"
         id="path1169" />
      <path
         transform="matrix(1.0002 0 0 -1 277 662.76)"
         d="m2-2.3899e-6 9e-5 77.86h-4l-9e-5 -77.86zm4.0001 75.86-6 12-6-12z"
         id="path1171" />
      <path
         transform="matrix(1.0002 0 0 -1 253 662.76)"
         d="m2-2.3899e-6 9e-5 77.86h-4l-9e-5 -77.86zm4.0001 75.86-6 12-6-12z"
         id="path1173" />
      <path
         transform="matrix(1.0002 0 0 -1 228 662.76)"
         d="m2-2.3899e-6 9e-5 77.86h-4l-9e-5 -77.86zm4.0001 75.86-6 12-6-12z"
         id="path1175" />
      <path
         transform="matrix(1.0002 0 0 -1 204 662.76)"
         d="m2-2.3899e-6 9e-5 77.86h-4l-9e-5 -77.86zm4.0001 75.86-6 12-6-12z"
         id="path1177" />
      <path
         transform="matrix(1.0002 0 0 -1 180 662.76)"
         d="m2-2.3899e-6 9e-5 77.86h-4l-9e-5 -77.86zm4.0001 75.86-6 12-6-12z"
         id="path1179" />
      <path
         transform="matrix(1.0002 0 0 -1 156 662.76)"
         d="m2-2.3899e-6 9e-5 77.86h-4l-9e-5 -77.86zm4.0001 75.86-6 12-6-12z"
         id="path1181" />
      <path
         transform="matrix(1.0002 0 0 -1 132 662.76)"
         d="m2-2.3899e-6 9e-5 77.86h-4l-9e-5 -77.86zm4.0001 75.86-6 12-6-12z"
         id="path1183" />
      <path
         transform="matrix(1.0002 0 0 -1 108 662.76)"
         d="m2-2.3899e-6 9e-5 77.86h-4l-9e-5 -77.86zm4.0001 75.86-6 12-6-12z"
         id="path1185" />
      <path
         transform="matrix(1.0002 0 0 -1 84 662.76)"
         d="m2-2.3899e-6 9e-5 77.86h-4l-9e-5 -77.86zm4.0001 75.86-6 12-6-12z"
         id="path1187" />
      <path
         transform="matrix(1.0002 0 0 -1 59 662.76)"
         d="m2-2.3899e-6 9e-5 77.86h-4l-9e-5 -77.86zm4.0001 75.86-6 12-6-12z"
         id="path1189" />
      <path
         transform="matrix(1.0002 0 0 -1 35 662.76)"
         d="m2-2.3899e-6 9e-5 77.86h-4l-9e-5 -77.86zm4.0001 75.86-6 12-6-12z"
         id="path1191" />
      <path
         transform="matrix(1.0002 0 0 -1 592 662.76)"
         d="m2-2.3899e-6 9e-5 77.86h-4l-9e-5 -77.86zm4.0001 75.86-6 12-6-12z"
         id="path1193" />
      <path
         transform="matrix(1.0002 0 0 -1 567 662.76)"
         d="m2-2.3899e-6 9e-5 77.86h-4l-9e-5 -77.86zm4.0001 75.86-6 12-6-12z"
         id="path1195" />
      <path
         transform="matrix(1.0002 0 0 -1 543 662.76)"
         d="m2-2.3899e-6 9e-5 77.86h-4l-9e-5 -77.86zm4.0001 75.86-6 12-6-12z"
         id="path1197" />
      <path
         transform="matrix(1.0002 0 0 -1 519 662.76)"
         d="m2-2.3899e-6 9e-5 77.86h-4l-9e-5 -77.86zm4.0001 75.86-6 12-6-12z"
         id="path1199" />
      <path
         transform="matrix(1.0002 0 0 -1 495 662.76)"
         d="m2-2.3899e-6 9e-5 77.86h-4l-9e-5 -77.86zm4.0001 75.86-6 12-6-12z"
         id="path1201" />
      <path
         transform="matrix(1.0002 0 0 -1 471 662.76)"
         d="m2-2.3899e-6 9e-5 77.86h-4l-9e-5 -77.86zm4.0001 75.86-6 12-6-12z"
         id="path1203" />
      <path
         transform="matrix(1.0002 0 0 -1 446 662.76)"
         d="m2-2.3899e-6 9e-5 77.86h-4l-9e-5 -77.86zm4.0001 75.86-6 12-6-12z"
         id="path1205" />
      <path
         transform="matrix(1.0002 0 0 -1 422 662.76)"
         d="m2-2.3899e-6 9e-5 77.86h-4l-9e-5 -77.86zm4.0001 75.86-6 12-6-12z"
         id="path1207" />
      <path
         transform="matrix(1.0002 0 0 -1 398 662.76)"
         d="m2-2.3899e-6 9e-5 77.86h-4l-9e-5 -77.86zm4.0001 75.86-6 12-6-12z"
         id="path1209" />
      <path
         transform="matrix(1.0002 0 0 -1 374 662.76)"
         d="m2-2.3899e-6 9e-5 77.86h-4l-9e-5 -77.86zm4.0001 75.86-6 12-6-12z"
         id="path1211" />
      <path
         transform="matrix(1.0002 0 0 -1 350 662.76)"
         d="m2-2.3899e-6 9e-5 77.86h-4l-9e-5 -77.86zm4.0001 75.86-6 12-6-12z"
         id="path1213" />
      <path
         transform="matrix(1.0002 0 0 -1 325 662.76)"
         d="m2-2.3899e-6 9e-5 77.86h-4l-9e-5 -77.86zm4.0001 75.86-6 12-6-12z"
         id="path1215" />
      <path
         transform="matrix(1.0002 0 0 -1 882 662.76)"
         d="m2-2.3899e-6 9e-5 77.86h-4l-9e-5 -77.86zm4.0001 75.86-6 12-6-12z"
         id="path1217" />
      <path
         transform="matrix(1.0002 0 0 -1 858 662.76)"
         d="m2-2.3899e-6 9e-5 77.86h-4l-9e-5 -77.86zm4.0001 75.86-6 12-6-12z"
         id="path1219" />
      <path
         transform="matrix(1.0002 0 0 -1 834 662.76)"
         d="m2-2.3899e-6 9e-5 77.86h-4l-9e-5 -77.86zm4.0001 75.86-6 12-6-12z"
         id="path1221" />
      <path
         transform="matrix(1.0002 0 0 -1 809 662.76)"
         d="m2-2.3899e-6 9e-5 77.86h-4l-9e-5 -77.86zm4.0001 75.86-6 12-6-12z"
         id="path1223" />
      <path
         transform="matrix(1.0002 0 0 -1 785 662.76)"
         d="m2-2.3899e-6 9e-5 77.86h-4l-9e-5 -77.86zm4.0001 75.86-6 12-6-12z"
         id="path1225" />
      <path
         transform="matrix(1.0002 0 0 -1 761 662.76)"
         d="m2-2.3899e-6 9e-5 77.86h-4l-9e-5 -77.86zm4.0001 75.86-6 12-6-12z"
         id="path1227" />
      <path
         transform="matrix(1.0002 0 0 -1 737 662.76)"
         d="m2-2.3899e-6 9e-5 77.86h-4l-9e-5 -77.86zm4.0001 75.86-6 12-6-12z"
         id="path1229" />
      <path
         transform="matrix(1.0002 0 0 -1 713 662.76)"
         d="m2-2.3899e-6 9e-5 77.86h-4l-9e-5 -77.86zm4.0001 75.86-6 12-6-12z"
         id="path1231" />
      <path
         transform="matrix(1.0002 0 0 -1 689 662.76)"
         d="m2-2.3899e-6 9e-5 77.86h-4l-9e-5 -77.86zm4.0001 75.86-6 12-6-12z"
         id="path1233" />
      <path
         transform="matrix(1.0002 0 0 -1 665 662.76)"
         d="m2-2.3899e-6 9e-5 77.86h-4l-9e-5 -77.86zm4.0001 75.86-6 12-6-12z"
         id="path1235" />
      <path
         transform="matrix(1.0002 0 0 -1 640 662.76)"
         d="m2-2.3899e-6 9e-5 77.86h-4l-9e-5 -77.86zm4.0001 75.86-6 12-6-12z"
         id="path1237" />
      <path
         transform="matrix(1.0002 0 0 -1 616 662.76)"
         d="m2-2.3899e-6 9e-5 77.86h-4l-9e-5 -77.86zm4.0001 75.86-6 12-6-12z"
         id="path1239" />
    </g>
    <g
       transform="translate(15.821)"
       id="g1261">
      <path
         d="m355 604.89h175.36v45.992h-175.36z"
         fill="#fff"
         stroke-width=".9204"
         id="path1243" />
      <g
         transform="matrix(1 0 0 .99982 357.82 639)"
         fill="#f0955e"
         aria-label="THREADS"
         id="g1259">
        <path
           d="m8.75-18.76h-8.12v-5.74h22.82v5.74h-8.12v18.76h-6.58z"
           id="path1245" />
        <path
           d="m24.955 0v-24.5h6.58v9.275h10.535v-9.275h6.58v24.5h-6.58v-9.485h-10.535v9.485z"
           id="path1247" />
        <path
           d="m67.69-9.625 5.845 9.625h-7.665l-4.76-8.365h-3.71v8.365h-6.51v-24.5h11.97q4.83 0 7.385 2.03 2.59 1.995 2.59 5.775 0 2.59-1.295 4.375t-3.85 2.695zm-1.505-6.825q0-1.26-0.84-1.89t-2.555-0.63h-5.39v5.145h5.39q1.645 0 2.52-0.665 0.875-0.7 0.875-1.96z"
           id="path1249" />
        <path
           d="m74.27 0v-24.5h19.18v5.53h-12.6v3.85h11.62v5.53h-11.62v4.06h12.6v5.53z"
           id="path1251" />
        <path
           d="m102.76-4.375-1.715 4.375h-6.685l10.08-24.5h7.175l10.115 24.5h-6.895l-1.715-4.375zm5.18-13.23-3.01 7.7h6.02z"
           id="path1253" />
        <path
           d="m121.66 0v-24.5h9.87q6.51 0 10.22 3.255t3.71 8.96q0 5.53-3.85 8.925-3.815 3.36-10.15 3.36zm17.15-12.215q0-3.01-1.96-4.76-1.96-1.785-5.355-1.785h-3.255v13.02h3.255q3.395 0 5.355-1.715 1.96-1.75 1.96-4.76z"
           id="path1255" />
        <path
           d="m162.05-7.21q0-1.015-1.015-1.435-0.98-0.455-3.78-0.735-5.775-0.595-8.085-2.24t-2.31-5.285q0-3.605 2.905-5.845t7.805-2.24q2.905 0 5.425 0.91t4.76 2.765l-3.29 4.725q-1.61-1.295-3.535-2.03-1.89-0.735-3.64-0.735-1.925 0-3.01 0.525-1.05 0.525-1.05 1.435 0 0.98 1.05 1.4t3.99 0.7q5.495 0.525 7.805 2.24 2.345 1.715 2.345 5.39 0 3.64-2.975 5.915-2.94 2.24-7.945 2.24-3.43 0-6.37-0.98-2.94-1.015-5.39-3.01l3.185-4.795q2.205 1.575 4.445 2.38 2.24 0.77 4.41 0.77 2.065 0 3.15-0.525 1.12-0.56 1.12-1.54z"
           id="path1257" />
      </g>
    </g>
    <g
       fill="#49a1ef"
       stroke="#2b66af"
       stroke-miterlimit="8"
       stroke-width="4.0007"
       id="g1273">
      <path
         d="m73 270.95h771v60.989h-771z"
         id="path1263" />
      <path
         d="m73 202.96h771v60.989h-771z"
         id="path1265" />
      <path
         d="m73 134.98h771v61.989h-771z"
         id="path1267" />
      <path
         d="m73 345.94h771v61.989h-771z"
         id="path1269" />
      <path
         d="m73 420.92h771v61.989h-771z"
         id="path1271" />
    </g>
    <g
       transform="matrix(1 0 0 .99982 306.39 525)"
       fill="#fff"
       aria-label="INPUTIMAGE"
       id="g1295">
      <path
         d="m17.514-412.08v-30.1h8.084v30.1z"
         id="path1275" />
      <path
         d="m35.058-430.09v18.017h-7.783v-30.1h8.17l13.201 18.017v-18.017h7.783v30.1h-8.17z"
         id="path1277" />
      <path
         d="m59.224-412.08v-30.1h14.792q5.504 0 8.729 2.795t3.225 7.525q0 4.687-3.483 7.611-3.44 2.881-8.944 2.881h-6.235v9.288zm18.576-19.694q0-1.591-1.032-2.451-1.032-0.903-2.881-0.903h-6.579v6.794h6.407q1.892 0 2.967-0.903 1.118-0.946 1.118-2.537z"
         id="path1279" />
      <path
         d="m101.02-418.31q3.01 0 4.773-1.892t1.763-5.117v-16.856h8.084v16.942q0 6.321-4.042 10.105-4.042 3.741-10.793 3.741-6.579 0-10.535-3.741-3.913-3.784-3.913-10.105v-16.942h8.084v16.856q0 3.225 1.806 5.117t4.773 1.892z"
         id="path1281" />
      <path
         d="m127.77-435.12h-9.976v-7.052h28.036v7.052h-9.976v23.048h-8.084z"
         id="path1283" />
      <path
         d="m147.8-412.08v-30.1h8.084v30.1z"
         id="path1285" />
      <path
         d="m180.91-442.18h11.997v30.1h-7.998v-21.371l-6.493 14.061h-6.665l-6.192-13.803v21.113h-7.998v-30.1h11.997l5.547 12.943z"
         id="path1287" />
      <path
         d="m201.34-417.45-2.107 5.375h-8.213l12.384-30.1h8.815l12.427 30.1h-8.471l-2.107-5.375zm6.364-16.254-3.698 9.46h7.396z"
         id="path1289" />
      <path
         d="m238.02-435.98q-3.44 0-5.848 2.537-2.365 2.537-2.365 6.278 0 3.956 2.279 6.45 2.279 2.451 5.891 2.451 2.795 0 4.558-1.161t2.494-3.44h-8.428v-6.364h16.211q0.086 0.516 0.129 1.247 0.086 0.731 0.086 1.376 0 7.009-4.128 11.137-4.128 4.085-11.266 4.085-6.966 0-11.481-4.429t-4.515-11.266q0-6.794 4.687-11.266 4.73-4.515 11.739-4.515 4.214 0 7.654 1.72 3.483 1.72 5.375 4.687l-5.504 4.515q-1.462-2.064-3.354-3.053-1.849-0.989-4.214-0.989z"
         id="path1291" />
      <path
         d="m255.65-412.08v-30.1h23.564v6.794h-15.48v4.73h14.276v6.794h-14.276v4.988h15.48v6.794z"
         id="path1293" />
    </g>
    <path
       d="m73 67.988h771v60.989h-771z"
       fill="#49a1ef"
       stroke="#2b66af"
       stroke-miterlimit="8"
       stroke-width="4.0007"
       id="path1297" />
    <g
       fill="#2b66af"
       stroke-opacity=".2"
       aria-label="INFERENCE REQUEST"
       id="g1331">
      <path
         d="m319.78 523.59v-18.667h2.2933v18.667z"
         id="path1299" />
      <path
         d="m327.97 508.25v15.333h-2.24v-18.667h2.4533l11.653 15.253v-15.253h2.24v18.667h-2.4z"
         id="path1301" />
      <path
         d="m345.54 523.59v-18.667h13.387v2.0267h-11.093v6.3467h10.347v2.0267h-10.347v8.2667z"
         id="path1303" />
      <path
         d="m361.54 523.59v-18.667h13.547v2.0267h-11.253v6.2133h10.507v2.0267h-10.507v6.3733h11.253v2.0267z"
         id="path1305" />
      <path
         d="m388.13 515.72 5.3067 7.8667h-2.72l-5.04-7.6h-5.2533v7.6h-2.2933v-18.667h8.2133q3.1467 0 4.9067 1.4667 1.76 1.44 1.76 3.9733 0 2.08-1.28 3.4933-1.28 1.4133-3.6 1.8667zm2.56-5.3067q0-1.6267-1.1733-2.5333-1.1467-0.93334-3.2267-0.93334h-5.8667v7.04h5.68q2.1067 0 3.3333-0.96 1.2533-0.98667 1.2533-2.6133z"
         id="path1307" />
      <path
         d="m395.94 523.59v-18.667h13.547v2.0267h-11.253v6.2133h10.507v2.0267h-10.507v6.3733h11.253v2.0267z"
         id="path1309" />
      <path
         d="m414.77 508.25v15.333h-2.24v-18.667h2.4533l11.653 15.253v-15.253h2.24v18.667h-2.4z"
         id="path1311" />
      <path
         d="m433.94 514.23q0 3.3333 2 5.5467 2 2.1867 5.0133 2.1867 2.0267 0 3.5467-0.93333 1.5467-0.93334 2.64-2.8l1.76 1.0133q-1.2 2.2933-3.28 3.5467-2.0533 1.2267-4.72 1.2267-4.0533 0-6.6933-2.7467-2.6133-2.7467-2.6133-6.9867 0-4.16 2.72-6.96 2.7467-2.8267 6.8267-2.8267 2.5867 0 4.56 1.2267 2 1.2 3.12 3.44l-1.84 1.0933q-1.04-1.8933-2.48-2.8t-3.4133-0.90667q-3.0667 0-5.12 2.1867-2.0267 2.1867-2.0267 5.4933z"
         id="path1313" />
      <path
         d="m451.59 523.59v-18.667h13.547v2.0267h-11.253v6.2133h10.507v2.0267h-10.507v6.3733h11.253v2.0267z"
         id="path1315" />
      <path
         d="m483.11 515.72 5.3067 7.8667h-2.72l-5.04-7.6h-5.2533v7.6h-2.2933v-18.667h8.2133q3.1467 0 4.9067 1.4667 1.76 1.44 1.76 3.9733 0 2.08-1.28 3.4933-1.28 1.4133-3.6 1.8667zm2.56-5.3067q0-1.6267-1.1733-2.5333-1.1467-0.93334-3.2267-0.93334h-5.8667v7.04h5.68q2.1067 0 3.3333-0.96 1.2533-0.98667 1.2533-2.6133z"
         id="path1317" />
      <path
         d="m490.93 523.59v-18.667h13.547v2.0267h-11.253v6.2133h10.507v2.0267h-10.507v6.3733h11.253v2.0267z"
         id="path1319" />
      <path
         d="m515.01 523.99v-0.08q-3.68-0.37333-6.08-3.0667-2.3733-2.72-2.3733-6.56 0-4.1333 2.7467-6.96 2.7467-2.8267 6.7733-2.8267 4.0533 0 6.7467 2.8 2.72 2.7733 2.72 6.9333 0 3.8133-2.3733 6.56-2.3733 2.72-6.0267 3.12 0.0267 1.2267 0.56 1.7333 0.53333 0.53333 1.7867 0.53333h1.68v1.7867h-1.9467q-2.1333 0-3.1733-0.98667-1.04-0.98666-1.04-2.9867zm-6.1067-9.76q0 3.28 2.0533 5.52 2.08 2.2133 5.12 2.2133 3.04 0 5.0667-2.1867 2.0533-2.2133 2.0533-5.4933 0-3.28-2.0533-5.4933-2.0533-2.24-5.0933-2.24-3.0667 0-5.12 2.2133-2.0267 2.1867-2.0267 5.4667z"
         id="path1321" />
      <path
         d="m536.55 521.96q2.7733 0 4.48-1.8667 1.7333-1.8933 1.7333-4.9067v-10.267h2.2667v10.32q0 3.9467-2.3467 6.3733-2.3467 2.4-6.1867 2.4-3.84 0-6.16-2.4-2.32-2.4267-2.32-6.3733v-10.32h2.2933v10.267q0 3.0133 1.7333 4.9067 1.7333 1.8667 4.5067 1.8667z"
         id="path1323" />
      <path
         d="m548.29 523.59v-18.667h13.547v2.0267h-11.253v6.2133h10.507v2.0267h-10.507v6.3733h11.253v2.0267z"
         id="path1325" />
      <path
         d="m577.03 518.33q0-1.6267-1.28-2.3733-1.2533-0.74667-4.0533-0.82667-3.84-0.18667-5.5467-1.3333-1.7067-1.1733-1.7067-3.6 0-2.4 2.0267-4.0267 2.0533-1.6267 5.1467-1.6267 2.2667 0 4.08 0.77333 1.8133 0.77334 3.2 2.3467l-1.44 1.52q-1.12-1.2533-2.64-1.92t-3.2-0.66667q-2.1333 0-3.52 0.98667t-1.3867 2.4267q0 1.52 1.2267 2.2133 1.2533 0.66667 4.0267 0.74667 3.8133 0.16 5.5733 1.4133 1.76 1.2267 1.76 3.76 0 2.5067-2.1067 4.16-2.1067 1.6533-5.3867 1.6533-2.6667 0-4.6133-0.85334-1.92-0.85333-3.4133-2.72l1.4133-1.52q1.36 1.5733 2.96 2.32 1.6 0.72 3.6533 0.72 2.2933 0 3.76-1.0133 1.4667-1.04 1.4667-2.56z"
         id="path1327" />
      <path
         d="m587.7 507h-7.2533v-2.08h16.773v2.08h-7.2267v16.587h-2.2933z"
         id="path1329" />
    </g>
    <g
       fill="#fff"
       stroke-opacity=".2"
       aria-label="INPUT IMAGE"
       id="g1453">
      <g
         aria-label="..."
         id="text1703"
         style="font-size:48px;-inkscape-font-specification:'sans-serif, Normal'">
        <path
           d="m 443.83984,391.79929 h -5.60156 v -6.67969 h 5.60156 z"
           id="path1865" />
        <path
           d="m 461.30078,391.79929 h -5.60156 v -6.67969 h 5.60156 z"
           id="path1867" />
        <path
           d="m 478.76172,391.79929 h -5.60156 v -6.67969 h 5.60156 z"
           id="path1869" />
      </g>
      <path
         d="m260.36 470.1v-33.6h9.024v33.6z"
         id="path1333" />
      <path
         d="m290.44 449.99v20.112h-8.688v-33.6h9.12l14.736 20.112v-20.112h8.688v33.6h-9.12z"
         id="path1335" />
      <path
         d="m326.52 470.1v-33.6h16.512q6.144 0 9.744 3.12t3.6 8.4q0 5.232-3.888 8.496-3.84 3.216-9.984 3.216h-6.96v10.368zm20.736-21.984q0-1.776-1.152-2.736-1.152-1.008-3.216-1.008h-7.344v7.584h7.152q2.112 0 3.312-1.008 1.248-1.056 1.248-2.832z"
         id="path1337" />
      <path
         d="m383.2 463.14q3.36 0 5.328-2.112t1.968-5.712v-18.816h9.024v18.912q0 7.056-4.512 11.28-4.512 4.176-12.048 4.176-7.344 0-11.76-4.176-4.368-4.224-4.368-11.28v-18.912h9.024v18.816q0 3.6 2.016 5.712t5.328 2.112z"
         id="path1339" />
      <path
         d="m421.34 444.37h-11.136v-7.872h31.296v7.872h-11.136v25.728h-9.024z"
         id="path1341" />
      <path
         d="m468.16 470.1v-33.6h9.024v33.6z"
         id="path1343" />
      <path
         d="m515.61 436.5h13.392v33.6h-8.928v-23.856l-7.248 15.696h-7.44l-6.912-15.408v23.568h-8.928v-33.6h13.392l6.192 14.448z"
         id="path1345" />
      <path
         d="m550.2 464.1-2.352 6h-9.168l13.824-33.6h9.84l13.872 33.6h-9.456l-2.352-6zm7.104-18.144-4.128 10.56h8.256z"
         id="path1347" />
      <path
         d="m601.16 443.41q-3.84 0-6.528 2.832-2.64 2.832-2.64 7.008 0 4.416 2.544 7.2 2.544 2.736 6.576 2.736 3.12 0 5.088-1.296t2.784-3.84h-9.408v-7.104h18.096q0.096 0.576 0.144 1.392 0.096 0.816 0.096 1.536 0 7.824-4.608 12.432-4.608 4.56-12.576 4.56-7.776 0-12.816-4.944t-5.04-12.576q0-7.584 5.232-12.576 5.28-5.04 13.104-5.04 4.704 0 8.544 1.92 3.888 1.92 6 5.232l-6.144 5.04q-1.632-2.304-3.744-3.408-2.064-1.104-4.704-1.104z"
         id="path1349" />
      <path
         d="m629.28 470.1v-33.6h26.304v7.584h-17.28v5.28h15.936v7.584h-15.936v5.568h17.28v7.584z"
         id="path1351" />
      <path
         d="m260.36 319.39v-33.6h9.024v33.6z"
         id="path1373" />
      <path
         d="m290.44 299.28v20.112h-8.688v-33.6h9.12l14.736 20.112v-20.112h8.688v33.6h-9.12z"
         id="path1375" />
      <path
         d="m326.52 319.39v-33.6h16.512q6.144 0 9.744 3.12t3.6 8.4q0 5.232-3.888 8.496-3.84 3.216-9.984 3.216h-6.96v10.368zm20.736-21.984q0-1.776-1.152-2.736-1.152-1.008-3.216-1.008h-7.344v7.584h7.152q2.112 0 3.312-1.008 1.248-1.056 1.248-2.832z"
         id="path1377" />
      <path
         d="m383.2 312.43q3.36 0 5.328-2.112t1.968-5.712v-18.816h9.024v18.912q0 7.056-4.512 11.28-4.512 4.176-12.048 4.176-7.344 0-11.76-4.176-4.368-4.224-4.368-11.28v-18.912h9.024v18.816q0 3.6 2.016 5.712t5.328 2.112z"
         id="path1379" />
      <path
         d="m421.34 293.66h-11.136v-7.872h31.296v7.872h-11.136v25.728h-9.024z"
         id="path1381" />
      <path
         d="m468.16 319.39v-33.6h9.024v33.6z"
         id="path1383" />
      <path
         d="m515.61 285.79h13.392v33.6h-8.928v-23.856l-7.248 15.696h-7.44l-6.912-15.408v23.568h-8.928v-33.6h13.392l6.192 14.448z"
         id="path1385" />
      <path
         d="m550.2 313.39-2.352 6h-9.168l13.824-33.6h9.84l13.872 33.6h-9.456l-2.352-6zm7.104-18.144-4.128 10.56h8.256z"
         id="path1387" />
      <path
         d="m601.16 292.7q-3.84 0-6.528 2.832-2.64 2.832-2.64 7.008 0 4.416 2.544 7.2 2.544 2.736 6.576 2.736 3.12 0 5.088-1.296t2.784-3.84h-9.408v-7.104h18.096q0.096 0.576 0.144 1.392 0.096 0.816 0.096 1.536 0 7.824-4.608 12.432-4.608 4.56-12.576 4.56-7.776 0-12.816-4.944t-5.04-12.576q0-7.584 5.232-12.576 5.28-5.04 13.104-5.04 4.704 0 8.544 1.92 3.888 1.92 6 5.232l-6.144 5.04q-1.632-2.304-3.744-3.408-2.064-1.104-4.704-1.104z"
         id="path1389" />
      <path
         d="m629.28 319.39v-33.6h26.304v7.584h-17.28v5.28h15.936v7.584h-15.936v5.568h17.28v7.584z"
         id="path1391" />
      <path
         d="m260.36 249.59v-33.6h9.024v33.6z"
         id="path1393" />
      <path
         d="m290.44 229.48v20.112h-8.688v-33.6h9.12l14.736 20.112v-20.112h8.688v33.6h-9.12z"
         id="path1395" />
      <path
         d="m326.52 249.59v-33.6h16.512q6.144 0 9.744 3.12t3.6 8.4q0 5.232-3.888 8.496-3.84 3.216-9.984 3.216h-6.96v10.368zm20.736-21.984q0-1.776-1.152-2.736-1.152-1.008-3.216-1.008h-7.344v7.584h7.152q2.112 0 3.312-1.008 1.248-1.056 1.248-2.832z"
         id="path1397" />
      <path
         d="m383.2 242.63q3.36 0 5.328-2.112t1.968-5.712v-18.816h9.024v18.912q0 7.056-4.512 11.28-4.512 4.176-12.048 4.176-7.344 0-11.76-4.176-4.368-4.224-4.368-11.28v-18.912h9.024v18.816q0 3.6 2.016 5.712t5.328 2.112z"
         id="path1399" />
      <path
         d="m421.34 223.86h-11.136v-7.872h31.296v7.872h-11.136v25.728h-9.024z"
         id="path1401" />
      <path
         d="m468.16 249.59v-33.6h9.024v33.6z"
         id="path1403" />
      <path
         d="m515.61 215.99h13.392v33.6h-8.928v-23.856l-7.248 15.696h-7.44l-6.912-15.408v23.568h-8.928v-33.6h13.392l6.192 14.448z"
         id="path1405" />
      <path
         d="m550.2 243.59-2.352 6h-9.168l13.824-33.6h9.84l13.872 33.6h-9.456l-2.352-6zm7.104-18.144-4.128 10.56h8.256z"
         id="path1407" />
      <path
         d="m601.16 222.9q-3.84 0-6.528 2.832-2.64 2.832-2.64 7.008 0 4.416 2.544 7.2 2.544 2.736 6.576 2.736 3.12 0 5.088-1.296t2.784-3.84h-9.408v-7.104h18.096q0.096 0.576 0.144 1.392 0.096 0.816 0.096 1.536 0 7.824-4.608 12.432-4.608 4.56-12.576 4.56-7.776 0-12.816-4.944t-5.04-12.576q0-7.584 5.232-12.576 5.28-5.04 13.104-5.04 4.704 0 8.544 1.92 3.888 1.92 6 5.232l-6.144 5.04q-1.632-2.304-3.744-3.408-2.064-1.104-4.704-1.104z"
         id="path1409" />
      <path
         d="m629.28 249.59v-33.6h26.304v7.584h-17.28v5.28h15.936v7.584h-15.936v5.568h17.28v7.584z"
         id="path1411" />
      <path
         d="m260.36 183.53v-33.6h9.024v33.6z"
         id="path1413" />
      <path
         d="m290.44 163.41v20.112h-8.688v-33.6h9.12l14.736 20.112v-20.112h8.688v33.6h-9.12z"
         id="path1415" />
      <path
         d="m326.52 183.53v-33.6h16.512q6.144 0 9.744 3.12t3.6 8.4q0 5.232-3.888 8.496-3.84 3.216-9.984 3.216h-6.96v10.368zm20.736-21.984q0-1.776-1.152-2.736-1.152-1.008-3.216-1.008h-7.344v7.584h7.152q2.112 0 3.312-1.008 1.248-1.056 1.248-2.832z"
         id="path1417" />
      <path
         d="m383.2 176.57q3.36 0 5.328-2.112t1.968-5.712v-18.816h9.024v18.912q0 7.056-4.512 11.28-4.512 4.176-12.048 4.176-7.344 0-11.76-4.176-4.368-4.224-4.368-11.28v-18.912h9.024v18.816q0 3.6 2.016 5.712t5.328 2.112z"
         id="path1419" />
      <path
         d="m421.34 157.8h-11.136v-7.872h31.296v7.872h-11.136v25.728h-9.024z"
         id="path1421" />
      <path
         d="m468.16 183.53v-33.6h9.024v33.6z"
         id="path1423" />
      <path
         d="m515.61 149.93h13.392v33.6h-8.928v-23.856l-7.248 15.696h-7.44l-6.912-15.408v23.568h-8.928v-33.6h13.392l6.192 14.448z"
         id="path1425" />
      <path
         d="m550.2 177.53-2.352 6h-9.168l13.824-33.6h9.84l13.872 33.6h-9.456l-2.352-6zm7.104-18.144-4.128 10.56h8.256z"
         id="path1427" />
      <path
         d="m601.16 156.84q-3.84 0-6.528 2.832-2.64 2.832-2.64 7.008 0 4.416 2.544 7.2 2.544 2.736 6.576 2.736 3.12 0 5.088-1.296t2.784-3.84h-9.408v-7.104h18.096q0.096 0.576 0.144 1.392 0.096 0.816 0.096 1.536 0 7.824-4.608 12.432-4.608 4.56-12.576 4.56-7.776 0-12.816-4.944t-5.04-12.576q0-7.584 5.232-12.576 5.28-5.04 13.104-5.04 4.704 0 8.544 1.92 3.888 1.92 6 5.232l-6.144 5.04q-1.632-2.304-3.744-3.408-2.064-1.104-4.704-1.104z"
         id="path1429" />
      <path
         d="m629.28 183.53v-33.6h26.304v7.584h-17.28v5.28h15.936v7.584h-15.936v5.568h17.28v7.584z"
         id="path1431" />
      <path
         d="m260.36 115.49v-33.6h9.024v33.6z"
         id="path1433" />
      <path
         d="m290.44 95.379v20.112h-8.688v-33.6h9.12l14.736 20.112v-20.112h8.688v33.6h-9.12z"
         id="path1435" />
      <path
         d="m326.52 115.49v-33.6h16.512q6.144 0 9.744 3.12t3.6 8.4q0 5.232-3.888 8.496-3.84 3.216-9.984 3.216h-6.96v10.368zm20.736-21.984q0-1.776-1.152-2.736-1.152-1.008-3.216-1.008h-7.344v7.584h7.152q2.112 0 3.312-1.008 1.248-1.056 1.248-2.832z"
         id="path1437" />
      <path
         d="m383.2 108.53q3.36 0 5.328-2.112t1.968-5.712v-18.816h9.024v18.912q0 7.056-4.512 11.28-4.512 4.176-12.048 4.176-7.344 0-11.76-4.176-4.368-4.224-4.368-11.28v-18.912h9.024v18.816q0 3.6 2.016 5.712t5.328 2.112z"
         id="path1439" />
      <path
         d="m421.34 89.763h-11.136v-7.872h31.296v7.872h-11.136v25.728h-9.024z"
         id="path1441" />
      <path
         d="m468.16 115.49v-33.6h9.024v33.6z"
         id="path1443" />
      <path
         d="m515.61 81.891h13.392v33.6h-8.928v-23.856l-7.248 15.696h-7.44l-6.912-15.408v23.568h-8.928v-33.6h13.392l6.192 14.448z"
         id="path1445" />
      <path
         d="m550.2 109.49-2.352 6h-9.168l13.824-33.6h9.84l13.872 33.6h-9.456l-2.352-6zm7.104-18.144-4.128 10.56h8.256z"
         id="path1447" />
      <path
         d="m601.16 88.803q-3.84 0-6.528 2.832-2.64 2.832-2.64 7.008 0 4.416 2.544 7.2 2.544 2.736 6.576 2.736 3.12 0 5.088-1.296t2.784-3.84h-9.408v-7.104h18.096q0.096 0.576 0.144 1.392 0.096 0.816 0.096 1.536 0 7.824-4.608 12.432-4.608 4.56-12.576 4.56-7.776 0-12.816-4.944t-5.04-12.576q0-7.584 5.232-12.576 5.28-5.04 13.104-5.04 4.704 0 8.544 1.92 3.888 1.92 6 5.232l-6.144 5.04q-1.632-2.304-3.744-3.408-2.064-1.104-4.704-1.104z"
         id="path1449" />
      <path
         d="m629.28 115.49v-33.6h26.304v7.584h-17.28v5.28h15.936v7.584h-15.936v5.568h17.28v7.584z"
         id="path1451" />
    </g>
  </g>
</svg>
