<svg width="917" height="672" xmlns="http://www.w3.org/2000/svg" xmlns:xlink="http://www.w3.org/1999/xlink" overflow="hidden"><defs><clipPath id="clip0"><rect x="0" y="0" width="917" height="672"/></clipPath></defs><g clip-path="url(#clip0)"><rect x="0" y="0" width="917" height="671.878" fill="#FFFFFF"/><text fill="#0071C5" font-family="Calibri,Calibri_MSFontService,sans-serif" font-weight="700" font-size="32" transform="matrix(1 0 0 0.999818 320.284 533)">INFERENCE REQUEST</text><path d="M4.66486 56.8617C4.66486 9.8419 4.3859 9.99831 88.2428 9.99831L828.757 10.967C912.614 10.967 914 7.0414 914 54.0612L912.335 500.831C912.335 547.851 917.609 545.792 833.752 545.792L86.5779 546.761C2.72106 546.761 3.00002 551.585 3.00002 504.565 3.00002 382.402 4.66486 179.025 4.66486 56.8617Z" stroke="#0071C5" stroke-width="4.00073" stroke-miterlimit="8" fill="#FFFFFF" fill-rule="evenodd"/><path d="M2-2.38986e-06 2.00009 77.8603-1.99991 77.8603-2 2.38986e-06ZM6.00009 75.8603 0.000104987 87.8603-5.99991 75.8603Z" fill="#FC4C02" transform="matrix(1.00018 0 0 -1 301 662.756)"/><path d="M2-2.38986e-06 2.00009 77.8603-1.99991 77.8603-2 2.38986e-06ZM6.00009 75.8603 0.000104987 87.8603-5.99991 75.8603Z" fill="#FC4C02" transform="matrix(1.00018 0 0 -1 277 662.756)"/><path d="M2-2.38986e-06 2.00009 77.8603-1.99991 77.8603-2 2.38986e-06ZM6.00009 75.8603 0.000104987 87.8603-5.99991 75.8603Z" fill="#FC4C02" transform="matrix(1.00018 0 0 -1 253 662.756)"/><path d="M2-2.38986e-06 2.00009 77.8603-1.99991 77.8603-2 2.38986e-06ZM6.00009 75.8603 0.000104987 87.8603-5.99991 75.8603Z" fill="#FC4C02" transform="matrix(1.00018 0 0 -1 228 662.756)"/><path d="M2-2.38986e-06 2.00009 77.8604-1.99991 77.8604-2 2.38986e-06ZM6.00009 75.8604 0.000104987 87.8604-5.99991 75.8604Z" fill="#FC4C02" transform="matrix(1.00018 0 0 -1 204 662.756)"/><path d="M2-2.38986e-06 2.00009 77.8604-1.99991 77.8604-2 2.38986e-06ZM6.00009 75.8604 0.000104987 87.8604-5.99991 75.8604Z" fill="#FC4C02" transform="matrix(1.00018 0 0 -1 180 662.756)"/><path d="M2-2.38986e-06 2.00009 77.8604-1.99991 77.8604-2 2.38986e-06ZM6.00009 75.8604 0.000104987 87.8604-5.99991 75.8604Z" fill="#FC4C02" transform="matrix(1.00018 0 0 -1 156 662.756)"/><path d="M2-2.38986e-06 2.00009 77.8604-1.99991 77.8604-2 2.38986e-06ZM6.00009 75.8604 0.000104987 87.8604-5.99991 75.8604Z" fill="#FC4C02" transform="matrix(1.00018 0 0 -1 132 662.756)"/><path d="M2-2.38986e-06 2.00009 77.8603-1.99991 77.8603-2 2.38986e-06ZM6.00009 75.8603 0.000104987 87.8603-5.99991 75.8603Z" fill="#FC4C02" transform="matrix(1.00018 0 0 -1 108 662.756)"/><path d="M2-2.38986e-06 2.00009 77.8603-1.99991 77.8603-2 2.38986e-06ZM6.00009 75.8603 0.000104987 87.8603-5.99991 75.8603Z" fill="#FC4C02" transform="matrix(1.00018 0 0 -1 84 662.756)"/><path d="M2-2.38986e-06 2.00009 77.8603-1.99991 77.8603-2 2.38986e-06ZM6.00009 75.8603 0.000104987 87.8603-5.99991 75.8603Z" fill="#FC4C02" transform="matrix(1.00018 0 0 -1 59 662.756)"/><path d="M2-2.38986e-06 2.00009 77.8603-1.99991 77.8603-2 2.38986e-06ZM6.00009 75.8603 0.000104987 87.8603-5.99991 75.8603Z" fill="#FC4C02" transform="matrix(1.00018 0 0 -1 35 662.756)"/><path d="M2-2.38986e-06 2.00009 77.8603-1.99991 77.8603-2 2.38986e-06ZM6.00009 75.8603 0.000104987 87.8603-5.99991 75.8603Z" fill="#FC4C02" transform="matrix(1.00018 0 0 -1 592 662.756)"/><path d="M2-2.38986e-06 2.00009 77.8603-1.99991 77.8603-2 2.38986e-06ZM6.00009 75.8603 0.000104987 87.8603-5.99991 75.8603Z" fill="#FC4C02" transform="matrix(1.00018 0 0 -1 567 662.756)"/><path d="M2-2.38986e-06 2.00009 77.8603-1.99991 77.8603-2 2.38986e-06ZM6.00009 75.8603 0.000104987 87.8603-5.99991 75.8603Z" fill="#FC4C02" transform="matrix(1.00018 0 0 -1 543 662.756)"/><path d="M2-2.38986e-06 2.00009 77.8603-1.99991 77.8603-2 2.38986e-06ZM6.00009 75.8603 0.000104987 87.8603-5.99991 75.8603Z" fill="#FC4C02" transform="matrix(1.00018 0 0 -1 519 662.756)"/><path d="M2-2.38986e-06 2.00009 77.8604-1.99991 77.8604-2 2.38986e-06ZM6.00009 75.8604 0.000104987 87.8604-5.99991 75.8604Z" fill="#FC4C02" transform="matrix(1.00018 0 0 -1 495 662.756)"/><path d="M2-2.38986e-06 2.00009 77.8604-1.99991 77.8604-2 2.38986e-06ZM6.00009 75.8604 0.000104987 87.8604-5.99991 75.8604Z" fill="#FC4C02" transform="matrix(1.00018 0 0 -1 471 662.756)"/><path d="M2-2.38986e-06 2.00009 77.8604-1.99991 77.8604-2 2.38986e-06ZM6.00009 75.8604 0.000104987 87.8604-5.99991 75.8604Z" fill="#FC4C02" transform="matrix(1.00018 0 0 -1 446 662.756)"/><path d="M2-2.38986e-06 2.00009 77.8604-1.99991 77.8604-2 2.38986e-06ZM6.00009 75.8604 0.000104987 87.8604-5.99991 75.8604Z" fill="#FC4C02" transform="matrix(1.00018 0 0 -1 422 662.756)"/><path d="M2-2.38986e-06 2.00009 77.8603-1.99991 77.8603-2 2.38986e-06ZM6.00009 75.8603 0.000104987 87.8603-5.99991 75.8603Z" fill="#FC4C02" transform="matrix(1.00018 0 0 -1 398 662.756)"/><path d="M2-2.38986e-06 2.00009 77.8603-1.99991 77.8603-2 2.38986e-06ZM6.00009 75.8603 0.000104987 87.8603-5.99991 75.8603Z" fill="#FC4C02" transform="matrix(1.00018 0 0 -1 374 662.756)"/><path d="M2-2.38986e-06 2.00009 77.8603-1.99991 77.8603-2 2.38986e-06ZM6.00009 75.8603 0.000104987 87.8603-5.99991 75.8603Z" fill="#FC4C02" transform="matrix(1.00018 0 0 -1 350 662.756)"/><path d="M2-2.38986e-06 2.00009 77.8603-1.99991 77.8603-2 2.38986e-06ZM6.00009 75.8603 0.000104987 87.8603-5.99991 75.8603Z" fill="#FC4C02" transform="matrix(1.00018 0 0 -1 325 662.756)"/><path d="M2-2.38986e-06 2.00009 77.8603-1.99991 77.8603-2 2.38986e-06ZM6.00009 75.8603 0.000104987 87.8603-5.99991 75.8603Z" fill="#FC4C02" transform="matrix(1.00018 0 0 -1 882 662.756)"/><path d="M2-2.38986e-06 2.00009 77.8603-1.99991 77.8603-2 2.38986e-06ZM6.00009 75.8603 0.000104987 87.8603-5.99991 75.8603Z" fill="#FC4C02" transform="matrix(1.00018 0 0 -1 858 662.756)"/><path d="M2-2.38986e-06 2.00009 77.8603-1.99991 77.8603-2 2.38986e-06ZM6.00009 75.8603 0.000104987 87.8603-5.99991 75.8603Z" fill="#FC4C02" transform="matrix(1.00018 0 0 -1 834 662.756)"/><path d="M2-2.38986e-06 2.00009 77.8603-1.99991 77.8603-2 2.38986e-06ZM6.00009 75.8603 0.000104987 87.8603-5.99991 75.8603Z" fill="#FC4C02" transform="matrix(1.00018 0 0 -1 809 662.756)"/><path d="M2-2.38986e-06 2.00009 77.8604-1.99991 77.8604-2 2.38986e-06ZM6.00009 75.8604 0.000104987 87.8604-5.99991 75.8604Z" fill="#FC4C02" transform="matrix(1.00018 0 0 -1 785 662.756)"/><path d="M2-2.38986e-06 2.00009 77.8604-1.99991 77.8604-2 2.38986e-06ZM6.00009 75.8604 0.000104987 87.8604-5.99991 75.8604Z" fill="#FC4C02" transform="matrix(1.00018 0 0 -1 761 662.756)"/><path d="M2-2.38986e-06 2.00009 77.8604-1.99991 77.8604-2 2.38986e-06ZM6.00009 75.8604 0.000104987 87.8604-5.99991 75.8604Z" fill="#FC4C02" transform="matrix(1.00018 0 0 -1 737 662.756)"/><path d="M2-2.38986e-06 2.00009 77.8604-1.99991 77.8604-2 2.38986e-06ZM6.00009 75.8604 0.000104987 87.8604-5.99991 75.8604Z" fill="#FC4C02" transform="matrix(1.00018 0 0 -1 713 662.756)"/><path d="M2-2.38986e-06 2.00009 77.8603-1.99991 77.8603-2 2.38986e-06ZM6.00009 75.8603 0.000104987 87.8603-5.99991 75.8603Z" fill="#FC4C02" transform="matrix(1.00018 0 0 -1 689 662.756)"/><path d="M2-2.38986e-06 2.00009 77.8603-1.99991 77.8603-2 2.38986e-06ZM6.00009 75.8603 0.000104987 87.8603-5.99991 75.8603Z" fill="#FC4C02" transform="matrix(1.00018 0 0 -1 665 662.756)"/><path d="M2-2.38986e-06 2.00009 77.8603-1.99991 77.8603-2 2.38986e-06ZM6.00009 75.8603 0.000104987 87.8603-5.99991 75.8603Z" fill="#FC4C02" transform="matrix(1.00018 0 0 -1 640 662.756)"/><path d="M2-2.38986e-06 2.00009 77.8603-1.99991 77.8603-2 2.38986e-06ZM6.00009 75.8603 0.000104987 87.8603-5.99991 75.8603Z" fill="#FC4C02" transform="matrix(1.00018 0 0 -1 616 662.756)"/><rect x="356" y="604.89" width="205" height="41" fill="#FFFFFF"/><text fill="#FC4C02" font-family="Arial,Arial_MSFontService,sans-serif" font-weight="700" font-size="39" transform="matrix(1 0 0 0.999818 359.482 637)">THREADS</text><rect x="73" y="270.951" width="771" height="60.9889" stroke="#0071C5" stroke-width="4.00073" stroke-miterlimit="8" fill="#00AEEF"/><text fill="#FFFFFF" font-family="Arial,Arial_MSFontService,sans-serif" font-weight="700" font-size="37" transform="matrix(1 0 0 0.999818 336.27 317)">INPUT IMAGE</text><rect x="73" y="202.963" width="771" height="60.9889" stroke="#0071C5" stroke-width="4.00073" stroke-miterlimit="8" fill="#00AEEF"/><text fill="#FFFFFF" font-family="Arial,Arial_MSFontService,sans-serif" font-weight="700" font-size="37" transform="matrix(1 0 0 0.999818 336.27 250)">INPUT IMAGE</text><rect x="73" y="134.975" width="771" height="61.9888" stroke="#0071C5" stroke-width="4.00073" stroke-miterlimit="8" fill="#00AEEF"/><text fill="#FFFFFF" font-family="Arial,Arial_MSFontService,sans-serif" font-weight="700" font-size="37" transform="matrix(1 0 0 0.999818 336.27 183)">INPUT IMAGE</text><rect x="73" y="67.9876" width="771" height="60.989" stroke="#0071C5" stroke-width="4.00073" stroke-miterlimit="8" fill="#00AEEF"/><text fill="#FFFFFF" font-family="Arial,Arial_MSFontService,sans-serif" font-weight="700" font-size="37" transform="matrix(1 0 0 0.999818 336.9 115)">INPUT IMAGE</text><rect x="73" y="345.937" width="771" height="61.9888" stroke="#0071C5" stroke-width="4.00073" stroke-miterlimit="8" fill="#00AEEF"/><text fill="#FFFFFF" font-family="Arial,Arial_MSFontService,sans-serif" font-weight="700" font-size="37" transform="matrix(1 0 0 0.999818 443.123 392)">...</text><rect x="73" y="420.923" width="771" height="61.9888" stroke="#0071C5" stroke-width="4.00073" stroke-miterlimit="8" fill="#00AEEF"/><text fill="#FFFFFF" font-family="Arial,Arial_MSFontService,sans-serif" font-weight="700" font-size="37" transform="matrix(1 0 0 0.999818 336.27 469)">INPUT IMAGE<tspan fill="#0071C5" font-size="27" x="-23.2961" y="58.0105">INFERENCE REQUEST</tspan></text></g></svg>