<?xml version="1.0" encoding="UTF-8"?>
<svg width="547" height="672" overflow="hidden" version="1.1" xmlns="http://www.w3.org/2000/svg"><defs><clipPath id="clip0"><rect width="547" height="672"/></clipPath></defs><g clip-path="url(#clip0)"><path d="m0 0h547v672.21h-547z" fill="#fff"/><path d="m4.9851 49.229c0-45.378-0.16505-45.227 49.449-45.227l438.13 0.93487c49.615 0 50.435-3.7886 50.435 41.59l-0.985 431.17c0 45.378 3.12 43.391-46.494 43.391l-442.07 0.935c-49.615 0-49.449 4.656-49.449-40.723 0-117.9 0.98502-314.17 0.98502-432.07z" fill="#fff" fill-rule="evenodd" stroke="#2B66AF" stroke-miterlimit="8" stroke-width="3.9988"/><g transform="matrix(1 0 0 1.0003 105.2 509)" fill="#2b66af" aria-label="INFERENCE REQUEST"><path d="m2.304 0v-22.4h2.752v22.4z"/><path d="m12.128-18.4v18.4h-2.688v-22.4h2.944l13.984 18.304v-18.304h2.688v22.4h-2.88z"/><path d="m33.216 0v-22.4h16.064v2.432h-13.312v7.616h12.416v2.432h-12.416v9.92z"/><path d="m52.416 0v-22.4h16.256v2.432h-13.504v7.456h12.608v2.432h-12.608v7.648h13.504v2.432z"/><path d="m84.32-9.44 6.368 9.44h-3.264l-6.048-9.12h-6.304v9.12h-2.752v-22.4h9.856q3.776 0 5.888 1.76 2.112 1.728 2.112 4.768 0 2.496-1.536 4.192t-4.32 2.24zm3.072-6.368q0-1.952-1.408-3.04-1.376-1.12-3.872-1.12h-7.04v8.448h6.816q2.528 0 4-1.152 1.504-1.184 1.504-3.136z"/><path d="m93.696 0v-22.4h16.256v2.432h-13.504v7.456h12.608v2.432h-12.608v7.648h13.504v2.432z"/><path d="m116.29-18.4v18.4h-2.688v-22.4h2.944l13.984 18.304v-18.304h2.688v22.4h-2.88z"/><path d="m139.3-11.232q0 4 2.4 6.656 2.4 2.624 6.016 2.624 2.432 0 4.256-1.12 1.856-1.12 3.168-3.36l2.112 1.216q-1.44 2.752-3.936 4.256-2.464 1.472-5.664 1.472-4.864 0-8.032-3.296-3.136-3.296-3.136-8.384 0-4.992 3.264-8.352 3.296-3.392 8.192-3.392 3.104 0 5.472 1.472 2.4 1.44 3.744 4.128l-2.208 1.312q-1.248-2.272-2.976-3.36t-4.096-1.088q-3.68 0-6.144 2.624-2.432 2.624-2.432 6.592z"/><path d="m160.48 0v-22.4h16.256v2.432h-13.504v7.456h12.608v2.432h-12.608v7.648h13.504v2.432z"/><path d="m198.3-9.44 6.368 9.44h-3.264l-6.048-9.12h-6.304v9.12h-2.752v-22.4h9.856q3.776 0 5.888 1.76 2.112 1.728 2.112 4.768 0 2.496-1.536 4.192t-4.32 2.24zm3.072-6.368q0-1.952-1.408-3.04-1.376-1.12-3.872-1.12h-7.04v8.448h6.816q2.528 0 4-1.152 1.504-1.184 1.504-3.136z"/><path d="m207.68 0v-22.4h16.256v2.432h-13.504v7.456h12.608v2.432h-12.608v7.648h13.504v2.432z"/><path d="m236.58 0.48v-0.096q-4.416-0.448-7.296-3.68-2.848-3.264-2.848-7.872 0-4.96 3.296-8.352t8.128-3.392q4.864 0 8.096 3.36 3.264 3.328 3.264 8.32 0 4.576-2.848 7.872-2.848 3.264-7.232 3.744 0.032 1.472 0.672 2.08 0.64 0.64 2.144 0.64h2.016v2.144h-2.336q-2.56 0-3.808-1.184t-1.248-3.584zm-7.328-11.712q0 3.936 2.464 6.624 2.496 2.656 6.144 2.656t6.08-2.624q2.464-2.656 2.464-6.592t-2.464-6.592q-2.464-2.688-6.112-2.688-3.68 0-6.144 2.656-2.432 2.624-2.432 6.56z"/><path d="m262.43-1.952q3.328 0 5.376-2.24 2.08-2.272 2.08-5.888v-12.32h2.72v12.384q0 4.736-2.816 7.648-2.816 2.88-7.424 2.88t-7.392-2.88q-2.784-2.912-2.784-7.648v-12.384h2.752v12.32q0 3.616 2.08 5.888 2.08 2.24 5.408 2.24z"/><path d="m276.51 0v-22.4h16.256v2.432h-13.504v7.456h12.608v2.432h-12.608v7.648h13.504v2.432z"/><path d="m311.01-6.304q0-1.952-1.536-2.848-1.504-0.896-4.864-0.992-4.608-0.224-6.656-1.6-2.048-1.408-2.048-4.32 0-2.88 2.432-4.832 2.464-1.952 6.176-1.952 2.72 0 4.896 0.928t3.84 2.816l-1.728 1.824q-1.344-1.504-3.168-2.304t-3.84-0.8q-2.56 0-4.224 1.184t-1.664 2.912q0 1.824 1.472 2.656 1.504 0.8 4.832 0.896 4.576 0.192 6.688 1.696 2.112 1.472 2.112 4.512 0 3.008-2.528 4.992t-6.464 1.984q-3.2 0-5.536-1.024-2.304-1.024-4.096-3.264l1.696-1.824q1.632 1.888 3.552 2.784 1.92 0.864 4.384 0.864 2.752 0 4.512-1.216 1.76-1.248 1.76-3.072z"/><path d="m323.81-19.904h-8.704v-2.496h20.128v2.496h-8.672v19.904h-2.752z"/></g><g fill="#F0955E"><path transform="matrix(1 0 0 -1.0003 180 660.5)" d="m1.9994-1.9025e-6 1e-4 100.3h-3.9988l-9e-5 -100.3zm3.9989 98.301-5.9982 11.997-5.9982-11.997z"/><path transform="matrix(1 0 0 -1.0003 166 660.5)" d="m1.9994-1.9025e-6 1e-4 100.3h-3.9988l-9e-5 -100.3zm3.9989 98.301-5.9982 11.997-5.9982-11.997z"/><path transform="matrix(1 0 0 -1.0003 152 660.5)" d="m1.9994-1.9025e-6 1e-4 100.3h-3.9988l-9e-5 -100.3zm3.9989 98.301-5.9982 11.997-5.9982-11.997z"/><path transform="matrix(1 0 0 -1.0003 137 660.5)" d="m1.9994-1.9025e-6 1e-4 100.3h-3.9988l-9e-5 -100.3zm3.9989 98.301-5.9982 11.997-5.9982-11.997z"/><path transform="matrix(1 0 0 -1.0003 123 660.5)" d="m1.9994-1.9025e-6 1e-4 100.3h-3.9988l-9e-5 -100.3zm3.9989 98.301-5.9982 11.997-5.9982-11.997z"/><path transform="matrix(1 0 0 -1.0003 109 660.5)" d="m1.9994-1.9025e-6 1e-4 100.3h-3.9988l-9e-5 -100.3zm3.9989 98.301-5.9982 11.997-5.9982-11.997z"/><path transform="matrix(1 0 0 -1.0003 94 660.5)" d="m1.9994-1.9025e-6 1e-4 100.3h-3.9988l-9e-5 -100.3zm3.9989 98.301-5.9982 11.997-5.9982-11.997z"/><path transform="matrix(1 0 0 -1.0003 80 660.5)" d="m1.9994-1.9025e-6 1e-4 100.3h-3.9988l-9e-5 -100.3zm3.9989 98.301-5.9982 11.997-5.9982-11.997z"/><path transform="matrix(1 0 0 -1.0003 66 660.5)" d="m1.9994-1.9025e-6 1e-4 100.3h-3.9988l-9e-5 -100.3zm3.9989 98.301-5.9982 11.997-5.9982-11.997z"/><path transform="matrix(1 0 0 -1.0003 51 660.5)" d="m1.9994-1.9025e-6 1e-4 100.3h-3.9988l-9e-5 -100.3zm3.9989 98.301-5.9982 11.997-5.9982-11.997z"/><path transform="matrix(1 0 0 -1.0003 37 660.5)" d="m1.9994-1.9025e-6 1e-4 100.3h-3.9988l-9e-5 -100.3zm3.9989 98.301-5.9982 11.997-5.9982-11.997z"/><path transform="matrix(1 0 0 -1.0003 23 660.5)" d="m1.9994-1.9025e-6 1e-4 100.3h-3.9988l-9e-5 -100.3zm3.9989 98.301-5.9982 11.997-5.9982-11.997z"/><path transform="matrix(1 0 0 -1.0003 352 660.5)" d="m1.9994-1.9025e-6 1e-4 100.3h-3.9988l-9e-5 -100.3zm3.9989 98.301-5.9982 11.997-5.9982-11.997z"/><path transform="matrix(1 0 0 -1.0003 338 660.5)" d="m1.9994-1.9025e-6 1e-4 100.3h-3.9988l-9e-5 -100.3zm3.9989 98.301-5.9982 11.997-5.9982-11.997z"/><path transform="matrix(1 0 0 -1.0003 324 660.5)" d="m1.9994-1.9025e-6 1e-4 100.3h-3.9988l-9e-5 -100.3zm3.9989 98.301-5.9982 11.997-5.9982-11.997z"/><path transform="matrix(1 0 0 -1.0003 309 660.5)" d="m1.9994-1.9025e-6 1e-4 100.3h-3.9988l-9e-5 -100.3zm3.9989 98.301-5.9982 11.997-5.9982-11.997z"/><path transform="matrix(1 0 0 -1.0003 295 660.5)" d="m1.9994-1.9025e-6 1e-4 100.3h-3.9988l-9e-5 -100.3zm3.9989 98.301-5.9982 11.997-5.9982-11.997z"/><path transform="matrix(1 0 0 -1.0003 281 660.5)" d="m1.9994-1.9025e-6 1e-4 100.3h-3.9988l-9e-5 -100.3zm3.9989 98.301-5.9982 11.997-5.9982-11.997z"/><path transform="matrix(1 0 0 -1.0003 266 660.5)" d="m1.9994-1.9025e-6 1e-4 100.3h-3.9988l-9e-5 -100.3zm3.9989 98.301-5.9982 11.997-5.9982-11.997z"/><path transform="matrix(1 0 0 -1.0003 252 660.5)" d="m1.9994-1.9025e-6 1e-4 100.3h-3.9988l-9e-5 -100.3zm3.9989 98.301-5.9982 11.997-5.9982-11.997z"/><path transform="matrix(1 0 0 -1.0003 238 660.5)" d="m1.9994-1.9025e-6 1e-4 100.3h-3.9988l-9e-5 -100.3zm3.9989 98.301-5.9982 11.997-5.9982-11.997z"/><path transform="matrix(1 0 0 -1.0003 223 660.5)" d="m1.9994-1.9025e-6 1e-4 100.3h-3.9988l-9e-5 -100.3zm3.9989 98.301-5.9982 11.997-5.9982-11.997z"/><path transform="matrix(1 0 0 -1.0003 209 660.5)" d="m1.9994-1.9025e-6 1e-4 100.3h-3.9988l-9e-5 -100.3zm3.9989 98.301-5.9982 11.997-5.9982-11.997z"/><path transform="matrix(1 0 0 -1.0003 195 660.5)" d="m1.9994-1.9025e-6 1e-4 100.3h-3.9988l-9e-5 -100.3zm3.9989 98.301-5.9982 11.997-5.9982-11.997z"/><path transform="matrix(1 0 0 -1.0003 524 660.5)" d="m1.9994-1.9025e-6 1e-4 100.3h-3.9988l-9e-5 -100.3zm3.9989 98.301-5.9982 11.997-5.9982-11.997z"/><path transform="matrix(1 0 0 -1.0003 510 660.5)" d="m1.9994-1.9025e-6 1e-4 100.3h-3.9988l-9e-5 -100.3zm3.9989 98.301-5.9982 11.997-5.9982-11.997z"/><path transform="matrix(1 0 0 -1.0003 496 660.5)" d="m1.9994-1.9025e-6 1e-4 100.3h-3.9988l-9e-5 -100.3zm3.9989 98.301-5.9982 11.997-5.9982-11.997z"/><path transform="matrix(1 0 0 -1.0003 481 660.5)" d="m1.9994-1.9025e-6 1e-4 100.3h-3.9988l-9e-5 -100.3zm3.9989 98.301-5.9982 11.997-5.9982-11.997z"/><path transform="matrix(1 0 0 -1.0003 467 660.5)" d="m1.9994-1.9025e-6 1e-4 100.3h-3.9988l-9e-5 -100.3zm3.9989 98.301-5.9982 11.997-5.9982-11.997z"/><path transform="matrix(1 0 0 -1.0003 453 660.5)" d="m1.9994-1.9025e-6 1e-4 100.3h-3.9988l-9e-5 -100.3zm3.9989 98.301-5.9982 11.997-5.9982-11.997z"/><path transform="matrix(1 0 0 -1.0003 438 660.5)" d="m1.9994-1.9025e-6 1e-4 100.3h-3.9988l-9e-5 -100.3zm3.9989 98.301-5.9982 11.997-5.9982-11.997z"/><path transform="matrix(1 0 0 -1.0003 424 660.5)" d="m1.9994-1.9025e-6 1e-4 100.3h-3.9988l-9e-5 -100.3zm3.9989 98.301-5.9982 11.997-5.9982-11.997z"/><path transform="matrix(1 0 0 -1.0003 410 660.5)" d="m1.9994-1.9025e-6 1e-4 100.3h-3.9988l-9e-5 -100.3zm3.9989 98.301-5.9982 11.997-5.9982-11.997z"/><path transform="matrix(1 0 0 -1.0003 396 660.5)" d="m1.9994-1.9025e-6 1e-4 100.3h-3.9988l-9e-5 -100.3zm3.9989 98.301-5.9982 11.997-5.9982-11.997z"/><path transform="matrix(1 0 0 -1.0003 381 660.5)" d="m1.9994-1.9025e-6 1e-4 100.3h-3.9988l-9e-5 -100.3zm3.9989 98.301-5.9982 11.997-5.9982-11.997z"/><path transform="matrix(1 0 0 -1.0003 367 660.5)" d="m1.9994-1.9025e-6 1e-4 100.3h-3.9988l-9e-5 -100.3zm3.9989 98.301-5.9982 11.997-5.9982-11.997z"/></g><path d="m163 589.18h201v45.014h-201z" fill="#fff"/><g transform="matrix(1 0 0 1.0003 166.53 625)" fill="#f0955e" aria-label="THREADS"><path d="m9.25-19.832h-8.584v-6.068h24.124v6.068h-8.584v19.832h-6.956z"/><path d="m26.381 0v-25.9h6.956v9.805h11.137v-9.805h6.956v25.9h-6.956v-10.027h-11.137v10.027z"/><path d="m71.558-10.175 6.179 10.175h-8.103l-5.032-8.843h-3.922v8.843h-6.882v-25.9h12.654q5.106 0 7.807 2.146 2.738 2.109 2.738 6.105 0 2.738-1.369 4.625t-4.07 2.849zm-1.591-7.215q0-1.332-0.888-1.998t-2.701-0.666h-5.698v5.439h5.698q1.739 0 2.664-0.703 0.925-0.74 0.925-2.072z"/><path d="m78.514 0v-25.9h20.276v5.846h-13.32v4.07h12.284v5.846h-12.284v4.292h13.32v5.846z"/><path d="m108.63-4.625-1.813 4.625h-7.067l10.656-25.9h7.585l10.693 25.9h-7.289l-1.813-4.625zm5.476-13.986-3.182 8.14h6.364z"/><path d="m128.61 0v-25.9h10.434q6.882 0 10.804 3.441t3.922 9.472q0 5.846-4.07 9.435-4.033 3.552-10.73 3.552zm18.13-12.913q0-3.182-2.072-5.032-2.072-1.887-5.661-1.887h-3.441v13.764h3.441q3.589 0 5.661-1.813 2.072-1.85 2.072-5.032z"/><path d="m171.31-7.622q0-1.073-1.073-1.517-1.036-0.481-3.996-0.777-6.105-0.629-8.547-2.368t-2.442-5.587q0-3.811 3.071-6.179t8.251-2.368q3.071 0 5.735 0.962t5.032 2.923l-3.478 4.995q-1.702-1.369-3.737-2.146-1.998-0.777-3.848-0.777-2.035 0-3.182 0.555-1.11 0.555-1.11 1.517 0 1.036 1.11 1.48t4.218 0.74q5.809 0.555 8.251 2.368 2.479 1.813 2.479 5.698 0 3.848-3.145 6.253-3.108 2.368-8.399 2.368-3.626 0-6.734-1.036-3.108-1.073-5.698-3.182l3.367-5.069q2.331 1.665 4.699 2.516 2.368 0.814 4.662 0.814 2.183 0 3.33-0.555 1.184-0.592 1.184-1.628z"/></g><g fill="#49a1ef" stroke="#2b66af" stroke-miterlimit="8" stroke-width="3.9988"><path d="m34 233.07h479v68.021h-479z"/><path d="m34 166.05h479v68.021h-479z"/><path d="m34 98.03h479v68.021h-479z"/><path d="m34 31.009h479v67.02h-479z"/><path d="m34 320.1h479v68.021h-479z"/><path d="m34 406.12h479v67.02h-479z"/></g><g transform="matrix(1 0 0 1.0003 148.44 282)" fill="#fff" aria-label="INPUT IMAGEINPUT IMAGEINPUT IMAGEINPUT IMAGE...INPUT IMAGE"><path d="m1.739 0v-25.9h6.956v25.9z"/><path d="m18.759-15.503v15.503h-6.697v-25.9h7.03l11.359 15.503v-15.503h6.697v25.9h-7.03z"/><path d="m40.404 0v-25.9h12.728q4.736 0 7.511 2.405t2.775 6.475q0 4.033-2.997 6.549-2.96 2.479-7.696 2.479h-5.365v7.992zm15.984-16.946q0-1.369-0.888-2.109-0.888-0.777-2.479-0.777h-5.661v5.846h5.513q1.628 0 2.553-0.777 0.962-0.814 0.962-2.183z"/><path d="m77.922-5.365q2.59 0 4.107-1.628t1.517-4.403v-14.504h6.956v14.578q0 5.439-3.478 8.695-3.478 3.219-9.287 3.219-5.661 0-9.065-3.219-3.367-3.256-3.367-8.695v-14.578h6.956v14.504q0 2.775 1.554 4.403t4.107 1.628z"/><path d="m101.16-19.832h-8.584v-6.068h24.124v6.068h-8.584v19.832h-6.956z"/><path d="m124.91 0v-25.9h6.956v25.9z"/><path d="m155.33-25.9h10.323v25.9h-6.882v-18.389l-5.587 12.099h-5.735l-5.328-11.877v18.167h-6.882v-25.9h10.323l4.773 11.137z"/><path d="m175.82-4.625-1.813 4.625h-7.067l10.656-25.9h7.585l10.693 25.9h-7.289l-1.813-4.625zm5.476-13.986-3.182 8.14h6.364z"/><path d="m208.94-20.572q-2.96 0-5.032 2.183-2.035 2.183-2.035 5.402 0 3.404 1.961 5.55 1.961 2.109 5.069 2.109 2.405 0 3.922-0.999t2.146-2.96h-7.252v-5.476h13.949q0.074 0.444 0.111 1.073 0.074 0.629 0.074 1.184 0 6.031-3.552 9.583-3.552 3.515-9.694 3.515-5.994 0-9.879-3.811t-3.885-9.694q0-5.846 4.033-9.694 4.07-3.885 10.101-3.885 3.626 0 6.586 1.48 2.997 1.48 4.625 4.033l-4.736 3.885q-1.258-1.776-2.886-2.627-1.591-0.851-3.626-0.851z"/><path d="m224.44 0v-25.9h20.276v5.846h-13.32v4.07h12.284v5.846h-12.284v4.292h13.32v5.846z"/><path d="m1.739-67.979v-25.9h6.956v25.9z"/><path d="m18.759-83.482v15.503h-6.697v-25.9h7.03l11.359 15.503v-15.503h6.697v25.9h-7.03z"/><path d="m40.404-67.979v-25.9h12.728q4.736 0 7.511 2.405t2.775 6.475q0 4.033-2.997 6.549-2.96 2.479-7.696 2.479h-5.365v7.992zm15.984-16.946q0-1.369-0.888-2.109-0.888-0.777-2.479-0.777h-5.661v5.846h5.513q1.628 0 2.553-0.777 0.962-0.814 0.962-2.183z"/><path d="m77.922-73.344q2.59 0 4.107-1.628t1.517-4.403v-14.504h6.956v14.578q0 5.439-3.478 8.695-3.478 3.219-9.287 3.219-5.661 0-9.065-3.219-3.367-3.256-3.367-8.695v-14.578h6.956v14.504q0 2.775 1.554 4.403t4.107 1.628z"/><path d="m101.16-87.811h-8.584v-6.068h24.124v6.068h-8.584v19.832h-6.956z"/><path d="m124.91-67.979v-25.9h6.956v25.9z"/><path d="m155.33-93.879h10.323v25.9h-6.882v-18.389l-5.587 12.099h-5.735l-5.328-11.877v18.167h-6.882v-25.9h10.323l4.773 11.137z"/><path d="m175.82-72.604-1.813 4.625h-7.067l10.656-25.9h7.585l10.693 25.9h-7.289l-1.813-4.625zm5.476-13.986-3.182 8.14h6.364z"/><path d="m208.94-88.551q-2.96 0-5.032 2.183-2.035 2.183-2.035 5.402 0 3.404 1.961 5.55 1.961 2.109 5.069 2.109 2.405 0 3.922-0.999t2.146-2.96h-7.252v-5.476h13.949q0.074 0.444 0.111 1.073 0.074 0.629 0.074 1.184 0 6.031-3.552 9.583-3.552 3.515-9.694 3.515-5.994 0-9.879-3.811t-3.885-9.694q0-5.846 4.033-9.694 4.07-3.885 10.101-3.885 3.626 0 6.586 1.48 2.997 1.48 4.625 4.033l-4.736 3.885q-1.258-1.776-2.886-2.627-1.591-0.851-3.626-0.851z"/><path d="m224.44-67.979v-25.9h20.276v5.846h-13.32v4.07h12.284v5.846h-12.284v4.292h13.32v5.846z"/><path d="m1.739-135.96v-25.9h6.956v25.9z"/><path d="m18.759-151.46v15.503h-6.697v-25.9h7.03l11.359 15.503v-15.503h6.697v25.9h-7.03z"/><path d="m40.404-135.96v-25.9h12.728q4.736 0 7.511 2.405t2.775 6.475q0 4.033-2.997 6.549-2.96 2.479-7.696 2.479h-5.365v7.992zm15.984-16.946q0-1.369-0.888-2.109-0.888-0.777-2.479-0.777h-5.661v5.846h5.513q1.628 0 2.553-0.777 0.962-0.814 0.962-2.183z"/><path d="m77.922-141.32q2.59 0 4.107-1.628t1.517-4.403v-14.504h6.956v14.578q0 5.439-3.478 8.695-3.478 3.219-9.287 3.219-5.661 0-9.065-3.219-3.367-3.256-3.367-8.695v-14.578h6.956v14.504q0 2.775 1.554 4.403t4.107 1.628z"/><path d="m101.16-155.79h-8.584v-6.068h24.124v6.068h-8.584v19.832h-6.956z"/><path d="m124.91-135.96v-25.9h6.956v25.9z"/><path d="m155.33-161.86h10.323v25.9h-6.882v-18.389l-5.587 12.099h-5.735l-5.328-11.877v18.167h-6.882v-25.9h10.323l4.773 11.137z"/><path d="m175.82-140.58-1.813 4.625h-7.067l10.656-25.9h7.585l10.693 25.9h-7.289l-1.813-4.625zm5.476-13.986-3.182 8.14h6.364z"/><path d="m208.94-156.53q-2.96 0-5.032 2.183-2.035 2.183-2.035 5.402 0 3.404 1.961 5.55 1.961 2.109 5.069 2.109 2.405 0 3.922-0.999t2.146-2.96h-7.252v-5.476h13.949q0.074 0.444 0.111 1.073 0.074 0.629 0.074 1.184 0 6.031-3.552 9.583-3.552 3.515-9.694 3.515-5.994 0-9.879-3.811t-3.885-9.694q0-5.846 4.033-9.694 4.07-3.885 10.101-3.885 3.626 0 6.586 1.48 2.997 1.48 4.625 4.033l-4.736 3.885q-1.258-1.776-2.886-2.627-1.591-0.851-3.626-0.851z"/><path d="m224.44-135.96v-25.9h20.276v5.846h-13.32v4.07h12.284v5.846h-12.284v4.292h13.32v5.846z"/><path d="m2.1314-202.94v-25.9h6.956v25.9z"/><path d="m19.151-218.44v15.503h-6.697v-25.9h7.03l11.359 15.503v-15.503h6.697v25.9h-7.03z"/><path d="m40.796-202.94v-25.9h12.728q4.736 0 7.511 2.405t2.775 6.475q0 4.033-2.997 6.549-2.96 2.479-7.696 2.479h-5.365v7.992zm15.984-16.946q0-1.369-0.888-2.109-0.888-0.777-2.479-0.777h-5.661v5.846h5.513q1.628 0 2.553-0.777 0.962-0.814 0.962-2.183z"/><path d="m78.314-208.3q2.59 0 4.107-1.628t1.517-4.403v-14.504h6.956v14.578q0 5.439-3.478 8.695-3.478 3.219-9.287 3.219-5.661 0-9.065-3.219-3.367-3.256-3.367-8.695v-14.578h6.956v14.504q0 2.775 1.554 4.403t4.107 1.628z"/><path d="m101.55-222.77h-8.584v-6.068h24.124v6.068h-8.584v19.832h-6.956z"/><path d="m125.3-202.94v-25.9h6.956v25.9z"/><path d="m155.72-228.84h10.323v25.9h-6.882v-18.389l-5.587 12.099h-5.735l-5.328-11.877v18.167h-6.882v-25.9h10.323l4.773 11.137z"/><path d="m176.22-207.56-1.813 4.625h-7.067l10.656-25.9h7.585l10.693 25.9h-7.289l-1.813-4.625zm5.476-13.986-3.182 8.14h6.364z"/><path d="m209.33-223.51q-2.96 0-5.032 2.183-2.035 2.183-2.035 5.402 0 3.404 1.961 5.55 1.961 2.109 5.069 2.109 2.405 0 3.922-0.999t2.146-2.96h-7.252v-5.476h13.949q0.074 0.444 0.111 1.073 0.074 0.629 0.074 1.184 0 6.031-3.552 9.583-3.552 3.515-9.694 3.515-5.994 0-9.879-3.811t-3.885-9.694q0-5.846 4.033-9.694 4.07-3.885 10.101-3.885 3.626 0 6.586 1.48 2.997 1.48 4.625 4.033l-4.736 3.885q-1.258-1.776-2.886-2.627-1.591-0.851-3.626-0.851z"/><path d="m224.83-202.94v-25.9h20.276v5.846h-13.32v4.07h12.284v5.846h-12.284v4.292h13.32v5.846z"/><path d="m115.42 66.8h7.178v7.178h-7.178z"/><path d="m122.71 66.8h7.178v7.178h-7.178z"/><path d="m130 66.8h7.178v7.178h-7.178z"/><path d="m1.739 171.95v-25.9h6.956v25.9z"/><path d="m18.759 156.44v15.503h-6.697v-25.9h7.03l11.359 15.503v-15.503h6.697v25.9h-7.03z"/><path d="m40.404 171.95v-25.9h12.728q4.736 0 7.511 2.405t2.775 6.475q0 4.033-2.997 6.549-2.96 2.479-7.696 2.479h-5.365v7.992zm15.984-16.946q0-1.369-0.888-2.109-0.888-0.777-2.479-0.777h-5.661v5.846h5.513q1.628 0 2.553-0.777 0.962-0.814 0.962-2.183z"/><path d="m77.922 166.58q2.59 0 4.107-1.628t1.517-4.403v-14.504h6.956v14.578q0 5.439-3.478 8.695-3.478 3.219-9.287 3.219-5.661 0-9.065-3.219-3.367-3.256-3.367-8.695v-14.578h6.956v14.504q0 2.775 1.554 4.403t4.107 1.628z"/><path d="m101.16 152.12h-8.584v-6.068h24.124v6.068h-8.584v19.832h-6.956z"/><path d="m124.91 171.95v-25.9h6.956v25.9z"/><path d="m155.33 146.05h10.323v25.9h-6.882v-18.389l-5.587 12.099h-5.735l-5.328-11.877v18.167h-6.882v-25.9h10.323l4.773 11.137z"/><path d="m175.82 167.32-1.813 4.625h-7.067l10.656-25.9h7.585l10.693 25.9h-7.289l-1.813-4.625zm5.476-13.986-3.182 8.14h6.364z"/><path d="m208.94 151.38q-2.96 0-5.032 2.183-2.035 2.183-2.035 5.402 0 3.404 1.961 5.55 1.961 2.109 5.069 2.109 2.405 0 3.922-0.999t2.146-2.96h-7.252v-5.476h13.949q0.074 0.444 0.111 1.073 0.074 0.629 0.074 1.184 0 6.031-3.552 9.583-3.552 3.515-9.694 3.515-5.994 0-9.879-3.811t-3.885-9.694q0-5.846 4.033-9.694 4.07-3.885 10.101-3.885 3.626 0 6.586 1.48 2.997 1.48 4.625 4.033l-4.736 3.885q-1.258-1.776-2.886-2.627-1.591-0.851-3.626-0.851z"/><path d="m224.44 171.95v-25.9h20.276v5.846h-13.32v4.07h12.284v5.846h-12.284v4.292h13.32v5.846z"/></g></g></svg>
