<?xml version="1.0" encoding="UTF-8"?>
<svg width="917" height="672" overflow="hidden" version="1.1" xmlns="http://www.w3.org/2000/svg"><defs><clipPath id="clip0"><rect width="917" height="672"/></clipPath></defs><g clip-path="url(#clip0)"><path d="m0 0h917v671.88h-917z" fill="#fff"/><g transform="matrix(1 0 0 .99982 320.28 533)" fill="#0071c5" aria-label="INFERENCE REQUEST"><path d="m6.3281-0.5625q0 0.15625-0.10938 0.28125-0.09375 0.125-0.32812 0.20312t-0.625 0.125-1 0.046875q-0.59375 0-1-0.046875-0.39062-0.046875-0.625-0.125t-0.34375-0.20312q-0.09375-0.125-0.09375-0.28125v-19.094q0-0.15625 0.09375-0.28125 0.10938-0.125 0.34375-0.20312 0.25-0.07813 0.64062-0.125t0.98438-0.04687q0.60938 0 1 0.04687t0.625 0.125 0.32812 0.20312q0.10938 0.125 0.10938 0.28125z"/><path d="m27.406-1.4375q0 0.35938-0.125 0.64062t-0.34375 0.46875q-0.20312 0.1875-0.5 0.28125-0.28125 0.078125-0.57812 0.078125h-1.75q-0.54688 0-0.95312-0.10938-0.39062-0.10938-0.73438-0.39062-0.32812-0.29688-0.64062-0.78125-0.3125-0.5-0.70312-1.2812l-5.0312-9.4531q-0.4375-0.84375-0.89062-1.8125-0.45312-0.98438-0.8125-1.9062h-0.03125q0.0625 1.125 0.09375 2.25 0.03125 1.1094 0.03125 2.2969v10.578q0 0.15625-0.09375 0.28125-0.07813 0.125-0.29688 0.21875-0.20312 0.078125-0.5625 0.125t-0.92188 0.046875q-0.54688 0-0.90625-0.046875t-0.5625-0.125q-0.20312-0.09375-0.28125-0.21875-0.07813-0.125-0.07813-0.28125v-18.172q0-0.73438 0.42188-1.0938 0.4375-0.375 1.0625-0.375h2.2031q0.59375 0 1 0.10938 0.40625 0.09375 0.71875 0.32812 0.32812 0.23438 0.60938 0.65625 0.28125 0.40625 0.57812 1.0156l3.9375 7.3906q0.34375 0.67188 0.67188 1.3281 0.34375 0.64062 0.65625 1.2969 0.3125 0.64062 0.60938 1.2656t0.57812 1.25h0.01563q-0.04687-1.0938-0.07813-2.2812-0.01563-1.1875-0.01563-2.2656v-9.4844q0-0.15625 0.09375-0.28125t0.3125-0.21875 0.57812-0.125q0.35938-0.04687 0.92188-0.04687 0.53125 0 0.89062 0.04687 0.35938 0.03125 0.54688 0.125 0.20312 0.09375 0.28125 0.21875 0.07813 0.125 0.07813 0.28125z"/><path d="m43.156-18.531q0 0.46875-0.04687 0.79688-0.03125 0.3125-0.125 0.5-0.07813 0.1875-0.1875 0.28125-0.10938 0.09375-0.25 0.09375h-6.6094v5.4375h6.2031q0.14062 0 0.25 0.07813t0.1875 0.26562q0.09375 0.1875 0.125 0.5 0.04687 0.3125 0.04687 0.78125t-0.04687 0.78125q-0.03125 0.3125-0.125 0.51562-0.07813 0.20312-0.1875 0.29688-0.10938 0.078125-0.25 0.078125h-6.2031v7.5312q0 0.17188-0.09375 0.29688-0.09375 0.125-0.34375 0.21874-0.23438 0.078125-0.625 0.125t-1 0.046875q-0.59375 0-1-0.046875-0.39062-0.046875-0.625-0.125-0.23438-0.09375-0.34375-0.21875-0.09375-0.125-0.09375-0.29688v-18.328q0-0.6875 0.34375-0.98438 0.35938-0.3125 0.875-0.3125h9.5156q0.14062 0 0.25 0.09375 0.10938 0.07813 0.1875 0.28125 0.09375 0.1875 0.125 0.51562 0.04687 0.32812 0.04687 0.79688z"/><path d="m58.484-1.6094q0 0.45312-0.04687 0.76562-0.03125 0.29688-0.10938 0.48438-0.07813 0.1875-0.20313 0.28125-0.10938 0.078125-0.25 0.078125h-10.156q-0.51562 0-0.875-0.29688-0.34375-0.3125-0.34375-1v-17.625q0-0.6875 0.34375-0.98438 0.35938-0.3125 0.875-0.3125h10.094q0.14062 0 0.25 0.07813t0.1875 0.28125q0.07813 0.1875 0.10938 0.5 0.04687 0.29688 0.04687 0.76562 0 0.4375-0.04687 0.75-0.03125 0.29688-0.10938 0.48438-0.07813 0.1875-0.1875 0.28125-0.10938 0.07812-0.25 0.07812h-7.2188v4.9375h6.1094q0.14062 0 0.25 0.09375 0.125 0.07813 0.20312 0.26562 0.07813 0.17188 0.10938 0.48438 0.04687 0.29688 0.04687 0.73438 0 0.45312-0.04687 0.75-0.03125 0.29688-0.10938 0.48438-0.07813 0.17188-0.20312 0.25-0.10938 0.078125-0.25 0.078125h-6.1094v5.7031h7.2812q0.14062 0 0.25 0.09375 0.125 0.078125 0.20312 0.26562 0.07813 0.1875 0.10938 0.5 0.04687 0.29688 0.04687 0.75z"/><path d="m77.109-0.53125q0 0.17188-0.0625 0.29688-0.0625 0.10938-0.29688 0.1875t-0.6875 0.10938-1.2344 0.03125q-0.65625 0-1.0469-0.03125t-0.625-0.10938q-0.21875-0.09375-0.3125-0.21875-0.09375-0.14062-0.15625-0.32812l-1.8125-4.5156q-0.32812-0.76562-0.64062-1.3594t-0.70312-0.98438q-0.375-0.40625-0.875-0.60938t-1.1562-0.20312h-1.2812v7.7031q0 0.15625-0.10938 0.28125-0.09375 0.125-0.32812 0.20312t-0.625 0.125-1 0.046875q-0.59375 0-1-0.046875-0.39062-0.046875-0.625-0.125t-0.32812-0.20312-0.09375-0.28125v-18.359q0-0.6875 0.34375-0.98438 0.35938-0.3125 0.875-0.3125h5.2344q0.79688 0 1.3125 0.03125t0.9375 0.07813q1.2188 0.17188 2.1875 0.59375 0.98438 0.42188 1.6562 1.1094 0.6875 0.67188 1.0469 1.6094 0.35938 0.92188 0.35938 2.125 0 1.0156-0.26562 1.8594-0.25 0.82812-0.75 1.4844t-1.2344 1.1406-1.6719 0.78125q0.45312 0.21875 0.84375 0.53125 0.40625 0.3125 0.75 0.76562 0.35938 0.4375 0.67188 1.0156 0.3125 0.5625 0.60938 1.2812l1.7031 3.9844q0.23438 0.59375 0.3125 0.875 0.07813 0.26562 0.07813 0.42188zm-5.2969-13.719q0-1-0.45312-1.6875t-1.4844-0.96875q-0.3125-0.07813-0.71875-0.125-0.39062-0.04687-1.0938-0.04687h-1.8438v5.7344h2.0938q0.875 0 1.5312-0.20312 0.65625-0.21875 1.0938-0.59375 0.4375-0.39062 0.65625-0.92188t0.21875-1.1875z"/><path d="m92.109-1.6094q0 0.45312-0.04687 0.76562-0.03125 0.29688-0.10938 0.48438-0.07813 0.1875-0.20313 0.28125-0.10938 0.078125-0.25 0.078125h-10.156q-0.51562 0-0.875-0.29688-0.34375-0.3125-0.34375-1v-17.625q0-0.6875 0.34375-0.98438 0.35938-0.3125 0.875-0.3125h10.094q0.14062 0 0.25 0.07813t0.1875 0.28125q0.07813 0.1875 0.10938 0.5 0.04687 0.29688 0.04687 0.76562 0 0.4375-0.04687 0.75-0.03125 0.29688-0.10938 0.48438-0.07813 0.1875-0.1875 0.28125-0.10938 0.07812-0.25 0.07812h-7.2188v4.9375h6.1094q0.14062 0 0.25 0.09375 0.125 0.07813 0.20312 0.26562 0.07813 0.17188 0.10938 0.48438 0.04687 0.29688 0.04687 0.73438 0 0.45312-0.04687 0.75-0.03125 0.29688-0.10938 0.48438-0.07813 0.17188-0.20312 0.25-0.10938 0.078125-0.25 0.078125h-6.1094v5.7031h7.2812q0.14062 0 0.25 0.09375 0.125 0.078125 0.20312 0.26562 0.07813 0.1875 0.10938 0.5 0.04687 0.29688 0.04687 0.75z"/><path d="m112.41-1.4375q0 0.35938-0.125 0.64062t-0.34375 0.46875q-0.20312 0.1875-0.5 0.28125-0.28125 0.078125-0.57812 0.078125h-1.75q-0.54688 0-0.95313-0.10938-0.39062-0.10938-0.73437-0.39062-0.32813-0.29688-0.64063-0.78125-0.3125-0.5-0.70312-1.2812l-5.0312-9.4531q-0.4375-0.84375-0.89063-1.8125-0.45312-0.98438-0.8125-1.9062h-0.03125q0.0625 1.125 0.09375 2.25 0.03125 1.1094 0.03125 2.2969v10.578q0 0.15625-0.09375 0.28125-0.07813 0.125-0.29688 0.21875-0.20312 0.078125-0.5625 0.125t-0.92188 0.046875q-0.54688 0-0.90625-0.046875t-0.5625-0.125q-0.20312-0.09375-0.28125-0.21875-0.07813-0.125-0.07813-0.28125v-18.172q0-0.73438 0.42188-1.0938 0.4375-0.375 1.0625-0.375h2.2031q0.59376 0 1 0.10938 0.40625 0.09375 0.71875 0.32812 0.32812 0.23438 0.60937 0.65625 0.28125 0.40625 0.57813 1.0156l3.9375 7.3906q0.34375 0.67188 0.67187 1.3281 0.34375 0.64062 0.65625 1.2969 0.3125 0.64062 0.60938 1.2656 0.29687 0.625 0.57812 1.25h0.0156q-0.0469-1.0938-0.0781-2.2812-0.0156-1.1875-0.0156-2.2656v-9.4844q0-0.15625 0.0937-0.28125t0.3125-0.21875q0.21875-0.09375 0.57812-0.125 0.35938-0.04687 0.92188-0.04687 0.53125 0 0.89062 0.04687 0.35938 0.03125 0.54688 0.125 0.20312 0.09375 0.28125 0.21875 0.0781 0.125 0.0781 0.28125z"/><path d="m130.8-3.0625q0 0.39062-0.0312 0.67188-0.0156 0.26562-0.0625 0.46875-0.0469 0.1875-0.125 0.32812t-0.25 0.32812q-0.17187 0.17188-0.67187 0.45312-0.48438 0.28125-1.2031 0.54688-0.70312 0.25-1.625 0.42188-0.90625 0.17188-1.9688 0.17188-2.0781 0-3.75-0.64062-1.6719-0.64062-2.8438-1.9062-1.1719-1.2812-1.7969-3.1875t-0.625-4.4375q0-2.5781 0.6875-4.5781t1.9219-3.3594q1.2344-1.3594 2.9531-2.0625 1.7344-0.70312 3.8125-0.70312 0.84375 0 1.625 0.14062t1.4375 0.375q0.67187 0.21875 1.2031 0.51562t0.73438 0.51562q0.21875 0.20312 0.29687 0.34375 0.0781 0.14062 0.125 0.35938t0.0625 0.51562q0.0312 0.29688 0.0312 0.73438 0 0.46875-0.0312 0.79688t-0.10937 0.53125q-0.0781 0.20312-0.1875 0.29688-0.10938 0.09375-0.25 0.09375-0.23438 0-0.59375-0.26562-0.35938-0.28125-0.9375-0.60938-0.5625-0.34375-1.3594-0.60938-0.78125-0.28125-1.875-0.28125-1.2031 0-2.1562 0.5-0.9375 0.48438-1.6094 1.4062-0.65625 0.90625-1 2.2031t-0.34375 2.9219q0 1.7812 0.35938 3.0938 0.375 1.2969 1.0469 2.1406 0.6875 0.84375 1.6406 1.2656 0.96875 0.40625 2.1719 0.40625 1.0938 0 1.8906-0.25 0.79687-0.26562 1.3594-0.57812 0.57812-0.3125 0.9375-0.5625 0.375-0.25 0.57812-0.25 0.15625 0 0.25 0.0625 0.0937 0.0625 0.15625 0.25 0.0625 0.1875 0.0937 0.53125 0.0312 0.32812 0.0312 0.89062z"/><path d="m145.73-1.6094q0 0.45312-0.0469 0.76562-0.0312 0.29688-0.10938 0.48438-0.0781 0.1875-0.20312 0.28125-0.10935 0.078125-0.24997 0.078125h-10.156q-0.51563 0-0.875-0.29688-0.34375-0.3125-0.34375-1v-17.625q0-0.6875 0.34375-0.98438 0.35937-0.3125 0.875-0.3125h10.094q0.14062 0 0.25 0.07813 0.10937 0.07813 0.1875 0.28125 0.0781 0.1875 0.10937 0.5 0.0469 0.29688 0.0469 0.76562 0 0.4375-0.0469 0.75-0.0312 0.29688-0.10937 0.48438-0.0781 0.1875-0.1875 0.28125-0.10938 0.07812-0.25 0.07812h-7.2188v4.9375h6.1094q0.14063 0 0.25 0.09375 0.125 0.07813 0.20313 0.26562 0.0781 0.17188 0.10937 0.48438 0.0469 0.29688 0.0469 0.73438 0 0.45312-0.0469 0.75-0.0312 0.29688-0.10937 0.48438-0.0781 0.17188-0.20313 0.25-0.10937 0.078125-0.25 0.078125h-6.1094v5.7031h7.2812q0.14062 0 0.25 0.09375 0.125 0.078125 0.20312 0.26562 0.0781 0.1875 0.10938 0.5 0.0469 0.29688 0.0469 0.75z"/><path d="m171.59-0.53125q0 0.17188-0.0625 0.29688-0.0625 0.10938-0.29688 0.1875-0.23437 0.078125-0.6875 0.10938-0.45312 0.03125-1.2344 0.03125-0.65625 0-1.0469-0.03125-0.39062-0.03125-0.625-0.10938-0.21875-0.09375-0.3125-0.21875-0.0937-0.14062-0.15625-0.32812l-1.8125-4.5156q-0.32812-0.76562-0.64062-1.3594t-0.70313-0.98438q-0.375-0.40625-0.875-0.60938t-1.1562-0.20312h-1.2812v7.7031q0 0.15625-0.10937 0.28125-0.0937 0.125-0.32813 0.20312-0.23437 0.078125-0.625 0.125-0.39062 0.046875-1 0.046875-0.59375 0-1-0.046875-0.39062-0.046875-0.625-0.125-0.23437-0.078125-0.32812-0.20312-0.0937-0.125-0.0937-0.28125v-18.359q0-0.6875 0.34375-0.98438 0.35937-0.3125 0.875-0.3125h5.2344q0.79688 0 1.3125 0.03125 0.51563 0.03125 0.9375 0.07813 1.2188 0.17188 2.1875 0.59375 0.98438 0.42188 1.6562 1.1094 0.6875 0.67188 1.0469 1.6094 0.35937 0.92188 0.35937 2.125 0 1.0156-0.26562 1.8594-0.25 0.82812-0.75 1.4844t-1.2344 1.1406q-0.73437 0.48438-1.6719 0.78125 0.45312 0.21875 0.84375 0.53125 0.40625 0.3125 0.75 0.76562 0.35937 0.4375 0.67187 1.0156 0.3125 0.5625 0.60938 1.2812l1.7031 3.9844q0.23438 0.59375 0.3125 0.875 0.0781 0.26562 0.0781 0.42188zm-5.2969-13.719q0-1-0.45312-1.6875-0.45313-0.6875-1.4844-0.96875-0.3125-0.07813-0.71875-0.125-0.39062-0.04687-1.0938-0.04687h-1.8438v5.7344h2.0938q0.875 0 1.5312-0.20312 0.65625-0.21875 1.0938-0.59375 0.4375-0.39062 0.65625-0.92188t0.21875-1.1875z"/><path d="m186.59-1.6094q0 0.45312-0.0469 0.76562-0.0312 0.29688-0.10937 0.48438-0.0781 0.1875-0.20313 0.28125-0.10935 0.078125-0.24998 0.078125h-10.156q-0.51562 0-0.875-0.29688-0.34375-0.3125-0.34375-1v-17.625q0-0.6875 0.34375-0.98438 0.35938-0.3125 0.875-0.3125h10.094q0.14063 0 0.25 0.07813 0.10938 0.07813 0.1875 0.28125 0.0781 0.1875 0.10938 0.5 0.0469 0.29688 0.0469 0.76562 0 0.4375-0.0469 0.75-0.0312 0.29688-0.10938 0.48438-0.0781 0.1875-0.1875 0.28125-0.10937 0.07812-0.25 0.07812h-7.2188v4.9375h6.1094q0.14062 0 0.25 0.09375 0.125 0.07813 0.20312 0.26562 0.0781 0.17188 0.10938 0.48438 0.0469 0.29688 0.0469 0.73438 0 0.45312-0.0469 0.75-0.0312 0.29688-0.10938 0.48438-0.0781 0.17188-0.20312 0.25-0.10938 0.078125-0.25 0.078125h-6.1094v5.7031h7.2812q0.14063 0 0.25 0.09375 0.125 0.078125 0.20313 0.26562 0.0781 0.1875 0.10937 0.5 0.0469 0.29688 0.0469 0.75z"/><path d="m209.77 1.9219q0 0.5625-0.0625 0.90625-0.0469 0.34375-0.14062 0.53125-0.0937 0.1875-0.20313 0.23438-0.10937 0.0625-0.23437 0.0625-0.51563 0-1.3594-0.28125-0.82812-0.28125-1.7969-0.8125-0.96875-0.51562-1.9844-1.2812-1-0.75-1.8594-1.7344-0.71875 0.32812-1.75 0.5625-1.0156 0.25-2.2656 0.25-2.3594 0-4.125-0.59375-1.75-0.60938-2.9219-1.875-1.1719-1.2656-1.7656-3.2188-0.57812-1.9688-0.57812-4.6719 0-2.4531 0.625-4.4062 0.625-1.9688 1.8594-3.3281 1.2344-1.375 3.0469-2.1094 1.8281-0.73438 4.2344-0.73438 2.2656 0 4 0.60938 1.75 0.60938 2.9375 1.875 1.2031 1.25 1.8125 3.1719 0.625 1.9219 0.625 4.5469 0 1.3594-0.1875 2.5625-0.17187 1.1875-0.51562 2.2031t-0.84375 1.8594-1.1406 1.4844q0.96875 0.84375 1.7188 1.2812t1.25 0.65625q0.51563 0.21875 0.8125 0.32812 0.3125 0.09375 0.48438 0.25 0.17187 0.17188 0.25 0.5625 0.0781 0.40625 0.0781 1.1094zm-6.2188-12.078q0-1.5781-0.25-2.875t-0.85937-2.2188q-0.59375-0.9375-1.5938-1.4375-1-0.51562-2.5-0.51562-1.5156 0-2.5312 0.5625-1.0156 0.5625-1.6406 1.5156t-0.89062 2.2344q-0.25 1.2656-0.25 2.6719 0 1.6719 0.25 3t0.84375 2.2656 1.5938 1.4375q1 0.48438 2.5156 0.48438 1.5156 0 2.5312-0.5625 1.0156-0.5625 1.6406-1.5312t0.875-2.2656q0.26562-1.2969 0.26562-2.7656z"/><path d="m228.12-7.5312q0 1.8594-0.54688 3.3281-0.54687 1.4688-1.6094 2.4844t-2.625 1.5469-3.5938 0.53125q-1.9062 0-3.4219-0.46875-1.5156-0.48438-2.5625-1.4531-1.0469-0.96875-1.6094-2.4062-0.54688-1.4531-0.54688-3.3906v-12.297q0-0.15625 0.0937-0.28125t0.32813-0.20312q0.25-0.07813 0.64062-0.125 0.39063-0.04687 1-0.04687 0.59375 0 0.98438 0.04687 0.39062 0.04687 0.625 0.125 0.23437 0.07813 0.32812 0.20312 0.10938 0.125 0.10938 0.28125v11.938q0 1.2031 0.29687 2.0938 0.29688 0.875 0.84375 1.4531 0.5625 0.57812 1.3281 0.875 0.78125 0.28125 1.7344 0.28125 0.96875 0 1.7344-0.29688 0.76562-0.29688 1.2969-0.85938 0.53125-0.57812 0.8125-1.4062 0.29688-0.84375 0.29688-1.9062v-12.172q0-0.15625 0.0937-0.28125t0.32812-0.20312q0.23438-0.07813 0.625-0.125 0.40625-0.04687 1-0.04687t0.96875 0.04687q0.39063 0.04687 0.625 0.125 0.23438 0.07813 0.32813 0.20312 0.0937 0.125 0.0937 0.28125z"/><path d="m244.5-1.6094q0 0.45312-0.0469 0.76562-0.0312 0.29688-0.10937 0.48438-0.0781 0.1875-0.20313 0.28125-0.10935 0.078125-0.24998 0.078125h-10.156q-0.51562 0-0.875-0.29688-0.34375-0.3125-0.34375-1v-17.625q0-0.6875 0.34375-0.98438 0.35938-0.3125 0.875-0.3125h10.094q0.14063 0 0.25 0.07813 0.10938 0.07813 0.1875 0.28125 0.0781 0.1875 0.10938 0.5 0.0469 0.29688 0.0469 0.76562 0 0.4375-0.0469 0.75-0.0312 0.29688-0.10938 0.48438-0.0781 0.1875-0.1875 0.28125-0.10937 0.07812-0.25 0.07812h-7.2188v4.9375h6.1094q0.14062 0 0.25 0.09375 0.125 0.07813 0.20312 0.26562 0.0781 0.17188 0.10938 0.48438 0.0469 0.29688 0.0469 0.73438 0 0.45312-0.0469 0.75-0.0312 0.29688-0.10938 0.48438-0.0781 0.17188-0.20312 0.25-0.10938 0.078125-0.25 0.078125h-6.1094v5.7031h7.2812q0.14063 0 0.25 0.09375 0.125 0.078125 0.20313 0.26562 0.0781 0.1875 0.10937 0.5 0.0469 0.29688 0.0469 0.75z"/><path d="m259.8-6.0625q0 1.5938-0.59375 2.7969t-1.6094 2.0156q-1.0156 0.79688-2.375 1.2031-1.3594 0.40625-2.9062 0.40625-1.0469 0-1.9531-0.17188-0.89062-0.17188-1.5781-0.40625-0.6875-0.25-1.1562-0.51562-0.45313-0.26562-0.65625-0.46875-0.20313-0.20312-0.29688-0.57812-0.0781-0.39062-0.0781-1.1094 0-0.48438 0.0312-0.8125t0.0937-0.53125q0.0781-0.20312 0.1875-0.28125 0.125-0.09375 0.28125-0.09375 0.21875 0 0.60937 0.26562 0.40625 0.25 1.0312 0.5625t1.4844 0.57812q0.875 0.25 2.0156 0.25 0.75 0 1.3438-0.17188 0.59375-0.1875 1-0.51562 0.42188-0.32812 0.64063-0.8125t0.21875-1.0781q0-0.6875-0.375-1.1719-0.375-0.5-0.98438-0.875-0.59375-0.39062-1.3594-0.71875-0.76563-0.34375-1.5781-0.71875t-1.5781-0.84375q-0.76563-0.48438-1.375-1.1406-0.59375-0.67188-0.96875-1.5781t-0.375-2.1719q0-1.4531 0.53125-2.5469 0.54687-1.1094 1.4531-1.8281 0.92188-0.73438 2.1562-1.0938 1.25-0.35938 2.6406-0.35938 0.71875 0 1.4375 0.10938t1.3438 0.29688 1.1094 0.42188q0.48438 0.23438 0.64063 0.39062t0.20312 0.26562q0.0625 0.10938 0.0937 0.29688 0.0469 0.17188 0.0625 0.45312 0.0156 0.26562 0.0156 0.67188 0 0.45312-0.0312 0.76562-0.0156 0.3125-0.0781 0.51562-0.0469 0.20312-0.15625 0.29688-0.09367 0.09375-0.26554 0.09375-0.17188 0-0.54688-0.21875t-0.92187-0.46875q-0.54688-0.26562-1.2656-0.46875-0.71875-0.21875-1.5781-0.21875-0.67188 0-1.1719 0.17188-0.5 0.15625-0.84375 0.45312-0.32812 0.28125-0.5 0.6875-0.15625 0.40625-0.15625 0.85938 0 0.67188 0.35938 1.1719 0.375 0.48438 0.98437 0.875 0.625 0.375 1.4062 0.71875 0.78125 0.32812 1.5938 0.70312t1.5938 0.85938q0.78125 0.46875 1.3906 1.1406 0.60937 0.65625 0.98437 1.5625 0.375 0.89062 0.375 2.1094z"/><path d="m276.08-18.531q0 0.45312-0.0469 0.78125-0.0312 0.3125-0.10938 0.51562-0.0781 0.1875-0.20312 0.28125-0.10938 0.09375-0.25 0.09375h-5.0625v16.297q0 0.15625-0.10938 0.28125-0.0937 0.125-0.32812 0.20312-0.23438 0.078125-0.64063 0.125-0.39062 0.046875-0.98437 0.046875t-1-0.046875q-0.39063-0.046875-0.625-0.125-0.23438-0.078125-0.34375-0.20312-0.0937-0.125-0.0937-0.28125v-16.297h-5.0625q-0.15625 0-0.26563-0.09375-0.10937-0.09375-0.1875-0.28125-0.0781-0.20312-0.125-0.51562-0.0312-0.32812-0.0312-0.78125 0-0.46875 0.0312-0.79688 0.0469-0.32812 0.125-0.51562 0.0781-0.20312 0.1875-0.28125 0.10938-0.09375 0.26563-0.09375h14.25q0.14062 0 0.25 0.09375 0.125 0.07813 0.20312 0.28125 0.0781 0.1875 0.10938 0.51562 0.0469 0.32812 0.0469 0.79688z"/></g><path d="m4.6649 56.862c0-47.02-0.27896-46.863 83.578-46.863l740.51 0.96869c83.857 0 85.243-3.9256 85.243 43.094l-1.665 446.77c0 47.02 5.274 44.961-78.583 44.961l-747.17 0.969c-83.857 0-83.578 4.824-83.578-42.196 0-122.16 1.6648-325.54 1.6648-447.7z" fill="#fff" fill-rule="evenodd" stroke="#2B66AF" stroke-miterlimit="8" stroke-width="4.0007"/><g fill="#F0955E"><path transform="matrix(1.0002 0 0 -1 301 662.76)" d="m2-2.3899e-6 9e-5 77.86h-4l-9e-5 -77.86zm4.0001 75.86-6 12-6-12z"/><path transform="matrix(1.0002 0 0 -1 277 662.76)" d="m2-2.3899e-6 9e-5 77.86h-4l-9e-5 -77.86zm4.0001 75.86-6 12-6-12z"/><path transform="matrix(1.0002 0 0 -1 253 662.76)" d="m2-2.3899e-6 9e-5 77.86h-4l-9e-5 -77.86zm4.0001 75.86-6 12-6-12z"/><path transform="matrix(1.0002 0 0 -1 228 662.76)" d="m2-2.3899e-6 9e-5 77.86h-4l-9e-5 -77.86zm4.0001 75.86-6 12-6-12z"/><path transform="matrix(1.0002 0 0 -1 204 662.76)" d="m2-2.3899e-6 9e-5 77.86h-4l-9e-5 -77.86zm4.0001 75.86-6 12-6-12z"/><path transform="matrix(1.0002 0 0 -1 180 662.76)" d="m2-2.3899e-6 9e-5 77.86h-4l-9e-5 -77.86zm4.0001 75.86-6 12-6-12z"/><path transform="matrix(1.0002 0 0 -1 156 662.76)" d="m2-2.3899e-6 9e-5 77.86h-4l-9e-5 -77.86zm4.0001 75.86-6 12-6-12z"/><path transform="matrix(1.0002 0 0 -1 132 662.76)" d="m2-2.3899e-6 9e-5 77.86h-4l-9e-5 -77.86zm4.0001 75.86-6 12-6-12z"/><path transform="matrix(1.0002 0 0 -1 108 662.76)" d="m2-2.3899e-6 9e-5 77.86h-4l-9e-5 -77.86zm4.0001 75.86-6 12-6-12z"/><path transform="matrix(1.0002 0 0 -1 84 662.76)" d="m2-2.3899e-6 9e-5 77.86h-4l-9e-5 -77.86zm4.0001 75.86-6 12-6-12z"/><path transform="matrix(1.0002 0 0 -1 59 662.76)" d="m2-2.3899e-6 9e-5 77.86h-4l-9e-5 -77.86zm4.0001 75.86-6 12-6-12z"/><path transform="matrix(1.0002 0 0 -1 35 662.76)" d="m2-2.3899e-6 9e-5 77.86h-4l-9e-5 -77.86zm4.0001 75.86-6 12-6-12z"/><path transform="matrix(1.0002 0 0 -1 592 662.76)" d="m2-2.3899e-6 9e-5 77.86h-4l-9e-5 -77.86zm4.0001 75.86-6 12-6-12z"/><path transform="matrix(1.0002 0 0 -1 567 662.76)" d="m2-2.3899e-6 9e-5 77.86h-4l-9e-5 -77.86zm4.0001 75.86-6 12-6-12z"/><path transform="matrix(1.0002 0 0 -1 543 662.76)" d="m2-2.3899e-6 9e-5 77.86h-4l-9e-5 -77.86zm4.0001 75.86-6 12-6-12z"/><path transform="matrix(1.0002 0 0 -1 519 662.76)" d="m2-2.3899e-6 9e-5 77.86h-4l-9e-5 -77.86zm4.0001 75.86-6 12-6-12z"/><path transform="matrix(1.0002 0 0 -1 495 662.76)" d="m2-2.3899e-6 9e-5 77.86h-4l-9e-5 -77.86zm4.0001 75.86-6 12-6-12z"/><path transform="matrix(1.0002 0 0 -1 471 662.76)" d="m2-2.3899e-6 9e-5 77.86h-4l-9e-5 -77.86zm4.0001 75.86-6 12-6-12z"/><path transform="matrix(1.0002 0 0 -1 446 662.76)" d="m2-2.3899e-6 9e-5 77.86h-4l-9e-5 -77.86zm4.0001 75.86-6 12-6-12z"/><path transform="matrix(1.0002 0 0 -1 422 662.76)" d="m2-2.3899e-6 9e-5 77.86h-4l-9e-5 -77.86zm4.0001 75.86-6 12-6-12z"/><path transform="matrix(1.0002 0 0 -1 398 662.76)" d="m2-2.3899e-6 9e-5 77.86h-4l-9e-5 -77.86zm4.0001 75.86-6 12-6-12z"/><path transform="matrix(1.0002 0 0 -1 374 662.76)" d="m2-2.3899e-6 9e-5 77.86h-4l-9e-5 -77.86zm4.0001 75.86-6 12-6-12z"/><path transform="matrix(1.0002 0 0 -1 350 662.76)" d="m2-2.3899e-6 9e-5 77.86h-4l-9e-5 -77.86zm4.0001 75.86-6 12-6-12z"/><path transform="matrix(1.0002 0 0 -1 325 662.76)" d="m2-2.3899e-6 9e-5 77.86h-4l-9e-5 -77.86zm4.0001 75.86-6 12-6-12z"/><path transform="matrix(1.0002 0 0 -1 882 662.76)" d="m2-2.3899e-6 9e-5 77.86h-4l-9e-5 -77.86zm4.0001 75.86-6 12-6-12z"/><path transform="matrix(1.0002 0 0 -1 858 662.76)" d="m2-2.3899e-6 9e-5 77.86h-4l-9e-5 -77.86zm4.0001 75.86-6 12-6-12z"/><path transform="matrix(1.0002 0 0 -1 834 662.76)" d="m2-2.3899e-6 9e-5 77.86h-4l-9e-5 -77.86zm4.0001 75.86-6 12-6-12z"/><path transform="matrix(1.0002 0 0 -1 809 662.76)" d="m2-2.3899e-6 9e-5 77.86h-4l-9e-5 -77.86zm4.0001 75.86-6 12-6-12z"/><path transform="matrix(1.0002 0 0 -1 785 662.76)" d="m2-2.3899e-6 9e-5 77.86h-4l-9e-5 -77.86zm4.0001 75.86-6 12-6-12z"/><path transform="matrix(1.0002 0 0 -1 761 662.76)" d="m2-2.3899e-6 9e-5 77.86h-4l-9e-5 -77.86zm4.0001 75.86-6 12-6-12z"/><path transform="matrix(1.0002 0 0 -1 737 662.76)" d="m2-2.3899e-6 9e-5 77.86h-4l-9e-5 -77.86zm4.0001 75.86-6 12-6-12z"/><path transform="matrix(1.0002 0 0 -1 713 662.76)" d="m2-2.3899e-6 9e-5 77.86h-4l-9e-5 -77.86zm4.0001 75.86-6 12-6-12z"/><path transform="matrix(1.0002 0 0 -1 689 662.76)" d="m2-2.3899e-6 9e-5 77.86h-4l-9e-5 -77.86zm4.0001 75.86-6 12-6-12z"/><path transform="matrix(1.0002 0 0 -1 665 662.76)" d="m2-2.3899e-6 9e-5 77.86h-4l-9e-5 -77.86zm4.0001 75.86-6 12-6-12z"/><path transform="matrix(1.0002 0 0 -1 640 662.76)" d="m2-2.3899e-6 9e-5 77.86h-4l-9e-5 -77.86zm4.0001 75.86-6 12-6-12z"/><path transform="matrix(1.0002 0 0 -1 616 662.76)" d="m2-2.3899e-6 9e-5 77.86h-4l-9e-5 -77.86zm4.0001 75.86-6 12-6-12z"/></g><path d="m355 604.89h180v45.992h-180z" fill="#fff"/><g transform="matrix(1 0 0 .99982 357.82 639)" fill="#f0955e" aria-label="THREADS"><path d="m8.75-18.76h-8.12v-5.74h22.82v5.74h-8.12v18.76h-6.58z"/><path d="m24.955 0v-24.5h6.58v9.275h10.535v-9.275h6.58v24.5h-6.58v-9.485h-10.535v9.485z"/><path d="m67.69-9.625 5.845 9.625h-7.665l-4.76-8.365h-3.71v8.365h-6.51v-24.5h11.97q4.83 0 7.385 2.03 2.59 1.995 2.59 5.775 0 2.59-1.295 4.375t-3.85 2.695zm-1.505-6.825q0-1.26-0.84-1.89t-2.555-0.63h-5.39v5.145h5.39q1.645 0 2.52-0.665 0.875-0.7 0.875-1.96z"/><path d="m74.27 0v-24.5h19.18v5.53h-12.6v3.85h11.62v5.53h-11.62v4.06h12.6v5.53z"/><path d="m102.76-4.375-1.715 4.375h-6.685l10.08-24.5h7.175l10.115 24.5h-6.895l-1.715-4.375zm5.18-13.23-3.01 7.7h6.02z"/><path d="m121.66 0v-24.5h9.87q6.51 0 10.22 3.255t3.71 8.96q0 5.53-3.85 8.925-3.815 3.36-10.15 3.36zm17.15-12.215q0-3.01-1.96-4.76-1.96-1.785-5.355-1.785h-3.255v13.02h3.255q3.395 0 5.355-1.715 1.96-1.75 1.96-4.76z"/><path d="m162.05-7.21q0-1.015-1.015-1.435-0.98-0.455-3.78-0.735-5.775-0.595-8.085-2.24t-2.31-5.285q0-3.605 2.905-5.845t7.805-2.24q2.905 0 5.425 0.91t4.76 2.765l-3.29 4.725q-1.61-1.295-3.535-2.03-1.89-0.735-3.64-0.735-1.925 0-3.01 0.525-1.05 0.525-1.05 1.435 0 0.98 1.05 1.4t3.99 0.7q5.495 0.525 7.805 2.24 2.345 1.715 2.345 5.39 0 3.64-2.975 5.915-2.94 2.24-7.945 2.24-3.43 0-6.37-0.98-2.94-1.015-5.39-3.01l3.185-4.795q2.205 1.575 4.445 2.38 2.24 0.77 4.41 0.77 2.065 0 3.15-0.525 1.12-0.56 1.12-1.54z"/></g><path d="m73 270.95h771v60.989h-771z" fill="#49a1ef" stroke="#2b66af" stroke-miterlimit="8" stroke-width="4.0007"/><g transform="matrix(1 0 0 .99982 324.24 318)" fill="#fff" aria-label="INPUT IMAGE"><path d="m2.021 0v-30.1h8.084v30.1z"/><path d="m19.565-18.017v18.017h-7.783v-30.1h8.17l13.201 18.017v-18.017h7.783v30.1h-8.17z"/><path d="m43.731 0v-30.1h14.792q5.504 0 8.729 2.795t3.225 7.525q0 4.687-3.483 7.611-3.44 2.881-8.944 2.881h-6.235v9.288zm18.576-19.694q0-1.591-1.032-2.451-1.032-0.903-2.881-0.903h-6.579v6.794h6.407q1.892 0 2.967-0.903 1.118-0.946 1.118-2.537z"/><path d="m85.527-6.235q3.01 0 4.773-1.892t1.763-5.117v-16.856h8.084v16.942q0 6.321-4.042 10.105-4.042 3.741-10.793 3.741-6.579 0-10.535-3.741-3.913-3.784-3.913-10.105v-16.942h8.084v16.856q0 3.225 1.806 5.117t4.773 1.892z"/><path d="m112.27-23.048h-9.976v-7.052h28.036v7.052h-9.976v23.048h-8.084z"/><path d="m139.84 0v-30.1h8.084v30.1z"/><path d="m172.95-30.1h11.997v30.1h-7.998v-21.371l-6.493 14.061h-6.665l-6.192-13.803v21.113h-7.998v-30.1h11.997l5.547 12.943z"/><path d="m193.37-5.375-2.107 5.375h-8.213l12.384-30.1h8.815l12.427 30.1h-8.471l-2.107-5.375zm6.364-16.254-3.698 9.46h7.396z"/><path d="m230.05-23.908q-3.44 0-5.848 2.537-2.365 2.537-2.365 6.278 0 3.956 2.279 6.45 2.279 2.451 5.891 2.451 2.795 0 4.558-1.161t2.494-3.44h-8.428v-6.364h16.211q0.086 0.516 0.129 1.247 0.086 0.731 0.086 1.376 0 7.009-4.128 11.137-4.128 4.085-11.266 4.085-6.966 0-11.481-4.429t-4.515-11.266q0-6.794 4.687-11.266 4.73-4.515 11.739-4.515 4.214 0 7.654 1.72 3.483 1.72 5.375 4.687l-5.504 4.515q-1.462-2.064-3.354-3.053-1.849-0.989-4.214-0.989z"/><path d="m247.68 0v-30.1h23.564v6.794h-15.48v4.73h14.276v6.794h-14.276v4.988h15.48v6.794z"/></g><path d="m73 202.96h771v60.989h-771z" fill="#49a1ef" stroke="#2b66af" stroke-miterlimit="8" stroke-width="4.0007"/><g transform="matrix(1 0 0 .99982 324.24 250)" fill="#fff" aria-label="INPUT IMAGE"><path d="m2.021 0v-30.1h8.084v30.1z"/><path d="m19.565-18.017v18.017h-7.783v-30.1h8.17l13.201 18.017v-18.017h7.783v30.1h-8.17z"/><path d="m43.731 0v-30.1h14.792q5.504 0 8.729 2.795t3.225 7.525q0 4.687-3.483 7.611-3.44 2.881-8.944 2.881h-6.235v9.288zm18.576-19.694q0-1.591-1.032-2.451-1.032-0.903-2.881-0.903h-6.579v6.794h6.407q1.892 0 2.967-0.903 1.118-0.946 1.118-2.537z"/><path d="m85.527-6.235q3.01 0 4.773-1.892t1.763-5.117v-16.856h8.084v16.942q0 6.321-4.042 10.105-4.042 3.741-10.793 3.741-6.579 0-10.535-3.741-3.913-3.784-3.913-10.105v-16.942h8.084v16.856q0 3.225 1.806 5.117t4.773 1.892z"/><path d="m112.27-23.048h-9.976v-7.052h28.036v7.052h-9.976v23.048h-8.084z"/><path d="m139.84 0v-30.1h8.084v30.1z"/><path d="m172.95-30.1h11.997v30.1h-7.998v-21.371l-6.493 14.061h-6.665l-6.192-13.803v21.113h-7.998v-30.1h11.997l5.547 12.943z"/><path d="m193.37-5.375-2.107 5.375h-8.213l12.384-30.1h8.815l12.427 30.1h-8.471l-2.107-5.375zm6.364-16.254-3.698 9.46h7.396z"/><path d="m230.05-23.908q-3.44 0-5.848 2.537-2.365 2.537-2.365 6.278 0 3.956 2.279 6.45 2.279 2.451 5.891 2.451 2.795 0 4.558-1.161t2.494-3.44h-8.428v-6.364h16.211q0.086 0.516 0.129 1.247 0.086 0.731 0.086 1.376 0 7.009-4.128 11.137-4.128 4.085-11.266 4.085-6.966 0-11.481-4.429t-4.515-11.266q0-6.794 4.687-11.266 4.73-4.515 11.739-4.515 4.214 0 7.654 1.72 3.483 1.72 5.375 4.687l-5.504 4.515q-1.462-2.064-3.354-3.053-1.849-0.989-4.214-0.989z"/><path d="m247.68 0v-30.1h23.564v6.794h-15.48v4.73h14.276v6.794h-14.276v4.988h15.48v6.794z"/></g><path d="m73 134.98h771v61.989h-771z" fill="#49a1ef" stroke="#2b66af" stroke-miterlimit="8" stroke-width="4.0007"/><g transform="matrix(1 0 0 .99982 324.24 182)" fill="#fff" aria-label="INPUT IMAGE"><path d="m2.021 0v-30.1h8.084v30.1z"/><path d="m19.565-18.017v18.017h-7.783v-30.1h8.17l13.201 18.017v-18.017h7.783v30.1h-8.17z"/><path d="m43.731 0v-30.1h14.792q5.504 0 8.729 2.795t3.225 7.525q0 4.687-3.483 7.611-3.44 2.881-8.944 2.881h-6.235v9.288zm18.576-19.694q0-1.591-1.032-2.451-1.032-0.903-2.881-0.903h-6.579v6.794h6.407q1.892 0 2.967-0.903 1.118-0.946 1.118-2.537z"/><path d="m85.527-6.235q3.01 0 4.773-1.892t1.763-5.117v-16.856h8.084v16.942q0 6.321-4.042 10.105-4.042 3.741-10.793 3.741-6.579 0-10.535-3.741-3.913-3.784-3.913-10.105v-16.942h8.084v16.856q0 3.225 1.806 5.117t4.773 1.892z"/><path d="m112.27-23.048h-9.976v-7.052h28.036v7.052h-9.976v23.048h-8.084z"/><path d="m139.84 0v-30.1h8.084v30.1z"/><path d="m172.95-30.1h11.997v30.1h-7.998v-21.371l-6.493 14.061h-6.665l-6.192-13.803v21.113h-7.998v-30.1h11.997l5.547 12.943z"/><path d="m193.37-5.375-2.107 5.375h-8.213l12.384-30.1h8.815l12.427 30.1h-8.471l-2.107-5.375zm6.364-16.254-3.698 9.46h7.396z"/><path d="m230.05-23.908q-3.44 0-5.848 2.537-2.365 2.537-2.365 6.278 0 3.956 2.279 6.45 2.279 2.451 5.891 2.451 2.795 0 4.558-1.161t2.494-3.44h-8.428v-6.364h16.211q0.086 0.516 0.129 1.247 0.086 0.731 0.086 1.376 0 7.009-4.128 11.137-4.128 4.085-11.266 4.085-6.966 0-11.481-4.429t-4.515-11.266q0-6.794 4.687-11.266 4.73-4.515 11.739-4.515 4.214 0 7.654 1.72 3.483 1.72 5.375 4.687l-5.504 4.515q-1.462-2.064-3.354-3.053-1.849-0.989-4.214-0.989z"/><path d="m247.68 0v-30.1h23.564v6.794h-15.48v4.73h14.276v6.794h-14.276v4.988h15.48v6.794z"/></g><path d="m73 67.988h771v60.989h-771z" fill="#49a1ef" stroke="#2b66af" stroke-miterlimit="8" stroke-width="4.0007"/><g transform="matrix(1 0 0 .99982 325.15 114)" fill="#fff" aria-label="INPUT IMAGE"><path d="m2.021 0v-30.1h8.084v30.1z"/><path d="m19.565-18.017v18.017h-7.783v-30.1h8.17l13.201 18.017v-18.017h7.783v30.1h-8.17z"/><path d="m43.731 0v-30.1h14.792q5.504 0 8.729 2.795t3.225 7.525q0 4.687-3.483 7.611-3.44 2.881-8.944 2.881h-6.235v9.288zm18.576-19.694q0-1.591-1.032-2.451-1.032-0.903-2.881-0.903h-6.579v6.794h6.407q1.892 0 2.967-0.903 1.118-0.946 1.118-2.537z"/><path d="m85.527-6.235q3.01 0 4.773-1.892t1.763-5.117v-16.856h8.084v16.942q0 6.321-4.042 10.105-4.042 3.741-10.793 3.741-6.579 0-10.535-3.741-3.913-3.784-3.913-10.105v-16.942h8.084v16.856q0 3.225 1.806 5.117t4.773 1.892z"/><path d="m112.27-23.048h-9.976v-7.052h28.036v7.052h-9.976v23.048h-8.084z"/><path d="m139.84 0v-30.1h8.084v30.1z"/><path d="m172.95-30.1h11.997v30.1h-7.998v-21.371l-6.493 14.061h-6.665l-6.192-13.803v21.113h-7.998v-30.1h11.997l5.547 12.943z"/><path d="m193.37-5.375-2.107 5.375h-8.213l12.384-30.1h8.815l12.427 30.1h-8.471l-2.107-5.375zm6.364-16.254-3.698 9.46h7.396z"/><path d="m230.05-23.908q-3.44 0-5.848 2.537-2.365 2.537-2.365 6.278 0 3.956 2.279 6.45 2.279 2.451 5.891 2.451 2.795 0 4.558-1.161t2.494-3.44h-8.428v-6.364h16.211q0.086 0.516 0.129 1.247 0.086 0.731 0.086 1.376 0 7.009-4.128 11.137-4.128 4.085-11.266 4.085-6.966 0-11.481-4.429t-4.515-11.266q0-6.794 4.687-11.266 4.73-4.515 11.739-4.515 4.214 0 7.654 1.72 3.483 1.72 5.375 4.687l-5.504 4.515q-1.462-2.064-3.354-3.053-1.849-0.989-4.214-0.989z"/><path d="m247.68 0v-30.1h23.564v6.794h-15.48v4.73h14.276v6.794h-14.276v4.988h15.48v6.794z"/></g><path d="m73 345.94h771v61.989h-771z" fill="#49a1ef" stroke="#2b66af" stroke-miterlimit="8" stroke-width="4.0007"/><g transform="matrix(1 0 0 .99982 437.12 392)" fill="#fff" aria-label="..."><path d="m2.6558 0v-5.0767h5.0767v5.0767z"/><path d="m12.936 0v-5.0767h5.0767v5.0767z"/><path d="m23.215 0v-5.0767h5.0767v5.0767z"/></g><path d="m73 420.92h771v61.989h-771z" fill="#49a1ef" stroke="#2b66af" stroke-miterlimit="8" stroke-width="4.0007"/><g transform="matrix(1 0 0 .99982 324.52 469)" fill="#fff" aria-label="INPUT IMAGEINFERENCE REQUEST"><path d="m2.021 0v-30.1h8.084v30.1z"/><path d="m19.565-18.017v18.017h-7.783v-30.1h8.17l13.201 18.017v-18.017h7.783v30.1h-8.17z"/><path d="m43.731 0v-30.1h14.792q5.504 0 8.729 2.795t3.225 7.525q0 4.687-3.483 7.611-3.44 2.881-8.944 2.881h-6.235v9.288zm18.576-19.694q0-1.591-1.032-2.451-1.032-0.903-2.881-0.903h-6.579v6.794h6.407q1.892 0 2.967-0.903 1.118-0.946 1.118-2.537z"/><path d="m85.527-6.235q3.01 0 4.773-1.892t1.763-5.117v-16.856h8.084v16.942q0 6.321-4.042 10.105-4.042 3.741-10.793 3.741-6.579 0-10.535-3.741-3.913-3.784-3.913-10.105v-16.942h8.084v16.856q0 3.225 1.806 5.117t4.773 1.892z"/><path d="m112.27-23.048h-9.976v-7.052h28.036v7.052h-9.976v23.048h-8.084z"/><path d="m139.84 0v-30.1h8.084v30.1z"/><path d="m172.95-30.1h11.997v30.1h-7.998v-21.371l-6.493 14.061h-6.665l-6.192-13.803v21.113h-7.998v-30.1h11.997l5.547 12.943z"/><path d="m193.37-5.375-2.107 5.375h-8.213l12.384-30.1h8.815l12.427 30.1h-8.471l-2.107-5.375zm6.364-16.254-3.698 9.46h7.396z"/><path d="m230.05-23.908q-3.44 0-5.848 2.537-2.365 2.537-2.365 6.278 0 3.956 2.279 6.45 2.279 2.451 5.891 2.451 2.795 0 4.558-1.161t2.494-3.44h-8.428v-6.364h16.211q0.086 0.516 0.129 1.247 0.086 0.731 0.086 1.376 0 7.009-4.128 11.137-4.128 4.085-11.266 4.085-6.966 0-11.481-4.429t-4.515-11.266q0-6.794 4.687-11.266 4.73-4.515 11.739-4.515 4.214 0 7.654 1.72 3.483 1.72 5.375 4.687l-5.504 4.515q-1.462-2.064-3.354-3.053-1.849-0.989-4.214-0.989z"/><path d="m247.68 0v-30.1h23.564v6.794h-15.48v4.73h14.276v6.794h-14.276v4.988h15.48v6.794z"/><g fill="#2b66af"><path d="m-4.8492 58.011v-18.9h2.322v18.9z"/><path d="m3.4398 42.486v15.525h-2.268v-18.9h2.484l11.799 15.444v-15.444h2.268v18.9h-2.43z"/><path d="m21.233 58.011v-18.9h13.554v2.052h-11.232v6.426h10.476v2.052h-10.476v8.37z"/><path d="m37.433 58.011v-18.9h13.716v2.052h-11.394v6.291h10.638v2.052h-10.638v6.453h11.394v2.052z"/><path d="m64.352 50.046 5.373 7.965h-2.754l-5.103-7.695h-5.319v7.695h-2.322v-18.9h8.316q3.186 0 4.968 1.485 1.782 1.458 1.782 4.023 0 2.106-1.296 3.537t-3.645 1.89zm2.592-5.373q0-1.647-1.188-2.565-1.161-0.945-3.267-0.945h-5.94v7.128h5.751q2.133 0 3.375-0.972 1.269-0.999 1.269-2.646z"/><path d="m72.263 58.011v-18.9h13.716v2.052h-11.394v6.291h10.638v2.052h-10.638v6.453h11.394v2.052z"/><path d="m91.325 42.486v15.525h-2.268v-18.9h2.484l11.799 15.444v-15.444h2.268v18.9h-2.43z"/><path d="m110.74 48.534q0 3.375 2.025 5.616 2.025 2.214 5.076 2.214 2.052 0 3.591-0.945 1.566-0.945 2.673-2.835l1.782 1.026q-1.215 2.322-3.321 3.591-2.079 1.242-4.779 1.242-4.104 0-6.777-2.781-2.646-2.781-2.646-7.074 0-4.212 2.754-7.047 2.781-2.862 6.912-2.862 2.619 0 4.617 1.242 2.025 1.215 3.159 3.483l-1.863 1.107q-1.053-1.917-2.511-2.835t-3.456-0.918q-3.105 0-5.184 2.214-2.052 2.214-2.052 5.562z"/><path d="m128.61 58.011v-18.9h13.716v2.052h-11.394v6.291h10.638v2.052h-10.638v6.453h11.394v2.052z"/><path d="m160.53 50.046 5.373 7.965h-2.754l-5.103-7.695h-5.319v7.695h-2.322v-18.9h8.316q3.186 0 4.968 1.485 1.782 1.458 1.782 4.023 0 2.106-1.296 3.537t-3.645 1.89zm2.592-5.373q0-1.647-1.188-2.565-1.161-0.945-3.267-0.945h-5.94v7.128h5.751q2.133 0 3.375-0.972 1.269-0.999 1.269-2.646z"/><path d="m168.44 58.011v-18.9h13.716v2.052h-11.394v6.291h10.638v2.052h-10.638v6.453h11.394v2.052z"/><path d="m192.82 58.416v-0.081q-3.726-0.378-6.156-3.105-2.403-2.754-2.403-6.642 0-4.185 2.781-7.047t6.858-2.862q4.104 0 6.831 2.835 2.754 2.808 2.754 7.02 0 3.861-2.403 6.642-2.403 2.754-6.102 3.159 0.027 1.242 0.567 1.755 0.54 0.54 1.809 0.54h1.701v1.809h-1.971q-2.16 0-3.213-0.999t-1.053-3.024zm-6.183-9.882q0 3.321 2.079 5.589 2.106 2.241 5.184 2.241t5.13-2.214q2.079-2.241 2.079-5.562t-2.079-5.562q-2.079-2.268-5.157-2.268-3.105 0-5.184 2.241-2.052 2.214-2.052 5.535z"/><path d="m214.63 56.364q2.808 0 4.536-1.89 1.755-1.917 1.755-4.968v-10.395h2.295v10.449q0 3.996-2.376 6.453-2.376 2.43-6.264 2.43t-6.237-2.43q-2.349-2.457-2.349-6.453v-10.449h2.322v10.395q0 3.051 1.755 4.968 1.755 1.89 4.563 1.89z"/><path d="m226.51 58.011v-18.9h13.716v2.052h-11.394v6.291h10.638v2.052h-10.638v6.453h11.394v2.052z"/><path d="m255.62 52.692q0-1.647-1.296-2.403-1.269-0.756-4.104-0.837-3.888-0.189-5.616-1.35-1.728-1.188-1.728-3.645 0-2.43 2.052-4.077 2.079-1.647 5.211-1.647 2.295 0 4.131 0.783t3.24 2.376l-1.458 1.539q-1.134-1.269-2.673-1.944t-3.24-0.675q-2.16 0-3.564 0.999t-1.404 2.457q0 1.539 1.242 2.241 1.269 0.675 4.077 0.756 3.861 0.162 5.643 1.431 1.782 1.242 1.782 3.807 0 2.538-2.133 4.212t-5.454 1.674q-2.7 0-4.671-0.864-1.944-0.864-3.456-2.754l1.431-1.539q1.377 1.593 2.997 2.349 1.62 0.729 3.699 0.729 2.322 0 3.807-1.026 1.485-1.053 1.485-2.592z"/><path d="m266.42 41.217h-7.344v-2.106h16.983v2.106h-7.317v16.794h-2.322z"/></g></g></g></svg>
