<svg xmlns="http://www.w3.org/2000/svg" xmlns:xlink="http://www.w3.org/1999/xlink" width="3028" height="1015" viewBox="0 0 3028 1015">
  <defs>
    <clipPath id="clip-path">
      <path id="Line" d="M86.28,1.5H.247" transform="translate(-0.247 -1.5)" fill="none" stroke="#555" stroke-linecap="square" stroke-miterlimit="10" stroke-width="3"/>
    </clipPath>
    <clipPath id="clip-path-5">
      <path id="Line-5" data-name="Line" d="M126.494,1.5H.247" transform="translate(-0.247 -1.5)" fill="none" stroke="#b3b3b3" stroke-linecap="round" stroke-miterlimit="10" stroke-width="3" stroke-dasharray="4 6"/>
    </clipPath>
    <clipPath id="clip-path-7">
      <path id="Line-7" data-name="Line" d="M55.855,1.5H.247" transform="translate(-0.247 -1.5)" fill="none" stroke="#555" stroke-linecap="square" stroke-miterlimit="10" stroke-width="3"/>
    </clipPath>
    <clipPath id="clip-path-8">
      <path id="Line-8" data-name="Line" d="M127.38,1.5H.247" transform="translate(-0.247 -1.5)" fill="none" stroke="#555" stroke-linecap="square" stroke-miterlimit="10" stroke-width="3"/>
    </clipPath>
    <clipPath id="clip-path-10">
      <path id="Line-10" data-name="Line" d="M82.086,1.5H.247" transform="translate(-0.247 -1.5)" fill="none" stroke="#b3b3b3" stroke-linecap="round" stroke-miterlimit="10" stroke-width="3" stroke-dasharray="4 6"/>
    </clipPath>
    <clipPath id="clip-path-14">
      <path id="Line-14" data-name="Line" d="M67.569,1.5H.247" transform="translate(-0.247 -1.5)" fill="none" stroke="#555" stroke-linecap="square" stroke-miterlimit="10" stroke-width="3"/>
    </clipPath>
    <clipPath id="clip-path-15">
      <path id="Line-15" data-name="Line" d="M64.018,1.5H.247" transform="translate(-0.247 -1.5)" fill="none" stroke="#b3b3b3" stroke-linecap="round" stroke-miterlimit="10" stroke-width="3" stroke-dasharray="4 6"/>
    </clipPath>
    <clipPath id="clip-path-18">
      <path id="Line-18" data-name="Line" d="M131.83,1.5H.247" transform="translate(-0.247 -1.5)" fill="none" stroke="#555" stroke-linecap="square" stroke-miterlimit="10" stroke-width="3"/>
    </clipPath>
  </defs>
  <g id="Group_438" data-name="Group 438" transform="translate(-87 -131)">
    <rect id="Rectangle_146" data-name="Rectangle 146" width="1701" height="317" transform="translate(1173 131)" fill="#ad9ec9" opacity="0.22"/>
    <g id="Group_384" data-name="Group 384" transform="translate(-232 -791)">
      <text id="Step_0._Planning_and_Setup" data-name="Step 0. Planning and Setup" transform="translate(319 1051)" fill="#555" font-size="20" font-family="IntelClear-Bold, Intel Clear" font-weight="700"><tspan x="0" y="0">Step 0. Planning and Setup</tspan></text>
      <g id="Rectangle_121" data-name="Rectangle 121" transform="translate(319 1075)" fill="#003c71" stroke="#497399" stroke-width="5">
        <rect width="178" height="113" rx="8" stroke="none"/>
        <rect x="2.5" y="2.5" width="173" height="108" rx="5.5" fill="none"/>
      </g>
      <g id="Rectangle_122" data-name="Rectangle 122" transform="translate(594 1075)" fill="#003c71" stroke="#497399" stroke-width="5">
        <rect width="177" height="112" rx="8" stroke="none"/>
        <rect x="2.5" y="2.5" width="172" height="107" rx="5.5" fill="none"/>
      </g>
      <g id="Group_112" data-name="Group 112" transform="translate(124 91)">
        <g id="Group_62" data-name="Group 62" transform="translate(273 -107)">
          <g id="Group_1" data-name="Group 1" transform="translate(105.495 1147.294)">
            <path id="Line-21" data-name="Line" d="M86.28,1.5H.247" transform="translate(-0.247 -1.5)" fill="none" stroke="#555" stroke-linecap="square" stroke-miterlimit="10" stroke-width="3"/>
            <g id="Mask_Group_1" data-name="Mask Group 1" clip-path="url(#clip-path)">
              <rect id="Rectangle" width="89" height="100" transform="translate(-1.495 -50.294)" fill="#525dae"/>
            </g>
          </g>
          <path id="Triangle" d="M10.588,5.294,0,10.588V0Z" transform="translate(187.334 1142)" fill="#555"/>
        </g>
        <circle id="Ellipse_1" data-name="Ellipse 1" cx="4" cy="4" r="4" transform="translate(372 1036)" fill="#555"/>
      </g>
      <g id="Group_113" data-name="Group 113" transform="translate(398 92)">
        <g id="Group_62-2" data-name="Group 62" transform="translate(273 -107)">
          <g id="Group_1-2" data-name="Group 1" transform="translate(105.495 1147.294)">
            <path id="Line-22" data-name="Line" d="M86.28,1.5H.247" transform="translate(-0.247 -1.5)" fill="none" stroke="#555" stroke-linecap="square" stroke-miterlimit="10" stroke-width="3"/>
            <g id="Mask_Group_1-2" data-name="Mask Group 1" clip-path="url(#clip-path)">
              <rect id="Rectangle-2" data-name="Rectangle" width="89" height="100" transform="translate(-1.495 -50.294)" fill="#555"/>
            </g>
          </g>
          <path id="Triangle-2" data-name="Triangle" d="M10.588,5.294,0,10.588V0Z" transform="translate(187.334 1142)" fill="#555"/>
        </g>
        <circle id="Ellipse_1-2" data-name="Ellipse 1" cx="4" cy="4" r="4" transform="translate(372 1036)" fill="#555"/>
      </g>
      <text id="Determine_environments_configuration_required" data-name="Determine 
environments &amp; 
configuration 
required" transform="translate(327 1090)" fill="#fff" font-size="16" font-family="IntelClear-Regular, Intel Clear"><tspan x="43.032" y="16">Determine </tspan><tspan x="24.064" y="36">environments &amp; </tspan><tspan x="32.888" y="56">configuration </tspan><tspan x="50.424" y="76">required</tspan></text>
      <text id="Determine_model_type_framework" data-name="Determine model 
type &amp; framework" transform="translate(683 1127)" fill="#fff" font-size="16" font-family="IntelClear-Regular, Intel Clear"><tspan x="-65" y="0">Determine model </tspan><tspan x="-64.304" y="20">type &amp; framework</tspan></text>
    </g>
    <text id="Step_1._Select_a_Model" data-name="Step 1. Select a Model" transform="translate(638 260)" fill="#555" font-size="20" font-family="IntelClear-Bold, Intel Clear" font-weight="700"><tspan x="0" y="0">Step 1. Select a Model</tspan></text>
    <g id="Path_214" data-name="Path 214" transform="translate(637 281)" fill="#0071c5">
      <path d="M 170 110.5 L 8 110.5 C 4.967299938201904 110.5 2.5 108.0326995849609 2.5 105 L 2.5 8 C 2.5 4.967299938201904 4.967299938201904 2.5 8 2.5 L 170 2.5 C 173.0326995849609 2.5 175.5 4.967299938201904 175.5 8 L 175.5 105 C 175.5 108.0326995849609 173.0326995849609 110.5 170 110.5 Z" stroke="none"/>
      <path d="M 8 5 C 6.345794677734375 5 5 6.345787048339844 5 8 L 5 105 C 5 106.6542129516602 6.345794677734375 108 8 108 L 170 108 C 171.6542053222656 108 173 106.6542129516602 173 105 L 173 8 C 173 6.345787048339844 171.6542053222656 5 170 5 L 8 5 M 8 0 L 170 0 C 174.4182586669922 0 178 3.581710815429688 178 8 L 178 105 C 178 109.4182891845703 174.4182586669922 113 170 113 L 8 113 C 3.581710815429688 113 0 109.4182891845703 0 105 L 0 8 C 0 3.581710815429688 3.581710815429688 0 8 0 Z" stroke="none" fill="#4999d5"/>
    </g>
    <g id="Group_130" data-name="Group 130" transform="translate(443 -702)">
      <g id="Group_62-3" data-name="Group 62" transform="translate(273 -107)">
        <g id="Group_1-3" data-name="Group 1" transform="translate(105.495 1147.294)">
          <path id="Line-23" data-name="Line" d="M86.28,1.5H.247" transform="translate(-0.247 -1.5)" fill="none" stroke="#555" stroke-linecap="square" stroke-miterlimit="10" stroke-width="3"/>
          <g id="Mask_Group_1-3" data-name="Mask Group 1" clip-path="url(#clip-path)">
            <rect id="Rectangle-3" data-name="Rectangle" width="89" height="100" transform="translate(-1.495 -50.294)" fill="#525dae"/>
          </g>
        </g>
        <path id="Triangle-3" data-name="Triangle" d="M10.588,5.294,0,10.588V0Z" transform="translate(187.334 1142)" fill="#555"/>
      </g>
      <path id="Path_46" data-name="Path 46" d="M4,0A4,4,0,1,1,0,4,4,4,0,0,1,4,0Z" transform="translate(372 1036)" fill="#555"/>
    </g>
    <rect id="Rectangle_141" data-name="Rectangle 141" width="331" height="240" transform="translate(842 474)" fill="#3fadee" opacity="0.07"/>
    <text id="Find_or_Train_a_Model" data-name="Find or Train a Model" transform="translate(726 343)" fill="#fff" font-size="16" font-family="IntelClear-Regular, Intel Clear"><tspan x="-76.32" y="0">Find or Train a Model</tspan></text>
    <g id="Polygon_4" data-name="Polygon 4" transform="translate(913 277)" fill="#fff">
      <path d="M 134.2401123046875 119.5 L 46.75988388061523 119.5 C 46.6023063659668 119.5 46.45218276977539 119.4244537353516 46.35830688476562 119.2978820800781 L 3.333732604980469 61.29787826538086 C 3.201557636260986 61.11970520019531 3.201557636260986 60.88027954101562 3.333732604980469 60.70210266113281 L 46.35833358764648 2.702128887176514 C 46.45220947265625 2.575553894042969 46.60233306884766 2.500003814697266 46.75990676879883 2.500003814697266 L 134.2401123046875 2.500003814697266 C 134.3976898193359 2.500003814697266 134.5478057861328 2.575553894042969 134.6416778564453 2.702128887176514 L 177.6662750244141 60.70210266113281 C 177.7984619140625 60.88027954101562 177.7984619140625 61.11970520019531 177.6662750244141 61.29787826538086 L 134.6416778564453 119.2978820800781 C 134.5478057861328 119.4244537353516 134.3976898193359 119.5 134.2401123046875 119.5 Z" stroke="none"/>
      <path d="M 47.76649475097656 5.000007629394531 L 6.225494384765625 61.00000762939453 L 47.7664794921875 117 L 133.2335205078125 117 L 174.7745056152344 61.00000762939453 L 133.2335205078125 5.000007629394531 L 47.76649475097656 5.000007629394531 M 46.75990295410156 7.62939453125e-06 L 134.2401123046875 7.62939453125e-06 C 135.1899566650391 7.62939453125e-06 136.0836791992188 0.4498062133789062 136.6495666503906 1.212669372558594 L 179.6741485595703 59.21266937255859 C 180.4615631103516 60.27414321899414 180.4615631103516 61.72586441040039 179.6741485595703 62.78733825683594 L 136.6495666503906 120.7873382568359 C 136.0836791992188 121.5502014160156 135.1899566650391 122 134.2401123046875 122 L 46.75990295410156 122 C 45.81002807617188 122 44.91633605957031 121.5502014160156 44.35041809082031 120.7873382568359 L 1.325836181640625 62.78733825683594 C 0.5384521484375 61.72586441040039 0.5384521484375 60.27414321899414 1.325836181640625 59.21266937255859 L 44.35044860839844 1.212669372558594 C 44.91633605957031 0.4498062133789062 45.81005859375 7.62939453125e-06 46.75990295410156 7.62939453125e-06 Z" stroke="none" fill="#0071c5"/>
    </g>
    <text id="Is_the_model_accurate_enough_" data-name="Is the model accurate
enough?" transform="translate(1003 322)" fill="#555" font-size="16" font-family="IntelClear-Regular, Intel Clear"><tspan x="-19.656" y="0">Is the</tspan><tspan x="-55.76" y="20">model accurate</tspan><tspan x="-31.144" y="40">enough?</tspan></text>
    <g id="Group_75" data-name="Group 75" transform="translate(721 -702)">
      <g id="Group_62-4" data-name="Group 62" transform="translate(273 -107)">
        <g id="Group_1-4" data-name="Group 1" transform="translate(105.495 1147.294)">
          <path id="Line-24" data-name="Line" d="M86.28,1.5H.247" transform="translate(-0.247 -1.5)" fill="none" stroke="#555" stroke-linecap="square" stroke-miterlimit="10" stroke-width="3"/>
          <g id="Mask_Group_1-4" data-name="Mask Group 1" clip-path="url(#clip-path)">
            <rect id="Rectangle-4" data-name="Rectangle" width="89" height="100" transform="translate(-1.495 -50.294)" fill="#525dae"/>
          </g>
        </g>
        <path id="Triangle-4" data-name="Triangle" d="M10.588,5.294,0,10.588V0Z" transform="translate(187.334 1142)" fill="#555"/>
      </g>
      <g id="Node_Success" data-name="Node/Success" transform="translate(404 1024)">
        <rect id="Background" width="33" height="33" rx="16.5" fill="#b8cc43"/>
        <path id="OK" d="M4.439,11.385a1.006,1.006,0,0,1-.152-.194,1.006,1.006,0,0,1-.194-.151l-3.8-3.8A1,1,0,0,1,1.712,5.821L5.148,9.257,14.112.294A1,1,0,0,1,15.53,1.712L5.857,11.385a1,1,0,0,1-1.418,0Z" transform="translate(8.67 10.742)" fill="#fff"/>
      </g>
      <circle id="Ellipse_1-3" data-name="Ellipse 1" cx="4" cy="4" r="4" transform="translate(372 1036)" fill="#555"/>
    </g>
    <g id="Group_406" data-name="Group 406" transform="translate(-1 15)">
      <g id="Rectangle_97" data-name="Rectangle 97" transform="translate(915 527)" fill="#0071c5" stroke="#4999d5" stroke-width="5">
        <rect width="178" height="113" rx="8" stroke="none"/>
        <rect x="2.5" y="2.5" width="173" height="108" rx="5.5" fill="none"/>
      </g>
      <text id="Train_or_Re-train_model" data-name="Train or
Re-train model" transform="translate(1003 579)" fill="#fff" font-size="16" font-family="IntelClear-Regular, Intel Clear"><tspan x="-27.696" y="0">Train or</tspan><tspan x="-53.952" y="20">Re-train model</tspan></text>
    </g>
    <text id="Step_1a._Train" data-name="Step 1a. Train" transform="translate(855 480)" fill="#555" font-size="20" font-family="IntelClear-Bold, Intel Clear" font-weight="700"><tspan x="0" y="20">Step 1a. Train</tspan></text>
    <g id="Group_72" data-name="Group 72" transform="translate(-23.627 870.961) rotate(-90)">
      <g id="Group_62-5" data-name="Group 62" transform="translate(273 -107)">
        <g id="Group_1-5" data-name="Group 1" transform="translate(63.087 1147.294)">
          <path id="Line-25" data-name="Line" d="M126.494,1.5H.247" transform="translate(-0.247 -1.5)" fill="none" stroke="#b3b3b3" stroke-linecap="round" stroke-miterlimit="10" stroke-width="3" stroke-dasharray="4 6"/>
          <g id="Mask_Group_1-5" data-name="Mask Group 1" transform="translate(0 0)" clip-path="url(#clip-path-5)">
            <g id="Rectangle-5" data-name="Rectangle" transform="translate(-2.194 -49.706)" fill="none" stroke="#b3b3b3" stroke-linecap="round" stroke-miterlimit="10" stroke-width="4" stroke-dasharray="4 6">
              <rect width="130.602" height="100" stroke="none"/>
              <rect x="2" y="2" width="126.602" height="96" fill="none"/>
            </g>
          </g>
        </g>
        <path id="Triangle-5" data-name="Triangle" d="M10.588,5.294,0,10.588V0Z" transform="translate(187.334 1142)" fill="#b3b3b3"/>
      </g>
      <path id="Path_47" data-name="Path 47" d="M4,0A4,4,0,1,1,0,4,4,4,0,0,1,4,0Z" transform="translate(330 1036)" fill="#b3b3b3"/>
    </g>
    <rect id="Rectangle_155" data-name="Rectangle 155" width="463" height="647" transform="translate(1327 474)" fill="#ad9ec9" opacity="0.07"/>
    <text id="Step_2a._Modify_the_Model_Post-Training" data-name="Step 2a. Modify the 
Model Post-Training" transform="translate(1342 500)" fill="#555" font-size="20" font-family="IntelClear-Bold, Intel Clear" font-weight="700"><tspan x="0" y="0">Step 2a. Modify the </tspan><tspan x="0" y="25">Model Post-Training</tspan></text>
    <text id="Step_2._Modify" data-name="Step 2. Modify" transform="translate(1193 259)" fill="#555" font-size="20" font-family="IntelClear-Bold, Intel Clear" font-weight="700"><tspan x="0" y="0">Step 2. Modify</tspan></text>
    <g id="Rectangle_156" data-name="Rectangle 156" transform="translate(1192 281)" fill="#7459a3" stroke="#9b88bd" stroke-width="5">
      <rect width="178" height="113" rx="8" stroke="none"/>
      <rect x="2.5" y="2.5" width="173" height="108" rx="5.5" fill="none"/>
    </g>
    <text id="Run_Model_Optimizer" data-name="Run Model 
Optimizer" transform="translate(1281 330)" fill="#fff" font-size="16" font-family="IntelClear-Regular, Intel Clear"><tspan x="-40.896" y="0">Run Model </tspan><tspan x="-35.872" y="20">Optimizer</tspan></text>
    <g id="Polygon_10" data-name="Polygon 10" transform="translate(1469 276)" fill="#fff">
      <path d="M 134.2401123046875 119.5 L 46.75988388061523 119.5 C 46.6023063659668 119.5 46.45218276977539 119.4244537353516 46.35830688476562 119.2978820800781 L 3.333732604980469 61.29787826538086 C 3.201557636260986 61.11970520019531 3.201557636260986 60.88027954101562 3.333732604980469 60.70210266113281 L 46.35833358764648 2.702128887176514 C 46.45220947265625 2.575553894042969 46.60233306884766 2.500003814697266 46.75990676879883 2.500003814697266 L 134.2401123046875 2.500003814697266 C 134.3976898193359 2.500003814697266 134.5478057861328 2.575553894042969 134.6416778564453 2.702128887176514 L 177.6662750244141 60.70210266113281 C 177.7984619140625 60.88027954101562 177.7984619140625 61.11970520019531 177.6662750244141 61.29787826538086 L 134.6416778564453 119.2978820800781 C 134.5478057861328 119.4244537353516 134.3976898193359 119.5 134.2401123046875 119.5 Z" stroke="none"/>
      <path d="M 47.76649475097656 5.000007629394531 L 6.225494384765625 61.00000762939453 L 47.7664794921875 117 L 133.2335205078125 117 L 174.7745056152344 61.00000762939453 L 133.2335205078125 5.000007629394531 L 47.76649475097656 5.000007629394531 M 46.75990295410156 7.62939453125e-06 L 134.2401123046875 7.62939453125e-06 C 135.1899566650391 7.62939453125e-06 136.0836791992188 0.4498062133789062 136.6495666503906 1.212669372558594 L 179.6741485595703 59.21266937255859 C 180.4615631103516 60.27414321899414 180.4615631103516 61.72586441040039 179.6741485595703 62.78733825683594 L 136.6495666503906 120.7873382568359 C 136.0836791992188 121.5502014160156 135.1899566650391 122 134.2401123046875 122 L 46.75990295410156 122 C 45.81002807617188 122 44.91633605957031 121.5502014160156 44.35041809082031 120.7873382568359 L 1.325836181640625 62.78733825683594 C 0.5384521484375 61.72586441040039 0.5384521484375 60.27414321899414 1.325836181640625 59.21266937255859 L 44.35044860839844 1.212669372558594 C 44.91633605957031 0.4498062133789062 45.81005859375 7.62939453125e-06 46.75990295410156 7.62939453125e-06 Z" stroke="none" fill="#7459a3"/>
    </g>
    <text id="Did_the_model_convert_" data-name="Did the 
model convert?" transform="translate(1560 328)" fill="#555" font-size="16" font-family="IntelClear-Regular, Intel Clear"><tspan x="-28.056" y="0">Did the </tspan><tspan x="-56.232" y="20">model convert?</tspan></text>
    <g id="Group_160" data-name="Group 160" transform="translate(999 -703)">
      <g id="Group_62-6" data-name="Group 62" transform="translate(273 -107)">
        <g id="Group_1-6" data-name="Group 1" transform="translate(105.495 1147.294)">
          <path id="Line-26" data-name="Line" d="M86.28,1.5H.247" transform="translate(-0.247 -1.5)" fill="none" stroke="#555" stroke-linecap="square" stroke-miterlimit="10" stroke-width="3"/>
          <g id="Mask_Group_1-6" data-name="Mask Group 1" clip-path="url(#clip-path)">
            <rect id="Rectangle-6" data-name="Rectangle" width="89" height="100" transform="translate(-1.495 -50.294)" fill="#525dae"/>
          </g>
        </g>
        <path id="Triangle-6" data-name="Triangle" d="M10.588,5.294,0,10.588V0Z" transform="translate(187.334 1142)" fill="#555"/>
      </g>
      <path id="Path_48" data-name="Path 48" d="M4,0A4,4,0,1,1,0,4,4,4,0,0,1,4,0Z" transform="translate(372 1036)" fill="#555"/>
    </g>
    <g id="Rectangle_157" data-name="Rectangle 157" transform="translate(1471 543)" fill="#7459a3" stroke="#9b88bd" stroke-width="5">
      <rect width="178" height="113" rx="8" stroke="none"/>
      <rect x="2.5" y="2.5" width="173" height="108" rx="5.5" fill="none"/>
    </g>
    <text id="Fix_errors_and_or_create_custom_layers" data-name="Fix errors and/or 
create custom layers" transform="translate(1560 595)" fill="#fff" font-size="16" font-family="IntelClear-Regular, Intel Clear"><tspan x="-61.632" y="0">Fix errors and/or </tspan><tspan x="-74.24" y="20">create custom layers</tspan></text>
    <g id="Polygon_11" data-name="Polygon 11" transform="translate(1469 733)" fill="#fff">
      <path d="M 134.2401123046875 119.5 L 46.75988388061523 119.5 C 46.6023063659668 119.5 46.45218276977539 119.4244537353516 46.35830688476562 119.2978820800781 L 3.333732604980469 61.29787826538086 C 3.201557636260986 61.11970520019531 3.201557636260986 60.88027954101562 3.333732604980469 60.70210266113281 L 46.35833358764648 2.702128887176514 C 46.45220947265625 2.575553894042969 46.60233306884766 2.500003814697266 46.75990676879883 2.500003814697266 L 134.2401123046875 2.500003814697266 C 134.3976898193359 2.500003814697266 134.5478057861328 2.575553894042969 134.6416778564453 2.702128887176514 L 177.6662750244141 60.70210266113281 C 177.7984619140625 60.88027954101562 177.7984619140625 61.11970520019531 177.6662750244141 61.29787826538086 L 134.6416778564453 119.2978820800781 C 134.5478057861328 119.4244537353516 134.3976898193359 119.5 134.2401123046875 119.5 Z" stroke="none"/>
      <path d="M 47.76649475097656 5.000007629394531 L 6.225494384765625 61.00000762939453 L 47.7664794921875 117 L 133.2335205078125 117 L 174.7745056152344 61.00000762939453 L 133.2335205078125 5.000007629394531 L 47.76649475097656 5.000007629394531 M 46.75990295410156 7.62939453125e-06 L 134.2401123046875 7.62939453125e-06 C 135.1899566650391 7.62939453125e-06 136.0836791992188 0.4498062133789062 136.6495666503906 1.212669372558594 L 179.6741485595703 59.21266937255859 C 180.4615631103516 60.27414321899414 180.4615631103516 61.72586441040039 179.6741485595703 62.78733825683594 L 136.6495666503906 120.7873382568359 C 136.0836791992188 121.5502014160156 135.1899566650391 122 134.2401123046875 122 L 46.75990295410156 122 C 45.81002807617188 122 44.91633605957031 121.5502014160156 44.35041809082031 120.7873382568359 L 1.325836181640625 62.78733825683594 C 0.5384521484375 61.72586441040039 0.5384521484375 60.27414321899414 1.325836181640625 59.21266937255859 L 44.35044860839844 1.212669372558594 C 44.91633605957031 0.4498062133789062 45.81005859375 7.62939453125e-06 46.75990295410156 7.62939453125e-06 Z" stroke="none" fill="#7459a3"/>
    </g>
    <text id="Did_that_work_" data-name="Did that work?" transform="translate(1560 799)" fill="#555" font-size="16" font-family="IntelClear-Regular, Intel Clear"><tspan x="-52.264" y="0">Did that work?</tspan></text>
    <g id="Group_161" data-name="Group 161" transform="translate(2600.254 256.332) rotate(90)">
      <g id="Group_62-7" data-name="Group 62" transform="translate(273 -107)">
        <g id="Group_1-7" data-name="Group 1" transform="translate(135.919 1147.294)">
          <path id="Line-27" data-name="Line" d="M55.855,1.5H.247" transform="translate(-0.247 -1.5)" fill="none" stroke="#555" stroke-linecap="square" stroke-miterlimit="10" stroke-width="3"/>
          <g id="Mask_Group_1-7" data-name="Mask Group 1" clip-path="url(#clip-path-7)">
            <rect id="Rectangle-7" data-name="Rectangle" width="57" height="100" transform="translate(-0.919 -50.294)" fill="#555"/>
          </g>
        </g>
        <path id="Triangle-7" data-name="Triangle" d="M10.588,5.294,0,10.588V0Z" transform="translate(192.334 1142)" fill="#555"/>
      </g>
      <circle id="Ellipse_1-4" data-name="Ellipse 1" cx="4" cy="4" r="4" transform="translate(401 1036)" fill="#555"/>
    </g>
    <g id="Group_166" data-name="Group 166" transform="translate(1279 -702)">
      <g id="Group_62-8" data-name="Group 62" transform="translate(273 -107)">
        <g id="Group_1-8" data-name="Group 1" transform="translate(105.495 1147.294)">
          <path id="Line-28" data-name="Line" d="M127.38,1.5H.247" transform="translate(-0.247 -1.5)" fill="none" stroke="#555" stroke-linecap="square" stroke-miterlimit="10" stroke-width="3"/>
          <g id="Mask_Group_1-8" data-name="Mask Group 1" clip-path="url(#clip-path-8)">
            <rect id="Rectangle-8" data-name="Rectangle" width="132" height="100" transform="translate(-2.495 -50.294)" fill="#525dae"/>
          </g>
        </g>
        <path id="Triangle-8" data-name="Triangle" d="M10.588,5.294,0,10.588V0Z" transform="translate(227.334 1142)" fill="#555"/>
      </g>
      <g id="Node_Success-2" data-name="Node/Success" transform="translate(426 1024)">
        <rect id="Background-2" data-name="Background" width="33" height="33" rx="16.5" fill="#b8cc43"/>
        <path id="OK-2" data-name="OK" d="M4.439,11.385a1.006,1.006,0,0,1-.152-.194,1.006,1.006,0,0,1-.194-.151l-3.8-3.8A1,1,0,0,1,1.712,5.821L5.148,9.257,14.112.294A1,1,0,0,1,15.53,1.712L5.857,11.385a1,1,0,0,1-1.418,0Z" transform="translate(8.67 10.742)" fill="#fff"/>
      </g>
      <circle id="Ellipse_1-5" data-name="Ellipse 1" cx="4" cy="4" r="4" transform="translate(372 1036)" fill="#555"/>
    </g>
    <g id="Rectangle_158" data-name="Rectangle 158" transform="translate(1471 956)" fill="#7459a3" stroke="#9b88bd" stroke-width="5">
      <rect width="178" height="113" rx="8" stroke="none"/>
      <rect x="2.5" y="2.5" width="173" height="108" rx="5.5" fill="none"/>
    </g>
    <text id="Escalate_to_Intel_or_try_alternative_models" data-name="Escalate to Intel 
or try 
alternative models" transform="translate(1560 998)" fill="#fff" font-size="16" font-family="IntelClear-Regular, Intel Clear"><tspan x="-59.224" y="0">Escalate to Intel </tspan><tspan x="-21.872" y="20">or try </tspan><tspan x="-67.128" y="40">alternative models</tspan></text>
    <g id="Group_167" data-name="Group 167" transform="translate(918 -396)">
      <g id="Group_72-2" data-name="Group 72" transform="translate(1668.961 881.039) rotate(90)">
        <g id="Group_62-9" data-name="Group 62" transform="translate(273 -107)">
          <g id="Group_1-9" data-name="Group 1" transform="translate(105.495 1147.294)">
            <path id="Line-29" data-name="Line" d="M86.28,1.5H.247" transform="translate(-0.247 -1.5)" fill="none" stroke="#555" stroke-linecap="square" stroke-miterlimit="10" stroke-width="3"/>
            <g id="Mask_Group_1-9" data-name="Mask Group 1" clip-path="url(#clip-path)">
              <rect id="Rectangle-9" data-name="Rectangle" width="89" height="100" transform="translate(-1.495 -50.294)" fill="#525dae"/>
            </g>
          </g>
          <path id="Triangle-9" data-name="Triangle" d="M10.588,5.294,0,10.588V0Z" transform="translate(187.334 1142)" fill="#555"/>
        </g>
        <path id="Path_50" data-name="Path 50" d="M4,0A4,4,0,1,1,0,4,4,4,0,0,1,4,0Z" transform="translate(372 1036)" fill="#555"/>
      </g>
      <g id="Node_Error" data-name="Node/Error" transform="translate(612 1285)">
        <rect id="Background-3" data-name="Background" width="33" height="33" rx="16.5" fill="#121212"/>
        <path id="Error" d="M11.389,13.007,6.671,8.289,1.953,13.007A1.144,1.144,0,0,1,.335,11.389L5.053,6.671.335,1.953A1.144,1.144,0,0,1,1.953.335L6.671,5.053,11.389.335a1.144,1.144,0,0,1,1.618,1.618L8.289,6.671l4.718,4.718a1.144,1.144,0,0,1-1.618,1.618Z" transform="translate(10.018 10.018)" fill="#fff"/>
      </g>
    </g>
    <g id="Group_168" data-name="Group 168" transform="translate(533.373 1327.961) rotate(-90)">
      <g id="Group_62-10" data-name="Group 62" transform="translate(273 -107)">
        <g id="Group_1-10" data-name="Group 1" transform="translate(105.495 1147.294)">
          <path id="Line-30" data-name="Line" d="M82.086,1.5H.247" transform="translate(-0.247 -1.5)" fill="none" stroke="#b3b3b3" stroke-linecap="round" stroke-miterlimit="10" stroke-width="3" stroke-dasharray="4 6"/>
          <g id="Mask_Group_1-10" data-name="Mask Group 1" transform="translate(0 0)" clip-path="url(#clip-path-10)">
            <g id="Rectangle-10" data-name="Rectangle" transform="translate(-1.422 -49.706)" fill="none" stroke="#b3b3b3" stroke-linecap="round" stroke-miterlimit="10" stroke-width="4" stroke-dasharray="4 6">
              <rect width="84.662" height="100" stroke="none"/>
              <rect x="2" y="2" width="80.662" height="96" fill="none"/>
            </g>
          </g>
        </g>
        <path id="Triangle-10" data-name="Triangle" d="M10.588,5.294,0,10.588V0Z" transform="translate(187.334 1142)" fill="#b3b3b3"/>
      </g>
      <path id="Path_51" data-name="Path 51" d="M4,0A4,4,0,1,1,0,4,4,4,0,0,1,4,0Z" transform="translate(374 1036)" fill="#b3b3b3"/>
    </g>
    <rect id="Rectangle_150" data-name="Rectangle 150" width="431" height="672" transform="translate(1943 474)" fill="#ad9ec9" opacity="0.07"/>
    <text id="Step_3a._Advance_Model_Tuning" data-name="Step 3a. Advance 
Model Tuning" transform="translate(1958 500)" fill="#555" font-size="20" font-family="IntelClear-Bold, Intel Clear" font-weight="700"><tspan x="0" y="0">Step 3a. Advance </tspan><tspan x="0" y="25">Model Tuning</tspan></text>
    <text id="Step_3._Tune" data-name="Step 3. Tune" transform="translate(1793 259)" fill="#555" font-size="20" font-family="IntelClear-Bold, Intel Clear" font-weight="700"><tspan x="0" y="0">Step 3. Tune</tspan></text>
    <g id="Rectangle_148" data-name="Rectangle 148" transform="translate(1790 281)" fill="#7459a3" stroke="#9b88bd" stroke-width="5">
      <rect width="178" height="113" rx="8" stroke="none"/>
      <rect x="2.5" y="2.5" width="173" height="108" rx="5.5" fill="none"/>
    </g>
    <text id="Run_Inference_Engine_on_model_" data-name="Run Inference 
Engine on model " transform="translate(1879 330)" fill="#fff" font-size="16" font-family="IntelClear-Regular, Intel Clear"><tspan x="-51.84" y="0">Run Inference </tspan><tspan x="-63.104" y="20">Engine on model </tspan></text>
    <g id="Polygon_8" data-name="Polygon 8" transform="translate(2067 276)" fill="#fff">
      <path d="M 134.2401123046875 119.5 L 46.75988388061523 119.5 C 46.6023063659668 119.5 46.45218276977539 119.4244537353516 46.35830688476562 119.2978820800781 L 3.333732604980469 61.29787826538086 C 3.201557636260986 61.11970520019531 3.201557636260986 60.88027954101562 3.333732604980469 60.70210266113281 L 46.35833358764648 2.702128887176514 C 46.45220947265625 2.575553894042969 46.60233306884766 2.500003814697266 46.75990676879883 2.500003814697266 L 134.2401123046875 2.500003814697266 C 134.3976898193359 2.500003814697266 134.5478057861328 2.575553894042969 134.6416778564453 2.702128887176514 L 177.6662750244141 60.70210266113281 C 177.7984619140625 60.88027954101562 177.7984619140625 61.11970520019531 177.6662750244141 61.29787826538086 L 134.6416778564453 119.2978820800781 C 134.5478057861328 119.4244537353516 134.3976898193359 119.5 134.2401123046875 119.5 Z" stroke="none"/>
      <path d="M 47.76649475097656 5.000007629394531 L 6.225494384765625 61.00000762939453 L 47.7664794921875 117 L 133.2335205078125 117 L 174.7745056152344 61.00000762939453 L 133.2335205078125 5.000007629394531 L 47.76649475097656 5.000007629394531 M 46.75990295410156 7.62939453125e-06 L 134.2401123046875 7.62939453125e-06 C 135.1899566650391 7.62939453125e-06 136.0836791992188 0.4498062133789062 136.6495666503906 1.212669372558594 L 179.6741485595703 59.21266937255859 C 180.4615631103516 60.27414321899414 180.4615631103516 61.72586441040039 179.6741485595703 62.78733825683594 L 136.6495666503906 120.7873382568359 C 136.0836791992188 121.5502014160156 135.1899566650391 122 134.2401123046875 122 L 46.75990295410156 122 C 45.81002807617188 122 44.91633605957031 121.5502014160156 44.35041809082031 120.7873382568359 L 1.325836181640625 62.78733825683594 C 0.5384521484375 61.72586441040039 0.5384521484375 60.27414321899414 1.325836181640625 59.21266937255859 L 44.35044860839844 1.212669372558594 C 44.91633605957031 0.4498062133789062 45.81005859375 7.62939453125e-06 46.75990295410156 7.62939453125e-06 Z" stroke="none" fill="#7459a3"/>
    </g>
    <text id="Was_it_fast_enough_with_acceptable_accuracy_" data-name="Was it fast 
enough with 
acceptable 
accuracy?" transform="translate(2158 313)" fill="#555" font-size="16" font-family="IntelClear-Regular, Intel Clear"><tspan x="-39.2" y="0">Was it fast </tspan><tspan x="-46.76" y="20">enough with </tspan><tspan x="-41.032" y="40">acceptable </tspan><tspan x="-35.472" y="60">accuracy?</tspan></text>
    <g id="Group_143" data-name="Group 143" transform="translate(1597 -703)">
      <g id="Group_62-11" data-name="Group 62" transform="translate(273 -107)">
        <g id="Group_1-11" data-name="Group 1" transform="translate(105.495 1147.294)">
          <path id="Line-31" data-name="Line" d="M86.28,1.5H.247" transform="translate(-0.247 -1.5)" fill="none" stroke="#555" stroke-linecap="square" stroke-miterlimit="10" stroke-width="3"/>
          <g id="Mask_Group_1-11" data-name="Mask Group 1" clip-path="url(#clip-path)">
            <rect id="Rectangle-11" data-name="Rectangle" width="89" height="100" transform="translate(-1.495 -50.294)" fill="#525dae"/>
          </g>
        </g>
        <path id="Triangle-11" data-name="Triangle" d="M10.588,5.294,0,10.588V0Z" transform="translate(187.334 1142)" fill="#555"/>
      </g>
      <circle id="Ellipse_1-6" data-name="Ellipse 1" cx="4" cy="4" r="4" transform="translate(372 1036)" fill="#555"/>
    </g>
    <g id="Rectangle_149" data-name="Rectangle 149" transform="translate(2069 543)" fill="#7459a3" stroke="#9b88bd" stroke-width="5">
      <rect width="178" height="113" rx="8" stroke="none"/>
      <rect x="2.5" y="2.5" width="173" height="108" rx="5.5" fill="none"/>
    </g>
    <text id="Try_advanced_tuning_of_the_IR_model" data-name="Try advanced tuning 
of the IR model" transform="translate(2159 595)" fill="#fff" font-size="16" font-family="IntelClear-Regular, Intel Clear"><tspan x="-75.632" y="0">Try advanced tuning </tspan><tspan x="-55.256" y="20">of the IR model</tspan></text>
    <g id="Polygon_9" data-name="Polygon 9" transform="translate(2067 733)" fill="#fff">
      <path d="M 134.2401123046875 119.5 L 46.75988388061523 119.5 C 46.6023063659668 119.5 46.45218276977539 119.4244537353516 46.35830688476562 119.2978820800781 L 3.333732604980469 61.29787826538086 C 3.201557636260986 61.11970520019531 3.201557636260986 60.88027954101562 3.333732604980469 60.70210266113281 L 46.35833358764648 2.702128887176514 C 46.45220947265625 2.575553894042969 46.60233306884766 2.500003814697266 46.75990676879883 2.500003814697266 L 134.2401123046875 2.500003814697266 C 134.3976898193359 2.500003814697266 134.5478057861328 2.575553894042969 134.6416778564453 2.702128887176514 L 177.6662750244141 60.70210266113281 C 177.7984619140625 60.88027954101562 177.7984619140625 61.11970520019531 177.6662750244141 61.29787826538086 L 134.6416778564453 119.2978820800781 C 134.5478057861328 119.4244537353516 134.3976898193359 119.5 134.2401123046875 119.5 Z" stroke="none"/>
      <path d="M 47.76649475097656 5.000007629394531 L 6.225494384765625 61.00000762939453 L 47.7664794921875 117 L 133.2335205078125 117 L 174.7745056152344 61.00000762939453 L 133.2335205078125 5.000007629394531 L 47.76649475097656 5.000007629394531 M 46.75990295410156 7.62939453125e-06 L 134.2401123046875 7.62939453125e-06 C 135.1899566650391 7.62939453125e-06 136.0836791992188 0.4498062133789062 136.6495666503906 1.212669372558594 L 179.6741485595703 59.21266937255859 C 180.4615631103516 60.27414321899414 180.4615631103516 61.72586441040039 179.6741485595703 62.78733825683594 L 136.6495666503906 120.7873382568359 C 136.0836791992188 121.5502014160156 135.1899566650391 122 134.2401123046875 122 L 46.75990295410156 122 C 45.81002807617188 122 44.91633605957031 121.5502014160156 44.35041809082031 120.7873382568359 L 1.325836181640625 62.78733825683594 C 0.5384521484375 61.72586441040039 0.5384521484375 60.27414321899414 1.325836181640625 59.21266937255859 L 44.35044860839844 1.212669372558594 C 44.91633605957031 0.4498062133789062 45.81005859375 7.62939453125e-06 46.75990295410156 7.62939453125e-06 Z" stroke="none" fill="#7459a3"/>
    </g>
    <text id="Did_that_work_2" data-name="Did that work?" transform="translate(2158 800)" fill="#555" font-size="16" font-family="IntelClear-Regular, Intel Clear"><tspan x="-52.264" y="0">Did that work?</tspan></text>
    <g id="Group_148" data-name="Group 148" transform="translate(3198.254 256.332) rotate(90)">
      <g id="Group_62-12" data-name="Group 62" transform="translate(273 -107)">
        <g id="Group_1-12" data-name="Group 1" transform="translate(135.919 1147.294)">
          <path id="Line-32" data-name="Line" d="M55.855,1.5H.247" transform="translate(-0.247 -1.5)" fill="none" stroke="#555" stroke-linecap="square" stroke-miterlimit="10" stroke-width="3"/>
          <g id="Mask_Group_1-12" data-name="Mask Group 1" clip-path="url(#clip-path-7)">
            <rect id="Rectangle-12" data-name="Rectangle" width="57" height="100" transform="translate(-0.919 -50.294)" fill="#525dae"/>
          </g>
        </g>
        <path id="Triangle-12" data-name="Triangle" d="M10.588,5.294,0,10.588V0Z" transform="translate(192.334 1142)" fill="#555"/>
      </g>
      <path id="Path_52" data-name="Path 52" d="M4,0A4,4,0,1,1,0,4,4,4,0,0,1,4,0Z" transform="translate(401 1036)" fill="#555"/>
    </g>
    <g id="_Dotted_RightDown" data-name="⚛️/→/Dotted/RightDown" transform="translate(2063.961 1004.641) rotate(-90)">
      <path id="Line-33" data-name="Line" d="M0,0H51.826C61.367,0,69.1,10.547,69.1,23.557v70.67" fill="none" stroke="#555" stroke-linecap="round" stroke-miterlimit="10" stroke-width="3"/>
    </g>
    <path id="Line-34" data-name="Line" d="M0,94.039H51.826c9.541,0,17.275-10.526,17.275-23.51V0" transform="translate(2157.961 1004.641) rotate(-90)" fill="none" stroke="#555" stroke-linecap="round" stroke-miterlimit="10" stroke-width="3"/>
    <path id="Triangle-13" data-name="Triangle" d="M10.588,5.294,0,10.588V0Z" transform="translate(2069.254 999.666) rotate(90)" fill="#555"/>
    <path id="Triangle-14" data-name="Triangle" d="M10.588,5.294,0,10.588V0Z" transform="translate(2257.254 999.666) rotate(90)" fill="#555"/>
    <g id="Rectangle_151" data-name="Rectangle 151" transform="translate(1975 1012)" fill="#7459a3" stroke="#9b88bd" stroke-width="5">
      <rect width="178" height="91" rx="8" stroke="none"/>
      <rect x="2.5" y="2.5" width="173" height="86" rx="5.5" fill="none"/>
    </g>
    <text id="Try_hardware-based_interventions" data-name="Try hardware-based 
interventions" transform="translate(2064 1055)" fill="#fff" font-size="16" font-family="IntelClear-Regular, Intel Clear"><tspan x="-74.464" y="0">Try hardware-based </tspan><tspan x="-47.952" y="20">interventions</tspan></text>
    <g id="Rectangle_152" data-name="Rectangle 152" transform="translate(2163 1012)" fill="#7459a3" stroke="#9b88bd" stroke-width="5">
      <rect width="178" height="91" rx="8" stroke="none"/>
      <rect x="2.5" y="2.5" width="173" height="86" rx="5.5" fill="none"/>
    </g>
    <text id="Try_training_extensions" data-name="Try training 
extensions" transform="translate(2252 1053)" fill="#fff" font-size="16" font-family="IntelClear-Regular, Intel Clear"><tspan x="-43.296" y="0">Try training </tspan><tspan x="-38.896" y="20">extensions</tspan></text>
    <g id="Group_156" data-name="Group 156" transform="translate(1877 -702)">
      <g id="Group_62-13" data-name="Group 62" transform="translate(273 -107)">
        <g id="Group_1-13" data-name="Group 1" transform="translate(105.495 1147.294)">
          <path id="Line-35" data-name="Line" d="M127.38,1.5H.247" transform="translate(-0.247 -1.5)" fill="none" stroke="#555" stroke-linecap="square" stroke-miterlimit="10" stroke-width="3"/>
          <g id="Mask_Group_1-13" data-name="Mask Group 1" clip-path="url(#clip-path-8)">
            <rect id="Rectangle-13" data-name="Rectangle" width="132" height="100" transform="translate(-2.495 -50.294)" fill="#525dae"/>
          </g>
        </g>
        <path id="Triangle-15" data-name="Triangle" d="M10.588,5.294,0,10.588V0Z" transform="translate(227.334 1142)" fill="#555"/>
      </g>
      <g id="Node_Success-3" data-name="Node/Success" transform="translate(426 1024)">
        <rect id="Background-4" data-name="Background" width="33" height="33" rx="16.5" fill="#b8cc43"/>
        <path id="OK-3" data-name="OK" d="M4.439,11.385a1.006,1.006,0,0,1-.152-.194,1.006,1.006,0,0,1-.194-.151l-3.8-3.8A1,1,0,0,1,1.712,5.821L5.148,9.257,14.112.294A1,1,0,0,1,15.53,1.712L5.857,11.385a1,1,0,0,1-1.418,0Z" transform="translate(8.67 10.742)" fill="#fff"/>
      </g>
      <circle id="Ellipse_1-7" data-name="Ellipse 1" cx="4" cy="4" r="4" transform="translate(372 1036)" fill="#555"/>
    </g>
    <g id="Group_169" data-name="Group 169" transform="translate(1516 -398)">
      <g id="Group_72-3" data-name="Group 72" transform="translate(1668.961 881.039) rotate(90)">
        <g id="Group_62-14" data-name="Group 62" transform="translate(273 -107)">
          <g id="Group_1-14" data-name="Group 1" transform="translate(105.495 1147.294)">
            <path id="Line-36" data-name="Line" d="M67.569,1.5H.247" transform="translate(-0.247 -1.5)" fill="none" stroke="#555" stroke-linecap="square" stroke-miterlimit="10" stroke-width="3"/>
            <g id="Mask_Group_1-14" data-name="Mask Group 1" transform="translate(0 0)" clip-path="url(#clip-path-14)">
              <rect id="Rectangle-14" data-name="Rectangle" width="69.644" height="100" transform="translate(-1.17 -49.706)" fill="#555"/>
            </g>
          </g>
          <path id="Triangle-16" data-name="Triangle" d="M10.588,5.294,0,10.588V0Z" transform="translate(167.334 1142)" fill="#555"/>
        </g>
        <circle id="Ellipse_1-8" data-name="Ellipse 1" cx="4" cy="4" r="4" transform="translate(372 1036)" fill="#555"/>
      </g>
      <g id="Node_Error-2" data-name="Node/Error" transform="translate(612 1274)">
        <rect id="Background-5" data-name="Background" width="33" height="33" rx="16.5" fill="#121212"/>
        <path id="Error-2" data-name="Error" d="M11.389,13.007,6.671,8.289,1.953,13.007A1.144,1.144,0,0,1,.335,11.389L5.053,6.671.335,1.953A1.144,1.144,0,0,1,1.953.335L6.671,5.053,11.389.335a1.144,1.144,0,0,1,1.618,1.618L8.289,6.671l4.718,4.718a1.144,1.144,0,0,1-1.618,1.618Z" transform="translate(10.018 10.018)" fill="#fff"/>
      </g>
    </g>
    <g id="Group_170" data-name="Group 170" transform="translate(1131.373 1325.961) rotate(-90)">
      <g id="Group_62-15" data-name="Group 62" transform="translate(293.405 -107)">
        <g id="Group_1-15" data-name="Group 1" transform="translate(105.495 1147.294)">
          <path id="Line-37" data-name="Line" d="M64.018,1.5H.247" transform="translate(-0.247 -1.5)" fill="none" stroke="#b3b3b3" stroke-linecap="round" stroke-miterlimit="10" stroke-width="3" stroke-dasharray="4 6"/>
          <g id="Mask_Group_1-15" data-name="Mask Group 1" transform="translate(0 0)" clip-path="url(#clip-path-15)">
            <g id="Rectangle-15" data-name="Rectangle" transform="translate(-1.108 -49.706)" fill="none" stroke="#b3b3b3" stroke-linecap="round" stroke-miterlimit="10" stroke-width="4" stroke-dasharray="4 6">
              <rect width="65.971" height="100" stroke="none"/>
              <rect x="2" y="2" width="61.971" height="96" fill="none"/>
            </g>
          </g>
        </g>
        <path id="Triangle-17" data-name="Triangle" d="M8.25,5.294,0,10.588V0Z" transform="translate(169.266 1142)" fill="#b3b3b3"/>
      </g>
      <path id="Path_53" data-name="Path 53" d="M4,0A4,4,0,1,1,0,4,4,4,0,0,1,4,0Z" transform="translate(392 1036)" fill="#b3b3b3"/>
    </g>
    <text id="Step_4._Deploy" data-name="Step 4. Deploy" transform="translate(2390 259)" fill="#555" font-size="20" font-family="IntelClear-Bold, Intel Clear" font-weight="700"><tspan x="0" y="0">Step 4. Deploy</tspan></text>
    <g id="Rectangle_94" data-name="Rectangle 94" transform="translate(2389 281)" fill="#7459a3" stroke="#9b88bd" stroke-width="5">
      <rect width="178" height="113" rx="8" stroke="none"/>
      <rect x="2.5" y="2.5" width="173" height="108" rx="5.5" fill="none"/>
    </g>
    <g id="Rectangle_95" data-name="Rectangle 95" transform="translate(2664 281)" fill="#7459a3" stroke="#9b88bd" stroke-width="5">
      <rect width="177" height="112" rx="8" stroke="none"/>
      <rect x="2.5" y="2.5" width="172" height="107" rx="5.5" fill="none"/>
    </g>
    <g id="Group_67" data-name="Group 67" transform="translate(2194 -703)">
      <g id="Group_62-16" data-name="Group 62" transform="translate(273 -107)">
        <g id="Group_1-16" data-name="Group 1" transform="translate(105.495 1147.294)">
          <path id="Line-38" data-name="Line" d="M86.28,1.5H.247" transform="translate(-0.247 -1.5)" fill="none" stroke="#555" stroke-linecap="square" stroke-miterlimit="10" stroke-width="3"/>
          <g id="Mask_Group_1-16" data-name="Mask Group 1" clip-path="url(#clip-path)">
            <rect id="Rectangle-16" data-name="Rectangle" width="89" height="100" transform="translate(-1.495 -50.294)" fill="#525dae"/>
          </g>
        </g>
        <path id="Triangle-18" data-name="Triangle" d="M10.588,5.294,0,10.588V0Z" transform="translate(187.334 1142)" fill="#555"/>
      </g>
      <circle id="Ellipse_1-9" data-name="Ellipse 1" cx="4" cy="4" r="4" transform="translate(372 1036)" fill="#555"/>
    </g>
    <g id="Rectangle_96" data-name="Rectangle 96" transform="translate(2938 281)" fill="#003c71" stroke="#497399" stroke-width="5">
      <rect width="177" height="112" rx="8" stroke="none"/>
      <rect x="2.5" y="2.5" width="172" height="107" rx="5.5" fill="none"/>
    </g>
    <g id="Group_68" data-name="Group 68" transform="translate(2468 -702)">
      <g id="Group_62-17" data-name="Group 62" transform="translate(273 -107)">
        <g id="Group_1-17" data-name="Group 1" transform="translate(105.495 1147.294)">
          <path id="Line-39" data-name="Line" d="M86.28,1.5H.247" transform="translate(-0.247 -1.5)" fill="none" stroke="#555" stroke-linecap="square" stroke-miterlimit="10" stroke-width="3"/>
          <g id="Mask_Group_1-17" data-name="Mask Group 1" clip-path="url(#clip-path)">
            <rect id="Rectangle-17" data-name="Rectangle" width="89" height="100" transform="translate(-1.495 -50.294)" fill="#555"/>
          </g>
        </g>
        <path id="Triangle-19" data-name="Triangle" d="M10.588,5.294,0,10.588V0Z" transform="translate(187.334 1142)" fill="#555"/>
      </g>
      <path id="Path_54" data-name="Path 54" d="M4,0A4,4,0,1,1,0,4,4,4,0,0,1,4,0Z" transform="translate(372 1036)" fill="#555"/>
    </g>
    <text id="Integrate_model_to_pipeline_or_application" data-name="Integrate model 
to pipeline 
or application" transform="translate(2396.5 308)" fill="#fff" font-size="16" font-family="IntelClear-Regular, Intel Clear"><tspan x="23.432" y="16">Integrate model </tspan><tspan x="42.4" y="36">to pipeline </tspan><tspan x="31.144" y="56">or application</tspan></text>
    <text id="Package_for_deployment" data-name="Package for 
deployment" transform="translate(2752.5 334)" fill="#fff" font-size="16" font-family="IntelClear-Regular, Intel Clear"><tspan x="-43.992" y="0">Package for </tspan><tspan x="-43.56" y="20">deployment</tspan></text>
    <text id="Deploy_app_and_model" data-name="Deploy app 
and model" transform="translate(3025.5 334)" fill="#fff" font-size="16" font-family="IntelClear-Regular, Intel Clear"><tspan x="-43.248" y="0">Deploy app </tspan><tspan x="-38.776" y="20">and model</tspan></text>
    <text id="Fast_Path" data-name="Fast Path" transform="translate(2083 200)" font-size="28" font-family="IntelClear-Bold, Intel Clear" font-weight="700"><tspan x="0" y="0">Fast Path</tspan></text>
    <g id="Group_409" data-name="Group 409" transform="translate(0 35)">
      <path id="Path_216" data-name="Path 216" d="M4,0A4,4,0,1,1,0,4,4,4,0,0,1,4,0Z" transform="translate(1650 755)" fill="#555"/>
      <path id="Triangle-20" data-name="Triangle" d="M10.588,5.294,0,10.588V0Z" transform="translate(1826 370.588) rotate(-90)" fill="#555"/>
      <g id="Rectangle_809" data-name="Rectangle 809" transform="translate(1249.783 254.547)">
        <path id="Path_216-2" data-name="Path 216" d="M581.645,110.748V482.079c0,12.357-10.521,22.375-23.5,22.375H403.217" fill="none" stroke="#555" stroke-width="3"/>
      </g>
      <g id="Node_Success-4" data-name="Node/Success" transform="translate(1720 742)">
        <rect id="Background-6" data-name="Background" width="33" height="33" rx="16.5" fill="#b8cc43"/>
        <path id="OK-4" data-name="OK" d="M4.439,11.385a1.006,1.006,0,0,1-.152-.194,1.006,1.006,0,0,1-.194-.151l-3.8-3.8A1,1,0,0,1,1.712,5.821L5.148,9.257,14.112.294A1,1,0,0,1,15.53,1.712L5.857,11.385a1,1,0,0,1-1.418,0Z" transform="translate(8.67 10.742)" fill="#fff"/>
      </g>
    </g>
    <g id="Group_404" data-name="Group 404" transform="translate(-56 34)">
      <g id="Group_62-18" data-name="Group 62" transform="translate(2762.961 266.039) rotate(90)">
        <g id="Group_1-18" data-name="Group 1" transform="translate(103.495 1147.294)">
          <path id="Line-40" data-name="Line" d="M131.83,1.5H.247" transform="translate(-0.247 -1.5)" fill="none" stroke="#555" stroke-linecap="square" stroke-miterlimit="10" stroke-width="3"/>
          <g id="Mask_Group_1-18" data-name="Mask Group 1" transform="translate(0 0)" clip-path="url(#clip-path-18)">
            <rect id="Rectangle-18" data-name="Rectangle" width="136.121" height="100" transform="translate(-2.286 -49.706)" fill="#525dae"/>
          </g>
        </g>
        <path id="Triangle-21" data-name="Triangle" d="M10.588,5.294,0,10.588V0Z" transform="translate(231.334 1142)" fill="#555"/>
      </g>
      <circle id="Ellipse_1-10" data-name="Ellipse 1" cx="4" cy="4" r="4" transform="translate(1619.961 365.039) rotate(90)" fill="#555"/>
    </g>
    <g id="Node_Error-3" data-name="Node/Error" transform="translate(1543 430)">
      <rect id="Background-7" data-name="Background" width="33" height="33" rx="16.5" fill="#121212"/>
      <path id="Error-3" data-name="Error" d="M11.389,13.007,6.671,8.289,1.953,13.007A1.144,1.144,0,0,1,.335,11.389L5.053,6.671.335,1.953A1.144,1.144,0,0,1,1.953.335L6.671,5.053,11.389.335a1.144,1.144,0,0,1,1.618,1.618L8.289,6.671l4.718,4.718a1.144,1.144,0,0,1-1.618,1.618Z" transform="translate(10.018 10.018)" fill="#fff"/>
    </g>
    <g id="Group_407" data-name="Group 407" transform="translate(-626 35)">
      <g id="Group_62-19" data-name="Group 62" transform="translate(2762.961 266.039) rotate(90)">
        <g id="Group_1-19" data-name="Group 1" transform="translate(103.495 1147.294)">
          <path id="Line-41" data-name="Line" d="M131.83,1.5H.247" transform="translate(-0.247 -1.5)" fill="none" stroke="#555" stroke-linecap="square" stroke-miterlimit="10" stroke-width="3"/>
          <g id="Mask_Group_1-19" data-name="Mask Group 1" transform="translate(0 0)" clip-path="url(#clip-path-18)">
            <rect id="Rectangle-19" data-name="Rectangle" width="136.121" height="100" transform="translate(-2.286 -49.706)" fill="#525dae"/>
          </g>
        </g>
        <path id="Triangle-22" data-name="Triangle" d="M10.588,5.294,0,10.588V0Z" transform="translate(229.334 1142)" fill="#555"/>
      </g>
      <circle id="Ellipse_1-11" data-name="Ellipse 1" cx="4" cy="4" r="4" transform="translate(1619.961 365.039) rotate(90)" fill="#555"/>
    </g>
    <g id="Node_Error-4" data-name="Node/Error" transform="translate(973 430)">
      <rect id="Background-8" data-name="Background" width="33" height="33" rx="16.5" fill="#121212"/>
      <path id="Error-4" data-name="Error" d="M11.389,13.007,6.671,8.289,1.953,13.007A1.144,1.144,0,0,1,.335,11.389L5.053,6.671.335,1.953A1.144,1.144,0,0,1,1.953.335L6.671,5.053,11.389.335a1.144,1.144,0,0,1,1.618,1.618L8.289,6.671l4.718,4.718a1.144,1.144,0,0,1-1.618,1.618Z" transform="translate(10.018 10.018)" fill="#fff"/>
    </g>
    <g id="Group_408" data-name="Group 408" transform="translate(543 34)">
      <g id="Group_62-20" data-name="Group 62" transform="translate(2762.961 266.039) rotate(90)">
        <g id="Group_1-20" data-name="Group 1" transform="translate(103.495 1147.294)">
          <path id="Line-42" data-name="Line" d="M131.83,1.5H.247" transform="translate(-0.247 -1.5)" fill="none" stroke="#555" stroke-linecap="square" stroke-miterlimit="10" stroke-width="3"/>
          <g id="Mask_Group_1-20" data-name="Mask Group 1" transform="translate(0 0)" clip-path="url(#clip-path-18)">
            <rect id="Rectangle-20" data-name="Rectangle" width="136.121" height="100" transform="translate(-2.286 -49.706)" fill="#525dae"/>
          </g>
        </g>
        <path id="Triangle-23" data-name="Triangle" d="M10.588,5.294,0,10.588V0Z" transform="translate(231.334 1142)" fill="#555"/>
      </g>
      <circle id="Ellipse_1-12" data-name="Ellipse 1" cx="4" cy="4" r="4" transform="translate(1619.961 365.039) rotate(90)" fill="#555"/>
    </g>
    <g id="Node_Error-5" data-name="Node/Error" transform="translate(2142 430)">
      <rect id="Background-9" data-name="Background" width="33" height="33" rx="16.5" fill="#121212"/>
      <path id="Error-5" data-name="Error" d="M11.389,13.007,6.671,8.289,1.953,13.007A1.144,1.144,0,0,1,.335,11.389L5.053,6.671.335,1.953A1.144,1.144,0,0,1,1.953.335L6.671,5.053,11.389.335a1.144,1.144,0,0,1,1.618,1.618L8.289,6.671l4.718,4.718a1.144,1.144,0,0,1-1.618,1.618Z" transform="translate(10.018 10.018)" fill="#fff"/>
    </g>
    <g id="Group_410" data-name="Group 410" transform="translate(598 35)">
      <path id="Path_216-3" data-name="Path 216" d="M4,0A4,4,0,1,1,0,4,4,4,0,0,1,4,0Z" transform="translate(1650 755)" fill="#555"/>
      <path id="Triangle-24" data-name="Triangle" d="M10.588,5.294,0,10.588V0Z" transform="translate(1826 370.588) rotate(-90)" fill="#555"/>
      <g id="Rectangle_809-2" data-name="Rectangle 809" transform="translate(1249.783 254.547)">
        <path id="Path_216-4" data-name="Path 216" d="M581.645,110.748V482.079c0,12.357-10.521,22.375-23.5,22.375H403.217" fill="none" stroke="#555" stroke-width="3"/>
      </g>
      <g id="Node_Success-5" data-name="Node/Success" transform="translate(1720 742)">
        <rect id="Background-10" data-name="Background" width="33" height="33" rx="16.5" fill="#b8cc43"/>
        <path id="OK-5" data-name="OK" d="M4.439,11.385a1.006,1.006,0,0,1-.152-.194,1.006,1.006,0,0,1-.194-.151l-3.8-3.8A1,1,0,0,1,1.712,5.821L5.148,9.257,14.112.294A1,1,0,0,1,15.53,1.712L5.857,11.385a1,1,0,0,1-1.418,0Z" transform="translate(8.67 10.742)" fill="#fff"/>
      </g>
    </g>
    <g id="Group_437" data-name="Group 437" transform="translate(1844.19 165.949)">
      <g id="Group_436" data-name="Group 436" transform="translate(38.399 1.538)">
        <g id="Group_434" data-name="Group 434" transform="translate(177.214)">
          <g id="Group_433" data-name="Group 433">
            <path id="Path_217" data-name="Path 217" d="M230.787,2.127h-.853V1.57h2.426v.557h-.853v2.6h-.72Z" transform="translate(-229.934 -1.57)"/>
            <path id="Path_218" data-name="Path 218" d="M233.09,1.57h.946l.738,1.966L235.5,1.57h.928V4.729h-.712V2.511l-.875,2.218h-.234l-.878-2.218V4.729h-.641Z" transform="translate(-230.131 -1.57)"/>
          </g>
        </g>
        <g id="Group_435" data-name="Group 435">
          <path id="Path_219" data-name="Path 219" d="M45.82,33.224V46.763H40.9V12.915H45.82v3.246a9.767,9.767,0,0,1,7.744-3.71c6.074,0,11.545,4.637,11.545,12.056a11.654,11.654,0,0,1-11.5,12.055A9.8,9.8,0,0,1,45.82,33.224ZM60.194,24.46a7.328,7.328,0,1,0-14.652,0,7.33,7.33,0,1,0,14.652,0Z" transform="translate(-40.905 -2.25)"/>
          <path id="Path_220" data-name="Path 220" d="M69.161,24.6A11.937,11.937,0,0,1,81.216,12.451,11.5,11.5,0,0,1,93.133,24.276v1.947h-19.2c.649,3.57,3.431,5.934,7.464,5.934a7.268,7.268,0,0,0,6.77-4.173l4.081,2.272A11.718,11.718,0,0,1,81.4,36.562C74.076,36.562,69.161,31.323,69.161,24.6ZM74.169,22H88.08c-.742-3.338-3.292-5.193-6.863-5.193A7.207,7.207,0,0,0,74.169,22Z" transform="translate(-42.671 -2.25)"/>
          <path id="Path_221" data-name="Path 221" d="M97.917,12.915h4.914v3.014a8.662,8.662,0,0,1,7.141-3.478c5.842,0,9.412,3.8,9.412,10.109V36.1h-5.008V22.977c0-3.8-1.9-6.214-5.61-6.214-3.338,0-5.889,2.5-5.889,6.584V36.1h-4.96Z" transform="translate(-44.469 -2.25)"/>
          <path id="Path_222" data-name="Path 222" d="M119.4,1.57h5.24l9.135,26.384L142.912,1.57h5.24L136.328,35.418h-5.1Z" transform="translate(-45.811 -1.57)"/>
          <path id="Path_223" data-name="Path 223" d="M152.071,1.57h5.054V35.418h-5.054Z" transform="translate(-47.853 -1.57)"/>
          <path id="Path_224" data-name="Path 224" d="M162.377,1.57h5.7l17.156,25.6V1.57h5.007V35.418h-5.332L167.431,9.407V35.418h-5.054Z" transform="translate(-48.498 -1.57)"/>
        </g>
      </g>
      <path id="Path_225" data-name="Path 225" d="M25.294,16.417a2.749,2.749,0,0,1-2.485,1.561,2.78,2.78,0,0,1-2.773-2.815,2.818,2.818,0,0,1,1.579-2.544,6.947,6.947,0,0,0-9.693,6.5,6.948,6.948,0,1,0,13.895,0A7.219,7.219,0,0,0,25.294,16.417Z" transform="translate(-0.695 -0.688)" fill="#6c24f0"/>
      <path id="Path_226" data-name="Path 226" d="M.81,18.439A17.365,17.365,0,1,1,18.152,35.826,17.355,17.355,0,0,1,.81,18.439Zm29.675,0a12.312,12.312,0,1,0-24.621,0,12.312,12.312,0,1,0,24.621,0Z" transform="translate(0)"/>
      <path id="Path_227" data-name="Path 227" d="M219.766,16.442A2.75,2.75,0,0,1,217.281,18a2.781,2.781,0,0,1-2.773-2.815,2.816,2.816,0,0,1,1.579-2.544,6.947,6.947,0,0,0-9.693,6.5,6.947,6.947,0,1,0,13.894,0A7.218,7.218,0,0,0,219.766,16.442Z" transform="translate(-12.85 -0.689)" fill="#6c24f0"/>
      <path id="Path_228" data-name="Path 228" d="M195.282,18.464a17.365,17.365,0,1,1,17.341,17.388A17.354,17.354,0,0,1,195.282,18.464Zm29.675,0a12.312,12.312,0,1,0-24.621,0,12.312,12.312,0,1,0,24.621,0Z" transform="translate(-12.155 -0.002)"/>
    </g>
  </g>
</svg>
