<?xml version="1.0" encoding="UTF-8" standalone="no"?>
<svg
   width="1280"
   height="528"
   overflow="hidden"
   version="1.1"
   id="svg17819"
   sodipodi:docname="quantization_picture.svg"
   inkscape:version="1.2.1 (9c6d41e410, 2022-07-14)"
   xmlns:inkscape="http://www.inkscape.org/namespaces/inkscape"
   xmlns:sodipodi="http://sodipodi.sourceforge.net/DTD/sodipodi-0.dtd"
   xmlns="http://www.w3.org/2000/svg"
   xmlns:svg="http://www.w3.org/2000/svg">
  <sodipodi:namedview
     id="namedview17821"
     pagecolor="#ffffff"
     bordercolor="#000000"
     borderopacity="0.25"
     inkscape:showpageshadow="2"
     inkscape:pageopacity="0.0"
     inkscape:pagecheckerboard="0"
     inkscape:deskcolor="#d1d1d1"
     showgrid="false"
     inkscape:zoom="0.99609375"
     inkscape:cx="640"
     inkscape:cy="264.03137"
     inkscape:window-width="1920"
     inkscape:window-height="1129"
     inkscape:window-x="-8"
     inkscape:window-y="-8"
     inkscape:window-maximized="1"
     inkscape:current-layer="svg17819" />
  <defs
     id="defs17683">
    <clipPath
       id="clip0">
      <rect
         x="0"
         y="0"
         width="1280"
         height="528"
         id="rect17680" />
    </clipPath>
  </defs>
  <g
     clip-path="url(#clip0)"
     id="g17817">
    <path
       id="rect17685"
       style="fill:#ffffff"
       d="M 0,0 H 1280 V 528 H 0 Z" />
    <path
       d="M192.5 326.167C192.5 310.887 204.887 298.5 220.167 298.5L382.833 298.5C398.113 298.5 410.5 310.887 410.5 326.167L410.5 436.833C410.5 452.113 398.113 464.5 382.833 464.5L220.167 464.5C204.887 464.5 192.5 452.113 192.5 436.833Z"
       stroke="#0068B5"
       stroke-width="3"
       stroke-miterlimit="8"
       fill="#FFFFFF"
       fill-rule="evenodd"
       id="path17687" />
    <g
       aria-label="Convolution"
       transform="translate(216.128 342)"
       id="text17689"
       style="font-size:32px;font-family:'IntelOne Display Regular', 'IntelOne Display Regular_MSFontService', sans-serif">
      <path
         d="m 4,-11.232 q 0,4 2.4,6.656 2.4,2.624 6.016,2.624 2.432,0 4.256,-1.12 1.856,-1.12 3.168,-3.36 l 2.112,1.216 q -1.44,2.752 -3.936,4.256 -2.464,1.472 -5.664,1.472 -4.864,0 -8.032,-3.296 -3.136,-3.296 -3.136,-8.384 0,-4.992 3.264,-8.352 3.296,-3.392 8.192,-3.392 3.104,0 5.472,1.472 2.4,1.44 3.744,4.128 L 19.648,-16 q -1.248,-2.272 -2.976,-3.36 -1.728,-1.088 -4.096,-1.088 -3.68,0 -6.144,2.624 Q 4,-15.2 4,-11.232 Z"
         id="path17824" />
      <path
         d="m 40.192004,-7.712 q 0,3.488 -2.336,5.856 -2.336,2.336 -5.76,2.336 -3.424,0 -5.728,-2.336 -2.272,-2.336 -2.272,-5.824 0,-3.488 2.336,-5.824 2.336,-2.368 5.76,-2.368 3.424,0 5.696,2.336 2.304,2.336 2.304,5.824 z m -13.44,0.032 q 0,2.496 1.536,4.192 1.568,1.696 3.872,1.696 2.272,0 3.808,-1.696 1.568,-1.696 1.568,-4.224 0,-2.464 -1.568,-4.16 -1.568,-1.728 -3.84,-1.728 -2.272,0 -3.84,1.696 -1.536,1.696 -1.536,4.224 z"
         id="path17826" />
      <path
         d="m 42.880021,-15.456 h 2.56 v 2.4 q 0.928,-1.344 2.336,-2.048 1.44,-0.736 3.2,-0.736 3.072,0 4.8,1.984 1.728,1.984 1.728,5.44 V 0 h -2.592 v -8.256 q 0,-2.432 -1.216,-3.84 -1.184,-1.408 -3.328,-1.408 -2.208,0 -3.552,1.504 -1.344,1.504 -1.344,3.904 V 0 h -2.592 z"
         id="path17828" />
      <path
         d="m 65.407981,0 -6.624,-15.456 h 2.848 l 5.024,12.352 4.992,-12.352 h 2.688 L 67.775981,0 Z"
         id="path17830" />
      <path
         d="m 90.879931,-7.712 q 0,3.488 -2.336,5.856 -2.336,2.336 -5.76,2.336 -3.424,0 -5.728,-2.336 -2.272,-2.336 -2.272,-5.824 0,-3.488 2.336,-5.824 2.336,-2.368 5.76,-2.368 3.424,0 5.696,2.336 2.304,2.336 2.304,5.824 z m -13.44,0.032 q 0,2.496 1.536,4.192 1.568,1.696 3.872,1.696 2.272,0 3.808,-1.696 1.568,-1.696 1.568,-4.224 0,-2.464 -1.568,-4.16 -1.568,-1.728 -3.84,-1.728 -2.272,0 -3.84,1.696 -1.536,1.696 -1.536,4.224 z"
         id="path17832" />
      <path
         d="m 93.855948,-22.4 h 2.624 V 0 h -2.624 z"
         id="path17834" />
      <path
         d="m 114.62393,0 h -2.592 v -2.368 q -0.928,1.344 -2.336,2.048 -1.408,0.672 -3.2,0.672 -3.04,0 -4.8,-1.984 -1.728002,-1.984 -1.728002,-5.408 v -8.416 h 2.624002 V -7.2 q 0,2.432 1.184,3.84 1.216,1.408 3.36,1.408 2.176,0 3.52,-1.504 1.344,-1.504 1.344,-3.904 v -8.096 h 2.624 z"
         id="path17836" />
      <path
         d="m 118.8479,-4.128 v -9.024 h -2.112 v -2.304 h 2.112 v -4.736 h 2.592 v 4.736 h 3.584 v 2.304 h -3.584 v 8.8 q 0,1.024 0.448,1.536 0.48,0.48 1.44,0.48 h 1.696 V 0 h -2.08 q -2.144,0 -3.136,-0.992 -0.96,-0.992 -0.96,-3.136 z"
         id="path17838" />
      <path
         d="m 127.8079,-20.64 h 2.88 v 2.848 h -2.88 z M 127.9359,0 v -15.456 h 2.624 V 0 Z"
         id="path17840" />
      <path
         d="m 149.63188,-7.712 q 0,3.488 -2.336,5.856 -2.336,2.336 -5.76,2.336 -3.424,0 -5.728,-2.336 -2.272,-2.336 -2.272,-5.824 0,-3.488 2.336,-5.824 2.336,-2.368 5.76,-2.368 3.424,0 5.696,2.336 2.304,2.336 2.304,5.824 z m -13.44,0.032 q 0,2.496 1.536,4.192 1.568,1.696 3.872,1.696 2.272,0 3.808,-1.696 1.568,-1.696 1.568,-4.224 0,-2.464 -1.568,-4.16 -1.568,-1.728 -3.84,-1.728 -2.272,0 -3.84,1.696 -1.536,1.696 -1.536,4.224 z"
         id="path17842" />
      <path
         d="m 152.3199,-15.456 h 2.56 v 2.4 q 0.928,-1.344 2.336,-2.048 1.44,-0.736 3.2,-0.736 3.072,0 4.8,1.984 1.728,1.984 1.728,5.44 V 0 h -2.592 v -8.256 q 0,-2.432 -1.216,-3.84 -1.184,-1.408 -3.328,-1.408 -2.208,0 -3.552,1.504 -1.344,1.504 -1.344,3.904 V 0 h -2.592 z"
         id="path17844" />
    </g>
    <path
       id="rect17691"
       style="fill:#8bae46;stroke:#8bae46;stroke-width:1.33333;stroke-miterlimit:8"
       d="M 51.500099,120.5 H 192.5001 v 74 H 51.500099 Z" />
    <g
       aria-label="W"
       transform="translate(100.853 174)"
       id="text17693"
       style="font-size:43px;font-family:'IntelOne Display Regular', 'IntelOne Display Regular_MSFontService', sans-serif;fill:#ffffff">
      <path
         d="M 40.033,-30.1 33.153,0 h -3.87 L 20.726,-24.811 12.255,0 H 8.385 L 1.548,-30.1 h 3.784 l 5.332,24.682 8.342,-24.682 h 3.569 l 8.342,24.725 5.289,-24.725 z"
         id="path17848" />
    </g>
    <path
       id="rect17695"
       style="fill:#8bae46;stroke:#8bae46;stroke-width:1.33333;stroke-miterlimit:8"
       d="m 410.5,120.5 h 141 v 74 h -141 z" />
    <g
       aria-label="A"
       transform="translate(465.237 174)"
       id="text17697"
       style="font-size:43px;font-family:'IntelOne Display Regular', 'IntelOne Display Regular_MSFontService', sans-serif;fill:#ffffff">
      <path
         d="M 8.385,-9.073 4.429,0 h -3.87 l 13.373,-30.1 h 3.612 L 30.874,0 h -3.913 l -3.999,-9.073 z m 7.267,-16.598 -5.805,13.33 h 11.696 z"
         id="path17852" />
    </g>
    <path
       id="rect17699"
       style="fill:#8bae46;stroke:#8bae46;stroke-width:1.33333;stroke-miterlimit:8"
       d="m 757.5,120.5 h 141 v 74 h -141 z" />
    <g
       aria-label="W"
       transform="translate(806.904 174)"
       id="text17701"
       style="font-size:43px;font-family:'IntelOne Display Regular', 'IntelOne Display Regular_MSFontService', sans-serif;fill:#ffffff">
      <path
         d="M 40.033,-30.1 33.153,0 h -3.87 L 20.726,-24.811 12.255,0 H 8.385 L 1.548,-30.1 h 3.784 l 5.332,24.682 8.342,-24.682 h 3.569 l 8.342,24.725 5.289,-24.725 z"
         id="path17856" />
    </g>
    <path
       id="rect17703"
       style="fill:#8bae46;stroke:#8bae46;stroke-width:1.33333;stroke-miterlimit:8"
       d="m 1116.5,38.500099 h 141 V 112.5001 h -141 z" />
    <g
       aria-label="A"
       transform="translate(1171.29 91)"
       id="text17705"
       style="font-size:43px;font-family:'IntelOne Display Regular', 'IntelOne Display Regular_MSFontService', sans-serif;fill:#ffffff">
      <path
         d="M 8.385,-9.073 4.429,0 h -3.87 l 13.373,-30.1 h 3.612 L 30.874,0 h -3.913 l -3.999,-9.073 z m 7.267,-16.598 -5.805,13.33 h 11.696 z"
         id="path17860" />
    </g>
    <path
       d="M898.5 326.167C898.5 310.887 910.887 298.5 926.167 298.5L1088.83 298.5C1104.11 298.5 1116.5 310.887 1116.5 326.167L1116.5 436.833C1116.5 452.113 1104.11 464.5 1088.83 464.5L926.167 464.5C910.887 464.5 898.5 452.113 898.5 436.833Z"
       stroke="#0068B5"
       stroke-width="3"
       stroke-miterlimit="8"
       fill="#FFFFFF"
       fill-rule="evenodd"
       id="path17707" />
    <g
       aria-label="Convolution"
       transform="translate(922.18 342)"
       id="text17709"
       style="font-size:32px;font-family:'IntelOne Display Regular', 'IntelOne Display Regular_MSFontService', sans-serif">
      <path
         d="m 4,-11.232 q 0,4 2.4,6.656 2.4,2.624 6.016,2.624 2.432,0 4.256,-1.12 1.856,-1.12 3.168,-3.36 l 2.112,1.216 q -1.44,2.752 -3.936,4.256 -2.464,1.472 -5.664,1.472 -4.864,0 -8.032,-3.296 -3.136,-3.296 -3.136,-8.384 0,-4.992 3.264,-8.352 3.296,-3.392 8.192,-3.392 3.104,0 5.472,1.472 2.4,1.44 3.744,4.128 L 19.648,-16 q -1.248,-2.272 -2.976,-3.36 -1.728,-1.088 -4.096,-1.088 -3.68,0 -6.144,2.624 Q 4,-15.2 4,-11.232 Z"
         id="path17863" />
      <path
         d="m 40.192004,-7.712 q 0,3.488 -2.336,5.856 -2.336,2.336 -5.76,2.336 -3.424,0 -5.728,-2.336 -2.272,-2.336 -2.272,-5.824 0,-3.488 2.336,-5.824 2.336,-2.368 5.76,-2.368 3.424,0 5.696,2.336 2.304,2.336 2.304,5.824 z m -13.44,0.032 q 0,2.496 1.536,4.192 1.568,1.696 3.872,1.696 2.272,0 3.808,-1.696 1.568,-1.696 1.568,-4.224 0,-2.464 -1.568,-4.16 -1.568,-1.728 -3.84,-1.728 -2.272,0 -3.84,1.696 -1.536,1.696 -1.536,4.224 z"
         id="path17865" />
      <path
         d="m 42.880021,-15.456 h 2.56 v 2.4 q 0.928,-1.344 2.336,-2.048 1.44,-0.736 3.2,-0.736 3.072,0 4.8,1.984 1.728,1.984 1.728,5.44 V 0 h -2.592 v -8.256 q 0,-2.432 -1.216,-3.84 -1.184,-1.408 -3.328,-1.408 -2.208,0 -3.552,1.504 -1.344,1.504 -1.344,3.904 V 0 h -2.592 z"
         id="path17867" />
      <path
         d="m 65.407981,0 -6.624,-15.456 h 2.848 l 5.024,12.352 4.992,-12.352 h 2.688 L 67.775981,0 Z"
         id="path17869" />
      <path
         d="m 90.879931,-7.712 q 0,3.488 -2.336,5.856 -2.336,2.336 -5.76,2.336 -3.424,0 -5.728,-2.336 -2.272,-2.336 -2.272,-5.824 0,-3.488 2.336,-5.824 2.336,-2.368 5.76,-2.368 3.424,0 5.696,2.336 2.304,2.336 2.304,5.824 z m -13.44,0.032 q 0,2.496 1.536,4.192 1.568,1.696 3.872,1.696 2.272,0 3.808,-1.696 1.568,-1.696 1.568,-4.224 0,-2.464 -1.568,-4.16 -1.568,-1.728 -3.84,-1.728 -2.272,0 -3.84,1.696 -1.536,1.696 -1.536,4.224 z"
         id="path17871" />
      <path
         d="m 93.855948,-22.4 h 2.624 V 0 h -2.624 z"
         id="path17873" />
      <path
         d="m 114.62393,0 h -2.592 v -2.368 q -0.928,1.344 -2.336,2.048 -1.408,0.672 -3.2,0.672 -3.04,0 -4.8,-1.984 -1.728002,-1.984 -1.728002,-5.408 v -8.416 h 2.624002 V -7.2 q 0,2.432 1.184,3.84 1.216,1.408 3.36,1.408 2.176,0 3.52,-1.504 1.344,-1.504 1.344,-3.904 v -8.096 h 2.624 z"
         id="path17875" />
      <path
         d="m 118.8479,-4.128 v -9.024 h -2.112 v -2.304 h 2.112 v -4.736 h 2.592 v 4.736 h 3.584 v 2.304 h -3.584 v 8.8 q 0,1.024 0.448,1.536 0.48,0.48 1.44,0.48 h 1.696 V 0 h -2.08 q -2.144,0 -3.136,-0.992 -0.96,-0.992 -0.96,-3.136 z"
         id="path17877" />
      <path
         d="m 127.8079,-20.64 h 2.88 v 2.848 h -2.88 z M 127.9359,0 v -15.456 h 2.624 V 0 Z"
         id="path17879" />
      <path
         d="m 149.63188,-7.712 q 0,3.488 -2.336,5.856 -2.336,2.336 -5.76,2.336 -3.424,0 -5.728,-2.336 -2.272,-2.336 -2.272,-5.824 0,-3.488 2.336,-5.824 2.336,-2.368 5.76,-2.368 3.424,0 5.696,2.336 2.304,2.336 2.304,5.824 z m -13.44,0.032 q 0,2.496 1.536,4.192 1.568,1.696 3.872,1.696 2.272,0 3.808,-1.696 1.568,-1.696 1.568,-4.224 0,-2.464 -1.568,-4.16 -1.568,-1.728 -3.84,-1.728 -2.272,0 -3.84,1.696 -1.536,1.696 -1.536,4.224 z"
         id="path17881" />
      <path
         d="m 152.3199,-15.456 h 2.56 v 2.4 q 0.928,-1.344 2.336,-2.048 1.44,-0.736 3.2,-0.736 3.072,0 4.8,1.984 1.728,1.984 1.728,5.44 V 0 h -2.592 v -8.256 q 0,-2.432 -1.216,-3.84 -1.184,-1.408 -3.328,-1.408 -2.208,0 -3.552,1.504 -1.344,1.504 -1.344,3.904 V 0 h -2.592 z"
         id="path17883" />
    </g>
    <path
       id="rect17711"
       style="fill:#b9d6e5;stroke:#0068b5;stroke-width:1.33333;stroke-miterlimit:8"
       d="m 203.5,363.5 h 39 v 38 h -39 z" />
    <g
       aria-label="0.1"
       transform="translate(215 387)"
       id="text17715"
       style="font-size:13px;font-family:'IntelOne Display Regular', 'IntelOne Display Regular_MSFontService', sans-serif">
      <path
         d="m 0.481,-4.329 v -0.416 q 0,-2.093 1.001,-3.328 1.001,-1.235 2.678,-1.235 1.677,0 2.652,1.222 0.988,1.222 0.988,3.315 v 0.416 q 0,2.093 -1.001,3.328 Q 5.811,0.208 4.134,0.208 2.457,0.208 1.469,-1.014 0.481,-2.236 0.481,-4.329 Z M 4.134,-8.32 q -1.196,0 -1.872,0.936 -0.663,0.936 -0.663,2.613 v 0.416 q 0,1.69 0.676,2.639 0.676,0.936 1.872,0.936 1.196,0 1.859,-0.936 0.676,-0.936 0.676,-2.613 v -0.416 q 0,-1.69 -0.676,-2.626 Q 5.33,-8.32 4.134,-8.32 Z"
         id="path17887" />
      <path
         d="M 8.7359823,-1.313 H 10.048982 V 0 H 8.7359823 Z"
         id="path17889" />
      <path
         d="m 12.9217,-8.112 h -1.404 V -9.1 h 2.496 V 0 h -1.092 z"
         id="path17891" />
    </g>
    <path
       id="rect17717"
       style="fill:#b9d6e5;stroke:#0068b5;stroke-width:1.33333;stroke-miterlimit:8"
       d="m 242.5,363.5 h 39 v 37 h -39 z" />
    <g
       aria-label="0.2"
       transform="translate(252.167 387)"
       id="text17719"
       style="font-size:13px;font-family:'IntelOne Display Regular', 'IntelOne Display Regular_MSFontService', sans-serif">
      <path
         d="m 0.481,-4.329 v -0.416 q 0,-2.093 1.001,-3.328 1.001,-1.235 2.678,-1.235 1.677,0 2.652,1.222 0.988,1.222 0.988,3.315 v 0.416 q 0,2.093 -1.001,3.328 Q 5.811,0.208 4.134,0.208 2.457,0.208 1.469,-1.014 0.481,-2.236 0.481,-4.329 Z M 4.134,-8.32 q -1.196,0 -1.872,0.936 -0.663,0.936 -0.663,2.613 v 0.416 q 0,1.69 0.676,2.639 0.676,0.936 1.872,0.936 1.196,0 1.859,-0.936 0.676,-0.936 0.676,-2.613 v -0.416 q 0,-1.69 -0.676,-2.626 Q 5.33,-8.32 4.134,-8.32 Z"
         id="path17895" />
      <path
         d="M 8.7359823,-1.313 H 10.048982 V 0 H 8.7359823 Z"
         id="path17897" />
      <path
         d="m 17.653989,0 h -6.487 v -0.91 l 3.146,-2.886 q 1.118,-1.014 1.521,-1.612 0.403,-0.598 0.403,-1.274 0,-0.715 -0.533,-1.17 -0.52,-0.468 -1.3,-0.468 -0.962,0 -1.521,0.598 -0.546,0.585 -0.585,1.651 h -1.066 q 0.026,-1.482 0.884,-2.353 0.871,-0.884 2.314,-0.884 1.274,0 2.093,0.741 0.832,0.728 0.832,1.859 0,0.91 -0.507,1.69 -0.494,0.767 -1.885,1.989 l -2.301,2.054 h 4.992 z"
         id="path17899" />
    </g>
    <path
       id="rect17721"
       style="fill:#86b3ca;stroke:#0068b5;stroke-width:1.33333;stroke-miterlimit:8"
       d="m 203.5,400.5 h 39 v 38 h -39 z" />
    <g
       aria-label="0.2"
       transform="translate(213.167 424)"
       id="text17723"
       style="font-size:13px;font-family:'IntelOne Display Regular', 'IntelOne Display Regular_MSFontService', sans-serif">
      <path
         d="m 0.481,-4.329 v -0.416 q 0,-2.093 1.001,-3.328 1.001,-1.235 2.678,-1.235 1.677,0 2.652,1.222 0.988,1.222 0.988,3.315 v 0.416 q 0,2.093 -1.001,3.328 Q 5.811,0.208 4.134,0.208 2.457,0.208 1.469,-1.014 0.481,-2.236 0.481,-4.329 Z M 4.134,-8.32 q -1.196,0 -1.872,0.936 -0.663,0.936 -0.663,2.613 v 0.416 q 0,1.69 0.676,2.639 0.676,0.936 1.872,0.936 1.196,0 1.859,-0.936 0.676,-0.936 0.676,-2.613 v -0.416 q 0,-1.69 -0.676,-2.626 Q 5.33,-8.32 4.134,-8.32 Z"
         id="path17903" />
      <path
         d="M 8.7359823,-1.313 H 10.048982 V 0 H 8.7359823 Z"
         id="path17905" />
      <path
         d="m 17.653989,0 h -6.487 v -0.91 l 3.146,-2.886 q 1.118,-1.014 1.521,-1.612 0.403,-0.598 0.403,-1.274 0,-0.715 -0.533,-1.17 -0.52,-0.468 -1.3,-0.468 -0.962,0 -1.521,0.598 -0.546,0.585 -0.585,1.651 h -1.066 q 0.026,-1.482 0.884,-2.353 0.871,-0.884 2.314,-0.884 1.274,0 2.093,0.741 0.832,0.728 0.832,1.859 0,0.91 -0.507,1.69 -0.494,0.767 -1.885,1.989 l -2.301,2.054 h 4.992 z"
         id="path17907" />
    </g>
    <path
       id="rect17725"
       style="fill:#86b3ca;stroke:#0068b5;stroke-width:1.33333;stroke-miterlimit:8"
       d="m 242.5,400.5 h 39 v 38 h -39 z" />
    <g
       aria-label="0.1"
       transform="translate(254 424)"
       id="text17727"
       style="font-size:13px;font-family:'IntelOne Display Regular', 'IntelOne Display Regular_MSFontService', sans-serif">
      <path
         d="m 0.481,-4.329 v -0.416 q 0,-2.093 1.001,-3.328 1.001,-1.235 2.678,-1.235 1.677,0 2.652,1.222 0.988,1.222 0.988,3.315 v 0.416 q 0,2.093 -1.001,3.328 Q 5.811,0.208 4.134,0.208 2.457,0.208 1.469,-1.014 0.481,-2.236 0.481,-4.329 Z M 4.134,-8.32 q -1.196,0 -1.872,0.936 -0.663,0.936 -0.663,2.613 v 0.416 q 0,1.69 0.676,2.639 0.676,0.936 1.872,0.936 1.196,0 1.859,-0.936 0.676,-0.936 0.676,-2.613 v -0.416 q 0,-1.69 -0.676,-2.626 Q 5.33,-8.32 4.134,-8.32 Z"
         id="path17911" />
      <path
         d="M 8.7359823,-1.313 H 10.048982 V 0 H 8.7359823 Z"
         id="path17913" />
      <path
         d="m 12.03798,-8.112 h -1.404 V -9.1 h 2.496 V 0 h -1.092 z"
         id="path17915" />
    </g>
    <path
       id="rect17729"
       style="fill:#b9d6e5;stroke:#0068b5;stroke-width:1.33333;stroke-miterlimit:8"
       d="m 320.5,363.5 h 39 v 38 h -39 z" />
    <g
       aria-label="0.3"
       transform="translate(330.083 387)"
       id="text17731"
       style="font-size:13px;font-family:'IntelOne Display Regular', 'IntelOne Display Regular_MSFontService', sans-serif">
      <path
         d="m 0.481,-4.329 v -0.416 q 0,-2.093 1.001,-3.328 1.001,-1.235 2.678,-1.235 1.677,0 2.652,1.222 0.988,1.222 0.988,3.315 v 0.416 q 0,2.093 -1.001,3.328 Q 5.811,0.208 4.134,0.208 2.457,0.208 1.469,-1.014 0.481,-2.236 0.481,-4.329 Z M 4.134,-8.32 q -1.196,0 -1.872,0.936 -0.663,0.936 -0.663,2.613 v 0.416 q 0,1.69 0.676,2.639 0.676,0.936 1.872,0.936 1.196,0 1.859,-0.936 0.676,-0.936 0.676,-2.613 v -0.416 q 0,-1.69 -0.676,-2.626 Q 5.33,-8.32 4.134,-8.32 Z"
         id="path17919" />
      <path
         d="M 8.7359823,-1.313 H 10.048982 V 0 H 8.7359823 Z"
         id="path17921" />
      <path
         d="m 14.455989,-0.78 q 0.923,0 1.534,-0.507 0.624,-0.52 0.624,-1.287 0,-0.806 -0.637,-1.274 -0.624,-0.468 -1.742,-0.468 h -0.572 v -0.923 h 0.546 q 1.027,0 1.625,-0.442 0.598,-0.455 0.598,-1.157 0,-0.65 -0.546,-1.066 -0.546,-0.416 -1.43,-0.416 -0.936,0 -1.495,0.507 -0.546,0.494 -0.611,1.365 h -1.066 q 0.039,-1.222 0.923,-2.041 0.897,-0.819 2.301,-0.819 1.339,0 2.184,0.689 0.858,0.676 0.858,1.69 0,0.754 -0.442,1.313 -0.429,0.559 -1.248,0.845 0.936,0.26 1.404,0.819 0.468,0.559 0.468,1.43 0,1.157 -0.936,1.95 -0.936,0.78 -2.366,0.78 -1.521,0 -2.418,-0.819 -0.884,-0.832 -0.897,-2.275 h 1.053 q 0.052,1.014 0.637,1.56 0.598,0.546 1.651,0.546 z"
         id="path17923" />
    </g>
    <path
       id="rect17733"
       style="fill:#b9d6e5;stroke:#0068b5;stroke-width:1.33333;stroke-miterlimit:8"
       d="m 359.5,363.5 h 39 v 37 h -39 z" />
    <g
       aria-label="0.4"
       transform="translate(368.833 387)"
       id="text17735"
       style="font-size:13px;font-family:'IntelOne Display Regular', 'IntelOne Display Regular_MSFontService', sans-serif">
      <path
         d="m 0.481,-4.329 v -0.416 q 0,-2.093 1.001,-3.328 1.001,-1.235 2.678,-1.235 1.677,0 2.652,1.222 0.988,1.222 0.988,3.315 v 0.416 q 0,2.093 -1.001,3.328 Q 5.811,0.208 4.134,0.208 2.457,0.208 1.469,-1.014 0.481,-2.236 0.481,-4.329 Z M 4.134,-8.32 q -1.196,0 -1.872,0.936 -0.663,0.936 -0.663,2.613 v 0.416 q 0,1.69 0.676,2.639 0.676,0.936 1.872,0.936 1.196,0 1.859,-0.936 0.676,-0.936 0.676,-2.613 v -0.416 q 0,-1.69 -0.676,-2.626 Q 5.33,-8.32 4.134,-8.32 Z"
         id="path17927" />
      <path
         d="M 8.7359823,-1.313 H 10.048982 V 0 H 8.7359823 Z"
         id="path17929" />
      <path
         d="m 15.781989,-2.145 h -4.94 v -0.832 l 4.498,-6.123 h 1.534 v 6.032 h 1.534 v 0.923 h -1.534 V 0 h -1.092 z m 0.039,-6.071 -3.783,5.148 h 3.783 z"
         id="path17931" />
    </g>
    <path
       id="rect17737"
       style="fill:#86b3ca;stroke:#0068b5;stroke-width:1.33333;stroke-miterlimit:8"
       d="m 320.5,400.5 h 39 v 38 h -39 z" />
    <g
       aria-label="0.2"
       transform="translate(330.167 424)"
       id="text17739"
       style="font-size:13px;font-family:'IntelOne Display Regular', 'IntelOne Display Regular_MSFontService', sans-serif">
      <path
         d="m 0.481,-4.329 v -0.416 q 0,-2.093 1.001,-3.328 1.001,-1.235 2.678,-1.235 1.677,0 2.652,1.222 0.988,1.222 0.988,3.315 v 0.416 q 0,2.093 -1.001,3.328 Q 5.811,0.208 4.134,0.208 2.457,0.208 1.469,-1.014 0.481,-2.236 0.481,-4.329 Z M 4.134,-8.32 q -1.196,0 -1.872,0.936 -0.663,0.936 -0.663,2.613 v 0.416 q 0,1.69 0.676,2.639 0.676,0.936 1.872,0.936 1.196,0 1.859,-0.936 0.676,-0.936 0.676,-2.613 v -0.416 q 0,-1.69 -0.676,-2.626 Q 5.33,-8.32 4.134,-8.32 Z"
         id="path17935" />
      <path
         d="M 8.7359823,-1.313 H 10.048982 V 0 H 8.7359823 Z"
         id="path17937" />
      <path
         d="m 17.653989,0 h -6.487 v -0.91 l 3.146,-2.886 q 1.118,-1.014 1.521,-1.612 0.403,-0.598 0.403,-1.274 0,-0.715 -0.533,-1.17 -0.52,-0.468 -1.3,-0.468 -0.962,0 -1.521,0.598 -0.546,0.585 -0.585,1.651 h -1.066 q 0.026,-1.482 0.884,-2.353 0.871,-0.884 2.314,-0.884 1.274,0 2.093,0.741 0.832,0.728 0.832,1.859 0,0.91 -0.507,1.69 -0.494,0.767 -1.885,1.989 l -2.301,2.054 h 4.992 z"
         id="path17939" />
    </g>
    <path
       id="rect17741"
       style="fill:#86b3ca;stroke:#0068b5;stroke-width:1.33333;stroke-miterlimit:8"
       d="m 359.5,400.5 h 39 v 38 h -39 z" />
    <g
       aria-label="0.5"
       transform="translate(369 424)"
       id="text17743"
       style="font-size:13px;font-family:'IntelOne Display Regular', 'IntelOne Display Regular_MSFontService', sans-serif">
      <path
         d="m 0.481,-4.329 v -0.416 q 0,-2.093 1.001,-3.328 1.001,-1.235 2.678,-1.235 1.677,0 2.652,1.222 0.988,1.222 0.988,3.315 v 0.416 q 0,2.093 -1.001,3.328 Q 5.811,0.208 4.134,0.208 2.457,0.208 1.469,-1.014 0.481,-2.236 0.481,-4.329 Z M 4.134,-8.32 q -1.196,0 -1.872,0.936 -0.663,0.936 -0.663,2.613 v 0.416 q 0,1.69 0.676,2.639 0.676,0.936 1.872,0.936 1.196,0 1.859,-0.936 0.676,-0.936 0.676,-2.613 v -0.416 q 0,-1.69 -0.676,-2.626 Q 5.33,-8.32 4.134,-8.32 Z"
         id="path17943" />
      <path
         d="M 8.7359823,-1.313 H 10.048982 V 0 H 8.7359823 Z"
         id="path17945" />
      <path
         d="m 17.822989,-2.951 q 0,1.365 -0.975,2.262 -0.962,0.897 -2.496,0.897 -1.17,0 -2.041,-0.572 -0.871,-0.585 -1.222,-1.586 l 0.884,-0.455 q 0.338,0.793 0.962,1.222 0.624,0.416 1.456,0.416 1.014,0 1.664,-0.611 0.65,-0.611 0.65,-1.547 0,-0.897 -0.624,-1.443 -0.624,-0.559 -1.586,-0.559 -0.637,0 -1.222,0.26 -0.585,0.26 -1.066,0.767 l -0.78,-0.117 -0.039,-0.065 0.364,-5.018 h 5.473 v 1.014 h -4.524 l -0.247,2.925 q 0.494,-0.364 1.066,-0.546 0.585,-0.195 1.183,-0.195 1.352,0 2.236,0.819 0.884,0.806 0.884,2.132 z"
         id="path17947" />
    </g>
    <path
       d="M292.852 394.557 297.196 391.334 301 396.461 304.804 391.334 309.148 394.557 304.368 401 309.148 407.443 304.804 410.666 301 405.539 297.196 410.666 292.852 407.443 297.632 401Z"
       stroke="#000000"
       stroke-width="1.33333"
       stroke-miterlimit="8"
       fill-rule="evenodd"
       id="path17745" />
    <path
       d="M121.5 194.5 121.5 381.167"
       stroke="#0068B5"
       stroke-width="3"
       stroke-miterlimit="8"
       fill="none"
       fill-rule="evenodd"
       id="path17747" />
    <path
       d="M481.5 194.5 481.5 381.167"
       stroke="#0068B5"
       stroke-width="3"
       stroke-miterlimit="8"
       fill="none"
       fill-rule="evenodd"
       id="path17749" />
    <path
       d="M121.5 380 184.564 380 184.564 383 121.5 383ZM183.064 377 192.064 381.5 183.064 386Z"
       fill="#0068B5"
       id="path17751" />
    <path
       d="M2.23174e-06-1.5 63.064-1.49991 63.064 1.50009-2.23174e-06 1.5ZM61.564-4.49991 70.564 0.000104987 61.564 4.50009Z"
       fill="#0068B5"
       transform="matrix(-1 0 0 1 481.064 381.5)"
       id="path17753" />
    <path
       d="M548.5 362.75 731 362.75 731 347.5 761.5 378 731 408.5 731 393.25 548.5 393.25Z"
       stroke="#C81326"
       stroke-width="1.33333"
       stroke-miterlimit="8"
       fill="#C81326"
       fill-rule="evenodd"
       id="path17755" />
    <path
       id="rect17757"
       style="fill:#b9d6e5;stroke:#0068b5;stroke-width:1.33333;stroke-miterlimit:8"
       d="m 910.5,363.5 h 39 v 38 h -39 z" />
    <g
       aria-label="1"
       transform="translate(927.441 387)"
       id="text17759"
       style="font-size:13px;font-family:'IntelOne Display Regular', 'IntelOne Display Regular_MSFontService', sans-serif">
      <path
         d="M 1.755,-8.112 H 0.351 V -9.1 H 2.847 V 0 H 1.755 Z"
         id="path17951" />
    </g>
    <path
       id="rect17761"
       style="fill:#b9d6e5;stroke:#0068b5;stroke-width:1.33333;stroke-miterlimit:8"
       d="m 949.5,363.5 h 39 v 37 h -39 z" />
    <g
       aria-label="2"
       transform="translate(964.607 387)"
       id="text17763"
       style="font-size:13px;font-family:'IntelOne Display Regular', 'IntelOne Display Regular_MSFontService', sans-serif">
      <path
         d="M 6.981,0 H 0.494 V -0.91 L 3.64,-3.796 q 1.118,-1.014 1.521,-1.612 0.403,-0.598 0.403,-1.274 0,-0.715 -0.533,-1.17 -0.52,-0.468 -1.3,-0.468 -0.962,0 -1.521,0.598 -0.546,0.585 -0.585,1.651 H 0.559 q 0.026,-1.482 0.884,-2.353 0.871,-0.884 2.314,-0.884 1.274,0 2.093,0.741 0.832,0.728 0.832,1.859 0,0.91 -0.507,1.69 -0.494,0.767 -1.885,1.989 l -2.301,2.054 h 4.992 z"
         id="path17955" />
    </g>
    <path
       id="rect17765"
       style="fill:#86b3ca;stroke:#0068b5;stroke-width:1.33333;stroke-miterlimit:8"
       d="m 910.5,400.5 h 39 v 38 h -39 z" />
    <g
       aria-label="2"
       transform="translate(925.607 424)"
       id="text17767"
       style="font-size:13px;font-family:'IntelOne Display Regular', 'IntelOne Display Regular_MSFontService', sans-serif">
      <path
         d="M 6.981,0 H 0.494 V -0.91 L 3.64,-3.796 q 1.118,-1.014 1.521,-1.612 0.403,-0.598 0.403,-1.274 0,-0.715 -0.533,-1.17 -0.52,-0.468 -1.3,-0.468 -0.962,0 -1.521,0.598 -0.546,0.585 -0.585,1.651 H 0.559 q 0.026,-1.482 0.884,-2.353 0.871,-0.884 2.314,-0.884 1.274,0 2.093,0.741 0.832,0.728 0.832,1.859 0,0.91 -0.507,1.69 -0.494,0.767 -1.885,1.989 l -2.301,2.054 h 4.992 z"
         id="path17959" />
    </g>
    <path
       id="rect17769"
       style="fill:#86b3ca;stroke:#0068b5;stroke-width:1.33333;stroke-miterlimit:8"
       d="m 949.5,400.5 h 39 v 38 h -39 z" />
    <g
       aria-label="1"
       transform="translate(966.441 424)"
       id="text17771"
       style="font-size:13px;font-family:'IntelOne Display Regular', 'IntelOne Display Regular_MSFontService', sans-serif">
      <path
         d="M 1.755,-8.112 H 0.351 V -9.1 H 2.847 V 0 H 1.755 Z"
         id="path17963" />
    </g>
    <path
       id="rect17773"
       style="fill:#b9d6e5;stroke:#0068b5;stroke-width:1.33333;stroke-miterlimit:8"
       d="m 1027.5,363.5 h 39 v 38 h -39 z" />
    <g
       aria-label="3"
       transform="translate(1042.52 387)"
       id="text17775"
       style="font-size:13px;font-family:'IntelOne Display Regular', 'IntelOne Display Regular_MSFontService', sans-serif">
      <path
         d="m 3.783,-0.78 q 0.923,0 1.534,-0.507 0.624,-0.52 0.624,-1.287 0,-0.806 -0.637,-1.274 Q 4.68,-4.316 3.562,-4.316 H 2.99 v -0.923 h 0.546 q 1.027,0 1.625,-0.442 0.598,-0.455 0.598,-1.157 0,-0.65 -0.546,-1.066 -0.546,-0.416 -1.43,-0.416 -0.936,0 -1.495,0.507 -0.546,0.494 -0.611,1.365 H 0.611 q 0.039,-1.222 0.923,-2.041 0.897,-0.819 2.301,-0.819 1.339,0 2.184,0.689 0.858,0.676 0.858,1.69 0,0.754 -0.442,1.313 -0.429,0.559 -1.248,0.845 0.936,0.26 1.404,0.819 0.468,0.559 0.468,1.43 0,1.157 -0.936,1.95 -0.936,0.78 -2.366,0.78 -1.521,0 -2.418,-0.819 -0.884,-0.832 -0.897,-2.275 h 1.053 q 0.052,1.014 0.637,1.56 0.598,0.546 1.651,0.546 z"
         id="path17967" />
    </g>
    <path
       id="rect17777"
       style="fill:#b9d6e5;stroke:#0068b5;stroke-width:1.33333;stroke-miterlimit:8"
       d="m 1066.5,363.5 h 39 v 37 h -39 z" />
    <g
       aria-label="4"
       transform="translate(1081.27 387)"
       id="text17779"
       style="font-size:13px;font-family:'IntelOne Display Regular', 'IntelOne Display Regular_MSFontService', sans-serif">
      <path
         d="M 5.109,-2.145 H 0.169 V -2.977 L 4.667,-9.1 h 1.534 v 6.032 h 1.534 v 0.923 H 6.201 V 0 H 5.109 Z m 0.039,-6.071 -3.783,5.148 h 3.783 z"
         id="path17971" />
    </g>
    <path
       id="rect17781"
       style="fill:#86b3ca;stroke:#0068b5;stroke-width:1.33333;stroke-miterlimit:8"
       d="m 1027.5,400.5 h 39 v 38 h -39 z" />
    <g
       aria-label="2"
       transform="translate(1042.61 424)"
       id="text17783"
       style="font-size:13px;font-family:'IntelOne Display Regular', 'IntelOne Display Regular_MSFontService', sans-serif">
      <path
         d="M 6.981,0 H 0.494 V -0.91 L 3.64,-3.796 q 1.118,-1.014 1.521,-1.612 0.403,-0.598 0.403,-1.274 0,-0.715 -0.533,-1.17 -0.52,-0.468 -1.3,-0.468 -0.962,0 -1.521,0.598 -0.546,0.585 -0.585,1.651 H 0.559 q 0.026,-1.482 0.884,-2.353 0.871,-0.884 2.314,-0.884 1.274,0 2.093,0.741 0.832,0.728 0.832,1.859 0,0.91 -0.507,1.69 -0.494,0.767 -1.885,1.989 l -2.301,2.054 h 4.992 z"
         id="path17975" />
    </g>
    <path
       id="rect17785"
       style="fill:#86b3ca;stroke:#0068b5;stroke-width:1.33333;stroke-miterlimit:8"
       d="m 1066.5,400.5 h 39 v 38 h -39 z" />
    <g
       aria-label="6"
       transform="translate(1081.52 424)"
       id="text17787"
       style="font-size:13px;font-family:'IntelOne Display Regular', 'IntelOne Display Regular_MSFontService', sans-serif">
      <path
         d="m 4.004,-6.019 q 1.404,0 2.288,0.832 0.884,0.832 0.884,2.145 0,1.378 -1.014,2.314 -1.001,0.923 -2.496,0.923 -1.417,0 -2.353,-0.871 -0.936,-0.884 -0.936,-2.236 0,-1.092 0.468,-2.041 0.481,-0.949 1.638,-2.184 L 4.303,-9.1 h 1.404 v 0.026 l -2.431,2.509 q -0.221,0.234 -0.429,0.468 -0.208,0.234 -0.403,0.468 0.351,-0.195 0.741,-0.286 0.39,-0.104 0.819,-0.104 z m 2.054,2.99 q 0,-0.923 -0.611,-1.495 -0.611,-0.572 -1.612,-0.572 -1.001,0 -1.677,0.611 -0.663,0.598 -0.663,1.508 0,0.962 0.624,1.573 0.637,0.611 1.586,0.611 1.027,0 1.69,-0.637 0.663,-0.637 0.663,-1.599 z"
         id="path17979" />
    </g>
    <path
       d="M999.852 394.557 1004.2 391.334 1008 396.461 1011.8 391.334 1016.15 394.557 1011.37 401 1016.15 407.443 1011.8 410.666 1008 405.539 1004.2 410.666 999.852 407.443 1004.63 401Z"
       stroke="#000000"
       stroke-width="1.33333"
       stroke-miterlimit="8"
       fill-rule="evenodd"
       id="path17789" />
    <path
       d="M827.5 194.5 827.5 381.167"
       stroke="#0068B5"
       stroke-width="3"
       stroke-miterlimit="8"
       fill="none"
       fill-rule="evenodd"
       id="path17791" />
    <path
       d="M827.5 380 890.565 380 890.565 383 827.5 383ZM889.065 377 898.065 381.5 889.065 386Z"
       fill="#0068B5"
       id="path17793" />
    <path
       d="M1130.5 191C1130.5 186.858 1133.86 183.5 1138 183.5L1236 183.5C1240.14 183.5 1243.5 186.858 1243.5 191L1243.5 221C1243.5 225.142 1240.14 228.5 1236 228.5L1138 228.5C1133.86 228.5 1130.5 225.142 1130.5 221Z"
       stroke="#0068B5"
       stroke-width="3"
       stroke-miterlimit="8"
       fill="#FFFFFF"
       fill-rule="evenodd"
       id="path17795" />
    <g
       aria-label="Quantize"
       transform="translate(1144.87 213)"
       id="text17797"
       style="font-size:21px;font-family:'IntelOne Display Regular', 'IntelOne Display Regular_MSFontService', sans-serif">
      <path
         d="M 7.434,0.315 V 0.252 Q 4.536,-0.042 2.646,-2.163 0.777,-4.305 0.777,-7.329 q 0,-3.255 2.163,-5.481 2.163,-2.226 5.334,-2.226 3.192,0 5.313,2.205 2.142,2.184 2.142,5.46 0,3.003 -1.869,5.166 -1.869,2.142 -4.746,2.457 0.021,0.966 0.441,1.365 0.42,0.42 1.407,0.42 h 1.323 V 3.444 H 10.752 Q 9.072,3.444 8.253,2.667 7.434,1.89 7.434,0.315 Z M 2.625,-7.371 q 0,2.583 1.617,4.347 1.638,1.743 4.032,1.743 2.394,0 3.99,-1.722 1.617,-1.743 1.617,-4.326 0,-2.583 -1.617,-4.326 -1.617,-1.764 -4.011,-1.764 -2.415,0 -4.032,1.743 -1.596,1.722 -1.596,4.305 z"
         id="path17982" />
      <path
         d="m 27.110985,0 h -1.701 v -1.554 q -0.609,0.882 -1.533,1.344 -0.924,0.441 -2.1,0.441 -1.995,0 -3.15,-1.302 -1.134,-1.302 -1.134,-3.549 v -5.523 h 1.722 v 5.418 q 0,1.596 0.777,2.52 0.798,0.924 2.205,0.924 1.428,0 2.31,-0.987 0.882,-0.987 0.882,-2.562 v -5.313 h 1.722 z"
         id="path17984" />
      <path
         d="m 38.030969,0 h -1.659 v -1.659 q -0.609,0.882 -1.659,1.386 -1.029,0.483 -2.226,0.483 -1.68,0 -2.73,-0.84 -1.05,-0.861 -1.05,-2.247 0,-1.533 1.176,-2.31 1.176,-0.798 3.486,-0.798 h 2.982 q -0.021,-1.428 -0.756,-2.205 -0.714,-0.777 -2.058,-0.777 -0.798,0 -1.575,0.336 -0.777,0.336 -1.533,1.029 l -0.903,-1.134 q 0.882,-0.84 1.932,-1.26 1.05,-0.441 2.247,-0.441 2.037,0 3.171,1.218 1.155,1.197 1.155,3.318 z m -1.68,-4.662 h -2.961 q -1.533,0 -2.268,0.42 -0.735,0.42 -0.735,1.323 0,0.756 0.63,1.26 0.651,0.504 1.659,0.504 1.512,0 2.541,-0.966 1.05,-0.987 1.134,-2.541 z"
         id="path17986" />
      <path
         d="m 40.130956,-10.143 h 1.68 v 1.575 q 0.609,-0.882 1.533,-1.344 0.945,-0.483 2.1,-0.483 2.016,0 3.15,1.302 1.134,1.302 1.134,3.57 V 0 h -1.701 v -5.418 q 0,-1.596 -0.798,-2.52 -0.777,-0.924 -2.184,-0.924 -1.449,0 -2.331,0.987 -0.882,0.987 -0.882,2.562 V 0 h -1.701 z"
         id="path17988" />
      <path
         d="m 52.394939,-2.709 v -5.922 h -1.386 v -1.512 h 1.386 v -3.108 h 1.701 v 3.108 h 2.352 v 1.512 h -2.352 v 5.775 q 0,0.672 0.294,1.008 0.315,0.315 0.945,0.315 h 1.113 V 0 h -1.365 q -1.407,0 -2.058,-0.651 -0.63,-0.651 -0.63,-2.058 z"
         id="path17990" />
      <path
         d="m 58.274938,-13.545 h 1.89 v 1.869 h -1.89 z M 58.358938,0 v -10.143 h 1.722 V 0 Z"
         id="path17992" />
      <path
         d="m 70.727927,0 h -8.883 v -1.344 l 6.468,-7.371 h -6.216 v -1.428 h 8.358 v 1.344 l -6.405,7.371 h 6.678 z"
         id="path17994" />
      <path
         d="m 76.817951,-1.134 q 1.008,0 1.848,-0.42 0.861,-0.441 1.575,-1.323 l 1.029,0.945 q -0.861,1.134 -2.016,1.701 -1.155,0.546 -2.583,0.546 -2.289,0 -3.759,-1.491 -1.449,-1.512 -1.449,-3.864 0,-2.289 1.491,-3.822 1.491,-1.533 3.675,-1.533 2.226,0 3.612,1.449 1.386,1.449 1.386,3.78 0,0.168 -0.021,0.399 -0.021,0.21 -0.042,0.315 h -8.337 q 0.168,1.491 1.155,2.415 1.008,0.903 2.436,0.903 z m -0.168,-7.812 q -1.323,0 -2.268,0.861 -0.945,0.861 -1.155,2.31 h 6.678 q -0.189,-1.47 -1.071,-2.31 -0.882,-0.861 -2.184,-0.861 z"
         id="path17996" />
    </g>
    <path
       d="M1189 112.5 1189 175.282 1186 175.282 1186 112.5ZM1192 173.782 1187.5 182.782 1183 173.782Z"
       fill="#0068B5"
       id="path17799" />
    <path
       d="M0.00272271-1.5 63.0668-1.38553 63.0613 1.61447-0.00272271 1.5ZM61.5723-4.38824 70.5641 0.128084 61.5559 4.61174Z"
       fill="#0068B5"
       transform="matrix(-1 0 0 1 1187.06 381.5)"
       id="path17801" />
    <path
       d="M0 0 0.000104987 154.128"
       stroke="#0068B5"
       stroke-width="3"
       stroke-miterlimit="8"
       fill="none"
       fill-rule="evenodd"
       transform="matrix(-1 0 0 1 1187.5 228.5)"
       id="path17803" />
    <g
       aria-label="float32float32float32Quantizationint8int8"
       transform="translate(21.4628 278)"
       id="text17815"
       style="font-size:24px;font-family:'IntelOne Display Regular', 'IntelOne Display Regular_MSFontService', sans-serif">
      <path
         d="M 2.04,-9.864 H 0.456 v -1.728 H 2.04 v -2.184 q 0,-1.464 0.768,-2.232 Q 3.6,-16.8 5.064,-16.8 h 1.584 v 1.632 H 5.352 q -0.672,0 -1.008,0.36 -0.336,0.36 -0.336,1.08 v 2.136 h 2.64 v 1.728 H 4.008 V 0 H 2.04 Z M 8.4,-16.8 h 1.968 V 0 H 8.4 Z"
         id="path17999" />
      <path
         d="m 24.671988,-5.784 q 0,2.616 -1.752,4.392 -1.752,1.752 -4.32,1.752 -2.568,0 -4.296,-1.752 -1.704,-1.752 -1.704,-4.368 0,-2.616 1.752,-4.368 1.752,-1.776 4.32,-1.776 2.568,0 4.272,1.752 1.728,1.752 1.728,4.368 z m -10.08,0.024 q 0,1.872 1.152,3.144 1.176,1.272 2.904,1.272 1.704,0 2.856,-1.272 1.176,-1.272 1.176,-3.168 0,-1.848 -1.176,-3.12 -1.176,-1.296 -2.88,-1.296 -1.704,0 -2.88,1.272 -1.152,1.272 -1.152,3.168 z"
         id="path18001" />
      <path
         d="m 36.648,0 h -1.896 v -1.896 q -0.696,1.008 -1.896,1.584 -1.176,0.552 -2.544,0.552 -1.92,0 -3.12,-0.96 -1.2,-0.984 -1.2,-2.568 0,-1.752 1.344,-2.64 1.344,-0.912 3.984,-0.912 h 3.408 q -0.024,-1.632 -0.864,-2.52 -0.816,-0.888 -2.352,-0.888 -0.912,0 -1.8,0.384 -0.888,0.384 -1.752,1.176 l -1.032,-1.296 q 1.008,-0.96 2.208,-1.44 1.2,-0.504 2.568,-0.504 2.328,0 3.624,1.392 1.32,1.368 1.32,3.792 z m -1.92,-5.328 h -3.384 q -1.752,0 -2.592,0.48 -0.84,0.48 -0.84,1.512 0,0.864 0.72,1.44 0.744,0.576 1.896,0.576 1.728,0 2.904,-1.104 1.2,-1.128 1.296,-2.904 z"
         id="path18003" />
      <path
         d="m 39.576006,-3.096 v -6.768 h -1.584 v -1.728 h 1.584 v -3.552 h 1.944 v 3.552 h 2.688 v 1.728 h -2.688 v 6.6 q 0,0.768 0.336,1.152 0.36,0.36 1.08,0.36 h 1.272 V 0 h -1.56 q -1.608,0 -2.352,-0.744 -0.72,-0.744 -0.72,-2.352 z"
         id="path18005" />
      <path
         d="m 51.888007,-1.44 q 1.704,0 2.832,-0.936 1.152,-0.96 1.152,-2.376 0,-1.488 -1.176,-2.352 -1.152,-0.864 -3.216,-0.864 h -1.056 v -1.704 h 1.008 q 1.896,0 3,-0.816 1.104,-0.84 1.104,-2.136 0,-1.2 -1.008,-1.968 -1.008,-0.768 -2.64,-0.768 -1.728,0 -2.76,0.936 -1.008,0.912 -1.128,2.52 h -1.968 q 0.072,-2.256 1.704,-3.768 1.656,-1.512 4.248,-1.512 2.472,0 4.032,1.272 1.584,1.248 1.584,3.12 0,1.392 -0.816,2.424 -0.792,1.032 -2.304,1.56 1.728,0.48 2.592,1.512 0.864,1.032 0.864,2.64 0,2.136 -1.728,3.6 -1.728,1.44 -4.368,1.44 -2.808,0 -4.464,-1.512 -1.632,-1.536 -1.656,-4.2 h 1.944 q 0.096,1.872 1.176,2.88 1.104,1.008 3.048,1.008 z"
         id="path18007" />
      <path
         d="m 71.688018,0 h -11.976 v -1.68 l 5.808,-5.328 q 2.064,-1.872 2.808,-2.976 0.744,-1.104 0.744,-2.352 0,-1.32 -0.984,-2.16 -0.96,-0.864 -2.4,-0.864 -1.776,0 -2.808,1.104 -1.008,1.08 -1.08,3.048 h -1.968 q 0.048,-2.736 1.632,-4.344 1.608,-1.632 4.272,-1.632 2.352,0 3.864,1.368 1.536,1.344 1.536,3.432 0,1.68 -0.936,3.12 -0.912,1.416 -3.48,3.672 l -4.248,3.792 h 9.216 z"
         id="path18009" />
      <path
         d="m 478.90301,-9.864 h -1.584 v -1.728 h 1.584 v -2.184 q 0,-1.464 0.768,-2.232 0.792,-0.792 2.256,-0.792 h 1.584 v 1.632 h -1.296 q -0.672,0 -1.008,0.36 -0.336,0.36 -0.336,1.08 v 2.136 h 2.64 v 1.728 h -2.64 V 0 h -1.968 z m 6.36,-6.936 h 1.968 V 0 h -1.968 z"
         id="path18011" />
      <path
         d="m 501.53499,-5.784 q 0,2.616 -1.752,4.392 -1.752,1.752 -4.32,1.752 -2.568,0 -4.296,-1.752 -1.704,-1.752 -1.704,-4.368 0,-2.616 1.752,-4.368 1.752,-1.776 4.32,-1.776 2.568,0 4.272,1.752 1.728,1.752 1.728,4.368 z m -10.08,0.024 q 0,1.872 1.152,3.144 1.176,1.272 2.904,1.272 1.704,0 2.856,-1.272 1.176,-1.272 1.176,-3.168 0,-1.848 -1.176,-3.12 -1.176,-1.296 -2.88,-1.296 -1.704,0 -2.88,1.272 -1.152,1.272 -1.152,3.168 z"
         id="path18013" />
      <path
         d="m 513.51101,0 h -1.896 v -1.896 q -0.696,1.008 -1.896,1.584 -1.176,0.552 -2.544,0.552 -1.92,0 -3.12,-0.96 -1.2,-0.984 -1.2,-2.568 0,-1.752 1.344,-2.64 1.344,-0.912 3.984,-0.912 h 3.408 q -0.024,-1.632 -0.864,-2.52 -0.816,-0.888 -2.352,-0.888 -0.912,0 -1.8,0.384 -0.888,0.384 -1.752,1.176 l -1.032,-1.296 q 1.008,-0.96 2.208,-1.44 1.2,-0.504 2.568,-0.504 2.328,0 3.624,1.392 1.32,1.368 1.32,3.792 z m -1.92,-5.328 h -3.384 q -1.752,0 -2.592,0.48 -0.84,0.48 -0.84,1.512 0,0.864 0.72,1.44 0.744,0.576 1.896,0.576 1.728,0 2.904,-1.104 1.2,-1.128 1.296,-2.904 z"
         id="path18015" />
      <path
         d="m 516.43901,-3.096 v -6.768 h -1.584 v -1.728 h 1.584 v -3.552 h 1.944 v 3.552 h 2.688 v 1.728 h -2.688 v 6.6 q 0,0.768 0.336,1.152 0.36,0.36 1.08,0.36 h 1.272 V 0 h -1.56 q -1.608,0 -2.352,-0.744 -0.72,-0.744 -0.72,-2.352 z"
         id="path18017" />
      <path
         d="m 528.75101,-1.44 q 1.704,0 2.832,-0.936 1.152,-0.96 1.152,-2.376 0,-1.488 -1.176,-2.352 -1.152,-0.864 -3.216,-0.864 h -1.056 v -1.704 h 1.008 q 1.896,0 3,-0.816 1.104,-0.84 1.104,-2.136 0,-1.2 -1.008,-1.968 -1.008,-0.768 -2.64,-0.768 -1.728,0 -2.76,0.936 -1.008,0.912 -1.128,2.52 h -1.968 q 0.072,-2.256 1.704,-3.768 1.656,-1.512 4.248,-1.512 2.472,0 4.032,1.272 1.584,1.248 1.584,3.12 0,1.392 -0.816,2.424 -0.792,1.032 -2.304,1.56 1.728,0.48 2.592,1.512 0.864,1.032 0.864,2.64 0,2.136 -1.728,3.6 -1.728,1.44 -4.368,1.44 -2.808,0 -4.464,-1.512 -1.632,-1.536 -1.656,-4.2 h 1.944 q 0.096,1.872 1.176,2.88 1.104,1.008 3.048,1.008 z"
         id="path18019" />
      <path
         d="m 548.55102,0 h -11.976 v -1.68 l 5.808,-5.328 q 2.064,-1.872 2.808,-2.976 0.744,-1.104 0.744,-2.352 0,-1.32 -0.984,-2.16 -0.96,-0.864 -2.4,-0.864 -1.776,0 -2.808,1.104 -1.008,1.08 -1.08,3.048 h -1.968 q 0.048,-2.736 1.632,-4.344 1.608,-1.632 4.272,-1.632 2.352,0 3.864,1.368 1.536,1.344 1.536,3.432 0,1.68 -0.936,3.12 -0.912,1.416 -3.48,3.672 l -4.248,3.792 h 9.216 z"
         id="path18021" />
      <path
         d="m 1177.05,-130.864 h -1.584 v -1.728 h 1.584 v -2.184 q 0,-1.464 0.768,-2.232 0.792,-0.792 2.256,-0.792 h 1.584 v 1.632 h -1.296 q -0.672,0 -1.008,0.36 -0.336,0.36 -0.336,1.08 v 2.136 h 2.64 v 1.728 h -2.64 V -121 h -1.968 z m 6.36,-6.936 h 1.968 v 16.8 h -1.968 z"
         id="path18023" />
      <path
         d="m 1199.682,-126.784 q 0,2.616 -1.752,4.392 -1.752,1.752 -4.32,1.752 -2.568,0 -4.296,-1.752 -1.704,-1.752 -1.704,-4.368 0,-2.616 1.752,-4.368 1.752,-1.776 4.32,-1.776 2.568,0 4.272,1.752 1.728,1.752 1.728,4.368 z m -10.08,0.024 q 0,1.872 1.152,3.144 1.176,1.272 2.904,1.272 1.704,0 2.856,-1.272 1.176,-1.272 1.176,-3.168 0,-1.848 -1.176,-3.12 -1.176,-1.296 -2.88,-1.296 -1.704,0 -2.88,1.272 -1.152,1.272 -1.152,3.168 z"
         id="path18025" />
      <path
         d="m 1211.658,-121 h -1.896 v -1.896 q -0.696,1.008 -1.896,1.584 -1.176,0.552 -2.544,0.552 -1.92,0 -3.12,-0.96 -1.2,-0.984 -1.2,-2.568 0,-1.752 1.344,-2.64 1.344,-0.912 3.984,-0.912 h 3.408 q -0.024,-1.632 -0.864,-2.52 -0.816,-0.888 -2.352,-0.888 -0.912,0 -1.8,0.384 -0.888,0.384 -1.752,1.176 l -1.032,-1.296 q 1.008,-0.96 2.208,-1.44 1.2,-0.504 2.568,-0.504 2.328,0 3.624,1.392 1.32,1.368 1.32,3.792 z m -1.92,-5.328 h -3.384 q -1.752,0 -2.592,0.48 -0.84,0.48 -0.84,1.512 0,0.864 0.72,1.44 0.744,0.576 1.896,0.576 1.728,0 2.904,-1.104 1.2,-1.128 1.296,-2.904 z"
         id="path18027" />
      <path
         d="m 1214.586,-124.096 v -6.768 h -1.584 v -1.728 h 1.584 v -3.552 h 1.944 v 3.552 h 2.688 v 1.728 h -2.688 v 6.6 q 0,0.768 0.336,1.152 0.36,0.36 1.08,0.36 h 1.272 V -121 h -1.56 q -1.608,0 -2.352,-0.744 -0.72,-0.744 -0.72,-2.352 z"
         id="path18029" />
      <path
         d="m 1226.898,-122.44 q 1.704,0 2.832,-0.936 1.152,-0.96 1.152,-2.376 0,-1.488 -1.176,-2.352 -1.152,-0.864 -3.216,-0.864 h -1.056 v -1.704 h 1.008 q 1.896,0 3,-0.816 1.104,-0.84 1.104,-2.136 0,-1.2 -1.008,-1.968 -1.008,-0.768 -2.64,-0.768 -1.728,0 -2.76,0.936 -1.008,0.912 -1.128,2.52 h -1.968 q 0.072,-2.256 1.704,-3.768 1.656,-1.512 4.248,-1.512 2.472,0 4.032,1.272 1.584,1.248 1.584,3.12 0,1.392 -0.816,2.424 -0.792,1.032 -2.304,1.56 1.728,0.48 2.592,1.512 0.864,1.032 0.864,2.64 0,2.136 -1.728,3.6 -1.728,1.44 -4.368,1.44 -2.808,0 -4.464,-1.512 -1.632,-1.536 -1.656,-4.2 h 1.944 q 0.096,1.872 1.176,2.88 1.104,1.008 3.048,1.008 z"
         id="path18031" />
      <path
         d="m 1246.698,-121 h -11.976 v -1.68 l 5.808,-5.328 q 2.064,-1.872 2.808,-2.976 0.744,-1.104 0.744,-2.352 0,-1.32 -0.984,-2.16 -0.96,-0.864 -2.4,-0.864 -1.776,0 -2.808,1.104 -1.008,1.08 -1.08,3.048 h -1.968 q 0.048,-2.736 1.632,-4.344 1.608,-1.632 4.272,-1.632 2.352,0 3.864,1.368 1.536,1.344 1.536,3.432 0,1.68 -0.936,3.12 -0.912,1.416 -3.48,3.672 l -4.248,3.792 h 9.216 z"
         id="path18033" />
      <path
         d="m 566.45401,74.36 v -0.072 q -3.312,-0.336 -5.472,-2.76 -2.136,-2.448 -2.136,-5.904 0,-3.72 2.472,-6.264 2.472,-2.544 6.096,-2.544 3.648,0 6.072,2.52 2.448,2.496 2.448,6.24 0,3.432 -2.136,5.904 -2.136,2.448 -5.424,2.808 0.024,1.104 0.504,1.56 0.48,0.48 1.608,0.48 h 1.512 v 1.608 h -1.752 q -1.92,0 -2.856,-0.888 -0.936,-0.888 -0.936,-2.688 z m -5.496,-8.784 q 0,2.952 1.848,4.968 1.872,1.992 4.608,1.992 2.736,0 4.56,-1.968 1.848,-1.992 1.848,-4.944 0,-2.952 -1.848,-4.944 -1.848,-2.016 -4.584,-2.016 -2.76,0 -4.608,1.992 -1.824,1.968 -1.824,4.92 z"
         id="path18035" />
      <path
         d="m 588.94199,74 h -1.944 v -1.776 q -0.696,1.008 -1.752,1.536 -1.056,0.504 -2.4,0.504 -2.28,0 -3.6,-1.488 -1.296,-1.488 -1.296,-4.056 v -6.312 h 1.968 V 68.6 q 0,1.824 0.888,2.88 0.912,1.056 2.52,1.056 1.632,0 2.64,-1.128 1.008,-1.128 1.008,-2.928 v -6.072 h 1.968 z"
         id="path18037" />
      <path
         d="m 601.42197,74 h -1.896 v -1.896 q -0.696,1.008 -1.896,1.584 -1.176,0.552 -2.544,0.552 -1.92,0 -3.12,-0.96 -1.2,-0.984 -1.2,-2.568 0,-1.752 1.344,-2.64 1.344,-0.912 3.984,-0.912 h 3.408 q -0.024,-1.632 -0.864,-2.52 -0.816,-0.888 -2.352,-0.888 -0.912,0 -1.8,0.384 -0.888,0.384 -1.752,1.176 l -1.032,-1.296 q 1.008,-0.96 2.208,-1.44 1.2,-0.504 2.568,-0.504 2.328,0 3.624,1.392 1.32,1.368 1.32,3.792 z m -1.92,-5.328 h -3.384 q -1.752,0 -2.592,0.48 -0.84,0.48 -0.84,1.512 0,0.864 0.72,1.44 0.744,0.576 1.896,0.576 1.728,0 2.904,-1.104 1.2,-1.128 1.296,-2.904 z"
         id="path18039" />
      <path
         d="m 603.82196,62.408 h 1.92 v 1.8 q 0.696,-1.008 1.752,-1.536 1.08,-0.552 2.4,-0.552 2.304,0 3.6,1.488 1.296,1.488 1.296,4.08 V 74 h -1.944 v -6.192 q 0,-1.824 -0.912,-2.88 -0.888,-1.056 -2.496,-1.056 -1.656,0 -2.664,1.128 -1.008,1.128 -1.008,2.928 V 74 h -1.944 z"
         id="path18041" />
      <path
         d="m 617.83794,70.904 v -6.768 h -1.584 v -1.728 h 1.584 v -3.552 h 1.944 v 3.552 h 2.688 v 1.728 h -2.688 v 6.6 q 0,0.768 0.336,1.152 0.36,0.36 1.08,0.36 h 1.272 V 74 h -1.56 q -1.608,0 -2.352,-0.744 -0.72,-0.744 -0.72,-2.352 z"
         id="path18043" />
      <path
         d="m 624.55794,58.52 h 2.16 v 2.136 h -2.16 z m 0.096,15.48 V 62.408 h 1.968 V 74 Z"
         id="path18045" />
      <path
         d="m 638.78992,74 h -10.152 v -1.536 l 7.392,-8.424 h -7.104 v -1.632 h 9.552 v 1.536 l -7.32,8.424 h 7.632 z"
         id="path18047" />
      <path
         d="m 650.54995,74 h -1.896 v -1.896 q -0.696,1.008 -1.896,1.584 -1.176,0.552 -2.544,0.552 -1.92,0 -3.12,-0.96 -1.2,-0.984 -1.2,-2.568 0,-1.752 1.344,-2.64 1.344,-0.912 3.984,-0.912 h 3.408 q -0.024,-1.632 -0.864,-2.52 -0.816,-0.888 -2.352,-0.888 -0.912,0 -1.8,0.384 -0.888,0.384 -1.752,1.176 l -1.032,-1.296 q 1.008,-0.96 2.208,-1.44 1.2,-0.504 2.568,-0.504 2.328,0 3.624,1.392 1.32,1.368 1.32,3.792 z m -1.92,-5.328 h -3.384 q -1.752,0 -2.592,0.48 -0.84,0.48 -0.84,1.512 0,0.864 0.72,1.44 0.744,0.576 1.896,0.576 1.728,0 2.904,-1.104 1.2,-1.128 1.296,-2.904 z"
         id="path18049" />
      <path
         d="m 653.47795,70.904 v -6.768 h -1.584 v -1.728 h 1.584 v -3.552 h 1.944 v 3.552 h 2.688 v 1.728 h -2.688 v 6.6 q 0,0.768 0.336,1.152 0.36,0.36 1.08,0.36 h 1.272 V 74 h -1.56 q -1.608,0 -2.352,-0.744 -0.72,-0.744 -0.72,-2.352 z"
         id="path18051" />
      <path
         d="m 660.19795,58.52 h 2.16 v 2.136 h -2.16 z m 0.096,15.48 V 62.408 h 1.968 V 74 Z"
         id="path18053" />
      <path
         d="m 676.56594,68.216 q 0,2.616 -1.752,4.392 -1.752,1.752 -4.32,1.752 -2.568,0 -4.296,-1.752 -1.704,-1.752 -1.704,-4.368 0,-2.616 1.752,-4.368 1.752,-1.776 4.32,-1.776 2.568,0 4.272,1.752 1.728,1.752 1.728,4.368 z m -10.08,0.024 q 0,1.872 1.152,3.144 1.176,1.272 2.904,1.272 1.704,0 2.856,-1.272 1.176,-1.272 1.176,-3.168 0,-1.848 -1.176,-3.12 -1.176,-1.296 -2.88,-1.296 -1.704,0 -2.88,1.272 -1.152,1.272 -1.152,3.168 z"
         id="path18055" />
      <path
         d="m 678.58195,62.408 h 1.92 v 1.8 q 0.696,-1.008 1.752,-1.536 1.08,-0.552 2.4,-0.552 2.304,0 3.6,1.488 1.296,1.488 1.296,4.08 V 74 h -1.944 v -6.192 q 0,-1.824 -0.912,-2.88 -0.888,-1.056 -2.496,-1.056 -1.656,0 -2.664,1.128 -1.008,1.128 -1.008,2.928 V 74 h -1.944 z"
         id="path18057" />
      <path
         d="m 746.452,-15.48 h 2.16 v 2.136 h -2.16 z M 746.548,0 v -11.592 h 1.968 V 0 Z"
         id="path18059" />
      <path
         d="m 751.27598,-11.592 h 1.92 v 1.8 q 0.696,-1.008 1.752,-1.536 1.08,-0.552 2.4,-0.552 2.304,0 3.6,1.488 1.296,1.488 1.296,4.08 V 0 h -1.944 v -6.192 q 0,-1.824 -0.912,-2.88 -0.888,-1.056 -2.496,-1.056 -1.656,0 -2.664,1.128 -1.008,1.128 -1.008,2.928 V 0 h -1.944 z"
         id="path18061" />
      <path
         d="m 765.29196,-3.096 v -6.768 h -1.584 v -1.728 h 1.584 v -3.552 h 1.944 v 3.552 h 2.688 v 1.728 h -2.688 v 6.6 q 0,0.768 0.336,1.152 0.36,0.36 1.08,0.36 h 1.272 V 0 h -1.56 q -1.608,0 -2.352,-0.744 -0.72,-0.744 -0.72,-2.352 z"
         id="path18063" />
      <path
         d="m 784.17996,-4.512 q 0,2.16 -1.8,3.528 -1.776,1.344 -4.584,1.344 -2.784,0 -4.56,-1.344 -1.752,-1.344 -1.752,-3.48 0,-1.44 0.84,-2.544 0.864,-1.104 2.4,-1.704 -1.344,-0.552 -2.088,-1.56 -0.72,-1.032 -0.72,-2.304 0,-2.064 1.656,-3.336 1.656,-1.272 4.296,-1.272 2.616,0 4.248,1.272 1.632,1.248 1.632,3.288 0,1.272 -0.744,2.304 -0.72,1.008 -2.064,1.584 1.536,0.576 2.376,1.68 0.864,1.104 0.864,2.544 z m -10.224,-7.992 q 0,1.32 1.08,2.136 1.08,0.816 2.808,0.816 1.728,0 2.784,-0.816 1.08,-0.816 1.08,-2.184 0,-1.272 -1.104,-2.064 -1.08,-0.792 -2.784,-0.792 -1.704,0 -2.784,0.816 -1.08,0.792 -1.08,2.088 z m -0.432,7.968 q 0,1.368 1.2,2.256 1.224,0.864 3.12,0.864 1.896,0 3.096,-0.864 1.2,-0.888 1.2,-2.304 0,-1.44 -1.2,-2.304 -1.2,-0.888 -3.12,-0.888 -1.92,0 -3.12,0.888 -1.176,0.888 -1.176,2.352 z"
         id="path18065" />
      <path
         d="m 1176.402,-16.48 h 2.16 v 2.136 h -2.16 z m 0.096,15.48 v -11.592 h 1.968 V -1 Z"
         id="path18067" />
      <path
         d="m 1181.226,-12.592 h 1.92 v 1.8 q 0.696,-1.008 1.752,-1.536 1.08,-0.552 2.4,-0.552 2.304,0 3.6,1.488 1.296,1.488 1.296,4.08 V -1 h -1.944 v -6.192 q 0,-1.824 -0.912,-2.88 -0.888,-1.056 -2.496,-1.056 -1.656,0 -2.664,1.128 -1.008,1.128 -1.008,2.928 V -1 h -1.944 z"
         id="path18069" />
      <path
         d="m 1195.242,-4.096 v -6.768 h -1.584 v -1.728 h 1.584 v -3.552 h 1.944 v 3.552 h 2.688 v 1.728 h -2.688 v 6.6 q 0,0.768 0.336,1.152 0.36,0.36 1.08,0.36 h 1.272 V -1 h -1.56 q -1.608,0 -2.352,-0.744 -0.72,-0.744 -0.72,-2.352 z"
         id="path18071" />
      <path
         d="m 1214.13,-5.512 q 0,2.16 -1.8,3.528 -1.776,1.344 -4.584,1.344 -2.784,0 -4.56,-1.344 -1.752,-1.344 -1.752,-3.48 0,-1.44 0.84,-2.544 0.864,-1.104 2.4,-1.704 -1.344,-0.552 -2.088,-1.56 -0.72,-1.032 -0.72,-2.304 0,-2.064 1.656,-3.336 1.656,-1.272 4.296,-1.272 2.616,0 4.248,1.272 1.632,1.248 1.632,3.288 0,1.272 -0.744,2.304 -0.72,1.008 -2.064,1.584 1.536,0.576 2.376,1.68 0.864,1.104 0.864,2.544 z m -10.224,-7.992 q 0,1.32 1.08,2.136 1.08,0.816 2.808,0.816 1.728,0 2.784,-0.816 1.08,-0.816 1.08,-2.184 0,-1.272 -1.104,-2.064 -1.08,-0.792 -2.784,-0.792 -1.704,0 -2.784,0.816 -1.08,0.792 -1.08,2.088 z m -0.432,7.968 q 0,1.368 1.2,2.256 1.224,0.864 3.12,0.864 1.896,0 3.096,-0.864 1.2,-0.888 1.2,-2.304 0,-1.44 -1.2,-2.304 -1.2,-0.888 -3.12,-0.888 -1.92,0 -3.12,0.888 -1.176,0.888 -1.176,2.352 z"
         id="path18073" />
    </g>
  </g>
</svg>
