<?xml version="1.0" encoding="UTF-8" standalone="no"?>
<svg
   width="1085"
   height="528"
   overflow="hidden"
   version="1.1"
   id="svg33904"
   sodipodi:docname="tf_openvino.svg"
   inkscape:version="1.2.1 (9c6d41e410, 2022-07-14)"
   xmlns:inkscape="http://www.inkscape.org/namespaces/inkscape"
   xmlns:sodipodi="http://sodipodi.sourceforge.net/DTD/sodipodi-0.dtd"
   xmlns="http://www.w3.org/2000/svg"
   xmlns:svg="http://www.w3.org/2000/svg">
  <sodipodi:namedview
     id="namedview33906"
     pagecolor="#ffffff"
     bordercolor="#000000"
     borderopacity="0.25"
     inkscape:showpageshadow="2"
     inkscape:pageopacity="0.0"
     inkscape:pagecheckerboard="0"
     inkscape:deskcolor="#d1d1d1"
     showgrid="false"
     inkscape:zoom="1.1751152"
     inkscape:cx="542.5"
     inkscape:cy="263.80392"
     inkscape:window-width="1920"
     inkscape:window-height="1137"
     inkscape:window-x="-8"
     inkscape:window-y="-8"
     inkscape:window-maximized="1"
     inkscape:current-layer="svg33904" />
  <defs
     id="defs33822">
    <clipPath
       id="clip0">
      <rect
         x="0"
         y="0"
         width="1085"
         height="528"
         id="rect33819" />
    </clipPath>
  </defs>
  <g
     clip-path="url(#clip0)"
     id="g33902">
    <path
       id="rect33824"
       style="fill:#ffffff"
       d="M 0,0 H 1085 V 527.91901 H 0 Z" />
    <g
       aria-label="TF ModelIR v10 Model"
       transform="matrix(1 0 0 0.999846 149.449 68)"
       id="text33828"
       style="font-size:48px;font-family:'IntelOne Display Regular', 'IntelOne Display Regular_MSFontService', sans-serif;fill:#0070c0">
      <path
         d="M 14.016,-29.856 H 0.96 V -33.6 h 30.192 v 3.744 H 18.144 V 0 h -4.128 z"
         id="path34272" />
      <path
         d="m 35.23203,0 v -33.6 h 24.096 v 3.648 h -19.968 v 11.424 h 18.624 v 3.648 h -18.624 V 0 Z"
         id="path34274" />
      <path
         d="m 101.08802,-33.6 h 5.472 V 0 h -4.128 v -28.32 l -10.991997,19.2 h -3.36 l -11.04,-19.152 V 0 h -4.128 v -33.6 h 5.472 l 11.376,19.632 z"
         id="path34276" />
      <path
         d="m 135.31199,-11.568 q 0,5.232 -3.504,8.784 -3.504,3.504 -8.64,3.504 -5.136,0 -8.592,-3.504 -3.408,-3.504 -3.408,-8.736 0,-5.232 3.504,-8.736 3.504,-3.552 8.64,-3.552 5.136,0 8.544,3.504 3.456,3.504 3.456,8.736 z m -20.16,0.048 q 0,3.744 2.304,6.288 2.352,2.544 5.808,2.544 3.408,0 5.712,-2.544 2.352,-2.544 2.352,-6.336 0,-3.696 -2.352,-6.24 -2.352,-2.592 -5.76,-2.592 -3.408,0 -5.76,2.544 -2.304,2.544 -2.304,6.336 z"
         id="path34278" />
      <path
         d="m 158.25602,-33.6 h 3.936 V 0 h -3.888 v -3.744 q -1.584,2.016 -3.84,3.12 -2.208,1.104 -4.752,1.104 -4.848,0 -8.16,-3.36 -3.264,-3.408 -3.264,-8.64 0,-5.28 3.36,-8.736 3.408,-3.504 8.352,-3.504 2.4,0 4.512,1.008 2.16,0.96 3.744,2.784 z m -8.112,30.672 q 3.504,0 5.856,-2.496 2.4,-2.544 2.4,-6.24 0,-3.744 -2.304,-6.192 -2.304,-2.448 -5.76,-2.448 -3.552,0 -5.808,2.4 -2.256,2.4 -2.256,6.288 0,3.888 2.208,6.288 2.208,2.4 5.664,2.4 z"
         id="path34280" />
      <path
         d="m 178.41599,-2.592 q 2.304,0 4.224,-0.96 1.968,-1.008 3.6,-3.024 l 2.352,2.16 q -1.968,2.592 -4.608,3.888 -2.64,1.248 -5.904,1.248 -5.232,0 -8.592,-3.408 -3.312,-3.456 -3.312,-8.832 0,-5.232 3.408,-8.736 3.408,-3.504 8.4,-3.504 5.088,0 8.256,3.312 3.168,3.312 3.168,8.64 0,0.384 -0.048,0.912 -0.048,0.48 -0.096,0.72 h -19.056 q 0.384,3.408 2.64,5.52 2.304,2.064 5.568,2.064 z m -0.384,-17.856 q -3.024,0 -5.184,1.968 -2.16,1.968 -2.64,5.28 h 15.264 q -0.432,-3.36 -2.448,-5.28 -2.016,-1.968 -4.992,-1.968 z"
         id="path34282" />
      <path
         d="m 193.77602,-33.6 h 3.936 V 0 h -3.936 z"
         id="path34284" />
      <path
         d="m 515.383,0 v -33.6 h 4.128 V 0 Z"
         id="path34286" />
      <path
         d="m 544.08698,-14.16 9.552,14.16 h -4.896 l -9.072,-13.68 h -9.456 V 0 h -4.128 v -33.6 h 14.784 q 5.664,0 8.832,2.64 3.168,2.592 3.168,7.152 0,3.744 -2.304,6.288 -2.304,2.544 -6.48,3.36 z m 4.608,-9.552 q 0,-2.928 -2.112,-4.56 -2.064,-1.68 -5.808,-1.68 h -10.56 v 12.672 h 10.224 q 3.792,0 6,-1.728 2.256,-1.776 2.256,-4.704 z"
         id="path34288" />
      <path
         d="m 574.47092,0 -9.936,-23.184 h 4.272 l 7.536,18.528 7.488,-18.528 h 4.032 L 578.02292,0 Z"
         id="path34290" />
      <path
         d="m 594.96688,-29.952 h -5.184 V -33.6 h 9.216 V 0 h -4.032 z"
         id="path34292" />
      <path
         d="m 604.2309,-15.984 v -1.536 q 0,-7.728 3.696,-12.288 3.696,-4.56 9.888,-4.56 6.192,0 9.792,4.512 3.648,4.512 3.648,12.24 v 1.536 q 0,7.728 -3.696,12.288 -3.648,4.56 -9.84,4.56 -6.192,0 -9.84,-4.512 -3.648,-4.512 -3.648,-12.24 z m 13.488,-14.736 q -4.416,0 -6.912,3.456 -2.448,3.456 -2.448,9.648 v 1.536 q 0,6.24 2.496,9.744 2.496,3.456 6.912,3.456 4.416,0 6.864,-3.456 2.496,-3.456 2.496,-9.648 v -1.536 q 0,-6.24 -2.496,-9.696 -2.496,-3.504 -6.912,-3.504 z"
         id="path34294" />
      <path
         d="m 673.20683,-33.6 h 5.472 V 0 h -4.128 v -28.32 l -10.992,19.2 h -3.36 l -11.04,-19.152 V 0 h -4.128 v -33.6 h 5.472 l 11.376,19.632 z"
         id="path34296" />
      <path
         d="m 707.4308,-11.568 q 0,5.232 -3.504,8.784 -3.504,3.504 -8.64,3.504 -5.136,0 -8.592,-3.504 -3.408,-3.504 -3.408,-8.736 0,-5.232 3.504,-8.736 3.504,-3.552 8.64,-3.552 5.136,0 8.544,3.504 3.456,3.504 3.456,8.736 z m -20.16,0.048 q 0,3.744 2.304,6.288 2.352,2.544 5.808,2.544 3.408,0 5.712,-2.544 2.352,-2.544 2.352,-6.336 0,-3.696 -2.352,-6.24 -2.352,-2.592 -5.76,-2.592 -3.408,0 -5.76,2.544 -2.304,2.544 -2.304,6.336 z"
         id="path34298" />
      <path
         d="m 730.37482,-33.6 h 3.936 V 0 h -3.888 v -3.744 q -1.584,2.016 -3.84,3.12 -2.208,1.104 -4.752,1.104 -4.848,0 -8.16,-3.36 -3.264,-3.408 -3.264,-8.64 0,-5.28 3.36,-8.736 3.408,-3.504 8.352,-3.504 2.4,0 4.512,1.008 2.16,0.96 3.744,2.784 z m -8.112,30.672 q 3.504,0 5.856,-2.496 2.4,-2.544 2.4,-6.24 0,-3.744 -2.304,-6.192 -2.304,-2.448 -5.76,-2.448 -3.552,0 -5.808,2.4 -2.256,2.4 -2.256,6.288 0,3.888 2.208,6.288 2.208,2.4 5.664,2.4 z"
         id="path34300" />
      <path
         d="m 750.53479,-2.592 q 2.304,0 4.224,-0.96 1.968,-1.008 3.6,-3.024 l 2.352,2.16 q -1.968,2.592 -4.608,3.888 -2.64,1.248 -5.904,1.248 -5.232,0 -8.592,-3.408 -3.312,-3.456 -3.312,-8.832 0,-5.232 3.408,-8.736 3.408,-3.504 8.4,-3.504 5.088,0 8.256,3.312 3.168,3.312 3.168,8.64 0,0.384 -0.048,0.912 -0.048,0.48 -0.096,0.72 h -19.056 q 0.384,3.408 2.64,5.52 2.304,2.064 5.568,2.064 z m -0.384,-17.856 q -3.024,0 -5.184,1.968 -2.16,1.968 -2.64,5.28 h 15.264 q -0.432,-3.36 -2.448,-5.28 -2.016,-1.968 -4.992,-1.968 z"
         id="path34302" />
      <path
         d="m 765.89482,-33.6 h 3.936 V 0 h -3.936 z"
         id="path34304" />
    </g>
    <path
       id="rect33830"
       style="fill:#ffffff;stroke:#000000;stroke-width:1.33354;stroke-miterlimit:8"
       d="m 57.5,103.484 h 392 v 376.94199 h -392 z" />
    <path
       id="rect33832"
       style="fill:#ffffff;stroke:#000000;stroke-width:1.33354;stroke-miterlimit:8"
       d="m 598.5,103.484 h 393 v 376.94199 h -393 z" />
    <path
       d="M202.5 131.646C202.5 128.793 204.813 126.481 207.667 126.481L262.333 126.481C265.187 126.481 267.5 128.793 267.5 131.646L267.5 152.31C267.5 155.163 265.187 157.476 262.333 157.476L207.667 157.476C204.813 157.476 202.5 155.163 202.5 152.31Z"
       stroke="#000000"
       stroke-width="1.33354"
       stroke-miterlimit="8"
       fill="#E9E9E9"
       fill-rule="evenodd"
       id="path33834" />
    <g
       aria-label="self"
       transform="matrix(1 0 0 0.999846 216.47 150)"
       id="text33836"
       style="font-size:24px;font-family:'IntelOne Display Regular', 'IntelOne Display Regular_MSFontService', sans-serif">
      <path
         d="m 10.608,-3.384 q 0,1.632 -1.392,2.664 -1.392,1.032 -3.624,1.032 -1.464,0 -2.76,-0.456 Q 1.56,-0.624 0.528,-1.56 l 1.008,-1.488 q 1.104,0.912 2.064,1.32 0.96,0.408 2.04,0.408 1.392,0 2.232,-0.528 0.864,-0.552 0.864,-1.416 0,-0.888 -0.72,-1.272 Q 7.296,-4.944 5.64,-4.968 3.216,-5.064 2.088,-5.856 0.984,-6.648 0.984,-8.328 q 0,-1.536 1.272,-2.544 1.296,-1.032 3.312,-1.032 1.368,0 2.568,0.432 1.2,0.432 2.184,1.272 L 9.384,-8.736 Q 8.4,-9.528 7.488,-9.888 q -0.912,-0.36 -1.944,-0.36 -1.176,0 -1.944,0.528 -0.744,0.528 -0.744,1.296 0,0.84 0.672,1.224 0.672,0.384 2.136,0.456 2.616,0.072 3.768,0.864 1.176,0.792 1.176,2.496 z"
         id="path34309" />
      <path
         d="m 18.168016,-1.296 q 1.152,0 2.112,-0.48 0.984,-0.504 1.8,-1.512 l 1.176,1.08 q -0.984,1.296 -2.304,1.944 -1.32,0.624 -2.952,0.624 -2.616,0 -4.296,-1.704 -1.656,-1.728 -1.656,-4.416 0,-2.616 1.704,-4.368 1.704,-1.752 4.2,-1.752 2.544,0 4.128,1.656 1.584,1.656 1.584,4.32 0,0.192 -0.024,0.456 -0.024,0.24 -0.048,0.36 h -9.528 q 0.192,1.704 1.32,2.76 1.152,1.032 2.784,1.032 z m -0.192,-8.928 q -1.512,0 -2.592,0.984 -1.08,0.984 -1.32,2.64 h 7.632 q -0.216,-1.68 -1.224,-2.64 -1.008,-0.984 -2.496,-0.984 z"
         id="path34311" />
      <path
         d="m 25.848031,-16.8 h 1.968 V 0 h -1.968 z"
         id="path34313" />
      <path
         d="m 31.344016,-9.864 h -1.584 v -1.728 h 1.584 v -2.184 q 0,-1.464 0.768,-2.232 0.792,-0.792 2.256,-0.792 h 1.584 v 1.632 h -1.296 q -0.672,0 -1.008,0.36 -0.336,0.36 -0.336,1.08 v 2.136 h 2.64 v 1.728 h -2.64 V 0 h -1.968 z"
         id="path34315" />
    </g>
    <path
       d="M151.5 217.967C151.5 211.064 157.097 205.468 164 205.468L315 205.468C321.903 205.468 327.5 211.064 327.5 217.967L327.5 267.959C327.5 274.861 321.903 280.457 315 280.457L164 280.457C157.097 280.457 151.5 274.861 151.5 267.959Z"
       stroke="#000000"
       stroke-width="1.33354"
       stroke-miterlimit="8"
       fill="#FFFFFF"
       fill-rule="evenodd"
       id="path33838" />
    <path
       d="M164.678 205.468 314.322 205.468C321.6 205.468 327.5 211.368 327.5 218.645L327.5 245.462 151.5 245.462 151.5 218.645C151.5 211.368 157.4 205.468 164.678 205.468Z"
       stroke="#000000"
       stroke-width="1.33354"
       stroke-miterlimit="8"
       fill="#004A86"
       fill-rule="evenodd"
       id="path33840" />
    <g
       aria-label="Conv2Dfilter &lt;7x7x3x64&gt;"
       transform="matrix(1 0 0 0.999846 159.331 234)"
       id="text33846"
       style="font-size:24px;font-family:'IntelOne Display Regular', 'IntelOne Display Regular_MSFontService', sans-serif;fill:#ffffff">
      <path
         d="m 3,-8.424 q 0,3 1.8,4.992 1.8,1.968 4.512,1.968 1.824,0 3.192,-0.84 1.392,-0.84 2.376,-2.52 l 1.584,0.912 q -1.08,2.064 -2.952,3.192 -1.848,1.104 -4.248,1.104 -3.648,0 -6.024,-2.472 -2.352,-2.472 -2.352,-6.288 0,-3.744 2.448,-6.264 2.472,-2.544 6.144,-2.544 2.328,0 4.104,1.104 1.8,1.08 2.808,3.096 L 14.736,-12 q -0.936,-1.704 -2.232,-2.52 -1.296,-0.816 -3.072,-0.816 -2.76,0 -4.608,1.968 Q 3,-11.4 3,-8.424 Z"
         id="path34318" />
      <path
         d="m 30.144003,-5.784 q 0,2.616 -1.752,4.392 -1.752,1.752 -4.32,1.752 -2.568,0 -4.296,-1.752 -1.704,-1.752 -1.704,-4.368 0,-2.616 1.752,-4.368 1.752,-1.776 4.32,-1.776 2.568,0 4.272,1.752 1.728,1.752 1.728,4.368 z m -10.08,0.024 q 0,1.872 1.152,3.144 1.176,1.272 2.904,1.272 1.704,0 2.856,-1.272 1.176,-1.272 1.176,-3.168 0,-1.848 -1.176,-3.12 -1.176,-1.296 -2.88,-1.296 -1.704,0 -2.88,1.272 -1.152,1.272 -1.152,3.168 z"
         id="path34320" />
      <path
         d="m 32.160016,-11.592 h 1.92 v 1.8 q 0.696,-1.008 1.752,-1.536 1.08,-0.552 2.4,-0.552 2.304,0 3.6,1.488 1.296,1.488 1.296,4.08 V 0 h -1.944 v -6.192 q 0,-1.824 -0.912,-2.88 -0.888,-1.056 -2.496,-1.056 -1.656,0 -2.664,1.128 -1.008,1.128 -1.008,2.928 V 0 h -1.944 z"
         id="path34322" />
      <path
         d="m 49.055986,0 -4.968,-11.592 h 2.136 l 3.768,9.264 3.744,-9.264 h 2.016 L 50.831986,0 Z"
         id="path34324" />
      <path
         d="m 68.951965,0 h -11.976 v -1.68 l 5.808,-5.328 q 2.064,-1.872 2.808,-2.976 0.744,-1.104 0.744,-2.352 0,-1.32 -0.984,-2.16 -0.96,-0.864 -2.4,-0.864 -1.776,0 -2.808,1.104 -1.008,1.08 -1.08,3.048 h -1.968 q 0.048,-2.736 1.632,-4.344 1.608,-1.632 4.272,-1.632 2.352,0 3.864,1.368 1.536,1.344 1.536,3.432 0,1.68 -0.936,3.12 -0.912,1.416 -3.48,3.672 l -4.248,3.792 h 9.216 z"
         id="path34326" />
      <path
         d="m 1.56,29.004499 v -16.8 h 6.312 q 3.936,0 6.336,2.328 2.424,2.328 2.424,6.048 0,3.696 -2.448,6.072 -2.448,2.352 -6.36,2.352 z m 12.984,-8.376 q 0,-2.88 -1.872,-4.704 -1.848,-1.848 -4.824,-1.848 H 3.624 v 13.056 h 4.224 q 2.976,0 4.824,-1.824 1.872,-1.824 1.872,-4.68 z"
         id="path34328" />
      <path
         d="m 3.01144,26.196199 h -1.254 v -1.368 h 1.254 v -1.729 q 0,-1.159 0.608,-1.767 0.627,-0.627 1.786,-0.627 h 1.254 v 1.292 h -1.026 q -0.532,0 -0.798,0.285 -0.266,0.285 -0.266,0.855 v 1.691 h 2.09 v 1.368 h -2.09 v 7.809 h -1.558 z m 4.959,-4.446 h 1.71 v 1.691 h -1.71 z m 0.076,12.255 v -9.177 h 1.558 v 9.177 z"
         style="font-size:19px;fill:#000000"
         id="path34330" />
      <path
         d="m 11.96043,20.705199 h 1.558 v 13.3 h -1.558 z"
         style="font-size:19px;fill:#000000"
         id="path34332" />
      <path
         d="m 16.216418,31.554199 v -5.358 h -1.254 v -1.368 h 1.254 v -2.812 h 1.539 v 2.812 h 2.128 v 1.368 h -2.128 v 5.225 q 0,0.608 0.266,0.912 0.285,0.285 0.855,0.285 h 1.007 v 1.387 h -1.235 q -1.273,0 -1.862,-0.589 -0.57,-0.589 -0.57,-1.862 z"
         style="font-size:19px;fill:#000000"
         id="path34334" />
      <path
         d="m 25.71643,32.979199 q 0.912,0 1.672,-0.38 0.779,-0.399 1.425,-1.197 l 0.931,0.855 q -0.779,1.026 -1.824,1.539 -1.045,0.494 -2.337,0.494 -2.071,0 -3.401,-1.349 -1.311,-1.368 -1.311,-3.496 0,-2.071 1.349,-3.458 1.349,-1.387 3.325,-1.387 2.014,0 3.268,1.311 1.254,1.311 1.254,3.42 0,0.152 -0.019,0.361 -0.019,0.19 -0.038,0.285 h -7.543 q 0.152,1.349 1.045,2.185 0.912,0.817 2.204,0.817 z m -0.152,-7.068 q -1.197,0 -2.052,0.779 -0.855,0.779 -1.045,2.09 h 6.042 q -0.171,-1.33 -0.969,-2.09 -0.798,-0.779 -1.976,-0.779 z"
         style="font-size:19px;fill:#000000"
         id="path34336" />
      <path
         d="m 31.625442,24.828199 h 1.52 v 1.159 q 0.418,-0.608 1.083,-0.912 0.665,-0.304 1.577,-0.304 h 0.836 v 1.463 h -0.855 q -1.311,0 -1.976,0.684 -0.646,0.684 -0.646,2.071 v 5.016 h -1.539 z"
         style="font-size:19px;fill:#000000"
         id="path34338" />
      <path
         d="m 47.623429,29.749199 v 1.368 l -6.46,-3.135 v -1.368 l 6.46,-3.135 v 1.368 l -5.282,2.451 z"
         style="font-size:19px;fill:#000000"
         id="path34340" />
      <path
         d="m 58.130434,21.997199 -5.681,12.008 h -1.767 l 5.814,-11.875 h -7.733 v -1.425 h 9.367 z"
         style="font-size:19px;fill:#000000"
         id="path34342" />
      <path
         d="m 60.429439,34.005199 h -1.729 l 3.572,-4.731 -3.325,-4.446 h 1.824 l 2.413,3.363 2.451,-3.363 h 1.71 l -3.325,4.427 3.629,4.75 h -1.805 l -2.698,-3.705 z"
         style="font-size:19px;fill:#000000"
         id="path34344" />
      <path
         d="m 77.377444,21.997199 -5.681,12.008 h -1.767 l 5.814,-11.875 h -7.733 v -1.425 h 9.367 z"
         style="font-size:19px;fill:#000000"
         id="path34346" />
      <path
         d="m 79.676445,34.005199 h -1.729 l 3.572,-4.731 -3.325,-4.446 h 1.824 l 2.413,3.363 2.451,-3.363 h 1.71 l -3.325,4.427 3.629,4.75 h -1.805 l -2.698,-3.705 z"
         style="font-size:19px;fill:#000000"
         id="path34348" />
      <path
         d="m 92.596453,32.865199 q 1.349,0 2.242,-0.741 0.912,-0.76 0.912,-1.881 0,-1.178 -0.931,-1.862 -0.912,-0.684 -2.546,-0.684 h -0.836 v -1.349 h 0.798 q 1.501,0 2.375,-0.646 0.874,-0.665 0.874,-1.691 0,-0.95 -0.798,-1.558 -0.798,-0.608 -2.09,-0.608 -1.368,0 -2.185,0.741 -0.798,0.722 -0.893,1.995 h -1.558 q 0.057,-1.786 1.349,-2.983 1.311,-1.197 3.363,-1.197 1.957,0 3.192,1.007 1.254,0.988 1.254,2.47 0,1.102 -0.646,1.919 -0.627,0.817 -1.824,1.235 1.368,0.38 2.052,1.197 0.684,0.817 0.684,2.09 0,1.691 -1.368,2.85 -1.368,1.14 -3.458,1.14 -2.223,0 -3.534,-1.197 -1.292,-1.216 -1.311,-3.325 h 1.539 q 0.076,1.482 0.931,2.28 0.874,0.798 2.413,0.798 z"
         style="font-size:19px;fill:#000000"
         id="path34350" />
      <path
         d="m 99.968468,34.005199 h -1.729 l 3.572002,-4.731 -3.325002,-4.446 h 1.824002 l 2.413,3.363 2.451,-3.363 h 1.71 l -3.325,4.427 3.629,4.75 h -1.805 l -2.698,-3.705 z"
         style="font-size:19px;fill:#000000"
         id="path34352" />
      <path
         d="m 113.21147,25.208199 q 2.052,0 3.344,1.216 1.292,1.216 1.292,3.135 0,2.014 -1.482,3.382 -1.463,1.349 -3.648,1.349 -2.071,0 -3.439,-1.273 -1.368,-1.292 -1.368,-3.268 0,-1.596 0.684,-2.983 0.703,-1.387 2.394,-3.192 l 2.66,-2.869 h 2.052 v 0.038 l -3.553,3.667 q -0.323,0.342 -0.627,0.684 -0.304,0.342 -0.589,0.684 0.513,-0.285 1.083,-0.418 0.57,-0.152 1.197,-0.152 z m 3.002,4.37 q 0,-1.349 -0.893,-2.185 -0.893,-0.836 -2.356,-0.836 -1.463,0 -2.451,0.893 -0.969,0.874 -0.969,2.204 0,1.406 0.912,2.299 0.931,0.893 2.318,0.893 1.501,0 2.47,-0.931 0.969,-0.931 0.969,-2.337 z"
         style="font-size:19px;fill:#000000"
         id="path34354" />
      <path
         d="m 125.84647,30.870199 h -7.22 v -1.216 l 6.574,-8.949 h 2.242 v 8.816 h 2.242 v 1.349 h -2.242 v 3.135 h -1.596 z m 0.057,-8.873 -5.529,7.524 h 5.529 z"
         style="font-size:19px;fill:#000000"
         id="path34356" />
      <path
         d="m 131.01447,24.847199 v -1.368 l 6.46,3.135 v 1.368 l -6.46,3.135 v -1.368 l 5.282,-2.451 z"
         style="font-size:19px;fill:#000000"
         id="path34358" />
    </g>
    <path
       d="M195.5 325.783C195.5 322.838 197.888 320.451 200.833 320.451L269.167 320.451C272.112 320.451 274.5 322.838 274.5 325.783L274.5 347.113C274.5 350.058 272.112 352.446 269.167 352.446L200.833 352.446C197.888 352.446 195.5 350.058 195.5 347.113Z"
       stroke="#000000"
       stroke-width="1.33354"
       stroke-miterlimit="8"
       fill="#B24501"
       fill-rule="evenodd"
       id="path33848" />
    <g
       aria-label="ReLU"
       transform="matrix(1 0 0 0.999846 207.469 344)"
       id="text33850"
       style="font-size:21px;font-family:'IntelOne Display Regular', 'IntelOne Display Regular_MSFontService', sans-serif;fill:#ffffff">
      <path
         d="M 9.24,-6.195 13.419,0 H 11.277 L 7.308,-5.985 H 3.171 V 0 H 1.365 v -14.7 h 6.468 q 2.478,0 3.864,1.155 1.386,1.134 1.386,3.129 0,1.638 -1.008,2.751 -1.008,1.113 -2.835,1.47 z m 2.016,-4.179 q 0,-1.281 -0.924,-1.995 -0.903,-0.735 -2.541,-0.735 h -4.62 v 5.544 h 4.473 q 1.659,0 2.625,-0.756 0.987,-0.777 0.987,-2.058 z"
         id="path34361" />
      <path
         d="m 19.718997,-1.134 q 1.008,0 1.848,-0.42 0.861,-0.441 1.575,-1.323 l 1.029,0.945 q -0.861,1.134 -2.016,1.701 -1.155,0.546 -2.583,0.546 -2.289,0 -3.759,-1.491 -1.449,-1.512 -1.449,-3.864 0,-2.289 1.491,-3.822 1.491,-1.533 3.675,-1.533 2.226,0 3.612,1.449 1.386,1.449 1.386,3.78 0,0.168 -0.021,0.399 -0.021,0.21 -0.042,0.315 h -8.337 q 0.168,1.491 1.155,2.415 1.008,0.903 2.436,0.903 z m -0.168,-7.812 q -1.323,0 -2.268,0.861 -0.945,0.861 -1.155,2.31 h 6.678 q -0.189,-1.47 -1.071,-2.31 -0.882,-0.861 -2.184,-0.861 z"
         id="path34363" />
      <path
         d="m 26.502011,0 v -14.7 h 1.806 v 13.083 h 8.484 V 0 Z"
         id="path34365" />
      <path
         d="m 44.646038,-1.281 q 2.184,0 3.528,-1.47 1.365,-1.491 1.365,-3.864 V -14.7 h 1.785 v 8.127 q 0,3.108 -1.848,5.019 -1.848,1.89 -4.872,1.89 -3.024,0 -4.851,-1.89 -1.827,-1.911 -1.827,-5.019 V -14.7 h 1.806 v 8.085 q 0,2.373 1.365,3.864 1.365,1.47 3.549,1.47 z"
         id="path34367" />
    </g>
    <path
       d="M175.5 402.772C175.5 399.826 177.888 397.439 180.833 397.439L289.167 397.439C292.112 397.439 294.5 399.826 294.5 402.772L294.5 424.101C294.5 427.047 292.112 429.434 289.167 429.434L180.833 429.434C177.888 429.434 175.5 427.047 175.5 424.101Z"
       stroke="#000000"
       stroke-width="1.33354"
       stroke-miterlimit="8"
       fill="#E9E9E9"
       fill-rule="evenodd"
       id="path33852" />
    <g
       aria-label="Identity"
       transform="matrix(1 0 0 0.999846 195.801 421)"
       id="text33854"
       style="font-size:24px;font-family:'IntelOne Display Regular', 'IntelOne Display Regular_MSFontService', sans-serif">
      <path
         d="M 1.728,0 V -16.8 H 3.792 V 0 Z"
         id="path34370" />
      <path
         d="m 16.247989,-16.8 h 1.968 V 0 h -1.944 v -1.872 q -0.792,1.008 -1.92,1.56 -1.104,0.552 -2.376,0.552 -2.424,0 -4.08,-1.68 -1.632,-1.704 -1.632,-4.32 0,-2.64 1.68,-4.368 1.704,-1.752 4.176,-1.752 1.2,0 2.256,0.504 1.08,0.48 1.872,1.392 z m -4.056,15.336 q 1.752,0 2.928,-1.248 1.2,-1.272 1.2,-3.12 0,-1.872 -1.152,-3.096 -1.152,-1.224 -2.88,-1.224 -1.776,0 -2.904,1.2 -1.128,1.2 -1.128,3.144 0,1.944 1.104,3.144 1.104,1.2 2.832,1.2 z"
         id="path34372" />
      <path
         d="m 26.327974,-1.296 q 1.152,0 2.112,-0.48 0.984,-0.504 1.8,-1.512 l 1.176,1.08 q -0.984,1.296 -2.304,1.944 -1.32,0.624 -2.952,0.624 -2.616,0 -4.296,-1.704 -1.656,-1.728 -1.656,-4.416 0,-2.616 1.704,-4.368 1.704,-1.752 4.2,-1.752 2.544,0 4.128,1.656 1.584,1.656 1.584,4.32 0,0.192 -0.024,0.456 -0.024,0.24 -0.048,0.36 h -9.528 q 0.192,1.704 1.32,2.76 1.152,1.032 2.784,1.032 z m -0.192,-8.928 q -1.512,0 -2.592,0.984 -1.08,0.984 -1.32,2.64 h 7.632 q -0.216,-1.68 -1.224,-2.64 -1.008,-0.984 -2.496,-0.984 z"
         id="path34374" />
      <path
         d="m 33.791989,-11.592 h 1.92 v 1.8 q 0.696,-1.008 1.752,-1.536 1.08,-0.552 2.4,-0.552 2.304,0 3.6,1.488 1.296,1.488 1.296,4.08 V 0 h -1.944 v -6.192 q 0,-1.824 -0.912,-2.88 -0.888,-1.056 -2.496,-1.056 -1.656,0 -2.664,1.128 -1.008,1.128 -1.008,2.928 V 0 h -1.944 z"
         id="path34376" />
      <path
         d="m 47.80797,-3.096 v -6.768 h -1.584 v -1.728 h 1.584 v -3.552 h 1.944 v 3.552 h 2.688 v 1.728 h -2.688 v 6.6 q 0,0.768 0.336,1.152 0.36,0.36 1.08,0.36 h 1.272 V 0 h -1.56 q -1.608,0 -2.352,-0.744 -0.72,-0.744 -0.72,-2.352 z"
         id="path34378" />
      <path
         d="m 54.527971,-15.48 h 2.16 v 2.136 h -2.16 z m 0.096,15.48 v -11.592 h 1.968 V 0 Z"
         id="path34380" />
      <path
         d="m 59.999956,-3.096 v -6.768 h -1.584 v -1.728 h 1.584 v -3.552 h 1.944 v 3.552 h 2.688 v 1.728 h -2.688 v 6.6 q 0,0.768 0.336,1.152 0.36,0.36 1.08,0.36 h 1.272 V 0 h -1.56 q -1.608,0 -2.352,-0.744 -0.72,-0.744 -0.72,-2.352 z"
         id="path34382" />
      <path
         d="m 70.535957,-0.096 -4.896,-11.496 h 2.136 l 3.744,9.216 3.744,-9.216 h 2.04 l -6.744,15.912 h -2.016 z"
         id="path34384" />
    </g>
    <path
       d="M1-2.13624e-06 1.00009 42.479-0.999909 42.4791-1 2.13624e-06ZM4.00009 41.1457 0.000104987 49.1457-3.99991 41.1457Z"
       transform="matrix(-1.00015 0 0 1 235 156.976)"
       id="path33856" />
    <g
       aria-label="1x224x224x3"
       transform="matrix(1 0 0 0.999846 244.16 187)"
       id="text33858"
       style="font-size:21px;font-family:'IntelOne Display Regular', 'IntelOne Display Regular_MSFontService', sans-serif">
      <path
         d="M 2.835,-13.104 H 0.567 V -14.7 H 4.599 V 0 H 2.835 Z"
         id="path34387" />
      <path
         d="m 8.2110077,0 h -1.911 l 3.9480003,-5.229 -3.6750003,-4.914 h 2.016 l 2.6670003,3.717 2.709,-3.717 h 1.89 l -3.675,4.893 4.011,5.25 h -1.995 l -2.982,-4.095 z"
         id="path34389" />
      <path
         d="m 27.657014,0 h -10.479 v -1.47 l 5.082,-4.662 q 1.806,-1.638 2.457,-2.604 0.651,-0.966 0.651,-2.058 0,-1.155 -0.861,-1.89 -0.84,-0.756 -2.1,-0.756 -1.554,0 -2.457,0.966 -0.882,0.945 -0.945,2.667 h -1.722 q 0.042,-2.394 1.428,-3.801 1.407,-1.428 3.738,-1.428 2.058,0 3.381,1.197 1.344,1.176 1.344,3.003 0,1.47 -0.819,2.73 -0.798,1.239 -3.045,3.213 l -3.717,3.318 h 8.064 z"
         id="path34391" />
      <path
         d="m 39.543014,0 h -10.479 v -1.47 l 5.082,-4.662 q 1.806,-1.638 2.457,-2.604 0.651,-0.966 0.651,-2.058 0,-1.155 -0.861,-1.89 -0.84,-0.756 -2.1,-0.756 -1.554,0 -2.457,0.966 -0.882,0.945 -0.945,2.667 h -1.722 q 0.042,-2.394 1.428,-3.801 1.407,-1.428 3.738,-1.428 2.058,0 3.381,1.197 1.344,1.176 1.344,3.003 0,1.47 -0.819,2.73 -0.798,1.239 -3.045,3.213 l -3.717,3.318 h 8.064 z"
         id="path34393" />
      <path
         d="m 48.405016,-3.465 h -7.98 v -1.344 l 7.266,-9.891 h 2.478 v 9.744 h 2.478 v 1.491 h -2.478 V 0 h -1.764 z m 0.063,-9.807 -6.111,8.316 h 6.111 z"
         id="path34395" />
      <path
         d="m 55.167009,0 h -1.911 l 3.948,-5.229 -3.675,-4.914 h 2.016 l 2.667,3.717 2.709,-3.717 h 1.89 l -3.675,4.893 4.011,5.25 h -1.995 l -2.982,-4.095 z"
         id="path34397" />
      <path
         d="m 74.613014,0 h -10.479 v -1.47 l 5.082,-4.662 q 1.806,-1.638 2.457,-2.604 0.651,-0.966 0.651,-2.058 0,-1.155 -0.861,-1.89 -0.84,-0.756 -2.1,-0.756 -1.554,0 -2.457,0.966 -0.882,0.945 -0.945,2.667 h -1.722 q 0.042,-2.394 1.428,-3.801 1.407,-1.428 3.738,-1.428 2.058,0 3.381,1.197 1.344,1.176 1.344,3.003 0,1.47 -0.819,2.73 -0.798,1.239 -3.045,3.213 l -3.717,3.318 h 8.064 z"
         id="path34399" />
      <path
         d="m 86.499015,0 h -10.479 v -1.47 l 5.082,-4.662 q 1.806,-1.638 2.457,-2.604 0.651,-0.966 0.651,-2.058 0,-1.155 -0.861,-1.89 -0.84,-0.756 -2.1,-0.756 -1.554,0 -2.457,0.966 -0.882,0.945 -0.945,2.667 h -1.722 q 0.042,-2.394 1.428,-3.801 1.407,-1.428 3.738,-1.428 2.058,0 3.381,1.197 1.344,1.176 1.344,3.003 0,1.47 -0.819,2.73 -0.798,1.239 -3.045,3.213 l -3.717,3.318 h 8.064 z"
         id="path34401" />
      <path
         d="m 95.361017,-3.465 h -7.98 v -1.344 l 7.266,-9.891 h 2.478 v 9.744 h 2.478 v 1.491 h -2.478 V 0 h -1.764 z m 0.063,-9.807 -6.111,8.316 h 6.111 z"
         id="path34403" />
      <path
         d="m 102.12301,0 h -1.911 l 3.948,-5.229 -3.675,-4.914 h 2.016 l 2.667,3.717 2.709,-3.717 h 1.89 l -3.675,4.893 4.011,5.25 h -1.995 l -2.982,-4.095 z"
         id="path34405" />
      <path
         d="m 116.40302,-1.26 q 1.491,0 2.478,-0.819 1.008,-0.84 1.008,-2.079 0,-1.302 -1.029,-2.058 -1.008,-0.756 -2.814,-0.756 h -0.924 v -1.491 h 0.882 q 1.659,0 2.625,-0.714 0.966,-0.735 0.966,-1.869 0,-1.05 -0.882,-1.722 -0.882,-0.672 -2.31,-0.672 -1.512,0 -2.415,0.819 -0.882,0.798 -0.987,2.205 h -1.722 q 0.063,-1.974 1.491,-3.297 1.449,-1.323 3.717,-1.323 2.163,0 3.528,1.113 1.386,1.092 1.386,2.73 0,1.218 -0.714,2.121 -0.693,0.903 -2.016,1.365 1.512,0.42 2.268,1.323 0.756,0.903 0.756,2.31 0,1.869 -1.512,3.15 -1.512,1.26 -3.822,1.26 -2.457,0 -3.906,-1.323 -1.428,-1.344 -1.449,-3.675 h 1.701 q 0.084,1.638 1.029,2.52 0.966,0.882 2.667,0.882 z"
         id="path34407" />
    </g>
    <path
       d="M236 279.957 236 313.059 234 313.059 234 279.957ZM239.001 311.726 235 319.726 230.999 311.726Z"
       id="path33860" />
    <path
       d="M236 351.946 236 390.292 234 390.292 234 351.946ZM239.001 388.959 235 396.959 230.999 388.959Z"
       id="path33862" />
    <g
       aria-label="1x112x112x64"
       transform="matrix(1 0 0 0.999846 248.819 454)"
       id="text33864"
       style="font-size:21px;font-family:'IntelOne Display Regular', 'IntelOne Display Regular_MSFontService', sans-serif">
      <path
         d="M 2.835,-13.104 H 0.567 V -14.7 H 4.599 V 0 H 2.835 Z"
         id="path34410" />
      <path
         d="m 8.2110077,0 h -1.911 l 3.9480003,-5.229 -3.6750003,-4.914 h 2.016 l 2.6670003,3.717 2.709,-3.717 h 1.89 l -3.675,4.893 4.011,5.25 h -1.995 l -2.982,-4.095 z"
         id="path34412" />
      <path
         d="m 19.215014,-13.104 h -2.268 V -14.7 h 4.032 V 0 h -1.764 z"
         id="path34414" />
      <path
         d="m 25.326022,-13.104 h -2.268 V -14.7 h 4.032 V 0 h -1.764 z"
         id="path34416" />
      <path
         d="m 39.87903,0 h -10.479 v -1.47 l 5.082,-4.662 q 1.806,-1.638 2.457,-2.604 0.651,-0.966 0.651,-2.058 0,-1.155 -0.861,-1.89 -0.84,-0.756 -2.1,-0.756 -1.554,0 -2.457,0.966 -0.882,0.945 -0.945,2.667 h -1.722 q 0.042,-2.394 1.428,-3.801 1.407,-1.428 3.738,-1.428 2.058,0 3.381,1.197 1.344,1.176 1.344,3.003 0,1.47 -0.819,2.73 -0.798,1.239 -3.045,3.213 l -3.717,3.318 h 8.064 z"
         id="path34418" />
      <path
         d="m 42.588029,0 h -1.911 l 3.948,-5.229 -3.675,-4.914 h 2.016 l 2.667,3.717 2.709,-3.717 h 1.89 l -3.675,4.893 4.011,5.25 h -1.995 l -2.982,-4.095 z"
         id="path34420" />
      <path
         d="m 53.592034,-13.104 h -2.268 V -14.7 h 4.032 V 0 h -1.764 z"
         id="path34422" />
      <path
         d="m 59.703042,-13.104 h -2.268 V -14.7 h 4.032 V 0 h -1.764 z"
         id="path34424" />
      <path
         d="m 74.25605,0 h -10.479 v -1.47 l 5.082,-4.662 q 1.806,-1.638 2.457,-2.604 0.651,-0.966 0.651,-2.058 0,-1.155 -0.861,-1.89 -0.84,-0.756 -2.1,-0.756 -1.554,0 -2.457,0.966 -0.882,0.945 -0.945,2.667 h -1.722 q 0.042,-2.394 1.428,-3.801 1.407,-1.428 3.738,-1.428 2.058,0 3.381,1.197 1.344,1.176 1.344,3.003 0,1.47 -0.819,2.73 -0.798,1.239 -3.045,3.213 l -3.717,3.318 h 8.064 z"
         id="path34426" />
      <path
         d="m 76.965051,0 h -1.911 l 3.948,-5.229 -3.675,-4.914 h 2.016 l 2.667,3.717 2.709,-3.717 h 1.89 l -3.675,4.893 4.011,5.25 h -1.995 l -2.982,-4.095 z"
         id="path34428" />
      <path
         d="m 91.602056,-9.723 q 2.268,0 3.696,1.344 1.428,1.344 1.428,3.465 0,2.226 -1.638,3.738 -1.617,1.491 -4.032,1.491 -2.289,0 -3.801,-1.407 -1.512,-1.428 -1.512,-3.612 0,-1.764 0.756,-3.297 0.777,-1.533 2.646,-3.528 l 2.94,-3.171 h 2.268 v 0.042 l -3.927,4.053 q -0.357,0.378 -0.693,0.756 -0.336,0.378 -0.651,0.756 0.567,-0.315 1.197,-0.462 0.63,-0.168 1.323,-0.168 z m 3.318,4.83 q 0,-1.491 -0.987,-2.415 -0.987,-0.924 -2.604,-0.924 -1.617,0 -2.709,0.987 -1.071,0.966 -1.071,2.436 0,1.554 1.008,2.541 1.029,0.987 2.562,0.987 1.659,0 2.73,-1.029 1.071,-1.029 1.071,-2.583 z"
         id="path34430" />
      <path
         d="m 105.56706,-3.465 h -7.980004 v -1.344 l 7.266004,-9.891 h 2.478 v 9.744 h 2.478 v 1.491 h -2.478 V 0 h -1.764 z m 0.063,-9.807 -6.111004,8.316 h 6.111004 z"
         id="path34432" />
    </g>
    <path
       d="M621.5 132.48C621.5 129.166 624.186 126.481 627.5 126.481L750.5 126.481C753.814 126.481 756.5 129.166 756.5 132.48L756.5 156.476C756.5 159.789 753.814 162.475 750.5 162.475L627.5 162.475C624.186 162.475 621.5 159.789 621.5 156.476Z"
       stroke="#000000"
       stroke-width="1.33354"
       stroke-miterlimit="8"
       fill-rule="evenodd"
       id="path33866" />
    <g
       aria-label="Parameter"
       transform="matrix(1 0 0 0.999846 634.101 152)"
       id="text33868"
       style="font-size:24px;font-family:'IntelOne Display Regular', 'IntelOne Display Regular_MSFontService', sans-serif;fill:#ffffff">
      <path
         d="m 1.56,0 v -16.8 h 7.296 q 2.76,0 4.344,1.392 1.608,1.368 1.608,3.72 0,2.376 -1.728,3.816 -1.728,1.416 -4.608,1.416 H 3.624 V 0 Z m 11.136,-11.64 q 0,-1.536 -1.032,-2.4 -1.032,-0.888 -2.88,-0.888 h -5.16 v 6.624 h 4.992 q 1.872,0 2.976,-0.888 1.104,-0.912 1.104,-2.448 z"
         id="path34435" />
      <path
         d="m 26.159994,0 h -1.896 v -1.896 q -0.696,1.008 -1.896,1.584 -1.176,0.552 -2.544,0.552 -1.92,0 -3.12,-0.96 -1.2,-0.984 -1.2,-2.568 0,-1.752 1.344,-2.64 1.344,-0.912 3.984,-0.912 h 3.408 q -0.024,-1.632 -0.864,-2.52 -0.816,-0.888 -2.352,-0.888 -0.912,0 -1.8,0.384 -0.888,0.384 -1.752,1.176 l -1.032,-1.296 q 1.008,-0.96 2.208,-1.44 1.2,-0.504 2.568,-0.504 2.328,0 3.624,1.392 1.32,1.368 1.32,3.792 z m -1.92,-5.328 h -3.384 q -1.752,0 -2.592,0.48 -0.84,0.48 -0.84,1.512 0,0.864 0.72,1.44 0.744,0.576 1.896,0.576 1.728,0 2.904,-1.104 1.2,-1.128 1.296,-2.904 z"
         id="path34437" />
      <path
         d="m 28.559979,-11.592 h 1.92 v 1.464 q 0.528,-0.768 1.368,-1.152 0.84,-0.384 1.992,-0.384 h 1.056 v 1.848 h -1.08 q -1.656,0 -2.496,0.864 -0.816,0.864 -0.816,2.616 V 0 h -1.944 z"
         id="path34439" />
      <path
         d="m 45.959966,0 h -1.896 v -1.896 q -0.696,1.008 -1.896,1.584 -1.176,0.552 -2.544,0.552 -1.92,0 -3.12,-0.96 -1.2,-0.984 -1.2,-2.568 0,-1.752 1.344,-2.64 1.344,-0.912 3.984,-0.912 h 3.408 q -0.024,-1.632 -0.864,-2.52 -0.816,-0.888 -2.352,-0.888 -0.912,0 -1.8,0.384 -0.888,0.384 -1.752,1.176 l -1.032,-1.296 q 1.008,-0.96 2.208,-1.44 1.2,-0.504 2.568,-0.504 2.328,0 3.624,1.392 1.32,1.368 1.32,3.792 z m -1.92,-5.328 h -3.384 q -1.752,0 -2.592,0.48 -0.84,0.48 -0.84,1.512 0,0.864 0.72,1.44 0.744,0.576 1.896,0.576 1.728,0 2.904,-1.104 1.2,-1.128 1.296,-2.904 z"
         id="path34441" />
      <path
         d="m 48.359952,-11.592 h 1.92 v 1.392 q 0.648,-0.84 1.464,-1.248 0.84,-0.432 1.872,-0.432 1.2,0 2.136,0.504 0.936,0.504 1.488,1.464 0.648,-0.96 1.632,-1.464 1.008,-0.504 2.256,-0.504 2.04,0 3.24,1.32 1.224,1.32 1.224,3.432 V 0 h -1.968 v -7.008 q 0,-1.464 -0.744,-2.28 -0.72,-0.84 -2.04,-0.84 -1.296,0 -2.112,0.912 -0.792,0.888 -0.792,2.328 V 0 h -1.944 v -7.008 q 0,-1.464 -0.744,-2.28 -0.72,-0.84 -2.04,-0.84 -1.296,0 -2.112,0.912 -0.792,0.888 -0.792,2.328 V 0 h -1.944 z"
         id="path34443" />
      <path
         d="m 73.583971,-1.296 q 1.152,0 2.112,-0.48 0.984,-0.504 1.8,-1.512 l 1.176,1.08 q -0.984,1.296 -2.304,1.944 -1.32,0.624 -2.952,0.624 -2.616,0 -4.296,-1.704 -1.656,-1.728 -1.656,-4.416 0,-2.616 1.704,-4.368 1.704,-1.752 4.2,-1.752 2.544,0 4.128,1.656 1.584,1.656 1.584,4.32 0,0.192 -0.024,0.456 -0.024,0.24 -0.048,0.36 h -9.528 q 0.192,1.704 1.32,2.76 1.152,1.032 2.784,1.032 z m -0.192,-8.928 q -1.512,0 -2.592,0.984 -1.08,0.984 -1.32,2.64 h 7.632 q -0.216,-1.68 -1.224,-2.64 -1.008,-0.984 -2.496,-0.984 z"
         id="path34445" />
      <path
         d="m 81.576006,-3.096 v -6.768 h -1.584 v -1.728 h 1.584 v -3.552 h 1.944 v 3.552 h 2.688 v 1.728 h -2.688 v 6.6 q 0,0.768 0.336,1.152 0.36,0.36 1.08,0.36 h 1.272 V 0 h -1.56 q -1.608,0 -2.352,-0.744 -0.72,-0.744 -0.72,-2.352 z"
         id="path34447" />
      <path
         d="m 93.576021,-1.296 q 1.152,0 2.112,-0.48 0.984,-0.504 1.8,-1.512 l 1.176,1.08 q -0.984,1.296 -2.304,1.944 -1.32,0.624 -2.952,0.624 -2.616,0 -4.296,-1.704 -1.656,-1.728 -1.656,-4.416 0,-2.616 1.704,-4.368 1.704,-1.752 4.2,-1.752 2.544,0 4.128,1.656 1.584,1.656 1.584,4.32 0,0.192 -0.024,0.456 -0.024,0.24 -0.048,0.36 h -9.528 q 0.192,1.704 1.32,2.76 1.152,1.032 2.784,1.032 z m -0.192,-8.928 q -1.512,0 -2.592,0.984 -1.08,0.984 -1.32,2.64 h 7.632 q -0.216,-1.68 -1.224,-2.64 -1.008,-0.984 -2.496,-0.984 z"
         id="path34449" />
      <path
         d="m 101.04004,-11.592 h 1.92 v 1.464 q 0.528,-0.768 1.368,-1.152 0.84,-0.384 1.992,-0.384 h 1.056 v 1.848 h -1.08 q -1.656,0 -2.496,0.864 -0.816,0.864 -0.816,2.616 V 0 h -1.944 z"
         id="path34451" />
    </g>
    <path
       d="M804.5 132.48C804.5 129.166 807.186 126.481 810.5 126.481L888.5 126.481C891.814 126.481 894.5 129.166 894.5 132.48L894.5 156.476C894.5 159.789 891.814 162.475 888.5 162.475L810.5 162.475C807.186 162.475 804.5 159.789 804.5 156.476Z"
       stroke="#000000"
       stroke-width="1.33354"
       stroke-miterlimit="8"
       fill-rule="evenodd"
       id="path33870" />
    <g
       aria-label="Const"
       transform="matrix(1 0 0 0.999846 817.275 152)"
       id="text33872"
       style="font-size:24px;font-family:'IntelOne Display Regular', 'IntelOne Display Regular_MSFontService', sans-serif;fill:#ffffff">
      <path
         d="m 3,-8.424 q 0,3 1.8,4.992 1.8,1.968 4.512,1.968 1.824,0 3.192,-0.84 1.392,-0.84 2.376,-2.52 l 1.584,0.912 q -1.08,2.064 -2.952,3.192 -1.848,1.104 -4.248,1.104 -3.648,0 -6.024,-2.472 -2.352,-2.472 -2.352,-6.288 0,-3.744 2.448,-6.264 2.472,-2.544 6.144,-2.544 2.328,0 4.104,1.104 1.8,1.08 2.808,3.096 L 14.736,-12 q -0.936,-1.704 -2.232,-2.52 -1.296,-0.816 -3.072,-0.816 -2.76,0 -4.608,1.968 Q 3,-11.4 3,-8.424 Z"
         id="path34454" />
      <path
         d="m 30.144003,-5.784 q 0,2.616 -1.752,4.392 -1.752,1.752 -4.32,1.752 -2.568,0 -4.296,-1.752 -1.704,-1.752 -1.704,-4.368 0,-2.616 1.752,-4.368 1.752,-1.776 4.32,-1.776 2.568,0 4.272,1.752 1.728,1.752 1.728,4.368 z m -10.08,0.024 q 0,1.872 1.152,3.144 1.176,1.272 2.904,1.272 1.704,0 2.856,-1.272 1.176,-1.272 1.176,-3.168 0,-1.848 -1.176,-3.12 -1.176,-1.296 -2.88,-1.296 -1.704,0 -2.88,1.272 -1.152,1.272 -1.152,3.168 z"
         id="path34456" />
      <path
         d="m 32.160016,-11.592 h 1.92 v 1.8 q 0.696,-1.008 1.752,-1.536 1.08,-0.552 2.4,-0.552 2.304,0 3.6,1.488 1.296,1.488 1.296,4.08 V 0 h -1.944 v -6.192 q 0,-1.824 -0.912,-2.88 -0.888,-1.056 -2.496,-1.056 -1.656,0 -2.664,1.128 -1.008,1.128 -1.008,2.928 V 0 h -1.944 z"
         id="path34458" />
      <path
         d="m 54.863997,-3.384 q 0,1.632 -1.392,2.664 -1.392,1.032 -3.624,1.032 -1.464,0 -2.76,-0.456 -1.272,-0.48 -2.304,-1.416 l 1.008,-1.488 q 1.104,0.912 2.064,1.32 0.96,0.408 2.04,0.408 1.392,0 2.232,-0.528 0.864,-0.552 0.864,-1.416 0,-0.888 -0.72,-1.272 -0.72,-0.408 -2.376,-0.432 -2.424,-0.096 -3.552,-0.888 -1.104,-0.792 -1.104,-2.472 0,-1.536 1.272,-2.544 1.296,-1.032 3.312,-1.032 1.368,0 2.568,0.432 1.2,0.432 2.184,1.272 l -0.936,1.464 q -0.984,-0.792 -1.896,-1.152 -0.912,-0.36 -1.944,-0.36 -1.176,0 -1.944,0.528 -0.744,0.528 -0.744,1.296 0,0.84 0.672,1.224 0.672,0.384 2.136,0.456 2.616,0.072 3.768,0.864 1.176,0.792 1.176,2.496 z"
         id="path34460" />
      <path
         d="m 57.360033,-3.096 v -6.768 h -1.584 v -1.728 h 1.584 v -3.552 h 1.944 v 3.552 h 2.688 v 1.728 h -2.688 v 6.6 q 0,0.768 0.336,1.152 0.36,0.36 1.08,0.36 h 1.272 V 0 h -1.56 q -1.608,0 -2.352,-0.744 -0.72,-0.744 -0.72,-2.352 z"
         id="path34462" />
    </g>
    <path
       d="M693.5 232.964C693.5 228.823 696.858 225.465 701 225.465L841 225.465C845.142 225.465 848.5 228.823 848.5 232.964L848.5 262.959C848.5 267.101 845.142 270.458 841 270.458L701 270.458C696.858 270.458 693.5 267.101 693.5 262.959Z"
       stroke="#000000"
       stroke-width="1.33354"
       stroke-miterlimit="8"
       fill="#004A86"
       fill-rule="evenodd"
       id="path33874" />
    <g
       aria-label="Convolution"
       transform="matrix(1 0 0 0.999846 706.696 256)"
       id="text33876"
       style="font-size:24px;font-family:'IntelOne Display Regular', 'IntelOne Display Regular_MSFontService', sans-serif;fill:#ffffff">
      <path
         d="m 3,-8.424 q 0,3 1.8,4.992 1.8,1.968 4.512,1.968 1.824,0 3.192,-0.84 1.392,-0.84 2.376,-2.52 l 1.584,0.912 q -1.08,2.064 -2.952,3.192 -1.848,1.104 -4.248,1.104 -3.648,0 -6.024,-2.472 -2.352,-2.472 -2.352,-6.288 0,-3.744 2.448,-6.264 2.472,-2.544 6.144,-2.544 2.328,0 4.104,1.104 1.8,1.08 2.808,3.096 L 14.736,-12 q -0.936,-1.704 -2.232,-2.52 -1.296,-0.816 -3.072,-0.816 -2.76,0 -4.608,1.968 Q 3,-11.4 3,-8.424 Z"
         id="path34465" />
      <path
         d="m 30.144003,-5.784 q 0,2.616 -1.752,4.392 -1.752,1.752 -4.32,1.752 -2.568,0 -4.296,-1.752 -1.704,-1.752 -1.704,-4.368 0,-2.616 1.752,-4.368 1.752,-1.776 4.32,-1.776 2.568,0 4.272,1.752 1.728,1.752 1.728,4.368 z m -10.08,0.024 q 0,1.872 1.152,3.144 1.176,1.272 2.904,1.272 1.704,0 2.856,-1.272 1.176,-1.272 1.176,-3.168 0,-1.848 -1.176,-3.12 -1.176,-1.296 -2.88,-1.296 -1.704,0 -2.88,1.272 -1.152,1.272 -1.152,3.168 z"
         id="path34467" />
      <path
         d="m 32.160016,-11.592 h 1.92 v 1.8 q 0.696,-1.008 1.752,-1.536 1.08,-0.552 2.4,-0.552 2.304,0 3.6,1.488 1.296,1.488 1.296,4.08 V 0 h -1.944 v -6.192 q 0,-1.824 -0.912,-2.88 -0.888,-1.056 -2.496,-1.056 -1.656,0 -2.664,1.128 -1.008,1.128 -1.008,2.928 V 0 h -1.944 z"
         id="path34469" />
      <path
         d="m 49.055986,0 -4.968,-11.592 h 2.136 l 3.768,9.264 3.744,-9.264 h 2.016 L 50.831986,0 Z"
         id="path34471" />
      <path
         d="m 68.159948,-5.784 q 0,2.616 -1.752,4.392 -1.752,1.752 -4.32,1.752 -2.568,0 -4.296,-1.752 -1.704,-1.752 -1.704,-4.368 0,-2.616 1.752,-4.368 1.752,-1.776 4.32,-1.776 2.568,0 4.272,1.752 1.728,1.752 1.728,4.368 z m -10.08,0.024 q 0,1.872 1.152,3.144 1.176,1.272 2.904,1.272 1.704,0 2.856,-1.272 1.176,-1.272 1.176,-3.168 0,-1.848 -1.176,-3.12 -1.176,-1.296 -2.88,-1.296 -1.704,0 -2.88,1.272 -1.152,1.272 -1.152,3.168 z"
         id="path34473" />
      <path
         d="m 70.391961,-16.8 h 1.968 V 0 h -1.968 z"
         id="path34475" />
      <path
         d="m 85.967946,0 h -1.944 v -1.776 q -0.696,1.008 -1.752,1.536 -1.056,0.504 -2.4,0.504 -2.28,0 -3.6,-1.488 -1.296,-1.488 -1.296,-4.056 v -6.312 h 1.968 V -5.4 q 0,1.824 0.888,2.88 0.912,1.056 2.52,1.056 1.632,0 2.64,-1.128 1.008,-1.128 1.008,-2.928 v -6.072 h 1.968 z"
         id="path34477" />
      <path
         d="m 89.135927,-3.096 v -6.768 h -1.584 v -1.728 h 1.584 v -3.552 h 1.944 v 3.552 h 2.688 v 1.728 h -2.688 v 6.6 q 0,0.768 0.336,1.152 0.36,0.36 1.08,0.36 h 1.272 V 0 h -1.56 q -1.608,0 -2.352,-0.744 -0.72,-0.744 -0.72,-2.352 z"
         id="path34479" />
      <path
         d="m 95.855928,-15.48 h 2.16 v 2.136 h -2.16 z m 0.096,15.48 v -11.592 h 1.968 V 0 Z"
         id="path34481" />
      <path
         d="m 112.22391,-5.784 q 0,2.616 -1.752,4.392 -1.752,1.752 -4.32,1.752 -2.568,0 -4.296,-1.752 -1.704,-1.752 -1.704,-4.368 0,-2.616 1.752,-4.368 1.752,-1.776 4.32,-1.776 2.568,0 4.272,1.752 1.728,1.752 1.728,4.368 z m -10.08,0.024 q 0,1.872 1.152,3.144 1.176,1.272 2.904,1.272 1.704,0 2.856,-1.272 1.176,-1.272 1.176,-3.168 0,-1.848 -1.176,-3.12 -1.176,-1.296 -2.88,-1.296 -1.704,0 -2.88,1.272 -1.152,1.272 -1.152,3.168 z"
         id="path34483" />
      <path
         d="m 114.23993,-11.592 h 1.92 v 1.8 q 0.696,-1.008 1.752,-1.536 1.08,-0.552 2.4,-0.552 2.304,0 3.6,1.488 1.296,1.488 1.296,4.08 V 0 h -1.944 v -6.192 q 0,-1.824 -0.912,-2.88 -0.888,-1.056 -2.496,-1.056 -1.656,0 -2.664,1.128 -1.008,1.128 -1.008,2.928 V 0 h -1.944 z"
         id="path34485" />
    </g>
    <path
       d="M0.0312347-0.999512 8.05724-0.748699 16.1078-0.0568547 23.9721 1.01269 31.7143 2.52336 39.1391 4.41103 46.3151 6.61417 53.0562 9.13421 59.3595 11.9077 65.2318 14.9385 70.4869 18.1676 75.1261 21.5993 79.0825 25.2366 82.3202 28.9923 84.9473 34.0151 83.175 34.942 80.6014 30.0214 80.7301 30.2109 77.6055 26.5865 77.6862 26.6697 73.8118 23.1077 73.8939 23.1755 69.3321 19.801 69.4032 19.8491 64.2165 16.6621 64.2814 16.6987 58.4698 13.6992 58.5257 13.7258 52.2767 10.9763 52.3292 10.9976 45.6428 8.49803 45.6994 8.5173 38.5755 6.33013 38.6226 6.34334 31.2488 4.46863 31.3036 4.48095 23.6173 2.98118 23.6741 2.99057 15.8628 1.92823 15.9119 1.93368 7.91315 1.24629 7.96754 1.24947-0.0312347 0.999512ZM87.5976 32.1826 85.7368 40.9312 79.8544 34.1934Z"
       transform="matrix(1.83725e-16 1 1.00015 -1.83697e-16 652 161.975)"
       id="path33878" />
    <path
       d="M877.626 162.014 877 178.05 875.179 193.616 873.858 201.039 872.288 208.198 870.59 214.925 868.637 221.223 866.495 227.081 864.283 232.328 861.867 236.967 859.311 240.928 856.614 244.217 854.515 245.579 853.426 243.901 855.395 242.624 855.166 242.829 857.728 239.704 857.661 239.796 860.161 235.922 860.115 236.002 862.49 231.44 862.455 231.513 864.643 226.327 864.625 226.372 866.75 220.56 866.734 220.607 868.671 214.358 868.657 214.41 870.344 207.723 870.337 207.754 871.9 200.63 871.892 200.669 873.205 193.295 873.196 193.354 875.008 177.857 875.002 177.934 875.627 161.936ZM856.947 247.726 848.002 247.712 853.38 240.565Z"
       id="path33880" />
    <g
       aria-label="1x3x224x22464x3x7x7"
       transform="matrix(1 0 0 0.999846 667.598 207)"
       id="text33884"
       style="font-size:21px;font-family:'IntelOne Display Regular', 'IntelOne Display Regular_MSFontService', sans-serif">
      <path
         d="M 2.835,-13.104 H 0.567 V -14.7 H 4.599 V 0 H 2.835 Z"
         id="path34488" />
      <path
         d="m 8.2110077,0 h -1.911 l 3.9480003,-5.229 -3.6750003,-4.914 h 2.016 l 2.6670003,3.717 2.709,-3.717 h 1.89 l -3.675,4.893 4.011,5.25 h -1.995 l -2.982,-4.095 z"
         id="path34490" />
      <path
         d="m 22.491014,-1.26 q 1.491,0 2.478,-0.819 1.008,-0.84 1.008,-2.079 0,-1.302 -1.029,-2.058 -1.008,-0.756 -2.814,-0.756 h -0.924 v -1.491 h 0.882 q 1.659,0 2.625,-0.714 0.966,-0.735 0.966,-1.869 0,-1.05 -0.882,-1.722 -0.882,-0.672 -2.31,-0.672 -1.512,0 -2.415,0.819 -0.882,0.798 -0.987,2.205 h -1.722 q 0.063,-1.974 1.491,-3.297 1.449,-1.323 3.717,-1.323 2.163,0 3.528,1.113 1.386,1.092 1.386,2.73 0,1.218 -0.714,2.121 -0.693,0.903 -2.016,1.365 1.512,0.42 2.268,1.323 0.756,0.903 0.756,2.31 0,1.869 -1.512,3.15 -1.512,1.26 -3.822,1.26 -2.457,0 -3.906,-1.323 -1.428,-1.344 -1.449,-3.675 h 1.701 q 0.084,1.638 1.029,2.52 0.966,0.882 2.667,0.882 z"
         id="path34492" />
      <path
         d="m 30.639024,0 h -1.911 l 3.948,-5.229 -3.675,-4.914 h 2.016 l 2.667,3.717 2.709,-3.717 h 1.89 l -3.675,4.893 4.011,5.25 h -1.995 l -2.982,-4.095 z"
         id="path34494" />
      <path
         d="m 50.085029,0 h -10.479 v -1.47 l 5.082,-4.662 q 1.806,-1.638 2.457,-2.604 0.651,-0.966 0.651,-2.058 0,-1.155 -0.861,-1.89 -0.84,-0.756 -2.1,-0.756 -1.554,0 -2.457,0.966 -0.882,0.945 -0.945,2.667 h -1.722 q 0.042,-2.394 1.428,-3.801 1.407,-1.428 3.738,-1.428 2.058,0 3.381,1.197 1.344,1.176 1.344,3.003 0,1.47 -0.819,2.73 -0.798,1.239 -3.045,3.213 l -3.717,3.318 h 8.064 z"
         id="path34496" />
      <path
         d="m 61.971031,0 h -10.479 v -1.47 l 5.082,-4.662 q 1.806,-1.638 2.457,-2.604 0.651,-0.966 0.651,-2.058 0,-1.155 -0.861,-1.89 -0.84,-0.756 -2.1,-0.756 -1.554,0 -2.457,0.966 -0.882,0.945 -0.945,2.667 h -1.722 q 0.042,-2.394 1.428,-3.801 1.407,-1.428 3.738,-1.428 2.058,0 3.381,1.197 1.344,1.176 1.344,3.003 0,1.47 -0.819,2.73 -0.798,1.239 -3.045,3.213 l -3.717,3.318 h 8.064 z"
         id="path34498" />
      <path
         d="m 70.833032,-3.465 h -7.98 v -1.344 l 7.266,-9.891 h 2.478 v 9.744 h 2.478 v 1.491 h -2.478 V 0 h -1.764 z m 0.063,-9.807 -6.111,8.316 h 6.111 z"
         id="path34500" />
      <path
         d="m 77.595026,0 h -1.911 l 3.948,-5.229 -3.675,-4.914 h 2.016 l 2.667,3.717 2.709,-3.717 h 1.89 l -3.675,4.893 4.011,5.25 h -1.995 l -2.982,-4.095 z"
         id="path34502" />
      <path
         d="m 97.04103,0 h -10.479 v -1.47 l 5.082,-4.662 q 1.806,-1.638 2.457,-2.604 0.651,-0.966 0.651,-2.058 0,-1.155 -0.861,-1.89 -0.84,-0.756 -2.1,-0.756 -1.554,0 -2.457,0.966 -0.882,0.945 -0.945,2.667 h -1.722 q 0.042,-2.394 1.428,-3.801 1.407,-1.428 3.738,-1.428 2.058,0 3.381,1.197 1.344,1.176 1.344,3.003 0,1.47 -0.819,2.73 -0.798,1.239 -3.045,3.213 l -3.717,3.318 h 8.064 z"
         id="path34504" />
      <path
         d="M 108.92703,0 H 98.448032 v -1.47 l 5.081998,-4.662 q 1.806,-1.638 2.457,-2.604 0.651,-0.966 0.651,-2.058 0,-1.155 -0.861,-1.89 -0.84,-0.756 -2.1,-0.756 -1.554,0 -2.457,0.966 -0.882,0.945 -0.945,2.667 h -1.721998 q 0.042,-2.394 1.428,-3.801 1.406998,-1.428 3.737998,-1.428 2.058,0 3.381,1.197 1.344,1.176 1.344,3.003 0,1.47 -0.819,2.73 -0.798,1.239 -3.045,3.213 l -3.717,3.318 h 8.064 z"
         id="path34506" />
      <path
         d="m 117.78903,-3.465 h -7.98 v -1.344 l 7.266,-9.891 h 2.478 v 9.744 h 2.478 v 1.491 h -2.478 V 0 h -1.764 z m 0.063,-9.807 -6.111,8.316 h 6.111 z"
         id="path34508" />
      <path
         d="m 215.713,-9.723 q 2.268,0 3.696,1.344 1.428,1.344 1.428,3.465 0,2.226 -1.638,3.738 -1.617,1.491 -4.032,1.491 -2.289,0 -3.801,-1.407 -1.512,-1.428 -1.512,-3.612 0,-1.764 0.756,-3.297 0.777,-1.533 2.646,-3.528 l 2.94,-3.171 h 2.268 v 0.042 l -3.927,4.053 q -0.357,0.378 -0.693,0.756 -0.336,0.378 -0.651,0.756 0.567,-0.315 1.197,-0.462 0.63,-0.168 1.323,-0.168 z m 3.318,4.83 q 0,-1.491 -0.987,-2.415 -0.987,-0.924 -2.604,-0.924 -1.617,0 -2.709,0.987 -1.071,0.966 -1.071,2.436 0,1.554 1.008,2.541 1.029,0.987 2.562,0.987 1.659,0 2.73,-1.029 1.071,-1.029 1.071,-2.583 z"
         id="path34510" />
      <path
         d="m 229.67799,-3.465 h -7.98 v -1.344 l 7.266,-9.891 h 2.478 v 9.744 h 2.478 v 1.491 h -2.478 V 0 h -1.764 z m 0.063,-9.807 -6.111,8.316 h 6.111 z"
         id="path34512" />
      <path
         d="m 236.43999,0 h -1.911 l 3.948,-5.229 -3.675,-4.914 h 2.016 l 2.667,3.717 2.709,-3.717 h 1.89 l -3.675,4.893 4.011,5.25 h -1.995 l -2.982,-4.095 z"
         id="path34514" />
      <path
         d="m 250.71999,-1.26 q 1.491,0 2.478,-0.819 1.008,-0.84 1.008,-2.079 0,-1.302 -1.029,-2.058 -1.008,-0.756 -2.814,-0.756 h -0.924 v -1.491 h 0.882 q 1.659,0 2.625,-0.714 0.966,-0.735 0.966,-1.869 0,-1.05 -0.882,-1.722 -0.882,-0.672 -2.31,-0.672 -1.512,0 -2.415,0.819 -0.882,0.798 -0.987,2.205 h -1.722 q 0.063,-1.974 1.491,-3.297 1.449,-1.323 3.717,-1.323 2.163,0 3.528,1.113 1.386,1.092 1.386,2.73 0,1.218 -0.714,2.121 -0.693,0.903 -2.016,1.365 1.512,0.42 2.268,1.323 0.756,0.903 0.756,2.31 0,1.869 -1.512,3.15 -1.512,1.26 -3.822,1.26 -2.457,0 -3.906,-1.323 -1.428,-1.344 -1.449,-3.675 h 1.701 q 0.084,1.638 1.029,2.52 0.966,0.882 2.667,0.882 z"
         id="path34516" />
      <path
         d="m 258.86801,0 h -1.911 l 3.948,-5.229 -3.675,-4.914 h 2.016 l 2.667,3.717 2.709,-3.717 h 1.89 l -3.675,4.893 4.011,5.25 h -1.995 l -2.982,-4.095 z"
         id="path34518" />
      <path
         d="M 277.60001,-13.272 271.32101,0 h -1.953 l 6.426,-13.125 h -8.547 V -14.7 h 10.353 z"
         id="path34520" />
      <path
         d="m 280.14102,0 h -1.911 l 3.948,-5.229 -3.675,-4.914 h 2.016 l 2.667,3.717 2.709,-3.717 h 1.89 l -3.675,4.893 4.011,5.25 h -1.995 l -2.982,-4.095 z"
         id="path34522" />
      <path
         d="M 298.87302,-13.272 292.59402,0 h -1.953 l 6.426,-13.125 h -8.547 V -14.7 h 10.353 z"
         id="path34524" />
    </g>
    <path
       d="M728.5 324.95C728.5 321.913 730.963 319.451 734 319.451L808 319.451C811.038 319.451 813.5 321.913 813.5 324.95L813.5 346.947C813.5 349.984 811.038 352.446 808 352.446L734 352.446C730.963 352.446 728.5 349.984 728.5 346.947Z"
       stroke="#000000"
       stroke-width="1.33354"
       stroke-miterlimit="8"
       fill="#B24501"
       fill-rule="evenodd"
       id="path33886" />
    <g
       aria-label="ReLU"
       transform="matrix(1 0 0 0.999846 743.286 343)"
       id="text33888"
       style="font-size:21px;font-family:'IntelOne Display Regular', 'IntelOne Display Regular_MSFontService', sans-serif;fill:#ffffff">
      <path
         d="M 9.24,-6.195 13.419,0 H 11.277 L 7.308,-5.985 H 3.171 V 0 H 1.365 v -14.7 h 6.468 q 2.478,0 3.864,1.155 1.386,1.134 1.386,3.129 0,1.638 -1.008,2.751 -1.008,1.113 -2.835,1.47 z m 2.016,-4.179 q 0,-1.281 -0.924,-1.995 -0.903,-0.735 -2.541,-0.735 h -4.62 v 5.544 h 4.473 q 1.659,0 2.625,-0.756 0.987,-0.777 0.987,-2.058 z"
         id="path34527" />
      <path
         d="m 19.718997,-1.134 q 1.008,0 1.848,-0.42 0.861,-0.441 1.575,-1.323 l 1.029,0.945 q -0.861,1.134 -2.016,1.701 -1.155,0.546 -2.583,0.546 -2.289,0 -3.759,-1.491 -1.449,-1.512 -1.449,-3.864 0,-2.289 1.491,-3.822 1.491,-1.533 3.675,-1.533 2.226,0 3.612,1.449 1.386,1.449 1.386,3.78 0,0.168 -0.021,0.399 -0.021,0.21 -0.042,0.315 h -8.337 q 0.168,1.491 1.155,2.415 1.008,0.903 2.436,0.903 z m -0.168,-7.812 q -1.323,0 -2.268,0.861 -0.945,0.861 -1.155,2.31 h 6.678 q -0.189,-1.47 -1.071,-2.31 -0.882,-0.861 -2.184,-0.861 z"
         id="path34529" />
      <path
         d="m 26.502011,0 v -14.7 h 1.806 v 13.083 h 8.484 V 0 Z"
         id="path34531" />
      <path
         d="m 44.646038,-1.281 q 2.184,0 3.528,-1.47 1.365,-1.491 1.365,-3.864 V -14.7 h 1.785 v 8.127 q 0,3.108 -1.848,5.019 -1.848,1.89 -4.872,1.89 -3.024,0 -4.851,-1.89 -1.827,-1.911 -1.827,-5.019 V -14.7 h 1.806 v 8.085 q 0,2.373 1.365,3.864 1.365,1.47 3.549,1.47 z"
         id="path34533" />
    </g>
    <path
       d="M719.5 413.77C719.5 410.825 721.888 408.437 724.833 408.437L816.167 408.437C819.112 408.437 821.5 410.825 821.5 413.77L821.5 435.1C821.5 438.045 819.112 440.432 816.167 440.432L724.833 440.432C721.888 440.432 719.5 438.045 719.5 435.1Z"
       stroke="#000000"
       stroke-width="1.33354"
       stroke-miterlimit="8"
       fill-rule="evenodd"
       id="path33890" />
    <g
       aria-label="Result"
       transform="matrix(1 0 0 0.999846 737.449 433)"
       id="text33892"
       style="font-size:24px;font-family:'IntelOne Display Regular', 'IntelOne Display Regular_MSFontService', sans-serif;fill:#ffffff">
      <path
         d="M 10.56,-7.08 15.336,0 H 12.888 L 8.352,-6.84 H 3.624 V 0 H 1.56 v -16.8 h 7.392 q 2.832,0 4.416,1.32 1.584,1.296 1.584,3.576 0,1.872 -1.152,3.144 -1.152,1.272 -3.24,1.68 z m 2.304,-4.776 q 0,-1.464 -1.056,-2.28 -1.032,-0.84 -2.904,-0.84 h -5.28 v 6.336 h 5.112 q 1.896,0 3,-0.864 1.128,-0.888 1.128,-2.352 z"
         id="path34536" />
      <path
         d="m 22.535997,-1.296 q 1.152,0 2.112,-0.48 0.984,-0.504 1.8,-1.512 l 1.176,1.08 q -0.984,1.296 -2.304,1.944 -1.32,0.624 -2.952,0.624 -2.616,0 -4.296,-1.704 -1.656,-1.728 -1.656,-4.416 0,-2.616 1.704,-4.368 1.704,-1.752 4.2,-1.752 2.544,0 4.128,1.656 1.584,1.656 1.584,4.32 0,0.192 -0.024,0.456 -0.024,0.24 -0.048,0.36 h -9.528 q 0.192,1.704 1.32,2.76 1.152,1.032 2.784,1.032 z m -0.192,-8.928 q -1.512,0 -2.592,0.984 -1.08,0.984 -1.32,2.64 h 7.632 q -0.216,-1.68 -1.224,-2.64 -1.008,-0.984 -2.496,-0.984 z"
         id="path34538" />
      <path
         d="m 39.336012,-3.384 q 0,1.632 -1.392,2.664 -1.392,1.032 -3.624,1.032 -1.464,0 -2.76,-0.456 -1.272,-0.48 -2.304,-1.416 l 1.008,-1.488 q 1.104,0.912 2.064,1.32 0.96,0.408 2.04,0.408 1.392,0 2.232,-0.528 0.864,-0.552 0.864,-1.416 0,-0.888 -0.72,-1.272 -0.72,-0.408 -2.376,-0.432 -2.424,-0.096 -3.552,-0.888 -1.104,-0.792 -1.104,-2.472 0,-1.536 1.272,-2.544 1.296,-1.032 3.312,-1.032 1.368,0 2.568,0.432 1.2,0.432 2.184,1.272 l -0.936,1.464 q -0.984,-0.792 -1.896,-1.152 -0.912,-0.36 -1.944,-0.36 -1.176,0 -1.944,0.528 -0.744,0.528 -0.744,1.296 0,0.84 0.672,1.224 0.672,0.384 2.136,0.456 2.616,0.072 3.768,0.864 1.176,0.792 1.176,2.496 z"
         id="path34540" />
      <path
         d="m 52.152028,0 h -1.944 v -1.776 q -0.696,1.008 -1.752,1.536 -1.056,0.504 -2.4,0.504 -2.28,0 -3.6,-1.488 -1.296,-1.488 -1.296,-4.056 v -6.312 h 1.968 V -5.4 q 0,1.824 0.888,2.88 0.912,1.056 2.52,1.056 1.632,0 2.64,-1.128 1.008,-1.128 1.008,-2.928 v -6.072 h 1.968 z"
         id="path34542" />
      <path
         d="m 54.888009,-16.8 h 1.968 V 0 h -1.968 z"
         id="path34544" />
      <path
         d="m 60.263994,-3.096 v -6.768 h -1.584 v -1.728 h 1.584 v -3.552 h 1.944 v 3.552 h 2.688 v 1.728 h -2.688 v 6.6 q 0,0.768 0.336,1.152 0.36,0.36 1.08,0.36 h 1.272 V 0 h -1.56 q -1.608,0 -2.352,-0.744 -0.72,-0.744 -0.72,-2.352 z"
         id="path34546" />
    </g>
    <path
       d="M1-2.12581e-06 1.00009 42.72-0.999909 42.72-1 2.12581e-06ZM4.00009 41.3867 0.000104987 49.3867-3.99991 41.3867Z"
       transform="matrix(-1.00015 0 0 1 770 269.959)"
       id="path33894" />
    <path
       d="M1-1.86078e-06 1.00009 49.7541-0.999907 49.7541-1 1.86078e-06ZM4.00009 48.4208 0.000104987 56.4208-3.99991 48.4208Z"
       transform="matrix(-1.00015 0 0 1 770 351.946)"
       id="path33896" />
    <g
       aria-label="1x64x112x1121x64x112x112"
       transform="matrix(1 0 0 0.999846 779.974 299)"
       id="text33900"
       style="font-size:21px;font-family:'IntelOne Display Regular', 'IntelOne Display Regular_MSFontService', sans-serif">
      <path
         d="M 2.835,-13.104 H 0.567 V -14.7 H 4.599 V 0 H 2.835 Z"
         id="path34549" />
      <path
         d="m 8.2110077,0 h -1.911 l 3.9480003,-5.229 -3.6750003,-4.914 h 2.016 l 2.6670003,3.717 2.709,-3.717 h 1.89 l -3.675,4.893 4.011,5.25 h -1.995 l -2.982,-4.095 z"
         id="path34551" />
      <path
         d="m 22.848014,-9.723 q 2.268,0 3.696,1.344 1.428,1.344 1.428,3.465 0,2.226 -1.638,3.738 -1.617,1.491 -4.032,1.491 -2.289,0 -3.801,-1.407 -1.512,-1.428 -1.512,-3.612 0,-1.764 0.756,-3.297 0.777,-1.533 2.646,-3.528 l 2.94,-3.171 h 2.268 v 0.042 l -3.927,4.053 q -0.357,0.378 -0.693,0.756 -0.336,0.378 -0.651,0.756 0.567,-0.315 1.197,-0.462 0.63,-0.168 1.323,-0.168 z m 3.318,4.83 q 0,-1.491 -0.987,-2.415 -0.987,-0.924 -2.604,-0.924 -1.617,0 -2.709,0.987 -1.071,0.966 -1.071,2.436 0,1.554 1.008,2.541 1.029,0.987 2.562,0.987 1.659,0 2.73,-1.029 1.071,-1.029 1.071,-2.583 z"
         id="path34553" />
      <path
         d="m 36.813013,-3.465 h -7.98 v -1.344 l 7.266,-9.891 h 2.478 v 9.744 h 2.478 v 1.491 h -2.478 V 0 h -1.764 z m 0.063,-9.807 -6.111,8.316 h 6.111 z"
         id="path34555" />
      <path
         d="m 43.575006,0 h -1.911 l 3.948,-5.229 -3.675,-4.914 h 2.016 l 2.667,3.717 2.709,-3.717 h 1.89 l -3.675,4.893 4.011,5.25 h -1.995 l -2.982,-4.095 z"
         id="path34557" />
      <path
         d="m 54.579015,-13.104 h -2.268 V -14.7 h 4.032 V 0 h -1.764 z"
         id="path34559" />
      <path
         d="m 60.690022,-13.104 h -2.268 V -14.7 h 4.032 V 0 h -1.764 z"
         id="path34561" />
      <path
         d="m 75.24303,0 h -10.479 v -1.47 l 5.082,-4.662 q 1.806,-1.638 2.457,-2.604 0.651,-0.966 0.651,-2.058 0,-1.155 -0.861,-1.89 -0.84,-0.756 -2.1,-0.756 -1.554,0 -2.457,0.966 -0.882,0.945 -0.945,2.667 h -1.722 q 0.042,-2.394 1.428,-3.801 1.407,-1.428 3.738,-1.428 2.058,0 3.381,1.197 1.344,1.176 1.344,3.003 0,1.47 -0.819,2.73 -0.798,1.239 -3.045,3.213 l -3.717,3.318 h 8.064 z"
         id="path34563" />
      <path
         d="m 77.952028,0 h -1.911 l 3.948,-5.229 -3.675,-4.914 h 2.016 l 2.667,3.717 2.709,-3.717 h 1.89 l -3.675,4.893 4.011,5.25 h -1.995 l -2.982,-4.095 z"
         id="path34565" />
      <path
         d="m 88.956033,-13.104 h -2.268 V -14.7 h 4.032 V 0 h -1.764 z"
         id="path34567" />
      <path
         d="m 95.06704,-13.104 h -2.268 V -14.7 h 4.032 V 0 h -1.764 z"
         id="path34569" />
      <path
         d="M 109.62005,0 H 99.141048 v -1.47 l 5.082002,-4.662 q 1.806,-1.638 2.457,-2.604 0.651,-0.966 0.651,-2.058 0,-1.155 -0.861,-1.89 -0.84,-0.756 -2.1,-0.756 -1.554,0 -2.457,0.966 -0.882,0.945 -0.945,2.667 h -1.722002 q 0.042,-2.394 1.428002,-3.801 1.407,-1.428 3.738,-1.428 2.058,0 3.381,1.197 1.344,1.176 1.344,3.003 0,1.47 -0.819,2.73 -0.798,1.239 -3.045,3.213 l -3.717,3.318 h 8.064 z"
         id="path34571" />
      <path
         d="M 2.835,72.909199 H 0.567 v -1.596 h 4.032 v 14.7 H 2.835 Z"
         id="path34573" />
      <path
         d="m 8.2110077,86.013199 h -1.911 l 3.9480003,-5.229 -3.6750003,-4.914 h 2.016 l 2.6670003,3.717 2.709,-3.717 h 1.89 l -3.675,4.893 4.011,5.25 h -1.995 l -2.982,-4.095 z"
         id="path34575" />
      <path
         d="m 22.848014,76.290199 q 2.268,0 3.696,1.344 1.428,1.344 1.428,3.465 0,2.226 -1.638,3.738 -1.617,1.491 -4.032,1.491 -2.289,0 -3.801,-1.407 -1.512,-1.428 -1.512,-3.612 0,-1.764 0.756,-3.297 0.777,-1.533 2.646,-3.528 l 2.94,-3.171 h 2.268 v 0.042 l -3.927,4.053 q -0.357,0.378 -0.693,0.756 -0.336,0.378 -0.651,0.756 0.567,-0.315 1.197,-0.462 0.63,-0.168 1.323,-0.168 z m 3.318,4.83 q 0,-1.491 -0.987,-2.415 -0.987,-0.924 -2.604,-0.924 -1.617,0 -2.709,0.987 -1.071,0.966 -1.071,2.436 0,1.554 1.008,2.541 1.029,0.987 2.562,0.987 1.659,0 2.73,-1.029 1.071,-1.029 1.071,-2.583 z"
         id="path34577" />
      <path
         d="m 36.813013,82.548199 h -7.98 v -1.344 l 7.266,-9.891 h 2.478 v 9.744 h 2.478 v 1.491 h -2.478 v 3.465 h -1.764 z m 0.063,-9.807 -6.111,8.316 h 6.111 z"
         id="path34579" />
      <path
         d="m 43.575006,86.013199 h -1.911 l 3.948,-5.229 -3.675,-4.914 h 2.016 l 2.667,3.717 2.709,-3.717 h 1.89 l -3.675,4.893 4.011,5.25 h -1.995 l -2.982,-4.095 z"
         id="path34581" />
      <path
         d="m 54.579015,72.909199 h -2.268 v -1.596 h 4.032 v 14.7 h -1.764 z"
         id="path34583" />
      <path
         d="m 60.690022,72.909199 h -2.268 v -1.596 h 4.032 v 14.7 h -1.764 z"
         id="path34585" />
      <path
         d="m 75.24303,86.013199 h -10.479 v -1.47 l 5.082,-4.662 q 1.806,-1.638 2.457,-2.604 0.651,-0.966 0.651,-2.058 0,-1.155 -0.861,-1.89 -0.84,-0.756 -2.1,-0.756 -1.554,0 -2.457,0.966 -0.882,0.945 -0.945,2.667 h -1.722 q 0.042,-2.394 1.428,-3.801 1.407,-1.428 3.738,-1.428 2.058,0 3.381,1.197 1.344,1.176 1.344,3.003 0,1.47 -0.819,2.73 -0.798,1.239 -3.045,3.213 l -3.717,3.318 h 8.064 z"
         id="path34587" />
      <path
         d="m 77.952028,86.013199 h -1.911 l 3.948,-5.229 -3.675,-4.914 h 2.016 l 2.667,3.717 2.709,-3.717 h 1.89 l -3.675,4.893 4.011,5.25 h -1.995 l -2.982,-4.095 z"
         id="path34589" />
      <path
         d="m 88.956033,72.909199 h -2.268 v -1.596 h 4.032 v 14.7 h -1.764 z"
         id="path34591" />
      <path
         d="m 95.06704,72.909199 h -2.268 v -1.596 h 4.032 v 14.7 h -1.764 z"
         id="path34593" />
      <path
         d="M 109.62005,86.013199 H 99.141048 v -1.47 l 5.082002,-4.662 q 1.806,-1.638 2.457,-2.604 0.651,-0.966 0.651,-2.058 0,-1.155 -0.861,-1.89 -0.84,-0.756 -2.1,-0.756 -1.554,0 -2.457,0.966 -0.882,0.945 -0.945,2.667 h -1.722002 q 0.042,-2.394 1.428002,-3.801 1.407,-1.428 3.738,-1.428 2.058,0 3.381,1.197 1.344,1.176 1.344,3.003 0,1.47 -0.819,2.73 -0.798,1.239 -3.045,3.213 l -3.717,3.318 h 8.064 z"
         id="path34595" />
    </g>
  </g>
</svg>
