<?xml version="1.0" encoding="UTF-8" standalone="no"?>
<svg
   width="270.94812"
   height="243.0246"
   viewBox="0 0 270.94812 243.0246"
   version="1.1"
   xml:space="preserve"
   style="clip-rule:evenodd;fill-rule:evenodd"
   id="svg497"
   sodipodi:docname="THROUGHPUT.svg"
   inkscape:version="1.1.2 (b8e25be833, 2022-02-05)"
   xmlns:inkscape="http://www.inkscape.org/namespaces/inkscape"
   xmlns:sodipodi="http://sodipodi.sourceforge.net/DTD/sodipodi-0.dtd"
   xmlns="http://www.w3.org/2000/svg"
   xmlns:svg="http://www.w3.org/2000/svg"><defs
   id="defs501">
        
        <clipPath
   id="_clip1">
            <rect
   x="0"
   y="0"
   width="678"
   height="259"
   id="rect383" />
        </clipPath>
        
    
            
            
            
            
            
            
            
            
            
            
            
            
            
            
            
            
            
            
            
            
            
            
            
            
            
            
            
        </defs><sodipodi:namedview
   id="namedview499"
   pagecolor="#ffffff"
   bordercolor="#666666"
   borderopacity="1.0"
   inkscape:pageshadow="2"
   inkscape:pageopacity="0.0"
   inkscape:pagecheckerboard="0"
   showgrid="false"
   showguides="true"
   inkscape:guide-bbox="true"
   inkscape:zoom="1.3768127"
   inkscape:cx="222.97876"
   inkscape:cy="213.53666"
   inkscape:window-width="1920"
   inkscape:window-height="1137"
   inkscape:window-x="-8"
   inkscape:window-y="-8"
   inkscape:window-maximized="1"
   inkscape:current-layer="svg497" />
    
<rect
   style="fill:#ffffff;fill-opacity:1;stroke-width:1.00383"
   id="rect6981"
   width="270.94812"
   height="243.0246"
   x="0"
   y="0" /><g
   id="g6819"
   transform="translate(-30.472714,-2.4699442)"><g
     transform="matrix(0.99999793,0,0,1,-346.11653,0)"
     id="g388">
                <path
   d="m 645.53,147.484 c 0.293,-0.293 0.293,-0.768 0,-1.061 l -4.774,-4.772 c -0.293,-0.293 -0.767,-0.292 -1.06,10e-4 -0.293,0.292 -0.293,0.767 0,1.06 l 4.243,4.242 -4.242,4.243 c -0.292,0.293 -0.292,0.768 10e-4,1.061 0.292,0.293 0.767,0.293 1.06,0 z M 379,147.75 645,147.704 v -1.5 l -266,0.046 z"
   style="fill:#8b8e97;fill-rule:nonzero"
   id="path386" />
            </g><g
     transform="matrix(0.99999793,0,0,1,-346.11653,0)"
     id="g392">
                <path
   d="m 480.545,93.03 c 0.293,-0.293 0.293,-0.767 0,-1.06 l -4.773,-4.773 c -0.293,-0.293 -0.768,-0.293 -1.061,0 -0.292,0.293 -0.292,0.768 0,1.06 l 4.243,4.243 -4.243,4.243 c -0.292,0.293 -0.292,0.767 0,1.06 0.293,0.293 0.768,0.293 1.061,0 z m -17.56,0.22 h 17.03 v -1.5 h -17.03 z"
   style="fill:#8b8e97;fill-rule:nonzero"
   id="path390" />
            </g><g
     transform="matrix(0.99999793,0,0,1,-346.11653,0)"
     id="g396">
                <path
   d="m 584.5,59.5 25,30.5 m 0,0 -25,-8.5 m 25,8.5 -25,13.5 m 25,-13.5 -25,36.5"
   style="fill:none;fill-rule:nonzero;stroke:#8b8e97;stroke-width:1px"
   id="path394" />
            </g><g
     transform="matrix(0.99999793,0,0,1,-346.11653,0)"
     id="g400">
                <path
   d="M 571,59 H 544.509 L 571,82 m 0,-23 -26.491,68 M 571,59 544.509,105 M 571,59 544.509,82 M 571,82 H 544.509 M 571,82 544.509,127 M 571,82 544.509,105 m 0,-23 L 571,104 M 544.509,82 571,127 m 0,-23 c 0,0.8 -17.66,1 -26.491,1 M 571,104 544.509,127 M 571,104 544,59 571,127 M 544.509,105 571,127 m 0,0 h -26.491"
   style="fill:none;fill-rule:nonzero;stroke:#8b8e97;stroke-width:1px"
   id="path398" />
            </g><g
     transform="matrix(0.99999793,0,0,1,-346.11653,0)"
     id="g404">
                <path
   d="m 531.5,60.5 -26,9 m 26,-9 -26,31 m 26,-31 -26,53 m 0,-44 26,13 m -26,-13 26,34.5 m -26,-34.5 26,57 m 0,-44 -26,9 m 26,-9 -26,31 m 0,-22 26,12.5 m -26,-12.5 26,35 m 0,-22.5 -26,9.5 m 0,0 26,13"
   style="fill:none;fill-rule:nonzero;stroke:#8b8e97;stroke-width:1px"
   id="path402" />
            </g><g
     transform="matrix(0.99999793,0,0,1,-346.11653,0)"
     id="g408">
                <circle
   cx="499"
   cy="69"
   r="6.5"
   style="fill:#76ceff;stroke:#8b8e97;stroke-width:1px"
   id="circle406" />
            </g><g
     transform="matrix(0.99999793,0,0,1,-346.11653,0)"
     id="g412">
                <circle
   cx="499"
   cy="92"
   r="6.5"
   style="fill:#76ceff;stroke:#8b8e97;stroke-width:1px"
   id="circle410" />
            </g><g
     transform="matrix(0.99999793,0,0,1,-346.11653,0)"
     id="g416">
                <circle
   cx="499"
   cy="115"
   r="6.5"
   style="fill:#76ceff;stroke:#8b8e97;stroke-width:1px"
   id="circle414" />
            </g><g
     transform="matrix(0.99999793,0,0,1,-346.11653,0)"
     id="g420">
                <circle
   cx="538"
   cy="128"
   r="6.5"
   style="fill:#00a3f6;stroke:#8b8e97;stroke-width:1px"
   id="circle418" />
            </g><g
     transform="matrix(0.99999793,0,0,1,-346.11653,0)"
     id="g424">
                <circle
   cx="538"
   cy="105"
   r="6.5"
   style="fill:#00a3f6;stroke:#8b8e97;stroke-width:1px"
   id="circle422" />
            </g><g
     transform="matrix(0.99999793,0,0,1,-346.11653,0)"
     id="g428">
                <circle
   cx="538"
   cy="82"
   r="6.5"
   style="fill:#00a3f6;stroke:#8b8e97;stroke-width:1px"
   id="circle426" />
            </g><g
     transform="matrix(0.99999793,0,0,1,-346.11653,0)"
     id="g432">
                <circle
   cx="538"
   cy="60"
   r="6.5"
   style="fill:#00a3f6;stroke:#8b8e97;stroke-width:1px"
   id="circle430" />
            </g><g
     transform="matrix(0.99999793,0,0,1,-346.11653,0)"
     id="g436">
                <circle
   cx="578"
   cy="59"
   r="6.5"
   style="fill:#0068b5;stroke:#8b8e97;stroke-width:1px"
   id="circle434" />
            </g><g
     transform="matrix(0.99999793,0,0,1,-346.11653,0)"
     id="g440">
                <circle
   cx="578"
   cy="82"
   r="6.5"
   style="fill:#0068b5;stroke:#8b8e97;stroke-width:1px"
   id="circle438" />
            </g><g
     transform="matrix(0.99999793,0,0,1,-346.11653,0)"
     id="g444">
                <circle
   cx="578"
   cy="105"
   r="6.5"
   style="fill:#0068b5;stroke:#8b8e97;stroke-width:1px"
   id="circle442" />
            </g><g
     transform="matrix(0.99999793,0,0,1,-346.11653,0)"
     id="g448">
                <circle
   cx="578"
   cy="128"
   r="6.5"
   style="fill:#0068b5;stroke:#8b8e97;stroke-width:1px"
   id="circle446" />
            </g><g
     transform="matrix(0.99999793,0,0,1,-346.11653,0)"
     id="g452">
                <circle
   cx="615"
   cy="90"
   r="6.5"
   style="fill:#00285a;stroke:#8b8e97;stroke-width:1px"
   id="circle450" />
            </g><g
     transform="matrix(0.99999793,0,0,1,-346.11653,0)"
     id="g456">
                <path
   d="M 390,37 V 174"
   style="fill:none;fill-rule:nonzero;stroke:#a1a3ab;stroke-width:2px;stroke-dasharray:5, 4"
   id="path454" />
            </g><g
     transform="matrix(0.01345862,0.999909,-0.99987556,0.0158316,278.88365,37)"
     id="g460">
                <path
   d="M 0,-1 H 137.013"
   style="fill:none;fill-rule:nonzero;stroke:#a1a3ab;stroke-width:2px;stroke-dasharray:5, 4"
   id="path458" />
            </g><g
     transform="matrix(0.99999793,0,0,1,-346.11653,0)"
     id="g464">
                <path
   d="M 492.887,163.032 V 168 h -2.628 v -12.42 h 8.1 v 2.052 h -5.472 v 3.348 h 4.662 v 2.052 z m 9.983,0.702 V 168 h -2.574 v -12.42 h 4.644 c 1.428,0 2.532,0.354 3.312,1.062 0.78,0.696 1.17,1.704 1.17,3.024 0,1.272 -0.39,2.268 -1.17,2.988 -0.768,0.72 -1.878,1.08 -3.33,1.08 z m 0,-6.228 v 4.302 h 1.638 c 0.768,0 1.344,-0.168 1.728,-0.504 0.384,-0.336 0.576,-0.882 0.576,-1.638 0,-0.756 -0.192,-1.302 -0.576,-1.638 -0.372,-0.348 -0.942,-0.522 -1.71,-0.522 z m 13.247,-0.072 c -0.72,0 -1.278,0.126 -1.674,0.378 -0.384,0.24 -0.576,0.624 -0.576,1.152 0,0.42 0.138,0.75 0.414,0.99 0.288,0.24 0.684,0.432 1.188,0.576 l 1.872,0.558 c 1.008,0.3 1.764,0.708 2.268,1.224 0.516,0.504 0.774,1.194 0.774,2.07 0,0.6 -0.12,1.14 -0.36,1.62 -0.24,0.48 -0.582,0.888 -1.026,1.224 -0.432,0.336 -0.954,0.594 -1.566,0.774 -0.6,0.18 -1.266,0.27 -1.998,0.27 -0.864,0 -1.704,-0.132 -2.52,-0.396 -0.816,-0.264 -1.548,-0.666 -2.196,-1.206 l 1.134,-1.764 c 0.528,0.384 1.08,0.69 1.656,0.918 0.576,0.216 1.194,0.324 1.854,0.324 0.708,0 1.266,-0.132 1.674,-0.396 0.408,-0.264 0.612,-0.666 0.612,-1.206 0,-0.42 -0.138,-0.738 -0.414,-0.954 -0.264,-0.216 -0.66,-0.402 -1.188,-0.558 l -1.998,-0.54 c -0.912,-0.252 -1.626,-0.66 -2.142,-1.224 -0.516,-0.564 -0.774,-1.296 -0.774,-2.196 0,-0.588 0.114,-1.116 0.342,-1.584 0.24,-0.468 0.564,-0.864 0.972,-1.188 0.42,-0.324 0.918,-0.57 1.494,-0.738 0.588,-0.168 1.236,-0.252 1.944,-0.252 0.816,0 1.602,0.114 2.358,0.342 0.768,0.228 1.422,0.558 1.962,0.99 l -1.008,1.674 c -0.888,-0.588 -1.914,-0.882 -3.078,-0.882 z"
   style="fill:#0068b5;fill-rule:nonzero"
   id="path462" />
            </g><g
     transform="matrix(0.77698387,0,0,0.77698548,-226.80579,44.857803)"
     id="g472">
                <path
   d="M 359.163,232.48 V 238 h -2.92 v -13.8 h 9 v 2.28 h -6.08 v 3.72 h 5.18 v 2.28 z m 11.092,0.78 V 238 h -2.86 v -13.8 h 5.16 c 1.587,0 2.813,0.393 3.68,1.18 0.867,0.773 1.3,1.893 1.3,3.36 0,1.413 -0.433,2.52 -1.3,3.32 -0.853,0.8 -2.087,1.2 -3.7,1.2 z m 0,-6.92 v 4.78 h 1.82 c 0.853,0 1.493,-0.187 1.92,-0.56 0.427,-0.373 0.64,-0.98 0.64,-1.82 0,-0.84 -0.213,-1.447 -0.64,-1.82 -0.413,-0.387 -1.047,-0.58 -1.9,-0.58 z m 14.718,-0.08 c -0.8,0 -1.42,0.14 -1.86,0.42 -0.427,0.267 -0.64,0.693 -0.64,1.28 0,0.467 0.153,0.833 0.46,1.1 0.32,0.267 0.76,0.48 1.32,0.64 l 2.08,0.62 c 1.12,0.333 1.96,0.787 2.52,1.36 0.573,0.56 0.86,1.327 0.86,2.3 0,0.667 -0.133,1.267 -0.4,1.8 -0.267,0.533 -0.647,0.987 -1.14,1.36 -0.48,0.373 -1.06,0.66 -1.74,0.86 -0.667,0.2 -1.407,0.3 -2.22,0.3 -0.96,0 -1.893,-0.147 -2.8,-0.44 -0.907,-0.293 -1.72,-0.74 -2.44,-1.34 l 1.26,-1.96 c 0.587,0.427 1.2,0.767 1.84,1.02 0.64,0.24 1.327,0.36 2.06,0.36 0.787,0 1.407,-0.147 1.86,-0.44 0.453,-0.293 0.68,-0.74 0.68,-1.34 0,-0.467 -0.153,-0.82 -0.46,-1.06 -0.293,-0.24 -0.733,-0.447 -1.32,-0.62 l -2.22,-0.6 c -1.013,-0.28 -1.807,-0.733 -2.38,-1.36 -0.573,-0.627 -0.86,-1.44 -0.86,-2.44 0,-0.653 0.127,-1.24 0.38,-1.76 0.267,-0.52 0.627,-0.96 1.08,-1.32 0.467,-0.36 1.02,-0.633 1.66,-0.82 0.653,-0.187 1.373,-0.28 2.16,-0.28 0.907,0 1.78,0.127 2.62,0.38 0.853,0.253 1.58,0.62 2.18,1.1 l -1.12,1.86 c -0.987,-0.653 -2.127,-0.98 -3.42,-0.98 z m 20.929,1.74 v 2.2 h -8.96 V 228 Z m 0,4.42 v 2.2 h -8.96 v -2.2 z"
   style="fill:#0068b5;fill-rule:nonzero"
   id="path470" />
            </g><g
     transform="matrix(0.77698387,0,0,0.77698548,-238.80579,44.857803)"
     id="g476">
                <path
   d="m 439.625,224 h -2.556 v -9.09 h 2.556 z m -2.574,-12.816 h 2.592 v 2.322 h -2.592 z m 5.098,3.726 h 1.458 c 0.612,0 0.918,0.264 0.918,0.792 v 0.666 c 0.24,-0.516 0.618,-0.924 1.134,-1.224 0.516,-0.312 1.134,-0.468 1.854,-0.468 0.972,0 1.722,0.282 2.25,0.846 0.54,0.564 0.81,1.41 0.81,2.538 V 224 h -2.556 v -5.76 c 0,-1.056 -0.468,-1.584 -1.404,-1.584 -0.588,0 -1.056,0.21 -1.404,0.63 -0.336,0.42 -0.504,1.002 -0.504,1.746 V 224 h -2.556 z m 16.082,-1.818 h -0.414 c -0.672,0 -1.158,0.102 -1.458,0.306 -0.288,0.192 -0.432,0.594 -0.432,1.206 v 0.306 h 2.214 v 1.944 h -2.214 V 224 h -2.556 v -7.146 h -1.35 v -1.944 h 1.35 v -0.666 c 0,-1.056 0.306,-1.854 0.918,-2.394 0.612,-0.54 1.5,-0.81 2.664,-0.81 0.204,0 0.426,0.012 0.666,0.036 0.24,0.012 0.444,0.042 0.612,0.09 z m 3.159,6.912 c 0.096,0.792 0.36,1.368 0.792,1.728 0.444,0.348 1.056,0.522 1.836,0.522 0.42,0 0.822,-0.054 1.206,-0.162 0.384,-0.108 0.726,-0.264 1.026,-0.468 l 0.864,1.512 c -0.852,0.732 -1.974,1.098 -3.366,1.098 -0.828,0 -1.548,-0.12 -2.16,-0.36 -0.6,-0.252 -1.104,-0.594 -1.512,-1.026 -0.396,-0.432 -0.69,-0.942 -0.882,-1.53 -0.192,-0.588 -0.288,-1.218 -0.288,-1.89 0,-0.78 0.12,-1.464 0.36,-2.052 0.24,-0.6 0.564,-1.098 0.972,-1.494 0.42,-0.396 0.906,-0.696 1.458,-0.9 0.564,-0.204 1.158,-0.306 1.782,-0.306 0.636,0 1.2,0.102 1.692,0.306 0.492,0.192 0.9,0.468 1.224,0.828 0.336,0.36 0.588,0.792 0.756,1.296 0.18,0.492 0.27,1.044 0.27,1.656 0,0.204 -0.012,0.42 -0.036,0.648 -0.012,0.216 -0.042,0.414 -0.09,0.594 z m 2.088,-3.456 c -0.576,0 -1.044,0.174 -1.404,0.522 -0.36,0.348 -0.57,0.828 -0.63,1.44 h 3.672 v -0.234 c 0,-0.552 -0.15,-0.978 -0.45,-1.278 -0.288,-0.3 -0.684,-0.45 -1.188,-0.45 z m 5.917,-1.638 h 1.458 c 0.612,0 0.918,0.264 0.918,0.792 v 1.116 c 0.192,-0.612 0.51,-1.098 0.954,-1.458 0.456,-0.372 1.02,-0.558 1.692,-0.558 0.276,0 0.516,0.03 0.72,0.09 v 2.088 h -0.522 c -0.912,0 -1.584,0.234 -2.016,0.702 -0.432,0.468 -0.648,1.248 -0.648,2.34 V 224 h -2.556 z m 7.031,0 h 1.458 c 0.612,0 0.918,0.264 0.918,0.792 v 1.116 c 0.192,-0.612 0.51,-1.098 0.954,-1.458 0.456,-0.372 1.02,-0.558 1.692,-0.558 0.276,0 0.516,0.03 0.72,0.09 v 2.088 h -0.522 c -0.912,0 -1.584,0.234 -2.016,0.702 -0.432,0.468 -0.648,1.248 -0.648,2.34 V 224 h -2.556 z m 8.748,5.094 c 0.096,0.792 0.36,1.368 0.792,1.728 0.444,0.348 1.056,0.522 1.836,0.522 0.42,0 0.822,-0.054 1.206,-0.162 0.384,-0.108 0.726,-0.264 1.026,-0.468 l 0.864,1.512 c -0.852,0.732 -1.974,1.098 -3.366,1.098 -0.828,0 -1.548,-0.12 -2.16,-0.36 -0.6,-0.252 -1.104,-0.594 -1.512,-1.026 -0.396,-0.432 -0.69,-0.942 -0.882,-1.53 -0.192,-0.588 -0.288,-1.218 -0.288,-1.89 0,-0.78 0.12,-1.464 0.36,-2.052 0.24,-0.6 0.564,-1.098 0.972,-1.494 0.42,-0.396 0.906,-0.696 1.458,-0.9 0.564,-0.204 1.158,-0.306 1.782,-0.306 0.636,0 1.2,0.102 1.692,0.306 0.492,0.192 0.9,0.468 1.224,0.828 0.336,0.36 0.588,0.792 0.756,1.296 0.18,0.492 0.27,1.044 0.27,1.656 0,0.204 -0.012,0.42 -0.036,0.648 -0.012,0.216 -0.042,0.414 -0.09,0.594 z m 2.088,-3.456 c -0.576,0 -1.044,0.174 -1.404,0.522 -0.36,0.348 -0.57,0.828 -0.63,1.44 h 3.672 v -0.234 c 0,-0.552 -0.15,-0.978 -0.45,-1.278 -0.288,-0.3 -0.684,-0.45 -1.188,-0.45 z M 501.836,224 h -1.476 c -0.612,0 -0.918,-0.27 -0.918,-0.81 v -0.594 c -0.24,0.504 -0.612,0.906 -1.116,1.206 -0.492,0.288 -1.086,0.432 -1.782,0.432 -0.6,0 -1.14,-0.114 -1.62,-0.342 -0.48,-0.228 -0.888,-0.546 -1.224,-0.954 -0.324,-0.42 -0.576,-0.924 -0.756,-1.512 -0.18,-0.588 -0.27,-1.248 -0.27,-1.98 0,-0.756 0.096,-1.428 0.288,-2.016 0.192,-0.6 0.462,-1.098 0.81,-1.494 0.348,-0.408 0.762,-0.72 1.242,-0.936 0.492,-0.216 1.038,-0.324 1.638,-0.324 0.576,0 1.092,0.114 1.548,0.342 0.456,0.228 0.816,0.552 1.08,0.972 v -4.896 h 2.556 z m -2.484,-4.536 c 0,-0.876 -0.174,-1.56 -0.522,-2.052 -0.336,-0.504 -0.834,-0.756 -1.494,-0.756 -0.648,0 -1.152,0.246 -1.512,0.738 -0.36,0.492 -0.54,1.182 -0.54,2.07 0,0.9 0.168,1.59 0.504,2.07 0.336,0.48 0.834,0.72 1.494,0.72 0.648,0 1.152,-0.246 1.512,-0.738 0.372,-0.504 0.558,-1.188 0.558,-2.052 z m 9.4,-4.554 h 1.458 c 0.612,0 0.918,0.264 0.918,0.792 v 0.666 c 0.24,-0.516 0.618,-0.924 1.134,-1.224 0.516,-0.312 1.134,-0.468 1.854,-0.468 0.972,0 1.722,0.282 2.25,0.846 0.54,0.564 0.81,1.41 0.81,2.538 V 224 h -2.556 v -5.76 c 0,-1.056 -0.468,-1.584 -1.404,-1.584 -0.588,0 -1.056,0.21 -1.404,0.63 -0.336,0.42 -0.504,1.002 -0.504,1.746 V 224 h -2.556 z M 527.84,224 h -1.458 c -0.336,0 -0.576,-0.072 -0.72,-0.216 -0.144,-0.144 -0.216,-0.366 -0.216,-0.666 v -0.504 c -0.24,0.54 -0.612,0.948 -1.116,1.224 -0.492,0.264 -1.062,0.396 -1.71,0.396 -0.996,0 -1.752,-0.294 -2.268,-0.882 -0.504,-0.588 -0.756,-1.446 -0.756,-2.574 v -5.868 h 2.556 v 5.706 c 0,0.588 0.114,1.008 0.342,1.26 0.228,0.252 0.564,0.378 1.008,0.378 0.588,0 1.032,-0.21 1.332,-0.63 0.3,-0.42 0.45,-0.99 0.45,-1.71 v -5.004 h 2.556 z m 10.634,0 h -2.556 v -5.706 c 0,-1.056 -0.426,-1.584 -1.278,-1.584 -0.54,0 -0.966,0.192 -1.278,0.576 -0.3,0.372 -0.45,0.918 -0.45,1.638 V 224 h -2.556 v -9.09 h 1.458 c 0.612,0 0.918,0.264 0.918,0.792 v 0.63 c 0.24,-0.54 0.606,-0.948 1.098,-1.224 0.504,-0.288 1.08,-0.432 1.728,-0.432 0.648,0 1.188,0.144 1.62,0.432 0.444,0.276 0.768,0.684 0.972,1.224 0.264,-0.528 0.648,-0.936 1.152,-1.224 0.504,-0.288 1.098,-0.432 1.782,-0.432 0.948,0 1.674,0.294 2.178,0.882 0.516,0.576 0.774,1.41 0.774,2.502 V 224 h -2.556 v -5.706 c 0,-1.056 -0.426,-1.584 -1.278,-1.584 -0.54,0 -0.966,0.192 -1.278,0.576 -0.3,0.372 -0.45,0.918 -0.45,1.638 z m 8.054,-12.906 h 2.556 v 5.04 c 0.288,-0.468 0.69,-0.828 1.206,-1.08 0.516,-0.252 1.098,-0.378 1.746,-0.378 1.128,0 2.016,0.402 2.664,1.206 0.66,0.792 0.99,1.914 0.99,3.366 0,0.744 -0.09,1.422 -0.27,2.034 -0.168,0.612 -0.42,1.14 -0.756,1.584 -0.336,0.432 -0.744,0.768 -1.224,1.008 -0.468,0.24 -1.002,0.36 -1.602,0.36 -0.552,0 -1.104,-0.12 -1.656,-0.36 -0.54,-0.24 -0.96,-0.66 -1.26,-1.26 v 0.576 c 0,0.54 -0.306,0.81 -0.918,0.81 h -1.476 z m 2.484,8.478 c 0,0.84 0.168,1.5 0.504,1.98 0.348,0.468 0.858,0.702 1.53,0.702 0.684,0 1.194,-0.252 1.53,-0.756 0.336,-0.516 0.504,-1.212 0.504,-2.088 0,-0.888 -0.162,-1.566 -0.486,-2.034 -0.324,-0.48 -0.81,-0.72 -1.458,-0.72 -0.684,0 -1.212,0.264 -1.584,0.792 -0.36,0.516 -0.54,1.224 -0.54,2.124 z m 10.675,0.432 c 0.096,0.792 0.36,1.368 0.792,1.728 0.444,0.348 1.056,0.522 1.836,0.522 0.42,0 0.822,-0.054 1.206,-0.162 0.384,-0.108 0.726,-0.264 1.026,-0.468 l 0.864,1.512 c -0.852,0.732 -1.974,1.098 -3.366,1.098 -0.828,0 -1.548,-0.12 -2.16,-0.36 -0.6,-0.252 -1.104,-0.594 -1.512,-1.026 -0.396,-0.432 -0.69,-0.942 -0.882,-1.53 -0.192,-0.588 -0.288,-1.218 -0.288,-1.89 0,-0.78 0.12,-1.464 0.36,-2.052 0.24,-0.6 0.564,-1.098 0.972,-1.494 0.42,-0.396 0.906,-0.696 1.458,-0.9 0.564,-0.204 1.158,-0.306 1.782,-0.306 0.636,0 1.2,0.102 1.692,0.306 0.492,0.192 0.9,0.468 1.224,0.828 0.336,0.36 0.588,0.792 0.756,1.296 0.18,0.492 0.27,1.044 0.27,1.656 0,0.204 -0.012,0.42 -0.036,0.648 -0.012,0.216 -0.042,0.414 -0.09,0.594 z m 2.088,-3.456 c -0.576,0 -1.044,0.174 -1.404,0.522 -0.36,0.348 -0.57,0.828 -0.63,1.44 h 3.672 v -0.234 c 0,-0.552 -0.15,-0.978 -0.45,-1.278 -0.288,-0.3 -0.684,-0.45 -1.188,-0.45 z m 5.917,-1.638 h 1.458 c 0.612,0 0.918,0.264 0.918,0.792 v 1.116 c 0.192,-0.612 0.51,-1.098 0.954,-1.458 0.456,-0.372 1.02,-0.558 1.692,-0.558 0.276,0 0.516,0.03 0.72,0.09 v 2.088 h -0.522 c -0.912,0 -1.584,0.234 -2.016,0.702 -0.432,0.468 -0.648,1.248 -0.648,2.34 V 224 h -2.556 z m 20.281,4.536 c 0,0.756 -0.114,1.434 -0.342,2.034 -0.216,0.588 -0.528,1.086 -0.936,1.494 -0.408,0.408 -0.9,0.72 -1.476,0.936 -0.576,0.216 -1.218,0.324 -1.926,0.324 -0.708,0 -1.35,-0.108 -1.926,-0.324 -0.576,-0.216 -1.068,-0.528 -1.476,-0.936 -0.408,-0.408 -0.726,-0.906 -0.954,-1.494 -0.216,-0.6 -0.324,-1.278 -0.324,-2.034 0,-0.756 0.108,-1.428 0.324,-2.016 0.228,-0.588 0.546,-1.086 0.954,-1.494 0.408,-0.408 0.9,-0.72 1.476,-0.936 0.576,-0.216 1.218,-0.324 1.926,-0.324 0.708,0 1.35,0.108 1.926,0.324 0.576,0.216 1.068,0.528 1.476,0.936 0.408,0.408 0.72,0.906 0.936,1.494 0.228,0.588 0.342,1.26 0.342,2.016 z m -2.61,0 c 0,-0.924 -0.18,-1.62 -0.54,-2.088 -0.348,-0.468 -0.858,-0.702 -1.53,-0.702 -0.672,0 -1.188,0.234 -1.548,0.702 -0.348,0.468 -0.522,1.164 -0.522,2.088 0,0.936 0.174,1.638 0.522,2.106 0.36,0.468 0.876,0.702 1.548,0.702 0.672,0 1.182,-0.234 1.53,-0.702 0.36,-0.468 0.54,-1.17 0.54,-2.106 z m 9.784,-6.354 h -0.414 c -0.672,0 -1.158,0.102 -1.458,0.306 -0.288,0.192 -0.432,0.594 -0.432,1.206 v 0.306 h 2.214 v 1.944 h -2.214 V 224 h -2.556 v -7.146 h -1.35 v -1.944 h 1.35 v -0.666 c 0,-1.056 0.306,-1.854 0.918,-2.394 0.612,-0.54 1.5,-0.81 2.664,-0.81 0.204,0 0.426,0.012 0.666,0.036 0.24,0.012 0.444,0.042 0.612,0.09 z m 8.13,10.908 h -2.556 v -9.09 h 2.556 z m -2.574,-12.816 h 2.592 v 2.322 h -2.592 z M 613.919,224 h -2.556 v -5.706 c 0,-1.056 -0.426,-1.584 -1.278,-1.584 -0.54,0 -0.966,0.192 -1.278,0.576 -0.3,0.372 -0.45,0.918 -0.45,1.638 V 224 h -2.556 v -9.09 h 1.458 c 0.612,0 0.918,0.264 0.918,0.792 v 0.63 c 0.24,-0.54 0.606,-0.948 1.098,-1.224 0.504,-0.288 1.08,-0.432 1.728,-0.432 0.648,0 1.188,0.144 1.62,0.432 0.444,0.276 0.768,0.684 0.972,1.224 0.264,-0.528 0.648,-0.936 1.152,-1.224 0.504,-0.288 1.098,-0.432 1.782,-0.432 0.948,0 1.674,0.294 2.178,0.882 0.516,0.576 0.774,1.41 0.774,2.502 V 224 h -2.556 v -5.706 c 0,-1.056 -0.426,-1.584 -1.278,-1.584 -0.54,0 -0.966,0.192 -1.278,0.576 -0.3,0.372 -0.45,0.918 -0.45,1.638 z m 7.37,-2.556 c 0,-0.948 0.342,-1.668 1.026,-2.16 0.684,-0.504 1.626,-0.756 2.826,-0.756 h 1.476 v -0.36 c 0,-0.528 -0.144,-0.912 -0.432,-1.152 -0.276,-0.252 -0.72,-0.378 -1.332,-0.378 -0.456,0 -0.894,0.066 -1.314,0.198 -0.42,0.132 -0.804,0.318 -1.152,0.558 l -0.882,-1.494 c 0.504,-0.384 1.074,-0.684 1.71,-0.9 0.636,-0.216 1.32,-0.324 2.052,-0.324 1.248,0 2.184,0.3 2.808,0.9 0.636,0.6 0.954,1.464 0.954,2.592 v 3.492 c 0,0.276 0.048,0.462 0.144,0.558 0.096,0.084 0.27,0.126 0.522,0.126 h 0.198 v 1.566 c -0.132,0.048 -0.288,0.09 -0.468,0.126 -0.18,0.036 -0.396,0.054 -0.648,0.054 -0.528,0 -0.924,-0.108 -1.188,-0.324 -0.264,-0.216 -0.42,-0.534 -0.468,-0.954 -0.216,0.432 -0.576,0.774 -1.08,1.026 -0.504,0.252 -1.08,0.378 -1.728,0.378 -0.912,0 -1.644,-0.246 -2.196,-0.738 -0.552,-0.492 -0.828,-1.17 -0.828,-2.034 z m 3.672,0.936 c 0.516,0 0.918,-0.168 1.206,-0.504 0.3,-0.336 0.45,-0.81 0.45,-1.422 v -0.468 h -1.242 c -0.528,0 -0.936,0.108 -1.224,0.324 -0.276,0.204 -0.414,0.516 -0.414,0.936 0,0.384 0.108,0.672 0.324,0.864 0.228,0.18 0.528,0.27 0.9,0.27 z m 5.8,2.916 c 0,-0.54 0.144,-0.984 0.432,-1.332 0.3,-0.348 0.708,-0.588 1.224,-0.72 -0.42,-0.108 -0.732,-0.294 -0.936,-0.558 -0.204,-0.276 -0.306,-0.594 -0.306,-0.954 0,-0.456 0.138,-0.81 0.414,-1.062 0.276,-0.264 0.606,-0.432 0.99,-0.504 -0.384,-0.276 -0.684,-0.618 -0.9,-1.026 -0.204,-0.408 -0.306,-0.846 -0.306,-1.314 0,-0.468 0.096,-0.894 0.288,-1.278 0.204,-0.396 0.48,-0.732 0.828,-1.008 0.348,-0.276 0.762,-0.486 1.242,-0.63 0.492,-0.156 1.026,-0.234 1.602,-0.234 0.768,0 1.452,0.126 2.052,0.378 h 2.826 v 1.53 h -1.314 c 0.324,0.324 0.486,0.804 0.486,1.44 0,0.924 -0.36,1.65 -1.08,2.178 -0.72,0.516 -1.68,0.774 -2.88,0.774 -0.564,0 -1.032,-0.054 -1.404,-0.162 -0.372,0.108 -0.558,0.36 -0.558,0.756 0,0.252 0.096,0.444 0.288,0.576 0.192,0.12 0.462,0.18 0.81,0.18 h 1.908 c 1.128,0 1.998,0.21 2.61,0.63 0.612,0.42 0.918,1.044 0.918,1.872 0,0.492 -0.12,0.936 -0.36,1.332 -0.228,0.396 -0.558,0.732 -0.99,1.008 -0.432,0.276 -0.954,0.486 -1.566,0.63 -0.6,0.144 -1.278,0.216 -2.034,0.216 -1.344,0 -2.394,-0.24 -3.15,-0.72 -0.756,-0.48 -1.134,-1.146 -1.134,-1.998 z m 3.96,-1.332 c -0.492,0 -0.87,0.09 -1.134,0.27 -0.264,0.18 -0.396,0.462 -0.396,0.846 0,0.42 0.18,0.738 0.54,0.954 0.372,0.228 0.906,0.342 1.602,0.342 0.708,0 1.248,-0.12 1.62,-0.36 0.384,-0.228 0.576,-0.57 0.576,-1.026 0,-0.348 -0.126,-0.606 -0.378,-0.774 -0.252,-0.168 -0.66,-0.252 -1.224,-0.252 z m 2.25,-6.138 c 0,-0.468 -0.144,-0.84 -0.432,-1.116 -0.276,-0.276 -0.666,-0.414 -1.17,-0.414 -0.504,0 -0.894,0.138 -1.17,0.414 -0.276,0.276 -0.414,0.648 -0.414,1.116 0,0.468 0.138,0.84 0.414,1.116 0.276,0.276 0.666,0.414 1.17,0.414 0.504,0 0.894,-0.138 1.17,-0.414 0.288,-0.276 0.432,-0.648 0.432,-1.116 z m 6.775,2.178 c 0.096,0.792 0.36,1.368 0.792,1.728 0.444,0.348 1.056,0.522 1.836,0.522 0.42,0 0.822,-0.054 1.206,-0.162 0.384,-0.108 0.726,-0.264 1.026,-0.468 l 0.864,1.512 c -0.852,0.732 -1.974,1.098 -3.366,1.098 -0.828,0 -1.548,-0.12 -2.16,-0.36 -0.6,-0.252 -1.104,-0.594 -1.512,-1.026 -0.396,-0.432 -0.69,-0.942 -0.882,-1.53 -0.192,-0.588 -0.288,-1.218 -0.288,-1.89 0,-0.78 0.12,-1.464 0.36,-2.052 0.24,-0.6 0.564,-1.098 0.972,-1.494 0.42,-0.396 0.906,-0.696 1.458,-0.9 0.564,-0.204 1.158,-0.306 1.782,-0.306 0.636,0 1.2,0.102 1.692,0.306 0.492,0.192 0.9,0.468 1.224,0.828 0.336,0.36 0.588,0.792 0.756,1.296 0.18,0.492 0.27,1.044 0.27,1.656 0,0.204 -0.012,0.42 -0.036,0.648 -0.012,0.216 -0.042,0.414 -0.09,0.594 z m 2.088,-3.456 c -0.576,0 -1.044,0.174 -1.404,0.522 -0.36,0.348 -0.57,0.828 -0.63,1.44 h 3.672 v -0.234 c 0,-0.552 -0.15,-0.978 -0.45,-1.278 -0.288,-0.3 -0.684,-0.45 -1.188,-0.45 z m 9.39,0.072 c -0.42,0 -0.75,0.072 -0.99,0.216 -0.24,0.132 -0.36,0.336 -0.36,0.612 0,0.228 0.072,0.408 0.216,0.54 0.144,0.12 0.336,0.216 0.576,0.288 l 1.368,0.414 c 0.84,0.252 1.458,0.582 1.854,0.99 0.408,0.396 0.612,0.936 0.612,1.62 0,0.912 -0.342,1.632 -1.026,2.16 -0.672,0.516 -1.596,0.774 -2.772,0.774 -0.744,0 -1.428,-0.102 -2.052,-0.306 -0.624,-0.216 -1.176,-0.516 -1.656,-0.9 l 0.954,-1.62 c 0.396,0.276 0.822,0.492 1.278,0.648 0.468,0.156 0.924,0.234 1.368,0.234 0.42,0 0.75,-0.078 0.99,-0.234 0.24,-0.156 0.36,-0.396 0.36,-0.72 0,-0.216 -0.066,-0.39 -0.198,-0.522 -0.12,-0.144 -0.336,-0.264 -0.648,-0.36 l -1.494,-0.432 c -0.744,-0.216 -1.314,-0.528 -1.71,-0.936 -0.384,-0.42 -0.576,-0.966 -0.576,-1.638 0,-0.456 0.09,-0.852 0.27,-1.188 0.18,-0.348 0.426,-0.636 0.738,-0.864 0.324,-0.24 0.708,-0.42 1.152,-0.54 0.444,-0.12 0.93,-0.18 1.458,-0.18 0.648,0 1.278,0.09 1.89,0.27 0.612,0.168 1.128,0.408 1.548,0.72 l -0.81,1.62 c -0.744,-0.444 -1.524,-0.666 -2.34,-0.666 z"
   style="fill:#0068b5;fill-rule:nonzero"
   id="path474" />
            </g><g
     transform="matrix(0.77698387,0,0,0.77698548,-238.80579,44.857803)"
     id="g480">
                <path
   d="m 439.099,241.458 c 0.276,-0.612 0.702,-1.062 1.278,-1.35 0.576,-0.288 1.188,-0.432 1.836,-0.432 1.092,0 1.974,0.39 2.646,1.17 0.672,0.768 1.008,1.902 1.008,3.402 0,0.732 -0.09,1.404 -0.27,2.016 -0.168,0.612 -0.42,1.14 -0.756,1.584 -0.324,0.432 -0.726,0.774 -1.206,1.026 -0.48,0.24 -1.02,0.36 -1.62,0.36 -0.504,0 -1.014,-0.096 -1.53,-0.288 -0.504,-0.204 -0.912,-0.552 -1.224,-1.044 v 4.878 h -2.556 v -12.87 h 1.476 c 0.612,0 0.918,0.27 0.918,0.81 z m 0.09,3.114 c 0,0.84 0.168,1.5 0.504,1.98 0.348,0.468 0.858,0.702 1.53,0.702 0.36,0 0.666,-0.072 0.918,-0.216 0.264,-0.144 0.474,-0.342 0.63,-0.594 0.168,-0.264 0.288,-0.57 0.36,-0.918 0.084,-0.348 0.126,-0.72 0.126,-1.116 0,-0.888 -0.162,-1.566 -0.486,-2.034 -0.324,-0.48 -0.81,-0.72 -1.458,-0.72 -0.684,0 -1.212,0.264 -1.584,0.792 -0.36,0.516 -0.54,1.224 -0.54,2.124 z m 8.696,-4.662 h 1.458 c 0.612,0 0.918,0.264 0.918,0.792 v 1.116 c 0.192,-0.612 0.51,-1.098 0.954,-1.458 0.456,-0.372 1.02,-0.558 1.692,-0.558 0.276,0 0.516,0.03 0.72,0.09 v 2.088 h -0.522 c -0.912,0 -1.584,0.234 -2.016,0.702 -0.432,0.468 -0.648,1.248 -0.648,2.34 V 249 h -2.556 z m 15.624,4.536 c 0,0.756 -0.114,1.434 -0.342,2.034 -0.216,0.588 -0.528,1.086 -0.936,1.494 -0.408,0.408 -0.9,0.72 -1.476,0.936 -0.576,0.216 -1.218,0.324 -1.926,0.324 -0.708,0 -1.35,-0.108 -1.926,-0.324 -0.576,-0.216 -1.068,-0.528 -1.476,-0.936 -0.408,-0.408 -0.726,-0.906 -0.954,-1.494 -0.216,-0.6 -0.324,-1.278 -0.324,-2.034 0,-0.756 0.108,-1.428 0.324,-2.016 0.228,-0.588 0.546,-1.086 0.954,-1.494 0.408,-0.408 0.9,-0.72 1.476,-0.936 0.576,-0.216 1.218,-0.324 1.926,-0.324 0.708,0 1.35,0.108 1.926,0.324 0.576,0.216 1.068,0.528 1.476,0.936 0.408,0.408 0.72,0.906 0.936,1.494 0.228,0.588 0.342,1.26 0.342,2.016 z m -2.61,0 c 0,-0.924 -0.18,-1.62 -0.54,-2.088 -0.348,-0.468 -0.858,-0.702 -1.53,-0.702 -0.672,0 -1.188,0.234 -1.548,0.702 -0.348,0.468 -0.522,1.164 -0.522,2.088 0,0.936 0.174,1.638 0.522,2.106 0.36,0.468 0.876,0.702 1.548,0.702 0.672,0 1.182,-0.234 1.53,-0.702 0.36,-0.468 0.54,-1.17 0.54,-2.106 z m 6.723,0 c 0,0.888 0.204,1.566 0.612,2.034 0.42,0.456 1.05,0.684 1.89,0.684 0.348,0 0.684,-0.042 1.008,-0.126 0.336,-0.096 0.624,-0.228 0.864,-0.396 l 0.756,1.746 c -0.348,0.252 -0.768,0.456 -1.26,0.612 -0.492,0.156 -1.062,0.234 -1.71,0.234 -0.744,0 -1.41,-0.108 -1.998,-0.324 -0.588,-0.228 -1.086,-0.546 -1.494,-0.954 -0.408,-0.408 -0.726,-0.906 -0.954,-1.494 -0.216,-0.588 -0.324,-1.254 -0.324,-1.998 0,-0.744 0.114,-1.41 0.342,-1.998 0.228,-0.588 0.546,-1.086 0.954,-1.494 0.42,-0.42 0.924,-0.738 1.512,-0.954 0.6,-0.228 1.272,-0.342 2.016,-0.342 0.6,0 1.134,0.072 1.602,0.216 0.468,0.144 0.876,0.336 1.224,0.576 l -0.774,1.746 c -0.228,-0.156 -0.492,-0.27 -0.792,-0.342 -0.3,-0.084 -0.618,-0.126 -0.954,-0.126 -0.768,0 -1.38,0.222 -1.836,0.666 -0.456,0.432 -0.684,1.11 -0.684,2.034 z m 8.557,0.558 c 0.096,0.792 0.36,1.368 0.792,1.728 0.444,0.348 1.056,0.522 1.836,0.522 0.42,0 0.822,-0.054 1.206,-0.162 0.384,-0.108 0.726,-0.264 1.026,-0.468 l 0.864,1.512 c -0.852,0.732 -1.974,1.098 -3.366,1.098 -0.828,0 -1.548,-0.12 -2.16,-0.36 -0.6,-0.252 -1.104,-0.594 -1.512,-1.026 -0.396,-0.432 -0.69,-0.942 -0.882,-1.53 -0.192,-0.588 -0.288,-1.218 -0.288,-1.89 0,-0.78 0.12,-1.464 0.36,-2.052 0.24,-0.6 0.564,-1.098 0.972,-1.494 0.42,-0.396 0.906,-0.696 1.458,-0.9 0.564,-0.204 1.158,-0.306 1.782,-0.306 0.636,0 1.2,0.102 1.692,0.306 0.492,0.192 0.9,0.468 1.224,0.828 0.336,0.36 0.588,0.792 0.756,1.296 0.18,0.492 0.27,1.044 0.27,1.656 0,0.204 -0.012,0.42 -0.036,0.648 -0.012,0.216 -0.042,0.414 -0.09,0.594 z m 2.088,-3.456 c -0.576,0 -1.044,0.174 -1.404,0.522 -0.36,0.348 -0.57,0.828 -0.63,1.44 h 3.672 v -0.234 c 0,-0.552 -0.15,-0.978 -0.45,-1.278 -0.288,-0.3 -0.684,-0.45 -1.188,-0.45 z m 9.391,0.072 c -0.42,0 -0.75,0.072 -0.99,0.216 -0.24,0.132 -0.36,0.336 -0.36,0.612 0,0.228 0.072,0.408 0.216,0.54 0.144,0.12 0.336,0.216 0.576,0.288 l 1.368,0.414 c 0.84,0.252 1.458,0.582 1.854,0.99 0.408,0.396 0.612,0.936 0.612,1.62 0,0.912 -0.342,1.632 -1.026,2.16 -0.672,0.516 -1.596,0.774 -2.772,0.774 -0.744,0 -1.428,-0.102 -2.052,-0.306 -0.624,-0.216 -1.176,-0.516 -1.656,-0.9 l 0.954,-1.62 c 0.396,0.276 0.822,0.492 1.278,0.648 0.468,0.156 0.924,0.234 1.368,0.234 0.42,0 0.75,-0.078 0.99,-0.234 0.24,-0.156 0.36,-0.396 0.36,-0.72 0,-0.216 -0.066,-0.39 -0.198,-0.522 -0.12,-0.144 -0.336,-0.264 -0.648,-0.36 l -1.494,-0.432 c -0.744,-0.216 -1.314,-0.528 -1.71,-0.936 -0.384,-0.42 -0.576,-0.966 -0.576,-1.638 0,-0.456 0.09,-0.852 0.27,-1.188 0.18,-0.348 0.426,-0.636 0.738,-0.864 0.324,-0.24 0.708,-0.42 1.152,-0.54 0.444,-0.12 0.93,-0.18 1.458,-0.18 0.648,0 1.278,0.09 1.89,0.27 0.612,0.168 1.128,0.408 1.548,0.72 l -0.81,1.62 c -0.744,-0.444 -1.524,-0.666 -2.34,-0.666 z m 8.701,0 c -0.42,0 -0.75,0.072 -0.99,0.216 -0.24,0.132 -0.36,0.336 -0.36,0.612 0,0.228 0.072,0.408 0.216,0.54 0.144,0.12 0.336,0.216 0.576,0.288 l 1.368,0.414 c 0.84,0.252 1.458,0.582 1.854,0.99 0.408,0.396 0.612,0.936 0.612,1.62 0,0.912 -0.342,1.632 -1.026,2.16 -0.672,0.516 -1.596,0.774 -2.772,0.774 -0.744,0 -1.428,-0.102 -2.052,-0.306 -0.624,-0.216 -1.176,-0.516 -1.656,-0.9 l 0.954,-1.62 c 0.396,0.276 0.822,0.492 1.278,0.648 0.468,0.156 0.924,0.234 1.368,0.234 0.42,0 0.75,-0.078 0.99,-0.234 0.24,-0.156 0.36,-0.396 0.36,-0.72 0,-0.216 -0.066,-0.39 -0.198,-0.522 -0.12,-0.144 -0.336,-0.264 -0.648,-0.36 l -1.494,-0.432 c -0.744,-0.216 -1.314,-0.528 -1.71,-0.936 -0.384,-0.42 -0.576,-0.966 -0.576,-1.638 0,-0.456 0.09,-0.852 0.27,-1.188 0.18,-0.348 0.426,-0.636 0.738,-0.864 0.324,-0.24 0.708,-0.42 1.152,-0.54 0.444,-0.12 0.93,-0.18 1.458,-0.18 0.648,0 1.278,0.09 1.89,0.27 0.612,0.168 1.128,0.408 1.548,0.72 l -0.81,1.62 c -0.744,-0.444 -1.524,-0.666 -2.34,-0.666 z m 7.783,7.38 h -2.556 v -9.09 h 2.556 z m -2.574,-12.816 h 2.592 v 2.322 h -2.592 z m 5.098,3.726 h 1.458 c 0.612,0 0.918,0.264 0.918,0.792 v 0.666 c 0.24,-0.516 0.618,-0.924 1.134,-1.224 0.516,-0.312 1.134,-0.468 1.854,-0.468 0.972,0 1.722,0.282 2.25,0.846 0.54,0.564 0.81,1.41 0.81,2.538 V 249 h -2.556 v -5.76 c 0,-1.056 -0.468,-1.584 -1.404,-1.584 -0.588,0 -1.056,0.21 -1.404,0.63 -0.336,0.42 -0.504,1.002 -0.504,1.746 V 249 h -2.556 z m 10.124,10.386 c 0,-0.54 0.144,-0.984 0.432,-1.332 0.3,-0.348 0.708,-0.588 1.224,-0.72 -0.42,-0.108 -0.732,-0.294 -0.936,-0.558 -0.204,-0.276 -0.306,-0.594 -0.306,-0.954 0,-0.456 0.138,-0.81 0.414,-1.062 0.276,-0.264 0.606,-0.432 0.99,-0.504 -0.384,-0.276 -0.684,-0.618 -0.9,-1.026 -0.204,-0.408 -0.306,-0.846 -0.306,-1.314 0,-0.468 0.096,-0.894 0.288,-1.278 0.204,-0.396 0.48,-0.732 0.828,-1.008 0.348,-0.276 0.762,-0.486 1.242,-0.63 0.492,-0.156 1.026,-0.234 1.602,-0.234 0.768,0 1.452,0.126 2.052,0.378 h 2.826 v 1.53 h -1.314 c 0.324,0.324 0.486,0.804 0.486,1.44 0,0.924 -0.36,1.65 -1.08,2.178 -0.72,0.516 -1.68,0.774 -2.88,0.774 -0.564,0 -1.032,-0.054 -1.404,-0.162 -0.372,0.108 -0.558,0.36 -0.558,0.756 0,0.252 0.096,0.444 0.288,0.576 0.192,0.12 0.462,0.18 0.81,0.18 h 1.908 c 1.128,0 1.998,0.21 2.61,0.63 0.612,0.42 0.918,1.044 0.918,1.872 0,0.492 -0.12,0.936 -0.36,1.332 -0.228,0.396 -0.558,0.732 -0.99,1.008 -0.432,0.276 -0.954,0.486 -1.566,0.63 -0.6,0.144 -1.278,0.216 -2.034,0.216 -1.344,0 -2.394,-0.24 -3.15,-0.72 -0.756,-0.48 -1.134,-1.146 -1.134,-1.998 z m 3.96,-1.332 c -0.492,0 -0.87,0.09 -1.134,0.27 -0.264,0.18 -0.396,0.462 -0.396,0.846 0,0.42 0.18,0.738 0.54,0.954 0.372,0.228 0.906,0.342 1.602,0.342 0.708,0 1.248,-0.12 1.62,-0.36 0.384,-0.228 0.576,-0.57 0.576,-1.026 0,-0.348 -0.126,-0.606 -0.378,-0.774 -0.252,-0.168 -0.66,-0.252 -1.224,-0.252 z m 2.25,-6.138 c 0,-0.468 -0.144,-0.84 -0.432,-1.116 -0.276,-0.276 -0.666,-0.414 -1.17,-0.414 -0.504,0 -0.894,0.138 -1.17,0.414 -0.276,0.276 -0.414,0.648 -0.414,1.116 0,0.468 0.138,0.84 0.414,1.116 0.276,0.276 0.666,0.414 1.17,0.414 0.504,0 0.894,-0.138 1.17,-0.414 0.288,-0.276 0.432,-0.648 0.432,-1.116 z m 14.104,4.212 v 1.908 c -0.192,0.048 -0.402,0.084 -0.63,0.108 -0.228,0.024 -0.498,0.036 -0.81,0.036 -1.08,0 -1.872,-0.246 -2.376,-0.738 -0.504,-0.504 -0.756,-1.32 -0.756,-2.448 v -4.05 h -1.35 v -1.944 h 1.35 v -2.178 h 2.556 v 2.178 h 2.016 v 1.944 h -2.016 v 3.816 c 0,0.54 0.12,0.906 0.36,1.098 0.24,0.18 0.672,0.27 1.296,0.27 z M 541.32,249 h -2.556 v -9.09 h 2.556 z m -2.574,-12.816 h 2.592 v 2.322 h -2.592 z M 551.962,249 h -2.556 v -5.706 c 0,-1.056 -0.426,-1.584 -1.278,-1.584 -0.54,0 -0.966,0.192 -1.278,0.576 -0.3,0.372 -0.45,0.918 -0.45,1.638 V 249 h -2.556 v -9.09 h 1.458 c 0.612,0 0.918,0.264 0.918,0.792 v 0.63 c 0.24,-0.54 0.606,-0.948 1.098,-1.224 0.504,-0.288 1.08,-0.432 1.728,-0.432 0.648,0 1.188,0.144 1.62,0.432 0.444,0.276 0.768,0.684 0.972,1.224 0.264,-0.528 0.648,-0.936 1.152,-1.224 0.504,-0.288 1.098,-0.432 1.782,-0.432 0.948,0 1.674,0.294 2.178,0.882 0.516,0.576 0.774,1.41 0.774,2.502 V 249 h -2.556 v -5.706 c 0,-1.056 -0.426,-1.584 -1.278,-1.584 -0.54,0 -0.966,0.192 -1.278,0.576 -0.3,0.372 -0.45,0.918 -0.45,1.638 z m 10.034,-3.996 c 0.096,0.792 0.36,1.368 0.792,1.728 0.444,0.348 1.056,0.522 1.836,0.522 0.42,0 0.822,-0.054 1.206,-0.162 0.384,-0.108 0.726,-0.264 1.026,-0.468 l 0.864,1.512 c -0.852,0.732 -1.974,1.098 -3.366,1.098 -0.828,0 -1.548,-0.12 -2.16,-0.36 -0.6,-0.252 -1.104,-0.594 -1.512,-1.026 -0.396,-0.432 -0.69,-0.942 -0.882,-1.53 -0.192,-0.588 -0.288,-1.218 -0.288,-1.89 0,-0.78 0.12,-1.464 0.36,-2.052 0.24,-0.6 0.564,-1.098 0.972,-1.494 0.42,-0.396 0.906,-0.696 1.458,-0.9 0.564,-0.204 1.158,-0.306 1.782,-0.306 0.636,0 1.2,0.102 1.692,0.306 0.492,0.192 0.9,0.468 1.224,0.828 0.336,0.36 0.588,0.792 0.756,1.296 0.18,0.492 0.27,1.044 0.27,1.656 0,0.204 -0.012,0.42 -0.036,0.648 -0.012,0.216 -0.042,0.414 -0.09,0.594 z m 2.088,-3.456 c -0.576,0 -1.044,0.174 -1.404,0.522 -0.36,0.348 -0.57,0.828 -0.63,1.44 h 3.672 v -0.234 c 0,-0.552 -0.15,-0.978 -0.45,-1.278 -0.288,-0.3 -0.684,-0.45 -1.188,-0.45 z M 576.951,249 h -2.556 v -9.09 h 2.556 z m -2.574,-12.816 h 2.592 v 2.322 h -2.592 z m 5.098,3.726 h 1.458 c 0.612,0 0.918,0.264 0.918,0.792 v 0.666 c 0.24,-0.516 0.618,-0.924 1.134,-1.224 0.516,-0.312 1.134,-0.468 1.854,-0.468 0.972,0 1.722,0.282 2.25,0.846 0.54,0.564 0.81,1.41 0.81,2.538 V 249 h -2.556 v -5.76 c 0,-1.056 -0.468,-1.584 -1.404,-1.584 -0.588,0 -1.056,0.21 -1.404,0.63 -0.336,0.42 -0.504,1.002 -0.504,1.746 V 249 h -2.556 z m 18.784,1.71 c -0.42,0 -0.75,0.072 -0.99,0.216 -0.24,0.132 -0.36,0.336 -0.36,0.612 0,0.228 0.072,0.408 0.216,0.54 0.144,0.12 0.336,0.216 0.576,0.288 l 1.368,0.414 c 0.84,0.252 1.458,0.582 1.854,0.99 0.408,0.396 0.612,0.936 0.612,1.62 0,0.912 -0.342,1.632 -1.026,2.16 -0.672,0.516 -1.596,0.774 -2.772,0.774 -0.744,0 -1.428,-0.102 -2.052,-0.306 -0.624,-0.216 -1.176,-0.516 -1.656,-0.9 l 0.954,-1.62 c 0.396,0.276 0.822,0.492 1.278,0.648 0.468,0.156 0.924,0.234 1.368,0.234 0.42,0 0.75,-0.078 0.99,-0.234 0.24,-0.156 0.36,-0.396 0.36,-0.72 0,-0.216 -0.066,-0.39 -0.198,-0.522 -0.12,-0.144 -0.336,-0.264 -0.648,-0.36 l -1.494,-0.432 c -0.744,-0.216 -1.314,-0.528 -1.71,-0.936 -0.384,-0.42 -0.576,-0.966 -0.576,-1.638 0,-0.456 0.09,-0.852 0.27,-1.188 0.18,-0.348 0.426,-0.636 0.738,-0.864 0.324,-0.24 0.708,-0.42 1.152,-0.54 0.444,-0.12 0.93,-0.18 1.458,-0.18 0.648,0 1.278,0.09 1.89,0.27 0.612,0.168 1.128,0.408 1.548,0.72 l -0.81,1.62 c -0.744,-0.444 -1.524,-0.666 -2.34,-0.666 z m 7.208,3.384 c 0.096,0.792 0.36,1.368 0.792,1.728 0.444,0.348 1.056,0.522 1.836,0.522 0.42,0 0.822,-0.054 1.206,-0.162 0.384,-0.108 0.726,-0.264 1.026,-0.468 l 0.864,1.512 c -0.852,0.732 -1.974,1.098 -3.366,1.098 -0.828,0 -1.548,-0.12 -2.16,-0.36 -0.6,-0.252 -1.104,-0.594 -1.512,-1.026 -0.396,-0.432 -0.69,-0.942 -0.882,-1.53 -0.192,-0.588 -0.288,-1.218 -0.288,-1.89 0,-0.78 0.12,-1.464 0.36,-2.052 0.24,-0.6 0.564,-1.098 0.972,-1.494 0.42,-0.396 0.906,-0.696 1.458,-0.9 0.564,-0.204 1.158,-0.306 1.782,-0.306 0.636,0 1.2,0.102 1.692,0.306 0.492,0.192 0.9,0.468 1.224,0.828 0.336,0.36 0.588,0.792 0.756,1.296 0.18,0.492 0.27,1.044 0.27,1.656 0,0.204 -0.012,0.42 -0.036,0.648 -0.012,0.216 -0.042,0.414 -0.09,0.594 z m 2.088,-3.456 c -0.576,0 -1.044,0.174 -1.404,0.522 -0.36,0.348 -0.57,0.828 -0.63,1.44 h 3.672 v -0.234 c 0,-0.552 -0.15,-0.978 -0.45,-1.278 -0.288,-0.3 -0.684,-0.45 -1.188,-0.45 z m 8.022,2.898 c 0,0.888 0.204,1.566 0.612,2.034 0.42,0.456 1.05,0.684 1.89,0.684 0.348,0 0.684,-0.042 1.008,-0.126 0.336,-0.096 0.624,-0.228 0.864,-0.396 l 0.756,1.746 c -0.348,0.252 -0.768,0.456 -1.26,0.612 -0.492,0.156 -1.062,0.234 -1.71,0.234 -0.744,0 -1.41,-0.108 -1.998,-0.324 -0.588,-0.228 -1.086,-0.546 -1.494,-0.954 -0.408,-0.408 -0.726,-0.906 -0.954,-1.494 -0.216,-0.588 -0.324,-1.254 -0.324,-1.998 0,-0.744 0.114,-1.41 0.342,-1.998 0.228,-0.588 0.546,-1.086 0.954,-1.494 0.42,-0.42 0.924,-0.738 1.512,-0.954 0.6,-0.228 1.272,-0.342 2.016,-0.342 0.6,0 1.134,0.072 1.602,0.216 0.468,0.144 0.876,0.336 1.224,0.576 l -0.774,1.746 c -0.228,-0.156 -0.492,-0.27 -0.792,-0.342 -0.3,-0.084 -0.618,-0.126 -0.954,-0.126 -0.768,0 -1.38,0.222 -1.836,0.666 -0.456,0.432 -0.684,1.11 -0.684,2.034 z m 15.434,0 c 0,0.756 -0.114,1.434 -0.342,2.034 -0.216,0.588 -0.528,1.086 -0.936,1.494 -0.408,0.408 -0.9,0.72 -1.476,0.936 -0.576,0.216 -1.218,0.324 -1.926,0.324 -0.708,0 -1.35,-0.108 -1.926,-0.324 -0.576,-0.216 -1.068,-0.528 -1.476,-0.936 -0.408,-0.408 -0.726,-0.906 -0.954,-1.494 -0.216,-0.6 -0.324,-1.278 -0.324,-2.034 0,-0.756 0.108,-1.428 0.324,-2.016 0.228,-0.588 0.546,-1.086 0.954,-1.494 0.408,-0.408 0.9,-0.72 1.476,-0.936 0.576,-0.216 1.218,-0.324 1.926,-0.324 0.708,0 1.35,0.108 1.926,0.324 0.576,0.216 1.068,0.528 1.476,0.936 0.408,0.408 0.72,0.906 0.936,1.494 0.228,0.588 0.342,1.26 0.342,2.016 z m -2.61,0 c 0,-0.924 -0.18,-1.62 -0.54,-2.088 -0.348,-0.468 -0.858,-0.702 -1.53,-0.702 -0.672,0 -1.188,0.234 -1.548,0.702 -0.348,0.468 -0.522,1.164 -0.522,2.088 0,0.936 0.174,1.638 0.522,2.106 0.36,0.468 0.876,0.702 1.548,0.702 0.672,0 1.182,-0.234 1.53,-0.702 0.36,-0.468 0.54,-1.17 0.54,-2.106 z m 4.617,-4.536 h 1.458 c 0.612,0 0.918,0.264 0.918,0.792 v 0.666 c 0.24,-0.516 0.618,-0.924 1.134,-1.224 0.516,-0.312 1.134,-0.468 1.854,-0.468 0.972,0 1.722,0.282 2.25,0.846 0.54,0.564 0.81,1.41 0.81,2.538 V 249 h -2.556 v -5.76 c 0,-1.056 -0.468,-1.584 -1.404,-1.584 -0.588,0 -1.056,0.21 -1.404,0.63 -0.336,0.42 -0.504,1.002 -0.504,1.746 V 249 h -2.556 z m 19.574,9.09 h -1.476 c -0.612,0 -0.918,-0.27 -0.918,-0.81 v -0.594 c -0.24,0.504 -0.612,0.906 -1.116,1.206 -0.492,0.288 -1.086,0.432 -1.782,0.432 -0.6,0 -1.14,-0.114 -1.62,-0.342 -0.48,-0.228 -0.888,-0.546 -1.224,-0.954 -0.324,-0.42 -0.576,-0.924 -0.756,-1.512 -0.18,-0.588 -0.27,-1.248 -0.27,-1.98 0,-0.756 0.096,-1.428 0.288,-2.016 0.192,-0.6 0.462,-1.098 0.81,-1.494 0.348,-0.408 0.762,-0.72 1.242,-0.936 0.492,-0.216 1.038,-0.324 1.638,-0.324 0.576,0 1.092,0.114 1.548,0.342 0.456,0.228 0.816,0.552 1.08,0.972 v -4.896 h 2.556 z m -2.484,-4.536 c 0,-0.876 -0.174,-1.56 -0.522,-2.052 -0.336,-0.504 -0.834,-0.756 -1.494,-0.756 -0.648,0 -1.152,0.246 -1.512,0.738 -0.36,0.492 -0.54,1.182 -0.54,2.07 0,0.9 0.168,1.59 0.504,2.07 0.336,0.48 0.834,0.72 1.494,0.72 0.648,0 1.152,-0.246 1.512,-0.738 0.372,-0.504 0.558,-1.188 0.558,-2.052 z m 8.48,-2.844 c -0.42,0 -0.75,0.072 -0.99,0.216 -0.24,0.132 -0.36,0.336 -0.36,0.612 0,0.228 0.072,0.408 0.216,0.54 0.144,0.12 0.336,0.216 0.576,0.288 l 1.368,0.414 c 0.84,0.252 1.458,0.582 1.854,0.99 0.408,0.396 0.612,0.936 0.612,1.62 0,0.912 -0.342,1.632 -1.026,2.16 -0.672,0.516 -1.596,0.774 -2.772,0.774 -0.744,0 -1.428,-0.102 -2.052,-0.306 -0.624,-0.216 -1.176,-0.516 -1.656,-0.9 l 0.954,-1.62 c 0.396,0.276 0.822,0.492 1.278,0.648 0.468,0.156 0.924,0.234 1.368,0.234 0.42,0 0.75,-0.078 0.99,-0.234 0.24,-0.156 0.36,-0.396 0.36,-0.72 0,-0.216 -0.066,-0.39 -0.198,-0.522 -0.12,-0.144 -0.336,-0.264 -0.648,-0.36 l -1.494,-0.432 c -0.744,-0.216 -1.314,-0.528 -1.71,-0.936 -0.384,-0.42 -0.576,-0.966 -0.576,-1.638 0,-0.456 0.09,-0.852 0.27,-1.188 0.18,-0.348 0.426,-0.636 0.738,-0.864 0.324,-0.24 0.708,-0.42 1.152,-0.54 0.444,-0.12 0.93,-0.18 1.458,-0.18 0.648,0 1.278,0.09 1.89,0.27 0.612,0.168 1.128,0.408 1.548,0.72 l -0.81,1.62 c -0.744,-0.444 -1.524,-0.666 -2.34,-0.666 z"
   style="fill:#0068b5;fill-rule:nonzero"
   id="path478" />
            </g><g
     transform="matrix(0.69426744,0,0,0.77698548,-193.5599,44.857803)"
     id="g484">
                <path
   d="M 678,231 H 416"
   style="fill:none;fill-rule:nonzero;stroke:#0068b5;stroke-width:2px"
   id="path482" />
            </g><g
     transform="matrix(0.99999793,0,0,1,-346.11653,0)"
     id="g488">
                <path
   d="m 419.5,89.028 c 2.458,0 4.451,-2.022 4.451,-4.516 0,-2.494 -1.993,-4.515 -4.451,-4.515 -2.459,0 -4.452,2.021 -4.452,4.515 0,2.494 1.993,4.516 4.452,4.516 z"
   style="fill:#00285a;fill-rule:nonzero"
   id="path486" />
            </g><g
     transform="matrix(0.99999793,0,0,1,-346.11653,0)"
     id="g492">
                <path
   d="m 442.986,59.148 c -0.616,-1.693 -2.49,-2.567 -4.182,-1.951 l -42.656,15.526 c -1.693,0.616 -2.567,2.49 -1.951,4.183 l 11.72,32.2 c 0.356,0.978 1.132,1.683 2.05,1.985 0.285,0.505 0.698,0.921 1.187,1.21 0.317,1.47 1.626,2.574 3.191,2.574 h 45.393 c 1.801,0 3.263,-1.463 3.263,-3.264 V 77.344 c 0,-1.801 -1.462,-3.263 -3.263,-3.263 h -3.762 l -1.197,-6.786 c -0.312,-1.774 -2.007,-2.96 -3.78,-2.647 l -3.769,0.664 z m -0.252,6.604 -2.093,-5.75 c -0.145,-0.398 -0.586,-0.604 -0.984,-0.459 l -42.655,15.526 c -0.398,0.144 -0.604,0.585 -0.459,0.983 l 9.81,26.944 -4.705,-26.685 c -0.313,-1.774 0.873,-3.468 2.647,-3.781 z m -33.653,38.323 V 77.344 c 0,-1.801 1.463,-3.263 3.264,-3.263 h 39.096 l -1.12,-6.353 c -0.073,-0.417 -0.472,-0.695 -0.889,-0.622 l -44.703,7.882 c -0.417,0.074 -0.696,0.472 -0.623,0.889 z m 49.424,-2.511 v -24.22 c 0,-0.423 -0.344,-0.767 -0.767,-0.767 h -45.393 c -0.424,0 -0.767,0.344 -0.767,0.767 v 27.126 l 12.335,-9.802 12.048,8.669 11.505,-17.728 z"
   style="fill:#00285a"
   id="path490" />
            </g><g
     aria-label="Throughput"
     id="text1723"
     style="font-weight:bold;font-size:18px;line-height:1.25;font-family:'Intel Clear';-inkscape-font-specification:'Intel Clear, Bold';fill:#0068b5"><path
       d="M 43.452623,8.6331292 V 19.001129 h -2.628 V 8.6331292 h -4.068 v -2.052 h 10.764 v 2.052 z"
       id="path6288" /><path
       d="m 48.996618,6.0951292 h 2.556 v 4.9679998 q 0.414,-0.648 1.116,-1.008 0.72,-0.3779998 1.656,-0.3779998 1.548,0 2.322,0.8819998 0.774,0.864 0.774,2.502 v 5.94 h -2.556 v -5.76 q 0,-1.584 -1.404,-1.584 -0.864,0 -1.386,0.63 -0.522,0.612 -0.522,1.728 v 4.986 h -2.556 z"
       id="path6290" /><path
       d="m 59.904634,9.9111292 h 1.458 q 0.918,0 0.918,0.7919998 v 1.116 q 0.288,-0.918 0.954,-1.458 0.684,-0.5579998 1.692,-0.5579998 0.414,0 0.72,0.09 v 2.0879998 h -0.522 q -1.368,0 -2.016,0.702 -0.648,0.702 -0.648,2.34 v 3.978 h -2.556 z"
       id="path6292" /><path
       d="m 75.528659,14.447129 q 0,1.134 -0.342,2.034 -0.324,0.882 -0.936,1.494 -0.612,0.612 -1.476,0.936 -0.864,0.324 -1.926,0.324 -1.062,0 -1.926,-0.324 -0.864,-0.324 -1.476,-0.936 -0.612,-0.612 -0.954,-1.494 -0.324,-0.9 -0.324,-2.034 0,-1.134 0.324,-2.016 0.342,-0.882 0.954,-1.494 0.612,-0.612 1.476,-0.936 0.864,-0.3239998 1.926,-0.3239998 1.062,0 1.926,0.3239998 0.864,0.324 1.476,0.936 0.612,0.612 0.936,1.494 0.342,0.882 0.342,2.016 z m -2.61,0 q 0,-1.386 -0.54,-2.088 -0.522,-0.702 -1.53,-0.702 -1.008,0 -1.548,0.702 -0.522,0.702 -0.522,2.088 0,1.404 0.522,2.106 0.54,0.702 1.548,0.702 1.008,0 1.53,-0.702 0.54,-0.702 0.54,-2.106 z"
       id="path6294" /><path
       d="m 85.71666,19.001129 h -1.458 q -0.504,0 -0.72,-0.216 -0.216,-0.216 -0.216,-0.666 v -0.504 q -0.36,0.81 -1.116,1.224 -0.738,0.396 -1.71,0.396 -1.494,0 -2.268,-0.882 -0.756,-0.882 -0.756,-2.574 V 9.9111292 h 2.556 v 5.7059998 q 0,0.882 0.342,1.26 0.342,0.378 1.008,0.378 0.882,0 1.332,-0.63 0.45,-0.63 0.45,-1.71 V 9.9111292 h 2.556 z"
       id="path6296" /><path
       d="m 87.444658,20.297129 q 0,-0.81 0.432,-1.332 0.45,-0.522 1.224,-0.72 -0.63,-0.162 -0.936,-0.558 -0.306,-0.414 -0.306,-0.954 0,-0.684 0.414,-1.062 0.414,-0.396 0.99,-0.504 -0.576,-0.414 -0.9,-1.026 -0.306,-0.612 -0.306,-1.314 0,-0.702 0.288,-1.278 0.306,-0.594 0.828,-1.008 0.522,-0.414 1.242,-0.6299998 0.738,-0.234 1.602,-0.234 1.152,0 2.052,0.3779998 h 2.826 v 1.53 h -1.314 q 0.486,0.486 0.486,1.44 0,1.386 -1.08,2.178 -1.08,0.774 -2.88,0.774 -0.846,0 -1.404,-0.162 -0.558,0.162 -0.558,0.756 0,0.378 0.288,0.576 0.288,0.18 0.81,0.18 h 1.908 q 1.692,0 2.61,0.63 0.918,0.63 0.918,1.872 0,0.738 -0.36,1.332 -0.342,0.594 -0.99,1.008 -0.648,0.414 -1.566,0.63 -0.9,0.216 -2.034,0.216 -2.016,0 -3.15,-0.72 -1.134,-0.72 -1.134,-1.998 z m 3.96,-1.332 q -0.738,0 -1.134,0.27 -0.396,0.27 -0.396,0.846 0,0.63 0.54,0.954 0.558,0.342 1.602,0.342 1.062,0 1.62,-0.36 0.576,-0.342 0.576,-1.026 0,-0.522 -0.378,-0.774 -0.378,-0.252 -1.224,-0.252 z m 2.25,-6.138 q 0,-0.702 -0.432,-1.116 -0.414,-0.414 -1.17,-0.414 -0.756,0 -1.17,0.414 -0.414,0.414 -0.414,1.116 0,0.702 0.414,1.116 0.414,0.414 1.17,0.414 0.756,0 1.17,-0.414 0.432,-0.414 0.432,-1.116 z"
       id="path6298" /><path
       d="m 98.442648,6.0951292 h 2.556002 v 4.9679998 q 0.414,-0.648 1.116,-1.008 0.72,-0.3779998 1.656,-0.3779998 1.548,0 2.322,0.8819998 0.774,0.864 0.774,2.502 v 5.94 h -2.556 v -5.76 q 0,-1.584 -1.404,-1.584 -0.864,0 -1.386,0.63 -0.522,0.612 -0.522,1.728 v 4.986 h -2.556002 z"
       id="path6300" /><path
       d="m 111.74466,11.459129 q 0.414,-0.918 1.278,-1.35 0.864,-0.4319998 1.836,-0.4319998 1.638,0 2.646,1.1699998 1.008,1.152 1.008,3.402 0,1.098 -0.27,2.016 -0.252,0.918 -0.756,1.584 -0.486,0.648 -1.206,1.026 -0.72,0.36 -1.62,0.36 -0.756,0 -1.53,-0.288 -0.756,-0.306 -1.224,-1.044 v 4.878 h -2.556 V 9.9111292 h 1.476 q 0.918,0 0.918,0.8099998 z m 0.09,3.114 q 0,1.26 0.504,1.98 0.522,0.702 1.53,0.702 0.54,0 0.918,-0.216 0.396,-0.216 0.63,-0.594 0.252,-0.396 0.36,-0.918 0.126,-0.522 0.126,-1.116 0,-1.332 -0.486,-2.034 -0.486,-0.72 -1.458,-0.72 -1.026,0 -1.584,0.792 -0.54,0.774 -0.54,2.124 z"
       id="path6302" /><path
       d="m 128.70067,19.001129 h -1.458 q -0.504,0 -0.72,-0.216 -0.216,-0.216 -0.216,-0.666 v -0.504 q -0.36,0.81 -1.116,1.224 -0.738,0.396 -1.71,0.396 -1.494,0 -2.268,-0.882 -0.756,-0.882 -0.756,-2.574 V 9.9111292 h 2.556 v 5.7059998 q 0,0.882 0.342,1.26 0.342,0.378 1.008,0.378 0.882,0 1.332,-0.63 0.45,-0.63 0.45,-1.71 V 9.9111292 h 2.556 z"
       id="path6304" /><path
       d="m 136.13467,17.039129 v 1.908 q -0.288,0.072 -0.63,0.108 -0.342,0.036 -0.81,0.036 -1.62,0 -2.376,-0.738 -0.756,-0.756 -0.756,-2.448 v -4.05 h -1.35 V 9.9111292 h 1.35 v -2.178 h 2.556 v 2.178 h 2.016 v 1.9439998 h -2.016 v 3.816 q 0,0.81 0.36,1.098 0.36,0.27 1.296,0.27 z"
       id="path6306" /></g></g></svg>
