<?xml version="1.0" encoding="UTF-8" standalone="no"?>
<!DOCTYPE svg PUBLIC "-//W3C//DTD SVG 1.1//EN" "http://www.w3.org/Graphics/SVG/1.1/DTD/svg11.dtd">
<svg width="100%" height="100%" viewBox="0 0 332 259" version="1.1" xmlns="http://www.w3.org/2000/svg" xmlns:xlink="http://www.w3.org/1999/xlink" xml:space="preserve" xmlns:serif="http://www.serif.com/" style="fill-rule:evenodd;clip-rule:evenodd;">
    <g id="Artboard1" transform="matrix(0.489504,0,0,1,0,0)">
        <rect x="0" y="0" width="678" height="259" style="fill:none;"/>
        <clipPath id="_clip1">
            <rect x="0" y="0" width="678" height="259"/>
        </clipPath>
        <g clip-path="url(#_clip1)">
            <g transform="matrix(2.04288,0,0,1,-707.076,0)">
                <path d="M645.53,147.484C645.823,147.191 645.823,146.716 645.53,146.423L640.756,141.651C640.463,141.358 639.989,141.359 639.696,141.652C639.403,141.944 639.403,142.419 639.696,142.712L643.939,146.954L639.697,151.197C639.405,151.49 639.405,151.965 639.698,152.258C639.99,152.551 640.465,152.551 640.758,152.258L645.53,147.484ZM379,147.75L645,147.704L645,146.204L379,146.25L379,147.75Z" style="fill:rgb(139,142,151);fill-rule:nonzero;"/>
            </g>
            <g transform="matrix(2.04288,0,0,1,-707.076,0)">
                <path d="M480.545,93.03C480.838,92.737 480.838,92.263 480.545,91.97L475.772,87.197C475.479,86.904 475.004,86.904 474.711,87.197C474.419,87.49 474.419,87.965 474.711,88.257L478.954,92.5L474.711,96.743C474.419,97.036 474.419,97.51 474.711,97.803C475.004,98.096 475.479,98.096 475.772,97.803L480.545,93.03ZM462.985,93.25L480.015,93.25L480.015,91.75L462.985,91.75L462.985,93.25Z" style="fill:rgb(139,142,151);fill-rule:nonzero;"/>
            </g>
            <g transform="matrix(2.04288,0,0,1,-707.076,0)">
                <path d="M584.5,59.5L609.5,90M609.5,90L584.5,81.5M609.5,90L584.5,103.5M609.5,90L584.5,126.5" style="fill:none;fill-rule:nonzero;stroke:rgb(139,142,151);stroke-width:1px;"/>
            </g>
            <g transform="matrix(2.04288,0,0,1,-707.076,0)">
                <path d="M571,59L544.509,59L571,82M571,59L544.509,127M571,59L544.509,105M571,59L544.509,82M571,82L544.509,82M571,82L544.509,127M571,82L544.509,105M544.509,82L571,104M544.509,82L571,127M571,104C571,104.8 553.34,105 544.509,105M571,104L544.509,127M571,104L544,59L571,127M544.509,105L571,127M571,127L544.509,127" style="fill:none;fill-rule:nonzero;stroke:rgb(139,142,151);stroke-width:1px;"/>
            </g>
            <g transform="matrix(2.04288,0,0,1,-707.076,0)">
                <path d="M531.5,60.5L505.5,69.5M531.5,60.5L505.5,91.5M531.5,60.5L505.5,113.5M505.5,69.5L531.5,82.5M505.5,69.5L531.5,104M505.5,69.5L531.5,126.5M531.5,82.5L505.5,91.5M531.5,82.5L505.5,113.5M505.5,91.5L531.5,104M505.5,91.5L531.5,126.5M531.5,104L505.5,113.5M505.5,113.5L531.5,126.5" style="fill:none;fill-rule:nonzero;stroke:rgb(139,142,151);stroke-width:1px;"/>
            </g>
            <g transform="matrix(2.04288,0,0,1,-707.076,0)">
                <circle cx="499" cy="69" r="6.5" style="fill:rgb(118,206,255);stroke:rgb(139,142,151);stroke-width:1px;"/>
            </g>
            <g transform="matrix(2.04288,0,0,1,-707.076,0)">
                <circle cx="499" cy="92" r="6.5" style="fill:rgb(118,206,255);stroke:rgb(139,142,151);stroke-width:1px;"/>
            </g>
            <g transform="matrix(2.04288,0,0,1,-707.076,0)">
                <circle cx="499" cy="115" r="6.5" style="fill:rgb(118,206,255);stroke:rgb(139,142,151);stroke-width:1px;"/>
            </g>
            <g transform="matrix(2.04288,0,0,1,-707.076,0)">
                <circle cx="538" cy="128" r="6.5" style="fill:rgb(0,163,246);stroke:rgb(139,142,151);stroke-width:1px;"/>
            </g>
            <g transform="matrix(2.04288,0,0,1,-707.076,0)">
                <circle cx="538" cy="105" r="6.5" style="fill:rgb(0,163,246);stroke:rgb(139,142,151);stroke-width:1px;"/>
            </g>
            <g transform="matrix(2.04288,0,0,1,-707.076,0)">
                <circle cx="538" cy="82" r="6.5" style="fill:rgb(0,163,246);stroke:rgb(139,142,151);stroke-width:1px;"/>
            </g>
            <g transform="matrix(2.04288,0,0,1,-707.076,0)">
                <circle cx="538" cy="60" r="6.5" style="fill:rgb(0,163,246);stroke:rgb(139,142,151);stroke-width:1px;"/>
            </g>
            <g transform="matrix(2.04288,0,0,1,-707.076,0)">
                <circle cx="578" cy="59" r="6.5" style="fill:rgb(0,104,181);stroke:rgb(139,142,151);stroke-width:1px;"/>
            </g>
            <g transform="matrix(2.04288,0,0,1,-707.076,0)">
                <circle cx="578" cy="82" r="6.5" style="fill:rgb(0,104,181);stroke:rgb(139,142,151);stroke-width:1px;"/>
            </g>
            <g transform="matrix(2.04288,0,0,1,-707.076,0)">
                <circle cx="578" cy="105" r="6.5" style="fill:rgb(0,104,181);stroke:rgb(139,142,151);stroke-width:1px;"/>
            </g>
            <g transform="matrix(2.04288,0,0,1,-707.076,0)">
                <circle cx="578" cy="128" r="6.5" style="fill:rgb(0,104,181);stroke:rgb(139,142,151);stroke-width:1px;"/>
            </g>
            <g transform="matrix(2.04288,0,0,1,-707.076,0)">
                <circle cx="615" cy="90" r="6.5" style="fill:rgb(0,40,90);stroke:rgb(139,142,151);stroke-width:1px;"/>
            </g>
            <g transform="matrix(2.04288,0,0,1,-707.076,0)">
                <path d="M390,37L390,174" style="fill:none;fill-rule:nonzero;stroke:rgb(161,163,171);stroke-width:2px;stroke-dasharray:5,4;"/>
            </g>
            <g transform="matrix(0.0274944,0.999909,-2.04263,0.0158316,569.727,37)">
                <path d="M0,-1L137.013,-1" style="fill:none;fill-rule:nonzero;stroke:rgb(161,163,171);stroke-width:2px;stroke-dasharray:5,4;"/>
            </g>
            <g transform="matrix(2.04288,0,0,1,-707.076,0)">
                <path d="M492.887,163.032L492.887,168L490.259,168L490.259,155.58L498.359,155.58L498.359,157.632L492.887,157.632L492.887,160.98L497.549,160.98L497.549,163.032L492.887,163.032ZM502.87,163.734L502.87,168L500.296,168L500.296,155.58L504.94,155.58C506.368,155.58 507.472,155.934 508.252,156.642C509.032,157.338 509.422,158.346 509.422,159.666C509.422,160.938 509.032,161.934 508.252,162.654C507.484,163.374 506.374,163.734 504.922,163.734L502.87,163.734ZM502.87,157.506L502.87,161.808L504.508,161.808C505.276,161.808 505.852,161.64 506.236,161.304C506.62,160.968 506.812,160.422 506.812,159.666C506.812,158.91 506.62,158.364 506.236,158.028C505.864,157.68 505.294,157.506 504.526,157.506L502.87,157.506ZM516.117,157.434C515.397,157.434 514.839,157.56 514.443,157.812C514.059,158.052 513.867,158.436 513.867,158.964C513.867,159.384 514.005,159.714 514.281,159.954C514.569,160.194 514.965,160.386 515.469,160.53L517.341,161.088C518.349,161.388 519.105,161.796 519.609,162.312C520.125,162.816 520.383,163.506 520.383,164.382C520.383,164.982 520.263,165.522 520.023,166.002C519.783,166.482 519.441,166.89 518.997,167.226C518.565,167.562 518.043,167.82 517.431,168C516.831,168.18 516.165,168.27 515.433,168.27C514.569,168.27 513.729,168.138 512.913,167.874C512.097,167.61 511.365,167.208 510.717,166.668L511.851,164.904C512.379,165.288 512.931,165.594 513.507,165.822C514.083,166.038 514.701,166.146 515.361,166.146C516.069,166.146 516.627,166.014 517.035,165.75C517.443,165.486 517.647,165.084 517.647,164.544C517.647,164.124 517.509,163.806 517.233,163.59C516.969,163.374 516.573,163.188 516.045,163.032L514.047,162.492C513.135,162.24 512.421,161.832 511.905,161.268C511.389,160.704 511.131,159.972 511.131,159.072C511.131,158.484 511.245,157.956 511.473,157.488C511.713,157.02 512.037,156.624 512.445,156.3C512.865,155.976 513.363,155.73 513.939,155.562C514.527,155.394 515.175,155.31 515.883,155.31C516.699,155.31 517.485,155.424 518.241,155.652C519.009,155.88 519.663,156.21 520.203,156.642L519.195,158.316C518.307,157.728 517.281,157.434 516.117,157.434Z" style="fill:rgb(0,104,181);fill-rule:nonzero;"/>
            </g>
            <g transform="matrix(2.04288,0,0,1,-707.076,0)">
                <path d="M389.546,8.632L389.546,19L386.918,19L386.918,8.632L382.85,8.632L382.85,6.58L393.614,6.58L393.614,8.632L389.546,8.632ZM393.738,9.91L395.196,9.91C395.808,9.91 396.114,10.174 396.114,10.702L396.114,11.818C396.306,11.206 396.624,10.72 397.068,10.36C397.524,9.988 398.088,9.802 398.76,9.802C399.036,9.802 399.276,9.832 399.48,9.892L399.48,11.98L398.958,11.98C398.046,11.98 397.374,12.214 396.942,12.682C396.51,13.15 396.294,13.93 396.294,15.022L396.294,19L393.738,19L393.738,9.91ZM409.361,14.446C409.361,15.202 409.247,15.88 409.019,16.48C408.803,17.068 408.491,17.566 408.083,17.974C407.675,18.382 407.183,18.694 406.607,18.91C406.031,19.126 405.389,19.234 404.681,19.234C403.973,19.234 403.331,19.126 402.755,18.91C402.179,18.694 401.687,18.382 401.279,17.974C400.871,17.566 400.553,17.068 400.325,16.48C400.109,15.88 400.001,15.202 400.001,14.446C400.001,13.69 400.109,13.018 400.325,12.43C400.553,11.842 400.871,11.344 401.279,10.936C401.687,10.528 402.179,10.216 402.755,10C403.331,9.784 403.973,9.676 404.681,9.676C405.389,9.676 406.031,9.784 406.607,10C407.183,10.216 407.675,10.528 408.083,10.936C408.491,11.344 408.803,11.842 409.019,12.43C409.247,13.018 409.361,13.69 409.361,14.446ZM406.751,14.446C406.751,13.522 406.571,12.826 406.211,12.358C405.863,11.89 405.353,11.656 404.681,11.656C404.009,11.656 403.493,11.89 403.133,12.358C402.785,12.826 402.611,13.522 402.611,14.446C402.611,15.382 402.785,16.084 403.133,16.552C403.493,17.02 404.009,17.254 404.681,17.254C405.353,17.254 405.863,17.02 406.211,16.552C406.571,16.084 406.751,15.382 406.751,14.446ZM419.54,19L418.082,19C417.746,19 417.506,18.928 417.362,18.784C417.218,18.64 417.146,18.418 417.146,18.118L417.146,17.614C416.906,18.154 416.534,18.562 416.03,18.838C415.538,19.102 414.968,19.234 414.32,19.234C413.324,19.234 412.568,18.94 412.052,18.352C411.548,17.764 411.296,16.906 411.296,15.778L411.296,9.91L413.852,9.91L413.852,15.616C413.852,16.204 413.966,16.624 414.194,16.876C414.422,17.128 414.758,17.254 415.202,17.254C415.79,17.254 416.234,17.044 416.534,16.624C416.834,16.204 416.984,15.634 416.984,14.914L416.984,9.91L419.54,9.91L419.54,19ZM421.264,20.296C421.264,19.756 421.408,19.312 421.696,18.964C421.996,18.616 422.404,18.376 422.92,18.244C422.5,18.136 422.188,17.95 421.984,17.686C421.78,17.41 421.678,17.092 421.678,16.732C421.678,16.276 421.816,15.922 422.092,15.67C422.368,15.406 422.698,15.238 423.082,15.166C422.698,14.89 422.398,14.548 422.182,14.14C421.978,13.732 421.876,13.294 421.876,12.826C421.876,12.358 421.972,11.932 422.164,11.548C422.368,11.152 422.644,10.816 422.992,10.54C423.34,10.264 423.754,10.054 424.234,9.91C424.726,9.754 425.26,9.676 425.836,9.676C426.604,9.676 427.288,9.802 427.888,10.054L430.714,10.054L430.714,11.584L429.4,11.584C429.724,11.908 429.886,12.388 429.886,13.024C429.886,13.948 429.526,14.674 428.806,15.202C428.086,15.718 427.126,15.976 425.926,15.976C425.362,15.976 424.894,15.922 424.522,15.814C424.15,15.922 423.964,16.174 423.964,16.57C423.964,16.822 424.06,17.014 424.252,17.146C424.444,17.266 424.714,17.326 425.062,17.326L426.97,17.326C428.098,17.326 428.968,17.536 429.58,17.956C430.192,18.376 430.498,19 430.498,19.828C430.498,20.32 430.378,20.764 430.138,21.16C429.91,21.556 429.58,21.892 429.148,22.168C428.716,22.444 428.194,22.654 427.582,22.798C426.982,22.942 426.304,23.014 425.548,23.014C424.204,23.014 423.154,22.774 422.398,22.294C421.642,21.814 421.264,21.148 421.264,20.296ZM425.224,18.964C424.732,18.964 424.354,19.054 424.09,19.234C423.826,19.414 423.694,19.696 423.694,20.08C423.694,20.5 423.874,20.818 424.234,21.034C424.606,21.262 425.14,21.376 425.836,21.376C426.544,21.376 427.084,21.256 427.456,21.016C427.84,20.788 428.032,20.446 428.032,19.99C428.032,19.642 427.906,19.384 427.654,19.216C427.402,19.048 426.994,18.964 426.43,18.964L425.224,18.964ZM427.474,12.826C427.474,12.358 427.33,11.986 427.042,11.71C426.766,11.434 426.376,11.296 425.872,11.296C425.368,11.296 424.978,11.434 424.702,11.71C424.426,11.986 424.288,12.358 424.288,12.826C424.288,13.294 424.426,13.666 424.702,13.942C424.978,14.218 425.368,14.356 425.872,14.356C426.376,14.356 426.766,14.218 427.042,13.942C427.33,13.666 427.474,13.294 427.474,12.826ZM432.269,6.094L434.825,6.094L434.825,11.062C435.101,10.63 435.473,10.294 435.941,10.054C436.421,9.802 436.973,9.676 437.597,9.676C438.629,9.676 439.403,9.97 439.919,10.558C440.435,11.134 440.693,11.968 440.693,13.06L440.693,19L438.137,19L438.137,13.24C438.137,12.184 437.669,11.656 436.733,11.656C436.157,11.656 435.695,11.866 435.347,12.286C434.999,12.694 434.825,13.27 434.825,14.014L434.825,19L432.269,19L432.269,6.094ZM445.579,11.458C445.855,10.846 446.281,10.396 446.857,10.108C447.433,9.82 448.045,9.676 448.693,9.676C449.785,9.676 450.667,10.066 451.339,10.846C452.011,11.614 452.347,12.748 452.347,14.248C452.347,14.98 452.257,15.652 452.077,16.264C451.909,16.876 451.657,17.404 451.321,17.848C450.997,18.28 450.595,18.622 450.115,18.874C449.635,19.114 449.095,19.234 448.495,19.234C447.991,19.234 447.481,19.138 446.965,18.946C446.461,18.742 446.053,18.394 445.741,17.902L445.741,22.78L443.185,22.78L443.185,9.91L444.661,9.91C445.273,9.91 445.579,10.18 445.579,10.72L445.579,11.458ZM445.669,14.572C445.669,15.412 445.837,16.072 446.173,16.552C446.521,17.02 447.031,17.254 447.703,17.254C448.063,17.254 448.369,17.182 448.621,17.038C448.885,16.894 449.095,16.696 449.251,16.444C449.419,16.18 449.539,15.874 449.611,15.526C449.695,15.178 449.737,14.806 449.737,14.41C449.737,13.522 449.575,12.844 449.251,12.376C448.927,11.896 448.441,11.656 447.793,11.656C447.109,11.656 446.581,11.92 446.209,12.448C445.849,12.964 445.669,13.672 445.669,14.572ZM462.536,19L461.078,19C460.742,19 460.502,18.928 460.358,18.784C460.214,18.64 460.142,18.418 460.142,18.118L460.142,17.614C459.902,18.154 459.53,18.562 459.026,18.838C458.534,19.102 457.964,19.234 457.316,19.234C456.32,19.234 455.564,18.94 455.048,18.352C454.544,17.764 454.292,16.906 454.292,15.778L454.292,9.91L456.848,9.91L456.848,15.616C456.848,16.204 456.962,16.624 457.19,16.876C457.418,17.128 457.754,17.254 458.198,17.254C458.786,17.254 459.23,17.044 459.53,16.624C459.83,16.204 459.98,15.634 459.98,14.914L459.98,9.91L462.536,9.91L462.536,19ZM469.966,17.038L469.966,18.946C469.774,18.994 469.564,19.03 469.336,19.054C469.108,19.078 468.838,19.09 468.526,19.09C467.446,19.09 466.654,18.844 466.15,18.352C465.646,17.848 465.394,17.032 465.394,15.904L465.394,11.854L464.044,11.854L464.044,9.91L465.394,9.91L465.394,7.732L467.95,7.732L467.95,9.91L469.966,9.91L469.966,11.854L467.95,11.854L467.95,15.67C467.95,16.21 468.07,16.576 468.31,16.768C468.55,16.948 468.982,17.038 469.606,17.038L469.966,17.038Z" style="fill:rgb(0,104,181);fill-rule:nonzero;"/>
            </g>
            <g transform="matrix(2.04288,0,0,1,-707.076,0)">
                <path d="M359.163,232.48L359.163,238L356.243,238L356.243,224.2L365.243,224.2L365.243,226.48L359.163,226.48L359.163,230.2L364.343,230.2L364.343,232.48L359.163,232.48ZM370.255,233.26L370.255,238L367.395,238L367.395,224.2L372.555,224.2C374.142,224.2 375.368,224.593 376.235,225.38C377.102,226.153 377.535,227.273 377.535,228.74C377.535,230.153 377.102,231.26 376.235,232.06C375.382,232.86 374.148,233.26 372.535,233.26L370.255,233.26ZM370.255,226.34L370.255,231.12L372.075,231.12C372.928,231.12 373.568,230.933 373.995,230.56C374.422,230.187 374.635,229.58 374.635,228.74C374.635,227.9 374.422,227.293 373.995,226.92C373.582,226.533 372.948,226.34 372.095,226.34L370.255,226.34ZM384.973,226.26C384.173,226.26 383.553,226.4 383.113,226.68C382.686,226.947 382.473,227.373 382.473,227.96C382.473,228.427 382.626,228.793 382.933,229.06C383.253,229.327 383.693,229.54 384.253,229.7L386.333,230.32C387.453,230.653 388.293,231.107 388.853,231.68C389.426,232.24 389.713,233.007 389.713,233.98C389.713,234.647 389.58,235.247 389.313,235.78C389.046,236.313 388.666,236.767 388.173,237.14C387.693,237.513 387.113,237.8 386.433,238C385.766,238.2 385.026,238.3 384.213,238.3C383.253,238.3 382.32,238.153 381.413,237.86C380.506,237.567 379.693,237.12 378.973,236.52L380.233,234.56C380.82,234.987 381.433,235.327 382.073,235.58C382.713,235.82 383.4,235.94 384.133,235.94C384.92,235.94 385.54,235.793 385.993,235.5C386.446,235.207 386.673,234.76 386.673,234.16C386.673,233.693 386.52,233.34 386.213,233.1C385.92,232.86 385.48,232.653 384.893,232.48L382.673,231.88C381.66,231.6 380.866,231.147 380.293,230.52C379.72,229.893 379.433,229.08 379.433,228.08C379.433,227.427 379.56,226.84 379.813,226.32C380.08,225.8 380.44,225.36 380.893,225C381.36,224.64 381.913,224.367 382.553,224.18C383.206,223.993 383.926,223.9 384.713,223.9C385.62,223.9 386.493,224.027 387.333,224.28C388.186,224.533 388.913,224.9 389.513,225.38L388.393,227.24C387.406,226.587 386.266,226.26 384.973,226.26ZM405.902,228L405.902,230.2L396.942,230.2L396.942,228L405.902,228ZM405.902,232.42L405.902,234.62L396.942,234.62L396.942,232.42L405.902,232.42Z" style="fill:rgb(0,104,181);fill-rule:nonzero;"/>
            </g>
            <g transform="matrix(2.04288,0,0,1,-707.076,0)">
                <path d="M439.625,224L437.069,224L437.069,214.91L439.625,214.91L439.625,224ZM437.051,211.184L439.643,211.184L439.643,213.506L437.051,213.506L437.051,211.184ZM442.149,214.91L443.607,214.91C444.219,214.91 444.525,215.174 444.525,215.702L444.525,216.368C444.765,215.852 445.143,215.444 445.659,215.144C446.175,214.832 446.793,214.676 447.513,214.676C448.485,214.676 449.235,214.958 449.763,215.522C450.303,216.086 450.573,216.932 450.573,218.06L450.573,224L448.017,224L448.017,218.24C448.017,217.184 447.549,216.656 446.613,216.656C446.025,216.656 445.557,216.866 445.209,217.286C444.873,217.706 444.705,218.288 444.705,219.032L444.705,224L442.149,224L442.149,214.91ZM458.231,213.092L457.817,213.092C457.145,213.092 456.659,213.194 456.359,213.398C456.071,213.59 455.927,213.992 455.927,214.604L455.927,214.91L458.141,214.91L458.141,216.854L455.927,216.854L455.927,224L453.371,224L453.371,216.854L452.021,216.854L452.021,214.91L453.371,214.91L453.371,214.244C453.371,213.188 453.677,212.39 454.289,211.85C454.901,211.31 455.789,211.04 456.953,211.04C457.157,211.04 457.379,211.052 457.619,211.076C457.859,211.088 458.063,211.118 458.231,211.166L458.231,213.092ZM461.39,220.004C461.486,220.796 461.75,221.372 462.182,221.732C462.626,222.08 463.238,222.254 464.018,222.254C464.438,222.254 464.84,222.2 465.224,222.092C465.608,221.984 465.95,221.828 466.25,221.624L467.114,223.136C466.262,223.868 465.14,224.234 463.748,224.234C462.92,224.234 462.2,224.114 461.588,223.874C460.988,223.622 460.484,223.28 460.076,222.848C459.68,222.416 459.386,221.906 459.194,221.318C459.002,220.73 458.906,220.1 458.906,219.428C458.906,218.648 459.026,217.964 459.266,217.376C459.506,216.776 459.83,216.278 460.238,215.882C460.658,215.486 461.144,215.186 461.696,214.982C462.26,214.778 462.854,214.676 463.478,214.676C464.114,214.676 464.678,214.778 465.17,214.982C465.662,215.174 466.07,215.45 466.394,215.81C466.73,216.17 466.982,216.602 467.15,217.106C467.33,217.598 467.42,218.15 467.42,218.762C467.42,218.966 467.408,219.182 467.384,219.41C467.372,219.626 467.342,219.824 467.294,220.004L461.39,220.004ZM463.478,216.548C462.902,216.548 462.434,216.722 462.074,217.07C461.714,217.418 461.504,217.898 461.444,218.51L465.116,218.51L465.116,218.276C465.116,217.724 464.966,217.298 464.666,216.998C464.378,216.698 463.982,216.548 463.478,216.548ZM469.395,214.91L470.853,214.91C471.465,214.91 471.771,215.174 471.771,215.702L471.771,216.818C471.963,216.206 472.281,215.72 472.725,215.36C473.181,214.988 473.745,214.802 474.417,214.802C474.693,214.802 474.933,214.832 475.137,214.892L475.137,216.98L474.615,216.98C473.703,216.98 473.031,217.214 472.599,217.682C472.167,218.15 471.951,218.93 471.951,220.022L471.951,224L469.395,224L469.395,214.91ZM476.426,214.91L477.884,214.91C478.496,214.91 478.802,215.174 478.802,215.702L478.802,216.818C478.994,216.206 479.312,215.72 479.756,215.36C480.212,214.988 480.776,214.802 481.448,214.802C481.724,214.802 481.964,214.832 482.168,214.892L482.168,216.98L481.646,216.98C480.734,216.98 480.062,217.214 479.63,217.682C479.198,218.15 478.982,218.93 478.982,220.022L478.982,224L476.426,224L476.426,214.91ZM485.174,220.004C485.27,220.796 485.534,221.372 485.966,221.732C486.41,222.08 487.022,222.254 487.802,222.254C488.222,222.254 488.624,222.2 489.008,222.092C489.392,221.984 489.734,221.828 490.034,221.624L490.898,223.136C490.046,223.868 488.924,224.234 487.532,224.234C486.704,224.234 485.984,224.114 485.372,223.874C484.772,223.622 484.268,223.28 483.86,222.848C483.464,222.416 483.17,221.906 482.978,221.318C482.786,220.73 482.69,220.1 482.69,219.428C482.69,218.648 482.81,217.964 483.05,217.376C483.29,216.776 483.614,216.278 484.022,215.882C484.442,215.486 484.928,215.186 485.48,214.982C486.044,214.778 486.638,214.676 487.262,214.676C487.898,214.676 488.462,214.778 488.954,214.982C489.446,215.174 489.854,215.45 490.178,215.81C490.514,216.17 490.766,216.602 490.934,217.106C491.114,217.598 491.204,218.15 491.204,218.762C491.204,218.966 491.192,219.182 491.168,219.41C491.156,219.626 491.126,219.824 491.078,220.004L485.174,220.004ZM487.262,216.548C486.686,216.548 486.218,216.722 485.858,217.07C485.498,217.418 485.288,217.898 485.228,218.51L488.9,218.51L488.9,218.276C488.9,217.724 488.75,217.298 488.45,216.998C488.162,216.698 487.766,216.548 487.262,216.548ZM501.836,224L500.36,224C499.748,224 499.442,223.73 499.442,223.19L499.442,222.596C499.202,223.1 498.83,223.502 498.326,223.802C497.834,224.09 497.24,224.234 496.544,224.234C495.944,224.234 495.404,224.12 494.924,223.892C494.444,223.664 494.036,223.346 493.7,222.938C493.376,222.518 493.124,222.014 492.944,221.426C492.764,220.838 492.674,220.178 492.674,219.446C492.674,218.69 492.77,218.018 492.962,217.43C493.154,216.83 493.424,216.332 493.772,215.936C494.12,215.528 494.534,215.216 495.014,215C495.506,214.784 496.052,214.676 496.652,214.676C497.228,214.676 497.744,214.79 498.2,215.018C498.656,215.246 499.016,215.57 499.28,215.99L499.28,211.094L501.836,211.094L501.836,224ZM499.352,219.464C499.352,218.588 499.178,217.904 498.83,217.412C498.494,216.908 497.996,216.656 497.336,216.656C496.688,216.656 496.184,216.902 495.824,217.394C495.464,217.886 495.284,218.576 495.284,219.464C495.284,220.364 495.452,221.054 495.788,221.534C496.124,222.014 496.622,222.254 497.282,222.254C497.93,222.254 498.434,222.008 498.794,221.516C499.166,221.012 499.352,220.328 499.352,219.464ZM508.752,214.91L510.21,214.91C510.822,214.91 511.128,215.174 511.128,215.702L511.128,216.368C511.368,215.852 511.746,215.444 512.262,215.144C512.778,214.832 513.396,214.676 514.116,214.676C515.088,214.676 515.838,214.958 516.366,215.522C516.906,216.086 517.176,216.932 517.176,218.06L517.176,224L514.62,224L514.62,218.24C514.62,217.184 514.152,216.656 513.216,216.656C512.628,216.656 512.16,216.866 511.812,217.286C511.476,217.706 511.308,218.288 511.308,219.032L511.308,224L508.752,224L508.752,214.91ZM527.84,224L526.382,224C526.046,224 525.806,223.928 525.662,223.784C525.518,223.64 525.446,223.418 525.446,223.118L525.446,222.614C525.206,223.154 524.834,223.562 524.33,223.838C523.838,224.102 523.268,224.234 522.62,224.234C521.624,224.234 520.868,223.94 520.352,223.352C519.848,222.764 519.596,221.906 519.596,220.778L519.596,214.91L522.152,214.91L522.152,220.616C522.152,221.204 522.266,221.624 522.494,221.876C522.722,222.128 523.058,222.254 523.502,222.254C524.09,222.254 524.534,222.044 524.834,221.624C525.134,221.204 525.284,220.634 525.284,219.914L525.284,214.91L527.84,214.91L527.84,224ZM538.474,224L535.918,224L535.918,218.294C535.918,217.238 535.492,216.71 534.64,216.71C534.1,216.71 533.674,216.902 533.362,217.286C533.062,217.658 532.912,218.204 532.912,218.924L532.912,224L530.356,224L530.356,214.91L531.814,214.91C532.426,214.91 532.732,215.174 532.732,215.702L532.732,216.332C532.972,215.792 533.338,215.384 533.83,215.108C534.334,214.82 534.91,214.676 535.558,214.676C536.206,214.676 536.746,214.82 537.178,215.108C537.622,215.384 537.946,215.792 538.15,216.332C538.414,215.804 538.798,215.396 539.302,215.108C539.806,214.82 540.4,214.676 541.084,214.676C542.032,214.676 542.758,214.97 543.262,215.558C543.778,216.134 544.036,216.968 544.036,218.06L544.036,224L541.48,224L541.48,218.294C541.48,217.238 541.054,216.71 540.202,216.71C539.662,216.71 539.236,216.902 538.924,217.286C538.624,217.658 538.474,218.204 538.474,218.924L538.474,224ZM546.528,211.094L549.084,211.094L549.084,216.134C549.372,215.666 549.774,215.306 550.29,215.054C550.806,214.802 551.388,214.676 552.036,214.676C553.164,214.676 554.052,215.078 554.7,215.882C555.36,216.674 555.69,217.796 555.69,219.248C555.69,219.992 555.6,220.67 555.42,221.282C555.252,221.894 555,222.422 554.664,222.866C554.328,223.298 553.92,223.634 553.44,223.874C552.972,224.114 552.438,224.234 551.838,224.234C551.286,224.234 550.734,224.114 550.182,223.874C549.642,223.634 549.222,223.214 548.922,222.614L548.922,223.19C548.922,223.73 548.616,224 548.004,224L546.528,224L546.528,211.094ZM549.012,219.572C549.012,220.412 549.18,221.072 549.516,221.552C549.864,222.02 550.374,222.254 551.046,222.254C551.73,222.254 552.24,222.002 552.576,221.498C552.912,220.982 553.08,220.286 553.08,219.41C553.08,218.522 552.918,217.844 552.594,217.376C552.27,216.896 551.784,216.656 551.136,216.656C550.452,216.656 549.924,216.92 549.552,217.448C549.192,217.964 549.012,218.672 549.012,219.572ZM559.687,220.004C559.783,220.796 560.047,221.372 560.479,221.732C560.923,222.08 561.535,222.254 562.315,222.254C562.735,222.254 563.137,222.2 563.521,222.092C563.905,221.984 564.247,221.828 564.547,221.624L565.411,223.136C564.559,223.868 563.437,224.234 562.045,224.234C561.217,224.234 560.497,224.114 559.885,223.874C559.285,223.622 558.781,223.28 558.373,222.848C557.977,222.416 557.683,221.906 557.491,221.318C557.299,220.73 557.203,220.1 557.203,219.428C557.203,218.648 557.323,217.964 557.563,217.376C557.803,216.776 558.127,216.278 558.535,215.882C558.955,215.486 559.441,215.186 559.993,214.982C560.557,214.778 561.151,214.676 561.775,214.676C562.411,214.676 562.975,214.778 563.467,214.982C563.959,215.174 564.367,215.45 564.691,215.81C565.027,216.17 565.279,216.602 565.447,217.106C565.627,217.598 565.717,218.15 565.717,218.762C565.717,218.966 565.705,219.182 565.681,219.41C565.669,219.626 565.639,219.824 565.591,220.004L559.687,220.004ZM561.775,216.548C561.199,216.548 560.731,216.722 560.371,217.07C560.011,217.418 559.801,217.898 559.741,218.51L563.413,218.51L563.413,218.276C563.413,217.724 563.263,217.298 562.963,216.998C562.675,216.698 562.279,216.548 561.775,216.548ZM567.692,214.91L569.15,214.91C569.762,214.91 570.068,215.174 570.068,215.702L570.068,216.818C570.26,216.206 570.578,215.72 571.022,215.36C571.478,214.988 572.042,214.802 572.714,214.802C572.99,214.802 573.23,214.832 573.434,214.892L573.434,216.98L572.912,216.98C572,216.98 571.328,217.214 570.896,217.682C570.464,218.15 570.248,218.93 570.248,220.022L570.248,224L567.692,224L567.692,214.91ZM587.973,219.446C587.973,220.202 587.859,220.88 587.631,221.48C587.415,222.068 587.103,222.566 586.695,222.974C586.287,223.382 585.795,223.694 585.219,223.91C584.643,224.126 584.001,224.234 583.293,224.234C582.585,224.234 581.943,224.126 581.367,223.91C580.791,223.694 580.299,223.382 579.891,222.974C579.483,222.566 579.165,222.068 578.937,221.48C578.721,220.88 578.613,220.202 578.613,219.446C578.613,218.69 578.721,218.018 578.937,217.43C579.165,216.842 579.483,216.344 579.891,215.936C580.299,215.528 580.791,215.216 581.367,215C581.943,214.784 582.585,214.676 583.293,214.676C584.001,214.676 584.643,214.784 585.219,215C585.795,215.216 586.287,215.528 586.695,215.936C587.103,216.344 587.415,216.842 587.631,217.43C587.859,218.018 587.973,218.69 587.973,219.446ZM585.363,219.446C585.363,218.522 585.183,217.826 584.823,217.358C584.475,216.89 583.965,216.656 583.293,216.656C582.621,216.656 582.105,216.89 581.745,217.358C581.397,217.826 581.223,218.522 581.223,219.446C581.223,220.382 581.397,221.084 581.745,221.552C582.105,222.02 582.621,222.254 583.293,222.254C583.965,222.254 584.475,222.02 584.823,221.552C585.183,221.084 585.363,220.382 585.363,219.446ZM595.147,213.092L594.733,213.092C594.061,213.092 593.575,213.194 593.275,213.398C592.987,213.59 592.843,213.992 592.843,214.604L592.843,214.91L595.057,214.91L595.057,216.854L592.843,216.854L592.843,224L590.287,224L590.287,216.854L588.937,216.854L588.937,214.91L590.287,214.91L590.287,214.244C590.287,213.188 590.593,212.39 591.205,211.85C591.817,211.31 592.705,211.04 593.869,211.04C594.073,211.04 594.295,211.052 594.535,211.076C594.775,211.088 594.979,211.118 595.147,211.166L595.147,213.092ZM603.277,224L600.721,224L600.721,214.91L603.277,214.91L603.277,224ZM600.703,211.184L603.295,211.184L603.295,213.506L600.703,213.506L600.703,211.184ZM613.919,224L611.363,224L611.363,218.294C611.363,217.238 610.937,216.71 610.085,216.71C609.545,216.71 609.119,216.902 608.807,217.286C608.507,217.658 608.357,218.204 608.357,218.924L608.357,224L605.801,224L605.801,214.91L607.259,214.91C607.871,214.91 608.177,215.174 608.177,215.702L608.177,216.332C608.417,215.792 608.783,215.384 609.275,215.108C609.779,214.82 610.355,214.676 611.003,214.676C611.651,214.676 612.191,214.82 612.623,215.108C613.067,215.384 613.391,215.792 613.595,216.332C613.859,215.804 614.243,215.396 614.747,215.108C615.251,214.82 615.845,214.676 616.529,214.676C617.477,214.676 618.203,214.97 618.707,215.558C619.223,216.134 619.481,216.968 619.481,218.06L619.481,224L616.925,224L616.925,218.294C616.925,217.238 616.499,216.71 615.647,216.71C615.107,216.71 614.681,216.902 614.369,217.286C614.069,217.658 613.919,218.204 613.919,218.924L613.919,224ZM621.289,221.444C621.289,220.496 621.631,219.776 622.315,219.284C622.999,218.78 623.941,218.528 625.141,218.528L626.617,218.528L626.617,218.168C626.617,217.64 626.473,217.256 626.185,217.016C625.909,216.764 625.465,216.638 624.853,216.638C624.397,216.638 623.959,216.704 623.539,216.836C623.119,216.968 622.735,217.154 622.387,217.394L621.505,215.9C622.009,215.516 622.579,215.216 623.215,215C623.851,214.784 624.535,214.676 625.267,214.676C626.515,214.676 627.451,214.976 628.075,215.576C628.711,216.176 629.029,217.04 629.029,218.168L629.029,221.66C629.029,221.936 629.077,222.122 629.173,222.218C629.269,222.302 629.443,222.344 629.695,222.344L629.893,222.344L629.893,223.91C629.761,223.958 629.605,224 629.425,224.036C629.245,224.072 629.029,224.09 628.777,224.09C628.249,224.09 627.853,223.982 627.589,223.766C627.325,223.55 627.169,223.232 627.121,222.812C626.905,223.244 626.545,223.586 626.041,223.838C625.537,224.09 624.961,224.216 624.313,224.216C623.401,224.216 622.669,223.97 622.117,223.478C621.565,222.986 621.289,222.308 621.289,221.444ZM624.961,222.38C625.477,222.38 625.879,222.212 626.167,221.876C626.467,221.54 626.617,221.066 626.617,220.454L626.617,219.986L625.375,219.986C624.847,219.986 624.439,220.094 624.151,220.31C623.875,220.514 623.737,220.826 623.737,221.246C623.737,221.63 623.845,221.918 624.061,222.11C624.289,222.29 624.589,222.38 624.961,222.38ZM630.761,225.296C630.761,224.756 630.905,224.312 631.193,223.964C631.493,223.616 631.901,223.376 632.417,223.244C631.997,223.136 631.685,222.95 631.481,222.686C631.277,222.41 631.175,222.092 631.175,221.732C631.175,221.276 631.313,220.922 631.589,220.67C631.865,220.406 632.195,220.238 632.579,220.166C632.195,219.89 631.895,219.548 631.679,219.14C631.475,218.732 631.373,218.294 631.373,217.826C631.373,217.358 631.469,216.932 631.661,216.548C631.865,216.152 632.141,215.816 632.489,215.54C632.837,215.264 633.251,215.054 633.731,214.91C634.223,214.754 634.757,214.676 635.333,214.676C636.101,214.676 636.785,214.802 637.385,215.054L640.211,215.054L640.211,216.584L638.897,216.584C639.221,216.908 639.383,217.388 639.383,218.024C639.383,218.948 639.023,219.674 638.303,220.202C637.583,220.718 636.623,220.976 635.423,220.976C634.859,220.976 634.391,220.922 634.019,220.814C633.647,220.922 633.461,221.174 633.461,221.57C633.461,221.822 633.557,222.014 633.749,222.146C633.941,222.266 634.211,222.326 634.559,222.326L636.467,222.326C637.595,222.326 638.465,222.536 639.077,222.956C639.689,223.376 639.995,224 639.995,224.828C639.995,225.32 639.875,225.764 639.635,226.16C639.407,226.556 639.077,226.892 638.645,227.168C638.213,227.444 637.691,227.654 637.079,227.798C636.479,227.942 635.801,228.014 635.045,228.014C633.701,228.014 632.651,227.774 631.895,227.294C631.139,226.814 630.761,226.148 630.761,225.296ZM634.721,223.964C634.229,223.964 633.851,224.054 633.587,224.234C633.323,224.414 633.191,224.696 633.191,225.08C633.191,225.5 633.371,225.818 633.731,226.034C634.103,226.262 634.637,226.376 635.333,226.376C636.041,226.376 636.581,226.256 636.953,226.016C637.337,225.788 637.529,225.446 637.529,224.99C637.529,224.642 637.403,224.384 637.151,224.216C636.899,224.048 636.491,223.964 635.927,223.964L634.721,223.964ZM636.971,217.826C636.971,217.358 636.827,216.986 636.539,216.71C636.263,216.434 635.873,216.296 635.369,216.296C634.865,216.296 634.475,216.434 634.199,216.71C633.923,216.986 633.785,217.358 633.785,217.826C633.785,218.294 633.923,218.666 634.199,218.942C634.475,219.218 634.865,219.356 635.369,219.356C635.873,219.356 636.263,219.218 636.539,218.942C636.827,218.666 636.971,218.294 636.971,217.826ZM643.746,220.004C643.842,220.796 644.106,221.372 644.538,221.732C644.982,222.08 645.594,222.254 646.374,222.254C646.794,222.254 647.196,222.2 647.58,222.092C647.964,221.984 648.306,221.828 648.606,221.624L649.47,223.136C648.618,223.868 647.496,224.234 646.104,224.234C645.276,224.234 644.556,224.114 643.944,223.874C643.344,223.622 642.84,223.28 642.432,222.848C642.036,222.416 641.742,221.906 641.55,221.318C641.358,220.73 641.262,220.1 641.262,219.428C641.262,218.648 641.382,217.964 641.622,217.376C641.862,216.776 642.186,216.278 642.594,215.882C643.014,215.486 643.5,215.186 644.052,214.982C644.616,214.778 645.21,214.676 645.834,214.676C646.47,214.676 647.034,214.778 647.526,214.982C648.018,215.174 648.426,215.45 648.75,215.81C649.086,216.17 649.338,216.602 649.506,217.106C649.686,217.598 649.776,218.15 649.776,218.762C649.776,218.966 649.764,219.182 649.74,219.41C649.728,219.626 649.698,219.824 649.65,220.004L643.746,220.004ZM645.834,216.548C645.258,216.548 644.79,216.722 644.43,217.07C644.07,217.418 643.86,217.898 643.8,218.51L647.472,218.51L647.472,218.276C647.472,217.724 647.322,217.298 647.022,216.998C646.734,216.698 646.338,216.548 645.834,216.548ZM655.224,216.62C654.804,216.62 654.474,216.692 654.234,216.836C653.994,216.968 653.874,217.172 653.874,217.448C653.874,217.676 653.946,217.856 654.09,217.988C654.234,218.108 654.426,218.204 654.666,218.276L656.034,218.69C656.874,218.942 657.492,219.272 657.888,219.68C658.296,220.076 658.5,220.616 658.5,221.3C658.5,222.212 658.158,222.932 657.474,223.46C656.802,223.976 655.878,224.234 654.702,224.234C653.958,224.234 653.274,224.132 652.65,223.928C652.026,223.712 651.474,223.412 650.994,223.028L651.948,221.408C652.344,221.684 652.77,221.9 653.226,222.056C653.694,222.212 654.15,222.29 654.594,222.29C655.014,222.29 655.344,222.212 655.584,222.056C655.824,221.9 655.944,221.66 655.944,221.336C655.944,221.12 655.878,220.946 655.746,220.814C655.626,220.67 655.41,220.55 655.098,220.454L653.604,220.022C652.86,219.806 652.29,219.494 651.894,219.086C651.51,218.666 651.318,218.12 651.318,217.448C651.318,216.992 651.408,216.596 651.588,216.26C651.768,215.912 652.014,215.624 652.326,215.396C652.65,215.156 653.034,214.976 653.478,214.856C653.922,214.736 654.408,214.676 654.936,214.676C655.584,214.676 656.214,214.766 656.826,214.946C657.438,215.114 657.954,215.354 658.374,215.666L657.564,217.286C656.82,216.842 656.04,216.62 655.224,216.62Z" style="fill:rgb(0,104,181);fill-rule:nonzero;"/>
            </g>
            <g transform="matrix(2.04288,0,0,1,-707.076,0)">
                <path d="M439.099,241.458C439.375,240.846 439.801,240.396 440.377,240.108C440.953,239.82 441.565,239.676 442.213,239.676C443.305,239.676 444.187,240.066 444.859,240.846C445.531,241.614 445.867,242.748 445.867,244.248C445.867,244.98 445.777,245.652 445.597,246.264C445.429,246.876 445.177,247.404 444.841,247.848C444.517,248.28 444.115,248.622 443.635,248.874C443.155,249.114 442.615,249.234 442.015,249.234C441.511,249.234 441.001,249.138 440.485,248.946C439.981,248.742 439.573,248.394 439.261,247.902L439.261,252.78L436.705,252.78L436.705,239.91L438.181,239.91C438.793,239.91 439.099,240.18 439.099,240.72L439.099,241.458ZM439.189,244.572C439.189,245.412 439.357,246.072 439.693,246.552C440.041,247.02 440.551,247.254 441.223,247.254C441.583,247.254 441.889,247.182 442.141,247.038C442.405,246.894 442.615,246.696 442.771,246.444C442.939,246.18 443.059,245.874 443.131,245.526C443.215,245.178 443.257,244.806 443.257,244.41C443.257,243.522 443.095,242.844 442.771,242.376C442.447,241.896 441.961,241.656 441.313,241.656C440.629,241.656 440.101,241.92 439.729,242.448C439.369,242.964 439.189,243.672 439.189,244.572ZM447.885,239.91L449.343,239.91C449.955,239.91 450.261,240.174 450.261,240.702L450.261,241.818C450.453,241.206 450.771,240.72 451.215,240.36C451.671,239.988 452.235,239.802 452.907,239.802C453.183,239.802 453.423,239.832 453.627,239.892L453.627,241.98L453.105,241.98C452.193,241.98 451.521,242.214 451.089,242.682C450.657,243.15 450.441,243.93 450.441,245.022L450.441,249L447.885,249L447.885,239.91ZM463.509,244.446C463.509,245.202 463.395,245.88 463.167,246.48C462.951,247.068 462.639,247.566 462.231,247.974C461.823,248.382 461.331,248.694 460.755,248.91C460.179,249.126 459.537,249.234 458.829,249.234C458.121,249.234 457.479,249.126 456.903,248.91C456.327,248.694 455.835,248.382 455.427,247.974C455.019,247.566 454.701,247.068 454.473,246.48C454.257,245.88 454.149,245.202 454.149,244.446C454.149,243.69 454.257,243.018 454.473,242.43C454.701,241.842 455.019,241.344 455.427,240.936C455.835,240.528 456.327,240.216 456.903,240C457.479,239.784 458.121,239.676 458.829,239.676C459.537,239.676 460.179,239.784 460.755,240C461.331,240.216 461.823,240.528 462.231,240.936C462.639,241.344 462.951,241.842 463.167,242.43C463.395,243.018 463.509,243.69 463.509,244.446ZM460.899,244.446C460.899,243.522 460.719,242.826 460.359,242.358C460.011,241.89 459.501,241.656 458.829,241.656C458.157,241.656 457.641,241.89 457.281,242.358C456.933,242.826 456.759,243.522 456.759,244.446C456.759,245.382 456.933,246.084 457.281,246.552C457.641,247.02 458.157,247.254 458.829,247.254C459.501,247.254 460.011,247.02 460.359,246.552C460.719,246.084 460.899,245.382 460.899,244.446ZM467.622,244.446C467.622,245.334 467.826,246.012 468.234,246.48C468.654,246.936 469.284,247.164 470.124,247.164C470.472,247.164 470.808,247.122 471.132,247.038C471.468,246.942 471.756,246.81 471.996,246.642L472.752,248.388C472.404,248.64 471.984,248.844 471.492,249C471,249.156 470.43,249.234 469.782,249.234C469.038,249.234 468.372,249.126 467.784,248.91C467.196,248.682 466.698,248.364 466.29,247.956C465.882,247.548 465.564,247.05 465.336,246.462C465.12,245.874 465.012,245.208 465.012,244.464C465.012,243.72 465.126,243.054 465.354,242.466C465.582,241.878 465.9,241.38 466.308,240.972C466.728,240.552 467.232,240.234 467.82,240.018C468.42,239.79 469.092,239.676 469.836,239.676C470.436,239.676 470.97,239.748 471.438,239.892C471.906,240.036 472.314,240.228 472.662,240.468L471.888,242.214C471.66,242.058 471.396,241.944 471.096,241.872C470.796,241.788 470.478,241.746 470.142,241.746C469.374,241.746 468.762,241.968 468.306,242.412C467.85,242.844 467.622,243.522 467.622,244.446ZM476.179,245.004C476.275,245.796 476.539,246.372 476.971,246.732C477.415,247.08 478.027,247.254 478.807,247.254C479.227,247.254 479.629,247.2 480.013,247.092C480.397,246.984 480.739,246.828 481.039,246.624L481.903,248.136C481.051,248.868 479.929,249.234 478.537,249.234C477.709,249.234 476.989,249.114 476.377,248.874C475.777,248.622 475.273,248.28 474.865,247.848C474.469,247.416 474.175,246.906 473.983,246.318C473.791,245.73 473.695,245.1 473.695,244.428C473.695,243.648 473.815,242.964 474.055,242.376C474.295,241.776 474.619,241.278 475.027,240.882C475.447,240.486 475.933,240.186 476.485,239.982C477.049,239.778 477.643,239.676 478.267,239.676C478.903,239.676 479.467,239.778 479.959,239.982C480.451,240.174 480.859,240.45 481.183,240.81C481.519,241.17 481.771,241.602 481.939,242.106C482.119,242.598 482.209,243.15 482.209,243.762C482.209,243.966 482.197,244.182 482.173,244.41C482.161,244.626 482.131,244.824 482.083,245.004L476.179,245.004ZM478.267,241.548C477.691,241.548 477.223,241.722 476.863,242.07C476.503,242.418 476.293,242.898 476.233,243.51L479.905,243.51L479.905,243.276C479.905,242.724 479.755,242.298 479.455,241.998C479.167,241.698 478.771,241.548 478.267,241.548ZM487.658,241.62C487.238,241.62 486.908,241.692 486.668,241.836C486.428,241.968 486.308,242.172 486.308,242.448C486.308,242.676 486.38,242.856 486.524,242.988C486.668,243.108 486.86,243.204 487.1,243.276L488.468,243.69C489.308,243.942 489.926,244.272 490.322,244.68C490.73,245.076 490.934,245.616 490.934,246.3C490.934,247.212 490.592,247.932 489.908,248.46C489.236,248.976 488.312,249.234 487.136,249.234C486.392,249.234 485.708,249.132 485.084,248.928C484.46,248.712 483.908,248.412 483.428,248.028L484.382,246.408C484.778,246.684 485.204,246.9 485.66,247.056C486.128,247.212 486.584,247.29 487.028,247.29C487.448,247.29 487.778,247.212 488.018,247.056C488.258,246.9 488.378,246.66 488.378,246.336C488.378,246.12 488.312,245.946 488.18,245.814C488.06,245.67 487.844,245.55 487.532,245.454L486.038,245.022C485.294,244.806 484.724,244.494 484.328,244.086C483.944,243.666 483.752,243.12 483.752,242.448C483.752,241.992 483.842,241.596 484.022,241.26C484.202,240.912 484.448,240.624 484.76,240.396C485.084,240.156 485.468,239.976 485.912,239.856C486.356,239.736 486.842,239.676 487.37,239.676C488.018,239.676 488.648,239.766 489.26,239.946C489.872,240.114 490.388,240.354 490.808,240.666L489.998,242.286C489.254,241.842 488.474,241.62 487.658,241.62ZM496.359,241.62C495.939,241.62 495.609,241.692 495.369,241.836C495.129,241.968 495.009,242.172 495.009,242.448C495.009,242.676 495.081,242.856 495.225,242.988C495.369,243.108 495.561,243.204 495.801,243.276L497.169,243.69C498.009,243.942 498.627,244.272 499.023,244.68C499.431,245.076 499.635,245.616 499.635,246.3C499.635,247.212 499.293,247.932 498.609,248.46C497.937,248.976 497.013,249.234 495.837,249.234C495.093,249.234 494.409,249.132 493.785,248.928C493.161,248.712 492.609,248.412 492.129,248.028L493.083,246.408C493.479,246.684 493.905,246.9 494.361,247.056C494.829,247.212 495.285,247.29 495.729,247.29C496.149,247.29 496.479,247.212 496.719,247.056C496.959,246.9 497.079,246.66 497.079,246.336C497.079,246.12 497.013,245.946 496.881,245.814C496.761,245.67 496.545,245.55 496.233,245.454L494.739,245.022C493.995,244.806 493.425,244.494 493.029,244.086C492.645,243.666 492.453,243.12 492.453,242.448C492.453,241.992 492.543,241.596 492.723,241.26C492.903,240.912 493.149,240.624 493.461,240.396C493.785,240.156 494.169,239.976 494.613,239.856C495.057,239.736 495.543,239.676 496.071,239.676C496.719,239.676 497.349,239.766 497.961,239.946C498.573,240.114 499.089,240.354 499.509,240.666L498.699,242.286C497.955,241.842 497.175,241.62 496.359,241.62ZM504.142,249L501.586,249L501.586,239.91L504.142,239.91L504.142,249ZM501.568,236.184L504.16,236.184L504.16,238.506L501.568,238.506L501.568,236.184ZM506.666,239.91L508.124,239.91C508.736,239.91 509.042,240.174 509.042,240.702L509.042,241.368C509.282,240.852 509.66,240.444 510.176,240.144C510.692,239.832 511.31,239.676 512.03,239.676C513.002,239.676 513.752,239.958 514.28,240.522C514.82,241.086 515.09,241.932 515.09,243.06L515.09,249L512.534,249L512.534,243.24C512.534,242.184 512.066,241.656 511.13,241.656C510.542,241.656 510.074,241.866 509.726,242.286C509.39,242.706 509.222,243.288 509.222,244.032L509.222,249L506.666,249L506.666,239.91ZM516.79,250.296C516.79,249.756 516.934,249.312 517.222,248.964C517.522,248.616 517.93,248.376 518.446,248.244C518.026,248.136 517.714,247.95 517.51,247.686C517.306,247.41 517.204,247.092 517.204,246.732C517.204,246.276 517.342,245.922 517.618,245.67C517.894,245.406 518.224,245.238 518.608,245.166C518.224,244.89 517.924,244.548 517.708,244.14C517.504,243.732 517.402,243.294 517.402,242.826C517.402,242.358 517.498,241.932 517.69,241.548C517.894,241.152 518.17,240.816 518.518,240.54C518.866,240.264 519.28,240.054 519.76,239.91C520.252,239.754 520.786,239.676 521.362,239.676C522.13,239.676 522.814,239.802 523.414,240.054L526.24,240.054L526.24,241.584L524.926,241.584C525.25,241.908 525.412,242.388 525.412,243.024C525.412,243.948 525.052,244.674 524.332,245.202C523.612,245.718 522.652,245.976 521.452,245.976C520.888,245.976 520.42,245.922 520.048,245.814C519.676,245.922 519.49,246.174 519.49,246.57C519.49,246.822 519.586,247.014 519.778,247.146C519.97,247.266 520.24,247.326 520.588,247.326L522.496,247.326C523.624,247.326 524.494,247.536 525.106,247.956C525.718,248.376 526.024,249 526.024,249.828C526.024,250.32 525.904,250.764 525.664,251.16C525.436,251.556 525.106,251.892 524.674,252.168C524.242,252.444 523.72,252.654 523.108,252.798C522.508,252.942 521.83,253.014 521.074,253.014C519.73,253.014 518.68,252.774 517.924,252.294C517.168,251.814 516.79,251.148 516.79,250.296ZM520.75,248.964C520.258,248.964 519.88,249.054 519.616,249.234C519.352,249.414 519.22,249.696 519.22,250.08C519.22,250.5 519.4,250.818 519.76,251.034C520.132,251.262 520.666,251.376 521.362,251.376C522.07,251.376 522.61,251.256 522.982,251.016C523.366,250.788 523.558,250.446 523.558,249.99C523.558,249.642 523.432,249.384 523.18,249.216C522.928,249.048 522.52,248.964 521.956,248.964L520.75,248.964ZM523,242.826C523,242.358 522.856,241.986 522.568,241.71C522.292,241.434 521.902,241.296 521.398,241.296C520.894,241.296 520.504,241.434 520.228,241.71C519.952,241.986 519.814,242.358 519.814,242.826C519.814,243.294 519.952,243.666 520.228,243.942C520.504,244.218 520.894,244.356 521.398,244.356C521.902,244.356 522.292,244.218 522.568,243.942C522.856,243.666 523,243.294 523,242.826ZM537.104,247.038L537.104,248.946C536.912,248.994 536.702,249.03 536.474,249.054C536.246,249.078 535.976,249.09 535.664,249.09C534.584,249.09 533.792,248.844 533.288,248.352C532.784,247.848 532.532,247.032 532.532,245.904L532.532,241.854L531.182,241.854L531.182,239.91L532.532,239.91L532.532,237.732L535.088,237.732L535.088,239.91L537.104,239.91L537.104,241.854L535.088,241.854L535.088,245.67C535.088,246.21 535.208,246.576 535.448,246.768C535.688,246.948 536.12,247.038 536.744,247.038L537.104,247.038ZM541.32,249L538.764,249L538.764,239.91L541.32,239.91L541.32,249ZM538.746,236.184L541.338,236.184L541.338,238.506L538.746,238.506L538.746,236.184ZM551.962,249L549.406,249L549.406,243.294C549.406,242.238 548.98,241.71 548.128,241.71C547.588,241.71 547.162,241.902 546.85,242.286C546.55,242.658 546.4,243.204 546.4,243.924L546.4,249L543.844,249L543.844,239.91L545.302,239.91C545.914,239.91 546.22,240.174 546.22,240.702L546.22,241.332C546.46,240.792 546.826,240.384 547.318,240.108C547.822,239.82 548.398,239.676 549.046,239.676C549.694,239.676 550.234,239.82 550.666,240.108C551.11,240.384 551.434,240.792 551.638,241.332C551.902,240.804 552.286,240.396 552.79,240.108C553.294,239.82 553.888,239.676 554.572,239.676C555.52,239.676 556.246,239.97 556.75,240.558C557.266,241.134 557.524,241.968 557.524,243.06L557.524,249L554.968,249L554.968,243.294C554.968,242.238 554.542,241.71 553.69,241.71C553.15,241.71 552.724,241.902 552.412,242.286C552.112,242.658 551.962,243.204 551.962,243.924L551.962,249ZM561.996,245.004C562.092,245.796 562.356,246.372 562.788,246.732C563.232,247.08 563.844,247.254 564.624,247.254C565.044,247.254 565.446,247.2 565.83,247.092C566.214,246.984 566.556,246.828 566.856,246.624L567.72,248.136C566.868,248.868 565.746,249.234 564.354,249.234C563.526,249.234 562.806,249.114 562.194,248.874C561.594,248.622 561.09,248.28 560.682,247.848C560.286,247.416 559.992,246.906 559.8,246.318C559.608,245.73 559.512,245.1 559.512,244.428C559.512,243.648 559.632,242.964 559.872,242.376C560.112,241.776 560.436,241.278 560.844,240.882C561.264,240.486 561.75,240.186 562.302,239.982C562.866,239.778 563.46,239.676 564.084,239.676C564.72,239.676 565.284,239.778 565.776,239.982C566.268,240.174 566.676,240.45 567,240.81C567.336,241.17 567.588,241.602 567.756,242.106C567.936,242.598 568.026,243.15 568.026,243.762C568.026,243.966 568.014,244.182 567.99,244.41C567.978,244.626 567.948,244.824 567.9,245.004L561.996,245.004ZM564.084,241.548C563.508,241.548 563.04,241.722 562.68,242.07C562.32,242.418 562.11,242.898 562.05,243.51L565.722,243.51L565.722,243.276C565.722,242.724 565.572,242.298 565.272,241.998C564.984,241.698 564.588,241.548 564.084,241.548ZM576.951,249L574.395,249L574.395,239.91L576.951,239.91L576.951,249ZM574.377,236.184L576.969,236.184L576.969,238.506L574.377,238.506L574.377,236.184ZM579.475,239.91L580.933,239.91C581.545,239.91 581.851,240.174 581.851,240.702L581.851,241.368C582.091,240.852 582.469,240.444 582.985,240.144C583.501,239.832 584.119,239.676 584.839,239.676C585.811,239.676 586.561,239.958 587.089,240.522C587.629,241.086 587.899,241.932 587.899,243.06L587.899,249L585.343,249L585.343,243.24C585.343,242.184 584.875,241.656 583.939,241.656C583.351,241.656 582.883,241.866 582.535,242.286C582.199,242.706 582.031,243.288 582.031,244.032L582.031,249L579.475,249L579.475,239.91ZM598.259,241.62C597.839,241.62 597.509,241.692 597.269,241.836C597.029,241.968 596.909,242.172 596.909,242.448C596.909,242.676 596.981,242.856 597.125,242.988C597.269,243.108 597.461,243.204 597.701,243.276L599.069,243.69C599.909,243.942 600.527,244.272 600.923,244.68C601.331,245.076 601.535,245.616 601.535,246.3C601.535,247.212 601.193,247.932 600.509,248.46C599.837,248.976 598.913,249.234 597.737,249.234C596.993,249.234 596.309,249.132 595.685,248.928C595.061,248.712 594.509,248.412 594.029,248.028L594.983,246.408C595.379,246.684 595.805,246.9 596.261,247.056C596.729,247.212 597.185,247.29 597.629,247.29C598.049,247.29 598.379,247.212 598.619,247.056C598.859,246.9 598.979,246.66 598.979,246.336C598.979,246.12 598.913,245.946 598.781,245.814C598.661,245.67 598.445,245.55 598.133,245.454L596.639,245.022C595.895,244.806 595.325,244.494 594.929,244.086C594.545,243.666 594.353,243.12 594.353,242.448C594.353,241.992 594.443,241.596 594.623,241.26C594.803,240.912 595.049,240.624 595.361,240.396C595.685,240.156 596.069,239.976 596.513,239.856C596.957,239.736 597.443,239.676 597.971,239.676C598.619,239.676 599.249,239.766 599.861,239.946C600.473,240.114 600.989,240.354 601.409,240.666L600.599,242.286C599.855,241.842 599.075,241.62 598.259,241.62ZM605.467,245.004C605.563,245.796 605.827,246.372 606.259,246.732C606.703,247.08 607.315,247.254 608.095,247.254C608.515,247.254 608.917,247.2 609.301,247.092C609.685,246.984 610.027,246.828 610.327,246.624L611.191,248.136C610.339,248.868 609.217,249.234 607.825,249.234C606.997,249.234 606.277,249.114 605.665,248.874C605.065,248.622 604.561,248.28 604.153,247.848C603.757,247.416 603.463,246.906 603.271,246.318C603.079,245.73 602.983,245.1 602.983,244.428C602.983,243.648 603.103,242.964 603.343,242.376C603.583,241.776 603.907,241.278 604.315,240.882C604.735,240.486 605.221,240.186 605.773,239.982C606.337,239.778 606.931,239.676 607.555,239.676C608.191,239.676 608.755,239.778 609.247,239.982C609.739,240.174 610.147,240.45 610.471,240.81C610.807,241.17 611.059,241.602 611.227,242.106C611.407,242.598 611.497,243.15 611.497,243.762C611.497,243.966 611.485,244.182 611.461,244.41C611.449,244.626 611.419,244.824 611.371,245.004L605.467,245.004ZM607.555,241.548C606.979,241.548 606.511,241.722 606.151,242.07C605.791,242.418 605.581,242.898 605.521,243.51L609.193,243.51L609.193,243.276C609.193,242.724 609.043,242.298 608.743,241.998C608.455,241.698 608.059,241.548 607.555,241.548ZM615.577,244.446C615.577,245.334 615.781,246.012 616.189,246.48C616.609,246.936 617.239,247.164 618.079,247.164C618.427,247.164 618.763,247.122 619.087,247.038C619.423,246.942 619.711,246.81 619.951,246.642L620.707,248.388C620.359,248.64 619.939,248.844 619.447,249C618.955,249.156 618.385,249.234 617.737,249.234C616.993,249.234 616.327,249.126 615.739,248.91C615.151,248.682 614.653,248.364 614.245,247.956C613.837,247.548 613.519,247.05 613.291,246.462C613.075,245.874 612.967,245.208 612.967,244.464C612.967,243.72 613.081,243.054 613.309,242.466C613.537,241.878 613.855,241.38 614.263,240.972C614.683,240.552 615.187,240.234 615.775,240.018C616.375,239.79 617.047,239.676 617.791,239.676C618.391,239.676 618.925,239.748 619.393,239.892C619.861,240.036 620.269,240.228 620.617,240.468L619.843,242.214C619.615,242.058 619.351,241.944 619.051,241.872C618.751,241.788 618.433,241.746 618.097,241.746C617.329,241.746 616.717,241.968 616.261,242.412C615.805,242.844 615.577,243.522 615.577,244.446ZM631.011,244.446C631.011,245.202 630.897,245.88 630.669,246.48C630.453,247.068 630.141,247.566 629.733,247.974C629.325,248.382 628.833,248.694 628.257,248.91C627.681,249.126 627.039,249.234 626.331,249.234C625.623,249.234 624.981,249.126 624.405,248.91C623.829,248.694 623.337,248.382 622.929,247.974C622.521,247.566 622.203,247.068 621.975,246.48C621.759,245.88 621.651,245.202 621.651,244.446C621.651,243.69 621.759,243.018 621.975,242.43C622.203,241.842 622.521,241.344 622.929,240.936C623.337,240.528 623.829,240.216 624.405,240C624.981,239.784 625.623,239.676 626.331,239.676C627.039,239.676 627.681,239.784 628.257,240C628.833,240.216 629.325,240.528 629.733,240.936C630.141,241.344 630.453,241.842 630.669,242.43C630.897,243.018 631.011,243.69 631.011,244.446ZM628.401,244.446C628.401,243.522 628.221,242.826 627.861,242.358C627.513,241.89 627.003,241.656 626.331,241.656C625.659,241.656 625.143,241.89 624.783,242.358C624.435,242.826 624.261,243.522 624.261,244.446C624.261,245.382 624.435,246.084 624.783,246.552C625.143,247.02 625.659,247.254 626.331,247.254C627.003,247.254 627.513,247.02 627.861,246.552C628.221,246.084 628.401,245.382 628.401,244.446ZM633.018,239.91L634.476,239.91C635.088,239.91 635.394,240.174 635.394,240.702L635.394,241.368C635.634,240.852 636.012,240.444 636.528,240.144C637.044,239.832 637.662,239.676 638.382,239.676C639.354,239.676 640.104,239.958 640.632,240.522C641.172,241.086 641.442,241.932 641.442,243.06L641.442,249L638.886,249L638.886,243.24C638.886,242.184 638.418,241.656 637.482,241.656C636.894,241.656 636.426,241.866 636.078,242.286C635.742,242.706 635.574,243.288 635.574,244.032L635.574,249L633.018,249L633.018,239.91ZM652.592,249L651.116,249C650.504,249 650.198,248.73 650.198,248.19L650.198,247.596C649.958,248.1 649.586,248.502 649.082,248.802C648.59,249.09 647.996,249.234 647.3,249.234C646.7,249.234 646.16,249.12 645.68,248.892C645.2,248.664 644.792,248.346 644.456,247.938C644.132,247.518 643.88,247.014 643.7,246.426C643.52,245.838 643.43,245.178 643.43,244.446C643.43,243.69 643.526,243.018 643.718,242.43C643.91,241.83 644.18,241.332 644.528,240.936C644.876,240.528 645.29,240.216 645.77,240C646.262,239.784 646.808,239.676 647.408,239.676C647.984,239.676 648.5,239.79 648.956,240.018C649.412,240.246 649.772,240.57 650.036,240.99L650.036,236.094L652.592,236.094L652.592,249ZM650.108,244.464C650.108,243.588 649.934,242.904 649.586,242.412C649.25,241.908 648.752,241.656 648.092,241.656C647.444,241.656 646.94,241.902 646.58,242.394C646.22,242.886 646.04,243.576 646.04,244.464C646.04,245.364 646.208,246.054 646.544,246.534C646.88,247.014 647.378,247.254 648.038,247.254C648.686,247.254 649.19,247.008 649.55,246.516C649.922,246.012 650.108,245.328 650.108,244.464ZM658.588,241.62C658.168,241.62 657.838,241.692 657.598,241.836C657.358,241.968 657.238,242.172 657.238,242.448C657.238,242.676 657.31,242.856 657.454,242.988C657.598,243.108 657.79,243.204 658.03,243.276L659.398,243.69C660.238,243.942 660.856,244.272 661.252,244.68C661.66,245.076 661.864,245.616 661.864,246.3C661.864,247.212 661.522,247.932 660.838,248.46C660.166,248.976 659.242,249.234 658.066,249.234C657.322,249.234 656.638,249.132 656.014,248.928C655.39,248.712 654.838,248.412 654.358,248.028L655.312,246.408C655.708,246.684 656.134,246.9 656.59,247.056C657.058,247.212 657.514,247.29 657.958,247.29C658.378,247.29 658.708,247.212 658.948,247.056C659.188,246.9 659.308,246.66 659.308,246.336C659.308,246.12 659.242,245.946 659.11,245.814C658.99,245.67 658.774,245.55 658.462,245.454L656.968,245.022C656.224,244.806 655.654,244.494 655.258,244.086C654.874,243.666 654.682,243.12 654.682,242.448C654.682,241.992 654.772,241.596 654.952,241.26C655.132,240.912 655.378,240.624 655.69,240.396C656.014,240.156 656.398,239.976 656.842,239.856C657.286,239.736 657.772,239.676 658.3,239.676C658.948,239.676 659.578,239.766 660.19,239.946C660.802,240.114 661.318,240.354 661.738,240.666L660.928,242.286C660.184,241.842 659.404,241.62 658.588,241.62Z" style="fill:rgb(0,104,181);fill-rule:nonzero;"/>
            </g>
            <g transform="matrix(2.04288,0,0,1,-707.076,0)">
                <path d="M678,231L416,231" style="fill:none;fill-rule:nonzero;stroke:rgb(0,104,181);stroke-width:2px;"/>
            </g>
            <g transform="matrix(2.04288,0,0,1,-707.076,0)">
                <path d="M419.5,89.028C421.958,89.028 423.951,87.006 423.951,84.512C423.951,82.018 421.958,79.997 419.5,79.997C417.041,79.997 415.048,82.018 415.048,84.512C415.048,87.006 417.041,89.028 419.5,89.028Z" style="fill:rgb(0,40,90);fill-rule:nonzero;"/>
            </g>
            <g transform="matrix(2.04288,0,0,1,-707.076,0)">
                <path d="M442.986,59.148C442.37,57.455 440.496,56.581 438.804,57.197L396.148,72.723C394.455,73.339 393.581,75.213 394.197,76.906L405.917,109.106C406.273,110.084 407.049,110.789 407.967,111.091C408.252,111.596 408.665,112.012 409.154,112.301C409.471,113.771 410.78,114.875 412.345,114.875L457.738,114.875C459.539,114.875 461.001,113.412 461.001,111.611L461.001,77.344C461.001,75.543 459.539,74.081 457.738,74.081L453.976,74.081L452.779,67.295C452.467,65.521 450.772,64.335 448.999,64.648L445.23,65.312L442.986,59.148ZM442.734,65.752L440.641,60.002C440.496,59.604 440.055,59.398 439.657,59.543L397.002,75.069C396.604,75.213 396.398,75.654 396.543,76.052L406.353,102.996L401.648,76.311C401.335,74.537 402.521,72.843 404.295,72.53L442.734,65.752ZM409.081,104.075L409.081,77.344C409.081,75.543 410.544,74.081 412.345,74.081L451.441,74.081L450.321,67.728C450.248,67.311 449.849,67.033 449.432,67.106L404.729,74.988C404.312,75.062 404.033,75.46 404.106,75.877L409.081,104.075ZM458.505,101.564L458.505,77.344C458.505,76.921 458.161,76.577 457.738,76.577L412.345,76.577C411.921,76.577 411.578,76.921 411.578,77.344L411.578,104.47L423.913,94.668L435.961,103.337L447.466,85.609L458.505,101.564Z" style="fill:rgb(0,40,90);"/>
            </g>
        </g>
    </g>
</svg>
