<svg width="2993" height="1540" xmlns="http://www.w3.org/2000/svg" xmlns:xlink="http://www.w3.org/1999/xlink" overflow="hidden"><defs><clipPath id="clip0"><rect x="325" y="490" width="2993" height="1540"/></clipPath></defs><g clip-path="url(#clip0)" transform="translate(-325 -490)"><rect x="342.5" y="1514.5" width="2973" height="437" stroke="#E9E9E9" stroke-width="4.58333" stroke-linecap="butt" stroke-linejoin="miter" stroke-miterlimit="4" stroke-opacity="1" fill="#E9E9E9" fill-opacity="1"/><text fill="#000000" fill-opacity="1" font-family="Intel Clear,Intel Clear_MSFontService,sans-serif" font-style="normal" font-variant="normal" font-weight="400" font-stretch="normal" font-size="55" text-anchor="start" direction="ltr" writing-mode="lr-tb" unicode-bidi="normal" text-decoration="none" transform="matrix(1 0 0 1 360.556 1585)">Dequantization</text><rect x="342.5" y="575.5" width="2973" height="903" stroke="#E9E9E9" stroke-width="4.58333" stroke-linecap="butt" stroke-linejoin="miter" stroke-miterlimit="4" stroke-opacity="1" fill="#E9E9E9" fill-opacity="1"/><text fill="#000000" fill-opacity="1" font-family="Intel Clear,Intel Clear_MSFontService,sans-serif" font-style="normal" font-variant="normal" font-weight="400" font-stretch="normal" font-size="55" text-anchor="start" direction="ltr" writing-mode="lr-tb" unicode-bidi="normal" text-decoration="none" transform="matrix(1 0 0 1 360.556 649)">INT8 Convolution with zero point</text><path d="M1611.08 493.5 1611.08 806.009 1601.92 806.009 1601.92 493.5ZM1606.5 806.009 1620.25 796.842 1606.5 824.342 1592.75 796.842Z" fill="#808080" fill-rule="nonzero" fill-opacity="1"/><path d="M1361.5 847.667C1361.5 834.872 1371.87 824.5 1384.67 824.5L1827.33 824.5C1840.13 824.5 1850.5 834.872 1850.5 847.667L1850.5 940.333C1850.5 953.128 1840.13 963.5 1827.33 963.5L1384.67 963.5C1371.87 963.5 1361.5 953.128 1361.5 940.333Z" stroke="#515A3D" stroke-width="4.58333" stroke-linecap="butt" stroke-linejoin="miter" stroke-miterlimit="4" stroke-opacity="1" fill="#D7F3A2" fill-rule="evenodd" fill-opacity="1"/><text fill="#000000" fill-opacity="1" font-family="Intel Clear,Intel Clear_MSFontService,sans-serif" font-style="normal" font-variant="normal" font-weight="400" font-stretch="normal" font-size="37" text-anchor="start" direction="ltr" writing-mode="lr-tb" unicode-bidi="normal" text-decoration="none" transform="matrix(1 0 0 1 1535.13 884)">Subtract<tspan fill="#000000" fill-opacity="1" font-family="Intel Clear,Intel Clear_MSFontService,sans-serif" font-style="normal" font-variant="normal" font-weight="400" font-stretch="normal" font-size="37" text-anchor="start" direction="ltr" writing-mode="lr-tb" unicode-bidi="normal" text-decoration="none" x="-102.277" y="44">{f32} {1, 3, 299, 299}</tspan></text><path d="M1361.5 1791.67C1361.5 1778.87 1371.87 1768.5 1384.67 1768.5L1827.33 1768.5C1840.13 1768.5 1850.5 1778.87 1850.5 1791.67L1850.5 1884.33C1850.5 1897.13 1840.13 1907.5 1827.33 1907.5L1384.67 1907.5C1371.87 1907.5 1361.5 1897.13 1361.5 1884.33Z" stroke="#0068B5" stroke-width="4.58333" stroke-linecap="butt" stroke-linejoin="miter" stroke-miterlimit="4" stroke-opacity="1" fill="#B9D6E5" fill-rule="evenodd" fill-opacity="1"/><text fill="#000000" fill-opacity="1" font-family="Intel Clear,Intel Clear_MSFontService,sans-serif" font-style="normal" font-variant="normal" font-weight="400" font-stretch="normal" font-size="37" text-anchor="start" direction="ltr" writing-mode="lr-tb" unicode-bidi="normal" text-decoration="none" transform="matrix(1 0 0 1 1538 1828)">Multiply<tspan fill="#000000" fill-opacity="1" font-family="Intel Clear,Intel Clear_MSFontService,sans-serif" font-style="normal" font-variant="normal" font-weight="400" font-stretch="normal" font-size="37" text-anchor="start" direction="ltr" writing-mode="lr-tb" unicode-bidi="normal" text-decoration="none" x="-105.142" y="44">{f32} {1, 6, 299, 299}</tspan></text><path d="M1361.5 1291.67C1361.5 1278.87 1371.87 1268.5 1384.67 1268.5L1827.33 1268.5C1840.13 1268.5 1850.5 1278.87 1850.5 1291.67L1850.5 1384.33C1850.5 1397.13 1840.13 1407.5 1827.33 1407.5L1384.67 1407.5C1371.87 1407.5 1361.5 1397.13 1361.5 1384.33Z" stroke="#515A3D" stroke-width="4.58333" stroke-linecap="butt" stroke-linejoin="miter" stroke-miterlimit="4" stroke-opacity="1" fill="#D7F3A2" fill-rule="evenodd" fill-opacity="1"/><text fill="#000000" fill-opacity="1" font-family="Intel Clear,Intel Clear_MSFontService,sans-serif" font-style="normal" font-variant="normal" font-weight="400" font-stretch="normal" font-size="37" text-anchor="start" direction="ltr" writing-mode="lr-tb" unicode-bidi="normal" text-decoration="none" transform="matrix(1 0 0 1 1503.62 1328)">Convolution<tspan fill="#000000" fill-opacity="1" font-family="Intel Clear,Intel Clear_MSFontService,sans-serif" font-style="normal" font-variant="normal" font-weight="400" font-stretch="normal" font-size="37" text-anchor="start" direction="ltr" writing-mode="lr-tb" unicode-bidi="normal" text-decoration="none" x="-70.7666" y="44">{f32} {1, 6, 299, 299}</tspan></text><path d="M1611.08 963.5 1611.08 1249.8 1601.92 1249.8 1601.92 963.5ZM1606.5 1249.8 1620.25 1240.64 1606.5 1268.14 1592.75 1240.64Z" fill="#808080" fill-rule="nonzero" fill-opacity="1"/><path d="M1611.08 1407.5 1611.08 1750.14 1601.92 1750.14 1601.92 1407.5ZM1606.5 1750.14 1620.25 1740.97 1606.5 1768.47 1592.75 1740.97Z" fill="#808080" fill-rule="nonzero" fill-opacity="1"/><path d="M0.67297-4.53366 539.542 75.4553 538.196 84.5226-0.67297 4.53366ZM538.868 79.9889 531.82 65.042 557.003 82.6808 527.782 92.244Z" fill="#808080" fill-rule="nonzero" fill-opacity="1" transform="matrix(-1 0 0 1 2163.5 1185.5)"/><path d="M0.932594-4.48745 349.579 67.9692 347.714 76.9441-0.932594 4.48745ZM348.646 72.4565 342.469 57.129 366.596 76.1869 336.873 84.0537Z" fill="#808080" fill-rule="nonzero" fill-opacity="1" transform="matrix(-1 0 0 1 1973.1 748.5)"/><path d="M0.524738-4.5532 576.717 61.8507 575.668 70.9571-0.524738 4.5532ZM576.195 66.4042 568.663 51.6951 594.408 68.5032 565.514 79.0143Z" fill="#808080" fill-rule="nonzero" fill-opacity="1" transform="matrix(-1 0 0 1 2200.91 1700.5)"/><path d="M1918.5 848.667C1918.5 835.872 1928.87 825.5 1941.67 825.5L2384.33 825.5C2397.13 825.5 2407.5 835.872 2407.5 848.667L2407.5 941.333C2407.5 954.128 2397.13 964.5 2384.33 964.5L1941.67 964.5C1928.87 964.5 1918.5 954.128 1918.5 941.333Z" stroke="#515A3D" stroke-width="4.58333" stroke-linecap="butt" stroke-linejoin="miter" stroke-miterlimit="4" stroke-opacity="1" fill="#D7F3A2" fill-rule="evenodd" fill-opacity="1"/><text fill="#000000" fill-opacity="1" font-family="Intel Clear,Intel Clear_MSFontService,sans-serif" font-style="normal" font-variant="normal" font-weight="400" font-stretch="normal" font-size="37" text-anchor="start" direction="ltr" writing-mode="lr-tb" unicode-bidi="normal" text-decoration="none" transform="matrix(1 0 0 1 2087.82 885)">Constant<tspan fill="#000000" fill-opacity="1" font-family="Intel Clear,Intel Clear_MSFontService,sans-serif" font-style="normal" font-variant="normal" font-weight="400" font-stretch="normal" font-size="37" text-anchor="start" direction="ltr" writing-mode="lr-tb" unicode-bidi="normal" text-decoration="none" x="-42.0979" y="44">{i8} {6, 3, 1, 1}</tspan></text><path d="M1728.5 632.667C1728.5 619.872 1738.87 609.5 1751.67 609.5L2193.33 609.5C2206.13 609.5 2216.5 619.872 2216.5 632.667L2216.5 725.333C2216.5 738.127 2206.13 748.5 2193.33 748.5L1751.67 748.5C1738.87 748.5 1728.5 738.127 1728.5 725.333Z" stroke="#515A3D" stroke-width="4.58333" stroke-linecap="butt" stroke-linejoin="miter" stroke-miterlimit="4" stroke-opacity="1" fill="#D7F3A2" fill-rule="evenodd" fill-opacity="1"/><text fill="#000000" fill-opacity="1" font-family="Intel Clear,Intel Clear_MSFontService,sans-serif" font-style="normal" font-variant="normal" font-weight="400" font-stretch="normal" font-size="37" text-anchor="start" direction="ltr" writing-mode="lr-tb" unicode-bidi="normal" text-decoration="none" transform="matrix(1 0 0 1 1897.42 668)">Constant<tspan fill="#000000" fill-opacity="1" font-family="Intel Clear,Intel Clear_MSFontService,sans-serif" font-style="normal" font-variant="normal" font-weight="400" font-stretch="normal" font-size="37" text-anchor="start" direction="ltr" writing-mode="lr-tb" unicode-bidi="normal" text-decoration="none" x="21.1979" y="44">{u8} {}</tspan></text><path d="M1956.5 1583.83C1956.5 1570.95 1966.95 1560.5 1979.83 1560.5L2421.17 1560.5C2434.05 1560.5 2444.5 1570.95 2444.5 1583.83L2444.5 1677.17C2444.5 1690.05 2434.05 1700.5 2421.17 1700.5L1979.83 1700.5C1966.95 1700.5 1956.5 1690.05 1956.5 1677.17Z" stroke="#0068B5" stroke-width="4.58333" stroke-linecap="butt" stroke-linejoin="miter" stroke-miterlimit="4" stroke-opacity="1" fill="#B9D6E5" fill-rule="evenodd" fill-opacity="1"/><text fill="#000000" fill-opacity="1" font-family="Intel Clear,Intel Clear_MSFontService,sans-serif" font-style="normal" font-variant="normal" font-weight="400" font-stretch="normal" font-size="37" text-anchor="start" direction="ltr" writing-mode="lr-tb" unicode-bidi="normal" text-decoration="none" transform="matrix(1 0 0 1 2125.23 1620)">Constant<tspan fill="#000000" fill-opacity="1" font-family="Intel Clear,Intel Clear_MSFontService,sans-serif" font-style="normal" font-variant="normal" font-weight="400" font-stretch="normal" font-size="37" text-anchor="start" direction="ltr" writing-mode="lr-tb" unicode-bidi="normal" text-decoration="none" x="-54.4273" y="44">{f32} {1, 6, 1, 1}</tspan></text><path d="M1611.08 1907.5 1611.08 1982.19 1601.92 1982.19 1601.92 1907.5ZM1606.5 1982.19 1620.25 1973.03 1606.5 2000.53 1592.75 1973.03Z" fill="#808080" fill-rule="nonzero" fill-opacity="1"/><path d="M1918.5 1069.67C1918.5 1056.87 1928.87 1046.5 1941.67 1046.5L2384.33 1046.5C2397.13 1046.5 2407.5 1056.87 2407.5 1069.67L2407.5 1162.33C2407.5 1175.13 2397.13 1185.5 2384.33 1185.5L1941.67 1185.5C1928.87 1185.5 1918.5 1175.13 1918.5 1162.33Z" stroke="#515A3D" stroke-width="4.58333" stroke-linecap="butt" stroke-linejoin="miter" stroke-miterlimit="4" stroke-opacity="1" fill="#D7F3A2" fill-rule="evenodd" fill-opacity="1"/><text fill="#000000" fill-opacity="1" font-family="Intel Clear,Intel Clear_MSFontService,sans-serif" font-style="normal" font-variant="normal" font-weight="400" font-stretch="normal" font-size="37" text-anchor="start" direction="ltr" writing-mode="lr-tb" unicode-bidi="normal" text-decoration="none" transform="matrix(1 0 0 1 2092.14 1106)">Subtract<tspan fill="#000000" fill-opacity="1" font-family="Intel Clear,Intel Clear_MSFontService,sans-serif" font-style="normal" font-variant="normal" font-weight="400" font-stretch="normal" font-size="37" text-anchor="start" direction="ltr" writing-mode="lr-tb" unicode-bidi="normal" text-decoration="none" x="-102.277" y="44">{f32} {1, 3, 299, 299}</tspan></text><path d="M0.708498-4.52824 511.033 75.3183 509.616 84.3747-0.708498 4.52824ZM510.324 79.8465 503.393 64.8447 528.437 82.6804 499.142 92.0142Z" fill="#808080" fill-rule="nonzero" fill-opacity="1" transform="matrix(-1 0 0 1 2691.94 963.5)"/><path d="M2447.5 847.667C2447.5 834.872 2457.87 824.5 2470.67 824.5L2912.33 824.5C2925.13 824.5 2935.5 834.872 2935.5 847.667L2935.5 940.333C2935.5 953.128 2925.13 963.5 2912.33 963.5L2470.67 963.5C2457.87 963.5 2447.5 953.128 2447.5 940.333Z" stroke="#515A3D" stroke-width="4.58333" stroke-linecap="butt" stroke-linejoin="miter" stroke-miterlimit="4" stroke-opacity="1" fill="#D7F3A2" fill-rule="evenodd" fill-opacity="1"/><text fill="#000000" fill-opacity="1" font-family="Intel Clear,Intel Clear_MSFontService,sans-serif" font-style="normal" font-variant="normal" font-weight="400" font-stretch="normal" font-size="37" text-anchor="start" direction="ltr" writing-mode="lr-tb" unicode-bidi="normal" text-decoration="none" transform="matrix(1 0 0 1 2616.26 884)">Constant<tspan fill="#000000" fill-opacity="1" font-family="Intel Clear,Intel Clear_MSFontService,sans-serif" font-style="normal" font-variant="normal" font-weight="400" font-stretch="normal" font-size="37" text-anchor="start" direction="ltr" writing-mode="lr-tb" unicode-bidi="normal" text-decoration="none" x="-42.0979" y="44">{i8} {6, 1, 1, 1}</tspan></text><path d="M2168.08 964.5 2168.08 1027.87 2158.92 1027.87 2158.92 964.5ZM2163.5 1027.87 2177.25 1018.71 2163.5 1046.21 2149.75 1018.71Z" fill="#808080" fill-rule="nonzero" fill-opacity="1"/><path d="M2229.5 665.5 2376.5 518.5 2376.5 592 2646.5 592 2646.5 739 2376.5 739 2376.5 812.5Z" stroke="#AEAEAE" stroke-width="4.58333" stroke-linecap="butt" stroke-linejoin="miter" stroke-miterlimit="4" stroke-opacity="1" fill="#E9E9E9" fill-rule="evenodd" fill-opacity="1"/><text fill="#808080" fill-opacity="1" font-family="Intel Clear,Intel Clear_MSFontService,sans-serif" font-style="normal" font-variant="normal" font-weight="400" font-stretch="normal" font-size="46" text-anchor="start" direction="ltr" writing-mode="lr-tb" unicode-bidi="normal" text-decoration="none" transform="matrix(1 0 0 1 2365.74 652)">Z<tspan fill="#808080" fill-opacity="1" font-family="Intel Clear,Intel Clear_MSFontService,sans-serif" font-style="normal" font-variant="normal" font-weight="400" font-stretch="normal" font-size="46" text-anchor="start" direction="ltr" writing-mode="lr-tb" unicode-bidi="normal" text-decoration="none" x="27.5" y="0">ero point </tspan><tspan fill="#808080" fill-opacity="1" font-family="Intel Clear,Intel Clear_MSFontService,sans-serif" font-style="normal" font-variant="normal" font-weight="400" font-stretch="normal" font-size="46" text-anchor="start" direction="ltr" writing-mode="lr-tb" unicode-bidi="normal" text-decoration="none" x="-36.3687" y="55">on activations</tspan></text><path d="M2943.5 901.5 3090.5 754.5 3090.5 828 3302.5 828 3302.5 975 3090.5 975 3090.5 1048.5Z" stroke="#AEAEAE" stroke-width="4.58333" stroke-linecap="butt" stroke-linejoin="miter" stroke-miterlimit="4" stroke-opacity="1" fill="#E9E9E9" fill-rule="evenodd" fill-opacity="1"/><text fill="#808080" fill-opacity="1" font-family="Intel Clear,Intel Clear_MSFontService,sans-serif" font-style="normal" font-variant="normal" font-weight="400" font-stretch="normal" font-size="46" text-anchor="start" direction="ltr" writing-mode="lr-tb" unicode-bidi="normal" text-decoration="none" transform="matrix(1 0 0 1 3051.19 888)">Z<tspan fill="#808080" fill-opacity="1" font-family="Intel Clear,Intel Clear_MSFontService,sans-serif" font-style="normal" font-variant="normal" font-weight="400" font-stretch="normal" font-size="46" text-anchor="start" direction="ltr" writing-mode="lr-tb" unicode-bidi="normal" text-decoration="none" x="27.5" y="0">ero point </tspan><tspan fill="#808080" fill-opacity="1" font-family="Intel Clear,Intel Clear_MSFontService,sans-serif" font-style="normal" font-variant="normal" font-weight="400" font-stretch="normal" font-size="46" text-anchor="start" direction="ltr" writing-mode="lr-tb" unicode-bidi="normal" text-decoration="none" x="-4.01025" y="55">on weights</tspan></text></g></svg>