<svg width="3690" height="1893" xmlns="http://www.w3.org/2000/svg" xmlns:xlink="http://www.w3.org/1999/xlink" overflow="hidden"><defs><clipPath id="clip0"><rect x="187" y="467" width="3690" height="1893"/></clipPath><linearGradient x1="1398.5" y1="686.5" x2="1398.5" y2="547.5" gradientUnits="userSpaceOnUse" spreadMethod="reflect" id="fill1"><stop offset="0" stop-color="#B9D6E5" stop-opacity="1"/><stop offset="0.6" stop-color="#D7F3A2" stop-opacity="1"/><stop offset="1" stop-color="#D7F3A2" stop-opacity="1"/></linearGradient></defs><g clip-path="url(#clip0)" transform="translate(-187 -467)"><rect x="206.5" y="1168.5" width="3666" height="1104" stroke="#E9E9E9" stroke-width="4.58333" stroke-linecap="butt" stroke-linejoin="miter" stroke-miterlimit="4" stroke-opacity="1" fill="#E9E9E9" fill-opacity="1"/><text fill="#000000" fill-opacity="1" font-family="Intel Clear,Intel Clear_MSFontService,sans-serif" font-style="normal" font-variant="normal" font-weight="400" font-stretch="normal" font-size="55" text-anchor="start" direction="ltr" writing-mode="lr-tb" unicode-bidi="normal" text-decoration="none" transform="matrix(1 0 0 1 224.14 1243)">FP32 <tspan fill="#000000" fill-opacity="1" font-family="Intel Clear,Intel Clear_MSFontService,sans-serif" font-style="normal" font-variant="normal" font-weight="400" font-stretch="normal" font-size="55" text-anchor="start" direction="ltr" writing-mode="lr-tb" unicode-bidi="normal" text-decoration="none" x="142.083" y="0">Convolution with quantized weights</tspan></text><rect x="1781.5" y="1203.5" width="2049" height="237" stroke="#AEAEAE" stroke-width="4.58333" stroke-linecap="butt" stroke-linejoin="miter" stroke-miterlimit="4" stroke-opacity="1" fill="#E9E9E9" fill-opacity="1"/><text fill="#000000" fill-opacity="1" font-family="Intel Clear,Intel Clear_MSFontService,sans-serif" font-style="normal" font-variant="normal" font-weight="400" font-stretch="normal" font-size="55" text-anchor="start" direction="ltr" writing-mode="lr-tb" unicode-bidi="normal" text-decoration="none" transform="matrix(1 0 0 1 2748.85 1274)">Not quantized weights in original precision</text><path d="M1154.5 2110.67C1154.5 2097.87 1164.87 2087.5 1177.67 2087.5L1619.33 2087.5C1632.13 2087.5 1642.5 2097.87 1642.5 2110.67L1642.5 2203.33C1642.5 2216.13 1632.13 2226.5 1619.33 2226.5L1177.67 2226.5C1164.87 2226.5 1154.5 2216.13 1154.5 2203.33Z" stroke="#0068B5" stroke-width="4.58333" stroke-linecap="butt" stroke-linejoin="miter" stroke-miterlimit="4" stroke-opacity="1" fill="#B9D6E5" fill-rule="evenodd" fill-opacity="1"/><text fill="#000000" fill-opacity="1" font-family="Intel Clear,Intel Clear_MSFontService,sans-serif" font-style="normal" font-variant="normal" font-weight="400" font-stretch="normal" font-size="37" text-anchor="start" direction="ltr" writing-mode="lr-tb" unicode-bidi="normal" text-decoration="none" transform="matrix(1 0 0 1 1295.73 2146)">Convolution<tspan fill="#000000" fill-opacity="1" font-family="Intel Clear,Intel Clear_MSFontService,sans-serif" font-style="normal" font-variant="normal" font-weight="400" font-stretch="normal" font-size="37" text-anchor="start" direction="ltr" writing-mode="lr-tb" unicode-bidi="normal" text-decoration="none" x="-70.7666" y="44">{f32} {1, 6, 299, 299}</tspan></text><path d="M0.555839-4.5495 640.283 73.6096 639.171 82.7086-0.555839 4.5495ZM639.728 78.1593 632.297 63.3991 657.926 80.3826 628.962 90.6961Z" fill="#808080" fill-rule="nonzero" fill-opacity="1" transform="matrix(-1 0 0 1 2056.43 2006.5)"/><path d="M1403.08 2226.5 1403.08 2311.32 1393.92 2311.32 1393.92 2226.5ZM1398.5 2311.32 1412.25 2302.15 1398.5 2329.65 1384.75 2302.15Z" fill="#808080" fill-rule="nonzero" fill-opacity="1"/><path d="M4.58333-1.13431e-05 4.58437 419.136-4.5823 419.136-4.58333 1.13431e-05ZM0.0010373 419.136 13.751 409.97 0.00108268 437.47-13.749 409.97Z" fill="#808080" fill-rule="nonzero" fill-opacity="1" transform="matrix(-1 0 0 1 2056.5 1380.5)"/><path d="M1811.5 1849.83C1811.5 1832.53 1825.53 1818.5 1842.83 1818.5L2269.17 1818.5C2286.47 1818.5 2300.5 1832.53 2300.5 1849.83L2300.5 1975.17C2300.5 1992.47 2286.47 2006.5 2269.17 2006.5L1842.83 2006.5C1825.53 2006.5 1811.5 1992.47 1811.5 1975.17Z" stroke="#0068B5" stroke-width="4.58333" stroke-linecap="butt" stroke-linejoin="miter" stroke-miterlimit="4" stroke-opacity="1" fill="#B9D6E5" fill-rule="evenodd" fill-opacity="1"/><text fill="#000000" fill-opacity="1" font-family="Intel Clear,Intel Clear_MSFontService,sans-serif" font-style="normal" font-variant="normal" font-weight="400" font-stretch="normal" font-size="37" text-anchor="start" direction="ltr" writing-mode="lr-tb" unicode-bidi="normal" text-decoration="none" transform="matrix(1 0 0 1 1942.2 1880)">FakeQuantize<tspan fill="#000000" fill-opacity="1" font-family="Intel Clear,Intel Clear_MSFontService,sans-serif" font-style="normal" font-variant="normal" font-weight="400" font-stretch="normal" font-size="37" text-anchor="start" direction="ltr" writing-mode="lr-tb" unicode-bidi="normal" text-decoration="none" x="24.3375" y="44">levels: 255</tspan><tspan fill="#000000" fill-opacity="1" font-family="Intel Clear,Intel Clear_MSFontService,sans-serif" font-style="normal" font-variant="normal" font-weight="400" font-stretch="normal" font-size="37" text-anchor="start" direction="ltr" writing-mode="lr-tb" unicode-bidi="normal" text-decoration="none" x="-59.3084" y="88">{f32} {6, 3, 299, 299}</tspan></text><path d="M1.50509-4.32916 429.503 144.47 426.493 153.128-1.50509 4.32916ZM427.998 148.799 423.855 132.802 445.315 154.82 414.825 158.777Z" fill="#808080" fill-rule="nonzero" fill-opacity="1" transform="matrix(-1 0 0 1 2501.81 1663.5)"/><path d="M0.84228-4.50528 810.94 146.946 809.255 155.956-0.84228 4.50528ZM810.094 151.45 803.61 136.25 828.115 154.82 798.556 163.282Z" fill="#808080" fill-rule="nonzero" fill-opacity="1" transform="matrix(-1 0 0 1 2884.61 1663.5)"/><path d="M0.581263-4.54633 1193.31 147.949 1192.15 157.041-0.581263 4.54633ZM1192.73 152.495 1185.38 137.693 1210.91 154.82 1181.89 164.971Z" fill="#808080" fill-rule="nonzero" fill-opacity="1" transform="matrix(-1 0 0 1 3267.42 1663.5)"/><path d="M0.443156-4.56186 1575.91 148.485 1575.02 157.608-0.443156 4.56186ZM1575.47 153.047 1567.67 138.475 1593.71 154.82 1565.01 165.846Z" fill="#808080" fill-rule="nonzero" fill-opacity="1" transform="matrix(-1 0 0 1 3650.22 1663.5)"/><path d="M1811.5 1264.67C1811.5 1251.87 1821.87 1241.5 1834.67 1241.5L2277.33 1241.5C2290.13 1241.5 2300.5 1251.87 2300.5 1264.67L2300.5 1357.33C2300.5 1370.13 2290.13 1380.5 2277.33 1380.5L1834.67 1380.5C1821.87 1380.5 1811.5 1370.13 1811.5 1357.33Z" stroke="#515A3D" stroke-width="4.58333" stroke-linecap="butt" stroke-linejoin="miter" stroke-miterlimit="4" stroke-opacity="1" fill="#B9D6E5" fill-rule="evenodd" fill-opacity="1"/><text fill="#000000" fill-opacity="1" font-family="Intel Clear,Intel Clear_MSFontService,sans-serif" font-style="normal" font-variant="normal" font-weight="400" font-stretch="normal" font-size="37" text-anchor="start" direction="ltr" writing-mode="lr-tb" unicode-bidi="normal" text-decoration="none" transform="matrix(1 0 0 1 1980.86 1301)">Constant<tspan fill="#000000" fill-opacity="1" font-family="Intel Clear,Intel Clear_MSFontService,sans-serif" font-style="normal" font-variant="normal" font-weight="400" font-stretch="normal" font-size="37" text-anchor="start" direction="ltr" writing-mode="lr-tb" unicode-bidi="normal" text-decoration="none" x="-54.4271" y="44">{f3</tspan><tspan fill="#000000" fill-opacity="1" font-family="Intel Clear,Intel Clear_MSFontService,sans-serif" font-style="normal" font-variant="normal" font-weight="400" font-stretch="normal" font-size="37" text-anchor="start" direction="ltr" writing-mode="lr-tb" unicode-bidi="normal" text-decoration="none" x="-6.875" y="44">2</tspan><tspan fill="#000000" fill-opacity="1" font-family="Intel Clear,Intel Clear_MSFontService,sans-serif" font-style="normal" font-variant="normal" font-weight="400" font-stretch="normal" font-size="37" text-anchor="start" direction="ltr" writing-mode="lr-tb" unicode-bidi="normal" text-decoration="none" x="14.8958" y="44">} </tspan><tspan fill="#000000" fill-opacity="1" font-family="Intel Clear,Intel Clear_MSFontService,sans-serif" font-style="normal" font-variant="normal" font-weight="400" font-stretch="normal" font-size="37" text-anchor="start" direction="ltr" writing-mode="lr-tb" unicode-bidi="normal" text-decoration="none" x="37.8125" y="44">{6, 3, 1, 1}</tspan></text><path d="M2320.5 1506.83C2320.5 1489.53 2334.53 1475.5 2351.83 1475.5L2651.17 1475.5C2668.47 1475.5 2682.5 1489.53 2682.5 1506.83L2682.5 1632.17C2682.5 1649.47 2668.47 1663.5 2651.17 1663.5L2351.83 1663.5C2334.53 1663.5 2320.5 1649.47 2320.5 1632.17Z" stroke="#0068B5" stroke-width="4.58333" stroke-linecap="butt" stroke-linejoin="miter" stroke-miterlimit="4" stroke-opacity="1" fill="#B9D6E5" fill-rule="evenodd" fill-opacity="1"/><text fill="#000000" fill-opacity="1" font-family="Intel Clear,Intel Clear_MSFontService,sans-serif" font-style="normal" font-variant="normal" font-weight="400" font-stretch="normal" font-size="37" text-anchor="start" direction="ltr" writing-mode="lr-tb" unicode-bidi="normal" text-decoration="none" transform="matrix(1 0 0 1 2426.17 1537)">Constant<tspan fill="#000000" fill-opacity="1" font-family="Intel Clear,Intel Clear_MSFontService,sans-serif" font-style="normal" font-variant="normal" font-weight="400" font-stretch="normal" font-size="37" text-anchor="start" direction="ltr" writing-mode="lr-tb" unicode-bidi="normal" text-decoration="none" x="-54.4273" y="44">{f32} {1, 1, 1, 1}</tspan><tspan fill="#000000" fill-opacity="1" font-family="Intel Clear,Intel Clear_MSFontService,sans-serif" font-style="normal" font-variant="normal" font-weight="400" font-stretch="normal" font-size="37" text-anchor="start" direction="ltr" writing-mode="lr-tb" unicode-bidi="normal" text-decoration="none" x="-36.9417" y="88">Value: [</tspan><tspan fill="#000000" fill-opacity="1" font-family="Intel Clear,Intel Clear_MSFontService,sans-serif" font-style="normal" font-variant="normal" font-weight="400" font-stretch="normal" font-size="37" text-anchor="start" direction="ltr" writing-mode="lr-tb" unicode-bidi="normal" text-decoration="none" x="86.2354" y="88">-</tspan><tspan fill="#000000" fill-opacity="1" font-family="Intel Clear,Intel Clear_MSFontService,sans-serif" font-style="normal" font-variant="normal" font-weight="400" font-stretch="normal" font-size="37" text-anchor="start" direction="ltr" writing-mode="lr-tb" unicode-bidi="normal" text-decoration="none" x="100.558" y="88">12.8]</tspan></text><path d="M2703.5 1506.83C2703.5 1489.53 2717.53 1475.5 2734.83 1475.5L3033.17 1475.5C3050.47 1475.5 3064.5 1489.53 3064.5 1506.83L3064.5 1632.17C3064.5 1649.47 3050.47 1663.5 3033.17 1663.5L2734.83 1663.5C2717.53 1663.5 2703.5 1649.47 2703.5 1632.17Z" stroke="#0068B5" stroke-width="4.58333" stroke-linecap="butt" stroke-linejoin="miter" stroke-miterlimit="4" stroke-opacity="1" fill="#B9D6E5" fill-rule="evenodd" fill-opacity="1"/><text fill="#000000" fill-opacity="1" font-family="Intel Clear,Intel Clear_MSFontService,sans-serif" font-style="normal" font-variant="normal" font-weight="400" font-stretch="normal" font-size="37" text-anchor="start" direction="ltr" writing-mode="lr-tb" unicode-bidi="normal" text-decoration="none" transform="matrix(1 0 0 1 2808.97 1537)">Constant<tspan fill="#000000" fill-opacity="1" font-family="Intel Clear,Intel Clear_MSFontService,sans-serif" font-style="normal" font-variant="normal" font-weight="400" font-stretch="normal" font-size="37" text-anchor="start" direction="ltr" writing-mode="lr-tb" unicode-bidi="normal" text-decoration="none" x="-54.427" y="44">{f32} {1, 1, 1, 1}</tspan><tspan fill="#000000" fill-opacity="1" font-family="Intel Clear,Intel Clear_MSFontService,sans-serif" font-style="normal" font-variant="normal" font-weight="400" font-stretch="normal" font-size="37" text-anchor="start" direction="ltr" writing-mode="lr-tb" unicode-bidi="normal" text-decoration="none" x="-29.7915" y="88">Value: [12.7]</tspan></text><path d="M3086.5 1506.83C3086.5 1489.53 3100.53 1475.5 3117.83 1475.5L3416.17 1475.5C3433.47 1475.5 3447.5 1489.53 3447.5 1506.83L3447.5 1632.17C3447.5 1649.47 3433.47 1663.5 3416.17 1663.5L3117.83 1663.5C3100.53 1663.5 3086.5 1649.47 3086.5 1632.17Z" stroke="#0068B5" stroke-width="4.58333" stroke-linecap="butt" stroke-linejoin="miter" stroke-miterlimit="4" stroke-opacity="1" fill="#B9D6E5" fill-rule="evenodd" fill-opacity="1"/><text fill="#000000" fill-opacity="1" font-family="Intel Clear,Intel Clear_MSFontService,sans-serif" font-style="normal" font-variant="normal" font-weight="400" font-stretch="normal" font-size="37" text-anchor="start" direction="ltr" writing-mode="lr-tb" unicode-bidi="normal" text-decoration="none" transform="matrix(1 0 0 1 3191.77 1537)">Constant<tspan fill="#000000" fill-opacity="1" font-family="Intel Clear,Intel Clear_MSFontService,sans-serif" font-style="normal" font-variant="normal" font-weight="400" font-stretch="normal" font-size="37" text-anchor="start" direction="ltr" writing-mode="lr-tb" unicode-bidi="normal" text-decoration="none" x="-54.427" y="44">{f32} {1, 1, 1, 1}</tspan><tspan fill="#000000" fill-opacity="1" font-family="Intel Clear,Intel Clear_MSFontService,sans-serif" font-style="normal" font-variant="normal" font-weight="400" font-stretch="normal" font-size="37" text-anchor="start" direction="ltr" writing-mode="lr-tb" unicode-bidi="normal" text-decoration="none" x="-36.9417" y="88">Value: [</tspan><tspan fill="#000000" fill-opacity="1" font-family="Intel Clear,Intel Clear_MSFontService,sans-serif" font-style="normal" font-variant="normal" font-weight="400" font-stretch="normal" font-size="37" text-anchor="start" direction="ltr" writing-mode="lr-tb" unicode-bidi="normal" text-decoration="none" x="86.2354" y="88">-</tspan><tspan fill="#000000" fill-opacity="1" font-family="Intel Clear,Intel Clear_MSFontService,sans-serif" font-style="normal" font-variant="normal" font-weight="400" font-stretch="normal" font-size="37" text-anchor="start" direction="ltr" writing-mode="lr-tb" unicode-bidi="normal" text-decoration="none" x="100.558" y="88">12.8]</tspan></text><path d="M3469.5 1506.83C3469.5 1489.53 3483.53 1475.5 3500.83 1475.5L3799.17 1475.5C3816.47 1475.5 3830.5 1489.53 3830.5 1506.83L3830.5 1632.17C3830.5 1649.47 3816.47 1663.5 3799.17 1663.5L3500.83 1663.5C3483.53 1663.5 3469.5 1649.47 3469.5 1632.17Z" stroke="#0068B5" stroke-width="4.58333" stroke-linecap="butt" stroke-linejoin="miter" stroke-miterlimit="4" stroke-opacity="1" fill="#B9D6E5" fill-rule="evenodd" fill-opacity="1"/><text fill="#000000" fill-opacity="1" font-family="Intel Clear,Intel Clear_MSFontService,sans-serif" font-style="normal" font-variant="normal" font-weight="400" font-stretch="normal" font-size="37" text-anchor="start" direction="ltr" writing-mode="lr-tb" unicode-bidi="normal" text-decoration="none" transform="matrix(1 0 0 1 3574.57 1537)">Constant<tspan fill="#000000" fill-opacity="1" font-family="Intel Clear,Intel Clear_MSFontService,sans-serif" font-style="normal" font-variant="normal" font-weight="400" font-stretch="normal" font-size="37" text-anchor="start" direction="ltr" writing-mode="lr-tb" unicode-bidi="normal" text-decoration="none" x="-54.427" y="44">{f32} {1, 1, 1, 1}</tspan><tspan fill="#000000" fill-opacity="1" font-family="Intel Clear,Intel Clear_MSFontService,sans-serif" font-style="normal" font-variant="normal" font-weight="400" font-stretch="normal" font-size="37" text-anchor="start" direction="ltr" writing-mode="lr-tb" unicode-bidi="normal" text-decoration="none" x="-29.7918" y="88">Value: [12.7]</tspan></text><rect x="206.5" y="510.5" width="3666" height="637" stroke="#E9E9E9" stroke-width="4.58333" stroke-linecap="butt" stroke-linejoin="miter" stroke-miterlimit="4" stroke-opacity="1" fill="#E9E9E9" fill-opacity="1"/><text fill="#000000" fill-opacity="1" font-family="Intel Clear,Intel Clear_MSFontService,sans-serif" font-style="normal" font-variant="normal" font-weight="400" font-stretch="normal" font-size="55" text-anchor="start" direction="ltr" writing-mode="lr-tb" unicode-bidi="normal" text-decoration="none" transform="matrix(1 0 0 1 224.14 583)">Dequantization on activations</text><path d="M0.479782-4.55815 524.514 50.6007 523.555 59.717-0.479782 4.55815ZM524.035 55.1589 516.358 40.5249 542.268 57.078 513.479 67.8738Z" fill="#808080" fill-rule="nonzero" fill-opacity="1" transform="matrix(-1 0 0 1 1940.77 915.5)"/><path d="M1154.5 995.667C1154.5 982.872 1164.87 972.5 1177.67 972.5L1619.33 972.5C1632.13 972.5 1642.5 982.872 1642.5 995.667L1642.5 1088.33C1642.5 1101.13 1632.13 1111.5 1619.33 1111.5L1177.67 1111.5C1164.87 1111.5 1154.5 1101.13 1154.5 1088.33Z" stroke="#515A3D" stroke-width="4.58333" stroke-linecap="butt" stroke-linejoin="miter" stroke-miterlimit="4" stroke-opacity="1" fill="#B9D6E5" fill-rule="evenodd" fill-opacity="1"/><text fill="#000000" fill-opacity="1" font-family="Intel Clear,Intel Clear_MSFontService,sans-serif" font-style="normal" font-variant="normal" font-weight="400" font-stretch="normal" font-size="37" text-anchor="start" direction="ltr" writing-mode="lr-tb" unicode-bidi="normal" text-decoration="none" transform="matrix(1 0 0 1 1330.1 1032)">Multiply<tspan fill="#000000" fill-opacity="1" font-family="Intel Clear,Intel Clear_MSFontService,sans-serif" font-style="normal" font-variant="normal" font-weight="400" font-stretch="normal" font-size="37" text-anchor="start" direction="ltr" writing-mode="lr-tb" unicode-bidi="normal" text-decoration="none" x="-105.142" y="44">{f32} </tspan><tspan fill="#000000" fill-opacity="1" font-family="Intel Clear,Intel Clear_MSFontService,sans-serif" font-style="normal" font-variant="normal" font-weight="400" font-stretch="normal" font-size="37" text-anchor="start" direction="ltr" writing-mode="lr-tb" unicode-bidi="normal" text-decoration="none" x="-12.9021" y="44">{1, </tspan><tspan fill="#000000" fill-opacity="1" font-family="Intel Clear,Intel Clear_MSFontService,sans-serif" font-style="normal" font-variant="normal" font-weight="400" font-stretch="normal" font-size="37" text-anchor="start" direction="ltr" writing-mode="lr-tb" unicode-bidi="normal" text-decoration="none" x="39.8062" y="44">3, </tspan><tspan fill="#000000" fill-opacity="1" font-family="Intel Clear,Intel Clear_MSFontService,sans-serif" font-style="normal" font-variant="normal" font-weight="400" font-stretch="normal" font-size="37" text-anchor="start" direction="ltr" writing-mode="lr-tb" unicode-bidi="normal" text-decoration="none" x="78.7645" y="44">299, 29</tspan>9<tspan fill="#000000" fill-opacity="1" font-family="Intel Clear,Intel Clear_MSFontService,sans-serif" font-style="normal" font-variant="normal" font-weight="400" font-stretch="normal" font-size="37" text-anchor="start" direction="ltr" writing-mode="lr-tb" unicode-bidi="normal" text-decoration="none" x="226.577" y="44">}</tspan></text><path d="M1154.5 570.667C1154.5 557.872 1164.87 547.5 1177.67 547.5L1619.33 547.5C1632.13 547.5 1642.5 557.872 1642.5 570.667L1642.5 663.333C1642.5 676.128 1632.13 686.5 1619.33 686.5L1177.67 686.5C1164.87 686.5 1154.5 676.128 1154.5 663.333Z" stroke="#0068B5" stroke-width="4.58333" stroke-linecap="butt" stroke-linejoin="miter" stroke-miterlimit="4" stroke-opacity="1" fill="url(#fill1)" fill-rule="evenodd"/><text fill="#000000" fill-opacity="1" font-family="Intel Clear,Intel Clear_MSFontService,sans-serif" font-style="normal" font-variant="normal" font-weight="400" font-stretch="normal" font-size="37" text-anchor="start" direction="ltr" writing-mode="lr-tb" unicode-bidi="normal" text-decoration="none" transform="matrix(1 0 0 1 1332.1 606)">Convert<tspan fill="#000000" fill-opacity="1" font-family="Intel Clear,Intel Clear_MSFontService,sans-serif" font-style="normal" font-variant="normal" font-weight="400" font-stretch="normal" font-size="37" text-anchor="start" direction="ltr" writing-mode="lr-tb" unicode-bidi="normal" text-decoration="none" x="-107.135" y="44">{f32} </tspan><tspan fill="#000000" fill-opacity="1" font-family="Intel Clear,Intel Clear_MSFontService,sans-serif" font-style="normal" font-variant="normal" font-weight="400" font-stretch="normal" font-size="37" text-anchor="start" direction="ltr" writing-mode="lr-tb" unicode-bidi="normal" text-decoration="none" x="-14.8958" y="44">{1, </tspan><tspan fill="#000000" fill-opacity="1" font-family="Intel Clear,Intel Clear_MSFontService,sans-serif" font-style="normal" font-variant="normal" font-weight="400" font-stretch="normal" font-size="37" text-anchor="start" direction="ltr" writing-mode="lr-tb" unicode-bidi="normal" text-decoration="none" x="37.8125" y="44">3, </tspan><tspan fill="#000000" fill-opacity="1" font-family="Intel Clear,Intel Clear_MSFontService,sans-serif" font-style="normal" font-variant="normal" font-weight="400" font-stretch="normal" font-size="37" text-anchor="start" direction="ltr" writing-mode="lr-tb" unicode-bidi="normal" text-decoration="none" x="76.7709" y="44">299, 29</tspan>9<tspan fill="#000000" fill-opacity="1" font-family="Intel Clear,Intel Clear_MSFontService,sans-serif" font-style="normal" font-variant="normal" font-weight="400" font-stretch="normal" font-size="37" text-anchor="start" direction="ltr" writing-mode="lr-tb" unicode-bidi="normal" text-decoration="none" x="224.583" y="44">}</tspan></text><path d="M1403.08 686.5 1403.08 736.445 1393.92 736.445 1393.92 686.5ZM1398.5 736.445 1412.25 727.278 1398.5 754.778 1384.75 727.278Z" fill="#808080" fill-rule="nonzero" fill-opacity="1"/><path d="M1696.5 799.667C1696.5 786.872 1706.87 776.5 1719.67 776.5L2161.33 776.5C2174.13 776.5 2184.5 786.872 2184.5 799.667L2184.5 892.333C2184.5 905.128 2174.13 915.5 2161.33 915.5L1719.67 915.5C1706.87 915.5 1696.5 905.128 1696.5 892.333Z" stroke="#0068B5" stroke-width="4.58333" stroke-linecap="butt" stroke-linejoin="miter" stroke-miterlimit="4" stroke-opacity="1" fill="#B9D6E5" fill-rule="evenodd" fill-opacity="1"/><text fill="#000000" fill-opacity="1" font-family="Intel Clear,Intel Clear_MSFontService,sans-serif" font-style="normal" font-variant="normal" font-weight="400" font-stretch="normal" font-size="37" text-anchor="start" direction="ltr" writing-mode="lr-tb" unicode-bidi="normal" text-decoration="none" transform="matrix(1 0 0 1 1865.2 835)">Constant<tspan fill="#000000" fill-opacity="1" font-family="Intel Clear,Intel Clear_MSFontService,sans-serif" font-style="normal" font-variant="normal" font-weight="400" font-stretch="normal" font-size="37" text-anchor="start" direction="ltr" writing-mode="lr-tb" unicode-bidi="normal" text-decoration="none" x="-54.4271" y="44">{f32} </tspan><tspan fill="#000000" fill-opacity="1" font-family="Intel Clear,Intel Clear_MSFontService,sans-serif" font-style="normal" font-variant="normal" font-weight="400" font-stretch="normal" font-size="37" text-anchor="start" direction="ltr" writing-mode="lr-tb" unicode-bidi="normal" text-decoration="none" x="37.8125" y="44">{1, </tspan><tspan fill="#000000" fill-opacity="1" font-family="Intel Clear,Intel Clear_MSFontService,sans-serif" font-style="normal" font-variant="normal" font-weight="400" font-stretch="normal" font-size="37" text-anchor="start" direction="ltr" writing-mode="lr-tb" unicode-bidi="normal" text-decoration="none" x="90.5208" y="44">1, 1, 1}</tspan></text><path d="M1154.5 777.667C1154.5 764.872 1164.87 754.5 1177.67 754.5L1619.33 754.5C1632.13 754.5 1642.5 764.872 1642.5 777.667L1642.5 870.333C1642.5 883.128 1632.13 893.5 1619.33 893.5L1177.67 893.5C1164.87 893.5 1154.5 883.128 1154.5 870.333Z" stroke="#0068B5" stroke-width="4.58333" stroke-linecap="butt" stroke-linejoin="miter" stroke-miterlimit="4" stroke-opacity="1" fill="#B9D6E5" fill-rule="evenodd" fill-opacity="1"/><text fill="#000000" fill-opacity="1" font-family="Intel Clear,Intel Clear_MSFontService,sans-serif" font-style="normal" font-variant="normal" font-weight="400" font-stretch="normal" font-size="37" text-anchor="start" direction="ltr" writing-mode="lr-tb" unicode-bidi="normal" text-decoration="none" transform="matrix(1 0 0 1 1327.24 814)">Subtract<tspan fill="#000000" fill-opacity="1" font-family="Intel Clear,Intel Clear_MSFontService,sans-serif" font-style="normal" font-variant="normal" font-weight="400" font-stretch="normal" font-size="37" text-anchor="start" direction="ltr" writing-mode="lr-tb" unicode-bidi="normal" text-decoration="none" x="-102.277" y="44">{f32} </tspan><tspan fill="#000000" fill-opacity="1" font-family="Intel Clear,Intel Clear_MSFontService,sans-serif" font-style="normal" font-variant="normal" font-weight="400" font-stretch="normal" font-size="37" text-anchor="start" direction="ltr" writing-mode="lr-tb" unicode-bidi="normal" text-decoration="none" x="-10.0375" y="44">{1, </tspan><tspan fill="#000000" fill-opacity="1" font-family="Intel Clear,Intel Clear_MSFontService,sans-serif" font-style="normal" font-variant="normal" font-weight="400" font-stretch="normal" font-size="37" text-anchor="start" direction="ltr" writing-mode="lr-tb" unicode-bidi="normal" text-decoration="none" x="42.6709" y="44">3, </tspan><tspan fill="#000000" fill-opacity="1" font-family="Intel Clear,Intel Clear_MSFontService,sans-serif" font-style="normal" font-variant="normal" font-weight="400" font-stretch="normal" font-size="37" text-anchor="start" direction="ltr" writing-mode="lr-tb" unicode-bidi="normal" text-decoration="none" x="81.6293" y="44">299, 29</tspan>9<tspan fill="#000000" fill-opacity="1" font-family="Intel Clear,Intel Clear_MSFontService,sans-serif" font-style="normal" font-variant="normal" font-weight="400" font-stretch="normal" font-size="37" text-anchor="start" direction="ltr" writing-mode="lr-tb" unicode-bidi="normal" text-decoration="none" x="229.442" y="44">}</tspan></text><path d="M0.578574-4.54667 524.661 62.144 523.504 71.2373-0.578574 4.54667ZM524.081 66.6905 516.724 51.8933 542.268 69.0048 513.252 79.1734Z" fill="#808080" fill-rule="nonzero" fill-opacity="1" transform="matrix(-1 0 0 1 1940.77 685.5)"/><path d="M1403.08 893.5 1403.08 953.859 1393.92 953.859 1393.92 893.5ZM1398.5 953.859 1412.25 944.692 1398.5 972.192 1384.75 944.693Z" fill="#808080" fill-rule="nonzero" fill-opacity="1"/><path d="M1696.5 569.667C1696.5 556.872 1706.87 546.5 1719.67 546.5L2161.33 546.5C2174.13 546.5 2184.5 556.872 2184.5 569.667L2184.5 662.333C2184.5 675.128 2174.13 685.5 2161.33 685.5L1719.67 685.5C1706.87 685.5 1696.5 675.128 1696.5 662.333Z" stroke="#0068B5" stroke-width="4.58333" stroke-linecap="butt" stroke-linejoin="miter" stroke-miterlimit="4" stroke-opacity="1" fill="#B9D6E5" fill-rule="evenodd" fill-opacity="1"/><text fill="#000000" fill-opacity="1" font-family="Intel Clear,Intel Clear_MSFontService,sans-serif" font-style="normal" font-variant="normal" font-weight="400" font-stretch="normal" font-size="37" text-anchor="start" direction="ltr" writing-mode="lr-tb" unicode-bidi="normal" text-decoration="none" transform="matrix(1 0 0 1 1865.2 605)">Constant<tspan fill="#000000" fill-opacity="1" font-family="Intel Clear,Intel Clear_MSFontService,sans-serif" font-style="normal" font-variant="normal" font-weight="400" font-stretch="normal" font-size="37" text-anchor="start" direction="ltr" writing-mode="lr-tb" unicode-bidi="normal" text-decoration="none" x="-54.4271" y="44">{f32} </tspan><tspan fill="#000000" fill-opacity="1" font-family="Intel Clear,Intel Clear_MSFontService,sans-serif" font-style="normal" font-variant="normal" font-weight="400" font-stretch="normal" font-size="37" text-anchor="start" direction="ltr" writing-mode="lr-tb" unicode-bidi="normal" text-decoration="none" x="37.8125" y="44">{1, </tspan><tspan fill="#000000" fill-opacity="1" font-family="Intel Clear,Intel Clear_MSFontService,sans-serif" font-style="normal" font-variant="normal" font-weight="400" font-stretch="normal" font-size="37" text-anchor="start" direction="ltr" writing-mode="lr-tb" unicode-bidi="normal" text-decoration="none" x="90.5208" y="44">1</tspan><tspan fill="#000000" fill-opacity="1" font-family="Intel Clear,Intel Clear_MSFontService,sans-serif" font-style="normal" font-variant="normal" font-weight="400" font-stretch="normal" font-size="37" text-anchor="start" direction="ltr" writing-mode="lr-tb" unicode-bidi="normal" text-decoration="none" x="112.292" y="44">, </tspan>1, 1}</text><path d="M1403.08 469.5 1403.08 529.058 1393.92 529.059 1393.92 469.5ZM1398.5 529.058 1412.25 519.892 1398.5 547.392 1384.75 519.892Z" fill="#808080" fill-rule="nonzero" fill-opacity="1"/><path d="M4.58333-6.78314e-06 4.58475 957.079-4.58192 957.079-4.58333 6.78314e-06ZM0.00141644 957.079 13.7514 947.912 0.00144357 975.412-13.7486 947.912Z" fill="#808080" fill-rule="nonzero" fill-opacity="1" transform="matrix(-1 0 0 1 1398.5 1111.5)"/></g></svg>