<?xml version="1.0" encoding="UTF-8" standalone="no"?>
<svg
   width="1280"
   height="480"
   overflow="hidden"
   version="1.1"
   id="svg12270"
   sodipodi:docname="default_quantization_flow.svg"
   inkscape:version="1.2.1 (9c6d41e410, 2022-07-14)"
   xmlns:inkscape="http://www.inkscape.org/namespaces/inkscape"
   xmlns:sodipodi="http://sodipodi.sourceforge.net/DTD/sodipodi-0.dtd"
   xmlns="http://www.w3.org/2000/svg"
   xmlns:svg="http://www.w3.org/2000/svg">
  <sodipodi:namedview
     id="namedview12272"
     pagecolor="#ffffff"
     bordercolor="#000000"
     borderopacity="0.25"
     inkscape:showpageshadow="2"
     inkscape:pageopacity="0.0"
     inkscape:pagecheckerboard="0"
     inkscape:deskcolor="#d1d1d1"
     showgrid="false"
     inkscape:zoom="0.99609375"
     inkscape:cx="640"
     inkscape:cy="239.93725"
     inkscape:window-width="1920"
     inkscape:window-height="1129"
     inkscape:window-x="-8"
     inkscape:window-y="-8"
     inkscape:window-maximized="1"
     inkscape:current-layer="svg12270" />
  <defs
     id="defs12146">
    <clipPath
       id="clip0">
      <rect
         x="0"
         y="0"
         width="1280"
         height="480"
         id="rect12143" />
    </clipPath>
  </defs>
  <g
     clip-path="url(#clip0)"
     id="g12268">
    <path
       id="rect12148"
       style="fill:#ffffff"
       d="M 0,0 H 1280 V 480 H 0 Z" />
    <path
       d="M28.5001 154.167C28.5001 149.933 50.8858 146.5 78.5 146.5 106.114 146.5 128.5 149.933 128.5 154.167L128.5 184.833C128.5 189.068 106.114 192.5 78.5 192.5 50.8858 192.5 28.5001 189.068 28.5001 184.833Z"
       fill="#B1D272"
       fill-rule="evenodd"
       id="path12150" />
    <path
       d="M128.5 154.167C128.5 158.401 106.114 161.833 78.5 161.833 50.8858 161.833 28.5001 158.401 28.5001 154.167"
       stroke="#B1D272"
       stroke-width="1.33333"
       stroke-miterlimit="8"
       fill="none"
       fill-rule="evenodd"
       id="path12152" />
    <path
       d="M28.5001 154.167C28.5001 149.933 50.8858 146.5 78.5 146.5 106.114 146.5 128.5 149.933 128.5 154.167L128.5 184.833C128.5 189.068 106.114 192.5 78.5 192.5 50.8858 192.5 28.5001 189.068 28.5001 184.833Z"
       stroke="#B1D272"
       stroke-width="1.33333"
       stroke-miterlimit="8"
       fill="none"
       fill-rule="evenodd"
       id="path12154" />
    <path
       d="M28.5001 154C28.5001 148.201 50.8858 143.5 78.5 143.5 106.114 143.5 128.5 148.201 128.5 154 128.5 159.799 106.114 164.5 78.5 164.5 50.8858 164.5 28.5001 159.799 28.5001 154Z"
       stroke="#FFFFFF"
       stroke-width="1.33333"
       stroke-miterlimit="8"
       fill="#FFFFFF"
       fill-rule="evenodd"
       id="path12156" />
    <path
       d="M28.5001 119.5C28.5001 113.425 50.8858 108.5 78.5 108.5 106.114 108.5 128.5 113.425 128.5 119.5 128.5 125.575 106.114 130.5 78.5 130.5 50.8858 130.5 28.5001 125.575 28.5001 119.5Z"
       stroke="#FFFFFF"
       stroke-width="1.33333"
       stroke-miterlimit="8"
       fill="#FFFFFF"
       fill-rule="evenodd"
       id="path12158" />
    <path
       d="M111.5 182C111.5 180.619 113.739 179.5 116.5 179.5 119.261 179.5 121.5 180.619 121.5 182 121.5 183.381 119.261 184.5 116.5 184.5 113.739 184.5 111.5 183.381 111.5 182Z"
       stroke="#FFFFFF"
       stroke-width="1.33333"
       stroke-miterlimit="8"
       fill="#FFFFFF"
       fill-rule="evenodd"
       id="path12160" />
    <path
       d="M111.5 148.5C111.5 147.395 113.739 146.5 116.5 146.5 119.261 146.5 121.5 147.395 121.5 148.5 121.5 149.605 119.261 150.5 116.5 150.5 113.739 150.5 111.5 149.605 111.5 148.5Z"
       stroke="#FFFFFF"
       stroke-width="1.33333"
       stroke-miterlimit="8"
       fill="#FFFFFF"
       fill-rule="evenodd"
       id="path12162" />
    <path
       d="M28.5001 119.333C28.5001 115.007 50.8858 111.5 78.5 111.5 106.114 111.5 128.5 115.007 128.5 119.333L128.5 150.667C128.5 154.993 106.114 158.5 78.5 158.5 50.8858 158.5 28.5001 154.993 28.5001 150.667Z"
       fill="#B1D272"
       fill-rule="evenodd"
       id="path12164" />
    <path
       d="M128.5 119.333C128.5 123.66 106.114 127.167 78.5 127.167 50.8858 127.167 28.5001 123.66 28.5001 119.333"
       stroke="#B1D272"
       stroke-width="1.33333"
       stroke-miterlimit="8"
       fill="none"
       fill-rule="evenodd"
       id="path12166" />
    <path
       d="M28.5001 119.333C28.5001 115.007 50.8858 111.5 78.5 111.5 106.114 111.5 128.5 115.007 128.5 119.333L128.5 150.667C128.5 154.993 106.114 158.5 78.5 158.5 50.8858 158.5 28.5001 154.993 28.5001 150.667Z"
       stroke="#B1D272"
       stroke-width="1.33333"
       stroke-miterlimit="8"
       fill="none"
       fill-rule="evenodd"
       id="path12168" />
    <g
       aria-label="Data"
       transform="translate(61.5319 145)"
       id="text12170"
       style="font-size:16px;font-family:'IntelOne Display Regular', 'IntelOne Display Regular_MSFontService', sans-serif">
      <path
         d="m 1.04,0 v -11.2 h 4.208 q 2.624,0 4.224,1.552 1.616,1.552 1.616,4.032 0,2.464 -1.632,4.048 Q 7.824,0 5.216,0 Z m 8.656,-5.584 q 0,-1.92 -1.248,-3.136 Q 7.216,-9.952 5.232,-9.952 H 2.416 v 8.704 h 2.816 q 1.984,0 3.216,-1.216 1.248,-1.216 1.248,-3.12 z"
         id="path12275" />
      <path
         d="m 19.184014,0 h -1.264 v -1.264 q -0.464,0.672 -1.264,1.056 -0.784,0.368 -1.696,0.368 -1.28,0 -2.08,-0.64 -0.8,-0.656 -0.8,-1.712 0,-1.168 0.896,-1.76 0.896,-0.608 2.656,-0.608 h 2.272 q -0.016,-1.088 -0.576,-1.68 -0.544,-0.592 -1.568,-0.592 -0.608,0 -1.2,0.256 -0.592,0.256 -1.168,0.784 l -0.688,-0.864 q 0.672,-0.64 1.472,-0.96 0.8,-0.336 1.712,-0.336 1.552,0 2.416,0.928 0.88,0.912 0.88,2.528 z m -1.28,-3.552 h -2.256 q -1.168,0 -1.728,0.32 -0.56,0.32 -0.56,1.008 0,0.576 0.48,0.96 0.496,0.384 1.264,0.384 1.152,0 1.936,-0.736 0.8,-0.752 0.864,-1.936 z"
         id="path12277" />
      <path
         d="m 21.136018,-2.064 v -4.512 h -1.056 v -1.152 h 1.056 v -2.368 h 1.296 v 2.368 h 1.792 v 1.152 h -1.792 v 4.4 q 0,0.512 0.224,0.768 0.24,0.24 0.72,0.24 h 0.848 V 0 h -1.04 q -1.072,0 -1.568,-0.496 -0.48,-0.496 -0.48,-1.568 z"
         id="path12279" />
      <path
         d="m 32.256005,0 h -1.264 v -1.264 q -0.464,0.672 -1.264,1.056 -0.784,0.368 -1.696,0.368 -1.28,0 -2.08,-0.64 -0.8,-0.656 -0.8,-1.712 0,-1.168 0.896,-1.76 0.896,-0.608 2.656,-0.608 h 2.272 q -0.016,-1.088 -0.576,-1.68 -0.544,-0.592 -1.568,-0.592 -0.608,0 -1.2,0.256 -0.592,0.256 -1.168,0.784 l -0.688,-0.864 q 0.672,-0.64 1.472,-0.96 0.8,-0.336 1.712,-0.336 1.552,0 2.416,0.928 0.88,0.912 0.88,2.528 z m -1.28,-3.552 h -2.256 q -1.168,0 -1.728,0.32 -0.56,0.32 -0.56,1.008 0,0.576 0.48,0.96 0.496,0.384 1.264,0.384 1.152,0 1.936,-0.736 0.8,-0.752 0.864,-1.936 z"
         id="path12281" />
    </g>
    <path
       d="M28.5001 119.5C28.5001 113.425 50.8858 108.5 78.5 108.5 106.114 108.5 128.5 113.425 128.5 119.5 128.5 125.575 106.114 130.5 78.5 130.5 50.8858 130.5 28.5001 125.575 28.5001 119.5Z"
       stroke="#FFFFFF"
       stroke-width="1.33333"
       stroke-miterlimit="8"
       fill="#FFFFFF"
       fill-rule="evenodd"
       id="path12172" />
    <path
       d="M111.5 148C111.5 146.619 113.739 145.5 116.5 145.5 119.261 145.5 121.5 146.619 121.5 148 121.5 149.381 119.261 150.5 116.5 150.5 113.739 150.5 111.5 149.381 111.5 148Z"
       stroke="#FFFFFF"
       stroke-width="1.33333"
       stroke-miterlimit="8"
       fill="#FFFFFF"
       fill-rule="evenodd"
       id="path12174" />
    <path
       d="M111.5 114C111.5 112.619 113.739 111.5 116.5 111.5 119.261 111.5 121.5 112.619 121.5 114 121.5 115.381 119.261 116.5 116.5 116.5 113.739 116.5 111.5 115.381 111.5 114Z"
       stroke="#FFFFFF"
       stroke-width="1.33333"
       stroke-miterlimit="8"
       fill="#FFFFFF"
       fill-rule="evenodd"
       id="path12176" />
    <path
       d="M28.5001 85.3334C28.5001 81.0072 50.8858 77.5001 78.5 77.5001 106.114 77.5001 128.5 81.0072 128.5 85.3334L128.5 116.667C128.5 120.993 106.114 124.5 78.5 124.5 50.8858 124.5 28.5001 120.993 28.5001 116.667Z"
       fill="#B1D272"
       fill-rule="evenodd"
       id="path12178" />
    <path
       d="M128.5 85.3334C128.5 89.6596 106.114 93.1667 78.5 93.1667 50.8858 93.1667 28.5001 89.6596 28.5001 85.3334"
       stroke="#B1D272"
       stroke-width="1.33333"
       stroke-miterlimit="8"
       fill="none"
       fill-rule="evenodd"
       id="path12180" />
    <path
       d="M28.5001 85.3334C28.5001 81.0072 50.8858 77.5001 78.5 77.5001 106.114 77.5001 128.5 81.0072 128.5 85.3334L128.5 116.667C128.5 120.993 106.114 124.5 78.5 124.5 50.8858 124.5 28.5001 120.993 28.5001 116.667Z"
       stroke="#B1D272"
       stroke-width="1.33333"
       stroke-miterlimit="8"
       fill="none"
       fill-rule="evenodd"
       id="path12182" />
    <path
       d="M28.5001 85.5001C28.5001 79.4249 50.8858 74.5001 78.5 74.5001 106.114 74.5001 128.5 79.4249 128.5 85.5001 128.5 91.5752 106.114 96.5001 78.5 96.5001 50.8858 96.5001 28.5001 91.5752 28.5001 85.5001Z"
       stroke="#FFFFFF"
       stroke-width="1.33333"
       stroke-miterlimit="8"
       fill="#FFFFFF"
       fill-rule="evenodd"
       id="path12184" />
    <path
       d="M111.5 114C111.5 112.619 113.739 111.5 116.5 111.5 119.261 111.5 121.5 112.619 121.5 114 121.5 115.381 119.261 116.5 116.5 116.5 113.739 116.5 111.5 115.381 111.5 114Z"
       stroke="#FFFFFF"
       stroke-width="1.33333"
       stroke-miterlimit="8"
       fill="#FFFFFF"
       fill-rule="evenodd"
       id="path12186" />
    <path
       d="M111.5 80.0001C111.5 78.6193 113.739 77.5001 116.5 77.5001 119.261 77.5001 121.5 78.6193 121.5 80.0001 121.5 81.3808 119.261 82.5001 116.5 82.5001 113.739 82.5001 111.5 81.3808 111.5 80.0001Z"
       stroke="#FFFFFF"
       stroke-width="1.33333"
       stroke-miterlimit="8"
       fill="#FFFFFF"
       fill-rule="evenodd"
       id="path12188" />
    <path
       d="M29.5001 84.5001C29.5001 80.6341 51.4381 77.5001 78.5001 77.5001 105.562 77.5001 127.5 80.6341 127.5 84.5001 127.5 88.366 105.562 91.5001 78.5001 91.5001 51.4381 91.5001 29.5001 88.366 29.5001 84.5001Z"
       stroke="#B1D272"
       stroke-width="1.33333"
       stroke-miterlimit="8"
       fill="#B1D272"
       fill-rule="evenodd"
       id="path12190" />
    <path
       d="M0 77 19.25 0 170.75 0 190 77Z"
       stroke="#FFE17A"
       stroke-width="1.33333"
       stroke-miterlimit="8"
       fill="#FFE17A"
       fill-rule="evenodd"
       transform="matrix(1 0 0 -1 1059.5 172.5)"
       id="path12192" />
    <path
       d="M0 69 17.25 0 172.75 0 190 69Z"
       stroke="#FFE17A"
       stroke-width="1.33333"
       stroke-miterlimit="8"
       fill="#FFE17A"
       fill-rule="evenodd"
       transform="matrix(1 0 0 -1 1059.5 387.5)"
       id="path12194" />
    <path
       d="M190 107.668C190 69.7439 220.744 39 258.668 39L937.332 39C975.256 39 1006 69.7439 1006 107.668L1006 382.332C1006 420.256 975.256 451 937.332 451L258.668 451C220.744 451 190 420.256 190 382.332Z"
       stroke="#000000"
       stroke-width="2"
       stroke-miterlimit="8"
       stroke-dasharray="8 6"
       fill="#E9E9E9"
       fill-rule="evenodd"
       id="path12196" />
    <path
       d="M221.5 114.667C221.5 109.052 226.052 104.5 231.667 104.5L354.333 104.5C359.948 104.5 364.5 109.052 364.5 114.667L364.5 155.333C364.5 160.948 359.948 165.5 354.333 165.5L231.667 165.5C226.052 165.5 221.5 160.948 221.5 155.333Z"
       stroke="#000000"
       stroke-width="1.33333"
       stroke-miterlimit="8"
       fill="#76CEFF"
       fill-rule="evenodd"
       id="path12198" />
    <g
       aria-label="DataLoader"
       transform="translate(237.382 143)"
       id="text12200"
       style="font-size:21px;font-family:'IntelOne Display Regular', 'IntelOne Display Regular_MSFontService', sans-serif">
      <path
         d="m 1.365,0 v -14.7 h 5.523 q 3.444,0 5.544,2.037 2.121,2.037 2.121,5.292 0,3.234 -2.142,5.313 Q 10.269,0 6.846,0 Z m 11.361,-7.329 q 0,-2.52 -1.638,-4.116 -1.617,-1.617 -4.221,-1.617 H 3.171 v 11.424 h 3.696 q 2.604,0 4.221,-1.596 1.638,-1.596 1.638,-4.095 z"
         id="path12284" />
      <path
         d="m 25.179019,0 h -1.659 v -1.659 q -0.609,0.882 -1.659,1.386 -1.029,0.483 -2.226,0.483 -1.68,0 -2.73,-0.84 -1.05,-0.861 -1.05,-2.247 0,-1.533 1.176,-2.31 1.176,-0.798 3.486,-0.798 h 2.982 q -0.021,-1.428 -0.756,-2.205 -0.714,-0.777 -2.058,-0.777 -0.798,0 -1.575,0.336 -0.777,0.336 -1.533,1.029 l -0.903,-1.134 q 0.882,-0.84 1.932,-1.26 1.05,-0.441 2.247,-0.441 2.037,0 3.171,1.218 1.155,1.197 1.155,3.318 z m -1.68,-4.662 h -2.961 q -1.533,0 -2.268,0.42 -0.735,0.42 -0.735,1.323 0,0.756 0.63,1.26 0.651,0.504 1.659,0.504 1.512,0 2.541,-0.966 1.05,-0.987 1.134,-2.541 z"
         id="path12286" />
      <path
         d="m 27.741024,-2.709 v -5.922 h -1.386 v -1.512 h 1.386 v -3.108 h 1.701 v 3.108 h 2.352 v 1.512 h -2.352 v 5.775 q 0,0.672 0.294,1.008 0.315,0.315 0.945,0.315 h 1.113 V 0 h -1.365 q -1.407,0 -2.058,-0.651 -0.63,-0.651 -0.63,-2.058 z"
         id="path12288" />
      <path
         d="m 42.336007,0 h -1.659 v -1.659 q -0.609,0.882 -1.659,1.386 -1.029,0.483 -2.226,0.483 -1.68,0 -2.73,-0.84 -1.05,-0.861 -1.05,-2.247 0,-1.533 1.176,-2.31 1.176,-0.798 3.486,-0.798 h 2.982 q -0.021,-1.428 -0.756,-2.205 -0.714,-0.777 -2.058,-0.777 -0.798,0 -1.575,0.336 -0.777,0.336 -1.533,1.029 l -0.903,-1.134 q 0.882,-0.84 1.932,-1.26 1.05,-0.441 2.247,-0.441 2.037,0 3.171,1.218 1.155,1.197 1.155,3.318 z m -1.68,-4.662 h -2.961 q -1.533,0 -2.268,0.42 -0.735,0.42 -0.735,1.323 0,0.756 0.63,1.26 0.651,0.504 1.659,0.504 1.512,0 2.541,-0.966 1.05,-0.987 1.134,-2.541 z"
         id="path12290" />
      <path
         d="m 44.687994,0 v -14.7 h 1.806 v 13.083 h 8.484 V 0 Z"
         id="path12292" />
      <path
         d="m 66.61201,-5.061 q 0,2.289 -1.533,3.843 -1.533,1.533 -3.78,1.533 -2.247,0 -3.759,-1.533 -1.491,-1.533 -1.491,-3.822 0,-2.289 1.533,-3.822 1.533,-1.554 3.78,-1.554 2.247,0 3.738,1.533 1.512,1.533 1.512,3.822 z m -8.82,0.021 q 0,1.638 1.008,2.751 1.029,1.113 2.541,1.113 1.491,0 2.499,-1.113 1.029,-1.113 1.029,-2.772 0,-1.617 -1.029,-2.73 -1.029,-1.134 -2.52,-1.134 -1.491,0 -2.52,1.113 -1.008,1.113 -1.008,2.772 z"
         id="path12294" />
      <path
         d="m 77.091023,0 h -1.659 v -1.659 q -0.609,0.882 -1.659,1.386 -1.029,0.483 -2.226,0.483 -1.68,0 -2.73,-0.84 -1.05,-0.861 -1.05,-2.247 0,-1.533 1.176,-2.31 1.176,-0.798 3.486,-0.798 h 2.982 q -0.021,-1.428 -0.756,-2.205 -0.714,-0.777 -2.058,-0.777 -0.798,0 -1.575,0.336 -0.777,0.336 -1.533,1.029 l -0.903,-1.134 q 0.882,-0.84 1.932,-1.26 1.05,-0.441 2.247,-0.441 2.037,0 3.171,1.218 1.155,1.197 1.155,3.318 z m -1.68,-4.662 h -2.961 q -1.533,0 -2.268,0.42 -0.735,0.42 -0.735,1.323 0,0.756 0.63,1.26 0.651,0.504 1.659,0.504 1.512,0 2.541,-0.966 1.05,-0.987 1.134,-2.541 z"
         id="path12296" />
      <path
         d="m 87.465011,-14.7 h 1.722 V 0 h -1.701 v -1.638 q -0.693,0.882 -1.68,1.365 -0.966,0.483 -2.079,0.483 -2.121,0 -3.57,-1.47 -1.428,-1.491 -1.428,-3.78 0,-2.31 1.47,-3.822 1.491,-1.533 3.654,-1.533 1.05,0 1.974,0.441 0.945,0.42 1.638,1.218 z m -3.549,13.419 q 1.533,0 2.562,-1.092 1.05,-1.113 1.05,-2.73 0,-1.638 -1.008,-2.709 -1.008,-1.071 -2.52,-1.071 -1.554,0 -2.541,1.05 -0.987,1.05 -0.987,2.751 0,1.701 0.966,2.751 0.966,1.05 2.478,1.05 z"
         id="path12298" />
      <path
         d="m 96.284992,-1.134 q 1.008,0 1.848,-0.42 0.861,-0.441 1.575,-1.323 l 1.028998,0.945 q -0.860998,1.134 -2.015998,1.701 -1.155,0.546 -2.583,0.546 -2.289,0 -3.759,-1.491 -1.449,-1.512 -1.449,-3.864 0,-2.289 1.491,-3.822 1.491,-1.533 3.675,-1.533 2.226,0 3.612,1.449 1.385998,1.449 1.385998,3.78 0,0.168 -0.021,0.399 -0.021,0.21 -0.042,0.315 h -8.336998 q 0.168,1.491 1.155,2.415 1.008,0.903 2.436,0.903 z m -0.168,-7.812 q -1.323,0 -2.268,0.861 -0.945,0.861 -1.155,2.31 h 6.678 q -0.189,-1.47 -1.071,-2.31 -0.882,-0.861 -2.184,-0.861 z"
         id="path12300" />
      <path
         d="m 102.81601,-10.143 h 1.68 v 1.281 q 0.462,-0.672 1.197,-1.008 0.735,-0.336 1.743,-0.336 h 0.924 v 1.617 h -0.945 q -1.449,0 -2.184,0.756 -0.714,0.756 -0.714,2.289 V 0 h -1.701 z"
         id="path12302" />
    </g>
    <path
       d="M379.5 209.667C379.5 201.843 385.843 195.5 393.667 195.5L615.333 195.5C623.157 195.5 629.5 201.843 629.5 209.667L629.5 266.333C629.5 274.157 623.157 280.5 615.333 280.5L393.667 280.5C385.843 280.5 379.5 274.157 379.5 266.333Z"
       stroke="#000000"
       stroke-width="1.33333"
       stroke-miterlimit="8"
       stroke-dasharray="4 1.33333"
       fill="#76CEFF"
       fill-rule="evenodd"
       id="path12202" />
    <g
       aria-label="Engine"
       transform="translate(393.113 247)"
       id="text12204"
       style="font-size:24px;font-family:'IntelOne Display Regular', 'IntelOne Display Regular_MSFontService', sans-serif">
      <path
         d="m 1.56,0 v -16.8 h 12.192 v 1.824 H 3.624 v 5.592 H 13.08 V -7.56 H 3.624 v 5.736 H 13.752 V 0 Z"
         id="path12305" />
      <path
         d="m 16.199994,-11.592 h 1.92 v 1.8 q 0.696,-1.008 1.752,-1.536 1.08,-0.552 2.4,-0.552 2.304,0 3.6,1.488 1.296,1.488 1.296,4.08 V 0 h -1.944 v -6.192 q 0,-1.824 -0.912,-2.88 -0.888,-1.056 -2.496,-1.056 -1.656,0 -2.664,1.128 -1.008,1.128 -1.008,2.928 V 0 h -1.944 z"
         id="path12307" />
      <path
         d="m 39.047975,-1.368 v -0.816 q -0.792,0.96 -1.92,1.488 -1.104,0.528 -2.376,0.528 -2.448,0 -4.08,-1.632 -1.632,-1.632 -1.632,-4.2 0,-2.544 1.656,-4.2 1.68,-1.68 4.128,-1.68 1.248,0 2.352,0.528 1.104,0.528 1.896,1.488 v -1.728 h 1.944 V -1.44 q 0,2.88 -1.536,4.32 -1.536,1.44 -4.632,1.44 h -2.928 V 2.64 h 3.024 q 2.04,0 3.072,-1.008 1.032,-1.008 1.032,-3 z m -4.008,-0.528 q 1.728,0 2.904,-1.176 1.2,-1.2 1.2,-2.928 0,-1.776 -1.2,-2.952 -1.176,-1.2 -2.904,-1.2 -1.8,0 -2.904,1.128 -1.104,1.128 -1.104,3 0,1.848 1.104,3 1.128,1.128 2.904,1.128 z"
         id="path12309" />
      <path
         d="m 43.655992,-15.48 h 2.16 v 2.136 h -2.16 z m 0.096,15.48 v -11.592 h 1.968 V 0 Z"
         id="path12311" />
      <path
         d="m 48.479977,-11.592 h 1.92 v 1.8 q 0.696,-1.008 1.752,-1.536 1.08,-0.552 2.4,-0.552 2.304,0 3.6,1.488 1.296,1.488 1.296,4.08 V 0 h -1.944 v -6.192 q 0,-1.824 -0.912,-2.88 -0.888,-1.056 -2.496,-1.056 -1.656,0 -2.664,1.128 -1.008,1.128 -1.008,2.928 V 0 h -1.944 z"
         id="path12313" />
      <path
         d="m 67.439958,-1.296 q 1.152,0 2.112,-0.48 0.984,-0.504 1.8,-1.512 l 1.176,1.08 q -0.984,1.296 -2.304,1.944 -1.32,0.624 -2.952,0.624 -2.616,0 -4.296,-1.704 -1.656,-1.728 -1.656,-4.416 0,-2.616 1.704,-4.368 1.704,-1.752 4.2,-1.752 2.544,0 4.128,1.656 1.584,1.656 1.584,4.32 0,0.192 -0.024,0.456 -0.024,0.24 -0.048,0.36 h -9.528 q 0.192,1.704 1.32,2.76 1.152,1.032 2.784,1.032 z m -0.192,-8.928 q -1.512,0 -2.592,0.984 -1.08,0.984 -1.32,2.64 h 7.632 q -0.216,-1.68 -1.224,-2.64 -1.008,-0.984 -2.496,-0.984 z"
         id="path12315" />
    </g>
    <path
       d="M798.5 117C798.5 112.306 802.306 108.5 807 108.5L955 108.5C959.694 108.5 963.5 112.306 963.5 117L963.5 151C963.5 155.694 959.694 159.5 955 159.5L807 159.5C802.306 159.5 798.5 155.694 798.5 151Z"
       stroke="#00A3F6"
       stroke-width="1.33333"
       stroke-miterlimit="8"
       fill="#00A3F6"
       fill-rule="evenodd"
       id="path12206" />
    <g
       aria-label="load_model()"
       transform="translate(818.088 142)"
       id="text12210"
       style="font-size:21px;font-family:'IntelOne Display Regular', 'IntelOne Display Regular_MSFontService', sans-serif">
      <path
         d="M 1.302,-14.7 H 3.024 V 0 H 1.302 Z"
         id="path12318" />
      <path
         d="m 15.54731,-5.061 q 0,2.289 -1.533,3.843 -1.533,1.533 -3.78,1.533 -2.2469999,0 -3.7589999,-1.533 -1.491,-1.533 -1.491,-3.822 0,-2.289 1.533,-3.822 1.533,-1.554 3.7799999,-1.554 2.247,0 3.738,1.533 1.512,1.533 1.512,3.822 z M 6.7273101,-5.04 q 0,1.638 1.008,2.751 1.029,1.113 2.5409999,1.113 1.491,0 2.499,-1.113 1.029,-1.113 1.029,-2.772 0,-1.617 -1.029,-2.73 -1.029,-1.134 -2.52,-1.134 -1.4909999,0 -2.5199999,1.113 -1.008,1.113 -1.008,2.772 z"
         id="path12320" />
      <path
         d="m 26.026321,0 h -1.659 v -1.659 q -0.609,0.882 -1.659,1.386 -1.029,0.483 -2.226,0.483 -1.68,0 -2.73,-0.84 -1.05,-0.861 -1.05,-2.247 0,-1.533 1.176,-2.31 1.176,-0.798 3.486,-0.798 h 2.982 q -0.021,-1.428 -0.756,-2.205 -0.714,-0.777 -2.058,-0.777 -0.798,0 -1.575,0.336 -0.777,0.336 -1.533,1.029 l -0.903,-1.134 q 0.882,-0.84 1.932,-1.26 1.05,-0.441 2.247,-0.441 2.037,0 3.171,1.218 1.155,1.197 1.155,3.318 z m -1.68,-4.662 h -2.961 q -1.533,0 -2.268,0.42 -0.735,0.42 -0.735,1.323 0,0.756 0.63,1.26 0.651,0.504 1.659,0.504 1.512,0 2.541,-0.966 1.05,-0.987 1.134,-2.541 z"
         id="path12322" />
      <path
         d="m 36.400309,-14.7 h 1.722 V 0 h -1.701 v -1.638 q -0.693,0.882 -1.68,1.365 -0.966,0.483 -2.079,0.483 -2.121,0 -3.57,-1.47 -1.428,-1.491 -1.428,-3.78 0,-2.31 1.47,-3.822 1.491,-1.533 3.654,-1.533 1.05,0 1.974,0.441 0.945,0.42 1.638,1.218 z m -3.549,13.419 q 1.533,0 2.562,-1.092 1.05,-1.113 1.05,-2.73 0,-1.638 -1.008,-2.709 -1.008,-1.071 -2.52,-1.071 -1.554,0 -2.541,1.05 -0.987,1.05 -0.987,2.751 0,1.701 0.966,2.751 0.966,1.05 2.478,1.05 z"
         id="path12324" />
      <path
         d="M 39.172295,2.709 V 1.176 h 10.668 v 1.533 z"
         id="path12326" />
      <path
         d="m 50.911291,-10.143 h 1.68 v 1.218 q 0.567,-0.735 1.281,-1.092 0.735,-0.378 1.638,-0.378 1.05,0 1.869,0.441 0.819,0.441 1.302,1.281 0.567,-0.84 1.428,-1.281 0.882,-0.441 1.974,-0.441 1.785,0 2.835,1.155 1.071,1.155 1.071,3.003 V 0 h -1.722 v -6.132 q 0,-1.281 -0.651,-1.995 -0.63,-0.735 -1.785,-0.735 -1.134,0 -1.848,0.798 -0.693,0.777 -0.693,2.037 V 0 h -1.701 v -6.132 q 0,-1.281 -0.651,-1.995 -0.63,-0.735 -1.785,-0.735 -1.134,0 -1.848,0.798 -0.693,0.777 -0.693,2.037 V 0 h -1.701 z"
         id="path12328" />
      <path
         d="m 78.190308,-5.061 q 0,2.289 -1.533,3.843 -1.533,1.533 -3.78,1.533 -2.247,0 -3.759,-1.533 -1.491,-1.533 -1.491,-3.822 0,-2.289 1.533,-3.822 1.533,-1.554 3.78,-1.554 2.247,0 3.738,1.533 1.512,1.533 1.512,3.822 z m -8.82,0.021 q 0,1.638 1.008,2.751 1.029,1.113 2.541,1.113 1.491,0 2.499,-1.113 1.029,-1.113 1.029,-2.772 0,-1.617 -1.029,-2.73 -1.029,-1.134 -2.52,-1.134 -1.491,0 -2.52,1.113 -1.008,1.113 -1.008,2.772 z"
         id="path12330" />
      <path
         d="m 88.228321,-14.7 h 1.722 V 0 h -1.701 v -1.638 q -0.693,0.882 -1.68,1.365 -0.966,0.483 -2.079,0.483 -2.121,0 -3.57,-1.47 -1.428,-1.491 -1.428,-3.78 0,-2.31 1.47,-3.822 1.491,-1.533 3.654,-1.533 1.05,0 1.974,0.441 0.945,0.42 1.638,1.218 z m -3.549,13.419 q 1.533,0 2.562,-1.092 1.05,-1.113 1.05,-2.73 0,-1.638 -1.008,-2.709 -1.008,-1.071 -2.52,-1.071 -1.554,0 -2.541,1.05 -0.987,1.05 -0.987,2.751 0,1.701 0.966,2.751 0.966,1.05 2.478,1.05 z"
         id="path12332" />
      <path
         d="m 97.048302,-1.134 q 1.008,0 1.848,-0.42 0.861,-0.441 1.574998,-1.323 l 1.029,0.945 q -0.861,1.134 -2.015998,1.701 -1.155,0.546 -2.583,0.546 -2.289,0 -3.759,-1.491 -1.449,-1.512 -1.449,-3.864 0,-2.289 1.491,-3.822 1.491,-1.533 3.675,-1.533 2.226,0 3.611998,1.449 1.386,1.449 1.386,3.78 0,0.168 -0.021,0.399 -0.021,0.21 -0.042,0.315 h -8.336998 q 0.168,1.491 1.155,2.415 1.008,0.903 2.436,0.903 z m -0.168,-7.812 q -1.323,0 -2.268,0.861 -0.945,0.861 -1.155,2.31 h 6.677998 q -0.188998,-1.47 -1.070998,-2.31 -0.882,-0.861 -2.184,-0.861 z"
         id="path12334" />
      <path
         d="m 103.76832,-14.7 h 1.722 V 0 h -1.722 z"
         id="path12336" />
      <path
         d="m 107.6533,-7.329 q 0,-3.024 1.554,-5.607 1.554,-2.604 4.452,-4.41 l 0.861,1.218 q -2.478,1.659 -3.801,3.906 -1.302,2.247 -1.302,4.851 0,2.604 1.302,4.851 1.323,2.247 3.801,3.906 l -0.861,1.218 q -2.898,-1.806 -4.452,-4.368 -1.554,-2.583 -1.554,-5.565 z"
         id="path12338" />
      <path
         d="m 122.08031,-7.371 q 0,3.024 -1.554,5.628 -1.554,2.583 -4.452,4.389 l -0.84,-1.218 q 2.478,-1.659 3.78,-3.906 1.302,-2.247 1.302,-4.851 0,-2.604 -1.302,-4.83 -1.302,-2.247 -3.78,-3.927 l 0.861,-1.218 q 2.877,1.806 4.431,4.389 1.554,2.562 1.554,5.544 z"
         id="path12340" />
    </g>
    <path
       d="M801.5 334.834C801.5 330.231 805.231 326.5 809.833 326.5L957.167 326.5C961.769 326.5 965.5 330.231 965.5 334.834L965.5 368.167C965.5 372.769 961.769 376.5 957.167 376.5L809.833 376.5C805.231 376.5 801.5 372.769 801.5 368.167Z"
       stroke="#00A3F6"
       stroke-width="1.33333"
       stroke-miterlimit="8"
       fill="#00A3F6"
       fill-rule="evenodd"
       id="path12212" />
    <g
       aria-label="save_model()"
       transform="translate(818.825 359)"
       id="text12214"
       style="font-size:21px;font-family:'IntelOne Display Regular', 'IntelOne Display Regular_MSFontService', sans-serif">
      <path
         d="m 9.282,-2.961 q 0,1.428 -1.218,2.331 -1.218,0.903 -3.171,0.903 -1.281,0 -2.415,-0.399 -1.113,-0.42 -2.016,-1.239 l 0.882,-1.302 q 0.966,0.798 1.806,1.155 0.84,0.357 1.785,0.357 1.218,0 1.953,-0.462 0.756,-0.483 0.756,-1.239 0,-0.777 -0.63,-1.113 Q 6.384,-4.326 4.935,-4.347 2.814,-4.431 1.827,-5.124 0.861,-5.817 0.861,-7.287 q 0,-1.344 1.113,-2.226 1.134,-0.903 2.898,-0.903 1.197,0 2.247,0.378 1.05,0.378 1.911,1.113 L 8.211,-7.644 Q 7.35,-8.337 6.552,-8.652 5.754,-8.967 4.851,-8.967 q -1.029,0 -1.701,0.462 -0.651,0.462 -0.651,1.134 0,0.735 0.588,1.071 0.588,0.336 1.869,0.399 2.289,0.063 3.297,0.756 1.029,0.693 1.029,2.184 z"
         id="path12343" />
      <path
         d="m 19.719014,0 h -1.659 v -1.659 q -0.609,0.882 -1.659,1.386 -1.029,0.483 -2.226,0.483 -1.68,0 -2.73,-0.84 -1.05,-0.861 -1.05,-2.247 0,-1.533 1.176,-2.31 1.176,-0.798 3.486,-0.798 h 2.982 q -0.021,-1.428 -0.756,-2.205 -0.714,-0.777 -2.058,-0.777 -0.798,0 -1.575,0.336 -0.777,0.336 -1.533,1.029 l -0.903,-1.134 q 0.882,-0.84 1.932,-1.26 1.05,-0.441 2.247,-0.441 2.037,0 3.171,1.218 1.155,1.197 1.155,3.318 z m -1.68,-4.662 h -2.961 q -1.533,0 -2.268,0.42 -0.735,0.42 -0.735,1.323 0,0.756 0.63,1.26 0.651,0.504 1.659,0.504 1.512,0 2.541,-0.966 1.05,-0.987 1.134,-2.541 z"
         id="path12345" />
      <path
         d="m 24.801009,0 -4.347,-10.143 h 1.869 l 3.297,8.106 3.276,-8.106 h 1.764 L 26.355009,0 Z"
         id="path12347" />
      <path
         d="m 36.308977,-1.134 q 1.008,0 1.848,-0.42 0.861,-0.441 1.575,-1.323 l 1.029,0.945 q -0.861,1.134 -2.016,1.701 -1.155,0.546 -2.583,0.546 -2.289,0 -3.759,-1.491 -1.449,-1.512 -1.449,-3.864 0,-2.289 1.491,-3.822 1.491,-1.533 3.675,-1.533 2.226,0 3.612,1.449 1.386,1.449 1.386,3.78 0,0.168 -0.021,0.399 -0.021,0.21 -0.042,0.315 h -8.337 q 0.168,1.491 1.155,2.415 1.008,0.903 2.436,0.903 z m -0.168,-7.812 q -1.323,0 -2.268,0.861 -0.945,0.861 -1.155,2.31 h 6.678 q -0.189,-1.47 -1.071,-2.31 -0.882,-0.861 -2.184,-0.861 z"
         id="path12349" />
      <path
         d="M 41.68499,2.709 V 1.176 h 10.668 v 1.533 z"
         id="path12351" />
      <path
         d="m 53.423982,-10.143 h 1.68 v 1.218 q 0.567,-0.735 1.281,-1.092 0.735,-0.378 1.638,-0.378 1.05,0 1.869,0.441 0.819,0.441 1.302,1.281 0.567,-0.84 1.428,-1.281 0.882,-0.441 1.974,-0.441 1.785,0 2.835,1.155 1.071,1.155 1.071,3.003 V 0 h -1.722 v -6.132 q 0,-1.281 -0.651,-1.995 -0.63,-0.735 -1.785,-0.735 -1.134,0 -1.848,0.798 -0.693,0.777 -0.693,2.037 V 0 h -1.701 v -6.132 q 0,-1.281 -0.651,-1.995 -0.63,-0.735 -1.785,-0.735 -1.134,0 -1.848,0.798 -0.693,0.777 -0.693,2.037 V 0 h -1.701 z"
         id="path12353" />
      <path
         d="m 80.702998,-5.061 q 0,2.289 -1.533,3.843 -1.533,1.533 -3.78,1.533 -2.247,0 -3.759,-1.533 -1.491,-1.533 -1.491,-3.822 0,-2.289 1.533,-3.822 1.533,-1.554 3.78,-1.554 2.247,0 3.738,1.533 1.512,1.533 1.512,3.822 z m -8.82,0.021 q 0,1.638 1.008,2.751 1.029,1.113 2.541,1.113 1.491,0 2.499,-1.113 1.029,-1.113 1.029,-2.772 0,-1.617 -1.029,-2.73 -1.029,-1.134 -2.52,-1.134 -1.491,0 -2.52,1.113 -1.008,1.113 -1.008,2.772 z"
         id="path12355" />
      <path
         d="m 90.741012,-14.7 h 1.722 V 0 h -1.701 v -1.638 q -0.693,0.882 -1.68,1.365 -0.966,0.483 -2.079,0.483 -2.121,0 -3.57,-1.47 -1.428,-1.491 -1.428,-3.78 0,-2.31 1.47,-3.822 1.491,-1.533 3.654,-1.533 1.05,0 1.974,0.441 0.945,0.42 1.638,1.218 z m -3.549,13.419 q 1.533,0 2.562,-1.092 1.05,-1.113 1.05,-2.73 0,-1.638 -1.008,-2.709 -1.008,-1.071 -2.52,-1.071 -1.554,0 -2.541,1.05 -0.987,1.05 -0.987,2.751 0,1.701 0.966,2.751 0.966,1.05 2.478,1.05 z"
         id="path12357" />
      <path
         d="m 99.561,-1.134 q 1.008,0 1.848,-0.42 0.861,-0.441 1.575,-1.323 l 1.029,0.945 q -0.861,1.134 -2.016,1.701 -1.155,0.546 -2.583,0.546 -2.289,0 -3.759,-1.491 -1.449,-1.512 -1.449,-3.864 0,-2.289 1.491,-3.822 1.491,-1.533 3.675,-1.533 2.226,0 3.612,1.449 1.386,1.449 1.386,3.78 0,0.168 -0.021,0.399 -0.021,0.21 -0.042,0.315 H 95.97 q 0.168,1.491 1.155,2.415 1.008,0.903 2.436,0.903 z m -0.168,-7.812 q -1.323,0 -2.268,0.861 -0.945,0.861 -1.155,2.31 h 6.678 q -0.189,-1.47 -1.071,-2.31 -0.882,-0.861 -2.184,-0.861 z"
         id="path12359" />
      <path
         d="m 106.28101,-14.7 h 1.722 V 0 h -1.722 z"
         id="path12361" />
      <path
         d="m 110.166,-7.329 q 0,-3.024 1.554,-5.607 1.554,-2.604 4.452,-4.41 l 0.861,1.218 q -2.478,1.659 -3.801,3.906 -1.302,2.247 -1.302,4.851 0,2.604 1.302,4.851 1.323,2.247 3.801,3.906 l -0.861,1.218 q -2.898,-1.806 -4.452,-4.368 -1.554,-2.583 -1.554,-5.565 z"
         id="path12363" />
      <path
         d="m 124.593,-7.371 q 0,3.024 -1.554,5.628 -1.554,2.583 -4.452,4.389 l -0.84,-1.218 q 2.478,-1.659 3.78,-3.906 1.302,-2.247 1.302,-4.851 0,-2.604 -1.302,-4.83 -1.302,-2.247 -3.78,-3.927 l 0.861,-1.218 q 2.877,1.806 4.431,4.389 1.554,2.562 1.554,5.544 z"
         id="path12365" />
    </g>
    <path
       d="M648.5 216.5C648.5 210.425 653.425 205.5 659.5 205.5L801.5 205.5C807.575 205.5 812.5 210.425 812.5 216.5L812.5 260.5C812.5 266.575 807.575 271.5 801.5 271.5L659.5 271.5C653.425 271.5 648.5 266.575 648.5 260.5Z"
       stroke="#00A3F6"
       stroke-width="1.33333"
       stroke-miterlimit="8"
       fill="#00A3F6"
       fill-rule="evenodd"
       id="path12216" />
    <g
       aria-label="Pipeline"
       transform="translate(688.008 247)"
       id="text12218"
       style="font-size:24px;font-family:'IntelOne Display Regular', 'IntelOne Display Regular_MSFontService', sans-serif">
      <path
         d="m 1.56,0 v -16.8 h 7.296 q 2.76,0 4.344,1.392 1.608,1.368 1.608,3.72 0,2.376 -1.728,3.816 -1.728,1.416 -4.608,1.416 H 3.624 V 0 Z m 11.136,-11.64 q 0,-1.536 -1.032,-2.4 -1.032,-0.888 -2.88,-0.888 h -5.16 v 6.624 h 4.992 q 1.872,0 2.976,-0.888 1.104,-0.912 1.104,-2.448 z"
         id="path12368" />
      <path
         d="m 16.679979,-15.48 h 2.16 v 2.136 h -2.16 z m 0.096,15.48 v -11.592 h 1.968 V 0 Z"
         id="path12370" />
      <path
         d="m 23.447964,4.32 h -1.944 v -15.912 h 1.92 v 1.872 q 0.768,-1.008 1.896,-1.56 1.128,-0.576 2.4,-0.576 2.448,0 4.08,1.704 1.632,1.68 1.632,4.32 0,2.664 -1.704,4.392 -1.68,1.704 -4.152,1.704 -1.176,0 -2.28,-0.48 -1.08,-0.504 -1.848,-1.416 z m 4.056,-14.448 q -1.752,0 -2.952,1.272 -1.176,1.248 -1.176,3.12 0,1.848 1.152,3.072 1.176,1.224 2.904,1.224 1.776,0 2.88,-1.176 1.128,-1.2 1.128,-3.168 0,-1.944 -1.104,-3.144 -1.08,-1.2 -2.832,-1.2 z"
         id="path12372" />
      <path
         d="m 41.039949,-1.296 q 1.152,0 2.112,-0.48 0.984,-0.504 1.8,-1.512 l 1.176,1.08 q -0.984,1.296 -2.304,1.944 -1.32,0.624 -2.952,0.624 -2.616,0 -4.296,-1.704 -1.656,-1.728 -1.656,-4.416 0,-2.616 1.704,-4.368 1.704,-1.752 4.2,-1.752 2.544,0 4.128,1.656 1.584,1.656 1.584,4.32 0,0.192 -0.024,0.456 -0.024,0.24 -0.048,0.36 h -9.528 q 0.192,1.704 1.32,2.76 1.152,1.032 2.784,1.032 z m -0.192,-8.928 q -1.512,0 -2.592,0.984 -1.08,0.984 -1.32,2.64 h 7.632 q -0.216,-1.68 -1.224,-2.64 -1.008,-0.984 -2.496,-0.984 z"
         id="path12374" />
      <path
         d="m 48.719964,-16.8 h 1.968 V 0 h -1.968 z"
         id="path12376" />
      <path
         d="m 53.567949,-15.48 h 2.16 v 2.136 h -2.16 z m 0.096,15.48 v -11.592 h 1.968 V 0 Z"
         id="path12378" />
      <path
         d="m 58.391934,-11.592 h 1.92 v 1.8 q 0.696,-1.008 1.752,-1.536 1.08,-0.552 2.4,-0.552 2.304,0 3.6,1.488 1.296,1.488 1.296,4.08 V 0 h -1.944 v -6.192 q 0,-1.824 -0.912,-2.88 -0.888,-1.056 -2.496,-1.056 -1.656,0 -2.664,1.128 -1.008,1.128 -1.008,2.928 V 0 h -1.944 z"
         id="path12380" />
      <path
         d="m 77.351915,-1.296 q 1.152,0 2.112,-0.48 0.984,-0.504 1.8,-1.512 l 1.176,1.08 q -0.984,1.296 -2.304,1.944 -1.32,0.624 -2.952,0.624 -2.616,0 -4.296,-1.704 -1.656,-1.728 -1.656,-4.416 0,-2.616 1.704,-4.368 1.704,-1.752 4.2,-1.752 2.544,0 4.128,1.656 1.584,1.656 1.584,4.32 0,0.192 -0.024,0.456 -0.024,0.24 -0.048,0.36 h -9.528 q 0.192,1.704 1.32,2.76 1.152,1.032 2.784,1.032 z m -0.192,-8.928 q -1.512,0 -2.592,0.984 -1.08,0.984 -1.32,2.64 h 7.632 q -0.216,-1.68 -1.224,-2.64 -1.008,-0.984 -2.496,-0.984 z"
         id="path12382" />
    </g>
    <path
       d="M498.5 223.833C498.5 219.231 502.231 215.5 506.833 215.5L611.167 215.5C615.769 215.5 619.5 219.231 619.5 223.833L619.5 257.167C619.5 261.769 615.769 265.5 611.167 265.5L506.833 265.5C502.231 265.5 498.5 261.769 498.5 257.167Z"
       stroke="#00A3F6"
       stroke-width="1.33333"
       stroke-miterlimit="8"
       fill="#00A3F6"
       fill-rule="evenodd"
       id="path12220" />
    <g
       aria-label="IEEngine"
       transform="translate(511.784 249)"
       id="text12222"
       style="font-size:24px;font-family:'IntelOne Display Regular', 'IntelOne Display Regular_MSFontService', sans-serif">
      <path
         d="M 1.728,0 V -16.8 H 3.792 V 0 Z"
         id="path12385" />
      <path
         d="m 7.079989,0 v -16.8 h 12.192 v 1.824 h -10.128 v 5.592 h 9.456 v 1.824 h -9.456 v 5.736 h 10.128 V 0 Z"
         id="path12387" />
      <path
         d="m 22.007983,0 v -16.8 h 12.192 v 1.824 h -10.128 v 5.592 h 9.456 v 1.824 h -9.456 v 5.736 h 10.128 V 0 Z"
         id="path12389" />
      <path
         d="m 36.647977,-11.592 h 1.92 v 1.8 q 0.696,-1.008 1.752,-1.536 1.08,-0.552 2.4,-0.552 2.304,0 3.6,1.488 1.296,1.488 1.296,4.08 V 0 h -1.944 v -6.192 q 0,-1.824 -0.912,-2.88 -0.888,-1.056 -2.496,-1.056 -1.656,0 -2.664,1.128 -1.008,1.128 -1.008,2.928 V 0 h -1.944 z"
         id="path12391" />
      <path
         d="m 59.495958,-1.368 v -0.816 q -0.792,0.96 -1.92,1.488 -1.104,0.528 -2.376,0.528 -2.448,0 -4.08,-1.632 -1.632,-1.632 -1.632,-4.2 0,-2.544 1.656,-4.2 1.68,-1.68 4.128,-1.68 1.248,0 2.352,0.528 1.104,0.528 1.896,1.488 v -1.728 h 1.944 V -1.44 q 0,2.88 -1.536,4.32 -1.536,1.44 -4.632,1.44 h -2.928 V 2.64 h 3.024 q 2.04,0 3.072,-1.008 1.032,-1.008 1.032,-3 z m -4.008,-0.528 q 1.728,0 2.904,-1.176 1.2,-1.2 1.2,-2.928 0,-1.776 -1.2,-2.952 -1.176,-1.2 -2.904,-1.2 -1.8,0 -2.904,1.128 -1.104,1.128 -1.104,3 0,1.848 1.104,3 1.128,1.128 2.904,1.128 z"
         id="path12393" />
      <path
         d="m 64.103975,-15.48 h 2.16 v 2.136 h -2.16 z m 0.096,15.48 v -11.592 h 1.968 V 0 Z"
         id="path12395" />
      <path
         d="m 68.92796,-11.592 h 1.92 v 1.8 q 0.696,-1.008 1.752,-1.536 1.08,-0.552 2.4,-0.552 2.304,0 3.6,1.488 1.296,1.488 1.296,4.08 V 0 h -1.944 v -6.192 q 0,-1.824 -0.912,-2.88 -0.888,-1.056 -2.496,-1.056 -1.656,0 -2.664,1.128 -1.008,1.128 -1.008,2.928 V 0 h -1.944 z"
         id="path12397" />
      <path
         d="m 87.887941,-1.296 q 1.152,0 2.112,-0.48 0.984,-0.504 1.8,-1.512 l 1.176,1.08 q -0.984,1.296 -2.304,1.944 -1.32,0.624 -2.952,0.624 -2.616,0 -4.296,-1.704 -1.656,-1.728 -1.656,-4.416 0,-2.616 1.704,-4.368 1.704,-1.752 4.2,-1.752 2.544,0 4.128,1.656 1.584,1.656 1.584,4.32 0,0.192 -0.024,0.456 -0.024,0.24 -0.048,0.36 h -9.528 q 0.192,1.704 1.32,2.76 1.152,1.032 2.784,1.032 z m -0.192,-8.928 q -1.512,0 -2.592,0.984 -1.08,0.984 -1.32,2.64 h 7.632 q -0.216,-1.68 -1.224,-2.64 -1.008,-0.984 -2.496,-0.984 z"
         id="path12399" />
    </g>
    <path
       d="M1.68475e-06-1.5 9-1.49999 9 1.50001-1.68475e-06 1.5ZM12-1.49999 21-1.49998 21 1.50002 12 1.50001ZM24-1.49997 33-1.49996 33 1.50004 24 1.50003ZM36-1.49996 45-1.49995 45 1.50005 36 1.50004ZM48-1.49995 57-1.49994 57 1.50006 48 1.50005ZM60-1.49993 69-1.49992 69 1.50008 60 1.50007ZM72-1.49992 81-1.49991 81 1.50009 72 1.50008ZM84-1.49991 85.9738-1.4999 85.9738 1.5001 84 1.50009ZM84.4738-4.49991 93.4738 0.000104987 84.4738 4.50009Z"
       transform="matrix(1 0 0 -1 128.5 135.5)"
       id="path12224" />
    <path
       d="M506 134.5 506 143.5 503 143.5 503 134.5ZM506 146.5 506 155.5 503 155.5 503 146.5ZM506 158.5 506 167.5 503 167.5 503 158.5ZM506 170.5 506 179.5 503 179.5 503 170.5ZM506 182.5 506 188.928 503 188.928 503 182.5ZM509 187.428 504.5 196.428 500 187.428Z"
       id="path12226" />
    <path
       d="M0 0 140.421 0.000104987"
       stroke="#000000"
       stroke-width="3"
       stroke-miterlimit="8"
       stroke-dasharray="9 3"
       fill="none"
       fill-rule="evenodd"
       transform="matrix(1 0 0 -1 364.5 135.5)"
       id="path12228" />
    <path
       d="M488.5 39.5001 488.5 451.552"
       stroke="#AEAEAE"
       stroke-width="3"
       stroke-miterlimit="8"
       stroke-dasharray="9 3"
       fill="none"
       fill-rule="evenodd"
       id="path12230" />
    <path
       d="M8.42867e-06-1.5 9.00001-1.49995 8.99999 1.50005-8.42867e-06 1.5ZM9.68391-4.49995 18.6839 0.000104987 9.68386 4.50005Z"
       transform="matrix(1 0 0 -1 629.5 238.5)"
       id="path12232" />
    <path
       d="M2.98341e-06-1.5 9-1.49998 9 1.50002-2.98341e-06 1.5ZM12-1.49998 21-1.49996 21 1.50004 12 1.50002ZM24-1.49995 33-1.49993 33 1.50007 24 1.50005ZM36-1.49993 45-1.49991 45 1.50009 36 1.50007ZM48-1.4999 57-1.49989 57 1.50011 48 1.5001ZM60-1.49988 69-1.49986 69 1.50014 60 1.50012ZM72-1.49986 81-1.49984 81 1.50016 72 1.50014ZM84-1.49983 93-1.49981 93 1.50018 84 1.50017ZM96-1.49981 98.0708-1.4998 98.0708 1.5002 96 1.50019ZM96.5707-4.49981 105.571 0.000209974 96.5707 4.50019Z"
       transform="matrix(-1 0 0 1 1069.07 134.5)"
       id="path12234" />
    <path
       d="M965.519 350 974.518 350.112 974.481 353.111 965.482 353ZM977.518 350.149 986.517 350.26 986.48 353.26 977.481 353.148ZM989.517 350.297 998.516 350.408 998.479 353.408 989.48 353.297ZM1001.52 350.446 1010.52 350.557 1010.48 353.557 1001.48 353.445ZM1013.51 350.594 1022.51 350.705 1022.48 353.705 1013.48 353.594ZM1025.51 350.742 1034.51 350.854 1034.48 353.854 1025.48 353.742ZM1037.51 350.891 1046.51 351.002 1046.48 354.002 1037.48 353.891ZM1049.51 351.039 1058.51 351.151 1058.47 354.15 1049.48 354.039ZM1058.45 348.15 1067.39 352.761 1058.34 357.149Z"
       id="path12236" />
    <path
       d="M732 138.5 732 147.5 729 147.5 729 138.5ZM732 150.5 732 159.5 729 159.5 729 150.5ZM732 162.5 732 171.5 729 171.5 729 162.5ZM732 174.5 732 183.5 729 183.5 729 174.5ZM732 186.5 732 195.5 729 195.5 729 186.5ZM735 196.059 730.5 205.059 726 196.059Z"
       id="path12238" />
    <path
       d="M730.5 134.5 798.974 134.5"
       stroke="#000000"
       stroke-width="3"
       stroke-miterlimit="8"
       stroke-dasharray="9 3"
       fill="none"
       fill-rule="evenodd"
       id="path12240" />
    <path
       d="M733.5 350 742.5 350 742.5 353 733.5 353ZM745.5 350 754.5 350 754.5 353 745.5 353ZM757.5 350 766.5 350 766.5 353 757.5 353ZM769.5 350 778.5 350 778.5 353 769.5 353ZM781.5 350 790.5 350 790.5 353 781.5 353ZM793.5 350 794.474 350 794.474 353 793.5 353ZM792.974 347 801.974 351.5 792.974 356Z"
       id="path12242" />
    <path
       d="M730.5 271.5 730.5 352.632"
       stroke="#000000"
       stroke-width="3"
       stroke-miterlimit="8"
       stroke-dasharray="9 3"
       fill="none"
       fill-rule="evenodd"
       id="path12244" />
    <g
       aria-label="OpenVINO IR modelOptimizedIR modelPost-training Optimization Tool APIUser’s ImplementationExistingAPIhelpers"
       transform="translate(1099.05 127)"
       id="text12266"
       style="font-size:24px;font-family:'IntelOne Display Regular', 'IntelOne Display Regular_MSFontService', sans-serif">
      <path
         d="m 0.888,-8.376 q 0,-3.72 2.472,-6.264 2.472,-2.544 6.096,-2.544 3.648,0 6.072,2.52 2.448,2.496 2.448,6.24 0,3.744 -2.472,6.288 -2.448,2.52 -6.072,2.52 -3.648,0 -6.096,-2.496 -2.448,-2.52 -2.448,-6.264 z M 3,-8.424 q 0,2.952 1.848,4.968 1.872,1.992 4.608,1.992 2.736,0 4.56,-1.968 1.848,-1.992 1.848,-4.944 0,-2.952 -1.848,-4.944 -1.848,-2.016 -4.584,-2.016 -2.76,0 -4.608,1.992 Q 3,-11.376 3,-8.424 Z"
         id="path12402" />
      <path
         d="m 22.079983,4.32 h -1.944 v -15.912 h 1.92 v 1.872 q 0.768,-1.008 1.896,-1.56 1.128,-0.576 2.4,-0.576 2.448,0 4.08,1.704 1.632,1.68 1.632,4.32 0,2.664 -1.704,4.392 -1.68,1.704 -4.152,1.704 -1.176,0 -2.28,-0.48 -1.08,-0.504 -1.848,-1.416 z m 4.056,-14.448 q -1.752,0 -2.952,1.272 -1.176,1.248 -1.176,3.12 0,1.848 1.152,3.072 1.176,1.224 2.904,1.224 1.776,0 2.88,-1.176 1.128,-1.2 1.128,-3.168 0,-1.944 -1.104,-3.144 -1.08,-1.2 -2.832,-1.2 z"
         id="path12404" />
      <path
         d="m 39.671968,-1.296 q 1.152,0 2.112,-0.48 0.984,-0.504 1.8,-1.512 l 1.176,1.08 q -0.984,1.296 -2.304,1.944 -1.32,0.624 -2.952,0.624 -2.616,0 -4.296,-1.704 -1.656,-1.728 -1.656,-4.416 0,-2.616 1.704,-4.368 1.704,-1.752 4.2,-1.752 2.544,0 4.128,1.656 1.584,1.656 1.584,4.32 0,0.192 -0.024,0.456 -0.024,0.24 -0.048,0.36 h -9.528 q 0.192,1.704 1.32,2.76 1.152,1.032 2.784,1.032 z m -0.192,-8.928 q -1.512,0 -2.592,0.984 -1.08,0.984 -1.32,2.64 h 7.632 q -0.216,-1.68 -1.224,-2.64 -1.008,-0.984 -2.496,-0.984 z"
         id="path12406" />
      <path
         d="m 47.135983,-11.592 h 1.92 v 1.8 q 0.696,-1.008 1.752,-1.536 1.08,-0.552 2.4,-0.552 2.304,0 3.6,1.488 1.296,1.488 1.296,4.08 V 0 h -1.944 v -6.192 q 0,-1.824 -0.912,-2.88 -0.888,-1.056 -2.496,-1.056 -1.656,0 -2.664,1.128 -1.008,1.128 -1.008,2.928 V 0 h -1.944 z"
         id="path12408" />
      <path
         d="m 65.783982,0 -7.44,-16.8 h 2.256 l 6.264,14.16 6.192,-14.16 h 2.208 l -7.44,16.8 z"
         id="path12410" />
      <path
         d="m 77.327991,0 v -16.8 h 2.064 V 0 Z"
         id="path12412" />
      <path
         d="M 84.69598,-13.8 V 0 h -2.016 v -16.8 h 2.208 l 10.488,13.728 V -16.8 h 2.016 V 0 h -2.16 z"
         id="path12414" />
      <path
         d="m 99.839981,-8.376 q 0,-3.72 2.471999,-6.264 2.472,-2.544 6.096,-2.544 3.648,0 6.072,2.52 2.448,2.496 2.448,6.24 0,3.744 -2.472,6.288 -2.448,2.52 -6.072,2.52 -3.648,0 -6.096,-2.496 -2.447999,-2.52 -2.447999,-6.264 z m 2.111999,-0.048 q 0,2.952 1.848,4.968 1.872,1.992 4.608,1.992 2.736,0 4.56,-1.968 1.848,-1.992 1.848,-4.944 0,-2.952 -1.848,-4.944 -1.848,-2.016 -4.584,-2.016 -2.76,0 -4.608,1.992 -1.824,1.968 -1.824,4.92 z"
         id="path12416" />
      <path
         d="M 15.5613,29 V 12.2 h 2.064 V 29 Z"
         id="path12418" />
      <path
         d="m 29.913289,21.92 4.776,7.08 h -2.448 l -4.536,-6.84 h -4.728 V 29 h -2.064 V 12.2 h 7.392 q 2.832,0 4.416,1.32 1.584,1.296 1.584,3.576 0,1.872 -1.152,3.144 -1.152,1.272 -3.24,1.68 z m 2.304,-4.776 q 0,-1.464 -1.056,-2.28 -1.032,-0.84 -2.904,-0.84 h -5.28 v 6.336 h 5.112 q 1.896,0 3,-0.864 1.128,-0.888 1.128,-2.352 z"
         id="path12420" />
      <path
         d="m 41.097258,17.408 h 1.92 V 18.8 q 0.648,-0.84 1.464,-1.248 0.84,-0.432 1.872,-0.432 1.2,0 2.136,0.504 0.936,0.504 1.488,1.464 0.648,-0.96 1.632,-1.464 1.008,-0.504 2.256,-0.504 2.04,0 3.24,1.32 1.224,1.32 1.224,3.432 V 29 h -1.968 v -7.008 q 0,-1.464 -0.744,-2.28 -0.72,-0.84 -2.04,-0.84 -1.296,0 -2.112,0.912 -0.792,0.888 -0.792,2.328 V 29 h -1.944 v -7.008 q 0,-1.464 -0.744,-2.28 -0.72,-0.84 -2.04,-0.84 -1.296,0 -2.112,0.912 -0.792,0.888 -0.792,2.328 V 29 h -1.944 z"
         id="path12422" />
      <path
         d="m 72.273277,23.216 q 0,2.616 -1.752,4.392 -1.752,1.752 -4.32,1.752 -2.568,0 -4.296,-1.752 -1.704,-1.752 -1.704,-4.368 0,-2.616 1.752,-4.368 1.752,-1.776 4.32,-1.776 2.568,0 4.272,1.752 1.728,1.752 1.728,4.368 z m -10.08,0.024 q 0,1.872 1.152,3.144 1.176,1.272 2.904,1.272 1.704,0 2.856,-1.272 1.176,-1.272 1.176,-3.168 0,-1.848 -1.176,-3.12 -1.176,-1.296 -2.88,-1.296 -1.704,0 -2.88,1.272 -1.152,1.272 -1.152,3.168 z"
         id="path12424" />
      <path
         d="m 83.74529,12.2 h 1.968 V 29 h -1.944 v -1.872 q -0.792,1.008 -1.92,1.56 -1.104,0.552 -2.376,0.552 -2.424,0 -4.08,-1.68 -1.632,-1.704 -1.632,-4.32 0,-2.64 1.68,-4.368 1.704,-1.752 4.176,-1.752 1.2,0 2.256,0.504 1.08,0.48 1.872,1.392 z m -4.056,15.336 q 1.752,0 2.928,-1.248 1.2,-1.272 1.2,-3.12 0,-1.872 -1.152,-3.096 -1.152,-1.224 -2.88,-1.224 -1.776,0 -2.904,1.2 -1.128,1.2 -1.128,3.144 0,1.944 1.104,3.144 1.104,1.2 2.832,1.2 z"
         id="path12426" />
      <path
         d="m 93.825275,27.704 q 1.152,0 2.112,-0.48 0.984,-0.504 1.8,-1.512 l 1.176,1.08 q -0.984,1.296 -2.304,1.944 -1.32,0.624 -2.952,0.624 -2.616,0 -4.296,-1.704 -1.656,-1.728 -1.656,-4.416 0,-2.616 1.704,-4.368 1.704,-1.752 4.2,-1.752 2.544,0 4.128,1.656 1.584,1.656 1.584,4.32 0,0.192 -0.024,0.456 -0.024,0.24 -0.048,0.36 h -9.528 q 0.192,1.704 1.32,2.76 1.152,1.032 2.784,1.032 z m -0.192,-8.928 q -1.512,0 -2.592,0.984 -1.08,0.984 -1.32,2.64 h 7.632 q -0.216,-1.68 -1.224,-2.64 -1.008,-0.984 -2.496,-0.984 z"
         id="path12428" />
      <path
         d="m 101.50529,12.2 h 1.968 V 29 h -1.968 z"
         id="path12430" />
      <path
         d="m 2.06171,211.624 q 0,-3.72 2.472,-6.264 2.472,-2.544 6.096,-2.544 3.648,0 6.072,2.52 2.448,2.496 2.448,6.24 0,3.744 -2.472,6.288 -2.448,2.52 -6.072,2.52 -3.648,0 -6.096,-2.496 -2.448,-2.52 -2.448,-6.264 z m 2.112,-0.048 q 0,2.952 1.848,4.968 1.872,1.992 4.608,1.992 2.736,0 4.56,-1.968 1.848,-1.992 1.848,-4.944 0,-2.952 -1.848,-4.944 -1.848,-2.016 -4.584,-2.016 -2.76,0 -4.608,1.992 -1.824,1.968 -1.824,4.92 z"
         id="path12432" />
      <path
         d="m 23.253693,224.32 h -1.944 v -15.912 h 1.92 v 1.872 q 0.768,-1.008 1.896,-1.56 1.128,-0.576 2.4,-0.576 2.448,0 4.08,1.704 1.632,1.68 1.632,4.32 0,2.664 -1.704,4.392 -1.68,1.704 -4.152,1.704 -1.176,0 -2.28,-0.48 -1.08,-0.504 -1.848,-1.416 z m 4.056,-14.448 q -1.752,0 -2.952,1.272 -1.176,1.248 -1.176,3.12 0,1.848 1.152,3.072 1.176,1.224 2.904,1.224 1.776,0 2.88,-1.176 1.128,-1.2 1.128,-3.168 0,-1.944 -1.104,-3.144 -1.08,-1.2 -2.832,-1.2 z"
         id="path12434" />
      <path
         d="m 35.781698,216.904 v -6.768 h -1.584 v -1.728 h 1.584 v -3.552 h 1.944 v 3.552 h 2.688 v 1.728 h -2.688 v 6.6 q 0,0.768 0.336,1.152 0.36,0.36 1.08,0.36 h 1.272 V 220 h -1.56 q -1.608,0 -2.352,-0.744 -0.72,-0.744 -0.72,-2.352 z"
         id="path12436" />
      <path
         d="m 42.501699,204.52 h 2.16 v 2.136 h -2.16 z m 0.096,15.48 v -11.592 h 1.968 V 220 Z"
         id="path12438" />
      <path
         d="m 47.325684,208.408 h 1.92 v 1.392 q 0.648,-0.84 1.464,-1.248 0.84,-0.432 1.872,-0.432 1.2,0 2.136,0.504 0.936,0.504 1.488,1.464 0.648,-0.96 1.632,-1.464 1.008,-0.504 2.256,-0.504 2.04,0 3.24,1.32 1.224,1.32 1.224,3.432 V 220 h -1.968 v -7.008 q 0,-1.464 -0.744,-2.28 -0.72,-0.84 -2.04,-0.84 -1.296,0 -2.112,0.912 -0.792,0.888 -0.792,2.328 V 220 h -1.944 v -7.008 q 0,-1.464 -0.744,-2.28 -0.72,-0.84 -2.04,-0.84 -1.296,0 -2.112,0.912 -0.792,0.888 -0.792,2.328 V 220 h -1.944 z"
         id="path12440" />
      <path
         d="m 67.077703,204.52 h 2.16 v 2.136 h -2.16 z m 0.096,15.48 v -11.592 h 1.968 V 220 Z"
         id="path12442" />
      <path
         d="m 81.309688,220 h -10.152 v -1.536 l 7.392,-8.424 h -7.104 v -1.632 h 9.552 v 1.536 l -7.32,8.424 h 7.632 z"
         id="path12444" />
      <path
         d="m 88.26972,218.704 q 1.152,0 2.112,-0.48 0.984,-0.504 1.8,-1.512 l 1.176,1.08 q -0.984,1.296 -2.304,1.944 -1.32,0.624 -2.952,0.624 -2.616,0 -4.296,-1.704 -1.656,-1.728 -1.656,-4.416 0,-2.616 1.704,-4.368 1.704,-1.752 4.2,-1.752 2.544,0 4.128,1.656 1.584,1.656 1.584,4.32 0,0.192 -0.024,0.456 -0.024,0.24 -0.048,0.36 h -9.528 q 0.192,1.704 1.32,2.76 1.152,1.032 2.784,1.032 z m -0.192,-8.928 q -1.512,0 -2.592,0.984 -1.08,0.984 -1.32,2.64 h 7.632 q -0.216,-1.68 -1.224,-2.64 -1.008,-0.984 -2.496,-0.984 z"
         id="path12446" />
      <path
         d="m 105.18973,203.2 h 1.968 V 220 h -1.944 v -1.872 q -0.792,1.008 -1.92,1.56 -1.104,0.552 -2.376,0.552 -2.423995,0 -4.079995,-1.68 -1.632,-1.704 -1.632,-4.32 0,-2.64 1.68,-4.368 1.704,-1.752 4.175995,-1.752 1.2,0 2.256,0.504 1.08,0.48 1.872,1.392 z m -4.056,15.336 q 1.752,0 2.928,-1.248 1.2,-1.272 1.2,-3.12 0,-1.872 -1.152,-3.096 -1.152,-1.224 -2.88,-1.224 -1.775995,0 -2.903995,1.2 -1.128,1.2 -1.128,3.144 0,1.944 1.104,3.144 1.104,1.2 2.831995,1.2 z"
         id="path12448" />
      <path
         d="m 11.23508,249 v -16.8 h 2.064 V 249 Z"
         id="path12450" />
      <path
         d="m 25.587069,241.92 4.776,7.08 h -2.448 l -4.536,-6.84 h -4.728 V 249 h -2.064 v -16.8 h 7.392 q 2.832,0 4.416,1.32 1.584,1.296 1.584,3.576 0,1.872 -1.152,3.144 -1.152,1.272 -3.24,1.68 z m 2.304,-4.776 q 0,-1.464 -1.056,-2.28 -1.032,-0.84 -2.904,-0.84 h -5.28 v 6.336 h 5.112 q 1.896,0 3,-0.864 1.128,-0.888 1.128,-2.352 z"
         id="path12452" />
      <path
         d="m 36.771039,237.408 h 1.92 v 1.392 q 0.648,-0.84 1.464,-1.248 0.84,-0.432 1.872,-0.432 1.2,0 2.136,0.504 0.936,0.504 1.488,1.464 0.648,-0.96 1.632,-1.464 1.008,-0.504 2.256,-0.504 2.04,0 3.24,1.32 1.224,1.32 1.224,3.432 V 249 h -1.968 v -7.008 q 0,-1.464 -0.744,-2.28 -0.72,-0.84 -2.04,-0.84 -1.296,0 -2.112,0.912 -0.792,0.888 -0.792,2.328 V 249 h -1.944 v -7.008 q 0,-1.464 -0.744,-2.28 -0.72,-0.84 -2.04,-0.84 -1.296,0 -2.112,0.912 -0.792,0.888 -0.792,2.328 V 249 h -1.944 z"
         id="path12454" />
      <path
         d="m 67.947058,243.216 q 0,2.616 -1.752,4.392 -1.752,1.752 -4.32,1.752 -2.568,0 -4.296,-1.752 -1.704,-1.752 -1.704,-4.368 0,-2.616 1.752,-4.368 1.752,-1.776 4.32,-1.776 2.568,0 4.272,1.752 1.728,1.752 1.728,4.368 z m -10.08,0.024 q 0,1.872 1.152,3.144 1.176,1.272 2.904,1.272 1.704,0 2.856,-1.272 1.176,-1.272 1.176,-3.168 0,-1.848 -1.176,-3.12 -1.176,-1.296 -2.88,-1.296 -1.704,0 -2.88,1.272 -1.152,1.272 -1.152,3.168 z"
         id="path12456" />
      <path
         d="m 79.419071,232.2 h 1.968 V 249 h -1.944 v -1.872 q -0.792,1.008 -1.92,1.56 -1.104,0.552 -2.376,0.552 -2.424,0 -4.08,-1.68 -1.632,-1.704 -1.632,-4.32 0,-2.64 1.68,-4.368 1.704,-1.752 4.176,-1.752 1.2,0 2.256,0.504 1.08,0.48 1.872,1.392 z m -4.056,15.336 q 1.752,0 2.928,-1.248 1.2,-1.272 1.2,-3.12 0,-1.872 -1.152,-3.096 -1.152,-1.224 -2.88,-1.224 -1.776,0 -2.904,1.2 -1.128,1.2 -1.128,3.144 0,1.944 1.104,3.144 1.104,1.2 2.832,1.2 z"
         id="path12458" />
      <path
         d="m 89.499056,247.704 q 1.152,0 2.112,-0.48 0.984,-0.504 1.8,-1.512 l 1.176,1.08 q -0.984,1.296 -2.304,1.944 -1.32,0.624 -2.952,0.624 -2.616,0 -4.296,-1.704 -1.656,-1.728 -1.656,-4.416 0,-2.616 1.704,-4.368 1.704,-1.752 4.2,-1.752 2.544,0 4.128,1.656 1.584,1.656 1.584,4.32 0,0.192 -0.024,0.456 -0.024,0.24 -0.048,0.36 h -9.528 q 0.192,1.704 1.32,2.76 1.152,1.032 2.784,1.032 z m -0.192,-8.928 q -1.512,0 -2.592,0.984 -1.08,0.984 -1.32,2.64 h 7.632 q -0.216,-1.68 -1.224,-2.64 -1.008,-0.984 -2.496,-0.984 z"
         id="path12460" />
      <path
         d="m 97.179071,232.2 h 1.968 V 249 h -1.968 z"
         id="path12462" />
      <path
         d="m -743.46999,-50 v -22.4 h 9.728 q 3.68,0 5.792,1.856 2.144,1.824 2.144,4.96 0,3.168 -2.304,5.088 -2.304,1.888 -6.144,1.888 h -6.464 V -50 Z m 14.848,-15.52 q 0,-2.048 -1.376,-3.2 -1.376,-1.184 -3.84,-1.184 h -6.88 v 8.832 h 6.656 q 2.496,0 3.968,-1.184 1.472,-1.216 1.472,-3.264 z"
         style="font-size:32px"
         id="path12464" />
      <path
         d="m -708.654,-57.712 q 0,3.488 -2.336,5.856 -2.336,2.336 -5.76,2.336 -3.424,0 -5.728,-2.336 -2.272,-2.336 -2.272,-5.824 0,-3.488 2.336,-5.824 2.336,-2.368 5.76,-2.368 3.424,0 5.696,2.336 2.304,2.336 2.304,5.824 z m -13.44,0.032 q 0,2.496 1.536,4.192 1.568,1.696 3.872,1.696 2.272,0 3.808,-1.696 1.568,-1.696 1.568,-4.224 0,-2.464 -1.568,-4.16 -1.568,-1.728 -3.84,-1.728 -2.272,0 -3.84,1.696 -1.536,1.696 -1.536,4.224 z"
         style="font-size:32px"
         id="path12466" />
      <path
         d="m -693.51799,-54.512 q 0,2.176 -1.856,3.552 -1.856,1.376 -4.832,1.376 -1.952,0 -3.68,-0.608 -1.696,-0.64 -3.072,-1.888 l 1.344,-1.984 q 1.472,1.216 2.752,1.76 1.28,0.544 2.72,0.544 1.856,0 2.976,-0.704 1.152,-0.736 1.152,-1.888 0,-1.184 -0.96,-1.696 -0.96,-0.544 -3.168,-0.576 -3.232,-0.128 -4.736,-1.184 -1.472,-1.056 -1.472,-3.296 0,-2.048 1.696,-3.392 1.728,-1.376 4.416,-1.376 1.824,0 3.424,0.576 1.6,0.576 2.912,1.696 l -1.248,1.952 q -1.312,-1.056 -2.528,-1.536 -1.216,-0.48 -2.592,-0.48 -1.568,0 -2.592,0.704 -0.992,0.704 -0.992,1.728 0,1.12 0.896,1.632 0.896,0.512 2.848,0.608 3.488,0.096 5.024,1.152 1.568,1.056 1.568,3.328 z"
         style="font-size:32px"
         id="path12468" />
      <path
         d="m -690.18994,-54.128 v -9.024 h -2.112 v -2.304 h 2.112 v -4.736 h 2.592 v 4.736 h 3.584 v 2.304 h -3.584 v 8.8 q 0,1.024 0.448,1.536 0.48,0.48 1.44,0.48 h 1.696 V -50 h -2.08 q -2.144,0 -3.136,-0.992 -0.96,-0.992 -0.96,-3.136 z"
         style="font-size:32px"
         id="path12470" />
      <path
         d="m -681.65399,-57.968 v -2.496 h 8.352 v 2.496 z"
         style="font-size:32px"
         id="path12472" />
      <path
         d="m -669.82397,-54.128 v -9.024 h -2.112 v -2.304 h 2.112 v -4.736 h 2.592 v 4.736 h 3.584 v 2.304 h -3.584 v 8.8 q 0,1.024 0.448,1.536 0.48,0.48 1.44,0.48 h 1.696 V -50 h -2.08 q -2.144,0 -3.136,-0.992 -0.96,-0.992 -0.96,-3.136 z"
         style="font-size:32px"
         id="path12474" />
      <path
         d="m -661.02397,-65.456 h 2.56 v 1.952 q 0.704,-1.024 1.824,-1.536 1.12,-0.512 2.656,-0.512 h 1.408 v 2.464 h -1.44 q -2.208,0 -3.328,1.152 -1.088,1.152 -1.088,3.488 V -50 h -2.592 z"
         style="font-size:32px"
         id="path12476" />
      <path
         d="m -637.82399,-50 h -2.528 v -2.528 q -0.928,1.344 -2.528,2.112 -1.568,0.736 -3.392,0.736 -2.56,0 -4.16,-1.28 -1.6,-1.312 -1.6,-3.424 0,-2.336 1.792,-3.52 1.792,-1.216 5.312,-1.216 h 4.544 q -0.032,-2.176 -1.152,-3.36 -1.088,-1.184 -3.136,-1.184 -1.216,0 -2.4,0.512 -1.184,0.512 -2.336,1.568 l -1.376,-1.728 q 1.344,-1.28 2.944,-1.92 1.6,-0.672 3.424,-0.672 3.104,0 4.832,1.856 1.76,1.824 1.76,5.056 z m -2.56,-7.104 h -4.512 q -2.336,0 -3.456,0.64 -1.12,0.64 -1.12,2.016 0,1.152 0.96,1.92 0.992,0.768 2.528,0.768 2.304,0 3.872,-1.472 1.6,-1.504 1.728,-3.872 z"
         style="font-size:32px"
         id="path12478" />
      <path
         d="m -634.46401,-70.64 h 2.88 v 2.848 h -2.88 z m 0.128,20.64 v -15.456 h 2.624 V -50 Z"
         style="font-size:32px"
         id="path12480" />
      <path
         d="m -628.03203,-65.456 h 2.56 v 2.4 q 0.928,-1.344 2.336,-2.048 1.44,-0.736 3.2,-0.736 3.072,0 4.8,1.984 1.728,1.984 1.728,5.44 V -50 h -2.592 v -8.256 q 0,-2.432 -1.216,-3.84 -1.184,-1.408 -3.328,-1.408 -2.208,0 -3.552,1.504 -1.344,1.504 -1.344,3.904 V -50 h -2.592 z"
         style="font-size:32px"
         id="path12482" />
      <path
         d="m -610.04805,-70.64 h 2.88 v 2.848 h -2.88 z m 0.128,20.64 v -15.456 h 2.624 V -50 Z"
         style="font-size:32px"
         id="path12484" />
      <path
         d="m -603.61607,-65.456 h 2.56 v 2.4 q 0.928,-1.344 2.336,-2.048 1.44,-0.736 3.2,-0.736 3.072,0 4.8,1.984 1.728,1.984 1.728,5.44 V -50 h -2.592 v -8.256 q 0,-2.432 -1.216,-3.84 -1.184,-1.408 -3.328,-1.408 -2.208,0 -3.552,1.504 -1.344,1.504 -1.344,3.904 V -50 h -2.592 z"
         style="font-size:32px"
         id="path12486" />
      <path
         d="m -573.1521,-51.824 v -1.088 q -1.056,1.28 -2.56,1.984 -1.472,0.704 -3.168,0.704 -3.264,0 -5.44,-2.176 -2.176,-2.176 -2.176,-5.6 0,-3.392 2.208,-5.6 2.24,-2.24 5.504,-2.24 1.664,0 3.136,0.704 1.472,0.704 2.528,1.984 v -2.304 h 2.592 v 13.536 q 0,3.84 -2.048,5.76 -2.048,1.92 -6.176,1.92 h -3.904 v -2.24 h 4.032 q 2.72,0 4.096,-1.344 1.376,-1.344 1.376,-4 z m -5.344,-0.704 q 2.304,0 3.872,-1.568 1.6,-1.6 1.6,-3.904 0,-2.368 -1.6,-3.936 -1.568,-1.6 -3.872,-1.6 -2.4,0 -3.872,1.504 -1.472,1.504 -1.472,4 0,2.464 1.472,4 1.504,1.504 3.872,1.504 z"
         style="font-size:32px"
         id="path12488" />
      <path
         d="m -561.76009,-61.168 q 0,-4.96 3.296,-8.352 3.296,-3.392 8.128,-3.392 4.864,0 8.096,3.36 3.264,3.328 3.264,8.32 0,4.992 -3.296,8.384 -3.264,3.36 -8.096,3.36 -4.864,0 -8.128,-3.328 -3.264,-3.36 -3.264,-8.352 z m 2.816,-0.064 q 0,3.936 2.464,6.624 2.496,2.656 6.144,2.656 3.648,0 6.08,-2.624 2.464,-2.656 2.464,-6.592 0,-3.936 -2.464,-6.592 -2.464,-2.688 -6.112,-2.688 -3.68,0 -6.144,2.656 -2.432,2.624 -2.432,6.56 z"
         style="font-size:32px"
         id="path12490" />
      <path
         d="m -533.50411,-44.24 h -2.592 v -21.216 h 2.56 v 2.496 q 1.024,-1.344 2.528,-2.08 1.504,-0.768 3.2,-0.768 3.264,0 5.44,2.272 2.176,2.24 2.176,5.76 0,3.552 -2.272,5.856 -2.24,2.272 -5.536,2.272 -1.568,0 -3.04,-0.64 -1.44,-0.672 -2.464,-1.888 z m 5.408,-19.264 q -2.336,0 -3.936,1.696 -1.568,1.664 -1.568,4.16 0,2.464 1.536,4.096 1.568,1.632 3.872,1.632 2.368,0 3.84,-1.568 1.504,-1.6 1.504,-4.224 0,-2.592 -1.472,-4.192 -1.44,-1.6 -3.776,-1.6 z"
         style="font-size:32px"
         id="path12492" />
      <path
         d="m -516.80011,-54.128 v -9.024 h -2.112 v -2.304 h 2.112 v -4.736 h 2.592 v 4.736 h 3.584 v 2.304 h -3.584 v 8.8 q 0,1.024 0.448,1.536 0.48,0.48 1.44,0.48 h 1.696 V -50 h -2.08 q -2.144,0 -3.136,-0.992 -0.96,-0.992 -0.96,-3.136 z"
         style="font-size:32px"
         id="path12494" />
      <path
         d="m -507.84011,-70.64 h 2.88 v 2.848 h -2.88 z m 0.128,20.64 v -15.456 h 2.624 V -50 Z"
         style="font-size:32px"
         id="path12496" />
      <path
         d="m -501.40813,-65.456 h 2.56 v 1.856 q 0.864,-1.12 1.952,-1.664 1.12,-0.576 2.496,-0.576 1.6,0 2.848,0.672 1.248,0.672 1.984,1.952 0.864,-1.28 2.176,-1.952 1.344,-0.672 3.008,-0.672 2.72,0 4.32,1.76 1.632,1.76 1.632,4.576 V -50 h -2.624 v -9.344 q 0,-1.952 -0.992,-3.04 -0.96,-1.12 -2.72,-1.12 -1.728,0 -2.816,1.216 -1.056,1.184 -1.056,3.104 V -50 h -2.592 v -9.344 q 0,-1.952 -0.992,-3.04 -0.96,-1.12 -2.72,-1.12 -1.728,0 -2.816,1.216 -1.056,1.184 -1.056,3.104 V -50 h -2.592 z"
         style="font-size:32px"
         id="path12498" />
      <path
         d="m -475.0721,-70.64 h 2.88 v 2.848 h -2.88 z m 0.128,20.64 v -15.456 h 2.624 V -50 Z"
         style="font-size:32px"
         id="path12500" />
      <path
         d="m -456.09612,-50 h -13.536 v -2.048 l 9.856,-11.232 h -9.472 v -2.176 h 12.736 v 2.048 l -9.76,11.232 h 10.176 z"
         style="font-size:32px"
         id="path12502" />
      <path
         d="m -440.41609,-50 h -2.528 v -2.528 q -0.928,1.344 -2.528,2.112 -1.568,0.736 -3.392,0.736 -2.56,0 -4.16,-1.28 -1.6,-1.312 -1.6,-3.424 0,-2.336 1.792,-3.52 1.792,-1.216 5.312,-1.216 h 4.544 q -0.032,-2.176 -1.152,-3.36 -1.088,-1.184 -3.136,-1.184 -1.216,0 -2.4,0.512 -1.184,0.512 -2.336,1.568 l -1.376,-1.728 q 1.344,-1.28 2.944,-1.92 1.6,-0.672 3.424,-0.672 3.104,0 4.832,1.856 1.76,1.824 1.76,5.056 z m -2.56,-7.104 h -4.512 q -2.336,0 -3.456,0.64 -1.12,0.64 -1.12,2.016 0,1.152 0.96,1.92 0.992,0.768 2.528,0.768 2.304,0 3.872,-1.472 1.6,-1.504 1.728,-3.872 z"
         style="font-size:32px"
         id="path12504" />
      <path
         d="m -436.51208,-54.128 v -9.024 h -2.112 v -2.304 h 2.112 v -4.736 h 2.592 v 4.736 h 3.584 v 2.304 h -3.584 v 8.8 q 0,1.024 0.448,1.536 0.48,0.48 1.44,0.48 h 1.696 V -50 h -2.08 q -2.144,0 -3.136,-0.992 -0.96,-0.992 -0.96,-3.136 z"
         style="font-size:32px"
         id="path12506" />
      <path
         d="m -427.55208,-70.64 h 2.88 v 2.848 h -2.88 z m 0.128,20.64 v -15.456 h 2.624 V -50 Z"
         style="font-size:32px"
         id="path12508" />
      <path
         d="m -405.7281,-57.712 q 0,3.488 -2.336,5.856 -2.336,2.336 -5.76,2.336 -3.424,0 -5.728,-2.336 -2.272,-2.336 -2.272,-5.824 0,-3.488 2.336,-5.824 2.336,-2.368 5.76,-2.368 3.424,0 5.696,2.336 2.304,2.336 2.304,5.824 z m -13.44,0.032 q 0,2.496 1.536,4.192 1.568,1.696 3.872,1.696 2.272,0 3.808,-1.696 1.568,-1.696 1.568,-4.224 0,-2.464 -1.568,-4.16 -1.568,-1.728 -3.84,-1.728 -2.272,0 -3.84,1.696 -1.536,1.696 -1.536,4.224 z"
         style="font-size:32px"
         id="path12510" />
      <path
         d="m -403.04008,-65.456 h 2.56 v 2.4 q 0.928,-1.344 2.336,-2.048 1.44,-0.736 3.2,-0.736 3.072,0 4.8,1.984 1.728,1.984 1.728,5.44 V -50 h -2.592 v -8.256 q 0,-2.432 -1.216,-3.84 -1.184,-1.408 -3.328,-1.408 -2.208,0 -3.552,1.504 -1.344,1.504 -1.344,3.904 V -50 h -2.592 z"
         style="font-size:32px"
         id="path12512" />
      <path
         d="m -371.96813,-69.904 h -8.704 V -72.4 h 20.128 v 2.496 h -8.672 V -50 h -2.752 z"
         style="font-size:32px"
         id="path12514" />
      <path
         d="m -345.9521,-57.712 q 0,3.488 -2.336,5.856 -2.336,2.336 -5.76,2.336 -3.424,0 -5.728,-2.336 -2.272,-2.336 -2.272,-5.824 0,-3.488 2.336,-5.824 2.336,-2.368 5.76,-2.368 3.424,0 5.696,2.336 2.304,2.336 2.304,5.824 z m -13.44,0.032 q 0,2.496 1.536,4.192 1.568,1.696 3.872,1.696 2.272,0 3.808,-1.696 1.568,-1.696 1.568,-4.224 0,-2.464 -1.568,-4.16 -1.568,-1.728 -3.84,-1.728 -2.272,0 -3.84,1.696 -1.536,1.696 -1.536,4.224 z"
         style="font-size:32px"
         id="path12516" />
      <path
         d="m -327.87208,-57.712 q 0,3.488 -2.336,5.856 -2.336,2.336 -5.76,2.336 -3.424,0 -5.728,-2.336 -2.272,-2.336 -2.272,-5.824 0,-3.488 2.336,-5.824 2.336,-2.368 5.76,-2.368 3.424,0 5.696,2.336 2.304,2.336 2.304,5.824 z m -13.44,0.032 q 0,2.496 1.536,4.192 1.568,1.696 3.872,1.696 2.272,0 3.808,-1.696 1.568,-1.696 1.568,-4.224 0,-2.464 -1.568,-4.16 -1.568,-1.728 -3.84,-1.728 -2.272,0 -3.84,1.696 -1.536,1.696 -1.536,4.224 z"
         style="font-size:32px"
         id="path12518" />
      <path
         d="m -324.89607,-72.4 h 2.624 V -50 h -2.624 z"
         style="font-size:32px"
         id="path12520" />
      <path
         d="m -308.1281,-56.752 -2.944,6.752 h -2.88 l 9.952,-22.4 h 2.688 l 9.92,22.4 h -2.912 l -2.976,-6.752 z m 5.408,-12.352 -4.32,9.92 h 8.704 z"
         style="font-size:32px"
         id="path12522" />
      <path
         d="m -288.86409,-50 v -22.4 h 9.728 q 3.68,0 5.792,1.856 2.144,1.824 2.144,4.96 0,3.168 -2.304,5.088 -2.304,1.888 -6.144,1.888 h -6.464 V -50 Z m 14.848,-15.52 q 0,-2.048 -1.376,-3.2 -1.376,-1.184 -3.84,-1.184 h -6.88 v 8.832 h 6.656 q 2.496,0 3.968,-1.184 1.472,-1.216 1.472,-3.264 z"
         style="font-size:32px"
         id="path12524" />
      <path
         d="m -268.25612,-50 v -22.4 h 2.752 V -50 Z"
         style="font-size:32px"
         id="path12526" />
      <path
         d="m -818.60197,312.841 q 1.976,0 3.192,-1.33 1.235,-1.349 1.235,-3.496 V 300.7 h 1.615 v 7.353 q 0,2.812 -1.672,4.541 -1.672,1.71 -4.408,1.71 -2.736,0 -4.389,-1.71 -1.653,-1.729 -1.653,-4.541 V 300.7 h 1.634 v 7.315 q 0,2.147 1.235,3.496 1.235,1.33 3.211,1.33 z"
         style="font-size:19px"
         id="path12528" />
      <path
         d="m -803.17397,311.321 q 0,1.292 -1.102,2.109 -1.102,0.817 -2.869,0.817 -1.159,0 -2.185,-0.361 -1.007,-0.38 -1.824,-1.121 l 0.798,-1.178 q 0.874,0.722 1.634,1.045 0.76,0.323 1.615,0.323 1.102,0 1.767,-0.418 0.684,-0.437 0.684,-1.121 0,-0.703 -0.57,-1.007 -0.57,-0.323 -1.881,-0.342 -1.919,-0.076 -2.812,-0.703 -0.874,-0.627 -0.874,-1.957 0,-1.216 1.007,-2.014 1.026,-0.817 2.622,-0.817 1.083,0 2.033,0.342 0.95,0.342 1.729,1.007 l -0.741,1.159 q -0.779,-0.627 -1.501,-0.912 -0.722,-0.285 -1.539,-0.285 -0.931,0 -1.539,0.418 -0.589,0.418 -0.589,1.026 0,0.665 0.532,0.969 0.532,0.304 1.691,0.361 2.071,0.057 2.983,0.684 0.931,0.627 0.931,1.976 z"
         style="font-size:19px"
         id="path12530" />
      <path
         d="m -797.18895,312.974 q 0.912,0 1.672,-0.38 0.779,-0.399 1.425,-1.197 l 0.931,0.855 q -0.779,1.026 -1.824,1.539 -1.045,0.494 -2.337,0.494 -2.071,0 -3.401,-1.349 -1.311,-1.368 -1.311,-3.496 0,-2.071 1.349,-3.458 1.349,-1.387 3.325,-1.387 2.014,0 3.268,1.311 1.254,1.311 1.254,3.42 0,0.152 -0.019,0.361 -0.019,0.19 -0.038,0.285 h -7.543 q 0.152,1.349 1.045,2.185 0.912,0.817 2.204,0.817 z m -0.152,-7.068 q -1.197,0 -2.052,0.779 -0.855,0.779 -1.045,2.09 h 6.042 q -0.171,-1.33 -0.969,-2.09 -0.798,-0.779 -1.976,-0.779 z"
         style="font-size:19px"
         id="path12532" />
      <path
         d="m -791.27994,304.823 h 1.52 v 1.159 q 0.418,-0.608 1.083,-0.912 0.665,-0.304 1.577,-0.304 h 0.836 v 1.463 h -0.855 q -1.311,0 -1.976,0.684 -0.646,0.684 -0.646,2.071 V 314 h -1.539 z"
         style="font-size:19px"
         id="path12534" />
      <path
         d="m -783.88893,304.652 h -1.178 l 1.197,-3.952 h 1.824 z"
         style="font-size:19px"
         id="path12536" />
      <path
         d="m -774.82595,311.321 q 0,1.292 -1.102,2.109 -1.102,0.817 -2.869,0.817 -1.159,0 -2.185,-0.361 -1.007,-0.38 -1.824,-1.121 l 0.798,-1.178 q 0.874,0.722 1.634,1.045 0.76,0.323 1.615,0.323 1.102,0 1.767,-0.418 0.684,-0.437 0.684,-1.121 0,-0.703 -0.57,-1.007 -0.57,-0.323 -1.881,-0.342 -1.919,-0.076 -2.812,-0.703 -0.874,-0.627 -0.874,-1.957 0,-1.216 1.007,-2.014 1.026,-0.817 2.622,-0.817 1.083,0 2.033,0.342 0.95,0.342 1.729,1.007 l -0.741,1.159 q -0.779,-0.627 -1.501,-0.912 -0.722,-0.285 -1.539,-0.285 -0.931,0 -1.539,0.418 -0.589,0.418 -0.589,1.026 0,0.665 0.532,0.969 0.532,0.304 1.691,0.361 2.071,0.057 2.983,0.684 0.931,0.627 0.931,1.976 z"
         style="font-size:19px"
         id="path12538" />
      <path
         d="m -769.39195,314 v -13.3 h 1.634 V 314 Z"
         style="font-size:19px"
         id="path12540" />
      <path
         d="m -765.38296,304.823 h 1.52 v 1.102 q 0.513,-0.665 1.159,-0.988 0.665,-0.342 1.482,-0.342 0.95,0 1.691,0.399 0.741,0.399 1.178,1.159 0.513,-0.76 1.292,-1.159 0.798,-0.399 1.786,-0.399 1.615,0 2.565,1.045 0.969,1.045 0.969,2.717 V 314 h -1.558 v -5.548 q 0,-1.159 -0.589,-1.805 -0.57,-0.665 -1.615,-0.665 -1.026,0 -1.672,0.722 -0.627,0.703 -0.627,1.843 V 314 h -1.539 v -5.548 q 0,-1.159 -0.589,-1.805 -0.57,-0.665 -1.615,-0.665 -1.026,0 -1.672,0.722 -0.627,0.703 -0.627,1.843 V 314 h -1.539 z"
         style="font-size:19px"
         id="path12542" />
      <path
         d="m -748.30195,317.42 h -1.539 v -12.597 h 1.52 v 1.482 q 0.608,-0.798 1.501,-1.235 0.893,-0.456 1.9,-0.456 1.938,0 3.23,1.349 1.292,1.33 1.292,3.42 0,2.109 -1.349,3.477 -1.33,1.349 -3.287,1.349 -0.931,0 -1.805,-0.38 -0.855,-0.399 -1.463,-1.121 z m 3.211,-11.438 q -1.387,0 -2.337,1.007 -0.931,0.988 -0.931,2.47 0,1.463 0.912,2.432 0.931,0.969 2.299,0.969 1.406,0 2.28,-0.931 0.893,-0.95 0.893,-2.508 0,-1.539 -0.874,-2.489 -0.855,-0.95 -2.242,-0.95 z"
         style="font-size:19px"
         id="path12544" />
      <path
         d="m -738.63096,300.7 h 1.558 V 314 h -1.558 z"
         style="font-size:19px"
         id="path12546" />
      <path
         d="m -730.46097,312.974 q 0.912,0 1.672,-0.38 0.779,-0.399 1.425,-1.197 l 0.931,0.855 q -0.779,1.026 -1.824,1.539 -1.045,0.494 -2.337,0.494 -2.071,0 -3.401,-1.349 -1.311,-1.368 -1.311,-3.496 0,-2.071 1.349,-3.458 1.349,-1.387 3.325,-1.387 2.014,0 3.268,1.311 1.254,1.311 1.254,3.42 0,0.152 -0.019,0.361 -0.019,0.19 -0.038,0.285 h -7.543 q 0.152,1.349 1.045,2.185 0.912,0.817 2.204,0.817 z m -0.152,-7.068 q -1.197,0 -2.052,0.779 -0.855,0.779 -1.045,2.09 h 6.042 q -0.171,-1.33 -0.969,-2.09 -0.798,-0.779 -1.976,-0.779 z"
         style="font-size:19px"
         id="path12548" />
      <path
         d="m -724.55196,304.823 h 1.52 v 1.102 q 0.513,-0.665 1.159,-0.988 0.665,-0.342 1.482,-0.342 0.95,0 1.691,0.399 0.741,0.399 1.178,1.159 0.513,-0.76 1.292,-1.159 0.798,-0.399 1.786,-0.399 1.615,0 2.565,1.045 0.969,1.045 0.969,2.717 V 314 h -1.558 v -5.548 q 0,-1.159 -0.589,-1.805 -0.57,-0.665 -1.615,-0.665 -1.026,0 -1.672,0.722 -0.627,0.703 -0.627,1.843 V 314 h -1.539 v -5.548 q 0,-1.159 -0.589,-1.805 -0.57,-0.665 -1.615,-0.665 -1.026,0 -1.672,0.722 -0.627,0.703 -0.627,1.843 V 314 h -1.539 z"
         style="font-size:19px"
         id="path12550" />
      <path
         d="m -704.58294,312.974 q 0.912,0 1.672,-0.38 0.779,-0.399 1.425,-1.197 l 0.931,0.855 q -0.779,1.026 -1.824,1.539 -1.045,0.494 -2.337,0.494 -2.071,0 -3.401,-1.349 -1.311,-1.368 -1.311,-3.496 0,-2.071 1.349,-3.458 1.349,-1.387 3.325,-1.387 2.014,0 3.268,1.311 1.254,1.311 1.254,3.42 0,0.152 -0.019,0.361 -0.019,0.19 -0.038,0.285 h -7.543 q 0.152,1.349 1.045,2.185 0.912,0.817 2.204,0.817 z m -0.152,-7.068 q -1.197,0 -2.052,0.779 -0.855,0.779 -1.045,2.09 h 6.042 q -0.171,-1.33 -0.969,-2.09 -0.798,-0.779 -1.976,-0.779 z"
         style="font-size:19px"
         id="path12552" />
      <path
         d="m -698.67393,304.823 h 1.52 v 1.425 q 0.551,-0.798 1.387,-1.216 0.855,-0.437 1.9,-0.437 1.824,0 2.85,1.178 1.026,1.178 1.026,3.23 V 314 h -1.539 v -4.902 q 0,-1.444 -0.722,-2.28 -0.703,-0.836 -1.976,-0.836 -1.311,0 -2.109,0.893 -0.798,0.893 -0.798,2.318 V 314 h -1.539 z"
         style="font-size:19px"
         id="path12554" />
      <path
         d="m -687.57795,311.549 v -5.358 h -1.254 v -1.368 h 1.254 v -2.812 h 1.539 v 2.812 h 2.128 v 1.368 h -2.128 v 5.225 q 0,0.608 0.266,0.912 0.285,0.285 0.855,0.285 h 1.007 V 314 h -1.235 q -1.273,0 -1.862,-0.589 -0.57,-0.589 -0.57,-1.862 z"
         style="font-size:19px"
         id="path12556" />
      <path
         d="m -674.37295,314 h -1.501 v -1.501 q -0.551,0.798 -1.501,1.254 -0.931,0.437 -2.014,0.437 -1.52,0 -2.47,-0.76 -0.95,-0.779 -0.95,-2.033 0,-1.387 1.064,-2.09 1.064,-0.722 3.154,-0.722 h 2.698 q -0.019,-1.292 -0.684,-1.995 -0.646,-0.703 -1.862,-0.703 -0.722,0 -1.425,0.304 -0.703,0.304 -1.387,0.931 l -0.817,-1.026 q 0.798,-0.76 1.748,-1.14 0.95,-0.399 2.033,-0.399 1.843,0 2.869,1.102 1.045,1.083 1.045,3.002 z m -1.52,-4.218 h -2.679 q -1.387,0 -2.052,0.38 -0.665,0.38 -0.665,1.197 0,0.684 0.57,1.14 0.589,0.456 1.501,0.456 1.368,0 2.299,-0.874 0.95,-0.893 1.026,-2.299 z"
         style="font-size:19px"
         id="path12558" />
      <path
         d="m -672.05495,311.549 v -5.358 h -1.254 v -1.368 h 1.254 v -2.812 h 1.539 v 2.812 h 2.128 v 1.368 h -2.128 v 5.225 q 0,0.608 0.266,0.912 0.285,0.285 0.855,0.285 h 1.007 V 314 h -1.235 q -1.273,0 -1.862,-0.589 -0.57,-0.589 -0.57,-1.862 z"
         style="font-size:19px"
         id="path12560" />
      <path
         d="m -666.73496,301.745 h 1.71 v 1.691 h -1.71 z m 0.076,12.255 v -9.177 h 1.558 V 314 Z"
         style="font-size:19px"
         id="path12562" />
      <path
         d="m -653.77697,309.421 q 0,2.071 -1.387,3.477 -1.387,1.387 -3.42,1.387 -2.033,0 -3.401,-1.387 -1.349,-1.387 -1.349,-3.458 0,-2.071 1.387,-3.458 1.387,-1.406 3.42,-1.406 2.033,0 3.382,1.387 1.368,1.387 1.368,3.458 z m -7.98,0.019 q 0,1.482 0.912,2.489 0.931,1.007 2.299,1.007 1.349,0 2.261,-1.007 0.931,-1.007 0.931,-2.508 0,-1.463 -0.931,-2.47 -0.931,-1.026 -2.28,-1.026 -1.349,0 -2.28,1.007 -0.912,1.007 -0.912,2.508 z"
         style="font-size:19px"
         id="path12564" />
      <path
         d="m -652.18096,304.823 h 1.52 v 1.425 q 0.551,-0.798 1.387,-1.216 0.855,-0.437 1.9,-0.437 1.824,0 2.85,1.178 1.026,1.178 1.026,3.23 V 314 h -1.539 v -4.902 q 0,-1.444 -0.722,-2.28 -0.703,-0.836 -1.976,-0.836 -1.311,0 -2.109,0.893 -0.798,0.893 -0.798,2.318 V 314 h -1.539 z"
         style="font-size:19px"
         id="path12566" />
      <path
         d="m -431.91899,314 v -13.3 h 9.652 v 1.444 h -8.018 v 4.427 h 7.486 v 1.444 h -7.486 v 4.541 h 8.018 V 314 Z"
         style="font-size:19px"
         id="path12568" />
      <path
         d="m -419.436,314 h -1.729 l 3.572,-4.731 -3.325,-4.446 h 1.824 l 2.413,3.363 2.451,-3.363 h 1.71 l -3.325,4.427 3.629,4.75 h -1.805 l -2.698,-3.705 z"
         style="font-size:19px"
         id="path12570" />
      <path
         d="m -410.94299,301.745 h 1.71 v 1.691 h -1.71 z m 0.076,12.255 v -9.177 h 1.558 V 314 Z"
         style="font-size:19px"
         id="path12572" />
      <path
         d="m -399.733,311.321 q 0,1.292 -1.102,2.109 -1.102,0.817 -2.869,0.817 -1.159,0 -2.185,-0.361 -1.007,-0.38 -1.824,-1.121 l 0.798,-1.178 q 0.874,0.722 1.634,1.045 0.76,0.323 1.615,0.323 1.102,0 1.767,-0.418 0.684,-0.437 0.684,-1.121 0,-0.703 -0.57,-1.007 -0.57,-0.323 -1.881,-0.342 -1.919,-0.076 -2.812,-0.703 -0.874,-0.627 -0.874,-1.957 0,-1.216 1.007,-2.014 1.026,-0.817 2.622,-0.817 1.083,0 2.033,0.342 0.95,0.342 1.729,1.007 l -0.741,1.159 q -0.779,-0.627 -1.501,-0.912 -0.722,-0.285 -1.539,-0.285 -0.931,0 -1.539,0.418 -0.589,0.418 -0.589,1.026 0,0.665 0.532,0.969 0.532,0.304 1.691,0.361 2.071,0.057 2.983,0.684 0.931,0.627 0.931,1.976 z"
         style="font-size:19px"
         id="path12574" />
      <path
         d="m -397.75697,311.549 v -5.358 h -1.254 v -1.368 h 1.254 v -2.812 h 1.539 v 2.812 h 2.128 v 1.368 h -2.128 v 5.225 q 0,0.608 0.266,0.912 0.285,0.285 0.855,0.285 h 1.007 V 314 h -1.235 q -1.273,0 -1.862,-0.589 -0.57,-0.589 -0.57,-1.862 z"
         style="font-size:19px"
         id="path12576" />
      <path
         d="m -392.43697,301.745 h 1.71 v 1.691 h -1.71 z m 0.076,12.255 v -9.177 h 1.558 V 314 Z"
         style="font-size:19px"
         id="path12578" />
      <path
         d="m -388.61798,304.823 h 1.52 v 1.425 q 0.551,-0.798 1.387,-1.216 0.855,-0.437 1.9,-0.437 1.824,0 2.85,1.178 1.026,1.178 1.026,3.23 V 314 h -1.539 v -4.902 q 0,-1.444 -0.722,-2.28 -0.703,-0.836 -1.976,-0.836 -1.311,0 -2.109,0.893 -0.798,0.893 -0.798,2.318 V 314 h -1.539 z"
         style="font-size:19px"
         id="path12580" />
      <path
         d="m -370.53,312.917 v -0.646 q -0.627,0.76 -1.52,1.178 -0.874,0.418 -1.881,0.418 -1.938,0 -3.23,-1.292 -1.292,-1.292 -1.292,-3.325 0,-2.014 1.311,-3.325 1.33,-1.33 3.268,-1.33 0.988,0 1.862,0.418 0.874,0.418 1.501,1.178 v -1.368 h 1.539 v 8.037 q 0,2.28 -1.216,3.42 -1.216,1.14 -3.667,1.14 h -2.318 v -1.33 h 2.394 q 1.615,0 2.432,-0.798 0.817,-0.798 0.817,-2.375 z m -3.173,-0.418 q 1.368,0 2.299,-0.931 0.95,-0.95 0.95,-2.318 0,-1.406 -0.95,-2.337 -0.931,-0.95 -2.299,-0.95 -1.425,0 -2.299,0.893 -0.874,0.893 -0.874,2.375 0,1.463 0.874,2.375 0.893,0.893 2.299,0.893 z"
         style="font-size:19px"
         id="path12582" />
      <path
         d="M -361.782,309.991 -363.53,314 h -1.71 l 5.909,-13.3 h 1.596 l 5.89,13.3 h -1.729 l -1.767,-4.009 z m 3.211,-7.334 -2.565,5.89 h 5.168 z"
         style="font-size:19px"
         id="path12584" />
      <path
         d="m -350.34399,314 v -13.3 h 5.776 q 2.185,0 3.439,1.102 1.273,1.083 1.273,2.945 0,1.881 -1.368,3.021 -1.368,1.121 -3.648,1.121 h -3.838 V 314 Z m 8.816,-9.215 q 0,-1.216 -0.817,-1.9 -0.817,-0.703 -2.28,-0.703 h -4.085 v 5.244 h 3.952 q 1.482,0 2.356,-0.703 0.874,-0.722 0.874,-1.938 z"
         style="font-size:19px"
         id="path12586" />
      <path
         d="m -338.10801,314 v -13.3 h 1.634 V 314 Z"
         style="font-size:19px"
         id="path12588" />
      <path
         d="m -331.14699,300.7 h 1.539 v 5.51 q 0.551,-0.779 1.368,-1.197 0.836,-0.418 1.862,-0.418 1.843,0 2.869,1.178 1.045,1.178 1.045,3.23 V 314 h -1.539 v -4.902 q 0,-1.463 -0.722,-2.28 -0.722,-0.836 -2.014,-0.836 -1.292,0 -2.09,0.893 -0.779,0.893 -0.779,2.318 V 314 h -1.539 z"
         style="font-size:19px"
         id="path12590" />
      <path
         d="m -316.13701,312.974 q 0.912,0 1.672,-0.38 0.779,-0.399 1.425,-1.197 l 0.931,0.855 q -0.779,1.026 -1.824,1.539 -1.045,0.494 -2.337,0.494 -2.071,0 -3.401,-1.349 -1.311,-1.368 -1.311,-3.496 0,-2.071 1.349,-3.458 1.349,-1.387 3.325,-1.387 2.014,0 3.268,1.311 1.254,1.311 1.254,3.42 0,0.152 -0.019,0.361 -0.019,0.19 -0.038,0.285 h -7.543 q 0.152,1.349 1.045,2.185 0.912,0.817 2.204,0.817 z m -0.152,-7.068 q -1.197,0 -2.052,0.779 -0.855,0.779 -1.045,2.09 h 6.042 q -0.171,-1.33 -0.969,-2.09 -0.798,-0.779 -1.976,-0.779 z"
         style="font-size:19px"
         id="path12592" />
      <path
         d="m -310.05699,300.7 h 1.558 V 314 h -1.558 z"
         style="font-size:19px"
         id="path12594" />
      <path
         d="m -304.77501,317.42 h -1.539 v -12.597 h 1.52 v 1.482 q 0.608,-0.798 1.501,-1.235 0.893,-0.456 1.9,-0.456 1.938,0 3.23,1.349 1.292,1.33 1.292,3.42 0,2.109 -1.349,3.477 -1.33,1.349 -3.287,1.349 -0.931,0 -1.805,-0.38 -0.855,-0.399 -1.463,-1.121 z m 3.211,-11.438 q -1.387,0 -2.337,1.007 -0.931,0.988 -0.931,2.47 0,1.463 0.912,2.432 0.931,0.969 2.299,0.969 1.406,0 2.28,-0.931 0.893,-0.95 0.893,-2.508 0,-1.539 -0.874,-2.489 -0.855,-0.95 -2.242,-0.95 z"
         style="font-size:19px"
         id="path12596" />
      <path
         d="m -290.84802,312.974 q 0.912,0 1.672,-0.38 0.779,-0.399 1.425,-1.197 l 0.931,0.855 q -0.779,1.026 -1.824,1.539 -1.045,0.494 -2.337,0.494 -2.071,0 -3.401,-1.349 -1.311,-1.368 -1.311,-3.496 0,-2.071 1.349,-3.458 1.349,-1.387 3.325,-1.387 2.014,0 3.268,1.311 1.254,1.311 1.254,3.42 0,0.152 -0.019,0.361 -0.019,0.19 -0.038,0.285 h -7.543 q 0.152,1.349 1.045,2.185 0.912,0.817 2.204,0.817 z m -0.152,-7.068 q -1.197,0 -2.052,0.779 -0.855,0.779 -1.045,2.09 h 6.042 q -0.171,-1.33 -0.969,-2.09 -0.798,-0.779 -1.976,-0.779 z"
         style="font-size:19px"
         id="path12598" />
      <path
         d="m -284.93901,304.823 h 1.52 v 1.159 q 0.418,-0.608 1.083,-0.912 0.665,-0.304 1.577,-0.304 h 0.836 v 1.463 h -0.855 q -1.311,0 -1.976,0.684 -0.646,0.684 -0.646,2.071 V 314 h -1.539 z"
         style="font-size:19px"
         id="path12600" />
      <path
         d="m -271.27801,311.321 q 0,1.292 -1.102,2.109 -1.102,0.817 -2.869,0.817 -1.159,0 -2.185,-0.361 -1.007,-0.38 -1.824,-1.121 l 0.798,-1.178 q 0.874,0.722 1.634,1.045 0.76,0.323 1.615,0.323 1.102,0 1.767,-0.418 0.684,-0.437 0.684,-1.121 0,-0.703 -0.57,-1.007 -0.57,-0.323 -1.881,-0.342 -1.919,-0.076 -2.812,-0.703 -0.874,-0.627 -0.874,-1.957 0,-1.216 1.007,-2.014 1.026,-0.817 2.622,-0.817 1.083,0 2.033,0.342 0.95,0.342 1.729,1.007 l -0.741,1.159 q -0.779,-0.627 -1.501,-0.912 -0.722,-0.285 -1.539,-0.285 -0.931,0 -1.539,0.418 -0.589,0.418 -0.589,1.026 0,0.665 0.532,0.969 0.532,0.304 1.691,0.361 2.071,0.057 2.983,0.684 0.931,0.627 0.931,1.976 z"
         style="font-size:19px"
         id="path12602" />
    </g>
  </g>
</svg>
