<?xml version="1.0" encoding="UTF-8" standalone="no"?>
<!DOCTYPE svg PUBLIC "-//W3C//DTD SVG 1.1//EN"
 "http://www.w3.org/Graphics/SVG/1.1/DTD/svg11.dtd">
<!-- Generated by graphviz version 2.38.0 (20140413.2041)
 -->
<!-- Title: ngraph Pages: 1 -->
<svg width="2323pt" height="1224pt"
 viewBox="0.00 0.00 2322.50 1224.00" xmlns="http://www.w3.org/2000/svg" xmlns:xlink="http://www.w3.org/1999/xlink">
<g id="graph0" class="graph" transform="scale(1 1) rotate(0) translate(4 1220)">
<title>ngraph</title>
<polygon fill="white" stroke="none" points="-4,4 -4,-1220 2318.5,-1220 2318.5,4 -4,4"/>
<!-- Convolution_96 -->
<g id="node1" class="node"><title>Convolution_96</title>
<polygon fill="none" stroke="black" points="1588.5,-239.5 1334.5,-239.5 1334.5,-141.5 1588.5,-141.5 1588.5,-239.5"/>
<text text-anchor="middle" x="1461.5" y="-224.3" font-family="Times New Roman,serif" font-size="14.00">friendly_name: output</text>
<text text-anchor="middle" x="1461.5" y="-209.3" font-family="Times New Roman,serif" font-size="14.00">name: Convolution_96</text>
<text text-anchor="middle" x="1461.5" y="-194.3" font-family="Times New Roman,serif" font-size="14.00">type_name: Convolution</text>
<text text-anchor="middle" x="1461.5" y="-179.3" font-family="Times New Roman,serif" font-size="14.00">in0: {f32}[1,3,9,9]: MaxPool_89: out0</text>
<text text-anchor="middle" x="1461.5" y="-164.3" font-family="Times New Roman,serif" font-size="14.00">in1: {f32}[6,3,1,1]: FakeQuantize_95: out0</text>
<text text-anchor="middle" x="1461.5" y="-149.3" font-family="Times New Roman,serif" font-size="14.00">out0: {f32}[1,6,9,9]</text>
</g>
<!-- Result_103 -->
<g id="node2" class="node"><title>Result_103</title>
<polygon fill="none" stroke="crimson" stroke-width="1.5" points="1585,-68 1338,-68 1338,-0 1585,-0 1585,-68"/>
<text text-anchor="middle" x="1461.5" y="-52.8" font-family="Times New Roman,serif" font-size="14.00">friendly_name: Result_103</text>
<text text-anchor="middle" x="1461.5" y="-37.8" font-family="Times New Roman,serif" font-size="14.00">type_name: Result</text>
<text text-anchor="middle" x="1461.5" y="-22.8" font-family="Times New Roman,serif" font-size="14.00">in0: {f32}[1,6,9,9]: Convolution_96: out0</text>
<text text-anchor="middle" x="1461.5" y="-7.8" font-family="Times New Roman,serif" font-size="14.00">out0: {f32}[1,6,9,9]</text>
</g>
<!-- Convolution_96&#45;&gt;Result_103 -->
<g id="edge1" class="edge"><title>Convolution_96&#45;&gt;Result_103</title>
<path fill="none" stroke="black" d="M1461.5,-141.462C1461.5,-121.339 1461.5,-98.1141 1461.5,-78.5016"/>
<polygon fill="black" stroke="black" points="1465,-78.3161 1461.5,-68.3162 1458,-78.3162 1465,-78.3161"/>
<text text-anchor="middle" x="1482.5" y="-89.8" font-family="Times New Roman,serif" font-size="14.00"> 0 &#45;&gt; 0 </text>
</g>
<!-- MaxPool_89 -->
<g id="node3" class="node"><title>MaxPool_89</title>
<polygon fill="none" stroke="black" points="1383,-418.5 1154,-418.5 1154,-350.5 1383,-350.5 1383,-418.5"/>
<text text-anchor="middle" x="1268.5" y="-403.3" font-family="Times New Roman,serif" font-size="14.00">friendly_name: MaxPool_89</text>
<text text-anchor="middle" x="1268.5" y="-388.3" font-family="Times New Roman,serif" font-size="14.00">type_name: MaxPool</text>
<text text-anchor="middle" x="1268.5" y="-373.3" font-family="Times New Roman,serif" font-size="14.00">in0: {f32}[1,3,9,9]: MaxPool_87: out0</text>
<text text-anchor="middle" x="1268.5" y="-358.3" font-family="Times New Roman,serif" font-size="14.00">out0: {f32}[1,3,9,9]</text>
</g>
<!-- MaxPool_89&#45;&gt;Convolution_96 -->
<g id="edge2" class="edge"><title>MaxPool_89&#45;&gt;Convolution_96</title>
<path fill="none" stroke="black" d="M1301.68,-350.494C1330.23,-322.085 1372.04,-280.5 1405.73,-246.984"/>
<polygon fill="black" stroke="black" points="1408.6,-249.061 1413.22,-239.527 1403.67,-244.098 1408.6,-249.061"/>
<text text-anchor="middle" x="1392.5" y="-283.8" font-family="Times New Roman,serif" font-size="14.00"> 0 &#45;&gt; 0 </text>
</g>
<!-- FakeQuantize_95 -->
<g id="node4" class="node"><title>FakeQuantize_95</title>
<polygon fill="none" stroke="black" points="1734,-456 1497,-456 1497,-313 1734,-313 1734,-456"/>
<text text-anchor="middle" x="1615.5" y="-440.8" font-family="Times New Roman,serif" font-size="14.00">friendly_name: fakeQuantizeOnWeights</text>
<text text-anchor="middle" x="1615.5" y="-425.8" font-family="Times New Roman,serif" font-size="14.00">name: FakeQuantize_95</text>
<text text-anchor="middle" x="1615.5" y="-410.8" font-family="Times New Roman,serif" font-size="14.00">type_name: FakeQuantize</text>
<text text-anchor="middle" x="1615.5" y="-395.8" font-family="Times New Roman,serif" font-size="14.00">in0: {f32}[6,3,1,1]: Constant_90: out0</text>
<text text-anchor="middle" x="1615.5" y="-380.8" font-family="Times New Roman,serif" font-size="14.00">in1: {f32}[6,1,1,1]: Constant_91: out0</text>
<text text-anchor="middle" x="1615.5" y="-365.8" font-family="Times New Roman,serif" font-size="14.00">in2: {f32}[6,1,1,1]: Constant_92: out0</text>
<text text-anchor="middle" x="1615.5" y="-350.8" font-family="Times New Roman,serif" font-size="14.00">in3: {f32}[6,1,1,1]: Constant_93: out0</text>
<text text-anchor="middle" x="1615.5" y="-335.8" font-family="Times New Roman,serif" font-size="14.00">in4: {f32}[6,1,1,1]: Constant_94: out0</text>
<text text-anchor="middle" x="1615.5" y="-320.8" font-family="Times New Roman,serif" font-size="14.00">out0: {f32}[6,3,1,1]</text>
</g>
<!-- FakeQuantize_95&#45;&gt;Convolution_96 -->
<g id="edge3" class="edge"><title>FakeQuantize_95&#45;&gt;Convolution_96</title>
<path fill="none" stroke="black" d="M1558.81,-312.824C1541.55,-291.302 1522.82,-267.952 1506.45,-247.536"/>
<polygon fill="black" stroke="black" points="1509.05,-245.183 1500.06,-239.572 1503.58,-249.563 1509.05,-245.183"/>
<text text-anchor="middle" x="1563.5" y="-283.8" font-family="Times New Roman,serif" font-size="14.00"> 0 &#45;&gt; 1 </text>
</g>
<!-- CLONE_0 -->
<g id="node5" class="node"><title>CLONE_0</title>
<polygon fill="none" stroke="black" stroke-dasharray="5,2" points="1235,-620 1018,-620 1018,-507 1235,-507 1235,-620"/>
<text text-anchor="middle" x="1126.5" y="-604.8" font-family="Times New Roman,serif" font-size="14.00">friendly_name: Constant_90</text>
<text text-anchor="middle" x="1126.5" y="-589.8" font-family="Times New Roman,serif" font-size="14.00">type_name: Constant</text>
<text text-anchor="middle" x="1126.5" y="-574.8" font-family="Times New Roman,serif" font-size="14.00">{f32}[6,3,1,1]</text>
<text text-anchor="middle" x="1126.5" y="-559.8" font-family="Times New Roman,serif" font-size="14.00">value: [18, 18, 18, 18, 18, 18, 18, 18</text>
<text text-anchor="middle" x="1126.5" y="-544.8" font-family="Times New Roman,serif" font-size="14.00">, 18, 18, 18, 18, 18, 18, 18, 18</text>
<text text-anchor="middle" x="1126.5" y="-529.8" font-family="Times New Roman,serif" font-size="14.00">, 18, 18</text>
<text text-anchor="middle" x="1126.5" y="-514.8" font-family="Times New Roman,serif" font-size="14.00">(min: 18, max: 18)]</text>
</g>
<!-- CLONE_0&#45;&gt;FakeQuantize_95 -->
<g id="edge4" class="edge"><title>CLONE_0&#45;&gt;FakeQuantize_95</title>
<path fill="none" stroke="black" d="M1235.29,-510.34C1238.04,-509.198 1240.79,-508.082 1243.5,-507 1288.41,-489.099 1398.35,-453.552 1487.14,-425.511"/>
<polygon fill="black" stroke="black" points="1488.27,-428.823 1496.76,-422.477 1486.17,-422.148 1488.27,-428.823"/>
<text text-anchor="middle" x="1352.5" y="-477.8" font-family="Times New Roman,serif" font-size="14.00"> 0 &#45;&gt; 0 </text>
</g>
<!-- CLONE_1 -->
<g id="node6" class="node"><title>CLONE_1</title>
<polygon fill="none" stroke="black" stroke-dasharray="5,2" points="1518,-605 1253,-605 1253,-522 1518,-522 1518,-605"/>
<text text-anchor="middle" x="1385.5" y="-589.8" font-family="Times New Roman,serif" font-size="14.00">friendly_name: Constant_91</text>
<text text-anchor="middle" x="1385.5" y="-574.8" font-family="Times New Roman,serif" font-size="14.00">type_name: Constant</text>
<text text-anchor="middle" x="1385.5" y="-559.8" font-family="Times New Roman,serif" font-size="14.00">{f32}[6,1,1,1]</text>
<text text-anchor="middle" x="1385.5" y="-544.8" font-family="Times New Roman,serif" font-size="14.00">value: [&#45;1.27, &#45;1.27, &#45;1.27, &#45;1.27, &#45;1.27, &#45;1.27</text>
<text text-anchor="middle" x="1385.5" y="-529.8" font-family="Times New Roman,serif" font-size="14.00">(min: &#45;1.27, max: &#45;1.27)]</text>
</g>
<!-- CLONE_1&#45;&gt;FakeQuantize_95 -->
<g id="edge5" class="edge"><title>CLONE_1&#45;&gt;FakeQuantize_95</title>
<path fill="none" stroke="black" d="M1438.27,-521.893C1461.22,-504.226 1488.91,-482.916 1515.52,-462.445"/>
<polygon fill="black" stroke="black" points="1517.94,-464.996 1523.73,-456.124 1513.67,-459.449 1517.94,-464.996"/>
<text text-anchor="middle" x="1521.5" y="-477.8" font-family="Times New Roman,serif" font-size="14.00"> 0 &#45;&gt; 1 </text>
</g>
<!-- CLONE_2 -->
<g id="node7" class="node"><title>CLONE_2</title>
<polygon fill="none" stroke="black" stroke-dasharray="5,2" points="1774.5,-605 1536.5,-605 1536.5,-522 1774.5,-522 1774.5,-605"/>
<text text-anchor="middle" x="1655.5" y="-589.8" font-family="Times New Roman,serif" font-size="14.00">friendly_name: Constant_92</text>
<text text-anchor="middle" x="1655.5" y="-574.8" font-family="Times New Roman,serif" font-size="14.00">type_name: Constant</text>
<text text-anchor="middle" x="1655.5" y="-559.8" font-family="Times New Roman,serif" font-size="14.00">{f32}[6,1,1,1]</text>
<text text-anchor="middle" x="1655.5" y="-544.8" font-family="Times New Roman,serif" font-size="14.00">value: [1.27, 1.27, 1.27, 1.27, 1.27, 1.27</text>
<text text-anchor="middle" x="1655.5" y="-529.8" font-family="Times New Roman,serif" font-size="14.00">(min: 1.27, max: 1.27)]</text>
</g>
<!-- CLONE_2&#45;&gt;FakeQuantize_95 -->
<g id="edge6" class="edge"><title>CLONE_2&#45;&gt;FakeQuantize_95</title>
<path fill="none" stroke="black" d="M1646.32,-521.893C1642.55,-505.216 1638.05,-485.293 1633.67,-465.893"/>
<polygon fill="black" stroke="black" points="1637.08,-465.106 1631.46,-456.124 1630.25,-466.649 1637.08,-465.106"/>
<text text-anchor="middle" x="1658.5" y="-477.8" font-family="Times New Roman,serif" font-size="14.00"> 0 &#45;&gt; 2 </text>
</g>
<!-- CLONE_3 -->
<g id="node8" class="node"><title>CLONE_3</title>
<polygon fill="none" stroke="black" stroke-dasharray="5,2" points="2058,-605 1793,-605 1793,-522 2058,-522 2058,-605"/>
<text text-anchor="middle" x="1925.5" y="-589.8" font-family="Times New Roman,serif" font-size="14.00">friendly_name: Constant_93</text>
<text text-anchor="middle" x="1925.5" y="-574.8" font-family="Times New Roman,serif" font-size="14.00">type_name: Constant</text>
<text text-anchor="middle" x="1925.5" y="-559.8" font-family="Times New Roman,serif" font-size="14.00">{f32}[6,1,1,1]</text>
<text text-anchor="middle" x="1925.5" y="-544.8" font-family="Times New Roman,serif" font-size="14.00">value: [&#45;1.27, &#45;1.27, &#45;1.27, &#45;1.27, &#45;1.27, &#45;1.27</text>
<text text-anchor="middle" x="1925.5" y="-529.8" font-family="Times New Roman,serif" font-size="14.00">(min: &#45;1.27, max: &#45;1.27)]</text>
</g>
<!-- CLONE_3&#45;&gt;FakeQuantize_95 -->
<g id="edge7" class="edge"><title>CLONE_3&#45;&gt;FakeQuantize_95</title>
<path fill="none" stroke="black" d="M1854.38,-521.893C1821.45,-503.089 1781.29,-480.159 1743.36,-458.505"/>
<polygon fill="black" stroke="black" points="1744.71,-455.244 1734.29,-453.325 1741.24,-461.323 1744.71,-455.244"/>
<text text-anchor="middle" x="1809.5" y="-477.8" font-family="Times New Roman,serif" font-size="14.00"> 0 &#45;&gt; 3 </text>
</g>
<!-- CLONE_4 -->
<g id="node9" class="node"><title>CLONE_4</title>
<polygon fill="none" stroke="black" stroke-dasharray="5,2" points="2314.5,-605 2076.5,-605 2076.5,-522 2314.5,-522 2314.5,-605"/>
<text text-anchor="middle" x="2195.5" y="-589.8" font-family="Times New Roman,serif" font-size="14.00">friendly_name: Constant_94</text>
<text text-anchor="middle" x="2195.5" y="-574.8" font-family="Times New Roman,serif" font-size="14.00">type_name: Constant</text>
<text text-anchor="middle" x="2195.5" y="-559.8" font-family="Times New Roman,serif" font-size="14.00">{f32}[6,1,1,1]</text>
<text text-anchor="middle" x="2195.5" y="-544.8" font-family="Times New Roman,serif" font-size="14.00">value: [1.27, 1.27, 1.27, 1.27, 1.27, 1.27</text>
<text text-anchor="middle" x="2195.5" y="-529.8" font-family="Times New Roman,serif" font-size="14.00">(min: 1.27, max: 1.27)]</text>
</g>
<!-- CLONE_4&#45;&gt;FakeQuantize_95 -->
<g id="edge8" class="edge"><title>CLONE_4&#45;&gt;FakeQuantize_95</title>
<path fill="none" stroke="black" d="M2106.64,-521.991C2093.63,-516.641 2080.31,-511.47 2067.5,-507 1960.17,-469.532 1835.16,-436.73 1743.85,-414.683"/>
<polygon fill="black" stroke="black" points="1744.54,-411.251 1734,-412.317 1742.91,-418.057 1744.54,-411.251"/>
<text text-anchor="middle" x="2027.5" y="-477.8" font-family="Times New Roman,serif" font-size="14.00"> 0 &#45;&gt; 4 </text>
</g>
<!-- MaxPool_87 -->
<g id="node10" class="node"><title>MaxPool_87</title>
<polygon fill="none" stroke="black" points="1000,-605 773,-605 773,-522 1000,-522 1000,-605"/>
<text text-anchor="middle" x="886.5" y="-589.8" font-family="Times New Roman,serif" font-size="14.00">friendly_name: maxPool2</text>
<text text-anchor="middle" x="886.5" y="-574.8" font-family="Times New Roman,serif" font-size="14.00">name: MaxPool_87</text>
<text text-anchor="middle" x="886.5" y="-559.8" font-family="Times New Roman,serif" font-size="14.00">type_name: MaxPool</text>
<text text-anchor="middle" x="886.5" y="-544.8" font-family="Times New Roman,serif" font-size="14.00">in0: {f32}[1,3,9,9]: AvgPool_86: out0</text>
<text text-anchor="middle" x="886.5" y="-529.8" font-family="Times New Roman,serif" font-size="14.00">out0: {f32}[1,3,9,9]</text>
</g>
<!-- MaxPool_87&#45;&gt;MaxPool_89 -->
<g id="edge9" class="edge"><title>MaxPool_87&#45;&gt;MaxPool_89</title>
<path fill="none" stroke="black" d="M964.858,-521.832C995.164,-506.438 1030.26,-489.016 1062.5,-474 1100.24,-456.426 1142.39,-438.091 1178.69,-422.697"/>
<polygon fill="black" stroke="black" points="1180.43,-425.762 1188.28,-418.643 1177.7,-419.315 1180.43,-425.762"/>
<text text-anchor="middle" x="1083.5" y="-477.8" font-family="Times New Roman,serif" font-size="14.00"> 0 &#45;&gt; 0 </text>
</g>
<!-- MaxPool_88 -->
<g id="node21" class="node"><title>MaxPool_88</title>
<polygon fill="none" stroke="black" points="1001,-418.5 772,-418.5 772,-350.5 1001,-350.5 1001,-418.5"/>
<text text-anchor="middle" x="886.5" y="-403.3" font-family="Times New Roman,serif" font-size="14.00">friendly_name: MaxPool_88</text>
<text text-anchor="middle" x="886.5" y="-388.3" font-family="Times New Roman,serif" font-size="14.00">type_name: MaxPool</text>
<text text-anchor="middle" x="886.5" y="-373.3" font-family="Times New Roman,serif" font-size="14.00">in0: {f32}[1,3,9,9]: MaxPool_87: out0</text>
<text text-anchor="middle" x="886.5" y="-358.3" font-family="Times New Roman,serif" font-size="14.00">out0: {f32}[1,3,9,9]</text>
</g>
<!-- MaxPool_87&#45;&gt;MaxPool_88 -->
<g id="edge24" class="edge"><title>MaxPool_87&#45;&gt;MaxPool_88</title>
<path fill="none" stroke="black" d="M886.5,-521.893C886.5,-493.986 886.5,-456.988 886.5,-428.568"/>
<polygon fill="black" stroke="black" points="890,-428.517 886.5,-418.517 883,-428.518 890,-428.517"/>
<text text-anchor="middle" x="907.5" y="-477.8" font-family="Times New Roman,serif" font-size="14.00"> 0 &#45;&gt; 0 </text>
</g>
<!-- AvgPool_86 -->
<g id="node11" class="node"><title>AvgPool_86</title>
<polygon fill="none" stroke="black" points="1001,-754 772,-754 772,-671 1001,-671 1001,-754"/>
<text text-anchor="middle" x="886.5" y="-738.8" font-family="Times New Roman,serif" font-size="14.00">friendly_name: avgPool</text>
<text text-anchor="middle" x="886.5" y="-723.8" font-family="Times New Roman,serif" font-size="14.00">name: AvgPool_86</text>
<text text-anchor="middle" x="886.5" y="-708.8" font-family="Times New Roman,serif" font-size="14.00">type_name: AvgPool</text>
<text text-anchor="middle" x="886.5" y="-693.8" font-family="Times New Roman,serif" font-size="14.00">in0: {f32}[1,3,9,9]: MaxPool_85: out0</text>
<text text-anchor="middle" x="886.5" y="-678.8" font-family="Times New Roman,serif" font-size="14.00">out0: {f32}[1,3,9,9]</text>
</g>
<!-- AvgPool_86&#45;&gt;MaxPool_87 -->
<g id="edge10" class="edge"><title>AvgPool_86&#45;&gt;MaxPool_87</title>
<path fill="none" stroke="black" d="M886.5,-670.942C886.5,-653.742 886.5,-633.506 886.5,-615.323"/>
<polygon fill="black" stroke="black" points="890,-615.18 886.5,-605.18 883,-615.18 890,-615.18"/>
<text text-anchor="middle" x="907.5" y="-641.8" font-family="Times New Roman,serif" font-size="14.00"> 0 &#45;&gt; 0 </text>
</g>
<!-- MaxPool_85 -->
<g id="node12" class="node"><title>MaxPool_85</title>
<polygon fill="none" stroke="black" points="1013.5,-888 759.5,-888 759.5,-805 1013.5,-805 1013.5,-888"/>
<text text-anchor="middle" x="886.5" y="-872.8" font-family="Times New Roman,serif" font-size="14.00">friendly_name: maxPool1</text>
<text text-anchor="middle" x="886.5" y="-857.8" font-family="Times New Roman,serif" font-size="14.00">name: MaxPool_85</text>
<text text-anchor="middle" x="886.5" y="-842.8" font-family="Times New Roman,serif" font-size="14.00">type_name: MaxPool</text>
<text text-anchor="middle" x="886.5" y="-827.8" font-family="Times New Roman,serif" font-size="14.00">in0: {f32}[1,3,9,9]: FakeQuantize_84: out0</text>
<text text-anchor="middle" x="886.5" y="-812.8" font-family="Times New Roman,serif" font-size="14.00">out0: {f32}[1,3,9,9]</text>
</g>
<!-- MaxPool_85&#45;&gt;AvgPool_86 -->
<g id="edge11" class="edge"><title>MaxPool_85&#45;&gt;AvgPool_86</title>
<path fill="none" stroke="black" d="M886.5,-804.819C886.5,-792.021 886.5,-777.727 886.5,-764.317"/>
<polygon fill="black" stroke="black" points="890,-764.274 886.5,-754.274 883,-764.274 890,-764.274"/>
<text text-anchor="middle" x="907.5" y="-775.8" font-family="Times New Roman,serif" font-size="14.00"> 0 &#45;&gt; 0 </text>
</g>
<!-- FakeQuantize_84 -->
<g id="node13" class="node"><title>FakeQuantize_84</title>
<polygon fill="none" stroke="black" points="1013.5,-1082 759.5,-1082 759.5,-939 1013.5,-939 1013.5,-1082"/>
<text text-anchor="middle" x="886.5" y="-1066.8" font-family="Times New Roman,serif" font-size="14.00">friendly_name: fakeQuantizeOnActivations</text>
<text text-anchor="middle" x="886.5" y="-1051.8" font-family="Times New Roman,serif" font-size="14.00">name: FakeQuantize_84</text>
<text text-anchor="middle" x="886.5" y="-1036.8" font-family="Times New Roman,serif" font-size="14.00">type_name: FakeQuantize</text>
<text text-anchor="middle" x="886.5" y="-1021.8" font-family="Times New Roman,serif" font-size="14.00">in0: {f32}[1,3,9,9]: Parameter_79: out0</text>
<text text-anchor="middle" x="886.5" y="-1006.8" font-family="Times New Roman,serif" font-size="14.00">in1: {f32}[]: Constant_80: out0</text>
<text text-anchor="middle" x="886.5" y="-991.8" font-family="Times New Roman,serif" font-size="14.00">in2: {f32}[]: Constant_81: out0</text>
<text text-anchor="middle" x="886.5" y="-976.8" font-family="Times New Roman,serif" font-size="14.00">in3: {f32}[]: Constant_82: out0</text>
<text text-anchor="middle" x="886.5" y="-961.8" font-family="Times New Roman,serif" font-size="14.00">in4: {f32}[]: Constant_83: out0</text>
<text text-anchor="middle" x="886.5" y="-946.8" font-family="Times New Roman,serif" font-size="14.00">out0: {f32}[1,3,9,9]</text>
</g>
<!-- FakeQuantize_84&#45;&gt;MaxPool_85 -->
<g id="edge12" class="edge"><title>FakeQuantize_84&#45;&gt;MaxPool_85</title>
<path fill="none" stroke="black" d="M886.5,-938.916C886.5,-925.191 886.5,-911.06 886.5,-898.135"/>
<polygon fill="black" stroke="black" points="890,-898.059 886.5,-888.059 883,-898.059 890,-898.059"/>
<text text-anchor="middle" x="907.5" y="-909.8" font-family="Times New Roman,serif" font-size="14.00"> 0 &#45;&gt; 0 </text>
</g>
<!-- CLONE_5 -->
<g id="node14" class="node"><title>CLONE_5</title>
<polygon fill="none" stroke="blue" stroke-dasharray="5,2" points="591,-1201 412,-1201 412,-1148 591,-1148 591,-1201"/>
<text text-anchor="middle" x="501.5" y="-1185.8" font-family="Times New Roman,serif" font-size="14.00">friendly_name: Parameter_79</text>
<text text-anchor="middle" x="501.5" y="-1170.8" font-family="Times New Roman,serif" font-size="14.00">type_name: Parameter</text>
<text text-anchor="middle" x="501.5" y="-1155.8" font-family="Times New Roman,serif" font-size="14.00">{f32}[1,3,9,9]</text>
</g>
<!-- CLONE_5&#45;&gt;FakeQuantize_84 -->
<g id="edge13" class="edge"><title>CLONE_5&#45;&gt;FakeQuantize_84</title>
<path fill="none" stroke="black" d="M562.504,-1147.83C612.724,-1126.7 685.815,-1095.94 749.87,-1068.99"/>
<polygon fill="black" stroke="black" points="751.392,-1072.15 759.252,-1065.04 748.677,-1065.7 751.392,-1072.15"/>
<text text-anchor="middle" x="692.5" y="-1103.8" font-family="Times New Roman,serif" font-size="14.00"> 0 &#45;&gt; 0 </text>
</g>
<!-- CLONE_6 -->
<g id="node15" class="node"><title>CLONE_6</title>
<polygon fill="none" stroke="black" stroke-dasharray="5,2" points="782,-1216 609,-1216 609,-1133 782,-1133 782,-1216"/>
<text text-anchor="middle" x="695.5" y="-1200.8" font-family="Times New Roman,serif" font-size="14.00">friendly_name: Constant_80</text>
<text text-anchor="middle" x="695.5" y="-1185.8" font-family="Times New Roman,serif" font-size="14.00">type_name: Constant</text>
<text text-anchor="middle" x="695.5" y="-1170.8" font-family="Times New Roman,serif" font-size="14.00">{f32}[]</text>
<text text-anchor="middle" x="695.5" y="-1155.8" font-family="Times New Roman,serif" font-size="14.00">value: [&#45;1.28</text>
<text text-anchor="middle" x="695.5" y="-1140.8" font-family="Times New Roman,serif" font-size="14.00">(min: &#45;1.28, max: &#45;1.28)]</text>
</g>
<!-- CLONE_6&#45;&gt;FakeQuantize_84 -->
<g id="edge14" class="edge"><title>CLONE_6&#45;&gt;FakeQuantize_84</title>
<path fill="none" stroke="black" d="M743.697,-1132.62C759.459,-1119.25 777.521,-1103.93 795.378,-1088.79"/>
<polygon fill="black" stroke="black" points="797.649,-1091.45 803.011,-1082.31 793.121,-1086.11 797.649,-1091.45"/>
<text text-anchor="middle" x="801.5" y="-1103.8" font-family="Times New Roman,serif" font-size="14.00"> 0 &#45;&gt; 1 </text>
</g>
<!-- CLONE_7 -->
<g id="node16" class="node"><title>CLONE_7</title>
<polygon fill="none" stroke="black" stroke-dasharray="5,2" points="973,-1216 800,-1216 800,-1133 973,-1133 973,-1216"/>
<text text-anchor="middle" x="886.5" y="-1200.8" font-family="Times New Roman,serif" font-size="14.00">friendly_name: Constant_81</text>
<text text-anchor="middle" x="886.5" y="-1185.8" font-family="Times New Roman,serif" font-size="14.00">type_name: Constant</text>
<text text-anchor="middle" x="886.5" y="-1170.8" font-family="Times New Roman,serif" font-size="14.00">{f32}[]</text>
<text text-anchor="middle" x="886.5" y="-1155.8" font-family="Times New Roman,serif" font-size="14.00">value: [1.27</text>
<text text-anchor="middle" x="886.5" y="-1140.8" font-family="Times New Roman,serif" font-size="14.00">(min: 1.27, max: 1.27)]</text>
</g>
<!-- CLONE_7&#45;&gt;FakeQuantize_84 -->
<g id="edge15" class="edge"><title>CLONE_7&#45;&gt;FakeQuantize_84</title>
<path fill="none" stroke="black" d="M886.5,-1132.62C886.5,-1120.33 886.5,-1106.38 886.5,-1092.44"/>
<polygon fill="black" stroke="black" points="890,-1092.31 886.5,-1082.31 883,-1092.31 890,-1092.31"/>
<text text-anchor="middle" x="907.5" y="-1103.8" font-family="Times New Roman,serif" font-size="14.00"> 0 &#45;&gt; 2 </text>
</g>
<!-- CLONE_8 -->
<g id="node17" class="node"><title>CLONE_8</title>
<polygon fill="none" stroke="black" stroke-dasharray="5,2" points="1164,-1216 991,-1216 991,-1133 1164,-1133 1164,-1216"/>
<text text-anchor="middle" x="1077.5" y="-1200.8" font-family="Times New Roman,serif" font-size="14.00">friendly_name: Constant_82</text>
<text text-anchor="middle" x="1077.5" y="-1185.8" font-family="Times New Roman,serif" font-size="14.00">type_name: Constant</text>
<text text-anchor="middle" x="1077.5" y="-1170.8" font-family="Times New Roman,serif" font-size="14.00">{f32}[]</text>
<text text-anchor="middle" x="1077.5" y="-1155.8" font-family="Times New Roman,serif" font-size="14.00">value: [&#45;1.28</text>
<text text-anchor="middle" x="1077.5" y="-1140.8" font-family="Times New Roman,serif" font-size="14.00">(min: &#45;1.28, max: &#45;1.28)]</text>
</g>
<!-- CLONE_8&#45;&gt;FakeQuantize_84 -->
<g id="edge16" class="edge"><title>CLONE_8&#45;&gt;FakeQuantize_84</title>
<path fill="none" stroke="black" d="M1029.3,-1132.62C1013.54,-1119.25 995.479,-1103.93 977.622,-1088.79"/>
<polygon fill="black" stroke="black" points="979.879,-1086.11 969.989,-1082.31 975.351,-1091.45 979.879,-1086.11"/>
<text text-anchor="middle" x="1026.5" y="-1103.8" font-family="Times New Roman,serif" font-size="14.00"> 0 &#45;&gt; 3 </text>
</g>
<!-- CLONE_9 -->
<g id="node18" class="node"><title>CLONE_9</title>
<polygon fill="none" stroke="black" stroke-dasharray="5,2" points="1355,-1216 1182,-1216 1182,-1133 1355,-1133 1355,-1216"/>
<text text-anchor="middle" x="1268.5" y="-1200.8" font-family="Times New Roman,serif" font-size="14.00">friendly_name: Constant_83</text>
<text text-anchor="middle" x="1268.5" y="-1185.8" font-family="Times New Roman,serif" font-size="14.00">type_name: Constant</text>
<text text-anchor="middle" x="1268.5" y="-1170.8" font-family="Times New Roman,serif" font-size="14.00">{f32}[]</text>
<text text-anchor="middle" x="1268.5" y="-1155.8" font-family="Times New Roman,serif" font-size="14.00">value: [1.27</text>
<text text-anchor="middle" x="1268.5" y="-1140.8" font-family="Times New Roman,serif" font-size="14.00">(min: 1.27, max: 1.27)]</text>
</g>
<!-- CLONE_9&#45;&gt;FakeQuantize_84 -->
<g id="edge17" class="edge"><title>CLONE_9&#45;&gt;FakeQuantize_84</title>
<path fill="none" stroke="black" d="M1181.82,-1136.74C1134.99,-1116.88 1076.1,-1091.9 1023.24,-1069.49"/>
<polygon fill="black" stroke="black" points="1024.37,-1066.17 1013.79,-1065.48 1021.63,-1072.61 1024.37,-1066.17"/>
<text text-anchor="middle" x="1144.5" y="-1103.8" font-family="Times New Roman,serif" font-size="14.00"> 0 &#45;&gt; 4 </text>
</g>
<!-- FakeQuantize_101 -->
<g id="node19" class="node"><title>FakeQuantize_101</title>
<polygon fill="none" stroke="black" points="583,-262 354,-262 354,-119 583,-119 583,-262"/>
<text text-anchor="middle" x="468.5" y="-246.8" font-family="Times New Roman,serif" font-size="14.00">friendly_name: fakeQuantize1</text>
<text text-anchor="middle" x="468.5" y="-231.8" font-family="Times New Roman,serif" font-size="14.00">name: FakeQuantize_101</text>
<text text-anchor="middle" x="468.5" y="-216.8" font-family="Times New Roman,serif" font-size="14.00">type_name: FakeQuantize</text>
<text text-anchor="middle" x="468.5" y="-201.8" font-family="Times New Roman,serif" font-size="14.00">in0: {f32}[1,3,9,9]: MaxPool_88: out0</text>
<text text-anchor="middle" x="468.5" y="-186.8" font-family="Times New Roman,serif" font-size="14.00">in1: {f32}[]: Constant_97: out0</text>
<text text-anchor="middle" x="468.5" y="-171.8" font-family="Times New Roman,serif" font-size="14.00">in2: {f32}[]: Constant_98: out0</text>
<text text-anchor="middle" x="468.5" y="-156.8" font-family="Times New Roman,serif" font-size="14.00">in3: {f32}[]: Constant_99: out0</text>
<text text-anchor="middle" x="468.5" y="-141.8" font-family="Times New Roman,serif" font-size="14.00">in4: {f32}[]: Constant_100: out0</text>
<text text-anchor="middle" x="468.5" y="-126.8" font-family="Times New Roman,serif" font-size="14.00">out0: {f32}[1,3,9,9]</text>
</g>
<!-- Result_102 -->
<g id="node20" class="node"><title>Result_102</title>
<polygon fill="none" stroke="crimson" stroke-width="1.5" points="598.5,-68 338.5,-68 338.5,-0 598.5,-0 598.5,-68"/>
<text text-anchor="middle" x="468.5" y="-52.8" font-family="Times New Roman,serif" font-size="14.00">friendly_name: Result_102</text>
<text text-anchor="middle" x="468.5" y="-37.8" font-family="Times New Roman,serif" font-size="14.00">type_name: Result</text>
<text text-anchor="middle" x="468.5" y="-22.8" font-family="Times New Roman,serif" font-size="14.00">in0: {f32}[1,3,9,9]: FakeQuantize_101: out0</text>
<text text-anchor="middle" x="468.5" y="-7.8" font-family="Times New Roman,serif" font-size="14.00">out0: {f32}[1,3,9,9]</text>
</g>
<!-- FakeQuantize_101&#45;&gt;Result_102 -->
<g id="edge18" class="edge"><title>FakeQuantize_101&#45;&gt;Result_102</title>
<path fill="none" stroke="black" d="M468.5,-118.581C468.5,-104.822 468.5,-90.7944 468.5,-78.2583"/>
<polygon fill="black" stroke="black" points="472,-78.1174 468.5,-68.1175 465,-78.1175 472,-78.1174"/>
<text text-anchor="middle" x="489.5" y="-89.8" font-family="Times New Roman,serif" font-size="14.00"> 0 &#45;&gt; 0 </text>
</g>
<!-- MaxPool_88&#45;&gt;FakeQuantize_101 -->
<g id="edge19" class="edge"><title>MaxPool_88&#45;&gt;FakeQuantize_101</title>
<path fill="none" stroke="black" d="M831.741,-350.408C810.444,-338.06 785.641,-324.305 762.5,-313 707.729,-286.243 645.536,-259.973 592.502,-238.744"/>
<polygon fill="black" stroke="black" points="593.637,-235.428 583.052,-234.975 591.044,-241.931 593.637,-235.428"/>
<text text-anchor="middle" x="744.5" y="-283.8" font-family="Times New Roman,serif" font-size="14.00"> 0 &#45;&gt; 0 </text>
</g>
<!-- CLONE_10 -->
<g id="node22" class="node"><title>CLONE_10</title>
<polygon fill="none" stroke="black" stroke-dasharray="5,2" points="173,-426 0,-426 0,-343 173,-343 173,-426"/>
<text text-anchor="middle" x="86.5" y="-410.8" font-family="Times New Roman,serif" font-size="14.00">friendly_name: Constant_97</text>
<text text-anchor="middle" x="86.5" y="-395.8" font-family="Times New Roman,serif" font-size="14.00">type_name: Constant</text>
<text text-anchor="middle" x="86.5" y="-380.8" font-family="Times New Roman,serif" font-size="14.00">{f32}[]</text>
<text text-anchor="middle" x="86.5" y="-365.8" font-family="Times New Roman,serif" font-size="14.00">value: [&#45;1.28</text>
<text text-anchor="middle" x="86.5" y="-350.8" font-family="Times New Roman,serif" font-size="14.00">(min: &#45;1.28, max: &#45;1.28)]</text>
</g>
<!-- CLONE_10&#45;&gt;FakeQuantize_101 -->
<g id="edge20" class="edge"><title>CLONE_10&#45;&gt;FakeQuantize_101</title>
<path fill="none" stroke="black" d="M136.75,-342.755C150.781,-332.35 166.345,-321.666 181.5,-313 232.793,-283.669 292.55,-257.253 344.216,-236.602"/>
<polygon fill="black" stroke="black" points="345.76,-239.755 353.765,-232.814 343.179,-233.248 345.76,-239.755"/>
<text text-anchor="middle" x="263.5" y="-283.8" font-family="Times New Roman,serif" font-size="14.00"> 0 &#45;&gt; 1 </text>
</g>
<!-- CLONE_11 -->
<g id="node23" class="node"><title>CLONE_11</title>
<polygon fill="none" stroke="black" stroke-dasharray="5,2" points="364,-426 191,-426 191,-343 364,-343 364,-426"/>
<text text-anchor="middle" x="277.5" y="-410.8" font-family="Times New Roman,serif" font-size="14.00">friendly_name: Constant_98</text>
<text text-anchor="middle" x="277.5" y="-395.8" font-family="Times New Roman,serif" font-size="14.00">type_name: Constant</text>
<text text-anchor="middle" x="277.5" y="-380.8" font-family="Times New Roman,serif" font-size="14.00">{f32}[]</text>
<text text-anchor="middle" x="277.5" y="-365.8" font-family="Times New Roman,serif" font-size="14.00">value: [1.27</text>
<text text-anchor="middle" x="277.5" y="-350.8" font-family="Times New Roman,serif" font-size="14.00">(min: 1.27, max: 1.27)]</text>
</g>
<!-- CLONE_11&#45;&gt;FakeQuantize_101 -->
<g id="edge21" class="edge"><title>CLONE_11&#45;&gt;FakeQuantize_101</title>
<path fill="none" stroke="black" d="M318.006,-342.782C339.235,-321.442 365.964,-294.573 390.984,-269.422"/>
<polygon fill="black" stroke="black" points="393.765,-271.589 398.336,-262.031 388.802,-266.652 393.765,-271.589"/>
<text text-anchor="middle" x="400.5" y="-283.8" font-family="Times New Roman,serif" font-size="14.00"> 0 &#45;&gt; 2 </text>
</g>
<!-- CLONE_12 -->
<g id="node24" class="node"><title>CLONE_12</title>
<polygon fill="none" stroke="black" stroke-dasharray="5,2" points="555,-426 382,-426 382,-343 555,-343 555,-426"/>
<text text-anchor="middle" x="468.5" y="-410.8" font-family="Times New Roman,serif" font-size="14.00">friendly_name: Constant_99</text>
<text text-anchor="middle" x="468.5" y="-395.8" font-family="Times New Roman,serif" font-size="14.00">type_name: Constant</text>
<text text-anchor="middle" x="468.5" y="-380.8" font-family="Times New Roman,serif" font-size="14.00">{f32}[]</text>
<text text-anchor="middle" x="468.5" y="-365.8" font-family="Times New Roman,serif" font-size="14.00">value: [&#45;1.28</text>
<text text-anchor="middle" x="468.5" y="-350.8" font-family="Times New Roman,serif" font-size="14.00">(min: &#45;1.28, max: &#45;1.28)]</text>
</g>
<!-- CLONE_12&#45;&gt;FakeQuantize_101 -->
<g id="edge22" class="edge"><title>CLONE_12&#45;&gt;FakeQuantize_101</title>
<path fill="none" stroke="black" d="M468.5,-342.782C468.5,-322.266 468.5,-296.641 468.5,-272.344"/>
<polygon fill="black" stroke="black" points="472,-272.031 468.5,-262.031 465,-272.031 472,-272.031"/>
<text text-anchor="middle" x="489.5" y="-283.8" font-family="Times New Roman,serif" font-size="14.00"> 0 &#45;&gt; 3 </text>
</g>
<!-- CLONE_13 -->
<g id="node25" class="node"><title>CLONE_13</title>
<polygon fill="none" stroke="black" stroke-dasharray="5,2" points="753.5,-426 573.5,-426 573.5,-343 753.5,-343 753.5,-426"/>
<text text-anchor="middle" x="663.5" y="-410.8" font-family="Times New Roman,serif" font-size="14.00">friendly_name: Constant_100</text>
<text text-anchor="middle" x="663.5" y="-395.8" font-family="Times New Roman,serif" font-size="14.00">type_name: Constant</text>
<text text-anchor="middle" x="663.5" y="-380.8" font-family="Times New Roman,serif" font-size="14.00">{f32}[]</text>
<text text-anchor="middle" x="663.5" y="-365.8" font-family="Times New Roman,serif" font-size="14.00">value: [1.27</text>
<text text-anchor="middle" x="663.5" y="-350.8" font-family="Times New Roman,serif" font-size="14.00">(min: 1.27, max: 1.27)]</text>
</g>
<!-- CLONE_13&#45;&gt;FakeQuantize_101 -->
<g id="edge23" class="edge"><title>CLONE_13&#45;&gt;FakeQuantize_101</title>
<path fill="none" stroke="black" d="M622.146,-342.782C600.379,-321.35 572.949,-294.342 547.311,-269.098"/>
<polygon fill="black" stroke="black" points="549.714,-266.553 540.133,-262.031 544.803,-271.541 549.714,-266.553"/>
<text text-anchor="middle" x="593.5" y="-283.8" font-family="Times New Roman,serif" font-size="14.00"> 0 &#45;&gt; 4 </text>
</g>
</g>
</svg>
