<?xml version="1.0" encoding="UTF-8" standalone="no"?>
<!DOCTYPE svg PUBLIC "-//W3C//DTD SVG 1.1//EN"
 "http://www.w3.org/Graphics/SVG/1.1/DTD/svg11.dtd">
<!-- Generated by graphviz version 2.38.0 (20140413.2041)
 -->
<!-- Title: ngraph Pages: 1 -->
<svg width="2628pt" height="1239pt"
 viewBox="0.00 0.00 2627.50 1239.00" xmlns="http://www.w3.org/2000/svg" xmlns:xlink="http://www.w3.org/1999/xlink">
<g id="graph0" class="graph" transform="scale(1 1) rotate(0) translate(4 1235)">
<title>ngraph</title>
<polygon fill="white" stroke="none" points="-4,4 -4,-1235 2623.5,-1235 2623.5,4 -4,4"/>
<!-- Convolution_139 -->
<g id="node1" class="node"><title>Convolution_139</title>
<polygon fill="none" stroke="black" points="1911,-239.5 1448,-239.5 1448,-141.5 1911,-141.5 1911,-239.5"/>
<text text-anchor="middle" x="1679.5" y="-224.3" font-family="Times New Roman,serif" font-size="14.00">friendly_name: output</text>
<text text-anchor="middle" x="1679.5" y="-209.3" font-family="Times New Roman,serif" font-size="14.00">name: Convolution_139</text>
<text text-anchor="middle" x="1679.5" y="-194.3" font-family="Times New Roman,serif" font-size="14.00">type_name: Convolution</text>
<text text-anchor="middle" x="1679.5" y="-179.3" font-family="Times New Roman,serif" font-size="14.00">in0: {f32}[1,3,9,9]: MaxPool_89: out0 PRECISIONS(2635393844352: u8) </text>
<text text-anchor="middle" x="1679.5" y="-164.3" font-family="Times New Roman,serif" font-size="14.00">in1: {f32}[6,3,1,1]: FakeQuantize_138: out0 PRECISIONS(2635393853984: i8) </text>
<text text-anchor="middle" x="1679.5" y="-149.3" font-family="Times New Roman,serif" font-size="14.00">out0: {f32}[1,6,9,9]</text>
</g>
<!-- Result_103 -->
<g id="node2" class="node"><title>Result_103</title>
<polygon fill="none" stroke="crimson" stroke-width="1.5" points="1806.5,-68 1552.5,-68 1552.5,-0 1806.5,-0 1806.5,-68"/>
<text text-anchor="middle" x="1679.5" y="-52.8" font-family="Times New Roman,serif" font-size="14.00">friendly_name: Result_103</text>
<text text-anchor="middle" x="1679.5" y="-37.8" font-family="Times New Roman,serif" font-size="14.00">type_name: Result</text>
<text text-anchor="middle" x="1679.5" y="-22.8" font-family="Times New Roman,serif" font-size="14.00">in0: {f32}[1,6,9,9]: Convolution_139: out0</text>
<text text-anchor="middle" x="1679.5" y="-7.8" font-family="Times New Roman,serif" font-size="14.00">out0: {f32}[1,6,9,9]</text>
</g>
<!-- Convolution_139&#45;&gt;Result_103 -->
<g id="edge1" class="edge"><title>Convolution_139&#45;&gt;Result_103</title>
<path fill="none" stroke="black" d="M1679.5,-141.462C1679.5,-121.339 1679.5,-98.1141 1679.5,-78.5016"/>
<polygon fill="black" stroke="black" points="1683,-78.3161 1679.5,-68.3162 1676,-78.3162 1683,-78.3161"/>
<text text-anchor="middle" x="1700.5" y="-89.8" font-family="Times New Roman,serif" font-size="14.00"> 0 &#45;&gt; 0 </text>
</g>
<!-- MaxPool_89 -->
<g id="node3" class="node"><title>MaxPool_89</title>
<polygon fill="none" stroke="black" points="1824,-426 1307,-426 1307,-343 1824,-343 1824,-426"/>
<text text-anchor="middle" x="1565.5" y="-410.8" font-family="Times New Roman,serif" font-size="14.00">friendly_name: MaxPool_89</text>
<text text-anchor="middle" x="1565.5" y="-395.8" font-family="Times New Roman,serif" font-size="14.00">type_name: MaxPool</text>
<text text-anchor="middle" x="1565.5" y="-380.8" font-family="Times New Roman,serif" font-size="14.00">rt info: &#160;PRECISION_PRESERVED(2635393844248: shared: 2635393967408,value: true)</text>
<text text-anchor="middle" x="1565.5" y="-365.8" font-family="Times New Roman,serif" font-size="14.00">in0: {f32}[1,3,9,9]: MaxPool_87: out0</text>
<text text-anchor="middle" x="1565.5" y="-350.8" font-family="Times New Roman,serif" font-size="14.00">out0: {f32}[1,3,9,9]</text>
</g>
<!-- MaxPool_89&#45;&gt;Convolution_139 -->
<g id="edge2" class="edge"><title>MaxPool_89&#45;&gt;Convolution_139</title>
<path fill="none" stroke="black" d="M1589.68,-342.782C1605.98,-315.33 1627.71,-278.73 1645.71,-248.406"/>
<polygon fill="black" stroke="black" points="1648.83,-250.01 1650.93,-239.625 1642.81,-246.436 1648.83,-250.01"/>
<text text-anchor="middle" x="1646.5" y="-283.8" font-family="Times New Roman,serif" font-size="14.00"> 0 &#45;&gt; 0 </text>
</g>
<!-- FakeQuantize_138 -->
<g id="node4" class="node"><title>FakeQuantize_138</title>
<polygon fill="none" stroke="black" points="2079,-456 1842,-456 1842,-313 2079,-313 2079,-456"/>
<text text-anchor="middle" x="1960.5" y="-440.8" font-family="Times New Roman,serif" font-size="14.00">friendly_name: fakeQuantizeOnWeights</text>
<text text-anchor="middle" x="1960.5" y="-425.8" font-family="Times New Roman,serif" font-size="14.00">name: FakeQuantize_138</text>
<text text-anchor="middle" x="1960.5" y="-410.8" font-family="Times New Roman,serif" font-size="14.00">type_name: FakeQuantize</text>
<text text-anchor="middle" x="1960.5" y="-395.8" font-family="Times New Roman,serif" font-size="14.00">in0: {f32}[6,3,1,1]: Constant_90: out0</text>
<text text-anchor="middle" x="1960.5" y="-380.8" font-family="Times New Roman,serif" font-size="14.00">in1: {f32}[6,1,1,1]: Constant_91: out0</text>
<text text-anchor="middle" x="1960.5" y="-365.8" font-family="Times New Roman,serif" font-size="14.00">in2: {f32}[6,1,1,1]: Constant_92: out0</text>
<text text-anchor="middle" x="1960.5" y="-350.8" font-family="Times New Roman,serif" font-size="14.00">in3: {f32}[6,1,1,1]: Constant_93: out0</text>
<text text-anchor="middle" x="1960.5" y="-335.8" font-family="Times New Roman,serif" font-size="14.00">in4: {f32}[6,1,1,1]: Constant_94: out0</text>
<text text-anchor="middle" x="1960.5" y="-320.8" font-family="Times New Roman,serif" font-size="14.00">out0: {f32}[6,3,1,1]</text>
</g>
<!-- FakeQuantize_138&#45;&gt;Convolution_139 -->
<g id="edge3" class="edge"><title>FakeQuantize_138&#45;&gt;Convolution_139</title>
<path fill="none" stroke="black" d="M1857.06,-312.824C1824.45,-290.54 1788.97,-266.296 1758.35,-245.379"/>
<polygon fill="black" stroke="black" points="1760.09,-242.324 1749.86,-239.572 1756.14,-248.104 1760.09,-242.324"/>
<text text-anchor="middle" x="1848.5" y="-283.8" font-family="Times New Roman,serif" font-size="14.00"> 0 &#45;&gt; 1 </text>
</g>
<!-- CLONE_0 -->
<g id="node5" class="node"><title>CLONE_0</title>
<polygon fill="none" stroke="black" stroke-dasharray="5,2" points="1540,-620 1323,-620 1323,-507 1540,-507 1540,-620"/>
<text text-anchor="middle" x="1431.5" y="-604.8" font-family="Times New Roman,serif" font-size="14.00">friendly_name: Constant_90</text>
<text text-anchor="middle" x="1431.5" y="-589.8" font-family="Times New Roman,serif" font-size="14.00">type_name: Constant</text>
<text text-anchor="middle" x="1431.5" y="-574.8" font-family="Times New Roman,serif" font-size="14.00">{f32}[6,3,1,1]</text>
<text text-anchor="middle" x="1431.5" y="-559.8" font-family="Times New Roman,serif" font-size="14.00">value: [18, 18, 18, 18, 18, 18, 18, 18</text>
<text text-anchor="middle" x="1431.5" y="-544.8" font-family="Times New Roman,serif" font-size="14.00">, 18, 18, 18, 18, 18, 18, 18, 18</text>
<text text-anchor="middle" x="1431.5" y="-529.8" font-family="Times New Roman,serif" font-size="14.00">, 18, 18</text>
<text text-anchor="middle" x="1431.5" y="-514.8" font-family="Times New Roman,serif" font-size="14.00">(min: 18, max: 18)]</text>
</g>
<!-- CLONE_0&#45;&gt;FakeQuantize_138 -->
<g id="edge4" class="edge"><title>CLONE_0&#45;&gt;FakeQuantize_138</title>
<path fill="none" stroke="black" d="M1540.1,-509.825C1542.91,-508.836 1545.72,-507.892 1548.5,-507 1607.02,-488.254 1758.44,-478.473 1831.89,-456.159"/>
<polygon fill="black" stroke="black" points="1833.32,-459.375 1841.72,-452.925 1831.13,-452.726 1833.32,-459.375"/>
<text text-anchor="middle" x="1764.5" y="-477.8" font-family="Times New Roman,serif" font-size="14.00"> 0 &#45;&gt; 0 </text>
</g>
<!-- CLONE_1 -->
<g id="node6" class="node"><title>CLONE_1</title>
<polygon fill="none" stroke="black" stroke-dasharray="5,2" points="1823,-605 1558,-605 1558,-522 1823,-522 1823,-605"/>
<text text-anchor="middle" x="1690.5" y="-589.8" font-family="Times New Roman,serif" font-size="14.00">friendly_name: Constant_91</text>
<text text-anchor="middle" x="1690.5" y="-574.8" font-family="Times New Roman,serif" font-size="14.00">type_name: Constant</text>
<text text-anchor="middle" x="1690.5" y="-559.8" font-family="Times New Roman,serif" font-size="14.00">{f32}[6,1,1,1]</text>
<text text-anchor="middle" x="1690.5" y="-544.8" font-family="Times New Roman,serif" font-size="14.00">value: [&#45;1.27, &#45;1.27, &#45;1.27, &#45;1.27, &#45;1.27, &#45;1.27</text>
<text text-anchor="middle" x="1690.5" y="-529.8" font-family="Times New Roman,serif" font-size="14.00">(min: &#45;1.27, max: &#45;1.27)]</text>
</g>
<!-- CLONE_1&#45;&gt;FakeQuantize_138 -->
<g id="edge5" class="edge"><title>CLONE_1&#45;&gt;FakeQuantize_138</title>
<path fill="none" stroke="black" d="M1752.44,-521.893C1779.74,-503.998 1812.74,-482.364 1844.34,-461.651"/>
<polygon fill="black" stroke="black" points="1846.32,-464.533 1852.77,-456.124 1842.49,-458.679 1846.32,-464.533"/>
<text text-anchor="middle" x="1846.5" y="-477.8" font-family="Times New Roman,serif" font-size="14.00"> 0 &#45;&gt; 1 </text>
</g>
<!-- CLONE_2 -->
<g id="node7" class="node"><title>CLONE_2</title>
<polygon fill="none" stroke="black" stroke-dasharray="5,2" points="2079.5,-605 1841.5,-605 1841.5,-522 2079.5,-522 2079.5,-605"/>
<text text-anchor="middle" x="1960.5" y="-589.8" font-family="Times New Roman,serif" font-size="14.00">friendly_name: Constant_92</text>
<text text-anchor="middle" x="1960.5" y="-574.8" font-family="Times New Roman,serif" font-size="14.00">type_name: Constant</text>
<text text-anchor="middle" x="1960.5" y="-559.8" font-family="Times New Roman,serif" font-size="14.00">{f32}[6,1,1,1]</text>
<text text-anchor="middle" x="1960.5" y="-544.8" font-family="Times New Roman,serif" font-size="14.00">value: [1.27, 1.27, 1.27, 1.27, 1.27, 1.27</text>
<text text-anchor="middle" x="1960.5" y="-529.8" font-family="Times New Roman,serif" font-size="14.00">(min: 1.27, max: 1.27)]</text>
</g>
<!-- CLONE_2&#45;&gt;FakeQuantize_138 -->
<g id="edge6" class="edge"><title>CLONE_2&#45;&gt;FakeQuantize_138</title>
<path fill="none" stroke="black" d="M1960.5,-521.893C1960.5,-505.292 1960.5,-485.475 1960.5,-466.159"/>
<polygon fill="black" stroke="black" points="1964,-466.124 1960.5,-456.124 1957,-466.124 1964,-466.124"/>
<text text-anchor="middle" x="1981.5" y="-477.8" font-family="Times New Roman,serif" font-size="14.00"> 0 &#45;&gt; 2 </text>
</g>
<!-- CLONE_3 -->
<g id="node8" class="node"><title>CLONE_3</title>
<polygon fill="none" stroke="black" stroke-dasharray="5,2" points="2363,-605 2098,-605 2098,-522 2363,-522 2363,-605"/>
<text text-anchor="middle" x="2230.5" y="-589.8" font-family="Times New Roman,serif" font-size="14.00">friendly_name: Constant_93</text>
<text text-anchor="middle" x="2230.5" y="-574.8" font-family="Times New Roman,serif" font-size="14.00">type_name: Constant</text>
<text text-anchor="middle" x="2230.5" y="-559.8" font-family="Times New Roman,serif" font-size="14.00">{f32}[6,1,1,1]</text>
<text text-anchor="middle" x="2230.5" y="-544.8" font-family="Times New Roman,serif" font-size="14.00">value: [&#45;1.27, &#45;1.27, &#45;1.27, &#45;1.27, &#45;1.27, &#45;1.27</text>
<text text-anchor="middle" x="2230.5" y="-529.8" font-family="Times New Roman,serif" font-size="14.00">(min: &#45;1.27, max: &#45;1.27)]</text>
</g>
<!-- CLONE_3&#45;&gt;FakeQuantize_138 -->
<g id="edge7" class="edge"><title>CLONE_3&#45;&gt;FakeQuantize_138</title>
<path fill="none" stroke="black" d="M2168.56,-521.893C2141.26,-503.998 2108.26,-482.364 2076.66,-461.651"/>
<polygon fill="black" stroke="black" points="2078.51,-458.679 2068.23,-456.124 2074.68,-464.533 2078.51,-458.679"/>
<text text-anchor="middle" x="2132.5" y="-477.8" font-family="Times New Roman,serif" font-size="14.00"> 0 &#45;&gt; 3 </text>
</g>
<!-- CLONE_4 -->
<g id="node9" class="node"><title>CLONE_4</title>
<polygon fill="none" stroke="black" stroke-dasharray="5,2" points="2619.5,-605 2381.5,-605 2381.5,-522 2619.5,-522 2619.5,-605"/>
<text text-anchor="middle" x="2500.5" y="-589.8" font-family="Times New Roman,serif" font-size="14.00">friendly_name: Constant_94</text>
<text text-anchor="middle" x="2500.5" y="-574.8" font-family="Times New Roman,serif" font-size="14.00">type_name: Constant</text>
<text text-anchor="middle" x="2500.5" y="-559.8" font-family="Times New Roman,serif" font-size="14.00">{f32}[6,1,1,1]</text>
<text text-anchor="middle" x="2500.5" y="-544.8" font-family="Times New Roman,serif" font-size="14.00">value: [1.27, 1.27, 1.27, 1.27, 1.27, 1.27</text>
<text text-anchor="middle" x="2500.5" y="-529.8" font-family="Times New Roman,serif" font-size="14.00">(min: 1.27, max: 1.27)]</text>
</g>
<!-- CLONE_4&#45;&gt;FakeQuantize_138 -->
<g id="edge8" class="edge"><title>CLONE_4&#45;&gt;FakeQuantize_138</title>
<path fill="none" stroke="black" d="M2410.85,-521.985C2398.07,-516.695 2385.02,-511.542 2372.5,-507 2279.03,-473.098 2171.17,-441.552 2089.25,-419.104"/>
<polygon fill="black" stroke="black" points="2089.97,-415.67 2079.4,-416.412 2088.12,-422.423 2089.97,-415.67"/>
<text text-anchor="middle" x="2337.5" y="-477.8" font-family="Times New Roman,serif" font-size="14.00"> 0 &#45;&gt; 4 </text>
</g>
<!-- MaxPool_87 -->
<g id="node10" class="node"><title>MaxPool_87</title>
<polygon fill="none" stroke="black" points="1297,-612.5 780,-612.5 780,-514.5 1297,-514.5 1297,-612.5"/>
<text text-anchor="middle" x="1038.5" y="-597.3" font-family="Times New Roman,serif" font-size="14.00">friendly_name: maxPool2</text>
<text text-anchor="middle" x="1038.5" y="-582.3" font-family="Times New Roman,serif" font-size="14.00">name: MaxPool_87</text>
<text text-anchor="middle" x="1038.5" y="-567.3" font-family="Times New Roman,serif" font-size="14.00">type_name: MaxPool</text>
<text text-anchor="middle" x="1038.5" y="-552.3" font-family="Times New Roman,serif" font-size="14.00">rt info: &#160;PRECISION_PRESERVED(2635393844136: shared: 2635393971504,value: true)</text>
<text text-anchor="middle" x="1038.5" y="-537.3" font-family="Times New Roman,serif" font-size="14.00">in0: {f32}[1,3,9,9]: AvgPool_137: out0</text>
<text text-anchor="middle" x="1038.5" y="-522.3" font-family="Times New Roman,serif" font-size="14.00">out0: {f32}[1,3,9,9]</text>
</g>
<!-- MaxPool_87&#45;&gt;MaxPool_89 -->
<g id="edge9" class="edge"><title>MaxPool_87&#45;&gt;MaxPool_89</title>
<path fill="none" stroke="black" d="M1181.46,-514.485C1260.53,-487.928 1358.06,-455.171 1435.05,-429.314"/>
<polygon fill="black" stroke="black" points="1436.44,-432.537 1444.81,-426.036 1434.22,-425.902 1436.44,-432.537"/>
<text text-anchor="middle" x="1323.5" y="-477.8" font-family="Times New Roman,serif" font-size="14.00"> 0 &#45;&gt; 0 </text>
</g>
<!-- MaxPool_88 -->
<g id="node21" class="node"><title>MaxPool_88</title>
<polygon fill="none" stroke="black" points="1289,-426 772,-426 772,-343 1289,-343 1289,-426"/>
<text text-anchor="middle" x="1030.5" y="-410.8" font-family="Times New Roman,serif" font-size="14.00">friendly_name: MaxPool_88</text>
<text text-anchor="middle" x="1030.5" y="-395.8" font-family="Times New Roman,serif" font-size="14.00">type_name: MaxPool</text>
<text text-anchor="middle" x="1030.5" y="-380.8" font-family="Times New Roman,serif" font-size="14.00">rt info: &#160;PRECISION_PRESERVED(2635393854440: shared: 2635393969840,value: true)</text>
<text text-anchor="middle" x="1030.5" y="-365.8" font-family="Times New Roman,serif" font-size="14.00">in0: {f32}[1,3,9,9]: MaxPool_87: out0</text>
<text text-anchor="middle" x="1030.5" y="-350.8" font-family="Times New Roman,serif" font-size="14.00">out0: {f32}[1,3,9,9]</text>
</g>
<!-- MaxPool_87&#45;&gt;MaxPool_88 -->
<g id="edge24" class="edge"><title>MaxPool_87&#45;&gt;MaxPool_88</title>
<path fill="none" stroke="black" d="M1036.31,-514.134C1035.22,-489.952 1033.9,-460.699 1032.79,-436.203"/>
<polygon fill="black" stroke="black" points="1036.28,-435.856 1032.33,-426.024 1029.29,-436.172 1036.28,-435.856"/>
<text text-anchor="middle" x="1056.5" y="-477.8" font-family="Times New Roman,serif" font-size="14.00"> 0 &#45;&gt; 0 </text>
</g>
<!-- AvgPool_137 -->
<g id="node11" class="node"><title>AvgPool_137</title>
<polygon fill="none" stroke="black" points="1153,-754 924,-754 924,-671 1153,-671 1153,-754"/>
<text text-anchor="middle" x="1038.5" y="-738.8" font-family="Times New Roman,serif" font-size="14.00">friendly_name: avgPool</text>
<text text-anchor="middle" x="1038.5" y="-723.8" font-family="Times New Roman,serif" font-size="14.00">name: AvgPool_137</text>
<text text-anchor="middle" x="1038.5" y="-708.8" font-family="Times New Roman,serif" font-size="14.00">type_name: AvgPool</text>
<text text-anchor="middle" x="1038.5" y="-693.8" font-family="Times New Roman,serif" font-size="14.00">in0: {f32}[1,3,9,9]: MaxPool_85: out0</text>
<text text-anchor="middle" x="1038.5" y="-678.8" font-family="Times New Roman,serif" font-size="14.00">out0: {f32}[1,3,9,9]</text>
</g>
<!-- AvgPool_137&#45;&gt;MaxPool_87 -->
<g id="edge10" class="edge"><title>AvgPool_137&#45;&gt;MaxPool_87</title>
<path fill="none" stroke="black" d="M1038.5,-670.942C1038.5,-656.163 1038.5,-639.144 1038.5,-623.111"/>
<polygon fill="black" stroke="black" points="1042,-622.751 1038.5,-612.751 1035,-622.751 1042,-622.751"/>
<text text-anchor="middle" x="1059.5" y="-641.8" font-family="Times New Roman,serif" font-size="14.00"> 0 &#45;&gt; 0 </text>
</g>
<!-- MaxPool_85 -->
<g id="node12" class="node"><title>MaxPool_85</title>
<polygon fill="none" stroke="black" points="1297,-903 780,-903 780,-805 1297,-805 1297,-903"/>
<text text-anchor="middle" x="1038.5" y="-887.8" font-family="Times New Roman,serif" font-size="14.00">friendly_name: maxPool1</text>
<text text-anchor="middle" x="1038.5" y="-872.8" font-family="Times New Roman,serif" font-size="14.00">name: MaxPool_85</text>
<text text-anchor="middle" x="1038.5" y="-857.8" font-family="Times New Roman,serif" font-size="14.00">type_name: MaxPool</text>
<text text-anchor="middle" x="1038.5" y="-842.8" font-family="Times New Roman,serif" font-size="14.00">rt info: &#160;PRECISION_PRESERVED(2635393844024: shared: 2635393968048,value: true)</text>
<text text-anchor="middle" x="1038.5" y="-827.8" font-family="Times New Roman,serif" font-size="14.00">in0: {f32}[1,3,9,9]: FakeQuantize_136: out0</text>
<text text-anchor="middle" x="1038.5" y="-812.8" font-family="Times New Roman,serif" font-size="14.00">out0: {f32}[1,3,9,9]</text>
</g>
<!-- MaxPool_85&#45;&gt;AvgPool_137 -->
<g id="edge11" class="edge"><title>MaxPool_85&#45;&gt;AvgPool_137</title>
<path fill="none" stroke="black" d="M1038.5,-804.992C1038.5,-791.932 1038.5,-777.743 1038.5,-764.523"/>
<polygon fill="black" stroke="black" points="1042,-764.168 1038.5,-754.168 1035,-764.168 1042,-764.168"/>
<text text-anchor="middle" x="1059.5" y="-775.8" font-family="Times New Roman,serif" font-size="14.00"> 0 &#45;&gt; 0 </text>
</g>
<!-- FakeQuantize_136 -->
<g id="node13" class="node"><title>FakeQuantize_136</title>
<polygon fill="none" stroke="black" points="1165.5,-1097 911.5,-1097 911.5,-954 1165.5,-954 1165.5,-1097"/>
<text text-anchor="middle" x="1038.5" y="-1081.8" font-family="Times New Roman,serif" font-size="14.00">friendly_name: fakeQuantizeOnActivations</text>
<text text-anchor="middle" x="1038.5" y="-1066.8" font-family="Times New Roman,serif" font-size="14.00">name: FakeQuantize_136</text>
<text text-anchor="middle" x="1038.5" y="-1051.8" font-family="Times New Roman,serif" font-size="14.00">type_name: FakeQuantize</text>
<text text-anchor="middle" x="1038.5" y="-1036.8" font-family="Times New Roman,serif" font-size="14.00">in0: {f32}[1,3,9,9]: Parameter_79: out0</text>
<text text-anchor="middle" x="1038.5" y="-1021.8" font-family="Times New Roman,serif" font-size="14.00">in1: {f32}[]: Constant_80: out0</text>
<text text-anchor="middle" x="1038.5" y="-1006.8" font-family="Times New Roman,serif" font-size="14.00">in2: {f32}[]: Constant_81: out0</text>
<text text-anchor="middle" x="1038.5" y="-991.8" font-family="Times New Roman,serif" font-size="14.00">in3: {f32}[]: Constant_82: out0</text>
<text text-anchor="middle" x="1038.5" y="-976.8" font-family="Times New Roman,serif" font-size="14.00">in4: {f32}[]: Constant_83: out0</text>
<text text-anchor="middle" x="1038.5" y="-961.8" font-family="Times New Roman,serif" font-size="14.00">out0: {f32}[1,3,9,9]</text>
</g>
<!-- FakeQuantize_136&#45;&gt;MaxPool_85 -->
<g id="edge12" class="edge"><title>FakeQuantize_136&#45;&gt;MaxPool_85</title>
<path fill="none" stroke="black" d="M1038.5,-953.599C1038.5,-940.213 1038.5,-926.353 1038.5,-913.405"/>
<polygon fill="black" stroke="black" points="1042,-913.242 1038.5,-903.242 1035,-913.242 1042,-913.242"/>
<text text-anchor="middle" x="1059.5" y="-924.8" font-family="Times New Roman,serif" font-size="14.00"> 0 &#45;&gt; 0 </text>
</g>
<!-- CLONE_5 -->
<g id="node14" class="node"><title>CLONE_5</title>
<polygon fill="none" stroke="blue" stroke-dasharray="5,2" points="743,-1216 564,-1216 564,-1163 743,-1163 743,-1216"/>
<text text-anchor="middle" x="653.5" y="-1200.8" font-family="Times New Roman,serif" font-size="14.00">friendly_name: Parameter_79</text>
<text text-anchor="middle" x="653.5" y="-1185.8" font-family="Times New Roman,serif" font-size="14.00">type_name: Parameter</text>
<text text-anchor="middle" x="653.5" y="-1170.8" font-family="Times New Roman,serif" font-size="14.00">{f32}[1,3,9,9]</text>
</g>
<!-- CLONE_5&#45;&gt;FakeQuantize_136 -->
<g id="edge13" class="edge"><title>CLONE_5&#45;&gt;FakeQuantize_136</title>
<path fill="none" stroke="black" d="M714.504,-1162.83C764.724,-1141.7 837.815,-1110.94 901.87,-1083.99"/>
<polygon fill="black" stroke="black" points="903.392,-1087.15 911.252,-1080.04 900.677,-1080.7 903.392,-1087.15"/>
<text text-anchor="middle" x="844.5" y="-1118.8" font-family="Times New Roman,serif" font-size="14.00"> 0 &#45;&gt; 0 </text>
</g>
<!-- CLONE_6 -->
<g id="node15" class="node"><title>CLONE_6</title>
<polygon fill="none" stroke="black" stroke-dasharray="5,2" points="934,-1231 761,-1231 761,-1148 934,-1148 934,-1231"/>
<text text-anchor="middle" x="847.5" y="-1215.8" font-family="Times New Roman,serif" font-size="14.00">friendly_name: Constant_80</text>
<text text-anchor="middle" x="847.5" y="-1200.8" font-family="Times New Roman,serif" font-size="14.00">type_name: Constant</text>
<text text-anchor="middle" x="847.5" y="-1185.8" font-family="Times New Roman,serif" font-size="14.00">{f32}[]</text>
<text text-anchor="middle" x="847.5" y="-1170.8" font-family="Times New Roman,serif" font-size="14.00">value: [&#45;1.28</text>
<text text-anchor="middle" x="847.5" y="-1155.8" font-family="Times New Roman,serif" font-size="14.00">(min: &#45;1.28, max: &#45;1.28)]</text>
</g>
<!-- CLONE_6&#45;&gt;FakeQuantize_136 -->
<g id="edge14" class="edge"><title>CLONE_6&#45;&gt;FakeQuantize_136</title>
<path fill="none" stroke="black" d="M895.697,-1147.62C911.459,-1134.25 929.521,-1118.93 947.378,-1103.79"/>
<polygon fill="black" stroke="black" points="949.649,-1106.45 955.011,-1097.31 945.121,-1101.11 949.649,-1106.45"/>
<text text-anchor="middle" x="953.5" y="-1118.8" font-family="Times New Roman,serif" font-size="14.00"> 0 &#45;&gt; 1 </text>
</g>
<!-- CLONE_7 -->
<g id="node16" class="node"><title>CLONE_7</title>
<polygon fill="none" stroke="black" stroke-dasharray="5,2" points="1125,-1231 952,-1231 952,-1148 1125,-1148 1125,-1231"/>
<text text-anchor="middle" x="1038.5" y="-1215.8" font-family="Times New Roman,serif" font-size="14.00">friendly_name: Constant_81</text>
<text text-anchor="middle" x="1038.5" y="-1200.8" font-family="Times New Roman,serif" font-size="14.00">type_name: Constant</text>
<text text-anchor="middle" x="1038.5" y="-1185.8" font-family="Times New Roman,serif" font-size="14.00">{f32}[]</text>
<text text-anchor="middle" x="1038.5" y="-1170.8" font-family="Times New Roman,serif" font-size="14.00">value: [1.27</text>
<text text-anchor="middle" x="1038.5" y="-1155.8" font-family="Times New Roman,serif" font-size="14.00">(min: 1.27, max: 1.27)]</text>
</g>
<!-- CLONE_7&#45;&gt;FakeQuantize_136 -->
<g id="edge15" class="edge"><title>CLONE_7&#45;&gt;FakeQuantize_136</title>
<path fill="none" stroke="black" d="M1038.5,-1147.62C1038.5,-1135.33 1038.5,-1121.38 1038.5,-1107.44"/>
<polygon fill="black" stroke="black" points="1042,-1107.31 1038.5,-1097.31 1035,-1107.31 1042,-1107.31"/>
<text text-anchor="middle" x="1059.5" y="-1118.8" font-family="Times New Roman,serif" font-size="14.00"> 0 &#45;&gt; 2 </text>
</g>
<!-- CLONE_8 -->
<g id="node17" class="node"><title>CLONE_8</title>
<polygon fill="none" stroke="black" stroke-dasharray="5,2" points="1316,-1231 1143,-1231 1143,-1148 1316,-1148 1316,-1231"/>
<text text-anchor="middle" x="1229.5" y="-1215.8" font-family="Times New Roman,serif" font-size="14.00">friendly_name: Constant_82</text>
<text text-anchor="middle" x="1229.5" y="-1200.8" font-family="Times New Roman,serif" font-size="14.00">type_name: Constant</text>
<text text-anchor="middle" x="1229.5" y="-1185.8" font-family="Times New Roman,serif" font-size="14.00">{f32}[]</text>
<text text-anchor="middle" x="1229.5" y="-1170.8" font-family="Times New Roman,serif" font-size="14.00">value: [&#45;1.28</text>
<text text-anchor="middle" x="1229.5" y="-1155.8" font-family="Times New Roman,serif" font-size="14.00">(min: &#45;1.28, max: &#45;1.28)]</text>
</g>
<!-- CLONE_8&#45;&gt;FakeQuantize_136 -->
<g id="edge16" class="edge"><title>CLONE_8&#45;&gt;FakeQuantize_136</title>
<path fill="none" stroke="black" d="M1181.3,-1147.62C1165.54,-1134.25 1147.48,-1118.93 1129.62,-1103.79"/>
<polygon fill="black" stroke="black" points="1131.88,-1101.11 1121.99,-1097.31 1127.35,-1106.45 1131.88,-1101.11"/>
<text text-anchor="middle" x="1178.5" y="-1118.8" font-family="Times New Roman,serif" font-size="14.00"> 0 &#45;&gt; 3 </text>
</g>
<!-- CLONE_9 -->
<g id="node18" class="node"><title>CLONE_9</title>
<polygon fill="none" stroke="black" stroke-dasharray="5,2" points="1507,-1231 1334,-1231 1334,-1148 1507,-1148 1507,-1231"/>
<text text-anchor="middle" x="1420.5" y="-1215.8" font-family="Times New Roman,serif" font-size="14.00">friendly_name: Constant_83</text>
<text text-anchor="middle" x="1420.5" y="-1200.8" font-family="Times New Roman,serif" font-size="14.00">type_name: Constant</text>
<text text-anchor="middle" x="1420.5" y="-1185.8" font-family="Times New Roman,serif" font-size="14.00">{f32}[]</text>
<text text-anchor="middle" x="1420.5" y="-1170.8" font-family="Times New Roman,serif" font-size="14.00">value: [1.27</text>
<text text-anchor="middle" x="1420.5" y="-1155.8" font-family="Times New Roman,serif" font-size="14.00">(min: 1.27, max: 1.27)]</text>
</g>
<!-- CLONE_9&#45;&gt;FakeQuantize_136 -->
<g id="edge17" class="edge"><title>CLONE_9&#45;&gt;FakeQuantize_136</title>
<path fill="none" stroke="black" d="M1333.82,-1151.74C1286.99,-1131.88 1228.1,-1106.9 1175.24,-1084.49"/>
<polygon fill="black" stroke="black" points="1176.37,-1081.17 1165.79,-1080.48 1173.63,-1087.61 1176.37,-1081.17"/>
<text text-anchor="middle" x="1296.5" y="-1118.8" font-family="Times New Roman,serif" font-size="14.00"> 0 &#45;&gt; 4 </text>
</g>
<!-- FakeQuantize_140 -->
<g id="node19" class="node"><title>FakeQuantize_140</title>
<polygon fill="none" stroke="black" points="583,-262 354,-262 354,-119 583,-119 583,-262"/>
<text text-anchor="middle" x="468.5" y="-246.8" font-family="Times New Roman,serif" font-size="14.00">friendly_name: fakeQuantize1</text>
<text text-anchor="middle" x="468.5" y="-231.8" font-family="Times New Roman,serif" font-size="14.00">name: FakeQuantize_140</text>
<text text-anchor="middle" x="468.5" y="-216.8" font-family="Times New Roman,serif" font-size="14.00">type_name: FakeQuantize</text>
<text text-anchor="middle" x="468.5" y="-201.8" font-family="Times New Roman,serif" font-size="14.00">in0: {f32}[1,3,9,9]: MaxPool_88: out0</text>
<text text-anchor="middle" x="468.5" y="-186.8" font-family="Times New Roman,serif" font-size="14.00">in1: {f32}[]: Constant_97: out0</text>
<text text-anchor="middle" x="468.5" y="-171.8" font-family="Times New Roman,serif" font-size="14.00">in2: {f32}[]: Constant_98: out0</text>
<text text-anchor="middle" x="468.5" y="-156.8" font-family="Times New Roman,serif" font-size="14.00">in3: {f32}[]: Constant_99: out0</text>
<text text-anchor="middle" x="468.5" y="-141.8" font-family="Times New Roman,serif" font-size="14.00">in4: {f32}[]: Constant_100: out0</text>
<text text-anchor="middle" x="468.5" y="-126.8" font-family="Times New Roman,serif" font-size="14.00">out0: {f32}[1,3,9,9]</text>
</g>
<!-- Result_102 -->
<g id="node20" class="node"><title>Result_102</title>
<polygon fill="none" stroke="crimson" stroke-width="1.5" points="598.5,-68 338.5,-68 338.5,-0 598.5,-0 598.5,-68"/>
<text text-anchor="middle" x="468.5" y="-52.8" font-family="Times New Roman,serif" font-size="14.00">friendly_name: Result_102</text>
<text text-anchor="middle" x="468.5" y="-37.8" font-family="Times New Roman,serif" font-size="14.00">type_name: Result</text>
<text text-anchor="middle" x="468.5" y="-22.8" font-family="Times New Roman,serif" font-size="14.00">in0: {f32}[1,3,9,9]: FakeQuantize_140: out0</text>
<text text-anchor="middle" x="468.5" y="-7.8" font-family="Times New Roman,serif" font-size="14.00">out0: {f32}[1,3,9,9]</text>
</g>
<!-- FakeQuantize_140&#45;&gt;Result_102 -->
<g id="edge18" class="edge"><title>FakeQuantize_140&#45;&gt;Result_102</title>
<path fill="none" stroke="black" d="M468.5,-118.581C468.5,-104.822 468.5,-90.7944 468.5,-78.2583"/>
<polygon fill="black" stroke="black" points="472,-78.1174 468.5,-68.1175 465,-78.1175 472,-78.1174"/>
<text text-anchor="middle" x="489.5" y="-89.8" font-family="Times New Roman,serif" font-size="14.00"> 0 &#45;&gt; 0 </text>
</g>
<!-- MaxPool_88&#45;&gt;FakeQuantize_140 -->
<g id="edge19" class="edge"><title>MaxPool_88&#45;&gt;FakeQuantize_140</title>
<path fill="none" stroke="black" d="M911.658,-342.899C818.074,-310.927 688.009,-266.492 592.995,-234.032"/>
<polygon fill="black" stroke="black" points="593.927,-230.652 583.333,-230.731 591.664,-237.276 593.927,-230.652"/>
<text text-anchor="middle" x="787.5" y="-283.8" font-family="Times New Roman,serif" font-size="14.00"> 0 &#45;&gt; 0 </text>
</g>
<!-- CLONE_10 -->
<g id="node22" class="node"><title>CLONE_10</title>
<polygon fill="none" stroke="black" stroke-dasharray="5,2" points="173,-426 0,-426 0,-343 173,-343 173,-426"/>
<text text-anchor="middle" x="86.5" y="-410.8" font-family="Times New Roman,serif" font-size="14.00">friendly_name: Constant_97</text>
<text text-anchor="middle" x="86.5" y="-395.8" font-family="Times New Roman,serif" font-size="14.00">type_name: Constant</text>
<text text-anchor="middle" x="86.5" y="-380.8" font-family="Times New Roman,serif" font-size="14.00">{f32}[]</text>
<text text-anchor="middle" x="86.5" y="-365.8" font-family="Times New Roman,serif" font-size="14.00">value: [&#45;1.28</text>
<text text-anchor="middle" x="86.5" y="-350.8" font-family="Times New Roman,serif" font-size="14.00">(min: &#45;1.28, max: &#45;1.28)]</text>
</g>
<!-- CLONE_10&#45;&gt;FakeQuantize_140 -->
<g id="edge20" class="edge"><title>CLONE_10&#45;&gt;FakeQuantize_140</title>
<path fill="none" stroke="black" d="M136.75,-342.755C150.781,-332.35 166.345,-321.666 181.5,-313 232.793,-283.669 292.55,-257.253 344.216,-236.602"/>
<polygon fill="black" stroke="black" points="345.76,-239.755 353.765,-232.814 343.179,-233.248 345.76,-239.755"/>
<text text-anchor="middle" x="263.5" y="-283.8" font-family="Times New Roman,serif" font-size="14.00"> 0 &#45;&gt; 1 </text>
</g>
<!-- CLONE_11 -->
<g id="node23" class="node"><title>CLONE_11</title>
<polygon fill="none" stroke="black" stroke-dasharray="5,2" points="364,-426 191,-426 191,-343 364,-343 364,-426"/>
<text text-anchor="middle" x="277.5" y="-410.8" font-family="Times New Roman,serif" font-size="14.00">friendly_name: Constant_98</text>
<text text-anchor="middle" x="277.5" y="-395.8" font-family="Times New Roman,serif" font-size="14.00">type_name: Constant</text>
<text text-anchor="middle" x="277.5" y="-380.8" font-family="Times New Roman,serif" font-size="14.00">{f32}[]</text>
<text text-anchor="middle" x="277.5" y="-365.8" font-family="Times New Roman,serif" font-size="14.00">value: [1.27</text>
<text text-anchor="middle" x="277.5" y="-350.8" font-family="Times New Roman,serif" font-size="14.00">(min: 1.27, max: 1.27)]</text>
</g>
<!-- CLONE_11&#45;&gt;FakeQuantize_140 -->
<g id="edge21" class="edge"><title>CLONE_11&#45;&gt;FakeQuantize_140</title>
<path fill="none" stroke="black" d="M318.006,-342.782C339.235,-321.442 365.964,-294.573 390.984,-269.422"/>
<polygon fill="black" stroke="black" points="393.765,-271.589 398.336,-262.031 388.802,-266.652 393.765,-271.589"/>
<text text-anchor="middle" x="400.5" y="-283.8" font-family="Times New Roman,serif" font-size="14.00"> 0 &#45;&gt; 2 </text>
</g>
<!-- CLONE_12 -->
<g id="node24" class="node"><title>CLONE_12</title>
<polygon fill="none" stroke="black" stroke-dasharray="5,2" points="555,-426 382,-426 382,-343 555,-343 555,-426"/>
<text text-anchor="middle" x="468.5" y="-410.8" font-family="Times New Roman,serif" font-size="14.00">friendly_name: Constant_99</text>
<text text-anchor="middle" x="468.5" y="-395.8" font-family="Times New Roman,serif" font-size="14.00">type_name: Constant</text>
<text text-anchor="middle" x="468.5" y="-380.8" font-family="Times New Roman,serif" font-size="14.00">{f32}[]</text>
<text text-anchor="middle" x="468.5" y="-365.8" font-family="Times New Roman,serif" font-size="14.00">value: [&#45;1.28</text>
<text text-anchor="middle" x="468.5" y="-350.8" font-family="Times New Roman,serif" font-size="14.00">(min: &#45;1.28, max: &#45;1.28)]</text>
</g>
<!-- CLONE_12&#45;&gt;FakeQuantize_140 -->
<g id="edge22" class="edge"><title>CLONE_12&#45;&gt;FakeQuantize_140</title>
<path fill="none" stroke="black" d="M468.5,-342.782C468.5,-322.266 468.5,-296.641 468.5,-272.344"/>
<polygon fill="black" stroke="black" points="472,-272.031 468.5,-262.031 465,-272.031 472,-272.031"/>
<text text-anchor="middle" x="489.5" y="-283.8" font-family="Times New Roman,serif" font-size="14.00"> 0 &#45;&gt; 3 </text>
</g>
<!-- CLONE_13 -->
<g id="node25" class="node"><title>CLONE_13</title>
<polygon fill="none" stroke="black" stroke-dasharray="5,2" points="753.5,-426 573.5,-426 573.5,-343 753.5,-343 753.5,-426"/>
<text text-anchor="middle" x="663.5" y="-410.8" font-family="Times New Roman,serif" font-size="14.00">friendly_name: Constant_100</text>
<text text-anchor="middle" x="663.5" y="-395.8" font-family="Times New Roman,serif" font-size="14.00">type_name: Constant</text>
<text text-anchor="middle" x="663.5" y="-380.8" font-family="Times New Roman,serif" font-size="14.00">{f32}[]</text>
<text text-anchor="middle" x="663.5" y="-365.8" font-family="Times New Roman,serif" font-size="14.00">value: [1.27</text>
<text text-anchor="middle" x="663.5" y="-350.8" font-family="Times New Roman,serif" font-size="14.00">(min: 1.27, max: 1.27)]</text>
</g>
<!-- CLONE_13&#45;&gt;FakeQuantize_140 -->
<g id="edge23" class="edge"><title>CLONE_13&#45;&gt;FakeQuantize_140</title>
<path fill="none" stroke="black" d="M622.146,-342.782C600.379,-321.35 572.949,-294.342 547.311,-269.098"/>
<polygon fill="black" stroke="black" points="549.714,-266.553 540.133,-262.031 544.803,-271.541 549.714,-266.553"/>
<text text-anchor="middle" x="593.5" y="-283.8" font-family="Times New Roman,serif" font-size="14.00"> 0 &#45;&gt; 4 </text>
</g>
</g>
</svg>
