<?xml version="1.0" encoding="UTF-8" standalone="no"?>
<!DOCTYPE svg PUBLIC "-//W3C//DTD SVG 1.1//EN"
 "http://www.w3.org/Graphics/SVG/1.1/DTD/svg11.dtd">
<!-- Generated by graphviz version 2.38.0 (20140413.2041)
 -->
<!-- Title: ngraph Pages: 1 -->
<svg width="3132pt" height="1269pt"
 viewBox="0.00 0.00 3131.50 1269.00" xmlns="http://www.w3.org/2000/svg" xmlns:xlink="http://www.w3.org/1999/xlink">
<g id="graph0" class="graph" transform="scale(1 1) rotate(0) translate(4 1265)">
<title>ngraph</title>
<polygon fill="white" stroke="none" points="-4,4 -4,-1265 3127.5,-1265 3127.5,4 -4,4"/>
<!-- Convolution_139 -->
<g id="node1" class="node"><title>Convolution_139</title>
<polygon fill="none" stroke="black" points="2418,-239.5 1955,-239.5 1955,-141.5 2418,-141.5 2418,-239.5"/>
<text text-anchor="middle" x="2186.5" y="-224.3" font-family="Times New Roman,serif" font-size="14.00">friendly_name: output</text>
<text text-anchor="middle" x="2186.5" y="-209.3" font-family="Times New Roman,serif" font-size="14.00">name: Convolution_139</text>
<text text-anchor="middle" x="2186.5" y="-194.3" font-family="Times New Roman,serif" font-size="14.00">type_name: Convolution</text>
<text text-anchor="middle" x="2186.5" y="-179.3" font-family="Times New Roman,serif" font-size="14.00">in0: {f32}[1,3,9,9]: MaxPool_89: out0 PRECISIONS(2635393854320: u8) </text>
<text text-anchor="middle" x="2186.5" y="-164.3" font-family="Times New Roman,serif" font-size="14.00">in1: {f32}[6,3,1,1]: FakeQuantize_138: out0 PRECISIONS(2635393850736: i8) </text>
<text text-anchor="middle" x="2186.5" y="-149.3" font-family="Times New Roman,serif" font-size="14.00">out0: {f32}[1,6,9,9]</text>
</g>
<!-- Result_103 -->
<g id="node2" class="node"><title>Result_103</title>
<polygon fill="none" stroke="crimson" stroke-width="1.5" points="2313.5,-68 2059.5,-68 2059.5,-0 2313.5,-0 2313.5,-68"/>
<text text-anchor="middle" x="2186.5" y="-52.8" font-family="Times New Roman,serif" font-size="14.00">friendly_name: Result_103</text>
<text text-anchor="middle" x="2186.5" y="-37.8" font-family="Times New Roman,serif" font-size="14.00">type_name: Result</text>
<text text-anchor="middle" x="2186.5" y="-22.8" font-family="Times New Roman,serif" font-size="14.00">in0: {f32}[1,6,9,9]: Convolution_139: out0</text>
<text text-anchor="middle" x="2186.5" y="-7.8" font-family="Times New Roman,serif" font-size="14.00">out0: {f32}[1,6,9,9]</text>
</g>
<!-- Convolution_139&#45;&gt;Result_103 -->
<g id="edge1" class="edge"><title>Convolution_139&#45;&gt;Result_103</title>
<path fill="none" stroke="black" d="M2186.5,-141.462C2186.5,-121.339 2186.5,-98.1141 2186.5,-78.5016"/>
<polygon fill="black" stroke="black" points="2190,-78.3161 2186.5,-68.3162 2183,-78.3162 2190,-78.3161"/>
<text text-anchor="middle" x="2207.5" y="-89.8" font-family="Times New Roman,serif" font-size="14.00"> 0 &#45;&gt; 0 </text>
</g>
<!-- MaxPool_89 -->
<g id="node3" class="node"><title>MaxPool_89</title>
<polygon fill="none" stroke="black" points="2281.5,-433.5 1535.5,-433.5 1535.5,-335.5 2281.5,-335.5 2281.5,-433.5"/>
<text text-anchor="middle" x="1908.5" y="-418.3" font-family="Times New Roman,serif" font-size="14.00">friendly_name: MaxPool_89</text>
<text text-anchor="middle" x="1908.5" y="-403.3" font-family="Times New Roman,serif" font-size="14.00">type_name: MaxPool</text>
<text text-anchor="middle" x="1908.5" y="-388.3" font-family="Times New Roman,serif" font-size="14.00">rt info: &#160;AVG_POOL_PRECISION_PRESERVED(2635392935936: shared: 2635393965744, value: true, operation: FakeQuantize)</text>
<text text-anchor="middle" x="1908.5" y="-373.3" font-family="Times New Roman,serif" font-size="14.00">PRECISION_PRESERVED(2635393844248: shared: 2635393967408,value: true)</text>
<text text-anchor="middle" x="1908.5" y="-358.3" font-family="Times New Roman,serif" font-size="14.00">in0: {f32}[1,3,9,9]: MaxPool_87: out0 PRECISIONS(2635393854320: u8) </text>
<text text-anchor="middle" x="1908.5" y="-343.3" font-family="Times New Roman,serif" font-size="14.00">out0: {f32}[1,3,9,9]</text>
</g>
<!-- MaxPool_89&#45;&gt;Convolution_139 -->
<g id="edge2" class="edge"><title>MaxPool_89&#45;&gt;Convolution_139</title>
<path fill="none" stroke="black" d="M1978.29,-335.298C2017.87,-307.966 2067.49,-273.695 2108.36,-245.466"/>
<polygon fill="black" stroke="black" points="2110.44,-248.285 2116.68,-239.722 2106.46,-242.525 2110.44,-248.285"/>
<text text-anchor="middle" x="2076.5" y="-283.8" font-family="Times New Roman,serif" font-size="14.00"> 0 &#45;&gt; 0 </text>
</g>
<!-- FakeQuantize_138 -->
<g id="node4" class="node"><title>FakeQuantize_138</title>
<polygon fill="none" stroke="black" points="2629,-456 2300,-456 2300,-313 2629,-313 2629,-456"/>
<text text-anchor="middle" x="2464.5" y="-440.8" font-family="Times New Roman,serif" font-size="14.00">friendly_name: fakeQuantizeOnWeights</text>
<text text-anchor="middle" x="2464.5" y="-425.8" font-family="Times New Roman,serif" font-size="14.00">name: FakeQuantize_138</text>
<text text-anchor="middle" x="2464.5" y="-410.8" font-family="Times New Roman,serif" font-size="14.00">type_name: FakeQuantize</text>
<text text-anchor="middle" x="2464.5" y="-395.8" font-family="Times New Roman,serif" font-size="14.00">in0: {f32}[6,3,1,1]: Constant_90: out0</text>
<text text-anchor="middle" x="2464.5" y="-380.8" font-family="Times New Roman,serif" font-size="14.00">in1: {f32}[6,1,1,1]: Constant_91: out0</text>
<text text-anchor="middle" x="2464.5" y="-365.8" font-family="Times New Roman,serif" font-size="14.00">in2: {f32}[6,1,1,1]: Constant_92: out0</text>
<text text-anchor="middle" x="2464.5" y="-350.8" font-family="Times New Roman,serif" font-size="14.00">in3: {f32}[6,1,1,1]: Constant_93: out0</text>
<text text-anchor="middle" x="2464.5" y="-335.8" font-family="Times New Roman,serif" font-size="14.00">in4: {f32}[6,1,1,1]: Constant_94: out0</text>
<text text-anchor="middle" x="2464.5" y="-320.8" font-family="Times New Roman,serif" font-size="14.00">out0: {f32}[6,3,1,1] PRECISIONS(2635393850736: i8) </text>
</g>
<!-- FakeQuantize_138&#45;&gt;Convolution_139 -->
<g id="edge3" class="edge"><title>FakeQuantize_138&#45;&gt;Convolution_139</title>
<path fill="none" stroke="black" d="M2362.17,-312.824C2329.9,-290.54 2294.8,-266.296 2264.51,-245.379"/>
<polygon fill="black" stroke="black" points="2266.32,-242.375 2256.1,-239.572 2262.34,-248.135 2266.32,-242.375"/>
<text text-anchor="middle" x="2354.5" y="-283.8" font-family="Times New Roman,serif" font-size="14.00"> 0 &#45;&gt; 1 </text>
</g>
<!-- CLONE_0 -->
<g id="node5" class="node"><title>CLONE_0</title>
<polygon fill="none" stroke="black" stroke-dasharray="5,2" points="2044,-620 1827,-620 1827,-507 2044,-507 2044,-620"/>
<text text-anchor="middle" x="1935.5" y="-604.8" font-family="Times New Roman,serif" font-size="14.00">friendly_name: Constant_90</text>
<text text-anchor="middle" x="1935.5" y="-589.8" font-family="Times New Roman,serif" font-size="14.00">type_name: Constant</text>
<text text-anchor="middle" x="1935.5" y="-574.8" font-family="Times New Roman,serif" font-size="14.00">{f32}[6,3,1,1]</text>
<text text-anchor="middle" x="1935.5" y="-559.8" font-family="Times New Roman,serif" font-size="14.00">value: [18, 18, 18, 18, 18, 18, 18, 18</text>
<text text-anchor="middle" x="1935.5" y="-544.8" font-family="Times New Roman,serif" font-size="14.00">, 18, 18, 18, 18, 18, 18, 18, 18</text>
<text text-anchor="middle" x="1935.5" y="-529.8" font-family="Times New Roman,serif" font-size="14.00">, 18, 18</text>
<text text-anchor="middle" x="1935.5" y="-514.8" font-family="Times New Roman,serif" font-size="14.00">(min: 18, max: 18)]</text>
</g>
<!-- CLONE_0&#45;&gt;FakeQuantize_138 -->
<g id="edge4" class="edge"><title>CLONE_0&#45;&gt;FakeQuantize_138</title>
<path fill="none" stroke="black" d="M2044.1,-510.319C2047.25,-509.16 2050.39,-508.051 2053.5,-507 2152.59,-473.525 2185.59,-486.836 2290.23,-455.95"/>
<polygon fill="black" stroke="black" points="2291.34,-459.271 2299.91,-453.031 2289.32,-452.569 2291.34,-459.271"/>
<text text-anchor="middle" x="2233.5" y="-477.8" font-family="Times New Roman,serif" font-size="14.00"> 0 &#45;&gt; 0 </text>
</g>
<!-- CLONE_1 -->
<g id="node6" class="node"><title>CLONE_1</title>
<polygon fill="none" stroke="black" stroke-dasharray="5,2" points="2327,-605 2062,-605 2062,-522 2327,-522 2327,-605"/>
<text text-anchor="middle" x="2194.5" y="-589.8" font-family="Times New Roman,serif" font-size="14.00">friendly_name: Constant_91</text>
<text text-anchor="middle" x="2194.5" y="-574.8" font-family="Times New Roman,serif" font-size="14.00">type_name: Constant</text>
<text text-anchor="middle" x="2194.5" y="-559.8" font-family="Times New Roman,serif" font-size="14.00">{f32}[6,1,1,1]</text>
<text text-anchor="middle" x="2194.5" y="-544.8" font-family="Times New Roman,serif" font-size="14.00">value: [&#45;1.27, &#45;1.27, &#45;1.27, &#45;1.27, &#45;1.27, &#45;1.27</text>
<text text-anchor="middle" x="2194.5" y="-529.8" font-family="Times New Roman,serif" font-size="14.00">(min: &#45;1.27, max: &#45;1.27)]</text>
</g>
<!-- CLONE_1&#45;&gt;FakeQuantize_138 -->
<g id="edge5" class="edge"><title>CLONE_1&#45;&gt;FakeQuantize_138</title>
<path fill="none" stroke="black" d="M2256.44,-521.893C2283.74,-503.998 2316.74,-482.364 2348.34,-461.651"/>
<polygon fill="black" stroke="black" points="2350.32,-464.533 2356.77,-456.124 2346.49,-458.679 2350.32,-464.533"/>
<text text-anchor="middle" x="2350.5" y="-477.8" font-family="Times New Roman,serif" font-size="14.00"> 0 &#45;&gt; 1 </text>
</g>
<!-- CLONE_2 -->
<g id="node7" class="node"><title>CLONE_2</title>
<polygon fill="none" stroke="black" stroke-dasharray="5,2" points="2583.5,-605 2345.5,-605 2345.5,-522 2583.5,-522 2583.5,-605"/>
<text text-anchor="middle" x="2464.5" y="-589.8" font-family="Times New Roman,serif" font-size="14.00">friendly_name: Constant_92</text>
<text text-anchor="middle" x="2464.5" y="-574.8" font-family="Times New Roman,serif" font-size="14.00">type_name: Constant</text>
<text text-anchor="middle" x="2464.5" y="-559.8" font-family="Times New Roman,serif" font-size="14.00">{f32}[6,1,1,1]</text>
<text text-anchor="middle" x="2464.5" y="-544.8" font-family="Times New Roman,serif" font-size="14.00">value: [1.27, 1.27, 1.27, 1.27, 1.27, 1.27</text>
<text text-anchor="middle" x="2464.5" y="-529.8" font-family="Times New Roman,serif" font-size="14.00">(min: 1.27, max: 1.27)]</text>
</g>
<!-- CLONE_2&#45;&gt;FakeQuantize_138 -->
<g id="edge6" class="edge"><title>CLONE_2&#45;&gt;FakeQuantize_138</title>
<path fill="none" stroke="black" d="M2464.5,-521.893C2464.5,-505.292 2464.5,-485.475 2464.5,-466.159"/>
<polygon fill="black" stroke="black" points="2468,-466.124 2464.5,-456.124 2461,-466.124 2468,-466.124"/>
<text text-anchor="middle" x="2485.5" y="-477.8" font-family="Times New Roman,serif" font-size="14.00"> 0 &#45;&gt; 2 </text>
</g>
<!-- CLONE_3 -->
<g id="node8" class="node"><title>CLONE_3</title>
<polygon fill="none" stroke="black" stroke-dasharray="5,2" points="2867,-605 2602,-605 2602,-522 2867,-522 2867,-605"/>
<text text-anchor="middle" x="2734.5" y="-589.8" font-family="Times New Roman,serif" font-size="14.00">friendly_name: Constant_93</text>
<text text-anchor="middle" x="2734.5" y="-574.8" font-family="Times New Roman,serif" font-size="14.00">type_name: Constant</text>
<text text-anchor="middle" x="2734.5" y="-559.8" font-family="Times New Roman,serif" font-size="14.00">{f32}[6,1,1,1]</text>
<text text-anchor="middle" x="2734.5" y="-544.8" font-family="Times New Roman,serif" font-size="14.00">value: [&#45;1.27, &#45;1.27, &#45;1.27, &#45;1.27, &#45;1.27, &#45;1.27</text>
<text text-anchor="middle" x="2734.5" y="-529.8" font-family="Times New Roman,serif" font-size="14.00">(min: &#45;1.27, max: &#45;1.27)]</text>
</g>
<!-- CLONE_3&#45;&gt;FakeQuantize_138 -->
<g id="edge7" class="edge"><title>CLONE_3&#45;&gt;FakeQuantize_138</title>
<path fill="none" stroke="black" d="M2672.56,-521.893C2645.26,-503.998 2612.26,-482.364 2580.66,-461.651"/>
<polygon fill="black" stroke="black" points="2582.51,-458.679 2572.23,-456.124 2578.68,-464.533 2582.51,-458.679"/>
<text text-anchor="middle" x="2636.5" y="-477.8" font-family="Times New Roman,serif" font-size="14.00"> 0 &#45;&gt; 3 </text>
</g>
<!-- CLONE_4 -->
<g id="node9" class="node"><title>CLONE_4</title>
<polygon fill="none" stroke="black" stroke-dasharray="5,2" points="3123.5,-605 2885.5,-605 2885.5,-522 3123.5,-522 3123.5,-605"/>
<text text-anchor="middle" x="3004.5" y="-589.8" font-family="Times New Roman,serif" font-size="14.00">friendly_name: Constant_94</text>
<text text-anchor="middle" x="3004.5" y="-574.8" font-family="Times New Roman,serif" font-size="14.00">type_name: Constant</text>
<text text-anchor="middle" x="3004.5" y="-559.8" font-family="Times New Roman,serif" font-size="14.00">{f32}[6,1,1,1]</text>
<text text-anchor="middle" x="3004.5" y="-544.8" font-family="Times New Roman,serif" font-size="14.00">value: [1.27, 1.27, 1.27, 1.27, 1.27, 1.27</text>
<text text-anchor="middle" x="3004.5" y="-529.8" font-family="Times New Roman,serif" font-size="14.00">(min: 1.27, max: 1.27)]</text>
</g>
<!-- CLONE_4&#45;&gt;FakeQuantize_138 -->
<g id="edge8" class="edge"><title>CLONE_4&#45;&gt;FakeQuantize_138</title>
<path fill="none" stroke="black" d="M2914.85,-521.985C2902.07,-516.695 2889.02,-511.542 2876.5,-507 2799.68,-479.137 2713.14,-452.865 2639.27,-431.928"/>
<polygon fill="black" stroke="black" points="2639.97,-428.49 2629.4,-429.141 2638.07,-435.227 2639.97,-428.49"/>
<text text-anchor="middle" x="2841.5" y="-477.8" font-family="Times New Roman,serif" font-size="14.00"> 0 &#45;&gt; 4 </text>
</g>
<!-- MaxPool_87 -->
<g id="node10" class="node"><title>MaxPool_87</title>
<polygon fill="none" stroke="black" points="1695.5,-620 949.5,-620 949.5,-507 1695.5,-507 1695.5,-620"/>
<text text-anchor="middle" x="1322.5" y="-604.8" font-family="Times New Roman,serif" font-size="14.00">friendly_name: maxPool2</text>
<text text-anchor="middle" x="1322.5" y="-589.8" font-family="Times New Roman,serif" font-size="14.00">name: MaxPool_87</text>
<text text-anchor="middle" x="1322.5" y="-574.8" font-family="Times New Roman,serif" font-size="14.00">type_name: MaxPool</text>
<text text-anchor="middle" x="1322.5" y="-559.8" font-family="Times New Roman,serif" font-size="14.00">rt info: &#160;AVG_POOL_PRECISION_PRESERVED(2635392935936: shared: 2635393965744, value: true, operation: FakeQuantize)</text>
<text text-anchor="middle" x="1322.5" y="-544.8" font-family="Times New Roman,serif" font-size="14.00">PRECISION_PRESERVED(2635393844136: shared: 2635393971504,value: true)</text>
<text text-anchor="middle" x="1322.5" y="-529.8" font-family="Times New Roman,serif" font-size="14.00">in0: {f32}[1,3,9,9]: AvgPool_137: out0 PRECISIONS(2635393854320: u8) </text>
<text text-anchor="middle" x="1322.5" y="-514.8" font-family="Times New Roman,serif" font-size="14.00">out0: {f32}[1,3,9,9]</text>
</g>
<!-- MaxPool_87&#45;&gt;MaxPool_89 -->
<g id="edge9" class="edge"><title>MaxPool_87&#45;&gt;MaxPool_89</title>
<path fill="none" stroke="black" d="M1506.31,-506.982C1580.99,-484.423 1666.72,-458.528 1739.8,-436.457"/>
<polygon fill="black" stroke="black" points="1741,-439.75 1749.56,-433.508 1738.97,-433.049 1741,-439.75"/>
<text text-anchor="middle" x="1636.5" y="-477.8" font-family="Times New Roman,serif" font-size="14.00"> 0 &#45;&gt; 0 </text>
</g>
<!-- MaxPool_88 -->
<g id="node21" class="node"><title>MaxPool_88</title>
<polygon fill="none" stroke="black" points="1517.5,-433.5 771.5,-433.5 771.5,-335.5 1517.5,-335.5 1517.5,-433.5"/>
<text text-anchor="middle" x="1144.5" y="-418.3" font-family="Times New Roman,serif" font-size="14.00">friendly_name: MaxPool_88</text>
<text text-anchor="middle" x="1144.5" y="-403.3" font-family="Times New Roman,serif" font-size="14.00">type_name: MaxPool</text>
<text text-anchor="middle" x="1144.5" y="-388.3" font-family="Times New Roman,serif" font-size="14.00">rt info: &#160;AVG_POOL_PRECISION_PRESERVED(2635392935936: shared: 2635393965744, value: true, operation: FakeQuantize)</text>
<text text-anchor="middle" x="1144.5" y="-373.3" font-family="Times New Roman,serif" font-size="14.00">PRECISION_PRESERVED(2635393854440: shared: 2635393969840,value: true)</text>
<text text-anchor="middle" x="1144.5" y="-358.3" font-family="Times New Roman,serif" font-size="14.00">in0: {f32}[1,3,9,9]: MaxPool_87: out0 PRECISIONS(2635393854320: u8) </text>
<text text-anchor="middle" x="1144.5" y="-343.3" font-family="Times New Roman,serif" font-size="14.00">out0: {f32}[1,3,9,9]</text>
</g>
<!-- MaxPool_87&#45;&gt;MaxPool_88 -->
<g id="edge24" class="edge"><title>MaxPool_87&#45;&gt;MaxPool_88</title>
<path fill="none" stroke="black" d="M1266.67,-506.982C1245.51,-485.942 1221.43,-461.999 1200.28,-440.964"/>
<polygon fill="black" stroke="black" points="1202.49,-438.223 1192.93,-433.654 1197.55,-443.187 1202.49,-438.223"/>
<text text-anchor="middle" x="1265.5" y="-477.8" font-family="Times New Roman,serif" font-size="14.00"> 0 &#45;&gt; 0 </text>
</g>
<!-- AvgPool_137 -->
<g id="node11" class="node"><title>AvgPool_137</title>
<polygon fill="none" stroke="black" points="1695.5,-784 949.5,-784 949.5,-671 1695.5,-671 1695.5,-784"/>
<text text-anchor="middle" x="1322.5" y="-768.8" font-family="Times New Roman,serif" font-size="14.00">friendly_name: avgPool</text>
<text text-anchor="middle" x="1322.5" y="-753.8" font-family="Times New Roman,serif" font-size="14.00">name: AvgPool_137</text>
<text text-anchor="middle" x="1322.5" y="-738.8" font-family="Times New Roman,serif" font-size="14.00">type_name: AvgPool</text>
<text text-anchor="middle" x="1322.5" y="-723.8" font-family="Times New Roman,serif" font-size="14.00">rt info: &#160;AVG_POOL_PRECISION_PRESERVED(2635392935936: shared: 2635393965744, value: true, operation: FakeQuantize)</text>
<text text-anchor="middle" x="1322.5" y="-708.8" font-family="Times New Roman,serif" font-size="14.00">PRECISION_PRESERVED(2635393854888: shared: 2635393965744,value: true, operation: FakeQuantize)</text>
<text text-anchor="middle" x="1322.5" y="-693.8" font-family="Times New Roman,serif" font-size="14.00">in0: {f32}[1,3,9,9]: MaxPool_85: out0 PRECISIONS(2635393854320: u8) </text>
<text text-anchor="middle" x="1322.5" y="-678.8" font-family="Times New Roman,serif" font-size="14.00">out0: {f32}[1,3,9,9]</text>
</g>
<!-- AvgPool_137&#45;&gt;MaxPool_87 -->
<g id="edge10" class="edge"><title>AvgPool_137&#45;&gt;MaxPool_87</title>
<path fill="none" stroke="black" d="M1322.5,-670.749C1322.5,-657.694 1322.5,-643.666 1322.5,-630.221"/>
<polygon fill="black" stroke="black" points="1326,-630.079 1322.5,-620.079 1319,-630.079 1326,-630.079"/>
<text text-anchor="middle" x="1343.5" y="-641.8" font-family="Times New Roman,serif" font-size="14.00"> 0 &#45;&gt; 0 </text>
</g>
<!-- MaxPool_85 -->
<g id="node12" class="node"><title>MaxPool_85</title>
<polygon fill="none" stroke="black" points="1581,-933 1064,-933 1064,-835 1581,-835 1581,-933"/>
<text text-anchor="middle" x="1322.5" y="-917.8" font-family="Times New Roman,serif" font-size="14.00">friendly_name: maxPool1</text>
<text text-anchor="middle" x="1322.5" y="-902.8" font-family="Times New Roman,serif" font-size="14.00">name: MaxPool_85</text>
<text text-anchor="middle" x="1322.5" y="-887.8" font-family="Times New Roman,serif" font-size="14.00">type_name: MaxPool</text>
<text text-anchor="middle" x="1322.5" y="-872.8" font-family="Times New Roman,serif" font-size="14.00">rt info: &#160;PRECISION_PRESERVED(2635393844024: shared: 2635393968048,value: true)</text>
<text text-anchor="middle" x="1322.5" y="-857.8" font-family="Times New Roman,serif" font-size="14.00">in0: {f32}[1,3,9,9]: FakeQuantize_136: out0 PRECISIONS(2635393854320: u8) </text>
<text text-anchor="middle" x="1322.5" y="-842.8" font-family="Times New Roman,serif" font-size="14.00">out0: {f32}[1,3,9,9]</text>
</g>
<!-- MaxPool_85&#45;&gt;AvgPool_137 -->
<g id="edge11" class="edge"><title>MaxPool_85&#45;&gt;AvgPool_137</title>
<path fill="none" stroke="black" d="M1322.5,-834.962C1322.5,-822.115 1322.5,-808.004 1322.5,-794.375"/>
<polygon fill="black" stroke="black" points="1326,-794.077 1322.5,-784.077 1319,-794.077 1326,-794.077"/>
<text text-anchor="middle" x="1343.5" y="-805.8" font-family="Times New Roman,serif" font-size="14.00"> 0 &#45;&gt; 0 </text>
</g>
<!-- FakeQuantize_136 -->
<g id="node13" class="node"><title>FakeQuantize_136</title>
<polygon fill="none" stroke="black" points="1489,-1127 1156,-1127 1156,-984 1489,-984 1489,-1127"/>
<text text-anchor="middle" x="1322.5" y="-1111.8" font-family="Times New Roman,serif" font-size="14.00">friendly_name: fakeQuantizeOnActivations</text>
<text text-anchor="middle" x="1322.5" y="-1096.8" font-family="Times New Roman,serif" font-size="14.00">name: FakeQuantize_136</text>
<text text-anchor="middle" x="1322.5" y="-1081.8" font-family="Times New Roman,serif" font-size="14.00">type_name: FakeQuantize</text>
<text text-anchor="middle" x="1322.5" y="-1066.8" font-family="Times New Roman,serif" font-size="14.00">in0: {f32}[1,3,9,9]: Parameter_79: out0</text>
<text text-anchor="middle" x="1322.5" y="-1051.8" font-family="Times New Roman,serif" font-size="14.00">in1: {f32}[]: Constant_80: out0</text>
<text text-anchor="middle" x="1322.5" y="-1036.8" font-family="Times New Roman,serif" font-size="14.00">in2: {f32}[]: Constant_81: out0</text>
<text text-anchor="middle" x="1322.5" y="-1021.8" font-family="Times New Roman,serif" font-size="14.00">in3: {f32}[]: Constant_82: out0</text>
<text text-anchor="middle" x="1322.5" y="-1006.8" font-family="Times New Roman,serif" font-size="14.00">in4: {f32}[]: Constant_83: out0</text>
<text text-anchor="middle" x="1322.5" y="-991.8" font-family="Times New Roman,serif" font-size="14.00">out0: {f32}[1,3,9,9] PRECISIONS(2635393854320: u8) </text>
</g>
<!-- FakeQuantize_136&#45;&gt;MaxPool_85 -->
<g id="edge12" class="edge"><title>FakeQuantize_136&#45;&gt;MaxPool_85</title>
<path fill="none" stroke="black" d="M1322.5,-983.599C1322.5,-970.213 1322.5,-956.353 1322.5,-943.405"/>
<polygon fill="black" stroke="black" points="1326,-943.242 1322.5,-933.242 1319,-943.242 1326,-943.242"/>
<text text-anchor="middle" x="1343.5" y="-954.8" font-family="Times New Roman,serif" font-size="14.00"> 0 &#45;&gt; 0 </text>
</g>
<!-- CLONE_5 -->
<g id="node14" class="node"><title>CLONE_5</title>
<polygon fill="none" stroke="blue" stroke-dasharray="5,2" points="1027,-1246 848,-1246 848,-1193 1027,-1193 1027,-1246"/>
<text text-anchor="middle" x="937.5" y="-1230.8" font-family="Times New Roman,serif" font-size="14.00">friendly_name: Parameter_79</text>
<text text-anchor="middle" x="937.5" y="-1215.8" font-family="Times New Roman,serif" font-size="14.00">type_name: Parameter</text>
<text text-anchor="middle" x="937.5" y="-1200.8" font-family="Times New Roman,serif" font-size="14.00">{f32}[1,3,9,9]</text>
</g>
<!-- CLONE_5&#45;&gt;FakeQuantize_136 -->
<g id="edge13" class="edge"><title>CLONE_5&#45;&gt;FakeQuantize_136</title>
<path fill="none" stroke="black" d="M998.504,-1192.83C1038.61,-1175.96 1093.3,-1152.94 1146.32,-1130.63"/>
<polygon fill="black" stroke="black" points="1147.99,-1133.73 1155.85,-1126.62 1145.28,-1127.27 1147.99,-1133.73"/>
<text text-anchor="middle" x="1128.5" y="-1148.8" font-family="Times New Roman,serif" font-size="14.00"> 0 &#45;&gt; 0 </text>
</g>
<!-- CLONE_6 -->
<g id="node15" class="node"><title>CLONE_6</title>
<polygon fill="none" stroke="black" stroke-dasharray="5,2" points="1218,-1261 1045,-1261 1045,-1178 1218,-1178 1218,-1261"/>
<text text-anchor="middle" x="1131.5" y="-1245.8" font-family="Times New Roman,serif" font-size="14.00">friendly_name: Constant_80</text>
<text text-anchor="middle" x="1131.5" y="-1230.8" font-family="Times New Roman,serif" font-size="14.00">type_name: Constant</text>
<text text-anchor="middle" x="1131.5" y="-1215.8" font-family="Times New Roman,serif" font-size="14.00">{f32}[]</text>
<text text-anchor="middle" x="1131.5" y="-1200.8" font-family="Times New Roman,serif" font-size="14.00">value: [&#45;1.28</text>
<text text-anchor="middle" x="1131.5" y="-1185.8" font-family="Times New Roman,serif" font-size="14.00">(min: &#45;1.28, max: &#45;1.28)]</text>
</g>
<!-- CLONE_6&#45;&gt;FakeQuantize_136 -->
<g id="edge14" class="edge"><title>CLONE_6&#45;&gt;FakeQuantize_136</title>
<path fill="none" stroke="black" d="M1179.7,-1177.62C1195.46,-1164.25 1213.52,-1148.93 1231.38,-1133.79"/>
<polygon fill="black" stroke="black" points="1233.65,-1136.45 1239.01,-1127.31 1229.12,-1131.11 1233.65,-1136.45"/>
<text text-anchor="middle" x="1237.5" y="-1148.8" font-family="Times New Roman,serif" font-size="14.00"> 0 &#45;&gt; 1 </text>
</g>
<!-- CLONE_7 -->
<g id="node16" class="node"><title>CLONE_7</title>
<polygon fill="none" stroke="black" stroke-dasharray="5,2" points="1409,-1261 1236,-1261 1236,-1178 1409,-1178 1409,-1261"/>
<text text-anchor="middle" x="1322.5" y="-1245.8" font-family="Times New Roman,serif" font-size="14.00">friendly_name: Constant_81</text>
<text text-anchor="middle" x="1322.5" y="-1230.8" font-family="Times New Roman,serif" font-size="14.00">type_name: Constant</text>
<text text-anchor="middle" x="1322.5" y="-1215.8" font-family="Times New Roman,serif" font-size="14.00">{f32}[]</text>
<text text-anchor="middle" x="1322.5" y="-1200.8" font-family="Times New Roman,serif" font-size="14.00">value: [1.27</text>
<text text-anchor="middle" x="1322.5" y="-1185.8" font-family="Times New Roman,serif" font-size="14.00">(min: 1.27, max: 1.27)]</text>
</g>
<!-- CLONE_7&#45;&gt;FakeQuantize_136 -->
<g id="edge15" class="edge"><title>CLONE_7&#45;&gt;FakeQuantize_136</title>
<path fill="none" stroke="black" d="M1322.5,-1177.62C1322.5,-1165.33 1322.5,-1151.38 1322.5,-1137.44"/>
<polygon fill="black" stroke="black" points="1326,-1137.31 1322.5,-1127.31 1319,-1137.31 1326,-1137.31"/>
<text text-anchor="middle" x="1343.5" y="-1148.8" font-family="Times New Roman,serif" font-size="14.00"> 0 &#45;&gt; 2 </text>
</g>
<!-- CLONE_8 -->
<g id="node17" class="node"><title>CLONE_8</title>
<polygon fill="none" stroke="black" stroke-dasharray="5,2" points="1600,-1261 1427,-1261 1427,-1178 1600,-1178 1600,-1261"/>
<text text-anchor="middle" x="1513.5" y="-1245.8" font-family="Times New Roman,serif" font-size="14.00">friendly_name: Constant_82</text>
<text text-anchor="middle" x="1513.5" y="-1230.8" font-family="Times New Roman,serif" font-size="14.00">type_name: Constant</text>
<text text-anchor="middle" x="1513.5" y="-1215.8" font-family="Times New Roman,serif" font-size="14.00">{f32}[]</text>
<text text-anchor="middle" x="1513.5" y="-1200.8" font-family="Times New Roman,serif" font-size="14.00">value: [&#45;1.28</text>
<text text-anchor="middle" x="1513.5" y="-1185.8" font-family="Times New Roman,serif" font-size="14.00">(min: &#45;1.28, max: &#45;1.28)]</text>
</g>
<!-- CLONE_8&#45;&gt;FakeQuantize_136 -->
<g id="edge16" class="edge"><title>CLONE_8&#45;&gt;FakeQuantize_136</title>
<path fill="none" stroke="black" d="M1465.3,-1177.62C1449.54,-1164.25 1431.48,-1148.93 1413.62,-1133.79"/>
<polygon fill="black" stroke="black" points="1415.88,-1131.11 1405.99,-1127.31 1411.35,-1136.45 1415.88,-1131.11"/>
<text text-anchor="middle" x="1462.5" y="-1148.8" font-family="Times New Roman,serif" font-size="14.00"> 0 &#45;&gt; 3 </text>
</g>
<!-- CLONE_9 -->
<g id="node18" class="node"><title>CLONE_9</title>
<polygon fill="none" stroke="black" stroke-dasharray="5,2" points="1791,-1261 1618,-1261 1618,-1178 1791,-1178 1791,-1261"/>
<text text-anchor="middle" x="1704.5" y="-1245.8" font-family="Times New Roman,serif" font-size="14.00">friendly_name: Constant_83</text>
<text text-anchor="middle" x="1704.5" y="-1230.8" font-family="Times New Roman,serif" font-size="14.00">type_name: Constant</text>
<text text-anchor="middle" x="1704.5" y="-1215.8" font-family="Times New Roman,serif" font-size="14.00">{f32}[]</text>
<text text-anchor="middle" x="1704.5" y="-1200.8" font-family="Times New Roman,serif" font-size="14.00">value: [1.27</text>
<text text-anchor="middle" x="1704.5" y="-1185.8" font-family="Times New Roman,serif" font-size="14.00">(min: 1.27, max: 1.27)]</text>
</g>
<!-- CLONE_9&#45;&gt;FakeQuantize_136 -->
<g id="edge17" class="edge"><title>CLONE_9&#45;&gt;FakeQuantize_136</title>
<path fill="none" stroke="black" d="M1617.82,-1181.74C1582.31,-1166.68 1539.87,-1148.68 1498.38,-1131.09"/>
<polygon fill="black" stroke="black" points="1499.56,-1127.79 1488.99,-1127.1 1496.82,-1134.23 1499.56,-1127.79"/>
<text text-anchor="middle" x="1580.5" y="-1148.8" font-family="Times New Roman,serif" font-size="14.00"> 0 &#45;&gt; 4 </text>
</g>
<!-- FakeQuantize_140 -->
<g id="node19" class="node"><title>FakeQuantize_140</title>
<polygon fill="none" stroke="black" points="643.5,-262 293.5,-262 293.5,-119 643.5,-119 643.5,-262"/>
<text text-anchor="middle" x="468.5" y="-246.8" font-family="Times New Roman,serif" font-size="14.00">friendly_name: fakeQuantize1</text>
<text text-anchor="middle" x="468.5" y="-231.8" font-family="Times New Roman,serif" font-size="14.00">name: FakeQuantize_140</text>
<text text-anchor="middle" x="468.5" y="-216.8" font-family="Times New Roman,serif" font-size="14.00">type_name: FakeQuantize</text>
<text text-anchor="middle" x="468.5" y="-201.8" font-family="Times New Roman,serif" font-size="14.00">in0: {f32}[1,3,9,9]: MaxPool_88: out0</text>
<text text-anchor="middle" x="468.5" y="-186.8" font-family="Times New Roman,serif" font-size="14.00">in1: {f32}[]: Constant_97: out0</text>
<text text-anchor="middle" x="468.5" y="-171.8" font-family="Times New Roman,serif" font-size="14.00">in2: {f32}[]: Constant_98: out0</text>
<text text-anchor="middle" x="468.5" y="-156.8" font-family="Times New Roman,serif" font-size="14.00">in3: {f32}[]: Constant_99: out0</text>
<text text-anchor="middle" x="468.5" y="-141.8" font-family="Times New Roman,serif" font-size="14.00">in4: {f32}[]: Constant_100: out0</text>
<text text-anchor="middle" x="468.5" y="-126.8" font-family="Times New Roman,serif" font-size="14.00">out0: {f32}[1,3,9,9] PRECISIONS(2635393851968: i8, u8) </text>
</g>
<!-- Result_102 -->
<g id="node20" class="node"><title>Result_102</title>
<polygon fill="none" stroke="crimson" stroke-width="1.5" points="598.5,-68 338.5,-68 338.5,-0 598.5,-0 598.5,-68"/>
<text text-anchor="middle" x="468.5" y="-52.8" font-family="Times New Roman,serif" font-size="14.00">friendly_name: Result_102</text>
<text text-anchor="middle" x="468.5" y="-37.8" font-family="Times New Roman,serif" font-size="14.00">type_name: Result</text>
<text text-anchor="middle" x="468.5" y="-22.8" font-family="Times New Roman,serif" font-size="14.00">in0: {f32}[1,3,9,9]: FakeQuantize_140: out0</text>
<text text-anchor="middle" x="468.5" y="-7.8" font-family="Times New Roman,serif" font-size="14.00">out0: {f32}[1,3,9,9]</text>
</g>
<!-- FakeQuantize_140&#45;&gt;Result_102 -->
<g id="edge18" class="edge"><title>FakeQuantize_140&#45;&gt;Result_102</title>
<path fill="none" stroke="black" d="M468.5,-118.581C468.5,-104.822 468.5,-90.7944 468.5,-78.2583"/>
<polygon fill="black" stroke="black" points="472,-78.1174 468.5,-68.1175 465,-78.1175 472,-78.1174"/>
<text text-anchor="middle" x="489.5" y="-89.8" font-family="Times New Roman,serif" font-size="14.00"> 0 &#45;&gt; 0 </text>
</g>
<!-- MaxPool_88&#45;&gt;FakeQuantize_140 -->
<g id="edge19" class="edge"><title>MaxPool_88&#45;&gt;FakeQuantize_140</title>
<path fill="none" stroke="black" d="M975.225,-335.422C877.194,-307.579 753.695,-272.502 653.163,-243.949"/>
<polygon fill="black" stroke="black" points="654.083,-240.572 643.507,-241.206 652.17,-247.305 654.083,-240.572"/>
<text text-anchor="middle" x="848.5" y="-283.8" font-family="Times New Roman,serif" font-size="14.00"> 0 &#45;&gt; 0 </text>
</g>
<!-- CLONE_10 -->
<g id="node22" class="node"><title>CLONE_10</title>
<polygon fill="none" stroke="black" stroke-dasharray="5,2" points="173,-426 0,-426 0,-343 173,-343 173,-426"/>
<text text-anchor="middle" x="86.5" y="-410.8" font-family="Times New Roman,serif" font-size="14.00">friendly_name: Constant_97</text>
<text text-anchor="middle" x="86.5" y="-395.8" font-family="Times New Roman,serif" font-size="14.00">type_name: Constant</text>
<text text-anchor="middle" x="86.5" y="-380.8" font-family="Times New Roman,serif" font-size="14.00">{f32}[]</text>
<text text-anchor="middle" x="86.5" y="-365.8" font-family="Times New Roman,serif" font-size="14.00">value: [&#45;1.28</text>
<text text-anchor="middle" x="86.5" y="-350.8" font-family="Times New Roman,serif" font-size="14.00">(min: &#45;1.28, max: &#45;1.28)]</text>
</g>
<!-- CLONE_10&#45;&gt;FakeQuantize_140 -->
<g id="edge20" class="edge"><title>CLONE_10&#45;&gt;FakeQuantize_140</title>
<path fill="none" stroke="black" d="M136.75,-342.755C150.781,-332.35 166.345,-321.666 181.5,-313 213.73,-294.57 249.302,-277.29 284.108,-261.869"/>
<polygon fill="black" stroke="black" points="285.67,-265.006 293.418,-257.78 282.855,-258.597 285.67,-265.006"/>
<text text-anchor="middle" x="263.5" y="-283.8" font-family="Times New Roman,serif" font-size="14.00"> 0 &#45;&gt; 1 </text>
</g>
<!-- CLONE_11 -->
<g id="node23" class="node"><title>CLONE_11</title>
<polygon fill="none" stroke="black" stroke-dasharray="5,2" points="364,-426 191,-426 191,-343 364,-343 364,-426"/>
<text text-anchor="middle" x="277.5" y="-410.8" font-family="Times New Roman,serif" font-size="14.00">friendly_name: Constant_98</text>
<text text-anchor="middle" x="277.5" y="-395.8" font-family="Times New Roman,serif" font-size="14.00">type_name: Constant</text>
<text text-anchor="middle" x="277.5" y="-380.8" font-family="Times New Roman,serif" font-size="14.00">{f32}[]</text>
<text text-anchor="middle" x="277.5" y="-365.8" font-family="Times New Roman,serif" font-size="14.00">value: [1.27</text>
<text text-anchor="middle" x="277.5" y="-350.8" font-family="Times New Roman,serif" font-size="14.00">(min: 1.27, max: 1.27)]</text>
</g>
<!-- CLONE_11&#45;&gt;FakeQuantize_140 -->
<g id="edge21" class="edge"><title>CLONE_11&#45;&gt;FakeQuantize_140</title>
<path fill="none" stroke="black" d="M318.006,-342.782C339.235,-321.442 365.964,-294.573 390.984,-269.422"/>
<polygon fill="black" stroke="black" points="393.765,-271.589 398.336,-262.031 388.802,-266.652 393.765,-271.589"/>
<text text-anchor="middle" x="400.5" y="-283.8" font-family="Times New Roman,serif" font-size="14.00"> 0 &#45;&gt; 2 </text>
</g>
<!-- CLONE_12 -->
<g id="node24" class="node"><title>CLONE_12</title>
<polygon fill="none" stroke="black" stroke-dasharray="5,2" points="555,-426 382,-426 382,-343 555,-343 555,-426"/>
<text text-anchor="middle" x="468.5" y="-410.8" font-family="Times New Roman,serif" font-size="14.00">friendly_name: Constant_99</text>
<text text-anchor="middle" x="468.5" y="-395.8" font-family="Times New Roman,serif" font-size="14.00">type_name: Constant</text>
<text text-anchor="middle" x="468.5" y="-380.8" font-family="Times New Roman,serif" font-size="14.00">{f32}[]</text>
<text text-anchor="middle" x="468.5" y="-365.8" font-family="Times New Roman,serif" font-size="14.00">value: [&#45;1.28</text>
<text text-anchor="middle" x="468.5" y="-350.8" font-family="Times New Roman,serif" font-size="14.00">(min: &#45;1.28, max: &#45;1.28)]</text>
</g>
<!-- CLONE_12&#45;&gt;FakeQuantize_140 -->
<g id="edge22" class="edge"><title>CLONE_12&#45;&gt;FakeQuantize_140</title>
<path fill="none" stroke="black" d="M468.5,-342.782C468.5,-322.266 468.5,-296.641 468.5,-272.344"/>
<polygon fill="black" stroke="black" points="472,-272.031 468.5,-262.031 465,-272.031 472,-272.031"/>
<text text-anchor="middle" x="489.5" y="-283.8" font-family="Times New Roman,serif" font-size="14.00"> 0 &#45;&gt; 3 </text>
</g>
<!-- CLONE_13 -->
<g id="node25" class="node"><title>CLONE_13</title>
<polygon fill="none" stroke="black" stroke-dasharray="5,2" points="753.5,-426 573.5,-426 573.5,-343 753.5,-343 753.5,-426"/>
<text text-anchor="middle" x="663.5" y="-410.8" font-family="Times New Roman,serif" font-size="14.00">friendly_name: Constant_100</text>
<text text-anchor="middle" x="663.5" y="-395.8" font-family="Times New Roman,serif" font-size="14.00">type_name: Constant</text>
<text text-anchor="middle" x="663.5" y="-380.8" font-family="Times New Roman,serif" font-size="14.00">{f32}[]</text>
<text text-anchor="middle" x="663.5" y="-365.8" font-family="Times New Roman,serif" font-size="14.00">value: [1.27</text>
<text text-anchor="middle" x="663.5" y="-350.8" font-family="Times New Roman,serif" font-size="14.00">(min: 1.27, max: 1.27)]</text>
</g>
<!-- CLONE_13&#45;&gt;FakeQuantize_140 -->
<g id="edge23" class="edge"><title>CLONE_13&#45;&gt;FakeQuantize_140</title>
<path fill="none" stroke="black" d="M622.146,-342.782C600.379,-321.35 572.949,-294.342 547.311,-269.098"/>
<polygon fill="black" stroke="black" points="549.714,-266.553 540.133,-262.031 544.803,-271.541 549.714,-266.553"/>
<text text-anchor="middle" x="593.5" y="-283.8" font-family="Times New Roman,serif" font-size="14.00"> 0 &#45;&gt; 4 </text>
</g>
</g>
</svg>
