<?xml version="1.0" encoding="UTF-8" standalone="no"?>
<!DOCTYPE svg PUBLIC "-//W3C//DTD SVG 1.1//EN"
 "http://www.w3.org/Graphics/SVG/1.1/DTD/svg11.dtd">
<!-- Generated by graphviz version 2.38.0 (20140413.2041)
 -->
<!-- Title: ngraph Pages: 1 -->
<svg width="3191pt" height="1404pt"
 viewBox="0.00 0.00 3190.50 1404.00" xmlns="http://www.w3.org/2000/svg" xmlns:xlink="http://www.w3.org/1999/xlink">
<g id="graph0" class="graph" transform="scale(1 1) rotate(0) translate(4 1400)">
<title>ngraph</title>
<polygon fill="white" stroke="none" points="-4,4 -4,-1400 3186.5,-1400 3186.5,4 -4,4"/>
<!-- Convolution_139 -->
<g id="node1" class="node"><title>Convolution_139</title>
<polygon fill="none" stroke="black" points="2447,-247 1984,-247 1984,-149 2447,-149 2447,-247"/>
<text text-anchor="middle" x="2215.5" y="-231.8" font-family="Times New Roman,serif" font-size="14.00">friendly_name: output</text>
<text text-anchor="middle" x="2215.5" y="-216.8" font-family="Times New Roman,serif" font-size="14.00">name: Convolution_139</text>
<text text-anchor="middle" x="2215.5" y="-201.8" font-family="Times New Roman,serif" font-size="14.00">type_name: Convolution</text>
<text text-anchor="middle" x="2215.5" y="-186.8" font-family="Times New Roman,serif" font-size="14.00">in0: {f32}[1,3,9,9]: MaxPool_89: out0 PRECISIONS(2635393854320: u8) </text>
<text text-anchor="middle" x="2215.5" y="-171.8" font-family="Times New Roman,serif" font-size="14.00">in1: {f32}[6,3,1,1]: FakeQuantize_138: out0 PRECISIONS(2635393850736: i8) </text>
<text text-anchor="middle" x="2215.5" y="-156.8" font-family="Times New Roman,serif" font-size="14.00">out0: {f32}[1,6,9,9]</text>
</g>
<!-- Result_103 -->
<g id="node2" class="node"><title>Result_103</title>
<polygon fill="none" stroke="crimson" stroke-width="1.5" points="2342.5,-68 2088.5,-68 2088.5,-0 2342.5,-0 2342.5,-68"/>
<text text-anchor="middle" x="2215.5" y="-52.8" font-family="Times New Roman,serif" font-size="14.00">friendly_name: Result_103</text>
<text text-anchor="middle" x="2215.5" y="-37.8" font-family="Times New Roman,serif" font-size="14.00">type_name: Result</text>
<text text-anchor="middle" x="2215.5" y="-22.8" font-family="Times New Roman,serif" font-size="14.00">in0: {f32}[1,6,9,9]: Convolution_139: out0</text>
<text text-anchor="middle" x="2215.5" y="-7.8" font-family="Times New Roman,serif" font-size="14.00">out0: {f32}[1,6,9,9]</text>
</g>
<!-- Convolution_139&#45;&gt;Result_103 -->
<g id="edge1" class="edge"><title>Convolution_139&#45;&gt;Result_103</title>
<path fill="none" stroke="black" d="M2215.5,-148.833C2215.5,-126.471 2215.5,-100.089 2215.5,-78.357"/>
<polygon fill="black" stroke="black" points="2219,-78.0998 2215.5,-68.0999 2212,-78.0999 2219,-78.0998"/>
<text text-anchor="middle" x="2236.5" y="-89.8" font-family="Times New Roman,serif" font-size="14.00"> 0 &#45;&gt; 0 </text>
</g>
<!-- MaxPool_89 -->
<g id="node3" class="node"><title>MaxPool_89</title>
<polygon fill="none" stroke="black" points="2281.5,-471 1535.5,-471 1535.5,-343 2281.5,-343 2281.5,-471"/>
<text text-anchor="middle" x="1908.5" y="-455.8" font-family="Times New Roman,serif" font-size="14.00">friendly_name: MaxPool_89</text>
<text text-anchor="middle" x="1908.5" y="-440.8" font-family="Times New Roman,serif" font-size="14.00">type_name: MaxPool</text>
<text text-anchor="middle" x="1908.5" y="-425.8" font-family="Times New Roman,serif" font-size="14.00">rt info: &#160;AVG_POOL_PRECISION_PRESERVED(2635392935936: shared: 2635393965744, value: true, operation: FakeQuantize)</text>
<text text-anchor="middle" x="1908.5" y="-410.8" font-family="Times New Roman,serif" font-size="14.00">INTERVALS_ALIGNMENT(2635392937280: low: &#45;1.28, high: 1.27)</text>
<text text-anchor="middle" x="1908.5" y="-395.8" font-family="Times New Roman,serif" font-size="14.00">PRECISION_PRESERVED(2635393844248: shared: 2635393967408,value: true)</text>
<text text-anchor="middle" x="1908.5" y="-380.8" font-family="Times New Roman,serif" font-size="14.00">QUANTIZATION_ALIGNMENT(2635392936128: value: true)</text>
<text text-anchor="middle" x="1908.5" y="-365.8" font-family="Times New Roman,serif" font-size="14.00">in0: {f32}[1,3,9,9]: MaxPool_87: out0 PRECISIONS(2635393854320: u8) </text>
<text text-anchor="middle" x="1908.5" y="-350.8" font-family="Times New Roman,serif" font-size="14.00">out0: {f32}[1,3,9,9]</text>
</g>
<!-- MaxPool_89&#45;&gt;Convolution_139 -->
<g id="edge2" class="edge"><title>MaxPool_89&#45;&gt;Convolution_139</title>
<path fill="none" stroke="black" d="M2002.28,-342.768C2045.01,-313.959 2095.05,-280.218 2135.91,-252.666"/>
<polygon fill="black" stroke="black" points="2137.88,-255.556 2144.22,-247.063 2133.97,-249.752 2137.88,-255.556"/>
<text text-anchor="middle" x="2091.5" y="-298.8" font-family="Times New Roman,serif" font-size="14.00"> 0 &#45;&gt; 0 </text>
</g>
<!-- FakeQuantize_138 -->
<g id="node4" class="node"><title>FakeQuantize_138</title>
<polygon fill="none" stroke="black" points="2747.5,-486 2299.5,-486 2299.5,-328 2747.5,-328 2747.5,-486"/>
<text text-anchor="middle" x="2523.5" y="-470.8" font-family="Times New Roman,serif" font-size="14.00">friendly_name: fakeQuantizeOnWeights</text>
<text text-anchor="middle" x="2523.5" y="-455.8" font-family="Times New Roman,serif" font-size="14.00">name: FakeQuantize_138</text>
<text text-anchor="middle" x="2523.5" y="-440.8" font-family="Times New Roman,serif" font-size="14.00">type_name: FakeQuantize</text>
<text text-anchor="middle" x="2523.5" y="-425.8" font-family="Times New Roman,serif" font-size="14.00">rt info: &#160;INTERVALS_ALIGNMENT(2635392937568: low: &#45;1.27, high: 1.27)</text>
<text text-anchor="middle" x="2523.5" y="-410.8" font-family="Times New Roman,serif" font-size="14.00">in0: {f32}[6,3,1,1]: Constant_90: out0</text>
<text text-anchor="middle" x="2523.5" y="-395.8" font-family="Times New Roman,serif" font-size="14.00">in1: {f32}[6,1,1,1]: Constant_91: out0</text>
<text text-anchor="middle" x="2523.5" y="-380.8" font-family="Times New Roman,serif" font-size="14.00">in2: {f32}[6,1,1,1]: Constant_92: out0</text>
<text text-anchor="middle" x="2523.5" y="-365.8" font-family="Times New Roman,serif" font-size="14.00">in3: {f32}[6,1,1,1]: Constant_93: out0</text>
<text text-anchor="middle" x="2523.5" y="-350.8" font-family="Times New Roman,serif" font-size="14.00">in4: {f32}[6,1,1,1]: Constant_94: out0</text>
<text text-anchor="middle" x="2523.5" y="-335.8" font-family="Times New Roman,serif" font-size="14.00">out0: {f32}[6,3,1,1] PRECISIONS(2635393850736: i8) </text>
</g>
<!-- FakeQuantize_138&#45;&gt;Convolution_139 -->
<g id="edge3" class="edge"><title>FakeQuantize_138&#45;&gt;Convolution_139</title>
<path fill="none" stroke="black" d="M2407.06,-327.742C2369.84,-302.728 2329.5,-275.619 2295.49,-252.758"/>
<polygon fill="black" stroke="black" points="2297.23,-249.714 2286.98,-247.041 2293.33,-255.524 2297.23,-249.714"/>
<text text-anchor="middle" x="2399.5" y="-298.8" font-family="Times New Roman,serif" font-size="14.00"> 0 &#45;&gt; 1 </text>
</g>
<!-- CLONE_0 -->
<g id="node5" class="node"><title>CLONE_0</title>
<polygon fill="none" stroke="black" stroke-dasharray="5,2" points="2103,-665 1886,-665 1886,-552 2103,-552 2103,-665"/>
<text text-anchor="middle" x="1994.5" y="-649.8" font-family="Times New Roman,serif" font-size="14.00">friendly_name: Constant_90</text>
<text text-anchor="middle" x="1994.5" y="-634.8" font-family="Times New Roman,serif" font-size="14.00">type_name: Constant</text>
<text text-anchor="middle" x="1994.5" y="-619.8" font-family="Times New Roman,serif" font-size="14.00">{f32}[6,3,1,1]</text>
<text text-anchor="middle" x="1994.5" y="-604.8" font-family="Times New Roman,serif" font-size="14.00">value: [18, 18, 18, 18, 18, 18, 18, 18</text>
<text text-anchor="middle" x="1994.5" y="-589.8" font-family="Times New Roman,serif" font-size="14.00">, 18, 18, 18, 18, 18, 18, 18, 18</text>
<text text-anchor="middle" x="1994.5" y="-574.8" font-family="Times New Roman,serif" font-size="14.00">, 18, 18</text>
<text text-anchor="middle" x="1994.5" y="-559.8" font-family="Times New Roman,serif" font-size="14.00">(min: 18, max: 18)]</text>
</g>
<!-- CLONE_0&#45;&gt;FakeQuantize_138 -->
<g id="edge4" class="edge"><title>CLONE_0&#45;&gt;FakeQuantize_138</title>
<path fill="none" stroke="black" d="M2081.78,-551.995C2091.94,-546.546 2102.32,-541.411 2112.5,-537 2185.06,-505.566 2209.96,-509.983 2289.45,-486.256"/>
<polygon fill="black" stroke="black" points="2290.87,-489.481 2299.42,-483.218 2288.83,-482.784 2290.87,-489.481"/>
<text text-anchor="middle" x="2239.5" y="-507.8" font-family="Times New Roman,serif" font-size="14.00"> 0 &#45;&gt; 0 </text>
</g>
<!-- CLONE_1 -->
<g id="node6" class="node"><title>CLONE_1</title>
<polygon fill="none" stroke="black" stroke-dasharray="5,2" points="2386,-650 2121,-650 2121,-567 2386,-567 2386,-650"/>
<text text-anchor="middle" x="2253.5" y="-634.8" font-family="Times New Roman,serif" font-size="14.00">friendly_name: Constant_91</text>
<text text-anchor="middle" x="2253.5" y="-619.8" font-family="Times New Roman,serif" font-size="14.00">type_name: Constant</text>
<text text-anchor="middle" x="2253.5" y="-604.8" font-family="Times New Roman,serif" font-size="14.00">{f32}[6,1,1,1]</text>
<text text-anchor="middle" x="2253.5" y="-589.8" font-family="Times New Roman,serif" font-size="14.00">value: [&#45;1.27, &#45;1.27, &#45;1.27, &#45;1.27, &#45;1.27, &#45;1.27</text>
<text text-anchor="middle" x="2253.5" y="-574.8" font-family="Times New Roman,serif" font-size="14.00">(min: &#45;1.27, max: &#45;1.27)]</text>
</g>
<!-- CLONE_1&#45;&gt;FakeQuantize_138 -->
<g id="edge5" class="edge"><title>CLONE_1&#45;&gt;FakeQuantize_138</title>
<path fill="none" stroke="black" d="M2308.46,-566.888C2337.58,-545.371 2374.48,-518.11 2409.45,-492.269"/>
<polygon fill="black" stroke="black" points="2411.86,-494.843 2417.82,-486.085 2407.7,-489.213 2411.86,-494.843"/>
<text text-anchor="middle" x="2409.5" y="-507.8" font-family="Times New Roman,serif" font-size="14.00"> 0 &#45;&gt; 1 </text>
</g>
<!-- CLONE_2 -->
<g id="node7" class="node"><title>CLONE_2</title>
<polygon fill="none" stroke="black" stroke-dasharray="5,2" points="2642.5,-650 2404.5,-650 2404.5,-567 2642.5,-567 2642.5,-650"/>
<text text-anchor="middle" x="2523.5" y="-634.8" font-family="Times New Roman,serif" font-size="14.00">friendly_name: Constant_92</text>
<text text-anchor="middle" x="2523.5" y="-619.8" font-family="Times New Roman,serif" font-size="14.00">type_name: Constant</text>
<text text-anchor="middle" x="2523.5" y="-604.8" font-family="Times New Roman,serif" font-size="14.00">{f32}[6,1,1,1]</text>
<text text-anchor="middle" x="2523.5" y="-589.8" font-family="Times New Roman,serif" font-size="14.00">value: [1.27, 1.27, 1.27, 1.27, 1.27, 1.27</text>
<text text-anchor="middle" x="2523.5" y="-574.8" font-family="Times New Roman,serif" font-size="14.00">(min: 1.27, max: 1.27)]</text>
</g>
<!-- CLONE_2&#45;&gt;FakeQuantize_138 -->
<g id="edge6" class="edge"><title>CLONE_2&#45;&gt;FakeQuantize_138</title>
<path fill="none" stroke="black" d="M2523.5,-566.647C2523.5,-546.308 2523.5,-520.879 2523.5,-496.377"/>
<polygon fill="black" stroke="black" points="2527,-496.319 2523.5,-486.319 2520,-496.319 2527,-496.319"/>
<text text-anchor="middle" x="2544.5" y="-507.8" font-family="Times New Roman,serif" font-size="14.00"> 0 &#45;&gt; 2 </text>
</g>
<!-- CLONE_3 -->
<g id="node8" class="node"><title>CLONE_3</title>
<polygon fill="none" stroke="black" stroke-dasharray="5,2" points="2926,-650 2661,-650 2661,-567 2926,-567 2926,-650"/>
<text text-anchor="middle" x="2793.5" y="-634.8" font-family="Times New Roman,serif" font-size="14.00">friendly_name: Constant_93</text>
<text text-anchor="middle" x="2793.5" y="-619.8" font-family="Times New Roman,serif" font-size="14.00">type_name: Constant</text>
<text text-anchor="middle" x="2793.5" y="-604.8" font-family="Times New Roman,serif" font-size="14.00">{f32}[6,1,1,1]</text>
<text text-anchor="middle" x="2793.5" y="-589.8" font-family="Times New Roman,serif" font-size="14.00">value: [&#45;1.27, &#45;1.27, &#45;1.27, &#45;1.27, &#45;1.27, &#45;1.27</text>
<text text-anchor="middle" x="2793.5" y="-574.8" font-family="Times New Roman,serif" font-size="14.00">(min: &#45;1.27, max: &#45;1.27)]</text>
</g>
<!-- CLONE_3&#45;&gt;FakeQuantize_138 -->
<g id="edge7" class="edge"><title>CLONE_3&#45;&gt;FakeQuantize_138</title>
<path fill="none" stroke="black" d="M2738.54,-566.888C2709.42,-545.371 2672.52,-518.11 2637.55,-492.269"/>
<polygon fill="black" stroke="black" points="2639.3,-489.213 2629.18,-486.085 2635.14,-494.843 2639.3,-489.213"/>
<text text-anchor="middle" x="2687.5" y="-507.8" font-family="Times New Roman,serif" font-size="14.00"> 0 &#45;&gt; 3 </text>
</g>
<!-- CLONE_4 -->
<g id="node9" class="node"><title>CLONE_4</title>
<polygon fill="none" stroke="black" stroke-dasharray="5,2" points="3182.5,-650 2944.5,-650 2944.5,-567 3182.5,-567 3182.5,-650"/>
<text text-anchor="middle" x="3063.5" y="-634.8" font-family="Times New Roman,serif" font-size="14.00">friendly_name: Constant_94</text>
<text text-anchor="middle" x="3063.5" y="-619.8" font-family="Times New Roman,serif" font-size="14.00">type_name: Constant</text>
<text text-anchor="middle" x="3063.5" y="-604.8" font-family="Times New Roman,serif" font-size="14.00">{f32}[6,1,1,1]</text>
<text text-anchor="middle" x="3063.5" y="-589.8" font-family="Times New Roman,serif" font-size="14.00">value: [1.27, 1.27, 1.27, 1.27, 1.27, 1.27</text>
<text text-anchor="middle" x="3063.5" y="-574.8" font-family="Times New Roman,serif" font-size="14.00">(min: 1.27, max: 1.27)]</text>
</g>
<!-- CLONE_4&#45;&gt;FakeQuantize_138 -->
<g id="edge8" class="edge"><title>CLONE_4&#45;&gt;FakeQuantize_138</title>
<path fill="none" stroke="black" d="M2995.68,-566.855C2976.6,-556.332 2955.57,-545.565 2935.5,-537 2879.02,-512.89 2816.48,-490.998 2757.56,-472.374"/>
<polygon fill="black" stroke="black" points="2758.34,-468.952 2747.75,-469.295 2756.24,-475.63 2758.34,-468.952"/>
<text text-anchor="middle" x="2901.5" y="-507.8" font-family="Times New Roman,serif" font-size="14.00"> 0 &#45;&gt; 4 </text>
</g>
<!-- MaxPool_87 -->
<g id="node10" class="node"><title>MaxPool_87</title>
<polygon fill="none" stroke="black" points="1725.5,-680 979.5,-680 979.5,-537 1725.5,-537 1725.5,-680"/>
<text text-anchor="middle" x="1352.5" y="-664.8" font-family="Times New Roman,serif" font-size="14.00">friendly_name: maxPool2</text>
<text text-anchor="middle" x="1352.5" y="-649.8" font-family="Times New Roman,serif" font-size="14.00">name: MaxPool_87</text>
<text text-anchor="middle" x="1352.5" y="-634.8" font-family="Times New Roman,serif" font-size="14.00">type_name: MaxPool</text>
<text text-anchor="middle" x="1352.5" y="-619.8" font-family="Times New Roman,serif" font-size="14.00">rt info: &#160;AVG_POOL_PRECISION_PRESERVED(2635392935936: shared: 2635393965744, value: true, operation: FakeQuantize)</text>
<text text-anchor="middle" x="1352.5" y="-604.8" font-family="Times New Roman,serif" font-size="14.00">INTERVALS_ALIGNMENT(2635392937280: low: &#45;1.28, high: 1.27)</text>
<text text-anchor="middle" x="1352.5" y="-589.8" font-family="Times New Roman,serif" font-size="14.00">PRECISION_PRESERVED(2635393844136: shared: 2635393971504,value: true)</text>
<text text-anchor="middle" x="1352.5" y="-574.8" font-family="Times New Roman,serif" font-size="14.00">QUANTIZATION_ALIGNMENT(2635392936128: value: true)</text>
<text text-anchor="middle" x="1352.5" y="-559.8" font-family="Times New Roman,serif" font-size="14.00">in0: {f32}[1,3,9,9]: AvgPool_137: out0 PRECISIONS(2635393854320: u8) </text>
<text text-anchor="middle" x="1352.5" y="-544.8" font-family="Times New Roman,serif" font-size="14.00">out0: {f32}[1,3,9,9]</text>
</g>
<!-- MaxPool_87&#45;&gt;MaxPool_89 -->
<g id="edge9" class="edge"><title>MaxPool_87&#45;&gt;MaxPool_89</title>
<path fill="none" stroke="black" d="M1549.31,-536.883C1605.86,-516.592 1667.32,-494.537 1723.16,-474.503"/>
<polygon fill="black" stroke="black" points="1724.56,-477.719 1732.79,-471.047 1722.19,-471.13 1724.56,-477.719"/>
<text text-anchor="middle" x="1651.5" y="-507.8" font-family="Times New Roman,serif" font-size="14.00"> 0 &#45;&gt; 0 </text>
</g>
<!-- MaxPool_88 -->
<g id="node21" class="node"><title>MaxPool_88</title>
<polygon fill="none" stroke="black" points="1517.5,-471 771.5,-471 771.5,-343 1517.5,-343 1517.5,-471"/>
<text text-anchor="middle" x="1144.5" y="-455.8" font-family="Times New Roman,serif" font-size="14.00">friendly_name: MaxPool_88</text>
<text text-anchor="middle" x="1144.5" y="-440.8" font-family="Times New Roman,serif" font-size="14.00">type_name: MaxPool</text>
<text text-anchor="middle" x="1144.5" y="-425.8" font-family="Times New Roman,serif" font-size="14.00">rt info: &#160;AVG_POOL_PRECISION_PRESERVED(2635392935936: shared: 2635393965744, value: true, operation: FakeQuantize)</text>
<text text-anchor="middle" x="1144.5" y="-410.8" font-family="Times New Roman,serif" font-size="14.00">INTERVALS_ALIGNMENT(2635392937280: low: &#45;1.28, high: 1.27)</text>
<text text-anchor="middle" x="1144.5" y="-395.8" font-family="Times New Roman,serif" font-size="14.00">PRECISION_PRESERVED(2635393854440: shared: 2635393969840,value: true)</text>
<text text-anchor="middle" x="1144.5" y="-380.8" font-family="Times New Roman,serif" font-size="14.00">QUANTIZATION_ALIGNMENT(2635392936128: value: true)</text>
<text text-anchor="middle" x="1144.5" y="-365.8" font-family="Times New Roman,serif" font-size="14.00">in0: {f32}[1,3,9,9]: MaxPool_87: out0 PRECISIONS(2635393854320: u8) </text>
<text text-anchor="middle" x="1144.5" y="-350.8" font-family="Times New Roman,serif" font-size="14.00">out0: {f32}[1,3,9,9]</text>
</g>
<!-- MaxPool_87&#45;&gt;MaxPool_88 -->
<g id="edge24" class="edge"><title>MaxPool_87&#45;&gt;MaxPool_88</title>
<path fill="none" stroke="black" d="M1278.87,-536.883C1258.99,-517.815 1237.49,-497.191 1217.64,-478.149"/>
<polygon fill="black" stroke="black" points="1220.04,-475.607 1210.4,-471.211 1215.2,-480.659 1220.04,-475.607"/>
<text text-anchor="middle" x="1276.5" y="-507.8" font-family="Times New Roman,serif" font-size="14.00"> 0 &#45;&gt; 0 </text>
</g>
<!-- AvgPool_137 -->
<g id="node11" class="node"><title>AvgPool_137</title>
<polygon fill="none" stroke="black" points="1725.5,-874 979.5,-874 979.5,-731 1725.5,-731 1725.5,-874"/>
<text text-anchor="middle" x="1352.5" y="-858.8" font-family="Times New Roman,serif" font-size="14.00">friendly_name: avgPool</text>
<text text-anchor="middle" x="1352.5" y="-843.8" font-family="Times New Roman,serif" font-size="14.00">name: AvgPool_137</text>
<text text-anchor="middle" x="1352.5" y="-828.8" font-family="Times New Roman,serif" font-size="14.00">type_name: AvgPool</text>
<text text-anchor="middle" x="1352.5" y="-813.8" font-family="Times New Roman,serif" font-size="14.00">rt info: &#160;AVG_POOL_PRECISION_PRESERVED(2635392935936: shared: 2635393965744, value: true, operation: FakeQuantize)</text>
<text text-anchor="middle" x="1352.5" y="-798.8" font-family="Times New Roman,serif" font-size="14.00">INTERVALS_ALIGNMENT(2635392937280: low: &#45;1.28, high: 1.27)</text>
<text text-anchor="middle" x="1352.5" y="-783.8" font-family="Times New Roman,serif" font-size="14.00">PRECISION_PRESERVED(2635393854888: shared: 2635393965744,value: true, operation: FakeQuantize)</text>
<text text-anchor="middle" x="1352.5" y="-768.8" font-family="Times New Roman,serif" font-size="14.00">QUANTIZATION_ALIGNMENT(2635392936128: value: true)</text>
<text text-anchor="middle" x="1352.5" y="-753.8" font-family="Times New Roman,serif" font-size="14.00">in0: {f32}[1,3,9,9]: MaxPool_85: out0 PRECISIONS(2635393854320: u8) </text>
<text text-anchor="middle" x="1352.5" y="-738.8" font-family="Times New Roman,serif" font-size="14.00">out0: {f32}[1,3,9,9]</text>
</g>
<!-- AvgPool_137&#45;&gt;MaxPool_87 -->
<g id="edge10" class="edge"><title>AvgPool_137&#45;&gt;MaxPool_87</title>
<path fill="none" stroke="black" d="M1352.5,-730.824C1352.5,-717.617 1352.5,-703.722 1352.5,-690.238"/>
<polygon fill="black" stroke="black" points="1356,-690.026 1352.5,-680.026 1349,-690.026 1356,-690.026"/>
<text text-anchor="middle" x="1373.5" y="-701.8" font-family="Times New Roman,serif" font-size="14.00"> 0 &#45;&gt; 0 </text>
</g>
<!-- MaxPool_85 -->
<g id="node12" class="node"><title>MaxPool_85</title>
<polygon fill="none" stroke="black" points="1589,-1053 1116,-1053 1116,-925 1589,-925 1589,-1053"/>
<text text-anchor="middle" x="1352.5" y="-1037.8" font-family="Times New Roman,serif" font-size="14.00">friendly_name: maxPool1</text>
<text text-anchor="middle" x="1352.5" y="-1022.8" font-family="Times New Roman,serif" font-size="14.00">name: MaxPool_85</text>
<text text-anchor="middle" x="1352.5" y="-1007.8" font-family="Times New Roman,serif" font-size="14.00">type_name: MaxPool</text>
<text text-anchor="middle" x="1352.5" y="-992.8" font-family="Times New Roman,serif" font-size="14.00">rt info: &#160;INTERVALS_ALIGNMENT(2635392937280: low: &#45;1.28, high: 1.27)</text>
<text text-anchor="middle" x="1352.5" y="-977.8" font-family="Times New Roman,serif" font-size="14.00">PRECISION_PRESERVED(2635393844024: shared: 2635393968048,value: true)</text>
<text text-anchor="middle" x="1352.5" y="-962.8" font-family="Times New Roman,serif" font-size="14.00">QUANTIZATION_ALIGNMENT(2635392936128: value: true)</text>
<text text-anchor="middle" x="1352.5" y="-947.8" font-family="Times New Roman,serif" font-size="14.00">in0: {f32}[1,3,9,9]: FakeQuantize_136: out0 PRECISIONS(2635393854320: u8) </text>
<text text-anchor="middle" x="1352.5" y="-932.8" font-family="Times New Roman,serif" font-size="14.00">out0: {f32}[1,3,9,9]</text>
</g>
<!-- MaxPool_85&#45;&gt;AvgPool_137 -->
<g id="edge11" class="edge"><title>MaxPool_85&#45;&gt;AvgPool_137</title>
<path fill="none" stroke="black" d="M1352.5,-924.764C1352.5,-911.796 1352.5,-897.977 1352.5,-884.484"/>
<polygon fill="black" stroke="black" points="1356,-884.249 1352.5,-874.249 1349,-884.249 1356,-884.249"/>
<text text-anchor="middle" x="1373.5" y="-895.8" font-family="Times New Roman,serif" font-size="14.00"> 0 &#45;&gt; 0 </text>
</g>
<!-- FakeQuantize_136 -->
<g id="node13" class="node"><title>FakeQuantize_136</title>
<polygon fill="none" stroke="black" points="1576.5,-1262 1128.5,-1262 1128.5,-1104 1576.5,-1104 1576.5,-1262"/>
<text text-anchor="middle" x="1352.5" y="-1246.8" font-family="Times New Roman,serif" font-size="14.00">friendly_name: fakeQuantizeOnActivations</text>
<text text-anchor="middle" x="1352.5" y="-1231.8" font-family="Times New Roman,serif" font-size="14.00">name: FakeQuantize_136</text>
<text text-anchor="middle" x="1352.5" y="-1216.8" font-family="Times New Roman,serif" font-size="14.00">type_name: FakeQuantize</text>
<text text-anchor="middle" x="1352.5" y="-1201.8" font-family="Times New Roman,serif" font-size="14.00">rt info: &#160;INTERVALS_ALIGNMENT(2635392937280: low: &#45;1.28, high: 1.27)</text>
<text text-anchor="middle" x="1352.5" y="-1186.8" font-family="Times New Roman,serif" font-size="14.00">in0: {f32}[1,3,9,9]: Parameter_79: out0</text>
<text text-anchor="middle" x="1352.5" y="-1171.8" font-family="Times New Roman,serif" font-size="14.00">in1: {f32}[]: Constant_80: out0</text>
<text text-anchor="middle" x="1352.5" y="-1156.8" font-family="Times New Roman,serif" font-size="14.00">in2: {f32}[]: Constant_81: out0</text>
<text text-anchor="middle" x="1352.5" y="-1141.8" font-family="Times New Roman,serif" font-size="14.00">in3: {f32}[]: Constant_82: out0</text>
<text text-anchor="middle" x="1352.5" y="-1126.8" font-family="Times New Roman,serif" font-size="14.00">in4: {f32}[]: Constant_83: out0</text>
<text text-anchor="middle" x="1352.5" y="-1111.8" font-family="Times New Roman,serif" font-size="14.00">out0: {f32}[1,3,9,9] PRECISIONS(2635393854320: u8) </text>
</g>
<!-- FakeQuantize_136&#45;&gt;MaxPool_85 -->
<g id="edge12" class="edge"><title>FakeQuantize_136&#45;&gt;MaxPool_85</title>
<path fill="none" stroke="black" d="M1352.5,-1103.91C1352.5,-1090.42 1352.5,-1076.45 1352.5,-1063.1"/>
<polygon fill="black" stroke="black" points="1356,-1063.03 1352.5,-1053.03 1349,-1063.03 1356,-1063.03"/>
<text text-anchor="middle" x="1373.5" y="-1074.8" font-family="Times New Roman,serif" font-size="14.00"> 0 &#45;&gt; 0 </text>
</g>
<!-- CLONE_5 -->
<g id="node14" class="node"><title>CLONE_5</title>
<polygon fill="none" stroke="blue" stroke-dasharray="5,2" points="1057,-1381 878,-1381 878,-1328 1057,-1328 1057,-1381"/>
<text text-anchor="middle" x="967.5" y="-1365.8" font-family="Times New Roman,serif" font-size="14.00">friendly_name: Parameter_79</text>
<text text-anchor="middle" x="967.5" y="-1350.8" font-family="Times New Roman,serif" font-size="14.00">type_name: Parameter</text>
<text text-anchor="middle" x="967.5" y="-1335.8" font-family="Times New Roman,serif" font-size="14.00">{f32}[1,3,9,9]</text>
</g>
<!-- CLONE_5&#45;&gt;FakeQuantize_136 -->
<g id="edge13" class="edge"><title>CLONE_5&#45;&gt;FakeQuantize_136</title>
<path fill="none" stroke="black" d="M1025.56,-1327.94C1063.31,-1311.32 1114.84,-1288.63 1165.82,-1266.19"/>
<polygon fill="black" stroke="black" points="1167.25,-1269.38 1174.99,-1262.15 1164.43,-1262.97 1167.25,-1269.38"/>
<text text-anchor="middle" x="1147.5" y="-1283.8" font-family="Times New Roman,serif" font-size="14.00"> 0 &#45;&gt; 0 </text>
</g>
<!-- CLONE_6 -->
<g id="node15" class="node"><title>CLONE_6</title>
<polygon fill="none" stroke="black" stroke-dasharray="5,2" points="1248,-1396 1075,-1396 1075,-1313 1248,-1313 1248,-1396"/>
<text text-anchor="middle" x="1161.5" y="-1380.8" font-family="Times New Roman,serif" font-size="14.00">friendly_name: Constant_80</text>
<text text-anchor="middle" x="1161.5" y="-1365.8" font-family="Times New Roman,serif" font-size="14.00">type_name: Constant</text>
<text text-anchor="middle" x="1161.5" y="-1350.8" font-family="Times New Roman,serif" font-size="14.00">{f32}[]</text>
<text text-anchor="middle" x="1161.5" y="-1335.8" font-family="Times New Roman,serif" font-size="14.00">value: [&#45;1.28</text>
<text text-anchor="middle" x="1161.5" y="-1320.8" font-family="Times New Roman,serif" font-size="14.00">(min: &#45;1.28, max: &#45;1.28)]</text>
</g>
<!-- CLONE_6&#45;&gt;FakeQuantize_136 -->
<g id="edge14" class="edge"><title>CLONE_6&#45;&gt;FakeQuantize_136</title>
<path fill="none" stroke="black" d="M1207.25,-1312.9C1222.18,-1299.65 1239.36,-1284.4 1256.56,-1269.14"/>
<polygon fill="black" stroke="black" points="1259.3,-1271.39 1264.46,-1262.13 1254.65,-1266.15 1259.3,-1271.39"/>
<text text-anchor="middle" x="1261.5" y="-1283.8" font-family="Times New Roman,serif" font-size="14.00"> 0 &#45;&gt; 1 </text>
</g>
<!-- CLONE_7 -->
<g id="node16" class="node"><title>CLONE_7</title>
<polygon fill="none" stroke="black" stroke-dasharray="5,2" points="1439,-1396 1266,-1396 1266,-1313 1439,-1313 1439,-1396"/>
<text text-anchor="middle" x="1352.5" y="-1380.8" font-family="Times New Roman,serif" font-size="14.00">friendly_name: Constant_81</text>
<text text-anchor="middle" x="1352.5" y="-1365.8" font-family="Times New Roman,serif" font-size="14.00">type_name: Constant</text>
<text text-anchor="middle" x="1352.5" y="-1350.8" font-family="Times New Roman,serif" font-size="14.00">{f32}[]</text>
<text text-anchor="middle" x="1352.5" y="-1335.8" font-family="Times New Roman,serif" font-size="14.00">value: [1.27</text>
<text text-anchor="middle" x="1352.5" y="-1320.8" font-family="Times New Roman,serif" font-size="14.00">(min: 1.27, max: 1.27)]</text>
</g>
<!-- CLONE_7&#45;&gt;FakeQuantize_136 -->
<g id="edge15" class="edge"><title>CLONE_7&#45;&gt;FakeQuantize_136</title>
<path fill="none" stroke="black" d="M1352.5,-1312.9C1352.5,-1300.61 1352.5,-1286.59 1352.5,-1272.44"/>
<polygon fill="black" stroke="black" points="1356,-1272.13 1352.5,-1262.13 1349,-1272.13 1356,-1272.13"/>
<text text-anchor="middle" x="1373.5" y="-1283.8" font-family="Times New Roman,serif" font-size="14.00"> 0 &#45;&gt; 2 </text>
</g>
<!-- CLONE_8 -->
<g id="node17" class="node"><title>CLONE_8</title>
<polygon fill="none" stroke="black" stroke-dasharray="5,2" points="1630,-1396 1457,-1396 1457,-1313 1630,-1313 1630,-1396"/>
<text text-anchor="middle" x="1543.5" y="-1380.8" font-family="Times New Roman,serif" font-size="14.00">friendly_name: Constant_82</text>
<text text-anchor="middle" x="1543.5" y="-1365.8" font-family="Times New Roman,serif" font-size="14.00">type_name: Constant</text>
<text text-anchor="middle" x="1543.5" y="-1350.8" font-family="Times New Roman,serif" font-size="14.00">{f32}[]</text>
<text text-anchor="middle" x="1543.5" y="-1335.8" font-family="Times New Roman,serif" font-size="14.00">value: [&#45;1.28</text>
<text text-anchor="middle" x="1543.5" y="-1320.8" font-family="Times New Roman,serif" font-size="14.00">(min: &#45;1.28, max: &#45;1.28)]</text>
</g>
<!-- CLONE_8&#45;&gt;FakeQuantize_136 -->
<g id="edge16" class="edge"><title>CLONE_8&#45;&gt;FakeQuantize_136</title>
<path fill="none" stroke="black" d="M1497.75,-1312.9C1482.82,-1299.65 1465.64,-1284.4 1448.44,-1269.14"/>
<polygon fill="black" stroke="black" points="1450.35,-1266.15 1440.54,-1262.13 1445.7,-1271.39 1450.35,-1266.15"/>
<text text-anchor="middle" x="1497.5" y="-1283.8" font-family="Times New Roman,serif" font-size="14.00"> 0 &#45;&gt; 3 </text>
</g>
<!-- CLONE_9 -->
<g id="node18" class="node"><title>CLONE_9</title>
<polygon fill="none" stroke="black" stroke-dasharray="5,2" points="1821,-1396 1648,-1396 1648,-1313 1821,-1313 1821,-1396"/>
<text text-anchor="middle" x="1734.5" y="-1380.8" font-family="Times New Roman,serif" font-size="14.00">friendly_name: Constant_83</text>
<text text-anchor="middle" x="1734.5" y="-1365.8" font-family="Times New Roman,serif" font-size="14.00">type_name: Constant</text>
<text text-anchor="middle" x="1734.5" y="-1350.8" font-family="Times New Roman,serif" font-size="14.00">{f32}[]</text>
<text text-anchor="middle" x="1734.5" y="-1335.8" font-family="Times New Roman,serif" font-size="14.00">value: [1.27</text>
<text text-anchor="middle" x="1734.5" y="-1320.8" font-family="Times New Roman,serif" font-size="14.00">(min: 1.27, max: 1.27)]</text>
</g>
<!-- CLONE_9&#45;&gt;FakeQuantize_136 -->
<g id="edge17" class="edge"><title>CLONE_9&#45;&gt;FakeQuantize_136</title>
<path fill="none" stroke="black" d="M1647.82,-1315.04C1615.01,-1300.48 1576.27,-1283.29 1537.84,-1266.24"/>
<polygon fill="black" stroke="black" points="1539.17,-1263 1528.61,-1262.14 1536.33,-1269.4 1539.17,-1263"/>
<text text-anchor="middle" x="1621.5" y="-1283.8" font-family="Times New Roman,serif" font-size="14.00"> 0 &#45;&gt; 4 </text>
</g>
<!-- FakeQuantize_140 -->
<g id="node19" class="node"><title>FakeQuantize_140</title>
<polygon fill="none" stroke="black" points="692.5,-277 244.5,-277 244.5,-119 692.5,-119 692.5,-277"/>
<text text-anchor="middle" x="468.5" y="-261.8" font-family="Times New Roman,serif" font-size="14.00">friendly_name: fakeQuantize1</text>
<text text-anchor="middle" x="468.5" y="-246.8" font-family="Times New Roman,serif" font-size="14.00">name: FakeQuantize_140</text>
<text text-anchor="middle" x="468.5" y="-231.8" font-family="Times New Roman,serif" font-size="14.00">type_name: FakeQuantize</text>
<text text-anchor="middle" x="468.5" y="-216.8" font-family="Times New Roman,serif" font-size="14.00">rt info: &#160;INTERVALS_ALIGNMENT(2635392936224: low: &#45;1.28, high: 1.27)</text>
<text text-anchor="middle" x="468.5" y="-201.8" font-family="Times New Roman,serif" font-size="14.00">in0: {f32}[1,3,9,9]: MaxPool_88: out0</text>
<text text-anchor="middle" x="468.5" y="-186.8" font-family="Times New Roman,serif" font-size="14.00">in1: {f32}[]: Constant_97: out0</text>
<text text-anchor="middle" x="468.5" y="-171.8" font-family="Times New Roman,serif" font-size="14.00">in2: {f32}[]: Constant_98: out0</text>
<text text-anchor="middle" x="468.5" y="-156.8" font-family="Times New Roman,serif" font-size="14.00">in3: {f32}[]: Constant_99: out0</text>
<text text-anchor="middle" x="468.5" y="-141.8" font-family="Times New Roman,serif" font-size="14.00">in4: {f32}[]: Constant_100: out0</text>
<text text-anchor="middle" x="468.5" y="-126.8" font-family="Times New Roman,serif" font-size="14.00">out0: {f32}[1,3,9,9] PRECISIONS(2635393851968: i8, u8) </text>
</g>
<!-- Result_102 -->
<g id="node20" class="node"><title>Result_102</title>
<polygon fill="none" stroke="crimson" stroke-width="1.5" points="598.5,-68 338.5,-68 338.5,-0 598.5,-0 598.5,-68"/>
<text text-anchor="middle" x="468.5" y="-52.8" font-family="Times New Roman,serif" font-size="14.00">friendly_name: Result_102</text>
<text text-anchor="middle" x="468.5" y="-37.8" font-family="Times New Roman,serif" font-size="14.00">type_name: Result</text>
<text text-anchor="middle" x="468.5" y="-22.8" font-family="Times New Roman,serif" font-size="14.00">in0: {f32}[1,3,9,9]: FakeQuantize_140: out0</text>
<text text-anchor="middle" x="468.5" y="-7.8" font-family="Times New Roman,serif" font-size="14.00">out0: {f32}[1,3,9,9]</text>
</g>
<!-- FakeQuantize_140&#45;&gt;Result_102 -->
<g id="edge18" class="edge"><title>FakeQuantize_140&#45;&gt;Result_102</title>
<path fill="none" stroke="black" d="M468.5,-118.847C468.5,-104.941 468.5,-90.9219 468.5,-78.4336"/>
<polygon fill="black" stroke="black" points="472,-78.3394 468.5,-68.3394 465,-78.3395 472,-78.3394"/>
<text text-anchor="middle" x="489.5" y="-89.8" font-family="Times New Roman,serif" font-size="14.00"> 0 &#45;&gt; 0 </text>
</g>
<!-- MaxPool_88&#45;&gt;FakeQuantize_140 -->
<g id="edge19" class="edge"><title>MaxPool_88&#45;&gt;FakeQuantize_140</title>
<path fill="none" stroke="black" d="M938.465,-342.909C863.885,-320.072 779.137,-294.121 702.339,-270.605"/>
<polygon fill="black" stroke="black" points="703.117,-267.183 692.531,-267.601 701.068,-273.876 703.117,-267.183"/>
<text text-anchor="middle" x="848.5" y="-298.8" font-family="Times New Roman,serif" font-size="14.00"> 0 &#45;&gt; 0 </text>
</g>
<!-- CLONE_10 -->
<g id="node22" class="node"><title>CLONE_10</title>
<polygon fill="none" stroke="black" stroke-dasharray="5,2" points="173,-448.5 0,-448.5 0,-365.5 173,-365.5 173,-448.5"/>
<text text-anchor="middle" x="86.5" y="-433.3" font-family="Times New Roman,serif" font-size="14.00">friendly_name: Constant_97</text>
<text text-anchor="middle" x="86.5" y="-418.3" font-family="Times New Roman,serif" font-size="14.00">type_name: Constant</text>
<text text-anchor="middle" x="86.5" y="-403.3" font-family="Times New Roman,serif" font-size="14.00">{f32}[]</text>
<text text-anchor="middle" x="86.5" y="-388.3" font-family="Times New Roman,serif" font-size="14.00">value: [&#45;1.28</text>
<text text-anchor="middle" x="86.5" y="-373.3" font-family="Times New Roman,serif" font-size="14.00">(min: &#45;1.28, max: &#45;1.28)]</text>
</g>
<!-- CLONE_10&#45;&gt;FakeQuantize_140 -->
<g id="edge20" class="edge"><title>CLONE_10&#45;&gt;FakeQuantize_140</title>
<path fill="none" stroke="black" d="M131.037,-365.329C146.375,-352.461 164.088,-338.794 181.5,-328 208.219,-311.436 237.429,-295.801 266.658,-281.513"/>
<polygon fill="black" stroke="black" points="268.252,-284.631 275.727,-277.123 265.202,-278.33 268.252,-284.631"/>
<text text-anchor="middle" x="255.5" y="-298.8" font-family="Times New Roman,serif" font-size="14.00"> 0 &#45;&gt; 1 </text>
</g>
<!-- CLONE_11 -->
<g id="node23" class="node"><title>CLONE_11</title>
<polygon fill="none" stroke="black" stroke-dasharray="5,2" points="364,-448.5 191,-448.5 191,-365.5 364,-365.5 364,-448.5"/>
<text text-anchor="middle" x="277.5" y="-433.3" font-family="Times New Roman,serif" font-size="14.00">friendly_name: Constant_98</text>
<text text-anchor="middle" x="277.5" y="-418.3" font-family="Times New Roman,serif" font-size="14.00">type_name: Constant</text>
<text text-anchor="middle" x="277.5" y="-403.3" font-family="Times New Roman,serif" font-size="14.00">{f32}[]</text>
<text text-anchor="middle" x="277.5" y="-388.3" font-family="Times New Roman,serif" font-size="14.00">value: [1.27</text>
<text text-anchor="middle" x="277.5" y="-373.3" font-family="Times New Roman,serif" font-size="14.00">(min: 1.27, max: 1.27)]</text>
</g>
<!-- CLONE_11&#45;&gt;FakeQuantize_140 -->
<g id="edge21" class="edge"><title>CLONE_11&#45;&gt;FakeQuantize_140</title>
<path fill="none" stroke="black" d="M315.235,-365.103C336.493,-342.066 363.866,-312.399 389.584,-284.527"/>
<polygon fill="black" stroke="black" points="392.225,-286.826 396.434,-277.103 387.08,-282.079 392.225,-286.826"/>
<text text-anchor="middle" x="400.5" y="-298.8" font-family="Times New Roman,serif" font-size="14.00"> 0 &#45;&gt; 2 </text>
</g>
<!-- CLONE_12 -->
<g id="node24" class="node"><title>CLONE_12</title>
<polygon fill="none" stroke="black" stroke-dasharray="5,2" points="555,-448.5 382,-448.5 382,-365.5 555,-365.5 555,-448.5"/>
<text text-anchor="middle" x="468.5" y="-433.3" font-family="Times New Roman,serif" font-size="14.00">friendly_name: Constant_99</text>
<text text-anchor="middle" x="468.5" y="-418.3" font-family="Times New Roman,serif" font-size="14.00">type_name: Constant</text>
<text text-anchor="middle" x="468.5" y="-403.3" font-family="Times New Roman,serif" font-size="14.00">{f32}[]</text>
<text text-anchor="middle" x="468.5" y="-388.3" font-family="Times New Roman,serif" font-size="14.00">value: [&#45;1.28</text>
<text text-anchor="middle" x="468.5" y="-373.3" font-family="Times New Roman,serif" font-size="14.00">(min: &#45;1.28, max: &#45;1.28)]</text>
</g>
<!-- CLONE_12&#45;&gt;FakeQuantize_140 -->
<g id="edge22" class="edge"><title>CLONE_12&#45;&gt;FakeQuantize_140</title>
<path fill="none" stroke="black" d="M468.5,-365.103C468.5,-342.85 468.5,-314.411 468.5,-287.379"/>
<polygon fill="black" stroke="black" points="472,-287.103 468.5,-277.103 465,-287.103 472,-287.103"/>
<text text-anchor="middle" x="489.5" y="-298.8" font-family="Times New Roman,serif" font-size="14.00"> 0 &#45;&gt; 3 </text>
</g>
<!-- CLONE_13 -->
<g id="node25" class="node"><title>CLONE_13</title>
<polygon fill="none" stroke="black" stroke-dasharray="5,2" points="753.5,-448.5 573.5,-448.5 573.5,-365.5 753.5,-365.5 753.5,-448.5"/>
<text text-anchor="middle" x="663.5" y="-433.3" font-family="Times New Roman,serif" font-size="14.00">friendly_name: Constant_100</text>
<text text-anchor="middle" x="663.5" y="-418.3" font-family="Times New Roman,serif" font-size="14.00">type_name: Constant</text>
<text text-anchor="middle" x="663.5" y="-403.3" font-family="Times New Roman,serif" font-size="14.00">{f32}[]</text>
<text text-anchor="middle" x="663.5" y="-388.3" font-family="Times New Roman,serif" font-size="14.00">value: [1.27</text>
<text text-anchor="middle" x="663.5" y="-373.3" font-family="Times New Roman,serif" font-size="14.00">(min: 1.27, max: 1.27)]</text>
</g>
<!-- CLONE_13&#45;&gt;FakeQuantize_140 -->
<g id="edge23" class="edge"><title>CLONE_13&#45;&gt;FakeQuantize_140</title>
<path fill="none" stroke="black" d="M624.974,-365.103C603.272,-342.066 575.325,-312.399 549.069,-284.527"/>
<polygon fill="black" stroke="black" points="551.48,-281.982 542.076,-277.103 546.385,-286.782 551.48,-281.982"/>
<text text-anchor="middle" x="593.5" y="-298.8" font-family="Times New Roman,serif" font-size="14.00"> 0 &#45;&gt; 4 </text>
</g>
</g>
</svg>
