<?xml version="1.0" encoding="UTF-8" standalone="no"?>
<!DOCTYPE svg PUBLIC "-//W3C//DTD SVG 1.1//EN"
 "http://www.w3.org/Graphics/SVG/1.1/DTD/svg11.dtd">
<!-- Generated by graphviz version 2.38.0 (20140413.2041)
 -->
<!-- Title: ngraph Pages: 1 -->
<svg width="3086pt" height="1269pt"
 viewBox="0.00 0.00 3085.50 1269.00" xmlns="http://www.w3.org/2000/svg" xmlns:xlink="http://www.w3.org/1999/xlink">
<g id="graph0" class="graph" transform="scale(1 1) rotate(0) translate(4 1265)">
<title>ngraph</title>
<polygon fill="white" stroke="none" points="-4,4 -4,-1265 3081.5,-1265 3081.5,4 -4,4"/>
<!-- Convolution_139 -->
<g id="node1" class="node"><title>Convolution_139</title>
<polygon fill="none" stroke="black" points="2283,-239.5 1820,-239.5 1820,-141.5 2283,-141.5 2283,-239.5"/>
<text text-anchor="middle" x="2051.5" y="-224.3" font-family="Times New Roman,serif" font-size="14.00">friendly_name: output</text>
<text text-anchor="middle" x="2051.5" y="-209.3" font-family="Times New Roman,serif" font-size="14.00">name: Convolution_139</text>
<text text-anchor="middle" x="2051.5" y="-194.3" font-family="Times New Roman,serif" font-size="14.00">type_name: Convolution</text>
<text text-anchor="middle" x="2051.5" y="-179.3" font-family="Times New Roman,serif" font-size="14.00">in0: {f32}[1,3,9,9]: MaxPool_89: out0 PRECISIONS(2635393844352: u8) </text>
<text text-anchor="middle" x="2051.5" y="-164.3" font-family="Times New Roman,serif" font-size="14.00">in1: {f32}[6,3,1,1]: FakeQuantize_138: out0 PRECISIONS(2635393853984: i8) </text>
<text text-anchor="middle" x="2051.5" y="-149.3" font-family="Times New Roman,serif" font-size="14.00">out0: {f32}[1,6,9,9]</text>
</g>
<!-- Result_103 -->
<g id="node2" class="node"><title>Result_103</title>
<polygon fill="none" stroke="crimson" stroke-width="1.5" points="2178.5,-68 1924.5,-68 1924.5,-0 2178.5,-0 2178.5,-68"/>
<text text-anchor="middle" x="2051.5" y="-52.8" font-family="Times New Roman,serif" font-size="14.00">friendly_name: Result_103</text>
<text text-anchor="middle" x="2051.5" y="-37.8" font-family="Times New Roman,serif" font-size="14.00">type_name: Result</text>
<text text-anchor="middle" x="2051.5" y="-22.8" font-family="Times New Roman,serif" font-size="14.00">in0: {f32}[1,6,9,9]: Convolution_139: out0</text>
<text text-anchor="middle" x="2051.5" y="-7.8" font-family="Times New Roman,serif" font-size="14.00">out0: {f32}[1,6,9,9]</text>
</g>
<!-- Convolution_139&#45;&gt;Result_103 -->
<g id="edge1" class="edge"><title>Convolution_139&#45;&gt;Result_103</title>
<path fill="none" stroke="black" d="M2051.5,-141.462C2051.5,-121.339 2051.5,-98.1141 2051.5,-78.5016"/>
<polygon fill="black" stroke="black" points="2055,-78.3161 2051.5,-68.3162 2048,-78.3162 2055,-78.3161"/>
<text text-anchor="middle" x="2072.5" y="-89.8" font-family="Times New Roman,serif" font-size="14.00"> 0 &#45;&gt; 0 </text>
</g>
<!-- MaxPool_89 -->
<g id="node3" class="node"><title>MaxPool_89</title>
<polygon fill="none" stroke="black" points="2281.5,-433.5 1535.5,-433.5 1535.5,-335.5 2281.5,-335.5 2281.5,-433.5"/>
<text text-anchor="middle" x="1908.5" y="-418.3" font-family="Times New Roman,serif" font-size="14.00">friendly_name: MaxPool_89</text>
<text text-anchor="middle" x="1908.5" y="-403.3" font-family="Times New Roman,serif" font-size="14.00">type_name: MaxPool</text>
<text text-anchor="middle" x="1908.5" y="-388.3" font-family="Times New Roman,serif" font-size="14.00">rt info: &#160;AVG_POOL_PRECISION_PRESERVED(2635392935936: shared: 2635393965744, value: true, operation: FakeQuantize)</text>
<text text-anchor="middle" x="1908.5" y="-373.3" font-family="Times New Roman,serif" font-size="14.00">PRECISION_PRESERVED(2635393844248: shared: 2635393967408,value: true)</text>
<text text-anchor="middle" x="1908.5" y="-358.3" font-family="Times New Roman,serif" font-size="14.00">in0: {f32}[1,3,9,9]: MaxPool_87: out0</text>
<text text-anchor="middle" x="1908.5" y="-343.3" font-family="Times New Roman,serif" font-size="14.00">out0: {f32}[1,3,9,9]</text>
</g>
<!-- MaxPool_89&#45;&gt;Convolution_139 -->
<g id="edge2" class="edge"><title>MaxPool_89&#45;&gt;Convolution_139</title>
<path fill="none" stroke="black" d="M1944.58,-335.05C1964.39,-308.458 1989.05,-275.354 2009.69,-247.64"/>
<polygon fill="black" stroke="black" points="2012.51,-249.712 2015.67,-239.601 2006.89,-245.531 2012.51,-249.712"/>
<text text-anchor="middle" x="2004.5" y="-283.8" font-family="Times New Roman,serif" font-size="14.00"> 0 &#45;&gt; 0 </text>
</g>
<!-- FakeQuantize_138 -->
<g id="node4" class="node"><title>FakeQuantize_138</title>
<polygon fill="none" stroke="black" points="2537,-456 2300,-456 2300,-313 2537,-313 2537,-456"/>
<text text-anchor="middle" x="2418.5" y="-440.8" font-family="Times New Roman,serif" font-size="14.00">friendly_name: fakeQuantizeOnWeights</text>
<text text-anchor="middle" x="2418.5" y="-425.8" font-family="Times New Roman,serif" font-size="14.00">name: FakeQuantize_138</text>
<text text-anchor="middle" x="2418.5" y="-410.8" font-family="Times New Roman,serif" font-size="14.00">type_name: FakeQuantize</text>
<text text-anchor="middle" x="2418.5" y="-395.8" font-family="Times New Roman,serif" font-size="14.00">in0: {f32}[6,3,1,1]: Constant_90: out0</text>
<text text-anchor="middle" x="2418.5" y="-380.8" font-family="Times New Roman,serif" font-size="14.00">in1: {f32}[6,1,1,1]: Constant_91: out0</text>
<text text-anchor="middle" x="2418.5" y="-365.8" font-family="Times New Roman,serif" font-size="14.00">in2: {f32}[6,1,1,1]: Constant_92: out0</text>
<text text-anchor="middle" x="2418.5" y="-350.8" font-family="Times New Roman,serif" font-size="14.00">in3: {f32}[6,1,1,1]: Constant_93: out0</text>
<text text-anchor="middle" x="2418.5" y="-335.8" font-family="Times New Roman,serif" font-size="14.00">in4: {f32}[6,1,1,1]: Constant_94: out0</text>
<text text-anchor="middle" x="2418.5" y="-320.8" font-family="Times New Roman,serif" font-size="14.00">out0: {f32}[6,3,1,1]</text>
</g>
<!-- FakeQuantize_138&#45;&gt;Convolution_139 -->
<g id="edge3" class="edge"><title>FakeQuantize_138&#45;&gt;Convolution_139</title>
<path fill="none" stroke="black" d="M2299.68,-317.881C2296.59,-316.232 2293.53,-314.602 2290.5,-313 2247,-289.972 2198.66,-265.238 2156.9,-244.136"/>
<polygon fill="black" stroke="black" points="2158.32,-240.934 2147.82,-239.552 2155.17,-247.183 2158.32,-240.934"/>
<text text-anchor="middle" x="2272.5" y="-283.8" font-family="Times New Roman,serif" font-size="14.00"> 0 &#45;&gt; 1 </text>
</g>
<!-- CLONE_0 -->
<g id="node5" class="node"><title>CLONE_0</title>
<polygon fill="none" stroke="black" stroke-dasharray="5,2" points="1998,-620 1781,-620 1781,-507 1998,-507 1998,-620"/>
<text text-anchor="middle" x="1889.5" y="-604.8" font-family="Times New Roman,serif" font-size="14.00">friendly_name: Constant_90</text>
<text text-anchor="middle" x="1889.5" y="-589.8" font-family="Times New Roman,serif" font-size="14.00">type_name: Constant</text>
<text text-anchor="middle" x="1889.5" y="-574.8" font-family="Times New Roman,serif" font-size="14.00">{f32}[6,3,1,1]</text>
<text text-anchor="middle" x="1889.5" y="-559.8" font-family="Times New Roman,serif" font-size="14.00">value: [18, 18, 18, 18, 18, 18, 18, 18</text>
<text text-anchor="middle" x="1889.5" y="-544.8" font-family="Times New Roman,serif" font-size="14.00">, 18, 18, 18, 18, 18, 18, 18, 18</text>
<text text-anchor="middle" x="1889.5" y="-529.8" font-family="Times New Roman,serif" font-size="14.00">, 18, 18</text>
<text text-anchor="middle" x="1889.5" y="-514.8" font-family="Times New Roman,serif" font-size="14.00">(min: 18, max: 18)]</text>
</g>
<!-- CLONE_0&#45;&gt;FakeQuantize_138 -->
<g id="edge4" class="edge"><title>CLONE_0&#45;&gt;FakeQuantize_138</title>
<path fill="none" stroke="black" d="M1998.06,-510.179C2001.22,-509.061 2004.37,-507.998 2007.5,-507 2065.64,-488.442 2215.93,-478.298 2289.94,-455.758"/>
<polygon fill="black" stroke="black" points="2291.45,-458.944 2299.86,-452.493 2289.27,-452.295 2291.45,-458.944"/>
<text text-anchor="middle" x="2222.5" y="-477.8" font-family="Times New Roman,serif" font-size="14.00"> 0 &#45;&gt; 0 </text>
</g>
<!-- CLONE_1 -->
<g id="node6" class="node"><title>CLONE_1</title>
<polygon fill="none" stroke="black" stroke-dasharray="5,2" points="2281,-605 2016,-605 2016,-522 2281,-522 2281,-605"/>
<text text-anchor="middle" x="2148.5" y="-589.8" font-family="Times New Roman,serif" font-size="14.00">friendly_name: Constant_91</text>
<text text-anchor="middle" x="2148.5" y="-574.8" font-family="Times New Roman,serif" font-size="14.00">type_name: Constant</text>
<text text-anchor="middle" x="2148.5" y="-559.8" font-family="Times New Roman,serif" font-size="14.00">{f32}[6,1,1,1]</text>
<text text-anchor="middle" x="2148.5" y="-544.8" font-family="Times New Roman,serif" font-size="14.00">value: [&#45;1.27, &#45;1.27, &#45;1.27, &#45;1.27, &#45;1.27, &#45;1.27</text>
<text text-anchor="middle" x="2148.5" y="-529.8" font-family="Times New Roman,serif" font-size="14.00">(min: &#45;1.27, max: &#45;1.27)]</text>
</g>
<!-- CLONE_1&#45;&gt;FakeQuantize_138 -->
<g id="edge5" class="edge"><title>CLONE_1&#45;&gt;FakeQuantize_138</title>
<path fill="none" stroke="black" d="M2210.44,-521.893C2237.74,-503.998 2270.74,-482.364 2302.34,-461.651"/>
<polygon fill="black" stroke="black" points="2304.32,-464.533 2310.77,-456.124 2300.49,-458.679 2304.32,-464.533"/>
<text text-anchor="middle" x="2304.5" y="-477.8" font-family="Times New Roman,serif" font-size="14.00"> 0 &#45;&gt; 1 </text>
</g>
<!-- CLONE_2 -->
<g id="node7" class="node"><title>CLONE_2</title>
<polygon fill="none" stroke="black" stroke-dasharray="5,2" points="2537.5,-605 2299.5,-605 2299.5,-522 2537.5,-522 2537.5,-605"/>
<text text-anchor="middle" x="2418.5" y="-589.8" font-family="Times New Roman,serif" font-size="14.00">friendly_name: Constant_92</text>
<text text-anchor="middle" x="2418.5" y="-574.8" font-family="Times New Roman,serif" font-size="14.00">type_name: Constant</text>
<text text-anchor="middle" x="2418.5" y="-559.8" font-family="Times New Roman,serif" font-size="14.00">{f32}[6,1,1,1]</text>
<text text-anchor="middle" x="2418.5" y="-544.8" font-family="Times New Roman,serif" font-size="14.00">value: [1.27, 1.27, 1.27, 1.27, 1.27, 1.27</text>
<text text-anchor="middle" x="2418.5" y="-529.8" font-family="Times New Roman,serif" font-size="14.00">(min: 1.27, max: 1.27)]</text>
</g>
<!-- CLONE_2&#45;&gt;FakeQuantize_138 -->
<g id="edge6" class="edge"><title>CLONE_2&#45;&gt;FakeQuantize_138</title>
<path fill="none" stroke="black" d="M2418.5,-521.893C2418.5,-505.292 2418.5,-485.475 2418.5,-466.159"/>
<polygon fill="black" stroke="black" points="2422,-466.124 2418.5,-456.124 2415,-466.124 2422,-466.124"/>
<text text-anchor="middle" x="2439.5" y="-477.8" font-family="Times New Roman,serif" font-size="14.00"> 0 &#45;&gt; 2 </text>
</g>
<!-- CLONE_3 -->
<g id="node8" class="node"><title>CLONE_3</title>
<polygon fill="none" stroke="black" stroke-dasharray="5,2" points="2821,-605 2556,-605 2556,-522 2821,-522 2821,-605"/>
<text text-anchor="middle" x="2688.5" y="-589.8" font-family="Times New Roman,serif" font-size="14.00">friendly_name: Constant_93</text>
<text text-anchor="middle" x="2688.5" y="-574.8" font-family="Times New Roman,serif" font-size="14.00">type_name: Constant</text>
<text text-anchor="middle" x="2688.5" y="-559.8" font-family="Times New Roman,serif" font-size="14.00">{f32}[6,1,1,1]</text>
<text text-anchor="middle" x="2688.5" y="-544.8" font-family="Times New Roman,serif" font-size="14.00">value: [&#45;1.27, &#45;1.27, &#45;1.27, &#45;1.27, &#45;1.27, &#45;1.27</text>
<text text-anchor="middle" x="2688.5" y="-529.8" font-family="Times New Roman,serif" font-size="14.00">(min: &#45;1.27, max: &#45;1.27)]</text>
</g>
<!-- CLONE_3&#45;&gt;FakeQuantize_138 -->
<g id="edge7" class="edge"><title>CLONE_3&#45;&gt;FakeQuantize_138</title>
<path fill="none" stroke="black" d="M2626.56,-521.893C2599.26,-503.998 2566.26,-482.364 2534.66,-461.651"/>
<polygon fill="black" stroke="black" points="2536.51,-458.679 2526.23,-456.124 2532.68,-464.533 2536.51,-458.679"/>
<text text-anchor="middle" x="2590.5" y="-477.8" font-family="Times New Roman,serif" font-size="14.00"> 0 &#45;&gt; 3 </text>
</g>
<!-- CLONE_4 -->
<g id="node9" class="node"><title>CLONE_4</title>
<polygon fill="none" stroke="black" stroke-dasharray="5,2" points="3077.5,-605 2839.5,-605 2839.5,-522 3077.5,-522 3077.5,-605"/>
<text text-anchor="middle" x="2958.5" y="-589.8" font-family="Times New Roman,serif" font-size="14.00">friendly_name: Constant_94</text>
<text text-anchor="middle" x="2958.5" y="-574.8" font-family="Times New Roman,serif" font-size="14.00">type_name: Constant</text>
<text text-anchor="middle" x="2958.5" y="-559.8" font-family="Times New Roman,serif" font-size="14.00">{f32}[6,1,1,1]</text>
<text text-anchor="middle" x="2958.5" y="-544.8" font-family="Times New Roman,serif" font-size="14.00">value: [1.27, 1.27, 1.27, 1.27, 1.27, 1.27</text>
<text text-anchor="middle" x="2958.5" y="-529.8" font-family="Times New Roman,serif" font-size="14.00">(min: 1.27, max: 1.27)]</text>
</g>
<!-- CLONE_4&#45;&gt;FakeQuantize_138 -->
<g id="edge8" class="edge"><title>CLONE_4&#45;&gt;FakeQuantize_138</title>
<path fill="none" stroke="black" d="M2868.85,-521.985C2856.07,-516.695 2843.02,-511.542 2830.5,-507 2737.03,-473.098 2629.17,-441.552 2547.25,-419.104"/>
<polygon fill="black" stroke="black" points="2547.97,-415.67 2537.4,-416.412 2546.12,-422.423 2547.97,-415.67"/>
<text text-anchor="middle" x="2795.5" y="-477.8" font-family="Times New Roman,serif" font-size="14.00"> 0 &#45;&gt; 4 </text>
</g>
<!-- MaxPool_87 -->
<g id="node10" class="node"><title>MaxPool_87</title>
<polygon fill="none" stroke="black" points="1640.5,-620 894.5,-620 894.5,-507 1640.5,-507 1640.5,-620"/>
<text text-anchor="middle" x="1267.5" y="-604.8" font-family="Times New Roman,serif" font-size="14.00">friendly_name: maxPool2</text>
<text text-anchor="middle" x="1267.5" y="-589.8" font-family="Times New Roman,serif" font-size="14.00">name: MaxPool_87</text>
<text text-anchor="middle" x="1267.5" y="-574.8" font-family="Times New Roman,serif" font-size="14.00">type_name: MaxPool</text>
<text text-anchor="middle" x="1267.5" y="-559.8" font-family="Times New Roman,serif" font-size="14.00">rt info: &#160;AVG_POOL_PRECISION_PRESERVED(2635392935936: shared: 2635393965744, value: true, operation: FakeQuantize)</text>
<text text-anchor="middle" x="1267.5" y="-544.8" font-family="Times New Roman,serif" font-size="14.00">PRECISION_PRESERVED(2635393844136: shared: 2635393971504,value: true)</text>
<text text-anchor="middle" x="1267.5" y="-529.8" font-family="Times New Roman,serif" font-size="14.00">in0: {f32}[1,3,9,9]: AvgPool_137: out0</text>
<text text-anchor="middle" x="1267.5" y="-514.8" font-family="Times New Roman,serif" font-size="14.00">out0: {f32}[1,3,9,9]</text>
</g>
<!-- MaxPool_87&#45;&gt;MaxPool_89 -->
<g id="edge9" class="edge"><title>MaxPool_87&#45;&gt;MaxPool_89</title>
<path fill="none" stroke="black" d="M1468.56,-506.982C1550.59,-484.331 1644.8,-458.316 1724.94,-436.187"/>
<polygon fill="black" stroke="black" points="1725.93,-439.543 1734.64,-433.508 1724.07,-432.796 1725.93,-439.543"/>
<text text-anchor="middle" x="1609.5" y="-477.8" font-family="Times New Roman,serif" font-size="14.00"> 0 &#45;&gt; 0 </text>
</g>
<!-- MaxPool_88 -->
<g id="node21" class="node"><title>MaxPool_88</title>
<polygon fill="none" stroke="black" points="1517.5,-433.5 771.5,-433.5 771.5,-335.5 1517.5,-335.5 1517.5,-433.5"/>
<text text-anchor="middle" x="1144.5" y="-418.3" font-family="Times New Roman,serif" font-size="14.00">friendly_name: MaxPool_88</text>
<text text-anchor="middle" x="1144.5" y="-403.3" font-family="Times New Roman,serif" font-size="14.00">type_name: MaxPool</text>
<text text-anchor="middle" x="1144.5" y="-388.3" font-family="Times New Roman,serif" font-size="14.00">rt info: &#160;AVG_POOL_PRECISION_PRESERVED(2635392935936: shared: 2635393965744, value: true, operation: FakeQuantize)</text>
<text text-anchor="middle" x="1144.5" y="-373.3" font-family="Times New Roman,serif" font-size="14.00">PRECISION_PRESERVED(2635393854440: shared: 2635393969840,value: true)</text>
<text text-anchor="middle" x="1144.5" y="-358.3" font-family="Times New Roman,serif" font-size="14.00">in0: {f32}[1,3,9,9]: MaxPool_87: out0</text>
<text text-anchor="middle" x="1144.5" y="-343.3" font-family="Times New Roman,serif" font-size="14.00">out0: {f32}[1,3,9,9]</text>
</g>
<!-- MaxPool_87&#45;&gt;MaxPool_88 -->
<g id="edge24" class="edge"><title>MaxPool_87&#45;&gt;MaxPool_88</title>
<path fill="none" stroke="black" d="M1228.92,-506.982C1214.55,-486.309 1198.24,-462.835 1183.81,-442.069"/>
<polygon fill="black" stroke="black" points="1186.54,-439.869 1177.96,-433.654 1180.8,-443.863 1186.54,-439.869"/>
<text text-anchor="middle" x="1234.5" y="-477.8" font-family="Times New Roman,serif" font-size="14.00"> 0 &#45;&gt; 0 </text>
</g>
<!-- AvgPool_137 -->
<g id="node11" class="node"><title>AvgPool_137</title>
<polygon fill="none" stroke="black" points="1640.5,-784 894.5,-784 894.5,-671 1640.5,-671 1640.5,-784"/>
<text text-anchor="middle" x="1267.5" y="-768.8" font-family="Times New Roman,serif" font-size="14.00">friendly_name: avgPool</text>
<text text-anchor="middle" x="1267.5" y="-753.8" font-family="Times New Roman,serif" font-size="14.00">name: AvgPool_137</text>
<text text-anchor="middle" x="1267.5" y="-738.8" font-family="Times New Roman,serif" font-size="14.00">type_name: AvgPool</text>
<text text-anchor="middle" x="1267.5" y="-723.8" font-family="Times New Roman,serif" font-size="14.00">rt info: &#160;AVG_POOL_PRECISION_PRESERVED(2635392935936: shared: 2635393965744, value: true, operation: FakeQuantize)</text>
<text text-anchor="middle" x="1267.5" y="-708.8" font-family="Times New Roman,serif" font-size="14.00">PRECISION_PRESERVED(2635393854888: shared: 2635393965744,value: true, operation: FakeQuantize)</text>
<text text-anchor="middle" x="1267.5" y="-693.8" font-family="Times New Roman,serif" font-size="14.00">in0: {f32}[1,3,9,9]: MaxPool_85: out0</text>
<text text-anchor="middle" x="1267.5" y="-678.8" font-family="Times New Roman,serif" font-size="14.00">out0: {f32}[1,3,9,9]</text>
</g>
<!-- AvgPool_137&#45;&gt;MaxPool_87 -->
<g id="edge10" class="edge"><title>AvgPool_137&#45;&gt;MaxPool_87</title>
<path fill="none" stroke="black" d="M1267.5,-670.749C1267.5,-657.694 1267.5,-643.666 1267.5,-630.221"/>
<polygon fill="black" stroke="black" points="1271,-630.079 1267.5,-620.079 1264,-630.079 1271,-630.079"/>
<text text-anchor="middle" x="1288.5" y="-641.8" font-family="Times New Roman,serif" font-size="14.00"> 0 &#45;&gt; 0 </text>
</g>
<!-- MaxPool_85 -->
<g id="node12" class="node"><title>MaxPool_85</title>
<polygon fill="none" stroke="black" points="1526,-933 1009,-933 1009,-835 1526,-835 1526,-933"/>
<text text-anchor="middle" x="1267.5" y="-917.8" font-family="Times New Roman,serif" font-size="14.00">friendly_name: maxPool1</text>
<text text-anchor="middle" x="1267.5" y="-902.8" font-family="Times New Roman,serif" font-size="14.00">name: MaxPool_85</text>
<text text-anchor="middle" x="1267.5" y="-887.8" font-family="Times New Roman,serif" font-size="14.00">type_name: MaxPool</text>
<text text-anchor="middle" x="1267.5" y="-872.8" font-family="Times New Roman,serif" font-size="14.00">rt info: &#160;PRECISION_PRESERVED(2635393844024: shared: 2635393968048,value: true)</text>
<text text-anchor="middle" x="1267.5" y="-857.8" font-family="Times New Roman,serif" font-size="14.00">in0: {f32}[1,3,9,9]: FakeQuantize_136: out0</text>
<text text-anchor="middle" x="1267.5" y="-842.8" font-family="Times New Roman,serif" font-size="14.00">out0: {f32}[1,3,9,9]</text>
</g>
<!-- MaxPool_85&#45;&gt;AvgPool_137 -->
<g id="edge11" class="edge"><title>MaxPool_85&#45;&gt;AvgPool_137</title>
<path fill="none" stroke="black" d="M1267.5,-834.962C1267.5,-822.115 1267.5,-808.004 1267.5,-794.375"/>
<polygon fill="black" stroke="black" points="1271,-794.077 1267.5,-784.077 1264,-794.077 1271,-794.077"/>
<text text-anchor="middle" x="1288.5" y="-805.8" font-family="Times New Roman,serif" font-size="14.00"> 0 &#45;&gt; 0 </text>
</g>
<!-- FakeQuantize_136 -->
<g id="node13" class="node"><title>FakeQuantize_136</title>
<polygon fill="none" stroke="black" points="1394.5,-1127 1140.5,-1127 1140.5,-984 1394.5,-984 1394.5,-1127"/>
<text text-anchor="middle" x="1267.5" y="-1111.8" font-family="Times New Roman,serif" font-size="14.00">friendly_name: fakeQuantizeOnActivations</text>
<text text-anchor="middle" x="1267.5" y="-1096.8" font-family="Times New Roman,serif" font-size="14.00">name: FakeQuantize_136</text>
<text text-anchor="middle" x="1267.5" y="-1081.8" font-family="Times New Roman,serif" font-size="14.00">type_name: FakeQuantize</text>
<text text-anchor="middle" x="1267.5" y="-1066.8" font-family="Times New Roman,serif" font-size="14.00">in0: {f32}[1,3,9,9]: Parameter_79: out0</text>
<text text-anchor="middle" x="1267.5" y="-1051.8" font-family="Times New Roman,serif" font-size="14.00">in1: {f32}[]: Constant_80: out0</text>
<text text-anchor="middle" x="1267.5" y="-1036.8" font-family="Times New Roman,serif" font-size="14.00">in2: {f32}[]: Constant_81: out0</text>
<text text-anchor="middle" x="1267.5" y="-1021.8" font-family="Times New Roman,serif" font-size="14.00">in3: {f32}[]: Constant_82: out0</text>
<text text-anchor="middle" x="1267.5" y="-1006.8" font-family="Times New Roman,serif" font-size="14.00">in4: {f32}[]: Constant_83: out0</text>
<text text-anchor="middle" x="1267.5" y="-991.8" font-family="Times New Roman,serif" font-size="14.00">out0: {f32}[1,3,9,9]</text>
</g>
<!-- FakeQuantize_136&#45;&gt;MaxPool_85 -->
<g id="edge12" class="edge"><title>FakeQuantize_136&#45;&gt;MaxPool_85</title>
<path fill="none" stroke="black" d="M1267.5,-983.599C1267.5,-970.213 1267.5,-956.353 1267.5,-943.405"/>
<polygon fill="black" stroke="black" points="1271,-943.242 1267.5,-933.242 1264,-943.242 1271,-943.242"/>
<text text-anchor="middle" x="1288.5" y="-954.8" font-family="Times New Roman,serif" font-size="14.00"> 0 &#45;&gt; 0 </text>
</g>
<!-- CLONE_5 -->
<g id="node14" class="node"><title>CLONE_5</title>
<polygon fill="none" stroke="blue" stroke-dasharray="5,2" points="972,-1246 793,-1246 793,-1193 972,-1193 972,-1246"/>
<text text-anchor="middle" x="882.5" y="-1230.8" font-family="Times New Roman,serif" font-size="14.00">friendly_name: Parameter_79</text>
<text text-anchor="middle" x="882.5" y="-1215.8" font-family="Times New Roman,serif" font-size="14.00">type_name: Parameter</text>
<text text-anchor="middle" x="882.5" y="-1200.8" font-family="Times New Roman,serif" font-size="14.00">{f32}[1,3,9,9]</text>
</g>
<!-- CLONE_5&#45;&gt;FakeQuantize_136 -->
<g id="edge13" class="edge"><title>CLONE_5&#45;&gt;FakeQuantize_136</title>
<path fill="none" stroke="black" d="M943.504,-1192.83C993.724,-1171.7 1066.82,-1140.94 1130.87,-1113.99"/>
<polygon fill="black" stroke="black" points="1132.39,-1117.15 1140.25,-1110.04 1129.68,-1110.7 1132.39,-1117.15"/>
<text text-anchor="middle" x="1073.5" y="-1148.8" font-family="Times New Roman,serif" font-size="14.00"> 0 &#45;&gt; 0 </text>
</g>
<!-- CLONE_6 -->
<g id="node15" class="node"><title>CLONE_6</title>
<polygon fill="none" stroke="black" stroke-dasharray="5,2" points="1163,-1261 990,-1261 990,-1178 1163,-1178 1163,-1261"/>
<text text-anchor="middle" x="1076.5" y="-1245.8" font-family="Times New Roman,serif" font-size="14.00">friendly_name: Constant_80</text>
<text text-anchor="middle" x="1076.5" y="-1230.8" font-family="Times New Roman,serif" font-size="14.00">type_name: Constant</text>
<text text-anchor="middle" x="1076.5" y="-1215.8" font-family="Times New Roman,serif" font-size="14.00">{f32}[]</text>
<text text-anchor="middle" x="1076.5" y="-1200.8" font-family="Times New Roman,serif" font-size="14.00">value: [&#45;1.28</text>
<text text-anchor="middle" x="1076.5" y="-1185.8" font-family="Times New Roman,serif" font-size="14.00">(min: &#45;1.28, max: &#45;1.28)]</text>
</g>
<!-- CLONE_6&#45;&gt;FakeQuantize_136 -->
<g id="edge14" class="edge"><title>CLONE_6&#45;&gt;FakeQuantize_136</title>
<path fill="none" stroke="black" d="M1124.7,-1177.62C1140.46,-1164.25 1158.52,-1148.93 1176.38,-1133.79"/>
<polygon fill="black" stroke="black" points="1178.65,-1136.45 1184.01,-1127.31 1174.12,-1131.11 1178.65,-1136.45"/>
<text text-anchor="middle" x="1182.5" y="-1148.8" font-family="Times New Roman,serif" font-size="14.00"> 0 &#45;&gt; 1 </text>
</g>
<!-- CLONE_7 -->
<g id="node16" class="node"><title>CLONE_7</title>
<polygon fill="none" stroke="black" stroke-dasharray="5,2" points="1354,-1261 1181,-1261 1181,-1178 1354,-1178 1354,-1261"/>
<text text-anchor="middle" x="1267.5" y="-1245.8" font-family="Times New Roman,serif" font-size="14.00">friendly_name: Constant_81</text>
<text text-anchor="middle" x="1267.5" y="-1230.8" font-family="Times New Roman,serif" font-size="14.00">type_name: Constant</text>
<text text-anchor="middle" x="1267.5" y="-1215.8" font-family="Times New Roman,serif" font-size="14.00">{f32}[]</text>
<text text-anchor="middle" x="1267.5" y="-1200.8" font-family="Times New Roman,serif" font-size="14.00">value: [1.27</text>
<text text-anchor="middle" x="1267.5" y="-1185.8" font-family="Times New Roman,serif" font-size="14.00">(min: 1.27, max: 1.27)]</text>
</g>
<!-- CLONE_7&#45;&gt;FakeQuantize_136 -->
<g id="edge15" class="edge"><title>CLONE_7&#45;&gt;FakeQuantize_136</title>
<path fill="none" stroke="black" d="M1267.5,-1177.62C1267.5,-1165.33 1267.5,-1151.38 1267.5,-1137.44"/>
<polygon fill="black" stroke="black" points="1271,-1137.31 1267.5,-1127.31 1264,-1137.31 1271,-1137.31"/>
<text text-anchor="middle" x="1288.5" y="-1148.8" font-family="Times New Roman,serif" font-size="14.00"> 0 &#45;&gt; 2 </text>
</g>
<!-- CLONE_8 -->
<g id="node17" class="node"><title>CLONE_8</title>
<polygon fill="none" stroke="black" stroke-dasharray="5,2" points="1545,-1261 1372,-1261 1372,-1178 1545,-1178 1545,-1261"/>
<text text-anchor="middle" x="1458.5" y="-1245.8" font-family="Times New Roman,serif" font-size="14.00">friendly_name: Constant_82</text>
<text text-anchor="middle" x="1458.5" y="-1230.8" font-family="Times New Roman,serif" font-size="14.00">type_name: Constant</text>
<text text-anchor="middle" x="1458.5" y="-1215.8" font-family="Times New Roman,serif" font-size="14.00">{f32}[]</text>
<text text-anchor="middle" x="1458.5" y="-1200.8" font-family="Times New Roman,serif" font-size="14.00">value: [&#45;1.28</text>
<text text-anchor="middle" x="1458.5" y="-1185.8" font-family="Times New Roman,serif" font-size="14.00">(min: &#45;1.28, max: &#45;1.28)]</text>
</g>
<!-- CLONE_8&#45;&gt;FakeQuantize_136 -->
<g id="edge16" class="edge"><title>CLONE_8&#45;&gt;FakeQuantize_136</title>
<path fill="none" stroke="black" d="M1410.3,-1177.62C1394.54,-1164.25 1376.48,-1148.93 1358.62,-1133.79"/>
<polygon fill="black" stroke="black" points="1360.88,-1131.11 1350.99,-1127.31 1356.35,-1136.45 1360.88,-1131.11"/>
<text text-anchor="middle" x="1407.5" y="-1148.8" font-family="Times New Roman,serif" font-size="14.00"> 0 &#45;&gt; 3 </text>
</g>
<!-- CLONE_9 -->
<g id="node18" class="node"><title>CLONE_9</title>
<polygon fill="none" stroke="black" stroke-dasharray="5,2" points="1736,-1261 1563,-1261 1563,-1178 1736,-1178 1736,-1261"/>
<text text-anchor="middle" x="1649.5" y="-1245.8" font-family="Times New Roman,serif" font-size="14.00">friendly_name: Constant_83</text>
<text text-anchor="middle" x="1649.5" y="-1230.8" font-family="Times New Roman,serif" font-size="14.00">type_name: Constant</text>
<text text-anchor="middle" x="1649.5" y="-1215.8" font-family="Times New Roman,serif" font-size="14.00">{f32}[]</text>
<text text-anchor="middle" x="1649.5" y="-1200.8" font-family="Times New Roman,serif" font-size="14.00">value: [1.27</text>
<text text-anchor="middle" x="1649.5" y="-1185.8" font-family="Times New Roman,serif" font-size="14.00">(min: 1.27, max: 1.27)]</text>
</g>
<!-- CLONE_9&#45;&gt;FakeQuantize_136 -->
<g id="edge17" class="edge"><title>CLONE_9&#45;&gt;FakeQuantize_136</title>
<path fill="none" stroke="black" d="M1562.82,-1181.74C1515.99,-1161.88 1457.1,-1136.9 1404.24,-1114.49"/>
<polygon fill="black" stroke="black" points="1405.37,-1111.17 1394.79,-1110.48 1402.63,-1117.61 1405.37,-1111.17"/>
<text text-anchor="middle" x="1525.5" y="-1148.8" font-family="Times New Roman,serif" font-size="14.00"> 0 &#45;&gt; 4 </text>
</g>
<!-- FakeQuantize_140 -->
<g id="node19" class="node"><title>FakeQuantize_140</title>
<polygon fill="none" stroke="black" points="583,-262 354,-262 354,-119 583,-119 583,-262"/>
<text text-anchor="middle" x="468.5" y="-246.8" font-family="Times New Roman,serif" font-size="14.00">friendly_name: fakeQuantize1</text>
<text text-anchor="middle" x="468.5" y="-231.8" font-family="Times New Roman,serif" font-size="14.00">name: FakeQuantize_140</text>
<text text-anchor="middle" x="468.5" y="-216.8" font-family="Times New Roman,serif" font-size="14.00">type_name: FakeQuantize</text>
<text text-anchor="middle" x="468.5" y="-201.8" font-family="Times New Roman,serif" font-size="14.00">in0: {f32}[1,3,9,9]: MaxPool_88: out0</text>
<text text-anchor="middle" x="468.5" y="-186.8" font-family="Times New Roman,serif" font-size="14.00">in1: {f32}[]: Constant_97: out0</text>
<text text-anchor="middle" x="468.5" y="-171.8" font-family="Times New Roman,serif" font-size="14.00">in2: {f32}[]: Constant_98: out0</text>
<text text-anchor="middle" x="468.5" y="-156.8" font-family="Times New Roman,serif" font-size="14.00">in3: {f32}[]: Constant_99: out0</text>
<text text-anchor="middle" x="468.5" y="-141.8" font-family="Times New Roman,serif" font-size="14.00">in4: {f32}[]: Constant_100: out0</text>
<text text-anchor="middle" x="468.5" y="-126.8" font-family="Times New Roman,serif" font-size="14.00">out0: {f32}[1,3,9,9]</text>
</g>
<!-- Result_102 -->
<g id="node20" class="node"><title>Result_102</title>
<polygon fill="none" stroke="crimson" stroke-width="1.5" points="598.5,-68 338.5,-68 338.5,-0 598.5,-0 598.5,-68"/>
<text text-anchor="middle" x="468.5" y="-52.8" font-family="Times New Roman,serif" font-size="14.00">friendly_name: Result_102</text>
<text text-anchor="middle" x="468.5" y="-37.8" font-family="Times New Roman,serif" font-size="14.00">type_name: Result</text>
<text text-anchor="middle" x="468.5" y="-22.8" font-family="Times New Roman,serif" font-size="14.00">in0: {f32}[1,3,9,9]: FakeQuantize_140: out0</text>
<text text-anchor="middle" x="468.5" y="-7.8" font-family="Times New Roman,serif" font-size="14.00">out0: {f32}[1,3,9,9]</text>
</g>
<!-- FakeQuantize_140&#45;&gt;Result_102 -->
<g id="edge18" class="edge"><title>FakeQuantize_140&#45;&gt;Result_102</title>
<path fill="none" stroke="black" d="M468.5,-118.581C468.5,-104.822 468.5,-90.7944 468.5,-78.2583"/>
<polygon fill="black" stroke="black" points="472,-78.1174 468.5,-68.1175 465,-78.1175 472,-78.1174"/>
<text text-anchor="middle" x="489.5" y="-89.8" font-family="Times New Roman,serif" font-size="14.00"> 0 &#45;&gt; 0 </text>
</g>
<!-- MaxPool_88&#45;&gt;FakeQuantize_140 -->
<g id="edge19" class="edge"><title>MaxPool_88&#45;&gt;FakeQuantize_140</title>
<path fill="none" stroke="black" d="M975.225,-335.422C856.521,-301.707 700.476,-257.387 593.079,-226.883"/>
<polygon fill="black" stroke="black" points="593.742,-223.433 583.166,-224.068 591.829,-230.167 593.742,-223.433"/>
<text text-anchor="middle" x="848.5" y="-283.8" font-family="Times New Roman,serif" font-size="14.00"> 0 &#45;&gt; 0 </text>
</g>
<!-- CLONE_10 -->
<g id="node22" class="node"><title>CLONE_10</title>
<polygon fill="none" stroke="black" stroke-dasharray="5,2" points="173,-426 0,-426 0,-343 173,-343 173,-426"/>
<text text-anchor="middle" x="86.5" y="-410.8" font-family="Times New Roman,serif" font-size="14.00">friendly_name: Constant_97</text>
<text text-anchor="middle" x="86.5" y="-395.8" font-family="Times New Roman,serif" font-size="14.00">type_name: Constant</text>
<text text-anchor="middle" x="86.5" y="-380.8" font-family="Times New Roman,serif" font-size="14.00">{f32}[]</text>
<text text-anchor="middle" x="86.5" y="-365.8" font-family="Times New Roman,serif" font-size="14.00">value: [&#45;1.28</text>
<text text-anchor="middle" x="86.5" y="-350.8" font-family="Times New Roman,serif" font-size="14.00">(min: &#45;1.28, max: &#45;1.28)]</text>
</g>
<!-- CLONE_10&#45;&gt;FakeQuantize_140 -->
<g id="edge20" class="edge"><title>CLONE_10&#45;&gt;FakeQuantize_140</title>
<path fill="none" stroke="black" d="M136.75,-342.755C150.781,-332.35 166.345,-321.666 181.5,-313 232.793,-283.669 292.55,-257.253 344.216,-236.602"/>
<polygon fill="black" stroke="black" points="345.76,-239.755 353.765,-232.814 343.179,-233.248 345.76,-239.755"/>
<text text-anchor="middle" x="263.5" y="-283.8" font-family="Times New Roman,serif" font-size="14.00"> 0 &#45;&gt; 1 </text>
</g>
<!-- CLONE_11 -->
<g id="node23" class="node"><title>CLONE_11</title>
<polygon fill="none" stroke="black" stroke-dasharray="5,2" points="364,-426 191,-426 191,-343 364,-343 364,-426"/>
<text text-anchor="middle" x="277.5" y="-410.8" font-family="Times New Roman,serif" font-size="14.00">friendly_name: Constant_98</text>
<text text-anchor="middle" x="277.5" y="-395.8" font-family="Times New Roman,serif" font-size="14.00">type_name: Constant</text>
<text text-anchor="middle" x="277.5" y="-380.8" font-family="Times New Roman,serif" font-size="14.00">{f32}[]</text>
<text text-anchor="middle" x="277.5" y="-365.8" font-family="Times New Roman,serif" font-size="14.00">value: [1.27</text>
<text text-anchor="middle" x="277.5" y="-350.8" font-family="Times New Roman,serif" font-size="14.00">(min: 1.27, max: 1.27)]</text>
</g>
<!-- CLONE_11&#45;&gt;FakeQuantize_140 -->
<g id="edge21" class="edge"><title>CLONE_11&#45;&gt;FakeQuantize_140</title>
<path fill="none" stroke="black" d="M318.006,-342.782C339.235,-321.442 365.964,-294.573 390.984,-269.422"/>
<polygon fill="black" stroke="black" points="393.765,-271.589 398.336,-262.031 388.802,-266.652 393.765,-271.589"/>
<text text-anchor="middle" x="400.5" y="-283.8" font-family="Times New Roman,serif" font-size="14.00"> 0 &#45;&gt; 2 </text>
</g>
<!-- CLONE_12 -->
<g id="node24" class="node"><title>CLONE_12</title>
<polygon fill="none" stroke="black" stroke-dasharray="5,2" points="555,-426 382,-426 382,-343 555,-343 555,-426"/>
<text text-anchor="middle" x="468.5" y="-410.8" font-family="Times New Roman,serif" font-size="14.00">friendly_name: Constant_99</text>
<text text-anchor="middle" x="468.5" y="-395.8" font-family="Times New Roman,serif" font-size="14.00">type_name: Constant</text>
<text text-anchor="middle" x="468.5" y="-380.8" font-family="Times New Roman,serif" font-size="14.00">{f32}[]</text>
<text text-anchor="middle" x="468.5" y="-365.8" font-family="Times New Roman,serif" font-size="14.00">value: [&#45;1.28</text>
<text text-anchor="middle" x="468.5" y="-350.8" font-family="Times New Roman,serif" font-size="14.00">(min: &#45;1.28, max: &#45;1.28)]</text>
</g>
<!-- CLONE_12&#45;&gt;FakeQuantize_140 -->
<g id="edge22" class="edge"><title>CLONE_12&#45;&gt;FakeQuantize_140</title>
<path fill="none" stroke="black" d="M468.5,-342.782C468.5,-322.266 468.5,-296.641 468.5,-272.344"/>
<polygon fill="black" stroke="black" points="472,-272.031 468.5,-262.031 465,-272.031 472,-272.031"/>
<text text-anchor="middle" x="489.5" y="-283.8" font-family="Times New Roman,serif" font-size="14.00"> 0 &#45;&gt; 3 </text>
</g>
<!-- CLONE_13 -->
<g id="node25" class="node"><title>CLONE_13</title>
<polygon fill="none" stroke="black" stroke-dasharray="5,2" points="753.5,-426 573.5,-426 573.5,-343 753.5,-343 753.5,-426"/>
<text text-anchor="middle" x="663.5" y="-410.8" font-family="Times New Roman,serif" font-size="14.00">friendly_name: Constant_100</text>
<text text-anchor="middle" x="663.5" y="-395.8" font-family="Times New Roman,serif" font-size="14.00">type_name: Constant</text>
<text text-anchor="middle" x="663.5" y="-380.8" font-family="Times New Roman,serif" font-size="14.00">{f32}[]</text>
<text text-anchor="middle" x="663.5" y="-365.8" font-family="Times New Roman,serif" font-size="14.00">value: [1.27</text>
<text text-anchor="middle" x="663.5" y="-350.8" font-family="Times New Roman,serif" font-size="14.00">(min: 1.27, max: 1.27)]</text>
</g>
<!-- CLONE_13&#45;&gt;FakeQuantize_140 -->
<g id="edge23" class="edge"><title>CLONE_13&#45;&gt;FakeQuantize_140</title>
<path fill="none" stroke="black" d="M622.146,-342.782C600.379,-321.35 572.949,-294.342 547.311,-269.098"/>
<polygon fill="black" stroke="black" points="549.714,-266.553 540.133,-262.031 544.803,-271.541 549.714,-266.553"/>
<text text-anchor="middle" x="593.5" y="-283.8" font-family="Times New Roman,serif" font-size="14.00"> 0 &#45;&gt; 4 </text>
</g>
</g>
</svg>
