<?xml version="1.0" encoding="UTF-8" standalone="no"?>
<!DOCTYPE svg PUBLIC "-//W3C//DTD SVG 1.1//EN"
 "http://www.w3.org/Graphics/SVG/1.1/DTD/svg11.dtd">
<!-- Generated by graphviz version 2.38.0 (20140413.2041)
 -->
<!-- Title: ngraph Pages: 1 -->
<svg width="2014pt" height="1747pt"
 viewBox="0.00 0.00 2014.00 1747.00" xmlns="http://www.w3.org/2000/svg" xmlns:xlink="http://www.w3.org/1999/xlink">
<g id="graph0" class="graph" transform="scale(1 1) rotate(0) translate(4 1743)">
<title>ngraph</title>
<polygon fill="white" stroke="none" points="-4,4 -4,-1743 2010,-1743 2010,4 -4,4"/>
<!-- Multiply_226 -->
<g id="node1" class="node"><title>Multiply_226</title>
<polygon fill="none" stroke="black" points="1880,-232 1626,-232 1626,-119 1880,-119 1880,-232"/>
<text text-anchor="middle" x="1753" y="-216.8" font-family="Times New Roman,serif" font-size="14.00">friendly_name: output</text>
<text text-anchor="middle" x="1753" y="-201.8" font-family="Times New Roman,serif" font-size="14.00">name: Multiply_226</text>
<text text-anchor="middle" x="1753" y="-186.8" font-family="Times New Roman,serif" font-size="14.00">type_name: Multiply</text>
<text text-anchor="middle" x="1753" y="-171.8" font-family="Times New Roman,serif" font-size="14.00">rt info: &#160;DEQUANTIZATION</text>
<text text-anchor="middle" x="1753" y="-156.8" font-family="Times New Roman,serif" font-size="14.00">in0: {f32}[1,6,9,9]: Convolution_223: out0</text>
<text text-anchor="middle" x="1753" y="-141.8" font-family="Times New Roman,serif" font-size="14.00">in1: {f32}[1,6,1,1]: Constant_229: out0</text>
<text text-anchor="middle" x="1753" y="-126.8" font-family="Times New Roman,serif" font-size="14.00">out0: {f32}[1,6,9,9]</text>
</g>
<!-- Result_103 -->
<g id="node2" class="node"><title>Result_103</title>
<polygon fill="none" stroke="crimson" stroke-width="1.5" points="1868,-68 1638,-68 1638,-0 1868,-0 1868,-68"/>
<text text-anchor="middle" x="1753" y="-52.8" font-family="Times New Roman,serif" font-size="14.00">friendly_name: Result_103</text>
<text text-anchor="middle" x="1753" y="-37.8" font-family="Times New Roman,serif" font-size="14.00">type_name: Result</text>
<text text-anchor="middle" x="1753" y="-22.8" font-family="Times New Roman,serif" font-size="14.00">in0: {f32}[1,6,9,9]: Multiply_226: out0</text>
<text text-anchor="middle" x="1753" y="-7.8" font-family="Times New Roman,serif" font-size="14.00">out0: {f32}[1,6,9,9]</text>
</g>
<!-- Multiply_226&#45;&gt;Result_103 -->
<g id="edge1" class="edge"><title>Multiply_226&#45;&gt;Result_103</title>
<path fill="none" stroke="black" d="M1753,-118.965C1753,-105.55 1753,-91.4018 1753,-78.6218"/>
<polygon fill="black" stroke="black" points="1756.5,-78.2544 1753,-68.2545 1749.5,-78.2545 1756.5,-78.2544"/>
<text text-anchor="middle" x="1774" y="-89.8" font-family="Times New Roman,serif" font-size="14.00"> 0 &#45;&gt; 0 </text>
</g>
<!-- Convolution_223 -->
<g id="node3" class="node"><title>Convolution_223</title>
<polygon fill="none" stroke="black" points="1649,-381 1417,-381 1417,-283 1649,-283 1649,-381"/>
<text text-anchor="middle" x="1533" y="-365.8" font-family="Times New Roman,serif" font-size="14.00">friendly_name: output_original</text>
<text text-anchor="middle" x="1533" y="-350.8" font-family="Times New Roman,serif" font-size="14.00">name: Convolution_223</text>
<text text-anchor="middle" x="1533" y="-335.8" font-family="Times New Roman,serif" font-size="14.00">type_name: Convolution</text>
<text text-anchor="middle" x="1533" y="-320.8" font-family="Times New Roman,serif" font-size="14.00">in0: {f32}[1,3,9,9]: Subtract_197: out0</text>
<text text-anchor="middle" x="1533" y="-305.8" font-family="Times New Roman,serif" font-size="14.00">in1: {i8}[6,3,1,1]: Constant_211: out0</text>
<text text-anchor="middle" x="1533" y="-290.8" font-family="Times New Roman,serif" font-size="14.00">out0: {f32}[1,6,9,9]</text>
</g>
<!-- Convolution_223&#45;&gt;Multiply_226 -->
<g id="edge2" class="edge"><title>Convolution_223&#45;&gt;Multiply_226</title>
<path fill="none" stroke="black" d="M1601.4,-282.962C1621.67,-268.73 1644.15,-252.945 1665.45,-237.985"/>
<polygon fill="black" stroke="black" points="1667.69,-240.688 1673.86,-232.077 1663.67,-234.96 1667.69,-240.688"/>
<text text-anchor="middle" x="1664" y="-253.8" font-family="Times New Roman,serif" font-size="14.00"> 0 &#45;&gt; 0 </text>
</g>
<!-- CLONE_0 -->
<g id="node4" class="node"><title>CLONE_0</title>
<polygon fill="none" stroke="black" stroke-dasharray="5,2" points="1986.5,-373.5 1667.5,-373.5 1667.5,-290.5 1986.5,-290.5 1986.5,-373.5"/>
<text text-anchor="middle" x="1827" y="-358.3" font-family="Times New Roman,serif" font-size="14.00">friendly_name: Constant_229</text>
<text text-anchor="middle" x="1827" y="-343.3" font-family="Times New Roman,serif" font-size="14.00">type_name: Constant</text>
<text text-anchor="middle" x="1827" y="-328.3" font-family="Times New Roman,serif" font-size="14.00">{f32}[1,6,1,1]</text>
<text text-anchor="middle" x="1827" y="-313.3" font-family="Times New Roman,serif" font-size="14.00">value: [0.0001, 0.0001, 0.0001, 0.0001, 0.0001, 0.0001</text>
<text text-anchor="middle" x="1827" y="-298.3" font-family="Times New Roman,serif" font-size="14.00">(min: 0.0001, max: 0.0001)]</text>
</g>
<!-- CLONE_0&#45;&gt;Multiply_226 -->
<g id="edge3" class="edge"><title>CLONE_0&#45;&gt;Multiply_226</title>
<path fill="none" stroke="black" d="M1807.56,-290.407C1800.37,-275.395 1792.03,-257.979 1784.06,-241.35"/>
<polygon fill="black" stroke="black" points="1787.16,-239.72 1779.68,-232.213 1780.85,-242.744 1787.16,-239.72"/>
<text text-anchor="middle" x="1816" y="-253.8" font-family="Times New Roman,serif" font-size="14.00"> 0 &#45;&gt; 1 </text>
</g>
<!-- Subtract_197 -->
<g id="node5" class="node"><title>Subtract_197</title>
<polygon fill="none" stroke="black" points="1833.5,-582.5 1602.5,-582.5 1602.5,-484.5 1833.5,-484.5 1833.5,-582.5"/>
<text text-anchor="middle" x="1718" y="-567.3" font-family="Times New Roman,serif" font-size="14.00">friendly_name: Subtract_182</text>
<text text-anchor="middle" x="1718" y="-552.3" font-family="Times New Roman,serif" font-size="14.00">name: Subtract_197</text>
<text text-anchor="middle" x="1718" y="-537.3" font-family="Times New Roman,serif" font-size="14.00">type_name: Subtract</text>
<text text-anchor="middle" x="1718" y="-522.3" font-family="Times New Roman,serif" font-size="14.00">in0: {u8}[1,3,9,9]: MaxPool_180: out0</text>
<text text-anchor="middle" x="1718" y="-507.3" font-family="Times New Roman,serif" font-size="14.00">in1: {u8}[1,3,1,1]: Constant_196: out0</text>
<text text-anchor="middle" x="1718" y="-492.3" font-family="Times New Roman,serif" font-size="14.00">out0: {f32}[1,3,9,9]</text>
</g>
<!-- Subtract_197&#45;&gt;Convolution_223 -->
<g id="edge4" class="edge"><title>Subtract_197&#45;&gt;Convolution_223</title>
<path fill="none" stroke="black" d="M1673.45,-484.461C1646.74,-455.657 1612.66,-418.901 1584.75,-388.811"/>
<polygon fill="black" stroke="black" points="1587.17,-386.266 1577.8,-381.314 1582.04,-391.026 1587.17,-386.266"/>
<text text-anchor="middle" x="1625" y="-402.8" font-family="Times New Roman,serif" font-size="14.00"> 0 &#45;&gt; 0 </text>
</g>
<!-- CLONE_1 -->
<g id="node6" class="node"><title>CLONE_1</title>
<polygon fill="none" stroke="black" stroke-dasharray="5,2" points="1584.5,-590 1313.5,-590 1313.5,-477 1584.5,-477 1584.5,-590"/>
<text text-anchor="middle" x="1449" y="-574.8" font-family="Times New Roman,serif" font-size="14.00">friendly_name: Constant_211</text>
<text text-anchor="middle" x="1449" y="-559.8" font-family="Times New Roman,serif" font-size="14.00">type_name: Constant</text>
<text text-anchor="middle" x="1449" y="-544.8" font-family="Times New Roman,serif" font-size="14.00">{i8}[6,3,1,1]</text>
<text text-anchor="middle" x="1449" y="-529.8" font-family="Times New Roman,serif" font-size="14.00">value: [127, 127, 127, 127, 127, 127, 127, 127</text>
<text text-anchor="middle" x="1449" y="-514.8" font-family="Times New Roman,serif" font-size="14.00">, 127, 127, 127, 127, 127, 127, 127, 127</text>
<text text-anchor="middle" x="1449" y="-499.8" font-family="Times New Roman,serif" font-size="14.00">, 127, 127</text>
<text text-anchor="middle" x="1449" y="-484.8" font-family="Times New Roman,serif" font-size="14.00">(min: 127, max: 127)]</text>
</g>
<!-- CLONE_1&#45;&gt;Convolution_223 -->
<g id="edge5" class="edge"><title>CLONE_1&#45;&gt;Convolution_223</title>
<path fill="none" stroke="black" d="M1472.4,-476.928C1483.73,-450.01 1497.33,-417.713 1508.77,-390.541"/>
<polygon fill="black" stroke="black" points="1512.07,-391.735 1512.72,-381.16 1505.62,-389.018 1512.07,-391.735"/>
<text text-anchor="middle" x="1525" y="-402.8" font-family="Times New Roman,serif" font-size="14.00"> 0 &#45;&gt; 1 </text>
</g>
<!-- MaxPool_180 -->
<g id="node7" class="node"><title>MaxPool_180</title>
<polygon fill="none" stroke="black" points="1985.5,-799 1754.5,-799 1754.5,-716 1985.5,-716 1985.5,-799"/>
<text text-anchor="middle" x="1870" y="-783.8" font-family="Times New Roman,serif" font-size="14.00">friendly_name: MaxPool_89</text>
<text text-anchor="middle" x="1870" y="-768.8" font-family="Times New Roman,serif" font-size="14.00">name: MaxPool_180</text>
<text text-anchor="middle" x="1870" y="-753.8" font-family="Times New Roman,serif" font-size="14.00">type_name: MaxPool</text>
<text text-anchor="middle" x="1870" y="-738.8" font-family="Times New Roman,serif" font-size="14.00">in0: {u8}[1,3,9,9]: MaxPool_169: out0</text>
<text text-anchor="middle" x="1870" y="-723.8" font-family="Times New Roman,serif" font-size="14.00">out0: {u8}[1,3,9,9]</text>
</g>
<!-- MaxPool_180&#45;&gt;Subtract_197 -->
<g id="edge6" class="edge"><title>MaxPool_180&#45;&gt;Subtract_197</title>
<path fill="none" stroke="black" d="M1842.12,-715.782C1818.22,-680.87 1783.52,-630.2 1756.89,-591.3"/>
<polygon fill="black" stroke="black" points="1759.53,-588.962 1750.99,-582.688 1753.76,-592.916 1759.53,-588.962"/>
<text text-anchor="middle" x="1829" y="-656.8" font-family="Times New Roman,serif" font-size="14.00"> 0 &#45;&gt; 0 </text>
</g>
<!-- CLONE_2 -->
<g id="node8" class="node"><title>CLONE_2</title>
<polygon fill="none" stroke="black" stroke-dasharray="5,2" points="1736,-799 1556,-799 1556,-716 1736,-716 1736,-799"/>
<text text-anchor="middle" x="1646" y="-783.8" font-family="Times New Roman,serif" font-size="14.00">friendly_name: Constant_196</text>
<text text-anchor="middle" x="1646" y="-768.8" font-family="Times New Roman,serif" font-size="14.00">type_name: Constant</text>
<text text-anchor="middle" x="1646" y="-753.8" font-family="Times New Roman,serif" font-size="14.00">{u8}[1,3,1,1]</text>
<text text-anchor="middle" x="1646" y="-738.8" font-family="Times New Roman,serif" font-size="14.00">value: [128, 128, 128</text>
<text text-anchor="middle" x="1646" y="-723.8" font-family="Times New Roman,serif" font-size="14.00">(min: 128, max: 128)]</text>
</g>
<!-- CLONE_2&#45;&gt;Subtract_197 -->
<g id="edge7" class="edge"><title>CLONE_2&#45;&gt;Subtract_197</title>
<path fill="none" stroke="black" d="M1659.21,-715.782C1670.43,-681.163 1686.69,-631.05 1699.26,-592.283"/>
<polygon fill="black" stroke="black" points="1702.62,-593.28 1702.37,-582.688 1695.96,-591.12 1702.62,-593.28"/>
<text text-anchor="middle" x="1699" y="-656.8" font-family="Times New Roman,serif" font-size="14.00"> 0 &#45;&gt; 1 </text>
</g>
<!-- MaxPool_169 -->
<g id="node9" class="node"><title>MaxPool_169</title>
<polygon fill="none" stroke="black" points="1896,-1023 1150,-1023 1150,-880 1896,-880 1896,-1023"/>
<text text-anchor="middle" x="1523" y="-1007.8" font-family="Times New Roman,serif" font-size="14.00">friendly_name: maxPool2</text>
<text text-anchor="middle" x="1523" y="-992.8" font-family="Times New Roman,serif" font-size="14.00">name: MaxPool_169</text>
<text text-anchor="middle" x="1523" y="-977.8" font-family="Times New Roman,serif" font-size="14.00">type_name: MaxPool</text>
<text text-anchor="middle" x="1523" y="-962.8" font-family="Times New Roman,serif" font-size="14.00">rt info: &#160;AVG_POOL_PRECISION_PRESERVED(2635392935936: shared: 2635393965744, value: true, operation: FakeQuantize)</text>
<text text-anchor="middle" x="1523" y="-947.8" font-family="Times New Roman,serif" font-size="14.00">INTERVALS_ALIGNMENT(2635392937280: low: &#45;1.28, high: 1.27)</text>
<text text-anchor="middle" x="1523" y="-932.8" font-family="Times New Roman,serif" font-size="14.00">PRECISION_PRESERVED(2635393844136: shared: 2635393971504,value: true)</text>
<text text-anchor="middle" x="1523" y="-917.8" font-family="Times New Roman,serif" font-size="14.00">QUANTIZATION_ALIGNMENT(2635392936128: value: true)</text>
<text text-anchor="middle" x="1523" y="-902.8" font-family="Times New Roman,serif" font-size="14.00">in0: {u8}[1,3,9,9]: AvgPool_164: out0</text>
<text text-anchor="middle" x="1523" y="-887.8" font-family="Times New Roman,serif" font-size="14.00">out0: {u8}[1,3,9,9]</text>
</g>
<!-- MaxPool_169&#45;&gt;MaxPool_180 -->
<g id="edge8" class="edge"><title>MaxPool_169&#45;&gt;MaxPool_180</title>
<path fill="none" stroke="black" d="M1652.58,-879.945C1682.94,-863.312 1715.14,-845.591 1745,-829 1759.34,-821.033 1774.57,-812.502 1789.28,-804.222"/>
<polygon fill="black" stroke="black" points="1791.37,-807.064 1798.37,-799.107 1787.94,-800.964 1791.37,-807.064"/>
<text text-anchor="middle" x="1730" y="-850.8" font-family="Times New Roman,serif" font-size="14.00"> 0 &#45;&gt; 0 </text>
</g>
<!-- MaxPool_230 -->
<g id="node20" class="node"><title>MaxPool_230</title>
<polygon fill="none" stroke="black" points="1340,-829 594,-829 594,-686 1340,-686 1340,-829"/>
<text text-anchor="middle" x="967" y="-813.8" font-family="Times New Roman,serif" font-size="14.00">friendly_name: MaxPool_88</text>
<text text-anchor="middle" x="967" y="-798.8" font-family="Times New Roman,serif" font-size="14.00">name: MaxPool_230</text>
<text text-anchor="middle" x="967" y="-783.8" font-family="Times New Roman,serif" font-size="14.00">type_name: MaxPool</text>
<text text-anchor="middle" x="967" y="-768.8" font-family="Times New Roman,serif" font-size="14.00">rt info: &#160;AVG_POOL_PRECISION_PRESERVED(2635392935936: shared: 2635393965744, value: true, operation: FakeQuantize)</text>
<text text-anchor="middle" x="967" y="-753.8" font-family="Times New Roman,serif" font-size="14.00">INTERVALS_ALIGNMENT(2635392937280: low: &#45;1.28, high: 1.27)</text>
<text text-anchor="middle" x="967" y="-738.8" font-family="Times New Roman,serif" font-size="14.00">PRECISION_PRESERVED(2635393854440: shared: 2635393969840,value: true)</text>
<text text-anchor="middle" x="967" y="-723.8" font-family="Times New Roman,serif" font-size="14.00">QUANTIZATION_ALIGNMENT(2635392936128: value: true)</text>
<text text-anchor="middle" x="967" y="-708.8" font-family="Times New Roman,serif" font-size="14.00">in0: {u8}[1,3,9,9]: MaxPool_169: out0</text>
<text text-anchor="middle" x="967" y="-693.8" font-family="Times New Roman,serif" font-size="14.00">out0: {u8}[1,3,9,9]</text>
</g>
<!-- MaxPool_169&#45;&gt;MaxPool_230 -->
<g id="edge23" class="edge"><title>MaxPool_169&#45;&gt;MaxPool_230</title>
<path fill="none" stroke="black" d="M1318.73,-879.96C1273.9,-864.48 1226.32,-848.048 1181.11,-832.439"/>
<polygon fill="black" stroke="black" points="1182.1,-829.077 1171.51,-829.121 1179.82,-835.694 1182.1,-829.077"/>
<text text-anchor="middle" x="1283" y="-850.8" font-family="Times New Roman,serif" font-size="14.00"> 0 &#45;&gt; 0 </text>
</g>
<!-- AvgPool_164 -->
<g id="node10" class="node"><title>AvgPool_164</title>
<polygon fill="none" stroke="black" points="1896,-1217 1150,-1217 1150,-1074 1896,-1074 1896,-1217"/>
<text text-anchor="middle" x="1523" y="-1201.8" font-family="Times New Roman,serif" font-size="14.00">friendly_name: avgPool</text>
<text text-anchor="middle" x="1523" y="-1186.8" font-family="Times New Roman,serif" font-size="14.00">name: AvgPool_164</text>
<text text-anchor="middle" x="1523" y="-1171.8" font-family="Times New Roman,serif" font-size="14.00">type_name: AvgPool</text>
<text text-anchor="middle" x="1523" y="-1156.8" font-family="Times New Roman,serif" font-size="14.00">rt info: &#160;AVG_POOL_PRECISION_PRESERVED(2635392935936: shared: 2635393965744, value: true, operation: FakeQuantize)</text>
<text text-anchor="middle" x="1523" y="-1141.8" font-family="Times New Roman,serif" font-size="14.00">INTERVALS_ALIGNMENT(2635392937280: low: &#45;1.28, high: 1.27)</text>
<text text-anchor="middle" x="1523" y="-1126.8" font-family="Times New Roman,serif" font-size="14.00">PRECISION_PRESERVED(2635393854888: shared: 2635393965744,value: true, operation: FakeQuantize)</text>
<text text-anchor="middle" x="1523" y="-1111.8" font-family="Times New Roman,serif" font-size="14.00">QUANTIZATION_ALIGNMENT(2635392936128: value: true)</text>
<text text-anchor="middle" x="1523" y="-1096.8" font-family="Times New Roman,serif" font-size="14.00">in0: {u8}[1,3,9,9]: MaxPool_159: out0</text>
<text text-anchor="middle" x="1523" y="-1081.8" font-family="Times New Roman,serif" font-size="14.00">out0: {u8}[1,3,9,9]</text>
</g>
<!-- AvgPool_164&#45;&gt;MaxPool_169 -->
<g id="edge9" class="edge"><title>AvgPool_164&#45;&gt;MaxPool_169</title>
<path fill="none" stroke="black" d="M1523,-1073.82C1523,-1060.62 1523,-1046.72 1523,-1033.24"/>
<polygon fill="black" stroke="black" points="1526.5,-1033.03 1523,-1023.03 1519.5,-1033.03 1526.5,-1033.03"/>
<text text-anchor="middle" x="1544" y="-1044.8" font-family="Times New Roman,serif" font-size="14.00"> 0 &#45;&gt; 0 </text>
</g>
<!-- MaxPool_159 -->
<g id="node11" class="node"><title>MaxPool_159</title>
<polygon fill="none" stroke="black" points="1759.5,-1396 1286.5,-1396 1286.5,-1268 1759.5,-1268 1759.5,-1396"/>
<text text-anchor="middle" x="1523" y="-1380.8" font-family="Times New Roman,serif" font-size="14.00">friendly_name: maxPool1</text>
<text text-anchor="middle" x="1523" y="-1365.8" font-family="Times New Roman,serif" font-size="14.00">name: MaxPool_159</text>
<text text-anchor="middle" x="1523" y="-1350.8" font-family="Times New Roman,serif" font-size="14.00">type_name: MaxPool</text>
<text text-anchor="middle" x="1523" y="-1335.8" font-family="Times New Roman,serif" font-size="14.00">rt info: &#160;INTERVALS_ALIGNMENT(2635392937280: low: &#45;1.28, high: 1.27)</text>
<text text-anchor="middle" x="1523" y="-1320.8" font-family="Times New Roman,serif" font-size="14.00">PRECISION_PRESERVED(2635393844024: shared: 2635393968048,value: true)</text>
<text text-anchor="middle" x="1523" y="-1305.8" font-family="Times New Roman,serif" font-size="14.00">QUANTIZATION_ALIGNMENT(2635392936128: value: true)</text>
<text text-anchor="middle" x="1523" y="-1290.8" font-family="Times New Roman,serif" font-size="14.00">in0: {u8}[1,3,9,9]: FakeQuantize_152: out0</text>
<text text-anchor="middle" x="1523" y="-1275.8" font-family="Times New Roman,serif" font-size="14.00">out0: {u8}[1,3,9,9]</text>
</g>
<!-- MaxPool_159&#45;&gt;AvgPool_164 -->
<g id="edge10" class="edge"><title>MaxPool_159&#45;&gt;AvgPool_164</title>
<path fill="none" stroke="black" d="M1523,-1267.76C1523,-1254.8 1523,-1240.98 1523,-1227.48"/>
<polygon fill="black" stroke="black" points="1526.5,-1227.25 1523,-1217.25 1519.5,-1227.25 1526.5,-1227.25"/>
<text text-anchor="middle" x="1544" y="-1238.8" font-family="Times New Roman,serif" font-size="14.00"> 0 &#45;&gt; 0 </text>
</g>
<!-- FakeQuantize_152 -->
<g id="node12" class="node"><title>FakeQuantize_152</title>
<polygon fill="none" stroke="black" points="1747,-1605 1299,-1605 1299,-1447 1747,-1447 1747,-1605"/>
<text text-anchor="middle" x="1523" y="-1589.8" font-family="Times New Roman,serif" font-size="14.00">friendly_name: fakeQuantizeOnActivations</text>
<text text-anchor="middle" x="1523" y="-1574.8" font-family="Times New Roman,serif" font-size="14.00">name: FakeQuantize_152</text>
<text text-anchor="middle" x="1523" y="-1559.8" font-family="Times New Roman,serif" font-size="14.00">type_name: FakeQuantize</text>
<text text-anchor="middle" x="1523" y="-1544.8" font-family="Times New Roman,serif" font-size="14.00">rt info: &#160;INTERVALS_ALIGNMENT(2635392937280: low: &#45;1.28, high: 1.27)</text>
<text text-anchor="middle" x="1523" y="-1529.8" font-family="Times New Roman,serif" font-size="14.00">in0: {f32}[1,3,9,9]: Parameter_79: out0</text>
<text text-anchor="middle" x="1523" y="-1514.8" font-family="Times New Roman,serif" font-size="14.00">in1: {f32}[]: Constant_80: out0</text>
<text text-anchor="middle" x="1523" y="-1499.8" font-family="Times New Roman,serif" font-size="14.00">in2: {f32}[]: Constant_81: out0</text>
<text text-anchor="middle" x="1523" y="-1484.8" font-family="Times New Roman,serif" font-size="14.00">in3: {f32}[]: Constant_150: out0</text>
<text text-anchor="middle" x="1523" y="-1469.8" font-family="Times New Roman,serif" font-size="14.00">in4: {f32}[]: Constant_151: out0</text>
<text text-anchor="middle" x="1523" y="-1454.8" font-family="Times New Roman,serif" font-size="14.00">out0: {u8}[1,3,9,9] PRECISIONS(2635393854320: u8) </text>
</g>
<!-- FakeQuantize_152&#45;&gt;MaxPool_159 -->
<g id="edge11" class="edge"><title>FakeQuantize_152&#45;&gt;MaxPool_159</title>
<path fill="none" stroke="black" d="M1523,-1446.91C1523,-1433.42 1523,-1419.45 1523,-1406.1"/>
<polygon fill="black" stroke="black" points="1526.5,-1406.03 1523,-1396.03 1519.5,-1406.03 1526.5,-1406.03"/>
<text text-anchor="middle" x="1544" y="-1417.8" font-family="Times New Roman,serif" font-size="14.00"> 0 &#45;&gt; 0 </text>
</g>
<!-- CLONE_3 -->
<g id="node13" class="node"><title>CLONE_3</title>
<polygon fill="none" stroke="blue" stroke-dasharray="5,2" points="1227.5,-1724 1048.5,-1724 1048.5,-1671 1227.5,-1671 1227.5,-1724"/>
<text text-anchor="middle" x="1138" y="-1708.8" font-family="Times New Roman,serif" font-size="14.00">friendly_name: Parameter_79</text>
<text text-anchor="middle" x="1138" y="-1693.8" font-family="Times New Roman,serif" font-size="14.00">type_name: Parameter</text>
<text text-anchor="middle" x="1138" y="-1678.8" font-family="Times New Roman,serif" font-size="14.00">{f32}[1,3,9,9]</text>
</g>
<!-- CLONE_3&#45;&gt;FakeQuantize_152 -->
<g id="edge12" class="edge"><title>CLONE_3&#45;&gt;FakeQuantize_152</title>
<path fill="none" stroke="black" d="M1196.06,-1670.94C1233.81,-1654.32 1285.34,-1631.63 1336.32,-1609.19"/>
<polygon fill="black" stroke="black" points="1337.75,-1612.38 1345.49,-1605.15 1334.93,-1605.97 1337.75,-1612.38"/>
<text text-anchor="middle" x="1318" y="-1626.8" font-family="Times New Roman,serif" font-size="14.00"> 0 &#45;&gt; 0 </text>
</g>
<!-- CLONE_4 -->
<g id="node14" class="node"><title>CLONE_4</title>
<polygon fill="none" stroke="black" stroke-dasharray="5,2" points="1418.5,-1739 1245.5,-1739 1245.5,-1656 1418.5,-1656 1418.5,-1739"/>
<text text-anchor="middle" x="1332" y="-1723.8" font-family="Times New Roman,serif" font-size="14.00">friendly_name: Constant_80</text>
<text text-anchor="middle" x="1332" y="-1708.8" font-family="Times New Roman,serif" font-size="14.00">type_name: Constant</text>
<text text-anchor="middle" x="1332" y="-1693.8" font-family="Times New Roman,serif" font-size="14.00">{f32}[]</text>
<text text-anchor="middle" x="1332" y="-1678.8" font-family="Times New Roman,serif" font-size="14.00">value: [&#45;1.28</text>
<text text-anchor="middle" x="1332" y="-1663.8" font-family="Times New Roman,serif" font-size="14.00">(min: &#45;1.28, max: &#45;1.28)]</text>
</g>
<!-- CLONE_4&#45;&gt;FakeQuantize_152 -->
<g id="edge13" class="edge"><title>CLONE_4&#45;&gt;FakeQuantize_152</title>
<path fill="none" stroke="black" d="M1377.75,-1655.9C1392.68,-1642.65 1409.86,-1627.4 1427.06,-1612.14"/>
<polygon fill="black" stroke="black" points="1429.8,-1614.39 1434.96,-1605.13 1425.15,-1609.15 1429.8,-1614.39"/>
<text text-anchor="middle" x="1432" y="-1626.8" font-family="Times New Roman,serif" font-size="14.00"> 0 &#45;&gt; 1 </text>
</g>
<!-- CLONE_5 -->
<g id="node15" class="node"><title>CLONE_5</title>
<polygon fill="none" stroke="black" stroke-dasharray="5,2" points="1609.5,-1739 1436.5,-1739 1436.5,-1656 1609.5,-1656 1609.5,-1739"/>
<text text-anchor="middle" x="1523" y="-1723.8" font-family="Times New Roman,serif" font-size="14.00">friendly_name: Constant_81</text>
<text text-anchor="middle" x="1523" y="-1708.8" font-family="Times New Roman,serif" font-size="14.00">type_name: Constant</text>
<text text-anchor="middle" x="1523" y="-1693.8" font-family="Times New Roman,serif" font-size="14.00">{f32}[]</text>
<text text-anchor="middle" x="1523" y="-1678.8" font-family="Times New Roman,serif" font-size="14.00">value: [1.27</text>
<text text-anchor="middle" x="1523" y="-1663.8" font-family="Times New Roman,serif" font-size="14.00">(min: 1.27, max: 1.27)]</text>
</g>
<!-- CLONE_5&#45;&gt;FakeQuantize_152 -->
<g id="edge14" class="edge"><title>CLONE_5&#45;&gt;FakeQuantize_152</title>
<path fill="none" stroke="black" d="M1523,-1655.9C1523,-1643.61 1523,-1629.59 1523,-1615.44"/>
<polygon fill="black" stroke="black" points="1526.5,-1615.13 1523,-1605.13 1519.5,-1615.13 1526.5,-1615.13"/>
<text text-anchor="middle" x="1544" y="-1626.8" font-family="Times New Roman,serif" font-size="14.00"> 0 &#45;&gt; 2 </text>
</g>
<!-- CLONE_6 -->
<g id="node16" class="node"><title>CLONE_6</title>
<polygon fill="none" stroke="black" stroke-dasharray="5,2" points="1808,-1739 1628,-1739 1628,-1656 1808,-1656 1808,-1739"/>
<text text-anchor="middle" x="1718" y="-1723.8" font-family="Times New Roman,serif" font-size="14.00">friendly_name: Constant_150</text>
<text text-anchor="middle" x="1718" y="-1708.8" font-family="Times New Roman,serif" font-size="14.00">type_name: Constant</text>
<text text-anchor="middle" x="1718" y="-1693.8" font-family="Times New Roman,serif" font-size="14.00">{f32}[]</text>
<text text-anchor="middle" x="1718" y="-1678.8" font-family="Times New Roman,serif" font-size="14.00">value: [0</text>
<text text-anchor="middle" x="1718" y="-1663.8" font-family="Times New Roman,serif" font-size="14.00">(min: 0, max: 0)]</text>
</g>
<!-- CLONE_6&#45;&gt;FakeQuantize_152 -->
<g id="edge15" class="edge"><title>CLONE_6&#45;&gt;FakeQuantize_152</title>
<path fill="none" stroke="black" d="M1671.29,-1655.9C1655.91,-1642.53 1638.19,-1627.13 1620.47,-1611.73"/>
<polygon fill="black" stroke="black" points="1622.73,-1609.05 1612.89,-1605.13 1618.14,-1614.34 1622.73,-1609.05"/>
<text text-anchor="middle" x="1671" y="-1626.8" font-family="Times New Roman,serif" font-size="14.00"> 0 &#45;&gt; 3 </text>
</g>
<!-- CLONE_7 -->
<g id="node17" class="node"><title>CLONE_7</title>
<polygon fill="none" stroke="black" stroke-dasharray="5,2" points="2006,-1739 1826,-1739 1826,-1656 2006,-1656 2006,-1739"/>
<text text-anchor="middle" x="1916" y="-1723.8" font-family="Times New Roman,serif" font-size="14.00">friendly_name: Constant_151</text>
<text text-anchor="middle" x="1916" y="-1708.8" font-family="Times New Roman,serif" font-size="14.00">type_name: Constant</text>
<text text-anchor="middle" x="1916" y="-1693.8" font-family="Times New Roman,serif" font-size="14.00">{f32}[]</text>
<text text-anchor="middle" x="1916" y="-1678.8" font-family="Times New Roman,serif" font-size="14.00">value: [255</text>
<text text-anchor="middle" x="1916" y="-1663.8" font-family="Times New Roman,serif" font-size="14.00">(min: 255, max: 255)]</text>
</g>
<!-- CLONE_7&#45;&gt;FakeQuantize_152 -->
<g id="edge16" class="edge"><title>CLONE_7&#45;&gt;FakeQuantize_152</title>
<path fill="none" stroke="black" d="M1825.84,-1657.61C1792.27,-1643.14 1752.78,-1626.1 1713.6,-1609.21"/>
<polygon fill="black" stroke="black" points="1714.75,-1605.89 1704.19,-1605.15 1711.98,-1612.32 1714.75,-1605.89"/>
<text text-anchor="middle" x="1799" y="-1626.8" font-family="Times New Roman,serif" font-size="14.00"> 0 &#45;&gt; 4 </text>
</g>
<!-- FakeQuantize_299 -->
<g id="node18" class="node"><title>FakeQuantize_299</title>
<polygon fill="none" stroke="black" points="859,-635 113,-635 113,-432 859,-432 859,-635"/>
<text text-anchor="middle" x="486" y="-619.8" font-family="Times New Roman,serif" font-size="14.00">friendly_name: fakeQuantize1</text>
<text text-anchor="middle" x="486" y="-604.8" font-family="Times New Roman,serif" font-size="14.00">name: FakeQuantize_299</text>
<text text-anchor="middle" x="486" y="-589.8" font-family="Times New Roman,serif" font-size="14.00">type_name: FakeQuantize</text>
<text text-anchor="middle" x="486" y="-574.8" font-family="Times New Roman,serif" font-size="14.00">rt info: &#160;AVG_POOL_PRECISION_PRESERVED(2635392935936: shared: 2635393965744, value: true, operation: FakeQuantize)</text>
<text text-anchor="middle" x="486" y="-559.8" font-family="Times New Roman,serif" font-size="14.00">INTERVALS_ALIGNMENT(2635392936224: low: &#45;1.28, high: 1.27)</text>
<text text-anchor="middle" x="486" y="-544.8" font-family="Times New Roman,serif" font-size="14.00">PRECISION_PRESERVED(2635393862392: shared: 2635393969840,value: true)</text>
<text text-anchor="middle" x="486" y="-529.8" font-family="Times New Roman,serif" font-size="14.00">QUANTIZATION_ALIGNMENT(2635392936128: value: true)</text>
<text text-anchor="middle" x="486" y="-514.8" font-family="Times New Roman,serif" font-size="14.00">in0: {u8}[1,3,9,9]: MaxPool_230: out0</text>
<text text-anchor="middle" x="486" y="-499.8" font-family="Times New Roman,serif" font-size="14.00">in1: {f32}[]: Constant_297: out0</text>
<text text-anchor="middle" x="486" y="-484.8" font-family="Times New Roman,serif" font-size="14.00">in2: {f32}[]: Constant_295: out0</text>
<text text-anchor="middle" x="486" y="-469.8" font-family="Times New Roman,serif" font-size="14.00">in3: {f32}[]: Constant_291: out0</text>
<text text-anchor="middle" x="486" y="-454.8" font-family="Times New Roman,serif" font-size="14.00">in4: {f32}[]: Constant_293: out0</text>
<text text-anchor="middle" x="486" y="-439.8" font-family="Times New Roman,serif" font-size="14.00">out0: {f32}[1,3,9,9]</text>
</g>
<!-- Result_102 -->
<g id="node19" class="node"><title>Result_102</title>
<polygon fill="none" stroke="crimson" stroke-width="1.5" points="616,-366 356,-366 356,-298 616,-298 616,-366"/>
<text text-anchor="middle" x="486" y="-350.8" font-family="Times New Roman,serif" font-size="14.00">friendly_name: Result_102</text>
<text text-anchor="middle" x="486" y="-335.8" font-family="Times New Roman,serif" font-size="14.00">type_name: Result</text>
<text text-anchor="middle" x="486" y="-320.8" font-family="Times New Roman,serif" font-size="14.00">in0: {f32}[1,3,9,9]: FakeQuantize_299: out0</text>
<text text-anchor="middle" x="486" y="-305.8" font-family="Times New Roman,serif" font-size="14.00">out0: {f32}[1,3,9,9]</text>
</g>
<!-- FakeQuantize_299&#45;&gt;Result_102 -->
<g id="edge17" class="edge"><title>FakeQuantize_299&#45;&gt;Result_102</title>
<path fill="none" stroke="black" d="M486,-431.873C486,-412.332 486,-392.835 486,-376.383"/>
<polygon fill="black" stroke="black" points="489.5,-376.042 486,-366.042 482.5,-376.042 489.5,-376.042"/>
<text text-anchor="middle" x="507" y="-402.8" font-family="Times New Roman,serif" font-size="14.00"> 0 &#45;&gt; 0 </text>
</g>
<!-- MaxPool_230&#45;&gt;FakeQuantize_299 -->
<g id="edge18" class="edge"><title>MaxPool_230&#45;&gt;FakeQuantize_299</title>
<path fill="none" stroke="black" d="M814.148,-685.953C781.951,-671.093 747.327,-655.113 713.068,-639.301"/>
<polygon fill="black" stroke="black" points="714.44,-636.079 703.894,-635.066 711.507,-642.435 714.44,-636.079"/>
<text text-anchor="middle" x="791" y="-656.8" font-family="Times New Roman,serif" font-size="14.00"> 0 &#45;&gt; 0 </text>
</g>
<!-- CLONE_8 -->
<g id="node21" class="node"><title>CLONE_8</title>
<polygon fill="none" stroke="black" stroke-dasharray="5,2" points="576,-799 396,-799 396,-716 576,-716 576,-799"/>
<text text-anchor="middle" x="486" y="-783.8" font-family="Times New Roman,serif" font-size="14.00">friendly_name: Constant_297</text>
<text text-anchor="middle" x="486" y="-768.8" font-family="Times New Roman,serif" font-size="14.00">type_name: Constant</text>
<text text-anchor="middle" x="486" y="-753.8" font-family="Times New Roman,serif" font-size="14.00">{f32}[]</text>
<text text-anchor="middle" x="486" y="-738.8" font-family="Times New Roman,serif" font-size="14.00">value: [0</text>
<text text-anchor="middle" x="486" y="-723.8" font-family="Times New Roman,serif" font-size="14.00">(min: 0, max: 0)]</text>
</g>
<!-- CLONE_8&#45;&gt;FakeQuantize_299 -->
<g id="edge19" class="edge"><title>CLONE_8&#45;&gt;FakeQuantize_299</title>
<path fill="none" stroke="black" d="M486,-715.782C486,-695.78 486,-670.606 486,-645.437"/>
<polygon fill="black" stroke="black" points="489.5,-645.426 486,-635.426 482.5,-645.426 489.5,-645.426"/>
<text text-anchor="middle" x="507" y="-656.8" font-family="Times New Roman,serif" font-size="14.00"> 0 &#45;&gt; 1 </text>
</g>
<!-- CLONE_9 -->
<g id="node22" class="node"><title>CLONE_9</title>
<polygon fill="none" stroke="black" stroke-dasharray="5,2" points="1538,-799 1358,-799 1358,-716 1538,-716 1538,-799"/>
<text text-anchor="middle" x="1448" y="-783.8" font-family="Times New Roman,serif" font-size="14.00">friendly_name: Constant_295</text>
<text text-anchor="middle" x="1448" y="-768.8" font-family="Times New Roman,serif" font-size="14.00">type_name: Constant</text>
<text text-anchor="middle" x="1448" y="-753.8" font-family="Times New Roman,serif" font-size="14.00">{f32}[]</text>
<text text-anchor="middle" x="1448" y="-738.8" font-family="Times New Roman,serif" font-size="14.00">value: [255</text>
<text text-anchor="middle" x="1448" y="-723.8" font-family="Times New Roman,serif" font-size="14.00">(min: 255, max: 255)]</text>
</g>
<!-- CLONE_9&#45;&gt;FakeQuantize_299 -->
<g id="edge20" class="edge"><title>CLONE_9&#45;&gt;FakeQuantize_299</title>
<path fill="none" stroke="black" d="M1400.22,-715.997C1384.73,-704.706 1366.91,-693.493 1349,-686 1198.56,-623.049 1022.77,-586.254 869.245,-564.747"/>
<polygon fill="black" stroke="black" points="869.551,-561.256 859.165,-563.353 868.591,-568.19 869.551,-561.256"/>
<text text-anchor="middle" x="1304" y="-656.8" font-family="Times New Roman,serif" font-size="14.00"> 0 &#45;&gt; 2 </text>
</g>
<!-- CLONE_10 -->
<g id="node23" class="node"><title>CLONE_10</title>
<polygon fill="none" stroke="black" stroke-dasharray="5,2" points="180,-799 0,-799 0,-716 180,-716 180,-799"/>
<text text-anchor="middle" x="90" y="-783.8" font-family="Times New Roman,serif" font-size="14.00">friendly_name: Constant_291</text>
<text text-anchor="middle" x="90" y="-768.8" font-family="Times New Roman,serif" font-size="14.00">type_name: Constant</text>
<text text-anchor="middle" x="90" y="-753.8" font-family="Times New Roman,serif" font-size="14.00">{f32}[]</text>
<text text-anchor="middle" x="90" y="-738.8" font-family="Times New Roman,serif" font-size="14.00">value: [&#45;1.28</text>
<text text-anchor="middle" x="90" y="-723.8" font-family="Times New Roman,serif" font-size="14.00">(min: &#45;1.28, max: &#45;1.28)]</text>
</g>
<!-- CLONE_10&#45;&gt;FakeQuantize_299 -->
<g id="edge21" class="edge"><title>CLONE_10&#45;&gt;FakeQuantize_299</title>
<path fill="none" stroke="black" d="M144.014,-715.871C158.356,-705.687 174.026,-695.083 189,-686 214.789,-670.356 242.386,-654.804 269.985,-639.954"/>
<polygon fill="black" stroke="black" points="271.779,-642.963 278.944,-635.158 268.476,-636.792 271.779,-642.963"/>
<text text-anchor="middle" x="266" y="-656.8" font-family="Times New Roman,serif" font-size="14.00"> 0 &#45;&gt; 3 </text>
</g>
<!-- CLONE_11 -->
<g id="node24" class="node"><title>CLONE_11</title>
<polygon fill="none" stroke="black" stroke-dasharray="5,2" points="378,-799 198,-799 198,-716 378,-716 378,-799"/>
<text text-anchor="middle" x="288" y="-783.8" font-family="Times New Roman,serif" font-size="14.00">friendly_name: Constant_293</text>
<text text-anchor="middle" x="288" y="-768.8" font-family="Times New Roman,serif" font-size="14.00">type_name: Constant</text>
<text text-anchor="middle" x="288" y="-753.8" font-family="Times New Roman,serif" font-size="14.00">{f32}[]</text>
<text text-anchor="middle" x="288" y="-738.8" font-family="Times New Roman,serif" font-size="14.00">value: [1.27</text>
<text text-anchor="middle" x="288" y="-723.8" font-family="Times New Roman,serif" font-size="14.00">(min: 1.27, max: 1.27)]</text>
</g>
<!-- CLONE_11&#45;&gt;FakeQuantize_299 -->
<g id="edge22" class="edge"><title>CLONE_11&#45;&gt;FakeQuantize_299</title>
<path fill="none" stroke="black" d="M324.316,-715.782C342.708,-695.161 366.003,-669.042 389.142,-643.098"/>
<polygon fill="black" stroke="black" points="391.941,-645.219 395.985,-635.426 386.717,-640.56 391.941,-645.219"/>
<text text-anchor="middle" x="397" y="-656.8" font-family="Times New Roman,serif" font-size="14.00"> 0 &#45;&gt; 4 </text>
</g>
</g>
</svg>
