<?xml version="1.0" encoding="UTF-8" standalone="no"?>
<!DOCTYPE svg PUBLIC "-//W3C//DTD SVG 1.1//EN"
 "http://www.w3.org/Graphics/SVG/1.1/DTD/svg11.dtd">
<!-- Generated by graphviz version 2.43.20200408.0903 (20200408.0903)
 -->
<!-- Title: ngraph Pages: 1 -->
<svg width="1912pt" height="806pt"
 viewBox="0.00 0.00 1912.00 806.00" xmlns="http://www.w3.org/2000/svg" xmlns:xlink="http://www.w3.org/1999/xlink">
<g id="graph0" class="graph" transform="scale(1 1) rotate(0) translate(4 802)">
<title>ngraph</title>
<polygon fill="white" stroke="transparent" points="-4,4 -4,-802 1908,-802 1908,4 -4,4"/>
<!-- Concat_95 -->
<g id="node1" class="node">
<title>Concat_95</title>
<polygon fill="none" stroke="black" points="1128,-217 899,-217 899,-119 1128,-119 1128,-217"/>
<text text-anchor="middle" x="1013.5" y="-201.8" font-family="Times New Roman,serif" font-size="14.00">friendly_name: output</text>
<text text-anchor="middle" x="1013.5" y="-186.8" font-family="Times New Roman,serif" font-size="14.00">name: Concat_95</text>
<text text-anchor="middle" x="1013.5" y="-171.8" font-family="Times New Roman,serif" font-size="14.00">type_name: Concat</text>
<text text-anchor="middle" x="1013.5" y="-156.8" font-family="Times New Roman,serif" font-size="14.00">in0: {f32}[1,3,9,9]: MaxPool_86: out0</text>
<text text-anchor="middle" x="1013.5" y="-141.8" font-family="Times New Roman,serif" font-size="14.00">in1: {f32}[1,3,9,9]: MaxPool_94: out0</text>
<text text-anchor="middle" x="1013.5" y="-126.8" font-family="Times New Roman,serif" font-size="14.00">out0: {f32}[1,6,9,9]</text>
</g>
<!-- Result_96 -->
<g id="node2" class="node">
<title>Result_96</title>
<polygon fill="none" stroke="crimson" stroke-width="1.5" points="1122.5,-68 904.5,-68 904.5,0 1122.5,0 1122.5,-68"/>
<text text-anchor="middle" x="1013.5" y="-52.8" font-family="Times New Roman,serif" font-size="14.00">friendly_name: Result_96</text>
<text text-anchor="middle" x="1013.5" y="-37.8" font-family="Times New Roman,serif" font-size="14.00">type_name: Result</text>
<text text-anchor="middle" x="1013.5" y="-22.8" font-family="Times New Roman,serif" font-size="14.00">in0: {f32}[1,6,9,9]: Concat_95: out0</text>
<text text-anchor="middle" x="1013.5" y="-7.8" font-family="Times New Roman,serif" font-size="14.00">out0: {f32}[1,6,9,9]</text>
</g>
<!-- Concat_95&#45;&gt;Result_96 -->
<g id="edge1" class="edge">
<title>Concat_95&#45;&gt;Result_96</title>
<path fill="none" stroke="black" d="M1013.5,-118.97C1013.5,-105.71 1013.5,-91.4 1013.5,-78.42"/>
<polygon fill="black" stroke="black" points="1017,-78.33 1013.5,-68.33 1010,-78.33 1017,-78.33"/>
<text text-anchor="middle" x="1034.5" y="-89.8" font-family="Times New Roman,serif" font-size="14.00"> 0 &#45;&gt; 0 </text>
</g>
<!-- MaxPool_86 -->
<g id="node3" class="node">
<title>MaxPool_86</title>
<polygon fill="none" stroke="black" points="1005,-351 778,-351 778,-268 1005,-268 1005,-351"/>
<text text-anchor="middle" x="891.5" y="-335.8" font-family="Times New Roman,serif" font-size="14.00">friendly_name: maxPool1</text>
<text text-anchor="middle" x="891.5" y="-320.8" font-family="Times New Roman,serif" font-size="14.00">name: MaxPool_86</text>
<text text-anchor="middle" x="891.5" y="-305.8" font-family="Times New Roman,serif" font-size="14.00">type_name: MaxPool</text>
<text text-anchor="middle" x="891.5" y="-290.8" font-family="Times New Roman,serif" font-size="14.00">in0: {f32}[1,3,9,9]: AvgPool_85: out0</text>
<text text-anchor="middle" x="891.5" y="-275.8" font-family="Times New Roman,serif" font-size="14.00">out0: {f32}[1,3,9,9]</text>
</g>
<!-- MaxPool_86&#45;&gt;Concat_95 -->
<g id="edge2" class="edge">
<title>MaxPool_86&#45;&gt;Concat_95</title>
<path fill="none" stroke="black" d="M927.12,-267.78C938.81,-254.41 952.01,-239.31 964.51,-225.01"/>
<polygon fill="black" stroke="black" points="967.43,-227 971.37,-217.17 962.16,-222.39 967.43,-227"/>
<text text-anchor="middle" x="973.5" y="-238.8" font-family="Times New Roman,serif" font-size="14.00"> 0 &#45;&gt; 0 </text>
</g>
<!-- MaxPool_94 -->
<g id="node4" class="node">
<title>MaxPool_94</title>
<polygon fill="none" stroke="black" points="1253,-351 1026,-351 1026,-268 1253,-268 1253,-351"/>
<text text-anchor="middle" x="1139.5" y="-335.8" font-family="Times New Roman,serif" font-size="14.00">friendly_name: maxPool2</text>
<text text-anchor="middle" x="1139.5" y="-320.8" font-family="Times New Roman,serif" font-size="14.00">name: MaxPool_94</text>
<text text-anchor="middle" x="1139.5" y="-305.8" font-family="Times New Roman,serif" font-size="14.00">type_name: MaxPool</text>
<text text-anchor="middle" x="1139.5" y="-290.8" font-family="Times New Roman,serif" font-size="14.00">in0: {f32}[1,3,9,9]: AvgPool_93: out0</text>
<text text-anchor="middle" x="1139.5" y="-275.8" font-family="Times New Roman,serif" font-size="14.00">out0: {f32}[1,3,9,9]</text>
</g>
<!-- MaxPool_94&#45;&gt;Concat_95 -->
<g id="edge3" class="edge">
<title>MaxPool_94&#45;&gt;Concat_95</title>
<path fill="none" stroke="black" d="M1102.72,-267.78C1090.53,-254.28 1076.75,-239.03 1063.73,-224.62"/>
<polygon fill="black" stroke="black" points="1066.31,-222.24 1057.01,-217.17 1061.11,-226.94 1066.31,-222.24"/>
<text text-anchor="middle" x="1105.5" y="-238.8" font-family="Times New Roman,serif" font-size="14.00"> 0 &#45;&gt; 1 </text>
</g>
<!-- AvgPool_93 -->
<g id="node5" class="node">
<title>AvgPool_93</title>
<polygon fill="none" stroke="black" points="1320.5,-485 1066.5,-485 1066.5,-402 1320.5,-402 1320.5,-485"/>
<text text-anchor="middle" x="1193.5" y="-469.8" font-family="Times New Roman,serif" font-size="14.00">friendly_name: avgPool2</text>
<text text-anchor="middle" x="1193.5" y="-454.8" font-family="Times New Roman,serif" font-size="14.00">name: AvgPool_93</text>
<text text-anchor="middle" x="1193.5" y="-439.8" font-family="Times New Roman,serif" font-size="14.00">type_name: AvgPool</text>
<text text-anchor="middle" x="1193.5" y="-424.8" font-family="Times New Roman,serif" font-size="14.00">in0: {f32}[1,3,9,9]: FakeQuantize_92: out0</text>
<text text-anchor="middle" x="1193.5" y="-409.8" font-family="Times New Roman,serif" font-size="14.00">out0: {f32}[1,3,9,9]</text>
</g>
<!-- AvgPool_93&#45;&gt;MaxPool_94 -->
<g id="edge4" class="edge">
<title>AvgPool_93&#45;&gt;MaxPool_94</title>
<path fill="none" stroke="black" d="M1176.86,-401.82C1171.57,-388.9 1165.66,-374.45 1160.13,-360.92"/>
<polygon fill="black" stroke="black" points="1163.21,-359.2 1156.18,-351.27 1156.73,-361.86 1163.21,-359.2"/>
<text text-anchor="middle" x="1189.5" y="-372.8" font-family="Times New Roman,serif" font-size="14.00"> 0 &#45;&gt; 0 </text>
</g>
<!-- FakeQuantize_92 -->
<g id="node6" class="node">
<title>FakeQuantize_92</title>
<polygon fill="none" stroke="black" points="1470,-679 1209,-679 1209,-536 1470,-536 1470,-679"/>
<text text-anchor="middle" x="1339.5" y="-663.8" font-family="Times New Roman,serif" font-size="14.00">friendly_name: fakeQuantizeOnActivations2</text>
<text text-anchor="middle" x="1339.5" y="-648.8" font-family="Times New Roman,serif" font-size="14.00">name: FakeQuantize_92</text>
<text text-anchor="middle" x="1339.5" y="-633.8" font-family="Times New Roman,serif" font-size="14.00">type_name: FakeQuantize</text>
<text text-anchor="middle" x="1339.5" y="-618.8" font-family="Times New Roman,serif" font-size="14.00">in0: {f32}[1,3,9,9]: Parameter_79: out0</text>
<text text-anchor="middle" x="1339.5" y="-603.8" font-family="Times New Roman,serif" font-size="14.00">in1: {f32}[]: Constant_88: out0</text>
<text text-anchor="middle" x="1339.5" y="-588.8" font-family="Times New Roman,serif" font-size="14.00">in2: {f32}[]: Constant_89: out0</text>
<text text-anchor="middle" x="1339.5" y="-573.8" font-family="Times New Roman,serif" font-size="14.00">in3: {f32}[]: Constant_90: out0</text>
<text text-anchor="middle" x="1339.5" y="-558.8" font-family="Times New Roman,serif" font-size="14.00">in4: {f32}[]: Constant_91: out0</text>
<text text-anchor="middle" x="1339.5" y="-543.8" font-family="Times New Roman,serif" font-size="14.00">out0: {f32}[1,3,9,9]</text>
</g>
<!-- FakeQuantize_92&#45;&gt;AvgPool_93 -->
<g id="edge5" class="edge">
<title>FakeQuantize_92&#45;&gt;AvgPool_93</title>
<path fill="none" stroke="black" d="M1275.89,-535.92C1262.78,-521.38 1249.27,-506.38 1237.07,-492.85"/>
<polygon fill="black" stroke="black" points="1239.35,-490.14 1230.05,-485.06 1234.15,-494.83 1239.35,-490.14"/>
<text text-anchor="middle" x="1278.5" y="-506.8" font-family="Times New Roman,serif" font-size="14.00"> 0 &#45;&gt; 0 </text>
</g>
<!-- CLONE_0 -->
<g id="node7" class="node">
<title>CLONE_0</title>
<polygon fill="none" stroke="blue" stroke-dasharray="5,2" points="1140,-790.5 961,-790.5 961,-737.5 1140,-737.5 1140,-790.5"/>
<text text-anchor="middle" x="1050.5" y="-775.3" font-family="Times New Roman,serif" font-size="14.00">friendly_name: Parameter_79</text>
<text text-anchor="middle" x="1050.5" y="-760.3" font-family="Times New Roman,serif" font-size="14.00">type_name: Parameter</text>
<text text-anchor="middle" x="1050.5" y="-745.3" font-family="Times New Roman,serif" font-size="14.00">{f32}[1,3,9,9]</text>
</g>
<!-- CLONE_0&#45;&gt;FakeQuantize_92 -->
<g id="edge6" class="edge">
<title>CLONE_0&#45;&gt;FakeQuantize_92</title>
<path fill="none" stroke="black" d="M1098.22,-737.49C1126.16,-722.55 1163.02,-702.85 1199.5,-683.34"/>
<polygon fill="black" stroke="black" points="1201.59,-686.2 1208.76,-678.39 1198.29,-680.02 1201.59,-686.2"/>
<text text-anchor="middle" x="1190.5" y="-700.8" font-family="Times New Roman,serif" font-size="14.00"> 0 &#45;&gt; 0 </text>
</g>
<!-- CLONE_1 -->
<g id="node8" class="node">
<title>CLONE_1</title>
<polygon fill="none" stroke="black" stroke-dasharray="5,2" points="1331,-798 1158,-798 1158,-730 1331,-730 1331,-798"/>
<text text-anchor="middle" x="1244.5" y="-782.8" font-family="Times New Roman,serif" font-size="14.00">friendly_name: Constant_88</text>
<text text-anchor="middle" x="1244.5" y="-767.8" font-family="Times New Roman,serif" font-size="14.00">type_name: Constant</text>
<text text-anchor="middle" x="1244.5" y="-752.8" font-family="Times New Roman,serif" font-size="14.00">{f32}[]</text>
<text text-anchor="middle" x="1244.5" y="-737.8" font-family="Times New Roman,serif" font-size="14.00">value: [&#45;0.64]</text>
</g>
<!-- CLONE_1&#45;&gt;FakeQuantize_92 -->
<g id="edge7" class="edge">
<title>CLONE_1&#45;&gt;FakeQuantize_92</title>
<path fill="none" stroke="black" d="M1264.88,-729.86C1272.54,-717.4 1281.61,-702.65 1290.74,-687.8"/>
<polygon fill="black" stroke="black" points="1293.86,-689.41 1296.11,-679.06 1287.89,-685.75 1293.86,-689.41"/>
<text text-anchor="middle" x="1303.5" y="-700.8" font-family="Times New Roman,serif" font-size="14.00"> 0 &#45;&gt; 1 </text>
</g>
<!-- CLONE_2 -->
<g id="node9" class="node">
<title>CLONE_2</title>
<polygon fill="none" stroke="black" stroke-dasharray="5,2" points="1522,-798 1349,-798 1349,-730 1522,-730 1522,-798"/>
<text text-anchor="middle" x="1435.5" y="-782.8" font-family="Times New Roman,serif" font-size="14.00">friendly_name: Constant_89</text>
<text text-anchor="middle" x="1435.5" y="-767.8" font-family="Times New Roman,serif" font-size="14.00">type_name: Constant</text>
<text text-anchor="middle" x="1435.5" y="-752.8" font-family="Times New Roman,serif" font-size="14.00">{f32}[]</text>
<text text-anchor="middle" x="1435.5" y="-737.8" font-family="Times New Roman,serif" font-size="14.00">value: [0.635]</text>
</g>
<!-- CLONE_2&#45;&gt;FakeQuantize_92 -->
<g id="edge8" class="edge">
<title>CLONE_2&#45;&gt;FakeQuantize_92</title>
<path fill="none" stroke="black" d="M1414.91,-729.86C1407.17,-717.4 1398,-702.65 1388.77,-687.8"/>
<polygon fill="black" stroke="black" points="1391.59,-685.71 1383.34,-679.06 1385.65,-689.4 1391.59,-685.71"/>
<text text-anchor="middle" x="1422.5" y="-700.8" font-family="Times New Roman,serif" font-size="14.00"> 0 &#45;&gt; 2 </text>
</g>
<!-- CLONE_3 -->
<g id="node10" class="node">
<title>CLONE_3</title>
<polygon fill="none" stroke="black" stroke-dasharray="5,2" points="1713,-798 1540,-798 1540,-730 1713,-730 1713,-798"/>
<text text-anchor="middle" x="1626.5" y="-782.8" font-family="Times New Roman,serif" font-size="14.00">friendly_name: Constant_90</text>
<text text-anchor="middle" x="1626.5" y="-767.8" font-family="Times New Roman,serif" font-size="14.00">type_name: Constant</text>
<text text-anchor="middle" x="1626.5" y="-752.8" font-family="Times New Roman,serif" font-size="14.00">{f32}[]</text>
<text text-anchor="middle" x="1626.5" y="-737.8" font-family="Times New Roman,serif" font-size="14.00">value: [&#45;0.64]</text>
</g>
<!-- CLONE_3&#45;&gt;FakeQuantize_92 -->
<g id="edge9" class="edge">
<title>CLONE_3&#45;&gt;FakeQuantize_92</title>
<path fill="none" stroke="black" d="M1564.93,-729.86C1539.67,-716.26 1509.32,-699.92 1479.19,-683.7"/>
<polygon fill="black" stroke="black" points="1480.74,-680.56 1470.28,-678.9 1477.42,-686.72 1480.74,-680.56"/>
<text text-anchor="middle" x="1545.5" y="-700.8" font-family="Times New Roman,serif" font-size="14.00"> 0 &#45;&gt; 3 </text>
</g>
<!-- CLONE_4 -->
<g id="node11" class="node">
<title>CLONE_4</title>
<polygon fill="none" stroke="black" stroke-dasharray="5,2" points="1904,-798 1731,-798 1731,-730 1904,-730 1904,-798"/>
<text text-anchor="middle" x="1817.5" y="-782.8" font-family="Times New Roman,serif" font-size="14.00">friendly_name: Constant_91</text>
<text text-anchor="middle" x="1817.5" y="-767.8" font-family="Times New Roman,serif" font-size="14.00">type_name: Constant</text>
<text text-anchor="middle" x="1817.5" y="-752.8" font-family="Times New Roman,serif" font-size="14.00">{f32}[]</text>
<text text-anchor="middle" x="1817.5" y="-737.8" font-family="Times New Roman,serif" font-size="14.00">value: [0.635]</text>
</g>
<!-- CLONE_4&#45;&gt;FakeQuantize_92 -->
<g id="edge10" class="edge">
<title>CLONE_4&#45;&gt;FakeQuantize_92</title>
<path fill="none" stroke="black" d="M1730.81,-732.78C1728.01,-731.84 1725.23,-730.91 1722.5,-730 1642.35,-703.37 1552.36,-674.76 1479.75,-651.99"/>
<polygon fill="black" stroke="black" points="1480.67,-648.61 1470.08,-648.96 1478.57,-655.29 1480.67,-648.61"/>
<text text-anchor="middle" x="1680.5" y="-700.8" font-family="Times New Roman,serif" font-size="14.00"> 0 &#45;&gt; 4 </text>
</g>
<!-- AvgPool_85 -->
<g id="node12" class="node">
<title>AvgPool_85</title>
<polygon fill="none" stroke="black" points="998.5,-485 744.5,-485 744.5,-402 998.5,-402 998.5,-485"/>
<text text-anchor="middle" x="871.5" y="-469.8" font-family="Times New Roman,serif" font-size="14.00">friendly_name: avgPool1</text>
<text text-anchor="middle" x="871.5" y="-454.8" font-family="Times New Roman,serif" font-size="14.00">name: AvgPool_85</text>
<text text-anchor="middle" x="871.5" y="-439.8" font-family="Times New Roman,serif" font-size="14.00">type_name: AvgPool</text>
<text text-anchor="middle" x="871.5" y="-424.8" font-family="Times New Roman,serif" font-size="14.00">in0: {f32}[1,3,9,9]: FakeQuantize_84: out0</text>
<text text-anchor="middle" x="871.5" y="-409.8" font-family="Times New Roman,serif" font-size="14.00">out0: {f32}[1,3,9,9]</text>
</g>
<!-- AvgPool_85&#45;&gt;MaxPool_86 -->
<g id="edge11" class="edge">
<title>AvgPool_85&#45;&gt;MaxPool_86</title>
<path fill="none" stroke="black" d="M877.66,-401.82C879.6,-389.02 881.77,-374.73 883.8,-361.32"/>
<polygon fill="black" stroke="black" points="887.28,-361.69 885.32,-351.27 880.36,-360.64 887.28,-361.69"/>
<text text-anchor="middle" x="903.5" y="-372.8" font-family="Times New Roman,serif" font-size="14.00"> 0 &#45;&gt; 0 </text>
</g>
<!-- FakeQuantize_84 -->
<g id="node13" class="node">
<title>FakeQuantize_84</title>
<polygon fill="none" stroke="black" points="701,-679 440,-679 440,-536 701,-536 701,-679"/>
<text text-anchor="middle" x="570.5" y="-663.8" font-family="Times New Roman,serif" font-size="14.00">friendly_name: fakeQuantizeOnActivations1</text>
<text text-anchor="middle" x="570.5" y="-648.8" font-family="Times New Roman,serif" font-size="14.00">name: FakeQuantize_84</text>
<text text-anchor="middle" x="570.5" y="-633.8" font-family="Times New Roman,serif" font-size="14.00">type_name: FakeQuantize</text>
<text text-anchor="middle" x="570.5" y="-618.8" font-family="Times New Roman,serif" font-size="14.00">in0: {f32}[1,3,9,9]: Parameter_79: out0</text>
<text text-anchor="middle" x="570.5" y="-603.8" font-family="Times New Roman,serif" font-size="14.00">in1: {f32}[]: Constant_80: out0</text>
<text text-anchor="middle" x="570.5" y="-588.8" font-family="Times New Roman,serif" font-size="14.00">in2: {f32}[]: Constant_81: out0</text>
<text text-anchor="middle" x="570.5" y="-573.8" font-family="Times New Roman,serif" font-size="14.00">in3: {f32}[]: Constant_82: out0</text>
<text text-anchor="middle" x="570.5" y="-558.8" font-family="Times New Roman,serif" font-size="14.00">in4: {f32}[]: Constant_83: out0</text>
<text text-anchor="middle" x="570.5" y="-543.8" font-family="Times New Roman,serif" font-size="14.00">out0: {f32}[1,3,9,9]</text>
</g>
<!-- FakeQuantize_84&#45;&gt;AvgPool_85 -->
<g id="edge12" class="edge">
<title>FakeQuantize_84&#45;&gt;AvgPool_85</title>
<path fill="none" stroke="black" d="M701.21,-536.15C730.29,-520.5 760.37,-504.31 787.01,-489.97"/>
<polygon fill="black" stroke="black" points="788.76,-493.01 795.91,-485.19 785.44,-486.84 788.76,-493.01"/>
<text text-anchor="middle" x="778.5" y="-506.8" font-family="Times New Roman,serif" font-size="14.00"> 0 &#45;&gt; 0 </text>
</g>
<!-- CLONE_5 -->
<g id="node14" class="node">
<title>CLONE_5</title>
<polygon fill="none" stroke="blue" stroke-dasharray="5,2" points="179,-790.5 0,-790.5 0,-737.5 179,-737.5 179,-790.5"/>
<text text-anchor="middle" x="89.5" y="-775.3" font-family="Times New Roman,serif" font-size="14.00">friendly_name: Parameter_79</text>
<text text-anchor="middle" x="89.5" y="-760.3" font-family="Times New Roman,serif" font-size="14.00">type_name: Parameter</text>
<text text-anchor="middle" x="89.5" y="-745.3" font-family="Times New Roman,serif" font-size="14.00">{f32}[1,3,9,9]</text>
</g>
<!-- CLONE_5&#45;&gt;FakeQuantize_84 -->
<g id="edge13" class="edge">
<title>CLONE_5&#45;&gt;FakeQuantize_84</title>
<path fill="none" stroke="black" d="M164.9,-737.46C172.53,-734.92 180.16,-732.4 187.5,-730 267.61,-703.81 357.42,-675.27 429.92,-652.44"/>
<polygon fill="black" stroke="black" points="431.1,-655.74 439.58,-649.4 428.99,-649.07 431.1,-655.74"/>
<text text-anchor="middle" x="303.5" y="-700.8" font-family="Times New Roman,serif" font-size="14.00"> 0 &#45;&gt; 0 </text>
</g>
<!-- CLONE_6 -->
<g id="node15" class="node">
<title>CLONE_6</title>
<polygon fill="none" stroke="black" stroke-dasharray="5,2" points="370,-798 197,-798 197,-730 370,-730 370,-798"/>
<text text-anchor="middle" x="283.5" y="-782.8" font-family="Times New Roman,serif" font-size="14.00">friendly_name: Constant_80</text>
<text text-anchor="middle" x="283.5" y="-767.8" font-family="Times New Roman,serif" font-size="14.00">type_name: Constant</text>
<text text-anchor="middle" x="283.5" y="-752.8" font-family="Times New Roman,serif" font-size="14.00">{f32}[]</text>
<text text-anchor="middle" x="283.5" y="-737.8" font-family="Times New Roman,serif" font-size="14.00">value: [&#45;1.28]</text>
</g>
<!-- CLONE_6&#45;&gt;FakeQuantize_84 -->
<g id="edge14" class="edge">
<title>CLONE_6&#45;&gt;FakeQuantize_84</title>
<path fill="none" stroke="black" d="M345.07,-729.86C370.33,-716.26 400.68,-699.92 430.81,-683.7"/>
<polygon fill="black" stroke="black" points="432.58,-686.72 439.72,-678.9 429.26,-680.56 432.58,-686.72"/>
<text text-anchor="middle" x="422.5" y="-700.8" font-family="Times New Roman,serif" font-size="14.00"> 0 &#45;&gt; 1 </text>
</g>
<!-- CLONE_7 -->
<g id="node16" class="node">
<title>CLONE_7</title>
<polygon fill="none" stroke="black" stroke-dasharray="5,2" points="561,-798 388,-798 388,-730 561,-730 561,-798"/>
<text text-anchor="middle" x="474.5" y="-782.8" font-family="Times New Roman,serif" font-size="14.00">friendly_name: Constant_81</text>
<text text-anchor="middle" x="474.5" y="-767.8" font-family="Times New Roman,serif" font-size="14.00">type_name: Constant</text>
<text text-anchor="middle" x="474.5" y="-752.8" font-family="Times New Roman,serif" font-size="14.00">{f32}[]</text>
<text text-anchor="middle" x="474.5" y="-737.8" font-family="Times New Roman,serif" font-size="14.00">value: [1.27]</text>
</g>
<!-- CLONE_7&#45;&gt;FakeQuantize_84 -->
<g id="edge15" class="edge">
<title>CLONE_7&#45;&gt;FakeQuantize_84</title>
<path fill="none" stroke="black" d="M495.09,-729.86C502.83,-717.4 512,-702.65 521.23,-687.8"/>
<polygon fill="black" stroke="black" points="524.35,-689.4 526.66,-679.06 518.41,-685.71 524.35,-689.4"/>
<text text-anchor="middle" x="535.5" y="-700.8" font-family="Times New Roman,serif" font-size="14.00"> 0 &#45;&gt; 2 </text>
</g>
<!-- CLONE_8 -->
<g id="node17" class="node">
<title>CLONE_8</title>
<polygon fill="none" stroke="black" stroke-dasharray="5,2" points="752,-798 579,-798 579,-730 752,-730 752,-798"/>
<text text-anchor="middle" x="665.5" y="-782.8" font-family="Times New Roman,serif" font-size="14.00">friendly_name: Constant_82</text>
<text text-anchor="middle" x="665.5" y="-767.8" font-family="Times New Roman,serif" font-size="14.00">type_name: Constant</text>
<text text-anchor="middle" x="665.5" y="-752.8" font-family="Times New Roman,serif" font-size="14.00">{f32}[]</text>
<text text-anchor="middle" x="665.5" y="-737.8" font-family="Times New Roman,serif" font-size="14.00">value: [&#45;1.28]</text>
</g>
<!-- CLONE_8&#45;&gt;FakeQuantize_84 -->
<g id="edge16" class="edge">
<title>CLONE_8&#45;&gt;FakeQuantize_84</title>
<path fill="none" stroke="black" d="M645.12,-729.86C637.46,-717.4 628.39,-702.65 619.26,-687.8"/>
<polygon fill="black" stroke="black" points="622.11,-685.75 613.89,-679.06 616.14,-689.41 622.11,-685.75"/>
<text text-anchor="middle" x="653.5" y="-700.8" font-family="Times New Roman,serif" font-size="14.00"> 0 &#45;&gt; 3 </text>
</g>
<!-- CLONE_9 -->
<g id="node18" class="node">
<title>CLONE_9</title>
<polygon fill="none" stroke="black" stroke-dasharray="5,2" points="943,-798 770,-798 770,-730 943,-730 943,-798"/>
<text text-anchor="middle" x="856.5" y="-782.8" font-family="Times New Roman,serif" font-size="14.00">friendly_name: Constant_83</text>
<text text-anchor="middle" x="856.5" y="-767.8" font-family="Times New Roman,serif" font-size="14.00">type_name: Constant</text>
<text text-anchor="middle" x="856.5" y="-752.8" font-family="Times New Roman,serif" font-size="14.00">{f32}[]</text>
<text text-anchor="middle" x="856.5" y="-737.8" font-family="Times New Roman,serif" font-size="14.00">value: [1.27]</text>
</g>
<!-- CLONE_9&#45;&gt;FakeQuantize_84 -->
<g id="edge17" class="edge">
<title>CLONE_9&#45;&gt;FakeQuantize_84</title>
<path fill="none" stroke="black" d="M795.15,-729.86C770.05,-716.3 739.91,-700.01 709.97,-683.84"/>
<polygon fill="black" stroke="black" points="711.58,-680.73 701.12,-679.06 708.25,-686.89 711.58,-680.73"/>
<text text-anchor="middle" x="777.5" y="-700.8" font-family="Times New Roman,serif" font-size="14.00"> 0 &#45;&gt; 4 </text>
</g>
</g>
</svg>
