<?xml version="1.0" encoding="UTF-8" standalone="no"?>
<!DOCTYPE svg PUBLIC "-//W3C//DTD SVG 1.1//EN"
 "http://www.w3.org/Graphics/SVG/1.1/DTD/svg11.dtd">
<!-- Generated by graphviz version 2.43.20200408.0903 (20200408.0903)
 -->
<!-- Title: ngraph Pages: 1 -->
<svg width="1912pt" height="836pt"
 viewBox="0.00 0.00 1912.00 836.00" xmlns="http://www.w3.org/2000/svg" xmlns:xlink="http://www.w3.org/1999/xlink">
<g id="graph0" class="graph" transform="scale(1 1) rotate(0) translate(4 832)">
<title>ngraph</title>
<polygon fill="white" stroke="transparent" points="-4,4 -4,-832 1908,-832 1908,4 -4,4"/>
<!-- Concat_95 -->
<g id="node1" class="node">
<title>Concat_95</title>
<polygon fill="none" stroke="black" points="1211,-232 924,-232 924,-119 1211,-119 1211,-232"/>
<text text-anchor="middle" x="1067.5" y="-216.8" font-family="Times New Roman,serif" font-size="14.00">friendly_name: output</text>
<text text-anchor="middle" x="1067.5" y="-201.8" font-family="Times New Roman,serif" font-size="14.00">name: Concat_95</text>
<text text-anchor="middle" x="1067.5" y="-186.8" font-family="Times New Roman,serif" font-size="14.00">type_name: Concat</text>
<text text-anchor="middle" x="1067.5" y="-171.8" font-family="Times New Roman,serif" font-size="14.00">rt info: &#160;PRECISION_PRESERVED(value: true)</text>
<text text-anchor="middle" x="1067.5" y="-156.8" font-family="Times New Roman,serif" font-size="14.00">in0: {f32}[1,3,9,9]: MaxPool_86: out0</text>
<text text-anchor="middle" x="1067.5" y="-141.8" font-family="Times New Roman,serif" font-size="14.00">in1: {f32}[1,3,9,9]: MaxPool_94: out0</text>
<text text-anchor="middle" x="1067.5" y="-126.8" font-family="Times New Roman,serif" font-size="14.00">out0: {f32}[1,6,9,9]</text>
</g>
<!-- Result_96 -->
<g id="node2" class="node">
<title>Result_96</title>
<polygon fill="none" stroke="crimson" stroke-width="1.5" points="1176.5,-68 958.5,-68 958.5,0 1176.5,0 1176.5,-68"/>
<text text-anchor="middle" x="1067.5" y="-52.8" font-family="Times New Roman,serif" font-size="14.00">friendly_name: Result_96</text>
<text text-anchor="middle" x="1067.5" y="-37.8" font-family="Times New Roman,serif" font-size="14.00">type_name: Result</text>
<text text-anchor="middle" x="1067.5" y="-22.8" font-family="Times New Roman,serif" font-size="14.00">in0: {f32}[1,6,9,9]: Concat_95: out0</text>
<text text-anchor="middle" x="1067.5" y="-7.8" font-family="Times New Roman,serif" font-size="14.00">out0: {f32}[1,6,9,9]</text>
</g>
<!-- Concat_95&#45;&gt;Result_96 -->
<g id="edge1" class="edge">
<title>Concat_95&#45;&gt;Result_96</title>
<path fill="none" stroke="black" d="M1067.5,-118.97C1067.5,-105.55 1067.5,-91.4 1067.5,-78.62"/>
<polygon fill="black" stroke="black" points="1071,-78.25 1067.5,-68.25 1064,-78.25 1071,-78.25"/>
<text text-anchor="middle" x="1088.5" y="-89.8" font-family="Times New Roman,serif" font-size="14.00"> 0 &#45;&gt; 0 </text>
</g>
<!-- MaxPool_86 -->
<g id="node3" class="node">
<title>MaxPool_86</title>
<polygon fill="none" stroke="black" points="1059,-381 772,-381 772,-283 1059,-283 1059,-381"/>
<text text-anchor="middle" x="915.5" y="-365.8" font-family="Times New Roman,serif" font-size="14.00">friendly_name: maxPool1</text>
<text text-anchor="middle" x="915.5" y="-350.8" font-family="Times New Roman,serif" font-size="14.00">name: MaxPool_86</text>
<text text-anchor="middle" x="915.5" y="-335.8" font-family="Times New Roman,serif" font-size="14.00">type_name: MaxPool</text>
<text text-anchor="middle" x="915.5" y="-320.8" font-family="Times New Roman,serif" font-size="14.00">rt info: &#160;PRECISION_PRESERVED(value: true)</text>
<text text-anchor="middle" x="915.5" y="-305.8" font-family="Times New Roman,serif" font-size="14.00">in0: {f32}[1,3,9,9]: AvgPool_85: out0</text>
<text text-anchor="middle" x="915.5" y="-290.8" font-family="Times New Roman,serif" font-size="14.00">out0: {f32}[1,3,9,9]</text>
</g>
<!-- MaxPool_86&#45;&gt;Concat_95 -->
<g id="edge2" class="edge">
<title>MaxPool_86&#45;&gt;Concat_95</title>
<path fill="none" stroke="black" d="M962.76,-282.96C976.27,-269.23 991.19,-254.06 1005.44,-239.58"/>
<polygon fill="black" stroke="black" points="1008.3,-241.66 1012.82,-232.08 1003.31,-236.75 1008.3,-241.66"/>
<text text-anchor="middle" x="1012.5" y="-253.8" font-family="Times New Roman,serif" font-size="14.00"> 0 &#45;&gt; 0 </text>
</g>
<!-- MaxPool_94 -->
<g id="node4" class="node">
<title>MaxPool_94</title>
<polygon fill="none" stroke="black" points="1376,-381 1089,-381 1089,-283 1376,-283 1376,-381"/>
<text text-anchor="middle" x="1232.5" y="-365.8" font-family="Times New Roman,serif" font-size="14.00">friendly_name: maxPool2</text>
<text text-anchor="middle" x="1232.5" y="-350.8" font-family="Times New Roman,serif" font-size="14.00">name: MaxPool_94</text>
<text text-anchor="middle" x="1232.5" y="-335.8" font-family="Times New Roman,serif" font-size="14.00">type_name: MaxPool</text>
<text text-anchor="middle" x="1232.5" y="-320.8" font-family="Times New Roman,serif" font-size="14.00">rt info: &#160;PRECISION_PRESERVED(value: true)</text>
<text text-anchor="middle" x="1232.5" y="-305.8" font-family="Times New Roman,serif" font-size="14.00">in0: {f32}[1,3,9,9]: AvgPool_93: out0</text>
<text text-anchor="middle" x="1232.5" y="-290.8" font-family="Times New Roman,serif" font-size="14.00">out0: {f32}[1,3,9,9]</text>
</g>
<!-- MaxPool_94&#45;&gt;Concat_95 -->
<g id="edge3" class="edge">
<title>MaxPool_94&#45;&gt;Concat_95</title>
<path fill="none" stroke="black" d="M1181.2,-282.96C1166.4,-269.11 1150.03,-253.78 1134.44,-239.18"/>
<polygon fill="black" stroke="black" points="1136.55,-236.36 1126.85,-232.08 1131.76,-241.47 1136.55,-236.36"/>
<text text-anchor="middle" x="1181.5" y="-253.8" font-family="Times New Roman,serif" font-size="14.00"> 0 &#45;&gt; 1 </text>
</g>
<!-- AvgPool_93 -->
<g id="node5" class="node">
<title>AvgPool_93</title>
<polygon fill="none" stroke="black" points="1368.5,-515 1114.5,-515 1114.5,-432 1368.5,-432 1368.5,-515"/>
<text text-anchor="middle" x="1241.5" y="-499.8" font-family="Times New Roman,serif" font-size="14.00">friendly_name: avgPool2</text>
<text text-anchor="middle" x="1241.5" y="-484.8" font-family="Times New Roman,serif" font-size="14.00">name: AvgPool_93</text>
<text text-anchor="middle" x="1241.5" y="-469.8" font-family="Times New Roman,serif" font-size="14.00">type_name: AvgPool</text>
<text text-anchor="middle" x="1241.5" y="-454.8" font-family="Times New Roman,serif" font-size="14.00">in0: {f32}[1,3,9,9]: FakeQuantize_92: out0</text>
<text text-anchor="middle" x="1241.5" y="-439.8" font-family="Times New Roman,serif" font-size="14.00">out0: {f32}[1,3,9,9]</text>
</g>
<!-- AvgPool_93&#45;&gt;MaxPool_94 -->
<g id="edge4" class="edge">
<title>AvgPool_93&#45;&gt;MaxPool_94</title>
<path fill="none" stroke="black" d="M1238.87,-431.78C1238.06,-419.15 1237.14,-404.98 1236.27,-391.4"/>
<polygon fill="black" stroke="black" points="1239.74,-390.92 1235.61,-381.17 1232.76,-391.37 1239.74,-390.92"/>
<text text-anchor="middle" x="1258.5" y="-402.8" font-family="Times New Roman,serif" font-size="14.00"> 0 &#45;&gt; 0 </text>
</g>
<!-- FakeQuantize_92 -->
<g id="node6" class="node">
<title>FakeQuantize_92</title>
<polygon fill="none" stroke="black" points="1470,-709 1209,-709 1209,-566 1470,-566 1470,-709"/>
<text text-anchor="middle" x="1339.5" y="-693.8" font-family="Times New Roman,serif" font-size="14.00">friendly_name: fakeQuantizeOnActivations2</text>
<text text-anchor="middle" x="1339.5" y="-678.8" font-family="Times New Roman,serif" font-size="14.00">name: FakeQuantize_92</text>
<text text-anchor="middle" x="1339.5" y="-663.8" font-family="Times New Roman,serif" font-size="14.00">type_name: FakeQuantize</text>
<text text-anchor="middle" x="1339.5" y="-648.8" font-family="Times New Roman,serif" font-size="14.00">in0: {f32}[1,3,9,9]: Parameter_79: out0</text>
<text text-anchor="middle" x="1339.5" y="-633.8" font-family="Times New Roman,serif" font-size="14.00">in1: {f32}[]: Constant_88: out0</text>
<text text-anchor="middle" x="1339.5" y="-618.8" font-family="Times New Roman,serif" font-size="14.00">in2: {f32}[]: Constant_89: out0</text>
<text text-anchor="middle" x="1339.5" y="-603.8" font-family="Times New Roman,serif" font-size="14.00">in3: {f32}[]: Constant_90: out0</text>
<text text-anchor="middle" x="1339.5" y="-588.8" font-family="Times New Roman,serif" font-size="14.00">in4: {f32}[]: Constant_91: out0</text>
<text text-anchor="middle" x="1339.5" y="-573.8" font-family="Times New Roman,serif" font-size="14.00">out0: {f32}[1,3,9,9]</text>
</g>
<!-- FakeQuantize_92&#45;&gt;AvgPool_93 -->
<g id="edge5" class="edge">
<title>FakeQuantize_92&#45;&gt;AvgPool_93</title>
<path fill="none" stroke="black" d="M1296.8,-565.92C1288.25,-551.78 1279.44,-537.22 1271.44,-523.99"/>
<polygon fill="black" stroke="black" points="1274.21,-521.8 1266.04,-515.06 1268.22,-525.43 1274.21,-521.8"/>
<text text-anchor="middle" x="1305.5" y="-536.8" font-family="Times New Roman,serif" font-size="14.00"> 0 &#45;&gt; 0 </text>
</g>
<!-- CLONE_0 -->
<g id="node7" class="node">
<title>CLONE_0</title>
<polygon fill="none" stroke="blue" stroke-dasharray="5,2" points="1140,-820.5 961,-820.5 961,-767.5 1140,-767.5 1140,-820.5"/>
<text text-anchor="middle" x="1050.5" y="-805.3" font-family="Times New Roman,serif" font-size="14.00">friendly_name: Parameter_79</text>
<text text-anchor="middle" x="1050.5" y="-790.3" font-family="Times New Roman,serif" font-size="14.00">type_name: Parameter</text>
<text text-anchor="middle" x="1050.5" y="-775.3" font-family="Times New Roman,serif" font-size="14.00">{f32}[1,3,9,9]</text>
</g>
<!-- CLONE_0&#45;&gt;FakeQuantize_92 -->
<g id="edge6" class="edge">
<title>CLONE_0&#45;&gt;FakeQuantize_92</title>
<path fill="none" stroke="black" d="M1098.22,-767.49C1126.16,-752.55 1163.02,-732.85 1199.5,-713.34"/>
<polygon fill="black" stroke="black" points="1201.59,-716.2 1208.76,-708.39 1198.29,-710.02 1201.59,-716.2"/>
<text text-anchor="middle" x="1190.5" y="-730.8" font-family="Times New Roman,serif" font-size="14.00"> 0 &#45;&gt; 0 </text>
</g>
<!-- CLONE_1 -->
<g id="node8" class="node">
<title>CLONE_1</title>
<polygon fill="none" stroke="black" stroke-dasharray="5,2" points="1331,-828 1158,-828 1158,-760 1331,-760 1331,-828"/>
<text text-anchor="middle" x="1244.5" y="-812.8" font-family="Times New Roman,serif" font-size="14.00">friendly_name: Constant_88</text>
<text text-anchor="middle" x="1244.5" y="-797.8" font-family="Times New Roman,serif" font-size="14.00">type_name: Constant</text>
<text text-anchor="middle" x="1244.5" y="-782.8" font-family="Times New Roman,serif" font-size="14.00">{f32}[]</text>
<text text-anchor="middle" x="1244.5" y="-767.8" font-family="Times New Roman,serif" font-size="14.00">value: [&#45;0.64]</text>
</g>
<!-- CLONE_1&#45;&gt;FakeQuantize_92 -->
<g id="edge7" class="edge">
<title>CLONE_1&#45;&gt;FakeQuantize_92</title>
<path fill="none" stroke="black" d="M1264.88,-759.86C1272.54,-747.4 1281.61,-732.65 1290.74,-717.8"/>
<polygon fill="black" stroke="black" points="1293.86,-719.41 1296.11,-709.06 1287.89,-715.75 1293.86,-719.41"/>
<text text-anchor="middle" x="1303.5" y="-730.8" font-family="Times New Roman,serif" font-size="14.00"> 0 &#45;&gt; 1 </text>
</g>
<!-- CLONE_2 -->
<g id="node9" class="node">
<title>CLONE_2</title>
<polygon fill="none" stroke="black" stroke-dasharray="5,2" points="1522,-828 1349,-828 1349,-760 1522,-760 1522,-828"/>
<text text-anchor="middle" x="1435.5" y="-812.8" font-family="Times New Roman,serif" font-size="14.00">friendly_name: Constant_89</text>
<text text-anchor="middle" x="1435.5" y="-797.8" font-family="Times New Roman,serif" font-size="14.00">type_name: Constant</text>
<text text-anchor="middle" x="1435.5" y="-782.8" font-family="Times New Roman,serif" font-size="14.00">{f32}[]</text>
<text text-anchor="middle" x="1435.5" y="-767.8" font-family="Times New Roman,serif" font-size="14.00">value: [0.635]</text>
</g>
<!-- CLONE_2&#45;&gt;FakeQuantize_92 -->
<g id="edge8" class="edge">
<title>CLONE_2&#45;&gt;FakeQuantize_92</title>
<path fill="none" stroke="black" d="M1414.91,-759.86C1407.17,-747.4 1398,-732.65 1388.77,-717.8"/>
<polygon fill="black" stroke="black" points="1391.59,-715.71 1383.34,-709.06 1385.65,-719.4 1391.59,-715.71"/>
<text text-anchor="middle" x="1422.5" y="-730.8" font-family="Times New Roman,serif" font-size="14.00"> 0 &#45;&gt; 2 </text>
</g>
<!-- CLONE_3 -->
<g id="node10" class="node">
<title>CLONE_3</title>
<polygon fill="none" stroke="black" stroke-dasharray="5,2" points="1713,-828 1540,-828 1540,-760 1713,-760 1713,-828"/>
<text text-anchor="middle" x="1626.5" y="-812.8" font-family="Times New Roman,serif" font-size="14.00">friendly_name: Constant_90</text>
<text text-anchor="middle" x="1626.5" y="-797.8" font-family="Times New Roman,serif" font-size="14.00">type_name: Constant</text>
<text text-anchor="middle" x="1626.5" y="-782.8" font-family="Times New Roman,serif" font-size="14.00">{f32}[]</text>
<text text-anchor="middle" x="1626.5" y="-767.8" font-family="Times New Roman,serif" font-size="14.00">value: [&#45;0.64]</text>
</g>
<!-- CLONE_3&#45;&gt;FakeQuantize_92 -->
<g id="edge9" class="edge">
<title>CLONE_3&#45;&gt;FakeQuantize_92</title>
<path fill="none" stroke="black" d="M1564.93,-759.86C1539.67,-746.26 1509.32,-729.92 1479.19,-713.7"/>
<polygon fill="black" stroke="black" points="1480.74,-710.56 1470.28,-708.9 1477.42,-716.72 1480.74,-710.56"/>
<text text-anchor="middle" x="1545.5" y="-730.8" font-family="Times New Roman,serif" font-size="14.00"> 0 &#45;&gt; 3 </text>
</g>
<!-- CLONE_4 -->
<g id="node11" class="node">
<title>CLONE_4</title>
<polygon fill="none" stroke="black" stroke-dasharray="5,2" points="1904,-828 1731,-828 1731,-760 1904,-760 1904,-828"/>
<text text-anchor="middle" x="1817.5" y="-812.8" font-family="Times New Roman,serif" font-size="14.00">friendly_name: Constant_91</text>
<text text-anchor="middle" x="1817.5" y="-797.8" font-family="Times New Roman,serif" font-size="14.00">type_name: Constant</text>
<text text-anchor="middle" x="1817.5" y="-782.8" font-family="Times New Roman,serif" font-size="14.00">{f32}[]</text>
<text text-anchor="middle" x="1817.5" y="-767.8" font-family="Times New Roman,serif" font-size="14.00">value: [0.635]</text>
</g>
<!-- CLONE_4&#45;&gt;FakeQuantize_92 -->
<g id="edge10" class="edge">
<title>CLONE_4&#45;&gt;FakeQuantize_92</title>
<path fill="none" stroke="black" d="M1730.81,-762.78C1728.01,-761.84 1725.23,-760.91 1722.5,-760 1642.35,-733.37 1552.36,-704.76 1479.75,-681.99"/>
<polygon fill="black" stroke="black" points="1480.67,-678.61 1470.08,-678.96 1478.57,-685.29 1480.67,-678.61"/>
<text text-anchor="middle" x="1680.5" y="-730.8" font-family="Times New Roman,serif" font-size="14.00"> 0 &#45;&gt; 4 </text>
</g>
<!-- AvgPool_85 -->
<g id="node12" class="node">
<title>AvgPool_85</title>
<polygon fill="none" stroke="black" points="973.5,-515 719.5,-515 719.5,-432 973.5,-432 973.5,-515"/>
<text text-anchor="middle" x="846.5" y="-499.8" font-family="Times New Roman,serif" font-size="14.00">friendly_name: avgPool1</text>
<text text-anchor="middle" x="846.5" y="-484.8" font-family="Times New Roman,serif" font-size="14.00">name: AvgPool_85</text>
<text text-anchor="middle" x="846.5" y="-469.8" font-family="Times New Roman,serif" font-size="14.00">type_name: AvgPool</text>
<text text-anchor="middle" x="846.5" y="-454.8" font-family="Times New Roman,serif" font-size="14.00">in0: {f32}[1,3,9,9]: FakeQuantize_84: out0</text>
<text text-anchor="middle" x="846.5" y="-439.8" font-family="Times New Roman,serif" font-size="14.00">out0: {f32}[1,3,9,9]</text>
</g>
<!-- AvgPool_85&#45;&gt;MaxPool_86 -->
<g id="edge11" class="edge">
<title>AvgPool_85&#45;&gt;MaxPool_86</title>
<path fill="none" stroke="black" d="M866.64,-431.78C873.07,-418.78 880.31,-404.15 887.2,-390.21"/>
<polygon fill="black" stroke="black" points="890.38,-391.68 891.67,-381.17 884.1,-388.58 890.38,-391.68"/>
<text text-anchor="middle" x="902.5" y="-402.8" font-family="Times New Roman,serif" font-size="14.00"> 0 &#45;&gt; 0 </text>
</g>
<!-- FakeQuantize_84 -->
<g id="node13" class="node">
<title>FakeQuantize_84</title>
<polygon fill="none" stroke="black" points="701,-709 440,-709 440,-566 701,-566 701,-709"/>
<text text-anchor="middle" x="570.5" y="-693.8" font-family="Times New Roman,serif" font-size="14.00">friendly_name: fakeQuantizeOnActivations1</text>
<text text-anchor="middle" x="570.5" y="-678.8" font-family="Times New Roman,serif" font-size="14.00">name: FakeQuantize_84</text>
<text text-anchor="middle" x="570.5" y="-663.8" font-family="Times New Roman,serif" font-size="14.00">type_name: FakeQuantize</text>
<text text-anchor="middle" x="570.5" y="-648.8" font-family="Times New Roman,serif" font-size="14.00">in0: {f32}[1,3,9,9]: Parameter_79: out0</text>
<text text-anchor="middle" x="570.5" y="-633.8" font-family="Times New Roman,serif" font-size="14.00">in1: {f32}[]: Constant_80: out0</text>
<text text-anchor="middle" x="570.5" y="-618.8" font-family="Times New Roman,serif" font-size="14.00">in2: {f32}[]: Constant_81: out0</text>
<text text-anchor="middle" x="570.5" y="-603.8" font-family="Times New Roman,serif" font-size="14.00">in3: {f32}[]: Constant_82: out0</text>
<text text-anchor="middle" x="570.5" y="-588.8" font-family="Times New Roman,serif" font-size="14.00">in4: {f32}[]: Constant_83: out0</text>
<text text-anchor="middle" x="570.5" y="-573.8" font-family="Times New Roman,serif" font-size="14.00">out0: {f32}[1,3,9,9]</text>
</g>
<!-- FakeQuantize_84&#45;&gt;AvgPool_85 -->
<g id="edge12" class="edge">
<title>FakeQuantize_84&#45;&gt;AvgPool_85</title>
<path fill="none" stroke="black" d="M690.75,-565.92C717.15,-550.42 744.42,-534.42 768.63,-520.21"/>
<polygon fill="black" stroke="black" points="770.55,-523.14 777.4,-515.06 767,-517.1 770.55,-523.14"/>
<text text-anchor="middle" x="762.5" y="-536.8" font-family="Times New Roman,serif" font-size="14.00"> 0 &#45;&gt; 0 </text>
</g>
<!-- CLONE_5 -->
<g id="node14" class="node">
<title>CLONE_5</title>
<polygon fill="none" stroke="blue" stroke-dasharray="5,2" points="179,-820.5 0,-820.5 0,-767.5 179,-767.5 179,-820.5"/>
<text text-anchor="middle" x="89.5" y="-805.3" font-family="Times New Roman,serif" font-size="14.00">friendly_name: Parameter_79</text>
<text text-anchor="middle" x="89.5" y="-790.3" font-family="Times New Roman,serif" font-size="14.00">type_name: Parameter</text>
<text text-anchor="middle" x="89.5" y="-775.3" font-family="Times New Roman,serif" font-size="14.00">{f32}[1,3,9,9]</text>
</g>
<!-- CLONE_5&#45;&gt;FakeQuantize_84 -->
<g id="edge13" class="edge">
<title>CLONE_5&#45;&gt;FakeQuantize_84</title>
<path fill="none" stroke="black" d="M164.9,-767.46C172.53,-764.92 180.16,-762.4 187.5,-760 267.61,-733.81 357.42,-705.27 429.92,-682.44"/>
<polygon fill="black" stroke="black" points="431.1,-685.74 439.58,-679.4 428.99,-679.07 431.1,-685.74"/>
<text text-anchor="middle" x="303.5" y="-730.8" font-family="Times New Roman,serif" font-size="14.00"> 0 &#45;&gt; 0 </text>
</g>
<!-- CLONE_6 -->
<g id="node15" class="node">
<title>CLONE_6</title>
<polygon fill="none" stroke="black" stroke-dasharray="5,2" points="370,-828 197,-828 197,-760 370,-760 370,-828"/>
<text text-anchor="middle" x="283.5" y="-812.8" font-family="Times New Roman,serif" font-size="14.00">friendly_name: Constant_80</text>
<text text-anchor="middle" x="283.5" y="-797.8" font-family="Times New Roman,serif" font-size="14.00">type_name: Constant</text>
<text text-anchor="middle" x="283.5" y="-782.8" font-family="Times New Roman,serif" font-size="14.00">{f32}[]</text>
<text text-anchor="middle" x="283.5" y="-767.8" font-family="Times New Roman,serif" font-size="14.00">value: [&#45;1.28]</text>
</g>
<!-- CLONE_6&#45;&gt;FakeQuantize_84 -->
<g id="edge14" class="edge">
<title>CLONE_6&#45;&gt;FakeQuantize_84</title>
<path fill="none" stroke="black" d="M345.07,-759.86C370.33,-746.26 400.68,-729.92 430.81,-713.7"/>
<polygon fill="black" stroke="black" points="432.58,-716.72 439.72,-708.9 429.26,-710.56 432.58,-716.72"/>
<text text-anchor="middle" x="422.5" y="-730.8" font-family="Times New Roman,serif" font-size="14.00"> 0 &#45;&gt; 1 </text>
</g>
<!-- CLONE_7 -->
<g id="node16" class="node">
<title>CLONE_7</title>
<polygon fill="none" stroke="black" stroke-dasharray="5,2" points="561,-828 388,-828 388,-760 561,-760 561,-828"/>
<text text-anchor="middle" x="474.5" y="-812.8" font-family="Times New Roman,serif" font-size="14.00">friendly_name: Constant_81</text>
<text text-anchor="middle" x="474.5" y="-797.8" font-family="Times New Roman,serif" font-size="14.00">type_name: Constant</text>
<text text-anchor="middle" x="474.5" y="-782.8" font-family="Times New Roman,serif" font-size="14.00">{f32}[]</text>
<text text-anchor="middle" x="474.5" y="-767.8" font-family="Times New Roman,serif" font-size="14.00">value: [1.27]</text>
</g>
<!-- CLONE_7&#45;&gt;FakeQuantize_84 -->
<g id="edge15" class="edge">
<title>CLONE_7&#45;&gt;FakeQuantize_84</title>
<path fill="none" stroke="black" d="M495.09,-759.86C502.83,-747.4 512,-732.65 521.23,-717.8"/>
<polygon fill="black" stroke="black" points="524.35,-719.4 526.66,-709.06 518.41,-715.71 524.35,-719.4"/>
<text text-anchor="middle" x="535.5" y="-730.8" font-family="Times New Roman,serif" font-size="14.00"> 0 &#45;&gt; 2 </text>
</g>
<!-- CLONE_8 -->
<g id="node17" class="node">
<title>CLONE_8</title>
<polygon fill="none" stroke="black" stroke-dasharray="5,2" points="752,-828 579,-828 579,-760 752,-760 752,-828"/>
<text text-anchor="middle" x="665.5" y="-812.8" font-family="Times New Roman,serif" font-size="14.00">friendly_name: Constant_82</text>
<text text-anchor="middle" x="665.5" y="-797.8" font-family="Times New Roman,serif" font-size="14.00">type_name: Constant</text>
<text text-anchor="middle" x="665.5" y="-782.8" font-family="Times New Roman,serif" font-size="14.00">{f32}[]</text>
<text text-anchor="middle" x="665.5" y="-767.8" font-family="Times New Roman,serif" font-size="14.00">value: [&#45;1.28]</text>
</g>
<!-- CLONE_8&#45;&gt;FakeQuantize_84 -->
<g id="edge16" class="edge">
<title>CLONE_8&#45;&gt;FakeQuantize_84</title>
<path fill="none" stroke="black" d="M645.12,-759.86C637.46,-747.4 628.39,-732.65 619.26,-717.8"/>
<polygon fill="black" stroke="black" points="622.11,-715.75 613.89,-709.06 616.14,-719.41 622.11,-715.75"/>
<text text-anchor="middle" x="653.5" y="-730.8" font-family="Times New Roman,serif" font-size="14.00"> 0 &#45;&gt; 3 </text>
</g>
<!-- CLONE_9 -->
<g id="node18" class="node">
<title>CLONE_9</title>
<polygon fill="none" stroke="black" stroke-dasharray="5,2" points="943,-828 770,-828 770,-760 943,-760 943,-828"/>
<text text-anchor="middle" x="856.5" y="-812.8" font-family="Times New Roman,serif" font-size="14.00">friendly_name: Constant_83</text>
<text text-anchor="middle" x="856.5" y="-797.8" font-family="Times New Roman,serif" font-size="14.00">type_name: Constant</text>
<text text-anchor="middle" x="856.5" y="-782.8" font-family="Times New Roman,serif" font-size="14.00">{f32}[]</text>
<text text-anchor="middle" x="856.5" y="-767.8" font-family="Times New Roman,serif" font-size="14.00">value: [1.27]</text>
</g>
<!-- CLONE_9&#45;&gt;FakeQuantize_84 -->
<g id="edge17" class="edge">
<title>CLONE_9&#45;&gt;FakeQuantize_84</title>
<path fill="none" stroke="black" d="M795.15,-759.86C770.05,-746.3 739.91,-730.01 709.97,-713.84"/>
<polygon fill="black" stroke="black" points="711.58,-710.73 701.12,-709.06 708.25,-716.89 711.58,-710.73"/>
<text text-anchor="middle" x="777.5" y="-730.8" font-family="Times New Roman,serif" font-size="14.00"> 0 &#45;&gt; 4 </text>
</g>
</g>
</svg>
