<?xml version="1.0" encoding="UTF-8" standalone="no"?>
<!DOCTYPE svg PUBLIC "-//W3C//DTD SVG 1.1//EN"
 "http://www.w3.org/Graphics/SVG/1.1/DTD/svg11.dtd">
<!-- Generated by graphviz version 2.43.20200408.0903 (20200408.0903)
 -->
<!-- Title: ngraph Pages: 1 -->
<svg width="1912pt" height="851pt"
 viewBox="0.00 0.00 1912.00 851.00" xmlns="http://www.w3.org/2000/svg" xmlns:xlink="http://www.w3.org/1999/xlink">
<g id="graph0" class="graph" transform="scale(1 1) rotate(0) translate(4 847)">
<title>ngraph</title>
<polygon fill="white" stroke="transparent" points="-4,4 -4,-847 1908,-847 1908,4 -4,4"/>
<!-- Concat_95 -->
<g id="node1" class="node">
<title>Concat_95</title>
<polygon fill="none" stroke="black" points="1177.5,-232 747.5,-232 747.5,-119 1177.5,-119 1177.5,-232"/>
<text text-anchor="middle" x="962.5" y="-216.8" font-family="Times New Roman,serif" font-size="14.00">friendly_name: output</text>
<text text-anchor="middle" x="962.5" y="-201.8" font-family="Times New Roman,serif" font-size="14.00">name: Concat_95</text>
<text text-anchor="middle" x="962.5" y="-186.8" font-family="Times New Roman,serif" font-size="14.00">type_name: Concat</text>
<text text-anchor="middle" x="962.5" y="-171.8" font-family="Times New Roman,serif" font-size="14.00">rt info: &#160;PRECISION_PRESERVED(value: true, operation: FakeQuantize)</text>
<text text-anchor="middle" x="962.5" y="-156.8" font-family="Times New Roman,serif" font-size="14.00">in0: {f32}[1,3,9,9]: MaxPool_86: out0</text>
<text text-anchor="middle" x="962.5" y="-141.8" font-family="Times New Roman,serif" font-size="14.00">in1: {f32}[1,3,9,9]: MaxPool_94: out0</text>
<text text-anchor="middle" x="962.5" y="-126.8" font-family="Times New Roman,serif" font-size="14.00">out0: {f32}[1,6,9,9]</text>
</g>
<!-- Result_96 -->
<g id="node2" class="node">
<title>Result_96</title>
<polygon fill="none" stroke="crimson" stroke-width="1.5" points="1071.5,-68 853.5,-68 853.5,0 1071.5,0 1071.5,-68"/>
<text text-anchor="middle" x="962.5" y="-52.8" font-family="Times New Roman,serif" font-size="14.00">friendly_name: Result_96</text>
<text text-anchor="middle" x="962.5" y="-37.8" font-family="Times New Roman,serif" font-size="14.00">type_name: Result</text>
<text text-anchor="middle" x="962.5" y="-22.8" font-family="Times New Roman,serif" font-size="14.00">in0: {f32}[1,6,9,9]: Concat_95: out0</text>
<text text-anchor="middle" x="962.5" y="-7.8" font-family="Times New Roman,serif" font-size="14.00">out0: {f32}[1,6,9,9]</text>
</g>
<!-- Concat_95&#45;&gt;Result_96 -->
<g id="edge1" class="edge">
<title>Concat_95&#45;&gt;Result_96</title>
<path fill="none" stroke="black" d="M962.5,-118.97C962.5,-105.55 962.5,-91.4 962.5,-78.62"/>
<polygon fill="black" stroke="black" points="966,-78.25 962.5,-68.25 959,-78.25 966,-78.25"/>
<text text-anchor="middle" x="983.5" y="-89.8" font-family="Times New Roman,serif" font-size="14.00"> 0 &#45;&gt; 0 </text>
</g>
<!-- MaxPool_86 -->
<g id="node3" class="node">
<title>MaxPool_86</title>
<polygon fill="none" stroke="black" points="954.5,-381 524.5,-381 524.5,-283 954.5,-283 954.5,-381"/>
<text text-anchor="middle" x="739.5" y="-365.8" font-family="Times New Roman,serif" font-size="14.00">friendly_name: maxPool1</text>
<text text-anchor="middle" x="739.5" y="-350.8" font-family="Times New Roman,serif" font-size="14.00">name: MaxPool_86</text>
<text text-anchor="middle" x="739.5" y="-335.8" font-family="Times New Roman,serif" font-size="14.00">type_name: MaxPool</text>
<text text-anchor="middle" x="739.5" y="-320.8" font-family="Times New Roman,serif" font-size="14.00">rt info: &#160;PRECISION_PRESERVED(value: true, operation: FakeQuantize)</text>
<text text-anchor="middle" x="739.5" y="-305.8" font-family="Times New Roman,serif" font-size="14.00">in0: {f32}[1,3,9,9]: AvgPool_85: out0</text>
<text text-anchor="middle" x="739.5" y="-290.8" font-family="Times New Roman,serif" font-size="14.00">out0: {f32}[1,3,9,9]</text>
</g>
<!-- MaxPool_86&#45;&gt;Concat_95 -->
<g id="edge2" class="edge">
<title>MaxPool_86&#45;&gt;Concat_95</title>
<path fill="none" stroke="black" d="M808.84,-282.96C829.47,-268.67 852.36,-252.81 874.04,-237.79"/>
<polygon fill="black" stroke="black" points="876.06,-240.65 882.28,-232.08 872.07,-234.89 876.06,-240.65"/>
<text text-anchor="middle" x="872.5" y="-253.8" font-family="Times New Roman,serif" font-size="14.00"> 0 &#45;&gt; 0 </text>
</g>
<!-- MaxPool_94 -->
<g id="node4" class="node">
<title>MaxPool_94</title>
<polygon fill="none" stroke="black" points="1402.5,-381 972.5,-381 972.5,-283 1402.5,-283 1402.5,-381"/>
<text text-anchor="middle" x="1187.5" y="-365.8" font-family="Times New Roman,serif" font-size="14.00">friendly_name: maxPool2</text>
<text text-anchor="middle" x="1187.5" y="-350.8" font-family="Times New Roman,serif" font-size="14.00">name: MaxPool_94</text>
<text text-anchor="middle" x="1187.5" y="-335.8" font-family="Times New Roman,serif" font-size="14.00">type_name: MaxPool</text>
<text text-anchor="middle" x="1187.5" y="-320.8" font-family="Times New Roman,serif" font-size="14.00">rt info: &#160;PRECISION_PRESERVED(value: true, operation: FakeQuantize)</text>
<text text-anchor="middle" x="1187.5" y="-305.8" font-family="Times New Roman,serif" font-size="14.00">in0: {f32}[1,3,9,9]: AvgPool_93: out0</text>
<text text-anchor="middle" x="1187.5" y="-290.8" font-family="Times New Roman,serif" font-size="14.00">out0: {f32}[1,3,9,9]</text>
</g>
<!-- MaxPool_94&#45;&gt;Concat_95 -->
<g id="edge3" class="edge">
<title>MaxPool_94&#45;&gt;Concat_95</title>
<path fill="none" stroke="black" d="M1117.54,-282.96C1096.72,-268.67 1073.62,-252.81 1051.75,-237.79"/>
<polygon fill="black" stroke="black" points="1053.66,-234.85 1043.44,-232.08 1049.7,-240.62 1053.66,-234.85"/>
<text text-anchor="middle" x="1109.5" y="-253.8" font-family="Times New Roman,serif" font-size="14.00"> 0 &#45;&gt; 1 </text>
</g>
<!-- AvgPool_93 -->
<g id="node5" class="node">
<title>AvgPool_93</title>
<polygon fill="none" stroke="black" points="1430.5,-530 1000.5,-530 1000.5,-432 1430.5,-432 1430.5,-530"/>
<text text-anchor="middle" x="1215.5" y="-514.8" font-family="Times New Roman,serif" font-size="14.00">friendly_name: avgPool2</text>
<text text-anchor="middle" x="1215.5" y="-499.8" font-family="Times New Roman,serif" font-size="14.00">name: AvgPool_93</text>
<text text-anchor="middle" x="1215.5" y="-484.8" font-family="Times New Roman,serif" font-size="14.00">type_name: AvgPool</text>
<text text-anchor="middle" x="1215.5" y="-469.8" font-family="Times New Roman,serif" font-size="14.00">rt info: &#160;PRECISION_PRESERVED(value: true, operation: FakeQuantize)</text>
<text text-anchor="middle" x="1215.5" y="-454.8" font-family="Times New Roman,serif" font-size="14.00">in0: {f32}[1,3,9,9]: FakeQuantize_92: out0</text>
<text text-anchor="middle" x="1215.5" y="-439.8" font-family="Times New Roman,serif" font-size="14.00">out0: {f32}[1,3,9,9]</text>
</g>
<!-- AvgPool_93&#45;&gt;MaxPool_94 -->
<g id="edge4" class="edge">
<title>AvgPool_93&#45;&gt;MaxPool_94</title>
<path fill="none" stroke="black" d="M1206.33,-431.87C1203.87,-418.92 1201.17,-404.78 1198.61,-391.35"/>
<polygon fill="black" stroke="black" points="1202,-390.41 1196.69,-381.24 1195.12,-391.72 1202,-390.41"/>
<text text-anchor="middle" x="1223.5" y="-402.8" font-family="Times New Roman,serif" font-size="14.00"> 0 &#45;&gt; 0 </text>
</g>
<!-- FakeQuantize_92 -->
<g id="node6" class="node">
<title>FakeQuantize_92</title>
<polygon fill="none" stroke="black" points="1470,-724 1209,-724 1209,-581 1470,-581 1470,-724"/>
<text text-anchor="middle" x="1339.5" y="-708.8" font-family="Times New Roman,serif" font-size="14.00">friendly_name: fakeQuantizeOnActivations2</text>
<text text-anchor="middle" x="1339.5" y="-693.8" font-family="Times New Roman,serif" font-size="14.00">name: FakeQuantize_92</text>
<text text-anchor="middle" x="1339.5" y="-678.8" font-family="Times New Roman,serif" font-size="14.00">type_name: FakeQuantize</text>
<text text-anchor="middle" x="1339.5" y="-663.8" font-family="Times New Roman,serif" font-size="14.00">in0: {f32}[1,3,9,9]: Parameter_79: out0</text>
<text text-anchor="middle" x="1339.5" y="-648.8" font-family="Times New Roman,serif" font-size="14.00">in1: {f32}[]: Constant_88: out0</text>
<text text-anchor="middle" x="1339.5" y="-633.8" font-family="Times New Roman,serif" font-size="14.00">in2: {f32}[]: Constant_89: out0</text>
<text text-anchor="middle" x="1339.5" y="-618.8" font-family="Times New Roman,serif" font-size="14.00">in3: {f32}[]: Constant_90: out0</text>
<text text-anchor="middle" x="1339.5" y="-603.8" font-family="Times New Roman,serif" font-size="14.00">in4: {f32}[]: Constant_91: out0</text>
<text text-anchor="middle" x="1339.5" y="-588.8" font-family="Times New Roman,serif" font-size="14.00">out0: {f32}[1,3,9,9]</text>
</g>
<!-- FakeQuantize_92&#45;&gt;AvgPool_93 -->
<g id="edge5" class="edge">
<title>FakeQuantize_92&#45;&gt;AvgPool_93</title>
<path fill="none" stroke="black" d="M1287.63,-580.6C1277.35,-566.55 1266.69,-551.98 1256.83,-538.49"/>
<polygon fill="black" stroke="black" points="1259.52,-536.25 1250.79,-530.24 1253.87,-540.38 1259.52,-536.25"/>
<text text-anchor="middle" x="1294.5" y="-551.8" font-family="Times New Roman,serif" font-size="14.00"> 0 &#45;&gt; 0 </text>
</g>
<!-- CLONE_0 -->
<g id="node7" class="node">
<title>CLONE_0</title>
<polygon fill="none" stroke="blue" stroke-dasharray="5,2" points="1140,-835.5 961,-835.5 961,-782.5 1140,-782.5 1140,-835.5"/>
<text text-anchor="middle" x="1050.5" y="-820.3" font-family="Times New Roman,serif" font-size="14.00">friendly_name: Parameter_79</text>
<text text-anchor="middle" x="1050.5" y="-805.3" font-family="Times New Roman,serif" font-size="14.00">type_name: Parameter</text>
<text text-anchor="middle" x="1050.5" y="-790.3" font-family="Times New Roman,serif" font-size="14.00">{f32}[1,3,9,9]</text>
</g>
<!-- CLONE_0&#45;&gt;FakeQuantize_92 -->
<g id="edge6" class="edge">
<title>CLONE_0&#45;&gt;FakeQuantize_92</title>
<path fill="none" stroke="black" d="M1098.22,-782.49C1126.16,-767.55 1163.02,-747.85 1199.5,-728.34"/>
<polygon fill="black" stroke="black" points="1201.59,-731.2 1208.76,-723.39 1198.29,-725.02 1201.59,-731.2"/>
<text text-anchor="middle" x="1190.5" y="-745.8" font-family="Times New Roman,serif" font-size="14.00"> 0 &#45;&gt; 0 </text>
</g>
<!-- CLONE_1 -->
<g id="node8" class="node">
<title>CLONE_1</title>
<polygon fill="none" stroke="black" stroke-dasharray="5,2" points="1331,-843 1158,-843 1158,-775 1331,-775 1331,-843"/>
<text text-anchor="middle" x="1244.5" y="-827.8" font-family="Times New Roman,serif" font-size="14.00">friendly_name: Constant_88</text>
<text text-anchor="middle" x="1244.5" y="-812.8" font-family="Times New Roman,serif" font-size="14.00">type_name: Constant</text>
<text text-anchor="middle" x="1244.5" y="-797.8" font-family="Times New Roman,serif" font-size="14.00">{f32}[]</text>
<text text-anchor="middle" x="1244.5" y="-782.8" font-family="Times New Roman,serif" font-size="14.00">value: [&#45;0.64]</text>
</g>
<!-- CLONE_1&#45;&gt;FakeQuantize_92 -->
<g id="edge7" class="edge">
<title>CLONE_1&#45;&gt;FakeQuantize_92</title>
<path fill="none" stroke="black" d="M1264.88,-774.86C1272.54,-762.4 1281.61,-747.65 1290.74,-732.8"/>
<polygon fill="black" stroke="black" points="1293.86,-734.41 1296.11,-724.06 1287.89,-730.75 1293.86,-734.41"/>
<text text-anchor="middle" x="1303.5" y="-745.8" font-family="Times New Roman,serif" font-size="14.00"> 0 &#45;&gt; 1 </text>
</g>
<!-- CLONE_2 -->
<g id="node9" class="node">
<title>CLONE_2</title>
<polygon fill="none" stroke="black" stroke-dasharray="5,2" points="1522,-843 1349,-843 1349,-775 1522,-775 1522,-843"/>
<text text-anchor="middle" x="1435.5" y="-827.8" font-family="Times New Roman,serif" font-size="14.00">friendly_name: Constant_89</text>
<text text-anchor="middle" x="1435.5" y="-812.8" font-family="Times New Roman,serif" font-size="14.00">type_name: Constant</text>
<text text-anchor="middle" x="1435.5" y="-797.8" font-family="Times New Roman,serif" font-size="14.00">{f32}[]</text>
<text text-anchor="middle" x="1435.5" y="-782.8" font-family="Times New Roman,serif" font-size="14.00">value: [0.635]</text>
</g>
<!-- CLONE_2&#45;&gt;FakeQuantize_92 -->
<g id="edge8" class="edge">
<title>CLONE_2&#45;&gt;FakeQuantize_92</title>
<path fill="none" stroke="black" d="M1414.91,-774.86C1407.17,-762.4 1398,-747.65 1388.77,-732.8"/>
<polygon fill="black" stroke="black" points="1391.59,-730.71 1383.34,-724.06 1385.65,-734.4 1391.59,-730.71"/>
<text text-anchor="middle" x="1422.5" y="-745.8" font-family="Times New Roman,serif" font-size="14.00"> 0 &#45;&gt; 2 </text>
</g>
<!-- CLONE_3 -->
<g id="node10" class="node">
<title>CLONE_3</title>
<polygon fill="none" stroke="black" stroke-dasharray="5,2" points="1713,-843 1540,-843 1540,-775 1713,-775 1713,-843"/>
<text text-anchor="middle" x="1626.5" y="-827.8" font-family="Times New Roman,serif" font-size="14.00">friendly_name: Constant_90</text>
<text text-anchor="middle" x="1626.5" y="-812.8" font-family="Times New Roman,serif" font-size="14.00">type_name: Constant</text>
<text text-anchor="middle" x="1626.5" y="-797.8" font-family="Times New Roman,serif" font-size="14.00">{f32}[]</text>
<text text-anchor="middle" x="1626.5" y="-782.8" font-family="Times New Roman,serif" font-size="14.00">value: [&#45;0.64]</text>
</g>
<!-- CLONE_3&#45;&gt;FakeQuantize_92 -->
<g id="edge9" class="edge">
<title>CLONE_3&#45;&gt;FakeQuantize_92</title>
<path fill="none" stroke="black" d="M1564.93,-774.86C1539.67,-761.26 1509.32,-744.92 1479.19,-728.7"/>
<polygon fill="black" stroke="black" points="1480.74,-725.56 1470.28,-723.9 1477.42,-731.72 1480.74,-725.56"/>
<text text-anchor="middle" x="1545.5" y="-745.8" font-family="Times New Roman,serif" font-size="14.00"> 0 &#45;&gt; 3 </text>
</g>
<!-- CLONE_4 -->
<g id="node11" class="node">
<title>CLONE_4</title>
<polygon fill="none" stroke="black" stroke-dasharray="5,2" points="1904,-843 1731,-843 1731,-775 1904,-775 1904,-843"/>
<text text-anchor="middle" x="1817.5" y="-827.8" font-family="Times New Roman,serif" font-size="14.00">friendly_name: Constant_91</text>
<text text-anchor="middle" x="1817.5" y="-812.8" font-family="Times New Roman,serif" font-size="14.00">type_name: Constant</text>
<text text-anchor="middle" x="1817.5" y="-797.8" font-family="Times New Roman,serif" font-size="14.00">{f32}[]</text>
<text text-anchor="middle" x="1817.5" y="-782.8" font-family="Times New Roman,serif" font-size="14.00">value: [0.635]</text>
</g>
<!-- CLONE_4&#45;&gt;FakeQuantize_92 -->
<g id="edge10" class="edge">
<title>CLONE_4&#45;&gt;FakeQuantize_92</title>
<path fill="none" stroke="black" d="M1730.81,-777.78C1728.01,-776.84 1725.23,-775.91 1722.5,-775 1642.35,-748.37 1552.36,-719.76 1479.75,-696.99"/>
<polygon fill="black" stroke="black" points="1480.67,-693.61 1470.08,-693.96 1478.57,-700.29 1480.67,-693.61"/>
<text text-anchor="middle" x="1680.5" y="-745.8" font-family="Times New Roman,serif" font-size="14.00"> 0 &#45;&gt; 4 </text>
</g>
<!-- AvgPool_85 -->
<g id="node12" class="node">
<title>AvgPool_85</title>
<polygon fill="none" stroke="black" points="954.5,-530 524.5,-530 524.5,-432 954.5,-432 954.5,-530"/>
<text text-anchor="middle" x="739.5" y="-514.8" font-family="Times New Roman,serif" font-size="14.00">friendly_name: avgPool1</text>
<text text-anchor="middle" x="739.5" y="-499.8" font-family="Times New Roman,serif" font-size="14.00">name: AvgPool_85</text>
<text text-anchor="middle" x="739.5" y="-484.8" font-family="Times New Roman,serif" font-size="14.00">type_name: AvgPool</text>
<text text-anchor="middle" x="739.5" y="-469.8" font-family="Times New Roman,serif" font-size="14.00">rt info: &#160;PRECISION_PRESERVED(value: true, operation: FakeQuantize)</text>
<text text-anchor="middle" x="739.5" y="-454.8" font-family="Times New Roman,serif" font-size="14.00">in0: {f32}[1,3,9,9]: FakeQuantize_84: out0</text>
<text text-anchor="middle" x="739.5" y="-439.8" font-family="Times New Roman,serif" font-size="14.00">out0: {f32}[1,3,9,9]</text>
</g>
<!-- AvgPool_85&#45;&gt;MaxPool_86 -->
<g id="edge11" class="edge">
<title>AvgPool_85&#45;&gt;MaxPool_86</title>
<path fill="none" stroke="black" d="M739.5,-431.87C739.5,-418.92 739.5,-404.78 739.5,-391.35"/>
<polygon fill="black" stroke="black" points="743,-391.24 739.5,-381.24 736,-391.24 743,-391.24"/>
<text text-anchor="middle" x="760.5" y="-402.8" font-family="Times New Roman,serif" font-size="14.00"> 0 &#45;&gt; 0 </text>
</g>
<!-- FakeQuantize_84 -->
<g id="node13" class="node">
<title>FakeQuantize_84</title>
<polygon fill="none" stroke="black" points="701,-724 440,-724 440,-581 701,-581 701,-724"/>
<text text-anchor="middle" x="570.5" y="-708.8" font-family="Times New Roman,serif" font-size="14.00">friendly_name: fakeQuantizeOnActivations1</text>
<text text-anchor="middle" x="570.5" y="-693.8" font-family="Times New Roman,serif" font-size="14.00">name: FakeQuantize_84</text>
<text text-anchor="middle" x="570.5" y="-678.8" font-family="Times New Roman,serif" font-size="14.00">type_name: FakeQuantize</text>
<text text-anchor="middle" x="570.5" y="-663.8" font-family="Times New Roman,serif" font-size="14.00">in0: {f32}[1,3,9,9]: Parameter_79: out0</text>
<text text-anchor="middle" x="570.5" y="-648.8" font-family="Times New Roman,serif" font-size="14.00">in1: {f32}[]: Constant_80: out0</text>
<text text-anchor="middle" x="570.5" y="-633.8" font-family="Times New Roman,serif" font-size="14.00">in2: {f32}[]: Constant_81: out0</text>
<text text-anchor="middle" x="570.5" y="-618.8" font-family="Times New Roman,serif" font-size="14.00">in3: {f32}[]: Constant_82: out0</text>
<text text-anchor="middle" x="570.5" y="-603.8" font-family="Times New Roman,serif" font-size="14.00">in4: {f32}[]: Constant_83: out0</text>
<text text-anchor="middle" x="570.5" y="-588.8" font-family="Times New Roman,serif" font-size="14.00">out0: {f32}[1,3,9,9]</text>
</g>
<!-- FakeQuantize_84&#45;&gt;AvgPool_85 -->
<g id="edge12" class="edge">
<title>FakeQuantize_84&#45;&gt;AvgPool_85</title>
<path fill="none" stroke="black" d="M641.19,-580.6C655.6,-566.15 670.55,-551.15 684.32,-537.35"/>
<polygon fill="black" stroke="black" points="686.82,-539.8 691.4,-530.24 681.86,-534.85 686.82,-539.8"/>
<text text-anchor="middle" x="691.5" y="-551.8" font-family="Times New Roman,serif" font-size="14.00"> 0 &#45;&gt; 0 </text>
</g>
<!-- CLONE_5 -->
<g id="node14" class="node">
<title>CLONE_5</title>
<polygon fill="none" stroke="blue" stroke-dasharray="5,2" points="179,-835.5 0,-835.5 0,-782.5 179,-782.5 179,-835.5"/>
<text text-anchor="middle" x="89.5" y="-820.3" font-family="Times New Roman,serif" font-size="14.00">friendly_name: Parameter_79</text>
<text text-anchor="middle" x="89.5" y="-805.3" font-family="Times New Roman,serif" font-size="14.00">type_name: Parameter</text>
<text text-anchor="middle" x="89.5" y="-790.3" font-family="Times New Roman,serif" font-size="14.00">{f32}[1,3,9,9]</text>
</g>
<!-- CLONE_5&#45;&gt;FakeQuantize_84 -->
<g id="edge13" class="edge">
<title>CLONE_5&#45;&gt;FakeQuantize_84</title>
<path fill="none" stroke="black" d="M164.9,-782.46C172.53,-779.92 180.16,-777.4 187.5,-775 267.61,-748.81 357.42,-720.27 429.92,-697.44"/>
<polygon fill="black" stroke="black" points="431.1,-700.74 439.58,-694.4 428.99,-694.07 431.1,-700.74"/>
<text text-anchor="middle" x="303.5" y="-745.8" font-family="Times New Roman,serif" font-size="14.00"> 0 &#45;&gt; 0 </text>
</g>
<!-- CLONE_6 -->
<g id="node15" class="node">
<title>CLONE_6</title>
<polygon fill="none" stroke="black" stroke-dasharray="5,2" points="370,-843 197,-843 197,-775 370,-775 370,-843"/>
<text text-anchor="middle" x="283.5" y="-827.8" font-family="Times New Roman,serif" font-size="14.00">friendly_name: Constant_80</text>
<text text-anchor="middle" x="283.5" y="-812.8" font-family="Times New Roman,serif" font-size="14.00">type_name: Constant</text>
<text text-anchor="middle" x="283.5" y="-797.8" font-family="Times New Roman,serif" font-size="14.00">{f32}[]</text>
<text text-anchor="middle" x="283.5" y="-782.8" font-family="Times New Roman,serif" font-size="14.00">value: [&#45;1.28]</text>
</g>
<!-- CLONE_6&#45;&gt;FakeQuantize_84 -->
<g id="edge14" class="edge">
<title>CLONE_6&#45;&gt;FakeQuantize_84</title>
<path fill="none" stroke="black" d="M345.07,-774.86C370.33,-761.26 400.68,-744.92 430.81,-728.7"/>
<polygon fill="black" stroke="black" points="432.58,-731.72 439.72,-723.9 429.26,-725.56 432.58,-731.72"/>
<text text-anchor="middle" x="422.5" y="-745.8" font-family="Times New Roman,serif" font-size="14.00"> 0 &#45;&gt; 1 </text>
</g>
<!-- CLONE_7 -->
<g id="node16" class="node">
<title>CLONE_7</title>
<polygon fill="none" stroke="black" stroke-dasharray="5,2" points="561,-843 388,-843 388,-775 561,-775 561,-843"/>
<text text-anchor="middle" x="474.5" y="-827.8" font-family="Times New Roman,serif" font-size="14.00">friendly_name: Constant_81</text>
<text text-anchor="middle" x="474.5" y="-812.8" font-family="Times New Roman,serif" font-size="14.00">type_name: Constant</text>
<text text-anchor="middle" x="474.5" y="-797.8" font-family="Times New Roman,serif" font-size="14.00">{f32}[]</text>
<text text-anchor="middle" x="474.5" y="-782.8" font-family="Times New Roman,serif" font-size="14.00">value: [1.27]</text>
</g>
<!-- CLONE_7&#45;&gt;FakeQuantize_84 -->
<g id="edge15" class="edge">
<title>CLONE_7&#45;&gt;FakeQuantize_84</title>
<path fill="none" stroke="black" d="M495.09,-774.86C502.83,-762.4 512,-747.65 521.23,-732.8"/>
<polygon fill="black" stroke="black" points="524.35,-734.4 526.66,-724.06 518.41,-730.71 524.35,-734.4"/>
<text text-anchor="middle" x="535.5" y="-745.8" font-family="Times New Roman,serif" font-size="14.00"> 0 &#45;&gt; 2 </text>
</g>
<!-- CLONE_8 -->
<g id="node17" class="node">
<title>CLONE_8</title>
<polygon fill="none" stroke="black" stroke-dasharray="5,2" points="752,-843 579,-843 579,-775 752,-775 752,-843"/>
<text text-anchor="middle" x="665.5" y="-827.8" font-family="Times New Roman,serif" font-size="14.00">friendly_name: Constant_82</text>
<text text-anchor="middle" x="665.5" y="-812.8" font-family="Times New Roman,serif" font-size="14.00">type_name: Constant</text>
<text text-anchor="middle" x="665.5" y="-797.8" font-family="Times New Roman,serif" font-size="14.00">{f32}[]</text>
<text text-anchor="middle" x="665.5" y="-782.8" font-family="Times New Roman,serif" font-size="14.00">value: [&#45;1.28]</text>
</g>
<!-- CLONE_8&#45;&gt;FakeQuantize_84 -->
<g id="edge16" class="edge">
<title>CLONE_8&#45;&gt;FakeQuantize_84</title>
<path fill="none" stroke="black" d="M645.12,-774.86C637.46,-762.4 628.39,-747.65 619.26,-732.8"/>
<polygon fill="black" stroke="black" points="622.11,-730.75 613.89,-724.06 616.14,-734.41 622.11,-730.75"/>
<text text-anchor="middle" x="653.5" y="-745.8" font-family="Times New Roman,serif" font-size="14.00"> 0 &#45;&gt; 3 </text>
</g>
<!-- CLONE_9 -->
<g id="node18" class="node">
<title>CLONE_9</title>
<polygon fill="none" stroke="black" stroke-dasharray="5,2" points="943,-843 770,-843 770,-775 943,-775 943,-843"/>
<text text-anchor="middle" x="856.5" y="-827.8" font-family="Times New Roman,serif" font-size="14.00">friendly_name: Constant_83</text>
<text text-anchor="middle" x="856.5" y="-812.8" font-family="Times New Roman,serif" font-size="14.00">type_name: Constant</text>
<text text-anchor="middle" x="856.5" y="-797.8" font-family="Times New Roman,serif" font-size="14.00">{f32}[]</text>
<text text-anchor="middle" x="856.5" y="-782.8" font-family="Times New Roman,serif" font-size="14.00">value: [1.27]</text>
</g>
<!-- CLONE_9&#45;&gt;FakeQuantize_84 -->
<g id="edge17" class="edge">
<title>CLONE_9&#45;&gt;FakeQuantize_84</title>
<path fill="none" stroke="black" d="M795.15,-774.86C770.05,-761.3 739.91,-745.01 709.97,-728.84"/>
<polygon fill="black" stroke="black" points="711.58,-725.73 701.12,-724.06 708.25,-731.89 711.58,-725.73"/>
<text text-anchor="middle" x="777.5" y="-745.8" font-family="Times New Roman,serif" font-size="14.00"> 0 &#45;&gt; 4 </text>
</g>
</g>
</svg>
