<?xml version="1.0" encoding="UTF-8" standalone="no"?>
<!DOCTYPE svg PUBLIC "-//W3C//DTD SVG 1.1//EN"
 "http://www.w3.org/Graphics/SVG/1.1/DTD/svg11.dtd">
<!-- Generated by graphviz version 2.43.20200408.0903 (20200408.0903)
 -->
<!-- Title: ngraph Pages: 1 -->
<svg width="1912pt" height="911pt"
 viewBox="0.00 0.00 1912.00 911.00" xmlns="http://www.w3.org/2000/svg" xmlns:xlink="http://www.w3.org/1999/xlink">
<g id="graph0" class="graph" transform="scale(1 1) rotate(0) translate(4 907)">
<title>ngraph</title>
<polygon fill="white" stroke="transparent" points="-4,4 -4,-907 1908,-907 1908,4 -4,4"/>
<!-- Concat_95 -->
<g id="node1" class="node">
<title>Concat_95</title>
<polygon fill="none" stroke="black" points="1344.5,-247 820.5,-247 820.5,-119 1344.5,-119 1344.5,-247"/>
<text text-anchor="middle" x="1082.5" y="-231.8" font-family="Times New Roman,serif" font-size="14.00">friendly_name: output</text>
<text text-anchor="middle" x="1082.5" y="-216.8" font-family="Times New Roman,serif" font-size="14.00">name: Concat_95</text>
<text text-anchor="middle" x="1082.5" y="-201.8" font-family="Times New Roman,serif" font-size="14.00">type_name: Concat</text>
<text text-anchor="middle" x="1082.5" y="-186.8" font-family="Times New Roman,serif" font-size="14.00">rt info: &#160;PRECISION_PRESERVED(value: true, operation: FakeQuantize)</text>
<text text-anchor="middle" x="1082.5" y="-171.8" font-family="Times New Roman,serif" font-size="14.00">QUANTIZATION_ALIGNMENT(low: &#45;1.280000, high: 1.270000, hasToBeAligned: false)</text>
<text text-anchor="middle" x="1082.5" y="-156.8" font-family="Times New Roman,serif" font-size="14.00">in0: {f32}[1,3,9,9]: MaxPool_86: out0</text>
<text text-anchor="middle" x="1082.5" y="-141.8" font-family="Times New Roman,serif" font-size="14.00">in1: {f32}[1,3,9,9]: MaxPool_94: out0</text>
<text text-anchor="middle" x="1082.5" y="-126.8" font-family="Times New Roman,serif" font-size="14.00">out0: {f32}[1,6,9,9]</text>
</g>
<!-- Result_96 -->
<g id="node2" class="node">
<title>Result_96</title>
<polygon fill="none" stroke="crimson" stroke-width="1.5" points="1191.5,-68 973.5,-68 973.5,0 1191.5,0 1191.5,-68"/>
<text text-anchor="middle" x="1082.5" y="-52.8" font-family="Times New Roman,serif" font-size="14.00">friendly_name: Result_96</text>
<text text-anchor="middle" x="1082.5" y="-37.8" font-family="Times New Roman,serif" font-size="14.00">type_name: Result</text>
<text text-anchor="middle" x="1082.5" y="-22.8" font-family="Times New Roman,serif" font-size="14.00">in0: {f32}[1,6,9,9]: Concat_95: out0</text>
<text text-anchor="middle" x="1082.5" y="-7.8" font-family="Times New Roman,serif" font-size="14.00">out0: {f32}[1,6,9,9]</text>
</g>
<!-- Concat_95&#45;&gt;Result_96 -->
<g id="edge1" class="edge">
<title>Concat_95&#45;&gt;Result_96</title>
<path fill="none" stroke="black" d="M1082.5,-118.81C1082.5,-105.19 1082.5,-91.09 1082.5,-78.43"/>
<polygon fill="black" stroke="black" points="1086,-78.17 1082.5,-68.17 1079,-78.17 1086,-78.17"/>
<text text-anchor="middle" x="1103.5" y="-89.8" font-family="Times New Roman,serif" font-size="14.00"> 0 &#45;&gt; 0 </text>
</g>
<!-- MaxPool_86 -->
<g id="node3" class="node">
<title>MaxPool_86</title>
<polygon fill="none" stroke="black" points="1074.5,-411 550.5,-411 550.5,-298 1074.5,-298 1074.5,-411"/>
<text text-anchor="middle" x="812.5" y="-395.8" font-family="Times New Roman,serif" font-size="14.00">friendly_name: maxPool1</text>
<text text-anchor="middle" x="812.5" y="-380.8" font-family="Times New Roman,serif" font-size="14.00">name: MaxPool_86</text>
<text text-anchor="middle" x="812.5" y="-365.8" font-family="Times New Roman,serif" font-size="14.00">type_name: MaxPool</text>
<text text-anchor="middle" x="812.5" y="-350.8" font-family="Times New Roman,serif" font-size="14.00">rt info: &#160;PRECISION_PRESERVED(value: true, operation: FakeQuantize)</text>
<text text-anchor="middle" x="812.5" y="-335.8" font-family="Times New Roman,serif" font-size="14.00">QUANTIZATION_ALIGNMENT(low: &#45;1.280000, high: 1.270000, hasToBeAligned: false)</text>
<text text-anchor="middle" x="812.5" y="-320.8" font-family="Times New Roman,serif" font-size="14.00">in0: {f32}[1,3,9,9]: AvgPool_85: out0</text>
<text text-anchor="middle" x="812.5" y="-305.8" font-family="Times New Roman,serif" font-size="14.00">out0: {f32}[1,3,9,9]</text>
</g>
<!-- MaxPool_86&#45;&gt;Concat_95 -->
<g id="edge2" class="edge">
<title>MaxPool_86&#45;&gt;Concat_95</title>
<path fill="none" stroke="black" d="M900.91,-298C923.92,-283.55 948.99,-267.81 972.95,-252.77"/>
<polygon fill="black" stroke="black" points="975.11,-255.55 981.72,-247.27 971.39,-249.62 975.11,-255.55"/>
<text text-anchor="middle" x="968.5" y="-268.8" font-family="Times New Roman,serif" font-size="14.00"> 0 &#45;&gt; 0 </text>
</g>
<!-- MaxPool_94 -->
<g id="node4" class="node">
<title>MaxPool_94</title>
<polygon fill="none" stroke="black" points="1616.5,-411 1092.5,-411 1092.5,-298 1616.5,-298 1616.5,-411"/>
<text text-anchor="middle" x="1354.5" y="-395.8" font-family="Times New Roman,serif" font-size="14.00">friendly_name: maxPool2</text>
<text text-anchor="middle" x="1354.5" y="-380.8" font-family="Times New Roman,serif" font-size="14.00">name: MaxPool_94</text>
<text text-anchor="middle" x="1354.5" y="-365.8" font-family="Times New Roman,serif" font-size="14.00">type_name: MaxPool</text>
<text text-anchor="middle" x="1354.5" y="-350.8" font-family="Times New Roman,serif" font-size="14.00">rt info: &#160;PRECISION_PRESERVED(value: true, operation: FakeQuantize)</text>
<text text-anchor="middle" x="1354.5" y="-335.8" font-family="Times New Roman,serif" font-size="14.00">QUANTIZATION_ALIGNMENT(low: &#45;1.280000, high: 1.270000, hasToBeAligned: false)</text>
<text text-anchor="middle" x="1354.5" y="-320.8" font-family="Times New Roman,serif" font-size="14.00">in0: {f32}[1,3,9,9]: AvgPool_93: out0</text>
<text text-anchor="middle" x="1354.5" y="-305.8" font-family="Times New Roman,serif" font-size="14.00">out0: {f32}[1,3,9,9]</text>
</g>
<!-- MaxPool_94&#45;&gt;Concat_95 -->
<g id="edge3" class="edge">
<title>MaxPool_94&#45;&gt;Concat_95</title>
<path fill="none" stroke="black" d="M1265.44,-298C1242.15,-283.49 1216.78,-267.68 1192.54,-252.57"/>
<polygon fill="black" stroke="black" points="1194.36,-249.58 1184.02,-247.27 1190.66,-255.53 1194.36,-249.58"/>
<text text-anchor="middle" x="1255.5" y="-268.8" font-family="Times New Roman,serif" font-size="14.00"> 0 &#45;&gt; 1 </text>
</g>
<!-- AvgPool_93 -->
<g id="node5" class="node">
<title>AvgPool_93</title>
<polygon fill="none" stroke="black" points="1656.5,-575 1132.5,-575 1132.5,-462 1656.5,-462 1656.5,-575"/>
<text text-anchor="middle" x="1394.5" y="-559.8" font-family="Times New Roman,serif" font-size="14.00">friendly_name: avgPool2</text>
<text text-anchor="middle" x="1394.5" y="-544.8" font-family="Times New Roman,serif" font-size="14.00">name: AvgPool_93</text>
<text text-anchor="middle" x="1394.5" y="-529.8" font-family="Times New Roman,serif" font-size="14.00">type_name: AvgPool</text>
<text text-anchor="middle" x="1394.5" y="-514.8" font-family="Times New Roman,serif" font-size="14.00">rt info: &#160;PRECISION_PRESERVED(value: true, operation: FakeQuantize)</text>
<text text-anchor="middle" x="1394.5" y="-499.8" font-family="Times New Roman,serif" font-size="14.00">QUANTIZATION_ALIGNMENT(low: &#45;1.280000, high: 1.270000, hasToBeAligned: false)</text>
<text text-anchor="middle" x="1394.5" y="-484.8" font-family="Times New Roman,serif" font-size="14.00">in0: {f32}[1,3,9,9]: FakeQuantize_92: out0</text>
<text text-anchor="middle" x="1394.5" y="-469.8" font-family="Times New Roman,serif" font-size="14.00">out0: {f32}[1,3,9,9]</text>
</g>
<!-- AvgPool_93&#45;&gt;MaxPool_94 -->
<g id="edge4" class="edge">
<title>AvgPool_93&#45;&gt;MaxPool_94</title>
<path fill="none" stroke="black" d="M1380.73,-461.75C1377.48,-448.57 1373.98,-434.39 1370.63,-420.83"/>
<polygon fill="black" stroke="black" points="1374.02,-419.95 1368.22,-411.08 1367.22,-421.63 1374.02,-419.95"/>
<text text-anchor="middle" x="1396.5" y="-432.8" font-family="Times New Roman,serif" font-size="14.00"> 0 &#45;&gt; 0 </text>
</g>
<!-- FakeQuantize_92 -->
<g id="node6" class="node">
<title>FakeQuantize_92</title>
<polygon fill="none" stroke="black" points="1709.5,-784 1141.5,-784 1141.5,-626 1709.5,-626 1709.5,-784"/>
<text text-anchor="middle" x="1425.5" y="-768.8" font-family="Times New Roman,serif" font-size="14.00">friendly_name: fakeQuantizeOnActivations2</text>
<text text-anchor="middle" x="1425.5" y="-753.8" font-family="Times New Roman,serif" font-size="14.00">name: FakeQuantize_92</text>
<text text-anchor="middle" x="1425.5" y="-738.8" font-family="Times New Roman,serif" font-size="14.00">type_name: FakeQuantize</text>
<text text-anchor="middle" x="1425.5" y="-723.8" font-family="Times New Roman,serif" font-size="14.00">rt info: &#160;QUANTIZATION_ALIGNMENT(low: &#45;1.280000, high: 1.270000, hasToBeAligned: false)</text>
<text text-anchor="middle" x="1425.5" y="-708.8" font-family="Times New Roman,serif" font-size="14.00">in0: {f32}[1,3,9,9]: Parameter_79: out0</text>
<text text-anchor="middle" x="1425.5" y="-693.8" font-family="Times New Roman,serif" font-size="14.00">in1: {f32}[]: Constant_88: out0</text>
<text text-anchor="middle" x="1425.5" y="-678.8" font-family="Times New Roman,serif" font-size="14.00">in2: {f32}[]: Constant_89: out0</text>
<text text-anchor="middle" x="1425.5" y="-663.8" font-family="Times New Roman,serif" font-size="14.00">in3: {f32}[]: Constant_90: out0</text>
<text text-anchor="middle" x="1425.5" y="-648.8" font-family="Times New Roman,serif" font-size="14.00">in4: {f32}[]: Constant_91: out0</text>
<text text-anchor="middle" x="1425.5" y="-633.8" font-family="Times New Roman,serif" font-size="14.00">out0: {f32}[1,3,9,9]</text>
</g>
<!-- FakeQuantize_92&#45;&gt;AvgPool_93 -->
<g id="edge5" class="edge">
<title>FakeQuantize_92&#45;&gt;AvgPool_93</title>
<path fill="none" stroke="black" d="M1412.35,-625.76C1410.08,-612.22 1407.73,-598.26 1405.52,-585.1"/>
<polygon fill="black" stroke="black" points="1408.97,-584.5 1403.86,-575.21 1402.07,-585.66 1408.97,-584.5"/>
<text text-anchor="middle" x="1429.5" y="-596.8" font-family="Times New Roman,serif" font-size="14.00"> 0 &#45;&gt; 0 </text>
</g>
<!-- CLONE_0 -->
<g id="node7" class="node">
<title>CLONE_0</title>
<polygon fill="none" stroke="blue" stroke-dasharray="5,2" points="1140,-895.5 961,-895.5 961,-842.5 1140,-842.5 1140,-895.5"/>
<text text-anchor="middle" x="1050.5" y="-880.3" font-family="Times New Roman,serif" font-size="14.00">friendly_name: Parameter_79</text>
<text text-anchor="middle" x="1050.5" y="-865.3" font-family="Times New Roman,serif" font-size="14.00">type_name: Parameter</text>
<text text-anchor="middle" x="1050.5" y="-850.3" font-family="Times New Roman,serif" font-size="14.00">{f32}[1,3,9,9]</text>
</g>
<!-- CLONE_0&#45;&gt;FakeQuantize_92 -->
<g id="edge6" class="edge">
<title>CLONE_0&#45;&gt;FakeQuantize_92</title>
<path fill="none" stroke="black" d="M1109.92,-842.33C1144.31,-827.47 1189.72,-807.86 1235.33,-788.15"/>
<polygon fill="black" stroke="black" points="1236.97,-791.26 1244.76,-784.08 1234.19,-784.83 1236.97,-791.26"/>
<text text-anchor="middle" x="1214.5" y="-805.8" font-family="Times New Roman,serif" font-size="14.00"> 0 &#45;&gt; 0 </text>
</g>
<!-- CLONE_1 -->
<g id="node8" class="node">
<title>CLONE_1</title>
<polygon fill="none" stroke="black" stroke-dasharray="5,2" points="1331,-903 1158,-903 1158,-835 1331,-835 1331,-903"/>
<text text-anchor="middle" x="1244.5" y="-887.8" font-family="Times New Roman,serif" font-size="14.00">friendly_name: Constant_88</text>
<text text-anchor="middle" x="1244.5" y="-872.8" font-family="Times New Roman,serif" font-size="14.00">type_name: Constant</text>
<text text-anchor="middle" x="1244.5" y="-857.8" font-family="Times New Roman,serif" font-size="14.00">{f32}[]</text>
<text text-anchor="middle" x="1244.5" y="-842.8" font-family="Times New Roman,serif" font-size="14.00">value: [&#45;0.64]</text>
</g>
<!-- CLONE_1&#45;&gt;FakeQuantize_92 -->
<g id="edge7" class="edge">
<title>CLONE_1&#45;&gt;FakeQuantize_92</title>
<path fill="none" stroke="black" d="M1281.56,-834.83C1295.95,-821.95 1313.15,-806.56 1330.57,-790.97"/>
<polygon fill="black" stroke="black" points="1332.92,-793.56 1338.04,-784.28 1328.25,-788.34 1332.92,-793.56"/>
<text text-anchor="middle" x="1333.5" y="-805.8" font-family="Times New Roman,serif" font-size="14.00"> 0 &#45;&gt; 1 </text>
</g>
<!-- CLONE_2 -->
<g id="node9" class="node">
<title>CLONE_2</title>
<polygon fill="none" stroke="black" stroke-dasharray="5,2" points="1522,-903 1349,-903 1349,-835 1522,-835 1522,-903"/>
<text text-anchor="middle" x="1435.5" y="-887.8" font-family="Times New Roman,serif" font-size="14.00">friendly_name: Constant_89</text>
<text text-anchor="middle" x="1435.5" y="-872.8" font-family="Times New Roman,serif" font-size="14.00">type_name: Constant</text>
<text text-anchor="middle" x="1435.5" y="-857.8" font-family="Times New Roman,serif" font-size="14.00">{f32}[]</text>
<text text-anchor="middle" x="1435.5" y="-842.8" font-family="Times New Roman,serif" font-size="14.00">value: [0.635]</text>
</g>
<!-- CLONE_2&#45;&gt;FakeQuantize_92 -->
<g id="edge8" class="edge">
<title>CLONE_2&#45;&gt;FakeQuantize_92</title>
<path fill="none" stroke="black" d="M1433.45,-834.83C1432.71,-822.87 1431.84,-808.74 1430.95,-794.3"/>
<polygon fill="black" stroke="black" points="1434.44,-794.05 1430.33,-784.28 1427.46,-794.48 1434.44,-794.05"/>
<text text-anchor="middle" x="1452.5" y="-805.8" font-family="Times New Roman,serif" font-size="14.00"> 0 &#45;&gt; 2 </text>
</g>
<!-- CLONE_3 -->
<g id="node10" class="node">
<title>CLONE_3</title>
<polygon fill="none" stroke="black" stroke-dasharray="5,2" points="1713,-903 1540,-903 1540,-835 1713,-835 1713,-903"/>
<text text-anchor="middle" x="1626.5" y="-887.8" font-family="Times New Roman,serif" font-size="14.00">friendly_name: Constant_90</text>
<text text-anchor="middle" x="1626.5" y="-872.8" font-family="Times New Roman,serif" font-size="14.00">type_name: Constant</text>
<text text-anchor="middle" x="1626.5" y="-857.8" font-family="Times New Roman,serif" font-size="14.00">{f32}[]</text>
<text text-anchor="middle" x="1626.5" y="-842.8" font-family="Times New Roman,serif" font-size="14.00">value: [&#45;0.64]</text>
</g>
<!-- CLONE_3&#45;&gt;FakeQuantize_92 -->
<g id="edge9" class="edge">
<title>CLONE_3&#45;&gt;FakeQuantize_92</title>
<path fill="none" stroke="black" d="M1585.34,-834.83C1569.29,-821.89 1550.09,-806.42 1530.66,-790.76"/>
<polygon fill="black" stroke="black" points="1532.61,-787.83 1522.63,-784.28 1528.22,-793.28 1532.61,-787.83"/>
<text text-anchor="middle" x="1581.5" y="-805.8" font-family="Times New Roman,serif" font-size="14.00"> 0 &#45;&gt; 3 </text>
</g>
<!-- CLONE_4 -->
<g id="node11" class="node">
<title>CLONE_4</title>
<polygon fill="none" stroke="black" stroke-dasharray="5,2" points="1904,-903 1731,-903 1731,-835 1904,-835 1904,-903"/>
<text text-anchor="middle" x="1817.5" y="-887.8" font-family="Times New Roman,serif" font-size="14.00">friendly_name: Constant_91</text>
<text text-anchor="middle" x="1817.5" y="-872.8" font-family="Times New Roman,serif" font-size="14.00">type_name: Constant</text>
<text text-anchor="middle" x="1817.5" y="-857.8" font-family="Times New Roman,serif" font-size="14.00">{f32}[]</text>
<text text-anchor="middle" x="1817.5" y="-842.8" font-family="Times New Roman,serif" font-size="14.00">value: [0.635]</text>
</g>
<!-- CLONE_4&#45;&gt;FakeQuantize_92 -->
<g id="edge10" class="edge">
<title>CLONE_4&#45;&gt;FakeQuantize_92</title>
<path fill="none" stroke="black" d="M1737.23,-834.83C1704.08,-821.13 1664.06,-804.59 1623.9,-787.99"/>
<polygon fill="black" stroke="black" points="1625.09,-784.7 1614.52,-784.11 1622.42,-791.17 1625.09,-784.7"/>
<text text-anchor="middle" x="1711.5" y="-805.8" font-family="Times New Roman,serif" font-size="14.00"> 0 &#45;&gt; 4 </text>
</g>
<!-- AvgPool_85 -->
<g id="node12" class="node">
<title>AvgPool_85</title>
<polygon fill="none" stroke="black" points="1074.5,-575 550.5,-575 550.5,-462 1074.5,-462 1074.5,-575"/>
<text text-anchor="middle" x="812.5" y="-559.8" font-family="Times New Roman,serif" font-size="14.00">friendly_name: avgPool1</text>
<text text-anchor="middle" x="812.5" y="-544.8" font-family="Times New Roman,serif" font-size="14.00">name: AvgPool_85</text>
<text text-anchor="middle" x="812.5" y="-529.8" font-family="Times New Roman,serif" font-size="14.00">type_name: AvgPool</text>
<text text-anchor="middle" x="812.5" y="-514.8" font-family="Times New Roman,serif" font-size="14.00">rt info: &#160;PRECISION_PRESERVED(value: true, operation: FakeQuantize)</text>
<text text-anchor="middle" x="812.5" y="-499.8" font-family="Times New Roman,serif" font-size="14.00">QUANTIZATION_ALIGNMENT(low: &#45;1.280000, high: 1.270000, hasToBeAligned: false)</text>
<text text-anchor="middle" x="812.5" y="-484.8" font-family="Times New Roman,serif" font-size="14.00">in0: {f32}[1,3,9,9]: FakeQuantize_84: out0</text>
<text text-anchor="middle" x="812.5" y="-469.8" font-family="Times New Roman,serif" font-size="14.00">out0: {f32}[1,3,9,9]</text>
</g>
<!-- AvgPool_85&#45;&gt;MaxPool_86 -->
<g id="edge11" class="edge">
<title>AvgPool_85&#45;&gt;MaxPool_86</title>
<path fill="none" stroke="black" d="M812.5,-461.75C812.5,-448.69 812.5,-434.67 812.5,-421.22"/>
<polygon fill="black" stroke="black" points="816,-421.08 812.5,-411.08 809,-421.08 816,-421.08"/>
<text text-anchor="middle" x="833.5" y="-432.8" font-family="Times New Roman,serif" font-size="14.00"> 0 &#45;&gt; 0 </text>
</g>
<!-- FakeQuantize_84 -->
<g id="node13" class="node">
<title>FakeQuantize_84</title>
<polygon fill="none" stroke="black" points="854.5,-784 286.5,-784 286.5,-626 854.5,-626 854.5,-784"/>
<text text-anchor="middle" x="570.5" y="-768.8" font-family="Times New Roman,serif" font-size="14.00">friendly_name: fakeQuantizeOnActivations1</text>
<text text-anchor="middle" x="570.5" y="-753.8" font-family="Times New Roman,serif" font-size="14.00">name: FakeQuantize_84</text>
<text text-anchor="middle" x="570.5" y="-738.8" font-family="Times New Roman,serif" font-size="14.00">type_name: FakeQuantize</text>
<text text-anchor="middle" x="570.5" y="-723.8" font-family="Times New Roman,serif" font-size="14.00">rt info: &#160;QUANTIZATION_ALIGNMENT(low: &#45;1.280000, high: 1.270000, hasToBeAligned: false)</text>
<text text-anchor="middle" x="570.5" y="-708.8" font-family="Times New Roman,serif" font-size="14.00">in0: {f32}[1,3,9,9]: Parameter_79: out0</text>
<text text-anchor="middle" x="570.5" y="-693.8" font-family="Times New Roman,serif" font-size="14.00">in1: {f32}[]: Constant_80: out0</text>
<text text-anchor="middle" x="570.5" y="-678.8" font-family="Times New Roman,serif" font-size="14.00">in2: {f32}[]: Constant_81: out0</text>
<text text-anchor="middle" x="570.5" y="-663.8" font-family="Times New Roman,serif" font-size="14.00">in3: {f32}[]: Constant_82: out0</text>
<text text-anchor="middle" x="570.5" y="-648.8" font-family="Times New Roman,serif" font-size="14.00">in4: {f32}[]: Constant_83: out0</text>
<text text-anchor="middle" x="570.5" y="-633.8" font-family="Times New Roman,serif" font-size="14.00">out0: {f32}[1,3,9,9]</text>
</g>
<!-- FakeQuantize_84&#45;&gt;AvgPool_85 -->
<g id="edge12" class="edge">
<title>FakeQuantize_84&#45;&gt;AvgPool_85</title>
<path fill="none" stroke="black" d="M673.13,-625.76C692.54,-610.95 712.6,-595.66 731.25,-581.45"/>
<polygon fill="black" stroke="black" points="733.59,-584.06 739.42,-575.21 729.35,-578.49 733.59,-584.06"/>
<text text-anchor="middle" x="734.5" y="-596.8" font-family="Times New Roman,serif" font-size="14.00"> 0 &#45;&gt; 0 </text>
</g>
<!-- CLONE_5 -->
<g id="node14" class="node">
<title>CLONE_5</title>
<polygon fill="none" stroke="blue" stroke-dasharray="5,2" points="179,-895.5 0,-895.5 0,-842.5 179,-842.5 179,-895.5"/>
<text text-anchor="middle" x="89.5" y="-880.3" font-family="Times New Roman,serif" font-size="14.00">friendly_name: Parameter_79</text>
<text text-anchor="middle" x="89.5" y="-865.3" font-family="Times New Roman,serif" font-size="14.00">type_name: Parameter</text>
<text text-anchor="middle" x="89.5" y="-850.3" font-family="Times New Roman,serif" font-size="14.00">{f32}[1,3,9,9]</text>
</g>
<!-- CLONE_5&#45;&gt;FakeQuantize_84 -->
<g id="edge13" class="edge">
<title>CLONE_5&#45;&gt;FakeQuantize_84</title>
<path fill="none" stroke="black" d="M165.45,-842.42C210.24,-827.33 269.66,-807.32 329.16,-787.28"/>
<polygon fill="black" stroke="black" points="330.34,-790.58 338.7,-784.07 328.11,-783.94 330.34,-790.58"/>
<text text-anchor="middle" x="294.5" y="-805.8" font-family="Times New Roman,serif" font-size="14.00"> 0 &#45;&gt; 0 </text>
</g>
<!-- CLONE_6 -->
<g id="node15" class="node">
<title>CLONE_6</title>
<polygon fill="none" stroke="black" stroke-dasharray="5,2" points="370,-903 197,-903 197,-835 370,-835 370,-903"/>
<text text-anchor="middle" x="283.5" y="-887.8" font-family="Times New Roman,serif" font-size="14.00">friendly_name: Constant_80</text>
<text text-anchor="middle" x="283.5" y="-872.8" font-family="Times New Roman,serif" font-size="14.00">type_name: Constant</text>
<text text-anchor="middle" x="283.5" y="-857.8" font-family="Times New Roman,serif" font-size="14.00">{f32}[]</text>
<text text-anchor="middle" x="283.5" y="-842.8" font-family="Times New Roman,serif" font-size="14.00">value: [&#45;1.28]</text>
</g>
<!-- CLONE_6&#45;&gt;FakeQuantize_84 -->
<g id="edge14" class="edge">
<title>CLONE_6&#45;&gt;FakeQuantize_84</title>
<path fill="none" stroke="black" d="M342.27,-834.83C365.98,-821.45 394.49,-805.35 423.2,-789.14"/>
<polygon fill="black" stroke="black" points="425.13,-792.08 432.11,-784.11 421.68,-785.98 425.13,-792.08"/>
<text text-anchor="middle" x="414.5" y="-805.8" font-family="Times New Roman,serif" font-size="14.00"> 0 &#45;&gt; 1 </text>
</g>
<!-- CLONE_7 -->
<g id="node16" class="node">
<title>CLONE_7</title>
<polygon fill="none" stroke="black" stroke-dasharray="5,2" points="561,-903 388,-903 388,-835 561,-835 561,-903"/>
<text text-anchor="middle" x="474.5" y="-887.8" font-family="Times New Roman,serif" font-size="14.00">friendly_name: Constant_81</text>
<text text-anchor="middle" x="474.5" y="-872.8" font-family="Times New Roman,serif" font-size="14.00">type_name: Constant</text>
<text text-anchor="middle" x="474.5" y="-857.8" font-family="Times New Roman,serif" font-size="14.00">{f32}[]</text>
<text text-anchor="middle" x="474.5" y="-842.8" font-family="Times New Roman,serif" font-size="14.00">value: [1.27]</text>
</g>
<!-- CLONE_7&#45;&gt;FakeQuantize_84 -->
<g id="edge15" class="edge">
<title>CLONE_7&#45;&gt;FakeQuantize_84</title>
<path fill="none" stroke="black" d="M494.16,-834.83C501.45,-822.52 510.1,-807.92 518.91,-793.05"/>
<polygon fill="black" stroke="black" points="522.02,-794.67 524.11,-784.28 516,-791.1 522.02,-794.67"/>
<text text-anchor="middle" x="532.5" y="-805.8" font-family="Times New Roman,serif" font-size="14.00"> 0 &#45;&gt; 2 </text>
</g>
<!-- CLONE_8 -->
<g id="node17" class="node">
<title>CLONE_8</title>
<polygon fill="none" stroke="black" stroke-dasharray="5,2" points="752,-903 579,-903 579,-835 752,-835 752,-903"/>
<text text-anchor="middle" x="665.5" y="-887.8" font-family="Times New Roman,serif" font-size="14.00">friendly_name: Constant_82</text>
<text text-anchor="middle" x="665.5" y="-872.8" font-family="Times New Roman,serif" font-size="14.00">type_name: Constant</text>
<text text-anchor="middle" x="665.5" y="-857.8" font-family="Times New Roman,serif" font-size="14.00">{f32}[]</text>
<text text-anchor="middle" x="665.5" y="-842.8" font-family="Times New Roman,serif" font-size="14.00">value: [&#45;1.28]</text>
</g>
<!-- CLONE_8&#45;&gt;FakeQuantize_84 -->
<g id="edge16" class="edge">
<title>CLONE_8&#45;&gt;FakeQuantize_84</title>
<path fill="none" stroke="black" d="M646.05,-834.83C638.83,-822.52 630.27,-807.92 621.55,-793.05"/>
<polygon fill="black" stroke="black" points="624.48,-791.14 616.41,-784.28 618.45,-794.68 624.48,-791.14"/>
<text text-anchor="middle" x="656.5" y="-805.8" font-family="Times New Roman,serif" font-size="14.00"> 0 &#45;&gt; 3 </text>
</g>
<!-- CLONE_9 -->
<g id="node18" class="node">
<title>CLONE_9</title>
<polygon fill="none" stroke="black" stroke-dasharray="5,2" points="943,-903 770,-903 770,-835 943,-835 943,-903"/>
<text text-anchor="middle" x="856.5" y="-887.8" font-family="Times New Roman,serif" font-size="14.00">friendly_name: Constant_83</text>
<text text-anchor="middle" x="856.5" y="-872.8" font-family="Times New Roman,serif" font-size="14.00">type_name: Constant</text>
<text text-anchor="middle" x="856.5" y="-857.8" font-family="Times New Roman,serif" font-size="14.00">{f32}[]</text>
<text text-anchor="middle" x="856.5" y="-842.8" font-family="Times New Roman,serif" font-size="14.00">value: [1.27]</text>
</g>
<!-- CLONE_9&#45;&gt;FakeQuantize_84 -->
<g id="edge17" class="edge">
<title>CLONE_9&#45;&gt;FakeQuantize_84</title>
<path fill="none" stroke="black" d="M797.93,-834.83C774.31,-821.45 745.9,-805.35 717.29,-789.14"/>
<polygon fill="black" stroke="black" points="718.83,-786 708.4,-784.11 715.38,-792.09 718.83,-786"/>
<text text-anchor="middle" x="785.5" y="-805.8" font-family="Times New Roman,serif" font-size="14.00"> 0 &#45;&gt; 4 </text>
</g>
</g>
</svg>
