<?xml version="1.0" encoding="UTF-8" standalone="no"?>
<!DOCTYPE svg PUBLIC "-//W3C//DTD SVG 1.1//EN"
 "http://www.w3.org/Graphics/SVG/1.1/DTD/svg11.dtd">
<!-- Generated by graphviz version 2.43.20200408.0903 (20200408.0903)
 -->
<!-- Title: ngraph Pages: 1 -->
<svg width="1942pt" height="1239pt"
 viewBox="0.00 0.00 1941.50 1239.00" xmlns="http://www.w3.org/2000/svg" xmlns:xlink="http://www.w3.org/1999/xlink">
<g id="graph0" class="graph" transform="scale(1 1) rotate(0) translate(4 1235)">
<title>ngraph</title>
<polygon fill="white" stroke="transparent" points="-4,4 -4,-1235 1937.5,-1235 1937.5,4 -4,4"/>
<!-- Multiply_154 -->
<g id="node1" class="node">
<title>Multiply_154</title>
<polygon fill="none" stroke="black" points="1489.5,-247 965.5,-247 965.5,-119 1489.5,-119 1489.5,-247"/>
<text text-anchor="middle" x="1227.5" y="-231.8" font-family="Times New Roman,serif" font-size="14.00">friendly_name: Multiply_154</text>
<text text-anchor="middle" x="1227.5" y="-216.8" font-family="Times New Roman,serif" font-size="14.00">type_name: Multiply</text>
<text text-anchor="middle" x="1227.5" y="-201.8" font-family="Times New Roman,serif" font-size="14.00">rt info: &#160;DEQUANTIZATION</text>
<text text-anchor="middle" x="1227.5" y="-186.8" font-family="Times New Roman,serif" font-size="14.00">PRECISION_PRESERVED(value: true, operation: FakeQuantize)</text>
<text text-anchor="middle" x="1227.5" y="-171.8" font-family="Times New Roman,serif" font-size="14.00">QUANTIZATION_ALIGNMENT(low: &#45;1.280000, high: 1.270000, hasToBeAligned: false)</text>
<text text-anchor="middle" x="1227.5" y="-156.8" font-family="Times New Roman,serif" font-size="14.00">in0: {f32}[1,6,9,9]: Convert_150: out0</text>
<text text-anchor="middle" x="1227.5" y="-141.8" font-family="Times New Roman,serif" font-size="14.00">in1: {f32}[1,6,1,1]: Constant_152: out0</text>
<text text-anchor="middle" x="1227.5" y="-126.8" font-family="Times New Roman,serif" font-size="14.00">out0: {f32}[1,6,9,9]</text>
</g>
<!-- Result_96 -->
<g id="node2" class="node">
<title>Result_96</title>
<polygon fill="none" stroke="crimson" stroke-width="1.5" points="1342.5,-68 1112.5,-68 1112.5,0 1342.5,0 1342.5,-68"/>
<text text-anchor="middle" x="1227.5" y="-52.8" font-family="Times New Roman,serif" font-size="14.00">friendly_name: Result_96</text>
<text text-anchor="middle" x="1227.5" y="-37.8" font-family="Times New Roman,serif" font-size="14.00">type_name: Result</text>
<text text-anchor="middle" x="1227.5" y="-22.8" font-family="Times New Roman,serif" font-size="14.00">in0: {f32}[1,6,9,9]: Multiply_154: out0</text>
<text text-anchor="middle" x="1227.5" y="-7.8" font-family="Times New Roman,serif" font-size="14.00">out0: {f32}[1,6,9,9]</text>
</g>
<!-- Multiply_154&#45;&gt;Result_96 -->
<g id="edge1" class="edge">
<title>Multiply_154&#45;&gt;Result_96</title>
<path fill="none" stroke="black" d="M1227.5,-118.81C1227.5,-105.19 1227.5,-91.09 1227.5,-78.43"/>
<polygon fill="black" stroke="black" points="1231,-78.17 1227.5,-68.17 1224,-78.17 1231,-78.17"/>
<text text-anchor="middle" x="1248.5" y="-89.8" font-family="Times New Roman,serif" font-size="14.00"> 0 &#45;&gt; 0 </text>
</g>
<!-- Convert_150 -->
<g id="node3" class="node">
<title>Convert_150</title>
<polygon fill="none" stroke="black" points="1283.5,-411 759.5,-411 759.5,-298 1283.5,-298 1283.5,-411"/>
<text text-anchor="middle" x="1021.5" y="-395.8" font-family="Times New Roman,serif" font-size="14.00">friendly_name: Convert_150</text>
<text text-anchor="middle" x="1021.5" y="-380.8" font-family="Times New Roman,serif" font-size="14.00">type_name: Convert</text>
<text text-anchor="middle" x="1021.5" y="-365.8" font-family="Times New Roman,serif" font-size="14.00">rt info: &#160;DEQUANTIZATION</text>
<text text-anchor="middle" x="1021.5" y="-350.8" font-family="Times New Roman,serif" font-size="14.00">PRECISION_PRESERVED(value: true, operation: FakeQuantize)</text>
<text text-anchor="middle" x="1021.5" y="-335.8" font-family="Times New Roman,serif" font-size="14.00">QUANTIZATION_ALIGNMENT(low: &#45;1.280000, high: 1.270000, hasToBeAligned: false)</text>
<text text-anchor="middle" x="1021.5" y="-320.8" font-family="Times New Roman,serif" font-size="14.00">in0: {i8}[1,6,9,9]: Concat_155: out0</text>
<text text-anchor="middle" x="1021.5" y="-305.8" font-family="Times New Roman,serif" font-size="14.00">out0: {f32}[1,6,9,9]</text>
</g>
<!-- Convert_150&#45;&gt;Multiply_154 -->
<g id="edge2" class="edge">
<title>Convert_150&#45;&gt;Multiply_154</title>
<path fill="none" stroke="black" d="M1088.95,-298C1106.05,-283.93 1124.63,-268.64 1142.47,-253.96"/>
<polygon fill="black" stroke="black" points="1145.11,-256.32 1150.61,-247.27 1140.66,-250.92 1145.11,-256.32"/>
<text text-anchor="middle" x="1145.5" y="-268.8" font-family="Times New Roman,serif" font-size="14.00"> 0 &#45;&gt; 0 </text>
</g>
<!-- CLONE_0 -->
<g id="node4" class="node">
<title>CLONE_0</title>
<polygon fill="none" stroke="black" stroke-dasharray="5,2" points="1565,-388.5 1302,-388.5 1302,-320.5 1565,-320.5 1565,-388.5"/>
<text text-anchor="middle" x="1433.5" y="-373.3" font-family="Times New Roman,serif" font-size="14.00">friendly_name: Constant_152</text>
<text text-anchor="middle" x="1433.5" y="-358.3" font-family="Times New Roman,serif" font-size="14.00">type_name: Constant</text>
<text text-anchor="middle" x="1433.5" y="-343.3" font-family="Times New Roman,serif" font-size="14.00">{f32}[1,6,1,1]</text>
<text text-anchor="middle" x="1433.5" y="-328.3" font-family="Times New Roman,serif" font-size="14.00">value: [0.01, 0.01, 0.01, 0.005, 0.005, 0.005]</text>
</g>
<!-- CLONE_0&#45;&gt;Multiply_154 -->
<g id="edge3" class="edge">
<title>CLONE_0&#45;&gt;Multiply_154</title>
<path fill="none" stroke="black" d="M1393.29,-320.42C1370.17,-301.39 1340.23,-276.76 1312.17,-253.66"/>
<polygon fill="black" stroke="black" points="1314.25,-250.85 1304.31,-247.2 1309.81,-256.25 1314.25,-250.85"/>
<text text-anchor="middle" x="1364.5" y="-268.8" font-family="Times New Roman,serif" font-size="14.00"> 0 &#45;&gt; 1 </text>
</g>
<!-- Concat_155 -->
<g id="node5" class="node">
<title>Concat_155</title>
<polygon fill="none" stroke="black" points="1283.5,-575 759.5,-575 759.5,-462 1283.5,-462 1283.5,-575"/>
<text text-anchor="middle" x="1021.5" y="-559.8" font-family="Times New Roman,serif" font-size="14.00">friendly_name: Concat_155</text>
<text text-anchor="middle" x="1021.5" y="-544.8" font-family="Times New Roman,serif" font-size="14.00">type_name: Concat</text>
<text text-anchor="middle" x="1021.5" y="-529.8" font-family="Times New Roman,serif" font-size="14.00">rt info: &#160;PRECISION_PRESERVED(value: true, operation: FakeQuantize)</text>
<text text-anchor="middle" x="1021.5" y="-514.8" font-family="Times New Roman,serif" font-size="14.00">QUANTIZATION_ALIGNMENT(low: &#45;1.280000, high: 1.270000, hasToBeAligned: false)</text>
<text text-anchor="middle" x="1021.5" y="-499.8" font-family="Times New Roman,serif" font-size="14.00">in0: {i8}[1,3,9,9]: MaxPool_130: out0</text>
<text text-anchor="middle" x="1021.5" y="-484.8" font-family="Times New Roman,serif" font-size="14.00">in1: {i8}[1,3,9,9]: MaxPool_134: out0</text>
<text text-anchor="middle" x="1021.5" y="-469.8" font-family="Times New Roman,serif" font-size="14.00">out0: {i8}[1,6,9,9]</text>
</g>
<!-- Concat_155&#45;&gt;Convert_150 -->
<g id="edge4" class="edge">
<title>Concat_155&#45;&gt;Convert_150</title>
<path fill="none" stroke="black" d="M1021.5,-461.75C1021.5,-448.69 1021.5,-434.67 1021.5,-421.22"/>
<polygon fill="black" stroke="black" points="1025,-421.08 1021.5,-411.08 1018,-421.08 1025,-421.08"/>
<text text-anchor="middle" x="1042.5" y="-432.8" font-family="Times New Roman,serif" font-size="14.00"> 0 &#45;&gt; 0 </text>
</g>
<!-- MaxPool_130 -->
<g id="node6" class="node">
<title>MaxPool_130</title>
<polygon fill="none" stroke="black" points="1013.5,-739 489.5,-739 489.5,-626 1013.5,-626 1013.5,-739"/>
<text text-anchor="middle" x="751.5" y="-723.8" font-family="Times New Roman,serif" font-size="14.00">friendly_name: maxPool1</text>
<text text-anchor="middle" x="751.5" y="-708.8" font-family="Times New Roman,serif" font-size="14.00">name: MaxPool_130</text>
<text text-anchor="middle" x="751.5" y="-693.8" font-family="Times New Roman,serif" font-size="14.00">type_name: MaxPool</text>
<text text-anchor="middle" x="751.5" y="-678.8" font-family="Times New Roman,serif" font-size="14.00">rt info: &#160;PRECISION_PRESERVED(value: true, operation: FakeQuantize)</text>
<text text-anchor="middle" x="751.5" y="-663.8" font-family="Times New Roman,serif" font-size="14.00">QUANTIZATION_ALIGNMENT(low: &#45;1.280000, high: 1.270000, hasToBeAligned: false)</text>
<text text-anchor="middle" x="751.5" y="-648.8" font-family="Times New Roman,serif" font-size="14.00">in0: {i8}[1,3,9,9]: AvgPool_122: out0</text>
<text text-anchor="middle" x="751.5" y="-633.8" font-family="Times New Roman,serif" font-size="14.00">out0: {i8}[1,3,9,9]</text>
</g>
<!-- MaxPool_130&#45;&gt;Concat_155 -->
<g id="edge5" class="edge">
<title>MaxPool_130&#45;&gt;Concat_155</title>
<path fill="none" stroke="black" d="M844.04,-625.98C868.48,-611.31 895,-595.4 919.89,-580.47"/>
<polygon fill="black" stroke="black" points="921.85,-583.37 928.62,-575.23 918.25,-577.37 921.85,-583.37"/>
<text text-anchor="middle" x="916.5" y="-596.8" font-family="Times New Roman,serif" font-size="14.00"> 0 &#45;&gt; 0 </text>
</g>
<!-- MaxPool_134 -->
<g id="node7" class="node">
<title>MaxPool_134</title>
<polygon fill="none" stroke="black" points="1594.5,-739 1070.5,-739 1070.5,-626 1594.5,-626 1594.5,-739"/>
<text text-anchor="middle" x="1332.5" y="-723.8" font-family="Times New Roman,serif" font-size="14.00">friendly_name: maxPool2</text>
<text text-anchor="middle" x="1332.5" y="-708.8" font-family="Times New Roman,serif" font-size="14.00">name: MaxPool_134</text>
<text text-anchor="middle" x="1332.5" y="-693.8" font-family="Times New Roman,serif" font-size="14.00">type_name: MaxPool</text>
<text text-anchor="middle" x="1332.5" y="-678.8" font-family="Times New Roman,serif" font-size="14.00">rt info: &#160;PRECISION_PRESERVED(value: true, operation: FakeQuantize)</text>
<text text-anchor="middle" x="1332.5" y="-663.8" font-family="Times New Roman,serif" font-size="14.00">QUANTIZATION_ALIGNMENT(low: &#45;1.280000, high: 1.270000, hasToBeAligned: false)</text>
<text text-anchor="middle" x="1332.5" y="-648.8" font-family="Times New Roman,serif" font-size="14.00">in0: {i8}[1,3,9,9]: AvgPool_126: out0</text>
<text text-anchor="middle" x="1332.5" y="-633.8" font-family="Times New Roman,serif" font-size="14.00">out0: {i8}[1,3,9,9]</text>
</g>
<!-- MaxPool_134&#45;&gt;Concat_155 -->
<g id="edge6" class="edge">
<title>MaxPool_134&#45;&gt;Concat_155</title>
<path fill="none" stroke="black" d="M1225.91,-625.98C1197.3,-611.08 1166.24,-594.9 1137.17,-579.75"/>
<polygon fill="black" stroke="black" points="1138.7,-576.61 1128.22,-575.09 1135.47,-582.81 1138.7,-576.61"/>
<text text-anchor="middle" x="1207.5" y="-596.8" font-family="Times New Roman,serif" font-size="14.00"> 0 &#45;&gt; 1 </text>
</g>
<!-- AvgPool_126 -->
<g id="node8" class="node">
<title>AvgPool_126</title>
<polygon fill="none" stroke="black" points="1633.5,-903 1109.5,-903 1109.5,-790 1633.5,-790 1633.5,-903"/>
<text text-anchor="middle" x="1371.5" y="-887.8" font-family="Times New Roman,serif" font-size="14.00">friendly_name: avgPool2</text>
<text text-anchor="middle" x="1371.5" y="-872.8" font-family="Times New Roman,serif" font-size="14.00">name: AvgPool_126</text>
<text text-anchor="middle" x="1371.5" y="-857.8" font-family="Times New Roman,serif" font-size="14.00">type_name: AvgPool</text>
<text text-anchor="middle" x="1371.5" y="-842.8" font-family="Times New Roman,serif" font-size="14.00">rt info: &#160;PRECISION_PRESERVED(value: true, operation: FakeQuantize)</text>
<text text-anchor="middle" x="1371.5" y="-827.8" font-family="Times New Roman,serif" font-size="14.00">QUANTIZATION_ALIGNMENT(low: &#45;1.280000, high: 1.270000, hasToBeAligned: false)</text>
<text text-anchor="middle" x="1371.5" y="-812.8" font-family="Times New Roman,serif" font-size="14.00">in0: {i8}[1,3,9,9]: FakeQuantize_119: out0</text>
<text text-anchor="middle" x="1371.5" y="-797.8" font-family="Times New Roman,serif" font-size="14.00">out0: {i8}[1,3,9,9]</text>
</g>
<!-- AvgPool_126&#45;&gt;MaxPool_134 -->
<g id="edge7" class="edge">
<title>AvgPool_126&#45;&gt;MaxPool_134</title>
<path fill="none" stroke="black" d="M1358.08,-789.75C1354.9,-776.57 1351.49,-762.39 1348.23,-748.83"/>
<polygon fill="black" stroke="black" points="1351.62,-747.98 1345.88,-739.08 1344.82,-749.62 1351.62,-747.98"/>
<text text-anchor="middle" x="1374.5" y="-760.8" font-family="Times New Roman,serif" font-size="14.00"> 0 &#45;&gt; 0 </text>
</g>
<!-- FakeQuantize_119 -->
<g id="node9" class="node">
<title>FakeQuantize_119</title>
<polygon fill="none" stroke="black" points="1714.5,-1112 1146.5,-1112 1146.5,-954 1714.5,-954 1714.5,-1112"/>
<text text-anchor="middle" x="1430.5" y="-1096.8" font-family="Times New Roman,serif" font-size="14.00">friendly_name: fakeQuantizeOnActivations2</text>
<text text-anchor="middle" x="1430.5" y="-1081.8" font-family="Times New Roman,serif" font-size="14.00">name: FakeQuantize_119</text>
<text text-anchor="middle" x="1430.5" y="-1066.8" font-family="Times New Roman,serif" font-size="14.00">type_name: FakeQuantize</text>
<text text-anchor="middle" x="1430.5" y="-1051.8" font-family="Times New Roman,serif" font-size="14.00">rt info: &#160;QUANTIZATION_ALIGNMENT(low: &#45;1.280000, high: 1.270000, hasToBeAligned: false)</text>
<text text-anchor="middle" x="1430.5" y="-1036.8" font-family="Times New Roman,serif" font-size="14.00">in0: {f32}[1,3,9,9]: Parameter_79: out0</text>
<text text-anchor="middle" x="1430.5" y="-1021.8" font-family="Times New Roman,serif" font-size="14.00">in1: {f32}[]: Constant_88: out0</text>
<text text-anchor="middle" x="1430.5" y="-1006.8" font-family="Times New Roman,serif" font-size="14.00">in2: {f32}[]: Constant_89: out0</text>
<text text-anchor="middle" x="1430.5" y="-991.8" font-family="Times New Roman,serif" font-size="14.00">in3: {f32}[]: Constant_117: out0</text>
<text text-anchor="middle" x="1430.5" y="-976.8" font-family="Times New Roman,serif" font-size="14.00">in4: {f32}[]: Constant_118: out0</text>
<text text-anchor="middle" x="1430.5" y="-961.8" font-family="Times New Roman,serif" font-size="14.00">out0: {i8}[1,3,9,9]</text>
</g>
<!-- FakeQuantize_119&#45;&gt;AvgPool_126 -->
<g id="edge8" class="edge">
<title>FakeQuantize_119&#45;&gt;AvgPool_126</title>
<path fill="none" stroke="black" d="M1405.48,-953.76C1401.15,-940.22 1396.69,-926.26 1392.48,-913.1"/>
<polygon fill="black" stroke="black" points="1395.7,-911.67 1389.32,-903.21 1389.03,-913.8 1395.7,-911.67"/>
<text text-anchor="middle" x="1419.5" y="-924.8" font-family="Times New Roman,serif" font-size="14.00"> 0 &#45;&gt; 0 </text>
</g>
<!-- CLONE_1 -->
<g id="node10" class="node">
<title>CLONE_1</title>
<polygon fill="none" stroke="blue" stroke-dasharray="5,2" points="1155,-1223.5 976,-1223.5 976,-1170.5 1155,-1170.5 1155,-1223.5"/>
<text text-anchor="middle" x="1065.5" y="-1208.3" font-family="Times New Roman,serif" font-size="14.00">friendly_name: Parameter_79</text>
<text text-anchor="middle" x="1065.5" y="-1193.3" font-family="Times New Roman,serif" font-size="14.00">type_name: Parameter</text>
<text text-anchor="middle" x="1065.5" y="-1178.3" font-family="Times New Roman,serif" font-size="14.00">{f32}[1,3,9,9]</text>
</g>
<!-- CLONE_1&#45;&gt;FakeQuantize_119 -->
<g id="edge9" class="edge">
<title>CLONE_1&#45;&gt;FakeQuantize_119</title>
<path fill="none" stroke="black" d="M1123.34,-1170.33C1156.81,-1155.47 1201,-1135.86 1245.4,-1116.15"/>
<polygon fill="black" stroke="black" points="1246.86,-1119.34 1254.58,-1112.08 1244.02,-1112.94 1246.86,-1119.34"/>
<text text-anchor="middle" x="1226.5" y="-1133.8" font-family="Times New Roman,serif" font-size="14.00"> 0 &#45;&gt; 0 </text>
</g>
<!-- CLONE_2 -->
<g id="node11" class="node">
<title>CLONE_2</title>
<polygon fill="none" stroke="black" stroke-dasharray="5,2" points="1346,-1231 1173,-1231 1173,-1163 1346,-1163 1346,-1231"/>
<text text-anchor="middle" x="1259.5" y="-1215.8" font-family="Times New Roman,serif" font-size="14.00">friendly_name: Constant_88</text>
<text text-anchor="middle" x="1259.5" y="-1200.8" font-family="Times New Roman,serif" font-size="14.00">type_name: Constant</text>
<text text-anchor="middle" x="1259.5" y="-1185.8" font-family="Times New Roman,serif" font-size="14.00">{f32}[]</text>
<text text-anchor="middle" x="1259.5" y="-1170.8" font-family="Times New Roman,serif" font-size="14.00">value: [&#45;0.64]</text>
</g>
<!-- CLONE_2&#45;&gt;FakeQuantize_119 -->
<g id="edge10" class="edge">
<title>CLONE_2&#45;&gt;FakeQuantize_119</title>
<path fill="none" stroke="black" d="M1294.52,-1162.83C1307.99,-1150.06 1324.07,-1134.83 1340.37,-1119.39"/>
<polygon fill="black" stroke="black" points="1343.02,-1121.7 1347.87,-1112.28 1338.2,-1116.62 1343.02,-1121.7"/>
<text text-anchor="middle" x="1346.5" y="-1133.8" font-family="Times New Roman,serif" font-size="14.00"> 0 &#45;&gt; 1 </text>
</g>
<!-- CLONE_3 -->
<g id="node12" class="node">
<title>CLONE_3</title>
<polygon fill="none" stroke="black" stroke-dasharray="5,2" points="1537,-1231 1364,-1231 1364,-1163 1537,-1163 1537,-1231"/>
<text text-anchor="middle" x="1450.5" y="-1215.8" font-family="Times New Roman,serif" font-size="14.00">friendly_name: Constant_89</text>
<text text-anchor="middle" x="1450.5" y="-1200.8" font-family="Times New Roman,serif" font-size="14.00">type_name: Constant</text>
<text text-anchor="middle" x="1450.5" y="-1185.8" font-family="Times New Roman,serif" font-size="14.00">{f32}[]</text>
<text text-anchor="middle" x="1450.5" y="-1170.8" font-family="Times New Roman,serif" font-size="14.00">value: [0.635]</text>
</g>
<!-- CLONE_3&#45;&gt;FakeQuantize_119 -->
<g id="edge11" class="edge">
<title>CLONE_3&#45;&gt;FakeQuantize_119</title>
<path fill="none" stroke="black" d="M1446.4,-1162.83C1444.93,-1150.87 1443.18,-1136.74 1441.4,-1122.3"/>
<polygon fill="black" stroke="black" points="1444.86,-1121.78 1440.16,-1112.28 1437.92,-1122.64 1444.86,-1121.78"/>
<text text-anchor="middle" x="1464.5" y="-1133.8" font-family="Times New Roman,serif" font-size="14.00"> 0 &#45;&gt; 2 </text>
</g>
<!-- CLONE_4 -->
<g id="node13" class="node">
<title>CLONE_4</title>
<polygon fill="none" stroke="black" stroke-dasharray="5,2" points="1735.5,-1231 1555.5,-1231 1555.5,-1163 1735.5,-1163 1735.5,-1231"/>
<text text-anchor="middle" x="1645.5" y="-1215.8" font-family="Times New Roman,serif" font-size="14.00">friendly_name: Constant_117</text>
<text text-anchor="middle" x="1645.5" y="-1200.8" font-family="Times New Roman,serif" font-size="14.00">type_name: Constant</text>
<text text-anchor="middle" x="1645.5" y="-1185.8" font-family="Times New Roman,serif" font-size="14.00">{f32}[]</text>
<text text-anchor="middle" x="1645.5" y="-1170.8" font-family="Times New Roman,serif" font-size="14.00">value: [&#45;128]</text>
</g>
<!-- CLONE_4&#45;&gt;FakeQuantize_119 -->
<g id="edge12" class="edge">
<title>CLONE_4&#45;&gt;FakeQuantize_119</title>
<path fill="none" stroke="black" d="M1601.47,-1162.83C1584.15,-1149.77 1563.41,-1134.14 1542.43,-1118.34"/>
<polygon fill="black" stroke="black" points="1544.49,-1115.5 1534.39,-1112.28 1540.27,-1121.09 1544.49,-1115.5"/>
<text text-anchor="middle" x="1596.5" y="-1133.8" font-family="Times New Roman,serif" font-size="14.00"> 0 &#45;&gt; 3 </text>
</g>
<!-- CLONE_5 -->
<g id="node14" class="node">
<title>CLONE_5</title>
<polygon fill="none" stroke="black" stroke-dasharray="5,2" points="1933.5,-1231 1753.5,-1231 1753.5,-1163 1933.5,-1163 1933.5,-1231"/>
<text text-anchor="middle" x="1843.5" y="-1215.8" font-family="Times New Roman,serif" font-size="14.00">friendly_name: Constant_118</text>
<text text-anchor="middle" x="1843.5" y="-1200.8" font-family="Times New Roman,serif" font-size="14.00">type_name: Constant</text>
<text text-anchor="middle" x="1843.5" y="-1185.8" font-family="Times New Roman,serif" font-size="14.00">{f32}[]</text>
<text text-anchor="middle" x="1843.5" y="-1170.8" font-family="Times New Roman,serif" font-size="14.00">value: [127]</text>
</g>
<!-- CLONE_5&#45;&gt;FakeQuantize_119 -->
<g id="edge13" class="edge">
<title>CLONE_5&#45;&gt;FakeQuantize_119</title>
<path fill="none" stroke="black" d="M1758.93,-1162.83C1723.86,-1149.07 1681.48,-1132.45 1638.99,-1115.78"/>
<polygon fill="black" stroke="black" points="1640.23,-1112.51 1629.64,-1112.11 1637.67,-1119.02 1640.23,-1112.51"/>
<text text-anchor="middle" x="1730.5" y="-1133.8" font-family="Times New Roman,serif" font-size="14.00"> 0 &#45;&gt; 4 </text>
</g>
<!-- AvgPool_122 -->
<g id="node15" class="node">
<title>AvgPool_122</title>
<polygon fill="none" stroke="black" points="1013.5,-903 489.5,-903 489.5,-790 1013.5,-790 1013.5,-903"/>
<text text-anchor="middle" x="751.5" y="-887.8" font-family="Times New Roman,serif" font-size="14.00">friendly_name: avgPool1</text>
<text text-anchor="middle" x="751.5" y="-872.8" font-family="Times New Roman,serif" font-size="14.00">name: AvgPool_122</text>
<text text-anchor="middle" x="751.5" y="-857.8" font-family="Times New Roman,serif" font-size="14.00">type_name: AvgPool</text>
<text text-anchor="middle" x="751.5" y="-842.8" font-family="Times New Roman,serif" font-size="14.00">rt info: &#160;PRECISION_PRESERVED(value: true, operation: FakeQuantize)</text>
<text text-anchor="middle" x="751.5" y="-827.8" font-family="Times New Roman,serif" font-size="14.00">QUANTIZATION_ALIGNMENT(low: &#45;1.280000, high: 1.270000, hasToBeAligned: false)</text>
<text text-anchor="middle" x="751.5" y="-812.8" font-family="Times New Roman,serif" font-size="14.00">in0: {i8}[1,3,9,9]: FakeQuantize_110: out0</text>
<text text-anchor="middle" x="751.5" y="-797.8" font-family="Times New Roman,serif" font-size="14.00">out0: {i8}[1,3,9,9]</text>
</g>
<!-- AvgPool_122&#45;&gt;MaxPool_130 -->
<g id="edge14" class="edge">
<title>AvgPool_122&#45;&gt;MaxPool_130</title>
<path fill="none" stroke="black" d="M751.5,-789.75C751.5,-776.69 751.5,-762.67 751.5,-749.22"/>
<polygon fill="black" stroke="black" points="755,-749.08 751.5,-739.08 748,-749.08 755,-749.08"/>
<text text-anchor="middle" x="772.5" y="-760.8" font-family="Times New Roman,serif" font-size="14.00"> 0 &#45;&gt; 0 </text>
</g>
<!-- FakeQuantize_110 -->
<g id="node16" class="node">
<title>FakeQuantize_110</title>
<polygon fill="none" stroke="black" points="856.5,-1112 288.5,-1112 288.5,-954 856.5,-954 856.5,-1112"/>
<text text-anchor="middle" x="572.5" y="-1096.8" font-family="Times New Roman,serif" font-size="14.00">friendly_name: fakeQuantizeOnActivations1</text>
<text text-anchor="middle" x="572.5" y="-1081.8" font-family="Times New Roman,serif" font-size="14.00">name: FakeQuantize_110</text>
<text text-anchor="middle" x="572.5" y="-1066.8" font-family="Times New Roman,serif" font-size="14.00">type_name: FakeQuantize</text>
<text text-anchor="middle" x="572.5" y="-1051.8" font-family="Times New Roman,serif" font-size="14.00">rt info: &#160;QUANTIZATION_ALIGNMENT(low: &#45;1.280000, high: 1.270000, hasToBeAligned: false)</text>
<text text-anchor="middle" x="572.5" y="-1036.8" font-family="Times New Roman,serif" font-size="14.00">in0: {f32}[1,3,9,9]: Parameter_79: out0</text>
<text text-anchor="middle" x="572.5" y="-1021.8" font-family="Times New Roman,serif" font-size="14.00">in1: {f32}[]: Constant_80: out0</text>
<text text-anchor="middle" x="572.5" y="-1006.8" font-family="Times New Roman,serif" font-size="14.00">in2: {f32}[]: Constant_81: out0</text>
<text text-anchor="middle" x="572.5" y="-991.8" font-family="Times New Roman,serif" font-size="14.00">in3: {f32}[]: Constant_108: out0</text>
<text text-anchor="middle" x="572.5" y="-976.8" font-family="Times New Roman,serif" font-size="14.00">in4: {f32}[]: Constant_109: out0</text>
<text text-anchor="middle" x="572.5" y="-961.8" font-family="Times New Roman,serif" font-size="14.00">out0: {i8}[1,3,9,9]</text>
</g>
<!-- FakeQuantize_110&#45;&gt;AvgPool_122 -->
<g id="edge15" class="edge">
<title>FakeQuantize_110&#45;&gt;AvgPool_122</title>
<path fill="none" stroke="black" d="M648.41,-953.76C662.45,-939.29 676.94,-924.35 690.47,-910.41"/>
<polygon fill="black" stroke="black" points="693,-912.83 697.45,-903.21 687.97,-907.95 693,-912.83"/>
<text text-anchor="middle" x="699.5" y="-924.8" font-family="Times New Roman,serif" font-size="14.00"> 0 &#45;&gt; 0 </text>
</g>
<!-- CLONE_6 -->
<g id="node17" class="node">
<title>CLONE_6</title>
<polygon fill="none" stroke="blue" stroke-dasharray="5,2" points="179,-1223.5 0,-1223.5 0,-1170.5 179,-1170.5 179,-1223.5"/>
<text text-anchor="middle" x="89.5" y="-1208.3" font-family="Times New Roman,serif" font-size="14.00">friendly_name: Parameter_79</text>
<text text-anchor="middle" x="89.5" y="-1193.3" font-family="Times New Roman,serif" font-size="14.00">type_name: Parameter</text>
<text text-anchor="middle" x="89.5" y="-1178.3" font-family="Times New Roman,serif" font-size="14.00">{f32}[1,3,9,9]</text>
</g>
<!-- CLONE_6&#45;&gt;FakeQuantize_110 -->
<g id="edge16" class="edge">
<title>CLONE_6&#45;&gt;FakeQuantize_110</title>
<path fill="none" stroke="black" d="M165.2,-1170.5C172.74,-1167.96 180.27,-1165.43 187.5,-1163 233.45,-1147.57 282.49,-1131.12 329.65,-1115.31"/>
<polygon fill="black" stroke="black" points="331,-1118.55 339.37,-1112.05 328.77,-1111.91 331,-1118.55"/>
<text text-anchor="middle" x="304.5" y="-1133.8" font-family="Times New Roman,serif" font-size="14.00"> 0 &#45;&gt; 0 </text>
</g>
<!-- CLONE_7 -->
<g id="node18" class="node">
<title>CLONE_7</title>
<polygon fill="none" stroke="black" stroke-dasharray="5,2" points="370,-1231 197,-1231 197,-1163 370,-1163 370,-1231"/>
<text text-anchor="middle" x="283.5" y="-1215.8" font-family="Times New Roman,serif" font-size="14.00">friendly_name: Constant_80</text>
<text text-anchor="middle" x="283.5" y="-1200.8" font-family="Times New Roman,serif" font-size="14.00">type_name: Constant</text>
<text text-anchor="middle" x="283.5" y="-1185.8" font-family="Times New Roman,serif" font-size="14.00">{f32}[]</text>
<text text-anchor="middle" x="283.5" y="-1170.8" font-family="Times New Roman,serif" font-size="14.00">value: [&#45;1.28]</text>
</g>
<!-- CLONE_7&#45;&gt;FakeQuantize_110 -->
<g id="edge17" class="edge">
<title>CLONE_7&#45;&gt;FakeQuantize_110</title>
<path fill="none" stroke="black" d="M342.68,-1162.83C366.55,-1149.45 395.26,-1133.35 424.17,-1117.14"/>
<polygon fill="black" stroke="black" points="426.14,-1120.06 433.15,-1112.11 422.71,-1113.95 426.14,-1120.06"/>
<text text-anchor="middle" x="415.5" y="-1133.8" font-family="Times New Roman,serif" font-size="14.00"> 0 &#45;&gt; 1 </text>
</g>
<!-- CLONE_8 -->
<g id="node19" class="node">
<title>CLONE_8</title>
<polygon fill="none" stroke="black" stroke-dasharray="5,2" points="561,-1231 388,-1231 388,-1163 561,-1163 561,-1231"/>
<text text-anchor="middle" x="474.5" y="-1215.8" font-family="Times New Roman,serif" font-size="14.00">friendly_name: Constant_81</text>
<text text-anchor="middle" x="474.5" y="-1200.8" font-family="Times New Roman,serif" font-size="14.00">type_name: Constant</text>
<text text-anchor="middle" x="474.5" y="-1185.8" font-family="Times New Roman,serif" font-size="14.00">{f32}[]</text>
<text text-anchor="middle" x="474.5" y="-1170.8" font-family="Times New Roman,serif" font-size="14.00">value: [1.27]</text>
</g>
<!-- CLONE_8&#45;&gt;FakeQuantize_110 -->
<g id="edge18" class="edge">
<title>CLONE_8&#45;&gt;FakeQuantize_110</title>
<path fill="none" stroke="black" d="M494.57,-1162.83C502.01,-1150.52 510.84,-1135.92 519.84,-1121.05"/>
<polygon fill="black" stroke="black" points="522.96,-1122.65 525.14,-1112.28 516.97,-1119.03 522.96,-1122.65"/>
<text text-anchor="middle" x="533.5" y="-1133.8" font-family="Times New Roman,serif" font-size="14.00"> 0 &#45;&gt; 2 </text>
</g>
<!-- CLONE_9 -->
<g id="node20" class="node">
<title>CLONE_9</title>
<polygon fill="none" stroke="black" stroke-dasharray="5,2" points="759.5,-1231 579.5,-1231 579.5,-1163 759.5,-1163 759.5,-1231"/>
<text text-anchor="middle" x="669.5" y="-1215.8" font-family="Times New Roman,serif" font-size="14.00">friendly_name: Constant_108</text>
<text text-anchor="middle" x="669.5" y="-1200.8" font-family="Times New Roman,serif" font-size="14.00">type_name: Constant</text>
<text text-anchor="middle" x="669.5" y="-1185.8" font-family="Times New Roman,serif" font-size="14.00">{f32}[]</text>
<text text-anchor="middle" x="669.5" y="-1170.8" font-family="Times New Roman,serif" font-size="14.00">value: [&#45;128]</text>
</g>
<!-- CLONE_9&#45;&gt;FakeQuantize_110 -->
<g id="edge19" class="edge">
<title>CLONE_9&#45;&gt;FakeQuantize_110</title>
<path fill="none" stroke="black" d="M649.64,-1162.83C642.27,-1150.52 633.53,-1135.92 624.62,-1121.05"/>
<polygon fill="black" stroke="black" points="627.51,-1119.06 619.37,-1112.28 621.51,-1122.66 627.51,-1119.06"/>
<text text-anchor="middle" x="659.5" y="-1133.8" font-family="Times New Roman,serif" font-size="14.00"> 0 &#45;&gt; 3 </text>
</g>
<!-- CLONE_10 -->
<g id="node21" class="node">
<title>CLONE_10</title>
<polygon fill="none" stroke="black" stroke-dasharray="5,2" points="957.5,-1231 777.5,-1231 777.5,-1163 957.5,-1163 957.5,-1231"/>
<text text-anchor="middle" x="867.5" y="-1215.8" font-family="Times New Roman,serif" font-size="14.00">friendly_name: Constant_109</text>
<text text-anchor="middle" x="867.5" y="-1200.8" font-family="Times New Roman,serif" font-size="14.00">type_name: Constant</text>
<text text-anchor="middle" x="867.5" y="-1185.8" font-family="Times New Roman,serif" font-size="14.00">{f32}[]</text>
<text text-anchor="middle" x="867.5" y="-1170.8" font-family="Times New Roman,serif" font-size="14.00">value: [127]</text>
</g>
<!-- CLONE_10&#45;&gt;FakeQuantize_110 -->
<g id="edge20" class="edge">
<title>CLONE_10&#45;&gt;FakeQuantize_110</title>
<path fill="none" stroke="black" d="M807.09,-1162.83C782.62,-1149.39 753.17,-1133.21 723.52,-1116.93"/>
<polygon fill="black" stroke="black" points="725.19,-1113.86 714.74,-1112.11 721.82,-1119.99 725.19,-1113.86"/>
<text text-anchor="middle" x="793.5" y="-1133.8" font-family="Times New Roman,serif" font-size="14.00"> 0 &#45;&gt; 4 </text>
</g>
</g>
</svg>
